<?xml version="1.0" encoding="UTF-8" standalone="no"?>
<!-- Created with Inkscape (http://www.inkscape.org/) -->

<svg
   xmlns:dc="http://purl.org/dc/elements/1.1/"
   xmlns:cc="http://creativecommons.org/ns#"
   xmlns:rdf="http://www.w3.org/1999/02/22-rdf-syntax-ns#"
   xmlns:svg="http://www.w3.org/2000/svg"
   xmlns="http://www.w3.org/2000/svg"
   xmlns:sodipodi="http://sodipodi.sourceforge.net/DTD/sodipodi-0.dtd"
   xmlns:inkscape="http://www.inkscape.org/namespaces/inkscape"
   id="svg4136"
   version="1.1"
   inkscape:version="0.91 r13725"
   width="300"
   height="300"
   viewBox="0 0 300 300"
   sodipodi:docname="ccc_lunge.svg">
  <metadata
     id="metadata4142">
    <rdf:RDF>
      <cc:Work
         rdf:about="">
        <dc:format>image/svg+xml</dc:format>
        <dc:type
           rdf:resource="http://purl.org/dc/dcmitype/StillImage" />
        <dc:title />
      </cc:Work>
    </rdf:RDF>
  </metadata>
  <defs
     id="defs4140" />
  <sodipodi:namedview
     pagecolor="#ffffff"
     bordercolor="#666666"
     borderopacity="1"
     objecttolerance="10"
     gridtolerance="10"
     guidetolerance="10"
     inkscape:pageopacity="0"
     inkscape:pageshadow="2"
     inkscape:window-width="1920"
     inkscape:window-height="1138"
     id="namedview4138"
     showgrid="false"
     inkscape:zoom="1.5084945"
     inkscape:cx="-101.03149"
     inkscape:cy="151.88662"
     inkscape:window-x="-8"
     inkscape:window-y="-8"
     inkscape:window-maximized="1"
     inkscape:current-layer="svg4136" />
  <path
     style="fill:none;fill-rule:evenodd;stroke:#000000;stroke-width:0.60000002;stroke-linecap:butt;stroke-linejoin:miter;stroke-miterlimit:4;stroke-dasharray:none;stroke-opacity:1"
     d="m 36.052486,132.20124 -4.833473,7.40951 -2.974445,7.21953 -1.859028,9.11941 0.371805,7.97948 0.743608,5.69962 -2.121933,4.22583 3.237352,9.07331 0.829954,11.04232 2.516296,9.85631 3.71806,12.91916 3.346249,11.39925 4.067312,9.52243 6.715058,7.95643 8.551532,5.69962 3.229612,1.96508 7.716009,0.83354 -0.670381,0.35248 21.328249,-6.95084 11.154178,-3.41977 9.29514,-3.79976 10.03876,-3.79975 9.66694,-5.69963 6.69251,-10.25934 2.60264,-11.77922 0.3718,-12.91915 -0.3718,-14.43906 0.74361,-10.25934 0,-6.83955 -1.20837,-2.65983 -5.20528,4.74969 -5.85594,5.88962 -2.55429,2.20344 -4.88182,3.11621 -6.88775,3.44283 -9.00695,3.96669 -5.601492,1.89427 -5.645636,0.95554 c -1.561751,0.5187 -2.729179,1.16914 -4.189093,1.37936 -1.55668,0.22416 -3.44591,-0.0132 -6.500319,-0.14444 l -8.092294,-0.55784 -0.358456,-0.25491 -3.539984,-1.18211 -8.458586,-2.75483 -6.320695,-5.88961 -2.959089,-3.26295 -3.191653,-4.38743 -5.090793,-7.02426 -0.11449,-0.17222 -4.35277,-7.66667 -2.491803,-7.10428 -1.324941,-4.28323 0.09869,-6.47133 z"
     id="C34.2"
     inkscape:connector-curvature="0"
     sodipodi:nodetypes="ccccccccccccccccccccccccccccccccccccccsccccccccccccccc"
     inkscape:label="#path4148" />
  <path
     style="fill:none;fill-rule:evenodd;stroke:#000000;stroke-width:0.60000002;stroke-linecap:butt;stroke-linejoin:miter;stroke-miterlimit:4;stroke-dasharray:none;stroke-opacity:1"
     d="m 136.44004,19.918566 0.74361,17.47886 0,14.819031 -0.3718,13.299131 0.74361,12.919157 0.37181,6.079603 0,-0.759948"
     id="path4152"
     inkscape:connector-curvature="0" />
  <path
     style="fill:none;fill-rule:evenodd;stroke:#000000;stroke-width:0.60000002;stroke-linecap:butt;stroke-linejoin:miter;stroke-miterlimit:4;stroke-dasharray:none;stroke-opacity:1"
     d="m 155.77394,18.018692 -0.3718,23.938434 -0.37181,17.478859 -0.37181,13.299132 0.33638,11.688098 0.0354,1.23106 -0.093,0 -0.12485,-0.130385"
     id="path4154"
     inkscape:connector-curvature="0"
     sodipodi:nodetypes="cccccccc" />
  <path
     style="fill:none;fill-rule:evenodd;stroke:#000000;stroke-width:0.60000002;stroke-linecap:butt;stroke-linejoin:miter;stroke-miterlimit:4;stroke-dasharray:none;stroke-opacity:1"
     d="m 136.44004,19.918566 0,-4.179727 9.85286,1.5199 9.45849,-0.759948 0.0226,3.419775 -0.1089,5.588338"
     id="path4156"
     inkscape:connector-curvature="0"
     sodipodi:nodetypes="cccccc" />
  <path
     style="fill:none;fill-rule:evenodd;stroke:#000000;stroke-width:0.60000002;stroke-linecap:butt;stroke-linejoin:miter;stroke-miterlimit:4;stroke-dasharray:none;stroke-opacity:1"
     d="m 136.81185,27.138096 10.03875,2.279853 8.8342,-1.864062 -0.0423,-0.3045 -0.21779,11.04233 -7.34041,1.236929 -1.9773,-0.143098 -2.77533,-0.222588 -6.14801,-2.145508 0,10.259329 7.52246,2.191612 8.46519,-0.291737 2.00917,-0.491264 -0.15675,11.890521 -0.11706,-0.951302 -5.80264,0.302639 -7.08686,-0.111291 -4.94238,-2.145509 0.1089,10.884939 6.38449,0.625603 8.48775,0.134345 2.53497,-1.608138 0.17656,9.967593 -6.09516,0.514318 -8.03345,-0.176486 -3.3237,-1.969029 -0.10891,0.02304"
     id="path4160"
     inkscape:connector-curvature="0"
     sodipodi:nodetypes="ccccccccccccccccccccccccccc" />
  <path
     style="fill:none;fill-rule:evenodd;stroke:#000000;stroke-width:1px;stroke-linecap:butt;stroke-linejoin:miter;stroke-opacity:1"
     d="m 156.66496,92.873803 0.0253,-0.130383"
     id="path4164"
     inkscape:connector-curvature="0"
     sodipodi:nodetypes="cc" />
  <path
     id="C34.1"
     style="fill:none;fill-rule:evenodd;stroke:#000000;stroke-width:0.60000002;stroke-linecap:butt;stroke-linejoin:miter;stroke-miterlimit:4;stroke-dasharray:none;stroke-opacity:1"
     d="m 169.15895,65.895567 -1.48722,12.159204 -1.85903,9.879357 -0.37181,7.599503 -1.48722,7.979479 -2.60264,5.69963 -0.74361,6.0796 -0.74362,3.79974 -1.11541,6.45959 0.74361,8.35945 2.97445,3.79976 -1.11542,4.17973 1.85902,6.0796 4.08987,5.31965 5.20528,6.0796 3.71806,6.0796 5.94889,6.45957 2.60264,8.35946 -1.48722,5.69964 0.74361,3.79975 -1.85903,4.17973 0.37181,8.35945 -2.97445,6.83955 -2.97445,8.73943 -2.97444,6.45957 -3.34626,8.35946 0.37181,7.21954 4.46167,7.5995 6.69251,3.79974 5.94889,1.89989 4.08986,-6.07961 5.94889,-5.69963 6.6925,-3.41977 5.20529,-4.17973 7.43611,-4.93968 6.3207,-5.69962 8.17972,-7.21954 7.43612,-7.21952 7.06431,-5.31965 8.55154,-7.97948 4.83347,-6.83956 5.57709,-7.21952 5.20528,-6.83956 4.83347,-9.87935 3.71806,-6.07961 0,-10.25933 -2.60264,-9.1194 -2.97445,-11.77924 -3.71806,-11.01928 -3.34625,-11.77923 -8.17972,-15.578975 -8.17973,-11.779231 -9.29514,-10.639309 -9.29515,-10.639304 -8.55153,-6.839555 -11.89778,-9.879351 -10.41056,-6.079607 -10.41057,-1.519901 -9.66695,4.179727 -4.46167,7.599504 -4.46167,11.399257 z m -36.80877,19.758708 -2.23084,-11.779231 1.11542,-8.359456 -0.74361,-10.25933 -2.97445,-11.019278 -7.0643,-7.979482 -7.43612,-3.799748 -10.03876,1.139926 -7.436111,4.179723 -7.436114,5.319655 -6.320701,6.079602 -8.551533,7.219529 -6.692499,5.319654 -7.06431,8.73943 -8.179728,11.019277 -5.948892,9.879356 -4.089864,13.299128 -4.089864,14.43905 -1.115418,12.91916 0.37181,12.53919 3.34625,11.01929 5.948891,9.87934 8.179728,11.01929 8.179728,7.97947 12.641391,4.17973 13.385011,0.75995 14.128615,-3.41977 11.52598,-4.93968 11.15418,-6.0796 7.43611,-7.21954 6.6925,-6.0796 -0.37181,-16.7189 0,-11.39926 -1.11541,-11.01928 -1.48723,-13.67911 -2.60263,-15.199004 z"
     inkscape:label="#path4166" />
  <path
     id="C34.3"
     style="fill:none;fill-rule:evenodd;stroke:#000000;stroke-width:0.60000002;stroke-linecap:butt;stroke-linejoin:miter;stroke-miterlimit:4;stroke-dasharray:none;stroke-opacity:1"
     d="m 188.12104,252.84336 4.08987,5.31965 8.55153,2.65983 8.92334,2.27985 8.17972,2.27986 7.80792,2.27984 8.92335,2.65983 8.92333,2.27985 4.46167,3.41978 4.83347,3.79976 5.57709,4.17972 6.3207,-1.89988 4.46167,-8.35945 3.34625,-10.25934 2.23084,-11.01927 1.85902,-9.49938 2.97445,-11.01928 0.74361,-11.39927 0,-10.25932 0,-11.39925 0.37181,-11.39926 0.74361,-12.15921 -0.74361,-8.35946 -0.74362,-5.69963 -1.70502,-1.79136 -3.87206,6.73105 -4.08986,8.73943 -6.41366,7.88448 -8.17972,11.39926 -4.74052,4.93968 -13.0132,10.73429 -8.92334,8.35945 -11.80483,10.44933 -7.43612,5.12966 -6.41365,4.93968 -5.20528,2.37484 -6.04185,5.50965 z m -162.850918,-79.03484 -3.71806,8.73943 -1.115418,8.73944 -2.230832,10.6393 -1.115418,11.39925 -1.487223,13.29913 0.371804,12.53919 0,12.53918 0,11.01927 0.743614,11.77924 2.602642,7.21953 5.577081,1.13993 8.551533,-6.83956 7.807923,-6.45958 10.41056,-7.21953 8.923342,-4.55971 8.945895,-3.55411 -8.02572,-0.91537 -10.215321,-6.54979 -1.68909,-1.41904 -6.490639,-7.70036 -4.089864,-8.73944 -3.718054,-13.29914 -3.346255,-12.15919 -2.602636,-10.25934 -0.650662,-9.87934 z"
     inkscape:label="#path4168" />
  <path
     style="fill:none;fill-rule:evenodd;stroke:#000000;stroke-width:0.60000002;stroke-linecap:butt;stroke-linejoin:miter;stroke-miterlimit:4;stroke-dasharray:none;stroke-opacity:1"
     d="m 137.92727,84.291766 -3.71806,5.162262 -4.83348,7.599503 -5.57708,7.599499 -1.85903,2.65983 -4.46167,-5.31966 c 0,0 -7.46865,-9.893903 -9.35894,-6.547806 -1.98111,3.506876 -5.14149,9.587626 -5.14149,9.587626 0,0 -0.51944,-1.59651 0.74362,0.75995 1.43887,2.68447 7.06431,4.17972 7.06431,4.17972 l 5.94889,4.55969 4.46167,2.27986 -1.85903,9.87935 -1.48722,7.21953 -2.60265,6.83956 4.46167,3.79974 c 0,0 4.65629,6.61936 5.24652,3.2624 1.47486,-8.38832 2.1896,-8.96201 2.1896,-8.96201 l 5.20528,-16.71892 2.97445,-6.83955 1.11541,-3.67902 4.83348,-8.10021 4.08986,-3.79975 4.46167,8.73943 5.57709,7.21953 7.80791,3.41976 7.43612,1.51991 6.6925,1.89988 8.17973,4.93967 7.80793,9.87937 5.94889,6.83954 6.6925,4.17973 2.23083,-7.97948 -7.43611,-9.49938 -6.3207,-7.21953 -4.83347,-3.79974 -1.48723,-5.69964 6.3207,-1.5199 7.06431,4.5597 3.71806,3.03981 4.08986,-4.93968 -1.85902,-6.07959 -7.06431,-2.27987 -5.20529,-2.27985 1.85903,-5.699625 1.11542,-6.83955 -0.74362,-3.799754 -2.97444,-3.419774 -5.57709,1.139926 -1.11542,7.21953 0.74362,5.319648 -2.23083,4.939679 -3.34626,3.0398 -8.17972,0.37997 -6.69251,-1.89986 -5.57708,-3.03982 -3.34625,-4.939669 -2.60265,-4.559702 -1.44872,-6.918248 -0.6036,0.150978 -4.26838,1.067642 -5.20527,0 -4.08987,-0.759948 z"
     id="C34.0"
     inkscape:connector-curvature="0"
     sodipodi:nodetypes="ccccccscccccccccsccccccccccccccccccccccccccccccccccccccccccccccc"
     inkscape:label="#path4158" />
</svg>
