<?xml version="1.0" encoding="UTF-8" standalone="no"?>
<!-- Created with Inkscape (http://www.inkscape.org/) -->

<svg
   xmlns:dc="http://purl.org/dc/elements/1.1/"
   xmlns:cc="http://creativecommons.org/ns#"
   xmlns:rdf="http://www.w3.org/1999/02/22-rdf-syntax-ns#"
   xmlns:svg="http://www.w3.org/2000/svg"
   xmlns="http://www.w3.org/2000/svg"
   xmlns:sodipodi="http://sodipodi.sourceforge.net/DTD/sodipodi-0.dtd"
   xmlns:inkscape="http://www.inkscape.org/namespaces/inkscape"
   version="1.0"
   width="1226.9314"
   height="1236.2102"
   viewBox="0 0 1226.9314 1236.2102"
   id="svg2"
   xml:space="preserve"
   sodipodi:version="0.32"
   inkscape:version="0.92.3 (2405546, 2018-03-11)"
   sodipodi:docname="ccc_bavaria_2.svg"
   inkscape:output_extension="org.inkscape.output.svg.inkscape"
   sodipodi:modified="true"><metadata
     id="metadata636"><rdf:RDF><cc:Work
         rdf:about=""><dc:format>image/svg+xml</dc:format><dc:type
           rdf:resource="http://purl.org/dc/dcmitype/StillImage" /><dc:title></dc:title></cc:Work></rdf:RDF></metadata><sodipodi:namedview
     inkscape:window-height="987"
     inkscape:window-width="1680"
     inkscape:pageshadow="2"
     inkscape:pageopacity="0.0"
     guidetolerance="10.0"
     gridtolerance="10.0"
     objecttolerance="10.0"
     borderopacity="1.0"
     bordercolor="#666666"
     pagecolor="#ffffff"
     id="base"
     inkscape:zoom="0.4042004"
     inkscape:cx="353.3883"
     inkscape:cy="623.84972"
     inkscape:window-x="-8"
     inkscape:window-y="-8"
     inkscape:current-layer="svg2"
     showguides="true"
     inkscape:guide-bbox="true"
     showgrid="false"
     inkscape:window-maximized="1" /><defs
     id="defs635" /><path
     style="fill:#e4dcd6;stroke:#e4dcd6;stroke-width:0.5;stroke-miterlimit:3.8636899;stroke-dasharray:none;fill-opacity:1;stroke-opacity:1"
     d="M 677.4067,493.93573 L 565.9692,529.59203 L 492.438,603.15453 L 508.0317,768.06073 L 525.8755,830.46703 L 447.8755,870.59203 L 425.563,1031.0607 L 454.5005,1130.8732 L 472.9692,1142.217 L 491.7817,1134.9045 L 500.2505,1133.7482 L 505.2192,1140.6857 L 508.688,1140.6857 L 497.938,1146.0295 L 496.4067,1152.967 L 499.4692,1155.2482 L 512.5317,1153.717 L 512.5317,1159.092 L 525.5942,1173.3107 L 525.9692,1176.7795 L 521.7505,1180.217 L 524.813,1185.592 L 555.5317,1186.3732 L 560.9067,1184.842 L 563.2192,1179.467 L 570.9067,1175.6232 L 582.0317,1170.9982 L 592.7817,1171.4045 L 594.313,1172.9357 L 586.2505,1184.842 L 599.313,1184.0607 L 615.438,1164.467 L 636.563,1166.0295 L 633.5005,1157.5607 L 626.9692,1155.6545 L 633.5005,1147.1857 L 641.1567,1138.7482 L 645.0005,1141.8107 L 657.688,1142.967 L 674.563,1139.1545 L 678.4067,1134.9045 L 678.0317,1123.4045 L 682.2505,1114.1857 L 689.1567,1109.5607 L 726.813,1109.1857 L 742.938,1112.2482 L 745.6255,1104.5607 L 755.2192,1101.8732 L 765.188,1099.967 L 784.0005,1094.967 L 787.8442,1099.967 L 797.4692,1096.9045 L 802.8442,1099.967 L 828.563,1101.4982 L 834.688,1099.217 L 832.7817,1090.3732 L 822.813,1069.2482 L 822.4067,1065.4045 L 827.7817,1065.4045 L 838.1567,1058.4982 L 845.8442,1048.9045 L 847.7505,1052.7482 L 842.3755,1067.342 L 845.8442,1072.6857 L 866.563,1065.4045 L 866.9692,1067.717 L 873.5005,1069.9982 L 885.3755,1066.1857 L 892.688,1065.4045 L 893.063,1067.717 L 893.063,1073.092 L 908.438,1091.1232 L 927.6255,1087.6857 L 934.5317,1072.3107 L 957.188,1068.092 L 976.7817,1073.467 L 973.7192,1078.842 L 984.4692,1087.6857 L 991.0005,1093.0607 L 983.313,1097.6545 L 980.2505,1105.717 L 981.3755,1109.5607 L 986.7817,1116.467 L 1006.3442,1126.0607 L 1014.0317,1135.3107 L 1039.3756,1146.4357 L 1049.3443,1135.6857 L 1051.2818,1094.592 L 1059.3443,1084.217 L 1057.0318,1076.5607 L 1053.9693,1067.717 L 1054.3443,1062.342 L 1045.9068,1054.2795 L 1038.2193,1049.6545 L 1033.2193,1053.4982 L 1030.5318,1055.8107 L 1014.813,1055.0295 L 1009.438,1049.6545 L 1011.7192,1045.0607 L 1017.0943,1041.217 L 1019.0318,1034.6857 L 1018.2506,1032.3732 L 1014.813,1032.7795 L 1017.5006,1028.9357 L 1026.6881,1013.967 L 1032.8443,1003.967 L 1028.6256,995.12323 L 1022.4693,983.62323 L 1010.188,964.40453 L 998.6567,961.34203 L 992.5317,942.52953 L 980.6255,931.77953 L 967.938,919.87323 L 965.2505,906.06073 L 967.188,900.68573 L 971.0317,900.68573 L 984.4692,889.90453 L 990.2192,880.31073 L 994.438,871.46703 L 1012.5005,869.18573 L 1017.8756,866.12323 L 1028.6256,851.12323 L 1034.5318,847.62323 L 1005.0317,774.74823 L 788.8442,714.59203 L 677.4067,493.93573 z "
     id="Oberbayern"
     inkscape:label="#polyline30471" /><path
     style="fill:#eaf3fb;stroke:#d5e6f4;stroke-width:0.5;stroke-miterlimit:3.8636899;stroke-dasharray:none;stroke-opacity:1;fill-opacity:1"
     d="M 1053.787,505.41195 L 1045.3495,528.7557 L 1033.0682,524.91195 L 1029.2245,523.0057 L 1028.0995,518.0057 L 1023.0995,513.3807 L 1018.4745,512.2557 L 1010.8182,513.0057 L 1004.662,509.9432 L 998.5057,519.91195 L 993.912,522.59945 L 986.2245,525.28695 L 978.9432,524.91195 L 973.162,523.0057 L 968.9432,526.0682 L 959.7245,523.7557 L 954.3495,527.97445 L 955.5057,531.4432 L 948.9745,532.59945 L 947.8182,529.91195 L 943.2245,532.59945 L 942.0682,532.97445 L 935.537,537.1932 L 927.0995,536.4432 L 919.787,537.59945 L 919.037,539.8807 L 912.1307,538.72445 L 901.3495,545.2557 L 896.7557,554.84945 L 891.7557,553.72445 L 888.6932,553.72445 L 884.4745,561.0057 L 886.0057,564.8495 L 887.912,580.9745 L 887.537,585.9745 L 877.5682,583.662 L 876.412,587.5057 L 879.0995,589.412 L 880.2557,592.5057 L 877.5682,594.412 L 877.162,601.3182 L 881.787,607.0995 L 874.0995,614.7557 L 875.6307,620.537 L 869.0995,628.1932 L 865.662,630.912 L 864.5057,633.5995 L 859.1307,635.1307 L 849.1307,629.3495 L 843.7557,632.037 L 842.5995,638.1932 L 834.162,630.5057 L 831.8495,634.3495 L 834.162,637.412 L 832.2557,640.8807 L 825.3495,649.6932 L 802.6932,662.0057 L 803.8495,666.9745 L 796.912,667.7557 L 794.5995,665.0682 L 796.162,655.0995 L 794.2245,638.1932 L 798.0682,631.662 L 802.662,625.537 L 796.162,614.3807 L 789.2245,616.6932 L 790.0057,609.3807 L 792.3182,608.6307 L 788.4745,607.8495 L 776.5682,595.5682 L 773.5057,594.787 L 767.7245,599.412 L 765.4432,597.8807 L 766.1932,593.662 L 755.8182,600.162 L 750.0682,600.5682 L 751.5995,594.037 L 746.2245,584.8182 L 744.3182,582.1307 L 742.0057,584.037 L 742.3807,578.287 L 735.8495,574.0682 L 735.8495,573.662 L 726.2557,572.912 L 720.5057,575.2245 L 710.5057,588.662 L 697.4745,576.7557 L 692.4745,574.0682 L 684.412,576.3807 L 680.5682,580.9745 L 674.412,579.4432 L 669.787,600.9432 L 678.5995,607.8495 L 696.2557,612.8495 L 702.0057,608.2245 L 699.3182,620.1307 L 704.3182,625.1307 L 706.2245,628.9745 L 700.0995,632.412 L 700.4745,643.162 L 704.6932,652.3807 L 705.0682,660.4432 L 701.2557,663.537 L 694.7245,663.162 L 699.3182,671.5995 L 690.8807,673.5057 L 685.5057,678.8807 L 688.9432,686.9432 L 685.8807,694.2557 L 700.4745,713.8182 L 695.4745,720.7557 L 695.8807,724.9745 L 699.3182,725.7245 L 710.4745,731.5057 L 716.2245,731.5057 L 720.0682,726.1307 L 726.5995,730.3495 L 733.1307,733.787 L 739.2557,738.787 L 746.5682,736.8807 L 750.0057,736.0995 L 758.0682,739.9432 L 763.0682,739.162 L 765.7557,748.3807 L 763.4432,755.6932 L 767.287,763.3807 L 762.6932,767.9745 L 769.9745,770.662 L 775.3495,768.7557 L 774.9745,773.7245 L 774.1932,777.1932 L 771.912,786.412 L 776.1307,785.6307 L 778.037,793.3182 L 779.1932,798.6932 L 792.6307,793.6932 L 798.412,794.8495 L 801.4745,794.8495 L 811.0682,794.4432 L 814.912,795.5995 L 816.8182,804.0682 L 816.8182,804.4432 L 823.3495,810.5682 L 823.7557,816.7245 L 832.5682,822.0995 L 832.9432,829.0057 L 836.412,831.3182 L 837.5682,832.4745 L 840.6307,829.787 L 850.6307,828.6307 L 851.0057,833.6307 L 856.7557,830.537 L 857.1307,827.4745 L 867.912,822.0995 L 868.287,822.8807 L 871.7245,816.7245 L 880.5682,812.1307 L 884.412,805.9745 L 883.2557,799.0682 L 887.4745,795.2245 L 891.3182,795.5995 L 894.412,790.2557 L 908.2245,794.8495 L 909.7557,800.9745 L 915.1307,799.0682 L 918.9745,809.4432 L 918.5995,805.2245 L 922.037,805.2245 L 926.662,815.1932 L 926.2557,817.5057 L 928.5682,822.0995 L 941.2557,825.162 L 947.0057,820.1932 L 950.0682,825.162 L 955.0682,826.3182 L 961.2245,828.6307 L 969.662,825.5682 L 980.412,830.162 L 987.6932,839.3807 L 991.9432,845.162 L 1001.162,850.1307 L 1000.3807,851.662 L 999.5995,856.662 L 998.8495,858.5682 L 1012.662,869.3182 L 1012.787,869.3182 L 1018.0995,866.287 L 1028.8495,851.3182 L 1045.7245,841.3182 L 1049.9432,840.9432 L 1057.2557,840.5682 L 1069.162,834.037 L 1078.3807,833.662 L 1090.662,832.8807 L 1106.787,821.7557 L 1123.6932,803.6932 L 1127.537,799.0995 L 1128.662,789.1307 L 1132.5057,779.5057 L 1129.0682,769.912 L 1133.287,756.4745 L 1135.5995,749.5682 L 1130.2245,736.1307 L 1137.1307,733.8182 L 1143.2557,729.5995 L 1147.8807,719.2245 L 1157.8495,726.537 L 1164.787,730.3807 L 1169.3807,726.537 L 1184.3495,734.5995 L 1186.662,739.1932 L 1202.787,745.7245 L 1207.412,739.1932 L 1206.2557,733.8182 L 1208.537,726.162 L 1213.162,728.4432 L 1220.0682,721.537 L 1225.0682,705.037 L 1222.3807,689.662 L 1221.5995,676.5995 L 1215.8495,670.0682 L 1221.2245,662.787 L 1223.1307,652.412 L 1225.4432,647.8182 L 1216.5995,644.7245 L 1218.912,638.5995 L 1213.537,630.162 L 1205.8495,625.162 L 1197.787,607.5057 L 1194.7245,608.2557 L 1190.1307,608.6307 L 1181.662,609.412 L 1174.7557,597.8807 L 1157.8495,576.3807 L 1139.8182,577.912 L 1140.1932,585.9745 L 1140.5995,588.287 L 1135.9745,587.1307 L 1128.662,581.7557 L 1121.3807,577.912 L 1117.537,575.2245 L 1113.6932,572.537 L 1112.537,561.412 L 1111.412,551.03695 L 1097.5682,534.91195 L 1081.8182,523.78695 L 1070.6932,526.84945 L 1053.787,516.47445 L 1053.787,505.41195 z "
     id="Niederbayern"
     inkscape:label="#polyline27557" /><path
     style="fill:#e6d7e9;stroke:#e6d7e9;stroke-width:0.86799997;stroke-miterlimit:3.8636899;stroke-dasharray:none;fill-opacity:1;stroke-opacity:1"
     d="M 412.29675,573.59224 L 403.453,583.93604 L 395.3905,582.81104 L 382.328,584.71724 L 380.04675,585.09224 L 377.35925,594.68604 L 377.453,594.71724 L 374.7655,598.18604 L 375.17175,599.31104 L 378.60925,598.56104 L 378.98425,601.99854 L 385.1405,607.37354 L 387.453,618.52974 L 380.1405,621.21724 L 387.453,627.74854 L 385.92175,632.71724 L 387.453,633.87354 L 387.453,641.56104 L 381.67175,644.62354 L 380.92175,647.71724 L 386.29675,649.62354 L 386.29675,657.68604 L 384.7655,658.84224 L 381.67175,661.52974 L 381.29675,669.59224 L 379.3905,670.74854 L 380.5155,682.27974 L 390.5155,685.34224 L 388.203,688.02974 L 396.2655,700.31104 L 397.42175,702.62354 L 390.8905,709.90474 L 377.453,713.74854 L 384.35925,701.84224 L 382.453,699.15474 L 376.703,699.56104 L 372.85925,703.77974 L 372.078,711.43604 L 365.17175,716.43604 L 362.48425,714.52974 L 359.0155,703.37354 L 354.79675,703.37354 L 354.04675,705.68604 L 342.5155,701.09224 L 342.5155,704.52974 L 339.04675,706.84224 L 339.828,715.27974 L 348.67175,723.74854 L 355.578,733.34224 L 354.79675,734.87354 L 349.42175,735.24854 L 349.42175,740.62354 L 351.73425,743.31104 L 354.04675,752.93604 L 352.10925,755.21724 L 350.578,760.21724 L 353.2655,765.59224 L 344.828,767.90474 L 341.35925,766.74854 L 332.92175,770.21724 L 333.67175,772.12354 L 334.453,774.02974 L 335.60925,777.12354 L 331.7655,778.27974 L 329.828,778.27974 L 326.0155,780.56104 L 317.17175,789.40474 L 308.73425,790.93604 L 301.04675,783.24854 L 289.5155,791.31104 L 283.3905,790.56104 L 285.67175,800.52974 L 268.0155,819.34224 L 269.54675,825.09224 L 274.92175,830.46724 L 278.0155,833.56104 L 284.92175,846.99854 L 291.828,855.81104 L 291.04675,859.27974 L 292.203,866.18604 L 291.453,873.49854 L 296.828,884.24854 L 296.828,884.62354 L 296.453,887.31104 L 299.10925,899.96724 L 302.578,911.87354 L 302.953,912.65474 L 309.8905,920.71724 L 310.6405,924.18604 L 310.6405,925.71724 L 311.0155,936.84224 L 308.73425,951.43604 L 309.48425,952.96724 L 309.10925,955.27974 L 305.6405,959.87354 L 304.5155,970.62354 L 302.203,971.02974 L 297.953,972.56104 L 296.828,977.56104 L 303.35925,984.84224 L 302.953,991.74854 L 302.953,992.90474 L 302.203,1007.1235 L 298.73425,1010.9672 L 294.8905,1010.9672 L 296.453,1015.561 L 301.04675,1011.7172 L 303.35925,1021.311 L 308.73425,1028.6235 L 309.8905,1031.686 L 304.8905,1035.9047 L 298.73425,1035.9047 L 292.203,1042.436 L 305.2655,1053.9672 L 304.10925,1059.7172 L 304.8905,1066.6235 L 310.6405,1072.3735 L 308.35925,1082.7485 L 299.5155,1086.9985 L 294.8905,1096.5922 L 290.67175,1081.2172 L 279.54675,1079.686 L 274.54675,1081.2172 L 267.2655,1091.2172 L 258.42175,1091.2172 L 254.953,1089.2797 L 248.42175,1087.7485 L 244.98425,1083.5297 L 233.453,1083.9047 L 223.10925,1093.4985 L 224.6405,1095.0297 L 211.953,1110.0297 L 208.5155,1105.811 L 206.578,1108.4985 L 200.42175,1110.4047 L 197.35925,1107.3422 L 184.29675,1109.6547 L 185.078,1114.6235 L 181.23425,1113.8735 L 179.328,1117.311 L 174.703,1116.936 L 173.81038,1126.9246 L 206.953,1136.1547 L 209.67175,1128.8422 L 218.85925,1113.0922 L 225.3905,1113.0922 L 230.7655,1116.186 L 231.54675,1126.1547 L 228.85925,1130.7485 L 243.453,1138.061 L 244.60925,1131.1547 L 252.2655,1134.2172 L 255.73425,1137.686 L 267.2655,1131.5297 L 266.48425,1140.7485 L 274.17175,1153.811 L 278.0155,1155.7172 L 286.828,1153.4047 L 289.92175,1161.4985 L 296.828,1164.561 L 302.203,1175.686 L 296.42175,1188.7485 L 301.04675,1203.3422 L 311.42175,1198.7172 L 321.79675,1189.1235 L 333.29675,1190.2797 L 335.60925,1192.9672 L 321.0155,1225.2172 L 319.85925,1234.8422 L 337.1405,1232.1547 L 358.2655,1221.3735 L 374.0155,1202.186 L 374.3905,1197.186 L 395.8905,1174.1547 L 394.35925,1156.8735 L 387.828,1154.186 L 384.7655,1147.2797 L 389.73425,1128.061 L 384.35925,1119.6235 L 386.29675,1116.936 L 395.5155,1115.7797 L 397.828,1116.561 L 390.8905,1127.686 L 399.73425,1133.436 L 408.578,1134.9672 L 420.85925,1135.3735 L 427.3905,1121.936 L 436.60925,1126.1547 L 450.79675,1126.1547 L 451.17175,1128.8422 L 473.078,1142.2797 L 491.8905,1134.9985 L 500.328,1133.8422 L 496.8905,1120.436 L 507.6405,1116.2172 L 514.54675,1110.8422 L 516.85925,1103.561 L 512.6405,1103.561 L 504.17175,1095.8735 L 506.85925,1087.436 L 497.2655,1088.9672 L 488.42175,1085.1235 L 483.828,1088.9672 L 472.29675,1087.0297 L 478.453,1070.1547 L 482.29675,1068.9985 L 484.98425,1062.4672 L 476.1405,1065.936 L 466.54675,1077.436 L 460.79675,1077.061 L 456.578,1070.9047 L 460.3905,1065.5297 L 461.953,1049.0297 L 462.328,1047.4985 L 471.92175,1047.8735 L 472.703,1042.4985 L 468.85925,1040.9672 L 464.6405,1036.3422 L 463.85925,1031.7485 L 467.703,1024.436 L 468.85925,1019.061 L 468.078,1015.6235 L 464.23425,1015.2485 L 470.0155,1008.7172 L 474.23425,1003.7172 L 473.453,996.81104 L 470.3905,986.06104 L 476.92175,984.12354 L 475.3905,977.59224 L 478.453,975.68604 L 483.04675,963.77974 L 478.828,957.24854 L 480.35925,951.49854 L 478.828,947.65474 L 473.453,945.34224 L 465.3905,943.02974 L 480.35925,922.31104 L 476.54675,921.15474 L 474.23425,910.77974 L 472.703,904.24854 L 482.29675,903.87354 L 488.04675,905.02974 L 488.04675,900.81104 L 491.1405,901.56104 L 492.67175,898.49854 L 494.578,893.49854 L 495.35925,888.90474 L 498.42175,888.49854 L 500.328,880.84224 L 501.48425,870.84224 L 507.6405,871.99854 L 512.23425,883.15474 L 516.078,885.43604 L 521.453,881.21724 L 534.5155,887.37354 L 540.67175,886.21724 L 541.04675,884.27974 L 540.2655,880.06104 L 535.29675,876.21724 L 536.42175,864.31104 L 541.42175,864.31104 L 541.04675,857.02974 L 549.8905,862.02974 L 554.48425,858.93604 L 555.6405,841.27974 L 557.54675,837.84224 L 565.23425,837.06104 L 568.703,833.21724 L 566.7655,830.52974 L 566.0155,830.52974 L 568.29675,825.93604 L 566.3905,820.93604 L 574.453,814.02974 L 569.078,802.87354 L 577.92175,797.90474 L 584.42175,797.49854 L 588.67175,793.65474 L 602.10925,789.06104 L 599.42175,789.06104 L 597.85925,780.99854 L 592.48425,784.09224 L 586.35925,780.24854 L 577.5155,773.71724 L 574.453,760.65474 L 561.7655,754.12354 L 555.6405,751.84224 L 556.79675,748.37354 L 562.92175,748.74854 L 564.453,744.52974 L 562.17175,736.09224 L 560.23425,737.62354 L 554.10925,736.84224 L 552.203,731.84224 L 536.828,734.15474 L 529.5155,727.24854 L 531.04675,724.93604 L 534.1405,724.18604 L 532.203,719.56104 L 533.35925,718.02974 L 523.7655,709.21724 L 518.3905,690.37354 L 518.0155,688.46724 L 519.54675,690.77974 L 523.7655,689.21724 L 519.54675,683.84224 L 522.60925,673.49854 L 511.078,657.74854 L 517.23425,656.96724 L 524.1405,651.59224 L 521.453,646.99854 L 515.328,644.31104 L 516.85925,638.15474 L 513.35925,637.37354 L 507.5155,636.93604 L 506.7655,636.93604 L 499.078,629.65474 L 489.85925,632.34224 L 486.0155,628.87354 L 488.328,625.43604 L 479.10925,624.65474 L 476.42175,622.74854 L 480.6405,618.49854 L 479.10925,611.59224 L 476.79675,605.06104 L 472.203,607.37354 L 465.29675,613.52974 L 457.23425,616.21724 L 451.453,623.87354 L 449.92175,620.43604 L 447.23425,621.59224 L 440.703,615.81104 L 448.0155,608.90474 L 445.703,601.24854 L 444.92175,600.84224 L 441.85925,595.84224 L 438.0155,591.62354 L 433.04675,593.15474 L 433.42175,580.09224 L 424.578,579.71724 L 421.8905,573.59224 L 412.29675,573.59224 z "
     id="Schwaben"
     sodipodi:nodetypes="ccccccccccccccccccccccccccccccccccccccccccccccccccccccccccccccccccccccccccccccccccccccccccccccccccccccccccccccccccccccccccccccccccccccccccccccccccccccccccccccccccccccccccccccccccccccccccccccccccccccccccccccccccccccccccccccccccccccccccccccccccccccccccccccccccccccccccccccccccccccccccccccccccccccccccccccccccccccccccccccccccccccccccccccccccccc"
     inkscape:label="#polyline24626" /><path
     style="fill:#ffdbe5;stroke:#ffdddd;stroke-width:0.368;stroke-miterlimit:3.8636899;stroke-dasharray:none;stroke-opacity:1;fill-opacity:1"
     d="M 820.3092,182.45275 L 816.8405,190.14025 L 816.4655,190.14025 L 805.3092,192.45275 L 804.153,205.109 L 799.5592,205.89025 L 792.653,209.734 L 766.903,210.89025 L 751.5592,212.7965 L 750.403,214.32775 L 740.028,217.01525 L 734.653,214.734 L 733.903,218.1715 L 726.9967,220.07775 L 726.9967,221.234 L 721.2155,220.859 L 720.4655,220.859 L 720.0592,220.484 L 717.3717,220.484 L 717.3717,221.234 L 712.778,222.01525 L 715.4655,229.70275 L 715.0905,229.70275 L 713.153,232.39025 L 716.6217,231.234 L 717.3717,231.984 L 719.6842,242.734 L 716.2155,243.89025 L 723.903,249.26525 L 720.4655,252.734 L 724.3092,264.26525 L 720.0592,262.734 L 708.5592,268.859 L 703.5592,267.32775 L 695.4967,269.234 L 696.653,269.64025 L 692.4342,272.70275 L 692.8092,275.76525 L 692.4342,276.14025 L 687.4342,275.39025 L 687.4342,280.39025 L 687.0592,281.9215 L 673.9967,280.39025 L 671.3092,282.6715 L 670.528,293.0465 L 671.3092,298.0465 L 662.0905,301.109 L 662.4655,307.64025 L 654.0905,315.7965 L 658.3717,334.70275 L 655.3092,336.234 L 657.2155,343.9215 L 663.7467,343.14025 L 660.6842,348.14025 L 664.903,349.6715 L 662.5905,354.26525 L 660.278,352.359 L 652.9967,356.57775 L 652.6217,357.359 L 653.778,358.51525 L 656.4655,364.26525 L 659.153,366.57775 L 655.6842,367.734 L 651.4655,373.859 L 648.3717,371.95275 L 643.403,376.5465 L 652.9967,379.609 L 652.2155,389.984 L 649.528,393.45275 L 664.1217,401.51525 L 660.6842,414.1715 L 655.6842,421.859 L 656.0592,426.07775 L 653.3717,429.9215 L 649.153,429.5465 L 642.9967,426.859 L 638.403,424.5465 L 633.403,425.70275 L 631.8717,421.859 L 629.5592,426.07775 L 628.8092,428.76525 L 632.2467,429.9215 L 623.4342,436.82775 L 616.528,450.6715 L 611.528,450.6715 L 614.5905,456.0465 L 614.2155,461.4215 L 600.403,471.01525 L 588.4967,467.1715 L 586.9342,463.70275 L 580.8092,462.95275 L 566.59045,471.01525 L 566.21545,473.32775 L 573.4967,475.609 L 570.4342,481.39025 L 590.028,482.5465 L 592.3092,484.45275 L 594.9967,493.2965 L 592.7155,496.359 L 597.3092,506.734 L 585.403,506.734 L 586.9342,514.01525 L 598.0905,517.484 L 601.9342,530.9215 L 600.403,535.14025 L 601.153,540.51525 L 609.2155,541.6715 L 611.903,549.734 L 616.528,554.609 L 635.3405,560.234 L 647.6217,555.64025 L 651.8405,556.39025 L 655.6842,559.07775 L 650.3092,572.14025 L 658.3717,585.984 L 662.5905,587.109 L 668.7467,600.1715 L 669.903,600.95275 L 674.4967,579.45275 L 680.653,580.984 L 684.4967,576.359 L 692.5592,574.07775 L 697.528,576.76525 L 710.5905,588.6715 L 720.5905,575.234 L 726.3405,572.9215 L 735.9342,573.6715 L 735.9342,574.07775 L 742.4655,578.2965 L 742.0905,584.0465 L 744.403,582.14025 L 746.3092,584.82775 L 751.6842,594.0465 L 750.153,600.57775 L 755.903,600.1715 L 766.278,593.64025 L 765.4967,597.89025 L 767.8092,599.4215 L 773.5592,594.7965 L 776.653,595.57775 L 788.5592,607.859 L 792.403,608.64025 L 790.0905,609.39025 L 789.3092,616.70275 L 796.2155,614.39025 L 802.7467,625.51525 L 798.153,631.6715 L 794.3092,638.20275 L 796.2155,655.07775 L 794.6842,665.07775 L 796.9967,667.76525 L 803.903,666.984 L 802.7467,661.984 L 825.403,649.70275 L 832.3405,640.89025 L 834.2467,637.4215 L 831.9342,634.359 L 834.2467,630.51525 L 842.6842,638.20275 L 843.8405,632.0465 L 849.2155,629.359 L 859.2155,635.109 L 864.5905,633.57775 L 865.7467,630.89025 L 869.1842,628.20275 L 875.7155,620.5465 L 874.1842,614.76525 L 881.8717,607.07775 L 877.2467,601.32775 L 877.653,594.4215 L 880.3405,592.51525 L 879.1842,589.4215 L 876.4967,587.51525 L 877.653,583.6715 L 887.6217,585.984 L 887.9967,580.984 L 886.0905,564.859 L 884.5592,561.01525 L 888.778,553.70275 L 891.8405,553.70275 L 896.8405,554.859 L 901.4342,545.26525 L 912.1842,538.734 L 919.1217,539.89025 L 919.8717,537.57775 L 927.1842,536.4215 L 935.6217,537.20275 L 942.153,532.984 L 943.3092,532.609 L 947.903,529.9215 L 949.0592,532.609 L 955.5905,531.45275 L 954.4342,527.984 L 959.8092,523.76525 L 969.028,526.07775 L 973.2467,522.984 L 979.028,524.9215 L 986.3092,525.2965 L 993.9967,522.609 L 998.5905,519.9215 L 1004.7467,509.95275 L 1010.8717,513.01525 L 1018.5592,512.234 L 1023.1842,513.39025 L 1028.153,518.01525 L 1029.3092,522.984 L 1033.153,524.9215 L 1045.4342,528.76525 L 1053.8092,505.57775 L 1053.8092,505.45275 L 1038.4655,495.07775 L 1038.8405,489.2965 L 1033.8405,487.01525 L 1031.153,479.70275 L 1016.9655,457.82775 L 1011.5905,457.4215 L 1002.7467,447.45275 L 995.8405,443.984 L 989.3092,444.39025 L 979.7155,442.07775 L 982.028,448.609 L 979.3405,448.984 L 956.6842,444.76525 L 949.7467,434.01525 L 948.9967,426.70275 L 938.2467,417.89025 L 923.653,412.89025 L 924.028,409.0465 L 921.7155,400.234 L 917.8717,397.5465 L 920.1842,394.07775 L 919.028,378.32775 L 909.4342,376.7965 L 905.9967,374.484 L 907.1217,372.95275 L 902.153,366.82775 L 898.3092,344.1715 L 889.0905,341.484 L 887.9342,319.57775 L 879.0905,319.57775 L 868.3405,313.82775 L 858.7467,298.859 L 857.9967,293.859 L 873.3405,283.109 L 874.1217,265.0465 L 877.1842,261.984 L 880.2467,263.51525 L 892.153,236.26525 L 889.4655,230.89025 L 874.1217,227.0465 L 872.1842,222.0465 L 878.7155,212.82775 L 871.028,206.6715 L 860.278,203.234 L 846.4655,197.07775 L 833.778,184.01525 L 820.3405,182.484 L 820.3405,182.45275 L 820.3092,182.45275 z "
     id="Oberpfalz"
     inkscape:label="#polyline16843" /><path
     style="fill:#fff1cf;stroke:#fff1cf;stroke-width:0.46799999;stroke-miterlimit:3.8636899;stroke-dasharray:none;stroke-opacity:1;fill-opacity:1"
     d="M 450.0265,291.10693 L 448.9015,294.16943 L 438.5265,302.23193 L 446.964,306.48193 L 445.80775,312.60693 L 438.12025,316.07568 L 434.2765,316.45068 L 430.43275,308.76318 L 425.464,309.91943 L 408.87025,303.73193 L 395.7765,304.48193 L 394.62025,308.70068 L 381.18275,306.01318 L 374.2765,310.23193 L 365.43275,319.45068 L 364.68275,320.60693 L 360.839,324.82568 L 357.37025,323.29443 L 356.214,325.60693 L 362.37025,327.51318 L 368.12025,327.13818 L 369.2765,328.66943 L 365.839,329.04443 L 363.1515,333.66943 L 369.6515,349.38818 L 360.05775,354.01318 L 346.62025,352.85693 L 345.464,354.38818 L 340.87025,352.85693 L 328.589,350.16943 L 323.964,353.23193 L 323.589,360.54443 L 317.05775,367.07568 L 303.62025,354.38818 L 302.089,354.38818 L 295.55775,362.07568 L 292.089,365.13818 L 292.87025,374.76318 L 295.55775,383.57568 L 295.5265,383.73193 L 295.589,383.73193 L 297.12025,385.66943 L 302.12025,399.48193 L 299.839,405.26318 L 304.05775,410.23193 L 309.43275,428.29443 L 312.49525,437.10693 L 314.80775,439.04443 L 313.6515,441.73193 L 302.9015,443.26318 L 301.74525,462.85693 L 305.589,465.54443 L 307.9015,464.38818 L 307.49525,472.82568 L 308.2765,476.29443 L 312.87025,481.66943 L 308.2765,488.95068 L 305.589,484.35693 L 303.68275,490.48193 L 307.12025,493.57568 L 304.80775,494.73193 L 306.74525,509.70068 L 307.12025,513.91943 L 317.49525,520.45068 L 319.80775,518.91943 L 332.089,528.13818 L 336.30775,531.57568 L 338.62025,538.88818 L 325.55775,550.79443 L 337.089,552.32568 L 340.5265,563.85693 L 338.62025,564.60693 L 338.99525,571.13818 L 353.214,576.51318 L 354.37025,577.66943 L 357.43275,574.98193 L 361.6515,576.51318 L 362.43275,585.35693 L 367.0265,585.73193 L 369.339,591.48193 L 377.18275,594.85693 L 377.4015,594.82568 L 380.089,585.23193 L 382.37025,584.85693 L 395.43275,582.95068 L 403.49525,584.07568 L 412.339,573.73193 L 421.93275,573.73193 L 424.62025,579.85693 L 433.464,580.23193 L 433.089,593.29443 L 438.05775,591.76318 L 441.9015,595.98193 L 444.964,600.98193 L 445.74525,601.35693 L 448.05775,609.04443 L 440.74525,615.95068 L 447.2765,621.70068 L 449.964,620.57568 L 451.49525,624.01318 L 457.2765,616.35693 L 465.339,613.63818 L 472.24525,607.51318 L 476.839,605.20068 L 479.1515,611.73193 L 480.68275,618.63818 L 476.464,622.88818 L 479.1515,624.79443 L 488.37025,625.54443 L 486.05775,629.01318 L 489.9015,632.48193 L 499.12025,629.79443 L 506.80775,637.07568 L 507.55775,637.07568 L 513.339,637.45068 L 516.0265,630.95068 L 530.214,627.48193 L 529.839,620.57568 L 536.74525,617.48193 L 538.2765,605.60693 L 542.5265,599.82568 L 543.6515,599.45068 L 552.87025,597.91943 L 557.089,597.91943 L 560.93275,580.23193 L 565.93275,575.26318 L 570.93275,567.20068 L 584.37025,564.88818 L 586.68275,579.10693 L 592.43275,582.54443 L 602.4015,584.85693 L 621.62025,571.79443 L 623.5265,570.63818 L 622.7765,560.29443 L 616.24525,554.51318 L 611.62025,549.51318 L 608.93275,541.45068 L 600.87025,540.29443 L 600.12025,534.95068 L 601.6515,530.70068 L 597.80775,517.26318 L 586.68275,513.82568 L 585.1515,506.51318 L 597.0265,506.51318 L 592.43275,496.13818 L 594.74525,493.07568 L 592.05775,484.23193 L 589.74525,482.32568 L 570.1515,481.16943 L 573.24525,475.41943 L 565.93275,473.10693 L 566.30775,470.82568 L 580.5265,462.73193 L 586.68275,463.51318 L 588.214,466.98193 L 600.12025,470.79443 L 613.93275,461.20068 L 614.30775,455.82568 L 611.24525,450.45068 L 616.24525,450.45068 L 623.1515,436.63818 L 631.99525,429.70068 L 628.5265,428.57568 L 629.30775,425.88818 L 631.589,421.63818 L 633.1515,425.48193 L 638.12025,424.35693 L 642.74525,426.63818 L 648.87025,429.32568 L 653.089,429.70068 L 655.80775,425.88818 L 655.4015,421.63818 L 660.4015,413.98193 L 663.87025,401.29443 L 649.2765,393.23193 L 651.964,389.79443 L 652.714,379.41943 L 643.12025,376.35693 L 648.12025,371.73193 L 651.18275,373.66943 L 655.4015,367.51318 L 658.87025,366.35693 L 656.18275,364.04443 L 653.49525,358.29443 L 652.339,357.13818 L 652.714,356.38818 L 660.0265,352.13818 L 662.30775,354.07568 L 664.62025,349.45068 L 660.4015,347.91943 L 663.464,342.95068 L 656.93275,343.70068 L 655.0265,336.01318 L 658.089,334.48193 L 654.45858,319.95623 L 653.67324,317.79859 L 653.93275,342.57568 L 643.18275,340.26318 L 637.43275,343.73193 L 635.49525,342.16943 L 630.5265,345.63818 L 622.839,348.70068 L 623.214,352.54443 L 622.464,354.07568 L 613.99525,347.16943 L 610.1515,333.73193 L 607.87025,334.51318 L 602.089,336.79443 L 596.339,347.54443 L 593.6515,347.16943 L 590.964,349.48193 L 589.80775,353.70068 L 588.6515,352.91943 L 586.74525,358.32568 L 582.9015,357.16943 L 564.089,364.07568 L 554.089,364.45068 L 551.80775,364.07568 L 547.55775,364.45068 L 545.2765,364.82568 L 543.339,360.23193 L 539.9015,360.60693 L 537.589,355.63818 L 537.964,350.63818 L 532.99525,346.41943 L 526.464,351.01318 L 523.7765,348.70068 L 526.05775,346.41943 L 529.9015,345.63818 L 530.2765,341.04443 L 533.37025,339.88818 L 529.5265,335.26318 L 531.839,330.66943 L 531.05775,329.88818 L 526.464,334.10693 L 519.1515,333.35693 L 521.839,329.51318 L 511.464,330.29443 L 511.464,327.20068 L 501.87025,323.35693 L 499.55775,318.38818 L 509.18275,317.23193 L 501.49525,313.76318 L 498.43275,307.63818 L 501.87025,303.01318 L 499.964,298.41943 L 497.6515,294.95068 L 501.12025,291.88818 L 486.9015,297.26318 L 483.05775,301.85693 L 470.37025,309.91943 L 464.24525,299.54443 L 458.87025,296.85693 L 450.0265,291.10693 z "
     id="Mittelfranken"
     sodipodi:nodetypes="cccccccccccccccccccccccccccccccccccccccccccccccccccccccccccccccccccccccccccccccccccccccccccccccccccccccccccccccccccccccccccccccccccccccccccccccccccccccccccccccccccccccccccccccccccccccccccccccccccccccccccccccccccccccccccccccccccccccccccccccccccccccccccccc"
     inkscape:label="#polyline11004" /><path
     style="fill:#ffdfc7;stroke:#fff1cf;stroke-width:0.86799997;stroke-miterlimit:3.8636899;stroke-dasharray:none;stroke-opacity:1;fill-opacity:1"
     d="M 602.41383,13.666514 L 595.88258,14.822764 L 596.28883,17.104014 L 590.50758,26.697764 L 585.53883,29.385264 L 577.85133,30.572764 L 573.22633,30.947764 L 575.16383,39.385264 L 579.00758,53.197764 L 579.38258,62.416514 L 582.85133,75.104014 L 581.28883,84.322764 L 577.47633,83.541514 L 577.47633,85.854014 L 575.53883,100.07276 L 578.22633,107.35401 L 574.78883,110.04151 L 562.47633,101.60401 L 560.57008,108.88526 L 557.10133,109.66651 L 559.41383,105.04151 L 549.44508,101.97901 L 546.75758,97.760264 L 546.75758,93.916514 L 552.88258,88.916514 L 548.28883,78.166514 L 542.13258,73.166514 L 536.75758,73.947764 L 534.44508,78.166514 L 525.63258,81.229014 L 522.53883,79.697764 L 523.32008,75.854014 L 513.35133,78.166514 L 511.41383,80.854014 L 501.44508,66.666514 L 499.13258,64.354014 L 495.28883,65.885264 L 493.35133,66.635264 L 485.32008,63.947764 L 480.69508,66.260264 L 474.16383,64.354014 L 467.25758,69.729014 L 463.41383,67.416514 L 460.72633,72.416514 L 452.28883,75.854014 L 448.07008,80.854014 L 446.50758,89.697764 L 471.10133,107.72901 L 478.00758,107.72901 L 478.38258,108.13526 L 479.91383,117.35401 L 473.38258,122.69776 L 467.63258,117.35401 L 463.03883,117.72901 L 460.35133,121.57276 L 451.13258,117.72901 L 450.35133,125.69776 L 458.03883,128.76026 L 463.03883,138.76026 L 461.88258,153.35401 L 468.78883,158.72901 L 477.22633,156.41651 L 480.32008,152.19776 L 486.07008,158.72901 L 482.22633,168.69776 L 482.60133,176.76026 L 482.22633,183.66651 L 478.00758,183.66651 L 476.07008,190.19776 L 477.60133,192.51026 L 470.69508,197.10401 L 464.16383,194.04151 L 460.35133,202.51026 L 456.50758,204.04151 L 456.88258,206.72901 L 459.94508,206.32276 L 459.94508,211.32276 L 454.19508,214.79151 L 459.19508,223.22901 L 451.50758,225.54151 L 449.97633,228.60401 L 454.57008,231.29151 L 453.41383,234.35401 L 448.44508,237.07276 L 448.03883,240.88526 L 446.13258,239.76026 L 441.50758,254.32276 L 435.75758,252.41651 L 428.47633,258.94776 L 426.91383,263.16651 L 421.94508,266.22901 L 421.94508,258.94776 L 416.16383,264.32276 L 406.94508,258.54151 L 402.35133,258.57276 L 397.75758,258.16651 L 396.97633,260.10401 L 386.60133,257.41651 L 385.07008,260.10401 L 383.53883,268.91651 L 383.91383,278.54151 L 389.28883,291.97901 L 394.28883,291.97901 L 400.44508,285.82276 L 405.03883,289.66651 L 408.91383,303.47901 L 425.44508,309.57276 L 430.44508,308.44776 L 434.28883,316.10401 L 438.13258,315.72901 L 445.82008,312.26026 L 446.97633,306.13526 L 438.50758,301.91651 L 448.88258,293.85401 L 450.03883,290.76026 L 458.85133,296.54151 L 464.22633,299.22901 L 470.38258,309.57276 L 483.03883,301.51026 L 486.88258,296.91651 L 501.10133,291.54151 L 497.63258,294.60401 L 499.94508,298.07276 L 501.88258,302.66651 L 498.41383,307.29151 L 501.47633,313.41651 L 509.16383,316.88526 L 499.57008,318.04151 L 501.88258,323.04151 L 511.47633,326.85401 L 511.47633,329.94776 L 521.85133,329.16651 L 519.16383,333.01026 L 526.44508,333.79151 L 531.07008,329.54151 L 531.82008,330.32276 L 529.50758,334.94776 L 533.35133,339.54151 L 530.28883,340.69776 L 529.91383,345.29151 L 526.07008,346.07276 L 523.75758,348.35401 L 526.44508,350.66651 L 532.97633,346.07276 L 537.97633,350.29151 L 537.57008,355.29151 L 539.88258,360.26026 L 543.35133,359.88526 L 545.25758,364.51026 L 547.57008,364.10401 L 551.78883,363.72901 L 554.10133,364.10401 L 564.07008,363.72901 L 582.88258,356.82276 L 586.72633,357.97901 L 588.66383,352.60401 L 589.82008,353.35401 L 590.94508,349.13526 L 593.66383,346.82276 L 596.35133,347.22901 L 602.10133,336.47901 L 607.85133,334.16651 L 610.16383,333.38526 L 614.00758,346.82276 L 622.44508,353.76026 L 623.22633,352.19776 L 622.82008,348.38526 L 630.50758,345.29151 L 635.50758,341.85401 L 637.41388,343.38526 L 643.19508,339.91651 L 653.94508,342.22901 L 653.48623,315.35726 L 653.94508,315.35401 L 662.38258,307.29151 L 662.00758,300.76026 L 671.22638,297.69776 L 670.44508,292.69776 L 671.22638,282.32276 L 673.91388,280.01026 L 686.94508,281.54151 L 687.35138,280.01026 L 687.35138,275.01026 L 692.35138,275.79151 L 692.72638,275.41651 L 692.32008,272.35401 L 696.57008,269.26026 L 695.41388,268.88526 L 703.47638,266.94776 L 708.47638,268.51026 L 719.97638,262.35401 L 724.19508,263.88526 L 720.38258,252.38526 L 723.82008,248.91651 L 716.13258,243.54151 L 719.60138,242.38526 L 717.28888,231.63526 L 716.53888,230.85401 L 713.07008,232.01026 L 715.00758,229.32276 L 715.38258,229.32276 L 712.69508,221.63526 L 717.28888,220.88526 L 717.28888,220.10401 L 719.97638,220.10401 L 720.35138,220.51026 L 721.13258,220.51026 L 726.88258,220.88526 L 726.91388,219.72901 L 733.82008,217.82276 L 734.57008,214.35401 L 739.94508,216.66651 L 750.32008,213.97901 L 751.47638,212.44776 L 766.82008,210.51026 L 792.57008,209.35401 L 799.47638,205.51026 L 804.07008,204.76026 L 805.22638,192.07276 L 816.38258,189.79151 L 816.75758,189.79151 L 820.16388,182.13526 L 820.19508,182.10401 L 821.28888,174.94776 L 813.22638,169.16651 L 807.10138,166.47901 L 805.16388,161.10401 L 803.25758,153.04151 L 807.85138,143.07276 L 804.41388,133.85401 L 794.03888,122.69776 L 791.72638,116.94776 L 785.97638,118.10401 L 777.13258,110.82276 L 788.28888,101.97901 L 783.28888,93.510264 L 784.82008,90.072764 L 778.69508,86.229014 L 776.75758,82.385264 L 762.16388,82.385264 L 761.00758,78.166514 L 747.94508,74.322764 L 750.25758,69.729014 L 749.10138,64.354014 L 749.88258,60.135264 L 744.88258,57.041514 L 742.19508,58.979014 L 740.66388,50.510264 L 734.50758,47.447764 L 730.28888,50.916514 L 725.28888,51.666514 L 720.69508,57.447764 L 714.16388,59.729014 L 711.47638,61.260264 L 710.72638,58.979014 L 704.57008,50.916514 L 694.19508,52.447764 L 696.88258,55.885264 L 690.35138,55.885264 L 689.97638,56.291514 L 685.38258,59.354014 L 682.69508,57.447764 L 680.75758,59.729014 L 678.07008,60.510264 L 673.47638,60.885264 L 667.32008,62.416514 L 663.47638,63.572764 L 658.88258,59.354014 L 651.57008,58.979014 L 650.03888,62.822764 L 642.35138,67.041514 L 638.50758,60.510264 L 631.60138,60.885264 L 631.22638,53.197764 L 628.53888,47.072764 L 621.22633,50.135264 L 620.10133,45.135264 L 615.10133,43.604014 L 614.32008,40.916514 L 614.69508,27.479014 L 619.32008,22.104014 L 615.10133,16.354014 L 602.41383,13.666514 z "
     id="Oberfranken"
     sodipodi:nodetypes="ccccccccccccccccccccccccccccccccccccccccccccccccccccccccccccccccccccccccccccccccccccccccccccccccccccccccccccccccccccccccccccccccccccccccccccccccccccccccccccccccccccccccccccccccccccccccccccccccccccccccccccccccccccccccccccccccccccccccccccccccccccccccccccccccccccccccccccccccccccccccccc"
     inkscape:label="#polyline7110" /><path
     style="fill:#e8f1d2;stroke:#e8f1d2;stroke-width:0.46799999;stroke-miterlimit:3.8636899;stroke-dasharray:none;stroke-opacity:1;fill-opacity:1"
     d="M 304.14824,1.6582016 L 299.14824,3.9707016 L 291.46074,15.095702 L 285.33574,19.720702 L 284.92949,25.095702 L 282.64824,33.158202 L 275.33574,40.064452 L 272.64824,46.189452 L 260.74199,55.408202 L 251.92949,61.564452 L 241.92949,64.251952 L 233.86699,60.814452 L 230.02324,55.814452 L 229.27324,54.658202 L 218.52324,53.501952 L 216.58574,56.564452 L 216.58574,68.095702 L 211.61699,79.626952 L 213.89824,83.064452 L 215.05449,91.126952 L 214.67949,96.501952 L 210.05449,102.2832 L 208.89824,102.2832 L 206.61699,103.4082 L 204.30449,107.6582 L 201.61699,108.81445 L 197.02324,109.93945 L 192.02324,112.25195 L 189.71074,116.87695 L 195.46074,123.7832 L 185.11699,126.8457 L 184.71074,127.2207 L 178.58574,129.1582 L 173.58574,125.68945 L 173.21074,126.06445 L 164.36699,126.4707 L 155.92949,121.4707 L 154.02324,127.62695 L 155.92949,133.00195 L 159.36699,137.9707 L 158.99199,139.9082 L 155.55449,140.2832 L 156.33574,148.7207 L 162.05449,149.50195 L 162.83574,152.18945 L 157.08574,157.93945 L 159.77324,172.93945 L 158.24199,177.1582 L 146.33574,178.31445 L 145.96074,178.31445 L 135.96074,180.5957 L 132.11699,179.4707 L 124.83574,163.31445 L 112.14824,159.87695 L 109.08574,162.18945 L 102.55449,159.0957 L 97.554495,160.25195 L 91.8045,157.18945 L 86.0545,157.56445 L 79.14825,160.25195 L 80.6795,163.7207 L 72.992,174.4707 L 68.77325,177.1582 L 69.9295,169.0957 L 64.14825,164.4707 L 52.27325,166.7832 L 43.8045,168.68945 L 42.27325,169.0957 L 35.742,174.4707 L 34.58575,185.2207 L 32.6795,185.5957 L 31.89825,187.5332 L 30.367,190.2207 L 30.742,195.5957 L 39.96075,194.81445 L 41.492,201.3457 L 43.8045,207.4707 L 37.6795,214.4082 L 40.367,228.2207 L 39.21075,230.1582 L 42.64825,257.0332 L 45.742,261.62695 L 41.89825,263.1582 L 44.1795,265.4707 L 42.27325,268.93945 L 49.1795,274.31445 L 54.1795,268.5332 L 54.1795,286.5957 L 56.08575,290.0332 L 59.5545,287.3457 L 65.3045,288.50195 L 65.71075,293.12695 L 60.71075,296.18945 L 58.77325,301.93945 L 64.1795,303.0957 L 64.9295,303.87695 L 69.14825,307.7207 L 67.242,311.93945 L 66.46075,313.8457 L 65.3045,318.06445 L 62.242,318.4707 L 63.77325,321.5332 L 63.77325,323.8457 L 58.39825,325.00195 L 54.1795,328.06445 L 54.1795,335.3457 L 57.64825,338.43945 L 57.242,345.7207 L 48.4295,354.18945 L 48.4295,360.31445 L 57.242,369.5332 L 79.52325,371.4707 L 86.8045,369.5332 L 88.367,368.7832 L 90.64825,368.7832 L 92.96075,364.1582 L 95.27325,364.1582 L 98.335745,348.81445 L 102.17949,347.25195 L 106.39824,341.12695 L 107.92949,341.50195 L 115.99199,345.3457 L 121.77324,340.7207 L 125.61699,346.12695 L 131.36699,344.9707 L 134.42949,339.9707 L 132.52324,338.0332 L 129.05449,334.9707 L 131.36699,332.2832 L 134.80449,328.06445 L 134.80449,321.9082 L 131.74199,316.5332 L 126.36699,312.7207 L 125.61699,322.68945 L 119.46074,323.06445 L 116.36699,317.31445 L 123.67949,313.8457 L 118.30449,312.31445 L 111.39824,312.68945 L 104.86699,309.25195 L 111.39824,308.0957 L 109.46074,298.87695 L 120.21074,297.3457 L 124.46074,295.4082 L 127.52324,298.12695 L 131.74199,295.4082 L 138.27324,291.5957 L 141.33574,297.3457 L 145.17949,298.50195 L 149.80449,291.9707 L 155.92949,292.3457 L 157.46074,300.81445 L 168.99199,308.0957 L 170.89824,306.18945 L 168.58574,295.4082 L 190.49199,290.81445 L 190.86699,300.4082 L 187.80449,304.25195 L 188.92949,306.18945 L 188.55449,316.1582 L 186.24199,318.4707 L 184.71074,323.8457 L 193.55449,329.2207 L 197.02324,327.2832 L 197.02324,318.8457 L 205.46074,315.00195 L 209.30449,329.9707 L 215.42949,321.1582 L 226.58574,313.4707 L 226.17949,317.31445 L 232.33574,321.5332 L 235.80449,331.12695 L 236.17949,331.9082 L 232.33574,337.6582 L 233.49199,339.5957 L 242.71074,353.0332 L 244.24199,358.00195 L 236.55449,372.2207 L 233.49199,376.06445 L 231.55449,377.2207 L 229.64824,379.12695 L 241.17949,382.5957 L 245.02324,370.68945 L 251.52324,368.00195 L 253.83574,369.5332 L 250.77324,376.8457 L 256.14824,379.9082 L 257.30449,385.6582 L 256.89824,396.4082 L 254.61699,402.56445 L 258.05449,406.00195 L 265.36699,406.00195 L 269.58574,405.62695 L 268.80449,406.7832 L 279.96074,406.00195 L 290.30449,392.9707 L 286.49199,390.6582 L 284.96074,389.12695 L 290.33574,383.37695 L 295.58574,383.75195 L 295.64824,383.5332 L 292.96074,374.7207 L 292.21074,365.0957 L 295.64824,362.0332 L 302.17949,354.3457 L 303.74199,354.3457 L 317.17949,367.0332 L 323.67949,360.50195 L 324.08574,353.18945 L 328.67949,350.12695 L 340.99199,352.81445 L 345.58574,354.3457 L 346.74199,352.81445 L 360.17949,353.9707 L 369.77324,349.3457 L 363.24199,333.62695 L 365.92949,329.00195 L 369.39824,328.62695 L 368.24199,327.0957 L 362.46074,327.4707 L 356.33574,325.56445 L 357.49199,323.25195 L 360.92949,324.7832 L 364.77324,320.56445 L 365.55449,319.4082 L 374.39824,310.18945 L 381.30449,305.9707 L 394.74199,308.6582 L 395.89824,304.43945 L 408.92949,303.6582 L 405.11699,289.8457 L 400.49199,286.00195 L 394.36699,292.1582 L 389.36699,292.1582 L 383.99199,278.7207 L 383.58574,269.0957 L 385.14824,260.2832 L 386.67949,257.5957 L 397.05449,260.2832 L 397.80449,258.3457 L 402.39824,258.75195 L 407.02324,258.7207 L 416.24199,264.50195 L 421.99199,259.12695 L 421.99199,266.4082 L 426.99199,263.3457 L 428.52324,259.12695 L 435.83574,252.5957 L 441.58574,254.50195 L 446.17949,239.93945 L 448.11699,241.06445 L 448.49199,237.25195 L 453.49199,234.5332 L 454.64824,231.4707 L 450.02324,228.7832 L 451.55449,225.7207 L 459.24199,223.4082 L 454.24199,214.9707 L 460.02324,211.50195 L 460.02324,206.50195 L 456.92949,206.9082 L 456.55449,204.2207 L 460.39824,202.68945 L 464.24199,194.2207 L 470.77324,197.2832 L 477.67949,192.68945 L 476.14824,190.37695 L 478.05449,183.8457 L 482.30449,183.8457 L 482.67949,176.93945 L 482.30449,168.87695 L 486.11699,158.9082 L 480.36699,152.37695 L 477.30449,156.5957 L 468.83574,158.9082 L 461.92949,153.5332 L 463.08574,138.93945 L 458.08574,128.93945 L 450.49199,125.9082 L 450.46074,126.06445 L 451.21074,132.2207 L 448.92949,135.2832 L 434.71074,129.1582 L 433.55449,128.37695 L 422.02324,126.8457 L 419.74199,120.31445 L 422.42949,118.4082 L 417.42949,110.7207 L 419.74199,106.50195 L 418.21074,92.658202 L 419.33574,87.283202 L 413.96074,86.908202 L 408.21074,84.595702 L 407.83574,78.470702 L 403.21074,75.783202 L 398.61699,81.533202 L 393.24199,78.470702 L 394.39824,75.376952 L 385.55449,70.001952 L 383.24199,61.939452 L 380.17949,64.626952 L 369.42949,64.251952 L 367.49199,60.814452 L 371.74199,53.126952 L 364.05449,50.814452 L 362.89824,46.970702 L 358.67949,40.439452 L 357.14824,32.001952 L 353.30449,27.783202 L 347.55449,28.158202 L 329.11699,14.345702 L 324.11699,5.1269516 L 317.96074,6.2832016 L 316.05449,8.5644516 L 311.42949,6.2832016 L 308.74199,9.7207017 L 304.14824,1.6582016 z "
     id="Unterfranken"
     inkscape:label="#polyline4180" /><g
     style="display:none"
     id="Hilfslinien_anzeigen" /><polyline
     id="polyline578"
     points="907.02026,372.79346 905.85229,374.33276 909.30933,376.6333 918.90894,378.17236      920.06323,393.91675 917.75464,397.37183 "
     style="fill:none;stroke:#000000;stroke-width:0.42519999;stroke-miterlimit:3.8636899" /><polyline
     id="polyline580"
     points="857.86792,293.69189 858.62183,298.68237 868.22144,313.66064 878.96753,319.41479      887.80151,319.41479 888.95581,341.30542 898.17261,343.99463 902.01245,366.65088 907.00464,372.79346 "
     style="fill:none;stroke:#000000;stroke-width:0.42519999;stroke-miterlimit:3.8636899" /><polyline
     id="polyline613"
     points="295.67554,383.54736 292.98706,374.71533 292.21948,365.11597 295.67554,362.04346      302.2041,354.35986 303.73999,354.35986 317.17969,367.03345 323.70776,360.50659 324.09155,353.20947 328.70093,350.13721      340.99194,352.82666 345.59546,354.35986 346.7478,352.8208 360.18726,353.97705 369.78809,349.36768 363.25952,333.62183      365.948,329.0144 369.40308,328.63159 368.25171,327.09644 362.48828,327.47705 356.34741,325.56323 357.50073,323.26221      360.95581,324.79346 364.79565,320.5708 365.56226,319.41479 374.39722,310.20361 381.30933,305.97705 394.74683,308.6665      395.89917,304.44385 408.9519,303.67627 405.11792,289.8501 400.50659,286.01025 394.36597,292.15503 389.37573,292.15503      383.99683,278.72144 383.61401,269.11597 385.14917,260.28174 386.68237,257.58862 397.05347,260.27783 397.82104,258.35986      402.42456,258.74854 407.03394,258.74268 416.25269,264.49854 422.01245,259.12744 422.01245,266.42041 427.00464,263.354      428.53979,259.13159 435.83472,252.604 441.59448,254.52222 446.20581,239.93237 448.12573,241.08276 448.50659,237.24854      453.49878,234.55322 454.65308,231.48315 450.04761,228.79321 451.58081,225.72339 459.2605,223.42065 454.26831,214.97144      460.02808,211.51636 460.02808,206.52222 456.9519,206.90674 456.57104,204.21558 460.41284,202.68237 464.25269,194.2312      470.78198,197.30542 477.69214,192.6958 476.15698,190.39526 478.0769,183.86597 482.30347,183.86597 482.68433,176.94971      482.30347,168.88745 486.14136,158.90674 480.38159,152.37744 477.30542,156.60425 468.86011,158.90674 461.94995,153.53174      463.10229,138.93823 458.11011,128.95386 450.42847,125.88159 "
     style="fill:none;stroke:#000000;stroke-width:1.41729999;stroke-miterlimit:3.8636899" /><polyline
     id="polyline615"
     points="820.22144,182.33276 816.7644,190.01025 816.38159,190.01025 805.24292,192.31519      804.09253,204.98877 799.48315,205.75439 792.57104,209.59424 766.84448,210.74854 751.48511,212.6665 750.33276,214.19971      739.96558,216.88745 734.59058,214.58643 733.823,218.04321 726.91675,219.95947 726.90894,221.11597 721.15112,220.7312      720.37769,220.7312 719.99683,220.34839 717.30933,220.34839 717.30933,221.11597 712.69995,221.87744 715.39136,229.55908      715.00659,229.55908 713.08472,232.25024 716.54175,231.09644 717.30933,231.86597 719.61206,242.61597 716.15503,243.77222      723.83667,249.14722 720.38159,252.604 724.22144,264.12183 719.99487,262.58862 708.47729,268.7312 703.48511,267.19385      695.42065,269.11597 696.57104,269.49683 692.34839,272.5708 692.73511,275.64307 692.35034,276.02222 687.3562,275.25439      687.3562,280.24463 686.97144,281.7876 673.9187,280.25024 671.22729,282.55127 670.46362,292.92236 671.22729,297.9165      662.01245,300.98877 662.39526,307.51636 653.94995,315.57861 653.56519,314.80908 653.94995,342.45947 643.198,340.15503      637.43628,343.60986 635.51831,342.07471 630.52612,345.53174 622.84448,348.604 623.22729,352.44385 622.46362,353.97705      614.01245,347.06689 610.17261,333.62524 607.86987,334.39502 602.11011,336.6958 596.35034,347.44971 593.66284,347.06689      590.97144,349.37183 589.82104,353.59424 588.6687,352.8208 586.75073,358.20361 582.91089,357.04956 564.09253,363.95947      554.11011,364.34204 551.80737,363.95947 547.58081,364.34839 545.27808,364.7312 543.3562,360.12183 539.89722,360.50659      537.59644,355.51636 537.97729,350.52222 532.99097,346.29736 526.47144,350.89917 523.77417,348.59839 526.07886,346.29736      529.9187,345.53174 530.29956,340.92236 533.37183,339.77222 529.53394,335.16479 531.83667,330.55542 531.06909,329.7876      526.46362,334.01025 519.16479,333.24268 521.85229,329.40283 511.48315,330.17236 511.48315,327.1001 501.88354,323.26025      499.57886,318.26636 509.18042,317.11597 501.50269,313.66064 498.42847,307.51636 501.88354,302.90674 499.96558,298.29736      497.65894,294.84424 501.11792,291.76807 486.90698,297.14307 483.06519,301.75439 470.39331,309.81885 464.25269,299.44971      458.87964,296.7583 450.04761,291.00439 448.89917,294.0708 438.53394,302.1333 446.97729,306.35986 445.823,312.50659      438.1355,315.96362 434.29175,316.34839 430.45776,308.6665 425.46362,309.81885 408.9519,303.67627 "
     style="fill:none;stroke:#000000;stroke-width:1.417;stroke-miterlimit:3.8636899;stroke-dasharray:none" /><polyline
     id="polyline617"
     points="377.46753,594.74292 380.15601,585.14331 382.45972,584.75854 395.51831,582.84448      403.58081,583.99438 412.41284,573.62524 422.01245,573.62524 424.69995,579.77222 433.53198,580.14917 433.15112,593.20972      438.14136,591.67065 441.9812,595.89722 445.05347,600.89136 445.82104,601.27612 448.12573,608.95386 440.8269,615.86597      447.35229,621.62183 450.0437,620.47144 451.57886,623.92651 457.34058,616.25024 465.40698,613.55933 472.31909,607.41479      476.92456,605.11938 479.22729,611.64722 480.7644,618.55298 476.53979,622.78198 479.22925,624.69995 488.44604,625.46362      486.14136,628.92261 489.9812,632.37769 499.198,629.68823 506.87964,636.98901 507.64331,636.98901 513.40698,637.37183      516.09448,630.84448 530.29956,627.38745 529.9187,620.47534 536.8269,617.40259 538.36597,605.50024 542.59058,599.73901      543.74097,599.35425 552.95581,597.81909 557.18042,597.81909 561.02026,580.15503 566.01245,575.15845 571.00659,567.10034      584.44409,564.79321 586.74878,579.00464 592.50854,582.45776 602.49292,584.75854 621.69409,571.70776 623.61206,570.55542      622.84448,560.18823 616.31909,554.42065 611.70972,549.43042 609.02026,541.37183 600.95581,540.21558 600.19019,534.84448      601.72534,530.61597 597.8855,517.17798 586.75073,513.72339 585.21362,506.42065 597.11792,506.42065 592.50854,496.05542      594.81323,492.98901 592.12573,484.15503 589.823,482.23511 570.23901,481.08276 573.30933,475.323 566.01245,473.02026      566.39722,470.71948 580.6062,462.65112 586.75073,463.41675 588.28589,466.87524 600.19019,470.71558 614.01245,461.11597      614.39722,455.73901 611.32495,450.36401 616.323,450.36011 623.22925,436.53345 632.06323,429.62183 628.6062,428.47534      629.37378,425.78784 631.67847,421.55933 633.21362,425.40259 638.20581,424.25024 642.81128,426.54956 648.95581,429.24292      653.18042,429.62183 655.86987,425.78784 655.48511,421.55933 660.47925,413.87769 663.93433,401.20972 649.34058,393.14722      652.02612,389.68823 652.79761,379.323 643.198,376.25024 648.18823,371.64917 651.2605,373.56323 655.48315,367.42041      658.94214,366.26636 656.25269,363.96362 653.56519,358.20361 652.41284,357.04956 652.79761,356.28174 660.09058,352.05908      662.39722,353.97705 664.69995,349.37183 660.47729,347.83057 663.55151,342.84424 657.02222,343.60986 655.10034,335.93237      658.17261,334.39502 653.94995,315.57861 "
     style="fill:none;stroke:#000000;stroke-width:1.41729999;stroke-miterlimit:3.8636899" /><path
     style="fill:none;stroke:#000000;stroke-width:1.41729999;stroke-miterlimit:3.8636899"
     d="M 1053.6941,505.27612 L 1045.2429,528.70142 L 1032.9558,524.86011 L 1029.116,522.93823 L 1027.9656,517.948 L 1022.9714,513.33862 L 1018.366,512.18823 L 1010.6843,512.95386 L 1004.5418,509.88159 L 998.39722,519.86597 L 993.78979,522.55542 L 986.11011,525.24292 L 978.81323,524.86011 L 973.05347,522.93823 L 968.8269,526.00659 L 959.61206,523.70581 L 954.23706,527.93237 L 955.39136,531.38745 L 948.86206,532.53784 L 947.70972,529.85034 L 943.10034,532.53784 L 941.94995,532.92261 L 935.42261,537.14722 L 926.97144,536.37769 L 919.67651,537.53198 L 918.90894,539.83472 L 911.99683,538.68237 L 901.24292,545.20972 L 896.63745,554.80933 L 891.64331,553.66089 L 888.57104,553.66089 L 884.34839,560.95386 L 885.88354,564.79321 L 887.80542,580.92261 L 887.42261,585.91675 L 877.43823,583.61011 L 876.28394,587.44995 L 878.97144,589.37524 L 880.12573,592.448 L 877.43823,594.36401 L 877.05347,601.27612 L 881.66284,607.03345 L 873.9812,614.71558 L 875.51636,620.47534 L 868.99097,628.15503 L 865.53394,630.84448 L 864.37964,633.53198 L 859.00464,635.06714 L 849.02026,629.30542 L 843.64331,631.99438 L 842.49292,638.13745 L 834.0437,630.45972 L 831.74097,634.29761 L 834.0437,637.37183 L 832.12573,640.82104 L 825.21362,649.65503 L 802.55737,661.94214 L 803.71753,666.93433 L 796.79761,667.70581 L 794.49292,665.02026 L 796.02808,655.03345 L 794.11011,638.13745 L 797.94995,631.61011 L 802.55542,625.46948 L 796.02808,614.33472 L 789.11792,616.63501 L 789.8855,609.33862 L 792.19019,608.57104 L 788.35034,607.80298 L 776.44604,595.51636 L 773.37378,594.74878 L 767.61401,599.35425 L 765.31128,597.81909 L 766.07886,593.59448 L 755.71167,600.12183 L 749.94995,600.50659 L 751.48315,593.97729 L 746.11011,584.75854 L 744.18823,582.07495 L 741.8855,583.99878 L 742.26831,578.23511 L 735.74097,574.01001 L 735.74097,573.62524 L 726.13745,572.86401 L 720.37769,575.16479 L 710.39722,588.60425 L 697.34058,576.70142 L 692.34839,574.01001 L 684.28394,576.31519 L 680.44409,580.92065 L 674.29956,579.38501 L 669.69409,600.8894 L 668.54175,600.12183 L 662.39722,587.06714 L 658.17261,585.91675 L 650.11011,572.08618 L 655.48315,559.03198 L 651.64526,556.34448 L 647.42261,555.57886 L 635.1355,560.18823 L 616.31909,554.42065"
     id="polyline619" /><polyline
     id="polyline621"
     points="669.69409,600.89136 678.52612,607.80298 696.19019,612.79321 701.94995,608.18823      699.26245,620.09204 704.25269,625.08276 706.17261,628.92261 700.02808,632.37769 700.41089,643.13159 704.63745,652.34839      705.02026,660.41089 701.18042,663.48315 694.65308,663.10229 699.26245,671.54761 690.81323,673.46558 685.43628,678.84448      688.89331,686.90698 685.82104,694.20386 700.41284,713.78784 695.42261,720.69604 695.80542,724.92261 699.26245,725.68823      710.39722,731.44995 716.15698,731.44995 719.99683,726.07495 726.52612,730.29761 733.05347,733.74878 739.198,738.74878      746.49292,736.82104 749.94995,736.05933 758.01245,739.89917 763.00659,739.13159 765.69409,748.34839 763.39136,755.64331      767.22729,763.323 762.62183,767.93237 769.91479,770.61938 775.2937,768.69556 774.90894,773.68823 774.14136,777.14722      771.83862,786.36401 776.07104,785.59839 777.98901,793.26245 779.1355,798.63306 792.57104,793.64331 798.33472,794.79321      801.40698,794.79321 811.00659,794.41089 814.84448,795.56323 816.7644,804.01001 816.7644,804.39526 823.2937,810.53735      823.67847,816.68237 832.51245,822.05933 832.8894,828.96948 836.35034,831.27612 837.50073,832.42651 840.57104,829.73315      850.55542,828.58276 850.93628,833.57886 856.69604,830.50659 857.08276,827.43042 867.83667,822.05933 868.22144,822.82056      871.67651,816.67651 880.50854,812.07446 884.34839,805.93237 883.19604,799.02026 887.42065,795.18237 891.26245,795.55933      894.33472,790.19946 908.15698,794.79321 909.69409,800.93823 915.06909,799.02026 918.90894,809.38745 918.52222,805.16479      921.9812,805.16479 926.59058,815.14722 926.20581,817.44946 928.50854,822.05933 941.18042,825.13159 946.94214,820.13745      950.01245,825.13159 955.00659,826.28198 961.15112,828.58862 969.59644,825.51636 980.35034,830.12183 987.64331,839.33862      991.86987,845.10229 1001.08472,850.09204 1000.31519,851.62183 999.55151,856.61938 998.78198,858.53345 1012.6062,869.28735      "
     style="fill:none;stroke:#000000;stroke-width:1.41729999;stroke-miterlimit:3.8636899" /><polyline
     id="polyline623"
     points="513.40698,637.37183 516.86206,638.13745 515.32495,644.28198 521.46753,646.97144      524.15503,651.57886 517.24292,656.95386 511.10034,657.72339 522.62183,673.46558 519.54956,683.83276 523.77222,689.20776      519.55151,690.74438 518.01245,688.44409 518.39722,690.36011 523.77222,709.17798 533.37183,718.01001 532.22144,719.54761      534.1394,724.15503 531.06909,724.92261 529.53394,727.22339 536.82886,734.13354 552.198,731.83081 554.11011,736.82104      560.25073,737.58862 562.17261,736.05933 564.47729,744.50659 562.94019,748.7312 556.79565,748.34839 555.6355,751.80298      561.78979,754.1062 574.46362,760.63306 577.53394,773.68823 586.36597,780.21948 592.50854,784.05933 597.88354,780.98901      599.42065,789.04956 602.11011,789.04956 588.6687,793.64331 584.44409,797.48315 577.9187,797.86597 569.08472,802.86011      574.46362,813.99438 566.39722,820.90698 568.31909,825.89722 566.01245,830.50659 566.78198,830.50659 568.69995,833.19409      565.24292,837.03589 557.56519,837.80298 555.64331,841.26001 554.49487,858.92261 549.8855,861.99438 541.05347,857.00415      541.43628,864.29761 536.44409,864.29761 535.2937,876.20386 540.28589,880.04321 541.05347,884.26636 540.6687,886.18823      534.52417,887.33862 521.46948,881.19409 516.09253,885.42065 512.25269,883.11938 507.64136,871.9812 501.49878,870.82056      500.34644,880.80542 498.42847,888.48706 495.3562,888.87183 494.59058,893.48315 492.6687,898.47485 491.1355,901.54761      488.06323,900.78198 488.05933,905.00415 482.29956,903.84985 472.7019,904.23511 474.23511,910.7644 476.54175,921.13159      480.38159,922.28198 465.40698,943.02026 473.46948,945.323 478.84644,947.62183 480.38159,951.46118 478.84644,957.22729      483.06909,963.75415 478.45972,975.66089 475.38745,977.57886 476.92261,984.1062 470.39331,986.02222 473.46558,996.77759      474.23901,1003.69165 470.01245,1008.68237 464.25269,1015.20972 468.09253,1015.59448 468.86206,1019.04956      467.70581,1024.42065 463.86597,1031.72339 464.63745,1036.33276 468.86206,1040.93823 472.69995,1042.47485      471.93237,1047.84985 462.33472,1047.46558 461.948,1049.00415 460.41284,1065.51636 456.5769,1070.88745 460.80542,1077.03198      466.55151,1077.42065 476.15308,1065.90112 484.99097,1062.44409 482.30347,1068.97144 478.46362,1070.12183      472.31909,1087.02026 483.83667,1088.93823 488.44604,1085.10229 497.27612,1088.93384 506.87573,1087.39917      504.19019,1095.84985 512.63745,1103.53198 516.86206,1103.53198 514.55737,1110.82642 507.64136,1116.20386      496.89136,1120.42651 500.34839,1133.86597 "
     style="fill:none;stroke:#000000;stroke-width:1.41729999;stroke-miterlimit:3.8636899" /><polyline
     id="polyline632"
     points="174.71289,1116.97339 179.32202,1117.35425 181.24487,1113.89917 185.08374,1114.66626      184.31909,1109.67261 197.3728,1107.37183 200.44019,1110.44409 206.58765,1108.52222 208.50757,1105.83472      211.96362,1110.05884 224.6355,1095.07642 223.10132,1093.54321 233.46753,1083.94165 244.98706,1083.55884      248.44019,1087.78735 254.96851,1089.323 258.42749,1091.24292 267.26147,1091.24292 274.55542,1081.26001 279.54761,1079.72339      290.68335,1081.26001 294.90796,1096.61938 299.52026,1087.02026 308.35229,1082.79321 310.65112,1072.42065      304.88843,1066.66089 304.12183,1059.74878 305.27515,1053.99438 292.21948,1042.47485 298.7478,1035.948 304.89136,1035.948      309.88354,1031.72339 308.72827,1028.65503 303.35229,1021.35425 301.05151,1011.75415 296.44507,1015.59448      294.90796,1010.98901 298.7478,1010.98901 302.2041,1007.14722 302.97339,992.93823 302.97339,991.78735 303.35522,984.87524      296.823,977.57886 297.97437,972.58862 302.2041,971.04956 304.50757,970.66626 305.66089,959.91626 309.11694,955.30542      309.50073,953.00415 308.7312,951.46558 311.03589,936.87524 310.65308,925.73901 310.65112,924.20386 309.88354,920.74878      302.96851,912.68237 302.58765,911.91626 299.13159,900.01001 296.44507,887.33862 296.82788,884.65112 296.82788,884.26636      291.45288,873.51636 292.21948,866.21948 291.06714,859.31128 291.83374,855.84985 284.92554,847.01636 278.01147,833.58276      274.93921,830.50659 269.56348,825.13159 268.02808,819.37183 285.69116,800.55542 283.38745,790.58862 289.53198,791.35425      301.04858,783.29126 308.7312,790.97144 317.17456,789.43042 326.00854,780.59839 329.84839,778.30151 331.77319,778.29761      335.61206,777.14331 334.45972,774.07446 333.69116,772.15503 332.92163,770.23511 341.3728,766.77759 344.82788,767.93237      353.27515,765.62183 350.58765,760.25024 352.12183,755.26001 354.04077,752.95386 351.73999,743.35425 349.4353,740.66089      349.4353,735.28784 354.81128,734.90698 355.57495,733.37183 348.6687,723.77222 339.83374,715.323 339.06714,706.87183      342.52222,704.57104 342.5271,701.11597 354.04565,705.72339 354.81128,703.42065 359.03589,703.42065 362.49194,714.55542      365.17944,716.47534 372.09155,711.48315 372.86011,703.80298 376.69604,699.57886 382.46167,699.19409 384.37378,701.88159      377.46265,713.78784 390.90698,709.948 397.43433,702.65112 396.28003,700.34839 388.21753,688.05933 390.52417,685.37183      380.53589,682.29761 379.38745,670.77759 381.30933,669.62524 381.69409,661.56323 384.7644,658.87524 386.29956,657.72339      386.29956,649.66089 380.92261,647.73901 381.69409,644.66675 387.45386,641.59448 387.45386,633.91675 385.9187,632.75854      387.45386,627.77222 380.15601,621.24878 387.45386,618.55542 385.14722,607.42065 379.00366,602.04321 378.62012,598.58862      375.16382,599.35425 374.77515,598.20386 377.46753,594.74878 369.40308,591.28784 367.10132,585.53198 362.49292,585.14722      361.72632,576.31519 357.50073,574.77759 354.42749,577.46558 353.27515,576.31519 339.06714,570.93823 338.68335,564.41089      340.60327,563.64331 337.14722,552.12183 325.62769,550.58862 338.68335,538.68237 336.37988,531.38745 332.15601,527.93237      319.86792,518.71558 317.56348,520.25024 307.19604,513.72339 306.81128,509.49683 304.89136,494.52222 307.19604,493.37183      303.73999,490.29761 305.65991,484.14917 308.34741,488.75854 312.95581,481.46118 308.34741,476.08618 307.58008,472.63354      307.96069,464.18823 305.65991,465.33862 301.81909,462.65112 302.96851,443.06714 313.72241,441.53198 314.87573,438.84448      312.573,436.92261 309.50073,428.08618 304.12183,410.04321 299.89648,405.04956 302.19897,399.28784 297.20679,385.46143      295.67554,383.54736 290.30151,383.16479 284.92651,388.92651 286.4646,390.46558 290.29761,392.7644 279.9314,405.81909      268.79565,406.58862 269.56348,405.43628 265.34253,405.81909 258.0437,405.81909 254.59058,402.36401 256.89136,396.21948      257.27515,385.46533 256.12183,379.70557 250.7478,376.63525 253.81909,369.33862 251.51245,367.80322 244.98706,370.49268      241.14722,382.39502 229.62769,378.93823 231.54761,377.02002 233.46753,375.86182 236.53979,372.02222 244.21948,357.81519      242.68335,352.8208 233.47241,339.38721 232.31909,337.46533 236.15601,331.70557 235.77319,330.93823 232.31714,321.33862      226.16968,317.11597 226.55542,313.27588 215.41968,320.95361 209.27515,329.7876 205.43433,314.80908 196.99097,318.65088      196.99097,327.09644 193.53491,329.0144 184.70093,323.64307 186.23511,318.26221 188.53979,315.95947 188.92163,305.97705      187.77319,304.05908 190.84058,300.21924 190.4646,290.61597 168.573,295.22144 170.87573,305.98315 168.95581,307.90088      157.43726,300.604 155.91577,292.14917 149.77148,291.77222 145.15894,298.30127 141.32397,297.14722 138.25171,291.38721      131.72339,295.22144 127.50073,297.9165 124.42749,295.22144 120.2041,297.14722 109.4519,298.68237 111.36694,307.90088      104.84351,309.04956 111.37183,312.50659 118.28394,312.12183 123.65991,313.66064 116.35913,317.11597 119.43237,322.87524      125.58008,322.49268 126.34741,312.51025 131.72339,316.34839 134.7959,321.72339 134.7959,327.86597 131.3396,332.09204      129.03711,334.77783 132.49194,337.8501 134.41211,339.77222 131.3396,344.76221 125.58081,345.9165 121.74487,340.5376      115.9812,345.14722 107.9187,341.30737 106.37988,340.92236 102.15601,347.06689 98.31519,348.604 95.2439,363.95947      92.94312,363.95947 90.64038,368.5708 88.33667,368.5708 86.7959,369.33862 79.49487,371.26025 57.22241,369.33862      48.39526,360.12183 48.39526,353.97705 57.22729,345.53174 57.6123,338.23486 54.15601,335.15845 54.15601,327.86182      58.38159,324.79346 63.75562,323.64307 63.75562,321.33862 62.21948,318.26636 65.29175,317.88159 66.44312,313.66064      67.21167,311.73877 69.13159,307.51636 64.90894,303.67627 64.14233,302.90845 58.76343,301.75439 60.68335,295.99463      65.67554,292.92236 65.29175,288.31519 59.53198,287.15845 56.07593,289.8501 54.15601,286.39502 54.15601,268.34839      49.15894,274.1062 42.24878,268.729 44.1687,265.27222 41.8728,262.97144 45.70874,261.43604 42.6377,256.82666 39.1814,229.948      40.33667,228.02588 37.64331,214.20386 43.78589,207.2876 41.48315,201.14722 39.948,194.61963 30.7312,195.38745      30.34741,190.01025 31.88354,187.323 32.65112,185.40283 34.56714,185.02026 35.72339,174.26636 42.25171,168.88745      43.78589,168.50659 52.2373,166.58862 64.1394,164.28174 69.89917,168.89136 68.7478,176.95386 72.97168,174.26636      80.65112,163.51636 79.11108,160.05908 86.02808,157.37183 91.79272,156.98877 97.54761,160.05908 102.53979,158.90674      109.06714,161.97705 112.1394,159.67627 124.81128,163.13159 132.10718,179.26025 135.948,180.41064 145.9314,178.10986      146.31519,178.1062 158.20874,176.94971 159.73999,172.7312 157.05151,157.75439 162.81128,151.99463 162.0437,149.30542      156.30151,148.5376 155.53491,140.09204 158.97168,139.70557 159.35522,137.7876 155.91577,132.79321 154.00073,127.42065      155.91577,121.27588 164.34937,126.26636 173.1814,125.88159 173.56348,125.49268 178.55542,128.94971 184.70093,127.03564      185.08374,126.65088 195.44995,123.57886 189.69116,116.6665 191.99609,112.05908 196.98706,109.75439 201.59546,108.60425      204.28394,107.44971 206.58765,103.22144 208.89136,102.07471 210.04565,102.07471 214.65503,96.31519 215.03589,90.93823      213.88354,82.87524 211.58008,79.41479 216.573,67.89307 216.573,56.37744 218.49194,53.30542 229.24487,54.45947      230.01147,55.60986 233.84839,60.60425 241.91382,64.05908 251.89648,61.37183 260.7312,55.22144 272.63257,46.00439      275.3269,39.86597 282.61987,32.95386 284.92163,24.89136 285.30469,19.51636 291.44702,14.90674 299.13159,3.77222      304.12183,1.46558 308.7312,9.53174 311.41968,6.07471 316.02808,8.37744 317.948,6.07471 324.09155,4.92236 329.08374,14.13745      347.51733,27.95947 353.27515,27.57886 357.11206,31.80322 358.65112,40.25024 362.87769,46.77783 364.02808,50.61597      371.70776,52.9165 367.48315,60.60425 369.40308,64.05908 380.15601,64.44385 383.22729,61.75439 385.53394,69.81885      394.36597,75.19385 393.21167,78.26636 398.58862,81.33862 403.198,75.57886 407.80737,78.26636 408.19019,84.41064      413.948,86.71558 419.32495,87.09424 418.17456,92.4751 419.70972,106.29736 417.40308,110.52222 422.39331,118.20386      419.70581,120.12183 422.01245,126.65088 433.53394,128.18823 434.68433,128.95386 448.89331,135.09839 451.19604,132.02588      450.42847,125.88159 451.19409,117.81885 460.41284,121.66064 463.10034,117.81885 467.70581,117.43604 473.46558,122.80908      479.99683,117.43604 478.46362,108.21924 478.07886,107.83643 471.16675,107.83447 446.59058,89.7876 448.12573,80.95386      452.35034,75.96362 460.7937,72.50659 463.48315,67.51636 467.32495,69.81885 474.23706,64.44385 480.7644,66.35986      485.37378,64.05908 493.43433,66.74463 495.35229,65.97705 499.19409,64.448 501.49878,66.74878 511.48511,80.94971      513.40698,78.26245 523.39136,75.95947 522.62183,79.79956 525.69409,81.33276 534.52417,78.26636 536.8269,74.04346      542.20581,73.27588 548.35034,78.26636 552.95776,89.02026 546.81128,94.01025 546.81128,97.8501 549.49878,102.07471      559.48315,105.14722 557.17847,109.75439 560.63745,108.98706 562.55542,101.69189 574.84448,110.13745 578.30151,107.45557      575.61401,100.15503 577.53394,85.948 577.53394,83.64307 581.37183,84.41064 582.90894,75.19385 579.45386,62.52222      579.06909,53.30542 575.22729,39.48315 573.30933,31.03564 577.9187,30.65503 585.59644,29.49683 590.59058,26.80542      596.34839,17.20776 595.96558,14.90674 602.49292,13.74878 615.16479,16.44385 619.39136,22.20776 614.77808,27.58276      614.39722,41.0144 615.16479,43.70557 620.15503,45.24268 621.30933,50.23486 628.6062,47.15845 631.2937,53.30542      631.67847,60.98706 638.59058,60.60425 642.42847,67.13159 650.11011,62.90674 651.64331,59.06689 658.94214,59.44971      663.55151,63.67627 667.39136,62.52222 673.53394,60.98706 678.14136,60.60425 680.82886,59.83643 682.75073,57.53174      685.43823,59.44971 690.0437,56.37744 690.42847,55.99463 696.95581,55.99463 694.26831,52.5376 704.63745,51.00439      710.78198,59.06689 711.54956,61.37183 714.23706,59.83447 720.7644,57.53174 725.37183,51.77222 730.36597,51.00439      734.59058,47.54736 740.73511,50.61963 742.26831,59.06689 744.95776,57.14722 749.94995,60.21924 749.17261,64.44385      750.33276,69.81519 748.02808,74.42065 761.08276,78.26245 762.23706,82.48706 776.8269,82.48706 778.75073,86.33276      784.89136,90.17236 783.3562,93.62183 788.34839,102.0708 777.21167,110.90503 786.0437,118.20142 791.80737,117.04956      794.11011,122.80908 804.47729,133.948 807.93433,143.16479 803.32495,153.14722 805.24292,161.20947 807.16479,166.58862      813.30933,169.27026 821.37183,175.03174 820.22144,182.33276 833.66089,183.86597 846.33276,196.92236 860.15503,203.06689      870.90894,206.52222 878.59058,212.6665 872.06323,221.88159 873.97925,226.88159 889.34058,230.72144 892.02808,236.09204      880.12573,263.354 877.05347,261.81519 873.9812,264.88721 873.21362,282.93408 857.85229,293.69189 858.62183,298.68237      868.22144,313.66064 878.96753,319.41479 887.80151,319.41479 888.95581,341.30542 898.17261,343.99463 902.01245,366.65088      907.00464,372.79346 905.85229,374.33276 909.30933,376.6333 918.90894,378.17236 920.06323,393.91675 917.75464,397.37183      921.59644,400.05933 923.89917,408.89136 923.51636,412.7312 938.11011,417.71704 948.86206,426.54956 949.62964,433.85034      956.54175,444.60425 979.19604,448.82495 981.88354,448.448 979.58081,441.91821 989.18042,444.21948 995.70972,443.83618      1002.62183,447.29175 1011.45386,457.27026 1016.8269,457.65503 1031.03784,479.54321 1033.72534,486.84204      1038.71558,489.14331 1038.33276,494.90845 1053.69409,505.27612 1053.69409,516.41089 1070.58862,526.77759      1081.72339,523.70581 1097.46753,534.84448 1111.2937,550.97144 1112.44409,561.33276 1113.59644,572.47144      1117.43823,575.15845 1121.27808,577.85034 1128.57104,581.68823 1135.86987,587.06714 1140.47925,588.21948      1140.09253,585.91821 1139.70972,577.85425 1157.75464,576.31909 1174.65308,597.81909 1181.56714,609.33862      1190.01245,608.57104 1194.62183,608.18823 1197.69409,607.42065 1205.75464,625.08276 1213.43823,630.07495      1218.81128,638.52222 1216.50854,644.66675 1225.34058,647.73901 1223.03784,652.34839 1221.11597,662.71558      1215.74097,670.01001 1221.50073,676.53784 1222.26831,689.59448 1224.95581,704.95386 1219.96558,721.46558      1213.05347,728.37769 1208.44409,726.07495 1206.14136,733.75464 1207.2937,739.13159 1202.68433,745.66089      1186.55737,739.13159 1184.25269,734.52222 1169.27808,726.45972 1164.6687,730.29956 1157.75659,726.45972      1147.77222,719.15845 1143.16479,729.52759 1137.02026,733.74878 1130.11011,736.05933 1135.48315,749.50024      1133.18042,756.41089 1128.95581,769.84985 1132.41089,779.44946 1128.57104,789.04956 1127.42065,799.0144      1123.58081,803.62183 1106.68433,821.67651 1090.55737,832.80933 1078.27026,833.57886 1069.05347,833.95972      1057.15112,840.49292 1049.85229,840.87524 1045.62964,841.26001 1028.73511,851.24292 1017.9812,866.21558 1012.6062,869.28735      994.55737,871.58862 990.33276,880.42065 984.56519,890.02222 971.13354,900.77759 967.2937,900.77759 965.37183,906.15503      968.06323,919.9812 980.73511,931.88159 992.63745,942.63306 998.78198,961.44946 1010.29956,964.52222 1022.59058,983.72339      1028.73511,995.24292 1032.95776,1004.07446 1026.81323,1014.05884 1017.59644,1029.03589 1014.90894,1032.87524      1018.36597,1032.49292 1019.13354,1034.79321 1017.21167,1041.323 1011.83667,1045.15845 1009.53394,1049.77417      1014.90894,1055.14722 1030.65308,1055.91626 1033.34058,1053.61011 1038.33472,1049.77612 1046.01245,1054.38306      1054.46167,1062.44409 1054.07886,1067.81519 1057.15112,1076.65259 1059.45386,1084.33276 1051.39136,1094.69556      1049.46948,1135.78735 1039.48511,1146.53735 1014.14136,1135.40259 1006.46167,1126.18237 986.87769,1116.58276      981.49878,1109.67065 980.34839,1105.83081 983.42065,1097.77222 991.10034,1093.15845 984.57104,1087.78735      973.82104,1078.94946 976.89331,1073.57886 957.30933,1068.20386 934.65308,1072.42065 927.74097,1087.78735      908.54175,1091.24292 893.18042,1073.19409 893.17847,1067.81665 892.79761,1065.51636 885.49683,1066.28003      873.59644,1070.11938 867.06714,1067.81665 866.68433,1065.51001 845.94995,1072.80542 842.49487,1067.43384      847.86987,1052.84448 845.94995,1049.00415 838.26831,1058.60425 827.89917,1065.51636 822.52612,1065.51636      822.90894,1069.35425 832.89331,1090.47485 834.81128,1099.30884 828.66675,1101.61011 802.94019,1100.07446      797.56519,1097.00415 787.96558,1100.07446 784.12573,1095.08276 765.30933,1100.07446 755.32495,1101.99438      745.72925,1104.68237 743.03784,1112.36401 726.91284,1109.29126 689.27808,1109.67651 682.36597,1114.28198      678.14136,1123.50024 678.52612,1135.02026 674.68433,1139.24878 657.78979,1143.08276 645.11792,1141.93237      641.27808,1138.86011 633.59644,1147.30542 627.06909,1155.75269 633.59644,1157.67456 636.6687,1166.12183      615.55151,1164.58618 599.42261,1184.16626 586.36597,1184.93384 594.42847,1173.03198 592.89526,1171.49683      582.14136,1171.11597 571.00464,1175.72339 563.323,1179.56128 561.02026,1184.93384 555.64331,1186.47339 524.92456,1185.70581      521.85229,1180.33276 526.0769,1176.87524 525.69409,1173.42065 512.63745,1159.19946 512.63745,1153.82642      499.57886,1155.36401 496.50659,1153.06128 498.0437,1146.14917 508.79761,1140.77759 505.33862,1140.77759      500.34644,1133.86597 491.89917,1135.02026 473.08276,1142.31519 451.19409,1128.87524 450.81323,1126.18823      436.6062,1126.18823 427.39136,1121.95972 420.86206,1135.39917 408.57495,1135.0144 399.74097,1133.47729 390.90894,1127.71704      397.82104,1116.58862 395.51831,1115.81519 386.29956,1116.96948 384.37769,1119.66089 389.75269,1128.1062 384.7644,1147.30542      387.83667,1154.21558 394.36597,1156.90698 395.90308,1174.18823 374.39233,1197.22144 374.00854,1202.21558      358.2644,1221.41479 337.14429,1232.17261 319.86401,1234.86011 321.01636,1225.26001 335.60815,1193.00415      333.30444,1190.31519 321.78882,1189.15845 311.42065,1198.75806 301.05469,1203.37183 296.43726,1188.77759      302.19995,1175.72339 296.82397,1164.58862 289.91675,1161.51636 286.84546,1153.448 278.01147,1155.74878 274.17358,1153.83472      266.49194,1140.77759 267.25952,1131.55884 255.73999,1137.70581 252.28394,1134.25024 244.60327,1131.18237      243.44702,1138.09204 228.86011,1130.79321 231.54761,1126.18823 230.77515,1116.20386 225.40308,1113.13159      218.87573,1113.13159 209.66479,1128.87183 206.97339,1136.17261 "
     style="fill:none;stroke:#000000;stroke-width:2.26769996;stroke-miterlimit:3.8636899" /></svg>