<?xml version="1.0" encoding="UTF-8" standalone="no"?>
<!-- Created with Inkscape (http://www.inkscape.org/) -->

<svg
   xmlns:osb="http://www.openswatchbook.org/uri/2009/osb"
   xmlns:dc="http://purl.org/dc/elements/1.1/"
   xmlns:cc="http://creativecommons.org/ns#"
   xmlns:rdf="http://www.w3.org/1999/02/22-rdf-syntax-ns#"
   xmlns:svg="http://www.w3.org/2000/svg"
   xmlns="http://www.w3.org/2000/svg"
   xmlns:xlink="http://www.w3.org/1999/xlink"
   xmlns:sodipodi="http://sodipodi.sourceforge.net/DTD/sodipodi-0.dtd"
   xmlns:inkscape="http://www.inkscape.org/namespaces/inkscape"
   id="svg4136"
   version="1.1"
   inkscape:version="0.91 r13725"
   width="300"
   height="300"
   viewBox="0 0 300 300"
   sodipodi:docname="respiratory sistem_C39.svg">
  <metadata
     id="metadata4142">
    <rdf:RDF>
      <cc:Work
         rdf:about="">
        <dc:format>image/svg+xml</dc:format>
        <dc:type
           rdf:resource="http://purl.org/dc/dcmitype/StillImage" />
        <dc:title />
      </cc:Work>
    </rdf:RDF>
  </metadata>
  <defs
     id="defs4140">
    <linearGradient
       inkscape:collect="always"
       xlink:href="#linearGradient5691"
       id="linearGradient4197"
       gradientUnits="userSpaceOnUse"
       gradientTransform="matrix(0.76456668,0,0,0.76456668,18.694232,38.263554)"
       x1="49.907101"
       y1="197.56871"
       x2="63.640804"
       y2="197.56871" />
    <linearGradient
       id="linearGradient5691"
       osb:paint="solid">
      <stop
         style="stop-color:#000000;stop-opacity:1;"
         offset="0"
         id="stop5693" />
    </linearGradient>
  </defs>
  <sodipodi:namedview
     pagecolor="#ffffff"
     bordercolor="#666666"
     borderopacity="1"
     objecttolerance="10"
     gridtolerance="10"
     guidetolerance="10"
     inkscape:pageopacity="0"
     inkscape:pageshadow="2"
     inkscape:window-width="1366"
     inkscape:window-height="706"
     id="namedview4138"
     showgrid="false"
     inkscape:zoom="2.6930238"
     inkscape:cx="114.18812"
     inkscape:cy="196.33635"
     inkscape:window-x="-8"
     inkscape:window-y="-8"
     inkscape:window-maximized="1"
     inkscape:current-layer="svg4136" />
  <path
     style="fill:none;fill-rule:evenodd;stroke:#000000;stroke-width:0.59999996;stroke-linecap:butt;stroke-linejoin:miter;stroke-miterlimit:4;stroke-dasharray:none;stroke-opacity:1;opacity:0.99999999"
     d="m 139.45844,88.346391 6.51945,-8.84224 8.38216,-2.947441 7.45082,2.947441 2.32838,4.912347 0,3.438678 3.25972,1.964942 4.65675,0.982477 4.19108,1.96494 3.72542,11.298425 1.39702,13.75463 -1.8627,8.84225 -1.39704,7.36854 1.86272,7.36852 3.06036,8.35103 1.39703,4.04644 -6.25366,-0.2192 -4.72319,-8.73954 -3.25973,-9.33349 1.86269,-8.84224 2.3284,-7.36856 -2.3284,-6.87731 -5.12241,-4.91239 -7.45082,-3.92984 -7.91648,-0.98248 -5.12243,3.92991 -0.2728,2.68433 4.92953,3.70171 -3.7254,1.4737 -3.66891,-3.43864 -4.46717,-3.60857 1.86252,-6.13051 8.13626,-1.559344 10.24486,-0.491251 7.45082,2.947425 6.98513,4.91235 -3.72541,-8.350989 -8.84784,-5.40362 -10.24486,-0.491226 -7.91647,1.473702 -5.12244,0.982465 c -0.11023,-0.0012 -2.36671,-1.676278 -3.55008,-2.514423 z"
     id="C39.0"
     inkscape:connector-curvature="0"
     sodipodi:nodetypes="ccccccccccccccccccccccccccccccccccccccccccc"
     inkscape:label="#path4146" />
  <path
     style="fill:none;fill-rule:evenodd;stroke:#000000;stroke-width:0.59999996;stroke-linecap:butt;stroke-linejoin:miter;stroke-miterlimit:4;stroke-dasharray:none;stroke-opacity:1"
     d="m 178.17544,153.50041 3.65948,9.51388 0.46568,10.80721 0.46566,6.87732 -0.46566,5.89483 -3.72542,3.43865 0.46569,-11.29842 -1.86271,-13.75463 -10.24485,-4.91238 -10.71054,6.87733 -7.91648,6.8773 -9.77919,12.77215 -3.25975,9.8247 -4.19106,15.22834 -1.39703,14.24582 -1.8627,14.73712 0.46569,17.19323 1.39701,8.84228 10.24487,-1.96494 7.4508,-7.36857 9.77919,-3.92991 5.12243,-3.92985 9.3135,0.98247 4.65675,-9.3335 1.8627,-12.77215 -0.46566,-9.33348 -2.32838,-5.40359 4.19108,-6.38608 0.46568,-6.87732 4.65675,-3.43861 1.39704,5.89482 -0.93137,13.26337 0,8.35101 0.46568,9.82472 5.12244,13.75462 9.77917,3.92989 8.38216,2.45617 3.25974,5.89482 8.38215,6.38611 9.77918,3.43864 4.65676,-5.89484 1.39703,-14.24584 -2.32837,-15.22833 -0.93136,-16.70201 -2.32837,-15.22833 -6.05379,-14.24584 -8.84784,-14.24587 -11.17621,-10.80717 -10.24485,-1.96493 -4.19109,8.35098 -0.93135,11.78968 0,5.89484 0,3.92989 -2.32838,-1.96493 0,-9.33353 -0.46567,-11.78966 -1.39703,-8.35102 c -0.24382,-2.09816 0.20674,-3.99331 -0.73148,-6.29449 z"
     id="path4148"
     inkscape:connector-curvature="0"
     sodipodi:nodetypes="ccccccccccccccccccccccccccccccccccccccccccccccccccccccccccc" />
  <path
     style="fill:none;fill-rule:evenodd;stroke:#000000;stroke-width:0.59999996;stroke-linecap:butt;stroke-linejoin:miter;stroke-miterlimit:4;stroke-dasharray:none;stroke-opacity:1"
     d="m 142.12162,66.564044 2.50135,-18.213282 15.80557,-11.11541 16.4641,-6.252437 21.07408,2.084163 13.82984,9.031251 9.87847,18.757237 1.9757,18.757283 -6.58566,15.283634 -9.2199,11.115407 -0.65855,15.97844 1.97568,20.84135 10.53703,12.50485 9.21992,8.33653 19.09837,8.33656 19.09837,14.58897 7.90277,16.67312 -2.63426,16.67311 -1.97568,18.75722 0.65854,19.45199 1.31714,8.33655"
     id="path4150"
     inkscape:connector-curvature="0"
     sodipodi:nodetypes="ccccccccccccccccccccc" />
  <path
     style="fill:none;fill-rule:evenodd;stroke:#000000;stroke-width:0.59999996;stroke-linecap:butt;stroke-linejoin:miter;stroke-miterlimit:4;stroke-dasharray:none;stroke-opacity:1"
     d="m 91.937808,260.93287 0,-27.09379 1.317136,-24.31497 3.292817,-22.23078 14.488429,-13.89426 29.6354,-13.19955 13.17129,-2.77884 9.87846,-9.726 2.63426,-14.589 -5.26851,-6.25239 -11.85415,-0.6947 -7.9028,-4.863 0,-10.42067 -3.95137,-2.77886 1.97568,-5.55771 -0.65855,-4.863002 -4.60996,0 -3.95138,-4.862981 6.58563,-6.252397 3.9514,-9.031285 1.31712,-6.947144 0.13291,-4.707546 0.51375,-3.061705"
     id="path4152"
     inkscape:connector-curvature="0"
     sodipodi:nodetypes="ccccccccccccccccccccccc" />
  <path
     style="fill:none;fill-rule:evenodd;stroke:#000000;stroke-width:0.60000002;stroke-linecap:butt;stroke-linejoin:miter;stroke-miterlimit:4;stroke-dasharray:none;stroke-opacity:1;opacity:0.98"
     d="m 46.697344,78.192965 -0.13795,2.34519 0,2.20724 0.55181,2.06929 1.24157,2.48314 1.37953,2.06929 1.79338,1.93134 1.93133,1.51747 2.48315,1.37953 2.48314,0.68976 2.48315,0.2759 2.75905,0 1.79338,-0.13795 3.03495,-0.82771 2.20724,-1.10362 1.65543,-1.10362 1.65543,-1.37953 1.10362,-1.37952 1.51748,-2.897 0.82772,-2.06929 0.41385,-1.79338 0,-2.6211 -1.24157,-4.69039 -0.96567,-1.93133 -1.10362,-1.65543 -1.79338,-1.65543 -1.65543,-1.10362 -1.37952,-0.82771 -1.51748,-0.82772 -1.79338,-0.55181 -2.20724,-0.41386 -1.93134,-0.13795 -2.48314,0.27591 -2.48315,0.55181 -1.93133,0.82771 -1.93134,0.82772 -2.20724,1.93133 -1.37952,1.37953 -1.24157,1.51747 -0.96567,1.93134 -0.68976,1.37952 z"
     id="C39.9"
     inkscape:connector-curvature="0"
     inkscape:label="#path4217-8" />
  <path
     style="fill:none;fill-rule:evenodd;stroke:#000000;stroke-width:0.60000002;stroke-linecap:butt;stroke-linejoin:miter;stroke-miterlimit:4;stroke-dasharray:none;stroke-opacity:1;opacity:0.99999999"
     d="m 47.03016,38.707105 -0.13795,2.34519 0,2.20724 0.55181,2.06929 1.24157,2.48314 1.37953,2.06929 1.79338,1.93134 1.93133,1.51747 2.48315,1.37953 2.48314,0.68976 2.48315,0.2759 2.75905,0 1.79338,-0.13795 3.03495,-0.82771 2.20724,-1.10362 1.65543,-1.10362 1.65543,-1.37953 1.10362,-1.37952 1.51748,-2.897 0.82772,-2.06929 0.41385,-1.79338 0,-2.6211 -1.24157,-4.69039 -0.96567,-1.93133 -1.10362,-1.65543 -1.79338,-1.65543 -1.65543,-1.10362 -1.37952,-0.82771 -1.51748,-0.82772 -1.79338,-0.55181 -2.20724,-0.41386 -1.93134,-0.13795 -2.48314,0.27591 -2.48315,0.55181 -1.93133,0.82771 -1.93134,0.82772 -2.20724,1.93133 -1.37952,1.37953 -1.24157,1.51747 -0.96567,1.93134 -0.68976,1.37952 z"
     id="C39.8"
     inkscape:connector-curvature="0"
     inkscape:label="#path4217" />
  <path
     id="path4223"
     style="fill:none;fill-rule:evenodd;stroke:#000000;stroke-width:0.60000002;stroke-linecap:butt;stroke-linejoin:miter;stroke-miterlimit:4;stroke-dasharray:none;stroke-opacity:1"
     d="m 66.701987,81.061795 c 0.19799,0.81664 0.14036,0.58999 0.13675,0.89527 -0.023,1.94651 0.0397,0.98415 -0.0188,1.62642 l -0.0228,1.24429 -0.17917,1.23727 -0.68593,1.14441 -1.25131,0.889 -1.60953,0.63406 c -0.6178,0.13006 -1.13567,0.36481 -1.95094,0.24387 l -2.09135,-0.60143 c 0,0 0.29264,0.0732 0.38427,-0.1303 m 0.5751,-14.14422 -0.90505,1.21933 -0.45487,1.60953 -0.0929,1.51198 0.33203,1.60953 1.09362,1.41444 1.3487,0.68283 1.29993,0.14632 1.70114,-0.25469 c 0.47237,-0.13025 1.39665,-0.37835 1.39665,-0.37835 -0.0437,-0.1135 1.12868,-0.0773 1.11952,-0.43647 -0.0339,-1.32844 -0.0348,-2.22472 0.0145,-3.27135 0.0491,1.07848 -0.004,-2.32487 -0.81037,-2.97518 l -1.3534,-1.26812 -1.44625,-0.48773 -1.88052,0.14627 z"
     inkscape:connector-curvature="0"
     sodipodi:nodetypes="csccccccccccccccccccsscccccc" />
  <path
     style="fill:none;fill-rule:evenodd;stroke:#000000;stroke-width:0.60000002;stroke-linecap:butt;stroke-linejoin:miter;stroke-miterlimit:4;stroke-dasharray:none;stroke-opacity:1"
     d="m 59.71425,36.549265 -0.0975,0.97547 0.0975,1.4632 1.02425,1.17057 1.36566,0.78038 1.17056,0.63405 1.21934,0.78038 1.02424,0.78038 0.78038,1.21934 0.39019,1.51197 -0.24387,1.65831 -0.82915,1.36566 -1.36566,0.78037 -1.51198,0.0488 -1.21934,-0.24387 -1.36566,-0.87792 -0.7316,-1.17056 -0.19509,-1.60954 0.14632,-1.46321 0.78038,-1.26811 1.07301,-0.87793 1.07302,-0.48773 1.6583,-0.58524 1.17057,-0.82915 0.87792,-1.17057 0.43897,-1.56075 -0.24387,-1.41443 -0.97547,-1.21934 -1.36566,-0.68283 -1.46321,-0.0488 -1.46321,0.43897 -0.82915,0.97547 z"
     id="path4230"
     inkscape:connector-curvature="0"
     sodipodi:nodetypes="ccccccccccccccccccccccccccccccccc" />
</svg>
