<?xml version="1.0" encoding="UTF-8" standalone="no"?>
<!-- Created with Inkscape (http://www.inkscape.org/) -->

<svg
   version="1.1"
   id="svg4485"
   width="800"
   height="420"
   viewBox="0 0 800 420"
   sodipodi:docname="level2_8.svg"
   inkscape:version="1.2.2 (732a01da63, 2022-12-09)"
   xmlns:inkscape="http://www.inkscape.org/namespaces/inkscape"
   xmlns:sodipodi="http://sodipodi.sourceforge.net/DTD/sodipodi-0.dtd"
   xmlns="http://www.w3.org/2000/svg"
   xmlns:svg="http://www.w3.org/2000/svg"
   xmlns:rdf="http://www.w3.org/1999/02/22-rdf-syntax-ns#"
   xmlns:cc="http://creativecommons.org/ns#"
   xmlns:dc="http://purl.org/dc/elements/1.1/">
  <metadata
     id="metadata4491">
    <rdf:RDF>
      <cc:Work
         rdf:about="">
        <dc:format>image/svg+xml</dc:format>
        <dc:type
           rdf:resource="http://purl.org/dc/dcmitype/StillImage" />
      </cc:Work>
    </rdf:RDF>
  </metadata>
  <defs
     id="defs4489" />
  <sodipodi:namedview
     pagecolor="#ffffff"
     bordercolor="#666666"
     borderopacity="1"
     objecttolerance="10"
     gridtolerance="10"
     guidetolerance="10"
     inkscape:pageopacity="0"
     inkscape:pageshadow="2"
     inkscape:window-width="1920"
     inkscape:window-height="1009"
     id="namedview4487"
     showgrid="false"
     inkscape:zoom="1.2708928"
     inkscape:cx="350.14755"
     inkscape:cy="272.24956"
     inkscape:window-x="-8"
     inkscape:window-y="-8"
     inkscape:window-maximized="1"
     inkscape:current-layer="layer2"
     inkscape:showpageshadow="2"
     inkscape:pagecheckerboard="0"
     inkscape:deskcolor="#d1d1d1" />
  <g
     inkscape:groupmode="layer"
     id="layer2"
     inkscape:label="Layer 2"
     transform="translate(0,64.320007)">
    <path
       style="fill:none;stroke:#000000;stroke-width:0.799129px;stroke-linecap:butt;stroke-linejoin:miter;stroke-opacity:1"
       d="m 434.33826,111.64954 c 0,0 -0.41885,2.72483 -0.6288,4.08717 -0.60161,3.90391 -1.34128,7.78893 -1.80778,11.71128 -0.55581,4.67325 -1.04673,9.36493 -1.17899,14.06927 -0.10754,3.82507 -0.0207,7.66358 0.3144,11.47547 0.37348,4.24838 1.30038,8.43017 1.88638,12.65449 0.9328,6.72422 1.72984,13.46658 2.59378,20.2 0.65549,5.1089 1.49299,10.19776 1.96498,15.32687 0.25728,2.79596 0.25663,5.61058 0.4716,8.41011 0.16526,2.15224 0.50497,4.29011 0.62879,6.44514 0.0857,1.49115 0.0785,4.48016 0.0785,4.48016 0,0 -0.13708,5.13585 -0.23579,7.70272 -0.10883,2.83052 -0.39938,5.65613 -0.39299,8.48872 0.006,2.5709 0.0927,5.14941 0.39299,7.70272 0.25204,2.14351 0.79469,4.24278 1.17899,6.36654 1.09908,6.0739 2.05226,12.17446 3.22257,18.23503 0.84759,4.38933 1.73828,8.77188 2.75098,13.12608 0.52686,2.26527 1.48491,4.44666 1.72917,6.75953 -0.0391,1.98364 0.57345,3.95479 0.0785,6.05215 -0.0332,0.14056 -0.0727,0.27764 -0.10875,0.41655 -0.17448,0.67305 -0.43216,1.32777 -0.52004,2.02001 -0.0858,0.67577 -0.10378,1.37035 0,2.04359 0.0795,0.51593 0.39207,0.97745 0.47158,1.49339 0.22751,1.47595 0.09,2.98948 0,4.48015 -0.0525,0.86934 -0.13852,1.74079 -0.31439,2.59378 -0.28126,1.36409 -0.64696,2.14323 -0.94319,3.22257 -0.2792,1.01722 -0.5498,2.0373 -0.786,3.06536 -0.3532,1.53739 -0.6073,3.0961 -0.94319,4.63736 -0.24629,1.13012 -0.54836,2.24779 -0.78599,3.37977 -0.17525,0.8348 -0.37802,1.66733 -0.47159,2.51517 -0.0835,0.75566 -0.10916,1.51975 -0.0786,2.27939 0.0276,0.68515 -0.0419,1.41658 0.23579,2.04357 0.22552,0.50932 0.58233,1.05296 1.10039,1.25759 0.24489,0.0967 0.78599,-0.0785 0.78599,-0.0785 0,0 0.0475,0.593 0.15721,0.8646 0.24174,0.36776 0.43771,0.89201 0.86458,1.02178 0.36498,0.11095 1.10039,-0.31439 1.10039,-0.31439 0,0 0.0708,0.80683 0.3144,1.10038 0.29932,0.36065 0.78932,0.6093 1.25759,0.62879 0.28193,0.0117 0.78599,-0.31439 0.78599,-0.31439 0,0 0.46572,0.899 0.86459,1.17899 0.37999,0.26674 0.89039,0.52261 1.3362,0.393 0.53486,-0.15552 1.10038,-1.2576 1.10038,-1.2576 0,0 0.25752,0.568 0.4716,0.786 0.34635,0.35271 0.77735,0.66878 1.25759,0.78599 0.63834,0.1558 1.35583,0.0892 1.96497,-0.15719 0.5349,-0.21637 0.93291,-0.68775 1.33619,-1.10039 0.65207,-0.66721 1.45829,-1.30803 1.72918,-2.20078 0.19837,-0.65378 -0.24067,-1.3655 -0.1572,-2.04358 0.0607,-0.49338 0.35177,-0.93234 0.4716,-1.41479 0.2305,-0.92801 0.50979,-1.87413 0.4716,-2.82957 -0.0345,-0.86351 -0.5232,-1.65746 -0.62879,-2.51518 -0.13445,-1.09214 0.0275,-2.20112 0,-3.30116 -0.0524,-2.09795 -0.40739,-4.19141 -0.31441,-6.28795 0.0562,-1.26642 0.14945,-2.55591 0.52544,-3.76655 0.0983,-0.31648 0.33179,-0.57764 0.44461,-0.88924 0.44057,-1.21687 0.88086,-2.48517 0.88925,-3.77931 0.009,-1.29031 -0.74641,-2.49219 -0.83761,-3.77931 -0.0525,-0.74136 0.20041,-1.48049 0.17069,-2.22312 -0.0569,-1.42428 -0.43862,-2.81692 -0.66694,-4.22394 -0.21662,-1.3348 -0.52738,-2.65656 -0.66695,-4.00162 -0.1837,-1.77053 -0.26242,-3.5559 -0.2223,-5.33549 0.0771,-3.42077 0.46929,-6.83057 0.88925,-10.22636 0.51585,-4.17131 1.46301,-8.28095 2.00079,-12.44949 0.3906,-3.02759 0.80185,-6.06335 0.88925,-9.11479 0.10615,-3.70665 -0.14937,-7.41921 -0.44462,-11.11562 -0.29712,-3.71994 -1.01581,-7.39741 -1.33386,-11.11561 -0.24665,-2.88332 -0.88786,-5.81047 -0.44462,-8.67018 0.19394,-1.25134 1.33385,-3.55699 1.33385,-3.55699 l 1.11156,-5.78012 v -6.22474 l -0.22231,-7.55862 -0.22231,-8.22555 c 0,0 -0.27313,-5.6314 -0.22231,-8.44787 0.043,-2.37558 0.19621,-4.75106 0.44462,-7.11399 0.42297,-4.02312 1.20571,-8.00033 1.7785,-12.00486 0.61434,-4.29502 1.08742,-8.61078 1.77849,-12.89411 0.14835,-0.91945 0.50806,-2.74742 0.50806,-2.74742 v 0 l 1.95087,0.0931 2.25737,0.0179 v 1e-5 c 0,0 -0.31573,0.0257 -0.27005,2.63628 0.0458,2.61063 1.16416,8.59909 1.77849,12.89411 0.5728,4.00453 1.35554,7.98174 1.7785,12.00486 0.24843,2.36293 0.40174,4.73841 0.44463,7.11399 0.0508,2.81647 -0.22231,8.44786 -0.22231,8.44786 l -0.22232,8.22556 -0.22231,7.55861 v 6.22474 l 1.11156,5.78012 c 0,0 1.13993,2.30565 1.33387,3.557 0.44324,2.85971 -0.19797,5.78684 -0.44462,8.67017 -0.31806,3.7182 -1.03675,7.39567 -1.33387,11.11561 -0.29524,3.6964 -0.55081,7.40896 -0.44463,11.11562 0.0874,3.05143 0.49866,6.08719 0.88925,9.11479 0.5378,4.16853 1.48495,8.27819 2.00081,12.44949 0.41996,3.39579 0.81211,6.80558 0.88925,10.22636 0.0401,1.77959 -0.0386,3.56496 -0.22231,5.3355 -0.13957,1.34504 -0.45032,2.6668 -0.66694,4.00161 -0.22832,1.40702 -0.60995,2.79965 -0.66694,4.22394 -0.0298,0.74262 0.22323,1.48176 0.17069,2.22312 -0.0912,1.28711 -0.846,2.48899 -0.83763,3.77931 0.009,1.29414 0.4487,2.56243 0.88926,3.77931 0.11282,0.31161 0.34633,0.57275 0.44462,0.88925 0.37599,1.21063 0.46926,2.50011 0.52543,3.76655 0.0929,2.09653 -0.26199,4.18999 -0.3144,6.28794 -0.0275,1.10004 0.13444,2.20901 0,3.30116 -0.1056,0.85772 -0.5943,1.65166 -0.62879,2.51517 -0.0382,0.95544 0.2411,1.90157 0.47159,2.82958 0.11983,0.48245 0.41086,0.9214 0.4716,1.41479 0.0835,0.67808 -0.35557,1.38981 -0.1572,2.04358 0.27089,0.89275 1.07712,1.53356 1.72919,2.20078 0.40328,0.41265 0.80129,0.88403 1.33618,1.10039 0.60915,0.24638 1.32664,0.31299 1.96498,0.15719 0.48023,-0.11721 0.91123,-0.43328 1.25759,-0.78599 0.21408,-0.21801 0.4716,-0.78599 0.4716,-0.78599 0,0 0.56552,1.10206 1.10038,1.25758 0.4458,0.12963 0.95621,-0.12625 1.33619,-0.39299 0.39888,-0.28 0.8646,-1.17899 0.8646,-1.17899 0,0 0.50405,0.32613 0.78599,0.3144 0.46827,-0.0194 0.95827,-0.26815 1.25759,-0.6288 0.24362,-0.29354 0.31439,-1.10039 0.31439,-1.10039 0,0 0.7354,0.42535 1.1004,0.3144 0.42687,-0.12978 0.62282,-0.65402 0.86458,-1.02179 0.10972,-0.2716 0.15721,-0.86459 0.15721,-0.86459 0,0 0.54109,0.17529 0.78599,0.0785 0.51805,-0.20462 0.87486,-0.74826 1.10038,-1.25758 0.27764,-0.627 0.20825,-1.35842 0.2358,-2.04358 0.0305,-0.75963 0.004,-1.52371 -0.0786,-2.27937 -0.0936,-0.84786 -0.29634,-1.68037 -0.47159,-2.51519 -0.23763,-1.13197 -0.5397,-2.24963 -0.78599,-3.37977 -0.3359,-1.54125 -0.58999,-3.09997 -0.94319,-4.63735 -0.2362,-1.02806 -0.50682,-2.04814 -0.786,-3.06536 -0.29624,-1.07935 -0.66194,-1.85849 -0.94319,-3.22258 -0.17588,-0.85297 -0.2619,-1.72444 -0.31439,-2.59377 -0.09,-1.49068 -0.22751,-3.0042 0,-4.48016 0.0795,-0.51593 0.39205,-0.97745 0.47158,-1.49338 0.10378,-0.67325 0.0858,-1.36782 0,-2.04359 -0.0879,-0.69224 -0.34556,-1.34697 -0.52004,-2.02001 -0.0361,-0.13891 -0.0756,-0.27599 -0.10875,-0.41656 -0.49488,-2.09736 0.11759,-4.06851 0.0785,-6.05214 0.24426,-2.31288 1.20231,-4.49426 1.72917,-6.75954 1.0127,-4.3542 1.90338,-8.73674 2.75097,-13.12607 1.17032,-6.06057 2.12349,-12.16114 3.22258,-18.23502 0.38429,-2.12378 0.92694,-4.22305 1.17898,-6.36654 0.30023,-2.55332 0.38694,-5.13182 0.393,-7.70273 0.006,-2.83259 -0.28416,-5.65821 -0.393,-8.48872 -0.0987,-2.56688 -0.23579,-7.70273 -0.23579,-7.70273 0,0 -0.008,-2.98899 0.0785,-4.48015 0.12383,-2.15502 0.46354,-4.29289 0.6288,-6.44514 0.21496,-2.79954 0.21431,-5.61416 0.4716,-8.41012 0.47199,-5.12909 1.30948,-10.21797 1.96498,-15.32685 0.86393,-6.73342 1.66097,-13.47578 2.59377,-20.20001 0.586,-4.22431 1.51291,-8.4061 1.88639,-12.65448 0.3351,-3.81189 0.42194,-7.6504 0.3144,-11.47549 -0.13226,-4.70433 -0.62319,-9.396 -1.179,-14.06926 -0.46649,-3.92235 -1.20617,-7.80737 -1.80777,-11.71129 -0.20995,-1.36233 -0.62881,-4.08716 -0.62881,-4.08716 m 0,-3e-5 c 0,0 -0.62299,-3.53752 -1.10027,-5.26611 -0.59761,-2.16441 -1.28908,-4.31456 -2.20078,-6.36654 -0.83797,-1.886022 -2.05359,-3.582572 -2.98677,-5.423342 -0.39,-0.76932 -0.67402,-1.28388 -1.09037,-2.34661 -0.10196,-0.26022 -0.18843,-0.50716 -0.24581,-0.71877 -0.29,-1.06953 -0.32738,-2.19495 -0.393,-3.30116 -0.0791,-1.33384 -0.0771,-2.674608 0,-4.008563 0.17058,-2.94914 0.6166,-5.876968 1.02179,-8.803117 0.42953,-3.10179 0.94932,-6.190946 1.49339,-9.274708 0.45887,-2.600943 1.15911,-4.543866 1.57202,-7.152498 v 0 c 0,0 2.08365,5.716103 3.14397,8.567317 0.67336,1.810709 1.37808,3.609733 2.04357,5.423351 0.5367,1.462591 1.02059,2.944448 1.57199,4.401558 0.34955,0.923706 0.81249,1.806233 1.10039,2.750972 0.2187,0.717666 0.36932,1.45754 0.47159,2.200779 0.17179,1.248281 -0.0107,2.537093 0.2358,3.772759 0.3308,1.65756 1.09154,3.39452 1.65059,4.79456 0.55904,1.40004 1.08907,2.4156 1.65058,3.61556 0.89897,1.92113 1.92275,3.78508 2.75098,5.737752 0.67652,1.595 1.18692,3.25566 1.80778,4.87314 0.63636,1.65787 1.31566,3.29893 1.96497,4.95175 0.74008,1.88386 1.50283,3.7593 2.20079,5.65916 0.74573,2.0299 1.32861,4.11905 2.12217,6.13073 0.75751,1.9203 1.72826,3.75072 2.51519,5.65914 0.22444,0.54432 0.62879,1.65059 0.62879,1.65059 0,0 -0.0999,2.67258 -0.15721,4.00856 -0.0482,1.12678 -0.15559,2.25197 -0.15719,3.37977 -10e-4,1.20633 7.9e-4,2.41942 0.15719,3.61557 0.17388,1.33 0.47406,2.64675 0.8646,3.92996 0.22948,0.75402 0.86459,2.20078 0.86459,2.20078 v 3.53697 c 0,0 0.0182,2.46291 0,3.69417 -0.18295,1.54981 -0.071,3.21064 1.10036,3.85136 0.47995,0.26252 1.21879,-0.0538 1.57198,-0.47159 0.5455,-0.64523 0.3144,-2.51519 0.3144,-2.51519 l 0.23579,-3.69416 0.23581,-3.06538 0.39298,-0.47158 h 0.47161 l 0.1572,2.35798 0.86459,4.08714 0.62879,2.90819 c 0,0 0.38652,1.98687 0.786,2.90816 0.25742,0.59368 0.47287,1.30792 1.02178,1.65059 0.44671,0.27887 1.07604,0.33423 1.57199,0.1572 0.34895,-0.12456 0.63525,-0.44752 0.786,-0.78599 0.20279,-0.45537 0.0785,-1.4934 0.0785,-1.4934 0,0 -0.22976,-1.2131 -0.393,-1.80778 -0.13159,-0.47937 -0.344,-0.93432 -0.47159,-1.41478 -0.17144,-0.64559 -0.30352,-1.30304 -0.39299,-1.96498 -0.0985,-0.72883 -0.0919,-1.46823 -0.15721,-2.20077 -0.0656,-0.73487 -0.23579,-2.20079 -0.23579,-2.20079 l -0.0786,-1.49338 0.3144,-0.5502 0.55019,0.23579 0.4716,2.20079 0.86459,2.35798 c 0,0 0.69431,1.67157 1.02179,2.51517 0.27299,0.70322 0.52461,1.41457 0.786,2.12218 0.18382,0.49764 0.33955,1.00649 0.55018,1.49339 0.1861,0.43014 0.62881,1.25759 0.62881,1.25759 0,0 0.4103,0.5963 0.70738,0.78598 0.30035,0.19178 0.66589,0.29642 1.02179,0.31441 0.40027,0.0202 0.87853,0.0294 1.17899,-0.23581 0.24846,-0.21932 0.47924,-0.5862 0.5502,-0.94319 0.11345,-0.57055 -0.10829,-1.16706 -0.23579,-1.72918 -0.14776,-0.65141 -0.39349,-1.47502 -0.6288,-2.20077 -0.56749,-1.75027 -1.35529,-3.4259 -1.88639,-5.18756 -0.2256,-0.74834 -0.55019,-2.27938 -0.55019,-2.27938 l -0.55019,-1.80779 0.31439,-0.31439 c 0,0 1.0214,1.60913 1.49339,2.43658 0.4994,0.87551 0.92707,1.79031 1.41479,2.67237 0.38055,0.68823 0.73844,1.39214 1.17899,2.04359 0.52263,0.7728 1.0246,1.58925 1.72917,2.20077 0.43441,0.37704 0.91845,0.84702 1.49339,0.8646 0.35135,0.0107 0.71871,-0.20111 0.9432,-0.4716 0.24358,-0.29355 0.31839,-0.71893 0.31439,-1.10038 -0.009,-0.7955 -0.40643,-1.54297 -0.70739,-2.27939 -0.39008,-0.95452 -0.97411,-1.81873 -1.41478,-2.75096 -0.45137,-0.95485 -0.81882,-1.94749 -1.2576,-2.90819 -0.32617,-0.71415 -0.64913,-1.43114 -1.02179,-2.12217 -0.21754,-0.4034 -0.54656,-0.74984 -0.70739,-1.17899 -0.26152,-0.69781 -0.26419,-1.46679 -0.39299,-2.20078 -0.13327,-0.7594 -0.35919,-1.50911 -0.393,-2.27937 -0.0139,-0.31519 0.0785,-0.94321 0.0785,-0.94321 0,0 0.60264,0.60663 0.8646,0.94321 0.61591,0.79137 0.95798,1.78997 1.65059,2.51517 0.64789,0.67839 1.41981,1.27487 2.27937,1.65058 0.61205,0.26753 1.29952,0.45086 1.96498,0.393 0.50409,-0.0438 1.07394,-0.17623 1.41479,-0.55021 0.25694,-0.28192 0.40535,-0.7299 0.3144,-1.10037 -0.17232,-0.70192 -0.99761,-1.04608 -1.4934,-1.57199 -0.7629,-0.80926 -1.60544,-1.55183 -2.27937,-2.43658 -0.57723,-0.7578 -0.94588,-1.65704 -1.49339,-2.43658 -0.57852,-0.82369 -1.15985,-1.66132 -1.88638,-2.35797 -1.05529,-1.01188 -2.26428,-1.8742 -3.53696,-2.59378 -1.06315,-0.60111 -2.40797,-0.67505 -3.37977,-1.41479 -0.37118,-0.28254 -0.6181,-0.70436 -0.86459,-1.10039 -0.38392,-0.61681 -0.65092,-1.29982 -0.94319,-1.96497 -0.79462,-1.80838 -1.5838,-3.62553 -2.20078,-5.50195 -1.00635,-3.06062 -2.43658,-9.35331 -2.43658,-9.35331 0,0 -0.69744,-3.60496 -0.94318,-5.42334 -0.43714,-3.23454 -0.43845,-6.521632 -0.9432,-9.746312 -0.2861,-1.82775 -0.72815,-3.62912 -1.17899,-5.42335 -0.51131,-2.03485 -1.02279,-4.07653 -1.72919,-6.052144 -0.64399,-1.801087 -1.42114,-3.556727 -2.27938,-5.266146 -0.99003,-1.971964 -2.3809,-3.732263 -3.30116,-5.737742 -0.62551,-1.363149 -1.04069,-2.814503 -1.49339,-4.244363 -0.64087,-2.024283 -1.19048,-4.076904 -1.72918,-6.13074 -0.70452,-2.686065 -1.36793,-5.383735 -1.96497,-8.095717 -0.52256,-2.373536 -1.19738,-4.731903 -1.41479,-7.152531 -0.29067,-3.236164 0.26066,-6.498763 0.15719,-9.746307 -0.0837,-2.627011 0.0394,-5.317928 -0.62879,-7.859928 -0.50659,-1.92726 -1.48029,-3.720403 -2.51517,-5.423341 -0.7566,-1.244996 -1.6221,-2.448741 -2.67237,-3.45837 -1.20544,-1.158777 -2.49183,-2.374519 -3.92998,-3.301164 -1.123,-0.723588 -2.4002,-1.174563 -3.61556,-1.729183 -1.19556,-0.54559 -2.41582,-1.035645 -3.61557,-1.571985 -1.60254,-0.716407 -3.28983,-1.623608 -4.7853,-2.198467 -3.23135,-1.242132 -6.00599,-1.260908 -8.59579,-2.7524087 -1.32003,-0.760225 -4.94247,-1.702546 -6.49171,-2.935301 -1.54926,-1.232754 -1.96853,-3.070337 -1.91257,-6.24987698 0.0143,-0.811579 1.58925,-1.478374 2.16446,-2.38478902 1.24839,-1.967222 2.01185,-4.223136 2.68284,-6.4543251 0.3348,-1.1132434 0.65976,-3.4245132 0.65976,-3.4245132 0,0 1.71195,-0.711258 2.17292,-1.449997 0.42639,-0.683307 0.11603,-1.616003 0.32138,-2.394809 0.20823,-0.789647 0.66051,-1.496751 0.9138,-2.273115 0.36561,-1.120614 0.83285,-2.249444 0.86973,-3.427614 0.032,-1.022772 -5.8e-4,-1.945588 -0.56739,-3.01693 -0.71098,-1.343842 -1.13073,-0.846378 -1.95777,-1.312565 0.47205,-1.737555 0.4042,-1.343983 0.55584,-2.572893 0.15163,-1.22891 0.23324,-3.197319 0.1572,-4.794554 -0.0414,-0.869736 -0.1226,-1.745963 -0.33324,-2.590822 -0.21247,-0.852182 -0.52311,-1.686901 -0.93004,-2.465202 -1.04877,-2.00583 -2.31282,-3.931973 -3.84968,-5.59369 -1.43362,-1.550086 -3.04503,-3.020118 -4.92212,-3.986857 -1.9603,-1.0096 -4.09841,-1.480233 -6.3747,-1.766884 -2.27629,-0.28665 -4.78297,-0.144982 -7.14918,0.141894 -1.14916,0.139322 -3.38793,0.762783 -3.38793,0.762783 0,0 -2.31417,1.21991 -3.14174,1.815616 -1.82002,1.310121 -5.06361,4.141705 -6.66664,6.912597 -1.31914,2.280164 -1.76087,5.642666 -2.19668,7.591312 -0.28256,1.262939 0.39598,5.859256 1.01296,7.655502 -1.36781,1.073336 -1.06236,0.580809 -1.36781,1.073336 -0.44867,0.723481 -0.5325,1.649366 -0.51934,2.500578 0.0188,1.22015 0.78627,3.072269 0.85491,3.559668 0.0686,0.487398 0.73132,1.402799 1.0547,1.839134 0.32339,0.436335 0.52711,0.830097 0.74467,1.269961 0.2761,0.558213 0.40676,1.18379 0.7074,1.729184 0.23414,0.424781 0.41753,0.954925 0.84456,1.184939 0.58293,0.313985 1.98501,0.07265 1.98501,0.07265 0,0 0.39071,2.9066844 0.80516,4.3072837 0.50312,1.700255 1.0685,3.4259186 2.02528,4.9187506 0.6264,0.977324 1.69737,1.005564 2.37212,2.54966702 0.37319,1.86956098 0.81014,3.17551298 0.15721,4.87315398 0,0 -0.64765,1.687006 -1.28076,2.290724 -1.74463,1.663637 -4.30139,2.17868 -6.47294,3.2254797 -1.30987,0.631427 -2.5979,1.318044 -3.95409,1.842636 -1.26943,0.491029 -2.63279,0.713952 -3.89837,1.214818 -1.57888,0.624858 -3.12982,1.460274 -4.58342,2.223122 -1.45359,0.76285 -2.9862,1.835697 -4.13878,2.342178 -1.53079,0.672683 -2.88173,1.749399 -4.08717,2.908169 -1.05027,1.009629 -1.91577,2.213382 -2.67237,3.45837 -1.03488,1.702937 -2.0086,3.49608 -2.51517,5.423348 -0.66819,2.541999 -0.54509,5.232909 -0.62879,7.859921 -0.10346,3.247542 0.44786,6.510141 0.15719,9.746306 -0.21741,2.420627 -0.89224,4.779003 -1.41478,7.15253 -0.59706,2.711982 -1.26046,5.40966 -1.96499,8.095726 -0.53869,2.053836 -1.0883,4.106456 -1.72918,6.13074 -0.45269,1.429859 -0.86788,2.881214 -1.49338,4.244362 -0.92025,2.00548 -2.31114,3.765779 -3.30117,5.737743 -0.85822,1.709419 -1.63539,3.465059 -2.27938,5.266146 -0.7064,1.97562 -1.21788,4.0173 -1.72918,6.05214 -0.45084,1.79423 -0.89289,3.5956 -1.17899,5.42335 -0.50476,3.22468 -0.50606,6.511762 -0.9432,9.746302 -0.24574,1.81839 -0.94318,5.42335 -0.94318,5.42335 0,0 -1.43023,6.29269 -2.43659,9.35331 -0.61698,1.87643 -1.40615,3.69357 -2.20077,5.50195 -0.29227,0.66515 -0.55927,1.34817 -0.94319,1.96498 -0.2465,0.39603 -0.49342,0.81785 -0.86459,1.10039 -0.9718,0.73973 -2.31662,0.81368 -3.37977,1.41478 -1.27268,0.71959 -2.48167,1.5819 -3.53697,2.59378 -0.72652,0.69665 -1.30785,1.53428 -1.88637,2.35798 -0.54751,0.77954 -0.91616,1.67878 -1.49339,2.43657 -0.67393,0.88474 -1.51647,1.62732 -2.27938,2.43658 -0.49578,0.52591 -1.32108,0.87007 -1.49339,1.57198 -0.091,0.37048 0.0575,0.81846 0.3144,1.10039 0.34085,0.37397 0.91069,0.50633 1.41479,0.5502 0.66545,0.0579 1.35293,-0.12547 1.96498,-0.39299 0.85956,-0.37572 1.63148,-0.97219 2.27937,-1.65058 0.6926,-0.72522 1.03469,-1.7238 1.6506,-2.51518 0.26195,-0.33657 0.86459,-0.9432 0.86459,-0.9432 0,0 0.0924,0.62802 0.0785,0.9432 -0.0338,0.77026 -0.25973,1.51998 -0.393,2.27937 -0.1288,0.73399 -0.13148,1.50297 -0.39299,2.20079 -0.16084,0.42915 -0.48985,0.77558 -0.70739,1.17898 -0.37266,0.69104 -0.69562,1.40802 -1.02179,2.12218 -0.43878,0.96069 -0.80623,1.95332 -1.25759,2.90817 -0.44068,0.93223 -1.02471,1.79645 -1.41479,2.75097 -0.30096,0.73642 -0.69837,1.48389 -0.70739,2.27938 -0.004,0.38145 0.0708,0.80684 0.31439,1.10039 0.22449,0.27049 0.59185,0.4823 0.9432,0.47159 0.57494,-0.0176 1.05898,-0.48756 1.49338,-0.86459 0.70458,-0.61153 1.20655,-1.42796 1.72918,-2.20077 0.44055,-0.65145 0.79844,-1.35536 1.17899,-2.04359 0.48772,-0.88207 0.91539,-1.79686 1.41479,-2.67237 0.47199,-0.82745 1.49338,-2.43657 1.49338,-2.43657 l 0.3144,0.31439 -0.55019,1.80779 c 0,0 -0.32459,1.53103 -0.55019,2.27937 -0.5311,1.76165 -1.3189,3.43729 -1.88639,5.18755 -0.23532,0.72575 -0.48104,1.54936 -0.6288,2.20078 -0.1275,0.56211 -0.34924,1.15862 -0.23579,1.72919 0.071,0.35698 0.30174,0.72385 0.55019,0.94318 0.30046,0.2652 0.77873,0.25602 1.179,0.2358 0.35589,-0.0179 0.72143,-0.12262 1.02179,-0.31439 0.29708,-0.18969 0.70738,-0.786 0.70738,-0.786 0,0 0.4427,-0.82744 0.6288,-1.25759 0.21064,-0.48689 0.36637,-0.99575 0.55019,-1.49339 0.26139,-0.70761 0.513,-1.41895 0.786,-2.12217 0.32747,-0.8436 1.02179,-2.51518 1.02179,-2.51518 l 0.86459,-2.35798 0.47159,-2.20077 0.5502,-0.23579 0.31439,0.55019 -0.0786,1.49339 c 0,0 -0.17018,1.4659 -0.23579,2.20077 -0.0654,0.73255 -0.0587,1.47194 -0.15721,2.20077 -0.0895,0.66195 -0.22155,1.31939 -0.393,1.96498 -0.12758,0.48046 -0.33999,0.93542 -0.47158,1.41479 -0.16325,0.59467 -0.393,1.80778 -0.393,1.80778 0,0 -0.12424,1.03802 0.0785,1.49339 0.15074,0.33847 0.43704,0.66143 0.786,0.78599 0.49595,0.17704 1.12528,0.12168 1.57199,-0.15719 0.54891,-0.34267 0.76436,-1.0569 1.02178,-1.65058 0.39948,-0.9213 0.786,-2.90818 0.786,-2.90818 l 0.62879,-2.90817 0.86459,-4.08716 0.1572,-2.35797 h 0.47159 l 0.393,0.47159 0.23581,3.06537 0.23579,3.69415 c 0,0 -0.23919,1.87689 0.3144,2.51519 0.39144,0.4513 1.10524,1.01147 1.72918,0.4716 1.04079,-0.90059 1.12611,-2.30156 0.94316,-3.85137 -0.0182,-1.23126 0,-3.69417 0,-3.69417 v -3.53695 c 0,0 0.63511,-1.44676 0.86459,-2.20079 0.39054,-1.2832 0.69071,-2.59996 0.8646,-3.92996 0.15639,-1.19614 0.15879,-2.40924 0.15719,-3.61556 -0.001,-1.12781 -0.10892,-2.253 -0.15719,-3.37977 -0.0573,-1.33599 -0.15721,-4.00856 -0.15721,-4.00856 0,0 0.40435,-1.10628 0.62879,-1.65059 0.78693,-1.90842 1.75767,-3.73885 2.51519,-5.65914 0.79356,-2.01169 1.37644,-4.10084 2.12217,-6.13074 0.69796,-1.89986 1.46071,-3.77529 2.20078,-5.65915 0.64932,-1.65283 1.32862,-3.29389 1.96498,-4.95175 0.62086,-1.61748 1.13126,-3.27814 1.80778,-4.87315 0.82823,-1.952672 1.85201,-3.816632 2.75097,-5.737752 0.56152,-1.19996 1.09155,-2.21551 1.65059,-3.61556 0.55905,-1.40004 1.31978,-3.137 1.65058,-4.79455 0.24659,-1.235672 0.064,-2.524484 0.2358,-3.772765 0.10227,-0.743239 0.2529,-1.483113 0.4716,-2.200779 0.2879,-0.944739 0.75084,-1.827266 1.10038,-2.750973 0.55141,-1.457109 1.0353,-2.938967 1.57199,-4.401559 0.6655,-1.813616 1.37021,-3.612641 2.04358,-5.423349 1.06032,-2.851215 3.14397,-8.567317 3.14397,-8.567317 l 0.0656,-1.441215 c -0.0283,1.653792 1.0609,3.589835 1.52214,5.403299 0.53854,2.117342 1.03434,4.328087 1.45293,6.391193 0.41859,2.063104 0.8619,3.515067 1.25201,5.28195 0.27972,1.266909 0.48693,2.549425 0.7804,3.813216 0.37834,1.629314 0.96262,3.010026 1.26318,4.8564 0.30053,1.846381 0.73796,4.147019 0.42323,6.191629 -0.21837,1.41855 -0.96323,2.7088 -1.57199,4.00856 -0.90017,1.92198 -2.15638,3.66272 -3.06537,5.58055 -0.64781,1.366802 -1.29677,2.745712 -1.80706,4.169822 -0.17579,0.49062 -0.33515,0.98661 -0.47232,1.48932 -0.59985,2.19833 -1.02065,6.75951 -1.02065,6.75951 l 3e-5,1e-5 v 0"
       id="8.2."
       inkscape:connector-curvature="0"
       sodipodi:nodetypes="cassssassscsssaaacsasaassaaaaaaasccacaacaacaaaassasssssaaaaaaaaaaaaacccccaaaaccccczaaacccccaaaaaaaaaaaaasssssassaaaacaacaacaccsaaaaaaassaasascaaassscsssassssaccsssssssssccscccscsccscscsccccccccccccccccccsccccccccccccccscccccccccccccsccsccccccccccccccccccscccccccccsssccssscscccaaassssaacasaasczaaasasaccaccaaczaaacaaccaaaazsssssssassssssscsaasssssasssssscsssssssssssssscccaassssacsssccccccsssscssssccccccccascccsssscasssssszassssaccazaazassssccc"
       inkscape:label="#path5875" />
    <path
       style="fill:none;stroke:#000000;stroke-width:0.799129px;stroke-linecap:butt;stroke-linejoin:miter;stroke-opacity:1"
       d="m 454.65706,0.49736632 2.67035,2.35395098 2.20079,1.571984 2.35798,2.043581 2.20077,0.628793 4.08716,0.157198 2.67238,-1.729182 1.72918,-2.043581 2.35798,-2.98677198"
       id="path44976"
       inkscape:connector-curvature="0"
       sodipodi:nodetypes="ccccccccc" />
    <path
       style="fill:none;stroke:#000000;stroke-width:0.799129px;stroke-linecap:butt;stroke-linejoin:miter;stroke-opacity:1"
       d="m 462.98656,9.6108513 h 5.18755 l 1.25759,4.7159567 -7.38833,-0.157201 z"
       id="path44978"
       inkscape:connector-curvature="0"
       sodipodi:nodetypes="ccccc" />
    <path
       style="fill:none;stroke:#000000;stroke-width:0.799129px;stroke-linecap:butt;stroke-linejoin:miter;stroke-opacity:1"
       d="m 437.20601,14.955604 -1.57198,5.030345 -4.24436,4.558756 -4.08716,3.772763 -5.18756,2.986772 -1.57198,0.471598"
       id="path44980"
       inkscape:connector-curvature="0" />
    <path
       style="fill:none;stroke:#000000;stroke-width:0.799129px;stroke-linecap:butt;stroke-linejoin:miter;stroke-opacity:1"
       d="m 497.72742,15.427194 2.04359,5.973543 3.77276,3.301173 4.40156,2.829567 4.71596,1.571984"
       id="path44982"
       inkscape:connector-curvature="0" />
    <path
       style="fill:none;stroke:#000000;stroke-width:0.799129px;stroke-linecap:butt;stroke-linejoin:miter;stroke-opacity:1"
       d="m 421.01457,47.810081 5.34475,5.344755 3.77276,5.187543 2.82957,6.287942"
       id="path44984"
       inkscape:connector-curvature="0" />
    <path
       style="fill:none;stroke:#000000;stroke-width:0.799129px;stroke-linecap:butt;stroke-linejoin:miter;stroke-opacity:1"
       d="m 514.23327,49.224868 -6.28794,6.13074 -4.87315,6.602338 -1.81338,3.347208"
       id="path44986"
       inkscape:connector-curvature="0"
       sodipodi:nodetypes="cccc" />
    <path
       style="fill:none;stroke:#000000;stroke-width:0.799129px;stroke-linecap:butt;stroke-linejoin:miter;stroke-opacity:1"
       d="m 441.92196,82.865342 4.40156,-2.515172 -1.10039,-9.746306 0.1572,-12.733076 3.14396,-6.287943 4.55877,-1.41478 4.71596,2.357976 2.98677,4.873149 0.47158,5.973543 -1.10038,5.187549 -2.35797,7.231133 0.62878,6.130739 3.45838,3.772763 2.51516,1.257591 0.15721,3.14397 10.84669,0.4716 0.1572,-3.92997 3.30117,-2.200781 2.20078,-5.659141 -0.9432,-7.231134 -2.67237,-3.45837 -2.67237,-6.287933 v -3.772764 l 1.57198,-6.287936 3.30118,-2.986771 3.30116,-0.471599 3.92996,2.20078 2.35798,3.45837 1.57198,5.344747 0.62879,8.803106 0.3144,7.073937 -0.3144,5.030354 3.45837,2.515173"
       id="path44988"
       inkscape:connector-curvature="0" />
    <path
       style="fill:none;stroke:#000000;stroke-width:0.799129px;stroke-linecap:butt;stroke-linejoin:miter;stroke-opacity:1"
       d="M 426.35932,53.154836 491.6001,12.275642"
       id="path44990"
       inkscape:connector-curvature="0" />
    <path
       style="fill:none;stroke:#000000;stroke-width:0.799129px;stroke-linecap:butt;stroke-linejoin:miter;stroke-opacity:1"
       d="M 424.01718,50.957965 488.23845,11.41336"
       id="path44992"
       inkscape:connector-curvature="0"
       sodipodi:nodetypes="cc" />
    <path
       style="fill:none;stroke:#000000;stroke-width:0.799129px;stroke-linecap:butt;stroke-linejoin:miter;stroke-opacity:1"
       d="M 422.49903,49.099327 484.75532,10.497913"
       id="path44992-2"
       inkscape:connector-curvature="0"
       sodipodi:nodetypes="cc" />
    <path
       style="fill:none;stroke:#000000;stroke-width:0.799129px;stroke-linecap:butt;stroke-linejoin:miter;stroke-opacity:1"
       d="M 421.01457,47.810081 482.84266,9.2140513"
       id="path44992-7"
       inkscape:connector-curvature="0"
       sodipodi:nodetypes="cc" />
    <path
       style="fill:none;stroke:#000000;stroke-width:0.799129px;stroke-linecap:butt;stroke-linejoin:miter;stroke-opacity:1"
       d="M 420.8745,44.64522 479.98681,8.1659853"
       id="path44992-3"
       inkscape:connector-curvature="0"
       sodipodi:nodetypes="cc" />
    <path
       style="fill:none;stroke:#000000;stroke-width:0.799129px;stroke-linecap:butt;stroke-linejoin:miter;stroke-opacity:1"
       d="m 420.6387,41.920296 14.14929,-8.766112 30.6004,-18.992475 m 3.47828,-2.2079 8.36917,-5.0979597"
       id="path44992-74"
       inkscape:connector-curvature="0"
       sodipodi:nodetypes="ccccc" />
    <path
       style="fill:none;stroke:#000000;stroke-width:0.799129px;stroke-linecap:butt;stroke-linejoin:miter;stroke-opacity:1"
       d="m 420.61242,39.221647 13.75629,-8.530314 27.67466,-16.521726 m 6.13074,-4.5587557 7.46348,-4.510461"
       id="path44992-8"
       inkscape:connector-curvature="0"
       sodipodi:nodetypes="ccccc" />
    <path
       style="fill:none;stroke:#000000;stroke-width:0.799129px;stroke-linecap:butt;stroke-linejoin:miter;stroke-opacity:1"
       d="m 420.50755,36.601598 13.69734,-8.373117 28.59227,-17.265604 m 1.69247,-1.4814357 10.80728,-6.372306"
       id="path44992-4"
       inkscape:connector-curvature="0"
       sodipodi:nodetypes="ccccc" />
    <path
       style="fill:none;stroke:#000000;stroke-width:0.799129px;stroke-linecap:butt;stroke-linejoin:miter;stroke-opacity:1"
       d="M 420.71707,34.226881 464.86505,7.2624093"
       id="path44992-1"
       inkscape:connector-curvature="0"
       sodipodi:nodetypes="cc" />
    <path
       style="fill:none;stroke:#000000;stroke-width:0.799129px;stroke-linecap:butt;stroke-linejoin:miter;stroke-opacity:1"
       d="M 430.43711,25.859551 461.88618,6.4668823"
       id="path44992-6"
       inkscape:connector-curvature="0"
       sodipodi:nodetypes="cc" />
    <path
       style="fill:none;stroke:#000000;stroke-width:0.799129px;stroke-linecap:butt;stroke-linejoin:miter;stroke-opacity:1"
       d="m 436.00855,19.536614 24.131,-14.7242657"
       id="path44992-68"
       inkscape:connector-curvature="0"
       sodipodi:nodetypes="cc" />
    <path
       style="fill:none;stroke:#000000;stroke-width:0.799129px;stroke-linecap:butt;stroke-linejoin:miter;stroke-opacity:1"
       d="m 436.80365,16.270218 6.4662,-3.67681 m 11.73236,-7.2923757 3.08645,-1.869029"
       id="path44992-43"
       inkscape:connector-curvature="0"
       sodipodi:nodetypes="cccc" />
    <path
       style="fill:none;stroke:#000000;stroke-width:0.799129px;stroke-linecap:butt;stroke-linejoin:miter;stroke-opacity:1"
       d="M 427.47728,54.522898 493.66354,13.642107"
       id="path44992-86"
       inkscape:connector-curvature="0"
       sodipodi:nodetypes="cc" />
    <path
       style="fill:none;stroke:#000000;stroke-width:0.799129px;stroke-linecap:butt;stroke-linejoin:miter;stroke-opacity:1"
       d="M 429.04927,56.776227 496.4931,14.637848"
       id="path44992-9"
       inkscape:connector-curvature="0"
       sodipodi:nodetypes="cc" />
    <path
       style="fill:none;stroke:#000000;stroke-width:0.799129px;stroke-linecap:butt;stroke-linejoin:miter;stroke-opacity:1"
       d="M 430.96016,59.716708 498.09714,16.945815"
       id="path44992-9-8"
       inkscape:connector-curvature="0"
       sodipodi:nodetypes="cc" />
    <path
       style="fill:none;stroke:#000000;stroke-width:0.799129px;stroke-linecap:butt;stroke-linejoin:miter;stroke-opacity:1"
       d="M 431.99498,61.740109 499.09311,19.198918"
       id="path44992-9-7"
       inkscape:connector-curvature="0"
       sodipodi:nodetypes="cc" />
    <path
       style="fill:none;stroke:#000000;stroke-width:0.799129px;stroke-linecap:butt;stroke-linejoin:miter;stroke-opacity:1"
       d="m 436.85729,61.310551 9.65093,-6.013941 m 7.76128,-4.680066 30.21481,-18.685738 15.87567,-9.793248"
       id="path44992-9-1"
       inkscape:connector-curvature="0"
       sodipodi:nodetypes="ccccc" />
    <path
       style="fill:none;stroke:#000000;stroke-width:0.799129px;stroke-linecap:butt;stroke-linejoin:miter;stroke-opacity:1"
       d="m 437.41307,64.062443 8.18957,-4.857781 m 10.98485,-7.147077 29.76205,-18.174024 16.31216,-10.059627"
       id="path44992-9-2"
       inkscape:connector-curvature="0"
       sodipodi:nodetypes="ccccc" />
    <path
       style="fill:none;stroke:#000000;stroke-width:0.799129px;stroke-linecap:butt;stroke-linejoin:miter;stroke-opacity:1"
       d="m 438.25161,66.996888 6.98097,-4.335665 m 13.53917,-8.22613 29.76799,-18.452493 16.7627,-10.338095"
       id="path44992-9-70"
       inkscape:connector-curvature="0"
       sodipodi:nodetypes="ccccc" />
    <path
       style="fill:none;stroke:#000000;stroke-width:0.799129px;stroke-linecap:butt;stroke-linejoin:miter;stroke-opacity:1"
       d="m 439.03759,69.643214 6.22248,-3.747407 m 14.85878,-9.608178 30.59954,-18.228218 17.22694,-10.527934"
       id="path44992-9-3"
       inkscape:connector-curvature="0"
       sodipodi:nodetypes="ccccc" />
    <path
       style="fill:none;stroke:#000000;stroke-width:0.799129px;stroke-linecap:butt;stroke-linejoin:miter;stroke-opacity:1"
       d="m 439.43059,72.839733 5.74141,-3.781282 m 15.74544,-9.5614 32.0854,-19.676606 17.85741,-11.00643"
       id="path44992-9-20"
       inkscape:connector-curvature="0"
       sodipodi:nodetypes="ccccc" />
    <path
       style="fill:none;stroke:#000000;stroke-width:0.799129px;stroke-linecap:butt;stroke-linejoin:miter;stroke-opacity:1"
       d="m 440.05938,75.564653 5.22296,-3.524433 m 16.11623,-10.082651 14.4489,-8.637619 m 8.54833,-4.704803 29.02104,-17.827329"
       id="path44992-9-6"
       inkscape:connector-curvature="0"
       sodipodi:nodetypes="cccccc" />
    <path
       style="fill:none;stroke:#000000;stroke-width:0.799129px;stroke-linecap:butt;stroke-linejoin:miter;stroke-opacity:1"
       d="m 440.60958,78.446778 4.97425,-3.223529 m 15.08943,-9.337112 14.10319,-7.858152 m 12.10428,-7.545526 26.98074,-16.498122"
       id="path44992-9-33"
       inkscape:connector-curvature="0"
       sodipodi:nodetypes="cccccc" />
    <path
       style="fill:none;stroke:#000000;stroke-width:0.799129px;stroke-linecap:butt;stroke-linejoin:miter;stroke-opacity:1"
       d="m 441.68392,81.145424 4.11533,-2.47043 m 13.56361,-8.139392 15.41359,-8.734853 m 13.93416,-8.963961 25.45731,-15.809163"
       id="path44992-9-5"
       inkscape:connector-curvature="0"
       sodipodi:nodetypes="cccccc" />
    <path
       style="fill:none;stroke:#000000;stroke-width:0.799129px;stroke-linecap:butt;stroke-linejoin:miter;stroke-opacity:1"
       d="m 458.32135,74.464267 17.26932,-10.446695 m 14.15696,-8.557048 10.37763,-6.667391 13.93463,-8.557045"
       id="path44992-9-10"
       inkscape:connector-curvature="0"
       sodipodi:nodetypes="ccccc" />
    <path
       style="fill:none;stroke:#000000;stroke-width:0.799129px;stroke-linecap:butt;stroke-linejoin:miter;stroke-opacity:1"
       d="m 457.89673,77.699625 18.84154,-11.300598 m 13.72836,-8.410539 9.28211,-5.853949 13.95067,-8.521694"
       id="path44992-9-4"
       inkscape:connector-curvature="0"
       sodipodi:nodetypes="ccccc" />
    <path
       style="fill:none;stroke:#000000;stroke-width:0.799129px;stroke-linecap:butt;stroke-linejoin:miter;stroke-opacity:1"
       d="m 458.19044,81.643298 20.26229,-12.610531 m 12.48136,-7.719667 8.70206,-5.496541 13.81523,-8.608912"
       id="path44992-9-64"
       inkscape:connector-curvature="0"
       sodipodi:nodetypes="ccccc" />
    <path
       style="fill:none;stroke:#000000;stroke-width:0.799129px;stroke-linecap:butt;stroke-linejoin:miter;stroke-opacity:1"
       d="m 460.52236,83.79175 19.59883,-12.244698 m 11.09007,-7.176024 9.51296,-5.938718 13.17271,-8.368816"
       id="path44992-9-65"
       inkscape:connector-curvature="0"
       sodipodi:nodetypes="ccccc" />
    <path
       style="fill:none;stroke:#000000;stroke-width:0.799129px;stroke-linecap:butt;stroke-linejoin:miter;stroke-opacity:1"
       d="m 461.88618,85.694917 18.58888,-11.113329 m 10.91912,-6.667091 6.25058,-3.443554 m 2.73622,-1.944095 3.8478,-2.166405"
       id="path44992-9-24"
       inkscape:connector-curvature="0"
       sodipodi:nodetypes="cccccc" />
    <path
       style="fill:none;stroke:#000000;stroke-width:0.799129px;stroke-linecap:butt;stroke-linejoin:miter;stroke-opacity:1"
       d="m 464.45142,87.801208 8.1168,-4.993346 8.22795,-5.326816 m 10.89569,-6.216063 5.22674,-3.43716"
       id="path44992-9-46"
       inkscape:connector-curvature="0"
       sodipodi:nodetypes="ccccc" />
    <path
       style="fill:none;stroke:#000000;stroke-width:0.799129px;stroke-linecap:butt;stroke-linejoin:miter;stroke-opacity:1"
       d="m 467.04476,90.159638 7.2915,-4.344907 5.17953,-3.233343 m 12.23809,-7.418769 4.45688,-2.382597"
       id="path44992-9-87"
       inkscape:connector-curvature="0"
       sodipodi:nodetypes="ccccc" />
    <path
       style="fill:none;stroke:#000000;stroke-width:0.799129px;stroke-linecap:butt;stroke-linejoin:miter;stroke-opacity:1"
       d="m 473.62104,90.343108 1.78301,-1.17858 m 16.12215,-10.182245 2.11647,-0.956278 2.22764,-1.289748"
       id="path44992-9-653"
       inkscape:connector-curvature="0"
       sodipodi:nodetypes="ccccc" />
  </g>
  <g
     inkscape:groupmode="layer"
     id="layer1"
     inkscape:label="Layer 1"
     transform="translate(0,64.320007)">
    <path
       style="fill:none;stroke:#000000;stroke-width:0.799129px;stroke-linecap:butt;stroke-linejoin:miter;stroke-opacity:1"
       d="m 261.95704,111.2394 c 0,0 -0.41886,2.72484 -0.6288,4.08717 -0.60161,3.90392 -1.34129,7.78894 -1.80779,11.71129 -0.5558,4.67326 -1.04672,9.36493 -1.17898,14.06926 -0.10754,3.82509 -0.0207,7.6636 0.3144,11.47549 0.37347,4.24838 1.30037,8.43017 1.88638,12.65448 0.93279,6.72422 1.72984,13.46659 2.59377,20.2 0.65549,5.10889 1.49299,10.19777 1.96498,15.32686 0.25729,2.79596 0.25664,5.61059 0.4716,8.41012 0.16526,2.15225 0.50498,4.29012 0.62879,6.44514 0.0857,1.49116 0.0785,4.48015 0.0785,4.48015 0,0 -0.13708,5.13585 -0.23579,7.70273 -0.10883,2.83053 -0.39938,5.65613 -0.39299,8.48873 0.006,2.5709 0.0928,5.1494 0.39299,7.70272 0.25205,2.1435 0.79469,4.24276 1.179,6.36654 1.09907,6.07388 2.05226,12.17445 3.22256,18.23502 0.8476,4.38933 1.73828,8.77187 2.75098,13.12607 0.52686,2.26528 1.48491,4.44666 1.72918,6.75954 -0.0391,1.98363 0.57344,3.95479 0.0785,6.05214 -0.0332,0.14057 -0.0727,0.27765 -0.10874,0.41657 -0.17448,0.67304 -0.43217,1.32776 -0.52005,2.02001 -0.0858,0.67576 -0.10378,1.37033 0,2.04358 0.0795,0.51593 0.39207,0.97745 0.47158,1.49338 0.22751,1.47596 0.09,2.98949 0,4.48016 -0.0525,0.86933 -0.13852,1.7408 -0.31439,2.59377 -0.28125,1.36409 -0.64694,2.14323 -0.94319,3.22258 -0.27918,1.01722 -0.54979,2.0373 -0.786,3.06536 -0.3532,1.53738 -0.60729,3.0961 -0.94319,4.63736 -0.24629,1.13013 -0.54835,2.24779 -0.78598,3.37976 -0.17526,0.83482 -0.37803,1.66733 -0.4716,2.51519 -0.0835,0.75566 -0.10916,1.51974 -0.0786,2.27937 0.0276,0.68516 -0.0419,1.41658 0.23579,2.04358 0.22552,0.50933 0.58233,1.05296 1.10039,1.25758 0.24489,0.0967 0.786,-0.0785 0.786,-0.0785 0,0 0.0475,0.59299 0.1572,0.86459 0.24176,0.36777 0.43771,0.89203 0.86459,1.02179 0.36499,0.11095 1.10039,-0.3144 1.10039,-0.3144 0,0 0.0708,0.80685 0.31439,1.10039 0.29932,0.36065 0.78932,0.6093 1.2576,0.6288 0.28193,0.0117 0.78598,-0.3144 0.78598,-0.3144 0,0 0.46572,0.89899 0.8646,1.179 0.37999,0.26674 0.89039,0.52261 1.33619,0.39299 0.53486,-0.15552 1.10038,-1.25759 1.10038,-1.25759 0,0 0.25752,0.56799 0.4716,0.78599 0.34636,0.35271 0.77735,0.66879 1.25759,0.78599 0.63834,0.1558 1.35583,0.0892 1.96498,-0.15719 0.53489,-0.21636 0.9329,-0.68774 1.33618,-1.10039 0.65208,-0.66722 1.45829,-1.30802 1.72918,-2.20078 0.19839,-0.65377 -0.24067,-1.3655 -0.15719,-2.04358 0.0607,-0.49338 0.35176,-0.93234 0.47159,-1.41479 0.2305,-0.928 0.50979,-1.87414 0.4716,-2.82958 -0.0345,-0.8635 -0.5232,-1.65744 -0.62879,-2.51517 -0.13444,-1.09215 0.0275,-2.20112 0,-3.30116 -0.0524,-2.09795 -0.40739,-4.1914 -0.3144,-6.28794 0.0562,-1.26644 0.14945,-2.55592 0.52543,-3.76655 0.0983,-0.31649 0.33179,-0.57764 0.44462,-0.88925 0.44057,-1.21688 0.88086,-2.48517 0.88925,-3.77931 0.009,-1.29032 -0.74642,-2.4922 -0.83762,-3.77931 -0.0525,-0.74136 0.20041,-1.48048 0.17069,-2.22312 -0.0569,-1.42428 -0.43862,-2.81691 -0.66694,-4.22393 -0.21662,-1.33482 -0.52738,-2.65658 -0.66694,-4.00162 -0.18371,-1.77054 -0.26243,-3.55591 -0.22231,-5.3355 0.0771,-3.42078 0.46929,-6.83057 0.88925,-10.22636 0.51586,-4.1713 1.46301,-8.28095 2.0008,-12.44948 0.39059,-3.02761 0.80185,-6.06337 0.88926,-9.1148 0.10614,-3.70666 -0.14939,-7.41922 -0.44463,-11.11561 -0.29713,-3.71994 -1.01582,-7.39741 -1.33387,-11.11562 -0.24665,-2.88333 -0.88786,-5.81046 -0.44462,-8.67017 0.19395,-1.25135 1.33386,-3.557 1.33386,-3.557 l 1.11157,-5.78011 v -6.22474 l -0.22231,-7.55862 -0.22232,-8.22556 c 0,0 -0.27314,-5.63141 -0.22231,-8.44787 0.043,-2.37557 0.1962,-4.75106 0.44463,-7.11399 0.42296,-4.02312 1.2057,-8.00032 1.7785,-12.00486 0.61433,-4.29502 1.08742,-8.61077 1.77849,-12.89411 0.14834,-0.91945 0.50806,-2.74743 0.50806,-2.74743 v 0 l 1.95086,0.0932 2.25737,0.0179 v 2e-5 c 0,0 -0.31572,0.0257 -0.27004,2.63626 0.0457,2.61065 1.16415,8.59909 1.77849,12.89411 0.57279,4.00454 1.35553,7.98174 1.7785,12.00486 0.24842,2.36293 0.40172,4.73843 0.44462,7.11399 0.0508,2.81647 -0.22231,8.44787 -0.22231,8.44787 l -0.22231,8.22555 -0.22231,7.55862 v 6.22474 l 1.11156,5.78011 c 0,0 1.13992,2.30565 1.33387,3.557 0.44323,2.85971 -0.19798,5.78685 -0.44462,8.67017 -0.31807,3.71822 -1.03676,7.39568 -1.33388,11.11562 -0.29525,3.6964 -0.55081,7.40897 -0.44462,11.11561 0.0874,3.05145 0.49866,6.0872 0.88925,9.1148 0.53779,4.16853 1.48494,8.27819 2.00081,12.44949 0.41995,3.39578 0.81209,6.80558 0.88925,10.22636 0.0401,1.77959 -0.0386,3.56495 -0.22231,5.33549 -0.13958,1.34505 -0.45034,2.66681 -0.66694,4.00162 -0.22833,1.40703 -0.60996,2.79966 -0.66694,4.22393 -0.0298,0.74264 0.22322,1.48178 0.17069,2.22314 -0.0912,1.2871 -0.846,2.48899 -0.83763,3.77931 0.009,1.29414 0.44869,2.56242 0.88926,3.77929 0.11281,0.31161 0.34632,0.57277 0.44462,0.88925 0.37598,1.21064 0.46925,2.50013 0.52543,3.76655 0.0929,2.09655 -0.262,4.18999 -0.31441,6.28794 -0.0275,1.10005 0.13445,2.20903 0,3.30118 -0.10561,0.85771 -0.59431,1.65166 -0.62878,2.51516 -0.0383,0.95544 0.2411,1.90158 0.47158,2.82958 0.11983,0.48245 0.41087,0.9214 0.47161,1.41478 0.0835,0.6781 -0.35558,1.38981 -0.15721,2.04359 0.27089,0.89276 1.07711,1.53356 1.72919,2.20078 0.40328,0.41265 0.8013,0.88403 1.33618,1.1004 0.60914,0.24638 1.32664,0.31298 1.96498,0.15718 0.48023,-0.11721 0.91123,-0.43328 1.25759,-0.78599 0.21408,-0.218 0.4716,-0.78599 0.4716,-0.78599 0,0 0.56552,1.10207 1.10039,1.25759 0.44579,0.12962 0.9562,-0.12626 1.33618,-0.393 0.39888,-0.28 0.86459,-1.17898 0.86459,-1.17898 0,0 0.50406,0.32612 0.786,0.31439 0.46827,-0.0194 0.95827,-0.26815 1.25759,-0.62879 0.24363,-0.29355 0.31439,-1.10039 0.31439,-1.10039 0,0 0.73541,0.42534 1.1004,0.31439 0.42687,-0.12977 0.62283,-0.65403 0.86458,-1.02178 0.10972,-0.2716 0.15721,-0.86459 0.15721,-0.86459 0,0 0.54109,0.17527 0.78598,0.0785 0.51806,-0.20463 0.87487,-0.74827 1.10039,-1.25758 0.27764,-0.627 0.20825,-1.35843 0.2358,-2.04359 0.0305,-0.75963 0.004,-1.52372 -0.0786,-2.27937 -0.0936,-0.84786 -0.29634,-1.68038 -0.47158,-2.51519 -0.23763,-1.13197 -0.5397,-2.24963 -0.786,-3.37976 -0.33589,-1.54126 -0.58997,-3.09998 -0.94318,-4.63736 -0.2362,-1.02805 -0.50681,-2.04813 -0.78601,-3.06537 -0.29623,-1.07933 -0.66193,-1.85847 -0.94318,-3.22256 -0.17588,-0.85298 -0.2619,-1.72445 -0.3144,-2.59379 -0.09,-1.49066 -0.2275,-3.00419 0,-4.48014 0.0795,-0.51593 0.39206,-0.97746 0.4716,-1.4934 0.10378,-0.67323 0.0858,-1.3678 0,-2.04358 -0.0879,-0.69225 -0.34557,-1.34696 -0.52005,-2.02 -0.036,-0.13891 -0.0756,-0.276 -0.10875,-0.41657 -0.49488,-2.09735 0.11759,-4.0685 0.0785,-6.05214 0.24428,-2.31287 1.20233,-4.49426 1.72919,-6.75954 1.01269,-4.3542 1.90338,-8.73674 2.75096,-13.12607 1.17032,-6.06057 2.12349,-12.16113 3.22258,-18.23502 0.38429,-2.12378 0.92695,-4.22304 1.17898,-6.36654 0.30023,-2.55333 0.38694,-5.13182 0.393,-7.70272 0.006,-2.8326 -0.28416,-5.65821 -0.393,-8.48873 -0.0987,-2.56687 -0.23579,-7.70272 -0.23579,-7.70272 0,0 -0.008,-2.989 0.0785,-4.48017 0.12382,-2.15502 0.46354,-4.29289 0.62881,-6.44512 0.21496,-2.79954 0.2143,-5.61416 0.47159,-8.41013 0.47199,-5.12909 1.30948,-10.21796 1.96498,-15.32686 0.86393,-6.73341 1.66097,-13.47578 2.59377,-20.19999 0.58601,-4.22432 1.51291,-8.4061 1.88639,-12.65448 0.3351,-3.8119 0.42193,-7.65041 0.3144,-11.47549 -0.13226,-4.70434 -0.62318,-9.39602 -1.179,-14.06927 -0.46649,-3.92235 -1.20617,-7.80737 -1.80777,-11.71128 -0.20995,-1.36234 -0.6288,-4.08717 -0.6288,-4.08717 m 0,-3e-5 c 0,0 -0.62299,-3.53751 -1.10027,-5.2661 -0.59762,-2.16442 -1.28908,-4.31457 -2.20079,-6.366542 -0.83797,-1.88603 -2.05359,-3.58257 -2.98677,-5.42335 -0.39,-0.76931 -0.67402,-1.28388 -1.09037,-2.34661 -0.10195,-0.26022 -0.18844,-0.50716 -0.24581,-0.71876 -0.29,-1.06954 -0.32738,-2.19496 -0.393,-3.30117 -0.0791,-1.33384 -0.0771,-2.674606 0,-4.008562 0.17059,-2.949141 0.61659,-5.876969 1.02179,-8.803117 0.42953,-3.10179 0.94932,-6.190946 1.49339,-9.274708 0.45888,-2.600944 1.08048,-5.172687 1.49339,-7.781324 l 0.0786,0.628825 c 0,0 2.08365,5.716103 3.14397,8.567318 0.67337,1.810708 1.37807,3.609733 2.04357,5.42335 0.5367,1.462591 1.0206,2.94445 1.57199,4.401559 0.34956,0.923705 0.81249,1.806232 1.10039,2.750971 0.2187,0.717667 0.36932,1.457542 0.4716,2.20078 0.17178,1.24828 -0.0108,2.537093 0.23579,3.772764 0.33081,1.657554 1.09154,3.394514 1.65059,4.794554 0.55905,1.40004 1.08908,2.4156 1.65058,3.61556 0.89897,1.92112 1.92275,3.78509 2.75098,5.73774 0.67652,1.595012 1.18692,3.255672 1.80777,4.873162 0.63636,1.65785 1.31568,3.29893 1.96499,4.95175 0.74008,1.88385 1.50281,3.75929 2.20078,5.65914 0.74573,2.0299 1.32862,4.11906 2.12218,6.13075 0.7575,1.92029 1.72825,3.75071 2.51517,5.65914 0.22445,0.54431 0.6288,1.65058 0.6288,1.65058 0,0 -0.0999,2.67258 -0.1572,4.00857 -0.0482,1.12677 -0.1556,2.25196 -0.1572,3.37976 -10e-4,1.20633 8e-4,2.41942 0.1572,3.61557 0.17388,1.33 0.47405,2.64676 0.86459,3.92996 0.22949,0.75403 0.8646,2.20078 0.8646,2.20078 v 3.53696 c 0,0 0.0181,2.46291 0,3.69417 -0.18296,1.54981 -0.071,3.21064 1.10035,3.85137 0.47996,0.26252 1.21879,-0.0538 1.57198,-0.4716 0.5455,-0.64523 0.31441,-2.51518 0.31441,-2.51518 l 0.23579,-3.69416 0.23579,-3.06537 0.393,-0.4716 h 0.47159 l 0.15721,2.35798 0.8646,4.08716 0.62879,2.90817 c 0,0 0.38652,1.98688 0.78599,2.90818 0.25742,0.59368 0.47288,1.30791 1.02178,1.65058 0.44672,0.27887 1.07603,0.33424 1.572,0.1572 0.34895,-0.12456 0.63524,-0.44752 0.78598,-0.78599 0.2028,-0.45537 0.0785,-1.49339 0.0785,-1.49339 0,0 -0.22975,-1.21311 -0.39298,-1.80779 -0.1316,-0.47936 -0.34401,-0.93432 -0.4716,-1.41477 -0.17144,-0.6456 -0.30353,-1.30304 -0.393,-1.96499 -0.0985,-0.72884 -0.0918,-1.46823 -0.1572,-2.20078 -0.0656,-0.73487 -0.23579,-2.20077 -0.23579,-2.20077 l -0.0786,-1.4934 0.31441,-0.55019 0.55019,0.2358 0.47159,2.20079 0.8646,2.35796 c 0,0 0.6943,1.67158 1.02179,2.51518 0.27298,0.70323 0.5246,1.41456 0.78598,2.12218 0.18383,0.49764 0.33956,1.0065 0.5502,1.49338 0.18609,0.43015 0.6288,1.25759 0.6288,1.25759 0,0 0.41031,0.59631 0.70739,0.786 0.30035,0.19178 0.66589,0.29642 1.02179,0.31439 0.40027,0.0202 0.87853,0.0294 1.17898,-0.23579 0.24845,-0.21932 0.47925,-0.58621 0.55021,-0.94319 0.11344,-0.57056 -0.10831,-1.16707 -0.23581,-1.72918 -0.14775,-0.65143 -0.39348,-1.47503 -0.62879,-2.20079 -0.56749,-1.75025 -1.35529,-3.4259 -1.88638,-5.18754 -0.22561,-0.74835 -0.5502,-2.27939 -0.5502,-2.27939 l -0.55019,-1.80778 0.31439,-0.3144 c 0,0 1.0214,1.60912 1.4934,2.43658 0.4994,0.87552 0.92706,1.79032 1.41479,2.67238 0.38054,0.68822 0.73843,1.39213 1.17898,2.04358 0.52263,0.77281 1.0246,1.58924 1.72918,2.20077 0.4344,0.37703 0.91845,0.84702 1.49338,0.8646 0.35135,0.0107 0.71872,-0.20111 0.9432,-0.4716 0.24359,-0.29354 0.31839,-0.71894 0.3144,-1.10039 -0.009,-0.79549 -0.40643,-1.54296 -0.70739,-2.27938 -0.39009,-0.95452 -0.97411,-1.81872 -1.41479,-2.75097 -0.45137,-0.95483 -0.81882,-1.94749 -1.25759,-2.90818 -0.32618,-0.71416 -0.64914,-1.43113 -1.02179,-2.12218 -0.21754,-0.40338 -0.54656,-0.74982 -0.70739,-1.17898 -0.26152,-0.69781 -0.2642,-1.4668 -0.393,-2.20078 -0.13327,-0.75939 -0.3592,-1.50911 -0.393,-2.27938 -0.0139,-0.31518 0.0785,-0.94319 0.0785,-0.94319 0,0 0.60264,0.60662 0.86459,0.94319 0.61591,0.79138 0.95798,1.78998 1.65059,2.51518 0.64789,0.6784 1.41981,1.27488 2.27937,1.65059 0.61206,0.26751 1.29953,0.45085 1.96498,0.393 0.5041,-0.0438 1.07393,-0.17624 1.41479,-0.55021 0.25694,-0.28193 0.40534,-0.7299 0.3144,-1.10039 -0.17232,-0.70192 -0.99761,-1.04608 -1.49339,-1.57198 -0.7629,-0.80926 -1.60544,-1.55184 -2.27938,-2.43658 -0.57723,-0.7578 -0.94587,-1.65703 -1.49338,-2.43657 -0.57852,-0.8237 -1.15985,-1.66134 -1.88638,-2.35798 -1.05529,-1.01189 -2.26429,-1.87419 -3.53697,-2.59377 -1.06315,-0.60111 -2.40798,-0.67506 -3.37977,-1.41479 -0.37118,-0.28255 -0.6181,-0.70436 -0.86459,-1.10039 -0.38391,-0.61682 -0.65091,-1.29982 -0.94318,-1.96498 -0.79463,-1.80839 -1.5838,-3.62552 -2.20079,-5.50196 -1.00636,-3.06062 -2.43658,-9.35331 -2.43658,-9.35331 0,0 -0.69744,-3.60495 -0.94319,-5.42334 -0.43713,-3.23454 -0.43844,-6.521622 -0.94319,-9.746302 -0.28609,-1.82775 -0.72814,-3.62912 -1.17898,-5.42335 -0.51132,-2.03485 -1.02279,-4.07653 -1.72919,-6.052144 -0.644,-1.801086 -1.42115,-3.556726 -2.27938,-5.266144 -0.99004,-1.971965 -2.38091,-3.732264 -3.30117,-5.737744 -0.62551,-1.363148 -1.04068,-2.814503 -1.49338,-4.244362 -0.64089,-2.024283 -1.19048,-4.076904 -1.72919,-6.130739 -0.70453,-2.686068 -1.36793,-5.383738 -1.96498,-8.09572 -0.52254,-2.373535 -1.19738,-4.731903 -1.41479,-7.15253 -0.29066,-3.236164 0.26067,-6.498763 0.15721,-9.746306 -0.0837,-2.627011 0.0394,-5.317929 -0.62879,-7.859929 -0.50659,-1.927262 -1.48029,-3.720405 -2.51519,-5.423343 -0.75659,-1.244996 -1.62209,-2.44874 -2.67237,-3.45837 -1.20542,-1.158777 -2.49182,-2.374519 -3.92996,-3.301164 -1.123,-0.723588 -2.4002,-1.174562 -3.61556,-1.729183 -1.19558,-0.54559 -2.41583,-1.035645 -3.61558,-1.571985 -1.60254,-0.716407 -3.28983,-1.623608 -4.78529,-2.198466 -3.23135,-1.242133 -6.006,-1.260909 -8.5958,-2.7524097 -1.32003,-0.760225 -4.94247,-1.702546 -6.49172,-2.935301 -1.54925,-1.232754 -1.96851,-3.070337 -1.91255,-6.24987698 0.0143,-0.811578 1.58925,-1.47837402 2.16445,-2.38478902 1.2484,-1.9672221 2.01185,-4.2231357 2.68284,-6.4543248 0.33481,-1.1132434 0.65976,-3.4245135 0.65976,-3.4245135 0,0 1.71195,-0.711257 2.17292,-1.449997 0.42638,-0.683306 0.11603,-1.616003 0.32139,-2.394808 0.20822,-0.789648 0.6605,-1.496752 0.9138,-2.273116 0.3656,-1.120613 0.83284,-2.249444 0.86973,-3.427613 0.032,-1.022773 -5.8e-4,-1.945588 -0.5674,-3.01693 -0.71097,-1.343843 -1.13073,-0.846378 -1.95777,-1.312566 0.47206,-1.737555 0.40419,-1.343983 0.55584,-2.572893 0.15163,-1.228909 0.23324,-3.197319 0.1572,-4.794554 -0.0414,-0.869736 -0.1226,-1.745963 -0.33324,-2.590822 -0.21246,-0.852182 -0.5231,-1.6869 -0.93005,-2.465202 -1.04875,-2.00583 -2.3128,-3.931972 -3.84966,-5.593689 -1.43363,-1.550086 -3.04504,-3.020119 -4.92213,-3.986858 -1.96029,-1.009599 -4.0984,-1.480233 -6.37469,-1.766884 -2.2763,-0.28665 -4.78299,-0.144982 -7.1492,0.141894 -1.14916,0.139322 -3.38792,0.762784 -3.38792,0.762784 0,0 -2.31418,1.219909 -3.14174,1.815616 -1.82002,1.31012 -5.06361,4.141704 -6.66664,6.912596 -1.31914,2.280164 -1.76087,5.642666 -2.19668,7.591312 -0.28256,1.26294 0.39598,5.859256 1.01295,7.655502 -1.36779,1.073336 -1.06234,0.580808 -1.36779,1.073336 -0.44868,0.723481 -0.53251,1.649367 -0.51935,2.500578 0.0188,1.220151 0.78626,3.072269 0.8549,3.559667 0.0687,0.487399 0.73134,1.402801 1.05471,1.839135 0.32338,0.436336 0.5271,0.830097 0.74467,1.26996 0.2761,0.558214 0.40676,1.183792 0.7074,1.729185 0.23413,0.424781 0.41752,0.954926 0.84455,1.184939 0.58293,0.313986 1.98501,0.07265 1.98501,0.07265 0,0 0.39072,2.9066846 0.80516,4.3072838 0.50312,1.7002551 1.06851,3.4259185 2.0253,4.9187505 0.62638,0.977325 1.69736,1.005564 2.37211,2.54966702 0.37318,1.86956098 0.81014,3.17551298 0.1572,4.87315498 0,0 -0.64763,1.687005 -1.28074,2.290723 -1.74464,1.663637 -4.3014,2.17868 -6.47296,3.2254807 -1.30987,0.631426 -2.59789,1.318044 -3.95409,1.842635 -1.26943,0.491029 -2.63279,0.713952 -3.89835,1.214818 -1.5789,0.624858 -3.12983,1.460274 -4.58342,2.223122 -1.45361,0.76285 -2.98622,1.835698 -4.13879,2.342178 -1.5308,0.672684 -2.88174,1.749399 -4.08717,2.908169 -1.05027,1.009629 -1.91578,2.213382 -2.67237,3.45837 -1.03489,1.702937 -2.00859,3.496081 -2.51518,5.42335 -0.66818,2.542 -0.54509,5.232909 -0.62879,7.859921 -0.10346,3.247544 0.44787,6.510142 0.1572,9.746306 -0.21741,2.420628 -0.89224,4.779003 -1.41479,7.15253 -0.59706,2.711983 -1.26045,5.409662 -1.96498,8.095728 -0.5387,2.053835 -1.0883,4.106456 -1.72919,6.13074 -0.45269,1.429858 -0.86787,2.881214 -1.49338,4.244361 -0.92025,2.00548 -2.31112,3.765779 -3.30117,5.737744 -0.85822,1.709419 -1.63538,3.465058 -2.27938,5.266145 -0.70639,1.975619 -1.21786,4.017299 -1.72918,6.052149 -0.45084,1.79423 -0.89289,3.59559 -1.17898,5.42335 -0.50476,3.22467 -0.50606,6.511762 -0.94321,9.746302 -0.24574,1.81839 -0.94318,5.42334 -0.94318,5.42334 0,0 -1.43022,6.29269 -2.43657,9.35331 -0.61699,1.87643 -1.40616,3.69357 -2.20079,5.50195 -0.29227,0.66516 -0.55927,1.34816 -0.94319,1.96499 -0.24649,0.39601 -0.49342,0.81784 -0.86458,1.10038 -0.9718,0.73974 -2.31662,0.81368 -3.37977,1.41479 -1.27269,0.71958 -2.48168,1.58189 -3.53698,2.59377 -0.72652,0.69665 -1.30785,1.53429 -1.88637,2.35798 -0.54751,0.77954 -0.91615,1.67877 -1.49339,2.43658 -0.67393,0.88474 -1.51647,1.62731 -2.27938,2.43658 -0.49578,0.5259 -1.32106,0.87006 -1.49338,1.57198 -0.091,0.37048 0.0575,0.81845 0.3144,1.10039 0.34085,0.37396 0.91069,0.50633 1.41478,0.55019 0.66545,0.0579 1.35293,-0.12547 1.96499,-0.39299 0.85955,-0.37571 1.63148,-0.97219 2.27937,-1.65059 0.69259,-0.7252 1.03468,-1.72379 1.65059,-2.51517 0.26195,-0.33658 0.86459,-0.9432 0.86459,-0.9432 0,0 0.0924,0.62801 0.0785,0.9432 -0.0339,0.77027 -0.25973,1.51997 -0.393,2.27938 -0.1288,0.73398 -0.13149,1.50297 -0.393,2.20077 -0.16083,0.42916 -0.48985,0.7756 -0.70739,1.17899 -0.37266,0.69105 -0.69561,1.40802 -1.02179,2.12217 -0.43877,0.9607 -0.80623,1.95334 -1.25759,2.90818 -0.44068,0.93224 -1.0247,1.79645 -1.41479,2.75098 -0.30096,0.7364 -0.69835,1.48388 -0.70739,2.27938 -0.004,0.38144 0.0708,0.80684 0.31439,1.10037 0.22449,0.2705 0.59186,0.48231 0.9432,0.47161 0.57494,-0.0176 1.05899,-0.48757 1.49338,-0.86459 0.70458,-0.61153 1.20655,-1.42797 1.72919,-2.20079 0.44055,-0.65144 0.79844,-1.35536 1.17898,-2.04358 0.48772,-0.88206 0.91539,-1.79686 1.41479,-2.67237 0.47199,-0.82745 1.49339,-2.43657 1.49339,-2.43657 l 0.3144,0.3144 -0.5502,1.80777 c 0,0 -0.32458,1.53103 -0.55019,2.27938 -0.53109,1.76165 -1.31889,3.43729 -1.88638,5.18755 -0.23532,0.72576 -0.48104,1.54937 -0.62881,2.20078 -0.1275,0.56212 -0.34924,1.15863 -0.23579,1.72918 0.0709,0.35699 0.30175,0.72387 0.5502,0.94319 0.30045,0.26521 0.77872,0.25601 1.17899,0.2358 0.3559,-0.0179 0.72143,-0.12262 1.02179,-0.31439 0.29708,-0.1897 0.70739,-0.78599 0.70739,-0.78599 0,0 0.4427,-0.82744 0.62879,-1.25759 0.21064,-0.4869 0.36638,-0.99575 0.55019,-1.4934 0.2614,-0.70761 0.513,-1.41894 0.786,-2.12218 0.32749,-0.8436 1.02179,-2.51517 1.02179,-2.51517 l 0.86459,-2.35797 0.4716,-2.20077 0.55019,-0.23581 0.3144,0.5502 -0.0786,1.49338 c 0,0 -0.17018,1.46591 -0.23579,2.20079 -0.0653,0.73254 -0.0587,1.47193 -0.1572,2.20076 -0.0895,0.66196 -0.22155,1.3194 -0.39299,1.96499 -0.1276,0.48045 -0.34,0.93542 -0.4716,1.41478 -0.16323,0.59467 -0.393,1.80779 -0.393,1.80779 0,0 -0.12423,1.03802 0.0785,1.49338 0.15073,0.33848 0.43703,0.66143 0.78599,0.786 0.49595,0.17704 1.12528,0.12168 1.572,-0.1572 0.5489,-0.34266 0.76436,-1.05691 1.02178,-1.65059 0.39947,-0.9213 0.78599,-2.90817 0.78599,-2.90817 l 0.62879,-2.90818 0.8646,-4.08715 0.15719,-2.35797 h 0.4716 l 0.393,0.47159 0.2358,3.06537 0.23579,3.69416 c 0,0 -0.23918,1.87688 0.3144,2.51518 0.39144,0.4513 1.10525,1.01146 1.72918,0.47159 1.0408,-0.90057 1.12612,-2.30155 0.94316,-3.85136 -0.0181,-1.23125 0,-3.69416 0,-3.69416 v -3.53697 c 0,0 0.63511,-1.44675 0.8646,-2.20077 0.39053,-1.28321 0.69071,-2.59996 0.86459,-3.92996 0.1564,-1.19616 0.1588,-2.40925 0.1572,-3.61558 -0.001,-1.1278 -0.10893,-2.25298 -0.1572,-3.37975 -0.0573,-1.33599 -0.15721,-4.00857 -0.15721,-4.00857 0,0 0.40436,-1.10628 0.6288,-1.65059 0.78693,-1.90842 1.75766,-3.73885 2.51518,-5.65914 0.79356,-2.01169 1.37645,-4.10084 2.12218,-6.13074 0.69795,-1.89986 1.4607,-3.7753 2.20077,-5.65914 0.64932,-1.65283 1.32863,-3.2939 1.96498,-4.95176 0.62087,-1.61749 1.13127,-3.27815 1.80779,-4.873152 0.82823,-1.95266 1.852,-3.81662 2.75097,-5.73775 0.56151,-1.19995 1.09154,-2.21551 1.65059,-3.61556 0.55904,-1.40004 1.31977,-3.137 1.65059,-4.79455 0.24658,-1.23567 0.064,-2.524483 0.23578,-3.772763 0.10228,-0.743239 0.25291,-1.483113 0.47161,-2.20078 0.28789,-0.944739 0.75083,-1.827266 1.10038,-2.750972 0.5514,-1.457109 1.0353,-2.938967 1.57199,-4.401559 0.6655,-1.813617 1.3702,-3.612642 2.04358,-5.423349 1.06031,-2.851216 3.14396,-8.567318 3.14396,-8.567318 l 0.0656,-1.441221 c -0.0282,1.653797 1.06091,3.58984 1.52215,5.403306 0.53854,2.117342 1.03434,4.328086 1.45292,6.391191 0.4186,2.063106 0.8619,3.515068 1.25201,5.281952 0.27972,1.266908 0.48694,2.549424 0.7804,3.813216 0.37834,1.629313 0.96263,3.010025 1.26318,4.856399 0.30053,1.846382 0.73796,4.147018 0.42323,6.191628 -0.21837,1.41855 -0.96323,2.7088 -1.57198,4.00856 -0.90018,1.92198 -2.15639,3.66271 -3.06537,5.58054 -0.64781,1.366822 -1.29678,2.745722 -1.80706,4.169842 -0.1758,0.49061 -0.33515,0.98659 -0.47232,1.4893 -0.59985,2.19835 -1.02064,6.75952 -1.02064,6.75952 l 2e-5,2e-5 v 0"
       id="8.1."
       inkscape:connector-curvature="0"
       sodipodi:nodetypes="cassssassscsssaaacsasaassaaaaaaasccacaacaacaaaassasssssaaaaaaaaaaaaacccccaaaaccccczaaacccccaaaaaaaaaaaaasssssassaaaacaacaacaccsaaaaaaassaasascaaassscsssassssaccsssssssssccscccscsccscscsccccccccccccccccccsccccccccccccccscccccccccccccsccsccccccccccccccccccscccccccccsssccssscscccaaassssaacasaasczaaasasaccaccaaczaaacaaccaaaazsssssssassssssscsaasssssasssssscsssssssssssssscccaassssacsssccccccsssscssssccccccccascccsssscasssssszassssaccazaazassssccc"
       inkscape:label="#path5875" />
  </g>
</svg>
