<svg xmlns="http://www.w3.org/2000/svg" id="a" data-name="Ebene 1" viewBox="0 0 490 490"><path d="M52.5,105C23.55099,105,0,81.449,0,52.5S23.55099,0,52.5,0s52.5,23.551,52.5,52.5-23.55099,52.5-52.5,52.5Zm0-70c-9.6562,0-17.5,7.8438-17.5,17.5s7.8438,17.5,17.5,17.5,17.5-7.8438,17.5-17.5-7.8438-17.5-17.5-17.5Z"></path><path d="M245,297.5c-28.94901,0-52.5-23.55099-52.5-52.5s23.55099-52.5,52.5-52.5,52.5,23.55099,52.5,52.5-23.55099,52.5-52.5,52.5Zm0-70c-9.65619,0-17.5,7.84381-17.5,17.5s7.84381,17.5,17.5,17.5,17.5-7.84381,17.5-17.5-7.84381-17.5-17.5-17.5Z"></path><path d="M437.5,490c-28.94897,0-52.5-23.55099-52.5-52.5s23.55103-52.5,52.5-52.5,52.5,23.55099,52.5,52.5-23.55103,52.5-52.5,52.5Zm0-70c-9.65619,0-17.5,7.84381-17.5,17.5s7.84381,17.5,17.5,17.5,17.5-7.84381,17.5-17.5-7.84381-17.5-17.5-17.5Z"></path><path d="M376.25,262.5h-96.25c-9.67191,0-17.5-7.82809-17.5-17.5s7.82809-17.5,17.5-17.5h96.25c43.42603,0,78.75-35.32401,78.75-78.75s-35.32397-78.75-78.75-78.75H87.5c-9.67191,0-17.5-7.8281-17.5-17.5s7.82809-17.5,17.5-17.5H376.25c62.71899,0,113.75,51.031,113.75,113.75s-51.03101,113.75-113.75,113.75Z"></path><path d="M402.5,455H113.75C51.03101,455,0,403.96899,0,341.25s51.03101-113.75,113.75-113.75h96.25c9.67191,0,17.5,7.82809,17.5,17.5s-7.82809,17.5-17.5,17.5H113.75c-43.42599,0-78.75,35.32401-78.75,78.75s35.32401,78.75,78.75,78.75H402.5c9.67188,0,17.5,7.82809,17.5,17.5s-7.82812,17.5-17.5,17.5Z"></path></svg>