<?xml version="1.0" encoding="UTF-8" standalone="no"?>
<svg
   width="1em"
   height="1em"
   viewBox="0 0 24 24"
   version="1.1"
   id="svg23"
   sodipodi:docname="linear.svg"
   inkscape:version="1.2.2 (732a01da63, 2022-12-09)"
   xmlns:inkscape="http://www.inkscape.org/namespaces/inkscape"
   xmlns:sodipodi="http://sodipodi.sourceforge.net/DTD/sodipodi-0.dtd"
   xmlns="http://www.w3.org/2000/svg"
   xmlns:svg="http://www.w3.org/2000/svg">
  <defs
     id="defs27" />
  <sodipodi:namedview
     id="namedview25"
     pagecolor="#ffffff"
     bordercolor="#000000"
     borderopacity="0.25"
     inkscape:showpageshadow="2"
     inkscape:pageopacity="0.0"
     inkscape:pagecheckerboard="0"
     inkscape:deskcolor="#d1d1d1"
     showgrid="false"
     inkscape:zoom="33.583333"
     inkscape:cx="5.8957816"
     inkscape:cy="12"
     inkscape:window-width="1920"
     inkscape:window-height="1009"
     inkscape:window-x="-8"
     inkscape:window-y="-8"
     inkscape:window-maximized="1"
     inkscape:current-layer="svg23" />
  <path
     fill="currentColor"
     d="M4.5 20.25a.76.76 0 0 1-.75-.75v-15a.75.75 0 0 1 1.5 0v15a.76.76 0 0 1-.75.75Z"
     id="path19" />
  <path
     fill="currentColor"
     d="m 3.8393304,19.622828 a 0.76,0.76 0 0 1 0.75,-0.749999 H 19.58933 a 0.7500001,0.7500001 0 0 1 0,1.499999 H 4.5893304 a 0.76,0.76 0 0 1 -0.75,-0.75 z"
     id="path19-4" />
  <path
     fill="currentColor"
     d="M 8.4749689,16.102422 A 0.67312874,0.59358411 48.584142 0 1 8.4203234,15.211608 L 16.644023,6.8585153 a 0.66427187,0.58577386 48.584142 0 1 0.931661,0.9463203 L 9.3519849,16.157928 a 0.67312874,0.59358411 48.584142 0 1 -0.877016,-0.0555 z"
     id="path19-4-6"
     style="stroke-width:0.831719" />
</svg>
