<?xml version="1.0" encoding="UTF-8" standalone="no"?>
<!-- Generator: Adobe Illustrator 26.0.2, SVG Export Plug-In . SVG Version: 6.00 Build 0)  -->

<svg
   version="1.1"
   id="Layer_1"
   x="0px"
   y="0px"
   viewBox="0 0 1632.41 557.67999"
   xml:space="preserve"
   sodipodi:docname="Ovis_logo.svg"
   width="1632.41"
   height="557.67999"
   inkscape:version="1.2.2 (732a01da63, 2022-12-09)"
   xmlns:inkscape="http://www.inkscape.org/namespaces/inkscape"
   xmlns:sodipodi="http://sodipodi.sourceforge.net/DTD/sodipodi-0.dtd"
   xmlns="http://www.w3.org/2000/svg"
   xmlns:svg="http://www.w3.org/2000/svg"><defs
   id="defs153">
	
	

	

	

	
	

	

	

	

	
	
	

	

	

		
	
		
	
		
	
		
	
		
	
		
	
		
	
		
	
		
	</defs><sodipodi:namedview
   id="namedview151"
   pagecolor="#ffffff"
   bordercolor="#000000"
   borderopacity="0.25"
   inkscape:showpageshadow="2"
   inkscape:pageopacity="0.0"
   inkscape:pagecheckerboard="0"
   inkscape:deskcolor="#d1d1d1"
   showgrid="false"
   inkscape:zoom="0.4145"
   inkscape:cx="392.0386"
   inkscape:cy="200.24125"
   inkscape:window-width="1920"
   inkscape:window-height="1009"
   inkscape:window-x="1912"
   inkscape:window-y="-8"
   inkscape:window-maximized="1"
   inkscape:current-layer="Layer_1" />
<style
   type="text/css"
   id="style82">
	.st0{fill:{col[0]}}
	.st1{fill:{col[1]}}
</style>









<path
   class="st0"
   d="M 496.82,82.25 C 474,55.78 447.25,34.9 417.3,20.21 397.3,10.4 376.49,3.65 355.1,0 v 107.63 c 61.95,20.37 107.68,89.4 107.68,171.21 0,81.8 -45.72,150.84 -107.68,171.21 v 107.63 c 21.39,-3.64 42.2,-10.39 62.2,-20.21 29.95,-14.7 56.7,-35.57 79.52,-62.04 45.58,-52.88 70.68,-122.7 70.68,-196.59 0,-73.9 -25.1,-143.71 -70.68,-196.59 z"
   id="c11"
   inkscape:label="c1" /><path
   class="st0"
   d="m 196.51,11.41 c -37.97,0 -68.76,30.78 -68.76,68.76 0,37.98 30.78,68.76 68.76,68.76 37.97,0 68.76,-30.78 68.76,-68.76 0,-37.98 -30.78,-68.76 -68.76,-68.76 z m 7.5,131.15 c -21.77,0 -39.06,-6.5 -51.43,-19.33 C 131.01,100.84 132.91,67.55 133,66.15 l 7.08,0.46 7.08,0.45 c -0.02,0.28 -1.53,28.6 15.71,46.41 10.06,10.4 24.82,15.4 43.87,14.88 l 0.39,14.17 c -1.05,0.03 -2.09,0.04 -3.12,0.04 z"
   id="c1a"
   inkscape:label="c1" /><path
   class="st0"
   d="m 181.57,425.08 c -28.86,0 -52.26,23.4 -52.26,52.26 0,28.86 23.4,52.26 52.26,52.26 28.86,0 52.26,-23.4 52.26,-52.26 -0.01,-28.87 -23.4,-52.26 -52.26,-52.26 z m 5.69,99.67 c -16.55,0 -29.69,-4.94 -39.08,-14.69 -16.39,-17.02 -14.95,-42.31 -14.88,-43.38 l 5.38,0.35 5.38,0.34 c -0.01,0.22 -1.16,21.73 11.94,35.27 7.65,7.9 18.86,11.71 33.34,11.31 l 0.3,10.77 c -0.81,0.02 -1.6,0.03 -2.38,0.03 z"
   id="c1c"
   inkscape:label="c1" /><path
   class="st0"
   d="M 52.26,205.67 C 23.4,205.67 0,229.07 0,257.93 c 0,28.86 23.4,52.26 52.26,52.26 28.86,0 52.26,-23.4 52.26,-52.26 -0.01,-28.86 -23.4,-52.26 -52.26,-52.26 z m 5.7,99.67 C 41.41,305.34 28.27,300.4 18.88,290.65 2.49,273.63 3.93,248.34 4,247.27 l 5.38,0.35 5.38,0.34 c -0.01,0.22 -1.16,21.73 11.94,35.27 7.65,7.9 18.86,11.71 33.34,11.31 l 0.3,10.77 c -0.81,0.02 -1.6,0.03 -2.38,0.03 z"
   id="c1b"
   inkscape:label="c1" /><path
   class="st0"
   d="m 236.66,235.48 c -28.22,17.38 -47.04,48.56 -47.04,84.14 0,54.54 44.21,98.75 98.75,98.75 6.84,0 13.52,-0.7 19.97,-2.02 V 251.34 c -37.39,2.95 -60.75,-8.46 -71.68,-15.86 z m 62.49,173.74 c -31.27,0 -56.1,-9.33 -73.86,-27.76 -30.98,-32.16 -28.25,-79.96 -28.12,-81.98 l 10.16,0.66 10.16,0.64 c -0.03,0.41 -2.19,41.07 22.56,66.65 14.45,14.94 35.65,22.12 63,21.37 l 0.56,20.36 c -1.49,0.04 -2.99,0.06 -4.46,0.06 z"
   id="c1e"
   inkscape:label="c1" /><path
   class="st1"
   d="m 78.18,188.77 c 0,0 0.33,-41.78 36.22,-69.81 0,0 16.46,40.5 62.24,47.42 0,0 19.1,42.15 36.22,54 0,0 -66.52,-8.34 -91.87,15.09 -0.01,0.01 -2.97,-33.85 -42.81,-46.7 z"
   id="c2a"
   inkscape:label="c2" /><path
   class="st1"
   d="m 247.01,182.36 c 16.12,15.28 36.85,23.49 61.67,24.56 V 16.06 c -24.45,-1.98 -41.24,6.17 -41.24,6.17 24.94,32.35 19.51,75.82 19.51,75.82 -4.23,35.06 -33.61,54.3 -55.78,63.96 2.8,5.06 7.85,12.78 15.84,20.35 z"
   id="c2h"
   inkscape:label="c2" /><path
   class="st1"
   d="m 217.8,167.11 c -7.15,2.35 -11.86,3.31 -11.86,3.31 33.83,69.89 102.74,61 102.74,61 v -10.29 c -35.77,-1.42 -58.73,-16.26 -71.97,-28.99 -9.88,-9.51 -15.82,-19.12 -18.91,-25.03 z"
   id="c2g"
   inkscape:label="c2" /><path
   class="st1"
   d="m 195.73,242.78 c 0,0 -54,78.37 10.21,160.69 0,0 -55.98,-12.84 -83.31,31.94 0,0 -55.32,-32.93 -44.45,-103.73 0,0 48.41,-23.05 48.41,-73.76 -0.01,0 19.09,-20.41 69.14,-15.14 z"
   id="c2b"
   inkscape:label="c2" /><path
   class="st1"
   d="m 308.35,446.61 c -44.12,-1.65 -50.05,7.24 -50.05,7.24 v 41.86 c -0.25,1.27 -0.53,2.48 -0.85,3.64 8.91,5.81 25.79,14.04 50.9,15.18 z"
   id="c2d"
   inkscape:label="c2" /><path
   class="st1"
   d="m 241.5,522.34 c 24.7,20.42 66.85,21.4 66.85,21.4 V 528.7 c -26.77,-1.1 -45.66,-9.52 -56.71,-16.31 -4.84,7.26 -10.14,9.95 -10.14,9.95 z"
   id="c2f"
   inkscape:label="c2" /><path
   class="st1"
   d="m 947.25,23.79 h 110.82 L 884.04,534.25 H 783.27 L 610.64,23.79 h 113.93 l 110.82,387.52 z"
   id="c2"
   inkscape:label="c2" /><path
   class="st0"
   d="M 1215.12,111.75 H 1115.04 V 20.67 h 100.08 z m -100.08,45.02 h 100.08 v 377.47 h -100.08 z"
   id="c1"
   inkscape:label="c1" /><path
   class="st1"
   d="m 1387.24,413.73 c 2.09,17.55 6.61,30.02 13.57,37.4 12.29,13.16 35.03,19.74 68.2,19.74 19.49,0 34.97,-2.88 46.45,-8.66 11.48,-5.77 17.22,-14.43 17.22,-25.97 0,-11.08 -4.63,-19.51 -13.87,-25.28 -9.25,-5.77 -43.67,-15.7 -103.25,-29.78 -42.89,-10.62 -73.11,-23.9 -90.66,-39.83 -17.55,-15.7 -26.32,-38.32 -26.32,-67.88 0,-34.86 13.71,-64.81 41.12,-89.87 27.42,-25.05 66,-37.57 115.74,-37.57 47.2,0 85.66,9.41 115.39,28.22 29.73,18.82 46.79,51.31 51.19,97.49 h -98.7 c -1.39,-12.69 -4.98,-22.74 -10.76,-30.13 -10.89,-13.39 -29.41,-20.09 -55.57,-20.09 -21.53,0 -36.87,3.35 -46.01,10.04 -9.14,6.7 -13.72,14.55 -13.72,23.55 0,11.31 4.86,19.51 14.59,24.59 9.72,5.31 44.07,14.43 103.05,27.36 39.32,9.24 68.79,23.2 88.42,41.9 19.39,18.93 29.09,42.6 29.09,70.99 0,37.4 -13.94,67.94 -41.82,91.6 -27.88,23.66 -70.96,35.5 -129.25,35.5 -59.46,0 -103.35,-12.53 -131.69,-37.57 -28.34,-25.05 -42.51,-56.97 -42.51,-95.75 z"
   id="c2j"
   inkscape:label="c2" />
</svg>
