<?xml version="1.0" encoding="UTF-8" standalone="no"?>
<!-- Created with Inkscape (http://www.inkscape.org/) -->

<svg
   xmlns:dc="http://purl.org/dc/elements/1.1/"
   xmlns:cc="http://creativecommons.org/ns#"
   xmlns:rdf="http://www.w3.org/1999/02/22-rdf-syntax-ns#"
   xmlns:svg="http://www.w3.org/2000/svg"
   xmlns="http://www.w3.org/2000/svg"
   xmlns:sodipodi="http://sodipodi.sourceforge.net/DTD/sodipodi-0.dtd"
   xmlns:inkscape="http://www.inkscape.org/namespaces/inkscape"
   width="300mm"
   height="300mm"
   viewBox="0 0 1062.9921 1062.9921"
   id="svg2"
   version="1.1"
   inkscape:version="0.92.3 (2405546, 2018-03-11)"
   sodipodi:docname="level3_C70.svg">
  <defs
     id="defs4">
    <inkscape:path-effect
       effect="spiro"
       id="path-effect4179"
       is_visible="true" />
    <inkscape:path-effect
       effect="spiro"
       id="path-effect4175"
       is_visible="true" />
    <inkscape:path-effect
       effect="spiro"
       id="path-effect4171"
       is_visible="true" />
  </defs>
  <sodipodi:namedview
     id="base"
     pagecolor="#ffffff"
     bordercolor="#666666"
     borderopacity="1.0"
     inkscape:pageopacity="0.0"
     inkscape:pageshadow="2"
     inkscape:zoom="0.7"
     inkscape:cx="486.01935"
     inkscape:cy="498.88349"
     inkscape:document-units="px"
     inkscape:current-layer="layer1"
     showgrid="false"
     borderlayer="true"
     inkscape:window-width="1680"
     inkscape:window-height="987"
     inkscape:window-x="1672"
     inkscape:window-y="-8"
     inkscape:window-maximized="1" />
  <metadata
     id="metadata7">
    <rdf:RDF>
      <cc:Work
         rdf:about="">
        <dc:format>image/svg+xml</dc:format>
        <dc:type
           rdf:resource="http://purl.org/dc/dcmitype/StillImage" />
        <dc:title />
      </cc:Work>
    </rdf:RDF>
  </metadata>
  <g
     inkscape:label="Laag 1"
     inkscape:groupmode="layer"
     id="layer1"
     transform="translate(0,10.629921)">
    <path
       style="fill:none;fill-rule:evenodd;stroke:#000000;stroke-width:1.26085222;stroke-linecap:butt;stroke-linejoin:miter;stroke-miterlimit:4;stroke-dasharray:none;stroke-opacity:1"
       d="m 423.95676,962.39989 c -6.88042,-5.40676 -11.91653,-13.11859 -14.10054,-21.59228 -2.07674,-8.05747 -1.62272,-16.52238 -1.17512,-24.83113 l 1.70094,-31.57402 -0.94701,-38.88494 2.77122,-41.82091 c 2.13949,-9.40588 3.31107,-19.03163 3.49026,-28.67611 0.21032,-11.32021 -0.94166,-22.62113 -1.14011,-33.94156 -0.24607,-14.03706 0.97383,-28.09956 0,-42.10496 -0.84053,-12.0883 -3.30834,-24.01683 -4.20928,-36.10078 -0.6307,-8.4594 -0.49061,-16.95435 -0.4909,-25.43723 -8.5e-4,-24.50884 -1.17771,-49.01761 -3.52517,-73.41377 l 8.22535,-47.50303 14.10055,-35.62727 c 7.70793,-10.52987 15.54234,-20.96715 23.50099,-31.30882 5.83802,-7.58608 11.74275,-15.12053 17.62561,-22.67189 11.94162,-15.3285 23.79498,-30.72905 35.25151,-46.42342 5.98476,-8.19857 11.86069,-16.47658 17.6257,-24.83113 l -1.17502,-22.67189 -5.8753,-24.83113 v -25.91074 l -12.92552,4.31845 h -10.57539 c -9.08398,2.84232 -18.92648,3.21912 -28.20118,1.07961 -2.39859,-0.55331 -4.78967,-1.2847 -6.88536,-2.576 -3.09355,-1.90615 -5.41245,-5.02358 -6.37498,-8.52744 -1.03502,-3.76775 -0.48473,-7.9444 1.49087,-11.31549 l -0.45081,-6.03314 -1.76998,-4.46772 -3.42727,-2.81044 c -0.45852,-0.376 -0.91981,-0.75231 -1.32235,-1.18772 -0.40253,-0.43542 -0.74722,-0.93743 -0.92114,-1.50433 -0.17352,-0.56562 -0.16934,-1.17654 -0.0468,-1.75535 0.12256,-0.57881 0.35988,-1.12821 0.64434,-1.64698 1.10007,-2.00622 2.9472,-3.5914 5.09713,-4.37427 -1.74097,-0.24074 -3.46349,-0.61474 -5.14753,-1.11765 -0.43837,-0.13091 -0.87611,-0.27133 -1.28605,-0.47445 -0.40993,-0.20311 -0.79352,-0.47221 -1.08149,-0.8277 -0.50675,-0.62556 -0.67645,-1.4773 -0.58985,-2.27768 0.0866,-0.80039 0.40805,-1.55794 0.79606,-2.26332 0.70362,-1.27916 1.62992,-2.41948 2.45384,-3.62466 0.82392,-1.20519 1.55998,-2.51275 1.80774,-3.95148 0.18046,-1.04794 0.0941,-2.12447 -0.072,-3.17477 -0.16617,-1.0503 -0.41145,-2.08764 -0.55039,-3.14189 -0.24344,-1.84717 -0.15778,-3.72448 -0.37388,-5.57505 -0.10804,-0.92528 -0.29276,-1.84613 -0.62432,-2.7167 -0.33157,-0.87056 -0.81406,-1.69154 -1.47026,-2.35277 -1.14643,-1.15521 -2.76235,-1.75725 -4.38008,-1.93536 -1.61774,-0.17811 -3.25232,0.0347 -4.85567,0.31406 -1.60336,0.27938 -3.2011,0.62644 -4.82594,0.71964 -1.62484,0.0932 -3.30084,-0.081 -4.76255,-0.79668 -1.82439,-0.89326 -3.1944,-2.60302 -3.82926,-4.5326 -0.63486,-1.92958 -0.56374,-4.05653 0.0355,-5.99747 0.57801,-1.87227 1.62318,-3.5687 2.80349,-5.13278 1.1803,-1.56409 2.50297,-3.01515 3.7206,-4.55036 3.10691,-3.91723 5.49908,-8.34048 7.99733,-12.67134 2.96517,-5.1403 6.10092,-10.18219 9.40037,-15.11459 l 3.70744,-12.22668 -0.83084,-19.84846 c -1.57775,-5.69361 -1.86395,-11.74111 -0.83095,-17.55827 1.00805,-5.67667 3.23352,-11.053699 4.8692,-16.582291 1.44983,-4.900424 2.44311,-9.94474 4.27059,-14.717213 1.8071,-4.71925 4.41649,-9.118627 7.58515,-13.055187 3.52236,-4.375982 7.73261,-8.183123 12.35609,-11.373692 7.63302,-5.267392 16.29728,-8.816691 24.92651,-12.214444 7.99549,-3.148219 16.02813,-6.202112 24.09567,-9.16083 l 32.40448,-6.870624 28.25007,-2.290204 40.71334,3.053606 23.26477,9.924241 14.95591,15.268041 15.7868,21.375272 9.13974,20.611873 c -0.0957,5.597742 -0.0957,11.197122 0,16.794862 0.12184,7.12999 0.39889,14.25733 0.83088,21.37527 l -4.98531,19.84847 -4.98531,14.50465 -10.80149,15.26806 c -1.90642,4.594 -3.84521,9.17457 -5.81619,13.74124 -1.87861,4.35266 -3.78679,8.69342 -5.81619,12.97785 -2.57709,5.4407 -5.34907,10.78908 -8.30884,16.03145 l -3.32354,20.61186 4.15442,24.4289 0.83089,25.19228 6.88831,18.24433 2.25141,16.10878 c 3.22094,4.94852 6.42836,9.90584 9.62221,14.87188 4.51662,7.02278 9.00645,14.06355 13.64256,21.00803 3.78131,5.66407 7.65953,11.26345 11.63237,16.79487 3.34008,7.88151 6.66363,15.77003 9.97062,23.66548 3.62036,8.64362 7.22088,17.29555 10.80151,25.9557 l 5.81618,17.55825 c 0.99654,9.65458 1.82759,19.32624 2.49265,29.0093 0.66368,9.66298 1.16203,19.33646 1.66177,29.0093 0.55218,10.68773 1.1061,21.37536 1.66177,32.06291 -1.72423,8.63974 -3.38606,17.29194 -4.98531,25.95569 -1.73554,9.40208 -3.39737,18.81776 -4.9853,28.24589 l -10.8015,31.2995 c -0.96325,9.24274 -3.50349,18.31912 -7.47796,26.7191 -4.40933,9.31904 -10.56279,17.80793 -14.12504,27.48249 -3.32754,9.0371 -4.26128,18.742 -5.81619,28.24589 -1.59405,9.74314 -3.86695,19.38641 -4.84874,29.21015 -0.93544,9.35992 -0.67823,18.90021 1.52521,28.04504 2.18527,9.06942 5.6523,17.77636 8.30884,26.7191 4.2497,14.30584 8.68156,28.55756 13.29414,42.75055 3.23484,9.95365 6.55855,19.87841 9.97062,29.77271 l 3.32354,23.66547 1.66176,22.13869 v 25.19226 l -4.15441,19.08506 -5.8162,16.79488 -4.15441,16.03145 -11.63238,16.03146 -14.12505,11.4511 -11.63237,7.634"
       id="path4169"
       inkscape:path-effect="#path-effect4171"
       inkscape:original-d="m 423.95676,962.39989 c 0,0 -11.45448,-13.41346 -14.10054,-21.59228 -2.55067,-7.88397 -1.17512,-24.83113 -1.17512,-24.83113 l 1.70094,-31.57402 -0.94701,-38.88494 2.77122,-41.82091 c 0,0 2.97937,-18.59308 3.49026,-28.67611 0.57317,-11.3121 -0.1572,-22.65768 -1.14011,-33.94156 -1.21794,-13.98204 1.36881,-28.13688 0,-42.10496 -1.18068,-12.04834 -3.57453,-24.01137 -4.20928,-36.10078 -0.45471,-8.66044 -0.67506,-16.76682 -0.4909,-25.43723 0.52025,-24.49393 -3.52517,-73.41377 -3.52517,-73.41377 l 8.22535,-47.50303 14.10055,-35.62727 23.50099,-31.30882 17.62561,-22.67189 35.25151,-46.42342 17.6257,-24.83113 -1.17502,-22.67189 -5.8753,-24.83113 v -25.91074 l -12.92552,4.31845 h -10.57539 c 0,0 -18.91386,2.57716 -28.20118,1.07961 -2.41924,-0.39009 -4.92486,-1.10586 -6.88536,-2.576 -2.83935,-2.12917 -5.47813,-5.09365 -6.37498,-8.52744 -0.9614,-3.68095 1.49087,-11.31549 1.49087,-11.31549 l -0.45081,-6.03314 -1.76998,-4.46772 -3.42727,-2.81044 c 0,0 -1.94268,-1.56333 -2.24349,-2.69205 -0.29652,-1.11263 0.0277,-2.40176 0.59756,-3.40233 1.10803,-1.94552 5.09713,-4.37427 5.09713,-4.37427 0,0 -3.50323,-0.50187 -5.14753,-1.11765 -0.84346,-0.31587 -1.92684,-0.51666 -2.36754,-1.30215 -0.7414,-1.32145 -0.21091,-3.08432 0.20621,-4.541 0.79763,-2.78554 3.66583,-4.74056 4.26158,-7.57614 0.43502,-2.07055 -0.27898,-4.22897 -0.62242,-6.31666 -0.59124,-3.59402 0.27837,-8.25256 -2.46846,-10.64452 -4.75127,-4.13744 -13.83741,2.15191 -18.82424,-1.69834 -2.95311,-2.28004 -4.25354,-6.82763 -3.79378,-10.53007 0.47961,-3.86231 4.39788,-6.42328 6.52409,-9.68314 2.72861,-4.18346 5.34551,-8.43878 7.99733,-12.67134 3.15007,-5.02782 9.40037,-15.11459 9.40037,-15.11459 l 3.70744,-12.22668 -0.83084,-19.84846 c 0,0 -1.5275,-11.74051 -0.83095,-17.55827 0.68483,-5.71995 3.25495,-11.052279 4.8692,-16.582291 1.43135,-4.903461 2.80034,-9.825274 4.27059,-14.717213 1.07383,-3.57295 4.43399,-9.130849 7.58515,-13.055187 3.50494,-4.364916 6.31751,-7.475137 12.35609,-11.373692 7.77349,-5.018626 16.43865,-8.530704 24.92651,-12.214444 7.88243,-3.420982 24.09567,-9.16083 24.09567,-9.16083 l 32.40448,-6.870624 28.25007,-2.290204 40.71334,3.053606 23.26477,9.924241 14.95591,15.268041 15.7868,21.375272 9.13974,20.611873 v 16.794862 l 0.83088,21.37527 -4.98531,19.84847 -4.98531,14.50465 -10.80149,15.26806 -5.81619,13.74124 -5.81619,12.97785 -8.30884,16.03145 -3.32354,20.61186 4.15442,24.4289 0.83089,25.19228 6.88831,18.24433 2.25141,16.10878 9.62221,14.87188 13.64256,21.00803 11.63237,16.79487 9.97062,23.66548 10.80151,25.9557 5.81618,17.55825 2.49265,29.0093 1.66177,29.0093 1.66177,32.06291 -4.98531,25.95569 -4.9853,28.24589 -10.8015,31.2995 c 0,0 -4.10057,18.10923 -7.47796,26.7191 -3.76132,9.58863 -10.70066,17.76843 -14.12504,27.48249 -3.19593,9.06601 -4.05943,18.79495 -5.81619,28.24589 -1.80375,9.70373 -4.30535,19.35517 -4.84874,29.21015 -0.51542,9.34796 -0.13164,18.83065 1.52521,28.04504 1.65064,9.17984 8.30884,26.7191 8.30884,26.7191 l 13.29414,42.75055 9.97062,29.77271 3.32354,23.66547 1.66176,22.13869 v 25.19226 l -4.15441,19.08506 -5.8162,16.79488 -4.15441,16.03145 -11.63238,16.03146 -14.12505,11.4511 -11.63237,7.634"
       inkscape:connector-curvature="0"
       sodipodi:nodetypes="csccccsssssccccccccccccsssccccsscsssssssssscccsssasscccccccccccccccccccccccccccccccccssssscccccccccccc" />
    <path
       style="fill:none;fill-rule:evenodd;stroke:#000000;stroke-width:1.26085222;stroke-linecap:butt;stroke-linejoin:miter;stroke-miterlimit:4;stroke-dasharray:none;stroke-opacity:1"
       d="m 609.97119,202.73742 13.67862,-6.94391 16.61769,-11.45103 17.44858,-18.32166 10.80149,-17.55826 c 1.18876,-7.87685 2.29669,-15.76589 3.32355,-23.66548 0.89212,-6.86303 1.72304,-13.73402 2.49265,-20.61187 l -5.8162,-18.321665 -8.30884,-16.794855 -19.11034,-16.031451 -19.94124,-4.58042 c -7.2007,0.08054 -14.40229,0.08054 -21.60299,0 -9.69675,-0.108453 -19.39187,-0.362959 -29.08095,-0.763401 l -20.77212,5.343821 -33.23541,11.451033 -19.94114,10.68763 -14.95599,14.504651 -5.8161,12.214447 6.64704,12.21444 14.95589,13.74126 c 7.65784,5.97991 15.41415,11.83372 23.26472,17.55826 6.03806,4.40287 12.13188,8.72928 18.2795,12.97783 l 9.13973,8.39743 v 5.34382 l -6.64708,6.87063 5.81619,9.92422 11.63238,1.52682 10.8015,5.3438 1.68912,9.01579 11.87289,1.01836 -3.5914,-11.56095 c -2.85976,-3.49122 -5.63057,-7.0553 -8.30883,-10.68763 -3.48247,-4.72303 -6.80844,-9.56145 -9.97062,-14.50465 l -1.66177,-9.92424 -6.64708,-8.39742 c -5.97455,-5.22916 -12.06988,-10.32033 -18.27949,-15.26806 -5.20373,-4.14626 -10.48717,-8.19139 -15.78673,-12.21443 -6.07154,-4.60907 -12.16478,-9.18955 -18.27945,-13.74125 l -4.15442,-13.741255 17.44851,-11.451044 22.43388,-12.214434 c 10.47245,-2.754016 20.99978,-5.299365 31.57363,-7.634025 6.07831,-1.342065 12.17199,-2.614516 18.27945,-3.817018 6.66143,0.289897 13.31331,0.799199 19.94123,1.526803 5.5589,0.610249 11.10094,1.374042 16.61768,2.290215 l 15.78681,6.107222 11.63238,10.687631 4.15443,16.794854 v 19.848481 l 1.66176,17.55825 -2.49265,16.79486 c -4.08421,3.39499 -8.23986,6.70405 -12.46326,9.92424 -5.46696,4.16836 -11.04618,8.1869 -16.6177,12.21443 -5.26846,3.80846 -10.53074,7.62549 -15.7868,11.45105 l -12.46326,1.52679 1.98429,14.90618 z"
       id="C70.0"
       inkscape:path-effect="#path-effect4175"
       inkscape:original-d="m 609.97119,202.73742 13.67862,-6.94391 16.61769,-11.45103 17.44858,-18.32166 10.80149,-17.55826 3.32355,-23.66548 2.49265,-20.61187 -5.8162,-18.321665 -8.30884,-16.794855 -19.11034,-16.031451 -19.94124,-4.58042 h -21.60299 l -29.08095,-0.763401 -20.77212,5.343821 -33.23541,11.451033 -19.94114,10.68763 -14.95599,14.504651 -5.8161,12.214447 6.64704,12.21444 14.95589,13.74126 23.26472,17.55826 18.2795,12.97783 9.13973,8.39743 v 5.34382 l -6.64708,6.87063 5.81619,9.92422 11.63238,1.52682 10.8015,5.3438 1.68912,9.01579 11.87289,1.01836 -3.5914,-11.56095 -8.30883,-10.68763 -9.97062,-14.50465 -1.66177,-9.92424 -6.64708,-8.39742 -18.27949,-15.26806 -15.78673,-12.21443 -18.27945,-13.74125 -4.15442,-13.741255 17.44851,-11.451044 22.43388,-12.214434 31.57363,-7.634025 18.27945,-3.817018 19.94123,1.526803 16.61768,2.290215 15.78681,6.107222 11.63238,10.687631 4.15443,16.794854 v 19.848481 l 1.66176,17.55825 -2.49265,16.79486 -12.46326,9.92424 -16.6177,12.21443 -15.7868,11.45105 -12.46326,1.52679 1.98429,14.90618 z"
       inkscape:connector-curvature="0"
       sodipodi:nodetypes="ccccccccccccccccccccccccccccccccccccccccccccccccccccccccc"
       inkscape:label="#path4173" />
    <path
       style="fill:none;fill-rule:evenodd;stroke:#000000;stroke-width:1.26085222;stroke-linecap:butt;stroke-linejoin:miter;stroke-miterlimit:4;stroke-dasharray:none;stroke-opacity:1"
       d="m 598.3743,202.60307 0.29157,2.87192 -1.12245,8.57911 c -0.0954,2.80105 -0.23387,5.60064 -0.41545,8.39743 -0.37274,5.74112 -0.92703,11.47046 -1.66176,17.17656 l 0.83088,11.83275 c -0.0935,3.43446 -0.0935,6.87147 0,10.30593 0.0763,2.80176 0.21482,5.60183 0.41545,8.39744 l -1.24633,-11.06935 -4.56986,-8.77912 c -0.47715,-4.20837 -1.03119,-8.40802 -1.66176,-12.59615 -0.73043,-4.85142 -1.56354,-9.68733 -2.49266,-14.50465 -1.1098,-5.75411 -2.35659,-11.48179 -3.73898,-17.17656 l -11.63238,-1.1451 2.90809,12.21443 2.49265,21.37528 6.23164,33.97141 0.83088,20.99358 5.81619,17.55826 7.8934,37.02502 c 3.48839,11.07483 7.36909,22.02609 11.63239,32.82632 4.54608,11.51662 9.52547,22.85775 14.12503,34.35311 4.52604,11.31163 8.68341,22.77078 12.46327,34.35312 l 5.81619,40.46033 0.83088,39.69694 -6.64707,46.56756 -14.95592,38.93353 -5.8162,25.19228 c -1.54198,8.88098 -2.92708,17.7892 -4.15442,26.7191 -1.3254,9.64332 -2.46694,19.31308 -3.32353,29.00929 -0.80773,9.14313 -1.36193,18.30865 -1.66177,27.48249 2.59761,13.16458 4.81454,26.40427 6.64707,39.69695 1.47181,10.67607 2.69556,21.38507 4.15443,32.06292 0.76615,5.60763 1.59711,11.2064 2.49266,16.79482 l 7.47795,17.5583 8.30885,29.00929 9.9706,21.37527 c 1.18343,7.11306 2.29136,14.23869 3.32354,21.37527 1.21249,8.38319 2.32045,16.7815 3.32355,25.19231 l -4.98531,26.71909 -9.13973,12.97784 -12.46327,8.39743 -8.30884,0.76337 -1.66178,-3.05362 -4.9853,-4.5804 h -5.81619 l -4.98531,3.81704 -1.66177,10.68763 7.47796,10.68763 18.27946,0.76337 15.78681,-7.63402 c 3.74217,-6.28011 7.34387,-12.64392 10.8015,-19.08507 2.57287,-4.79295 5.06598,-9.62871 7.47795,-14.50462 l 3.32354,-20.61184 c 0.0623,-9.67553 -0.21491,-19.35324 -0.83088,-29.00935 -0.40656,-6.37336 -0.96069,-12.73731 -1.66177,-19.08502 l -4.98531,-25.95574 -8.30885,-13.74125 c -3.8865,-10.07449 -7.4889,-20.25857 -10.80149,-30.53607 -2.36385,-7.33399 -4.58014,-14.71555 -6.64708,-22.13869 l -4.15442,-57.25519 4.9853,-29.77271 1.66178,-25.19228 c 2.71998,-10.0206 5.76874,-19.95196 9.13973,-29.77271 3.50531,-10.21206 7.35833,-20.30291 10.8015,-30.53609 3.46707,-10.3042 6.51697,-20.74876 9.13973,-31.29951 2.05892,-13.43387 3.72165,-26.92847 4.9853,-40.46033 1.30539,-13.97885 2.1847,-27.99374 3.32353,-41.98715 0.72559,-8.91577 1.55656,-17.82296 2.49266,-26.71909 l -2.49266,-24.42888 c -3.85122,-8.15542 -7.72871,-16.29844 -11.63238,-24.42889 -5.10472,-10.63197 -10.25583,-21.24596 -14.95592,-32.0629 -5.12305,-11.79036 -9.70445,-23.80861 -14.12503,-35.87993 -3.71278,-10.13852 -7.31358,-20.31805 -10.80151,-30.5361 l -7.47795,-29.7727 c -0.31989,-12.97521 -0.31989,-25.95832 0,-38.93353 0.20708,-8.39949 0.54817,-16.79502 0.83089,-25.1923 0.38544,-11.44807 0.66242,-22.89979 0.83088,-34.3531 z"
       id="C70.1"
       inkscape:path-effect="#path-effect4179"
       inkscape:original-d="m 598.3743,202.60307 0.29157,2.87192 -1.12245,8.57911 -0.41545,8.39743 -1.66176,17.17656 0.83088,11.83275 v 10.30593 l 0.41545,8.39744 -1.24633,-11.06935 -4.56986,-8.77912 -1.66176,-12.59615 -2.49266,-14.50465 -3.73898,-17.17656 -11.63238,-1.1451 2.90809,12.21443 2.49265,21.37528 6.23164,33.97141 0.83088,20.99358 5.81619,17.55826 7.8934,37.02502 11.63239,32.82632 14.12503,34.35311 12.46327,34.35312 5.81619,40.46033 0.83088,39.69694 -6.64707,46.56756 -14.95592,38.93353 -5.8162,25.19228 -4.15442,26.7191 -3.32353,29.00929 -1.66177,27.48249 6.64707,39.69695 4.15443,32.06292 2.49266,16.79482 7.47795,17.5583 8.30885,29.00929 9.9706,21.37527 3.32354,21.37527 3.32355,25.19231 -4.98531,26.71909 -9.13973,12.97784 -12.46327,8.39743 -8.30884,0.76337 -1.66178,-3.05362 -4.9853,-4.5804 h -5.81619 l -4.98531,3.81704 -1.66177,10.68763 7.47796,10.68763 18.27946,0.76337 15.78681,-7.63402 10.8015,-19.08507 7.47795,-14.50462 3.32354,-20.61184 -0.83088,-29.00935 -1.66177,-19.08502 -4.98531,-25.95574 -8.30885,-13.74125 -10.80149,-30.53607 -6.64708,-22.13869 -4.15442,-57.25519 4.9853,-29.77271 1.66178,-25.19228 9.13973,-29.77271 10.8015,-30.53609 9.13973,-31.29951 4.9853,-40.46033 3.32353,-41.98715 2.49266,-26.71909 -2.49266,-24.42888 -11.63238,-24.42889 -14.95592,-32.0629 -14.12503,-35.87993 -10.80151,-30.5361 -7.47795,-29.7727 v -38.93353 l 0.83089,-25.1923 0.83088,-34.3531 z"
       inkscape:connector-curvature="0"
       inkscape:label="#path4177"
       sodipodi:nodetypes="ccccccccccccccccccccccccccccccccccccccccccccccccccccccccccccccccccccccccccccccc" />
    <path
       style="fill:none;fill-rule:evenodd;stroke:#000000;stroke-width:1.25;stroke-linecap:butt;stroke-linejoin:miter;stroke-miterlimit:4;stroke-dasharray:none;stroke-opacity:1"
       d="m 95.37374,836.79785 -0.677707,11.57887 v 10.89791 l 2.70988,10.21668 6.097617,12.26003 6.77478,10.21676 8.8075,9.53561 9.4848,7.49216 12.1951,6.81128 12.19468,3.40545 12.19518,1.36223 h 13.54962 l 8.8075,-0.68111 14.90513,-4.08657 10.83967,-5.44892 8.12982,-5.44898 8.13027,-6.81118 5.41984,-6.81112 7.45256,-14.30338 4.0649,-10.21667 2.03216,-8.85447 v -12.94126 l -6.09706,-23.15784 -4.74262,-9.53562 -5.4199,-8.17339 -8.8075,-8.17336 -8.12973,-5.44892 -6.77534,-4.08666 -7.45208,-4.0867 -8.8075,-2.72447 -10.84016,-2.04335 -9.48473,-0.68109 -12.19468,1.36224 -12.19519,2.72447 -9.48472,4.08665 -9.48522,4.08671 -10.83974,9.53558 -6.77484,6.81117 -6.09756,7.4922 -4.74261,9.53568 -3.38718,6.81112 z"
       id="C70.9"
       inkscape:connector-curvature="0"
       inkscape:label="#path4217-8" />
    <path
       id="path4223"
       style="fill:none;fill-rule:evenodd;stroke:#000000;stroke-width:1.25;stroke-linecap:butt;stroke-linejoin:miter;stroke-miterlimit:4;stroke-dasharray:none;stroke-opacity:1"
       d="m 190.51109,847.08824 c 0.97241,4.03193 0.68948,2.91291 0.67179,4.42021 -0.11294,9.61054 0.19651,4.85907 -0.0933,8.03013 l -0.11295,6.14342 -0.88002,6.10877 -3.36851,5.65034 -6.14572,4.3893 -7.90435,3.13049 c -3.03406,0.64222 -5.5775,1.8012 -9.581,1.20407 L 152.826,883.19555 c 0,0 1.4375,0.36145 1.88736,-0.64333 m 2.82434,-69.83444 -4.44502,6.02024 -2.23356,7.94675 -0.45673,7.46513 1.63052,7.94675 5.37074,6.9835 6.62356,3.37139 6.38438,0.72243 8.35423,-1.25755 c 2.31999,-0.64309 6.85874,-1.86804 6.85874,-1.86804 -0.2161,-0.56032 5.54313,-0.38163 5.49843,-2.15497 -0.16694,-6.55892 -0.17191,-10.98412 0.0686,-16.15165 0.24063,5.32479 0,-11.47864 -3.97988,-14.68935 l -6.64668,-6.26115 -7.10284,-2.40806 -9.23532,0.72214 z"
       inkscape:connector-curvature="0"
       sodipodi:nodetypes="csccccccccccccccccccsscccccc" />
  </g>
</svg>
