<?xml version="1.0" encoding="UTF-8" standalone="no"?>
<!-- Created with Inkscape (http://www.inkscape.org/) -->

<svg
   xmlns:dc="http://purl.org/dc/elements/1.1/"
   xmlns:cc="http://creativecommons.org/ns#"
   xmlns:rdf="http://www.w3.org/1999/02/22-rdf-syntax-ns#"
   xmlns:svg="http://www.w3.org/2000/svg"
   xmlns="http://www.w3.org/2000/svg"
   xmlns:sodipodi="http://sodipodi.sourceforge.net/DTD/sodipodi-0.dtd"
   xmlns:inkscape="http://www.inkscape.org/namespaces/inkscape"
   id="svg4136"
   version="1.1"
   inkscape:version="0.92.3 (2405546, 2018-03-11)"
   width="300"
   height="300"
   viewBox="0 0 300 300"
   sodipodi:docname="Level3_C26.svg">
  <metadata
     id="metadata4142">
    <rdf:RDF>
      <cc:Work
         rdf:about="">
        <dc:format>image/svg+xml</dc:format>
        <dc:type
           rdf:resource="http://purl.org/dc/dcmitype/StillImage" />
        <dc:title></dc:title>
      </cc:Work>
    </rdf:RDF>
  </metadata>
  <defs
     id="defs4140" />
  <sodipodi:namedview
     pagecolor="#ffffff"
     bordercolor="#666666"
     borderopacity="1"
     objecttolerance="10"
     gridtolerance="10"
     guidetolerance="10"
     inkscape:pageopacity="0"
     inkscape:pageshadow="2"
     inkscape:window-width="1680"
     inkscape:window-height="987"
     id="namedview4138"
     showgrid="false"
     inkscape:zoom="2.5314423"
     inkscape:cx="62.448095"
     inkscape:cy="270.46769"
     inkscape:window-x="-8"
     inkscape:window-y="-8"
     inkscape:window-maximized="1"
     inkscape:current-layer="svg4136" />
  <path
     style="fill:none;fill-rule:evenodd;stroke:#000000;stroke-width:0.60000002;stroke-linecap:butt;stroke-linejoin:miter;stroke-miterlimit:4;stroke-dasharray:none;stroke-opacity:1"
     d="m 114.34335,61.661465 -0.94928,2.760901 -0.35597,3.45112 1.98771,-0.439717 1.80936,1.228546 1.54256,-6.606433 0.94926,6.507827 2.37317,-4.141343 2.61048,-2.56369 6.40755,-0.394418 7.83145,-0.197204 6.88218,1.183241 3.08512,3.746931 2.8478,4.930178 1.18659,-2.7609 0.2373,-2.760896"
     id="path4146"
     inkscape:connector-curvature="0"
     sodipodi:nodetypes="cccccccccccccccc" />
  <path
     style="fill:none;fill-rule:evenodd;stroke:#000000;stroke-width:0.60000002;stroke-linecap:butt;stroke-linejoin:miter;stroke-miterlimit:4;stroke-dasharray:none;stroke-opacity:1"
     d="m 114.58065,74.775731 -0.71194,-2.859502 0.71194,-1.77486 2.49184,-0.0986 1.30524,2.859501 0.35597,2.267884 0.35598,-0.0986 0.59328,-3.648331 2.37317,-0.295807 1.06793,-2.465089 1.89853,-1.67626 5.57694,-1.972072 4.74633,-0.394411 6.05158,0.88743 4.15304,2.563689 2.61048,5.028779 0.23732,2.760902 -3.55974,5.225985 -0.23733,1.183242 2.96646,-1.873466 1.4239,-0.887436 -4.15303,6.212021 -3.32245,2.958108"
     id="path4148"
     inkscape:connector-curvature="0" />
  <path
     style="fill:none;fill-rule:evenodd;stroke:#000000;stroke-width:0.60000002;stroke-linecap:butt;stroke-linejoin:miter;stroke-miterlimit:4;stroke-dasharray:none;stroke-opacity:1"
     d="m 148.27962,95.404889 -0.23731,1.951039 -0.23732,4.732972 -0.35597,3.94414 -0.83061,3.45113 0,3.05671 -0.11866,3.45112 1.18658,5.5218 -0.11866,3.0567 -0.94926,7.49388 -0.59329,4.53576 0.59329,5.8176 0.35597,7.59246 0.23731,3.94415 0.83062,4.93017 1.61597,5.2723 7.10489,0.0997 -0.29613,-4.97754 -0.47463,-5.02878 -0.47464,-4.14135 -0.59328,-5.22599 -0.71195,-5.5218 -0.83061,-7.98687 -0.35597,-4.93019 -0.71195,-5.42319 0.8306,-3.94414 0.5933,-7.59246 0.35597,-3.54974 0.11866,-3.74693 0.23731,-5.028781 -0.76109,-3.746933 z"
     id="C15"
     inkscape:connector-curvature="0"
     inkscape:label="#path4150"
     sodipodi:nodetypes="cccccccccccccccccccccccccccccccc" />
  <path
     style="fill:none;fill-rule:evenodd;stroke:#000000;stroke-width:0.60000002;stroke-linecap:butt;stroke-linejoin:miter;stroke-miterlimit:4;stroke-dasharray:none;stroke-opacity:1"
     d="m 145.1945,92.918773 1.66123,-2.859498 1.89853,-1.67626 0.0209,2.627436 -0.49412,4.376487"
     id="path4152"
     inkscape:connector-curvature="0"
     sodipodi:nodetypes="ccccc" />
  <path
     style="fill:none;fill-rule:evenodd;stroke:#000000;stroke-width:0.60000002;stroke-linecap:butt;stroke-linejoin:miter;stroke-miterlimit:4;stroke-dasharray:none;stroke-opacity:1"
     d="m 155.99241,66.00002 -0.47464,3.155314 -0.47462,3.549724 -1.18659,3.845539 -0.71195,3.155312 -0.35598,4.732968 0.47464,4.437154 0.43598,4.639836 -0.13636,-0.18302"
     id="path4154"
     inkscape:connector-curvature="0"
     sodipodi:nodetypes="ccccccccc" />
  <path
     style="fill:none;fill-rule:evenodd;stroke:#000000;stroke-width:0.60000002;stroke-linecap:butt;stroke-linejoin:miter;stroke-miterlimit:4;stroke-dasharray:none;stroke-dashoffset:0;stroke-opacity:1"
     d="m 149.23567,164.16002 -7.04794,-0.55777 -6.04111,-0.55779 -6.54451,0.13945 -5.70548,1.11556 -6.2089,2.0917 -3.85959,3.06782 -3.18836,3.62561 -2.51712,4.32284 -0.67123,4.32283 0,6.2751 -0.16781,5.4384 0.33562,5.43842 -0.16781,4.74117 0.33561,3.34672 2.18151,-0.13946 3.85959,-1.95223 5.70548,-4.18341 4.53082,-3.76504 3.35616,-2.23114 3.18836,-2.51004 4.02739,-1.39446 5.20206,-0.27891 4.36301,0.41836 1.56495,1.03388 3.4693,-3.54392 3.35616,-1.95225 2.68493,-0.69725 0.83904,-2.23113 0.88099,-2.10914 0.881,-2.12654 3.07157,-1.25353 2.21439,-0.78587 3.52397,-3.48617 2.34931,-2.23114 3.52398,-1.53391 4.69863,-1.53391 3.69178,0 1.34246,-1.39447 -3.69178,-1.39447 -6.71232,-0.83667 -7.04795,-0.69724 -6.20891,0.13945 z"
     id="C22"
     inkscape:connector-curvature="0"
     inkscape:label="#path4156"
     sodipodi:nodetypes="cccccccccccccccccccccccccccccccccccccccccccc" />
  <path
     style="fill:none;fill-rule:evenodd;stroke:#000000;stroke-width:0.60000002;stroke-linecap:butt;stroke-linejoin:miter;stroke-miterlimit:4;stroke-dasharray:none;stroke-opacity:1"
     d="m 163.24434,177.18445 3.18281,-3.13241 2.59732,-2.51789 3.41291,-1.47853 4.83024,-1.54879 3.71317,-0.0343 2.77767,0.96262 2.49183,1.87347 2.13584,2.46509 1.18659,4.14133 0.71195,3.94415 -0.11867,3.54972 0.23733,5.32461 -2.13586,4.43714 -3.08511,3.25392 -4.50901,3.74694 -6.28889,3.25391 -5.6956,1.77487 -4.03439,0.69021 -5.93292,-0.2958 -5.1023,-1.57767 -3.32243,-2.31717 -3.67841,-3.35252 -1.54256,-0.59162 0.59329,-7.82665 1.77988,1.36811 3.20377,0.0986 2.01719,0.98604 2.37317,0.88743 3.6784,0.0986 2.49183,-2.36648 -0.5933,-3.45112 -1.42389,-5.02879 -2.61048,-2.07068 1.30523,-3.1553 2.96647,-1.18325 0,0 0.94926,2.16928 1.06793,-0.39441 0.23731,-1.18324 z"
     id="C16"
     inkscape:connector-curvature="0"
     sodipodi:nodetypes="ccccccccccccccccccccccccccccccccccccccccc" />
  <path
     style="fill:none;fill-rule:evenodd;stroke:#000000;stroke-width:0.60000002;stroke-linecap:butt;stroke-linejoin:miter;stroke-miterlimit:4;stroke-dasharray:none;stroke-opacity:1"
     d="m 120.39491,183.92982 -1.72054,1.03533 -1.36457,1.23256 -0.11866,1.67625 1.24592,1.03534 2.13585,0.64092 2.13585,0.44372 3.91572,0.0492 2.90713,-0.34511 3.44109,-0.44372 2.2545,-0.83812 2.90714,-1.33115 0.71195,-0.0986 0.0593,-1.01069 -1.18658,-0.36976 -1.66123,0 -2.13585,-0.39441 -1.77986,-0.49303 -1.77989,-0.54231 -1.83919,-0.54232 -2.31384,-0.1479 -2.4325,-0.24652 -1.8392,0.29581 z"
     id="C23"
     inkscape:connector-curvature="0"
     inkscape:label="#path4160"
     sodipodi:nodetypes="cccccccccccccccccccccccc" />
  <path
     style="fill:none;fill-rule:evenodd;stroke:#000000;stroke-width:0.60000002;stroke-linecap:butt;stroke-linejoin:miter;stroke-miterlimit:4;stroke-dasharray:none;stroke-opacity:1"
     d="m 107.57982,204.83375 2.25451,-3.74692 3.44109,-5.02879 2.84779,-3.64832 2.96647,-3.35251"
     id="path4162"
     inkscape:connector-curvature="0" />
  <path
     style="fill:none;fill-rule:evenodd;stroke:#000000;stroke-width:0.60000002;stroke-linecap:butt;stroke-linejoin:miter;stroke-miterlimit:4;stroke-dasharray:none;stroke-opacity:1"
     d="m 128.46369,183.63401 2.84779,-1.97207 2.96646,-2.56369 4.2717,-1.18325 5.57694,-1.47905 5.22096,-1.97207 7.47548,-2.46508 8.89937,-3.45112 5.57694,-0.98605 5.93292,-0.78882 4.96267,0.42329 0.042,-0.0348"
     id="path4164"
     inkscape:connector-curvature="0"
     sodipodi:nodetypes="cccccccccccc" />
  <path
     style="fill:none;fill-rule:evenodd;stroke:#000000;stroke-width:0.60000002;stroke-linecap:butt;stroke-linejoin:miter;stroke-miterlimit:4;stroke-dasharray:none;stroke-opacity:1"
     d="m 142.76202,184.07771 0.2373,1.72556 0.35598,1.38047 0.35598,1.77485 -0.4153,-0.2958 -0.77129,-1.33115 -1.89853,-1.38045 -1.00859,0 -0.65263,0.0492 -0.0742,0.97371 1.55739,-0.0863 1.24593,0.64093 0.35596,0.73952 0.4153,0.49303 -0.11865,0.64091 0.88994,0.78884 0.47464,1.38045 -0.5933,3.15531 -0.71195,2.02137 -0.53396,1.62695 -0.83061,1.82417 -1.30524,2.21857 -0.94927,1.72558 -1.12725,1.52835 -1.60189,1.57764 -2.37317,1.87347 0.88994,1.23255 1.36458,-1.23255 1.6019,-1.42972 1.48323,-1.72556 1.24591,-1.47906 1.24591,-2.02137 1.12726,-2.36648 0.94926,-2.31718 0.71196,-2.36649 0.71195,-2.07066 0,-1.97208 -0.11866,-3.0074 -0.23732,-2.02138 -0.47463,-1.77486 -0.23731,-0.64092 z"
     id="C24"
     inkscape:connector-curvature="0"
     inkscape:label="#path4166"
     sodipodi:nodetypes="cccccccccccccccccccccccccccccccccccccccccc" />
  <path
     style="fill:none;fill-rule:evenodd;stroke:#000000;stroke-width:0.60000002;stroke-linecap:butt;stroke-linejoin:miter;stroke-miterlimit:4;stroke-dasharray:none;stroke-opacity:1"
     d="m 145.13517,199.80498 -1.42389,0 -0.88994,0 0,0"
     id="path4168"
     inkscape:connector-curvature="0" />
  <path
     style="fill:none;fill-rule:evenodd;stroke:#000000;stroke-width:0.60000002;stroke-linecap:butt;stroke-linejoin:miter;stroke-miterlimit:4;stroke-dasharray:none;stroke-opacity:1"
     d="m 141.10079,199.80498 -1.72054,-0.0492 -2.72914,0.2958 -1.54255,1.03534 -1.6019,1.87346 -0.47463,1.92277 -0.41531,2.26788 1.0086,2.02137 1.12726,1.52835 1.06792,1.72556 1.24591,1.08464"
     id="path4170"
     inkscape:connector-curvature="0" />
  <path
     style="fill:none;fill-rule:evenodd;stroke:#000000;stroke-width:0.60000002;stroke-linecap:butt;stroke-linejoin:miter;stroke-miterlimit:4;stroke-dasharray:none;stroke-opacity:1"
     d="m 127.64791,194.51737 -1.26074,1.73788 -1.30525,1.97207 -1.06793,2.46509 -0.41529,1.57766 -0.23732,1.67625 0.0593,1.92279 0.0593,0.0986"
     id="path4172"
     inkscape:connector-curvature="0"
     sodipodi:nodetypes="cccccccc" />
  <path
     style="fill:none;fill-rule:evenodd;stroke:#000000;stroke-width:0.60000002;stroke-linecap:butt;stroke-linejoin:miter;stroke-miterlimit:4;stroke-dasharray:1.19999995, 0.59999998;stroke-dashoffset:0;stroke-opacity:1"
     d="m 185.56615,186.95952 -2.76884,1.18528 -2.43322,1.46419 -2.68494,1.32476 -5.03424,0.48806 -4.36301,0.90639 -4.36301,0.69723 -3.02055,0.41834 -7.63528,1.32476 -3.69177,1.18528 -4.0274,0.76696 -1.76198,0.55778 -3.10446,0.97613 -4.08847,1.82425 -1.46596,0.98283 -1.62235,1.93781 -0.49427,2.01039 -0.37655,2.19044 0.96999,1.8783 1.22529,1.70698 0.47156,0.82194 0.61263,0.91566 1.2969,1.11258 0.73813,-0.0206 1.16859,0.51286 0.65831,0.32704 1.10877,1.03379 1.2238,-0.7099 2.15693,0.20493 2.00352,0.24228 0.69159,0.97613 0.9119,-1.33599 2.69002,-1.71565 -1.0704,-1.16065 0.0839,-1.39446 2.0137,-1.25501 2.68493,-0.69724 1.76198,-1.04585 1.42636,-1.81279 1.34248,-1.04586 3.02055,-0.69722 3.10445,0 2.51712,-0.76697 2.76883,-0.69722 2.85274,-1.18531 3.60788,-1.53389 4.53082,-1.60363 2.51713,-1.1853 2.0976,-1.74308 1.67808,-1.60364 0.83904,-1.95226 -0.58732,-2.23113 -0.75515,-1.88253 z"
     id="C25"
     inkscape:connector-curvature="0"
     inkscape:label="#path4174"
     sodipodi:nodetypes="cccccccccccccccccccccccccccccccccccccccccccccccccccccc" />
  <path
     style="fill:none;fill-rule:evenodd;stroke:#000000;stroke-width:0.60000002;stroke-linecap:butt;stroke-linejoin:miter;stroke-miterlimit:4;stroke-dasharray:none;stroke-opacity:1"
     d="m 183.13293,192.60709 -3.10446,1.25504 -2.93664,1.18528 -3.60788,1.04585 -4.2791,1.46419 -3.69179,0.6275 -2.43321,1.11556 -2.43322,0.62752 -2.93664,1.32474 -2.01371,0.20918 -1.92979,1.67334 -3.10445,0.20918 -0.58732,0 -1.762,1.46419 -2.51712,2.37058 -2.0976,1.67336 -2.34932,1.60364 -4.53082,0.0697 -1.9298,-0.48806"
     id="path4176"
     inkscape:connector-curvature="0" />
  <path
     style="fill:none;fill-rule:evenodd;stroke:#000000;stroke-width:0.60000002;stroke-linecap:butt;stroke-linejoin:miter;stroke-miterlimit:4;stroke-dasharray:none;stroke-opacity:1"
     d="m 155.52847,198.25468 -0.83903,1.46419 0.83903,1.81279"
     id="path4178"
     inkscape:connector-curvature="0" />
  <path
     style="fill:none;fill-rule:evenodd;stroke:#000000;stroke-width:0.60000002;stroke-linecap:butt;stroke-linejoin:miter;stroke-miterlimit:4;stroke-dasharray:none;stroke-opacity:1"
     d="m 162.99595,195.81437 -0.75514,1.60363 0.25171,0.90639 0.0839,1.18531"
     id="path4180"
     inkscape:connector-curvature="0" />
  <path
     style="fill:none;fill-rule:evenodd;stroke:#000000;stroke-width:0.60000002;stroke-linecap:butt;stroke-linejoin:miter;stroke-miterlimit:4;stroke-dasharray:none;stroke-opacity:1"
     d="m 170.12779,193.37406 -0.67123,1.88252 0,2.16142"
     id="path4182"
     inkscape:connector-curvature="0" />
  <path
     style="fill:none;fill-rule:evenodd;stroke:#000000;stroke-width:0.60000002;stroke-linecap:butt;stroke-linejoin:miter;stroke-miterlimit:4;stroke-dasharray:none;stroke-opacity:1"
     d="m 181.0929,190.72457 -1.55898,1.59554 -1.0509,2.19876"
     id="path4184"
     inkscape:connector-curvature="0"
     sodipodi:nodetypes="ccc" />
  <path
     style="fill:none;fill-rule:evenodd;stroke:#000000;stroke-width:0.60000002;stroke-linecap:butt;stroke-linejoin:miter;stroke-miterlimit:4;stroke-dasharray:none;stroke-opacity:1"
     d="m 183.30074,195.3263 -2.43322,-0.83669 -1.42638,-0.34861"
     id="path4186"
     inkscape:connector-curvature="0" />
  <path
     style="fill:none;fill-rule:evenodd;stroke:#000000;stroke-width:0.60000002;stroke-linecap:butt;stroke-linejoin:miter;stroke-miterlimit:4;stroke-dasharray:none;stroke-opacity:1"
     d="m 175.32984,195.53547 1.25856,1.46419 1.17466,0.41834 1.42637,0.41833 0,0"
     id="path4188"
     inkscape:connector-curvature="0" />
  <path
     style="fill:none;fill-rule:evenodd;stroke:#000000;stroke-width:0.60000002;stroke-linecap:butt;stroke-linejoin:miter;stroke-miterlimit:4;stroke-dasharray:none;stroke-opacity:1"
     d="m 166.87458,197.97507 0.48437,2.3713 1.67808,1.8128"
     id="path4192"
     inkscape:connector-curvature="0"
     sodipodi:nodetypes="ccc" />
  <path
     style="fill:none;fill-rule:evenodd;stroke:#000000;stroke-width:0.60000002;stroke-linecap:butt;stroke-linejoin:miter;stroke-miterlimit:4;stroke-dasharray:none;stroke-opacity:1"
     d="m 160.20209,200.08367 -1.23355,2.0755 0.50343,1.74309"
     id="path4194"
     inkscape:connector-curvature="0"
     sodipodi:nodetypes="ccc" />
  <path
     style="fill:none;fill-rule:evenodd;stroke:#000000;stroke-width:0.60000002;stroke-linecap:butt;stroke-linejoin:miter;stroke-miterlimit:4;stroke-dasharray:none;stroke-opacity:1"
     d="m 153.68259,203.06557 0,1.95225 0.83395,0.62679"
     id="path4196"
     inkscape:connector-curvature="0"
     sodipodi:nodetypes="ccc" />
  <path
     style="fill:none;fill-rule:evenodd;stroke:#000000;stroke-width:0.60000002;stroke-linecap:butt;stroke-linejoin:miter;stroke-miterlimit:4;stroke-dasharray:none;stroke-opacity:1"
     d="m 143.57425,209.01246 2.22135,1.65294 1.25856,2.57977"
     id="path4198"
     inkscape:connector-curvature="0"
     sodipodi:nodetypes="ccc" />
  <path
     style="fill:none;fill-rule:evenodd;stroke:#000000;stroke-width:0.60000002;stroke-linecap:butt;stroke-linejoin:miter;stroke-miterlimit:4;stroke-dasharray:none;stroke-opacity:1"
     d="m 148.49071,204.66922 -3.03072,-0.5578 -2.18151,0.27891 -1.84589,0"
     id="path4200"
     inkscape:connector-curvature="0"
     sodipodi:nodetypes="cccc" />
  <path
     style="fill:none;fill-rule:evenodd;stroke:#000000;stroke-width:0.60000002;stroke-linecap:butt;stroke-linejoin:miter;stroke-miterlimit:4;stroke-dasharray:none;stroke-opacity:1"
     d="m 141.26478,210.45624 -0.0839,1.67335 2.26541,1.88252"
     id="path4202"
     inkscape:connector-curvature="0" />
  <path
     style="fill:none;fill-rule:evenodd;stroke:#000000;stroke-width:0.60000002;stroke-linecap:butt;stroke-linejoin:miter;stroke-miterlimit:4;stroke-dasharray:none;stroke-opacity:1"
     d="m 130.60896,260.23861 -1.51027,3.90449 -3.85959,2.23115 -6.54452,0.2789 -4.86644,-2.3706 -2.85274,-3.48615 -1.51028,-5.43842 -2.51711,-2.09169 1.00685,-3.06782 -3.52398,-0.41835 -1.51027,-4.32283 0.67123,-2.92838 0.50343,-0.83668 -2.51712,-1.67336 -0.16782,-3.3467 2.01371,-2.51005 -0.50343,-3.06782 -0.33562,-2.09169 1.00685,-1.95225 -0.50342,-3.20727 1.51027,-1.81279 -0.16781,-2.51005 2.34932,-2.09169 -0.16781,-3.20727 2.51712,-1.67337 0.16781,-3.6256 2.68493,-2.51003 5.03424,-0.69723 2.68493,1.39447 1.762,-1.53392 2.68493,0.48806 1.17465,0.83668 2.0976,2.44032 1.76198,2.44031 0.0839,1.32474 2.51713,-0.62751 1.67808,0.90641 1.51026,1.39446 1.09076,-0.97613 1.84589,-0.20917 1.8459,0.83668 1.09075,1.04584 1.27954,-0.69722 2.83177,0.29633 1.34246,0.12201 0.67123,1.06329 0.92294,-1.41191 1.38443,-0.87154 2.55907,-0.10459 2.01369,0.76696 0.58733,-1.18529 1.00686,-0.83668 2.60102,-0.48807 4.1113,0.9064 0.75514,-1.32474 1.76198,-1.32474 2.34932,-0.41833 2.43322,1.04585 1.25856,-1.39447 1.67808,-1.32474 1.67808,-1.25502 1.84589,0.13944 0.58733,-1.39445 2.43322,-0.69725 2.43323,0.41835 0.92293,-1.95225 1.9298,-1.74307 2.26541,-1.81281 3.44007,-1.67337 2.68492,-1.32473 3.69179,0.69724 1.25856,2.7192 0.75513,1.39447 1.9298,2.1614 0,3.20727 -1.00685,2.51004 1.67808,1.53391 -0.0839,2.85866 -0.0839,2.37058 -1.61516,1.84765 1.11173,2.12657 0.33561,2.9981 -2.0976,1.8128 0.67123,1.39447 0.67124,2.30086 -0.75514,3.48616 0,1.11558 1.42638,1.60362 0.25171,2.44032 -2.51713,3.41643 0.50343,2.64949 0.0839,2.64948 -2.26541,2.30087 0.41952,2.64948 -0.58733,2.64948 -1.30771,0.93529 -0.78989,2.20226 -2.34931,2.7192 -1.00685,1.53392 -2.34932,3.97422 -1.42637,2.09168 -2.1815,2.02198 -3.35616,1.88253 -3.69179,1.25501 -7.38356,1.11559 -4.78253,0.3486 -5.03424,-0.48806 -3.05022,-1.60363 1.45154,-1.81502 2.05716,-3.10645 3.11463,-1.16063 0.20169,-2.52696 2.6019,1.28812 2.26541,0.9064 1.42637,-1.18529 -0.1678,-1.39447 0.75513,-0.83668 2.26541,-0.76694 0.92295,-1.39446 2.51712,-0.34864 0.58732,-2.16141 -0.93839,-0.31811 0.3265,-1.19115 0.0566,-0.77077 0.72306,-1.06668 1.09075,-1.04585 2.26541,-1.81279 -0.66192,-2.1572 0.40512,-1.07473 2.3544,-0.0452 4.28928,-2.06706 2.62053,-2.04239 0.91277,-2.08322 1.49077,-2.17411 -0.75513,-3.27699 -0.58732,-1.53391 1.17466,-2.71922 0.41952,-6.90259 -1.42638,-2.78892 -1.59418,-0.9064 -3.18836,-0.20918 1.9298,-1.74307 1.09075,-2.37059 -0.58732,-3.277 -1.17466,-2.02196 -0.58734,1.32473 -1.92979,0.48806 -0.86001,2.266 -1.82493,1.37703 -3.96446,1.83026 -2.622,1.89994 -2.47517,0.15687 -2.16053,-0.43576 -0.0629,0.0697 -1.2166,1.69079 -3.77568,0.27888 -1.51028,1.39446 -3.52398,1.1853 -3.77568,0.0697 -1.76198,1.11557 -2.43322,0.34861 -1.34247,-0.34861 -1.17465,0.90641 -2.60103,0.55777 -1.59418,-0.34861 -2.26541,1.32473 -2.51713,-0.13944 -2.68493,-1.32473 -2.43321,0.20916 -3.27227,-1.11558 -1.34246,-0.41832 -2.26541,0.27889 -2.93664,-0.97613 -2.26541,-1.04585 -1.25857,-1.8128 -0.92294,-1.1853 -2.09761,-0.13943 0,-1.30732 -0.83904,0.47063 0.1678,1.95225 0.25172,2.9981 -0.58733,1.32473 0.0839,2.23114 -0.75514,1.04586 -0.33561,1.74308 0.58732,1.53392 -1.00685,1.32473 1.00685,1.25502 0.16781,2.16142 -0.0839,1.04584 0.83904,0.97613 1.84589,0.55778 1.00685,1.18531 0.67123,1.5339 0.16781,1.74308 2.18151,0.20916 1.59417,1.46419 -0.0839,2.57976 0,1.67337 2.43322,-0.13945 2.0976,2.02197 0.83904,2.37059 -0.16781,2.16141 -0.83903,1.67336 z"
     id="C18"
     inkscape:connector-curvature="0"
     inkscape:label="#path4204"
     sodipodi:nodetypes="ccccccccccccccccccccccccccccccccccccccccccccccccccccccccccccccccccccccccccccccccccccccccccccccccccccccccccccccccccccccccccccccccccccccccccccccccccccccccccccccccccccccccccccccccccccccccccccccccccccccccccccc" />
  <path
     style="fill:none;fill-rule:evenodd;stroke:#000000;stroke-width:0.60000002;stroke-linecap:butt;stroke-linejoin:miter;stroke-miterlimit:4;stroke-dasharray:none;stroke-opacity:1"
     d="m 118.40528,231.74354 0.39417,-1.7648 0.73417,-1.04586 -0.0839,-2.26599 0.56635,-1.34219 -0.29367,-3.60817 0.81807,-0.43577 2.0137,0.12201 2.20249,3.01554 2.43062,1.09485 2.70849,0.92713 2.28639,-0.29633 4.61472,1.53391 2.43322,-0.19174 2.78983,1.34217 2.37028,0.13944 2.30736,-1.37703 1.61515,0.36605 2.58006,-0.54036 1.19562,-0.88897 1.46833,0.34862 2.22346,-0.34862 1.88783,-1.18529 3.48204,-0.0348 3.98544,-1.28988 1.34246,-1.32475 3.73373,-0.24402 1.30052,-1.77795 2.1815,0.48807 2.39127,-0.20918 2.68493,-1.88253 3.9435,-1.84767 1.84588,-1.3596 0.881,-2.26601 1.88785,-0.47934 0.58732,-1.35089 1.17466,2.05684 0.58733,3.25955 -1.17466,2.44032 -1.84737,1.66526 3.24917,0.22958 1.56661,0.92472 1.38188,2.74983 -0.42417,6.91354 -1.18187,2.74311 0.6191,1.52969 0.74794,3.28969 -1.46831,2.09169 -0.881,2.09169 -2.72688,2.09171 -4.1952,2.02197 -2.39127,0.0697 -1.0488,2.61463 -0.9649,0.90639 -1.46833,0.55779 -1.67087,0.023 0.16057,0.10389 0.9649,0.77964 0.12585,1.39446 0.0839,1.01099 -0.0615,0.52715 -0.31613,1.21594 -2.19889,2.83822 -0.89117,1.39271 -2.22556,0.71941 -3.24259,0.10459 -2.43322,-0.4532 -1.9298,-0.48807 0.62928,1.98711 -0.12585,2.61463 -2.81079,1.01097 0.12586,0.0697 -0.22004,-0.0486 -3.30516,0.92902 -5.22097,-0.0986 -5.22097,0 -6.5262,0.2958 -3.20378,-1.57764 -2.61048,-1.67627 -1.77987,-1.38045 c 0,0 -2.18566,-0.79007 -1.71843,-0.636 0.3282,0.13512 -0.48415,-0.18181 -1.08548,-0.40481 -0.26708,-0.099 -0.5408,-0.20385 -0.76709,-0.29897 -0.0649,-0.0273 -0.0769,0.058 -0.0769,0.058 l 0.68079,-1.80972 1.08233,-1.14786 0.87256,-1.73754 0.18159,-2.13441 -0.85518,-2.35504 -2.13585,-2.03281 -2.39055,0.14341 0.0102,-2.23725 2.34562,-0.0989 1.77987,1.13394 1.72054,0.54232 0.53396,-0.54232 -2.2545,-1.77488 -1.0086,-2.31718 -2.13584,0.59162 -0.93445,0.38213 -1.57222,-1.35581 -2.19518,-0.27121 -0.19281,-1.76253 -0.62297,-1.45441 -1.02343,-1.18324 -1.88369,-0.59161 -0.80095,-0.93674 0.0764,-1.02218 -0.16533,-2.20708 0.94926,-1.38045 -1.06792,-1.33115"
     id="C17"
     inkscape:connector-curvature="0"
     sodipodi:nodetypes="cccccccccccccccccccccccccccccccccccccccccccccccccccccccccccccccccccccccccccccccccsscccccccccccccccccccccccccccc"
     inkscape:label="#path4208" />
  <path
     style="fill:none;fill-rule:evenodd;stroke:#000000;stroke-width:0.60000002;stroke-linecap:butt;stroke-linejoin:miter;stroke-miterlimit:4;stroke-dasharray:none;stroke-opacity:1"
     d="m 161.23395,266.93203 -2.89469,0.80181 -10.99144,-0.13943 -2.43321,0.20916 -0.54537,1.67337 0.0839,2.33571 9.73287,-0.20917 -0.16782,-1.01099 0.0839,-0.87153 1.76199,1.22016 1.81623,0.9557 1.33018,-1.6878 z"
     id="C19"
     inkscape:connector-curvature="0"
     inkscape:label="#path4210"
     sodipodi:nodetypes="ccccccccccccc" />
  <path
     style="fill:none;fill-rule:evenodd;stroke:#000000;stroke-width:0.60000002;stroke-linecap:butt;stroke-linejoin:miter;stroke-miterlimit:4;stroke-dasharray:none;stroke-opacity:1"
     d="m 144.45798,271.83061 0.0839,0.79305 0.35598,1.1586 0.4153,1.47906 0.9289,1.2318 0.11954,1.29557 7.40087,-0.0288 -0.28945,-0.92827 0.0674,-1.12724 0.6721,-0.93599 0.20765,-0.98605 -0.0297,-1.08462 -0.20976,-1.08465 z"
     id="C20"
     inkscape:connector-curvature="0"
     inkscape:label="#path4212"
     sodipodi:nodetypes="cccccccccccccc" />
  <path
     style="fill:none;fill-rule:evenodd;stroke:#000000;stroke-width:0.60000002;stroke-linecap:butt;stroke-linejoin:miter;stroke-miterlimit:4;stroke-dasharray:none;stroke-opacity:1"
     d="m 146.37784,277.74935 -0.49833,1.07049 0,1.46418 0,1.77794 0.50342,1.84768 0.88099,1.77793 0.83905,1.15045 5.45376,-0.1046 0.71319,-1.28988 0.79708,-1.6385 0.0419,-1.88253 -0.1678,-1.49904 -0.41953,-1.60363 -0.71678,-1.08792 z"
     id="C21"
     inkscape:connector-curvature="0"
     inkscape:label="#path4214"
     sodipodi:nodetypes="ccccccccccccccc" />
  <path
     style="opacity:0.98999999;fill:none;fill-rule:evenodd;stroke:#000000;stroke-width:0.60000002;stroke-linecap:butt;stroke-linejoin:miter;stroke-miterlimit:4;stroke-dasharray:none;stroke-opacity:1"
     d="m 190.31902,188.96385 -0.0526,-1.85992 2.2196,-1.86357 3.34038,-0.47708 2.57712,1.56873 1.34245,3.34671 -1.51026,3.62561 -2.18151,2.64948 -1.61876,1.39446 -1.84079,-0.33593 -1.82132,0.86061 -0.41021,0.24228 -1.77639,-0.69723 -0.34579,-2.21991 0.63226,-1.34867 1.13991,-2.28818 0.37968,-0.82822 0,-0.56696 z"
     id="C26.1"
     inkscape:connector-curvature="0"
     sodipodi:nodetypes="ccccccccccccccccccc"
     inkscape:label="#path4216" />
  <path
     style="fill:none;fill-rule:evenodd;stroke:#000000;stroke-width:0.60000002;stroke-linecap:butt;stroke-linejoin:miter;stroke-miterlimit:4;stroke-dasharray:none;stroke-opacity:1"
     d="m 127.84013,225.72562 -1.17466,2.44031 -1.25856,2.92837 -0.41953,4.11367 0.92295,2.92838 1.9298,2.7192 0,0"
     id="path4218"
     inkscape:connector-curvature="0" />
  <path
     style="fill:none;fill-rule:evenodd;stroke:#000000;stroke-width:0.60000002;stroke-linecap:butt;stroke-linejoin:miter;stroke-miterlimit:4;stroke-dasharray:none;stroke-opacity:1"
     d="m 133.04217,226.42285 -0.67123,2.16142 -0.50342,2.37059 -0.33562,1.67337 1.34247,1.88252 3.35616,-0.2789 3.44007,0.0697 4.36301,1.04585 3.18837,0.97613 2.34931,1.60363 -0.58733,2.51003 -3.35617,2.02198 -4.69862,1.88252 -2.60104,0.9064 -3.52397,-1.88252"
     id="path4220"
     inkscape:connector-curvature="0" />
  <path
     style="fill:none;fill-rule:evenodd;stroke:#000000;stroke-width:0.60000002;stroke-linecap:butt;stroke-linejoin:miter;stroke-miterlimit:4;stroke-dasharray:none;stroke-opacity:1"
     d="m 138.32813,245.31784 0.33562,3.76505"
     id="path4222"
     inkscape:connector-curvature="0" />
  <path
     style="fill:none;fill-rule:evenodd;stroke:#000000;stroke-width:0.69999999;stroke-linecap:butt;stroke-linejoin:miter;stroke-miterlimit:4;stroke-dasharray:none;stroke-opacity:1"
     d="m 143.02677,238.20607 -1.17466,1.39447 -3.10446,0.55778 -4.1952,0.0697 -2.76883,2.16141 -1.42638,3.34671"
     id="path4224"
     inkscape:connector-curvature="0" />
  <path
     style="fill:none;fill-rule:evenodd;stroke:#000000;stroke-width:0.69999999;stroke-linecap:butt;stroke-linejoin:miter;stroke-miterlimit:4;stroke-dasharray:none;stroke-opacity:1"
     d="m 145.04047,239.60054 -3.21803,-0.0204"
     id="path4226"
     inkscape:connector-curvature="0"
     sodipodi:nodetypes="cc" />
  <path
     style="fill:none;fill-rule:evenodd;stroke:#000000;stroke-width:0.60000002;stroke-linecap:butt;stroke-linejoin:miter;stroke-miterlimit:4;stroke-dasharray:none;stroke-opacity:1"
     d="m 139.92231,230.25763 1.25857,-1.81281 0.1678,0.0697 0,0"
     id="path4228"
     inkscape:connector-curvature="0"
     sodipodi:nodetypes="cccc" />
  <path
     style="fill:none;fill-rule:evenodd;stroke:#000000;stroke-width:0.60000002;stroke-linecap:butt;stroke-linejoin:miter;stroke-miterlimit:4;stroke-dasharray:none;stroke-opacity:1"
     d="m 145.9634,228.09621 2.26542,0.76695 2.85274,1.1853 3.52397,1.88253 1.59418,0.76695 1.25855,2.64948"
     id="path4230"
     inkscape:connector-curvature="0" />
  <path
     style="fill:none;fill-rule:evenodd;stroke:#000000;stroke-width:0.60000002;stroke-linecap:butt;stroke-linejoin:miter;stroke-miterlimit:4;stroke-dasharray:none;stroke-opacity:1"
     d="m 158.54902,229.76957 -2.26541,3.06782"
     id="path4232"
     inkscape:connector-curvature="0" />
  <path
     style="fill:none;fill-rule:evenodd;stroke:#000000;stroke-width:0.60000002;stroke-linecap:butt;stroke-linejoin:miter;stroke-miterlimit:4;stroke-dasharray:none;stroke-opacity:1"
     d="m 161.03539,225.31864 3.02579,1.70091 1.30524,2.26788 -0.71195,3.35252 -0.35598,3.74693 -1.54256,2.6623 -2.72913,1.38044 -4.62768,-0.59162 -4.50902,-1.18323 -1.30523,-0.69023"
     id="path4234"
     inkscape:connector-curvature="0"
     sodipodi:nodetypes="cccccccccc" />
  <path
     style="fill:none;fill-rule:evenodd;stroke:#000000;stroke-width:0.60000002;stroke-linecap:butt;stroke-linejoin:miter;stroke-miterlimit:4;stroke-dasharray:none;stroke-opacity:1"
     d="m 176.24885,220.89366 -2.81367,1.88594 -0.11865,2.46508 -0.5933,1.97208 1.89853,1.47906 3.67841,0.98602 0.83062,2.07067 1.30524,1.87347 -2.13586,2.16928 -1.77987,1.67626 -0.23731,2.16928 -0.35598,2.8595 -2.84781,2.07067"
     id="path4236"
     inkscape:connector-curvature="0"
     sodipodi:nodetypes="ccccccccccccc" />
  <path
     style="fill:none;fill-rule:evenodd;stroke:#000000;stroke-width:0.69999999;stroke-linecap:butt;stroke-linejoin:miter;stroke-miterlimit:4;stroke-dasharray:none;stroke-opacity:1"
     d="m 186.72492,221.20194 -2.25452,1.08464 -1.77986,1.77486 -3.32244,0.29581"
     id="path4238"
     inkscape:connector-curvature="0" />
  <path
     style="fill:none;fill-rule:evenodd;stroke:#000000;stroke-width:0.60000002;stroke-linecap:butt;stroke-linejoin:miter;stroke-miterlimit:4;stroke-dasharray:none;stroke-opacity:1"
     d="m 188.26747,224.85027 -2.25451,1.87346 -0.11865,4.04275 0.11865,4.63435 -1.30523,1.67627 -1.18658,1.28185 -0.5933,3.64833"
     id="path4240"
     inkscape:connector-curvature="0" />
  <path
     style="fill:none;fill-rule:evenodd;stroke:#000000;stroke-width:0.60000002;stroke-linecap:butt;stroke-linejoin:miter;stroke-miterlimit:4;stroke-dasharray:none;stroke-opacity:1"
     d="m 178.64175,235.42374 2.50623,1.06173 3.44109,0.49303 0.22292,0.0174"
     id="path4242"
     inkscape:connector-curvature="0"
     sodipodi:nodetypes="cccc" />
  <path
     style="fill:none;fill-rule:evenodd;stroke:#000000;stroke-width:0.60000002;stroke-linecap:butt;stroke-linejoin:miter;stroke-miterlimit:4;stroke-dasharray:none;stroke-opacity:1"
     d="m 175.89163,242.5003 3.35781,2.8595"
     id="path4244"
     inkscape:connector-curvature="0"
     sodipodi:nodetypes="cc" />
  <path
     style="fill:none;fill-rule:evenodd;stroke:#000000;stroke-width:0.60000002;stroke-linecap:butt;stroke-linejoin:miter;stroke-miterlimit:4;stroke-dasharray:none;stroke-opacity:1"
     d="m 174.62176,228.71871 -2.49181,2.8366 -3.55975,4.43716 1.77987,2.46509"
     id="path4246"
     inkscape:connector-curvature="0"
     sodipodi:nodetypes="cccc" />
  <path
     style="fill:none;fill-rule:evenodd;stroke:#000000;stroke-width:0.60000002;stroke-linecap:butt;stroke-linejoin:miter;stroke-miterlimit:4;stroke-dasharray:none;stroke-opacity:1"
     d="m 176.04567,252.11414 -5.6956,-1.23254 -2.0172,-1.87347 -0.94926,-2.46509 1.66122,-2.85949 -1.06793,-2.36649 -3.44109,-1.38044 -1.77988,-0.88744"
     id="path4248"
     inkscape:connector-curvature="0"
     sodipodi:nodetypes="cccccccc" />
  <path
     style="fill:none;fill-rule:evenodd;stroke:#000000;stroke-width:0.60000002;stroke-linecap:butt;stroke-linejoin:miter;stroke-miterlimit:4;stroke-dasharray:none;stroke-opacity:1"
     d="m 133.15069,250.26533 2.66981,0.81347 0.94926,2.16928 -0.8306,2.56368 -0.35598,2.36649 2.8478,2.26789 3.79707,1.47905 6.88218,0.49303 4.50902,0.493 4.50901,0.0986"
     id="path4250"
     inkscape:connector-curvature="0"
     sodipodi:nodetypes="cccccccccc" />
  <path
     style="fill:none;fill-rule:evenodd;stroke:#000000;stroke-width:0.60000002;stroke-linecap:butt;stroke-linejoin:miter;stroke-miterlimit:4;stroke-dasharray:none;stroke-opacity:1"
     d="m 163.88319,261.18565 -3.02578,-1.92275 0.11865,-2.26789 -1.30524,-2.46508 -3.44109,-2.5637 -3.91572,-1.57765 -3.79707,0.1972"
     id="path4252"
     inkscape:connector-curvature="0"
     sodipodi:nodetypes="ccccccc" />
  <path
     style="fill:none;fill-rule:evenodd;stroke:#000000;stroke-width:0.60000002;stroke-linecap:butt;stroke-linejoin:miter;stroke-miterlimit:4;stroke-dasharray:none;stroke-opacity:1"
     d="m 136.76976,253.14947 1.89854,-1.57765 2.72914,-0.88743 2.49182,-2.7609 2.49183,-1.87346 3.91573,0.5916 4.39035,0.78885 0.71195,1.18323 2.96646,0 1.4239,1.57766 2.49182,0.19721 3.32244,2.8595 3.20377,2.46509 -1.18659,3.15531"
     id="path4254"
     inkscape:connector-curvature="0" />
  <path
     style="fill:none;fill-rule:evenodd;stroke:#000000;stroke-width:0.60000002;stroke-linecap:butt;stroke-linejoin:miter;stroke-miterlimit:4;stroke-dasharray:none;stroke-opacity:1"
     d="m 163.94253,243.97934 -3.55975,0.49303 -2.0172,4.33855 0,0"
     id="path4256"
     inkscape:connector-curvature="0" />
  <path
     style="fill:none;fill-rule:evenodd;stroke:#000000;stroke-width:0.60000002;stroke-linecap:butt;stroke-linejoin:miter;stroke-miterlimit:4;stroke-dasharray:none;stroke-opacity:1"
     d="m 153.85656,242.59891 -2.49182,0.78882 -4.98364,2.6542 0.992,-0.51658"
     id="path4258"
     inkscape:connector-curvature="0"
     sodipodi:nodetypes="cccc" />
  <path
     style="fill:none;fill-rule:evenodd;stroke:#000000;stroke-width:0.60000002;stroke-linecap:butt;stroke-linejoin:miter;stroke-miterlimit:4;stroke-dasharray:none;stroke-opacity:1"
     d="m 171.418,254.23411 -2.72914,1.57765"
     id="path4260"
     inkscape:connector-curvature="0" />
  <path
     style="fill:none;fill-rule:evenodd;stroke:#000000;stroke-width:0.60000002;stroke-linecap:butt;stroke-linejoin:miter;stroke-miterlimit:4;stroke-dasharray:none;stroke-opacity:1"
     d="m 141.35549,250.69583 -0.55134,1.66483 1.89853,0.98602 4.50901,0.59162 3.79708,-0.0986 2.96645,2.16927"
     id="path4262"
     inkscape:connector-curvature="0"
     sodipodi:nodetypes="cccccc" />
  <path
     style="fill:none;fill-rule:evenodd;stroke:#000000;stroke-width:0.60000002;stroke-linecap:butt;stroke-linejoin:miter;stroke-miterlimit:4;stroke-dasharray:none;stroke-opacity:1"
     d="m 160.85741,259.26289 -4.50902,1.08464 -3.79706,-0.88742 -4.865,-0.98604 -3.32243,-1.18325 -2.37317,-0.493 -0.71195,-0.98606"
     id="path4264"
     inkscape:connector-curvature="0"
     sodipodi:nodetypes="ccccccc" />
  <path
     style="fill:none;fill-rule:evenodd;stroke:#000000;stroke-width:0.60000002;stroke-linecap:butt;stroke-linejoin:miter;stroke-miterlimit:4;stroke-dasharray:none;stroke-opacity:1"
     d="m 127.87039,264.78469 -2.13585,-5.22599 -4.2717,-4.04274 -4.92431,-3.25393 -3.8564,-6.01481 -1.18659,-5.12736 -0.59329,-7.29667 0.35598,-5.3246 2.37317,-8.47989 1.77987,-3.54972"
     id="path4266"
     inkscape:connector-curvature="0"
     sodipodi:nodetypes="cccccccccc" />
  <path
     style="fill:none;fill-rule:evenodd;stroke:#000000;stroke-width:0.60000002;stroke-linecap:butt;stroke-linejoin:miter;stroke-miterlimit:4;stroke-dasharray:none;stroke-opacity:1"
     d="m 109.15204,212.59878 2.69048,2.30252 3.68741,1.66628 3.91572,1.38045 1.03976,1.84407 0.0419,-0.0174"
     id="path4268"
     inkscape:connector-curvature="0"
     sodipodi:nodetypes="cccccc" />
  <path
     style="fill:none;fill-rule:evenodd;stroke:#000000;stroke-width:0.60000002;stroke-linecap:butt;stroke-linejoin:miter;stroke-miterlimit:4;stroke-dasharray:none;stroke-opacity:1"
     d="m 119.71264,207.11397 2.50664,3.25391 5.76977,5.31227 5.45828,2.46508 7.83145,1.18324 7.1195,-0.0986 11.03522,-1.57765 9.01803,-2.56369 8.30609,-3.54973 7.47547,-4.23995 3.79707,-4.63436 0.76188,-2.13872 -0.0223,-1.63215"
     id="path4270"
     inkscape:connector-curvature="0"
     sodipodi:nodetypes="ccccccccccccc" />
  <path
     style="fill:none;fill-rule:evenodd;stroke:#000000;stroke-width:0.60000002;stroke-linecap:butt;stroke-linejoin:miter;stroke-miterlimit:4;stroke-dasharray:none;stroke-opacity:1"
     d="m 192.95149,206.82122 -0.20389,3.26207 -0.5644,4.21641 -0.56363,2.66229 -0.15192,5.45083"
     id="path4272"
     inkscape:connector-curvature="0"
     sodipodi:nodetypes="ccccc" />
  <path
     style="fill:none;fill-rule:evenodd;stroke:#000000;stroke-width:0.60000002;stroke-linecap:butt;stroke-linejoin:miter;stroke-miterlimit:4;stroke-dasharray:none;stroke-opacity:1"
     d="m 190.255,243.70819 0.0297,3.62368 -0.71195,4.23995 -1.30523,2.76089 -1.89854,4.04275 -2.37317,3.64832"
     id="path4274"
     inkscape:connector-curvature="0"
     sodipodi:nodetypes="cccccc" />
  <path
     style="fill:none;fill-rule:evenodd;stroke:#000000;stroke-width:0.60000002;stroke-linecap:butt;stroke-linejoin:miter;stroke-miterlimit:4;stroke-dasharray:none;stroke-opacity:1"
     d="m 187.94798,211.66119 4.97386,-4.71091 0.59571,-1.8585 4.04688,-1.46842 0.72039,-1.89448"
     id="path4276"
     inkscape:connector-curvature="0"
     sodipodi:nodetypes="ccccc" />
  <path
     style="fill:none;fill-rule:evenodd;stroke:#000000;stroke-width:0.60000002;stroke-linecap:butt;stroke-linejoin:miter;stroke-miterlimit:4;stroke-dasharray:none;stroke-opacity:1"
     d="m 199.41032,209.61956 -4.0274,3.06781 -3.16737,0.64495"
     id="path4278"
     inkscape:connector-curvature="0"
     sodipodi:nodetypes="ccc" />
  <path
     style="fill:none;fill-rule:evenodd;stroke:#000000;stroke-width:0.60000002;stroke-linecap:butt;stroke-linejoin:miter;stroke-miterlimit:4;stroke-dasharray:none;stroke-opacity:1"
     d="m 199.24251,218.26525 -3.69178,1.81279 -3.95398,-0.47935"
     id="path4280"
     inkscape:connector-curvature="0"
     sodipodi:nodetypes="ccc" />
  <path
     style="fill:none;fill-rule:evenodd;stroke:#000000;stroke-width:0.60000002;stroke-linecap:butt;stroke-linejoin:miter;stroke-miterlimit:4;stroke-dasharray:none;stroke-opacity:1"
     d="m 198.48737,225.27242 -2.60102,1.3596 -2.87372,-1.51648 -0.14683,0.17432"
     id="path4282"
     inkscape:connector-curvature="0"
     sodipodi:nodetypes="cccc" />
  <path
     style="fill:none;fill-rule:evenodd;stroke:#000000;stroke-width:0.60000002;stroke-linecap:butt;stroke-linejoin:miter;stroke-miterlimit:4;stroke-dasharray:none;stroke-opacity:1"
     d="m 199.0747,233.49801 -3.26716,-0.0669 -3.32651,-1.54238"
     id="path4284"
     inkscape:connector-curvature="0"
     sodipodi:nodetypes="ccc" />
  <path
     style="fill:none;fill-rule:evenodd;stroke:#000000;stroke-width:0.60000002;stroke-linecap:butt;stroke-linejoin:miter;stroke-miterlimit:4;stroke-dasharray:none;stroke-opacity:1"
     d="m 192.59882,239.53505 2.95191,1.04161 2.6256,0.40989"
     id="path4286"
     inkscape:connector-curvature="0"
     sodipodi:nodetypes="ccc" />
  <path
     style="fill:none;fill-rule:evenodd;stroke:#000000;stroke-width:0.60000002;stroke-linecap:butt;stroke-linejoin:miter;stroke-miterlimit:4;stroke-dasharray:none;stroke-opacity:1"
     d="m 190.14102,248.38566 3.89944,0.55779 2.49763,-0.30355 0.089,0.0247"
     id="path4288"
     inkscape:connector-curvature="0"
     sodipodi:nodetypes="cccc" />
  <path
     style="fill:none;fill-rule:evenodd;stroke:#000000;stroke-width:0.60000002;stroke-linecap:butt;stroke-linejoin:miter;stroke-miterlimit:4;stroke-dasharray:none;stroke-opacity:1"
     d="m 195.21511,254.80019 -3.85958,0.69724 -3.34686,-0.55779 -0.0593,0"
     id="path4290"
     inkscape:connector-curvature="0"
     sodipodi:nodetypes="cccc" />
  <path
     style="fill:none;fill-rule:evenodd;stroke:#000000;stroke-width:0.60000002;stroke-linecap:butt;stroke-linejoin:miter;stroke-miterlimit:4;stroke-dasharray:none;stroke-opacity:1"
     d="m 109.44414,255.37541 3.20935,0.4009 3.85958,-3.48615 5.03424,0.69723 3.18837,-2.23114 2.54858,0.21788"
     id="path4292"
     inkscape:connector-curvature="0"
     sodipodi:nodetypes="cccccc" />
  <path
     style="fill:none;fill-rule:evenodd;stroke:#000000;stroke-width:0.60000002;stroke-linecap:butt;stroke-linejoin:miter;stroke-miterlimit:4;stroke-dasharray:none;stroke-opacity:1"
     d="m 107.89193,250.23333 6.10401,-1.98711 5.36987,-2.0917 4.32782,-1.15641 -0.0445,-0.0616"
     id="path4294"
     inkscape:connector-curvature="0"
     sodipodi:nodetypes="ccccc" />
  <path
     style="fill:none;fill-rule:evenodd;stroke:#000000;stroke-width:0.60000002;stroke-linecap:butt;stroke-linejoin:miter;stroke-miterlimit:4;stroke-dasharray:none;stroke-opacity:1"
     d="m 104.01137,241.70966 4.78252,0.6798 3.02055,-0.83667 3.52397,-0.83669 3.83458,-1.64483"
     id="path4296"
     inkscape:connector-curvature="0"
     sodipodi:nodetypes="ccccc" />
  <path
     style="fill:none;fill-rule:evenodd;stroke:#000000;stroke-width:0.60000002;stroke-linecap:butt;stroke-linejoin:miter;stroke-miterlimit:4;stroke-dasharray:none;stroke-opacity:1"
     d="m 103.42404,234.16212 2.68492,1.11558 3.73373,-0.20918 1.17466,-0.87154 3.98545,0.66238 3.96447,-1.60364"
     id="path4298"
     inkscape:connector-curvature="0"
     sodipodi:nodetypes="cccccc" />
  <path
     style="fill:none;fill-rule:evenodd;stroke:#000000;stroke-width:0.60000002;stroke-linecap:butt;stroke-linejoin:miter;stroke-miterlimit:4;stroke-dasharray:none;stroke-opacity:1"
     d="m 103.54989,227.06779 3.39812,0.9587 4.86643,-0.41835 4.53082,1.11558 3.16738,-1.44676"
     id="path4300"
     inkscape:connector-curvature="0"
     sodipodi:nodetypes="ccccc" />
  <path
     style="fill:none;fill-rule:evenodd;stroke:#000000;stroke-width:0.60000002;stroke-linecap:butt;stroke-linejoin:miter;stroke-miterlimit:4;stroke-dasharray:none;stroke-opacity:1"
     d="m 104.47283,219.52025 2.9786,1.53392 5.87328,1.11556 3.52398,1.11558 3.02055,-0.27889"
     id="path4302"
     inkscape:connector-curvature="0"
     sodipodi:nodetypes="ccccc" />
  <path
     style="fill:none;fill-rule:evenodd;stroke:#000000;stroke-width:0.60000002;stroke-linecap:butt;stroke-linejoin:miter;stroke-miterlimit:4;stroke-dasharray:none;stroke-opacity:1"
     d="m 129.36567,213.01558 -5.13342,3.57629 -4.71961,1.39447"
     id="path4304"
     inkscape:connector-curvature="0"
     sodipodi:nodetypes="ccc" />
  <path
     style="fill:none;fill-rule:evenodd;stroke:#000000;stroke-width:0.60000002;stroke-linecap:butt;stroke-linejoin:miter;stroke-miterlimit:4;stroke-dasharray:none;stroke-opacity:1"
     d="m 135.01392,214.70936 -1.88784,3.55589 -2.51712,3.06781 -2.51713,1.53391 -3.3981,1.55134"
     id="path4306"
     inkscape:connector-curvature="0"
     sodipodi:nodetypes="ccccc" />
  <path
     style="fill:none;fill-rule:evenodd;stroke:#000000;stroke-width:0.60000002;stroke-linecap:butt;stroke-linejoin:miter;stroke-miterlimit:4;stroke-dasharray:none;stroke-opacity:1"
     d="m 140.80331,215.44143 -0.12586,3.1027 -0.67123,0.55779 -1.51028,2.23114 -0.67123,2.37058 -1.84589,1.81281 -1.84589,1.25502"
     id="path4308"
     inkscape:connector-curvature="0"
     sodipodi:nodetypes="ccccccc" />
  <path
     style="fill:none;fill-rule:evenodd;stroke:#000000;stroke-width:0.69999999;stroke-linecap:butt;stroke-linejoin:miter;stroke-miterlimit:4;stroke-dasharray:none;stroke-opacity:1"
     d="m 146.94929,216.13868 -0.23074,4.07881 -1.17466,3.6256 0,2.09171 -1.30263,2.99386"
     id="path4310"
     inkscape:connector-curvature="0"
     sodipodi:nodetypes="ccccc" />
  <path
     style="fill:none;fill-rule:evenodd;stroke:#000000;stroke-width:0.60000002;stroke-linecap:butt;stroke-linejoin:miter;stroke-miterlimit:4;stroke-dasharray:none;stroke-opacity:1"
     d="m 153.9343,214.63963 1.84589,3.06782 -0.16781,5.02007 -3.51467,3.77279 0.20765,-0.0247"
     id="path4312"
     inkscape:connector-curvature="0"
     sodipodi:nodetypes="ccccc" />
  <path
     style="fill:none;fill-rule:evenodd;stroke:#000000;stroke-width:0.60000002;stroke-linecap:butt;stroke-linejoin:miter;stroke-miterlimit:4;stroke-dasharray:none;stroke-opacity:1"
     d="m 162.16621,212.99865 1.03651,2.10716 -0.37458,1.48606 0.83904,2.6495 0.83904,2.09169 -0.7992,3.16569"
     id="path4314"
     inkscape:connector-curvature="0"
     sodipodi:nodetypes="cccccc" />
  <path
     style="fill:none;fill-rule:evenodd;stroke:#000000;stroke-width:0.60000002;stroke-linecap:butt;stroke-linejoin:miter;stroke-miterlimit:4;stroke-dasharray:none;stroke-opacity:1"
     d="m 169.37265,211.01403 2.0137,3.20726 0.16781,2.51004 -0.16781,4.04393"
     id="path4316"
     inkscape:connector-curvature="0" />
  <path
     style="fill:none;fill-rule:evenodd;stroke:#000000;stroke-width:0.49999997;stroke-linecap:butt;stroke-linejoin:miter;stroke-miterlimit:4;stroke-dasharray:none;stroke-opacity:1"
     d="m 175.95614,207.15036 2.31034,2.74808 0.50343,0.69725 0.67123,4.32283 -0.71318,4.1311"
     id="path4318"
     inkscape:connector-curvature="0"
     sodipodi:nodetypes="ccccc" />
  <path
     style="fill:none;fill-rule:evenodd;stroke:#000000;stroke-width:0.60000002;stroke-linecap:butt;stroke-linejoin:miter;stroke-miterlimit:4;stroke-dasharray:none;stroke-opacity:1"
     d="m 181.34997,205.48845 2.34931,2.23115 1.78297,1.89996 -0.0629,3.90449"
     id="path4320"
     inkscape:connector-curvature="0"
     sodipodi:nodetypes="cccc" />
  <path
     style="fill:none;fill-rule:evenodd;stroke:#000000;stroke-width:0.60000002;stroke-linecap:butt;stroke-linejoin:miter;stroke-miterlimit:4;stroke-dasharray:none;stroke-opacity:1"
     d="m 188.11715,202.50006 3.40618,0.56551 1.84589,1.39447 0.16782,0.69723"
     id="path4322"
     inkscape:connector-curvature="0"
     sodipodi:nodetypes="cccc" />
  <path
     style="fill:none;fill-rule:evenodd;stroke:#000000;stroke-width:0.60000002;stroke-linecap:butt;stroke-linejoin:miter;stroke-miterlimit:4;stroke-dasharray:none;stroke-opacity:1"
     d="m 126.74937,23.876931 -6.04109,5.298967 -1.67809,5.717301 -0.50343,6.414533 -5.20205,5.577859 -6.54451,7.948448 -0.16781,2.64948 3.02055,2.091693 3.52396,0.557787 1.34247,0.557786 -0.33562,1.812801"
     id="path4326"
     inkscape:connector-curvature="0" />
  <path
     style="fill:none;fill-rule:evenodd;stroke:#000000;stroke-width:0.60000002;stroke-linecap:butt;stroke-linejoin:miter;stroke-miterlimit:4;stroke-dasharray:none;stroke-opacity:1"
     d="m 114.66717,74.635425 -0.50342,2.649481 -1.17466,3.346714 1.00685,3.48616 3.02055,2.0917 5.53768,1.673353 5.36986,0.557787 4.36301,0.418336 2.0137,2.370595 0,2.78893 -3.18836,1.533908 -4.86644,1.39446 -6.04109,1.673355 -7.21576,2.231146 -8.05479,1.81281 -6.544521,1.25502 -8.558215,2.23115 -8.558217,1.95224 -5.70548,3.06783 -4.866441,3.06782 -2.68493,2.78893 -1.006845,2.92837 0.167806,0"
     id="path4328"
     inkscape:connector-curvature="0" />
  <path
     style="fill:none;fill-rule:evenodd;stroke:#000000;stroke-width:0.60000002;stroke-linecap:butt;stroke-linejoin:miter;stroke-miterlimit:4;stroke-dasharray:none;stroke-opacity:1"
     d="m 180.78361,23.319146 5.70548,4.183393 4.0274,4.462286 2.37866,4.848561 2.37316,7.099452 -0.71195,5.324591 -2.61048,6.113415 -4.98364,7.296656 -4.74634,6.902245 -4.74633,8.479905 0,6.507828 2.8478,5.324594 5.69559,4.930164 7.83146,3.944145 9.72997,4.141369 10.20462,3.54972 13.28974,4.14134 7.35681,2.9581 3.32243,3.15531 0.71196,1.97208"
     id="path4330"
     inkscape:connector-curvature="0" />
  <path
     style="fill:none;fill-rule:evenodd;stroke:#000000;stroke-width:0.60000002;stroke-linecap:butt;stroke-linejoin:miter;stroke-miterlimit:4;stroke-dasharray:none;stroke-opacity:1"
     d="m 126.56515,23.994927 3.20377,-1.972065 5.43299,-2.743984 10.31978,-2.108611 6.93482,-1.016968 9.55868,0.632463 7.1483,1.822711 9.38243,2.774915 3.31401,2.611539 0,0"
     id="path4332"
     inkscape:connector-curvature="0"
     sodipodi:nodetypes="cccccccccc" />
  <path
     style="fill:none;fill-rule:evenodd;stroke:#000000;stroke-width:0.60000002;stroke-linecap:butt;stroke-linejoin:miter;stroke-miterlimit:4;stroke-dasharray:none;stroke-opacity:1"
     d="m 217.36579,148.82091 -2.85273,5.02009 -1.51028,9.06401 -0.67123,14.08408 -0.33562,5.15952 -1.67807,8.22734 -2.51713,9.62181 -1.34246,9.06401 0.67123,7.80899 1.84589,11.57406 2.85274,12.27128 1.67808,8.22735 1.67808,10.31903 0.50343,12.27129"
     id="path4334"
     inkscape:connector-curvature="0" />
  <path
     style="fill:none;fill-rule:evenodd;stroke:#000000;stroke-width:0.60000002;stroke-linecap:butt;stroke-linejoin:miter;stroke-miterlimit:4;stroke-dasharray:none;stroke-opacity:1"
     d="m 84.797324,146.03199 1.342465,4.74118 3.020542,4.46229 -1.871088,14.10104 0.237323,11.2408 2.373166,9.66314 4.509017,8.4799 3.08511,9.86036 0.23732,9.07152 -1.66122,11.43801 -1.66121,10.25475 -2.61048,15.18495 0.23731,16.9598"
     id="path4336"
     inkscape:connector-curvature="0"
     sodipodi:nodetypes="ccccccccccccc" />
  <path
     inkscape:connector-curvature="0"
     id="C26.0"
     d="m 15.658816,35.939217 -0.182384,3.166 v 2.98283 l 0.729525,2.77353 1.664251,3.34915 1.823832,2.79966 2.370976,2.59038 2.553373,2.06696 3.282896,1.85775 3.305682,0.91579 3.282898,0.39247 h 3.647655 l 2.371006,-0.20931 4.035227,-1.09895 2.918066,-1.49143 2.18861,-1.49143 2.18862,-1.85764 1.45907,-1.85776 2.02904,-3.8986 1.09429,-2.79967 0.54716,-2.43338 v -3.53229 l -1.64145,-6.30585 -1.2995,-2.61649 -1.45907,-2.22407 -2.371,-2.2502 -2.18862,-1.46526 -1.823843,-1.12509 -2.006149,-1.1251 -2.393762,-0.73264 -2.918147,-0.57562 -2.553357,-0.18317 -3.282891,0.39248 -3.305724,0.73263 -2.553356,1.12512 -2.553351,1.09892 -2.918149,2.61654 -1.823805,1.85771 -1.641465,2.0409 -1.299479,2.61651 -0.911916,1.85774 z"
     style="fill:none;stroke:#000000;stroke-width:0.3981992;stroke-linecap:butt;stroke-linejoin:miter;stroke-miterlimit:4;stroke-dasharray:none;stroke-opacity:1"
     inkscape:label="#path4188" />
  <path
     inkscape:connector-curvature="0"
     id="C26.8"
     d="m 15.225273,81.312316 -0.182381,3.166004 v 2.98282 l 0.729525,2.773541 1.664251,3.349144 1.823832,2.79966 2.370976,2.590379 2.55337,2.066956 3.282899,1.85776 3.305682,0.91578 3.282899,0.39248 h 3.647653 l 2.371007,-0.20931 4.035227,-1.09895 2.918064,-1.49143 2.188612,-1.491433 2.18862,-1.85764 1.45907,-1.857757 2.02904,-3.898601 1.0943,-2.799677 0.54715,-2.433379 v -3.532296 l -1.64145,-6.305836 -1.2995,-2.616495 -1.45908,-2.224069 -2.37099,-2.250196 -2.18862,-1.465258 -1.823843,-1.125089 -2.006149,-1.125117 -2.393762,-0.732626 -2.918147,-0.575631 -2.553357,-0.183163 -3.282891,0.392481 -3.305723,0.732629 -2.553357,1.12511 -2.553354,1.098928 -2.918146,2.616548 -1.823808,1.8577 -1.641461,2.040905 -1.299479,2.616505 -0.911916,1.857743 z"
     style="fill:none;stroke:#000000;stroke-width:0.3981992;stroke-linecap:butt;stroke-linejoin:miter;stroke-miterlimit:4;stroke-dasharray:none;stroke-opacity:1"
     inkscape:label="#path4188" />
  <path
     inkscape:connector-curvature="0"
     id="C26.9"
     d="m 15.109545,128.14694 -0.182381,3.16601 v 2.98282 l 0.729521,2.77354 1.664252,3.34914 1.823835,2.79966 2.370973,2.59038 2.553374,2.06696 3.282898,1.85776 3.305682,0.91578 3.282899,0.39248 h 3.647654 l 2.371006,-0.20932 4.035228,-1.09894 2.918065,-1.49144 2.188608,-1.49142 2.18862,-1.85764 1.45908,-1.85776 2.02903,-3.8986 1.0943,-2.79968 0.54715,-2.43338 V 130.371 l -1.64145,-6.30584 -1.2995,-2.6165 -1.45908,-2.22406 -2.37099,-2.2502 -2.18862,-1.46526 -1.823841,-1.12509 -2.006148,-1.12512 -2.393763,-0.73262 -2.918146,-0.57563 -2.553358,-0.18317 -3.282891,0.39249 -3.305723,0.73262 -2.553357,1.12511 -2.553353,1.09893 -2.918147,2.61655 -1.823808,1.8577 -1.641461,2.04091 -1.299479,2.6165 -0.911916,1.85774 z"
     style="fill:none;stroke:#000000;stroke-width:0.3981992;stroke-linecap:butt;stroke-linejoin:miter;stroke-miterlimit:4;stroke-dasharray:none;stroke-opacity:1"
     inkscape:label="#path4188" />
  <path
     inkscape:connector-curvature="0"
     id="path4190"
     d="m 32.027326,78.407978 -0.113987,1.308279 0.113987,1.988539 1.367853,1.569929 1.801048,1.046604 1.550266,0.863461 1.618637,1.04658 1.345083,1.046627 1.048717,1.648419 0.501549,2.040866 -0.319168,2.224063 -1.094307,1.857742 -1.801052,1.04658 -2.00619,0.0785 -1.618671,-0.340158 -1.801021,-1.177404 -0.980311,-1.596094 -0.250779,-2.171729 0.182388,-1.962367 1.048702,-1.700764 1.413455,-1.203598 1.413478,-0.654102 2.211385,-0.784966 1.550262,-1.125117 1.162704,-1.569926 0.569957,-2.093191 -0.319171,-1.91008 -1.29949,-1.648385 -1.801052,-0.915787 -1.937804,-0.0785 -1.937832,0.6018 -1.094284,1.30823 z"
     style="fill:none;stroke:#000000;stroke-width:0.3981992;stroke-linecap:butt;stroke-linejoin:miter;stroke-miterlimit:4;stroke-dasharray:none;stroke-opacity:1" />
  <path
     id="path4223-3"
     style="fill:none;fill-rule:evenodd;stroke:#000000;stroke-width:0.3981992;stroke-linecap:butt;stroke-linejoin:miter;stroke-miterlimit:4;stroke-dasharray:none;stroke-opacity:1"
     d="m 40.881579,132.18139 c 0.272382,1.10868 0.1931,0.80095 0.188128,1.21546 -0.03162,2.64262 0.05461,1.33609 -0.02588,2.20805 l -0.03139,1.68929 -0.246483,1.67977 -0.943651,1.55367 -1.721459,1.20693 -2.214268,0.86083 c -0.849927,0.17656 -1.56237,0.49528 -2.683952,0.33111 l -2.877119,-0.81655 c 0,0 0.402588,0.0994 0.528642,-0.17688 m 0.791186,-19.20267 -1.245102,1.65543 -0.625776,2.18512 -0.127805,2.05274 0.456777,2.18512 1.504524,1.92031 1.855446,0.92703 1.788339,0.19865 2.340301,-0.34579 c 0.649854,-0.17684 1.921403,-0.51364 1.921403,-0.51364 -0.06012,-0.15409 1.552755,-0.10496 1.54015,-0.59258 -0.04663,-1.80355 -0.04787,-3.02036 0.01994,-4.44128 0.06754,1.46415 -0.0055,-3.15636 -1.114847,-4.03921 l -1.861907,-1.72166 -1.989642,-0.66215 -2.587078,0.19858 z"
     inkscape:connector-curvature="0"
     sodipodi:nodetypes="csccccccccccccccccccsscccccc" />
  <path
     inkscape:connector-curvature="0"
     id="path4190-4"
     d="m 31.989107,31.685949 1.071643,-1.840602 1.205938,-1.50578 2.135549,-0.69266 2.135525,0.0904 1.984815,1.05407 1.43208,1.89728 0.845525,2.000964 0.655741,4.483167 -0.194996,5.362265 -0.423238,3.02768 -1.283853,3.160254 -1.746915,2.43249 -2.408403,0.781706 -2.363851,-0.398656 -1.698207,-1.309811 -0.959357,-1.526564 -0.795202,-2.354549 -0.490307,-2.456196 -0.226905,-2.846382 -0.02245,-3.064215 0.175085,-2.925554 z"
     style="fill:none;stroke:#000000;stroke-width:0.44847044;stroke-linecap:butt;stroke-linejoin:miter;stroke-miterlimit:4;stroke-dasharray:none;stroke-opacity:1"
     sodipodi:nodetypes="ccccccccccccccccccccccc" />
</svg>
