<?xml version="1.0" encoding="UTF-8" standalone="no"?>
<!-- Created with Inkscape (http://www.inkscape.org/) -->

<svg
   xmlns:dc="http://purl.org/dc/elements/1.1/"
   xmlns:cc="http://creativecommons.org/ns#"
   xmlns:rdf="http://www.w3.org/1999/02/22-rdf-syntax-ns#"
   xmlns:svg="http://www.w3.org/2000/svg"
   xmlns="http://www.w3.org/2000/svg"
   xmlns:sodipodi="http://sodipodi.sourceforge.net/DTD/sodipodi-0.dtd"
   xmlns:inkscape="http://www.inkscape.org/namespaces/inkscape"
   width="300mm"
   height="300mm"
   viewBox="0 0 1062.9921 1062.9921"
   id="svg2"
   version="1.1"
   inkscape:version="0.91 r13725"
   sodipodi:docname="Level_3_C67.svg">
  <defs
     id="defs4" />
  <sodipodi:namedview
     id="base"
     pagecolor="#ffffff"
     bordercolor="#666666"
     borderopacity="1.0"
     inkscape:pageopacity="0.0"
     inkscape:pageshadow="2"
     inkscape:zoom="0.35"
     inkscape:cx="477.9845"
     inkscape:cy="507.66544"
     inkscape:document-units="px"
     inkscape:current-layer="layer1"
     showgrid="false"
     inkscape:window-width="1366"
     inkscape:window-height="705"
     inkscape:window-x="-8"
     inkscape:window-y="-8"
     inkscape:window-maximized="1" />
  <metadata
     id="metadata7">
    <rdf:RDF>
      <cc:Work
         rdf:about="">
        <dc:format>image/svg+xml</dc:format>
        <dc:type
           rdf:resource="http://purl.org/dc/dcmitype/StillImage" />
        <dc:title></dc:title>
      </cc:Work>
    </rdf:RDF>
  </metadata>
  <g
     inkscape:label="Laag 1"
     inkscape:groupmode="layer"
     id="layer1"
     transform="translate(0,10.629921)">
    <path
       style="fill:none;fill-rule:evenodd;stroke:#000000;stroke-width:1.25;stroke-linecap:butt;stroke-linejoin:miter;stroke-opacity:1;stroke-miterlimit:4;stroke-dasharray:none"
       d="m 442.74011,579.54267 13.71435,30.20145 18.14375,25.77587 26.62262,40.53761 22.19727,20.36037 20.53496,13.12494 21.6749,-13.3397 15.94815,-17.00599 19.23761,-22.53148 20.10888,-30.92709 28.20774,-43.57801 1.06684,-38.51891 -27.53206,-13.66186 -46.4358,-4.4885 -40.86641,0.36663 -38.80911,2.13687 -34.98227,4.74775 -20.23926,6.99199 z"
       id="C67.0"
       inkscape:connector-curvature="0"
       inkscape:label="#path4147"
       sodipodi:nodetypes="ccccccccccccccccccc" />
    <path
       style="fill:none;fill-rule:evenodd;stroke:#000000;stroke-width:1.25;stroke-linecap:butt;stroke-linejoin:miter;stroke-opacity:1;stroke-miterlimit:4;stroke-dasharray:none"
       d="m 262.00271,242.03318 16.2169,-30.04196 25.9469,-36.92659 49.2992,-40.68184 38.9204,-22.53147 36.97435,-15.646862 40.86642,-13.143361 34.37969,-5.63287 17.81547,-2.984023 -0.30129,31.148366 9.7301,5.63287 13.62214,3.12937 16.21683,-3.12937 3.61661,-7.54846 -0.22935,-26.912593 52.39866,9.426081 47.35315,11.265739 37.62305,16.898603 37.62307,21.90561 30.48764,25.03498 19.46021,22.53147 20.75754,34.42309 10.37878,29.4161 5.83806,18.77623 -33.59639,-13.0295 -26.14484,-10.62144 -35.77714,-9.73632 -40.36396,-6.19584 -36.23583,-6.19584 -38.98791,-2.2128 -32.1077,-3.54048 -18.80594,-3.09792 -16.51252,-10.62144 -10.09099,-11.064 -13.76044,8.85119 -15.13649,3.98305 -20.18197,5.31072 -27.97956,3.09792 -35.31847,3.09791 -23.39275,2.21281 -28.43823,3.98304 -25.2274,3.54048 -26.6036,4.86816 -19.7233,5.31072 -21.558,7.96608 -20.6407,7.52352 z"
       id="C67.1"
       inkscape:connector-curvature="0"
       inkscape:label="#path4149"
       sodipodi:nodetypes="ccccccccccccccccccccccccccccccccccccccccccccccc" />
    <path
       style="fill:none;fill-rule:evenodd;stroke:#000000;stroke-width:1.25;stroke-linecap:butt;stroke-linejoin:miter;stroke-opacity:1;stroke-miterlimit:4;stroke-dasharray:none"
       d="m 522.54951,73.954704 2.29341,-14.3832 2.52275,-14.60448 2.2934,-11.28528 5.0455,-5.089441 7.3389,-0.663839 6.88022,-0.22128 6.88022,0.44256 8.71494,2.65536 0.22934,6.41712 -0.22933,18.36624 0.68802,18.14496 0,21.685441 0.22934,7.744795 -3.21077,7.7448 -16.28319,3.3192 -13.98978,-2.65536 -9.63231,-5.97456 z"
       id="C67.7"
       inkscape:connector-curvature="0"
       sodipodi:nodetypes="ccccccccccccccccccc"
       inkscape:label="#path4151" />
    <path
       style="fill:none;fill-rule:evenodd;stroke:#000000;stroke-width:1.25;stroke-linecap:butt;stroke-linejoin:miter;stroke-opacity:1;stroke-miterlimit:4;stroke-dasharray:none"
       d="m 530.34709,33.681744 5.50418,3.09792 7.10956,1.32768 5.73352,-0.66384 7.79758,-0.88512 4.58682,-0.44256 3.89878,-4.4256"
       id="path4153"
       inkscape:connector-curvature="0"
       sodipodi:nodetypes="ccccccc" />
    <path
       id="C67.2"
       style="fill:none;fill-rule:evenodd;stroke:#000000;stroke-width:1.25;stroke-linecap:butt;stroke-linejoin:miter;stroke-opacity:1;stroke-miterlimit:4;stroke-dasharray:none"
       d="m 825.96722,265.36191 1.83473,48.6816 -6.42154,61.9584 -14.6778,49.56672 -15.59517,35.4048 -33.02506,53.99232 -32.1077,44.256 -38.52922,27.43872 -22.01671,21.24288 -18.34725,18.58752 -22.01671,21.24289 -11.2377,15.4896 -6.65087,7.74479 -5.50417,-15.93216 13.76043,-20.13648 22.01671,-34.96224 11.92572,-16.81728 0.91736,-40.27296 -17.4299,-8.40864 22.47539,-28.32384 22.01671,-34.51968 11.00835,-40.71552 5.50418,-43.37088 1.83472,-62.84352 -6.42154,-53.99232 -9.17362,-36.28992 43.11604,7.08096 36.69451,7.96608 44.95077,15.04704 z m -564.17801,-15.93216 -11.9257,34.51968 -5.5042,33.63456 1.8347,45.14112 12.8431,48.6816 24.7687,40.71552 25.6862,46.91136 39.4467,44.256 70.63683,61.07328 23.85144,23.01312 20.18198,22.128 19.47767,27.38503 8.11697,-16.21873 -10.62343,-15.37061 -11.69638,-17.92369 -13.30176,-19.03008 -13.30175,-29.65152 -0.68802,-38.94528 17.42988,-6.19584 -25.68615,-25.66848 -21.09935,-31.86432 -16.51252,-49.56672 -18.34721,-68.15424 -4.5869,-56.64768 8.2563,-51.33696 5.5042,-20.35777 -23.8514,2.65537 -31.1903,5.31072 -33.0251,8.8512 z"
       inkscape:label="#path4157"
       inkscape:connector-curvature="0"
       sodipodi:nodetypes="cccccccccccccccccccccccccccccccccccccccccccccccccccccccccccc" />
    <path
       style="fill:none;fill-rule:evenodd;stroke:#000000;stroke-width:1.25;stroke-linecap:butt;stroke-linejoin:miter;stroke-opacity:1;stroke-miterlimit:4;stroke-dasharray:none"
       d="m 385.63311,230.84223 27.06222,-4.42561 39.44659,-3.09791 34.85979,-3.54048 23.39275,-8.40864 22.47538,-9.73632 5.96286,-4.86817 6.42154,7.96609 16.51253,12.39168 18.34725,7.96607 22.0167,3.09793 25.68616,0.44255 24.76879,1.32768 18.80594,2.2128 9.17362,1.77025 8.58892,36.25738 7.1354,55.70282 -2.59469,60.39687 -5.51372,42.8724 -10.37878,40.68183 -23.35224,38.49128 -22.37924,26.28672 -9.08142,-4.38112 -44.43413,-4.69406 -43.78545,0 -27.56862,2.19056 -11.67612,0 -17.51418,2.5035 -16.86551,2.19056 -2.5947,0.93881 -24.32525,-24.4091 -22.05489,-31.60666 -17.51418,-53.19931 -15.56812,-58.20632 -2.2704,-7.82344 -4.5407,-55.70281 9.0814,-54.13813 z"
       id="C67.4"
       inkscape:connector-curvature="0"
       inkscape:label="#path4160" />
    <path
       id="C67.3"
       style="fill:none;fill-rule:evenodd;stroke:#000000;stroke-width:1.25;stroke-linecap:butt;stroke-linejoin:miter;stroke-opacity:1;stroke-miterlimit:4;stroke-dasharray:none"
       d="m 828.29458,265.81641 34.3797,20.02798 46.0558,31.9196 33.08234,25.66084 34.3797,31.29372 21.40621,18.77623 4.54077,5.00699 -12.97352,8.13637 -23.35224,17.52449 -21.40622,20.02797 -18.81153,28.16435 -21.40622,35.04897 -24.64959,40.05595 -16.8655,21.9056 -23.35225,27.53847 -24.64959,26.28673 -27.24428,18.15036 -37.62306,25.03497 -30.48765,13.76924 -27.24428,10.63986 -22.70357,5.007 -11.67611,6.88461 -16.93746,7.76323 -6.88581,5.28467 -8.76664,9.07787 -17.59288,-54.39467 12.0887,-15.10883 6.30909,-8.32509 35.67703,-35.67483 26.59562,-25.03497 38.27173,-26.91261 36.32571,-51.94756 30.48764,-48.19233 12.97347,-32.23253 14.59515,-47.87939 0.64867,-4.06818 5.18939,-53.51226 1.29735,-6.88462 -1.29735,-33.17134 0,-16.27273 z m -569.53517,-15.02099 -27.2443,13.14336 -36.3257,23.15736 -29.1904,23.15735 -36.3257,25.03498 -36.325696,36.30071 -31.1363,33.79722 26.5956,35.67483 15.568196,24.4091 21.4062,38.80421 21.4062,41.93358 30.4877,40.05597 34.3796,32.54546 46.0559,30.66785 44.1097,25.03497 43.4612,15.64686 51.24517,13.14336 34.3797,7.5105 8.10841,5.63286 8.50354,6.28257 12.00046,8.13636 23.24095,-53.92718 -7.47885,-11.83029 -4.21637,-4.39033 -9.02182,-12.49144 -31.785,-33.79721 -33.40668,-30.04197 -34.70401,-29.10316 -15.5682,-13.4563 -36.9743,-41.62064 -25.947,-48.50526 -25.6226,-40.99478 -12.9735,-49.13113 -0.6487,-43.49827 4.5407,-31.91959 9.0815,-26.59967 3.2434,-9.38811 z"
       inkscape:label="#path4164"
       inkscape:connector-curvature="0"
       sodipodi:nodetypes="ccccccccccccccccccccccccccccccccccccccccccccccccccccccccccccccccccccccccccccccc" />
    <path
       id="C67.6"
       style="fill:none;fill-rule:evenodd;stroke:#000000;stroke-width:1.25;stroke-linecap:butt;stroke-linejoin:miter;stroke-opacity:1;stroke-miterlimit:4;stroke-dasharray:none"
       d="m 459.60086,548.97821 -1.13518,2.50349 -0.64867,2.65997 -0.64868,4.06819 0.81085,2.81643 0.64866,2.03409 1.94603,2.34703 1.94602,2.03409 3.89204,1.25175 5.1894,-0.15647 3.40553,0.15647 4.37855,-2.03409 2.10818,-1.72115 1.94602,-3.28584 1.29735,-4.69407 0,-2.97289 -1.78385,-3.28584 -2.27036,-2.97291 -2.10819,-1.87762 -3.5677,-1.40822 -2.43252,0.15647 -4.05422,0.78234 -4.21638,1.09528 -3.0812,1.40822 z m 153.00982,0.51575 -1.13518,2.5035 -0.64866,2.65997 -0.64868,4.06818 0.81084,2.81643 0.64867,2.0341 1.94602,2.34703 1.94603,2.03409 3.89203,1.25175 5.18939,-0.15647 3.40554,0.15647 4.37855,-2.0341 2.10818,-1.72115 1.94602,-3.28584 1.29734,-4.69406 0,-2.9729 -1.78384,-3.28584 -2.27036,-2.9729 -2.10819,-1.87763 -3.5677,-1.40821 -2.43252,0.15646 -4.05422,0.78235 -4.21638,1.09528 -3.08119,1.40821 z"
       inkscape:label="#path4167-2"
       inkscape:connector-curvature="0" />
    <path
       style="fill:none;fill-rule:evenodd;stroke:#000000;stroke-width:1.25;stroke-linecap:butt;stroke-linejoin:miter;stroke-opacity:1;stroke-miterlimit:4;stroke-dasharray:none"
       d="m 459.93951,730.93503 18.34725,19.47264 13.76045,21.24288 6.42153,28.32384 1.83473,30.09408 3.66945,19.47265 19.26461,6.19583 22.93407,2.65536 26.60352,0 4.58681,-2.65536 3.66945,-41.60064 8.25627,-36.28992 17.42989,-31.86431 18.34725,-22.12801 -23.16341,-69.03935 -29.58495,35.40479 -11.00835,8.8512 -18.34725,10.17889 -20.64066,-14.16192 -21.82671,-20.59477 -9.36362,-14.36748 z"
       id="C67.5"
       inkscape:connector-curvature="0"
       inkscape:label="#path4185"
       sodipodi:nodetypes="cccccccccccccccccccccc" />
    <path
       style="fill:none;fill-rule:evenodd;stroke:#000000;stroke-width:1.25;stroke-linecap:butt;stroke-linejoin:miter;stroke-opacity:1;stroke-miterlimit:4;stroke-dasharray:none"
       d="m 62.262814,405.65343 -12.8431,23.01312 12.8431,11.50656 14.2191,16.81728 14.2191,23.45568 13.301796,26.5536 16.9711,31.42176 13.7605,28.7664 18.806,25.22592 17.4299,20.35776 27.5208,24.78336 37.1532,23.01312 35.7772,19.9152 43.116,19.03008 46.7855,14.16192 32.1077,9.29376 34.85978,7.52352 25.22748,10.17888 14.21912,14.60448 12.38439,22.128 7.33891,23.01312 5.50418,30.53664 0.91736,43.37089 1.83473,50.00928 -1.83473,63.72872 1.37604,7.96601 6.88022,-0.44249 2.2934,-7.96611 0.45869,-30.97916 0.91736,-34.96233 0,-40.71553 -2.29341,-32.74943"
       id="path4187"
       inkscape:connector-curvature="0" />
    <path
       style="fill:none;fill-rule:evenodd;stroke:#000000;stroke-width:1.25;stroke-linecap:butt;stroke-linejoin:miter;stroke-opacity:1;stroke-miterlimit:4;stroke-dasharray:none"
       d="m 503.05556,992.9306 10.09098,-9.29376 8.71495,-4.86812 10.09099,-3.09798 12.84308,-2.21273 12.3844,2.21273 12.38439,6.19587 5.96286,6.19587 5.0455,6.19578 5.04549,3.54047 7.20795,-0.33516 1.29734,-10.01393 -5.18939,-45.06306 -3.89203,-55.7028 0.64867,-32.54547 5.18939,-35.67484 6.48673,-27.53847 6.48674,-21.9056 12.97346,-22.53148 13.62214,-15.02099 31.785,-15.02098 18.81153,-3.12937 14.91949,0 50.19145,-19.55659 46.7855,-27.43872 48.62022,-38.06016 42.19868,-50.45184 31.19034,-47.79648 19.26461,-35.4048 12.84308,-26.5536 18.34725,-21.24288 21.09935,-20.35776 19.2646,-9.73632 2.7521,-1.77025 -6.6509,-17.03855"
       id="path4189"
       inkscape:connector-curvature="0" />
    <path
       style="fill:none;fill-rule:evenodd;stroke:#000000;stroke-width:1.25;stroke-linecap:butt;stroke-linejoin:miter;stroke-opacity:1;stroke-miterlimit:4;stroke-dasharray:none"
       d="m 576.90325,855.2944 0,23.89824 -0.45868,31.86432 0,35.40476 2.29341,24.34089 3.19233,18.14494 3.22921,7.52352 5.50417,1.32766"
       id="path4191"
       inkscape:connector-curvature="0" />
    <path
       style="fill:none;fill-rule:evenodd;stroke:#000000;stroke-width:1.25;stroke-linecap:butt;stroke-linejoin:miter;stroke-opacity:1;stroke-miterlimit:4;stroke-dasharray:none"
       d="m 273.67891,238.27794 11.0274,-19.40211 14.9195,-19.4021 19.4602,-26.9126 17.5142,-18.15036 9.7301,-8.13636"
       id="path4193"
       inkscape:connector-curvature="0" />
    <path
       style="fill:none;fill-rule:evenodd;stroke:#000000;stroke-width:1.25;stroke-linecap:butt;stroke-linejoin:miter;stroke-opacity:1;stroke-miterlimit:4;stroke-dasharray:none"
       d="m 288.59831,235.14857 12.3249,-23.78323 15.5681,-21.90561 22.0548,-27.53846 18.8116,-20.02798 19.4602,-15.64686"
       id="path4195"
       inkscape:connector-curvature="0" />
    <path
       style="fill:none;fill-rule:evenodd;stroke:#000000;stroke-width:1.25;stroke-linecap:butt;stroke-linejoin:miter;stroke-opacity:1;stroke-miterlimit:4;stroke-dasharray:none"
       d="m 494.87647,84.312845 -8.43276,8.136368"
       id="path4197"
       inkscape:connector-curvature="0" />
    <path
       style="fill:none;fill-rule:evenodd;stroke:#000000;stroke-width:1.25;stroke-linecap:butt;stroke-linejoin:miter;stroke-opacity:1;stroke-miterlimit:4;stroke-dasharray:none"
       d="m 454.01005,146.27441 -9.73011,26.9126 -4.54071,18.77623"
       id="path4199"
       inkscape:connector-curvature="0" />
    <path
       style="fill:none;fill-rule:evenodd;stroke:#000000;stroke-width:1.25;stroke-linecap:butt;stroke-linejoin:miter;stroke-opacity:1;stroke-miterlimit:4;stroke-dasharray:none"
       d="m 498.11983,89.945715 -18.16286,18.150355 -7.78407,22.53148 -9.08143,37.55246 -2.5947,33.17134"
       id="path4201"
       inkscape:connector-curvature="0" />
    <path
       style="fill:none;fill-rule:evenodd;stroke:#000000;stroke-width:1.25;stroke-linecap:butt;stroke-linejoin:miter;stroke-opacity:1;stroke-miterlimit:4;stroke-dasharray:none"
       d="m 422.22505,209.48772 1.29735,-20.65385 5.83806,-25.03498 11.67611,-20.02798"
       id="path4203"
       inkscape:connector-curvature="0" />
    <path
       style="fill:none;fill-rule:evenodd;stroke:#000000;stroke-width:1.25;stroke-linecap:butt;stroke-linejoin:miter;stroke-opacity:1;stroke-miterlimit:4;stroke-dasharray:none"
       d="m 404.0622,206.35835 7.1354,-25.03498 9.7301,-21.27972 12.32479,-18.77624 17.51419,-23.15735 16.86551,-13.14336 0.64867,-0.62588"
       id="path4205"
       inkscape:connector-curvature="0" />
    <path
       style="fill:none;fill-rule:evenodd;stroke:#000000;stroke-width:1.25;stroke-linecap:butt;stroke-linejoin:miter;stroke-opacity:1;stroke-miterlimit:4;stroke-dasharray:none"
       d="m 392.38611,193.21499 5.18935,-23.78323 12.3248,-20.02798 14.2708,-22.53148 27.24429,-26.28672"
       id="path4207"
       inkscape:connector-curvature="0" />
    <path
       style="fill:none;fill-rule:evenodd;stroke:#000000;stroke-width:1.25;stroke-linecap:butt;stroke-linejoin:miter;stroke-opacity:1;stroke-miterlimit:4;stroke-dasharray:none"
       d="M 469.5782,96.204458 481.25433,83.686971"
       id="path4209"
       inkscape:connector-curvature="0" />
    <path
       style="fill:none;fill-rule:evenodd;stroke:#000000;stroke-width:1.25;stroke-linecap:butt;stroke-linejoin:miter;stroke-opacity:1;stroke-miterlimit:4;stroke-dasharray:none"
       d="m 378.11531,201.35135 8.4327,-24.4091 10.37877,-20.65385 5.18939,-11.26574"
       id="path4211"
       inkscape:connector-curvature="0" />
    <path
       style="fill:none;fill-rule:evenodd;stroke:#000000;stroke-width:1.25;stroke-linecap:butt;stroke-linejoin:miter;stroke-opacity:1;stroke-miterlimit:4;stroke-dasharray:none"
       d="m 319.73461,217.62408 13.6221,-27.53847 16.2169,-24.40909 16.8655,-21.27974 24.6496,-24.4091"
       id="path4213"
       inkscape:connector-curvature="0" />
    <path
       style="fill:none;fill-rule:evenodd;stroke:#000000;stroke-width:1.25;stroke-linecap:butt;stroke-linejoin:miter;stroke-opacity:1;stroke-miterlimit:4;stroke-dasharray:none"
       d="m 303.51781,229.5157 12.3248,-24.4091 9.7301,-16.27273 9.0814,-13.76924"
       id="path4215"
       inkscape:connector-curvature="0" />
    <path
       style="fill:none;fill-rule:evenodd;stroke:#000000;stroke-width:1.25;stroke-linecap:butt;stroke-linejoin:miter;stroke-opacity:1;stroke-miterlimit:4;stroke-dasharray:none"
       d="m 326.87011,224.5087 7.784,-18.77623 11.0275,-20.65386"
       id="path4217"
       inkscape:connector-curvature="0" />
    <path
       style="fill:none;fill-rule:evenodd;stroke:#000000;stroke-width:1.25;stroke-linecap:butt;stroke-linejoin:miter;stroke-opacity:1;stroke-miterlimit:4;stroke-dasharray:none"
       d="m 343.08691,205.73247 9.7301,-21.27973 16.2168,-27.53846 19.4602,-22.53149 10.3788,-13.76923"
       id="path4219"
       inkscape:connector-curvature="0" />
    <path
       style="fill:none;fill-rule:evenodd;stroke:#000000;stroke-width:1.25;stroke-linecap:butt;stroke-linejoin:miter;stroke-opacity:1;stroke-miterlimit:4;stroke-dasharray:none"
       d="m 358.65511,202.6031 7.1354,-26.9126 14.2708,-17.52448 12.3248,-19.40211 10.37873,-15.02098 9.73011,-10.01399 12.32479,-8.76224"
       id="path4221"
       inkscape:connector-curvature="0" />
    <path
       style="fill:none;fill-rule:evenodd;stroke:#000000;stroke-width:1.25;stroke-linecap:butt;stroke-linejoin:miter;stroke-opacity:1;stroke-miterlimit:4;stroke-dasharray:none"
       d="m 365.79051,213.24296 3.892,-18.77623 8.4328,-25.03497 14.9194,-16.8986 12.32483,-18.15037 13.62214,-15.64685 7.78408,-7.5105"
       id="path4223"
       inkscape:connector-curvature="0" />
    <path
       style="fill:none;fill-rule:evenodd;stroke:#000000;stroke-width:1.25;stroke-linecap:butt;stroke-linejoin:miter;stroke-opacity:1;stroke-miterlimit:4;stroke-dasharray:none"
       d="m 351.51961,215.12059 1.9461,-13.14336"
       id="path4225"
       inkscape:connector-curvature="0" />
    <path
       style="fill:none;fill-rule:evenodd;stroke:#000000;stroke-width:1.25;stroke-linecap:butt;stroke-linejoin:miter;stroke-opacity:1;stroke-miterlimit:4;stroke-dasharray:none"
       d="m 502.01187,94.952709 -11.02745,20.653851 -7.78408,21.27973 -3.24337,32.54547 0.64868,31.29372"
       id="path4227"
       inkscape:connector-curvature="0" />
    <path
       style="fill:none;fill-rule:evenodd;stroke:#000000;stroke-width:1.25;stroke-linecap:butt;stroke-linejoin:miter;stroke-opacity:1;stroke-miterlimit:4;stroke-dasharray:none"
       d="m 492.28177,196.34436 0.64868,-28.16435 6.48673,-28.79022 5.18939,-19.40211 3.89204,-11.89161"
       id="path4229"
       inkscape:connector-curvature="0" />
    <path
       style="fill:none;fill-rule:evenodd;stroke:#000000;stroke-width:1.25;stroke-linecap:butt;stroke-linejoin:miter;stroke-opacity:1;stroke-miterlimit:4;stroke-dasharray:none"
       d="m 486.44371,152.53316 7.13541,-26.28673 7.13541,-16.27274"
       id="path4231"
       inkscape:connector-curvature="0" />
    <path
       style="fill:none;fill-rule:evenodd;stroke:#000000;stroke-width:1.25;stroke-linecap:butt;stroke-linejoin:miter;stroke-opacity:1;stroke-miterlimit:4;stroke-dasharray:none"
       d="m 511.0933,191.33736 -1.94602,-36.30071 3.24337,-21.27973 1.29734,-19.40211"
       id="path4233"
       inkscape:connector-curvature="0" />
    <path
       style="fill:none;fill-rule:evenodd;stroke:#000000;stroke-width:1.25;stroke-linecap:butt;stroke-linejoin:miter;stroke-opacity:1;stroke-miterlimit:4;stroke-dasharray:none"
       d="m 526.01279,192.58911 1.94602,-28.16434 1.94601,-30.66785 0,-19.40211"
       id="path4235"
       inkscape:connector-curvature="0" />
    <path
       style="fill:none;fill-rule:evenodd;stroke:#000000;stroke-width:1.25;stroke-linecap:butt;stroke-linejoin:miter;stroke-opacity:1;stroke-miterlimit:4;stroke-dasharray:none"
       d="m 586.98809,89.945715 12.32479,31.293715 8.43275,33.79722 1.29735,28.79022"
       id="path4237"
       inkscape:connector-curvature="0" />
    <path
       style="fill:none;fill-rule:evenodd;stroke:#000000;stroke-width:1.25;stroke-linecap:butt;stroke-linejoin:miter;stroke-opacity:1;stroke-miterlimit:4;stroke-dasharray:none"
       d="m 589.58278,125.62055 5.18939,32.54547 1.94601,20.02798 -1.94601,13.14336"
       id="path4239"
       inkscape:connector-curvature="0" />
    <path
       style="fill:none;fill-rule:evenodd;stroke:#000000;stroke-width:1.25;stroke-linecap:butt;stroke-linejoin:miter;stroke-opacity:1;stroke-miterlimit:4;stroke-dasharray:none"
       d="m 570.12258,92.449213 6.48674,24.409097 3.24336,31.9196 4.54071,25.03497 0,26.9126"
       id="path4241"
       inkscape:connector-curvature="0" />
    <path
       style="fill:none;fill-rule:evenodd;stroke:#000000;stroke-width:1.25;stroke-linecap:butt;stroke-linejoin:miter;stroke-opacity:1;stroke-miterlimit:4;stroke-dasharray:none"
       d="m 538.98625,121.23943 1.94603,36.30072 5.83805,25.03497"
       id="path4243"
       inkscape:connector-curvature="0" />
    <path
       style="fill:none;fill-rule:evenodd;stroke:#000000;stroke-width:1.25;stroke-linecap:butt;stroke-linejoin:miter;stroke-opacity:1;stroke-miterlimit:4;stroke-dasharray:none"
       d="m 558.44646,171.30938 2.59469,31.29372"
       id="path4245"
       inkscape:connector-curvature="0" />
    <path
       style="fill:none;fill-rule:evenodd;stroke:#000000;stroke-width:1.25;stroke-linecap:butt;stroke-linejoin:miter;stroke-opacity:1;stroke-miterlimit:4;stroke-dasharray:none"
       d="m 572.0686,151.90728 0,29.41609 1.94602,25.03498"
       id="path4247"
       inkscape:connector-curvature="0" />
    <path
       style="fill:none;fill-rule:evenodd;stroke:#000000;stroke-width:1.25;stroke-linecap:butt;stroke-linejoin:miter;stroke-opacity:1;stroke-miterlimit:4;stroke-dasharray:none"
       d="m 566.23053,113.10307 3.89205,29.41609"
       id="path4249"
       inkscape:connector-curvature="0" />
    <path
       style="fill:none;fill-rule:evenodd;stroke:#000000;stroke-width:1.25;stroke-linecap:butt;stroke-linejoin:miter;stroke-opacity:1;stroke-miterlimit:4;stroke-dasharray:none"
       d="m 549.36503,118.73594 1.94602,19.4021 1.94602,23.78323"
       id="path4251"
       inkscape:connector-curvature="0" />
    <path
       style="fill:none;fill-rule:evenodd;stroke:#000000;stroke-width:1.25;stroke-linecap:butt;stroke-linejoin:miter;stroke-opacity:1;stroke-miterlimit:4;stroke-dasharray:none"
       d="m 559.74381,126.24643 0.64867,23.15735 5.18939,25.66085"
       id="path4253"
       inkscape:connector-curvature="0" />
    <path
       style="fill:none;fill-rule:evenodd;stroke:#000000;stroke-width:1.25;stroke-linecap:butt;stroke-linejoin:miter;stroke-opacity:1;stroke-miterlimit:4;stroke-dasharray:none"
       d="m 742.6697,146.27441 19.4602,20.02797 16.21683,18.77623 11.02745,18.77624 9.73011,22.53147 5.83806,18.15036"
       id="path4255"
       inkscape:connector-curvature="0" />
    <path
       style="fill:none;fill-rule:evenodd;stroke:#000000;stroke-width:1.25;stroke-linecap:butt;stroke-linejoin:miter;stroke-opacity:1;stroke-miterlimit:4;stroke-dasharray:none"
       d="m 696.61389,118.73594 24.00091,18.15035 26.59561,26.9126 19.4602,31.29372 15.56817,28.79022 5.18938,20.65385"
       id="path4257"
       inkscape:connector-curvature="0" />
    <path
       style="fill:none;fill-rule:evenodd;stroke:#000000;stroke-width:1.25;stroke-linecap:butt;stroke-linejoin:miter;stroke-opacity:1;stroke-miterlimit:4;stroke-dasharray:none"
       d="m 672.61297,111.22544 28.54163,23.15735 24.64959,25.66086 20.75755,31.29371 12.97347,23.78323 11.67612,21.27972"
       id="path4259"
       inkscape:connector-curvature="0" />
    <path
       style="fill:none;fill-rule:evenodd;stroke:#000000;stroke-width:1.25;stroke-linecap:butt;stroke-linejoin:miter;stroke-opacity:1;stroke-miterlimit:4;stroke-dasharray:none"
       d="m 655.74746,107.4702 23.35225,21.9056 20.10888,18.77623 12.32478,21.27973 10.37878,20.65385"
       id="path4261"
       inkscape:connector-curvature="0" />
    <path
       style="fill:none;fill-rule:evenodd;stroke:#000000;stroke-width:1.25;stroke-linecap:butt;stroke-linejoin:miter;stroke-opacity:1;stroke-miterlimit:4;stroke-dasharray:none"
       d="m 729.04756,192.58911 11.02745,24.4091 1.94601,11.89161"
       id="path4263"
       inkscape:connector-curvature="0" />
    <path
       style="fill:none;fill-rule:evenodd;stroke:#000000;stroke-width:1.25;stroke-linecap:butt;stroke-linejoin:miter;stroke-opacity:1;stroke-miterlimit:4;stroke-dasharray:none"
       d="m 623.96247,96.204458 18.16285,20.653852 13.62214,19.40211 11.67613,21.27973 12.97346,28.16434 9.08143,16.27274 1.94602,16.8986"
       id="path4265"
       inkscape:connector-curvature="0" />
    <path
       style="fill:none;fill-rule:evenodd;stroke:#000000;stroke-width:1.25;stroke-linecap:butt;stroke-linejoin:miter;stroke-opacity:1;stroke-miterlimit:4;stroke-dasharray:none"
       d="m 649.26074,116.23244 26.5956,27.53847 16.86551,24.4091 10.37877,20.02798 7.13541,14.39511 3.89204,18.15036"
       id="path4267"
       inkscape:connector-curvature="0" />
    <path
       style="fill:none;fill-rule:evenodd;stroke:#000000;stroke-width:1.25;stroke-linecap:butt;stroke-linejoin:miter;stroke-opacity:1;stroke-miterlimit:4;stroke-dasharray:none"
       d="m 718.66879,197.59611 2.59469,15.02098 1.29734,12.51749"
       id="path4269"
       inkscape:connector-curvature="0" />
    <path
       style="fill:none;fill-rule:evenodd;stroke:#000000;stroke-width:1.25;stroke-linecap:butt;stroke-linejoin:miter;stroke-opacity:1;stroke-miterlimit:4;stroke-dasharray:none"
       d="m 616.82706,102.4632 14.91949,26.28672 9.08143,25.66085 11.02745,26.28672 5.18938,18.15036 0.64868,15.02099"
       id="path4271"
       inkscape:connector-curvature="0" />
    <path
       style="fill:none;fill-rule:evenodd;stroke:#000000;stroke-width:1.25;stroke-linecap:butt;stroke-linejoin:miter;stroke-opacity:1;stroke-miterlimit:4;stroke-dasharray:none"
       d="m 646.66604,144.39678 10.37877,17.52449 9.08143,16.27273 4.54071,13.76924 3.24337,10.63986 0.64867,11.89161"
       id="path4273"
       inkscape:connector-curvature="0" />
    <path
       style="fill:none;fill-rule:evenodd;stroke:#000000;stroke-width:1.25;stroke-linecap:butt;stroke-linejoin:miter;stroke-opacity:1;stroke-miterlimit:4;stroke-dasharray:none"
       d="m 609.04298,123.74293 4.54071,21.27973 6.48674,22.53147 1.94602,21.27974"
       id="path4275"
       inkscape:connector-curvature="0" />
    <path
       style="fill:none;fill-rule:evenodd;stroke:#000000;stroke-width:1.25;stroke-linecap:butt;stroke-linejoin:miter;stroke-opacity:1;stroke-miterlimit:4;stroke-dasharray:none"
       d="m 598.01553,89.945715 11.67613,24.409095 12.97346,25.03498 7.78408,28.79022 7.13541,19.40211 -1.29735,25.03497"
       id="path4277"
       inkscape:connector-curvature="0" />
    <path
       style="fill:none;fill-rule:evenodd;stroke:#000000;stroke-width:1.25;stroke-linecap:butt;stroke-linejoin:miter;stroke-miterlimit:4;stroke-dasharray:none;stroke-opacity:1"
       d="m 71.313694,787.84482 -0.584176,9.36724 0,8.81657 2.336725,8.26489 5.257625,9.91856 5.841849,8.26547 7.594337,7.71399 8.178536,6.06148 10.51526,5.50999 10.51526,2.75528 10.51527,1.102 11.68364,0 7.59436,-0.55129 12.85197,-3.30599 9.34692,-4.40809 7.01017,-4.40819 7.01018,-5.51038 4.67344,-5.51009 6.426,-11.57146 3.50513,-8.26528 1.75252,-7.16289 0,-10.46936 -5.25765,-18.73467 -4.08926,-7.71457 -4.67347,-6.61211 -7.59433,-6.61211 -7.01019,-4.40822 -5.84181,-3.30612 -6.42599,-3.30611 -7.59433,-2.20399 -9.34691,-1.65317 -8.17859,-0.55095 -10.51524,1.10201 -10.51529,2.20411 -8.17852,3.3061 -8.17854,3.30612 -9.346917,7.71422 -5.841779,5.51011 -5.257644,6.0614 -4.089283,7.7141 -2.920891,5.51012 z"
       id="C67.8"
       inkscape:connector-curvature="0"
       inkscape:label="#path4217" />
    <path
       style="fill:none;fill-rule:evenodd;stroke:#000000;stroke-width:1.25;stroke-linecap:butt;stroke-linejoin:miter;stroke-miterlimit:4;stroke-dasharray:none;stroke-opacity:1"
       d="m 125.02645,779.22592 -0.41287,3.89649 0.41287,5.84441 4.33736,4.67523 5.78309,3.11715 4.95693,2.53273 5.16349,3.1167 4.3373,3.1171 3.30464,4.87065 1.65233,6.03888 -1.0327,6.62372 -3.51118,5.4551 -5.78309,3.1171 -6.40273,0.19559 -5.16348,-0.97429 -5.78311,-3.50643 -3.09808,-4.67564 -0.82612,-6.42881 0.61961,-5.84445 3.30463,-5.06508 4.54385,-3.50702 4.54385,-1.94799 7.02235,-2.33743 4.95695,-3.31198 3.7177,-4.67567 1.8589,-6.23394 -1.03272,-5.64946 -4.13077,-4.87063 -5.78312,-2.7272 -6.1962,-0.19573 -6.19618,1.75341 -3.51118,3.89605 z"
       id="path4230"
       inkscape:connector-curvature="0"
       sodipodi:nodetypes="ccccccccccccccccccccccccccccccccc" />
    <path
       style="fill:none;fill-rule:evenodd;stroke:#000000;stroke-width:1.25;stroke-linecap:butt;stroke-linejoin:miter;stroke-miterlimit:4;stroke-dasharray:none;stroke-opacity:1"
       d="m 71.661184,918.24845 -0.574143,9.3691 0,8.81793 2.296609,8.26676 5.167381,9.92016 5.741553,8.26687 7.464009,7.71557 8.038143,6.0623 10.334784,5.51124 10.33474,2.75558 10.33479,1.10229 11.48308,0 7.46399,-0.55119 12.63137,-3.30668 9.18646,-4.40901 6.88983,-4.40901 6.88985,-5.51114 4.59325,-5.51113 6.31569,-11.57355 3.44494,-8.26675 1.72244,-7.16454 0,-10.47132 -5.16738,-18.73808 -4.01909,-7.7157 -4.59322,-6.61336 -7.46399,-6.61348 -6.88986,-4.4089 -5.74151,-3.3068 -6.31571,-3.30671 -7.46398,-2.20448 -9.18645,-1.65335 -8.03819,-0.55114 -10.33475,1.10226 -10.33479,2.20448 -8.03814,3.30671 -8.038154,3.30681 -9.186476,7.71557 -5.741524,5.51125 -5.167381,6.06231 -4.019086,7.7157 -2.870762,5.51114 z"
       id="C67.9"
       inkscape:connector-curvature="0"
       inkscape:label="#path4217-8" />
    <path
       id="path4223-9"
       style="fill:none;fill-rule:evenodd;stroke:#000000;stroke-width:1.25;stroke-linecap:butt;stroke-linejoin:miter;stroke-miterlimit:4;stroke-dasharray:none;stroke-opacity:1"
       d="m 154.91986,929.70948 c 0.82403,3.26245 0.58418,2.35699 0.56916,3.57663 -0.0957,7.77629 0.16522,3.93162 -0.0783,6.49754 l -0.095,4.97087 -0.74567,4.94292 -2.85483,4.5719 -5.20791,3.55152 -6.69882,2.53306 c -2.57126,0.51957 -4.72663,1.45743 -8.11974,0.97436 l -8.70413,-2.4028 c 0,0 1.21794,0.29246 1.5993,-0.52049 m 2.39356,-56.50614 -3.76679,4.87119 -1.89316,6.43013 -0.38665,6.04036 1.38189,6.43002 4.55163,5.65071 5.61325,2.7279 5.41025,0.58459 7.0801,-1.01754 c 1.966,-0.52038 5.81281,-1.51155 5.81281,-1.51155 -0.18187,-0.45342 4.69754,-0.30883 4.6594,-1.74364 -0.14108,-5.30711 -0.14481,-8.88773 0.0605,-13.06907 0.20435,4.30854 -0.0167,-9.28783 -3.37274,-11.88579 l -5.63279,-5.06613 -6.01926,-1.94848 -7.82667,0.58437 z"
       inkscape:connector-curvature="0"
       sodipodi:nodetypes="csccccccccccccccccccsscccccc" />
  </g>
</svg>
