<?xml version="1.0" encoding="UTF-8" standalone="no"?>
<!-- Created with Inkscape (http://www.inkscape.org/) -->

<svg
   id="svg4136"
   version="1.1"
   inkscape:version="1.2.2 (732a01da63, 2022-12-09)"
   width="700"
   height="750"
   viewBox="0 0 700 750"
   sodipodi:docname="level3_C34.svg"
   xmlns:inkscape="http://www.inkscape.org/namespaces/inkscape"
   xmlns:sodipodi="http://sodipodi.sourceforge.net/DTD/sodipodi-0.dtd"
   xmlns:xlink="http://www.w3.org/1999/xlink"
   xmlns="http://www.w3.org/2000/svg"
   xmlns:svg="http://www.w3.org/2000/svg"
   xmlns:rdf="http://www.w3.org/1999/02/22-rdf-syntax-ns#"
   xmlns:cc="http://creativecommons.org/ns#"
   xmlns:dc="http://purl.org/dc/elements/1.1/">
  <metadata
     id="metadata4142">
    <rdf:RDF>
      <cc:Work
         rdf:about="">
        <dc:format>image/svg+xml</dc:format>
        <dc:type
           rdf:resource="http://purl.org/dc/dcmitype/StillImage" />
      </cc:Work>
    </rdf:RDF>
  </metadata>
  <defs
     id="defs4140">
    <linearGradient
       inkscape:collect="always"
       xlink:href="#linearGradient5691"
       id="linearGradient4197"
       gradientUnits="userSpaceOnUse"
       gradientTransform="matrix(0.76456668,0,0,0.76456668,18.694232,38.263554)"
       x1="49.907101"
       y1="197.56871"
       x2="63.640804"
       y2="197.56871" />
    <linearGradient
       id="linearGradient5691"
       inkscape:swatch="solid">
      <stop
         style="stop-color:#000000;stop-opacity:1;"
         offset="0"
         id="stop5693" />
    </linearGradient>
  </defs>
  <sodipodi:namedview
     pagecolor="#ffffff"
     bordercolor="#666666"
     borderopacity="1"
     objecttolerance="10"
     gridtolerance="10"
     guidetolerance="10"
     inkscape:pageopacity="0"
     inkscape:pageshadow="2"
     inkscape:window-width="1920"
     inkscape:window-height="1009"
     id="namedview4138"
     showgrid="false"
     inkscape:zoom="0.93805463"
     inkscape:cx="287.2967"
     inkscape:cy="429.61251"
     inkscape:window-x="-8"
     inkscape:window-y="-8"
     inkscape:window-maximized="1"
     inkscape:current-layer="svg4136"
     inkscape:showpageshadow="2"
     inkscape:pagecheckerboard="0"
     inkscape:deskcolor="#d1d1d1" />
  <path
     id="C34.1"
     style="fill:none;fill-rule:evenodd;stroke:#000000;stroke-width:1;stroke-linecap:butt;stroke-linejoin:miter;stroke-miterlimit:4;stroke-dasharray:none;stroke-opacity:1"
     d="m 377.20366,261.85222 c -4.54806,22.69618 -13.79382,40.72169 -13.60749,68.09549 0.1137,16.70574 2.68675,33.91016 9.43538,49.26817 5.58692,12.71423 43.19195,46.23031 45.6046,70.97951 1.57382,16.14425 -2.21247,32.40696 -4.7177,48.43311 -4.24198,27.13634 -24.63052,54.03227 -17.42089,80.53504 3.72262,13.68443 26.62259,29.28719 28.82078,31.29627 4.18191,-4.28887 9.93922,-11.80657 15.50814,-17.12632 9.55933,-9.13161 20.41724,-16.79913 30.58514,-25.24786 9.50633,-7.899 19.03679,-15.77021 28.44256,-23.78869 11.98034,-10.21332 24.04235,-20.34305 35.65095,-30.977 10.71539,-9.81574 19.97226,-17.39803 30.7084,-29.80656 8.56047,-9.89394 14.86604,-20.48512 22.09101,-30.87444 3.71598,-5.34348 7.47999,-10.66077 10.93192,-16.17851 4.15697,-6.64468 8.03293,-13.46647 11.76166,-20.36058 2.1647,-4.00236 4.07541,-7.89909 6.15491,-12.18442 3.47339,-7.15779 1.82578,-16.03483 0.41348,-23.86451 -9.92698,-55.03421 -26.36814,-108.15118 -61.33031,-156.15499 -32.23403,-42.92005 -70.94433,-75.06247 -82.56,-83.50534 -12.59352,-9.74407 -27.3296,-18.34297 -44.03206,-16.70108 -17.38562,2.18711 -23.27224,14.60939 -29.87885,25.88667 -19.40346,33.12109 -15.06125,74.84686 -22.56163,112.27604 z m -78.53681,-63.62858 c -1.24641,-26.36219 -5.8171,-65.34801 -31.78386,-72.86402 -37.82902,-10.94952 -71.99766,31.03873 -98.28576,64.29912 -22.05067,27.89908 -30.12776,41.91622 -41.82994,64.71826 -4.95339,9.6518 -20.75425,59.00911 -22.6455,89.76659 -0.56516,9.19117 1.59427,18.38791 3.43163,27.41989 1.64963,8.10909 4.02403,15.84712 6.78943,23.90212 2.63463,7.67413 5.83188,15.10736 9.7944,22.16403 4.80948,8.56497 10.37771,16.80089 16.8415,24.26134 5.30055,6.11783 10.9347,12.22305 17.81274,16.60417 9.09197,5.79138 19.41011,10.23438 30.08185,12.21106 8.29575,1.53658 16.95005,0.55642 25.32848,-0.46952 11.48163,-1.40592 23.00617,-3.66409 33.79345,-7.74473 15.68052,-5.93167 30.39555,-14.41529 44.04888,-23.98729 6.24705,-4.37964 11.67958,-9.79349 17.08424,-15.13178 4.52092,-4.46537 8.65324,-9.43282 12.79459,-14.0951 19.26962,-21.69343 -0.70685,-54.45914 -3.14512,-86.01048 -3.25119,-42.07068 -18.06694,-81.81088 -20.11101,-125.04363 z"
     inkscape:label="C34.1"
     inkscape:connector-curvature="0"
     sodipodi:nodetypes="asaaaacaaassaaasaaaaaasasaaasaaaaaaaassss" />
  <path
     id="C34.3"
     style="fill:none;fill-rule:evenodd;stroke:#000000;stroke-width:1;stroke-linecap:butt;stroke-linejoin:miter;stroke-miterlimit:4;stroke-dasharray:none;stroke-opacity:1"
     d="m 425.31834,610.45981 c 11.96767,10.24132 53.58611,30.03338 82.77357,42.64931 29.18746,12.61594 64.68832,25.64981 73.90646,25.05586 10.02291,-0.6458 16.38258,-24.15946 26.919,-69.30944 9.59994,-41.13702 10.75471,-76.3212 11.79426,-117.74252 1.59309,-34.08146 1.78377,-48.02239 0.7303,-59.68357 -0.78094,-8.64446 -1.42849,-17.87882 -4.2889,-27.51402 -1.52986,3.26854 -13.89205,29.15047 -31.23455,51.91657 -8.36718,12.60266 -16.43285,25.31343 -27.3234,35.90731 -15.4045,14.84247 -24.81267,23.40396 -46.39089,41.96141 -17.94201,15.43028 -35.6651,30.62408 -54.25372,45.0929 -15.14474,11.55274 -21.38291,18.01656 -32.63213,31.66619 z M 81.319499,435.99948 c -8.257957,34.5854 -12.197758,48.15395 -17.298288,86.84554 -3.702452,28.08608 -2.322709,56.17548 -2.358861,84.34045 0.846416,15.09971 0.466148,60.56811 7.07658,65.96919 6.610432,5.40108 21.624939,-5.67609 29.878849,-12.52578 14.369221,-11.9246 29.220831,-21.9268 44.843771,-31.41872 10.12939,-6.15424 31.5694,-16.47457 31.5694,-16.47457 -2.60838,0.0888 -11.18263,-0.249 -16.62619,-2.77391 -7.87694,-3.65359 -16.0275,-8.16771 -22.39612,-14.24648 -10.47968,-10.00271 -21.50186,-22.74392 -24.81212,-35.41585 -4.97189,-19.03279 -10.87889,-44.01688 -15.473741,-58.41189 -6.97844,-21.86246 -4.31384,-43.49472 -14.40328,-65.88798 z"
     inkscape:label="C34.3"
     inkscape:connector-curvature="0"
     sodipodi:nodetypes="czzsszcaassccsazsacsassc" />
  <path
     style="fill:none;fill-rule:evenodd;stroke:#000000;stroke-width:1;stroke-linecap:butt;stroke-linejoin:miter;stroke-miterlimit:4;stroke-dasharray:none;stroke-opacity:1"
     d="m 104.12179,344.56116 c -4.77965,14.53318 -7.448006,24.14034 -10.504659,36.39003 -3.272069,13.11298 -5.410171,26.48492 -8.374372,39.67091 -1.163387,5.17523 -3.48732,12.0631 -3.69296,15.4787 10.53282,27.61935 4.87718,29.49423 14.17298,65.78666 1.98474,7.7488 9.798341,35.81484 14.149561,53.85328 4.15743,17.23506 18.37257,35.22006 34.12288,46.30021 10.46938,7.36511 21.61707,11.67938 30.94002,10.69464 30.40295,-3.21131 59.77472,-15.35785 86.44376,-29.93754 20.89036,-11.42055 43.36815,-24.1542 55.82628,-44.08701 4.70415,-7.52658 4.46058,-17.13341 5.50398,-25.88663 0.87253,-27.77017 0.30107,-54.85657 1.57259,-82.67029 0.17442,-5.00744 0.96679,-10.10997 0,-15.03097 -0.39908,-2.03131 -2.35176,-5.76602 -2.35176,-5.76602 -5.23123,5.55755 -17.57999,20.68331 -28.75301,28.26361 -21.41456,14.52867 -45.39514,28.24025 -71.26632,31.56809 -20.78755,2.67394 -34.09228,6.29311 -62.05792,-10.01661 -13.32134,-8.23053 -28.90287,-28.08981 -37.87676,-45.57156 -10.89593,-21.22602 -18.37253,-54.09429 -17.85429,-69.0395 z"
     id="C34.2"
     inkscape:connector-curvature="0"
     sodipodi:nodetypes="caacssssaaaaacaasac"
     inkscape:label="C34.2" />
  <path
     id="C34.9"
     style="font-size:33.2768px;font-family:'.Arial Hebrew Desk Interface';-inkscape-font-specification:'.Arial Hebrew Desk Interface, Normal';display:inline;fill:none;stroke:#000000;stroke-width:1;stroke-dasharray:none"
     d="m 618.93383,143.71544 q -2.7719,3.62043 -7.41057,3.62043 -4.18613,0 -6.84489,-2.65875 -2.60219,-2.71532 -2.60219,-6.78832 0,-4.35583 2.99817,-7.354 3.05474,-2.99817 7.24087,-2.99817 5.31751,0 8.42882,3.95985 3.16787,3.95985 3.16787,10.63501 0,7.24086 -3.28101,11.70984 -3.22446,4.46898 -8.99452,4.46898 -3.05473,0 -5.54378,-1.69709 -2.43247,-1.75366 -2.99817,-4.01642 l 4.80839,-0.7354 q 1.13138,2.14964 4.12955,2.14964 3.22446,0 5.03468,-2.7719 1.86678,-2.82846 1.86678,-7.5237 z m -0.90511,-5.93977 q 0,-2.88504 -1.47081,-4.52555 -1.41423,-1.64049 -3.95985,-1.64049 -2.20619,0 -3.79014,1.75363 -1.58393,1.69709 -1.58393,4.41241 0,2.37592 1.4708,3.95985 1.47081,1.52736 3.8467,1.52736 2.26278,0 3.84672,-1.52736 1.64051,-1.58393 1.64051,-3.95985 z m 15.97264,4.47502 A 21.750674,21.750674 0 0 1 612.25068,164.00135 21.750674,21.750674 0 0 1 590.5,142.25069 21.750674,21.750674 0 0 1 612.25068,120.5 a 21.750674,21.750674 0 0 1 21.75068,21.75069 z"
     inkscape:label="C34.9" />
  <path
     id="C34.8"
     style="font-size:33.2768px;font-family:'.Arial Hebrew Desk Interface';-inkscape-font-specification:'.Arial Hebrew Desk Interface, Normal';display:inline;fill:none;stroke:#000000;stroke-width:1;stroke-dasharray:none"
     d="m 606.21,80.95843 q -3.28102,-2.26276 -3.28102,-6.10946 0,-3.84672 2.77191,-5.88321 2.82845,-2.03649 6.50545,-2.03649 3.62044,0 6.44891,2.03649 2.82846,2.03649 2.82846,5.88321 0,3.8467 -3.28102,6.10946 v 0.0567 q 2.2062,1.01825 3.5073,3.05474 1.35765,1.97992 1.35765,4.35583 0,3.84672 -2.99816,6.61861 -2.99817,2.7719 -7.86314,2.7719 -5.03466,0 -7.97626,-2.7719 -2.88504,-2.82846 -2.88504,-6.61861 0,-2.37591 1.30111,-4.35583 1.35766,-2.03649 3.56385,-3.05474 z m 5.99634,-1.58393 q 1.69709,0 3.05474,-1.01824 1.41423,-1.01825 1.41423,-2.94161 0,-2.09306 -1.35766,-3.1113 -1.30108,-1.07483 -3.11131,-1.07483 -1.97992,0 -3.22444,1.13139 -1.24453,1.13138 -1.24453,3.05474 0,1.86678 1.35767,2.94161 1.41423,1.01824 3.1113,1.01824 z m 0,14.14232 q 2.14963,0 3.79014,-1.24453 1.64051,-1.24452 1.64051,-3.84671 0,-2.09306 -1.58393,-3.5073 -1.58394,-1.41423 -3.84672,-1.41423 -2.20619,0 -3.8467,1.41423 -1.58394,1.41424 -1.58394,3.5073 0,2.60219 1.64051,3.84671 1.64051,1.24453 3.79013,1.24453 z M 634.00133,82.25068 A 21.750674,21.750674 0 0 1 612.25068,104.00136 21.750674,21.750674 0 0 1 590.5,82.25068 21.750674,21.750674 0 0 1 612.25068,60.5 21.750674,21.750674 0 0 1 634.00133,82.25068 Z"
     inkscape:label="C34.8" />
  <path
     style="fill:none;stroke:#000000;stroke-width:1;stroke-dasharray:none;stroke-opacity:1"
     d="m 384.39031,275.06366 c 2.98577,3.86927 8.78113,7.9278 13.48462,12.63128 4.70349,4.70349 14.71031,10.9538 22.32612,15.00596 7.6158,4.05216 12.2308,5.49523 14.05748,6.40857 3.12718,1.56358 14.49203,3.42931 19.80608,3.12801 4.24681,-0.2408 11.7643,-3.17932 17.33104,-8.03441 5.56673,-4.8551 10.31894,-11.97953 12.6978,-20.83973 1.38551,-5.16042 0.5012,-13.0325 0.0848,-19.84323 -0.41642,-6.81072 -2.8695,-14.10282 -6.71363,-20.97694 -3.84412,-6.87415 -5.80256,-11.4321 -7.17332,-13.45379 -1.71687,-2.53214 4.40228,-8.93 6.13462,-6.94632 2.93366,3.35934 4.6907,5.29826 7.16571,8.81575 2.28781,3.27551 3.43654,5.114 5.37786,8.4952 1.2352,2.12387 2.07537,4.41564 3.1728,7.2237 -0.38644,-3.66033 0.77323,-7.04516 0.84517,-9.14169 0.16319,-4.75452 2.52509,-10.15295 5.08711,-12.12386 2.56202,-1.9709 3.77262,-1.88221 5.47076,-1.85389 0.63455,0.15864 2.95722,3.77289 2.86222,4.61714 -0.26033,2.31308 -0.82354,3.97923 -1.21403,4.9554 -1.17906,2.94768 -2.31071,6.81478 -3.05635,9.79729 -0.7093,2.83714 -1.11106,7.77294 -1.45623,11.5607 -0.34516,3.78778 0.22375,10.25911 0.7051,14.39802 0.48136,4.13891 0.18131,8.27297 -0.35446,11.4875 -0.53576,3.21452 -1.72683,7.53938 -2.63271,11.71599 -0.90592,4.1766 -1.60415,7.71955 -3.37515,11.35778 -1.17818,2.44323 -2.69466,6.3015 -4.12181,7.72864 -1.28998,1.58265 -4.21157,4.79089 -7.83388,6.1721 3.30714,0.58124 11.85561,2.51063 15.65096,2.35584 3.79533,-0.15477 6.03824,-1.37554 8.1164,-2.09453 2.07817,-0.71899 7.46245,-2.46362 9.47713,-2.73572 2.0147,-0.27209 3.28934,2.77346 3.43811,4.32827 0.14879,1.55478 0.51252,3.10856 -0.23562,4.8054 -0.74814,1.69682 -9.86991,0.94285 -11.49966,0.21476 2.98695,1.06154 7.56009,3.50245 9.40811,4.37642 1.84803,0.87393 3.14682,1.87833 4.29533,3.06479 1.72564,1.78266 3.84861,5.62438 1.37313,8.65518 -2.47547,3.03078 -5.15994,3.16433 -6.68011,1.78503 -2.82004,-2.55874 -6.70733,-4.24389 -10.92159,-4.98392 -4.21423,-0.74001 -16.39169,-0.93572 -20.09952,-0.73019 -3.70785,0.20552 -18.354,-2.19058 -22.19028,-2.05993 3.51619,3.30042 5.78394,6.42493 7.93624,9.73515 1.78861,2.92016 3.76502,5.12824 5.93583,9.3961 2.27451,4.63833 3.90877,9.53814 6.14976,14.04113 2.24098,4.50299 6.21404,7.64031 10.39185,12.0836 3.09026,3.1383 7.5483,7.51525 13.40627,10.46595 3.39414,1.57119 6.51409,3.18258 9.46377,3.5551 2.94965,0.37251 5.17147,0.30759 5.71398,0.8501 0.4988,0.49878 2.16469,9.74866 0.60299,10.46818 -1.56171,0.71951 -8.65741,-0.76006 -9.38611,-0.97778 -0.72869,-0.21771 -5.52542,-2.05543 -9.61328,-4.21923 1.55801,2.87878 6.33984,15.99257 5.128,18.41628 -1.2307,2.46141 -7.79679,3.34228 -8.48846,0.82815 -0.94058,-3.41886 -1.97269,-6.47502 -3.02138,-10.59512 -1.04869,-4.12006 -2.73416,-5.50059 -4.58643,-8.17227 -1.85224,-2.67167 -6.23447,-8.02966 -9.96351,-10.77269 -3.72904,-2.74304 -7.6661,-6.25193 -10.85548,-8.68395 2.44882,3.4605 4.36109,5.20103 5.2881,8.40467 1.18732,4.10333 0.21326,8.13931 -1.03524,9.31443 -1.60806,1.51357 -6.81826,0.23365 -10.25553,-1.83853 -1.5441,-0.93088 -2.25471,-3.39332 -2.25471,-5.11158 0,-9.77179 -0.44674,-12.87774 -2.71744,-21.96052 -1.46076,-5.84304 -9.36249,-16.93455 -13.92472,-20.64964 -2.48692,-2.02516 -6.92996,-7.30718 -10.88998,-8.00989 -5.74365,-1.01926 -28.00908,-9.60506 -38.14653,-16.10116 -7.1147,-4.55911 -16.33433,-10.10388 -22.58791,-14.24775 -6.25359,-4.14389 -10.72112,-9.70927 -16.79294,-14.78908 -6.07182,-5.07979 -10.55722,-7.36253 -16.2043,-7.03987 -6.99392,0.39962 -15.59436,14.98594 -20.51873,21.48144 -8.24456,10.87497 -14.09825,22.90709 -19.92049,30.2569 -5.82225,7.34979 -12.06722,18.54591 -15.46023,25.65913 -3.39301,7.11325 -6.34866,20.2648 -6.084,28.22518 0.26469,7.96036 1.32471,11.06149 3.18094,15.89572 1.85623,4.83423 4.83622,8.13943 7.24874,11.32601 2.41254,3.18654 7.39344,6.53842 5.7121,10.7382 -0.402,1.00414 -3.06321,5.68064 -4.77063,4.82693 -1.70741,-0.8537 -6.55645,-5.6746 -8.14838,-7.89935 -0.0246,2.84563 -0.1144,5.63868 0.35418,8.60804 0.46857,2.96936 1.85261,6.53374 3.11203,9.34669 1.25943,2.81295 2.53519,7.70937 2.53519,8.6932 0,5.51947 -4.17111,5.76091 -6.84635,5.18158 -2.67525,-0.57933 -3.53374,-4.55236 -4.57671,-7.1502 -0.71867,-1.79004 -1.73784,-6.96721 -3.95588,-12.31748 2.41916,5.56566 -0.41461,15.24055 -2.91355,16.07352 -0.95435,0.31812 -2.6563,-0.75772 -3.36429,-1.22972 -1.45202,-0.968 -2.26854,-1.75838 -2.22713,-2.92546 0.0866,-2.44245 1.13907,-4.38444 1.74132,-7.3981 0.60224,-3.01367 1.08767,-6.11476 1.52191,-11.88406 0.43421,-5.7693 -0.649,-11.57933 -1.38872,-15.9363 -0.73971,-4.35698 -1.37983,-9.3688 -2.09212,-12.94242 -0.71227,-3.57362 -0.97439,-5.28961 -1.16549,-7.54545 -1.9528,3.41103 -3.31714,7.94719 -5.60205,11.34074 -2.16652,4.42452 -10.5128,16.65352 -12.16056,16.80618 -1.64776,0.15263 -4.97187,-1.19044 -7.18071,-3.19236 -2.20881,-2.00192 -2.56967,-6.409 -1.3996,-8.41987 1.17006,-2.01087 4.56071,-7.29343 8.05034,-11.94627 1.366,-1.82132 3.55072,-6.63349 4.14348,-8.84071 1.00694,-3.7494 1.59791,-6.72472 2.945,-12.28062 -4.45665,0.38087 -6.90059,0.35816 -10.65737,0.90841 -3.75676,0.55026 -8.86077,0.72932 -12.29741,1.68767 -3.43663,0.95832 -7.12181,3.49103 -11.60489,5.48029 -4.48306,1.98926 -8.85994,5.7197 -11.78357,5.83283 -2.62459,0.1016 -5.10635,-1.95847 -5.64287,-3.99941 -0.53652,-2.04094 0.0608,-5.73168 2.3874,-7.04045 3.25607,-1.83156 4.91174,-2.7956 11.01168,-6.89979 -10.05413,5.49862 -11.86127,5.75792 -13.7378,6.15154 -2.46967,0.51804 -3.68199,0.74825 -6.15519,0.74825 -3.61481,0 -4.30506,-5.14796 -2.86934,-7.92485 1.91364,-3.70127 10.90365,-3.12232 16.12299,-3.55253 5.21934,-0.43022 10.95558,-1.78616 18.39134,-3.63211 7.43575,-1.84597 19.08889,-6.458 25.73196,-13.04142 6.06667,-6.01218 16.69751,-22.68858 18.7757,-25.95432 2.0782,-3.26573 5.83322,-11.6259 9.6996,-17.50795 3.8664,-5.88204 5.68533,-10.51545 3.55081,-14.07737 -2.13451,-3.56189 -11.54048,-7.27527 -12.93433,-7.64932 -1.39385,-0.37404 -4.30276,0.24358 -6.67577,1.25171 -2.37301,1.00814 -4.27234,1.58807 -6.2538,2.48684 -1.98143,0.89878 -3.60192,1.32517 -4.81153,2.3791 -1.12332,0.97873 -2.91589,-1.9319 -3.54943,-3.199 -0.63357,-1.26712 -1.52826,-4.27973 -1.10112,-5.56113 0.42713,-1.28141 5.2681,-4.35042 8.38247,-5.59526 3.11438,-1.24486 6.42176,-3.51194 9.97591,-4.83566 -1.00904,-2.00623 -1.86262,-2.87091 -3.88473,-4.89305 -1.51884,-1.51881 -3.92082,-3.60631 -5.20123,-4.88672 -1.28039,-1.28039 -3.39576,-2.52749 -3.98744,-3.71086 -0.28471,-0.56943 3.70454,-5.65165 4.31143,-6.25854 0.52688,-0.52688 3.23016,0.97381 6.67579,2.92064 -1.39635,-3.32129 -3.72338,-7.12781 -2.31176,-10.18076 1.38285,-2.99073 7.8218,-6.14574 9.15379,-3.20055 3.69704,8.1745 6.78566,31.47945 19.20057,31.33882 7.97637,-0.0904 13.17898,-6.80066 21.27811,-20.26743 l 2.17277,-5.02625 c 16.56675,11.91427 34.04361,19.64754 53.00204,-1.88092 z"
     id="C34.0"
     inkscape:label="C34.0" />
  <g
     inkscape:groupmode="layer"
     id="layer1"
     inkscape:label="TracheaBackground">
    <path
       style="fill:none;stroke:#000000;stroke-width:1;stroke-dasharray:none"
       d="m 262.58725,251.69482 c 2.42607,1.09419 8.75915,-0.19238 9.52555,-4.02427"
       id="path8"
       sodipodi:nodetypes="cc" />
    <path
       style="fill:none;stroke:#000000;stroke-width:1;stroke-dasharray:none"
       d="m 249.15813,287.70446 c 3.92769,0.31411 4.62125,5.96863 4.62125,9.17732"
       id="path10"
       sodipodi:nodetypes="cc" />
    <path
       style="fill:none;stroke:#000000;stroke-width:1;stroke-dasharray:none"
       d="m 194.51928,374.4491 c 2.60453,2.29174 1.92712,7.27571 0.12693,9.7889"
       id="path11"
       sodipodi:nodetypes="cc" />
    <path
       style="fill:none;stroke:#000000;stroke-width:1;stroke-dasharray:none"
       d="m 202.02453,386.05334 c 3.52988,0.32229 5.69932,6.63723 4.50897,9.01794"
       id="path12" />
    <path
       style="fill:none;stroke:#000000;stroke-width:1;stroke-dasharray:none"
       d="m 246.70435,425.96259 c -0.21517,-0.77603 -0.97344,-6.2261 -1.45868,-6.8635 -2.01986,-2.65327 -2.75301,-3.26735 -7.55169,-4.05919"
       id="path14"
       sodipodi:nodetypes="csc" />
    <path
       style="fill:none;stroke:#000000;stroke-width:1;stroke-dasharray:none"
       d="m 500.19316,418.63429 c 2.75467,-1.80577 5.50936,-1.57216 8.64354,-1.12254"
       id="path20"
       sodipodi:nodetypes="cc" />
    <path
       style="fill:none;stroke:#000000;stroke-width:1;stroke-dasharray:none"
       d="m 313.72478,33.874441 c -0.0355,8.060347 0.55113,16.268249 -0.2227,24.277665 -0.77383,8.009426 -1.16135,24.579384 -1.03346,34.656952 0.12789,10.077572 1.41049,21.799462 0.75109,33.422852 -0.65939,11.62337 1.19547,19.5608 0.57018,35.71095 -0.6253,16.15013 1.04575,-0.25554 0.79766,36.69229 -0.12931,19.25978 0.15249,29.38567 0.44776,35.47693 0.29526,6.09125 0.25966,9.75263 0.36341,13.39931 0.0272,0.95439 -0.22127,5.47279 -0.77312,6.05108"
       id="path7"
       sodipodi:nodetypes="cssssszsc" />
    <path
       style="fill:none;stroke:#000000;stroke-width:1;stroke-dasharray:none"
       d="m 364.48251,34.434281 c -0.98757,5.898221 1.45664,18.974904 0.35128,33.47658 -1.10538,14.501683 0.33731,23.944317 -0.63119,46.410749 -0.56429,13.09022 -1.72952,33.69544 -1.73767,50.84113 -0.01,19.34661 1.53356,38.7966 -0.10452,53.6866 -0.52412,6.57173 0.44441,16.52389 0.90354,19.81253 0.45914,3.28865 1.19829,8.17665 4.36373,13.01968"
       id="path21"
       sodipodi:nodetypes="csssczc" />
    <path
       style="fill:none;stroke:#000000;stroke-width:1;stroke-dasharray:none"
       d="m 281.95637,460.6368 c 1.74779,-2.40778 4.78076,-3.8441 7.86425,-3.82865"
       id="path23"
       sodipodi:nodetypes="cc" />
    <path
       style="fill:none;stroke:#000000;stroke-width:1;stroke-dasharray:none"
       d="m 291.30906,436.79629 c -1.692,-5.7578 2.99878,-8.41172 5.19726,-8.18482"
       id="path24"
       sodipodi:nodetypes="cc" />
    <path
       style="fill:none;stroke:#000000;stroke-width:1;stroke-dasharray:none"
       d="m 515.89419,341.49293 c -0.1367,-3.53617 -0.75996,-7.28992 3.36312,-8.66427 1.19812,-0.39938 2.02261,-0.56084 3.19209,-0.17101"
       id="path25" />
    <path
       style="fill:none;stroke:#000000;stroke-width:1;stroke-dasharray:none"
       d="m 470.18653,228.74711 c 3.71738,0.30605 6.10876,-3.67346 5.75291,-6.91719"
       id="path26"
       sodipodi:nodetypes="cc" />
    <path
       style="fill:none;stroke:#000000;stroke-width:1;stroke-dasharray:none"
       d="m 313.65002,46.3182 c 20.64834,-3.076004 31.44558,-5.881159 51.18587,1.521447"
       id="path27" />
    <path
       style="fill:none;stroke:#000000;stroke-width:1;stroke-dasharray:none"
       d="m 313.86738,53.273388 c 13.72832,-1.293596 15.5515,3.383401 24.71894,3.156005 9.16745,-0.227386 23.51452,-2.708364 26.54181,0.318938"
       id="path28"
       sodipodi:nodetypes="czc" />
    <path
       style="fill:none;stroke:#000000;stroke-width:1;stroke-dasharray:none"
       d="m 312.78062,63.380149 c 9.89885,-3.633457 45.22739,-3.464294 52.05527,1.412778"
       id="path29" />
    <path
       style="fill:none;stroke:#000000;stroke-width:1;stroke-dasharray:none"
       d="m 312.67195,72.726193 c 15.5444,-3.65067 36.81879,-7.837801 51.51189,-0.108676"
       id="path30"
       sodipodi:nodetypes="cc" />
    <path
       style="fill:none;stroke:#000000;stroke-width:1;stroke-dasharray:none"
       d="m 312.34592,79.79006 c 9.6645,-4.225617 20.9129,-4.307079 28.01887,-4.641769 7.10597,-0.334698 23.49805,1.806715 23.92772,4.098391"
       id="path31"
       sodipodi:nodetypes="czc" />
    <path
       style="fill:none;stroke:#000000;stroke-width:1;stroke-dasharray:none"
       d="m 312.29638,85.853385 c 14.41687,-4.022601 34.73244,-6.022386 51.85593,1.07713"
       id="path32"
       sodipodi:nodetypes="cc" />
    <path
       style="fill:none;stroke:#000000;stroke-width:1;stroke-dasharray:none"
       d="m 312.14251,92.470018 c 14.81237,-4.691352 36.12211,-7.477541 52.31756,-1.07713"
       id="path33"
       sodipodi:nodetypes="cc" />
    <path
       style="fill:none;stroke:#000000;stroke-width:1;stroke-dasharray:none"
       d="m 312.60413,100.93316 c 11.96165,-3.501012 17.27822,-5.187532 26.32395,-4.667662 9.04574,0.5199 21.41118,1.62098 25.53199,4.667662"
       id="path34"
       sodipodi:nodetypes="czc" />
    <path
       style="fill:none;stroke:#000000;stroke-width:1;stroke-dasharray:none"
       d="m 312.80153,104.43782 c 16.63582,-5.549422 35.04985,-6.162692 51.3072,-0.74358"
       id="path35" />
    <path
       style="fill:none;stroke:#000000;stroke-width:1;stroke-dasharray:none"
       d="m 312.80153,111.87366 c 11.05127,-5.12688 19.73235,-4.7951 25.20775,-4.98696 6.77965,-0.23755 15.05149,0.30404 26.3473,3.128"
       id="path36"
       sodipodi:nodetypes="csc" />
    <path
       style="fill:none;stroke:#000000;stroke-width:1;stroke-dasharray:none"
       d="m 313.17333,117.32659 c 12.43153,-3.11608 20.13969,-4.7809 28.76603,-4.76381 8.62633,0.0171 18.89739,1.40693 22.16937,3.27664"
       id="path37"
       sodipodi:nodetypes="czc" />
    <path
       style="fill:none;stroke:#000000;stroke-width:1;stroke-dasharray:none"
       d="m 313.3367,126.17541 c 16.43426,-5.97183 32.11353,-7.34725 50.40023,-3.14802"
       id="path38"
       sodipodi:nodetypes="cc" />
    <path
       style="fill:none;stroke:#000000;stroke-width:1;stroke-dasharray:none"
       d="m 312.83245,131.18165 c 10.2506,-4.45463 39.55472,-7.6215 50.69267,-2.77157"
       id="path39"
       sodipodi:nodetypes="cc" />
    <path
       style="fill:none;stroke:#000000;stroke-width:1;stroke-dasharray:none"
       d="m 313.00143,135.91365 c 11.35305,-4.02249 34.83761,-4.98285 50.30741,-0.7581"
       id="path40"
       sodipodi:nodetypes="cc" />
    <path
       style="fill:none;stroke:#000000;stroke-width:1;stroke-dasharray:none"
       d="m 313.18775,139.21819 c 13.45355,-2.23356 37.06745,-3.17644 49.84866,-0.0348"
       id="path41"
       sodipodi:nodetypes="cc" />
    <path
       style="fill:none;stroke:#000000;stroke-width:1;stroke-dasharray:none"
       d="m 313.66605,146.05576 c 17.15981,-3.04432 32.58259,1.71897 49.22794,-0.3617"
       id="path42"
       sodipodi:nodetypes="cc" />
    <path
       style="fill:none;stroke:#000000;stroke-width:1;stroke-dasharray:none"
       d="m 313.74543,149.37704 c 15.27105,8.67647 33.48343,-0.10646 48.80849,1.80921"
       id="path43"
       sodipodi:nodetypes="cc" />
    <path
       style="fill:none;stroke:#000000;stroke-width:1;stroke-dasharray:none"
       d="m 313.8316,157.52667 c 14.95789,3.25065 34.48306,3.30456 48.81934,-0.27952"
       id="path44"
       sodipodi:nodetypes="cc" />
    <path
       style="fill:none;stroke:#000000;stroke-width:1;stroke-dasharray:none"
       d="m 313.52845,162.95112 c 6.94943,-0.97675 23.97098,1.80979 29.64311,0.39176 5.6721,-1.41803 13.48782,-1.78786 19.3008,-1.06124"
       id="path45"
       sodipodi:nodetypes="czc" />
    <path
       style="fill:none;stroke:#000000;stroke-width:1;stroke-dasharray:none"
       d="m 313.42784,167.60628 c 11.23073,2.8995 24.7465,7.27614 36.75972,4.27285 4.25818,-1.06454 8.41291,-3.0245 12.09283,-4.9907"
       id="path46"
       sodipodi:nodetypes="csc" />
    <path
       style="fill:none;stroke:#000000;stroke-width:1;stroke-dasharray:none"
       d="m 314.00556,172.16761 c 13.89461,2.51508 35.98237,8.61076 48.4668,-2.5919"
       id="path47"
       sodipodi:nodetypes="cc" />
    <path
       style="fill:none;stroke:#000000;stroke-width:1;stroke-dasharray:none"
       d="m 314.42355,177.38653 c 6.85716,7.38808 36.28181,10.52097 48.04881,-1.28451"
       id="path48"
       sodipodi:nodetypes="cc" />
    <path
       style="fill:none;stroke:#000000;stroke-width:1;stroke-dasharray:none"
       d="m 314.47566,184.65988 c 14.01723,4.94128 23.36715,5.8037 31.51576,4.09625 8.14861,-1.70743 15.26842,-1.10434 16.67287,-0.7532"
       id="path49"
       sodipodi:nodetypes="czc" />
    <path
       style="fill:none;stroke:#000000;stroke-width:1;stroke-dasharray:none"
       d="m 314.42435,196.39027 c 16.87606,4.64194 32.0259,-4.69378 48.5551,-4.05736"
       id="path50"
       sodipodi:nodetypes="cc" />
    <path
       style="fill:none;stroke:#000000;stroke-width:1;stroke-dasharray:none"
       d="m 314.62645,200.52067 c 15.74371,8.36196 32.46636,-6.29289 48.33464,-4.64781"
       id="path51"
       sodipodi:nodetypes="cc" />
    <path
       style="fill:none;stroke:#000000;stroke-width:1;stroke-dasharray:none"
       d="m 314.42267,209.65578 c 12.44354,6.71583 19.27202,2.44615 31.46135,-2.65895 3.87595,-1.62331 9.75907,-5.21289 17.09574,-6.73947"
       id="path52"
       sodipodi:nodetypes="csc" />
    <path
       style="fill:none;stroke:#000000;stroke-width:1;stroke-dasharray:none"
       d="m 363.1375,203.55701 c -4.69227,4.75661 -26.88637,10.52569 -26.57837,11.89473 0.73205,3.25395 22.09798,-3.49881 26.43775,-4.73151"
       id="path53"
       sodipodi:nodetypes="csc" />
    <path
       style="fill:none;stroke:#000000;stroke-width:1;stroke-dasharray:none"
       d="m 314.54091,216.25826 c 16.27699,3.41445 33.73949,6.12525 47.93145,-0.23066"
       id="path54"
       sodipodi:nodetypes="cc" />
    <path
       style="fill:none;stroke:#000000;stroke-width:1;stroke-dasharray:none"
       d="m 314.86878,225.81703 c 15.28215,3.66535 32.92398,1.22255 47.02774,-2.3034"
       id="path55" />
    <path
       style="fill:none;stroke:#000000;stroke-width:1;stroke-dasharray:none"
       d="m 314.84615,230.2377 c 19.08554,6.50289 31.36764,3.77278 46.8584,-2.50116"
       id="path56"
       sodipodi:nodetypes="cc" />
    <path
       style="fill:none;stroke:#000000;stroke-width:1;stroke-dasharray:none"
       d="m 315.22028,238.06487 c 18.30275,12.05827 28.71574,5.96364 47.49557,-1.80387"
       id="path57"
       sodipodi:nodetypes="cc" />
    <path
       style="fill:none;stroke:#000000;stroke-width:1;stroke-dasharray:none"
       d="m 315.12754,245.90087 c 16.04952,5.72101 19.84876,9.34796 28.14935,5.94185 3.38701,-1.38987 18.20378,-7.87113 20.41217,-10.5212"
       id="path58"
       sodipodi:nodetypes="csc" />
    <path
       style="fill:none;stroke:#000000;stroke-width:1;stroke-dasharray:none"
       d="m 315.06074,250.77052 c 15.22019,9.59553 25.71819,10.61013 31.34287,8.18938 5.6247,-2.42076 17.0575,-8.6286 19.86088,-10.03028"
       id="path59"
       sodipodi:nodetypes="czc" />
    <path
       style="fill:none;stroke:#000000;stroke-width:1;stroke-dasharray:none"
       d="m 312.55859,258.61159 c 9.29006,9.99326 23.08563,15.94231 25.71341,31.70538"
       id="path61"
       sodipodi:nodetypes="cc" />
    <path
       style="fill:none;stroke:#000000;stroke-width:1;stroke-dasharray:none"
       d="m 370.15036,256.52902 c -8.80642,7.4029 -18.54655,21.39288 -18.86283,34.00742"
       id="path62"
       sodipodi:nodetypes="cc" />
    <path
       style="fill:none;stroke:#000000;stroke-width:1;stroke-dasharray:none"
       d="m 374.71536,263.13417 c -12.56556,5.44056 -16.70817,18.12225 -19.82916,29.66095"
       id="path63"
       sodipodi:nodetypes="cc" />
    <path
       style="fill:none;stroke:#000000;stroke-width:1;stroke-dasharray:none"
       d="m 380.43811,270.17408 c -12.81487,4.69528 -17.65923,19.70819 -19.03048,27.93631"
       id="path64"
       sodipodi:nodetypes="cc" />
    <path
       style="fill:none;stroke:#000000;stroke-width:1;stroke-dasharray:none"
       d="m 384.71743,275.77393 c -6.45859,2.68534 -17.00656,21.47816 -17.79129,27.75596"
       id="path65"
       sodipodi:nodetypes="cc" />
    <path
       style="fill:none;stroke:#000000;stroke-width:1;stroke-dasharray:none"
       d="m 389.79504,280.71518 c -11.91934,5.33025 -14.76316,19.07693 -15.78386,29.0424"
       id="path66"
       sodipodi:nodetypes="cc" />
    <path
       style="fill:none;stroke:#000000;stroke-width:1;stroke-dasharray:none"
       d="m 377.01672,311.63979 c 0.84726,-3.52822 8.00478,-15.23982 9.56175,-9.01193 1.12161,4.48647 -0.56809,10.02916 -0.72693,14.51049"
       id="path67"
       sodipodi:nodetypes="csc" />
    <path
       style="fill:none;stroke:#000000;stroke-width:1;stroke-dasharray:none"
       d="m 393.3918,284.02346 c -6.20697,10.80606 -7.91292,9.372 -4.16016,17.96832 0.78706,1.80288 0.0999,5.55166 1.41623,5.8419 1.31632,0.29024 3.71356,-7.56934 4.84067,-9.07767 1.12709,-1.5083 2.78666,-5.43838 2.69495,-10.7816"
       id="path68"
       sodipodi:nodetypes="cszzc" />
    <path
       style="fill:none;stroke:#000000;stroke-width:1;stroke-dasharray:none"
       d="m 401.71211,291.10456 c 1.64202,10.97874 -8.3445,19.53753 -13.01155,27.70484"
       id="path69" />
    <path
       style="fill:none;stroke:#000000;stroke-width:1;stroke-dasharray:none"
       d="m 408.10426,295.67261 c -0.77883,9.89398 -4.68749,20.75355 -9.88354,29.06724"
       id="path70"
       sodipodi:nodetypes="cc" />
    <path
       style="fill:none;stroke:#000000;stroke-width:1;stroke-dasharray:none"
       d="m 417.56879,301.23251 c 0.39466,12.82097 -7.35721,14.44254 -7.97895,20.49786 -0.32759,3.19057 4.00904,3.61179 6.10746,2.21285 6.34311,-4.22873 8.40582,-11.56189 8.67436,-19.29603"
       id="path71"
       sodipodi:nodetypes="cssc" />
    <path
       style="fill:none;stroke:#000000;stroke-width:1;stroke-dasharray:none"
       d="m 412.59931,331.99798 c 4.63973,-9.23025 6.19565,-3.71498 5.39934,2.65543"
       id="path72" />
    <path
       style="fill:none;stroke:#000000;stroke-width:1;stroke-dasharray:none"
       d="m 431.62981,308.27626 c -0.002,10.03121 -3.17873,19.98665 -7.08112,28.76701"
       id="path73" />
    <path
       style="fill:none;stroke:#000000;stroke-width:1;stroke-dasharray:none"
       d="m 438.53389,310.66614 c 0.54516,10.30122 -1.64769,20.96226 -6.6922,29.01779"
       id="path74"
       sodipodi:nodetypes="cc" />
    <path
       style="fill:none;stroke:#000000;stroke-width:1;stroke-dasharray:none"
       d="m 449.65334,312.38946 c 2.83352,14.70544 -1.15535,20.17913 -10.26646,29.81183"
       id="path75"
       sodipodi:nodetypes="cc" />
    <path
       style="fill:none;stroke:#000000;stroke-width:1;stroke-dasharray:none"
       d="m 455.5075,312.11839 c -2.01081,4.22974 3.6867,16.01145 3.79393,19.09602 0.10722,3.08455 -11.50737,8.60733 -15.47142,14.82247"
       id="path76"
       sodipodi:nodetypes="czc" />
    <path
       style="fill:none;stroke:#000000;stroke-width:1;stroke-dasharray:none"
       d="m 465.95007,337.3258 c -0.89283,5.83939 -9.9125,14.96577 -16.17495,14.18296"
       id="path77" />
    <path
       style="fill:none;stroke:#000000;stroke-width:1;stroke-dasharray:none"
       d="m 470.17307,342.74401 c -0.82263,6.87829 -10.26434,12.86646 -16.33429,13.6252"
       id="path78" />
    <path
       style="fill:none;stroke:#000000;stroke-width:1;stroke-dasharray:none"
       d="m 474.07738,348.95902 c -1.06276,3.24612 -11.76151,17.19682 -15.85623,13.78456"
       id="path79" />
    <path
       style="fill:none;stroke:#000000;stroke-width:1;stroke-dasharray:none"
       d="m 479.33622,358.91894 c -8.68239,-0.69302 -10.59468,10.09906 -18.40597,11.07546"
       id="path80" />
    <path
       style="fill:none;stroke:#000000;stroke-width:1;stroke-dasharray:none"
       d="m 480.29237,361.22966 c -5.8033,-2.28297 -12.09224,12.37054 -7.96795,10.99577 3.80166,-1.26719 6.32686,-6.87026 10.83642,-5.17916"
       id="path81" />
    <path
       style="fill:none;stroke:#000000;stroke-width:1;stroke-dasharray:none"
       d="m 484.19668,369.9944 c -9.14008,4.92046 -4.15666,9.65264 3.10749,3.42622"
       id="path82" />
    <path
       style="fill:none;stroke:#000000;stroke-width:1;stroke-dasharray:none"
       d="m 462.84257,376.84685 c 1.09489,0.57796 1.96702,1.44615 2.94812,2.23102 8.10815,6.48652 1.95111,11.62678 -2.39038,8.52571"
       id="path83" />
    <path
       style="fill:none;stroke:#000000;stroke-width:1;stroke-dasharray:none"
       d="m 476.86616,390.15333 c -9.73883,1.93907 -9.35927,8.41537 0.3984,5.97596"
       id="path84" />
    <path
       style="fill:none;stroke:#000000;stroke-width:1;stroke-dasharray:none"
       d="m 481.48757,387.84262 c -0.34986,-1.91581 1.21401,-3.16396 1.75295,-4.78076 1.1771,-3.5313 5.38647,-6.9314 6.45404,-1.5936 0.64015,3.20078 -3.18135,7.36352 -3.58558,10.59737"
       id="path85" />
    <path
       style="fill:none;stroke:#000000;stroke-width:1;stroke-dasharray:none"
       d="m 473.75865,381.62762 c 4.7128,-9.19682 6.51374,0.17999 5.97596,5.0198"
       id="path86" />
    <path
       style="fill:none;stroke:#000000;stroke-width:1;stroke-dasharray:none"
       d="m 487.94161,394.05762 c 0.235,-5.25652 7.65674,-4.82581 6.77276,0.47809 -0.23782,1.42689 -1.87919,3.56744 -2.39038,4.46206"
       id="path87" />
    <path
       style="fill:none;stroke:#000000;stroke-width:1;stroke-dasharray:none"
       d="m 499.49514,385.29287 c -1.33242,7.08314 -1.65966,9.87053 6.13532,4.3027"
       id="path88" />
    <path
       style="fill:none;stroke:#000000;stroke-width:1;stroke-dasharray:none"
       d="m 510.57059,391.58756 c -1.07307,5.49949 3.45517,6.72212 5.25884,1.91229"
       id="path89" />
    <path
       style="fill:none;stroke:#000000;stroke-width:1;stroke-dasharray:none"
       d="m 504.19624,401.06942 c -11.64056,1.10656 -7.44674,8.23605 2.23103,5.81661"
       id="path90" />
    <path
       style="fill:none;stroke:#000000;stroke-width:1;stroke-dasharray:none"
       d="m 458.79114,311.2544 c 0.0135,6.84661 3.92657,17.3155 8.22474,23.29311"
       id="path92"
       sodipodi:nodetypes="cc" />
    <path
       style="fill:none;stroke:#000000;stroke-width:1;stroke-dasharray:none"
       d="m 466.76546,307.38615 c -0.079,7.65474 -0.24613,22.54968 6.31458,27.83355"
       id="path93"
       sodipodi:nodetypes="cc" />
    <path
       style="fill:none;stroke:#000000;stroke-width:1;stroke-dasharray:none"
       d="m 486.41504,317.89901 c -2.30209,2.3021 -5.72265,9.46027 -9.36992,10.37207 -3.73946,0.93487 -7.60994,-24.6686 -3.3893,-20.12397 4.22064,4.54464 7.64527,8.44281 13.19196,7.05614"
       id="path94"
       sodipodi:nodetypes="cszc" />
    <path
       style="fill:none;stroke:#000000;stroke-width:1;stroke-dasharray:none"
       d="m 479.5871,336.10884 c 0.62848,-5.51909 4.89409,-2.49958 7.69273,0.29907"
       id="path95"
       sodipodi:nodetypes="cc" />
    <path
       style="fill:none;stroke:#000000;stroke-width:1;stroke-dasharray:none"
       d="m 489.47256,318.59745 c -1.57318,-0.006 -2.24085,13.96217 2.18892,9.53241 1.98489,-1.98489 1.93229,-6.13688 3.60113,-8.47325"
       id="path96" />
    <path
       style="fill:none;stroke:#000000;stroke-width:1;stroke-dasharray:none"
       d="m 475.77855,299.78377 c 1.6778,6.23977 13.73157,12.45878 12.21441,4.87292 -0.8523,-4.26157 -5.7506,-8.03126 -8.42706,-10.42084"
       id="path97"
       sodipodi:nodetypes="csc" />
    <path
       style="fill:none;stroke:#000000;stroke-width:1;stroke-dasharray:none"
       d="m 483.72597,284.61482 c 9.32396,4.30863 6.09997,9.95841 -1.91677,5.37743"
       id="path98"
       sodipodi:nodetypes="cc" />
    <path
       style="fill:none;stroke:#000000;stroke-width:1;stroke-dasharray:none"
       d="m 479.90383,226.54561 c -2.88945,4.77704 -0.75751,4.6252 3.69681,4.6252"
       id="path99"
       sodipodi:nodetypes="cc" />
    <path
       style="fill:none;stroke:#000000;stroke-width:1;stroke-dasharray:none"
       d="m 476.36379,240.92186 c 7.063,-8.19617 3.54004,3.93936 3.54004,6.32595"
       id="path100"
       sodipodi:nodetypes="cc" />
    <path
       style="fill:none;stroke:#000000;stroke-width:1;stroke-dasharray:none"
       d="m 487.82165,237.50587 c -0.3913,2.95926 -1.54201,10.83241 3.13505,6.93487"
       id="path101"
       sodipodi:nodetypes="cc" />
    <path
       style="fill:none;stroke:#000000;stroke-width:1;stroke-dasharray:none"
       d="m 502.10971,242.9995 c -9.31479,-0.7137 -3.25284,5.05335 -1.22808,8.59668"
       id="path102"
       sodipodi:nodetypes="cc" />
    <path
       style="fill:none;stroke:#000000;stroke-width:1;stroke-dasharray:none"
       d="m 490.74519,250.71314 c -1.41053,2.28211 -2.47831,2.9645 -3.99427,5.72407 -2.11374,3.84777 7.18829,4.09916 7.18829,-4.80335 0,-1.94169 -1.78351,-3.2028 -3.19402,-0.92072 z"
       id="path103"
       sodipodi:nodetypes="zssz" />
    <path
       style="fill:none;stroke:#000000;stroke-width:1;stroke-dasharray:none"
       d="m 484.28988,264.61661 c 12.78202,1.08707 11.31861,11.98167 0.17545,5.61415"
       id="path104" />
    <path
       style="fill:none;stroke:#000000;stroke-width:1;stroke-dasharray:none"
       d="m 484.8188,275.03399 c 8.5793,6.87197 12.594,14.66407 -0.12864,5.57646"
       id="path105"
       sodipodi:nodetypes="cc" />
    <path
       style="fill:none;stroke:#000000;stroke-width:1;stroke-dasharray:none"
       d="m 501.13235,279.35375 c -8.38682,-8.33249 -10.17958,2.62968 -1.40355,7.0177"
       id="path106" />
    <path
       style="fill:none;stroke:#000000;stroke-width:1;stroke-dasharray:none"
       d="m 502.60795,319.22949 c 0.54572,3.20161 9.47886,5.06833 9.56278,3.57658 0.0839,-1.49175 -3.434,-3.70994 -5.63208,-5.00574"
       id="path107"
       sodipodi:nodetypes="czc" />
    <path
       style="fill:none;stroke:#000000;stroke-width:1;stroke-dasharray:none"
       d="m 497.44805,336.44737 c -3.77788,-8.2048 5.53168,-6.7967 6.49137,0.38831"
       id="path108"
       sodipodi:nodetypes="cc" />
    <path
       style="fill:none;stroke:#000000;stroke-width:1;stroke-dasharray:none"
       d="m 506.22017,337.52167 c -3.12423,-12.06234 1.58754,-13.53718 3.33341,0.42983"
       id="path109"
       sodipodi:nodetypes="cc" />
    <path
       style="fill:none;stroke:#000000;stroke-width:1;stroke-dasharray:none"
       d="m 518.07064,328.89744 c -2.72582,1.91583 -3.70595,5.14298 -2.20115,6.94875"
       id="path110"
       sodipodi:nodetypes="cc" />
    <path
       style="fill:none;stroke:#000000;stroke-width:1;stroke-dasharray:none"
       d="m 308.12635,265.48353 c 8.02157,1.12177 26.74261,20.74262 26.74261,27.96344"
       id="path111"
       sodipodi:nodetypes="cc" />
    <path
       style="fill:none;stroke:#000000;stroke-width:1;stroke-dasharray:none"
       d="m 307.07394,267.09583 c 2.36999,1.41992 15.02921,15.54868 10.19753,17.41703 -4.26313,1.64848 -11.19905,-11.19251 -12.81461,-14.16826"
       id="path112"
       sodipodi:nodetypes="csc" />
    <path
       style="fill:none;stroke:#000000;stroke-width:1;stroke-dasharray:none"
       d="m 332.64853,296.03432 c -0.27122,-3.57924 -5.05036,-5.81457 -8.11931,-6.97373 -7.32798,-2.76782 -13.90776,-2.7932 -12.80787,-0.48677 1.13304,2.37597 14.36712,4.43538 16.48982,12.92613"
       id="path113"
       sodipodi:nodetypes="cssc" />
    <path
       style="fill:none;stroke:#000000;stroke-width:1;stroke-dasharray:none"
       d="m 298.86176,276.30068 c 4.28192,14.84164 -4.81896,13.85923 -14.89019,21.83897"
       id="path114"
       sodipodi:nodetypes="cc" />
    <path
       style="fill:none;stroke:#000000;stroke-width:1;stroke-dasharray:none"
       d="m 324.85191,305.99083 c -1.10888,-2.8063 -3.85792,-5.55563 -6.31703,-7.39997 -2.88208,-2.16157 -9.10292,-5.28799 -11.1901,-3.4293 -2.08716,1.85867 11.17432,9.26358 14.34861,15.61218"
       id="path115"
       sodipodi:nodetypes="cszc" />
    <path
       style="fill:none;stroke:#000000;stroke-width:1;stroke-dasharray:none"
       d="m 284.96425,302.02011 c 2.49476,-1.02882 12.17742,-5.22734 10.73899,-0.0903 -0.93983,3.35646 -9.08607,4.76384 -13.10118,7.25433"
       id="path116"
       sodipodi:nodetypes="csc" />
    <path
       style="fill:none;stroke:#000000;stroke-width:1;stroke-dasharray:none"
       d="m 317.18122,316.91031 c -5.18926,-5.07272 -16.03286,-10.36625 -21.31948,-6.79912 -5.28663,3.56713 13.5992,8.66674 14.70034,17.47588"
       id="path117"
       sodipodi:nodetypes="czc" />
    <path
       style="fill:none;stroke:#000000;stroke-width:1;stroke-dasharray:none"
       d="m 278.91793,315.64691 c 9.28922,1.18941 24.25049,11.36076 26.44138,20.12432"
       id="path118" />
    <path
       style="fill:none;stroke:#000000;stroke-width:1;stroke-dasharray:none"
       d="m 288.72838,278.61987 c -0.0165,2.10425 -2.40763,5.66947 -1.03958,7.37952 1.38113,1.72643 4.98311,1.81692 5.75778,-0.50706 0.41831,-1.25496 -1.51192,-5.63542 -2.09071,-6.64831"
       id="path119"
       sodipodi:nodetypes="cssc" />
    <path
       style="fill:none;stroke:#000000;stroke-width:1;stroke-dasharray:none"
       d="m 274.64304,292.01291 c 2.01549,-0.7436 3.18592,-6.93288 4.54302,-7.61142 1.35711,-0.67856 7.70646,2.94475 1.97197,11.00695"
       id="path120"
       sodipodi:nodetypes="czc" />
    <path
       style="fill:none;stroke:#000000;stroke-width:1;stroke-dasharray:none"
       d="m 265.83078,291.75513 c -1.58794,-10.6212 7.42422,-12.00519 4.73502,-1.2484"
       id="path121"
       sodipodi:nodetypes="cc" />
    <path
       style="fill:none;stroke:#000000;stroke-width:1;stroke-dasharray:none"
       d="m 280.08757,269.88275 c -2.00558,0.9196 -4.86456,0.84917 -5.40883,2.48198 -1.14535,3.43605 6.13491,1.94696 7.43711,1.29587"
       id="path122"
       sodipodi:nodetypes="csc" />
    <path
       style="fill:none;stroke:#000000;stroke-width:1;stroke-dasharray:none"
       d="m 259.11457,294.0692 c -4.37299,-8.58751 1.52944,-12.693 3.33819,-1.49846"
       id="path123"
       sodipodi:nodetypes="cc" />
    <path
       style="fill:none;stroke:#000000;stroke-width:1;stroke-dasharray:none"
       d="m 260.27555,269.81401 c 4.60481,-5.04431 5.50708,-3.14364 3.92162,3.54558"
       id="path124"
       sodipodi:nodetypes="cc" />
    <path
       style="fill:none;stroke:#000000;stroke-width:1;stroke-dasharray:none"
       d="m 276.20898,260.13974 c -1.99142,1.00176 -5.2271,2.64952 -4.81326,4.03361 0.41383,1.38407 4.41479,-0.0695 5.64066,-0.37603"
       id="path125"
       sodipodi:nodetypes="czc" />
    <path
       style="fill:none;stroke:#000000;stroke-width:1;stroke-dasharray:none"
       d="m 273.87264,252.81323 c -2.16552,0.99462 -6.09183,3.79017 -5.00178,5.02108 1.09001,1.23091 4.09707,-0.68671 6.12067,-1.49614"
       id="path126"
       sodipodi:nodetypes="czc" />
    <path
       style="fill:none;stroke:#000000;stroke-width:1;stroke-dasharray:none"
       d="m 266.1509,265.34327 c 1.85149,5.18762 4.55663,7.94675 7.31596,11.31424 -3.19118,-0.98441 -4.62621,-0.63365 -5.78472,-0.0851"
       id="path127"
       sodipodi:nodetypes="ccc" />
    <path
       style="fill:none;stroke:#000000;stroke-width:1;stroke-dasharray:none"
       d="m 275.64742,321.29005 c 8.28798,2.32053 22.99446,11.11599 25.66259,20.01191"
       id="path128"
       sodipodi:nodetypes="cc" />
    <path
       style="fill:none;stroke:#000000;stroke-width:1;stroke-dasharray:none"
       d="m 272.41271,327.50036 c 5.8187,5.96636 11.22505,7.96736 13.29294,11.06918 2.0679,3.10182 0.36802,6.97132 -3.31389,5.73933 -3.6819,-1.23197 -7.45426,-4.75742 -14.66238,-9.01596"
       id="path129"
       sodipodi:nodetypes="czzc" />
    <path
       style="fill:none;stroke:#000000;stroke-width:1;stroke-dasharray:none"
       d="m 296.18152,348.68829 c -1.8293,-1.56705 -5.80264,-8.73493 -7.07674,-6.3502 -2.07808,3.88952 2.92351,9.73667 3.62448,12.54051"
       id="path130"
       sodipodi:nodetypes="csc" />
    <path
       style="fill:none;stroke:#000000;stroke-width:1;stroke-dasharray:none"
       d="m 262.49206,342.85514 c 11.67979,0.0914 24.49823,10.17139 24.49823,22.54834"
       id="path131"
       sodipodi:nodetypes="cc" />
    <path
       style="fill:none;stroke:#000000;stroke-width:1;stroke-dasharray:none"
       d="m 253.32565,354.75954 c 14.27726,-0.7177 23.56496,11.96831 29.18346,23.71493"
       id="path132"
       sodipodi:nodetypes="cc" />
    <path
       style="fill:none;stroke:#000000;stroke-width:1;stroke-dasharray:none"
       d="m 258.65182,347.95586 c 7.75435,0.46014 13.36334,3.70736 17.29377,7.63776 3.93039,3.93042 8.70995,9.72698 9.52198,12.97503"
       id="path133"
       sodipodi:nodetypes="czc" />
    <path
       style="fill:none;stroke:#000000;stroke-width:1;stroke-dasharray:none"
       d="m 250.82573,357.25947 c 4.46173,0.33944 10.33497,2.5971 13.57103,5.83316 5.61116,5.61116 1.62506,15.99065 -2.49993,13.92815 -1.8379,-0.91894 -0.8735,-5.12039 -1.42853,-6.7855 -1.63345,-4.90035 -7.72923,-10.02731 -12.38058,-11.19015"
       id="path134" />
    <path
       style="fill:none;stroke:#000000;stroke-width:1;stroke-dasharray:none"
       d="m 281.6129,383.07691 c -0.74649,-0.91969 -2.6856,-2.3586 -3.52606,-3.19907 -7.60901,-7.609 -12.41179,3.06296 -11.46454,4.03307 0.94726,0.97008 4.51082,-3.42096 6.52206,-3.77897 2.01123,-0.358 6.01929,5.61459 7.66473,7.80852"
       id="path135"
       sodipodi:nodetypes="cszzc" />
    <path
       style="fill:none;stroke:#000000;stroke-width:1;stroke-dasharray:none"
       d="m 280.53674,392.52578 c -4.09364,-2.77171 -15.39052,-4.81137 -11.61631,3.06589 1.62333,3.38809 7.0834,-3.29023 11.80525,1.43165"
       id="path136"
       sodipodi:nodetypes="csc" />
    <path
       style="fill:none;stroke:#000000;stroke-width:1;stroke-dasharray:none"
       d="m 246.61995,360.24867 c -0.23924,6.66205 5.82924,14.7479 3.61132,21.32969"
       id="path138"
       sodipodi:nodetypes="cc" />
    <path
       style="fill:none;stroke:#000000;stroke-width:1;stroke-dasharray:none"
       d="m 253.44132,381.91652 c 1.3781,0.0959 2.62657,-0.23716 3.56115,-0.50155 1.39468,-7.52513 -5.67596,-15.88467 -8.97811,-22.06912"
       id="path139"
       sodipodi:nodetypes="ccc" />
    <path
       style="fill:none;stroke:#000000;stroke-width:1;stroke-dasharray:none"
       d="m 223.69864,369.7906 c 4.03807,1.8545 9.01105,9.6847 7.27738,14.01885"
       id="path140"
       sodipodi:nodetypes="cc" />
    <path
       style="fill:none;stroke:#000000;stroke-width:1;stroke-dasharray:none"
       d="m 231.59727,367.48314 c 4.02144,5.30724 2.40329,9.97527 3.46119,15.26476"
       id="path141" />
    <path
       style="fill:none;stroke:#000000;stroke-width:1;stroke-dasharray:none"
       d="m 247.09262,401.41551 c 8.3155,8.77288 -0.41719,4.34553 -3.17847,3.65521"
       id="path142" />
    <path
       style="fill:none;stroke:#000000;stroke-width:1;stroke-dasharray:none"
       d="m 267.5193,417.85227 c 0.69639,-1.20918 11.2308,-11.91475 10.53622,-8.46865 -0.69459,3.44611 -5.74887,7.22553 -9.65727,12.51423"
       id="path143"
       sodipodi:nodetypes="czc" />
    <path
       style="fill:none;stroke:#000000;stroke-width:1;stroke-dasharray:none"
       d="m 285.64892,414.00729 c -4.84184,-0.0686 -8.04182,10.79494 -3.74002,8.57568 2.92035,-1.50658 2.31308,-3.2625 6.09634,-4.52708"
       id="path144"
       sodipodi:nodetypes="csc" />
    <path
       style="fill:none;stroke:#000000;stroke-width:1;stroke-dasharray:none"
       d="m 274.88554,443.00416 c 9.55599,-6.95854 7.95186,-1.03433 0.99887,2.86887"
       id="path145"
       sodipodi:nodetypes="cc" />
  </g>
</svg>
