<?xml version="1.0" encoding="UTF-8" standalone="no"?>
<!-- Created with Inkscape (http://www.inkscape.org/) -->

<svg
   id="svg3336"
   version="1.1"
   inkscape:version="1.3 (0e150ed, 2023-07-21)"
   width="700"
   height="750"
   viewBox="0 0 700 750"
   sodipodi:docname="level3_C30_24-01.svg"
   xmlns:inkscape="http://www.inkscape.org/namespaces/inkscape"
   xmlns:sodipodi="http://sodipodi.sourceforge.net/DTD/sodipodi-0.dtd"
   xmlns="http://www.w3.org/2000/svg"
   xmlns:svg="http://www.w3.org/2000/svg"
   xmlns:rdf="http://www.w3.org/1999/02/22-rdf-syntax-ns#"
   xmlns:cc="http://creativecommons.org/ns#"
   xmlns:dc="http://purl.org/dc/elements/1.1/">
  <metadata
     id="metadata3342">
    <rdf:RDF>
      <cc:Work
         rdf:about="">
        <dc:format>image/svg+xml</dc:format>
        <dc:type
           rdf:resource="http://purl.org/dc/dcmitype/StillImage" />
      </cc:Work>
    </rdf:RDF>
  </metadata>
  <defs
     id="defs3340" />
  <sodipodi:namedview
     pagecolor="#ffffff"
     bordercolor="#666666"
     borderopacity="1"
     objecttolerance="11"
     gridtolerance="10"
     guidetolerance="10"
     inkscape:pageopacity="0"
     inkscape:pageshadow="2"
     inkscape:window-width="1344"
     inkscape:window-height="673"
     id="namedview3338"
     showgrid="false"
     inkscape:zoom="0.67096497"
     inkscape:cx="203.43834"
     inkscape:cy="333.84753"
     inkscape:window-x="0"
     inkscape:window-y="25"
     inkscape:window-maximized="0"
     inkscape:current-layer="svg3336"
     borderlayer="false"
     width="296px"
     inkscape:showpageshadow="2"
     inkscape:pagecheckerboard="0"
     inkscape:deskcolor="#d1d1d1"
     showguides="true" />
  <path
     style="opacity:1;fill:none;fill-rule:evenodd;stroke:#000000;stroke-width:1;stroke-linecap:butt;stroke-linejoin:miter;stroke-miterlimit:4;stroke-dasharray:none;stroke-opacity:1"
     d="m 360.79146,318.59406 c -1.51587,-1.73607 -3.20628,-3.68439 -4.08598,-5.39858 -0.8797,-1.71419 -0.33738,-3.46921 -1.41738,-4.5754 -1.08,-1.10619 -2.66704,-1.21566 -4.25203,-1.4297 -1.58499,-0.21404 -3.51558,-0.56838 -5.10235,0.28552 -1.58677,0.8539 -3.06284,3.13159 -3.40164,4.5753 -0.3388,1.44371 0.79578,2.27147 0.56691,3.14562 -0.22887,0.87415 -0.076,1.22687 -1.41735,1.71569 -1.34133,0.48882 -4.00807,-1.40339 -6.23628,-1.14382 -2.22821,0.25957 -4.8303,1.80045 -6.51982,2.85959 -1.68952,1.05914 -2.39517,1.86587 -3.68502,3.14554 -1.28985,1.27967 -3.13164,2.93511 -3.96859,4.57533 -0.83695,1.64022 -0.94072,3.18255 -1.13391,4.86131 -0.19319,1.67876 -0.27549,3.65145 0,5.14725 0.27549,1.4958 0.49276,2.44401 1.41741,3.71747 0.92465,1.27346 2.63515,2.70404 4.25203,3.43151 1.61688,0.72747 3.26704,0.93173 5.10237,0.85785 1.83533,-0.0739 4.26683,-0.49211 5.66944,-1.42975 1.40261,-0.93764 1.77149,-2.94961 2.55116,-3.43156 0.77967,-0.48195 0.11164,-1.0668 1.20476,-0.21402 1.09312,0.85278 0.7244,4.50429 0.49601,7.07748 -0.67417,4.16178 -0.0453,9.85373 -3.25987,12.22475 -3.21459,2.37102 -10.64593,5.14571 -17.62135,4.47678 -6.97542,-0.66893 -9.38083,-1.68824 -9.47669,-4.68768 -0.17105,-5.35229 -0.18741,-14.76318 -9.12122,-15.71651 -7.09382,0.15309 -9.69783,5.71376 -12.09323,10.47972 -2.17664,4.3307 -4.65585,9.07296 -4.20993,13.89933 0.26574,2.87624 1.15949,5.68939 2.21908,8.37651 0.55547,1.40868 2.58137,4.53756 5.27153,4.6043 2.69016,0.0667 7.26109,-4.82782 9.11216,-9.4057 1.32693,-3.28164 11.30514,-0.19262 18.46485,0.2094 6.83547,0.38381 23.97768,-6.61245 28.86429,-12.16517 4.88661,-5.55271 4.94749,-4.6947 6.16551,-7.00595 1.21802,-2.31125 0.51212,-3.72517 1.55907,-6.14818 1.04695,-2.42301 3.31354,-6.0336 5.10237,-8.00676 1.78883,-1.97316 4.04158,-1.4712 5.10247,-4.00345 1.06089,-2.53225 0.11872,-7.36657 -1.11663,-9.9248 -1.23535,-2.55823 -3.48628,-3.24315 -5.00215,-4.97922 z"
     id="C30.1"
     inkscape:connector-curvature="0"
     sodipodi:nodetypes="zzzzzzzzzzzzzzzzzzzzzzzssssszsszzzzzzz"
     inkscape:label="#path3352" />
  <path
     style="opacity:1;fill:none;fill-rule:evenodd;stroke:#000000;stroke-width:1;stroke-linecap:butt;stroke-linejoin:miter;stroke-miterlimit:4;stroke-dasharray:none;stroke-opacity:1"
     d="m 83.991082,333.86509 c -0.337358,-11.08071 11.931015,-18.69013 17.680118,-28.16872 5.03877,-8.30746 8.74186,-17.50182 14.73344,-25.15062 5.63411,-7.19246 11.69348,-14.61394 19.64458,-19.11447 9.13623,-5.17135 20.01998,-6.84542 30.44912,-8.04821 11.58417,-1.336 23.54457,-1.33363 34.9684,1.00604 4.48165,0.91787 9.16713,2.20976 12.76899,5.0301 7.12408,5.57832 9.43895,15.61542 15.71567,22.13255 3.43678,3.56842 7.523,6.53118 11.78672,9.05423 8.61625,5.09865 19.0089,6.77175 27.50244,12.07229 8.36837,5.22243 16.44075,11.40255 22.59127,19.11452 8.36519,10.48888 19.26461,22.34425 18.51074,35.7392 -0.22692,4.03191 -4.41629,6.76427 -6.74363,10.06446 -9.49691,13.46673 -12.98803,40.50786 -29.44723,39.70842 -15.23942,-0.7402 -11.53134,-29.86614 -23.57349,-39.23494 -4.58805,-3.56951 -10.95963,-4.10104 -16.69795,-5.03015 -11.63992,-1.88466 -23.57356,-1.34449 -35.36021,-1.00604 -15.63623,0.44899 -31.16352,2.76173 -46.75517,4.02413 -8.83655,0.71546 -18.46737,5.71999 -26.52018,2.01206 -3.02029,-1.3907 -3.24159,-6.04218 -5.89338,-8.04822 -3.06499,-2.31862 -7.28741,-2.47491 -10.80452,-4.02413 -4.71288,-2.07594 -9.850319,-3.68 -13.751206,-7.04212 -4.686154,-4.03893 -10.616258,-8.90673 -10.804522,-15.09038 z"
     id="C30.0"
     inkscape:connector-curvature="0"
     sodipodi:nodetypes="sssssssssssssssssssssss"
     inkscape:label="#path3348" />
  <path
     style="opacity:1;fill:none;fill-rule:evenodd;stroke:#000000;stroke-width:1;stroke-linecap:butt;stroke-linejoin:miter;stroke-miterlimit:4;stroke-dasharray:none;stroke-opacity:1"
     d="m 356.34071,346.09009 c -1.7538,-1.36492 -2.92156,-2.02082 -2.55557,-3.22661 0.36599,-1.20579 2.50813,-3.81166 3.00662,-4.6088 0.49849,-0.79715 -0.148,-0.86498 -0.53402,-0.94307 -0.38602,-0.0781 -0.72779,0.26822 -1.37371,0.64847 -0.64592,0.38025 -3.33982,1.71062 -4.0053,2.06397 -0.66548,0.35334 -1.04934,0.62315 -1.60359,0.55597 -0.55425,-0.0672 -0.65514,-0.60565 -1.38685,-0.8987 -0.73171,-0.29305 -2.4665,0.0982 -3.02311,-0.57168 -0.55661,-0.66993 -2.73224,-2.25946 -2.50492,-3.48314 0.22732,-1.22368 2.45037,-3.35812 4.07254,-3.62232 1.62217,-0.2642 2.65182,-0.98832 2.9145,0.73302 0.26268,1.72134 0.51199,1.90515 0.37878,3.24315 -0.13321,1.338 -0.0425,1.25916 0.37704,1.51031 0.41953,0.25115 0.86964,0.005 1.3352,-0.33712 0.46556,-0.342 0.64519,-0.97298 1.09358,-1.7798 0.44839,-0.80683 0.85446,-2.91259 0.90238,-3.38688 0.0756,-0.74894 0.36437,-2.64489 1.8023,-3.74985 0.96871,-0.74439 3.65614,-1.66293 4.08866,-3.60053 0.43252,-1.9376 -0.0738,-2.99086 1.24082,-2.97752 1.31461,0.0133 2.05986,1.84555 1.90903,3.14848 -0.15083,1.30293 -0.0781,3.4803 -0.0692,4.55089 0.009,1.07059 -0.9407,2.49022 -0.80255,4.24627 0.13815,1.75605 0.99108,2.07235 1.29689,2.88225"
     id="path3354"
     inkscape:connector-curvature="0"
     sodipodi:nodetypes="czzzzzzzzzzzzzzzzzzzzzzc" />
  <path
     style="opacity:1;fill:none;fill-rule:evenodd;stroke:#000000;stroke-width:1;stroke-linecap:butt;stroke-linejoin:miter;stroke-miterlimit:4;stroke-dasharray:none;stroke-opacity:1"
     d="m 340.54776,331.7828 c -0.57892,1.29185 -0.73823,2.76131 -1.41733,4.00343 -1.37256,2.51052 -2.80868,3.88951 -6.95547,4.33762 -2.39554,0.25886 -4.12687,0.37542 -5.49051,-0.68495 -3.5959,-2.79619 -3.58982,-5.08513 -3.35809,-8.22797 0.23173,-3.14284 5.18537,-8.39438 7.58286,-8.86472 2.5312,-0.49657 8.08162,0.20306 9.35443,2.71701 0.33615,0.66394 -0.11927,2.3527 0.35411,2.43066 0.84103,0.13851 1.53486,-1.77674 1.86756,-2.56149 0.77417,-1.82609 1.24114,-3.32921 2.1711,-6.23176 0.90438,-2.82272 1.1737,-5.4917 1.48846,-7.00606 0.37203,-1.78989 4.98463,-2.44736 5.52764,-2.28802 0.60927,0.17879 1.24378,0.41701 1.70083,0.85778 0.52871,0.50988 0.86534,1.22279 1.06295,1.93023 0.154,0.55131 0.12131,1.14556 0.0711,1.71577 -0.0385,0.43756 -0.48664,0.89722 -0.28379,1.28683 0.20081,0.38571 0.86945,0.22355 1.20476,0.50043 0.39644,0.32736 0.58889,0.84413 0.85041,1.28678 0.23273,0.3939 0.5146,0.77474 0.63782,1.21535 0.10289,0.36792 0.10787,0.76363 0.0711,1.14389 -0.23023,2.38268 -0.38489,2.34899 -0.86553,1.89302 -0.18521,-0.17571 -0.53033,-1.09447 -0.76378,-2.32211 -0.11421,-0.60062 -1.30278,-2.07915 -1.5591,-2.0017 -0.72804,0.21999 -0.41676,0.83232 -1.00313,2.21252 -0.19737,0.46457 -1.15387,1.24518 -0.98111,1.71944 0.23337,0.64065 2.31422,-0.26297 2.7283,0.0812 0.29824,0.24789 0.28244,0.51611 -0.42922,2.02927 -0.71165,1.51316 -2.92996,3.93466 -5.84232,4.32198 -3.10323,0.1597 -6.14998,1.78014 -7.72405,4.50557 z"
     id="path3356"
     inkscape:connector-curvature="0"
     sodipodi:nodetypes="sssszssssssssssssssssssssszss" />
  <path
     style="opacity:1;fill:none;fill-rule:evenodd;stroke:#000000;stroke-width:1;stroke-linecap:butt;stroke-linejoin:miter;stroke-miterlimit:4;stroke-dasharray:none;stroke-opacity:1"
     d="m 326.4748,329.2566 c 1.25629,-1.77812 2.56247,-2.81209 4.80001,-2.8919 1.57391,-0.0561 2.9291,0.3658 4.30171,1.90892 1.03157,1.15971 1.25562,2.31515 1.00223,3.91483 -0.31466,1.98651 -0.99304,2.47632 -2.38689,3.43668 -0.98983,0.682 -3.32556,1.59224 -5.21146,1.11204 -1.59059,-0.40501 -2.20757,-1.36969 -2.35249,-2.90284 -0.14492,-1.53315 0.45297,-2.761 1.6514,-3.76984 1.57355,-0.94169 3.82875,-0.64367 4.61017,0.50551 0.80816,1.18852 0.22191,3.57111 -1.11278,4.07394 -0.63831,0.24047 -2.20137,0.0736 -2.29483,0.071"
     id="path3358"
     inkscape:connector-curvature="0"
     sodipodi:nodetypes="czsssszsszc" />
  <path
     style="opacity:1;fill:none;fill-rule:evenodd;stroke:#000000;stroke-width:1;stroke-linecap:butt;stroke-linejoin:miter;stroke-miterlimit:4;stroke-dasharray:none;stroke-opacity:1"
     d="m 352.13148,316.7201 c 0.2223,0.51895 -0.86127,2.02847 -1.60354,2.42642 -1.0049,0.58384 -1.76548,0.66355 -2.20488,-0.30329 -0.4394,-0.96684 0.32404,-0.91911 0.77671,-1.70806 0.75282,-1.31211 2.80941,-0.93402 3.03171,-0.41507 z"
     id="path3360"
     inkscape:connector-curvature="0"
     sodipodi:nodetypes="zszzz" />
  <path
     style="opacity:1;fill:none;fill-rule:evenodd;stroke:#000000;stroke-width:1;stroke-linecap:butt;stroke-linejoin:miter;stroke-miterlimit:4;stroke-dasharray:none;stroke-opacity:1"
     d="m 351.86385,314.483 c 0.78532,-0.39534 0.83305,-1.53701 0.46756,-2.11035 -0.66789,-1.04772 -2.95226,-1.14614 -3.70807,-0.2022 -0.75581,0.94394 -0.82461,1.71009 -0.085,2.50222 0.73966,0.79213 2.54015,0.20566 3.32547,-0.18967 z"
     id="path3362"
     inkscape:connector-curvature="0"
     sodipodi:nodetypes="zzzzz" />
  <path
     style="opacity:1;fill:none;fill-rule:evenodd;stroke:#000000;stroke-width:1;stroke-linecap:butt;stroke-linejoin:miter;stroke-miterlimit:4;stroke-dasharray:none;stroke-opacity:1"
     d="m 347.40119,335.33036 c 0,0 0.37691,1.05152 0.17943,1.40408 -0.19748,0.35257 -0.52791,0.72169 -1.2996,0.97268 -0.77169,0.25098 -1.48377,-0.28486 -1.81449,-0.74426 -0.33072,-0.4594 0.38591,-1.01036 0.38591,-1.01036"
     id="path3368"
     inkscape:connector-curvature="0"
     sodipodi:nodetypes="czzzc" />
  <path
     style="opacity:1;fill:none;fill-rule:evenodd;stroke:#000000;stroke-width:1;stroke-linecap:butt;stroke-linejoin:miter;stroke-miterlimit:4;stroke-dasharray:none;stroke-opacity:1"
     d="m 344.9529,335.37983 c 0,0 0.5195,-0.67462 1.04714,-1.02592 0.52764,-0.35131 1.43491,-0.35486 1.96238,-0.1801 0.52746,0.17476 0.65793,0.83803 0.65793,0.83803"
     id="path3370"
     inkscape:connector-curvature="0"
     sodipodi:nodetypes="czzc" />
  <path
     id="path4152"
     style="fill:none;fill-rule:evenodd;stroke:#000000;stroke-width:1;stroke-linecap:butt;stroke-linejoin:miter;stroke-miterlimit:4;stroke-dasharray:none;stroke-opacity:1"
     d="m 587.0748,137.67405 c 0,0 7.84903,14.35637 10.83783,21.94887 2.8222,7.16928 5.69123,14.49384 6.64029,22.13993 1.36492,10.9965 -0.39927,22.1814 -1.47562,33.20989 -0.95806,9.81649 -2.18717,19.65089 -4.42687,29.25636 -2.76348,11.85179 -7.16657,23.26362 -11.06714,34.7913 -3.5004,10.34502 -6.73714,20.81165 -11.06717,30.83777 -3.86948,8.95972 -8.30105,17.69984 -13.28059,26.0935 -4.88847,8.24015 -10.99489,15.69815 -16.23183,23.72134 -5.08995,7.79801 -11.44655,15.0172 -14.7562,23.72138 -3.61188,9.49904 -4.92869,19.88721 -5.16467,30.04703 -0.27754,11.94889 3.1837,23.69474 4.42686,35.58203 1.51321,14.46953 1.92403,29.04816 3.68905,43.48914 1.1334,9.27324 2.57357,18.51835 4.42686,27.67493 2.0459,10.10824 3.95182,20.31961 7.3781,30.04704 3.47851,9.8757 7.57312,19.68756 13.28059,28.46562 5.71562,8.79059 13.15292,16.39975 20.65869,23.72138 5.02876,4.90539 10.938,8.82399 16.23183,13.44207 3.52316,3.07344 10.32935,9.48855 10.32935,9.48855 M 128.91951,137.32648 c 0,0 -6.27142,23.77663 -9.10796,35.73854 -2.11693,8.92728 -6.4412,17.72519 -5.90248,26.8842 0.57327,9.74646 6.92983,18.28144 9.59154,27.67492 1.54576,5.45516 4.27459,10.96534 3.68904,16.60496 -1.04596,10.07403 -7.30753,19.0047 -12.54277,27.6749 -6.21287,10.28927 -14.24454,19.39808 -22.134299,28.46562 -5.7905,6.6549 -13.8408,11.45271 -18.44527,18.97709 -3.19613,5.22293 -6.60319,11.31263 -5.90249,17.39566 0.63937,5.5506 5.29984,9.92145 8.85373,14.23281 3.20248,3.88505 6.51369,8.13092 11.06716,10.27926 3.59057,1.69405 8.77153,-0.97988 11.80497,1.58143 5.061609,4.27381 5.843449,12.35273 5.902479,18.97707 0.0391,4.39258 -1.95482,8.61546 -3.68906,12.65139 -0.96367,2.24265 -3.577489,3.88731 -3.689039,6.32569 -0.23925,5.22974 3.196399,10.28985 6.640279,14.23282 1.92346,2.20221 7.01569,1.84288 7.37811,4.74427 0.44683,3.57712 -6.13906,4.52182 -7.37811,7.90711 -1.72333,4.70842 -1.42245,10.49892 0.73782,15.02355 1.70485,3.57075 5.90248,5.2714 8.85372,7.9071 1.47562,1.31785 3.64765,2.13504 4.42687,3.95356 3.01203,7.02936 -0.25938,15.29812 -0.73782,22.93064 -0.49683,7.92591 -2.54232,15.7867 -2.21342,23.72135 0.23283,5.61691 0.21245,11.69549 2.95124,16.60496 2.89155,5.18331 7.9436,9.2637 13.28059,11.86066 6.73936,3.27934 14.71459,2.89467 22.13428,3.95357 9.79456,1.39783 19.61945,3.03396 29.51242,3.16285 13.0761,0.17036 26.02907,-2.91527 39.10394,-3.16285 6.15297,-0.11651 12.50987,-0.83523 18.44527,0.7907 7.53496,2.06411 15.51865,5.18643 20.65869,11.06998 6.47826,7.41534 7.86739,18.14108 10.32935,27.67491 1.66579,6.45068 0.48375,13.57928 2.95124,19.76779 2.38295,5.97648 7.88499,10.22221 11.06714,15.81423 4.43387,7.79167 8.01545,16.08258 11.06717,24.51207 3.44506,9.51598 8.35028,19.13867 8.1159,29.25635 -0.27734,11.97232 -11.19636,34.1374 -11.19636,34.1374"
     inkscape:label="Kopfform"
     sodipodi:nodetypes="csssssssssssssssssccssssssssssssssssssssssssssssssssssc" />
  <path
     id="path4"
     style="fill:none;stroke:#000000;stroke-width:1;stroke-dasharray:none"
     d="m 427.79782,353.42042 c 0.48172,6.4952 -5.18881,11.12052 -7.42904,15.60099 m -23.51672,-58.43323 c 9.72551,-0.68823 17.14829,11.42724 19.43074,21.65946 1.71279,7.67845 -2.12454,15.02638 -8.99138,20.69529 -6.86683,5.66891 -16.76316,9.65879 -20.50648,12.15853 -5.88545,3.93022 -11.90827,9.94812 -13.36014,6.89157 -6.12009,-12.88431 9.6926,-10.18025 10.86232,-18.68784 1.78941,-13.01477 4.19821,-23.0134 16.15135,-9.42655 m 24.01628,-56.94818 c -46.51755,-0.85069 -42.48418,42.21805 -24.14439,46.80299 M 370.09835,290.6651 c 12.03032,2.33982 30.76288,-14.3366 47.38754,-17.312 24.77917,-4.43487 45.64149,18.91118 43.17236,38.20028 -3.53672,27.62922 -17.30163,48.4137 -35.22121,66.46336 -11.51134,11.59491 -24.03117,18.09546 -34.06155,25.70067 -10.60437,8.04043 -24.03281,6.86032 -27.86741,4.18044 -9.23151,-6.45161 -12.8043,-11.95335 -1.98589,-35.42954"
     inkscape:label="Ohr" />
</svg>
