<?xml version="1.0" encoding="UTF-8" standalone="no"?>
<!-- Created with Inkscape (http://www.inkscape.org/) -->

<svg
   id="svg4136"
   version="1.1"
   inkscape:version="1.2.2 (732a01da63, 2022-12-09)"
   width="700"
   height="750"
   viewBox="0 0 700 750"
   sodipodi:docname="level3_C14.svg"
   xmlns:inkscape="http://www.inkscape.org/namespaces/inkscape"
   xmlns:sodipodi="http://sodipodi.sourceforge.net/DTD/sodipodi-0.dtd"
   xmlns="http://www.w3.org/2000/svg"
   xmlns:svg="http://www.w3.org/2000/svg"
   xmlns:rdf="http://www.w3.org/1999/02/22-rdf-syntax-ns#"
   xmlns:cc="http://creativecommons.org/ns#"
   xmlns:dc="http://purl.org/dc/elements/1.1/">
  <metadata
     id="metadata4142">
    <rdf:RDF>
      <cc:Work
         rdf:about="">
        <dc:format>image/svg+xml</dc:format>
        <dc:type
           rdf:resource="http://purl.org/dc/dcmitype/StillImage" />
      </cc:Work>
    </rdf:RDF>
  </metadata>
  <defs
     id="defs4140" />
  <sodipodi:namedview
     pagecolor="#ffffff"
     bordercolor="#666666"
     borderopacity="1"
     objecttolerance="10"
     gridtolerance="10"
     guidetolerance="10"
     inkscape:pageopacity="0"
     inkscape:pageshadow="2"
     inkscape:window-width="1920"
     inkscape:window-height="1009"
     id="namedview4138"
     showgrid="false"
     inkscape:zoom="0.82134599"
     inkscape:cx="294.02956"
     inkscape:cy="354.29649"
     inkscape:window-x="-8"
     inkscape:window-y="-8"
     inkscape:window-maximized="1"
     inkscape:current-layer="svg4136"
     inkscape:showpageshadow="2"
     inkscape:pagecheckerboard="0"
     inkscape:deskcolor="#d1d1d1" />
  <path
     style="fill:none;fill-rule:evenodd;stroke:#000000;stroke-width:0.893544;stroke-linecap:butt;stroke-linejoin:miter;stroke-miterlimit:4;stroke-dasharray:none;stroke-opacity:1"
     d="m 228.70339,333.03488 c 0,0 -3.56247,3.50637 -5.16931,5.41589 -0.8836,1.05003 -2.10768,1.9804 -2.44863,3.30972 -0.50291,1.96078 0.81621,6.01766 0.81621,6.01766 l 6.25758,-0.60176 1.63243,-1.50439 2.17655,3.00881 3.26483,-0.60176 3.26483,2.40706 2.99276,0.30089 1.51971,2.8842 5.55408,0.7264 4.96526,-6.68178 c 0,0 4.30807,7.02896 5.64544,10.89414 1.26858,3.66636 1.81217,7.57107 2.17654,11.43355 0.64995,6.88972 -0.35759,13.84986 0,20.76092 0.31785,6.1426 1.4326,12.22123 1.90448,18.35392 1.10939,14.41798 0.34126,28.98349 2.17656,43.32714 0.62398,4.87665 1.7386,9.68864 2.99276,14.44239 1.96216,7.43734 4.33608,14.77637 7.07379,21.96449 1.75634,4.61143 3.77134,9.12979 5.98552,13.53973 1.24062,2.4709 2.74155,4.80245 4.08103,7.22119 1.93478,3.4937 3.93742,6.95391 5.71346,10.53093 1.56637,3.15473 4.3531,9.62825 4.3531,9.62825 l -8.70621,-0.60176 c 0,0 -2.60592,-7.8524 -4.62517,-11.43357 -1.78425,-3.1644 -4.22064,-5.92108 -6.52965,-8.72563 -2.06267,-2.50534 -4.87718,-4.42822 -6.52966,-7.22118 -2.54017,-4.29331 -3.10336,-9.48672 -4.89724,-14.14151 -1.33266,-3.45798 -2.47257,-7.0367 -4.35311,-10.23001 -1.87136,-3.17773 -6.80172,-8.72563 -6.80172,-8.72563 l -1.90448,-7.82293 -3.80897,-0.60178 c 0,0 -1.04075,5.59354 -1.08828,8.42471 -0.0322,1.91395 0.54414,5.7168 0.54414,5.7168 l -4.3531,-1.20353 c 0,0 -0.8112,-5.20117 -0.81622,-7.82299 -0.004,-1.81438 -0.0289,-3.69436 0.54415,-5.41588 0.77666,-2.33341 2.91517,-4.02744 3.80896,-6.31854 1.15328,-2.95628 1.68741,-6.16154 1.90448,-9.32738 0.28875,-4.21127 -0.8162,-12.63711 -0.8162,-12.63711 0,0 -3.45777,-9.88529 -5.98553,-14.44238 -1.13569,-2.04744 -4.08103,-5.71677 -4.08103,-5.71677 l 2.44863,-3.30974 2.44862,3.91152 4.62517,0.30086 0.54414,-10.23003 2.72069,-3.30972 1.63241,6.31857 4.08104,-3.30972 -0.54414,-10.53093 c 0,0 0.0153,-9.49712 -1.63241,-13.84062 -1.12661,-2.96991 -5.44139,-7.82294 -5.44139,-7.82294 l 2.01677,-5.25461 -3.37711,-1.66572 -1.76846,-2.25662 -2.99275,1.05311 -2.72069,-1.95578 -2.99276,-0.30087 -0.8162,-4.36278 c 0,0 2.08751,-1.28135 3.26482,-1.50444 1.43949,-0.27277 4.38812,0.25152 4.38812,0.25152 l 5.61042,0.65114 4.89782,-6.73109 c -0.76688,-1.68407 -2.63317,-3.05804 -3.87756,-4.47684 -1.30176,-1.48422 -4.05544,-2.71014 -6.32562,-3.53536 -2.14721,-0.78053 -4.61104,-0.43369 -6.73369,-1.27875 -1.72649,-0.68734 -3.15965,-1.95932 -4.6932,-3.00882 -1.08848,-0.74492 -3.19681,-2.33186 -3.19681,-2.33186 z"
     id="C14.0"
     inkscape:connector-curvature="0"
     inkscape:label="C14.0 pharynx"
     sodipodi:nodetypes="cssccccccccccssssssssssccssssscccsccsssscscccccccccsccccccccscccssssc" />
  <path
     style="fill:none;fill-rule:evenodd;stroke:#000000;stroke-width:0.893544;stroke-linecap:butt;stroke-linejoin:miter;stroke-miterlimit:4;stroke-dasharray:none;stroke-opacity:1"
     d="m 248.56443,354.3976 0.13603,3.3097 1.49638,1.95573 c 6.9e-4,1.59859 0.64493,3.44812 -0.20224,4.81415"
     id="path4148"
     inkscape:connector-curvature="0"
     sodipodi:nodetypes="cccc" />
  <path
     style="fill:none;fill-rule:evenodd;stroke:#000000;stroke-width:0.893544;stroke-linecap:butt;stroke-linejoin:miter;stroke-miterlimit:4;stroke-dasharray:none;stroke-opacity:1"
     d="m 247.22789,402.17407 c 0,0 -0.53732,-5.56729 -1.38415,-8.21035 -0.44247,-1.381 -1.90448,-3.91146 -1.90448,-3.91146 -0.63483,-1.30384 -1.03437,-2.75137 -1.90448,-3.9115 -1.43281,-1.91039 -3.10506,-3.8861 -5.30535,-4.81411 -2.26042,-0.95337 -5.23664,-1.70418 -7.34587,-0.45136 -1.38035,0.81988 -1.67444,2.79966 -2.04051,4.36284 -0.4575,1.95354 -0.13604,6.01766 -0.13604,6.01766 l 4.08104,3.61058 0.13602,3.91149 3.12881,3.30972 3.1288,1.05307 0.27206,4.36284 -0.68017,4.21235"
     id="path4150"
     inkscape:connector-curvature="0"
     sodipodi:nodetypes="cssssssccccccc" />
  <path
     style="fill:none;fill-rule:evenodd;stroke:#000000;stroke-width:0.893544;stroke-linecap:butt;stroke-linejoin:miter;stroke-miterlimit:4;stroke-dasharray:none;stroke-opacity:1"
     d="m 237.31171,411.51349 c 0,0 -3.85319,-3.44175 -6.25241,-4.14875 -2.67599,-0.78856 -6.02954,-1.4141 -8.3686,0.10628 -1.9959,1.29733 -1.98889,4.32562 -2.98193,6.48907 -1.15538,2.51712 -2.85823,4.85004 -3.46286,7.55286 -0.68125,3.04532 -0.29461,6.24701 -0.0962,9.36129 0.22307,3.50106 0.15241,7.16291 1.44286,10.42509 1.10256,2.78721 3.29268,5.0232 5.19432,7.34009 1.92193,2.34162 3.96432,4.61013 6.25241,6.59546 1.98977,1.72648 3.94765,3.7351 6.44479,4.57426 2.15898,0.72552 6.82956,0.21273 6.82956,0.21273"
     id="path4152"
     inkscape:connector-curvature="0"
     sodipodi:nodetypes="csssssssssc" />
  <path
     style="display:inline;fill:none;fill-rule:evenodd;stroke:#000000;stroke-width:0.893544;stroke-linecap:butt;stroke-linejoin:miter;stroke-miterlimit:4;stroke-dasharray:none;stroke-opacity:1"
     d="m 84.633803,403.94293 3.093573,0.0457 3.462871,6.38269 -1.539053,8.08474 2.885727,5.10615 2.500966,-10.21231 2.693346,-3.40411 c 0,0 -1.516655,9.92659 1.154293,13.61642 3.882904,5.36411 12.396344,4.73922 18.280424,7.77704 2.40756,1.24297 4.25155,4.69104 6.92574,4.25511 2.37975,-0.38793 4.52441,-3.13961 4.64154,-5.54793 0.1332,-2.73892 -2.40241,-5.20901 -4.64154,-6.79195 -2.70884,-1.915 -7.35122,-0.13196 -9.61909,-2.55307 -2.27288,-2.42645 -3.23336,-6.73087 -1.92382,-9.7868 1.97633,-4.61193 7.9768,-6.38367 12.6972,-8.08473 7.54717,-2.71973 15.87352,-2.48758 23.87974,-2.99486 23.33281,-1.47837 47.71442,-6.7404 70.13871,-0.12546 4.47099,1.3189 11.73182,7.61104 11.73182,7.61104"
     id="path1"
     sodipodi:nodetypes="cccccccssssssssssc" />
  <path
     style="display:inline;fill:none;fill-rule:evenodd;stroke:#000000;stroke-width:0.893544;stroke-linecap:butt;stroke-linejoin:miter;stroke-miterlimit:4;stroke-dasharray:none;stroke-opacity:1"
     d="m 249.77649,399.46427 c 0,0 0.6171,-8.47633 -1.00857,-12.22987 -2.3108,-5.3354 -6.41517,-10.5115 -11.69898,-12.93796 -23.47433,-10.78001 -51.69818,-3.73308 -77.4688,-1.96448 -7.42633,0.50966 -14.66496,2.58368 -22.03759,3.61059 -6.96184,0.96969 -14.49564,-0.3782 -20.94932,2.40705 -7.46671,3.22244 -14.4276,8.77701 -18.652837,15.72565 -1.06847,1.75715 -1.360345,6.01768 -1.360345,6.01768 h -1.904484 l -0.544136,-12.63712 -2.992761,-0.30086 -2.44862,12.63706 -8.952331,1.40008"
     id="path4158"
     sodipodi:nodetypes="csssssscccccc" />
  <path
     style="fill:none;fill-rule:evenodd;stroke:#000000;stroke-width:0.893544;stroke-linecap:butt;stroke-linejoin:miter;stroke-miterlimit:4;stroke-dasharray:none;stroke-opacity:1"
     d="m 75.256625,363.5614 c 0,0 2.235468,-5.3732 4.353106,-7.22119 2.721966,-2.37537 6.348859,-4.05346 9.953957,-4.28741 11.761792,-0.76331 22.343632,7.99961 34.010742,9.67317 37.99152,5.44958 78.76999,-11.36287 115.13761,0.90295 3.63708,1.22669 9.13406,6.9229 9.13406,6.9229"
     id="path4160"
     inkscape:connector-curvature="0"
     sodipodi:nodetypes="cssssc" />
  <path
     style="fill:none;fill-rule:evenodd;stroke:#000000;stroke-width:0.893544;stroke-linecap:butt;stroke-linejoin:miter;stroke-miterlimit:4;stroke-dasharray:none;stroke-opacity:1"
     d="m 253.18961,468.4323 -1.36034,23.76977 c 0,0 -3.66465,31.4066 -0.54414,46.6369 1.89255,9.23701 7.32043,17.38822 11.4269,25.87593 2.37045,4.8995 5.92914,9.26825 7.61792,14.44243 1.16373,3.56545 1.63242,11.13264 1.63242,11.13264"
     id="path4162"
     inkscape:connector-curvature="0"
     sodipodi:nodetypes="ccsssc" />
  <path
     style="fill:none;fill-rule:evenodd;stroke:#000000;stroke-width:0.893544;stroke-linecap:butt;stroke-linejoin:miter;stroke-miterlimit:4;stroke-dasharray:none;stroke-opacity:1"
     d="m 300.25753,589.68821 c 0,0 -3.04427,-13.75438 -5.1693,-20.46004 -1.07088,-3.37926 -2.36152,-6.69324 -3.80896,-9.92915 -4.69693,-10.50048 -11.35995,-20.07011 -15.78001,-30.6901 -1.58017,-3.79666 -3.93144,-7.62386 -3.80896,-11.7344 0.0963,-3.23014 3.5369,-9.02652 3.5369,-9.02652"
     id="path4164"
     inkscape:connector-curvature="0"
     sodipodi:nodetypes="cssssc" />
  <path
     style="fill:none;fill-rule:evenodd;stroke:#000000;stroke-width:0.893544;stroke-linecap:butt;stroke-linejoin:miter;stroke-miterlimit:4;stroke-dasharray:none;stroke-opacity:1"
     d="m 286.9942,529.36114 8.63817,18.20342 18.77277,43.02631"
     id="path4166"
     inkscape:connector-curvature="0"
     sodipodi:nodetypes="ccc" />
  <path
     style="fill:none;fill-rule:evenodd;stroke:#000000;stroke-width:0.893544;stroke-linecap:butt;stroke-linejoin:miter;stroke-miterlimit:4;stroke-dasharray:none;stroke-opacity:1"
     d="m 295.49636,529.5868 11.29085,23.69456 17.14036,37.61037"
     id="path4168"
     inkscape:connector-curvature="0"
     sodipodi:nodetypes="ccc" />
  <path
     id="C14.2"
     style="display:inline;fill:none;fill-rule:evenodd;stroke:#000000;stroke-width:0.893544;stroke-linecap:butt;stroke-linejoin:miter;stroke-miterlimit:4;stroke-dasharray:none;stroke-opacity:1"
     d="m 610.42473,293.64117 c 13.49246,24.64594 15.79211,31.8526 22.98473,54.09176 m -38.49032,105.75295 c 20.41784,-12.15532 22.13698,-19.34937 30.4926,-34.64638 m -176.80057,2.2465 c 8.06714,17.34199 11.99957,20.68516 25.973,30.09021 m -12.82994,-157.783 c -12.67731,24.32765 -15.75552,31.99018 -24.01703,54.74512 m 63.60203,-104.17297 c -8.53708,7.1838 -18.02377,13.95144 -24.70227,26.38285 m -38.40874,77.82165 c -13.9819,0.69842 -14.97869,14.46753 -14.70576,33.40773 0.27293,18.94021 7.65963,40.40559 24.0124,39.2783 16.35276,-1.12728 16.15273,-22.44157 13.91304,-41.98153 -2.66044,-23.21091 -9.23777,-31.40292 -23.21968,-30.7045 z m 36.45726,104.36855 c -0.13894,16.92064 35.9664,26.92333 59.67223,26.33999 23.70582,-0.58332 60.29192,-6.10269 60.55179,-24.75655 0.25987,-18.65386 -39.80267,-25.81757 -61.17321,-25.75143 -21.37054,0.0661 -58.91187,7.24735 -59.05081,24.16799 z m 157.80007,-104.7073 c -13.70149,-0.98139 -20.97165,22.53382 -21.77047,35.1225 -1.04543,16.47507 3.41179,31.16077 13.20116,35.24354 8.4166,3.51024 22.37388,-0.007 25.48321,-37.6623 1.92401,-23.30039 -2.38922,-31.66339 -16.9139,-32.70374 z m -41.69523,-58.97629 c 3.84443,7.79386 13.25319,9.16229 18.9896,5.34447 5.73642,-3.81782 7.41427,-9.55274 3.85859,-16.54143 -3.55569,-6.98869 -11.67559,-10.13167 -18.70414,-6.39398 -7.02855,3.7377 -7.98849,9.79708 -4.14405,17.59094 z M 475.22961,270.20324 c -8.89934,-1.2392 -15.04883,2.44846 -16.94587,9.55602 -1.89705,7.10756 -0.45636,12.63713 7.12536,15.65827 7.58171,3.02114 17.3362,-4.13284 19.2,-10.73196 1.86381,-6.59912 -0.48014,-13.24314 -9.37949,-14.48233 z m 25.57268,-29.51833 c 0.0919,9.8837 8.46925,16.75993 35.38288,16.79908 26.91363,0.0391 33.98352,-7.15711 33.90146,-16.48714 -0.082,-9.33002 -6.88727,-17.72981 -34.42863,-17.76375 -27.76164,-0.0342 -34.92844,9.62694 -34.85571,17.45181 z"
     inkscape:label="C14.2 lymphatischer rachenring"
     inkscape:connector-curvature="0"
     sodipodi:nodetypes="cccccccccczzzszzzzzzssssszzzzzzzzzzszzss" />
  <path
     style="fill:none;fill-rule:evenodd;stroke:#000000;stroke-width:0.893544;stroke-linecap:butt;stroke-linejoin:miter;stroke-miterlimit:4;stroke-dasharray:none;stroke-opacity:1"
     d="m 569.97284,241.4947 c 12.07493,12.49052 18.57136,18.48552 26.44019,29.2404"
     id="path4192"
     inkscape:connector-curvature="0"
     sodipodi:nodetypes="cc" />
  <path
     style="fill:none;fill-rule:evenodd;stroke:#000000;stroke-width:0.893544;stroke-linecap:butt;stroke-linejoin:miter;stroke-miterlimit:4;stroke-dasharray:none;stroke-opacity:1"
     d="M 238.33567,338.70006 501.05085,240.48474"
     id="path4194"
     inkscape:connector-curvature="0"
     sodipodi:nodetypes="cc" />
  <path
     style="fill:none;fill-rule:evenodd;stroke:#000000;stroke-width:0.893544;stroke-linecap:butt;stroke-linejoin:miter;stroke-miterlimit:4;stroke-dasharray:none;stroke-opacity:1"
     d="M 250.46891,360.11435 458.05459,288.4049"
     id="path4196"
     inkscape:connector-curvature="0"
     sodipodi:nodetypes="cc" />
  <path
     style="fill:none;fill-rule:evenodd;stroke:#000000;stroke-width:0.893544;stroke-linecap:butt;stroke-linejoin:miter;stroke-miterlimit:4;stroke-dasharray:none;stroke-opacity:1"
     d="M 245.57167,393.8133 423.48532,383.272"
     id="path4198"
     inkscape:connector-curvature="0"
     sodipodi:nodetypes="cc" />
  <path
     style="fill:none;fill-rule:evenodd;stroke:#000000;stroke-width:0.893544;stroke-linecap:butt;stroke-linejoin:miter;stroke-miterlimit:4;stroke-dasharray:none;stroke-opacity:1"
     d="m 247.20409,432.92812 227.67634,21.23029"
     id="path4200"
     inkscape:connector-curvature="0"
     sodipodi:nodetypes="cc" />
  <path
     style="fill:none;fill-rule:evenodd;stroke:#000000;stroke-width:0.893544;stroke-linecap:butt;stroke-linejoin:miter;stroke-miterlimit:4;stroke-dasharray:none;stroke-opacity:1"
     d="m 63.928128,359.96194 c 0,0 7.549013,-13.31245 11.509073,-19.8588 3.35506,-5.54622 5.608569,-12.05478 10.376039,-16.44662 5.606591,-5.16486 13.312885,-7.47438 20.2756,-10.57763 6.27986,-2.79891 12.57051,-5.91505 19.32063,-7.22137 5.34686,-1.03475 10.88746,-0.45919 16.33323,-0.40246 21.88394,0.22799 44.12593,-1.3003 65.58753,2.98438 4.87257,0.97278 10.40887,1.6681 14.00941,5.09218 2.52234,2.39871 2.82125,6.3681 4.05558,9.6227 1.23945,3.2681 3.35939,9.93301 3.35939,9.93301"
     id="path4203"
     inkscape:connector-curvature="0"
     sodipodi:nodetypes="cssssssssc" />
  <path
     id="path4152-7"
     style="fill:none;fill-rule:evenodd;stroke:#000000;stroke-width:0.893544;stroke-linecap:butt;stroke-linejoin:miter;stroke-miterlimit:4;stroke-dasharray:none;stroke-opacity:1"
     d="m 422.85894,203.70978 c 0,0 5.58849,10.22167 7.71651,15.62751 2.00937,5.10449 4.05209,10.31956 4.72782,15.76353 0.97182,7.82947 -0.28427,15.79307 -1.05061,23.6453 -0.68212,6.9893 -1.55722,13.99134 -3.15189,20.8304 -1.96757,8.43844 -5.10257,16.56363 -7.87977,24.77128 -2.49227,7.36562 -4.79684,14.8178 -7.8798,21.95637 -2.75503,6.37927 -5.91029,12.6022 -9.45569,18.57847 -3.48057,5.86694 -7.82831,11.177 -11.55699,16.8895 -3.62405,5.55214 -8.14993,10.69215 -10.5064,16.88951 -2.57164,6.76326 -3.50919,14.1596 -3.67721,21.39334 -0.19754,8.50757 2.26678,16.87057 3.15192,25.3343 1.07741,10.30224 1.36992,20.68215 2.6266,30.96408 0.80697,6.6025 1.83236,13.18498 3.15189,19.70442 1.45667,7.19704 2.8137,14.46748 5.2532,21.39336 2.47666,7.03147 5.39201,14.01747 9.45569,20.26741 4.06951,6.25886 9.36485,11.67655 14.70892,16.88951 3.58046,3.49263 7.7878,6.28268 11.55699,9.57074 2.50848,2.18826 7.35444,6.7558 7.35444,6.7558 M 96.654229,203.4623 c 0,0 -4.46523,16.92887 -6.484835,25.4457 -1.50725,6.35619 -4.586108,12.62026 -4.202545,19.14144 0.408165,6.93944 4.934012,13.01631 6.829139,19.70442 1.100574,3.88406 3.043486,7.80727 2.626583,11.82266 -0.744713,7.17267 -5.202925,13.53129 -8.930396,19.70444 -4.423536,7.32592 -10.142056,13.81136 -15.759541,20.26742 -4.122809,4.73825 -9.85459,8.15428 -13.132957,13.51162 -2.275626,3.7187 -4.701443,8.05453 -4.202543,12.38563 0.45523,3.95198 3.77347,7.06401 6.303815,10.13366 2.280158,2.76614 4.637715,5.78922 7.879778,7.31884 2.556474,1.20615 6.24529,-0.69773 8.405086,1.12592 3.603861,3.04293 4.160517,8.7951 4.202545,13.51161 0.02787,3.12752 -1.391818,6.13419 -2.626594,9.00776 -0.686128,1.59674 -2.547158,2.76773 -2.626584,4.50383 -0.170348,3.72356 2.275817,7.32634 4.727853,10.13373 1.369492,1.56797 4.995135,1.3121 5.253181,3.3779 0.318145,2.54689 -4.370983,3.21953 -5.253181,5.62983 -1.227001,3.35238 -1.012782,7.47519 0.525325,10.69671 1.213843,2.54237 4.202545,3.75322 6.303817,5.62983 1.050635,0.93829 2.597102,1.52013 3.151906,2.81491 2.144556,5.00487 -0.184686,10.89219 -0.525326,16.32653 -0.35374,5.6432 -1.810124,11.24005 -1.575947,16.88949 0.165764,3.9992 0.151263,8.32714 2.101273,11.82266 2.058768,3.6905 5.655808,6.59571 9.455725,8.44473 4.798394,2.33489 10.476734,2.06099 15.759534,2.81494 6.97368,0.99525 13.96896,2.16013 21.01271,2.25192 9.31014,0.12128 18.5326,-2.07565 27.84186,-2.25192 4.38088,-0.083 8.90698,-0.59465 13.13296,0.56299 5.36486,1.46962 11.04921,3.69269 14.70891,7.88177 4.61248,5.27967 5.60153,12.91636 7.35443,19.7044 1.18604,4.59287 0.34444,9.66841 2.10129,14.07462 1.69665,4.25522 5.61408,7.27814 7.87976,11.25964 3.1569,5.54764 5.70696,11.45075 7.87978,17.45251 2.45288,6.77534 5.94536,13.62663 5.77848,20.83039 -0.19745,8.52424 -7.97176,24.3057 -7.97176,24.3057"
     sodipodi:nodetypes="csssssssssssssssssccssssssssssssssssssssssssssssssssssc"
     inkscape:label="Kopfform einheitlich" />
  <path
     id="C14.8"
     style="font-size:33.2768px;font-family:'.Arial Hebrew Desk Interface';-inkscape-font-specification:'.Arial Hebrew Desk Interface, Normal';display:inline;fill:none;stroke:#000000;stroke-width:1;stroke-dasharray:none"
     d="m 606.21,80.958431 q -3.28102,-2.26276 -3.28102,-6.109462 0,-3.846722 2.77191,-5.883209 2.82845,-2.036487 6.50545,-2.036487 3.62044,0 6.44891,2.036487 2.82846,2.036487 2.82846,5.883209 0,3.846702 -3.28102,6.109462 v 0.05667 q 2.2062,1.018249 3.5073,3.054736 1.35765,1.979919 1.35765,4.355838 0,3.846712 -2.99816,6.618607 -2.99817,2.771894 -7.86314,2.771894 -5.03466,0 -7.97626,-2.771894 -2.88504,-2.828463 -2.88504,-6.618607 0,-2.375919 1.30111,-4.355838 1.35766,-2.036487 3.56385,-3.054736 z m 5.99634,-1.583931 q 1.69709,0 3.05474,-1.018239 1.41423,-1.018249 1.41423,-2.941609 0,-2.093066 -1.35766,-3.111305 -1.30108,-1.074827 -3.11131,-1.074827 -1.97992,0 -3.22444,1.131386 -1.24453,1.131385 -1.24453,3.054746 0,1.866782 1.35767,2.941609 1.41423,1.018239 3.1113,1.018239 z m 0,14.142317 q 2.14963,0 3.79014,-1.244522 1.64051,-1.244522 1.64051,-3.846711 0,-2.093068 -1.58393,-3.507305 -1.58394,-1.414226 -3.84672,-1.414226 -2.20619,0 -3.8467,1.414226 -1.58394,1.414237 -1.58394,3.507305 0,2.602189 1.64051,3.846711 1.64051,1.244522 3.79013,1.244522 z m 21.79499,-11.26614 A 21.750674,21.750674 0 0 1 612.25068,104.00136 21.750674,21.750674 0 0 1 590.5,82.250677 21.750674,21.750674 0 0 1 612.25068,60.5 21.750674,21.750674 0 0 1 634.00133,82.250677 Z"
     inkscape:label="C14.8" />
</svg>
