<?xml version="1.0" encoding="UTF-8" standalone="no"?>
<!-- Created with Inkscape (http://www.inkscape.org/) -->

<svg
   xmlns:dc="http://purl.org/dc/elements/1.1/"
   xmlns:cc="http://creativecommons.org/ns#"
   xmlns:rdf="http://www.w3.org/1999/02/22-rdf-syntax-ns#"
   xmlns:svg="http://www.w3.org/2000/svg"
   xmlns="http://www.w3.org/2000/svg"
   xmlns:sodipodi="http://sodipodi.sourceforge.net/DTD/sodipodi-0.dtd"
   xmlns:inkscape="http://www.inkscape.org/namespaces/inkscape"
   id="svg4136"
   version="1.1"
   inkscape:version="0.92.3 (2405546, 2018-03-11)"
   width="300"
   height="300"
   viewBox="0 0 300 300"
   sodipodi:docname="level3_C24.svg">
  <metadata
     id="metadata4142">
    <rdf:RDF>
      <cc:Work
         rdf:about="">
        <dc:format>image/svg+xml</dc:format>
        <dc:type
           rdf:resource="http://purl.org/dc/dcmitype/StillImage" />
        <dc:title></dc:title>
      </cc:Work>
    </rdf:RDF>
  </metadata>
  <defs
     id="defs4140" />
  <sodipodi:namedview
     pagecolor="#ffffff"
     bordercolor="#666666"
     borderopacity="1"
     objecttolerance="10"
     gridtolerance="10"
     guidetolerance="10"
     inkscape:pageopacity="0"
     inkscape:pageshadow="2"
     inkscape:window-width="1680"
     inkscape:window-height="987"
     id="namedview4138"
     showgrid="false"
     inkscape:zoom="1.7899999"
     inkscape:cx="159.81922"
     inkscape:cy="170.19614"
     inkscape:window-x="-8"
     inkscape:window-y="-8"
     inkscape:window-maximized="1"
     inkscape:current-layer="svg4136" />
  <g
     id="C24.0"
     inkscape:label="#g14486"
     transform="translate(-57.12907,-363.45834)">
    <path
       sodipodi:nodetypes="ccccccccc"
       inkscape:connector-curvature="0"
       id="path4162-0"
       d="m 139.51685,507.39115 2.14152,-2.57055 2.32843,-1.0279 3.53075,-5.08677 1.19048,-1.70789 -5.55531,-2.03593 -2.67545,3.92496 -1.71504,1.01758 -3.43007,2.03517"
       style="fill:none;fill-rule:evenodd;stroke:#000000;stroke-width:0.60000002;stroke-linecap:butt;stroke-linejoin:miter;stroke-miterlimit:4;stroke-dasharray:none;stroke-opacity:1" />
    <path
       sodipodi:nodetypes="ccccccccccccccccccccccccccccccccccccccccccccccccccccccc"
       inkscape:connector-curvature="0"
       id="path4164-7"
       d="m 150.90472,493.36306 2.46965,-6.97771 -0.85006,-8.49606 1.35824,-0.41117 1.17255,3.23787 v 0 l 2.70977,-7.70457 1.09763,-4.65179 1.64643,-5.52403 0.82321,-4.94255 0.54882,-3.48884 0.27441,-4.94254 v -6.10549 l 6.86015,-3.19811 5.76254,-5.23328 3.84168,-5.23329 2.46966,-6.68695 1.64644,-4.36107 0.82322,-4.36106 3.29287,-3.19812 6.31134,-3.19811 3.29288,-2.61664 -4.66491,-6.68697 -8.50659,6.39622 -3.29287,2.61665 -1.09763,-6.68697 -1.09763,-4.36106 -7.13457,1.45369 1.92085,8.14065 1.09762,4.07032 1.64644,4.6518 0.27441,4.65182 -2.19524,6.39622 -3.29288,4.94254 -6.86016,3.19812 2.74407,-6.39623 1.64643,-4.6518 -0.82321,-5.23329 -2.05805,-1.88979 -9.52143,6.9117 -2.88179,0.13428 4.58074,4.62287 0.52036,0.49515 -0.0473,-0.16194 -2.11757,7.62274 -1.64644,6.10548 v 6.68697 l -0.2744,8.14064 -0.27441,5.23329 -1.64643,6.39624 -2.46966,9.01286 -3.56729,10.75729 -1.71504,5.08791 4.16591,1.82011 z"
       style="fill:none;fill-rule:evenodd;stroke:#000000;stroke-width:0.60000002;stroke-linecap:butt;stroke-linejoin:miter;stroke-miterlimit:4;stroke-dasharray:none;stroke-opacity:1" />
  </g>
  <path
     style="fill:none;fill-rule:evenodd;stroke:#000000;stroke-width:0.60000002;stroke-linecap:butt;stroke-linejoin:miter;stroke-miterlimit:4;stroke-dasharray:none;stroke-opacity:1"
     d="m 245.70741,43.196864 8.14945,-2.878166 8.14945,1.23351 h 5.04489 l 4.26876,3.700477 2.32842,7.400984 v 6.578636 l -1.16421,3.700487 -2.32841,6.578636 -2.71649,5.756302 -5.43296,1.64467 h -2.32842 l -1.55228,5.34515 -5.82103,4.52281 -7.95542,0.23129 -1.89215,-6.05261 -1.38219,-4.40642 -1.89183,-7.092586 0.72763,-4.779794 1.64929,-9.662378 3.37136,-7.298182 z"
     id="path4146"
     inkscape:connector-curvature="0"
     inkscape:label="#path4146"
     sodipodi:nodetypes="cccccccccccccccccccccc" />
  <path
     style="fill:none;fill-rule:evenodd;stroke:#000000;stroke-width:0.60000002;stroke-linecap:butt;stroke-linejoin:miter;stroke-miterlimit:4;stroke-dasharray:none;stroke-opacity:1"
     d="m 145.53707,131.85434 5.0934,5.49934 1.94035,5.34514 2.32842,7.81215 -1.55228,5.34515 -2.32842,3.70046 -2.32841,1.64469 -0.77613,6.16748 -1.16422,2.87813 -1.55227,6.16749 -4.26876,4.11164 h -6.20911 l -6.20911,5.75632 -6.20909,0.82233 -8.92559,1.23352 -3.88071,-2.05585 -11.253986,2.05585 -5.821038,-2.46702 -7.761383,-9.86795 -4.656829,-9.04563 -2.085873,-8.04342 -3.88069,-6.65575 13.63093,1.07931 5.457221,-6.39875 4.763892,-0.70997 5.188816,-0.84728 7.16078,-2.75558 5.85534,-6.09479 h 9.31366 l 5.43296,0.82233 9.70174,-1.64466 4.99639,-3.80327 z"
     id="path4148"
     inkscape:connector-curvature="0"
     inkscape:label="#path4148"
     sodipodi:nodetypes="ccccccccccccccccccccccccccccccccc" />
  <path
     style="opacity:0.98000004;fill:none;fill-rule:evenodd;stroke:#000000;stroke-width:0.60000002;stroke-linecap:butt;stroke-linejoin:miter;stroke-miterlimit:4;stroke-dasharray:none;stroke-opacity:1"
     d="m 245.74876,43.171951 -6.87681,-1.17253 -3.29288,-1.162942 -3.29286,1.162942 -3.84169,1.453679 h -5.21372 l -4.39051,2.035174 -2.74405,4.651811 -4.39051,-1.744431 h -5.21372 l -8.5066,2.035163 -5.21371,3.779585 -6.03694,-1.45368 -4.3905,2.616638 -3.29287,3.19811 -3.29288,2.325906 -4.11609,-0.872215 -3.29288,-0.290743 -4.66491,4.070337 -4.93931,2.03516 -3.29287,2.3259 -5.21373,-0.29074 -4.6649,-0.872202 -3.84169,1.162942 -5.76254,2.907381 -7.13455,1.74442 -8.2322,2.325894 -2.74406,3.7796 -6.31134,0.29073 -4.1161,2.32591 -2.46965,1.45369 -7.683376,3.77958 -4.664907,1.74443 -3.018471,6.39623 -3.018462,3.19811 -5.488131,3.48885 -3.018461,5.52402 -0.274411,3.19812 0.548806,3.48885 -3.018465,6.10549 0.274403,6.68696 1.646442,5.52401 -1.372031,4.07033 -2.744062,3.19813 -1.372031,4.6518 2.14531,8.09731 10.477377,0.87221 3.292877,0.33409 5.488122,-6.39623 9.623601,-1.47133 7.27392,-2.7965 2.42122,-2.31934 3.57825,-3.77661 7.56211,-0.0434 1.76098,-0.0335 5.64798,0.86407 6.35985,-1.12114 3.32651,-0.62052 1.7902,-1.39852 3.06698,-2.40148 -1.09763,-2.3259 5.21372,-1.45368 4.6649,-2.03516 5.21373,-4.94255 2.74406,-1.74443 8.5066,-0.58148 4.39049,-1.16295 4.93932,0.29074 4.11609,-3.19812 6.58576,-2.61664 3.01847,-3.48884 7.68337,-1.74443 4.1161,-3.77959 2.19525,-2.61664 h 5.48812 l 5.48812,0.29075 5.21373,-2.61665 1.37203,-1.16295 9.87863,-2.03516 4.3905,-2.03516 4.66489,-5.81475 -3.56727,-11.62952 -1.64643,-6.105491 2.46965,-14.536873 3.3081,-7.072427 z"
     id="path4150"
     inkscape:connector-curvature="0"
     inkscape:label="#path4150"
     sodipodi:nodetypes="cccccccccccccccccccccccccccccccccccccccccccccccccccccccccccccccccccccccccccccccccccccc" />
  <path
     style="fill:none;fill-rule:evenodd;stroke:#000000;stroke-width:0.60000002;stroke-linecap:butt;stroke-linejoin:miter;stroke-miterlimit:4;stroke-dasharray:none;stroke-opacity:1"
     d="m 97.270984,146.34792 2.328408,1.49047 3.880688,3.28932 3.10455,3.70048 2.13438,2.26142 0.77614,2.26141 1.55227,4.11165 2.32843,1.2335 1.7463,0.41115 2.32842,1.4391 1.74631,1.85023 1.94034,2.87815 0.97018,0.82234 0.5821,-0.41116 -0.38806,-2.67258 -2.52246,-3.49492 -2.13437,-2.2614 -3.10456,-0.82232 -1.1642,-1.43908 -1.35825,-1.64466 -3.10455,-5.34515 -1.94035,-2.46699 -0.77614,-2.05582 2.32842,-2.87817 3.10455,-0.20557 1.55228,1.23348 0.38807,3.7005 2.13438,3.08374 1.35824,1.02791 2.52245,-1.23351 1.7463,2.26143 3.10456,0.41115 h 2.91052 l 0.38807,2.87816 0.97018,2.87815 v 2.67257 l 0.58209,1.64468 1.94035,1.43907 2.13439,1.23349 0.38806,-1.85023 -2.13439,-2.87817 -0.97016,-4.52282 -0.97018,-2.46698 -0.38807,-2.67257 v -1.64467 l 2.52245,-0.61675 1.35825,1.43909 2.91051,1.23348 2.91053,-0.20557 -0.97018,-1.23351 -0.97018,-0.61674 -3.29858,-0.82233 -2.71648,-1.0279 -2.13438,-0.20559 -2.13438,0.20559 -0.97018,2.2614 h -3.29859 l -0.77614,-1.64466 -1.7463,-0.82233 -2.91052,0.41116 -0.58211,-1.23349 -0.77613,-2.87816 -0.19404,-2.26141 2.13439,-0.61674 3.68664,1.64465 h 3.49263 l 1.74631,-0.41116 2.13439,-0.41116 0.97016,-1.85025 2.71649,-0.41117 2.13438,2.467 1.7463,2.05583 1.94035,1.64466 1.94035,1.43907 h 1.35824 l -1.16421,-2.87816 -2.71648,-2.05582 -2.32842,-3.08374 -1.94033,-0.82233 -3.49263,-1.23348 -3.68666,1.02789 -2.71648,1.43908 -2.32842,-0.82233 -3.10455,-1.64464 h -2.71648 l -2.91052,0.82232 -4.5113,1.61895 -2.86201,1.2592 -1.94034,0.61676 -1.94036,-0.82233 -0.5821,-2.67258 2.32842,-2.26141 1.74631,-2.05581 1.94034,-3.08376 3.10456,1.02792 3.49262,-2.87816 3.68666,-2.46699 4.46278,0.41115 5.82105,0.41118 h 3.49262 l 1.17219,-1.39495 -0.97817,-1.27763 -5.62699,-0.41116 -3.8807,-0.82232 -4.46278,-0.82233 -2.71648,1.23349 -2.52246,3.90606 h -3.10455 v -3.70048 l 0.38807,-5.13956 1.94034,-3.7005 4.26876,-5.7563 3.68666,-2.87816 2.91051,-2.67257 2.13439,0.41116 2.32841,2.67258 h 4.85087 l 5.43296,-3.28933 2.91053,-2.05582 0.77613,-1.23349 -4.65683,1.23349 -4.85086,2.05582 -2.52245,-2.2614 -0.19403,-1.43907 4.65683,-1.64468 4.65682,-1.43907 2.13439,0.82233 2.13437,2.467 4.07473,1.02791 h 6.01507 4.26876 l 1.16421,-2.26141 -1.55228,-0.61676 h -5.627 l -4.07473,-0.41116 -2.13437,-1.02791 -0.38807,-1.85025 3.10454,-0.82233 3.49263,-1.64466 3.10455,-0.41116 1.94035,2.46699 3.29859,2.05582 2.71648,0.82235 h 2.32841 l 2.32841,-1.4391 3.49263,-0.20557 1.1642,-1.64467 -2.13437,-1.02791 -3.49263,0.61674 -5.0449,-0.20558 -2.32842,-1.85024 1.74632,-1.64465 h 5.23893 c 0.97018,0 4.07473,-0.61674 4.07473,-0.61674 l 3.29859,-1.02793 1.94035,-1.64465 3.88068,2.05581 1.16421,0.82234 2.32841,-1.2335 2.71649,1.43909 4.07472,0.82232 -1.35824,-2.87815 -3.49262,-1.23351 -4.07472,-1.43906 -2.13439,-1.2335 1.94035,-1.23351 2.32841,-1.43907 h 2.52246 3.29858 l 3.10455,2.67258 5.43298,1.2335 4.65683,0.20557 0.38806,-1.23349 -0.5821,-1.2335 -4.26876,-0.20559 -2.71649,-0.20556 -1.35824,-1.64467 1.16421,-0.61675 2.71649,-2.05583 4.07472,-1.2335 2.3284,-1.02791 3.49263,3.08375 5.04491,0.82233 3.10454,0.41116 4.07472,1.02791 h 1.94036 l -1.74632,-3.08374 h -3.29859 l -3.88068,-1.2335 -3.10456,-0.82232 -2.71648,-2.2614 v -2.67259 l 2.32841,-0.20559 3.68666,0.82236 6.40314,-0.20561 4.26877,-2.261403 4.65682,-2.46698 2.52244,-2.261415 2.13439,-1.233492 1.55227,-1.439071 h 3.2986 l 1.1642,-2.672577 1.16421,-3.700487 0.77613,-1.644666 -0.38806,-1.850239 -1.55228,0.205582 -2.13438,2.466984 -0.38807,2.878159 -0.38807,2.055831 -3.29859,-0.205592 h -1.55228 l -1.55227,1.850248 -1.55227,0.616757 -1.94035,-2.467005 1.74631,-3.083731 1.55228,-3.494905 -1.55228,-1.439075 -2.13438,2.466986 -1.35824,2.672576 -1.35824,2.466984 0.19403,2.672588 0.19404,2.261387 -3.10456,1.02792 -4.65683,1.02792 -3.88068,0.205586 -2.32842,-2.261426 1.35824,-2.055805 2.52246,-0.616757 h 1.1642 l 2.32842,-1.850248 1.55227,-2.261403 -0.38807,-1.439065 -2.52246,0.822319 -1.7463,1.850249 -2.32841,0.822328 -1.16421,0.205572 -1.55228,2.261423 -1.55228,2.261387 -0.97016,1.439081 -3.49263,2.055829 -2.32842,1.850243 -2.52244,2.672573 -3.68666,1.43909 -2.32842,0.41117 h -2.32842 l 0.38807,-2.67259 2.32842,-2.261404 c 0,0 1.35825,-0.822334 2.71649,-1.233495 1.35824,-0.411162 6.40314,-3.083739 6.40314,-3.083739 l 0.5821,-2.466994 -2.32841,-0.411151 -2.91052,2.055817 -4.4628,1.644651 -2.32842,1.439092 -2.3284,2.878137 -0.77614,2.467006 -0.5821,3.4949 h -2.91053 -2.91052 l -2.71648,1.64467 -2.52245,1.64466 -2.13438,1.23349 -2.13437,-2.46699 2.13437,-2.46699 4.65683,-3.28933 2.71648,-2.261416 1.16422,-1.644652 -1.16422,-1.233485 -3.10455,1.02791 -1.7463,1.850227 -2.32842,1.439086 -2.13438,2.67259 -2.71649,1.23348 v 3.90608 l 0.38807,2.87815 0.19404,0.82232 -1.16421,1.43909 -5.23893,0.41116 -5.23893,0.82233 -6.20911,1.02791 -6.59717,2.26142 -5.62701,1.43908 -4.07472,1.23349 -0.77615,-4.11166 1.74633,-0.20558 5.04489,-0.41117 3.29858,-1.23349 h 2.52245 l 0.19404,-2.26141 -1.1642,-0.41117 -5.62701,0.41117 -4.07473,0.61675 -3.49262,0.61676 -0.97017,3.08374 -0.58211,3.4949 -1.1642,2.05581 -3.68666,1.85026 -4.26876,2.46699 -5.0449,4.11165 -3.49262,3.70048 -1.55228,2.67258 -1.7463,2.67256 -1.16422,1.4391 -0.77614,-3.90609 0.97018,-3.08373 1.55228,-2.46698 1.1642,-2.46699 1.55228,-2.67258 2.13439,-2.46699 1.55227,-2.05582 1.16421,-2.67258 -0.58211,-1.43908 -2.32841,2.46698 -2.32842,2.67257 -2.71648,3.08375 -1.94035,3.28933 -1.94034,3.28932 -1.94034,3.90606 0.97017,4.31723 0.77613,3.28932 0.38807,4.52282 -0.5821,4.11166 -0.77614,3.70048 -1.74631,2.67257 -4.268756,-2.46699 1.74632,-4.11164 v -4.52282 -3.4949 l -1.74632,-5.13958 -1.35824,0.41117 0.38807,4.52281 0.5821,4.93398 v 3.7005 l -1.552277,2.2614 -4.074727,1.43908 -4.074717,-1.85024 h -3.686656 l -1.207255,-1.22317 -0.923089,-1.87518 -1.117128,-0.83267 -1.14268,1.39348 1.8287,2.42959 0.405547,1.36425 2.738001,0.79952 h 2.716481 l 2.32842,0.82234 2.910517,1.2335 2.522455,0.41116 2.134378,0.61674 1.94035,1.64466 -0.58211,1.4391 -3.104548,2.46698 -3.10456,1.43908 -2.716482,1.23348 -1.746305,-2.46698 -2.328421,1.0279 -2.134376,2.46701 4.394198,1.78789 2.316639,0.36127 4.429503,-1.01545 3.834612,1.5238"
     id="path4152"
     inkscape:connector-curvature="0"
     inkscape:label="#path4152"
     sodipodi:nodetypes="ccccccccccccccccccccccccccccccccccccccccccccccccccccccccccccccccccccccccccccccccccccccccccccccccccccccccccccccccccccccccccccccccccccccccccccccccccccccccsccccccccccccccccccccccccccccccccccccccccccccccccccccccccccccccccccccccccccccccccccccccccccccccsccccccccccccccccccccccccccccccccccccccccccccccccccccccccccccccccccccccccccccccccccccccccccccccccccccccccccccccccc" />
  <path
     style="fill:none;fill-rule:evenodd;stroke:#000000;stroke-width:0.60000002;stroke-linecap:butt;stroke-linejoin:miter;stroke-miterlimit:4;stroke-dasharray:none;stroke-opacity:1"
     d="m 34.985888,62.521627 -1.358238,4.728395 -0.38807,4.728396 -0.776141,4.317242 0.970176,4.7284 0.970176,4.31722 1.940345,3.28933 3.880689,3.90606 4.850857,1.23351 6.597176,-3.08375 3.686654,-4.5228 2.522459,-4.31725 3.298583,-5.96189 1.940345,-5.756304 2.716486,-5.139574 1.74631,-4.933979 1.940344,-4.111651 1.552274,-4.111651 0.970177,-1.644667 3.880689,-0.411164 5.821038,-0.411164 2.910516,0.411164 2.619468,1.95303 2.231399,2.467004 2.037363,3.083731 3.783671,2.158631 2.71649,-0.205591 4.074716,-2.672577 3.29858,-2.466985 2.21274,-1.66961 L 104.36987,48.36137 97.853084,44.635938 93.390291,43.402446 89.89767,42.580108 86.211004,40.113115 82.912427,37.85172 78.255595,35.384721 73.598764,34.151226 68.747898,33.945643 H 63.89704 l -5.044901,2.46699 -5.044901,2.466988 -4.074725,3.083751 -2.910512,3.289313 -3.880698,3.700487 -5.238929,5.9619 -1.746308,3.906068 z"
     id="C23"
     inkscape:connector-curvature="0"
     sodipodi:nodetypes="cccccccccccccccccccccccccccccccccccccccccccccccc"
     inkscape:label="#path4154" />
  <path
     style="fill:none;fill-rule:evenodd;stroke:#000000;stroke-width:0.60000002;stroke-linecap:butt;stroke-linejoin:miter;stroke-miterlimit:4;stroke-dasharray:none;stroke-opacity:1"
     d="m 78.13848,138.37896 -1.71504,1.01759 -1.920845,0.87222 -1.920845,0.87221 v 0 0 l -0.823217,2.90737 1.09762,3.77958 8.23219,-2.03516 1.23483,-1.96248"
     id="C24.1"
     inkscape:connector-curvature="0"
     sodipodi:nodetypes="cccccccccc"
     inkscape:label="#path4158" />
  <path
     style="fill:none;fill-rule:evenodd;stroke:#000000;stroke-width:0.60000002;stroke-linecap:butt;stroke-linejoin:miter;stroke-miterlimit:4;stroke-dasharray:none;stroke-opacity:1"
     d="m 154.62923,149.57236 6.58574,-6.39622 9.87863,-3.48887 12.34829,-2.61663 9.71846,1.06564 7.29473,3.0047 -4.71387,10.04606 -1.74436,9.40093 -1.6138,10.85458 -10.862,2.84251 -7.9578,6.39623 -7.13456,7.26845 -9.87862,10.17581 -9.32982,9.3036 -9.0554,6.10551 -15.36675,2.90737 -12.8971,0.8722 -15.366744,-0.8722 -15.915568,-3.7796 -11.799473,-6.9777 -8.780999,-9.01287 -8.232186,-11.33876 -7.68338,-15.11838 -4.939309,-12.79244 -2.195248,-15.11835 -0.548814,-14.5369 4.390496,-24.13121 5.21372,-10.46657"
     id="path4168"
     inkscape:connector-curvature="0"
     sodipodi:nodetypes="cccccccccccccccccccccccccccc" />
  <path
     style="fill:none;fill-rule:evenodd;stroke:#000000;stroke-width:0.60000002;stroke-linecap:butt;stroke-linejoin:miter;stroke-miterlimit:4;stroke-dasharray:none;stroke-opacity:1"
     d="m 69.563277,55.954843 7.271772,-2.616637 6.174143,2.325896 4.527697,4.942532 5.076518,4.070327 1.372028,6.105484 -0.274396,6.686975 0.274396,5.23327 -1.437186,5.91603"
     id="path4170"
     inkscape:connector-curvature="0"
     sodipodi:nodetypes="ccccccccc" />
  <path
     style="fill:none;fill-rule:evenodd;stroke:#000000;stroke-width:0.60000002;stroke-linecap:butt;stroke-linejoin:miter;stroke-miterlimit:4;stroke-dasharray:none;stroke-opacity:1"
     d="m 192.7717,54.210402 0.82322,6.686974 -0.2744,5.814745 -0.99473,1.453694"
     id="path4172"
     inkscape:connector-curvature="0"
     sodipodi:nodetypes="cccc" />
  <path
     style="fill:none;fill-rule:evenodd;stroke:#000000;stroke-width:0.60000002;stroke-linecap:butt;stroke-linejoin:miter;stroke-miterlimit:4;stroke-dasharray:none;stroke-opacity:1"
     d="m 216.09624,50.103743 -0.82323,5.269617 -2.02374,2.68932 -0.34301,2.362247"
     id="path4174"
     inkscape:connector-curvature="0"
     sodipodi:nodetypes="cccc" />
  <path
     style="fill:none;fill-rule:evenodd;stroke:#000000;stroke-width:0.60000002;stroke-linecap:butt;stroke-linejoin:miter;stroke-miterlimit:4;stroke-dasharray:none;stroke-opacity:1"
     d="m 267.0329,41.563323 -0.99473,4.506425 -3.29286,4.361069 -2.46965,4.361069 -2.46967,2.035163 v 2.907369 l -3.01847,2.035164 -4.66491,1.453689 -6.86016,1.744432 -3.32473,-0.452983"
     id="path4176"
     inkscape:connector-curvature="0"
     sodipodi:nodetypes="cccccccccc" />
  <path
     style="fill:none;fill-rule:evenodd;stroke:#000000;stroke-width:0.60000002;stroke-linecap:butt;stroke-linejoin:miter;stroke-miterlimit:4;stroke-dasharray:none;stroke-opacity:1"
     d="m 257.77169,59.734418 3.32717,7.559177 -0.54881,3.48885 -0.82321,6.069165"
     id="path4178"
     inkscape:connector-curvature="0"
     sodipodi:nodetypes="cccc" />
  <path
     style="fill:none;fill-rule:evenodd;stroke:#000000;stroke-width:0.60000002;stroke-linecap:butt;stroke-linejoin:miter;stroke-miterlimit:4;stroke-dasharray:none;stroke-opacity:1"
     d="m 225.70045,96.94883 -1.64643,-7.26843 -0.27441,-7.55918 0.82322,-6.68698 -0.7262,-3.76799"
     id="path4180"
     inkscape:connector-curvature="0"
     sodipodi:nodetypes="ccccc" />
  <path
     style="fill:none;fill-rule:evenodd;stroke:#000000;stroke-width:0.60000002;stroke-linecap:butt;stroke-linejoin:miter;stroke-miterlimit:4;stroke-dasharray:none;stroke-opacity:1"
     d="m 208.68727,100.43769 -3.01847,-6.9777 -2.19526,-4.94254 1.37204,-5.81476 h 0.2744"
     id="path4182"
     inkscape:connector-curvature="0" />
  <path
     style="fill:none;fill-rule:evenodd;stroke:#000000;stroke-width:0.60000002;stroke-linecap:butt;stroke-linejoin:miter;stroke-miterlimit:4;stroke-dasharray:none;stroke-opacity:1"
     d="m 175.72421,60.933717 -1.33774,7.522838 0.37731,3.234457"
     id="path4184"
     inkscape:connector-curvature="0"
     sodipodi:nodetypes="ccc" />
  <path
     style="fill:none;fill-rule:evenodd;stroke:#000000;stroke-width:0.60000002;stroke-linecap:butt;stroke-linejoin:miter;stroke-miterlimit:4;stroke-dasharray:none;stroke-opacity:1"
     d="m 155.4696,68.165815 -0.56596,6.396225 0.2744,6.68696 3.36147,7.21393"
     id="path4186"
     inkscape:connector-curvature="0"
     sodipodi:nodetypes="cccc" />
  <path
     style="fill:none;fill-rule:evenodd;stroke:#000000;stroke-width:0.60000002;stroke-linecap:butt;stroke-linejoin:miter;stroke-miterlimit:4;stroke-dasharray:none;stroke-opacity:1"
     d="m 133.83807,71.670792 -1.71017,8.124528 -1.37202,4.94254 1.64644,2.90738"
     id="path4188"
     inkscape:connector-curvature="0"
     sodipodi:nodetypes="cccc" />
  <path
     style="fill:none;fill-rule:evenodd;stroke:#000000;stroke-width:0.60000002;stroke-linecap:butt;stroke-linejoin:miter;stroke-miterlimit:4;stroke-dasharray:none;stroke-opacity:1"
     d="m 193.91925,108.47556 -2.79399,-9.20082 -2.61232,-2.97338 -0.84273,-1.86485"
     id="path4190"
     inkscape:connector-curvature="0"
     sodipodi:nodetypes="cccc" />
  <path
     style="fill:none;fill-rule:evenodd;stroke:#000000;stroke-width:0.60000002;stroke-linecap:butt;stroke-linejoin:miter;stroke-miterlimit:4;stroke-dasharray:none;stroke-opacity:1"
     d="m 168.98015,99.56397 0.19261,7.56069 3.56728,3.7796 2.38929,6.67084"
     id="path4192"
     inkscape:connector-curvature="0"
     sodipodi:nodetypes="cccc" />
  <path
     style="fill:none;fill-rule:evenodd;stroke:#000000;stroke-width:0.60000002;stroke-linecap:butt;stroke-linejoin:miter;stroke-miterlimit:4;stroke-dasharray:none;stroke-opacity:1"
     d="m 148.73925,161.13435 -2.75748,-1.28956 -1.43698,-3.58545 -3.26028,-1.78735 -3.18684,-0.13987"
     id="path4194"
     inkscape:connector-curvature="0"
     sodipodi:nodetypes="ccccc" />
  <path
     style="fill:none;fill-rule:evenodd;stroke:#000000;stroke-width:0.60000002;stroke-linecap:butt;stroke-linejoin:miter;stroke-miterlimit:4;stroke-dasharray:none;stroke-opacity:1"
     d="m 85.785112,177.39802 6.005079,-6.89255 3.147353,-4.39483 4.536018,-2.00139 3.841688,-3.7796 6.72295,0.65416"
     id="path4196"
     inkscape:connector-curvature="0"
     sodipodi:nodetypes="cccccc" />
  <path
     style="fill:none;fill-rule:evenodd;stroke:#000000;stroke-width:0.60000002;stroke-linecap:butt;stroke-linejoin:miter;stroke-miterlimit:4;stroke-dasharray:none;stroke-opacity:1"
     d="m 119.40391,168.58469 -1.65466,3.71724 3.57694,4.27376 5.38017,3.31855 3.88734,4.44622"
     id="path4198"
     inkscape:connector-curvature="0"
     sodipodi:nodetypes="ccccc" />
  <path
     style="fill:none;fill-rule:evenodd;stroke:#000000;stroke-width:0.60000002;stroke-linecap:butt;stroke-linejoin:miter;stroke-miterlimit:4;stroke-dasharray:none;stroke-opacity:1"
     d="m 121.15166,167.30736 4.6649,-4.36107 2.79115,-0.13656"
     id="path4200"
     inkscape:connector-curvature="0"
     sodipodi:nodetypes="ccc" />
  <path
     style="fill:none;fill-rule:evenodd;stroke:#000000;stroke-width:0.60000002;stroke-linecap:butt;stroke-linejoin:miter;stroke-miterlimit:4;stroke-dasharray:none;stroke-opacity:1"
     d="m 112.64506,160.03892 4.39051,-0.87221 0.0152,-3.7796"
     id="path4202"
     inkscape:connector-curvature="0"
     sodipodi:nodetypes="ccc" />
  <path
     style="fill:none;fill-rule:evenodd;stroke:#000000;stroke-width:0.60000002;stroke-linecap:butt;stroke-linejoin:miter;stroke-miterlimit:4;stroke-dasharray:none;stroke-opacity:1"
     d="m 134.27465,136.81365 -0.54881,5.54166"
     id="path4204"
     inkscape:connector-curvature="0"
     sodipodi:nodetypes="cc" />
  <path
     style="fill:none;fill-rule:evenodd;stroke:#000000;stroke-width:0.60000002;stroke-linecap:butt;stroke-linejoin:miter;stroke-miterlimit:4;stroke-dasharray:none;stroke-opacity:1"
     d="m 91.385478,148.95561 4.795216,4.39635 -1.372032,2.90738 -2.744056,4.65179 3.018458,5.23327"
     id="path4206"
     inkscape:connector-curvature="0"
     sodipodi:nodetypes="ccccc" />
  <path
     style="fill:none;fill-rule:evenodd;stroke:#000000;stroke-width:0.60000002;stroke-linecap:butt;stroke-linejoin:miter;stroke-miterlimit:4;stroke-dasharray:none;stroke-opacity:1"
     d="m 145.68259,104.92303 -3.20156,10.22775 3.88068,6.57863 -1.92958,7.80073"
     id="path4208"
     inkscape:connector-curvature="0"
     sodipodi:nodetypes="cccc" />
  <path
     style="fill:none;fill-rule:evenodd;stroke:#000000;stroke-width:0.60000002;stroke-linecap:butt;stroke-linejoin:miter;stroke-miterlimit:4;stroke-dasharray:none;stroke-opacity:1"
     d="m 115.51022,103.9979 -5.57849,-1.33627"
     id="path4210"
     inkscape:connector-curvature="0"
     sodipodi:nodetypes="cc" />
  <path
     style="fill:none;fill-rule:evenodd;stroke:#000000;stroke-width:0.60000002;stroke-linecap:butt;stroke-linejoin:miter;stroke-miterlimit:4;stroke-dasharray:none;stroke-opacity:1"
     d="m 106.77866,101.99347 -3.88068,-1.64466"
     id="path4212"
     inkscape:connector-curvature="0"
     sodipodi:nodetypes="cc" />
  <path
     style="fill:none;fill-rule:evenodd;stroke:#000000;stroke-width:0.60000002;stroke-linecap:butt;stroke-linejoin:miter;stroke-miterlimit:4;stroke-dasharray:none;stroke-opacity:1"
     d="m 77.867523,111.03911 h 10.671901 l 5.33595,-5.24236"
     id="path4214"
     inkscape:connector-curvature="0"
     sodipodi:nodetypes="ccc" />
  <path
     style="fill:none;fill-rule:evenodd;stroke:#000000;stroke-width:0.60000002;stroke-linecap:butt;stroke-linejoin:miter;stroke-miterlimit:4;stroke-dasharray:none;stroke-opacity:1"
     d="m 119.97302,109.39445 -4.26876,9.04563 -1.16421,4.52282 1.94034,3.28933"
     id="path4216"
     inkscape:connector-curvature="0"
     sodipodi:nodetypes="cccc" />
  <path
     style="fill:none;fill-rule:evenodd;stroke:#000000;stroke-width:0.60000002;stroke-linecap:butt;stroke-linejoin:miter;stroke-miterlimit:4;stroke-dasharray:none;stroke-opacity:1"
     d="m 116.81996,130.15829 -0.72764,6.37307"
     id="path4218"
     inkscape:connector-curvature="0"
     sodipodi:nodetypes="cc" />
  <path
     style="opacity:0.98000004;fill:#000000;fill-opacity:1;fill-rule:evenodd;stroke:#000000;stroke-width:0.60000002;stroke-linecap:square;stroke-miterlimit:4;stroke-dasharray:none;stroke-dashoffset:0;stroke-opacity:1"
     d=""
     id="path4349"
     inkscape:connector-curvature="0" />
  <path
     style="opacity:0.98000004;fill:#000000;fill-opacity:1;fill-rule:evenodd;stroke:#000000;stroke-width:0.60000002;stroke-linecap:square;stroke-miterlimit:4;stroke-dasharray:none;stroke-dashoffset:0;stroke-opacity:1"
     d=""
     id="path4351"
     inkscape:connector-curvature="0" />
  <path
     style="opacity:0.98000004;fill:#000000;fill-opacity:1;fill-rule:evenodd;stroke:#000000;stroke-width:0.60000002;stroke-linecap:square;stroke-miterlimit:4;stroke-dasharray:none;stroke-dashoffset:0;stroke-opacity:1"
     d=""
     id="path4353"
     inkscape:connector-curvature="0" />
  <path
     style="opacity:0.98000004;fill:#000000;fill-opacity:1;fill-rule:evenodd;stroke:#000000;stroke-width:0.60000002;stroke-linecap:square;stroke-miterlimit:4;stroke-dasharray:none;stroke-dashoffset:0;stroke-opacity:1"
     d=""
     id="path4367"
     inkscape:connector-curvature="0" />
  <path
     style="opacity:0.98000004;fill:#000000;fill-opacity:1;fill-rule:evenodd;stroke:#000000;stroke-width:0.60000002;stroke-linecap:square;stroke-miterlimit:4;stroke-dasharray:none;stroke-dashoffset:0;stroke-opacity:1"
     d=""
     id="path4371"
     inkscape:connector-curvature="0" />
  <path
     style="opacity:0.98000004;fill:#000000;fill-opacity:1;fill-rule:evenodd;stroke:#000000;stroke-width:0.60000002;stroke-linecap:square;stroke-miterlimit:4;stroke-dasharray:none;stroke-dashoffset:0;stroke-opacity:1"
     d=""
     id="path4375"
     inkscape:connector-curvature="0" />
  <path
     style="opacity:0.98000004;fill:#000000;fill-opacity:1;fill-rule:evenodd;stroke:#000000;stroke-width:0.60000002;stroke-linecap:square;stroke-miterlimit:4;stroke-dasharray:none;stroke-dashoffset:0;stroke-opacity:1"
     d=""
     id="path4403"
     inkscape:connector-curvature="0" />
  <path
     style="fill:none;fill-rule:evenodd;stroke:#000000;stroke-width:0.60000002;stroke-linecap:butt;stroke-linejoin:miter;stroke-miterlimit:4;stroke-dasharray:none;stroke-opacity:1"
     d="m 133.49994,144.92056 -1.09762,3.05274 0.61741,1.8898 0.13721,2.61663"
     id="path4438"
     inkscape:connector-curvature="0" />
  <path
     inkscape:connector-curvature="0"
     id="C24.8"
     d="m 45.214831,248.92332 -0.18238,3.166 v 2.98282 l 0.72952,2.77355 1.66425,3.34914 1.82383,2.79966 2.37098,2.59038 2.55337,2.06695 3.2829,1.85776 3.30568,0.91578 3.2829,0.39248 h 3.64765 l 2.37101,-0.20931 4.03523,-1.09895 2.91806,-1.49143 2.18861,-1.49143 2.18862,-1.85764 1.45907,-1.85776 2.029039,-3.8986 1.0943,-2.79967 0.54715,-2.43338 v -3.5323 l -1.64145,-6.30583 -1.299499,-2.6165 -1.45908,-2.22407 -2.37099,-2.25019 -2.18862,-1.46526 -1.82384,-1.12509 -2.00615,-1.12512 -2.39376,-0.73262 -2.91815,-0.57564 -2.55335,-0.18316 -3.2829,0.39248 -3.30572,0.73263 -2.55336,1.12511 -2.55335,1.09893 -2.91815,2.61655 -1.8238,1.8577 -1.64146,2.0409 -1.29948,2.61651 -0.91192,1.85774 z"
     style="fill:none;stroke:#000000;stroke-width:0.3981992;stroke-linecap:butt;stroke-linejoin:miter;stroke-miterlimit:4;stroke-dasharray:none;stroke-opacity:1"
     inkscape:label="#path4188" />
  <path
     inkscape:connector-curvature="0"
     id="C24.9"
     d="m 108.93151,249.38923 -0.18238,3.16601 v 2.98282 l 0.72952,2.77354 1.66425,3.34914 1.82384,2.79966 2.37097,2.59038 2.55337,2.06696 3.2829,1.85776 3.30568,0.91578 3.2829,0.39248 h 3.64766 l 2.371,-0.20932 4.03523,-1.09894 2.91807,-1.49144 2.1886,-1.49142 2.18862,-1.85764 1.45908,-1.85776 2.02903,-3.8986 1.0943,-2.79968 0.54715,-2.43338 v -3.53229 l -1.64145,-6.30584 -1.2995,-2.6165 -1.45908,-2.22406 -2.37099,-2.2502 -2.18862,-1.46526 -1.82384,-1.12509 -2.00615,-1.12512 -2.39376,-0.73262 -2.91814,-0.57563 -2.55336,-0.18317 -3.28289,0.39249 -3.30573,0.73262 -2.55335,1.12511 -2.55336,1.09893 -2.91814,2.61655 -1.82381,1.8577 -1.64146,2.04091 -1.29948,2.6165 -0.91192,1.85774 z"
     style="fill:none;stroke:#000000;stroke-width:0.3981992;stroke-linecap:butt;stroke-linejoin:miter;stroke-miterlimit:4;stroke-dasharray:none;stroke-opacity:1"
     inkscape:label="#path4188" />
  <path
     inkscape:connector-curvature="0"
     id="path4190-8"
     d="m 62.016881,246.01898 -0.11399,1.30828 0.11399,1.98854 1.36785,1.56993 1.80105,1.0466 1.55027,0.86346 1.61863,1.04658 1.34509,1.04663 1.04871,1.64842 0.50155,2.04087 -0.31916,2.22406 -1.09431,1.85774 -1.80105,1.04658 -2.00619,0.0785 -1.61867,-0.34016 -1.80103,-1.1774 -0.98031,-1.59609 -0.25078,-2.17173 0.18239,-1.96237 1.0487,-1.70076 1.41346,-1.2036 1.41348,-0.6541 2.21138,-0.78497 1.55026,-1.12512 1.16271,-1.56992 0.56996,-2.09319 -0.31918,-1.91008 -1.29949,-1.64839 -1.80105,-0.91579 -1.9378,-0.0785 -1.93783,0.6018 -1.09429,1.30823 z"
     style="fill:none;stroke:#000000;stroke-width:0.3981992;stroke-linecap:butt;stroke-linejoin:miter;stroke-miterlimit:4;stroke-dasharray:none;stroke-opacity:1" />
  <path
     id="path4223-3"
     style="fill:none;fill-rule:evenodd;stroke:#000000;stroke-width:0.3981992;stroke-linecap:butt;stroke-linejoin:miter;stroke-miterlimit:4;stroke-dasharray:none;stroke-opacity:1"
     d="m 134.70354,253.42368 c 0.27239,1.10868 0.1931,0.80095 0.18813,1.21546 -0.0316,2.64262 0.0546,1.33609 -0.0259,2.20805 l -0.0314,1.68929 -0.24648,1.67977 -0.94365,1.55367 -1.72146,1.20693 -2.21427,0.86083 c -0.84993,0.17656 -1.56237,0.49528 -2.68395,0.33111 l -2.87712,-0.81655 c 0,0 0.40259,0.0994 0.52864,-0.17688 m 0.79119,-19.20267 -1.2451,1.65543 -0.62578,2.18512 -0.12781,2.05274 0.45678,2.18512 1.50453,1.92031 1.85544,0.92703 1.78834,0.19865 2.3403,-0.34579 c 0.64986,-0.17684 1.9214,-0.51364 1.9214,-0.51364 -0.0601,-0.15409 1.55276,-0.10496 1.54015,-0.59258 -0.0466,-1.80355 -0.0479,-3.02036 0.0199,-4.44128 0.0675,1.46415 -0.006,-3.15636 -1.11484,-4.03921 l -1.86191,-1.72166 -1.98964,-0.66215 -2.58708,0.19858 z"
     inkscape:connector-curvature="0"
     sodipodi:nodetypes="csccccccccccccccccccsscccccc" />
</svg>
