<?xml version="1.0" encoding="UTF-8" standalone="no"?>
<!-- Created with Inkscape (http://www.inkscape.org/) -->

<svg
   xmlns:dc="http://purl.org/dc/elements/1.1/"
   xmlns:cc="http://creativecommons.org/ns#"
   xmlns:rdf="http://www.w3.org/1999/02/22-rdf-syntax-ns#"
   xmlns:svg="http://www.w3.org/2000/svg"
   xmlns="http://www.w3.org/2000/svg"
   xmlns:sodipodi="http://sodipodi.sourceforge.net/DTD/sodipodi-0.dtd"
   xmlns:inkscape="http://www.inkscape.org/namespaces/inkscape"
   width="300mm"
   height="300mm"
   viewBox="0 0 1062.9921 1062.9921"
   id="svg2"
   version="1.1"
   inkscape:version="0.91 r13725"
   sodipodi:docname="Level_2_C64-68.svg">
  <defs
     id="defs4" />
  <sodipodi:namedview
     id="base"
     pagecolor="#ffffff"
     bordercolor="#666666"
     borderopacity="1.0"
     inkscape:pageopacity="0.0"
     inkscape:pageshadow="2"
     inkscape:zoom="0.35"
     inkscape:cx="430.66227"
     inkscape:cy="498.66746"
     inkscape:document-units="px"
     inkscape:current-layer="layer1"
     showgrid="false"
     inkscape:window-width="1366"
     inkscape:window-height="705"
     inkscape:window-x="-8"
     inkscape:window-y="-8"
     inkscape:window-maximized="1"
     showguides="false" />
  <metadata
     id="metadata7">
    <rdf:RDF>
      <cc:Work
         rdf:about="">
        <dc:format>image/svg+xml</dc:format>
        <dc:type
           rdf:resource="http://purl.org/dc/dcmitype/StillImage" />
        <dc:title></dc:title>
      </cc:Work>
    </rdf:RDF>
  </metadata>
  <g
     inkscape:label="Laag 1"
     inkscape:groupmode="layer"
     id="layer1"
     transform="translate(0,10.629921)">
    <path
       id="C64"
       style="fill:none;fill-rule:evenodd;stroke:#000000;stroke-width:1.25;stroke-linecap:butt;stroke-linejoin:miter;stroke-opacity:1;stroke-miterlimit:4;stroke-dasharray:none"
       d="m 295.28155,92.335844 25.42356,-17.06466 12.06541,-3.968526 18.09811,-1.587405 12.49632,-0.396864 12.49632,2.777972 14.65088,3.571675 12.92722,7.143358 12.92722,9.52445 8.61815,11.905576 7.32544,13.49301 5.17087,11.11186 3.01636,14.2867 0.43091,15.47728 -5.17089,9.1276 -5.60179,8.73077 -9.69542,8.53233 -7.54088,4.5638 -6.67908,2.9764 -7.10997,2.77797 -7.10998,-1.19055 -2.86883,-5.51624 3.2647,26.27084 -4.45076,16.19167 -6.59362,16.19166 -9.8196,17.30343 5.1709,-0.59529 6.0327,2.18271 4.30908,4.16693 3.87816,6.74651 4.30908,9.52446 2.37,12.10402 0.8618,13.69142 -1.50818,11.50872 -3.23179,9.52447 -7.54089,10.5166 -7.97179,7.73864 -6.89453,6.34963 -13.57358,7.73863 -11.2036,5.55594 -14.00449,3.57168 -17.02085,1.58742 -17.02085,-1.58742 -10.12633,-2.9764 -13.57358,-5.15909 -12.49637,-7.14334 -10.12632,-7.54021 -11.63442,-11.90558 -9.26454,-11.90559 -9.26455,-16.6678 -1.29279,-10.71504 -1.2927,-35.31989 0,-21.43005 4.95544,-27.18442 6.24825,-17.65994 12.49627,-27.38285 8.18729,-14.48512 7.75634,-9.32604 3.01631,-3.17483 0.64635,-4.76223 4.95545,-12.30244 7.32541,-10.91345 9.69544,-12.8977 6.67906,-7.341776 z m 501.17347,-26.199745 15.23487,17.398265 10.96913,17.398266 6.09395,17.95952 14.01609,16.83702 12.79731,27.5005 11.5785,31.99037 4.87517,31.42914 -3.04698,26.93926 1.21879,19.6432 -6.70334,18.52075 -10.35972,18.52074 -12.1879,11.78593 -12.18792,8.97975 -17.06308,9.54099 -21.93822,6.73482 -13.40671,1.68369 -16.45367,-2.80617 -18.28185,-2.80617 -15.23489,-7.96952 -11.27381,-8.30628 -10.05504,-9.82161 -8.53153,-11.50531 -3.04697,-9.82161 0.91409,-11.50529 1.2188,-11.50531 4.87515,-11.22471 5.78925,-6.45419 7.31275,-5.61234 8.83624,-1.96432 5.17986,1.6837 6.09395,2.80617 3.96107,4.7705 1.82819,3.92864 -0.30471,6.45419 -3.96106,1.12247 -4.87517,2.24494 -1.82818,3.64803 1.82818,1.6837 7.00805,-0.84185 7.31275,-0.56123 3.04698,1.12247 1.52349,2.52555 2.13289,2.80617 2.43757,0.28062 2.74228,-2.24494 -1.21878,-3.3674 -6.39866,-6.45421 -0.91409,-5.61234 0.91409,-6.17358 1.52349,-3.64803 1.21878,-1.6837 2.74228,0.56124 6.39866,7.85727 8.53154,9.26039 2.74227,3.36739 0,4.20927 -2.13289,3.92864 0.9141,4.77049 2.43758,2.24494 2.13288,-3.36741 -0.30469,-3.64802 3.04697,-4.77049 3.35168,-2.80619 6.09396,-1.12245 8.22684,0.56122 1.82817,-1.6837 -2.13288,-2.24494 -4.87516,-1.6837 -5.78925,0.28062 -3.65638,0 -2.74228,-1.68371 -26.5087,-27.7811 -12.1879,-11.78593 -3.65636,-7.01543 -0.30472,-4.7705 2.74229,-3.08678 4.87515,0.56123 17.36778,3.64802 17.36776,4.7705 6.39865,3.92864 1.21879,2.80618 0.91409,4.20925 2.74229,5.33172 3.96106,5.05112 3.66542,2.24732 1.93909,0 0.64636,-1.98425 -1.93908,-3.17483 -1.29272,-3.17482 -1.07727,-5.75437 0.64637,-4.16695 3.44725,-3.96852 4.95543,-3.77012 5.60181,-2.57953 2.80089,-1.38899 -0.21544,-1.98426 -2.37,-0.99213 -4.52452,-0.19842 -5.38635,2.18268 -3.01635,2.38112 -3.01637,0.19842 -5.60179,-1.58741 -9.26452,-3.77009 -10.77268,-5.75437 -3.44726,-3.96853 -3.01636,-6.54807 0.21545,-5.35752 1.29273,-2.97639 4.30907,-1.19056 5.38635,0 6.46361,0.19843 4.09363,0.99213 2.58543,2.3811 3.66272,2.18271 3.87818,1.38898 3.01634,-0.7937 1.72364,-1.38899 -3.01635,-2.57954 -5.81726,-5.35752 -1.29272,-3.37324 0.4309,-4.16696 3.01636,-5.95279 2.58544,-4.16695 1.07728,-1.98427 -0.86183,-0.99213 -3.01633,0.19843 -2.37001,1.58741 -3.87816,4.56381 -2.8009,2.77797 -1.72364,2.38111 -4.73997,2.18269 -7.97179,1.38899 -12.06543,2.18269 -10.12632,0.39685 -13.35813,0.99213 -3.23181,-1.78584 -0.21546,-5.15908 3.66271,-7.54021 5.81725,-7.5402 6.24817,-6.15121 5.38634,-5.35751 8.18725,-4.56382 4.09363,-1.58741 5.81725,0.39686 4.95542,1.5874 3.44727,0 1.72364,-1.38898 -0.86181,-1.19055 -2.58545,-0.99214 -3.23182,0 -2.36999,-1.19054 -4.73998,-3.37327 -2.15453,-2.77797 -0.43092,-5.15908 0.86182,-2.9764 0.21545,-2.18269 -3.23181,0.59528 -1.72362,1.58741 -0.64636,2.57955 0.21545,2.77796 -0.43091,3.96854 -2.15454,3.17482 -5.60179,2.38111 -4.95545,2.18269 -4.73997,-0.19842 -3.23182,-2.38112 -1.07725,-3.57168 1.29271,-7.34177 0.21545,-6.7465 2.15454,-6.34964 2.37,-2.77798 4.95543,-1.5874 4.73998,-1.19056 3.66272,-3.37324 0.8618,-2.9764 -1.93907,-0.79372 -1.72362,1.58742 -4.52454,2.1827 -5.38635,0.99212 -7.54087,0 -3.23181,0 -2.58545,-1.98427 -4.09363,-3.968516 -3.44725,-3.37325 -1.50818,-1.58741 -1.93909,1.19056 0.64638,2.38112 1.72362,3.373246 4.52452,4.5638 4.30908,3.7701 0.43091,2.57955 0.21546,3.7701 -2.58545,7.73864 -1.93909,5.55593 -1.72363,3.37325 -2.15453,3.7701 -2.58545,0.7937 -2.15454,0 -4.09362,-3.7701 -2.8009,-4.96067 -0.4309,-4.76221 1.07726,-6.74651 -2.58545,-5.1591 -1.72363,-1.19054 -0.86181,1.58741 -0.21545,2.77797 0.43091,4.96065 -0.64636,2.9764 -0.21546,3.37325 -1.93909,1.78583 -3.6627,1.38899 -3.87818,2.38112 -1.07727,1.98426 3.66272,1.19057 5.17089,0 3.66272,1.78583 3.66271,3.37325 2.58545,3.37324 0.21546,3.57168 -1.07728,5.95278 -4.09363,3.57169 -5.17089,3.37325 -5.81724,1.58742 -5.81726,0 -6.46362,-0.59529 -9.26451,-1.38898 -7.32543,-5.1591 -6.89452,-6.1512 -7.75633,-8.33392 -2.80091,-10.11975 -1.29271,-13.69142 1.29271,-11.3103 3.44727,-11.707156 7.97179,-13.889842 7.97179,-9.921309 9.47997,-7.738638 10.12633,-8.135478 10.98813,-5.159092 13.14269,-3.7701 10.98814,-1.984269 14.21996,-1.190554 9.91087,0.99214 8.4027,1.38898 11.84995,4.762229 12.92724,7.341787 9.26451,6.151208 z"
       inkscape:label="#path4153"
       inkscape:connector-curvature="0"
       sodipodi:nodetypes="ccccccccccccccccccccccccccccccccccccccccccccccccccccccccccccccccccccccccccccccccccccccccccccccccccccccccccccccccccccccccccccccccccccccccccccccccccccccccccccccccccccccccccccccccccccccccccccccccccccccccccccccccccccccccccccccccccccccccccccccccccccccccccccccccccccccccccccccccccccccccccccccccccccccccccccccccccccccccc" />
    <path
       id="C66"
       style="fill:none;fill-rule:evenodd;stroke:#000000;stroke-width:1.25;stroke-linecap:butt;stroke-linejoin:miter;stroke-opacity:1;stroke-miterlimit:4;stroke-dasharray:none"
       d="m 674.91116,233.21858 11.20359,35.71675 -2.09318,27.86816 2.43757,44.33754 0.30471,49.94987 -1.52349,49.94989 0,63.98074 -1.5235,50.23049 0.60941,44.89876 -0.9141,30.58728 -2.43758,13.46964 -4.26576,16.2758 -7.92214,15.99519 -10.05503,16.27579 -6.09396,17.67888 -3.65636,9.54101 -2.13289,10.38284 -0.91409,24.69432 -0.9141,46.86308 2.43757,31.14852 -2.74227,23.85244 -6.09395,10.10225 -3.35166,6.17367 -5.78927,-4.49001 4.87516,-11.78591 2.74228,-12.34713 1.2188,-34.23531 -2.74229,-60.33271 0.9141,-25.25557 2.13288,-8.13789 4.57046,-12.90841 14.6255,-25.25555 7.31274,-14.31147 2.74227,-8.69914 0.60941,-10.38284 0,-40.40889 -3.35168,-35.91901 0.6094,-19.08197 3.04698,-30.86791 2.43758,-23.85247 0,-27.78111 0.30469,-67.06753 0,-26.37803 0,-63.4195 0.91411,-66.22568 z m -303.20472,30.7527 9.13715,-14.65596 7.53,-19.47738 3.78002,-15.37023 -2.47,-26.2631 2.43758,5.61234 6.39865,4.20927 4.26577,8.13789 5.78924,12.9084 3.65638,16.27581 1.21879,17.39827 -0.30468,39.84765 -2.4376,50.51111 -3.65637,58.08777 -2.74228,60.61334 -1.82818,53.59791 -0.6094,33.39345 1.8282,41.81197 0,28.90359 0.60938,21.32691 2.43759,23.01061 3.35167,12.34716 7.31275,15.71457 7.31274,14.87272 2.74228,11.50531 1.52348,19.08197 -0.3047,23.57186 -3.96106,28.34235 0,29.18418 1.52349,21.32693 3.65636,14.8727 7.61744,10.66349 -6.09395,4.77051 -8.83623,-12.90848 -3.04697,-12.90835 -2.13288,-26.0974 -0.3047,-33.67408 1.82817,-38.16395 -0.30468,-22.44939 -2.13289,-12.34716 -6.39865,-12.90839 -7.92215,-16.2758 -2.74227,-9.26037 -3.04698,-14.5921 -5.78925,-44.89876 -3.35168,-42.0926 0.3047,-69.59308 2.13289,-68.19 3.35166,-67.90939 3.35168,-20.76568 1.82819,-17.9595 2.74228,-27.78111 -3.96107,-14.31149 -3.04697,-6.45419 -2.4376,-3.92864 -3.50401,-3.50772 -5.17986,-5.05111 -5.9416,-2.38525 z"
       inkscape:label="#path4158"
       inkscape:connector-curvature="0"
       sodipodi:nodetypes="ccccccccccccccccccccccccccccccccccccccccccccccccccccccccccccccccccccccccccccccccccccccccccccccccccccccccc" />
    <path
       style="fill:none;fill-rule:evenodd;stroke:#000000;stroke-width:1.25;stroke-linecap:butt;stroke-linejoin:miter;stroke-opacity:1;stroke-miterlimit:4;stroke-dasharray:none"
       d="m 437.21645,864.4923 11.8832,-5.89297 17.67247,-5.61234 23.46173,-3.92868 28.64158,-2.52555 30.46975,0.84185 28.9463,1.96431 19.19595,4.20929 17.67245,5.89296 11.57852,8.41847 9.44563,5.61235 4.87516,12.06655 -0.91409,14.31153 -3.65637,11.22463 -8.22684,11.2248 -11.57852,13.46957 -15.23488,12.06648 -12.1879,7.29619 -14.32079,5.61222 -16.14898,4.77054 -10.05502,1.12244 -25.28991,-0.28064 -14.32079,-0.56116 -17.67246,-3.6481 -23.15703,-10.66339 -15.53958,-10.38288 -19.19596,-19.36255 -7.61744,-13.75021 -3.96106,-12.34722 0,-12.90839 3.96106,-8.41857 6.09395,-4.77041 z"
       id="C67"
       inkscape:connector-curvature="0"
       inkscape:label="#path4161" />
    <path
       style="fill:none;fill-rule:evenodd;stroke:#000000;stroke-width:1.25;stroke-linecap:butt;stroke-linejoin:miter;stroke-opacity:1;stroke-miterlimit:4;stroke-dasharray:none"
       d="m 513.08617,966.07578 1.52349,10.38276 0.3047,26.93926 31.38385,0.2807 0.6094,-18.24015 1.21879,-13.46971 1.82819,-5.61234 -21.02415,0 -10.66442,0 z"
       id="C68"
       inkscape:connector-curvature="0"
       inkscape:label="#path4163" />
    <path
       style="fill:none;fill-rule:evenodd;stroke:#000000;stroke-width:1.25;stroke-linecap:butt;stroke-linejoin:miter;stroke-opacity:1;stroke-miterlimit:4;stroke-dasharray:none"
       d="m 674.04933,233.61543 1.72363,-18.65209 6.03272,-19.04892 8.18724,-12.6993 6.46361,-7.93704 9.47997,-7.14336 7.00224,-2.67876 3.87816,-2.97639 2.15456,-3.47245 -0.21546,-4.76224 -1.40044,-5.75437 -3.55499,-6.15121 -4.95544,-3.27404 -2.47773,-2.2819 -3.33953,-1.4882 -5.06316,0.0992 -3.55498,-1.19056 0.8618,-1.98426 4.20135,-2.57955 3.44726,-0.99212 2.15455,-1.98427 0,-4.06774 0.75408,-2.38112 -0.53863,-6.64729 1.07726,-2.67876 1.72363,1.28977 2.80092,5.45673 -1.18501,5.75437 0.43091,5.05987 2.47772,5.05988 4.52452,4.26616 3.33953,-0.49606 1.61592,-0.89292 3.55498,-6.84571 3.01635,-8.53233 1.40046,-4.66303 -0.6458,-6.29274 -8.91241,-8.34835 -1.90436,-4.700356 -0.15235,-1.26277 1.21879,-0.77169 0.76174,0.1403 2.13289,2.3151 8.98857,8.067746 11.04529,0.0702 5.17987,-0.84186 5.17986,-2.73601 1.06644,-1.12246 1.44732,0.56123 0.83792,0.42091 -1.06645,2.87633 -3.50402,3.36741 -9.5218,2.66586 -2.6661,2.80618 -2.36143,6.5945 0,6.94528 -1.29495,6.94529 0.99027,3.29724 3.42785,2.59572 4.49429,0.21047 10.35972,-4.20927 2.36141,-3.15694 0.6094,-4.48988 -0.30471,-3.01664 0.60939,-2.17479 1.8282,-1.6837 2.89462,-0.35077 0.15234,1.19263 -0.91408,3.92863 0.45704,4.84065 2.20907,3.15695 6.62717,4.20926 4.11342,0.21046 2.05671,1.05231 0.91409,1.19263 -1.37115,1.19262 -4.18958,0.28062 -4.72282,-1.6837 -5.56072,-0.42093 -4.49431,1.61356 -7.38892,4.2794 -4.26577,3.9988 -7.92212,7.92744 -5.63692,7.15574 -3.65638,7.3662 0.0761,5.47204 3.04698,1.82401 23.84259,-1.33293 19.88152,-3.71819 4.72282,-2.17476 2.28524,-3.01664 4.41811,-4.34957 1.98053,-2.4554 2.28523,-1.33294 2.20906,-0.35078 1.06644,0.49109 0.3047,1.05232 -1.82818,2.87632 -4.72282,8.41852 -0.45704,4.77049 1.21879,3.01664 8.98858,8.06776 -1.44732,1.19261 -2.81845,0.98215 -4.34194,-1.54338 -4.03725,-2.17479 -2.20906,-2.24494 -3.96106,-0.98216 -11.95939,-0.28063 -4.49429,1.4031 -1.29496,2.80617 0,5.26158 2.58993,6.03328 3.65636,4.63016 10.89296,5.75267 14.16843,5.12126 3.58021,-0.0702 2.89461,-2.03448 5.94161,-2.31508 4.03724,0.14031 2.81846,1.0523 0,1.82403 -8.15066,3.85847 -4.64665,3.57788 -3.73255,3.85849 -0.99026,4.41972 1.29497,6.66466 1.59966,3.2271 1.37114,2.17479 -0.53323,2.10462 -2.13287,0.21046 -2.89464,-1.89417 -2.51374,-2.73601 -2.43759,-3.15695 -2.58993,-5.33172 -0.68556,-3.9988 -1.21881,-2.45541 -6.39864,-4.06894 -12.41644,-3.50771 -13.48286,-3.29726 -7.69362,-1.54339 -5.94161,-0.84186 -2.81845,3.08679 0.3047,4.9108 3.73254,7.08559 17.21542,17.11766 16.52985,16.97734 4.34196,4.98096 3.42784,2.31509 9.36945,-0.49108 4.95135,1.75386 1.98052,2.24494 -1.67584,1.54339 -7.92214,-0.28062 -6.17012,0.84185 -3.8849,2.94649 -2.97081,4.70033 0.38089,3.50772 -2.20906,3.43757 -2.43759,-2.10464 -0.99026,-4.91079 2.13288,-3.85849 0.15235,-4.34957 -17.59629,-20.1343 -2.43759,-0.77169 -1.52348,1.47325 -1.67585,4.06894 -0.83792,5.33173 0.9141,6.10343 6.39866,6.87512 1.21878,2.94648 -2.81845,2.3151 -2.13289,-0.21047 -4.03723,-5.19142 -2.36141,-1.19263 -4.18959,0.14031 -10.05504,1.05232 -2.20905,-1.33294 1.44731,-3.64802 4.49429,-2.24493 4.64664,-1.33294 0,-6.38404 0.14693,-7.79421 -1.50818,-2.87718 -3.9859,-4.36539 -7.10997,-6.15121 -4.63226,-1.88504 -6.24817,-1.78585 -4.73997,-0.79371 -3.77045,0.19844 -4.20134,0.99212 -3.12408,2.28191 -4.30908,6.34965 -3.44726,6.44884 -3.44726,8.33391 -2.15454,5.35752 -0.75409,4.06773 z"
       id="C65"
       inkscape:connector-curvature="0"
       inkscape:label="#path4165" />
  </g>
</svg>
