<?xml version="1.0" encoding="UTF-8" standalone="no"?>
<!-- Created with Inkscape (http://www.inkscape.org/) -->

<svg
   id="svg4136"
   version="1.1"
   inkscape:version="1.3 (0e150ed, 2023-07-21)"
   width="700"
   height="750"
   viewBox="0 0 700 750"
   sodipodi:docname="level3_C11_20.01.svg"
   xmlns:inkscape="http://www.inkscape.org/namespaces/inkscape"
   xmlns:sodipodi="http://sodipodi.sourceforge.net/DTD/sodipodi-0.dtd"
   xmlns="http://www.w3.org/2000/svg"
   xmlns:svg="http://www.w3.org/2000/svg"
   xmlns:rdf="http://www.w3.org/1999/02/22-rdf-syntax-ns#"
   xmlns:cc="http://creativecommons.org/ns#"
   xmlns:dc="http://purl.org/dc/elements/1.1/">
  <metadata
     id="metadata4142">
    <rdf:RDF>
      <cc:Work
         rdf:about="">
        <dc:format>image/svg+xml</dc:format>
        <dc:type
           rdf:resource="http://purl.org/dc/dcmitype/StillImage" />
      </cc:Work>
    </rdf:RDF>
  </metadata>
  <defs
     id="defs4140" />
  <sodipodi:namedview
     pagecolor="#ffffff"
     bordercolor="#666666"
     borderopacity="1"
     objecttolerance="10"
     gridtolerance="10"
     guidetolerance="10"
     inkscape:pageopacity="0"
     inkscape:pageshadow="2"
     inkscape:window-width="1344"
     inkscape:window-height="735"
     id="namedview4138"
     showgrid="false"
     inkscape:zoom="2.1799049"
     inkscape:cx="289.00344"
     inkscape:cy="362.40114"
     inkscape:window-x="0"
     inkscape:window-y="25"
     inkscape:window-maximized="0"
     inkscape:current-layer="svg4136"
     inkscape:showpageshadow="2"
     inkscape:pagecheckerboard="0"
     inkscape:deskcolor="#d1d1d1" />
  <path
     style="fill:none;fill-rule:evenodd;stroke:#000000;stroke-width:1;stroke-linecap:butt;stroke-linejoin:miter;stroke-miterlimit:4;stroke-dasharray:1, 1;stroke-dashoffset:0;stroke-opacity:1"
     d="m 346.88709,302.595 -0.002,59.68724 28.78256,0.0376 0.15718,-14.52993 c 1.00827,-4.41283 1.4926,-8.82566 1.5317,-13.23849 0.22564,-0.0564 -2.62285,-19.32917 -10.0656,-25.16403 -5.61085,-5.22468 -20.9359,-6.01738 -20.40384,-6.79239 z"
     id="C11.1"
     inkscape:connector-curvature="0"
     sodipodi:nodetypes="ccccccc"
     inkscape:label="C11.1" />
  <path
     style="fill:none;fill-rule:evenodd;stroke:#000000;stroke-width:1;stroke-linecap:butt;stroke-linejoin:miter;stroke-miterlimit:4;stroke-dasharray:1, 1;stroke-dashoffset:0;stroke-opacity:1"
     d="m 303.16347,286.01865 0.51857,29.11704 43.30907,0.26419 0.076,-12.72436 c -11.65613,-3.89128 -23.44095,-6.81762 -35.09708,-11.92995 z"
     id="C11.0"
     inkscape:connector-curvature="0"
     sodipodi:nodetypes="cccccc"
     inkscape:label="C11.0" />
  <path
     style="fill:none;fill-rule:evenodd;stroke:#000000;stroke-width:1;stroke-linecap:butt;stroke-linejoin:miter;stroke-miterlimit:4;stroke-dasharray:1, 1;stroke-dashoffset:0;stroke-opacity:1"
     d="m 319.69723,315.07659 -0.0251,47.87241 27.17096,-0.8266 0.0962,-46.71986 z"
     id="C11.2"
     inkscape:connector-curvature="0"
     sodipodi:nodetypes="ccccc"
     inkscape:label="C11.2" />
  <path
     style="fill:none;fill-rule:evenodd;stroke:#000000;stroke-width:1;stroke-linecap:butt;stroke-linejoin:miter;stroke-miterlimit:4;stroke-dasharray:1, 1;stroke-dashoffset:0;stroke-opacity:1"
     d="m 303.66733,315.2451 v 40.55933 l 3.6361,1.21708 c 2.72584,1.02444 5.15802,2.19571 7.49581,3.41418 l 4.85593,2.46184 -0.0765,-47.65243 z"
     id="C11.3"
     inkscape:connector-curvature="0"
     sodipodi:nodetypes="ccccccc"
     inkscape:label="C11.3" />
  <path
     id="C11.9"
     style="font-size:33.2768px;font-family:'.Arial Hebrew Desk Interface';-inkscape-font-specification:'.Arial Hebrew Desk Interface, Normal';display:inline;fill:none;stroke:#000000;stroke-width:1;stroke-dasharray:none"
     d="m 618.93383,143.71544 q -2.7719,3.62043 -7.41057,3.62043 -4.18613,0 -6.84489,-2.65875 -2.60219,-2.71532 -2.60219,-6.78832 0,-4.35583 2.99817,-7.354 3.05474,-2.99817 7.24087,-2.99817 5.31751,0 8.42882,3.95985 3.16787,3.95985 3.16787,10.63501 0,7.24086 -3.28101,11.70984 -3.22446,4.46898 -8.99452,4.46898 -3.05473,0 -5.54378,-1.69709 -2.43247,-1.75366 -2.99817,-4.01642 l 4.80839,-0.7354 q 1.13138,2.14964 4.12955,2.14964 3.22446,0 5.03468,-2.7719 1.86678,-2.82846 1.86678,-7.5237 z m -0.90511,-5.93977 q 0,-2.88504 -1.47081,-4.52555 -1.41423,-1.64049 -3.95985,-1.64049 -2.20619,0 -3.79014,1.75363 -1.58393,1.69709 -1.58393,4.41241 0,2.37592 1.4708,3.95985 1.47081,1.52736 3.8467,1.52736 2.26278,0 3.84672,-1.52736 1.64051,-1.58393 1.64051,-3.95985 z m 15.97264,4.47502 A 21.750674,21.750674 0 0 1 612.25068,164.00135 21.750674,21.750674 0 0 1 590.5,142.25069 21.750674,21.750674 0 0 1 612.25068,120.5 a 21.750674,21.750674 0 0 1 21.75068,21.75069 z"
     inkscape:label="C11.9" />
  <path
     id="C11.8"
     style="font-size:33.2768px;font-family:'.Arial Hebrew Desk Interface';-inkscape-font-specification:'.Arial Hebrew Desk Interface, Normal';display:inline;fill:none;stroke:#000000;stroke-width:1;stroke-dasharray:none"
     d="m 606.21,80.95843 q -3.28102,-2.26276 -3.28102,-6.10946 0,-3.84672 2.77191,-5.88321 2.82845,-2.03649 6.50545,-2.03649 3.62044,0 6.44891,2.03649 2.82846,2.03649 2.82846,5.88321 0,3.8467 -3.28102,6.10946 v 0.0567 q 2.2062,1.01825 3.5073,3.05474 1.35765,1.97992 1.35765,4.35583 0,3.84672 -2.99816,6.61861 -2.99817,2.7719 -7.86314,2.7719 -5.03466,0 -7.97626,-2.7719 -2.88504,-2.82846 -2.88504,-6.61861 0,-2.37591 1.30111,-4.35583 1.35766,-2.03649 3.56385,-3.05474 z m 5.99634,-1.58393 q 1.69709,0 3.05474,-1.01824 1.41423,-1.01825 1.41423,-2.94161 0,-2.09306 -1.35766,-3.1113 -1.30108,-1.07483 -3.11131,-1.07483 -1.97992,0 -3.22444,1.13139 -1.24453,1.13138 -1.24453,3.05474 0,1.86678 1.35767,2.94161 1.41423,1.01824 3.1113,1.01824 z m 0,14.14232 q 2.14963,0 3.79014,-1.24453 1.64051,-1.24452 1.64051,-3.84671 0,-2.09306 -1.58393,-3.5073 -1.58394,-1.41423 -3.84672,-1.41423 -2.20619,0 -3.8467,1.41423 -1.58394,1.41424 -1.58394,3.5073 0,2.60219 1.64051,3.84671 1.64051,1.24453 3.79013,1.24453 z M 634.00133,82.25068 A 21.750674,21.750674 0 0 1 612.25068,104.00136 21.750674,21.750674 0 0 1 590.5,82.25068 21.750674,21.750674 0 0 1 612.25068,60.5 21.750674,21.750674 0 0 1 634.00133,82.25068 Z"
     inkscape:label="C11.8" />
  <path
     style="fill:none;fill-rule:evenodd;stroke:#000000;stroke-width:1;stroke-linecap:butt;stroke-linejoin:miter;stroke-miterlimit:4;stroke-dasharray:none;stroke-opacity:1"
     d="m 275.05372,511.85055 c 0,0 18.4638,-1.75126 27.0988,-4.85819 3.96553,-1.42682 7.44841,-3.96168 11.01341,-6.20936 1.8516,-1.16741 3.86026,-2.19176 5.376,-3.77094 3.95527,-4.1208 6.9142,-9.21066 9.25702,-14.41992 2.11141,-4.69471 0.37362,-11.40686 4.18718,-14.86449 1.18166,-1.07137 3.44978,-1.8184 4.71057,-0.84138 2.74198,2.12484 1.32043,6.94973 0.78509,10.37709 -0.3581,2.29262 -1.71425,4.313 -2.61696,6.45062 -1.35053,3.19804 -2.47349,6.51669 -4.18719,9.53573 -2.15289,3.79277 -4.97591,7.16607 -7.58925,10.65756 -2.44126,3.26159 -7.26295,9.24905 -7.26295,9.24905 0,0 -6.96117,9.08872 -10.44186,13.91965 -6.85543,9.51482 -14.20782,18.74885 -19.98527,28.95423 -2.64663,4.67505 -5.62798,9.40361 -6.66173,14.67543 -0.61104,3.11612 -0.36062,6.42896 0.37009,9.51921 1.16907,4.94412 4.13874,9.28042 6.29164,13.88216 1.80409,3.85618 3.97702,7.54689 5.55149,11.50239 2.2576,5.67171 3.36246,11.75331 5.55145,17.45185 1.82178,4.74259 3.7021,9.51121 6.29164,13.88218 3.45538,5.83245 8.40536,10.65327 12.21321,16.26196 2.52418,3.71794 4.79006,7.60763 7.03185,11.50236 5.17401,8.98896 14.80388,27.3677 14.80388,27.3677"
     id="path4169"
     inkscape:connector-curvature="0"
     sodipodi:nodetypes="csssssssssscssssssssssc" />
  <path
     style="fill:none;fill-rule:evenodd;stroke:#000000;stroke-width:1;stroke-linecap:butt;stroke-linejoin:miter;stroke-miterlimit:4;stroke-dasharray:none;stroke-opacity:1"
     d="m 104.30577,142.97779 c 0,0 -6.291692,23.85348 -9.137398,35.85404 -2.123776,8.95613 -6.462012,17.78246 -5.921555,26.97107 0.575121,9.77795 6.952227,18.34051 9.622539,27.76434 1.550754,5.47279 4.288394,11.00076 3.700964,16.6586 -1.04933,10.10659 -7.331138,19.06613 -12.583298,27.76435 -6.232941,10.32252 -14.290572,19.46075 -22.205833,28.55759 -5.809209,6.6764 -13.885521,11.4897 -18.504873,19.0384 -3.206453,5.23981 -6.62452,11.34919 -5.921555,17.45188 0.641436,5.56853 5.31696,9.95351 8.882333,14.2788 3.212829,3.8976 6.534742,8.15719 11.102928,10.31248 3.602176,1.69952 8.799874,-0.98305 11.843111,1.58653 5.077968,4.28762 5.862337,12.39264 5.921555,19.03839 0.03927,4.40678 -1.961138,8.64331 -3.700983,12.69228 -0.966782,2.2499 -3.589047,3.89986 -3.700961,6.34612 -0.240028,5.24663 3.206727,10.32309 6.661739,14.2788 1.929672,2.20932 7.401944,4.7596 7.401944,4.7596 0,0 -6.158892,4.53645 -7.401944,7.93268 -1.728892,4.72363 -1.427051,10.53284 0.740205,15.07209 1.710356,3.58229 5.921557,5.28843 8.882334,7.93265 1.480389,1.32211 3.659427,2.14194 4.441167,3.96633 3.021766,7.05208 -0.260219,15.34755 -0.740205,23.00474 -0.498436,7.95152 -2.550541,15.83771 -2.220573,23.798 0.233583,5.63505 0.213144,11.73328 2.960778,16.65861 2.90089,5.20006 7.969261,9.29364 13.323501,11.89899 6.76114,3.28994 14.76215,2.90401 22.20581,3.96633 9.82621,1.40235 19.68285,3.04377 29.60778,3.17308 13.11836,0.17091 26.11317,-2.92471 39.23029,-3.17308 6.17285,-0.11688 12.5503,-0.83792 18.50488,0.79327 7.55931,2.07078 15.5688,5.20319 20.72545,11.10575 6.49919,7.4393 7.89281,18.1997 10.36272,27.76434 1.67117,6.47153 0.48532,13.62316 2.96078,19.83166 2.39065,5.9958 7.91046,10.25524 11.1029,15.86533 4.4482,7.81685 8.04135,16.13455 11.10293,24.59128 3.45619,9.54673 8.37726,19.20051 8.14212,29.35088 -0.27824,12.01101 -11.23254,34.24771 -11.23254,34.24771"
     id="path4150"
     inkscape:connector-curvature="0"
     sodipodi:nodetypes="cssssssssssssssscssssssssssssssssssc" />
  <path
     style="fill:none;fill-rule:evenodd;stroke:#000000;stroke-width:1;stroke-linecap:butt;stroke-linejoin:miter;stroke-miterlimit:4;stroke-dasharray:none;stroke-opacity:1"
     d="m 563.94149,143.3265 c 0,0 7.87439,14.40275 10.87285,22.01979 2.83131,7.19244 5.70962,14.54068 6.66174,22.21147 1.36933,11.03204 -0.40056,22.25308 -1.48039,33.31721 -0.96116,9.8482 -2.19423,19.71437 -4.44117,29.35087 -2.77241,11.89009 -7.18972,23.3388 -11.1029,34.90373 -3.51171,10.37845 -6.75891,20.87889 -11.10293,30.93741 -3.88198,8.98867 -8.32787,17.75702 -13.3235,26.17781 -4.90426,8.26678 -11.03042,15.74889 -16.28428,23.79801 -5.1064,7.8232 -11.48355,15.06571 -14.80389,23.79801 -3.62356,9.52974 -4.94461,19.95148 -5.18135,30.14413 -0.27843,11.98751 3.19399,23.77131 4.44117,35.69701 1.5181,14.51629 1.93024,29.14203 3.70096,43.62967 1.13707,9.30321 2.58189,18.57818 4.44117,27.76435 2.05251,10.14091 3.96459,20.38527 7.40194,30.14413 3.48974,9.90761 7.59759,19.75118 13.3235,28.5576 5.73408,8.819 13.19542,16.45274 20.72544,23.79802 5.04501,4.92124 10.97334,8.85251 16.28428,13.48552 3.53454,3.08337 10.36273,9.5192 10.36273,9.5192"
     id="path4152"
     inkscape:connector-curvature="0"
     sodipodi:nodetypes="csssssssssssssssssc" />
  <path
     style="fill:none;fill-rule:evenodd;stroke:#000000;stroke-width:1;stroke-linecap:butt;stroke-linejoin:miter;stroke-miterlimit:4;stroke-dasharray:none;stroke-opacity:1"
     d="m 58.363022,364.07347 c 0,0 12.326787,-8.87181 15.339722,-15.48255 2.749168,-6.032 -0.708296,-13.57446 1.480389,-19.83166 2.747404,-7.85452 9.496022,-13.66949 14.063684,-20.62493 5.323091,-8.10577 10.554291,-16.27619 15.544093,-24.59128 6.41814,-10.6953 11.86434,-21.96528 18.50486,-32.52394 5.3077,-8.43944 9.113,-18.52458 17.02445,-24.59127 6.23733,-4.78293 14.46114,-6.59086 22.20583,-7.93267 16.04524,-2.77992 32.57189,-0.32908 48.85284,0 13.08478,0.26448 27.63478,-4.48186 39.2303,1.58654 6.16569,3.22675 8.6644,10.90797 12.58332,16.6586 5.58745,8.19902 9.74693,17.3324 15.54407,25.38453 4.03498,5.60452 8.12722,11.31669 13.3235,15.86535 5.93799,5.19793 12.87131,9.27611 19.98524,12.69226 11.04812,5.30537 23.19711,7.91999 34.78915,11.89899 6.91108,2.37225 15.48028,2.05229 20.72544,7.13941 6.49576,6.30003 8.43701,16.41348 9.62252,25.38453 0.59563,4.50728 -1.09633,9.0328 -1.35569,13.57187 -0.17857,3.12513 -0.063,6.26034 -0.13707,9.38969 -0.12615,5.33015 -0.13234,10.66907 -0.52339,15.98635 -0.3934,5.34921 -1.37405,10.64228 -1.83189,15.98636 -0.65542,7.65034 -0.79196,15.33692 -1.30849,22.99789 -0.31392,4.65602 -0.75365,9.30283 -1.0882,13.95741 -0.52548,7.311 -1.25067,14.61482 -1.4436,21.94214 -0.23932,9.08917 0.29702,18.1825 0.35588,27.27463 0.0432,6.66899 -0.0996,13.33897 -0.002,20.00738 0.11185,7.64387 0.25272,15.29107 0.67331,22.92418 0.93748,17.01403 1.34741,34.14066 4.12225,50.95305 3.61056,21.87591 9.77985,43.29198 16.22529,64.50631 3.4636,11.39999 12.0381,33.65546 12.0381,33.65546"
     id="path4154"
     inkscape:connector-curvature="0"
     sodipodi:nodetypes="cssssssssssssssssssssssssssssc" />
  <path
     style="fill:none;fill-rule:evenodd;stroke:#000000;stroke-width:1;stroke-linecap:butt;stroke-linejoin:miter;stroke-miterlimit:4;stroke-dasharray:none;stroke-opacity:1"
     d="m 76.612359,325.30556 c 0,0 8.812534,-1.87849 12.256124,-0.61362 4.609922,1.69328 8.45936,5.74183 10.729622,10.09665 2.227545,4.27288 3.151155,9.60239 2.093585,14.30356 -0.51781,2.30181 -2.044574,4.46541 -3.925483,5.88971 -3.143426,2.38033 -7.998108,1.42056 -11.253028,3.646 -3.188122,2.17977 -5.859045,5.40281 -7.32755,8.97479 -1.392686,3.38756 -1.222429,5.01022 -1.222429,5.01022"
     id="path4164"
     inkscape:connector-curvature="0"
     sodipodi:nodetypes="cssssssc" />
  <path
     style="fill:none;fill-rule:evenodd;stroke:#000000;stroke-width:1;stroke-linecap:butt;stroke-linejoin:miter;stroke-miterlimit:4;stroke-dasharray:none;stroke-opacity:1"
     d="m 97.766207,354.98186 c 0,0 12.589013,-2.53881 18.973123,-3.08508 9.7784,-0.83671 19.62694,-0.2662 29.44106,-0.28048 14.132,-0.0206 28.2645,0.0815 42.39511,0.28048 17.36162,0.24442 34.71561,0.93487 52.07794,1.12186 15.52654,0.16722 31.12855,-1.51084 46.58231,0 6.72557,0.65753 13.57359,1.52211 19.88904,3.92644 7.57064,2.88218 14.70924,7.15857 20.93586,12.34035 5.52094,4.59452 10.28893,10.19857 14.1317,16.26681 3.71456,5.86579 6.63376,12.35013 8.37434,19.07143 1.41232,5.4537 3.33506,11.47769 1.5702,16.82771 -0.65621,1.98924 -2.40759,3.5845 -4.19212,4.68138 -0.87046,0.53503 -1.94314,0.88452 -2.9608,0.79327 -1.69811,-0.15226 -3.32743,-1.07699 -4.62621,-2.18149 -5.55982,-4.72818 -8.25481,-12.03858 -12.39826,-18.04683 -3.4467,-4.99791 -6.00133,-10.75608 -10.36676,-14.97531 -4.84723,-4.68489 -10.81637,-8.27762 -17.01041,-10.93802 -7.59144,-3.2606 -15.86905,-4.93898 -24.07622,-5.88971 -9.67829,-1.12115 -19.4934,-0.13908 -29.22779,0.27069 -12.3603,0.5203 -24.70869,1.46031 -37.00973,2.77642 -9.5363,1.0203 -19.18858,1.65843 -28.49748,3.96634 -8.66079,2.14723 -17.00476,5.51645 -25.16661,9.12257 -7.01285,3.09846 -13.81212,6.71326 -20.35533,10.70911 -3.73078,2.27833 -6.59398,6.12912 -10.73284,7.53602 -2.89659,0.98462 -6.21845,1.20285 -9.16954,0.39615 -2.81092,-0.76838 -5.76482,-2.30825 -7.32755,-4.76784 -2.37899,-3.74429 -1.6438,-8.74958 -1.83188,-13.18173 -0.13892,-3.27376 0.52338,-9.81617 0.52338,-9.81617 l -5.23397,-1.12185 c 0,0 0.60019,11.21629 0.52341,16.82772 -0.0913,6.67512 2.2389,14.25329 -1.17005,19.99303 -2.862213,4.81918 -14.27014,8.8946 -14.27014,8.8946 0,0 5.813967,-2.13797 8.636044,-1.40232 2.909963,0.75856 5.473636,3.05813 7.065846,5.60924 2.58453,4.14106 2.6139,9.45063 3.14037,14.30357 0.41339,3.81062 0,7.66596 0,11.49894 0,1.12186 -0.82105,2.60109 0,3.36557 0.96009,0.89394 2.94968,0.59627 3.92548,-0.28049 4.02757,-3.61875 0.34383,-11.20187 2.87869,-15.98634 1.31417,-2.48046 3.34689,-5.02989 6.01905,-5.88971 2.94026,-0.94609 6.6877,-0.44991 9.15943,1.40232 3.13707,2.35081 3.80046,6.91667 4.97227,10.65757 1.84319,5.88425 1.91607,12.18662 3.14039,18.23003 1.52486,7.52688 5.44929,14.76021 5.23395,22.43698 -0.19122,6.81703 -2.62087,13.5767 -5.75736,19.63235 -2.19513,4.23815 -4.54045,9.27057 -8.89775,11.21848 -2.87201,1.28392 -6.72481,1.05983 -9.42112,-0.56091 -4.88078,-2.93382 -6.74063,-9.31372 -8.89775,-14.58403 -2.32726,-5.686 -4.75337,-11.83191 -4.18716,-17.9496 0.31993,-3.45673 3.0529,-6.25474 4.18716,-9.53571 0.9147,-2.64586 1.74188,-5.35607 2.0936,-8.1334 0.24665,-1.94768 0.12219,-3.93027 0,-5.8897 -0.10344,-1.65871 -0.61942,-4.94717 -0.61942,-4.94717"
     id="path4166"
     inkscape:connector-curvature="0"
     sodipodi:nodetypes="cssssssssssssssssssssssssssccsscssssssssssssssssssssc" />
  <path
     style="fill:none;fill-rule:evenodd;stroke:#000000;stroke-width:1;stroke-linecap:butt;stroke-linejoin:miter;stroke-miterlimit:4;stroke-dasharray:none;stroke-opacity:1"
     d="m 116.49796,439.21742 c 0,0 -0.87618,-4.07879 -0.93627,-6.54756 -0.0826,-3.39268 -1.24075,-7.85643 1.3085,-10.09662 0.85185,-0.74857 2.48033,-0.6606 3.40207,0 1.76533,1.2652 1.33388,4.13548 2.09359,6.17017 0.56514,1.51357 0.86618,3.19213 1.83189,4.48738 0.53518,0.7178 1.629,0.9174 2.09358,1.68278 0.69258,1.14099 0.55243,3.41467 0.55243,3.41467"
     id="path4168"
     inkscape:connector-curvature="0"
     sodipodi:nodetypes="cssssssc" />
  <path
     style="fill:none;fill-rule:evenodd;stroke:#000000;stroke-width:1;stroke-linecap:butt;stroke-linejoin:miter;stroke-miterlimit:4;stroke-dasharray:none;stroke-opacity:1"
     d="m 110.55194,406.49613 c 0,0 -2.36347,3.22517 -3.14039,5.04833 -0.832,1.95239 -1.24118,4.07355 -1.57019,6.17016 -0.43565,2.77607 -1.52926,5.79002 -0.52339,8.41386 0.52526,1.37018 1.67299,3.09604 3.14037,3.08509 2.23406,-0.0167 3.53132,-2.87029 4.71057,-4.76784 1.40965,-2.26831 1.14563,-5.3437 2.61698,-7.57249 0.8434,-1.27759 2.8288,-1.66563 3.40208,-3.08511 0.49121,-1.21627 -0.26169,-3.92643 -0.26169,-3.92643"
     id="path4170"
     inkscape:connector-curvature="0"
     sodipodi:nodetypes="csssssssc" />
  <path
     style="fill:none;fill-rule:evenodd;stroke:#000000;stroke-width:1;stroke-linecap:butt;stroke-linejoin:miter;stroke-miterlimit:4;stroke-dasharray:none;stroke-opacity:1"
     d="m 128.47711,439.41997 c 0,0 2.29921,-1.28144 3.33089,-0.79326 3.05709,1.44658 3.07903,6.02694 4.44117,9.12257 1.48844,3.38266 1.54889,7.61126 4.07105,10.31246 1.67861,1.79777 4.21875,3.45838 6.66176,3.17307 1.8865,-0.22032 3.74773,-1.80149 4.44117,-3.5697 0.92703,-2.36384 0.38949,-5.48716 -1.11029,-7.53602 -1.78319,-2.43603 -5.93232,-1.90946 -8.14213,-3.96634 -3.24322,-3.01878 -4.73078,-7.51455 -6.66177,-11.50238 -2.04501,-4.22331 -5.1985,-8.39656 -5.18134,-13.08891 0.0156,-4.27826 2.09587,-8.59286 4.81125,-11.89899 3.36948,-4.10254 8.54251,-6.41806 13.32351,-8.72593 7.95776,-3.84134 16.62833,-6.05344 25.16661,-8.32931 12.77451,-3.40504 25.73678,-6.33319 38.8602,-7.93267 12.74661,-1.55355 25.65953,-2.10193 38.49011,-1.58653 9.81035,0.39408 19.92196,0.46879 29.23767,3.56971 7.55836,2.51595 15.13954,6.21949 20.72544,11.89898 5.18933,5.27628 8.33877,12.43243 10.73281,19.43506 2.33732,6.83671 2.85607,14.20859 3.33088,21.41819 0.35631,5.41034 -2.35868,11.21774 -0.3701,16.26198 0.36615,0.92877 1.54152,1.31008 2.09308,2.14222 0.64087,0.96688 1.09547,2.07669 1.34515,3.20949 0.86874,3.94155 0.47772,8.06413 0.44786,12.10017 -0.0176,2.38293 0.30917,4.85526 -0.3701,7.13939 -1.15501,3.88388 -3.56004,7.35902 -6.1066,10.51078 -1.72909,2.14002 -5.17774,2.96314 -6.10659,5.55286 -0.88648,2.4716 -1.21703,6.62074 1.13121,7.79565 2.18968,-0.46081 4.17551,-2.15142 6.12197,-3.41944 1.74035,-1.10319 3.78569,-2.02174 5.23759,-3.48387 4.14902,-4.17825 9.53,-14.87375 9.53,-14.87375"
     id="path4172"
     inkscape:connector-curvature="0"
     sodipodi:nodetypes="cssssssssssssssssssssssssscssc" />
  <path
     style="fill:none;fill-rule:evenodd;stroke:#000000;stroke-width:1;stroke-linecap:butt;stroke-linejoin:miter;stroke-miterlimit:4;stroke-dasharray:none;stroke-opacity:1"
     d="m 267.26358,510.81399 c -2.12406,1.20684 -3.62168,3.33835 -5.73652,4.56128 -3.73272,2.15848 -8.6372,2.0962 -12.02814,4.7596 -1.84711,1.4508 -3.43767,3.48945 -4.07108,5.75118 -0.71484,2.55249 0.0914,5.32287 0.55514,7.93268 0.3492,1.96504 0.26189,4.33227 1.66545,5.75119 1.44979,1.46565 3.90374,2.20734 5.92154,1.78483 3.09307,-0.64767 5.3772,-3.57836 7.21691,-6.1478 1.65598,-2.31283 1.60449,-5.54189 3.14581,-7.93267 1.44374,-2.23943 3.7868,-3.75485 5.55146,-5.7512 1.68916,-1.91094 3.74282,-3.63359 4.81127,-5.94949 0.56342,-1.22124 1.37393,-2.78008 0.74018,-3.96634 -0.79059,-1.47985 -2.94882,-1.94678 -4.62621,-1.98316 -1.12085,-0.0243 -2.17105,0.63607 -3.14581,1.1899 z"
     id="path4174"
     inkscape:connector-curvature="0"
     sodipodi:nodetypes="ssssssssssssss" />
  <path
     style="fill:none;fill-rule:evenodd;stroke:#000000;stroke-width:1;stroke-linecap:butt;stroke-linejoin:miter;stroke-miterlimit:4;stroke-dasharray:none;stroke-opacity:1"
     d="m 141.99321,490.72554 c 0,0 10.7762,2.008 16.22529,2.52417 10.77508,1.02069 21.64698,0.46866 32.45057,1.12183 10.8374,0.65521 21.71808,1.16402 32.4506,2.80463 9.00713,1.37686 18.12383,2.79299 26.69322,5.8897 4.9852,1.8015 10.28808,3.64179 14.13169,7.29203 0.6278,0.59621 1.3085,1.97651 1.3085,1.97651"
     id="path4176"
     inkscape:connector-curvature="0"
     sodipodi:nodetypes="csssssc" />
  <path
     style="fill:none;fill-rule:evenodd;stroke:#000000;stroke-width:1;stroke-linecap:butt;stroke-linejoin:miter;stroke-miterlimit:4;stroke-dasharray:none;stroke-opacity:1"
     d="m 126.8147,521.29592 c 0,0 8.7235,-0.0429 13.08493,0 9.50974,0.0935 19.03224,-0.0134 28.52509,0.56093 8.31452,0.50299 16.6084,1.39585 24.86134,2.52416 9.82256,1.3429 19.61589,2.97319 29.31021,5.04832 6.25254,1.3384 12.83466,1.96248 18.58057,4.76784 2.47532,1.20854 5.86802,4.61087 5.86802,4.61087"
     id="path4178"
     inkscape:connector-curvature="0"
     sodipodi:nodetypes="csssssc" />
  <path
     style="fill:none;fill-rule:evenodd;stroke:#000000;stroke-width:1;stroke-linecap:butt;stroke-linejoin:miter;stroke-miterlimit:4;stroke-dasharray:none;stroke-opacity:1"
     d="m 285.58338,555.63355 c 0,0 -0.8331,-6.7398 -2.59069,-9.51918 -2.17128,-3.43357 -5.77005,-5.84057 -9.25242,-7.9327 -2.95275,-1.77394 -6.21925,-3.23572 -9.62253,-3.76798 -1.03807,-0.16235 -3.14583,0.19828 -3.14583,0.19828"
     id="path4182"
     inkscape:connector-curvature="0"
     sodipodi:nodetypes="csssc" />
  <path
     style="fill:none;fill-rule:evenodd;stroke:#000000;stroke-width:1;stroke-linecap:butt;stroke-linejoin:miter;stroke-miterlimit:4;stroke-dasharray:none;stroke-opacity:1"
     d="m 253.38493,541.35475 c 0,0 1.75501,8.7205 2.59066,13.0889 1.21252,6.33851 2.69166,12.63781 3.51593,19.0384 0.64344,4.99638 0.26588,10.10572 1.1103,15.07209 0.51643,3.03734 1.27987,6.05635 2.40563,8.92424 1.69266,4.31206 4.35856,8.17588 6.4767,12.29564 3.14497,6.11692 6.61144,12.09264 9.25243,18.44345 2.08797,5.02097 3.26244,10.38074 5.18137,15.46871 1.79677,4.76409 3.88685,9.41305 5.92155,14.08048 1.79704,4.12226 4.39466,7.95004 5.55145,12.29564 0.99087,3.72232 0.94999,7.65377 1.1103,11.50238 0.19811,4.75588 -0.18517,14.2788 -0.18517,14.2788"
     id="path4184"
     inkscape:connector-curvature="0"
     sodipodi:nodetypes="cssssssssssc" />
  <path
     style="fill:none;fill-rule:evenodd;stroke:#000000;stroke-width:1;stroke-linecap:butt;stroke-linejoin:miter;stroke-miterlimit:4;stroke-dasharray:none;stroke-opacity:1"
     d="m 376.99822,678.07426 c 0,0 -6.69158,-15.0485 -9.68282,-22.71741 -4.36155,-11.1821 -7.44601,-22.84651 -12.03813,-33.93592 -1.94109,-4.6875 -4.98679,-8.91353 -6.54246,-13.74265 -2.85483,-8.862 -2.84288,-18.4216 -4.97226,-27.4853 -1.00188,-4.26451 -3.23974,-8.26077 -3.66377,-12.62081 -0.38157,-3.92343 2.1853,-8.00545 1.04679,-11.7794 -0.48404,-1.60452 -1.58649,-3.29859 -3.14038,-3.92646 -1.28175,-0.51791 -2.89293,-0.11944 -4.11327,0.53009 -1.54985,0.82491 -2.833,2.32357 -3.47598,3.95731 -2.19209,5.56989 -0.24056,11.97052 -0.5234,17.94957 -0.25233,5.33423 -1.55772,10.67065 -1.0468,15.98635 0.65662,6.83158 3.08339,13.3954 5.23397,19.91281 3.09194,9.37022 6.9876,18.46689 10.99133,27.48528 2.5763,5.80311 5.54797,11.4227 8.37434,17.10821 2.84365,5.72028 6.07593,11.25552 8.63605,17.10819 0.59986,1.37134 1.57019,4.20692 1.57019,4.20692"
     id="path4188"
     inkscape:connector-curvature="0"
     sodipodi:nodetypes="csssssssssssssssc" />
  <path
     style="fill:none;fill-rule:evenodd;stroke:#000000;stroke-width:1;stroke-linecap:butt;stroke-linejoin:miter;stroke-miterlimit:4;stroke-dasharray:none;stroke-opacity:1"
     d="m 286.18893,588.32639 c 1.42175,4.03211 8.55008,0.42023 12.82323,0.28046 4.28843,-0.14027 8.80207,0.37512 12.8232,-1.12184 4.63883,-1.72691 11.9106,-3.74615 12.03814,-8.69435 0.0231,-0.89505 -1.20536,-1.5702 -2.0936,-1.68276 -4.27446,-0.54168 -7.66128,4.05204 -11.77642,5.32879 -3.55461,1.10284 -7.30301,1.46535 -10.99132,1.96323 -3.03845,0.41016 -6.3304,-0.3405 -9.15945,0.84139 -1.47317,0.61545 -4.1947,1.57938 -3.66378,3.08508 z"
     id="path4190"
     inkscape:connector-curvature="0"
     sodipodi:nodetypes="sssssssss" />
  <path
     style="fill:none;fill-rule:evenodd;stroke:#000000;stroke-width:1;stroke-linecap:butt;stroke-linejoin:miter;stroke-miterlimit:4;stroke-dasharray:none;stroke-opacity:1"
     d="m 336.42881,466.71032 c 0,0 3.37743,1.14594 4.19334,2.41963 1.68067,2.62362 1.30371,6.1395 1.30852,9.25527 0.008,5.09631 -0.78887,10.21846 -2.09358,15.14494 -1.44348,5.45049 -4.79799,10.26597 -6.28075,15.7059 -1.51712,5.56601 -2.61701,11.33913 -2.61701,17.10819 0,5.76906 0.77951,11.63958 2.61701,17.10819 1.04985,3.12447 4.71055,8.69433 4.71055,8.69433"
     id="path4192"
     inkscape:connector-curvature="0"
     sodipodi:nodetypes="cssssssc" />
  <path
     style="fill:none;fill-rule:evenodd;stroke:#000000;stroke-width:1;stroke-linecap:butt;stroke-linejoin:miter;stroke-miterlimit:4;stroke-dasharray:none;stroke-opacity:1"
     d="m 367.03959,309.23804 c 0,0 6.30348,0.93697 8.43653,3.02936 5.5669,5.46079 7.18646,14.14764 8.32835,21.8617 0.61918,4.18287 -0.71788,8.42919 -0.88805,12.65421 -0.54267,13.47371 0.12355,26.97812 -0.42254,40.45169 -0.501,12.36098 -1.77802,24.67837 -2.61697,37.02102 -0.55892,8.22278 -1.55732,16.4312 -1.61004,24.67278 -0.0408,6.38408 0.69235,12.7497 1.00258,19.12636 0.40851,8.39671 0.65035,16.80165 1.13085,25.19455 0.71776,12.53711 1.75105,25.05417 2.61699,37.58192 0.87881,12.71384 0.52974,25.57077 2.61698,38.14286 2.4403,14.69872 7.72638,28.78091 11.51473,43.19117 3.53591,13.45002 6.16192,27.16295 10.46792,40.38657 1.61825,4.9696 5.75735,14.58403 5.75735,14.58403"
     id="path4194"
     inkscape:connector-curvature="0"
     sodipodi:nodetypes="cssssssssssssc" />
  <path
     style="fill:none;fill-rule:evenodd;stroke:#000000;stroke-width:1;stroke-linecap:butt;stroke-linejoin:miter;stroke-miterlimit:4;stroke-dasharray:none;stroke-opacity:1"
     d="m 144.8719,273.36737 c 0,0 21.97626,-9.26845 33.6653,-10.61776 12.11106,-1.39803 24.28088,2.51521 36.46981,2.76482 10.66225,0.21834 21.66846,-3.85336 31.97417,-1.11045 8.90872,2.3711 23.50587,14.57262 23.50587,14.57262"
     id="path4198"
     inkscape:connector-curvature="0"
     sodipodi:nodetypes="csssc" />
  <path
     style="fill:none;fill-rule:evenodd;stroke:#000000;stroke-width:1;stroke-linecap:butt;stroke-linejoin:miter;stroke-miterlimit:4;stroke-dasharray:none;stroke-opacity:1"
     d="m 152.19945,309.26651 c 0,0 18.49294,3.65343 27.86763,3.82351 12.75517,0.23141 25.32431,-4.00185 38.08033,-3.82349 9.21016,0.12878 18.26309,2.41817 27.40701,3.5283 9.34971,1.13511 28.07299,3.20278 28.07299,3.20278"
     id="path4200"
     inkscape:connector-curvature="0"
     sodipodi:nodetypes="csssc" />
  <path
     style="fill:none;fill-rule:evenodd;stroke:#000000;stroke-width:1;stroke-linecap:butt;stroke-linejoin:miter;stroke-miterlimit:4;stroke-dasharray:none;stroke-opacity:1"
     d="m 346.73959,302.76982 c 0,0 0.0846,10.1965 1.99133,14.79165 1.66792,4.01967 5.09738,7.06783 7.93053,10.3713 2.32719,2.71351 4.35058,5.91564 7.42693,7.73635 2.3902,1.41462 5.29237,1.80201 8.04584,2.16619 1.53391,0.20288 5.16473,0 5.16473,0"
     id="path4163"
     inkscape:connector-curvature="0"
     sodipodi:nodetypes="cssssc" />
  <path
     style="fill:none;fill-rule:evenodd;stroke:#000000;stroke-width:1;stroke-linecap:butt;stroke-linejoin:miter;stroke-miterlimit:4;stroke-dasharray:none;stroke-opacity:1"
     d="m 344.00545,356.73589 c 2.53024,-1.57354 -0.52896,-5.94117 -1.0117,-8.88142 -0.61439,-3.7421 -0.48106,-7.8476 -2.39428,-11.1218 -1.60808,-2.75199 -4.09504,-5.45362 -7.15599,-6.34242 -3.32988,-0.96689 -8.4087,-1.26857 -10.26937,1.65733 -1.62632,2.55738 0.91258,6.15818 2.49471,8.74312 1.15687,1.89013 3.09364,3.19894 4.86318,4.53297 1.89443,1.42818 4.36834,2.04626 6.09842,3.66965 1.59769,1.49916 2.16481,3.88213 3.73998,5.40493 1.03574,1.0013 2.41171,3.09842 3.63505,2.33764 z"
     id="path4171"
     inkscape:connector-curvature="0"
     sodipodi:nodetypes="ssssssssss" />
  <path
     style="fill:none;fill-rule:evenodd;stroke:#000000;stroke-width:1;stroke-linecap:butt;stroke-linejoin:miter;stroke-miterlimit:4;stroke-dasharray:none;stroke-opacity:1"
     d="m 358.39983,305.27539 c 0,0 2.98069,7.42649 2.3619,10.51126 -0.32563,1.62332 -1.66194,2.99448 -3.01717,3.94555 -1.68235,1.18063 -6.38445,2.15119 -6.38445,2.15119"
     id="path4175"
     inkscape:connector-curvature="0"
     sodipodi:nodetypes="cssc" />
  <path
     style="fill:none;fill-rule:evenodd;stroke:#000000;stroke-width:1;stroke-linecap:butt;stroke-linejoin:miter;stroke-miterlimit:4;stroke-dasharray:none;stroke-opacity:1"
     d="m 358.28611,319.19065 c 0,0 3.81599,6.07247 7.01167,7.09537 1.39714,0.4472 3.11439,0.0995 4.36078,-0.67417 1.25331,-0.77792 4.12995,-5.95806 4.12995,-5.95806"
     id="path4177"
     inkscape:connector-curvature="0"
     sodipodi:nodetypes="cssc" />
  <path
     style="fill:none;fill-rule:evenodd;stroke:#000000;stroke-width:1;stroke-linecap:butt;stroke-linejoin:miter;stroke-miterlimit:4;stroke-dasharray:none;stroke-opacity:1"
     d="m 365.24883,326.26944 c 0,0 4.17258,3.36237 5.3381,5.68622 0.52842,1.05357 0.47357,2.31172 0.61892,3.48138 0.0893,0.71838 0.15477,2.16618 0.15477,2.16618"
     id="path4179"
     inkscape:connector-curvature="0"
     sodipodi:nodetypes="cssc" />
</svg>
