<?xml version="1.0" encoding="UTF-8" standalone="no"?>
<!-- Created with Inkscape (http://www.inkscape.org/) -->

<svg
   id="svg4136"
   version="1.1"
   inkscape:version="1.3 (0e150ed, 2023-07-21)"
   width="700"
   height="750"
   viewBox="0 0 700 750"
   sodipodi:docname="level3_C05_06.01.svg"
   xmlns:inkscape="http://www.inkscape.org/namespaces/inkscape"
   xmlns:sodipodi="http://sodipodi.sourceforge.net/DTD/sodipodi-0.dtd"
   xmlns="http://www.w3.org/2000/svg"
   xmlns:svg="http://www.w3.org/2000/svg"
   xmlns:rdf="http://www.w3.org/1999/02/22-rdf-syntax-ns#"
   xmlns:cc="http://creativecommons.org/ns#"
   xmlns:dc="http://purl.org/dc/elements/1.1/">
  <metadata
     id="metadata4142">
    <rdf:RDF>
      <cc:Work
         rdf:about="">
        <dc:format>image/svg+xml</dc:format>
        <dc:type
           rdf:resource="http://purl.org/dc/dcmitype/StillImage" />
      </cc:Work>
    </rdf:RDF>
  </metadata>
  <defs
     id="defs4140">
    <marker
       inkscape:stockid="Arrow1Lstart"
       orient="auto"
       refY="0"
       refX="0"
       id="Arrow1Lstart"
       style="overflow:visible"
       inkscape:isstock="true">
      <path
         id="path4153"
         d="M 0,0 5,-5 -12.5,0 5,5 Z"
         style="fill:#000000;fill-opacity:1;fill-rule:evenodd;stroke:#000000;stroke-width:1pt;stroke-opacity:1"
         transform="matrix(0.8,0,0,0.8,10,0)"
         inkscape:connector-curvature="0" />
    </marker>
  </defs>
  <sodipodi:namedview
     pagecolor="#ffffff"
     bordercolor="#666666"
     borderopacity="1"
     objecttolerance="10"
     gridtolerance="10"
     guidetolerance="10"
     inkscape:pageopacity="0"
     inkscape:pageshadow="2"
     inkscape:window-width="1344"
     inkscape:window-height="759"
     id="namedview4138"
     showgrid="false"
     inkscape:zoom="0.75630236"
     inkscape:cx="259.81672"
     inkscape:cy="424.43342"
     inkscape:window-x="0"
     inkscape:window-y="25"
     inkscape:window-maximized="0"
     inkscape:current-layer="svg4136"
     inkscape:showpageshadow="2"
     inkscape:pagecheckerboard="0"
     inkscape:deskcolor="#d1d1d1" />
  <path
     style="opacity:0.99;fill:none;fill-rule:evenodd;stroke:#000000;stroke-width:0.8;stroke-linecap:butt;stroke-linejoin:miter;stroke-miterlimit:4;stroke-dasharray:0.8, 0.8;stroke-dashoffset:0;stroke-opacity:1"
     d="m 356.9966,264.04718 112.58141,-0.48634 c 0.56713,-3.89341 1.4158,-7.78681 2.80067,-11.68022 0,0 -4.06717,-7.8709 -5.2243,-12.11317 -1.16771,-4.28105 -1.87012,-13.20312 -1.39572,-13.20312 -1.52354,-4.39756 -2.4144,-8.85839 -4.99379,-13.15037 -2.60798,-3.12679 -5.5178,-4.07883 -7.49073,-7.32426 -0.24378,-2.1085 -0.8081,-4.21699 0.1664,-6.32549 -4.83005,-4.16883 -9.96637,-7.96499 -14.14913,-12.98391 -3.19074,-3.82859 -4.61509,-7.65718 -6.49195,-11.48577 0,0 -4.81386,3.58566 -7.65716,3.82859 -6.12147,0.52301 -11.96416,-2.98662 -17.64482,-5.32673 -3.71804,-1.53163 -10.65345,-5.65965 -10.65345,-5.65965 0,0 -3.14954,5.9576 -5.99258,7.32425 -9.00217,4.32734 -20.24427,2.63812 -29.96286,0.33292 -3.64614,-0.86485 -9.98762,-5.16027 -9.98762,-5.16027 0,0 -4.59261,3.56644 -7.32425,4.32797 -10.63682,2.96536 -22.22254,2.08166 -33.12563,0.33292 -2.72008,-0.43627 -7.82363,-2.66336 -7.82363,-2.66336 0,0 -2.3811,3.49503 -4.16151,4.49443 -5.38033,3.02013 -12.00562,4.28444 -18.14417,3.66212 -1.97889,-0.20062 -5.49321,-2.33044 -5.49321,-2.33044 l -14.64851,19.97525 c 0,0 1.27266,3.27204 1.3317,4.9938 0.13948,4.06748 -1.0659,8.11672 -2.33047,11.98515 -0.97176,2.9727 -1.60312,6.47454 -3.99504,8.48948 -2.55325,2.15084 -9.6547,2.66337 -9.6547,2.66337 0,0 2.79824,7.81466 1.33167,11.3193 -0.97687,2.33443 -4.40185,2.69277 -5.99255,4.66089 -1.46306,1.81021 -1.44865,4.58553 -3.03548,6.28828 -1.67818,1.80077 -6.4078,3.67038 -6.4078,3.67038 2.12009,3.29823 4.4811,6.48938 4.5182,10.71338 z"
     id="C05.0"
     inkscape:connector-curvature="0"
     sodipodi:nodetypes="cccsccccscsscsscsscssccssscsssccc"
     inkscape:label="C05.0" />
  <path
     style="fill:none;fill-rule:evenodd;stroke:#000000;stroke-width:0.8;stroke-linecap:butt;stroke-linejoin:miter;stroke-miterlimit:4;stroke-dasharray:0.8, 0.8;stroke-dashoffset:0;stroke-opacity:1"
     d="m 469.65691,263.50911 c 0,0 -0.17939,3.16292 0.24734,4.57191 0.87748,2.89725 4.39051,4.34881 5.67558,7.08973 1.05785,2.25629 0.0319,5.30929 1.49814,7.32426 1.72506,2.37068 7.65718,4.32796 7.65718,4.32796 0,0 -4.04139,7.11411 -3.82859,10.98639 0.35351,6.43259 8.32159,17.44361 8.32159,17.44361 0,0 -3.59887,3.58896 -3.5726,5.88311 0.0318,2.78055 3.78596,4.33985 4.49217,7.02941 0.64389,2.45223 -1.29351,7.5349 -1.29351,7.5349 l -70.99004,0.58971 -54.22464,0.69024 -41.36789,-0.0481 -109.24323,0.15753 c 0,0 1.86172,-2.35286 2.61401,-3.87253 2.22825,-4.50118 1.26789,-15.01411 1.26789,-15.01411 0,0 7.94981,-4.68588 9.9777,-8.57399 2.81109,-5.38975 2.56852,-12.1103 1.83107,-18.14418 -0.57913,-4.73854 -4.82736,-13.48328 -4.82736,-13.48328 0,0 4.82349,-3.0051 6.99135,-4.82736 3.00165,-2.52312 5.92637,-9.21356 5.30897,-9.33704 z"
     id="C05.1"
     inkscape:connector-curvature="0"
     sodipodi:nodetypes="cssscscsscccccscsscscc"
     inkscape:label="C05.1" />
  <path
     id="C05.9"
     style="font-size:33.2768px;font-family:'.Arial Hebrew Desk Interface';-inkscape-font-specification:'.Arial Hebrew Desk Interface, Normal';display:inline;fill:none;stroke:#000000;stroke-width:1;stroke-dasharray:none"
     d="m 618.93383,143.71544 q -2.7719,3.62043 -7.41057,3.62043 -4.18613,0 -6.84489,-2.65875 -2.60219,-2.71532 -2.60219,-6.78832 0,-4.35583 2.99817,-7.354 3.05474,-2.99817 7.24087,-2.99817 5.31751,0 8.42882,3.95985 3.16787,3.95985 3.16787,10.63501 0,7.24086 -3.28101,11.70984 -3.22446,4.46898 -8.99452,4.46898 -3.05473,0 -5.54378,-1.69709 -2.43247,-1.75366 -2.99817,-4.01642 l 4.80839,-0.7354 q 1.13138,2.14964 4.12955,2.14964 3.22446,0 5.03468,-2.7719 1.86678,-2.82846 1.86678,-7.5237 z m -0.90511,-5.93977 q 0,-2.88504 -1.47081,-4.52555 -1.41423,-1.64049 -3.95985,-1.64049 -2.20619,0 -3.79014,1.75363 -1.58393,1.69709 -1.58393,4.41241 0,2.37592 1.4708,3.95985 1.47081,1.52736 3.8467,1.52736 2.26278,0 3.84672,-1.52736 1.64051,-1.58393 1.64051,-3.95985 z m 15.97264,4.47502 A 21.750674,21.750674 0 0 1 612.25068,164.00135 21.750674,21.750674 0 0 1 590.5,142.25069 21.750674,21.750674 0 0 1 612.25068,120.5 a 21.750674,21.750674 0 0 1 21.75068,21.75069 z"
     inkscape:label="C05.9" />
  <path
     id="C05.8"
     style="font-size:33.2768px;font-family:'.Arial Hebrew Desk Interface';-inkscape-font-specification:'.Arial Hebrew Desk Interface, Normal';display:inline;fill:none;stroke:#000000;stroke-width:1;stroke-dasharray:none"
     d="m 606.21,80.95843 q -3.28102,-2.26276 -3.28102,-6.10946 0,-3.84672 2.77191,-5.88321 2.82845,-2.03649 6.50545,-2.03649 3.62044,0 6.44891,2.03649 2.82846,2.03649 2.82846,5.88321 0,3.8467 -3.28102,6.10946 v 0.0567 q 2.2062,1.01825 3.5073,3.05474 1.35765,1.97992 1.35765,4.35583 0,3.84672 -2.99816,6.61861 -2.99817,2.7719 -7.86314,2.7719 -5.03466,0 -7.97626,-2.7719 -2.88504,-2.82846 -2.88504,-6.61861 0,-2.37591 1.30111,-4.35583 1.35766,-2.03649 3.56385,-3.05474 z m 5.99634,-1.58393 q 1.69709,0 3.05474,-1.01824 1.41423,-1.01825 1.41423,-2.94161 0,-2.09306 -1.35766,-3.1113 -1.30108,-1.07483 -3.11131,-1.07483 -1.97992,0 -3.22444,1.13139 -1.24453,1.13138 -1.24453,3.05474 0,1.86678 1.35767,2.94161 1.41423,1.01824 3.1113,1.01824 z m 0,14.14232 q 2.14963,0 3.79014,-1.24453 1.64051,-1.24452 1.64051,-3.84671 0,-2.09306 -1.58393,-3.5073 -1.58394,-1.41423 -3.84672,-1.41423 -2.20619,0 -3.8467,1.41423 -1.58394,1.41424 -1.58394,3.5073 0,2.60219 1.64051,3.84671 1.64051,1.24453 3.79013,1.24453 z M 634.00133,82.25068 A 21.750674,21.750674 0 0 1 612.25068,104.00136 21.750674,21.750674 0 0 1 590.5,82.25068 21.750674,21.750674 0 0 1 612.25068,60.5 21.750674,21.750674 0 0 1 634.00133,82.25068 Z"
     inkscape:label="C05.8" />
  <path
     style="fill:none;fill-rule:evenodd;stroke:#000000;stroke-width:1;stroke-linecap:butt;stroke-linejoin:miter;stroke-miterlimit:4;stroke-dasharray:none;stroke-dashoffset:0;stroke-opacity:1"
     d="m 313.61488,336.80906 c 0,0 15.465,11.00263 20.12706,18.95134 4.63509,7.90272 3.76251,26.10163 6.49425,32.84106 1.95068,4.8125 3.91353,10.5872 8.47279,13.07285 4.21615,2.2986 10.3333,2.58068 14.40603,0.0366 4.84089,-3.02391 6.01225,-9.88906 7.47181,-15.40702 2.27359,-8.59543 0.4069,-19.78131 4.82552,-30.47021 2.99276,-7.23967 16.53892,-18.91546 16.53892,-18.91546 -14.34004,0.0957 -23.08667,0.12844 -37.42616,-0.0216 -10.9471,-0.0773 -40.91022,-0.0876 -40.91022,-0.0876 z"
     id="C05.2"
     inkscape:connector-curvature="0"
     sodipodi:nodetypes="csssssscscc"
     inkscape:label="C05.2" />
  <path
     style="fill:none;fill-rule:evenodd;stroke:#000000;stroke-width:1;stroke-linecap:butt;stroke-linejoin:miter;stroke-miterlimit:4;stroke-dasharray:none;stroke-opacity:1"
     d="m 225.2925,456.67397 c 0,0 -6.75412,-39.21381 -3.52533,-59.17933 1.9978,-12.35358 6.98013,-24.50701 14.11542,-34.78757 10.92486,-14.01534 27.09724,-23.0564 44.54527,-25.6644 11.17775,-1.32625 33.76804,-0.17095 33.76804,-0.17095"
     id="path4231"
     inkscape:connector-curvature="0"
     sodipodi:nodetypes="csssc"
     inkscape:label="path4231" />
  <path
     style="fill:none;fill-rule:evenodd;stroke:#000000;stroke-width:1;stroke-linecap:butt;stroke-linejoin:miter;stroke-miterlimit:4;stroke-dasharray:none;stroke-opacity:1"
     d="m 389.23797,337.04123 c 0,0 22.86687,-1.71331 34.24146,-0.73647 8.45041,0.72571 16.97815,2.04443 24.9729,4.87642 7.2953,2.58422 14.63241,5.84919 20.50782,10.88696 5.37462,4.60838 9.25823,10.83628 12.70531,17.02024 3.03856,5.45107 5.5195,11.32313 6.87145,17.41568 2.44147,11.00246 2.04085,22.47746 2.05859,33.74753 0.0189,12.01633 -1.72635,35.58285 -1.72635,35.58285"
     id="path4451"
     inkscape:connector-curvature="0"
     sodipodi:nodetypes="cssssssc" />
  <path
     style="fill:none;fill-rule:evenodd;stroke:#000000;stroke-width:1;stroke-linecap:butt;stroke-linejoin:miter;stroke-miterlimit:4;stroke-dasharray:none;stroke-opacity:1"
     d="m 463.84096,555.89074 c 0,0 2.97294,-9.28243 5.70908,-12.96534 1.65928,-2.23343 6.33507,-4.9862 6.33507,-4.9862 0,0 2.69659,-8.6273 3.88427,-12.81711 0.95056,-3.35332 0.63263,-7.29062 2.68931,-10.10458 0.87883,-1.20242 3.76502,-2.40585 3.76502,-2.40585 0,0 0.42668,-8.79231 1.61357,-12.99161 1.29423,-4.57908 5.91649,-12.99161 5.91649,-12.99161 0,0 -1.29591,-11.17905 1.07573,-15.95147 1.68168,-3.38402 4.83885,-6.75172 8.55474,-7.43865 3.95922,-0.73191 7.32181,4.27148 11.34607,4.14329 4.0169,-0.12796 7.0423,-5.26905 11.03914,-4.84813 4.93688,0.51992 10.16912,4.11955 12.08888,8.6975 3.64005,8.68022 -2.50629,18.66839 -4.30289,27.90789 -1.19511,6.14621 -0.88733,13.03681 -4.30288,18.28449 -1.5946,2.44995 -6.99217,5.29288 -6.99217,5.29288 0,0 2.07224,13.94332 -1.07573,19.72801 -3.39024,6.2299 -17.21155,12.51043 -17.21155,12.51043 0,0 -2.28887,8.54073 -4.84073,12.02925 -1.78461,2.43965 -4.1756,4.677 -6.99219,5.77406 -2.84398,1.10773 -9.14363,0.48118 -9.14363,0.48118 0,0 -0.86855,10.50469 -4.30288,13.95392 -2.65112,2.66263 -7.02933,2.89814 -10.75721,3.36821 -3.02812,0.38183 -9.14363,-0.48118 -9.14363,-0.48118 0,0 -1.39835,8.64318 -4.30289,11.54809 -3.24689,3.2473 -8.32999,5.16272 -12.90864,4.81171 -4.91539,-0.37682 -12.90868,-7.21756 -12.90868,-7.21756 0,0 -2.67819,6.5978 -5.37859,8.66107 -3.12189,2.38531 -7.38116,3.71081 -11.29505,3.36821 -4.99409,-0.43715 -13.44654,-6.7364 -13.44654,-6.7364 0,0 -6.40026,5.08645 -10.21934,6.25522 -3.43219,1.05037 -7.42164,1.80679 -10.7572,0.48118 -3.11288,-1.23711 -6.99219,-7.21758 -6.99219,-7.21758 0,0 -5.58982,5.43178 -9.14364,6.7364 -4.38626,1.61022 -9.45709,2.1181 -13.98438,0.96234 -2.88614,-0.7368 -7.53003,-4.81171 -7.53003,-4.81171 0,0 -6.63813,3.19726 -10.21934,3.84937 -4.40966,0.80297 -9.23279,1.52787 -13.44651,0 -3.29367,-1.19426 -8.06793,-6.7364 -8.06793,-6.7364 0,0 -5.68091,4.77225 -9.14361,5.77406 -2.75559,0.79723 -5.98068,1.15657 -8.60579,0 -4.3759,-1.92794 -9.68147,-10.58576 -9.68147,-10.58576 0,0 -12.83407,-0.37446 -18.82513,-2.40585 -3.92823,-1.33194 -8.04729,-3.11493 -10.75721,-6.25521 -3.15919,-3.66091 -5.37859,-13.47277 -5.37859,-13.47277 0,0 -9.85705,-1.72707 -13.98438,-4.33054 -4.24689,-2.67888 -7.27076,-7.00267 -10.21934,-11.06694 -2.15796,-2.97449 -5.37859,-9.6234 -5.37859,-9.6234 0,0 -10.97104,-0.24719 -15.06012,-3.36821 -2.74105,-2.09212 -3.87195,-5.83287 -4.84074,-9.14222 -1.22084,-4.17033 -0.0319,-8.7735 -1.07571,-12.99161 -0.87942,-3.55367 -2.51434,-6.91036 -4.30289,-10.10458 -2.11558,-3.77828 -5.5138,-6.75355 -7.53005,-10.58576 -3.14994,-5.98698 -5.02676,-12.58108 -6.96625,-19.06216 -0.28658,-0.95765 -0.79842,-1.92567 -0.68709,-2.91907 0.32832,-2.92948 1.50601,-6.20063 3.88149,-7.94611 4.29861,-3.15857 10.74684,-0.76091 15.82082,-2.40693 4.04212,-1.31128 7.10844,-5.35049 11.32891,-5.84631 3.3771,-0.39674 7.24912,0.32325 9.90246,2.44975 1.77725,1.42436 2.37949,3.93835 3.04609,6.11621 1.51976,4.96525 0.64028,10.4448 2.04992,15.44243 0.78754,2.79208 2.33562,5.3113 3.53179,7.95424 1.02216,2.25844 1.94293,4.56873 3.11479,6.75325 0.94071,1.75362 2.3096,3.27011 3.13364,5.08149 1.0782,2.37006 2.31803,7.4595 2.31803,7.4595 0,0 5.92237,9.70483 7.98683,14.97053 0.72768,1.85604 1.52131,5.78405 1.52131,5.78405 0,0 6.50338,1.76117 9.12781,3.74262 3.1093,2.34753 5.50474,5.6914 7.22616,9.18645 1.13746,2.30943 1.90162,7.67307 1.90162,7.67307 0,0 8.47122,-0.462 12.55072,0.49268 3.35848,0.78595 6.80022,1.94642 9.50811,4.08288 1.99875,1.57697 4.56391,6.1243 4.56391,6.1243 0,0 7.73878,0.83652 11.40974,2.04143 2.68487,0.88125 7.60649,3.74262 7.60649,3.74262 0,0 9.07643,-1.98324 13.6917,-2.38166 3.03132,-0.26168 6.10358,-0.33405 9.12778,0 3.09892,0.34231 9.1278,2.04142 9.1278,2.04142 0,0 11.38246,-2.43005 17.11461,-2.04142 4.05111,0.27466 11.79007,3.06214 11.79007,3.06214 0,0 19.02702,-3.258 28.14404,-1.02072 1.55843,0.38243 4.18358,2.38168 4.18358,2.38168 0,0 16.17988,-4.12086 24.34079,-3.40238 1.46081,0.12861 4.18358,1.36094 4.18358,1.36094 0,0 10.33405,-9.32728 16.73427,-11.56811 1.55917,-0.54589 4.94422,-0.34024 4.94422,-0.34024 0,0 7.05293,-3.97494 10.26879,-6.41306 1.09356,-0.82909 1.51196,-1.87064 2.53911,-2.43771 2.6675,-1.47267 5.98792,-2.43856 8.87062,-2.20701 2.72447,0.21884 5.87485,0.94744 7.6065,3.06216 3.50828,4.28436 3.0426,16.33146 3.0426,16.33146"
     id="path4455"
     inkscape:connector-curvature="0"
     sodipodi:nodetypes="cscsscscssssssscscsscsscsscsscsscsscsscsscsscsscsssssssssssssssscscsscsscscsscscscscscssssc" />
  <path
     style="fill:none;fill-rule:evenodd;stroke:#000000;stroke-width:1;stroke-linecap:butt;stroke-linejoin:miter;stroke-miterlimit:4;stroke-dasharray:none;stroke-opacity:1"
     d="m 493.695,486.62727 c 0,0 8.98465,3.76485 13.45125,2.72349 4.07303,-0.9496 6.48484,-6.24691 10.64909,-6.63464 4.19957,-0.39102 8.43478,2.03759 11.79007,4.59323 2.19412,1.6712 5.37144,6.65244 5.37144,6.65244"
     id="path4457"
     inkscape:connector-curvature="0"
     sodipodi:nodetypes="csssc" />
  <path
     style="fill:none;fill-rule:evenodd;stroke:#000000;stroke-width:1;stroke-linecap:butt;stroke-linejoin:miter;stroke-miterlimit:4;stroke-dasharray:none;stroke-opacity:1"
     d="m 486.03823,512.65716 c 0,0 5.647,1.25081 8.36716,2.21152 2.09523,0.73999 3.86344,2.68371 6.08518,2.72192 3.76297,0.0647 6.69625,-4.33323 10.45892,-4.25299 3.13576,0.0669 6.28065,1.75539 8.55731,3.91277 1.48702,1.40912 2.85246,5.44382 2.85246,5.44382"
     id="path4459"
     inkscape:connector-curvature="0"
     sodipodi:nodetypes="cssssc" />
  <path
     style="fill:none;fill-rule:evenodd;stroke:#000000;stroke-width:1;stroke-linecap:butt;stroke-linejoin:miter;stroke-miterlimit:4;stroke-dasharray:none;stroke-opacity:1"
     d="m 475.73583,537.98431 c 0,0 7.91253,-0.46451 11.82369,0.0215 3.24236,0.4029 6.97261,0.32102 9.50814,2.38168 4.14455,3.36832 6.98846,14.4176 6.98846,14.4176"
     id="path4461"
     inkscape:connector-curvature="0"
     sodipodi:nodetypes="cssc" />
  <path
     style="fill:none;fill-rule:evenodd;stroke:#000000;stroke-width:1;stroke-linecap:butt;stroke-linejoin:miter;stroke-miterlimit:4;stroke-dasharray:none;stroke-opacity:1"
     d="m 450.72847,564.77549 c 0,0 2.58536,3.08725 3.74279,4.70158 1.13557,1.58385 2.36118,3.21763 2.85246,5.10357 0.71473,2.74376 -0.26694,5.68324 0,8.50597 0.22284,2.35642 1.52604,7.00276 1.52604,7.00276"
     id="path4465"
     inkscape:connector-curvature="0"
     sodipodi:nodetypes="csssc" />
  <path
     style="fill:none;fill-rule:evenodd;stroke:#000000;stroke-width:1;stroke-linecap:butt;stroke-linejoin:miter;stroke-miterlimit:4;stroke-dasharray:none;stroke-opacity:1"
     d="m 429.00391,576.79219 c 0,0 0.0571,5.44181 -0.0144,8.16573 -0.0673,2.56348 -0.70528,5.09163 -0.76067,7.65539 -0.0491,2.27127 0.38033,6.80479 0.38033,6.80479"
     id="path4467"
     inkscape:connector-curvature="0"
     sodipodi:nodetypes="cssc" />
  <path
     style="fill:none;fill-rule:evenodd;stroke:#000000;stroke-width:1;stroke-linecap:butt;stroke-linejoin:miter;stroke-miterlimit:4;stroke-dasharray:none;stroke-opacity:1"
     d="m 400.27498,579.00374 c 0,0 -1.42563,8.81875 -1.71146,13.26933 -0.26168,4.07448 0,12.24861 0,12.24861"
     id="path4469"
     inkscape:connector-curvature="0"
     sodipodi:nodetypes="csc" />
  <path
     style="fill:none;fill-rule:evenodd;stroke:#000000;stroke-width:1;stroke-linecap:butt;stroke-linejoin:miter;stroke-miterlimit:4;stroke-dasharray:none;stroke-opacity:1"
     d="m 368.21534,577.51808 2.32887,26.70874"
     id="path4471"
     inkscape:connector-curvature="0"
     sodipodi:nodetypes="cc" />
  <path
     style="fill:none;fill-rule:evenodd;stroke:#000000;stroke-width:1;stroke-linecap:butt;stroke-linejoin:miter;stroke-miterlimit:4;stroke-dasharray:none;stroke-opacity:1"
     d="m 339.24871,576.48797 0.55465,30.41538"
     id="path4473"
     inkscape:connector-curvature="0"
     sodipodi:nodetypes="cc" />
  <path
     style="fill:none;fill-rule:evenodd;stroke:#000000;stroke-width:1;stroke-linecap:butt;stroke-linejoin:miter;stroke-miterlimit:4;stroke-dasharray:none;stroke-opacity:1"
     d="m 307.09541,576.62208 c 0,0 -0.79881,10.32213 -0.5705,15.48088 0.17942,4.054 1.52131,12.07848 1.52131,12.07848"
     id="path4475"
     inkscape:connector-curvature="0"
     sodipodi:nodetypes="csc" />
  <path
     style="fill:none;fill-rule:evenodd;stroke:#000000;stroke-width:1;stroke-linecap:butt;stroke-linejoin:miter;stroke-miterlimit:4;stroke-dasharray:none;stroke-opacity:1"
     d="m 288.45949,571.00814 c 0,0 -6.85005,1.34313 -8.74747,3.91274 -2.47735,3.35499 -1.78152,8.25633 -1.52129,12.41872 0.25907,4.14385 2.57098,12.22361 2.57098,12.22361"
     id="path4477"
     inkscape:connector-curvature="0"
     sodipodi:nodetypes="cssc" />
  <path
     style="fill:none;fill-rule:evenodd;stroke:#000000;stroke-width:1;stroke-linecap:butt;stroke-linejoin:miter;stroke-miterlimit:4;stroke-dasharray:none;stroke-opacity:1"
     d="m 262.02691,560.29059 c 0,0 -6.46788,0.26778 -9.12778,1.87133 -2.13734,1.28852 -3.62172,3.56003 -4.75406,5.78406 -1.48852,2.92362 -2.47212,9.52669 -2.47212,9.52669"
     id="path4479"
     inkscape:connector-curvature="0"
     sodipodi:nodetypes="cssc" />
  <path
     style="fill:none;fill-rule:evenodd;stroke:#000000;stroke-width:1;stroke-linecap:butt;stroke-linejoin:miter;stroke-miterlimit:4;stroke-dasharray:none;stroke-opacity:1"
     d="m 216.19519,552.16038 c 0,0 1.47294,-5.02094 2.66487,-7.18053 1.18674,-2.15018 2.271,-4.90416 4.56389,-5.78408 4.38321,-1.68211 9.1954,2.66295 13.88186,2.38168 2.17889,-0.13077 6.27535,-1.87131 6.27535,-1.87131"
     id="path4481"
     inkscape:connector-curvature="0"
     sodipodi:nodetypes="csssc" />
  <path
     style="fill:none;fill-rule:evenodd;stroke:#000000;stroke-width:1;stroke-linecap:butt;stroke-linejoin:miter;stroke-miterlimit:4;stroke-dasharray:none;stroke-opacity:1"
     d="m 191.83933,517.99745 c 0,0 4.08924,-3.58326 6.48319,-4.3196 4.71805,-1.45119 9.70723,2.11645 14.6425,2.21157 5.10166,0.0983 10.34068,-3.21682 15.21299,-1.70119 2.22444,0.69196 5.66546,4.70492 5.66546,4.70492"
     id="path4483"
     inkscape:connector-curvature="0"
     sodipodi:nodetypes="csssc" />
  <path
     style="fill:none;fill-rule:evenodd;stroke:#000000;stroke-width:1;stroke-linecap:butt;stroke-linejoin:miter;stroke-miterlimit:4;stroke-dasharray:none;stroke-opacity:1"
     d="m 182.1214,503.39169 c 0,0 3.87076,-6.7165 6.95312,-8.30763 3.42939,-1.77027 7.78815,0.0657 11.55092,-0.79225 3.63888,-0.82974 6.68293,-3.79989 10.39856,-4.15205 3.55738,-0.33716 10.74189,1.44319 10.74189,1.44319"
     id="path4485"
     inkscape:connector-curvature="0"
     sodipodi:nodetypes="csssc" />
  <path
     style="fill:none;fill-rule:evenodd;stroke:#000000;stroke-width:1;stroke-linecap:butt;stroke-linejoin:miter;stroke-miterlimit:4;stroke-dasharray:none;stroke-opacity:1"
     d="m 356.05977,329.58481 -1.61611,-59.01876 v 0"
     id="path4487"
     inkscape:connector-curvature="0"
     sodipodi:nodetypes="ccc" />
  <path
     style="fill:none;fill-rule:evenodd;stroke:#000000;stroke-width:1;stroke-linecap:butt;stroke-linejoin:miter;stroke-miterlimit:4;stroke-dasharray:none;stroke-opacity:1"
     d="m 311.08882,198.10619 c 3.80325,0 88.23535,-0.68047 88.23535,-0.68047"
     id="path4489"
     inkscape:connector-curvature="0" />
  <path
     style="fill:none;fill-rule:evenodd;stroke:#000000;stroke-width:1;stroke-linecap:butt;stroke-linejoin:miter;stroke-miterlimit:4;stroke-dasharray:none;stroke-opacity:1"
     d="m 288.07753,241.65678 c 0,0 21.89471,-17.34327 34.98988,-21.06553 19.02467,-5.4077 40.09958,-5.32997 59.33067,-0.70976 12.80897,3.07732 34.98988,18.37291 34.98988,18.37291"
     id="path4491"
     inkscape:connector-curvature="0"
     sodipodi:nodetypes="cssc" />
  <path
     style="fill:none;fill-rule:evenodd;stroke:#000000;stroke-width:1;stroke-linecap:butt;stroke-linejoin:miter;stroke-miterlimit:4;stroke-dasharray:none;stroke-opacity:1"
     d="m 201.12742,548.55235 c 0,0 7.98741,19.69466 12.59825,29.26056 5.36285,11.12605 9.83292,22.97571 17.49494,32.66295 9.23923,11.68134 21.38561,20.89341 33.46859,29.6008 14.14198,10.19117 29.30227,19.18058 45.25864,26.19839 9.36495,4.11882 19.1325,7.92409 29.28501,9.18645 19.90921,2.47551 40.41957,0.53806 60.09132,-3.4024 13.04811,-2.61367 26.19972,-6.49244 37.65215,-13.26933 13.90715,-8.22946 25.24184,-20.38274 36.13086,-32.32268 8.75143,-9.59605 16.07395,-20.4441 23.19981,-31.302 8.62313,-13.13933 17.65937,-26.27034 23.58014,-40.82866 4.84916,-11.92338 9.50812,-37.42631 9.50812,-37.42631 v 0"
     id="path4493"
     inkscape:connector-curvature="0"
     sodipodi:nodetypes="csssssssssssc" />
  <path
     style="fill:none;fill-rule:evenodd;stroke:#000000;stroke-width:1;stroke-linecap:butt;stroke-linejoin:miter;stroke-miterlimit:4;stroke-dasharray:none;stroke-opacity:1"
     d="m 364.33429,634.29258 0.76064,27.21911"
     id="path4495"
     inkscape:connector-curvature="0" />
  <path
     style="fill:none;fill-rule:evenodd;stroke:#000000;stroke-width:1;stroke-linecap:butt;stroke-linejoin:miter;stroke-miterlimit:4;stroke-dasharray:none;stroke-opacity:1"
     d="m 166.56541,537.6647 c 4.76285,20.24234 12.68518,37.69607 21.13491,56.6971 8.43961,18.97826 23.19093,44.39609 42.08952,66.87559 18.89859,22.47951 41.05999,31.32589 56.19755,37.70059 18.88279,7.95187 39.6653,11.32597 60.09131,12.92909 24.55645,1.92729 49.81637,1.60344 73.78301,-4.08285 20.68562,-4.90784 40.54872,-16.53905 55.26717,-32.44725 17.13182,-18.51664 31.07153,-34.84628 42.106,-57.5312 9.9241,-20.40221 19.25505,-41.01632 24.33077,-63.1291 7.29192,-31.76785 9.30078,-64.53124 12.96637,-96.91846 3.49622,-30.89071 8.62659,-61.77799 8.60574,-92.86592 -0.0116,-17.23744 -1.65699,-34.54439 -4.84073,-51.48526 C 552.2593,281.27983 548.32545,248.8471 537.576,217.97542 525.70356,183.8786 510.16266,148.95673 489.98875,119.0141 478.7448,102.32553 463.73616,87.783778 446.9599,76.671086 430.53862,65.793535 411.58727,58.364654 392.36708,54.056067 c -18.09019,-4.055275 -29.18917,-1.915976 -45.00767,3.849365 0,0 -17.47534,-4.576655 -24.64527,-4.8117 -22.44349,-1.390613 -41.39737,8.246148 -59.16467,20.690331 -12.78076,8.934903 -25.00492,18.810716 -36.03664,29.832577 -9.13927,9.1311 -17.2926,19.27721 -24.74159,29.83258 -6.67178,9.45404 -12.59261,19.47404 -17.74937,29.83258 -6.5612,13.17969 -11.92431,26.96405 -16.67369,40.8995 -5.20725,15.27894 -9.86062,30.82201 -12.90865,46.67354 -2.77281,14.42026 -3.85596,29.13515 -4.84075,43.78652 -1.49556,22.25052 -1.65812,44.58204 -1.6136,66.88272 0.0509,25.51207 0.0529,51.08046 2.15144,76.50613 1.62465,19.68461 4.97467,39.19499 8.06793,58.70281 2.17103,13.6917 4.18578,27.43743 7.36086,40.93168 z"
     id="path4497"
     inkscape:connector-curvature="0"
     sodipodi:nodetypes="sszssssssssssssscssssssssssss" />
  <path
     style="fill:none;fill-rule:evenodd;stroke:#000000;stroke-width:1;stroke-linecap:butt;stroke-linejoin:miter;stroke-miterlimit:4;stroke-dasharray:none;stroke-opacity:1"
     d="m 175.78848,484.57851 c 0,0 -1.25478,-2.52781 -5.08763,-15.36695 -2.8608,-9.58301 -5.37355,-19.28965 -7.26111,-29.11082 -2.38298,-12.39892 -4.93407,-26.03017 -5.57985,-38.63949 -1.25173,-24.44078 -0.11894,-49.03782 2.42039,-73.37853 2.13787,-20.49256 5.27715,-41.00644 10.75721,-60.86807 4.35881,-15.79782 10.32683,-31.20744 17.48045,-45.9518 9.59082,-19.76767 20.71942,-38.94759 33.88522,-56.53754 10.85316,-14.50017 22.75495,-28.55467 36.84342,-39.93716 12.39004,-10.01027 26.30326,-18.51968 41.14633,-24.29912 10.07672,-3.92357 20.96938,-5.705698 31.73378,-6.736389 13.11977,-1.256218 26.42578,-0.661778 39.53273,0.721758 12.53294,1.322945 25.20687,3.084383 37.1124,7.217561 10.57688,3.67192 20.75096,8.87536 29.85126,15.39746 10.32695,7.40122 18.85618,17.08895 27.43087,26.46438 8.96681,9.80417 17.34567,20.18306 25.01051,31.03551 7.00716,9.92126 13.52524,20.24106 19.09405,31.0355 6.94891,13.46959 12.71777,27.56499 17.7494,41.86184 4.37165,12.42159 7.62353,25.22235 10.75723,38.01247 3.56691,14.55826 6.73653,29.2328 9.14361,44.02712 2.20465,13.55014 4.52485,27.17481 4.84075,40.8995 0.31638,13.74513 -1.32445,27.48874 -2.95823,41.14009 -1.67173,13.96848 -4.04083,27.86615 -6.99219,41.62125 -1.36168,6.34626 -4.62018,18.45734 -4.62018,18.45734"
     id="path4499"
     inkscape:connector-curvature="0"
     sodipodi:nodetypes="cssssssssssssssssssssssc" />
  <path
     style="fill:none;fill-rule:evenodd;stroke:#000000;stroke-width:1;stroke-linecap:butt;stroke-linejoin:miter;stroke-miterlimit:4;stroke-dasharray:none;stroke-opacity:1"
     d="M 347.98032,129.37791 346.83937,93.652817"
     id="path4501"
     inkscape:connector-curvature="0" />
  <path
     style="fill:none;fill-rule:evenodd;stroke:#000000;stroke-width:1;stroke-linecap:butt;stroke-linejoin:miter;stroke-miterlimit:4;stroke-dasharray:none;stroke-opacity:1"
     d="m 216.75562,318.45932 c 0,0 1.1906,10.47622 -1.07571,14.91628 -1.75674,3.44172 -5.17512,6.3425 -8.87471,7.45814 -5.44181,1.64102 -11.27214,-1.53481 -16.94261,-1.92467 -6.61992,-0.45514 -14.0068,2.5669 -19.90084,-0.48118 -2.93163,-1.51608 -5.13783,-4.732 -5.91645,-7.93929 -1.55332,-6.39844 1.00554,-13.28928 3.22717,-19.48744 0.90643,-2.52886 4.03396,-6.97696 4.03396,-6.97696 0,0 1.89127,-10.79929 4.30286,-15.63803 2.03171,-4.07652 8.33685,-10.82635 8.33685,-10.82635 0,0 -2.70622,-7.30159 -2.42037,-11.06692 0.41622,-5.48257 3.48931,-10.46383 5.91646,-15.39747 1.82433,-3.70829 6.45432,-10.58575 6.45432,-10.58575 0,0 1.29034,-7.94142 2.95823,-11.5481 2.02015,-4.36841 4.6186,-8.73276 8.33685,-11.78867 1.82082,-1.49647 6.45432,-2.88703 6.45432,-2.88703 0,0 1.41975,-12.42165 4.30288,-17.80331 2.99225,-5.58534 7.3969,-10.82823 12.90865,-13.95395 2.70932,-1.53646 9.14363,-1.92468 9.14363,-1.92468 0,0 1.3951,-9.54538 3.22715,-13.95395 2.07096,-4.98348 4.28192,-10.48407 8.60577,-13.71336 3.5797,-2.67351 8.59034,-4.75504 12.90867,-3.60878 4.68495,1.24357 10.21934,10.34517 10.21934,10.34517 0,0 3.2576,-13.0179 8.0679,-17.08156 4.76503,-4.02543 11.86764,-6.09078 18.01834,-5.05229 2.90747,0.4909 7.26109,5.05229 7.26109,5.05229 0,0 6.58582,-8.69908 11.2951,-11.06692 5.51353,-2.77222 12.24079,-4.12183 18.28724,-2.88703 6.21786,1.2698 16.13582,10.10459 16.13582,10.10459 0,0 5.63097,-7.04709 9.68148,-8.42049 6.1243,-2.07655 13.43128,-1.37271 19.36299,1.20293 5.99676,2.60388 14.2533,13.47278 14.2533,13.47278 0,0 7.96359,-5.73852 12.63973,-6.49581 4.65633,-0.75408 10.02594,-0.40007 13.98436,2.16527 6.09228,3.94824 11.83294,18.28448 11.83294,18.28448 0,0 8.82058,-4.97012 13.71543,-5.77404 4.34601,-0.71378 9.41068,-1.31967 13.1776,0.96234 5.24363,3.17661 7.90994,9.76878 9.68147,15.63804 0.81146,2.68847 0.26895,8.42049 0.26895,8.42049 0,0 12.18026,-2.09013 16.94261,0.96234 5.96084,3.82065 6.6508,12.50135 9.95042,18.76565 1.98249,3.76374 4.33284,7.35932 5.91645,11.30751 0.96322,2.40145 2.15145,7.45815 2.15145,7.45815 0,0 4.84903,4.5178 6.1854,7.45814 0.0472,0.10387 0.0366,0.22525 0.0548,0.33788 1.05935,6.54327 3.17254,19.6307 3.17254,19.6307 0,0 8.21772,9.2313 10.21937,14.91629 1.94994,5.53812 1.34463,17.56271 1.34463,17.56271 0,0 5.47769,10.29714 6.99219,15.87864 1.83926,6.77836 2.42038,20.93093 2.42038,20.93093 0,0 4.13186,8.62208 4.03397,13.23218 -0.0975,4.58982 -0.87094,10.27511 -4.57183,12.99161 -5.71226,4.19288 -14.28037,-0.58114 -21.24547,0.72174 -3.82655,0.71579 -7.13384,3.78012 -11.02615,3.84937 -4.87908,0.0868 -11.27825,-0.26976 -13.98438,-4.33052 -2.09963,-3.15067 1.92978,-7.61891 1.0757,-11.30751 -0.65778,-2.8408 -4.48804,-4.54339 -4.5718,-7.45814 -0.0654,-2.27431 3.22717,-6.01465 3.22717,-6.01465 0,0 -7.78161,-11.12669 -8.0679,-17.56272 -0.16643,-3.74142 3.76502,-10.58573 3.76502,-10.58573 0,0 -5.79079,-2.01562 -7.53006,-4.33055 -1.5869,-2.11213 -0.73747,-5.31792 -1.88249,-7.69873 -1.27274,-2.64636 -4.66781,-4.1278 -5.37862,-6.97698 -1.29943,-5.20861 2.68931,-15.87862 2.68931,-15.87862 0,0 -4.21638,-7.7935 -5.37861,-12.02927 -1.23896,-4.51542 -1.61358,-13.95394 -1.61358,-13.95394 0,0 -2.33372,-8.95841 -4.84075,-12.75102 -1.85098,-2.80014 -5.88843,-3.91387 -7.26111,-6.97698 -0.98455,-2.19701 -0.26895,-7.21756 -0.26895,-7.21756 0,0 -10.36769,-7.52395 -14.2533,-12.51044 -2.65847,-3.41167 -5.91646,-11.54809 -5.91646,-11.54809 0,0 -4.87551,3.82496 -7.79897,4.08995 -6.17201,0.55944 -12.01428,-3.18504 -17.7494,-5.53346 -3.7316,-1.52801 -10.75721,-5.53346 -10.75721,-5.53346 0,0 -2.86073,6.05885 -5.64754,7.45814 -8.9728,4.50534 -20.3463,2.53856 -30.12017,0.24059 -3.62113,-0.85138 -9.95042,-5.0523 -9.95042,-5.0523 0,0 -4.73537,3.57315 -7.53006,4.33054 -10.46949,2.83732 -21.82308,1.91285 -32.54054,0.24059 -2.79646,-0.43634 -8.06793,-2.64644 -8.06793,-2.64644 0,0 -2.67189,3.55407 -4.5718,4.57112 -5.40032,2.89085 -11.91915,4.17473 -18.01834,3.60878 -1.92442,-0.17857 -5.37859,-2.16527 -5.37859,-2.16527 0,0 -4.72138,6.04991 -6.99219,9.14224 -2.67117,3.63753 -7.79898,11.06692 -7.79898,11.06692 0,0 1.75943,2.92786 1.88252,4.57112 0.30843,4.11769 -1.63738,8.11701 -2.95823,12.02928 -1.00698,2.98261 -1.36168,6.62789 -3.76504,8.66106 -2.53873,2.14769 -9.68148,2.40586 -9.68148,2.40586 0,0 2.93208,8.01275 1.34466,11.54808 -1.03097,2.29606 -4.61014,2.36757 -6.18541,4.33055 -1.46674,1.82775 -1.05563,4.8156 -2.6893,6.49581 -1.64299,1.68979 -6.45433,2.88701 -6.45433,2.88701 0,0 5.06995,8.2633 4.57183,12.75103 -0.38766,3.49256 -3.22676,6.35449 -5.64754,8.90165 -1.81617,1.91099 -6.45432,4.57111 -6.45432,4.57111 0,0 4.0331,8.59682 4.5718,13.2322 0.71651,6.16532 0.97222,13.01369 -1.88252,18.52505 -2.02249,3.90462 -9.95061,8.66109 -9.95061,8.66109 z"
     id="path4503"
     inkscape:connector-curvature="0"
     sodipodi:nodetypes="csssssscscsscsscsscssscsscsscsscsscssscssscsscscscssssssscscssscscsscscsscsscsscsscscssscssscsscssc" />
  <path
     style="fill:none;fill-rule:evenodd;stroke:#000000;stroke-width:1;stroke-linecap:butt;stroke-linejoin:miter;stroke-miterlimit:4;stroke-dasharray:none;stroke-opacity:1"
     d="m 489.08081,314.80816 c 0,0 5.68598,3.68973 8.93766,4.08288 5.12449,0.61959 10.09826,-2.19639 15.21298,-2.89206 7.4998,-1.02008 22.62933,-1.8713 22.62933,-1.8713 v 0"
     id="path4505"
     inkscape:connector-curvature="0"
     sodipodi:nodetypes="csscc" />
  <path
     style="fill:none;fill-rule:evenodd;stroke:#000000;stroke-width:1;stroke-linecap:butt;stroke-linejoin:miter;stroke-miterlimit:4;stroke-dasharray:none;stroke-opacity:1"
     d="m 484.32677,286.90856 c 0,0 13.68774,-3.87156 20.72769,-4.59322 4.09909,-0.42019 8.39957,1.3059 12.36055,0.17022 3.62392,-1.03904 9.50814,-6.12431 9.50814,-6.12431"
     id="path4507"
     inkscape:connector-curvature="0"
     sodipodi:nodetypes="cssc" />
  <path
     style="fill:none;fill-rule:evenodd;stroke:#000000;stroke-width:1;stroke-linecap:butt;stroke-linejoin:miter;stroke-miterlimit:4;stroke-dasharray:none;stroke-opacity:1"
     d="m 472.5367,252.03408 c 0,0 10.25727,1.90833 15.40315,1.53107 4.88782,-0.35834 9.63496,-1.95755 14.26217,-3.57251 4.40361,-1.53693 12.74089,-5.78406 12.74089,-5.78406 v 0.34024"
     id="path4509"
     inkscape:connector-curvature="0"
     sodipodi:nodetypes="csscc" />
  <path
     style="fill:none;fill-rule:evenodd;stroke:#000000;stroke-width:1;stroke-linecap:butt;stroke-linejoin:miter;stroke-miterlimit:4;stroke-dasharray:none;stroke-opacity:1"
     d="m 465.69085,226.51614 c 0,0 7.61562,-0.33298 11.40974,-0.68047 5.97883,-0.54759 12.19259,-0.27421 17.87528,-2.21156 4.11241,-1.40201 11.21959,-6.63465 11.21959,-6.63465"
     id="path4511"
     inkscape:connector-curvature="0"
     sodipodi:nodetypes="cssc" />
  <path
     style="fill:none;fill-rule:evenodd;stroke:#000000;stroke-width:1;stroke-linecap:butt;stroke-linejoin:miter;stroke-miterlimit:4;stroke-dasharray:none;stroke-opacity:1"
     d="m 453.28275,199.2545 c 0,0 7.97252,-2.17682 11.07696,-4.72082 3.29635,-2.70127 5.78806,-5.66815 6.19469,-9.91049 0.24712,-2.57828 0.41727,-4.51943 -0.009,-6.00501"
     id="path4513"
     inkscape:connector-curvature="0"
     sodipodi:nodetypes="cssc" />
  <path
     style="fill:none;fill-rule:evenodd;stroke:#000000;stroke-width:1;stroke-linecap:butt;stroke-linejoin:miter;stroke-miterlimit:4;stroke-dasharray:none;stroke-opacity:1"
     d="m 433.93372,158.80859 c 0,0 1.22493,4.73463 1.141,7.14502 -0.10737,3.0834 -2.09179,9.01633 -2.09179,9.01633"
     id="path4515"
     inkscape:connector-curvature="0"
     sodipodi:nodetypes="csc" />
  <path
     style="fill:none;fill-rule:evenodd;stroke:#000000;stroke-width:1;stroke-linecap:butt;stroke-linejoin:miter;stroke-miterlimit:4;stroke-dasharray:none;stroke-opacity:1"
     d="m 395.33078,145.02891 c 0,0 0.89806,6.90584 1.14095,10.37729 0.29303,4.18796 0.38034,12.58884 0.38034,12.58884"
     id="path4517"
     inkscape:connector-curvature="0"
     sodipodi:nodetypes="csc" />
  <path
     style="fill:none;fill-rule:evenodd;stroke:#000000;stroke-width:1;stroke-linecap:butt;stroke-linejoin:miter;stroke-miterlimit:4;stroke-dasharray:none;stroke-opacity:1"
     d="m 351.97374,138.90461 c 0,0 -0.95065,9.06111 -1.14098,13.60956 -0.25131,6.00563 0,18.03266 0,18.03266"
     id="path4519"
     inkscape:connector-curvature="0"
     sodipodi:nodetypes="csc" />
  <path
     style="fill:none;fill-rule:evenodd;stroke:#000000;stroke-width:1;stroke-linecap:butt;stroke-linejoin:miter;stroke-miterlimit:4;stroke-dasharray:none;stroke-opacity:1"
     d="m 306.1446,142.47712 c 0,0 -2.84786,8.73776 -3.42292,13.26932 -0.72103,5.68179 0,17.18207 0,17.18207"
     id="path4521"
     inkscape:connector-curvature="0"
     sodipodi:nodetypes="csc" />
  <path
     style="fill:none;fill-rule:evenodd;stroke:#000000;stroke-width:1;stroke-linecap:butt;stroke-linejoin:miter;stroke-miterlimit:4;stroke-dasharray:none;stroke-opacity:1"
     d="m 272.86617,159.8293 c 0,0 -0.8508,6.01796 -0.57048,9.01634 0.3105,3.32118 2.47213,9.69681 2.47213,9.69681"
     id="path4523"
     inkscape:connector-curvature="0"
     sodipodi:nodetypes="csc" />
  <path
     style="fill:none;fill-rule:evenodd;stroke:#000000;stroke-width:1;stroke-linecap:butt;stroke-linejoin:miter;stroke-miterlimit:4;stroke-dasharray:none;stroke-opacity:1"
     d="m 237.68614,180.58388 c 0,0 2.1196,6.63794 3.99342,9.5267 2.11655,3.26297 4.46408,6.85759 7.9868,8.50597 3.07685,1.43974 6.94661,-0.46559 10.1737,0.59541 0.19755,0.0649 0.52292,0.34024 0.52292,0.34024"
     id="path4525"
     inkscape:connector-curvature="0"
     sodipodi:nodetypes="csssc" />
  <path
     style="fill:none;fill-rule:evenodd;stroke:#000000;stroke-width:1;stroke-linecap:butt;stroke-linejoin:miter;stroke-miterlimit:4;stroke-dasharray:none;stroke-opacity:1"
     d="m 211.44373,214.60779 c 0,0 3.50768,4.5047 5.89502,5.95419 2.77988,1.68783 6.06603,2.92899 9.31797,2.89202 3.20904,-0.0365 5.94059,-3.43772 9.12778,-3.06216 3.93368,0.46352 10.07861,6.29443 10.07861,6.29443"
     id="path4527"
     inkscape:connector-curvature="0"
     sodipodi:nodetypes="csssc" />
  <path
     style="fill:none;fill-rule:evenodd;stroke:#000000;stroke-width:1;stroke-linecap:butt;stroke-linejoin:miter;stroke-miterlimit:4;stroke-dasharray:none;stroke-opacity:1"
     d="m 193.47337,241.06137 c 0,0 1.75979,5.52027 3.89833,7.23008 2.46754,1.97285 5.98802,2.20144 9.12779,2.55178 4.47844,0.49971 9.00358,-0.95314 13.50155,-0.68047 3.98118,0.24134 11.79004,2.04143 11.79004,2.04143 v 0"
     id="path4529"
     inkscape:connector-curvature="0"
     sodipodi:nodetypes="cssssc" />
  <path
     style="fill:none;fill-rule:evenodd;stroke:#000000;stroke-width:1;stroke-linecap:butt;stroke-linejoin:miter;stroke-miterlimit:4;stroke-dasharray:none;stroke-opacity:1"
     d="m 183.87018,277.46694 c 0,0 2.96121,3.82651 5.13436,4.50818 5.29547,1.66108 11.26573,-0.15685 16.54416,-1.87133 2.07873,-0.67519 3.56547,-2.78507 5.70487,-3.23227 4.30416,-0.89971 13.12119,1.36096 13.12119,1.36096"
     id="path4531"
     inkscape:connector-curvature="0"
     sodipodi:nodetypes="csssc" />
  <path
     style="fill:none;fill-rule:evenodd;stroke:#000000;stroke-width:1;stroke-linecap:butt;stroke-linejoin:miter;stroke-miterlimit:4;stroke-dasharray:none;stroke-opacity:1"
     d="m 171.1293,304.43088 c 0,0 0.51382,5.66442 2.28195,7.65538 2.75143,3.09817 7.31218,4.31782 11.40974,4.93347 4.60367,0.69169 9.22825,-1.6583 13.88186,-1.53109 6.2304,0.17031 18.44575,3.06216 18.44575,3.06216"
     id="path4533"
     inkscape:connector-curvature="0"
     sodipodi:nodetypes="csssc" />
  <path
     style="fill:none;fill-rule:evenodd;stroke:#000000;stroke-width:1;stroke-linecap:butt;stroke-linejoin:miter;stroke-miterlimit:4;stroke-dasharray:none;stroke-opacity:1"
     d="m 219.71784,476.19128 c 0,0 5.28628,-22.0677 10.62791,-32.1387 3.39466,-6.40021 7.67284,-12.62543 13.29723,-17.1919 6.96177,-5.65229 15.46016,-9.7598 24.20688,-11.73707 10.89054,-2.4619 22.47817,-1.58501 33.49523,0.22856 10.8328,1.78324 22.27468,5.54542 31.26919,10.34422 8.99451,4.7988 12.88495,17.64416 22.29014,17.32572 9.28197,-0.31427 8.86458,-12.70457 31.0742,-22.05355 6.97584,-2.93643 14.54799,-4.2953 22.00049,-5.61639 8.6746,-1.53772 19.67626,-2.34901 29.2464,-0.31574 9.57014,2.03326 23.28799,6.37146 30.94659,13.30199 7.65859,6.93053 12.33744,14.6371 17.72002,22.51511 4.17994,6.23355 7.09426,12.74314 8.89775,20.00409"
     id="path4218"
     inkscape:connector-curvature="0"
     sodipodi:nodetypes="csssszssszzsc" />
  <path
     style="fill:none;fill-rule:evenodd;stroke:#000000;stroke-width:1;stroke-linecap:butt;stroke-linejoin:miter;stroke-miterlimit:4;stroke-dasharray:none;stroke-opacity:1"
     d="m 354.72961,442.79634 1.33167,60.59157 v 0"
     id="path4220"
     inkscape:connector-curvature="0" />
</svg>
