<?xml version="1.0" encoding="UTF-8" standalone="no"?>
<!-- Created with Inkscape (http://www.inkscape.org/) -->

<svg
   xmlns:dc="http://purl.org/dc/elements/1.1/"
   xmlns:cc="http://creativecommons.org/ns#"
   xmlns:rdf="http://www.w3.org/1999/02/22-rdf-syntax-ns#"
   xmlns:svg="http://www.w3.org/2000/svg"
   xmlns="http://www.w3.org/2000/svg"
   xmlns:sodipodi="http://sodipodi.sourceforge.net/DTD/sodipodi-0.dtd"
   xmlns:inkscape="http://www.inkscape.org/namespaces/inkscape"
   id="svg4136"
   version="1.1"
   inkscape:version="0.91 r13725"
   width="300"
   height="300"
   viewBox="0 0 300 300"
   sodipodi:docname="base of tongue_C01.svg">
  <metadata
     id="metadata4142">
    <rdf:RDF>
      <cc:Work
         rdf:about="">
        <dc:format>image/svg+xml</dc:format>
        <dc:type
           rdf:resource="http://purl.org/dc/dcmitype/StillImage" />
        <dc:title />
      </cc:Work>
    </rdf:RDF>
  </metadata>
  <defs
     id="defs4140">
    <marker
       inkscape:stockid="Arrow1Lstart"
       orient="auto"
       refY="0"
       refX="0"
       id="Arrow1Lstart"
       style="overflow:visible"
       inkscape:isstock="true">
      <path
         id="path4153"
         d="M 0,0 5,-5 -12.5,0 5,5 0,0 Z"
         style="fill:#000000;fill-opacity:1;fill-rule:evenodd;stroke:#000000;stroke-width:1pt;stroke-opacity:1"
         transform="matrix(0.8,0,0,0.8,10,0)"
         inkscape:connector-curvature="0" />
    </marker>
  </defs>
  <sodipodi:namedview
     pagecolor="#ffffff"
     bordercolor="#666666"
     borderopacity="1"
     objecttolerance="10"
     gridtolerance="10"
     guidetolerance="10"
     inkscape:pageopacity="0"
     inkscape:pageshadow="2"
     inkscape:window-width="1366"
     inkscape:window-height="706"
     id="namedview4138"
     showgrid="false"
     inkscape:zoom="1.2695035"
     inkscape:cx="195.57344"
     inkscape:cy="160.72226"
     inkscape:window-x="-8"
     inkscape:window-y="-8"
     inkscape:window-maximized="1"
     inkscape:current-layer="svg4136" />
  <path
     style="fill:none;fill-rule:evenodd;stroke:#000000;stroke-width:0.60000002;stroke-linecap:butt;stroke-linejoin:miter;stroke-miterlimit:4;stroke-dasharray:none;stroke-opacity:1"
     d="m 93.804043,161.77088 -1.267539,-19.08591 4.30387,-20.43138 4.580156,-7.57124 10.77935,-6.63865 17.44452,-1.6694 6.94909,3.82468 4.33223,4.49676 2.37442,7.18446 1.41323,5.85269 1.77599,4.41192 3.28575,1.86739 2.76637,-1.85294 1.08949,-4.53378 0.65303,-5.85221 1.36038,-5.59968 3.72978,-6.09718 8.44696,-3.99096 10.11141,0.74118 10.49561,3.78505 7.97035,7.6461 4.86666,7.83699 3.29519,11.89771 0.81886,13.32717 -0.82802,14.74061"
     id="path4231"
     inkscape:connector-curvature="0"
     sodipodi:nodetypes="ccccccccccccccccccccccccc" />
  <path
     style="fill:none;fill-rule:evenodd;stroke:#000000;stroke-width:0.60000002;stroke-linecap:butt;stroke-linejoin:miter;stroke-miterlimit:4;stroke-dasharray:none;stroke-opacity:1"
     d="m 204.41871,181.98154 0.21289,-5.19575 2.12092,-5.82747 3.57814,-2.78246 4.74565,1.54982 4.61727,-1.81347 5.05634,3.25334 -1.79974,10.43908 -1.79974,6.83939 -2.92457,1.97983 -0.44994,7.37935 -7.19897,4.67958 -2.0247,4.4996 -2.92458,2.15981 -3.82445,0.17999"
     id="path4222"
     inkscape:connector-curvature="0"
     sodipodi:nodetypes="ccccccccccccccc" />
  <path
     style="fill:none;fill-rule:evenodd;stroke:#000000;stroke-width:0.60000002;stroke-linecap:butt;stroke-linejoin:miter;stroke-miterlimit:4;stroke-dasharray:none;stroke-opacity:1"
     d="m 204.78494,177.01652 7.11923,0.92682 4.45413,-2.48172 4.93136,1.71812 2.06799,2.48172"
     id="path4457"
     inkscape:connector-curvature="0"
     sodipodi:nodetypes="ccccc" />
  <path
     style="fill:none;fill-rule:evenodd;stroke:#000000;stroke-width:0.60000002;stroke-linecap:butt;stroke-linejoin:miter;stroke-miterlimit:4;stroke-dasharray:none;stroke-opacity:1"
     d="m 204.45394,187.05505 2.12119,0.43338 2.54521,1.01815 4.37459,-1.59085 3.57921,1.46359 1.19308,2.03628"
     id="path4459"
     inkscape:connector-curvature="0"
     sodipodi:nodetypes="cccccc" />
  <path
     style="fill:none;fill-rule:evenodd;stroke:#000000;stroke-width:0.60000002;stroke-linecap:butt;stroke-linejoin:miter;stroke-miterlimit:4;stroke-dasharray:none;stroke-opacity:1"
     d="m 203.20832,196.33586 4.48034,0.69796 2.92302,5.39297"
     id="path4461"
     inkscape:connector-curvature="0"
     sodipodi:nodetypes="ccc" />
  <path
     style="fill:none;fill-rule:evenodd;stroke:#000000;stroke-width:0.60000002;stroke-linecap:butt;stroke-linejoin:miter;stroke-miterlimit:4;stroke-dasharray:none;stroke-opacity:1"
     d="m 94.310035,197.68012 -1.803967,0.97307 -2.475161,0.34576 -1.983733,0.20429 -2.551521,0.34896 -3.993984,-3.56739 -1.53303,-4.31801 -0.322785,-3.58274 -3.149549,-3.95965 -2.913729,-7.13029 -0.287387,-1.09189 1.623489,-2.97228 6.617276,-0.90032 4.73847,-2.18684 4.14184,0.91634 1.27407,2.28779 1.005106,5.33324"
     id="path4481"
     inkscape:connector-curvature="0"
     sodipodi:nodetypes="ccccccccccccccccc" />
  <path
     style="fill:none;fill-rule:evenodd;stroke:#000000;stroke-width:0.60000002;stroke-linecap:butt;stroke-linejoin:miter;stroke-miterlimit:4;stroke-dasharray:none;stroke-opacity:1"
     d="m 79.668924,188.21704 3.06547,-1.17404 6.12443,0.82725 4.565935,-0.27218"
     id="path4483"
     inkscape:connector-curvature="0"
     sodipodi:nodetypes="cccc" />
  <path
     style="fill:none;fill-rule:evenodd;stroke:#000000;stroke-width:0.60000002;stroke-linecap:butt;stroke-linejoin:miter;stroke-miterlimit:4;stroke-dasharray:none;stroke-opacity:1"
     d="m 76.108386,183.09938 2.757908,-3.01147 4.83133,-0.29635 4.34934,-1.55309 4.40232,0.76086"
     id="path4485"
     inkscape:connector-curvature="0"
     sodipodi:nodetypes="ccccc" />
  <path
     style="fill:none;fill-rule:evenodd;stroke:#000000;stroke-width:0.60000002;stroke-linecap:butt;stroke-linejoin:miter;stroke-miterlimit:4;stroke-dasharray:none;stroke-opacity:1"
     d="m 148.71017,107.22348 -0.67596,-22.076246 0,0"
     id="path4487"
     inkscape:connector-curvature="0"
     sodipodi:nodetypes="ccc" />
  <path
     style="fill:none;fill-rule:evenodd;stroke:#000000;stroke-width:0.60000002;stroke-linecap:butt;stroke-linejoin:miter;stroke-miterlimit:4;stroke-dasharray:none;stroke-opacity:1"
     d="m 129.90045,69.001979 c 1.59076,0 36.90565,-0.254535 36.90565,-0.254535"
     id="path4489"
     inkscape:connector-curvature="0" />
  <path
     style="fill:none;fill-rule:evenodd;stroke:#000000;stroke-width:0.60000002;stroke-linecap:butt;stroke-linejoin:miter;stroke-miterlimit:4;stroke-dasharray:none;stroke-opacity:1"
     d="m 120.27566,85.292275 14.635,-7.879659 24.81587,-0.265489 14.635,6.87247"
     id="path4491"
     inkscape:connector-curvature="0"
     sodipodi:nodetypes="cccc" />
  <path
     style="fill:none;fill-rule:evenodd;stroke:#000000;stroke-width:0.60000002;stroke-linecap:butt;stroke-linejoin:miter;stroke-miterlimit:4;stroke-dasharray:none;stroke-opacity:1"
     d="m 76.424343,183.84145 10.389502,28.96391 9.680629,11.82386 6.881316,6.28719"
     id="path4211"
     inkscape:connector-curvature="0"
     sodipodi:nodetypes="cccc" />
  <path
     style="fill:none;fill-rule:evenodd;stroke:#000000;stroke-width:0.60000002;stroke-linecap:butt;stroke-linejoin:miter;stroke-miterlimit:4;stroke-dasharray:none;stroke-opacity:1"
     d="m 195.69759,231.89085 11.67291,-14.36718 9.86272,-15.27214 3.9769,-13.99949 0,0"
     id="path4493" />
  <path
     style="fill:none;fill-rule:evenodd;stroke:#000000;stroke-width:0.60000002;stroke-linecap:butt;stroke-linejoin:miter;stroke-miterlimit:4;stroke-dasharray:none;stroke-opacity:1"
     d="m 190.02047,252.57358 7.60688,-5.51094 16.70148,-20.92069 11.97173,-23.76316 5.42336,-36.25279 3.59947,-34.73692 -2.0247,-19.25829 -11.24838,-35.276881 -17.3225,-37.436686 -17.99741,-15.838598 -22.8342,-8.459251 -12.48571,-0.539952 -7.87386,1.979825 -8.77373,-1.799839 -13.72303,1.979824 -11.02341,5.759489 -15.072816,11.159012 -10.34851,11.159011 -7.42392,11.159012 -6.973999,15.298645 -5.39922,17.458452 -2.02471,16.378547 -0.67491,25.01779 0.89987,28.61746 3.37452,21.95806 3.07878,15.31068 7.3175,22.39916 10.180869,14.76308 15.271296,12.98133 9.30312,6.04595"
     id="path4497"
     inkscape:connector-curvature="0"
     sodipodi:nodetypes="cccccccccccccccccccccccccccccc" />
  <path
     style="fill:none;fill-rule:evenodd;stroke:#000000;stroke-width:0.60000002;stroke-linecap:butt;stroke-linejoin:miter;stroke-miterlimit:4;stroke-dasharray:none;stroke-opacity:1"
     d="m 76.524425,184.19191 -5.53982,-14.19626 -3.03706,-10.88903 -2.1372,-14.03875 1.01236,-27.44758 4.49935,-22.767978 7.311439,-17.18848 14.17296,-21.148124 15.410266,-14.938677 17.21002,-9.089195 13.27309,-2.519777 16.53511,0.269977 15.52277,2.699761 12.4857,5.759489 11.47334,9.899124 10.46099,11.608971 7.98635,11.608972 7.42393,15.658613 4.49936,14.218734 3.82444,16.46855 2.02471,15.29864 -1.23732,15.38864 -2.92458,15.56862 -2.06448,7.04574"
     id="path4499"
     inkscape:connector-curvature="0"
     sodipodi:nodetypes="cccccccccccccccccccccccc" />
  <path
     style="fill:none;fill-rule:evenodd;stroke:#000000;stroke-width:0.60000002;stroke-linecap:butt;stroke-linejoin:miter;stroke-miterlimit:4;stroke-dasharray:none;stroke-opacity:1"
     d="M 145.33083,43.293854 144.85361,29.930719"
     id="path4501"
     inkscape:connector-curvature="0" />
  <path
     style="fill:none;fill-rule:evenodd;stroke:#000000;stroke-width:0.60000002;stroke-linecap:butt;stroke-linejoin:miter;stroke-miterlimit:4;stroke-dasharray:none;stroke-opacity:1"
     d="m 90.444294,114.02062 -0.44993,5.5795 -3.71197,2.78975 -7.08648,-0.71993 -8.323799,-0.17999 -2.47464,-2.96973 1.34981,-7.28936 1.68726,-2.60977 1.79973,-5.84948 3.487,-4.049641 -1.01235,-4.139629 2.474639,-5.759495 2.69961,-3.959647 1.23732,-4.31962 3.487,-4.409606 2.69961,-1.079908 1.79974,-6.659408 5.39922,-5.219538 3.82445,-0.719936 1.349796,-5.219538 3.59948,-5.129546 5.39923,-1.34988 4.27438,3.869658 3.37451,-6.389434 7.53642,-1.889833 3.03705,1.889833 4.72433,-4.139634 7.64889,-1.079905 6.74903,3.779666 4.04941,-3.149722 8.09884,0.449961 5.96164,5.039554 5.28674,-2.429786 5.84915,0.809929 4.94929,6.839394 5.73667,-2.159808 5.51171,0.359968 4.04941,5.849482 0.11249,3.149721 7.08648,0.359968 4.1619,7.019379 2.47464,4.229624 0.89987,2.789754 2.58713,2.789753 0.0229,0.126384 1.32696,7.342954 4.27439,5.579507 0.56241,6.569409 2.92458,5.939476 1.01236,7.82932 1.68726,4.94955 -1.91223,4.85957 -8.88621,0.26997 -4.61184,1.43988 -5.84916,-1.61985 0.44993,-4.22963 -1.91222,-2.78975 1.34981,-2.24981 -3.37451,-6.56942 1.57477,-3.95964 -3.14955,-1.61986 -0.78738,-2.879744 -2.24968,-2.609771 1.12484,-5.939468 -2.24968,-4.499606 -0.6749,-5.219535 -2.02471,-4.769577 -3.03706,-2.609768 -0.11249,-2.699763 -5.96164,-4.679585 -2.47464,-4.319618 -3.26203,1.529865 -7.42393,-2.069816 -4.49935,-2.069817 -2.36216,2.789752 -12.59818,0.08999 -4.1619,-1.889833 -3.14955,1.619856 -13.61053,0.08999 -3.37452,-0.989913 -1.91222,1.709848 -7.53642,1.349881 -2.24967,-0.809928 -2.92458,3.419696 -3.26203,4.139634 0.78739,1.709849 -1.23732,4.499603 -1.57478,3.239712 -4.04941,0.899922 0.56242,4.319613 -2.58713,1.619859 -1.124836,2.429788 -2.69961,1.079902 1.91223,4.769578 -2.36216,3.329702 -2.69961,1.709843 1.91222,4.949569 -0.78739,6.92938 z"
     id="path4503"
     inkscape:connector-curvature="0"
     sodipodi:nodetypes="ccccccccccccccccccccccccccccccccccccccccccccccccccccccccccccccccccccccccccccccccccccccccccccccccccc" />
  <path
     style="fill:none;fill-rule:evenodd;stroke:#000000;stroke-width:0.60000002;stroke-linecap:butt;stroke-linejoin:miter;stroke-miterlimit:4;stroke-dasharray:none;stroke-opacity:1"
     d="m 204.34805,112.65488 3.7383,1.52722 6.36304,-1.08178 9.46503,-0.69997 0,0"
     id="path4505"
     inkscape:connector-curvature="0" />
  <path
     style="fill:none;fill-rule:evenodd;stroke:#000000;stroke-width:0.60000002;stroke-linecap:butt;stroke-linejoin:miter;stroke-miterlimit:4;stroke-dasharray:none;stroke-opacity:1"
     d="m 202.35961,102.21891 8.66964,-1.71812 5.16997,0.0637 3.97691,-2.290827"
     id="path4507"
     inkscape:connector-curvature="0" />
  <path
     style="fill:none;fill-rule:evenodd;stroke:#000000;stroke-width:0.60000002;stroke-linecap:butt;stroke-linejoin:miter;stroke-miterlimit:4;stroke-dasharray:none;stroke-opacity:1"
     d="m 197.42825,89.17395 6.44258,0.572704 5.96535,-1.336315 5.32905,-2.163551 0,0.127269"
     id="path4509"
     inkscape:connector-curvature="0" />
  <path
     style="fill:none;fill-rule:evenodd;stroke:#000000;stroke-width:0.60000002;stroke-linecap:butt;stroke-linejoin:miter;stroke-miterlimit:4;stroke-dasharray:none;stroke-opacity:1"
     d="m 194.56488,79.62885 4.77228,-0.254533 7.47658,-0.827243 4.69275,-2.481722"
     id="path4511"
     inkscape:connector-curvature="0" />
  <path
     style="fill:none;fill-rule:evenodd;stroke:#000000;stroke-width:0.60000002;stroke-linecap:butt;stroke-linejoin:miter;stroke-miterlimit:4;stroke-dasharray:none;stroke-opacity:1"
     d="m 189.37502,69.431508 4.63309,-1.765843 3.02244,-3.945305 -0.39769,-2.22719 0.0398,0.31817"
     id="path4513"
     inkscape:connector-curvature="0"
     sodipodi:nodetypes="ccccc" />
  <path
     style="fill:none;fill-rule:evenodd;stroke:#000000;stroke-width:0.60000002;stroke-linecap:butt;stroke-linejoin:miter;stroke-miterlimit:4;stroke-dasharray:none;stroke-opacity:1"
     d="m 181.28202,54.302531 0.47724,2.672627 -0.87492,3.372601"
     id="path4515"
     inkscape:connector-curvature="0" />
  <path
     style="fill:none;fill-rule:evenodd;stroke:#000000;stroke-width:0.60000002;stroke-linecap:butt;stroke-linejoin:miter;stroke-miterlimit:4;stroke-dasharray:none;stroke-opacity:1"
     d="m 165.13581,49.148178 0.47722,3.881674 0.15908,4.708914"
     id="path4517"
     inkscape:connector-curvature="0" />
  <path
     style="fill:none;fill-rule:evenodd;stroke:#000000;stroke-width:0.60000002;stroke-linecap:butt;stroke-linejoin:miter;stroke-miterlimit:4;stroke-dasharray:none;stroke-opacity:1"
     d="m 147.00113,46.857356 -0.47723,5.090718 0,6.745201"
     id="path4519"
     inkscape:connector-curvature="0" />
  <path
     style="fill:none;fill-rule:evenodd;stroke:#000000;stroke-width:0.60000002;stroke-linecap:butt;stroke-linejoin:miter;stroke-miterlimit:4;stroke-dasharray:none;stroke-opacity:1"
     d="m 127.83246,48.193669 -1.43168,4.963451 0,6.427031"
     id="path4521"
     inkscape:connector-curvature="0" />
  <path
     style="fill:none;fill-rule:evenodd;stroke:#000000;stroke-width:0.60000002;stroke-linecap:butt;stroke-linejoin:miter;stroke-miterlimit:4;stroke-dasharray:none;stroke-opacity:1"
     d="m 113.9133,54.684334 -0.23861,3.372601 1.034,3.627137"
     id="path4523"
     inkscape:connector-curvature="0" />
  <path
     style="fill:none;fill-rule:evenodd;stroke:#000000;stroke-width:0.60000002;stroke-linecap:butt;stroke-linejoin:miter;stroke-miterlimit:4;stroke-dasharray:none;stroke-opacity:1"
     d="m 99.198774,62.44768 1.670296,3.563502 3.34059,3.181699 4.25529,0.222716 0.21872,0.127269"
     id="path4525"
     inkscape:connector-curvature="0"
     sodipodi:nodetypes="ccccc" />
  <path
     style="fill:none;fill-rule:evenodd;stroke:#000000;stroke-width:0.60000002;stroke-linecap:butt;stroke-linejoin:miter;stroke-miterlimit:4;stroke-dasharray:none;stroke-opacity:1"
     d="m 88.222524,75.174476 2.46567,2.227191 3.89737,1.081775 3.81782,-1.145414 4.215516,2.35446"
     id="path4527"
     inkscape:connector-curvature="0" />
  <path
     style="fill:none;fill-rule:evenodd;stroke:#000000;stroke-width:0.60000002;stroke-linecap:butt;stroke-linejoin:miter;stroke-miterlimit:4;stroke-dasharray:none;stroke-opacity:1"
     d="m 80.706174,85.069558 1.63053,2.704445 3.81782,0.954507 5.64721,-0.254533 4.93135,0.763605 0,0"
     id="path4529"
     inkscape:connector-curvature="0"
     sodipodi:nodetypes="cccccc" />
  <path
     style="fill:none;fill-rule:evenodd;stroke:#000000;stroke-width:0.60000002;stroke-linecap:butt;stroke-linejoin:miter;stroke-miterlimit:4;stroke-dasharray:none;stroke-opacity:1"
     d="m 76.689505,98.687225 2.147519,1.686305 6.91982,-0.699978 2.38614,-1.209044 5.48812,0.509073"
     id="path4531"
     inkscape:connector-curvature="0"
     sodipodi:nodetypes="ccccc" />
  <path
     style="fill:none;fill-rule:evenodd;stroke:#000000;stroke-width:0.60000002;stroke-linecap:butt;stroke-linejoin:miter;stroke-miterlimit:4;stroke-dasharray:none;stroke-opacity:1"
     d="m 71.360455,108.77321 0.95446,2.86354 4.77228,1.84538 5.806279,-0.57271 7.71519,1.14541"
     id="path4533"
     inkscape:connector-curvature="0" />
  <path
     style="fill:none;fill-rule:evenodd;stroke:#000000;stroke-width:0.60000002;stroke-linecap:butt;stroke-linejoin:miter;stroke-miterlimit:4;stroke-dasharray:none;stroke-opacity:1"
     d="m 92.464736,176.59165 3.565658,-13.33228 5.630506,-6.07061 15.69147,-5.82884 12.07844,0.0918 11.27573,4.15534 8.03786,1.44588 9.06106,-0.19474 6.87062,-3.54419 6.75185,-2.25614 10.26973,-0.28218 8.28868,2.46938 5.76907,4.70571 4.90739,5.35512 3.67094,5.19191 0.25306,9.60507 -0.3954,9.71768 -1.21543,10.32062 -2.08502,16.73257 -4.77466,14.69696 -2.1386,12.54032 -4.94445,13.04507 -2.54668,6.13306 -3.39559,7.1905 -10.01695,13.74654 -12.73342,5.49861 -12.22409,0.2115 -15.78944,-6.97902 -8.8285,-8.6709 -10.18674,-16.07287 -7.64005,-16.70733 -5.772482,-22.41743 -5.461235,-18.76562 z"
     id="path4218"
     inkscape:connector-curvature="0"
     sodipodi:nodetypes="cccccccccccccccccccccccccccccccccc" />
  <path
     id="C09.1"
     style="fill:none;fill-rule:evenodd;stroke:#000000;stroke-width:0.60000002;stroke-linecap:butt;stroke-linejoin:miter;stroke-miterlimit:4;stroke-dasharray:none;stroke-dashoffset:0;stroke-opacity:1"
     d="m 155.96018,115.7714 6.39699,-3.1862 10.02591,-2.36609 8.91191,2.73967 10.02591,5.85294 5.01295,6.72465 4.45596,12.70212 1.11399,12.7021 0.58313,8.28318 -0.0354,1.76474 0.0719,1.32125 -0.72405,2.4911 2.59087,3.55429 0.36501,-5.77597 0.64001,-11.35928 -0.88617,-13.42859 -3.2493,-11.75553 -4.97242,-7.92507 -7.68017,-7.35271 -10.73254,-4.00657 -10.0433,-0.66042 -8.61557,4.0506 z m -15.50523,-1.46849 -8.11976,-1.73976 -9.25558,-0.52833 -10.0433,1.4089 -7.87709,7.22062 -3.93855,10.39066 -3.347766,11.62344 -1.18156,11.79955 -0.27823,2.34801 1.355346,4.4599 -1.813129,2.03248 -0.628055,2.47032 -1.480452,-4.07622 -1.25324,-18.9909 4.24708,-20.423 4.664836,-7.72089 10.5829,-6.47559 17.61495,-1.68117 7.10169,3.86045 z"
     inkscape:label="#path4203"
     inkscape:connector-curvature="0"
     sodipodi:nodetypes="ccccccccccccccccccccccccccccccccccccccccccc" />
  <path
     id="C09.0"
     style="fill:none;fill-rule:evenodd;stroke:#000000;stroke-width:0.60000002;stroke-linecap:butt;stroke-linejoin:miter;stroke-miterlimit:4;stroke-dasharray:none;stroke-opacity:1"
     d="m 200.47207,137.57117 -6.10475,1.58501 -2.95391,5.63561 0.39385,6.16394 0.98377,4.43029 2.60083,2.17907 0.85157,0.75536 3.94972,4.43567 1.64103,1.94228 0.74948,-2.07049 -0.12284,-3.71736 -0.69624,-9.90017 -0.97474,-10.70963 z m -100.35906,-2.44595 4.5952,2.49061 2.36723,4.73216 1.25324,5.60387 -1.10307,7.11555 -5.47045,2.08083 -3.982588,4.03426 -1.349628,-4.38897 1.46211,-14.13421 z"
     inkscape:label="#path4208"
     inkscape:connector-curvature="0"
     sodipodi:nodetypes="cccccccccccccccccccccccc" />
  <path
     style="fill:none;fill-rule:evenodd;stroke:#000000;stroke-width:0.60000002;stroke-linecap:butt;stroke-linejoin:miter;stroke-miterlimit:4;stroke-dasharray:none;stroke-opacity:1"
     d="m 194.59324,139.29699 1.04437,2.49061 3.27234,0.43587 2.22798,-0.99625"
     id="path4221"
     inkscape:connector-curvature="0" />
  <path
     style="fill:none;fill-rule:evenodd;stroke:#000000;stroke-width:0.60000002;stroke-linecap:butt;stroke-linejoin:miter;stroke-miterlimit:4;stroke-dasharray:none;stroke-opacity:1"
     d="m 198.7707,144.8386 -3.69009,0.74719 -3.62046,-0.74717"
     id="path4224"
     inkscape:connector-curvature="0"
     sodipodi:nodetypes="ccc" />
  <path
     style="fill:none;fill-rule:evenodd;stroke:#000000;stroke-width:0.60000002;stroke-linecap:butt;stroke-linejoin:miter;stroke-miterlimit:4;stroke-dasharray:none;stroke-opacity:1"
     d="m 196.56661,145.24868 2.48259,-0.41009 2.38762,0.6409"
     id="path4226"
     inkscape:connector-curvature="0"
     sodipodi:nodetypes="ccc" />
  <path
     style="fill:none;fill-rule:evenodd;stroke:#000000;stroke-width:0.60000002;stroke-linecap:butt;stroke-linejoin:miter;stroke-miterlimit:4;stroke-dasharray:none;stroke-opacity:1"
     d="m 191.56211,148.24725 3.08338,2.01632 2.88887,0.16289 0.76301,-3.80626 -0.43179,-1.53256"
     id="path4228"
     inkscape:connector-curvature="0"
     sodipodi:nodetypes="ccccc" />
  <path
     style="fill:none;fill-rule:evenodd;stroke:#000000;stroke-width:0.60000002;stroke-linecap:butt;stroke-linejoin:miter;stroke-miterlimit:4;stroke-dasharray:none;stroke-opacity:1"
     d="m 197.55475,150.22721 0.17159,1.33604 1.94948,0.31133 2.22798,-0.1868"
     id="path4232"
     inkscape:connector-curvature="0"
     sodipodi:nodetypes="cccc" />
  <path
     style="fill:none;fill-rule:evenodd;stroke:#000000;stroke-width:0.60000002;stroke-linecap:butt;stroke-linejoin:miter;stroke-miterlimit:4;stroke-dasharray:none;stroke-opacity:1"
     d="m 197.71788,151.4752 0.2173,3.38811 -0.31331,5.08143"
     id="path4234"
     inkscape:connector-curvature="0"
     sodipodi:nodetypes="ccc" />
  <path
     style="fill:none;fill-rule:evenodd;stroke:#000000;stroke-width:0.60000002;stroke-linecap:butt;stroke-linejoin:miter;stroke-miterlimit:4;stroke-dasharray:none;stroke-opacity:1"
     d="m 104.46997,137.70326 -0.78771,3.08197 -2.01851,1.1007 -3.347756,-0.52834"
     id="path4236"
     inkscape:connector-curvature="0" />
  <path
     style="fill:none;fill-rule:evenodd;stroke:#000000;stroke-width:0.60000002;stroke-linecap:butt;stroke-linejoin:miter;stroke-miterlimit:4;stroke-dasharray:none;stroke-opacity:1"
     d="m 101.86068,141.92995 0.88618,3.47824 3.05237,1.89321 2.3139,-0.52834"
     id="path4238"
     inkscape:connector-curvature="0" />
  <path
     style="fill:none;fill-rule:evenodd;stroke:#000000;stroke-width:0.60000002;stroke-linecap:butt;stroke-linejoin:miter;stroke-miterlimit:4;stroke-dasharray:none;stroke-opacity:1"
     d="m 102.79011,145.34058 -0.58481,3.13116 -2.04137,1.20718 -2.980266,-1.05668"
     id="path4240"
     inkscape:connector-curvature="0"
     sodipodi:nodetypes="cccc" />
  <path
     style="fill:none;fill-rule:evenodd;stroke:#000000;stroke-width:0.60000002;stroke-linecap:butt;stroke-linejoin:miter;stroke-miterlimit:4;stroke-dasharray:none;stroke-opacity:1"
     d="m 100.13757,149.76697 -0.492316,2.72976 1.673876,5.10088"
     id="path4242"
     inkscape:connector-curvature="0"
     sodipodi:nodetypes="ccc" />
  <path
     style="fill:none;fill-rule:evenodd;stroke:#000000;stroke-width:0.60000002;stroke-linecap:butt;stroke-linejoin:miter;stroke-miterlimit:4;stroke-dasharray:none;stroke-opacity:1"
     d="m 99.842183,152.3537 2.806217,-0.44309 2.90468,-0.44308 2.41236,0.29538"
     id="path4205"
     inkscape:connector-curvature="0"
     sodipodi:nodetypes="cccc" />
  <path
     style="fill:none;fill-rule:evenodd;stroke:#000000;stroke-width:0.60000002;stroke-linecap:butt;stroke-linejoin:miter;stroke-miterlimit:4;stroke-dasharray:none;stroke-opacity:1"
     d="m 84.715083,199.02491 1.561425,5.98359 2.146408,3.78361 3.972086,2.06218 4.786586,-2.35733"
     id="path4193"
     inkscape:connector-curvature="0"
     sodipodi:nodetypes="ccccc" />
  <path
     style="fill:none;fill-rule:evenodd;stroke:#000000;stroke-width:0.60000002;stroke-linecap:butt;stroke-linejoin:miter;stroke-miterlimit:4;stroke-dasharray:none;stroke-opacity:1"
     d="m 93.529586,187.93638 9.266504,-10.22829 8.66481,-6.69553 12.40642,-2.56006 10.70166,-0.35426 16.20982,1.8795 15.02826,-2.6812 13.63577,1.12217 10.63987,5.14811 6.74622,5.02745 7.48324,4.13197 0.24533,-2.41752 -0.006,-3.4723 -0.1781,-8.3772 -2.53284,-3.73932 -4.45596,-5.1522 -4.52558,-4.10784 -2.71535,-2.15835 -8.42454,-2.5761 -10.37403,0.27849 -6.40544,2.15836 -7.03206,3.69009 -9.12079,0.13925 -8.07642,-1.46211 -11.41839,-4.10784 -11.97539,-0.0696 -15.59585,5.84844 -3.898967,4.03821 -1.879858,2.22798 -1.531735,6.19657 -1.990267,6.90475 z"
     id="C01"
     inkscape:connector-curvature="0"
     sodipodi:nodetypes="cccccccccccccccccccccccccccccccc"
     inkscape:label="#path4187" />
  <path
     style="fill:none;fill-rule:evenodd;stroke:#000000;stroke-width:0.6;stroke-linecap:butt;stroke-linejoin:miter;stroke-opacity:1;stroke-miterlimit:4;stroke-dasharray:none"
     d="m 150.66708,169.80248 -0.557,19.35557 0.13925,20.74805 0.69625,43.72409"
     id="path4195"
     inkscape:connector-curvature="0" />
</svg>
