<?xml version="1.0" encoding="UTF-8" standalone="no"?>
<!-- Created with Inkscape (http://www.inkscape.org/) -->

<svg
   xmlns:dc="http://purl.org/dc/elements/1.1/"
   xmlns:cc="http://creativecommons.org/ns#"
   xmlns:rdf="http://www.w3.org/1999/02/22-rdf-syntax-ns#"
   xmlns:svg="http://www.w3.org/2000/svg"
   xmlns="http://www.w3.org/2000/svg"
   xmlns:sodipodi="http://sodipodi.sourceforge.net/DTD/sodipodi-0.dtd"
   xmlns:inkscape="http://www.inkscape.org/namespaces/inkscape"
   width="300mm"
   height="300mm"
   viewBox="0 0 1062.9921 1062.9921"
   id="svg2"
   version="1.1"
   inkscape:version="0.91 r13725"
   sodipodi:docname="Level_3_C68.svg">
  <defs
     id="defs4" />
  <sodipodi:namedview
     id="base"
     pagecolor="#ffffff"
     bordercolor="#666666"
     borderopacity="1.0"
     inkscape:pageopacity="0.0"
     inkscape:pageshadow="2"
     inkscape:zoom="0.35"
     inkscape:cx="828.71001"
     inkscape:cy="421.72259"
     inkscape:document-units="px"
     inkscape:current-layer="layer1"
     showgrid="false"
     inkscape:window-width="1366"
     inkscape:window-height="705"
     inkscape:window-x="-8"
     inkscape:window-y="-8"
     inkscape:window-maximized="1" />
  <metadata
     id="metadata7">
    <rdf:RDF>
      <cc:Work
         rdf:about="">
        <dc:format>image/svg+xml</dc:format>
        <dc:type
           rdf:resource="http://purl.org/dc/dcmitype/StillImage" />
        <dc:title></dc:title>
      </cc:Work>
    </rdf:RDF>
  </metadata>
  <g
     inkscape:label="Laag 1"
     inkscape:groupmode="layer"
     id="layer1"
     transform="translate(0,10.629921)">
    <path
       style="fill:none;fill-rule:evenodd;stroke:#000000;stroke-width:1.25;stroke-linecap:butt;stroke-linejoin:miter;stroke-opacity:1;stroke-miterlimit:4;stroke-dasharray:none"
       d="m 569.11058,981.12598 4.92286,-195.4434 11.07643,-67.07524 20.92214,-37.00704 23.38358,-13.87764 59.07431,-31.22468 41.84431,-32.38116 52.92073,-57.82348 40.61358,-55.51056 29.53716,-56.66701 20.30679,-50.30645 17.63421,-53.18057 M 854.2322,214.47968 822.63781,179.11418 786.94709,150.78067 751.25635,128.2295 686.64383,99.895997 635.56917,86.018368 l -35.07536,-6.360593 -46.15182,-2.891173 -47.38251,0.578226 -44.30573,5.782367 -47.99788,9.251756 -49.84394,18.503509 -44.9211,21.39469 -39.99821,27.75527 -28.92181,24.86411 -20.30678,26.59879 m -34.0249,117.93087 4.48773,26.62785 20.3068,56.66703 26.46037,53.77585 28.9218,45.10233 30.1525,39.8982 28.92181,33.53763 35.69072,31.80291 38.76751,29.48999 28.9218,15.0341 27.69108,10.40823 11.69178,7.51705 11.07645,13.29941 7.99965,13.87762 7.38427,28.91177 5.53823,32.38115 1.23071,58.40172 1.84607,95.40876 1.84608,63.0276 0,0"
       id="path4147"
       inkscape:connector-curvature="0"
       sodipodi:nodetypes="cccccccccccccccccccccccccccccccccccccccccccccccc" />
    <path
       style="fill:none;fill-rule:evenodd;stroke:#000000;stroke-width:1.25;stroke-linecap:butt;stroke-linejoin:miter;stroke-opacity:1;stroke-miterlimit:4;stroke-dasharray:none"
       d="m 529.11235,982.28246 -0.61536,-97.7217 -2.46142,-79.21818 2.46142,-63.02761 -1.23071,-42.21116 -1.84608,-17.92527 4.3075,-2.31294 7.3843,-1.15647 9.23035,0 5.53822,2.31294 4.3075,1.7347 -3.07679,21.97294 -0.61534,35.27232 0.61534,30.06821 2.46143,56.66702 -1.84606,56.66702 -0.61537,61.2929 1.23071,39.31997 -8.61499,-1.73469 -7.38429,-0.57824 -4.3075,1.15647 z"
       id="C68.0"
       inkscape:connector-curvature="0"
       inkscape:label="#path4149" />
    <path
       style="fill:none;fill-rule:evenodd;stroke:#000000;stroke-width:1.25;stroke-linecap:butt;stroke-linejoin:miter;stroke-opacity:1;stroke-miterlimit:4;stroke-dasharray:none"
       d="m 556.18807,682.75677 4.92285,-28.33351 11.6918,-32.95939 16.61465,-26.02057 16.61464,-26.5988 16.61465,-23.12939 2.46145,-8.67352 -4.30751,-8.0953 -12.92251,-6.93883 -27.07573,-4.62587 -38.15214,-1.73471 -36.92145,1.15647 -26.46037,2.89118 -11.69179,3.46942 -11.07643,10.40822 -2.46144,12.72117 4.30751,9.82998 12.30714,13.87764 20.92215,28.33352 13.53786,23.12939 11.07645,23.1294 6.15357,20.81646 2.46142,16.19057"
       id="path4151"
       inkscape:connector-curvature="0" />
    <path
       style="fill:none;fill-rule:evenodd;stroke:#000000;stroke-width:1.25;stroke-linecap:butt;stroke-linejoin:miter;stroke-opacity:1;stroke-miterlimit:4;stroke-dasharray:none"
       d="m 621.10827,516.22512 3.07679,-4.33676 5.23053,-4.04765 4.3075,-0.86735 3.07679,1.73471 1.23072,2.89118 0.30769,3.18028 -3.38447,2.31294 -3.99983,2.31294 -3.69215,2.89118 -3.99981,1.7347 -3.99983,-2.02383 0,-3.46941 z"
       id="path4153"
       inkscape:connector-curvature="0" />
    <path
       style="fill:none;fill-rule:evenodd;stroke:#000000;stroke-width:1.25;stroke-linecap:butt;stroke-linejoin:miter;stroke-opacity:1;stroke-miterlimit:4;stroke-dasharray:none"
       d="m 440.80856,516.22512 4.30751,2.89117 5.53821,2.60206 3.99983,2.89118 2.46142,-0.57824 0.92305,-2.60205 -0.30769,-4.62589 -5.23053,-5.2041 -4.3075,-3.1803 -3.99983,-0.28913 -3.07679,2.60208 -0.92302,2.31293 z"
       id="path4155"
       inkscape:connector-curvature="0" />
    <path
       style="fill:none;fill-rule:evenodd;stroke:#000000;stroke-width:1.25;stroke-linecap:butt;stroke-linejoin:miter;stroke-opacity:1;stroke-miterlimit:4;stroke-dasharray:none"
       d="m 823.40282,179.27989 15.88201,-8.7908 24.36691,-18.8082 21.75616,-19.62594 23.49667,-31.89216 15.66445,-30.256657 6.09172,-15.537206"
       id="path4157"
       inkscape:connector-curvature="0"
       sodipodi:nodetypes="ccccccc" />
    <path
       style="fill:none;fill-rule:evenodd;stroke:#000000;stroke-width:1.25;stroke-linecap:butt;stroke-linejoin:miter;stroke-opacity:1;stroke-miterlimit:4;stroke-dasharray:none"
       d="m 849.94535,209.53655 10.66052,-6.74643 30.45865,-23.71468 20.88591,-22.48807 18.27518,-22.48805 19.14543,-29.43892 11.74833,-24.532426 10.00784,-29.847786"
       id="path4159"
       inkscape:connector-curvature="0"
       sodipodi:nodetypes="cccccccc" />
    <path
       style="fill:none;fill-rule:evenodd;stroke:#000000;stroke-width:1.25;stroke-linecap:butt;stroke-linejoin:miter;stroke-opacity:1;stroke-miterlimit:4;stroke-dasharray:none"
       d="M 250.12779,183.98191 230.11211,170.08022 204.43984,145.54779 182.68366,119.78874 165.27873,89.123195 153.96551,61.319782 147.43867,34.742982"
       id="path4161"
       inkscape:connector-curvature="0" />
    <path
       style="fill:none;fill-rule:evenodd;stroke:#000000;stroke-width:1.25;stroke-linecap:butt;stroke-linejoin:miter;stroke-opacity:1;stroke-miterlimit:4;stroke-dasharray:none"
       d="m 228.37161,214.64746 -13.48882,-8.99523 -26.1074,-20.85256 -20.4508,-21.67031 -19.58055,-25.75905 -17.84006,-28.2123 -13.05369,-32.709898 -10.00784,-33.118778 -2.61075,-15.94608"
       id="path4163"
       inkscape:connector-curvature="0" />
    <path
       style="fill:none;fill-rule:evenodd;stroke:#000000;stroke-width:1.25;stroke-linecap:butt;stroke-linejoin:miter;stroke-opacity:1;stroke-miterlimit:4;stroke-dasharray:none"
       d="m 230.98236,210.96759 -15.66444,19.21708 -25.23716,37.61638 -25.23715,30.25666 -24.36691,26.16793 -23.49666,20.4437 -1.7405,9.81296 27.84789,-1.6355 29.5884,-9.81297 50.47431,-26.98567 38.29085,-30.25666 26.97766,-22.89693 41.77183,-17.99045 61.78753,-17.1727 64.39825,-10.63072 53.08506,-3.27099 62.65776,-1.6355 66.13876,6.54198 70.48998,13.08398 42.64208,13.08395 43.51234,17.99045 23.49666,17.17269 25.23715,22.89694 25.23716,17.1727 36.83786,18.5701 25.22963,10.98646 27.6911,4.62588 13.53785,0 -0.61536,-8.67351 -22.15286,-21.3947 -24.61429,-25.44233 -21.53917,-22.42139 -17.40495,-22.48807 -13.92394,-20.03481 -10.87808,-13.49283 -9.57272,-8.58635"
       id="path4165"
       inkscape:connector-curvature="0"
       sodipodi:nodetypes="cccccccccccccccccccccccccccccccccccc" />
    <path
       style="fill:none;fill-rule:evenodd;stroke:#000000;stroke-width:1.25;stroke-linecap:butt;stroke-linejoin:miter;stroke-opacity:1;stroke-miterlimit:4;stroke-dasharray:none"
       d="m 117.85029,345.48708 19.14541,-0.81774 33.06938,-10.63073 33.93962,-18.80819 37.42062,-22.89694 27.84789,-25.35018 24.36691,-14.71945 43.51234,-18.8082 52.2148,-12.26622 66.13875,-12.2662 49.60407,-4.08874 79.19246,0.81774 59.17677,5.72423 54.82555,9.81297 49.60407,13.90172 42.64209,17.1727 19.14541,9.81298 20.88593,17.99043 34.80988,27.80344 33.06936,19.62594 36.55036,13.08396 19.14544,4.08874 17.40493,1.2266"
       id="path4167"
       inkscape:connector-curvature="0" />
    <path
       style="fill:none;fill-rule:evenodd;stroke:#000000;stroke-width:1.25;stroke-linecap:butt;stroke-linejoin:miter;stroke-opacity:1;stroke-miterlimit:4;stroke-dasharray:none"
       d="m 552.1034,703.66054 9.57271,-37.61638 21.75619,-26.16793 27.84788,-22.89693 51.34456,-48.24711 39.1611,-47.42936 32.19913,-53.1536 25.23716,-57.24234 20.01567,-51.5181 5.22149,-33.11878 -2.17562,-14.71946 -3.48099,-7.7686 -9.57271,-8.99522 -53.9553,-23.30582 -34.80987,-9.40408 -40.9016,-8.99522 -26.97764,-4.08875 -29.15328,-2.86211 -32.63424,-0.40889 -33.06938,0 -33.93962,1.22663 -32.19914,3.67987 -28.28302,5.72423 -36.98548,8.17748 -30.02351,10.22184 -24.36691,9.81297 -12.18346,8.17747 -9.13759,8.58635 -5.6566,8.17748 -3.04586,12.26622 2.61073,20.85256 8.70247,31.48328 16.09957,42.52289 26.1074,56.42458 17.40494,30.66554 26.97765,35.9809 22.62641,27.80341 31.76401,33.11879 29.15327,25.75904 16.96981,16.35496 12.18345,13.08396 5.6566,10.22185 5.22148,11.03959 3.04586,13.49283 0,0"
       id="path4169"
       inkscape:connector-curvature="0" />
    <path
       style="fill:none;fill-rule:evenodd;stroke:#000000;stroke-width:1.25;stroke-linecap:butt;stroke-linejoin:miter;stroke-miterlimit:4;stroke-dasharray:none;stroke-opacity:1"
       d="m 79.741551,780.0807 -0.58418,9.36724 0,8.81654 2.33673,8.2649 5.25762,9.9186 5.841848,8.2654 7.594341,7.714 8.17853,6.0615 10.51526,5.51 10.51526,2.7553 10.51527,1.102 11.68364,0 7.59436,-0.5513 12.85197,-3.306 9.34692,-4.4081 7.01017,-4.4082 7.01018,-5.5104 4.67344,-5.51 6.426,-11.5715 3.50513,-8.2653 1.75252,-7.1629 0,-10.46933 -5.25765,-18.73467 -4.08926,-7.71457 -4.67347,-6.61211 -7.59433,-6.61211 -7.01019,-4.40822 -5.84181,-3.30612 -6.42599,-3.30611 -7.59433,-2.20399 -9.34691,-1.65317 -8.17859,-0.55095 -10.51524,1.10201 -10.51529,2.20411 -8.17852,3.3061 -8.17854,3.30612 -9.346911,7.71422 -5.84178,5.51011 -5.257648,6.0614 -4.08928,7.7141 -2.92089,5.51012 z"
       id="C68.8"
       inkscape:connector-curvature="0"
       inkscape:label="#path4217" />
    <path
       style="fill:none;fill-rule:evenodd;stroke:#000000;stroke-width:1.25;stroke-linecap:butt;stroke-linejoin:miter;stroke-miterlimit:4;stroke-dasharray:none;stroke-opacity:1"
       d="m 133.4543,771.4618 -0.41287,3.89649 0.41287,5.84441 4.33736,4.67523 5.78309,3.11715 4.95693,2.53273 5.16349,3.11667 4.3373,3.1171 3.30464,4.8707 1.65233,6.0389 -1.0327,6.6237 -3.51118,5.4551 -5.78309,3.1171 -6.40273,0.1956 -5.16348,-0.9743 -5.78311,-3.5065 -3.09808,-4.6756 -0.82612,-6.4288 0.61961,-5.8445 3.30463,-5.065 4.54385,-3.5071 4.54385,-1.9479 7.02235,-2.33747 4.95695,-3.31198 3.7177,-4.67567 1.8589,-6.23394 -1.03272,-5.64946 -4.13077,-4.87063 -5.78312,-2.7272 -6.1962,-0.19573 -6.19618,1.75341 -3.51118,3.89605 z"
       id="path4230"
       inkscape:connector-curvature="0"
       sodipodi:nodetypes="ccccccccccccccccccccccccccccccccc" />
    <path
       style="fill:none;fill-rule:evenodd;stroke:#000000;stroke-width:1.25;stroke-linecap:butt;stroke-linejoin:miter;stroke-miterlimit:4;stroke-dasharray:none;stroke-opacity:1"
       d="m 81.49295,915.09853 -0.57414,9.3691 0,8.81793 2.29661,8.26676 5.167384,9.92016 5.74155,8.2669 7.464006,7.7155 8.03814,6.0623 10.33479,5.5113 10.33474,2.7556 10.33479,1.1023 11.48308,0 7.46399,-0.5512 12.63137,-3.3067 9.18646,-4.409 6.88983,-4.409 6.88985,-5.5112 4.59325,-5.5111 6.31569,-11.57356 3.44494,-8.26675 1.72244,-7.16454 0,-10.47132 -5.16738,-18.73808 -4.01909,-7.7157 -4.59322,-6.61336 -7.46399,-6.61348 -6.88986,-4.4089 -5.74151,-3.3068 -6.31571,-3.30671 -7.46398,-2.20448 -9.18645,-1.65335 -8.03819,-0.55114 -10.33475,1.10226 -10.33479,2.20448 -8.03814,3.30671 -8.03816,3.30681 -9.18647,7.71557 -5.741526,5.51125 -5.16738,6.06231 -4.019084,7.7157 -2.87076,5.51114 z"
       id="C68.9"
       inkscape:connector-curvature="0"
       inkscape:label="#path4217-8" />
    <path
       id="path4223-9"
       style="fill:none;fill-rule:evenodd;stroke:#000000;stroke-width:1.25;stroke-linecap:butt;stroke-linejoin:miter;stroke-miterlimit:4;stroke-dasharray:none;stroke-opacity:1"
       d="m 164.75163,926.55956 c 0.82403,3.26245 0.58418,2.35699 0.56916,3.57663 -0.0957,7.77629 0.16522,3.93162 -0.0783,6.49754 l -0.095,4.97087 -0.74567,4.94292 -2.85483,4.5719 -5.20791,3.55156 -6.69882,2.533 c -2.57126,0.5196 -4.72663,1.4575 -8.11974,0.9744 l -8.70413,-2.4028 c 0,0 1.21794,0.2924 1.5993,-0.5205 m 2.39356,-56.50615 -3.76679,4.87119 -1.89316,6.43013 -0.38665,6.04036 1.38189,6.43002 4.55163,5.65071 5.61325,2.7279 5.41025,0.58459 7.0801,-1.01754 c 1.966,-0.52038 5.81281,-1.51155 5.81281,-1.51155 -0.18187,-0.45342 4.69754,-0.30883 4.6594,-1.74364 -0.14108,-5.30711 -0.14481,-8.88773 0.0605,-13.06907 0.20435,4.30854 -0.0167,-9.28783 -3.37274,-11.88579 l -5.63279,-5.06613 -6.01926,-1.94848 -7.82667,0.58437 z"
       inkscape:connector-curvature="0"
       sodipodi:nodetypes="csccccccccccccccccccsscccccc" />
    <path
       style="fill:none;fill-rule:evenodd;stroke:#000000;stroke-width:1.25;stroke-linecap:butt;stroke-linejoin:miter;stroke-miterlimit:4;stroke-dasharray:none;stroke-opacity:1"
       d="m 605.70815,845.5775 -0.58418,9.36724 0,8.81654 2.33673,8.2649 5.25762,9.9186 5.84185,8.2654 7.59434,7.71399 8.17853,6.0615 10.51526,5.51001 10.51531,2.7553 10.5152,1.102 11.6837,0 7.5943,-0.5513 12.852,-3.306 9.3469,-4.40811 7.0102,-4.4082 7.0102,-5.51039 4.6734,-5.51 6.426,-11.5715 3.5051,-8.2653 1.7526,-7.1629 0,-10.46933 -5.2577,-18.73467 -4.0893,-7.71457 -4.6734,-6.61211 -7.5944,-6.61211 -7.0101,-4.40822 -5.8419,-3.30612 -6.4259,-3.30611 -7.5944,-2.20399 -9.3469,-1.65317 -8.1786,-0.55095 -10.5152,1.10201 -10.51531,2.20411 -8.17852,3.3061 -8.17854,3.30612 -9.34691,7.71422 -5.84178,5.51011 -5.25765,6.0614 -4.08928,7.7141 -2.92089,5.51012 z"
       id="C68.1"
       inkscape:connector-curvature="0"
       inkscape:label="#path4217" />
    <path
       style="fill:none;fill-rule:evenodd;stroke:#000000;stroke-width:1.25;stroke-linecap:butt;stroke-linejoin:miter;stroke-miterlimit:4;stroke-dasharray:none;stroke-opacity:1"
       d="m 676.123,896.33811 0,-81.0174 m -0.6761,0.5097 -29.13398,24.9745"
       id="path3360"
       inkscape:connector-curvature="0"
       sodipodi:nodetypes="cccc" />
  </g>
</svg>
