<?xml version="1.0" encoding="UTF-8" standalone="no"?>
<!-- Created with Inkscape (http://www.inkscape.org/) -->

<svg
   id="svg4136"
   version="1.1"
   inkscape:version="1.3 (0e150ed, 2023-07-21)"
   width="700"
   height="750"
   viewBox="0 0 700 750"
   sodipodi:docname="level3_C04_06.01.svg"
   xmlns:inkscape="http://www.inkscape.org/namespaces/inkscape"
   xmlns:sodipodi="http://sodipodi.sourceforge.net/DTD/sodipodi-0.dtd"
   xmlns="http://www.w3.org/2000/svg"
   xmlns:svg="http://www.w3.org/2000/svg"
   xmlns:rdf="http://www.w3.org/1999/02/22-rdf-syntax-ns#"
   xmlns:cc="http://creativecommons.org/ns#"
   xmlns:dc="http://purl.org/dc/elements/1.1/">
  <metadata
     id="metadata4142">
    <rdf:RDF>
      <cc:Work
         rdf:about="">
        <dc:format>image/svg+xml</dc:format>
        <dc:type
           rdf:resource="http://purl.org/dc/dcmitype/StillImage" />
      </cc:Work>
    </rdf:RDF>
  </metadata>
  <defs
     id="defs4140">
    <marker
       inkscape:stockid="Arrow1Lstart"
       orient="auto"
       refY="0"
       refX="0"
       id="Arrow1Lstart"
       style="overflow:visible"
       inkscape:isstock="true">
      <path
         id="path4153"
         d="M 0,0 5,-5 -12.5,0 5,5 Z"
         style="fill:#000000;fill-opacity:1;fill-rule:evenodd;stroke:#000000;stroke-width:1pt;stroke-opacity:1"
         transform="matrix(0.8,0,0,0.8,10,0)"
         inkscape:connector-curvature="0" />
    </marker>
  </defs>
  <sodipodi:namedview
     pagecolor="#ffffff"
     bordercolor="#666666"
     borderopacity="1"
     objecttolerance="10"
     gridtolerance="10"
     guidetolerance="10"
     inkscape:pageopacity="0"
     inkscape:pageshadow="2"
     inkscape:window-width="1344"
     inkscape:window-height="759"
     id="namedview4138"
     showgrid="false"
     inkscape:zoom="0.67074482"
     inkscape:cx="380.17439"
     inkscape:cy="372.71999"
     inkscape:window-x="0"
     inkscape:window-y="25"
     inkscape:window-maximized="0"
     inkscape:current-layer="svg4136"
     inkscape:showpageshadow="2"
     inkscape:pagecheckerboard="0"
     inkscape:deskcolor="#d1d1d1" />
  <path
     style="fill:none;fill-rule:evenodd;stroke:#000000;stroke-width:1;stroke-linecap:butt;stroke-linejoin:miter;stroke-miterlimit:4;stroke-dasharray:none;stroke-opacity:1"
     d="m 191.50836,463.21173 c 0,0 0.7146,-26.88405 6.50309,-49.0064 3.23053,-12.34637 6.21213,-32.84729 13.48878,-43.33154 8.54829,-14.46385 17.62527,-27.60044 33.75631,-33.64721 7.28111,-2.56504 15.10875,-3.38243 22.79684,-4.08051 9.67173,-0.8782 19.58171,-1.8657 29.13433,-0.1161 10.85256,1.09391 12.48563,10.57739 15.76321,19.54142 2.24577,5.96681 3.25393,12.33184 4.64699,18.55323 1.7834,10.24595 0.83989,23.98714 10.81203,30.42619 4.29968,2.34414 13.56158,2.81419 17.28089,-0.37156 9.70677,-8.31424 6.41593,-20.13931 7.26946,-31.29111 0.60531,-5.77518 0.91696,-11.65141 2.48662,-17.24205 5.53482,-16.23237 8.18959,-19.43186 18.56681,-20.10606 12.42529,-0.80725 24.73658,-0.15638 37.1872,-0.30314 9.00169,-0.10611 18.82946,-1.10153 26.72452,3.33709 6.33108,2.8309 11.77637,6.33088 16.27175,11.1972 8.72159,10.82075 14.88933,23.96721 17.98392,37.49505 2.40776,10.78868 3.64841,24.79472 4.51621,35.81469 1.2061,15.31587 1.90115,43.16819 1.90115,43.16819"
     id="path4231"
     inkscape:connector-curvature="0"
     sodipodi:nodetypes="csssssssssssssssssc" />
  <path
     style="fill:none;fill-rule:evenodd;stroke:#000000;stroke-width:1;stroke-linecap:butt;stroke-linejoin:miter;stroke-miterlimit:4;stroke-dasharray:none;stroke-opacity:1"
     d="m 447.43009,556.74849 c 0,0 2.59785,-9.20568 5.38821,-12.96156 1.69216,-2.27768 6.58221,-5.39773 6.58221,-5.39773 0,0 2.9093,-8.29821 4.12052,-12.57104 0.96939,-3.41975 0.64516,-7.43506 2.74259,-10.30477 0.89624,-1.22625 3.55871,-2.64079 3.55871,-2.64079 0,0 0.43514,-8.9665 1.64554,-13.249 1.31987,-4.6698 6.0337,-13.24902 6.0337,-13.24902 l 1.24619,-23.48681 c 0,0 6.87296,-3.95654 10.69104,-4.15321 3.62943,-0.18695 6.88116,2.80966 10.51466,2.88291 3.87082,0.078 7.60519,-3.72116 11.31609,-2.61727 5.17058,1.5381 11.21041,11.67186 11.21041,11.67186 l -4.38813,28.46081 -4.38814,18.64677 -7.13069,5.39773 c 0,0 2.11329,14.21958 -1.09705,20.11888 -3.45742,6.35333 -17.55256,12.75829 -17.55256,12.75829 0,0 -2.33422,8.70995 -4.93664,12.26758 -1.81997,2.48799 -4.25834,4.76966 -7.13073,5.88846 -2.90033,1.12968 -9.32479,0.49072 -9.32479,0.49072 0,0 -0.88576,10.71281 -4.38813,14.23038 -2.70365,2.71538 -7.16859,2.95557 -10.97033,3.43495 -3.08811,0.3894 -9.32479,-0.49072 -9.32479,-0.49072 0,0 -1.42606,8.81444 -4.38814,11.7769 -3.31122,3.31164 -8.49503,5.265 -13.1644,4.90704 -5.01278,-0.38429 -13.16444,-7.36056 -13.16444,-7.36056 0,0 -2.73125,6.72851 -5.48515,8.83266 -3.18374,2.43258 -7.5274,3.78434 -11.51884,3.43496 -5.09304,-0.44581 -13.71295,-6.86987 -13.71295,-6.86987 0,0 -6.52706,5.18721 -10.4218,6.37914 -3.5002,1.07118 -7.56869,1.84261 -10.97034,0.49073 -3.17455,-1.26162 -7.13072,-7.36058 -7.13072,-7.36058 0,0 -5.70057,5.53938 -9.3248,6.86985 -4.47317,1.64212 -9.64446,2.16007 -14.26145,0.98141 -2.94332,-0.75139 -7.67922,-4.90703 -7.67922,-4.90703 0,0 -6.76965,3.26059 -10.42181,3.92562 -4.49703,0.81887 -9.41572,1.55814 -13.71293,0 -3.35892,-1.21792 -8.22777,-6.86985 -8.22777,-6.86985 0,0 -5.79346,4.8668 -9.32477,5.88846 -2.81018,0.81303 -6.09917,1.17949 -8.77629,0 -4.4626,-1.96614 -9.87329,-10.7955 -9.87329,-10.7955 0,0 -13.08835,-0.38188 -19.19811,-2.45351 -4.00606,-1.35833 -8.20673,-3.17665 -10.97034,-6.37915 -3.22178,-3.73344 -5.48515,-13.7397 -5.48515,-13.7397 0,0 -10.05234,-1.7613 -14.26145,-4.41635 -4.33102,-2.73196 -7.41481,-7.1414 -10.42181,-11.28619 -2.20071,-3.03342 -5.48516,-9.81408 -5.48516,-9.81408 l -15.35849,-3.43494 c 0,0 -3.94867,-5.94844 -4.93666,-9.32335 -1.24503,-4.25296 -0.0325,-8.94732 -1.09702,-13.24901 -0.89685,-3.62408 -2.56416,-7.04727 -4.38814,-10.30478 -2.1575,-3.85314 -5.64528,-6.87574 -7.67924,-10.79549 -3.35813,-6.47163 -7.27402,-20.62814 -7.27402,-20.62814 l -2.2612,-6.74775 -2.07405,-6.00782 c 0,0 2.397,-8.25256 5.82656,-10.05143 3.49196,-1.8316 7.89681,1.54849 11.79232,0.93728 4.33042,-0.67945 7.77765,-4.90338 12.15984,-5.00661 4.17936,-0.0985 8.74627,1.3781 11.80902,4.22351 2.30723,2.14351 2.87462,5.63625 3.82667,8.63817 1.50731,4.75269 2.93082,14.66802 2.93082,14.66802 0,0 4.02704,2.497 5.04218,4.51072 1.25495,2.48943 -0.12938,5.69068 0.77574,8.32752 1.5595,4.54324 6.09373,7.63809 7.75718,12.14431 0.97062,2.62937 1.16358,8.32751 1.16358,8.32751 0,0 6.0397,9.89712 8.14507,15.26715 0.74209,1.89281 1.55146,5.89864 1.55146,5.89864 0,0 6.63222,1.79605 9.30864,3.81676 3.17091,2.39405 5.6138,5.80417 7.36933,9.36847 1.16,2.35518 1.9393,7.63358 1.9393,7.63358 0,0 8.63906,-0.27964 12.79938,0.69396 3.42502,0.80152 6.93495,1.98498 9.69649,4.16377 2.03835,1.60821 4.65434,6.24563 4.65434,6.24563 l 11.6358,2.08189 7.7572,3.81676 13.96296,-2.42884 h 9.30862 l 9.30865,2.08187 c 0,0 11.60797,-2.4782 17.45369,-2.08187 4.13138,0.2801 12.02367,3.1228 12.02367,3.1228 0,0 19.40399,-3.32253 28.70164,-1.04093 1.58931,0.39001 4.26647,2.42886 4.26647,2.42886 0,0 16.50045,-4.20249 24.82305,-3.46978 1.48975,0.13116 4.26647,1.38789 4.26647,1.38789 0.10733,0.046 11.50728,-9.09701 17.06582,-11.7973 1.51536,-0.73615 5.04218,-0.34698 5.04218,-0.34698 0,0 7.19267,-4.05369 10.47224,-6.54012 1.11522,-0.84551 3.10288,-2.82837 3.10288,-2.82837"
     id="path4455"
     inkscape:connector-curvature="0"
     sodipodi:nodetypes="cscsscsccsssccccscsscsscsscsscsscsscsscsscsscssccsssscccssssscssscscsscssccccccscscscscsc" />
  <path
     style="fill:none;fill-rule:evenodd;stroke:#000000;stroke-width:1;stroke-linecap:butt;stroke-linejoin:miter;stroke-miterlimit:4;stroke-dasharray:none;stroke-opacity:1"
     d="m 477.4537,486.60519 c 0,0 9.15059,3.60765 13.70569,2.54566 4.15373,-0.96841 6.61333,-6.37069 10.86008,-6.7661 4.28278,-0.39877 8.6019,2.07796 12.02367,4.68423 2.23759,1.70431 5.04219,6.76609 5.04219,6.76609"
     id="path4457"
     inkscape:connector-curvature="0"
     sodipodi:nodetypes="csssc" />
  <path
     style="fill:none;fill-rule:evenodd;stroke:#000000;stroke-width:1;stroke-linecap:butt;stroke-linejoin:miter;stroke-miterlimit:4;stroke-dasharray:none;stroke-opacity:1"
     d="m 469.63317,512.919 c 0,0 5.75888,1.2756 8.53293,2.25534 2.13675,0.75466 3.93999,2.73688 6.20575,2.77585 3.83752,0.066 6.82892,-4.41908 10.66614,-4.33725 3.19789,0.0682 6.40509,1.79016 8.72685,3.99028 1.51649,1.43704 2.90897,5.55168 2.90897,5.55168"
     id="path4459"
     inkscape:connector-curvature="0"
     sodipodi:nodetypes="cssssc" />
  <path
     style="fill:none;fill-rule:evenodd;stroke:#000000;stroke-width:1;stroke-linecap:butt;stroke-linejoin:miter;stroke-miterlimit:4;stroke-dasharray:none;stroke-opacity:1"
     d="m 459.12665,538.74794 c 0,0 8.0693,-0.47365 12.05794,0.022 3.3066,0.4109 7.11076,0.32738 9.69653,2.42887 4.22666,3.43506 7.12692,14.70325 7.12692,14.70325"
     id="path4461"
     inkscape:connector-curvature="0"
     sodipodi:nodetypes="cssc" />
  <path
     style="fill:none;fill-rule:evenodd;stroke:#000000;stroke-width:1;stroke-linecap:butt;stroke-linejoin:miter;stroke-miterlimit:4;stroke-dasharray:none;stroke-opacity:1"
     d="m 447.0403,556.85532 c 0,0 5.69009,-2.1879 8.62991,-1.95176 2.77844,0.22317 5.99123,0.96622 7.75718,3.12283 3.57779,4.36925 3.10289,16.65504 3.10289,16.65504"
     id="path4463"
     inkscape:connector-curvature="0"
     sodipodi:nodetypes="cssc" />
  <path
     style="fill:none;fill-rule:evenodd;stroke:#000000;stroke-width:1;stroke-linecap:butt;stroke-linejoin:miter;stroke-miterlimit:4;stroke-dasharray:none;stroke-opacity:1"
     d="m 433.36824,566.35391 c 0,0 2.89216,2.86444 4.07252,4.51076 1.15807,1.61523 2.40797,3.28138 2.90898,5.20468 0.7289,2.79812 -0.27223,5.79584 0,8.6745 0.22726,2.4031 1.35749,7.11309 1.35749,7.11309"
     id="path4465"
     inkscape:connector-curvature="0"
     sodipodi:nodetypes="csssc" />
  <path
     style="fill:none;fill-rule:evenodd;stroke:#000000;stroke-width:1;stroke-linecap:butt;stroke-linejoin:miter;stroke-miterlimit:4;stroke-dasharray:none;stroke-opacity:1"
     d="m 411.06629,578.32471 c 0,0 0.46081,5.54963 0.38788,8.32753 -0.0686,2.61426 -0.71925,5.19249 -0.77574,7.80705 -0.05,2.31628 0.38786,6.93962 0.38786,6.93962"
     id="path4467"
     inkscape:connector-curvature="0"
     sodipodi:nodetypes="cssc" />
  <path
     style="fill:none;fill-rule:evenodd;stroke:#000000;stroke-width:1;stroke-linecap:butt;stroke-linejoin:miter;stroke-miterlimit:4;stroke-dasharray:none;stroke-opacity:1"
     d="m 382.17072,580.58008 -1.74536,13.53224 v 12.49128"
     id="path4469"
     inkscape:connector-curvature="0" />
  <path
     style="fill:none;fill-rule:evenodd;stroke:#000000;stroke-width:1;stroke-linecap:butt;stroke-linejoin:miter;stroke-miterlimit:4;stroke-dasharray:none;stroke-opacity:1"
     d="m 350.36621,579.19218 1.3575,27.23791"
     id="path4471"
     inkscape:connector-curvature="0" />
  <path
     style="fill:none;fill-rule:evenodd;stroke:#000000;stroke-width:1;stroke-linecap:butt;stroke-linejoin:miter;stroke-miterlimit:4;stroke-dasharray:none;stroke-opacity:1"
     d="m 319.53132,577.97774 0.96967,31.05472"
     id="path4473"
     inkscape:connector-curvature="0" />
  <path
     style="fill:none;fill-rule:evenodd;stroke:#000000;stroke-width:1;stroke-linecap:butt;stroke-linejoin:miter;stroke-miterlimit:4;stroke-dasharray:none;stroke-opacity:1"
     d="m 287.145,578.15124 c 0,0 -0.81463,10.52664 -0.58179,15.78759 0.18298,4.13432 1.55145,12.31779 1.55145,12.31779"
     id="path4475"
     inkscape:connector-curvature="0"
     sodipodi:nodetypes="csc" />
  <path
     style="fill:none;fill-rule:evenodd;stroke:#000000;stroke-width:1;stroke-linecap:butt;stroke-linejoin:miter;stroke-miterlimit:4;stroke-dasharray:none;stroke-opacity:1"
     d="m 268.13987,572.42607 c 0,0 -6.98578,1.36974 -8.92079,3.99026 -2.52643,3.42146 -1.8168,8.41991 -1.55142,12.66477 0.2642,4.22595 2.61095,12.3588 2.61095,12.3588"
     id="path4477"
     inkscape:connector-curvature="0"
     sodipodi:nodetypes="cssc" />
  <path
     style="fill:none;fill-rule:evenodd;stroke:#000000;stroke-width:1;stroke-linecap:butt;stroke-linejoin:miter;stroke-miterlimit:4;stroke-dasharray:none;stroke-opacity:1"
     d="m 241.09396,561.18252 c 0,0 -6.5064,0.58674 -9.219,2.22207 -2.17968,1.31405 -3.69348,3.63056 -4.84825,5.89865 -1.51802,2.98154 -2.52111,9.71544 -2.52111,9.71544"
     id="path4479"
     inkscape:connector-curvature="0"
     sodipodi:nodetypes="cssc" />
  <path
     style="fill:none;fill-rule:evenodd;stroke:#000000;stroke-width:1;stroke-linecap:butt;stroke-linejoin:miter;stroke-miterlimit:4;stroke-dasharray:none;stroke-opacity:1"
     d="m 194.6404,552.99519 c 0,0 1.30554,-4.91072 2.52108,-7.1131 1.21025,-2.19278 2.31599,-5.00131 4.65431,-5.89867 4.47006,-1.71543 9.37758,2.7157 14.1569,2.42886 2.22205,-0.13336 6.39968,-1.90838 6.39968,-1.90838"
     id="path4481"
     inkscape:connector-curvature="0"
     sodipodi:nodetypes="csssc" />
  <path
     style="fill:none;fill-rule:evenodd;stroke:#000000;stroke-width:1;stroke-linecap:butt;stroke-linejoin:miter;stroke-miterlimit:4;stroke-dasharray:none;stroke-opacity:1"
     d="m 170.76282,521.20173 c 0,0 3.51865,-4.14555 5.96348,-5.03494 4.51813,-1.64363 9.62255,0.30808 14.42335,0.0486 5.19612,-0.28085 10.53048,-3.23125 15.5144,-1.7349 2.40768,0.72287 5.79373,4.82783 5.79373,4.82783"
     id="path4483"
     inkscape:connector-curvature="0"
     sodipodi:nodetypes="csssc" />
  <path
     style="fill:none;fill-rule:evenodd;stroke:#000000;stroke-width:1;stroke-linecap:butt;stroke-linejoin:miter;stroke-miterlimit:4;stroke-dasharray:none;stroke-opacity:1"
     d="m 156.00505,492.39807 c 0,0 5.84408,-5.07209 9.30412,-5.80296 3.84451,-0.81208 7.75216,2.34818 11.64623,1.82288 3.31618,-0.44734 5.83801,-3.66201 9.15207,-4.12485 3.93921,-0.55015 11.80554,1.73488 11.80554,1.73488"
     id="path4485"
     inkscape:connector-curvature="0"
     sodipodi:nodetypes="csssc" />
  <path
     style="fill:none;fill-rule:evenodd;stroke:#000000;stroke-width:1;stroke-linecap:butt;stroke-linejoin:miter;stroke-miterlimit:4;stroke-dasharray:none;stroke-opacity:1"
     d="m 337.75853,309.92269 -1.64813,-60.18807 v 0"
     id="path4487"
     inkscape:connector-curvature="0"
     sodipodi:nodetypes="ccc" />
  <path
     style="fill:none;fill-rule:evenodd;stroke:#000000;stroke-width:1;stroke-linecap:butt;stroke-linejoin:miter;stroke-miterlimit:4;stroke-dasharray:none;stroke-opacity:1"
     d="m 291.21754,192.13594 c 3.87861,0 89.98353,-0.69397 89.98353,-0.69397"
     id="path4489"
     inkscape:connector-curvature="0" />
  <path
     style="fill:none;fill-rule:evenodd;stroke:#000000;stroke-width:1;stroke-linecap:butt;stroke-linejoin:miter;stroke-miterlimit:4;stroke-dasharray:none;stroke-opacity:1"
     d="m 267.75033,236.54938 c 0,0 22.5367,-16.43039 35.68312,-20.12483 19.42809,-5.45973 40.83222,-6.57572 60.50618,-2.08189 13.09712,2.99158 35.68312,18.73692 35.68312,18.73692"
     id="path4491"
     inkscape:connector-curvature="0"
     sodipodi:nodetypes="cssc" />
  <path
     style="fill:none;fill-rule:evenodd;stroke:#000000;stroke-width:1;stroke-linecap:butt;stroke-linejoin:miter;stroke-miterlimit:4;stroke-dasharray:none;stroke-opacity:1"
     d="m 179.07751,549.52537 c 0,0 8.14567,20.08486 12.84786,29.84028 5.4691,11.34648 10.02773,23.43093 17.84155,33.3101 9.42229,11.91278 21.80933,21.30736 34.13171,30.18727 14.42217,10.39308 29.88282,19.56059 46.15533,26.71745 9.55049,4.20043 19.51157,8.08109 29.86522,9.36846 20.30366,2.52455 41.22039,0.54873 61.28189,-3.4698 13.30663,-2.66546 26.71881,-6.62107 38.39814,-13.53223 14.18269,-8.39251 25.74194,-20.78659 36.8467,-32.96309 8.92482,-9.78618 16.39242,-20.84915 23.65947,-31.92217 8.79398,-13.39965 18.00924,-26.79083 24.04732,-41.63759 4.94523,-12.15962 9.6965,-38.16782 9.6965,-38.16782 v 0"
     id="path4493"
     inkscape:connector-curvature="0"
     sodipodi:nodetypes="csssssssssssc" />
  <path
     style="fill:none;fill-rule:evenodd;stroke:#000000;stroke-width:1;stroke-linecap:butt;stroke-linejoin:miter;stroke-miterlimit:4;stroke-dasharray:none;stroke-opacity:1"
     d="m 345.51795,636.96435 0.77571,27.75839"
     id="path4495"
     inkscape:connector-curvature="0" />
  <path
     style="fill:none;fill-rule:evenodd;stroke:#000000;stroke-width:1;stroke-linecap:butt;stroke-linejoin:miter;stroke-miterlimit:4;stroke-dasharray:none;stroke-opacity:1"
     d="m 143.83074,538.42201 c 4.85722,20.6434 9.2244,41.691 17.84155,61.0685 6.40498,14.40296 14.89068,28.00971 24.82305,40.24968 10.78985,13.29667 23.84061,24.72308 37.23455,35.39195 13.10198,10.43632 26.45142,21.2574 41.8889,27.7584 19.2569,8.10942 40.45117,11.55038 61.28187,13.18526 25.04298,1.96548 50.80338,1.63519 75.24486,-4.16376 21.09545,-5.00508 43.01349,-12.04456 59.63634,-25.96397 19.72414,-16.51632 31.50563,-41.11647 42.75872,-64.25083 10.12073,-20.80643 16.54388,-43.37532 21.72016,-65.92621 7.43639,-32.39726 9.48505,-65.80979 13.22326,-98.83868 3.56548,-31.50274 8.7975,-63.00197 8.77624,-94.70583 -0.0118,-17.57896 -1.68982,-35.22881 -4.93663,-52.50533 -6.15736,-32.76373 -16.46343,-64.69462 -27.42586,-96.17796 C 503.79009,178.77087 494.23556,142.01269 473.66196,111.47682 462.19523,94.457608 446.88923,79.627743 429.78059,68.294879 413.03396,57.201815 393.70713,49.625748 374.10614,45.231797 c -9.9134,-2.222285 -20.34795,-2.6165 -30.44272,-1.47211 -6.60518,0.748794 -19.19808,5.397741 -19.19808,5.397741 0,0 -14.08017,-4.667331 -21.39215,-4.907033 -11.29131,-0.370152 -22.82536,1.583991 -33.45955,5.397741 -9.76694,3.502726 -18.37331,9.757446 -26.87733,15.702521 -13.03398,9.111927 -25.50033,19.183409 -36.75062,30.423642 -9.32034,9.312011 -17.63521,19.659151 -25.23179,30.423641 -6.80397,9.64135 -12.84211,19.85987 -18.10104,30.42364 -6.69119,13.44081 -12.16057,27.49828 -17.00404,41.70983 -5.31042,15.58165 -10.05598,31.43268 -13.16439,47.59827 -2.82775,14.70597 -3.93236,29.7124 -4.93666,44.65405 -1.52519,22.69137 -1.69097,45.46533 -1.64557,68.20785 0.0519,26.01753 0.054,52.09249 2.19407,78.02191 1.65684,20.07462 5.07322,39.97155 8.22777,59.86588 2.21404,13.96297 4.26871,27.98103 7.5067,41.74264 z"
     id="path4497"
     inkscape:connector-curvature="0"
     sodipodi:nodetypes="sssssssssssssssssscsssssssssssss" />
  <path
     style="fill:none;fill-rule:evenodd;stroke:#000000;stroke-width:1;stroke-linecap:butt;stroke-linejoin:miter;stroke-miterlimit:4;stroke-dasharray:none;stroke-opacity:1"
     d="m 159.94283,503.82207 c 0,0 -8.4654,-23.24609 -12.37418,-36.3396 -2.91748,-9.77287 -5.48001,-19.67183 -7.40497,-29.68758 -2.4302,-12.64458 -4.55236,-25.41575 -5.21094,-38.27489 -1.27653,-24.92502 -0.12129,-50.00938 2.46835,-74.83235 2.18023,-20.89857 5.3817,-41.81889 10.97033,-62.07403 4.44517,-16.11083 10.53143,-31.82575 17.82679,-46.86224 9.78084,-20.15932 21.12992,-39.71924 34.55657,-57.65769 11.06819,-14.78746 23.2058,-29.12041 37.5734,-40.72842 12.63552,-10.2086 26.82439,-18.8866 41.96154,-24.780548 10.27636,-4.001306 21.38484,-5.818744 32.36251,-6.869856 13.37971,-1.281107 26.94934,-0.67489 40.31598,0.736058 12.78125,1.349156 25.70628,3.145492 37.84769,7.360559 10.78643,3.744667 21.16209,9.051207 30.44269,15.702527 10.53155,7.54786 19.22977,17.42753 27.97435,26.98871 9.14447,9.99841 17.68933,20.58294 25.50603,31.6504 7.14599,10.11783 13.79321,20.64209 19.47236,31.6504 7.08659,13.73646 12.96974,28.11113 18.10106,42.69124 4.45827,12.66769 7.77459,25.72206 10.97037,38.76559 3.63758,14.8467 6.87,29.81199 9.32477,44.89942 2.24833,13.81861 4.6145,27.71322 4.93666,41.70983 0.32264,14.01746 -1.3507,28.03336 -3.01685,41.95519 -1.70485,14.24523 -4.12089,28.41825 -7.13072,42.44587 -1.38866,6.47199 -5.03363,19.20932 -5.03363,19.20932"
     id="path4499"
     inkscape:connector-curvature="0"
     sodipodi:nodetypes="cssssssssssssssssssssssc" />
  <path
     style="fill:none;fill-rule:evenodd;stroke:#000000;stroke-width:1;stroke-linecap:butt;stroke-linejoin:miter;stroke-miterlimit:4;stroke-dasharray:none;stroke-opacity:1"
     d="M 328.83996,122.04597 327.6764,85.613064"
     id="path4501"
     inkscape:connector-curvature="0" />
  <path
     style="fill:none;fill-rule:evenodd;stroke:#000000;stroke-width:1;stroke-linecap:butt;stroke-linejoin:miter;stroke-miterlimit:4;stroke-dasharray:none;stroke-opacity:1"
     d="m 195.01535,314.87358 c 0,0 0.95436,11.19284 -1.09702,15.21181 -2.05138,4.01897 -4.38929,6.20028 -9.05055,7.60592 -4.66126,1.40564 -11.01134,-1.53194 -17.27829,-1.96281 -6.26695,-0.43087 -15.79485,1.83659 -20.29512,-0.49071 -4.50027,-2.3273 -4.84461,-3.19858 -6.03368,-8.0966 -1.18907,-4.89802 1.6961,-15.42357 3.29112,-19.87353 1.59502,-4.44996 4.11388,-7.1152 4.11388,-7.1152 0,0 1.92875,-11.01325 4.38812,-15.94786 2.07196,-4.15729 8.50201,-11.04085 8.50201,-11.04085 0,0 -2.75983,-7.44624 -2.46832,-11.28617 0.42446,-5.5912 3.55844,-10.67116 6.03368,-15.70255 1.86047,-3.78176 6.5822,-10.79547 6.5822,-10.79547 0,0 1.31591,-8.09877 3.01685,-11.77691 2.06017,-4.45495 4.7101,-8.90577 8.50201,-12.02223 1.85689,-1.52612 6.5822,-2.94424 6.5822,-2.94424 0,0 1.44787,-12.66775 4.38813,-18.15603 3.05154,-5.696 7.54346,-11.04276 13.16442,-14.23041 2.763,-1.5669 9.32478,-1.96282 9.32478,-1.96282 0,0 1.42275,-9.73449 3.29109,-14.23041 2.11199,-5.08222 4.36675,-10.6918 8.77627,-13.98507 3.65062,-2.72648 8.76054,-4.84924 13.16443,-3.68027 4.77778,1.26821 10.42182,10.55013 10.42182,10.55013 0,0 3.32214,-13.27582 8.22774,-17.41999 4.85944,-4.10518 12.10277,-6.21146 18.37533,-5.15239 2.96507,0.50063 7.40495,5.15239 7.40495,5.15239 0,0 6.7163,-8.87144 11.51889,-11.28619 5.62277,-2.82714 12.48331,-4.20348 18.64955,-2.94422 6.34105,1.29496 16.45552,10.30478 16.45552,10.30478 0,0 5.74253,-7.18671 9.87329,-8.58732 6.24564,-2.1177 13.69739,-1.39991 19.74663,1.22676 6.11558,2.65547 14.5357,13.73971 14.5357,13.73971 0,0 8.12136,-5.85221 12.89015,-6.6245 4.74859,-0.76902 10.22458,-0.408 14.26143,2.20817 6.21299,4.02646 12.06737,18.64674 12.06737,18.64674 0,0 8.99535,-5.06859 13.98718,-5.88844 4.43211,-0.72792 9.59713,-1.34582 13.43868,0.9814 5.34753,3.23955 8.06666,9.96233 9.87329,15.94788 0.82754,2.74173 0.27427,8.58732 0.27427,8.58732 0,0 12.42158,-2.13153 17.27829,0.98141 6.07894,3.89634 6.78257,12.74904 10.14757,19.13745 2.02177,3.83831 6.03368,11.53154 6.03368,11.53154 l 2.19406,7.60591 6.30796,7.60592 c 4.38954,5.29276 2.19417,13.57613 3.2912,20.3642 0,0 8.38052,9.4142 10.42183,15.21182 1.98857,5.64784 1.37128,17.91068 1.37128,17.91068 0,0 5.58621,10.50115 7.13072,16.19323 1.87571,6.91266 2.46834,21.34563 2.46834,21.34563 0,0 4.21372,8.79291 4.11389,13.49435 -0.0994,4.68075 -0.8882,10.47868 -4.66241,13.249 -5.82543,4.27595 -14.5633,-0.59263 -21.6664,0.73606 -3.90236,0.72997 -7.27519,3.855 -11.24461,3.92562 -4.97574,0.0885 -11.50171,-0.2751 -14.26145,-4.41632 -2.14123,-3.21309 1.96802,-7.76985 1.09702,-11.53153 -0.67081,-2.89708 -4.57696,-4.63341 -4.66238,-7.60591 -0.0666,-2.31937 3.29112,-6.13382 3.29112,-6.13382 0,0 -7.93579,-11.34713 -8.22776,-17.91068 -0.16973,-3.81555 3.83961,-10.79548 3.83961,-10.79548 0,0 -5.90551,-2.05555 -7.67924,-4.41634 -1.61834,-2.15398 -0.75208,-5.42328 -1.91979,-7.85126 -1.29795,-2.6988 -4.76029,-4.20959 -5.48518,-7.11522 -1.32518,-5.3118 2.74258,-16.19321 2.74258,-16.19321 0,0 -4.29993,-7.94791 -5.48518,-12.2676 -1.26351,-4.60488 -1.64554,-14.23042 -1.64554,-14.23042 0,0 -2.37995,-9.1359 -4.93665,-13.00364 -1.88765,-2.85562 -6.00512,-3.99141 -7.40499,-7.11521 -1.00405,-2.24053 -0.27427,-7.36056 -0.27427,-7.36056 0,0 -10.5731,-7.67301 -14.53569,-12.7583 -2.71114,-3.47927 -6.03368,-11.77689 -6.03368,-11.77689 0,0 -4.97211,3.90074 -7.95349,4.17098 -6.2943,0.57052 -12.25232,-3.24814 -18.10107,-5.64309 -3.80553,-1.55829 -10.97034,-5.64311 -10.97034,-5.64311 0,0 -2.9174,6.17891 -5.75942,7.60592 -9.15057,4.59462 -20.74943,2.58885 -30.71695,0.24535 -3.69287,-0.86824 -10.14755,-5.15239 -10.14755,-5.15239 0,0 -4.8292,3.64395 -7.67926,4.41634 -10.67691,2.89353 -22.25545,1.95074 -33.18525,0.24535 -2.85186,-0.44498 -8.22778,-2.69887 -8.22778,-2.69887 0,0 -2.72482,3.62448 -4.66238,4.66168 -5.50731,2.94813 -12.15531,4.25746 -18.37534,3.68029 -1.96255,-0.18211 -5.48514,-2.20818 -5.48514,-2.20818 l -7.13073,9.32338 -7.9535,11.28619 c 0,0 1.79429,2.98587 1.91982,4.66168 0.31454,4.19927 -1.66983,8.27782 -3.01684,12.26761 -1.02693,3.0417 -1.38865,6.75922 -3.83964,8.83267 -2.58903,2.19023 -9.87329,2.45351 -9.87329,2.45351 0,0 2.99017,8.17151 1.3713,11.77689 -1.05139,2.34155 -4.70148,2.41447 -6.30796,4.41634 -1.4958,1.86396 -1.07654,4.91101 -2.74258,6.62451 -1.67554,1.72327 -6.58221,2.94422 -6.58221,2.94422 0,0 5.1704,8.42701 4.66241,13.00365 -0.39534,3.56175 -3.29068,6.48039 -5.75942,9.07802 -1.85216,1.94885 -6.58221,4.66167 -6.58221,4.66167 0,0 4.113,8.76715 4.66238,13.49437 0.7307,6.28747 0.99148,13.27152 -1.91981,18.89208 -2.06255,3.98197 -10.14768,8.83269 -10.14768,8.83269 z"
     id="path4503"
     inkscape:connector-curvature="0"
     sodipodi:nodetypes="czzzzzzcscsscsscsscssscsscsscsscsscssscssccscscscssssssscscssscscsscscsscsscsscsscccssscssscsscssc" />
  <path
     style="fill:none;fill-rule:evenodd;stroke:#000000;stroke-width:1;stroke-linecap:butt;stroke-linejoin:miter;stroke-miterlimit:4;stroke-dasharray:none;stroke-opacity:1"
     d="m 472.248,311.55676 c 0,0 6.28667,3.35615 9.60277,3.75709 5.22602,0.63186 10.29834,-2.23989 15.5144,-2.94935 7.64839,-1.04029 23.07767,-1.90838 23.07767,-1.90838 v 0"
     id="path4505"
     inkscape:connector-curvature="0"
     sodipodi:nodetypes="csscc" />
  <path
     style="fill:none;fill-rule:evenodd;stroke:#000000;stroke-width:1;stroke-linecap:butt;stroke-linejoin:miter;stroke-miterlimit:4;stroke-dasharray:none;stroke-opacity:1"
     d="m 467.88781,282.69772 c 0,0 13.95893,-3.94828 21.13835,-4.68423 4.18031,-0.42852 8.56599,1.33178 12.60544,0.1736 3.69573,-1.05963 9.69653,-6.24566 9.69653,-6.24566"
     id="path4507"
     inkscape:connector-curvature="0"
     sodipodi:nodetypes="cssc" />
  <path
     style="fill:none;fill-rule:evenodd;stroke:#000000;stroke-width:1;stroke-linecap:butt;stroke-linejoin:miter;stroke-miterlimit:4;stroke-dasharray:none;stroke-opacity:1"
     d="m 455.86414,247.13227 c 0,0 10.4605,1.94614 15.70833,1.56141 4.98466,-0.36544 9.82586,-1.99633 14.54475,-3.64329 4.49086,-1.56738 12.99331,-5.89865 12.99331,-5.89865 v 0.34698"
     id="path4509"
     inkscape:connector-curvature="0"
     sodipodi:nodetypes="csscc" />
  <path
     style="fill:none;fill-rule:evenodd;stroke:#000000;stroke-width:1;stroke-linecap:butt;stroke-linejoin:miter;stroke-miterlimit:4;stroke-dasharray:none;stroke-opacity:1"
     d="m 448.88266,221.10876 c 0,0 7.7665,-0.33957 11.63579,-0.69395 6.09729,-0.55843 12.43415,-0.27964 18.22943,-2.25537 4.19389,-1.42978 11.44188,-6.7661 11.44188,-6.7661"
     id="path4511"
     inkscape:connector-curvature="0"
     sodipodi:nodetypes="cssc" />
  <path
     style="fill:none;fill-rule:evenodd;stroke:#000000;stroke-width:1;stroke-linecap:butt;stroke-linejoin:miter;stroke-miterlimit:4;stroke-dasharray:none;stroke-opacity:1"
     d="m 436.22871,193.30699 c 0,0 6.72231,-2.53999 9.88825,-5.13439 3.36166,-2.75479 6.41596,-6.516 7.36934,-10.75637 0.44962,-1.99977 0.43851,-5.75211 0.43851,-5.75211"
     id="path4513"
     inkscape:connector-curvature="0"
     sodipodi:nodetypes="cssc" />
  <path
     style="fill:none;fill-rule:evenodd;stroke:#000000;stroke-width:1;stroke-linecap:butt;stroke-linejoin:miter;stroke-miterlimit:4;stroke-dasharray:none;stroke-opacity:1"
     d="m 416.49632,152.05975 c 0,0 1.24921,4.82843 1.16362,7.28658 -0.10949,3.14449 -2.13324,9.19497 -2.13324,9.19497"
     id="path4515"
     inkscape:connector-curvature="0"
     sodipodi:nodetypes="csc" />
  <path
     style="fill:none;fill-rule:evenodd;stroke:#000000;stroke-width:1;stroke-linecap:butt;stroke-linejoin:miter;stroke-miterlimit:4;stroke-dasharray:none;stroke-opacity:1"
     d="m 377.12856,138.00705 1.16356,10.58289 0.38787,12.83826"
     id="path4517"
     inkscape:connector-curvature="0" />
  <path
     style="fill:none;fill-rule:evenodd;stroke:#000000;stroke-width:1;stroke-linecap:butt;stroke-linejoin:miter;stroke-miterlimit:4;stroke-dasharray:none;stroke-opacity:1"
     d="m 332.9125,131.76141 c 0,0 -0.96948,9.24063 -1.16358,13.8792 -0.25628,6.12462 0,18.38994 0,18.38994"
     id="path4519"
     inkscape:connector-curvature="0"
     sodipodi:nodetypes="csc" />
  <path
     style="fill:none;fill-rule:evenodd;stroke:#000000;stroke-width:1;stroke-linecap:butt;stroke-linejoin:miter;stroke-miterlimit:4;stroke-dasharray:none;stroke-opacity:1"
     d="m 286.17536,135.4047 c 0,0 -2.90428,8.91089 -3.49073,13.53223 -0.73531,5.79436 0,17.52248 0,17.52248"
     id="path4521"
     inkscape:connector-curvature="0"
     sodipodi:nodetypes="csc" />
  <path
     style="fill:none;fill-rule:evenodd;stroke:#000000;stroke-width:1;stroke-linecap:butt;stroke-linejoin:miter;stroke-miterlimit:4;stroke-dasharray:none;stroke-opacity:1"
     d="m 252.2376,153.10068 c 0,0 -0.86765,6.13719 -0.58178,9.19497 0.31665,3.38698 2.52111,9.88894 2.52111,9.88894"
     id="path4523"
     inkscape:connector-curvature="0"
     sodipodi:nodetypes="csc" />
  <path
     style="fill:none;fill-rule:evenodd;stroke:#000000;stroke-width:1;stroke-linecap:butt;stroke-linejoin:miter;stroke-miterlimit:4;stroke-dasharray:none;stroke-opacity:1"
     d="m 216.36056,174.26646 c 0,0 2.1616,6.76944 4.07254,9.71544 2.15848,3.32761 4.55252,6.99346 8.14504,8.6745 3.13781,1.46827 10.37526,0.60722 10.37526,0.60722 l 0.53329,0.34698"
     id="path4525"
     inkscape:connector-curvature="0"
     sodipodi:nodetypes="csscc" />
  <path
     style="fill:none;fill-rule:evenodd;stroke:#000000;stroke-width:1;stroke-linecap:butt;stroke-linejoin:miter;stroke-miterlimit:4;stroke-dasharray:none;stroke-opacity:1"
     d="m 189.59822,208.96448 c 0,0 3.57718,4.59394 6.01181,6.07215 2.83495,1.72127 6.18621,2.98702 9.50258,2.94932 3.27262,-0.0372 6.05829,-3.50582 9.30863,-3.12282 4.01162,0.4727 10.27831,6.41914 10.27831,6.41914"
     id="path4527"
     inkscape:connector-curvature="0"
     sodipodi:nodetypes="csssc" />
  <path
     style="fill:none;fill-rule:evenodd;stroke:#000000;stroke-width:1;stroke-linecap:butt;stroke-linejoin:miter;stroke-miterlimit:4;stroke-dasharray:none;stroke-opacity:1"
     d="m 171.27183,235.94217 c 0,0 1.79465,5.62965 3.97556,7.37333 2.51642,2.01194 6.10665,2.24505 9.30862,2.60234 4.56716,0.50962 9.18196,-0.97202 13.76905,-0.69395 4.06007,0.24612 12.02365,2.08187 12.02365,2.08187 v 0"
     id="path4529"
     inkscape:connector-curvature="0"
     sodipodi:nodetypes="cssscc" />
  <path
     style="fill:none;fill-rule:evenodd;stroke:#000000;stroke-width:1;stroke-linecap:butt;stroke-linejoin:miter;stroke-miterlimit:4;stroke-dasharray:none;stroke-opacity:1"
     d="m 161.47836,273.06903 c 0,0 3.01988,3.90232 5.23609,4.5975 5.40039,1.69399 11.48893,-0.15996 16.87193,-1.9084 2.11992,-0.68857 3.63612,-2.84025 5.81791,-3.29631 4.38944,-0.91754 13.38115,1.38792 13.38115,1.38792"
     id="path4531"
     inkscape:connector-curvature="0"
     sodipodi:nodetypes="csssc" />
  <path
     style="fill:none;fill-rule:evenodd;stroke:#000000;stroke-width:1;stroke-linecap:butt;stroke-linejoin:miter;stroke-miterlimit:4;stroke-dasharray:none;stroke-opacity:1"
     d="m 148.59398,300.00907 c 0,0 0.41507,6.33478 2.21824,8.36519 2.80594,3.15955 7.45705,4.40336 11.63579,5.0312 4.69488,0.70539 9.41108,-1.69115 14.15689,-1.56142 6.35385,0.17369 18.81122,3.12283 18.81122,3.12283"
     id="path4533"
     inkscape:connector-curvature="0"
     sodipodi:nodetypes="csssc" />
  <path
     style="fill:none;fill-rule:evenodd;stroke:#000000;stroke-width:0.7;stroke-linecap:butt;stroke-linejoin:miter;stroke-miterlimit:4;stroke-dasharray:0.7,0.7;stroke-dashoffset:0;stroke-opacity:1"
     d="m 267.62477,572.34127 c 0,0 8.15349,0.8552 12.00375,2.16066 2.81332,0.95388 7.92245,4.08128 7.92245,4.08128 0,0 9.12927,-2.35546 13.80428,-2.76087 3.26973,-0.28354 6.58851,-0.18336 9.84307,0.24016 2.73317,0.35567 8.0425,1.9206 8.0425,1.9206 0,0 11.97133,-2.71435 18.00559,-2.28072 4.34739,0.31241 12.60393,3.48107 12.60393,3.48107 7.74372,-1.59987 18.27619,-2.92789 28.08873,-1.20035 l 4.32135,2.52079 c 4.08134,-0.56167 7.75282,-2.42835 12.28382,-2.37675 4.47838,-1.68629 8.88955,-0.93911 12.81676,-1.15558 l 3.81958,1.27318 0.009,-115.14029 -143.76352,-0.19871 z"
     id="C04.0"
     inkscape:connector-curvature="0"
     sodipodi:nodetypes="cscsscsccccccccc"
     inkscape:label="#path4201" />
  <path
     id="C04.1"
     style="fill:none;fill-rule:evenodd;stroke:#000000;stroke-width:0.7;stroke-linecap:butt;stroke-linejoin:miter;stroke-miterlimit:4;stroke-dasharray:0.7, 0.7;stroke-dashoffset:0;stroke-opacity:1"
     d="m 411.0957,577.99005 c 0.12574,0.20312 11.61131,-7.96516 17.5263,-11.37382 1.37502,-0.79239 5.3653,-0.35823 5.51111,-0.64985 0,0 6.71656,-3.76482 9.72594,-6.14042 1.52601,-1.20463 4.17367,-4.07419 4.17367,-4.07419 -0.56989,-0.15975 2.20231,-8.3469 4.44282,-11.67215 2.27757,-2.71725 8.14201,-5.89885 7.34081,-6.1525 l 6.45082,-22.91736 3.54432,-2.15715 c 0,0 0.63481,-9.21806 1.88796,-13.6304 1.30127,-4.58178 5.77176,-13.07138 5.77176,-13.07138 l 1.18834,-23.08714 -67.46442,0.0497 z m -143.61559,-6.79035 -4.24399,-5.09275 c -2.85677,-1.61519 -5.66546,-3.37458 -8.82742,-4.0742 -5.13671,-0.94934 -8.98001,-0.60526 -13.24116,-0.67904 l -2.20687,-7.12984 c -1.21583,-4.25589 -4.63284,-6.75084 -7.2996,-9.84599 -3.63514,-2.29069 -6.46566,-2.97215 -9.50648,-4.07421 0,0 -0.87035,-4.38694 -1.69758,-6.4508 -2.04482,-5.1016 -7.97866,-14.42947 -7.97866,-14.42947 0.30969,-2.80133 -0.6744,-5.86141 -1.1883,-8.82745 -2.54937,-3.90144 -5.78506,-7.11657 -7.63912,-11.71332 -0.27114,-2.71319 0.0849,-5.26959 -0.84879,-8.14841 -1.52526,-2.01521 -3.20373,-3.64741 -5.09274,-4.75324 0.37835,-0.37835 -1.78202,-10.44055 -2.88591,-15.10848 -0.76573,-3.238 -3.12176,-8.2998 -3.41405,-8.00751 l 75.73112,0.19856 z"
     inkscape:label="#path4205"
     sodipodi:nodetypes="cscscccccscccccccccccscccccsccc" />
  <path
     id="C04.9"
     style="font-size:33.2768px;font-family:'.Arial Hebrew Desk Interface';-inkscape-font-specification:'.Arial Hebrew Desk Interface, Normal';display:inline;fill:none;stroke:#000000;stroke-width:1;stroke-dasharray:none"
     d="m 618.93383,143.71544 q -2.7719,3.62043 -7.41057,3.62043 -4.18613,0 -6.84489,-2.65875 -2.60219,-2.71532 -2.60219,-6.78832 0,-4.35583 2.99817,-7.354 3.05474,-2.99817 7.24087,-2.99817 5.31751,0 8.42882,3.95985 3.16787,3.95985 3.16787,10.63501 0,7.24086 -3.28101,11.70984 -3.22446,4.46898 -8.99452,4.46898 -3.05473,0 -5.54378,-1.69709 -2.43247,-1.75366 -2.99817,-4.01642 l 4.80839,-0.7354 q 1.13138,2.14964 4.12955,2.14964 3.22446,0 5.03468,-2.7719 1.86678,-2.82846 1.86678,-7.5237 z m -0.90511,-5.93977 q 0,-2.88504 -1.47081,-4.52555 -1.41423,-1.64049 -3.95985,-1.64049 -2.20619,0 -3.79014,1.75363 -1.58393,1.69709 -1.58393,4.41241 0,2.37592 1.4708,3.95985 1.47081,1.52736 3.8467,1.52736 2.26278,0 3.84672,-1.52736 1.64051,-1.58393 1.64051,-3.95985 z m 15.97264,4.47502 A 21.750674,21.750674 0 0 1 612.25068,164.00135 21.750674,21.750674 0 0 1 590.5,142.25069 21.750674,21.750674 0 0 1 612.25068,120.5 a 21.750674,21.750674 0 0 1 21.75068,21.75069 z"
     inkscape:label="C04.9" />
  <path
     id="C04.8"
     style="font-size:33.2768px;font-family:'.Arial Hebrew Desk Interface';-inkscape-font-specification:'.Arial Hebrew Desk Interface, Normal';display:inline;fill:none;stroke:#000000;stroke-width:1;stroke-dasharray:none"
     d="m 606.21,80.958431 q -3.28102,-2.26276 -3.28102,-6.109462 0,-3.846722 2.77191,-5.883209 2.82845,-2.036487 6.50545,-2.036487 3.62044,0 6.44891,2.036487 2.82846,2.036487 2.82846,5.883209 0,3.846702 -3.28102,6.109462 v 0.05667 q 2.2062,1.018249 3.5073,3.054736 1.35765,1.97992 1.35765,4.355838 0,3.846712 -2.99816,6.618607 -2.99817,2.771895 -7.86314,2.771895 -5.03466,0 -7.97626,-2.771895 -2.88504,-2.828463 -2.88504,-6.618607 0,-2.375918 1.30111,-4.355838 1.35766,-2.036487 3.56385,-3.054736 z m 5.99634,-1.583931 q 1.69709,0 3.05474,-1.018239 1.41423,-1.018249 1.41423,-2.941609 0,-2.093066 -1.35766,-3.111305 -1.30108,-1.074827 -3.11131,-1.074827 -1.97992,0 -3.22444,1.131386 -1.24453,1.131385 -1.24453,3.054746 0,1.866782 1.35767,2.941609 1.41423,1.018239 3.1113,1.018239 z m 0,14.142317 q 2.14963,0 3.79014,-1.244522 1.64051,-1.244521 1.64051,-3.846711 0,-2.093068 -1.58393,-3.507305 -1.58394,-1.414226 -3.84672,-1.414226 -2.20619,0 -3.8467,1.414226 -1.58394,1.414237 -1.58394,3.507305 0,2.60219 1.64051,3.846711 1.64051,1.244522 3.79013,1.244522 z m 21.79499,-11.26614 A 21.750674,21.750674 0 0 1 612.25068,104.00136 21.750674,21.750674 0 0 1 590.5,82.250677 21.750674,21.750674 0 0 1 612.25068,60.5 21.750674,21.750674 0 0 1 634.00133,82.250677 Z"
     inkscape:label="C04.8" />
</svg>
