<?xml version="1.0" encoding="UTF-8" standalone="no"?>
<!-- Created with Inkscape (http://www.inkscape.org/) -->

<svg
   xmlns:dc="http://purl.org/dc/elements/1.1/"
   xmlns:cc="http://creativecommons.org/ns#"
   xmlns:rdf="http://www.w3.org/1999/02/22-rdf-syntax-ns#"
   xmlns:svg="http://www.w3.org/2000/svg"
   xmlns="http://www.w3.org/2000/svg"
   xmlns:sodipodi="http://sodipodi.sourceforge.net/DTD/sodipodi-0.dtd"
   xmlns:inkscape="http://www.inkscape.org/namespaces/inkscape"
   id="svg4136"
   version="1.1"
   inkscape:version="0.92.3 (2405546, 2018-03-11)"
   width="320"
   height="300"
   viewBox="0 0 320 300"
   sodipodi:docname="level3_C13.svg">
  <metadata
     id="metadata4142">
    <rdf:RDF>
      <cc:Work
         rdf:about="">
        <dc:format>image/svg+xml</dc:format>
        <dc:type
           rdf:resource="http://purl.org/dc/dcmitype/StillImage" />
        <dc:title></dc:title>
      </cc:Work>
    </rdf:RDF>
  </metadata>
  <defs
     id="defs4140" />
  <sodipodi:namedview
     pagecolor="#ffffff"
     bordercolor="#666666"
     borderopacity="1"
     objecttolerance="10"
     gridtolerance="10"
     guidetolerance="10"
     inkscape:pageopacity="0"
     inkscape:pageshadow="2"
     inkscape:window-width="1680"
     inkscape:window-height="987"
     id="namedview4138"
     showgrid="false"
     inkscape:zoom="2.4976744"
     inkscape:cx="105.65115"
     inkscape:cy="62.912456"
     inkscape:window-x="-8"
     inkscape:window-y="-8"
     inkscape:window-maximized="1"
     inkscape:current-layer="svg4136" />
  <path
     style="fill:none;fill-rule:evenodd;stroke:#000000;stroke-width:0.60000002;stroke-linecap:butt;stroke-linejoin:miter;stroke-miterlimit:4;stroke-dasharray:none;stroke-opacity:1"
     d="m 148.7862,197.19125 3.45536,-4.39506 3.47153,-4.87506 1.91533,-4.3619 1.19707,-2.95069 -0.35912,-4.74676 -2.15474,0.38487 -1.91533,6.79942 -4.23441,6.59606 -2.45913,1.72493 -5.03783,2.84033 -12.39573,2.22227"
     id="path4169"
     inkscape:connector-curvature="0"
     sodipodi:nodetypes="cccccccccccc" />
  <path
     style="fill:none;fill-rule:evenodd;stroke:#000000;stroke-width:0.60000002;stroke-linecap:butt;stroke-linejoin:miter;stroke-miterlimit:4;stroke-dasharray:none;stroke-opacity:1"
     d="m 52.164462,27.697265 -4.179694,16.400608 -2.70868,12.337299 4.40161,12.700161 1.69292,7.620096 -5.75594,12.700164 -10.15755,13.063017 -8.46463,8.70868 -2.70868,7.98296 4.06302,6.53151 5.07878,4.71721 5.41736,0.72572 2.70868,8.70868 -1.69293,5.80579 -1.69292,2.90289 3.04726,6.53151 3.38585,2.17717 -3.38585,3.62862 0.33859,6.89438 4.06302,3.62861 2.03151,1.81431 -0.33859,10.52299 -1.01575,10.88585 1.35434,7.6201 6.09453,5.44292 10.15754,1.81431 13.5434,1.45145 17.945,-1.45145 8.464632,0.36286 9.48038,5.08007 4.74019,12.70016 1.35434,9.07154 5.07877,7.25723 5.07878,11.24872 3.72443,13.42589 -5.13807,15.66583"
     id="path4150"
     inkscape:connector-curvature="0"
     sodipodi:nodetypes="cccccccccccccccccccccccccccccccccccc" />
  <path
     style="fill:none;fill-rule:evenodd;stroke:#000000;stroke-width:0.60000002;stroke-linecap:butt;stroke-linejoin:miter;stroke-miterlimit:4;stroke-dasharray:none;stroke-opacity:1"
     d="m 262.41429,27.856774 4.97354,10.072448 3.04726,10.16013 -0.67717,15.240192 -2.03151,13.425885 -5.07877,15.965913 -5.07878,14.151608 -6.09453,11.97444 -7.44887,10.88585 -6.7717,10.88586 -2.37009,13.78874 2.03151,16.32878 1.69292,19.95739 2.03151,12.70017 3.38585,13.78874 6.09453,13.06302 9.48038,10.88586 7.44887,6.16864 4.74019,4.35434"
     id="path4152"
     inkscape:connector-curvature="0"
     sodipodi:nodetypes="ccccccccccccccccccc" />
  <path
     style="fill:none;fill-rule:evenodd;stroke:#000000;stroke-width:0.60000002;stroke-linecap:butt;stroke-linejoin:miter;stroke-miterlimit:4;stroke-dasharray:none;stroke-opacity:1"
     d="m 31.085166,128.24429 7.080642,-6.49401 0.67717,-9.07154 6.43311,-9.4344 7.11029,-11.248718 8.46462,-14.877332 7.78745,-11.248713 10.15755,-3.628618 h 22.346612 l 17.945,0.725724 5.75595,7.620096 7.11028,11.611576 6.09453,7.257238 9.14179,5.805785 15.9135,5.442922 9.48038,3.26576 4.4016,11.61157 -0.62013,6.20814 -0.0627,4.2951 -0.23941,7.31259 -0.83796,7.31259 -0.59854,10.51986 -0.49777,6.3845 -0.66034,10.03693 0.16279,12.47615 -0.001,9.15192 0.30799,10.48614 1.88563,23.30731 1.18214,6.90182 2.49808,11.88851 3.74167,10.7166 5.50655,15.39492"
     id="path4154"
     inkscape:connector-curvature="0"
     sodipodi:nodetypes="cccccccccccccccccccccccccccccccc" />
  <path
     style="fill:none;fill-rule:evenodd;stroke:#000000;stroke-width:0.60000002;stroke-linecap:butt;stroke-linejoin:miter;stroke-miterlimit:4;stroke-dasharray:none;stroke-opacity:1"
     d="m 40.075298,111.07482 5.02773,-0.25658 4.90802,4.61848 0.95766,6.54284 -1.79562,2.69411 -5.14744,1.66778 -3.35182,4.10531 -0.47883,5.00335"
     id="path4164"
     inkscape:connector-curvature="0" />
  <path
     style="fill:none;fill-rule:evenodd;stroke:#000000;stroke-width:0.60000002;stroke-linecap:butt;stroke-linejoin:miter;stroke-miterlimit:4;stroke-dasharray:none;stroke-opacity:1"
     d="m 49.173088,124.67367 8.67882,-1.4112 13.46714,-0.1283 19.39267,0.1283 23.821862,0.51317 h 21.30801 l 9.09779,1.79606 9.57663,5.64481 6.46422,7.44088 3.83065,8.72379 0.71825,7.69745 -1.91759,2.14139 -1.35435,0.36286 -2.11615,-0.99787 -5.6713,-8.25511 -4.74204,-6.85011 -7.78102,-5.00335 -11.01312,-2.69411 -13.36958,0.12382 -16.92925,1.27001 -13.035522,1.81431 -11.51189,4.17291 -9.31108,4.89864 -4.90949,3.44718 -4.1944,0.18121 -3.35182,-2.18094 -0.83795,-6.02968 0.23941,-4.49018 -2.39416,-0.51317 0.23942,7.69746 -0.53521,9.14535 -6.52755,4.06863 3.95036,-0.64146 3.23211,2.56582 1.43649,6.54284 v 5.25993 1.5395 l 1.79562,-0.1283 1.31679,-7.31259 2.75328,-2.69411 4.18977,0.64146 2.27445,4.87506 1.4365,8.33891 2.39415,10.26328 -2.63357,8.98037 -4.07007,5.13164 -4.30948,-0.25658 -4.07007,-6.67113 -1.91532,-8.21063 1.91532,-4.36189 0.95767,-3.72044 v -2.69411 l -0.28334,-2.26297"
     id="path4166"
     inkscape:connector-curvature="0"
     sodipodi:nodetypes="ccccccccccccccccccccccccccccccccccccccccccccccccccccc" />
  <path
     style="fill:none;fill-rule:evenodd;stroke:#000000;stroke-width:0.60000002;stroke-linecap:butt;stroke-linejoin:miter;stroke-miterlimit:4;stroke-dasharray:none;stroke-opacity:1"
     d="m 57.911768,163.54584 -0.59854,-3.33557 0.59854,-4.61847 h 1.5562 l 0.95766,2.8224 0.83796,2.05265 0.95766,0.76975 0.35912,1.79608"
     id="path4168"
     inkscape:connector-curvature="0" />
  <path
     style="fill:none;fill-rule:evenodd;stroke:#000000;stroke-width:0.60000002;stroke-linecap:butt;stroke-linejoin:miter;stroke-miterlimit:4;stroke-dasharray:none;stroke-opacity:1"
     d="m 55.158488,148.02263 -1.4365,2.30924 -0.71825,2.8224 -0.23941,3.84873 1.43649,1.4112 2.15474,-2.18094 1.19708,-3.46386 1.5562,-1.41121 -0.1197,-1.79606"
     id="path4170"
     inkscape:connector-curvature="0" />
  <path
     style="fill:none;fill-rule:evenodd;stroke:#000000;stroke-width:0.60000002;stroke-linecap:butt;stroke-linejoin:miter;stroke-miterlimit:4;stroke-dasharray:none;stroke-opacity:1"
     d="m 63.221088,163.29795 1.52364,-0.36286 2.03151,4.17291 1.86221,4.7172 3.04727,1.45145 2.03151,-1.63288 -0.50788,-3.44718 -3.72443,-1.81431 -3.04727,-5.2615 -2.37009,-5.98722 2.2008,-5.44292 6.09453,-3.99148 11.51189,-3.81005 17.775712,-3.62862 17.60642,-0.72572 13.3741,1.63288 9.48038,5.44292 4.90948,8.89012 1.52363,9.79726 -0.16929,7.43867 0.95743,0.97991 0.61531,1.46811 0.20486,5.53494 -0.16929,3.26575 -2.79333,4.80792 -2.79332,2.54003 0.51745,3.56594 1.77974,-0.96964 1.04634,-0.64596 2.37009,-1.54216 4.35928,-6.80366 1.80954,-6.56723"
     id="path4172"
     inkscape:connector-curvature="0"
     sodipodi:nodetypes="cccccccccccccccccccccccccccccccc" />
  <path
     style="fill:none;fill-rule:evenodd;stroke:#000000;stroke-width:0.60000002;stroke-linecap:butt;stroke-linejoin:miter;stroke-miterlimit:4;stroke-dasharray:none;stroke-opacity:1"
     d="m 126.70578,195.95551 -2.62404,2.08645 -5.502,2.17717 -1.86222,2.63075 0.25394,3.62862 0.76182,2.63075 2.70867,0.81643 3.30121,-2.81217 1.43898,-3.62862 2.53939,-2.63075 2.2008,-2.72146 0.33858,-1.81431 -2.11615,-0.90715 z"
     id="path4174"
     inkscape:connector-curvature="0" />
  <path
     style="fill:none;fill-rule:evenodd;stroke:#000000;stroke-width:0.60000002;stroke-linecap:butt;stroke-linejoin:miter;stroke-miterlimit:4;stroke-dasharray:none;stroke-opacity:1"
     d="m 69.403718,186.76651 7.42189,1.15462 14.84377,0.51316 14.843782,1.28291 12.2102,2.69411 6.46422,3.33557 0.59854,1.02633"
     id="path4176"
     inkscape:connector-curvature="0" />
  <path
     style="fill:none;fill-rule:evenodd;stroke:#000000;stroke-width:0.60000002;stroke-linecap:butt;stroke-linejoin:miter;stroke-miterlimit:4;stroke-dasharray:none;stroke-opacity:1"
     d="m 62.460658,200.75023 h 5.9854 l 13.04815,0.25658 11.37225,1.15462 13.407282,2.30924 8.49926,2.18094 2.9927,2.30925"
     id="path4178"
     inkscape:connector-curvature="0" />
  <path
     style="fill:none;fill-rule:evenodd;stroke:#000000;stroke-width:0.60000002;stroke-linecap:butt;stroke-linejoin:miter;stroke-miterlimit:4;stroke-dasharray:none;stroke-opacity:1"
     d="m 149.05238,196.86266 -4.90948,6.53152 -9.1418,13.24445 -3.04726,6.71294 0.16929,4.35434 2.87797,6.35008 2.5394,5.2615 2.53938,7.98295 2.87797,6.35009 5.58665,7.43866 3.21656,5.26149 6.7717,12.51873"
     id="path4180"
     inkscape:connector-curvature="0" />
  <path
     style="fill:none;fill-rule:evenodd;stroke:#000000;stroke-width:0.60000002;stroke-linecap:butt;stroke-linejoin:miter;stroke-miterlimit:4;stroke-dasharray:none;stroke-opacity:1"
     d="m 135.08575,216.45719 -1.18505,-4.35433 -4.23231,-3.62863 -4.4016,-1.72358 -1.43899,0.0907"
     id="path4182"
     inkscape:connector-curvature="0" />
  <path
     style="fill:none;fill-rule:evenodd;stroke:#000000;stroke-width:0.60000002;stroke-linecap:butt;stroke-linejoin:miter;stroke-miterlimit:4;stroke-dasharray:none;stroke-opacity:1"
     d="m 120.35731,209.92568 1.18504,5.98722 1.60828,8.70868 0.50788,6.89438 1.1004,4.08219 2.96262,5.62436 4.23231,8.43653 2.3701,7.07581 2.70868,6.44079 2.53938,5.62436 0.50788,5.2615 -0.0847,6.53151"
     id="path4184"
     inkscape:connector-curvature="0" />
  <path
     style="fill:none;fill-rule:evenodd;stroke:#000000;stroke-width:0.60000002;stroke-linecap:butt;stroke-linejoin:miter;stroke-miterlimit:4;stroke-dasharray:none;stroke-opacity:1"
     d="m 176.90138,272.46489 -4.42919,-10.39156 -3.99093,-8.34669 -3.55892,-8.70983 -2.27445,-7.09168 -1.91897,-7.5909 -0.20588,-7.21487 -0.0216,-6.58934 -1.43649,-1.79607 -1.55621,0.19244 -1.91532,1.86022 -0.23942,8.21062 -0.47883,7.31259 2.39416,9.10866 5.02773,12.57251 3.83065,7.82576 3.95036,7.82575 0.71825,1.92436"
     id="path4188"
     inkscape:connector-curvature="0"
     sodipodi:nodetypes="cccccccccccccccccc" />
  <path
     style="fill:none;fill-rule:evenodd;stroke:#000000;stroke-width:0.60000002;stroke-linecap:butt;stroke-linejoin:miter;stroke-miterlimit:4;stroke-dasharray:none;stroke-opacity:1"
     d="m 135.36275,231.41178 5.86569,0.12829 5.86568,-0.51316 5.50657,-3.97703 -0.95767,-0.76974 -5.38685,2.43753 -5.02773,0.89804 -4.18978,0.38487 z"
     id="path4190"
     inkscape:connector-curvature="0" />
  <path
     style="fill:none;fill-rule:evenodd;stroke:#000000;stroke-width:0.60000002;stroke-linecap:butt;stroke-linejoin:miter;stroke-miterlimit:4;stroke-dasharray:none;stroke-opacity:1"
     d="m 158.51642,176.18952 1.81634,1.47712 0.52777,3.45507 -0.95766,6.92771 -2.87299,7.1843 -1.19709,7.82575 1.19709,7.82575 2.15474,3.97702"
     id="path4192"
     inkscape:connector-curvature="0"
     sodipodi:nodetypes="cccccccc" />
  <path
     style="fill:none;fill-rule:evenodd;stroke:#000000;stroke-width:0.60000002;stroke-linecap:butt;stroke-linejoin:miter;stroke-miterlimit:4;stroke-dasharray:none;stroke-opacity:1"
     d="m 172.34603,103.74921 3.8591,1.38571 3.80961,10.00013 -0.40622,5.78838 -0.19328,18.5037 -1.19707,16.93442 -0.73648,11.286 0.45861,8.74891 0.51728,11.52467 1.19708,17.19099 1.19708,17.44758 2.56464,11.94955 2.27394,8.13238 2.9063,9.22248 2.91114,8.92631 2.03301,6.67113"
     id="path4194"
     inkscape:connector-curvature="0"
     sodipodi:nodetypes="cccccccccccccccc" />
  <path
     style="fill:none;fill-rule:evenodd;stroke:#000000;stroke-width:0.60000002;stroke-linecap:butt;stroke-linejoin:miter;stroke-miterlimit:4;stroke-dasharray:none;stroke-opacity:1"
     d="m 70.720508,87.340991 15.39942,-4.856852 16.682282,1.264704 14.62585,-0.507951 10.75222,6.665916"
     id="path4198"
     inkscape:connector-curvature="0"
     sodipodi:nodetypes="ccccc" />
  <path
     style="fill:none;fill-rule:evenodd;stroke:#000000;stroke-width:0.60000002;stroke-linecap:butt;stroke-linejoin:miter;stroke-miterlimit:4;stroke-dasharray:none;stroke-opacity:1"
     d="m 74.072328,103.76223 12.74741,1.74898 17.418972,-1.74897 12.53671,1.61394 12.84135,1.46504"
     id="path4200"
     inkscape:connector-curvature="0"
     sodipodi:nodetypes="ccccc" />
  <path
     style="fill:none;fill-rule:evenodd;stroke:#000000;stroke-width:0.60000002;stroke-linecap:butt;stroke-linejoin:miter;stroke-miterlimit:4;stroke-dasharray:none;stroke-opacity:1"
     d="m 44.201942,269.97361 -0.13795,2.34519 v 2.20724 l 0.55181,2.06929 1.24157,2.48314 1.37953,2.06929 1.79338,1.93134 1.93133,1.51747 2.48315,1.37953 2.48314,0.68976 2.48315,0.2759 h 2.75905 l 1.79338,-0.13795 3.03495,-0.82771 2.20724,-1.10362 1.65543,-1.10362 1.65543,-1.37953 1.10362,-1.37952 1.51748,-2.897 0.82772,-2.06929 0.41385,-1.79338 v -2.6211 l -1.24157,-4.69039 -0.96567,-1.93133 -1.10362,-1.65543 -1.79338,-1.65543 -1.65543,-1.10362 -1.37952,-0.82771 -1.51748,-0.82772 -1.79338,-0.55181 -2.20724,-0.41386 -1.93134,-0.13795 -2.48314,0.27591 -2.48315,0.55181 -1.93133,0.82771 -1.93134,0.82772 -2.20724,1.93133 -1.37952,1.37953 -1.24157,1.51747 -0.96567,1.93134 -0.68976,1.37952 z"
     id="C13.9"
     inkscape:connector-curvature="0"
     inkscape:label="#path4217-8" />
  <path
     style="fill:none;fill-rule:evenodd;stroke:#000000;stroke-width:0.60000002;stroke-linecap:butt;stroke-linejoin:miter;stroke-miterlimit:4;stroke-dasharray:none;stroke-opacity:1"
     d="m 44.534758,230.48775 -0.13795,2.34519 v 2.20724 l 0.55181,2.06929 1.24157,2.48314 1.37953,2.06929 1.79338,1.93134 1.93133,1.51747 2.48315,1.37953 2.48314,0.68976 2.48315,0.2759 h 2.75905 l 1.79338,-0.13795 3.03495,-0.82771 2.20724,-1.10362 1.65543,-1.10362 1.65543,-1.37953 1.10362,-1.37952 1.51748,-2.897 0.82772,-2.06929 0.41385,-1.79338 v -2.6211 l -1.24157,-4.69039 -0.96567,-1.93133 -1.10362,-1.65543 -1.79338,-1.65543 -1.65543,-1.10362 -1.37952,-0.82771 -1.51748,-0.82772 -1.79338,-0.55181 -2.20724,-0.41386 -1.93134,-0.13795 -2.48314,0.27591 -2.48315,0.55181 -1.93133,0.82771 -1.93134,0.82772 -2.20724,1.93133 -1.37952,1.37953 -1.24157,1.51747 -0.96567,1.93134 -0.68976,1.37952 z"
     id="C13.8"
     inkscape:connector-curvature="0"
     inkscape:label="#path4217" />
  <path
     id="path4223"
     style="fill:none;fill-rule:evenodd;stroke:#000000;stroke-width:0.60000002;stroke-linecap:butt;stroke-linejoin:miter;stroke-miterlimit:4;stroke-dasharray:none;stroke-opacity:1"
     d="m 64.206585,272.84244 c 0.19799,0.81664 0.14036,0.58999 0.13675,0.89527 -0.023,1.94651 0.0397,0.98415 -0.0188,1.62642 l -0.0228,1.24429 -0.17917,1.23727 -0.68593,1.14441 -1.25131,0.889 -1.60953,0.63406 c -0.6178,0.13006 -1.13567,0.36481 -1.95094,0.24387 l -2.09135,-0.60143 c 0,0 0.29264,0.0732 0.38427,-0.1303 m 0.5751,-14.14422 -0.90505,1.21933 -0.45487,1.60953 -0.0929,1.51198 0.33203,1.60953 1.09362,1.41444 1.3487,0.68283 1.29993,0.14632 1.70114,-0.25469 c 0.47237,-0.13025 1.39665,-0.37835 1.39665,-0.37835 -0.0437,-0.1135 1.12868,-0.0773 1.11952,-0.43647 -0.0339,-1.32844 -0.0348,-2.22472 0.0145,-3.27135 0.0491,1.07848 -0.004,-2.32487 -0.81037,-2.97518 l -1.3534,-1.26812 -1.44625,-0.48773 -1.88052,0.14627 z"
     inkscape:connector-curvature="0"
     sodipodi:nodetypes="csccccccccccccccccccsscccccc" />
  <path
     style="fill:none;fill-rule:evenodd;stroke:#000000;stroke-width:0.60000002;stroke-linecap:butt;stroke-linejoin:miter;stroke-miterlimit:4;stroke-dasharray:none;stroke-opacity:1"
     d="m 57.218848,228.32991 -0.0975,0.97547 0.0975,1.4632 1.02425,1.17057 1.36566,0.78038 1.17056,0.63405 1.21934,0.78038 1.02424,0.78038 0.78038,1.21934 0.39019,1.51197 -0.24387,1.65831 -0.82915,1.36566 -1.36566,0.78037 -1.51198,0.0488 -1.21934,-0.24387 -1.36566,-0.87792 -0.7316,-1.17056 -0.19509,-1.60954 0.14632,-1.46321 0.78038,-1.26811 1.07301,-0.87793 1.07302,-0.48773 1.6583,-0.58524 1.17057,-0.82915 0.87792,-1.17057 0.43897,-1.56075 -0.24387,-1.41443 -0.97547,-1.21934 -1.36566,-0.68283 -1.46321,-0.0488 -1.46321,0.43897 -0.82915,0.97547 z"
     id="path4230"
     inkscape:connector-curvature="0"
     sodipodi:nodetypes="ccccccccccccccccccccccccccccccccc" />
  <path
     style="fill:none;fill-rule:evenodd;stroke:#000000;stroke-width:0.60000002;stroke-linecap:butt;stroke-linejoin:miter;stroke-miterlimit:4;stroke-dasharray:none;stroke-opacity:1"
     d="m 163.06026,100.79047 0.91089,6.7661 3.62764,4.74411 3.39728,3.53882 3.68038,0.99087 h 2.12329"
     id="path4163"
     inkscape:connector-curvature="0"
     sodipodi:nodetypes="cccccc" />
  <path
     style="fill:none;fill-rule:evenodd;stroke:#000000;stroke-width:0.60000002;stroke-linecap:butt;stroke-linejoin:miter;stroke-miterlimit:4;stroke-dasharray:none;stroke-opacity:1"
     d="m 161.80959,125.47601 -0.46278,-4.0626 -1.09521,-5.08741 -3.27334,-2.9012 -4.69749,0.75811 1.14115,3.99934 2.22455,2.0735 2.78958,1.6786 1.71077,2.47236 z"
     id="path4171"
     inkscape:connector-curvature="0"
     sodipodi:nodetypes="cccccccccc" />
  <path
     style="fill:none;fill-rule:evenodd;stroke:#000000;stroke-width:0.60000002;stroke-linecap:butt;stroke-linejoin:miter;stroke-miterlimit:4;stroke-dasharray:none;stroke-opacity:1"
     d="m 168.37733,102.56891 1.09704,4.17581 -1.38014,1.8048 -2.68951,0.84932"
     id="path4175"
     inkscape:connector-curvature="0"
     sodipodi:nodetypes="cccc" />
  <path
     style="fill:none;fill-rule:evenodd;stroke:#000000;stroke-width:0.60000002;stroke-linecap:butt;stroke-linejoin:miter;stroke-miterlimit:4;stroke-dasharray:none;stroke-opacity:1"
     d="m 168.34195,108.3018 3.22033,3.29111 1.98174,-0.35388 1.2032,-1.62786"
     id="path4177"
     inkscape:connector-curvature="0" />
  <path
     style="fill:none;fill-rule:evenodd;stroke:#000000;stroke-width:0.60000002;stroke-linecap:butt;stroke-linejoin:miter;stroke-miterlimit:4;stroke-dasharray:none;stroke-opacity:1"
     d="m 171.52689,111.53983 2.44179,2.60103 0.28311,1.59248 0.0708,0.99087"
     id="path4179"
     inkscape:connector-curvature="0"
     sodipodi:nodetypes="cccc" />
  <path
     style="fill:none;fill-rule:evenodd;stroke:#000000;stroke-width:0.60000002;stroke-linecap:butt;stroke-linejoin:miter;stroke-miterlimit:4;stroke-dasharray:none;stroke-opacity:1"
     d="m 173.6148,178.12284 -0.0354,6.68838 0.0588,4.42227 0.1182,3.82319 0.21233,5.94523 0.70776,9.83794 0.35389,3.75115 0.2831,4.24659 5.16669,-0.0708 -0.77854,-12.10278 -0.99087,-13.02288 -0.49544,-11.53657 -0.14155,-1.91097 z"
     id="C13.2"
     inkscape:connector-curvature="0"
     sodipodi:nodetypes="cccccccccccccc"
     inkscape:label="#path4167" />
  <path
     style="fill:none;fill-rule:evenodd;stroke:#000000;stroke-width:0.60000002;stroke-linecap:butt;stroke-linejoin:miter;stroke-miterlimit:4;stroke-dasharray:none;stroke-dashoffset:0;stroke-opacity:1"
     d="m 160.3442,177.66279 -1.76941,-1.34475 0.2831,4.28198 -3.18494,7.46692 -7.39615,10.08565 -3.99258,5.00733 -9.15852,13.36243 20.56913,0.20018 1.75163,-1.70158 1.70159,-0.35033 -2.15201,-3.85358 -1.15107,-7.65712 1.25117,-7.95741 2.75256,-7.15665 1.05098,-7.05657 z"
     id="C13.1"
     inkscape:connector-curvature="0"
     sodipodi:nodetypes="cccccccccccccccc"
     inkscape:label="#path4173" />
  <path
     style="fill:none;fill-rule:evenodd;stroke:#000000;stroke-width:0.60000002;stroke-linecap:butt;stroke-linejoin:miter;stroke-miterlimit:4;stroke-dasharray:0.60000002, 0.60000002;stroke-dashoffset:0;stroke-opacity:1"
     d="m 160.59192,225.21056 0.14155,5.42845 2.1233,7.78542 1.94653,6.17403 h 15.66458 l -1.00093,-2.70251 -1.604,-7.8992 -0.71124,-3.25966 -0.93779,-5.40655 z"
     id="C13.0"
     inkscape:connector-curvature="0"
     sodipodi:nodetypes="cccccccccc"
     inkscape:label="#path4181" />
</svg>
