<?xml version="1.0" encoding="UTF-8" standalone="no"?>
<!-- Created with Inkscape (http://www.inkscape.org/) -->

<svg
   id="svg4136"
   version="1.1"
   inkscape:version="1.3 (0e150ed, 2023-07-21)"
   width="700"
   height="750"
   viewBox="0 0 700 750"
   sodipodi:docname="level3_C06_06.01.svg"
   xmlns:inkscape="http://www.inkscape.org/namespaces/inkscape"
   xmlns:sodipodi="http://sodipodi.sourceforge.net/DTD/sodipodi-0.dtd"
   xmlns="http://www.w3.org/2000/svg"
   xmlns:svg="http://www.w3.org/2000/svg"
   xmlns:rdf="http://www.w3.org/1999/02/22-rdf-syntax-ns#"
   xmlns:cc="http://creativecommons.org/ns#"
   xmlns:dc="http://purl.org/dc/elements/1.1/">
  <metadata
     id="metadata4142">
    <rdf:RDF>
      <cc:Work
         rdf:about="">
        <dc:format>image/svg+xml</dc:format>
        <dc:type
           rdf:resource="http://purl.org/dc/dcmitype/StillImage" />
      </cc:Work>
    </rdf:RDF>
  </metadata>
  <defs
     id="defs4140">
    <marker
       inkscape:stockid="Arrow1Lstart"
       orient="auto"
       refY="0"
       refX="0"
       id="Arrow1Lstart"
       style="overflow:visible"
       inkscape:isstock="true">
      <path
         id="path4153"
         d="M 0,0 5,-5 -12.5,0 5,5 Z"
         style="fill:#000000;fill-opacity:1;fill-rule:evenodd;stroke:#000000;stroke-width:1pt;stroke-opacity:1"
         transform="matrix(0.8,0,0,0.8,10,0)"
         inkscape:connector-curvature="0" />
    </marker>
  </defs>
  <sodipodi:namedview
     pagecolor="#ffffff"
     bordercolor="#666666"
     borderopacity="1"
     objecttolerance="10"
     gridtolerance="10"
     guidetolerance="10"
     inkscape:pageopacity="0"
     inkscape:pageshadow="2"
     inkscape:window-width="1344"
     inkscape:window-height="759"
     id="namedview4138"
     showgrid="false"
     inkscape:zoom="0.70699008"
     inkscape:cx="326.03003"
     inkscape:cy="240.45599"
     inkscape:window-x="0"
     inkscape:window-y="25"
     inkscape:window-maximized="0"
     inkscape:current-layer="svg4136"
     inkscape:showpageshadow="2"
     inkscape:pagecheckerboard="0"
     inkscape:deskcolor="#d1d1d1" />
  <path
     style="fill:none;fill-rule:evenodd;stroke:#000000;stroke-width:1.41249;stroke-linecap:butt;stroke-linejoin:miter;stroke-miterlimit:4;stroke-dasharray:none;stroke-opacity:1"
     d="m 233.65177,455.556 c 0,0 -6.2983,-37.63897 -3.24643,-56.65541 1.88615,-11.75275 6.5769,-23.32571 13.3287,-33.12867 3.83297,-5.5651 9.55345,-9.60812 14.87373,-13.77424 3.14967,-2.46639 6.34546,-5.03038 10.02798,-6.59323 7.47327,-3.17164 15.70985,-4.30914 23.76242,-5.34124 9.62572,-1.23373 19.58402,-2.90498 29.0967,-0.98525 3.82954,0.77283 7.6736,2.36948 10.64292,4.90833 9.06644,7.8702 7.11795,21.74221 9.55962,32.68275 1.29313,5.29046 1.22705,9.81335 5.31513,14.47462 1.86974,2.13191 6.80909,5.38441 10.29492,5.21488 3.48583,-0.16954 7.45036,-2.72005 9.27197,-5.11472 3.50421,-4.6066 4.20165,-9.69122 4.23958,-14.64628 0.0659,-8.60673 -2.07986,-24.26581 4.83715,-32.56643 2.16088,-2.59312 5.48261,-4.24434 8.74739,-5.10159 9.63112,-2.52889 19.96582,-0.60203 29.86969,0.43098 10.19676,1.06355 20.52603,2.46904 30.18267,5.91206 6.89661,2.45895 13.82456,5.58079 19.36481,10.36777 5.08625,4.39471 8.74479,10.32595 11.99716,16.2086 2.87233,5.19526 5.21228,10.78758 6.48844,16.5852 2.30713,10.48139 1.9271,21.4059 1.94385,32.1382 0.0179,11.44298 -1.96557,34.27267 -1.96557,34.27267"
     id="path4231"
     inkscape:connector-curvature="0"
     sodipodi:nodetypes="cssssssszszssssssssssc" />
  <path
     style="fill:none;fill-rule:evenodd;stroke:#000000;stroke-width:1.41249;stroke-linecap:butt;stroke-linejoin:miter;stroke-miterlimit:4;stroke-dasharray:none;stroke-opacity:1"
     d="m 464.37772,537.39621 c 1.56459,-2.12182 6.09459,-5.04048 6.09459,-5.04048 0,0 2.43375,-7.92413 3.55516,-11.91385 0.89764,-3.19363 0.58988,-6.93861 2.5394,-9.62271 0.82851,-1.1407 3.55518,-2.29114 3.55518,-2.29114 0,0 0.40195,-8.37116 1.52365,-12.37208 1.22152,-4.35699 5.58671,-12.37208 5.58671,-12.37208 0,0 -1.23184,-10.64075 1.01577,-15.19079 1.58614,-3.21096 4.55674,-6.43032 8.07795,-7.08392 3.7418,-0.69454 6.9099,4.06763 10.71367,3.94572 3.79824,-0.12174 6.64475,-5.01666 10.42386,-4.61696 4.67509,0.49446 9.60303,3.94486 11.4151,8.28276 3.45439,8.26944 -2.36636,17.77718 -4.06305,26.57704 -1.12838,5.85231 -0.82676,12.40764 -4.06306,17.41255 -1.50347,2.32511 -6.60246,5.04048 -6.60246,5.04048 0,0 1.96961,13.2718 -1.01576,18.78724 -3.19746,5.90726 -16.25225,11.91385 -16.25225,11.91385 0,0 -2.15543,8.12876 -4.57095,11.45562 -1.68276,2.31764 -3.93605,4.45303 -6.60245,5.4987 -2.6831,1.05221 -8.63399,0.45825 -8.63399,0.45825 0,0 -0.80279,9.9983 -4.06306,13.2885 -2.49922,2.52216 -6.6353,2.75988 -10.15765,3.20758 -2.85905,0.36339 -8.634,-0.45821 -8.634,-0.45821 0,0 -1.30755,8.22619 -4.06305,10.99739 -3.06058,3.07803 -7.86133,4.91585 -12.18916,4.58225 -4.65072,-0.35849 -12.18919,-6.87337 -12.18919,-6.87337 0,0 -2.51925,6.27992 -5.07883,8.24805 -2.94302,2.26296 -6.96734,3.5333 -10.66548,3.20759 -4.72362,-0.41603 -12.69711,-6.41516 -12.69711,-6.41516 0,0 -6.03743,4.84319 -9.64973,5.95692 -3.23888,0.9986 -7.01037,1.71607 -10.15766,0.45824 -2.95006,-1.17901 -6.60246,-6.8734 -6.60246,-6.8734 0,0 -5.27104,5.17174 -8.63399,6.41516 -4.13842,1.53015 -8.93162,2.01483 -13.20496,0.91645 -2.73089,-0.70193 -7.11034,-4.58225 -7.11034,-4.58225 0,0 -6.26542,3.04463 -9.64975,3.6658 -4.16281,0.76406 -8.7212,1.45102 -12.69704,0 -3.11864,-1.13817 -7.61825,-6.41516 -7.61825,-6.41516 0,0 -5.35813,4.54413 -8.63398,5.4987 -2.60055,0.75779 -5.64965,1.09734 -8.12613,0 -4.14735,-1.83771 -9.14188,-10.08094 -9.14188,-10.08094 0,0 -12.12255,-0.35922 -17.77587,-2.29113 -3.71428,-1.26928 -7.60308,-2.9768 -10.15765,-5.95693 -2.99353,-3.4922 -5.07881,-12.83027 -5.07881,-12.83027 0,0 -9.31292,-1.65092 -13.20494,-4.12406 -4.02021,-2.55459 -6.8678,-6.67282 -9.64975,-10.53918 -2.03983,-2.83497 -5.0788,-9.16448 -5.0788,-9.16448 0,0 -10.36584,-0.24908 -14.22074,-3.20761 -2.60022,-1.9956 -3.65664,-5.5586 -4.57093,-8.70624 -1.15422,-3.97367 -0.0293,-8.3535 -1.01575,-12.37209 -0.83007,-3.38139 -2.37272,-6.57878 -4.06305,-9.62273 -1.99632,-3.59498 -5.20797,-6.43539 -7.11037,-10.08095 -2.97756,-5.70587 -4.74703,-11.983 -6.57797,-18.15313 -0.27069,-0.91221 -0.75409,-1.83419 -0.6488,-2.77988 0.31012,-2.78548 1.41043,-5.90245 3.66514,-7.56719 4.05293,-2.99245 10.15063,-0.72622 14.93904,-2.29214 3.82074,-1.24947 6.70542,-5.09555 10.69747,-5.56753 3.19017,-0.37718 6.84924,0.31725 9.35053,2.33294 1.68602,1.3587 2.2472,3.75261 2.87631,5.82455 1.43648,4.73102 1.93568,14.70602 1.93568,14.70602 0,0 2.20539,5.05791 3.33494,7.57493 0.96514,2.15065 1.83412,4.35006 2.94117,6.43122 0.88793,1.66924 2.18139,3.11574 2.95899,4.83914 1.01905,2.25854 2.18885,7.1038 2.18885,7.1038 0,0 5.59334,9.24592 7.54166,14.25663 0.68765,1.7685 1.43651,5.50823 1.43651,5.50823 0,0 6.14454,1.682 8.61907,3.56413 2.94355,2.23886 5.19953,5.42573 6.82339,8.74839 1.07591,2.20149 1.79563,7.12832 1.79563,7.12832 0,0 8.00057,-0.2603 11.85118,0.64803 3.1742,0.74877 6.42504,1.85898 8.97817,3.88819 1.89234,1.50401 4.30953,5.83222 4.30953,5.83222 0,0 7.3093,0.79765 10.77381,1.94411 2.53742,0.83967 7.18254,3.56414 7.18254,3.56414 0,0 8.56971,-1.88864 12.92856,-2.26808 2.86219,-0.24916 5.76369,-0.31802 8.61905,0 2.92709,0.32601 8.61905,1.94406 8.61905,1.94406 0,0 10.74759,-2.31397 16.16071,-1.94406 3.82724,0.26154 11.13293,2.91611 11.13293,2.91611 0,0 17.96998,-3.09907 26.57539,-0.97205 1.47405,0.36434 3.95041,2.26811 3.95041,2.26811 0,0 15.27725,-3.92381 22.98411,-3.24012 1.38044,0.12246 3.95041,1.29603 3.95041,1.29603 0,0 9.74621,-8.88087 15.80156,-11.01646 1.47115,-0.51884 4.66867,-0.32401 4.66867,-0.32401 0,0 6.66183,-3.78728 9.69642,-6.10726 1.03344,-0.79008 1.72167,-1.9577 2.41177,-3.05696 2.31575,-3.68879 3.13154,-8.23487 5.72141,-11.7471 z"
     id="path4455"
     inkscape:connector-curvature="0"
     sodipodi:nodetypes="scsscscssssssscscsscsscsscsscsscsscsscsscsscsscsssssssssssscssscscsscsscscsscscscscscsss" />
  <path
     style="fill:none;fill-rule:evenodd;stroke:#000000;stroke-width:1.41249;stroke-linecap:butt;stroke-linejoin:miter;stroke-miterlimit:4;stroke-dasharray:none;stroke-opacity:1"
     d="m 487.43927,483.98863 c 0,0 8.22265,3.37743 12.43918,2.38775 3.85387,-0.90455 6.11417,-5.94942 10.05555,-6.31826 3.9698,-0.3715 7.9695,1.94728 11.13295,4.3742 2.07768,1.59394 4.93214,6.88293 4.93214,6.88293"
     id="path4457"
     inkscape:connector-curvature="0"
     sodipodi:nodetypes="csssc" />
  <path
     style="fill:none;fill-rule:evenodd;stroke:#000000;stroke-width:1.41249;stroke-linecap:butt;stroke-linejoin:miter;stroke-miterlimit:4;stroke-dasharray:none;stroke-opacity:1"
     d="m 479.94692,508.57138 c 0,0 5.33322,1.1916 7.9008,2.10604 1.97942,0.70497 3.64512,2.55579 5.74602,2.59214 3.55754,0.0616 6.31872,-4.12649 9.87597,-4.05019 2.96536,0.0636 5.93426,1.67883 8.08036,3.72618 1.40905,1.34422 2.69347,5.18423 2.69347,5.18423"
     id="path4459"
     inkscape:connector-curvature="0"
     sodipodi:nodetypes="cssssc" />
  <path
     style="fill:none;fill-rule:evenodd;stroke:#000000;stroke-width:1.41249;stroke-linecap:butt;stroke-linejoin:miter;stroke-miterlimit:4;stroke-dasharray:none;stroke-opacity:1"
     d="m 470.21874,532.69075 c 0,0 7.47199,-0.44166 11.16467,0.0211 3.06279,0.38382 6.58797,0.31494 8.97819,2.26811 3.93203,3.21305 6.59895,13.73008 6.59895,13.73008"
     id="path4461"
     inkscape:connector-curvature="0"
     sodipodi:nodetypes="cssc" />
  <path
     style="fill:none;fill-rule:evenodd;stroke:#000000;stroke-width:1.41249;stroke-linecap:butt;stroke-linejoin:miter;stroke-miterlimit:4;stroke-dasharray:none;stroke-opacity:1"
     d="m 458.65913,549.05545 c 0,0 5.63617,-1.49864 8.35921,-1.27839 2.57557,0.20833 5.54993,0.91324 7.18254,2.91613 3.33091,4.08636 2.87301,15.55266 2.87301,15.55266"
     id="path4463"
     inkscape:connector-curvature="0"
     sodipodi:nodetypes="cssc" />
  <path
     style="fill:none;fill-rule:evenodd;stroke:#000000;stroke-width:1.41249;stroke-linecap:butt;stroke-linejoin:miter;stroke-miterlimit:4;stroke-dasharray:none;stroke-opacity:1"
     d="m 446.36854,558.46952 c 0,0 2.67878,2.67639 3.77084,4.2122 1.07335,1.5095 2.22979,3.06695 2.69347,4.86018 0.67594,2.61415 -0.25212,5.41204 0,8.10037 0.21041,2.24354 1.25693,6.64228 1.25693,6.64228"
     id="path4465"
     inkscape:connector-curvature="0"
     sodipodi:nodetypes="csssc" />
  <path
     style="fill:none;fill-rule:evenodd;stroke:#000000;stroke-width:1.41249;stroke-linecap:butt;stroke-linejoin:miter;stroke-miterlimit:4;stroke-dasharray:none;stroke-opacity:1"
     d="m 425.71876,569.648 c 0,0 0.42666,5.18234 0.35913,7.77633 -0.0636,2.44105 -0.66597,4.84901 -0.71827,7.29032 -0.0463,2.16292 0.35914,6.48029 0.35914,6.48029"
     id="path4467"
     inkscape:connector-curvature="0"
     sodipodi:nodetypes="cssc" />
  <path
     style="fill:none;fill-rule:evenodd;stroke:#000000;stroke-width:1.41249;stroke-linecap:butt;stroke-linejoin:miter;stroke-miterlimit:4;stroke-dasharray:none;stroke-opacity:1"
     d="m 398.9638,571.75408 c 0,0 -1.34619,8.39866 -1.61608,12.63657 -0.24712,3.8803 0,11.66449 0,11.66449"
     id="path4469"
     inkscape:connector-curvature="0"
     sodipodi:nodetypes="csc" />
  <path
     style="fill:none;fill-rule:evenodd;stroke:#000000;stroke-width:1.41249;stroke-linecap:butt;stroke-linejoin:miter;stroke-miterlimit:4;stroke-dasharray:none;stroke-opacity:1"
     d="m 368.87438,570.45804 1.89797,25.43509"
     id="path4471"
     inkscape:connector-curvature="0"
     sodipodi:nodetypes="cc" />
  <path
     style="fill:none;fill-rule:evenodd;stroke:#000000;stroke-width:1.41249;stroke-linecap:butt;stroke-linejoin:miter;stroke-miterlimit:4;stroke-dasharray:none;stroke-opacity:1"
     d="m 340.9648,569.32398 0.89782,28.99927"
     id="path4473"
     inkscape:connector-curvature="0" />
  <path
     style="fill:none;fill-rule:evenodd;stroke:#000000;stroke-width:1.41249;stroke-linecap:butt;stroke-linejoin:miter;stroke-miterlimit:4;stroke-dasharray:none;stroke-opacity:1"
     d="m 310.9777,569.48599 c 0,0 -0.75431,9.82988 -0.5387,14.74264 0.16942,3.86024 1.43652,11.50251 1.43652,11.50251"
     id="path4475"
     inkscape:connector-curvature="0"
     sodipodi:nodetypes="csc" />
  <path
     style="fill:none;fill-rule:evenodd;stroke:#000000;stroke-width:1.41249;stroke-linecap:butt;stroke-linejoin:miter;stroke-miterlimit:4;stroke-dasharray:none;stroke-opacity:1"
     d="m 293.38048,564.13975 c 0,0 -6.4708,1.29257 -8.25992,3.72618 -2.35221,3.19954 -1.68234,7.86298 -1.4365,11.82651 0.24466,3.94438 2.87303,11.5025 2.87303,11.5025"
     id="path4477"
     inkscape:connector-curvature="0"
     sodipodi:nodetypes="cssc" />
  <path
     style="fill:none;fill-rule:evenodd;stroke:#000000;stroke-width:1.41249;stroke-linecap:butt;stroke-linejoin:miter;stroke-miterlimit:4;stroke-dasharray:none;stroke-opacity:1"
     d="m 268.4967,553.6689 c 0,0 -6.18649,0.52447 -8.69458,2.0465 -2.02492,1.22882 -3.42097,3.39414 -4.48908,5.50825 -1.40813,2.78711 -2.33434,9.07238 -2.33434,9.07238"
     id="path4479"
     inkscape:connector-curvature="0"
     sodipodi:nodetypes="cssc" />
  <path
     style="fill:none;fill-rule:evenodd;stroke:#000000;stroke-width:1.41249;stroke-linecap:butt;stroke-linejoin:miter;stroke-miterlimit:4;stroke-dasharray:none;stroke-opacity:1"
     d="m 225.32596,545.99499 c 0,0 1.20726,-4.58379 2.3343,-6.6423 1.11955,-2.04484 2.13415,-4.67007 4.30951,-5.50826 4.13778,-1.59434 8.68193,2.53578 13.10816,2.2681 2.05882,-0.12451 5.92556,-1.78206 5.92556,-1.78206"
     id="path4481"
     inkscape:connector-curvature="0"
     sodipodi:nodetypes="csssc" />
  <path
     style="fill:none;fill-rule:evenodd;stroke:#000000;stroke-width:1.41249;stroke-linecap:butt;stroke-linejoin:miter;stroke-miterlimit:4;stroke-dasharray:none;stroke-opacity:1"
     d="m 202.47267,514.6973 c 0,0 3.52636,-4.45251 5.79475,-5.15392 4.4539,-1.37718 9.1653,2.01555 13.82638,2.10612 4.8178,0.0936 9.74554,-2.99122 14.36506,-1.62008 2.25613,0.66965 5.44803,4.49068 5.44803,4.49068"
     id="path4483"
     inkscape:connector-curvature="0"
     sodipodi:nodetypes="csssc" />
  <path
     style="fill:none;fill-rule:evenodd;stroke:#000000;stroke-width:1.41249;stroke-linecap:butt;stroke-linejoin:miter;stroke-miterlimit:4;stroke-dasharray:none;stroke-opacity:1"
     d="m 193.30868,499.50325 c 0,0 3.30435,-6.14992 6.2262,-7.66698 3.23441,-1.67934 7.35535,0.062 10.90711,-0.75446 3.43872,-0.79046 6.30652,-3.61878 9.81896,-3.95406 3.35993,-0.32072 10.20631,1.51644 10.20631,1.51644"
     id="path4485"
     inkscape:connector-curvature="0"
     sodipodi:nodetypes="csssc" />
  <path
     style="fill:none;fill-rule:evenodd;stroke:#000000;stroke-width:1.41249;stroke-linecap:butt;stroke-linejoin:miter;stroke-miterlimit:4;stroke-dasharray:none;stroke-opacity:1"
     d="m 357.21297,315.20649 -1.52603,-56.20435 v 0"
     id="path4487"
     inkscape:connector-curvature="0"
     sodipodi:nodetypes="ccc" />
  <path
     style="fill:none;fill-rule:evenodd;stroke:#000000;stroke-width:1.41249;stroke-linecap:butt;stroke-linejoin:miter;stroke-miterlimit:4;stroke-dasharray:none;stroke-opacity:1"
     d="m 314.74853,209.02037 c 3.59128,0 83.31744,-0.64803 83.31744,-0.64803"
     id="path4489"
     inkscape:connector-curvature="0" />
  <path
     style="fill:none;fill-rule:evenodd;stroke:#000000;stroke-width:1.41249;stroke-linecap:butt;stroke-linejoin:miter;stroke-miterlimit:4;stroke-dasharray:none;stroke-opacity:1"
     d="m 293.0198,250.49415 33.03968,-20.06098 56.02379,-0.67592 33.03969,17.49678"
     id="path4491"
     inkscape:connector-curvature="0"
     sodipodi:nodetypes="cccc" />
  <path
     style="fill:none;fill-rule:evenodd;stroke:#000000;stroke-width:1.41249;stroke-linecap:butt;stroke-linejoin:miter;stroke-miterlimit:4;stroke-dasharray:none;stroke-opacity:1"
     d="m 540.24237,551.55844 c -7.79773,14.67938 -16.60882,28.84662 -26.13024,42.47128 -7.9216,11.33539 -16.07893,22.63624 -25.70883,32.56135 -12.13595,12.50798 -24.81978,25.13031 -40.0383,33.6231 -12.79223,7.13878 -27.32825,11.08988 -41.72413,13.80321 -21.8434,4.11703 -44.51305,6.12599 -66.59003,3.53928 -11.19999,-1.31228 -22.03113,-5.24733 -32.45211,-9.55605 -17.58276,-7.26987 -34.78184,-15.35422 -51.35248,-24.704 -11.13441,-6.28246 -22.21368,-13.58142 -31.89894,-21.92649 -11.01713,-9.49264 -19.7151,-21.61027 -27.36683,-33.97709 -10.65672,-17.22353 -18.6626,-36.10435 -25.33524,-55.22742 -7.70259,-22.07477 -10.8729,-45.48158 -16.76404,-68.10723 -2.55517,-9.81343 -5.95988,-19.41406 -8.05855,-29.33515 -2.63823,-12.47179 -5.22351,-25.08062 -5.67085,-37.82054 -0.86468,-24.62522 -0.099,-49.44058 2.6862,-73.94397 2.35247,-20.69613 5.89285,-41.40444 11.93859,-61.33716 4.8574,-16.01477 11.52295,-31.54055 19.4002,-46.30592 10.71087,-20.07679 23.15042,-39.39997 37.6066,-56.97322 12.14944,-14.76912 25.49133,-28.90357 40.88967,-40.24494 13.90695,-10.24291 29.38943,-18.705148 45.66512,-24.486369 11.26608,-4.001779 23.3083,-5.75045 35.21887,-6.788304 14.57157,-1.269726 29.31444,-0.670024 43.87432,0.727319 13.87804,1.331905 27.89568,3.068023 41.18818,7.27318 11.62644,3.67809 22.92083,8.846574 33.12964,15.516114 11.2941,7.37857 20.87309,17.15994 30.44338,26.66833 9.88802,9.82408 19.20351,20.26926 27.75723,31.27468 7.72771,9.94265 14.97561,20.32284 21.19101,31.27467 7.65981,13.49696 14.094,27.71281 19.6987,42.18444 4.83011,12.47158 8.54812,25.36804 11.93864,38.30538 1.31525,5.01865 2.60639,10.07306 3.25198,15.22087 1.31513,10.48655 0.98379,21.11627 1.23721,31.68192 0.30662,12.78392 0.3056,25.57372 0.34255,38.36127 0.0427,14.77019 0.21833,29.54462 -0.13961,44.31054 -0.31865,13.14485 -1.00508,26.2802 -1.78717,39.40564 -0.48683,8.17021 -0.9959,16.34314 -1.8082,24.48743 -1.09074,10.93597 -1.12911,22.13594 -4.11429,32.71299 -4.50513,15.96252 -12.73733,30.68314 -20.51825,45.33086 z"
     id="path4493"
     inkscape:connector-curvature="0"
     sodipodi:nodetypes="sssssssssssssssssssssssssssssssssssss" />
  <path
     style="fill:none;fill-rule:evenodd;stroke:#000000;stroke-width:1.41249;stroke-linecap:butt;stroke-linejoin:miter;stroke-miterlimit:4;stroke-dasharray:none;stroke-opacity:1"
     d="m 365.0263,624.40637 0.71827,25.92112"
     id="path4495"
     inkscape:connector-curvature="0" />
  <path
     style="fill:none;fill-rule:evenodd;stroke:#000000;stroke-width:1.41249;stroke-linecap:butt;stroke-linejoin:miter;stroke-miterlimit:4;stroke-dasharray:none;stroke-opacity:1"
     d="m 193.33891,632.78154 c 15.40186,15.81021 74.58242,52.81048 92.94356,59.91681 23.61692,9.14047 48.84843,15.85774 74.16503,16.47154 23.90172,0.57949 47.80608,-5.21944 70.69148,-12.13945 41.83308,-12.64934 62.66815,-24.88865 101.08455,-77.39672 41.29384,-56.44104 43.47731,-119.84703 47.3694,-166.38802 2.17304,-25.98491 2.2328,-52.12307 2.10948,-78.19839 -0.0923,-19.5067 -0.54948,-39.03925 -2.13131,-58.48193 -2.90271,-33.60412 3.2504,-70.79295 -9.21386,-102.19181 -14.66888,-33.95981 -30.44558,-65.10333 -53.26106,-94.22203 -13.53891,-17.2793 -31.47343,-31.353287 -50.55969,-42.197229 -19.70542,-11.19572 -41.88914,-18.26968 -64.14754,-22.537157 -11.49245,-2.203382 -23.42854,-2.566574 -35.07581,-1.43854 -7.54471,0.730703 -22.11984,5.274653 -22.11984,5.274653 0,0 -16.28115,-4.560096 -24.64783,-4.795136 -12.96519,-0.364223 -26.15312,1.466368 -38.55174,5.274654 -11.01253,3.382543 -21.06365,9.46013 -30.9678,15.344444 -14.8267,8.808926 -29.20175,18.562167 -42.34369,29.729871 -32.01866,26.6483 -55.08501,61.57773 -69.51954,100.21842 -9.27977,24.84158 -10.20282,43.56461 -12.61954,74.08094 -1.75472,22.15709 2.40666,57.01731 2.45896,79.24371 0.0598,25.42814 -0.54125,51.00042 2.52798,76.24272 0.89594,7.36848 12.06915,147.13026 61.80881,198.18865 z"
     id="path4497"
     inkscape:connector-curvature="0"
     sodipodi:nodetypes="ssssssssssssscsssssssss" />
  <path
     style="fill:none;fill-rule:evenodd;stroke:#000000;stroke-width:1.41249;stroke-linecap:butt;stroke-linejoin:miter;stroke-miterlimit:4;stroke-dasharray:none;stroke-opacity:1"
     d="m 349.58384,143.56952 -1.07735,-34.02148"
     id="path4501"
     inkscape:connector-curvature="0" />
  <path
     style="fill:none;fill-rule:evenodd;stroke:#000000;stroke-width:1.41249;stroke-linecap:butt;stroke-linejoin:miter;stroke-miterlimit:4;stroke-dasharray:none;stroke-opacity:1"
     d="m 225.67312,323.63422 c 0,0 1.13228,9.97168 -1.01574,14.20498 -1.65688,3.26537 -4.87604,6.03965 -8.38008,7.10248 -5.13656,1.55801 -10.64349,-1.46163 -15.99828,-1.83291 -6.25073,-0.4334 -13.23224,2.43187 -18.79164,-0.45821 -2.78036,-1.44538 -4.85155,-4.51455 -5.5867,-7.56071 -1.47069,-6.09393 0.94694,-12.65157 3.0473,-18.55813 0.85533,-2.40534 3.80914,-6.64424 3.80914,-6.64424 0,0 1.78224,-10.27987 4.06303,-14.8923 1.91662,-3.87597 7.87217,-10.31009 7.87217,-10.31009 0,0 -2.55567,-6.95462 -2.28547,-10.53916 0.39315,-5.21568 3.29331,-9.96234 5.58671,-14.66321 1.72173,-3.52909 6.09457,-10.08096 6.09457,-10.08096 0,0 1.21617,-7.55974 2.79334,-10.99741 1.90589,-4.15417 4.35163,-8.31185 7.87219,-11.2265 1.7167,-1.42124 6.09458,-2.74936 6.09458,-2.74936 0,0 1.33448,-11.82325 4.06306,-16.95433 2.82214,-5.30702 6.96951,-10.30789 12.18916,-13.28852 2.55492,-1.45896 8.63402,-1.83291 8.63402,-1.83291 0,0 1.31524,-9.08705 3.04727,-13.28852 1.95407,-4.74009 4.02751,-9.97908 8.1261,-13.05941 3.37465,-2.53625 8.11012,-4.52389 12.18919,-3.4367 4.44176,1.18386 9.64977,9.85184 9.64977,9.85184 0,0 3.05497,-12.39052 7.61822,-16.26698 4.49181,-3.81577 11.20343,-5.79774 17.01407,-4.81137 2.75266,0.46727 6.85638,4.81137 6.85638,4.81137 0,0 6.2064,-8.28156 10.66556,-10.53918 5.20002,-2.6327 11.55881,-3.92274 17.26797,-2.74935 5.88392,1.20931 15.23647,9.62273 15.23647,9.62273 0,0 5.30544,-6.71027 9.14186,-8.01895 5.77954,-1.97151 12.68831,-1.29994 18.28379,1.14557 5.67946,2.48221 13.45888,12.8303 13.45888,12.8303 0,0 7.5126,-5.46488 11.93522,-6.18604 4.39692,-0.71697 9.47265,-0.37046 13.20494,2.06201 5.77764,3.76551 11.17339,17.41255 11.17339,17.41255 0,0 8.32393,-4.73299 12.95099,-5.49869 4.10314,-0.679 8.89077,-1.24631 12.44313,0.91645 4.97525,3.02905 7.47007,9.31258 9.14186,14.89231 0.76756,2.56181 0.25397,8.01895 0.25397,8.01895 0,0 11.507,-1.97493 15.99828,0.91644 5.65884,3.64301 6.28017,11.90532 9.39582,17.87078 1.87203,3.58433 4.09208,7.01089 5.58668,10.76829 0.91014,2.28807 2.03155,7.10249 2.03155,7.10249 0,0 4.57982,4.30862 5.84064,7.10249 0.0447,0.099 0.0346,0.2145 0.0518,0.32176 1.00083,6.23116 2.99571,18.69458 2.99571,18.69458 0,0 7.76113,8.80131 9.64979,14.20498 1.84474,5.27801 1.26969,16.72519 1.26969,16.72519 0,0 5.17299,9.81045 6.60245,15.12145 1.73816,6.45798 2.28548,19.9328 2.28548,19.9328 0,0 3.90166,8.21404 3.80914,12.60117 -0.0921,4.3669 -0.79969,9.78234 -4.31702,12.37207 -5.3881,3.96714 -13.48618,-0.55261 -20.06131,0.68733 -3.61563,0.68184 -6.73282,3.59991 -10.41159,3.66581 -4.61058,0.0826 -10.65084,-0.28466 -13.20496,-4.12403 -1.99693,-3.00181 1.82383,-7.25463 1.01577,-10.76826 -0.62095,-2.70004 -4.23776,-4.33312 -4.317,-7.10251 -0.0619,-2.16178 3.04731,-5.72782 3.04731,-5.72782 0,0 -7.34763,-10.60502 -7.61822,-16.72521 -0.15738,-3.55968 3.55516,-10.08094 3.55516,-10.08094 0,0 -5.47072,-1.92885 -7.11037,-4.12402 -1.50485,-2.0147 -0.69452,-5.06211 -1.77756,-7.3316 -1.20062,-2.51589 -4.40771,-3.93857 -5.07883,-6.64427 -1.23046,-4.96073 3.17897,-10.05055 2.5394,-15.12143 -0.52269,-4.14417 -3.98188,-7.42524 -5.07883,-11.45563 -1.17088,-4.30203 -1.52362,-13.28852 -1.52362,-13.28852 0,0 -2.19873,-8.52667 -4.57095,-12.14297 -1.74561,-2.66108 -5.56155,-3.73705 -6.85642,-6.64425 -0.93282,-2.09435 -0.25395,-6.87339 -0.25395,-6.87339 0,0 -9.79428,-7.17374 -13.45887,-11.91385 -2.51485,-3.25293 -5.58671,-10.9974 -5.58671,-10.9974 0,0 -4.59881,3.64274 -7.36429,3.89491 -5.83213,0.5318 -11.34708,-3.03445 -16.7601,-5.26958 -3.52565,-1.45581 -10.15765,-5.2696 -10.15765,-5.2696 0,0 -2.68976,5.76854 -5.33276,7.10249 -8.46385,4.2718 -19.21595,2.41453 -28.4414,0.22911 -3.42393,-0.8111 -9.39582,-4.81137 -9.39582,-4.81137 0,0 -4.46716,3.4024 -7.11034,4.12403 -9.88094,2.69766 -20.6087,1.8206 -30.72687,0.2291 -2.64228,-0.41561 -7.61824,-2.52023 -7.61824,-2.52023 0,0 -2.51815,3.38338 -4.31698,4.35314 -5.09295,2.74563 -11.25327,3.97505 -17.01407,3.43669 -1.81922,-0.17001 -5.0788,-2.06202 -5.0788,-2.06202 0,0 -4.45857,5.76188 -6.60248,8.70627 -2.52269,3.4646 -7.36429,10.53919 -7.36429,10.53919 0,0 1.66132,2.79009 1.7776,4.35313 0.29158,3.9196 -1.54553,7.72855 -2.79337,11.45563 -0.9505,2.83898 -1.27443,6.30861 -3.55519,8.24804 -2.39325,2.03509 -9.14186,2.29114 -9.14186,2.29114 0,0 2.77618,7.62875 1.26972,10.9974 -0.97295,2.17565 -4.35551,2.26005 -5.84066,4.12403 -1.389,1.7433 -0.9905,4.58315 -2.53942,6.18604 -1.54869,1.60266 -6.09457,2.74934 -6.09457,2.74934 0,0 4.78845,7.87307 4.31699,12.14295 -0.36638,3.31817 -3.04247,6.04834 -5.33273,8.47717 -1.71274,1.81637 -6.09461,4.35313 -6.09461,4.35313 0,0 3.80833,8.19037 4.317,12.60119 0.67711,5.87142 0.9275,12.38672 -1.7776,17.64166 -1.90745,3.70543 -9.39606,8.24809 -9.39606,8.24809 z"
     id="path4503"
     inkscape:connector-curvature="0"
     sodipodi:nodetypes="csssssscscsscsscsscssscsscsscsscsscssscssscsscscscssssssscscssssscsscscsscsscsscsscscssscssscsscssc" />
  <path
     style="fill:none;fill-rule:evenodd;stroke:#000000;stroke-width:1.41249;stroke-linecap:butt;stroke-linejoin:miter;stroke-miterlimit:4;stroke-dasharray:none;stroke-opacity:1"
     d="m 482.30347,320.50147 c 0,0 5.88128,3.16955 8.95595,3.54388 4.83983,0.58923 9.53473,-2.09157 14.36507,-2.75413 7.08111,-0.97129 21.36805,-1.78209 21.36805,-1.78209 v 0"
     id="path4505"
     inkscape:connector-curvature="0"
     sodipodi:nodetypes="csscc" />
  <path
     style="fill:none;fill-rule:evenodd;stroke:#000000;stroke-width:1.41249;stroke-linecap:butt;stroke-linejoin:miter;stroke-miterlimit:4;stroke-dasharray:none;stroke-opacity:1"
     d="m 478.33084,293.58802 c 0,0 12.92275,-3.68692 19.57241,-4.37419 3.8703,-0.40001 7.93342,1.24159 11.67162,0.1622 3.42867,-0.99001 8.97818,-5.83226 8.97818,-5.83226"
     id="path4507"
     inkscape:connector-curvature="0"
     sodipodi:nodetypes="cssc" />
  <path
     style="fill:none;fill-rule:evenodd;stroke:#000000;stroke-width:1.41249;stroke-linecap:butt;stroke-linejoin:miter;stroke-miterlimit:4;stroke-dasharray:none;stroke-opacity:1"
     d="m 467.19792,260.37659 c 0,0 9.68538,1.81717 14.54464,1.45807 4.61751,-0.34124 9.09972,-1.86505 13.46723,-3.40216 1.29787,-0.45677 9.53721,-4.54496 12.05846,-5.43362"
     id="path4509"
     inkscape:connector-curvature="0"
     sodipodi:nodetypes="cssc" />
  <path
     style="fill:none;fill-rule:evenodd;stroke:#000000;stroke-width:1.41249;stroke-linecap:butt;stroke-linejoin:miter;stroke-miterlimit:4;stroke-dasharray:none;stroke-opacity:1"
     d="m 460.73363,236.07552 c 0,0 7.19129,-0.31711 10.7738,-0.64801 5.64592,-0.52149 11.51669,-0.26371 16.87896,-2.1061 3.88863,-1.33607 10.59425,-6.31827 10.59425,-6.31827"
     id="path4511"
     inkscape:connector-curvature="0"
     sodipodi:nodetypes="cssc" />
  <path
     style="fill:none;fill-rule:evenodd;stroke:#000000;stroke-width:1.41249;stroke-linecap:butt;stroke-linejoin:miter;stroke-miterlimit:4;stroke-dasharray:none;stroke-opacity:1"
     d="m 449.0171,210.11391 c 0,0 7.53278,-2.08004 10.45958,-4.4957 3.12168,-2.57651 3.60083,-6.21493 4.55459,-8.39236 0.95377,-2.17743 0.92207,-4.75466 1.34337,-6.92026"
     id="path4513"
     inkscape:connector-curvature="0"
     sodipodi:nodetypes="cszc" />
  <path
     style="fill:none;fill-rule:evenodd;stroke:#000000;stroke-width:1.41249;stroke-linecap:butt;stroke-linejoin:miter;stroke-miterlimit:4;stroke-dasharray:none;stroke-opacity:1"
     d="m 430.74652,171.59674 c 0,0 1.15669,4.50931 1.07741,6.80429 -0.1014,2.93513 -1.9752,8.58638 -1.9752,8.58638"
     id="path4515"
     inkscape:connector-curvature="0"
     sodipodi:nodetypes="csc" />
  <path
     style="fill:none;fill-rule:evenodd;stroke:#000000;stroke-width:1.41249;stroke-linecap:butt;stroke-linejoin:miter;stroke-miterlimit:4;stroke-dasharray:none;stroke-opacity:1"
     d="m 394.29515,158.47416 c 0,0 0.84804,6.57672 1.07739,9.88244 0.27671,3.98838 0.35912,11.98852 0.35912,11.98852"
     id="path4517"
     inkscape:connector-curvature="0"
     sodipodi:nodetypes="csc" />
  <path
     style="fill:none;fill-rule:evenodd;stroke:#000000;stroke-width:1.41249;stroke-linecap:butt;stroke-linejoin:miter;stroke-miterlimit:4;stroke-dasharray:none;stroke-opacity:1"
     d="m 353.35468,152.64191 c 0,0 -0.89766,8.62921 -1.07738,12.96057 -0.23731,5.71933 0,17.17275 0,17.17275"
     id="path4519"
     inkscape:connector-curvature="0"
     sodipodi:nodetypes="csc" />
  <path
     style="fill:none;fill-rule:evenodd;stroke:#000000;stroke-width:1.41249;stroke-linecap:butt;stroke-linejoin:miter;stroke-miterlimit:4;stroke-dasharray:none;stroke-opacity:1"
     d="m 310.0799,156.04406 c 0,0 -2.6892,8.3228 -3.23214,12.63655 -0.68111,5.41155 0,16.36272 0,16.36272"
     id="path4521"
     inkscape:connector-curvature="0"
     sodipodi:nodetypes="csc" />
  <path
     style="fill:none;fill-rule:evenodd;stroke:#000000;stroke-width:1.41249;stroke-linecap:butt;stroke-linejoin:miter;stroke-miterlimit:4;stroke-dasharray:none;stroke-opacity:1"
     d="m 278.65627,172.56878 c 0,0 -0.8035,5.73087 -0.53869,8.58637 0.29318,3.1614 2.33437,9.2344 2.33437,9.2344"
     id="path4523"
     inkscape:connector-curvature="0"
     sodipodi:nodetypes="csc" />
  <path
     style="fill:none;fill-rule:evenodd;stroke:#000000;stroke-width:1.41249;stroke-linecap:butt;stroke-linejoin:miter;stroke-miterlimit:4;stroke-dasharray:none;stroke-opacity:1"
     d="m 245.43706,192.33364 c 0,0 1.99859,6.3184 3.77083,9.07239 1.99641,3.10235 4.20387,6.52888 7.54164,8.10035 2.90222,1.36641 6.56155,-0.44154 9.60667,0.56702 0.18689,0.0619 0.49379,0.32402 0.49379,0.32402"
     id="path4525"
     inkscape:connector-curvature="0"
     sodipodi:nodetypes="csssc" />
  <path
     style="fill:none;fill-rule:evenodd;stroke:#000000;stroke-width:1.41249;stroke-linecap:butt;stroke-linejoin:miter;stroke-miterlimit:4;stroke-dasharray:none;stroke-opacity:1"
     d="m 220.65729,224.73504 c 0,0 3.30703,4.28812 5.56644,5.67025 2.6216,1.60369 5.72564,2.78929 8.79865,2.75412 3.03279,-0.0347 5.60709,-3.27295 8.61902,-2.91613 3.72307,0.44107 9.51688,5.99427 9.51688,5.99427"
     id="path4527"
     inkscape:connector-curvature="0"
     sodipodi:nodetypes="csssc" />
  <path
     style="fill:none;fill-rule:evenodd;stroke:#000000;stroke-width:1.41249;stroke-linecap:butt;stroke-linejoin:miter;stroke-miterlimit:4;stroke-dasharray:none;stroke-opacity:1"
     d="m 203.68854,249.92713 c 0,0 1.65304,5.25428 3.68105,6.8853 2.32609,1.87075 5.65273,2.09645 8.61905,2.43012 4.22849,0.47564 8.50177,-0.90763 12.749,-0.64803 3.76011,0.22983 11.13293,1.94408 11.13293,1.94408 v 0"
     id="path4529"
     inkscape:connector-curvature="0"
     sodipodi:nodetypes="cssssc" />
  <path
     style="fill:none;fill-rule:evenodd;stroke:#000000;stroke-width:1.41249;stroke-linecap:butt;stroke-linejoin:miter;stroke-miterlimit:4;stroke-dasharray:none;stroke-opacity:1"
     d="m 194.6206,284.59665 c 0,0 2.78958,3.64377 4.84819,4.2932 4.9983,1.57681 10.64101,-0.15155 15.62204,-1.7821 1.96548,-0.6434 3.36315,-2.65216 5.38692,-3.07812 4.06345,-0.85527 12.38985,1.29605 12.38985,1.29605"
     id="path4531"
     inkscape:connector-curvature="0"
     sodipodi:nodetypes="csssc" />
  <path
     style="fill:none;fill-rule:evenodd;stroke:#000000;stroke-width:1.41249;stroke-linecap:butt;stroke-linejoin:miter;stroke-miterlimit:4;stroke-dasharray:none;stroke-opacity:1"
     d="m 182.7592,309.87961 c 0,0 0.30789,5.78618 1.98541,7.68545 2.59363,2.93647 6.90004,4.11188 10.7738,4.69821 4.34682,0.65793 8.71347,-1.57919 13.10813,-1.45807 5.88447,0.16218 17.41767,2.91614 17.41767,2.91614"
     id="path4533"
     inkscape:connector-curvature="0"
     sodipodi:nodetypes="csssc" />
  <path
     style="fill:none;fill-rule:evenodd;stroke:#000000;stroke-width:1.41249;stroke-linecap:butt;stroke-linejoin:miter;stroke-miterlimit:4;stroke-dasharray:none;stroke-opacity:1"
     d="m 228.43958,474.18452 c 0,0 5.01517,-21.34655 10.06622,-30.94619 7.05926,-14.44473 19.12667,-23.35646 34.52934,-27.25462 10.27972,-2.34154 22.11197,-1.80307 32.51275,-0.077 10.23544,1.69858 20.38859,4.93656 29.52634,9.85092 7.85126,4.22247 21.0478,16.49951 21.0478,16.49951 0,0 8.22274,-9.87334 13.41368,-13.53346 11.39921,-8.03756 32.96486,-12.14877 36.70282,-12.81697 8.18972,-1.464 22.22399,-2.42738 30.43077,-1.06232 14.27097,2.37374 22.17552,10.87119 29.7537,16.41116 10.27213,12.65151 17.61953,21.79426 21.85404,37.84387"
     id="path4218"
     inkscape:connector-curvature="0"
     sodipodi:nodetypes="csssscssssc" />
  <path
     style="fill:none;fill-rule:evenodd;stroke:#000000;stroke-width:1.41249;stroke-linecap:butt;stroke-linejoin:miter;stroke-miterlimit:4;stroke-dasharray:none;stroke-opacity:1"
     d="m 355.95696,442.04199 1.25744,57.70216 v 0"
     id="path4220"
     inkscape:connector-curvature="0" />
  <path
     id="C06.1"
     style="display:inline;fill:none;fill-rule:evenodd;stroke:#000000;stroke-width:0.8;stroke-linecap:butt;stroke-linejoin:miter;stroke-miterlimit:4;stroke-dasharray:3.2, 0.8;stroke-dashoffset:0;stroke-opacity:1"
     d="m 148.81654,290.77965 h 14.0476 c 0,0 2.41,-17.54092 4.89037,-26.00539 4.66938,-15.93461 10.88794,-31.51511 18.67234,-46.18201 10.21427,-19.24512 22.59562,-37.44164 36.45547,-54.25266 10.91147,-13.23485 22.85029,-25.87185 36.45549,-36.31789 13.45627,-10.33169 28.03072,-19.86744 44.01332,-25.55704 10.7441,-3.824758 22.40668,-4.652918 33.78803,-5.380425 14.79589,-0.945768 29.75041,-0.526252 44.45793,1.345105 13.41551,1.70696 26.91394,4.19503 39.56756,8.96738 9.94563,3.75102 19.46913,8.91485 28.00849,15.24455 20.54335,15.22752 38.69189,33.84976 54.68324,53.80429 6.82948,8.52205 12.15951,18.18409 17.3386,27.79888 7.40945,13.75536 13.86827,28.04522 19.56147,42.59505 4.52563,11.56594 8.80995,23.3094 11.55907,35.42115 0.66135,2.9137 1.17049,8.8867 1.17049,8.8867 l 13.20333,0.077 c 0,0 -1.90271,-8.10075 -3.03706,-12.10224 -3.54873,-12.5184 -7.05532,-25.09164 -11.78134,-37.2147 -5.66154,-14.52282 -12.07965,-28.82053 -19.78377,-42.37087 -6.25288,-10.99784 -13.60374,-21.37564 -21.33981,-31.38584 -8.25736,-10.68474 -17.13445,-20.93243 -26.67476,-30.4891 -9.68287,-9.69947 -19.45736,-19.58023 -30.89825,-27.12633 -10.41953,-6.87244 -21.89489,-12.353142 -33.78803,-16.141281 -12.96814,-4.130541 -26.68662,-5.649125 -40.23441,-6.949719 -14.607,-1.40228 -29.39379,-2.161538 -44.01334,-0.896739 -12.0347,1.041173 -24.17687,2.925039 -35.56634,6.949722 -16.27967,5.752725 -31.89381,13.966377 -45.79165,24.211927 -15.41602,11.36476 -28.5496,25.75546 -40.67898,40.5774 -14.3617,17.5498 -26.84389,36.73694 -37.56696,56.71868 -7.8265,14.58418 -14.41343,29.93209 -19.33919,45.73365 -3.04335,9.7629 -7.37891,30.04075 -7.37891,30.04075 z m 15.85082,216.46312 17.57285,-0.25413 c 0,0 3.46136,23.24833 7.29868,33.98094 5.32429,14.89152 12.18533,29.39493 20.89522,42.59505 7.38357,11.19004 15.90958,21.93225 26.23017,30.48909 21.61043,17.91729 47.0906,31.13096 72.911,42.1467 10.36069,4.42017 21.26602,8.1101 32.45428,9.41574 20.78038,2.42502 42.10415,0.61723 62.68566,-3.13858 13.93484,-2.54289 28.12808,-6.02766 40.4567,-13.00269 14.22412,-8.04743 25.8952,-20.20038 36.90008,-32.28257 10.05571,-11.0401 18.03279,-23.83573 26.23015,-36.3179 7.15972,-10.90214 13.97761,-22.06153 20.00608,-33.62768 6.82195,-13.08851 19.09299,-40.81129 19.09299,-40.81129 l 12.91672,-0.43865 c 2.13295,0.98342 -11.51584,31.30376 -20.14313,45.7427 -8.43196,14.11202 -16.64443,28.39685 -26.0923,41.84991 -7.88517,11.2279 -15.98342,22.42045 -25.46355,32.33856 -11.95672,12.50912 -24.2441,25.38608 -39.29563,33.92379 -12.86585,7.29793 -27.58791,11.2176 -42.1249,13.94997 -22.06838,4.14797 -44.97083,6.09178 -67.27412,3.48749 -11.60234,-1.35477 -22.87907,-5.27692 -33.63705,-9.82837 -29.18396,-12.34706 -58.55019,-26.37991 -82.67797,-46.92263 -10.83418,-9.22437 -19.21877,-21.19901 -26.72102,-33.2897 -10.5034,-16.92736 -19.04038,-35.25316 -25.1492,-54.21468 -2.69307,-8.35918 -7.07171,-25.79107 -7.07171,-25.79107 z"
     inkscape:label="#path4194"
     inkscape:connector-curvature="0"
     sodipodi:nodetypes="ccsssssssssssssccsssssssssssssscccssssssssssccssssssssssc" />
  <path
     id="C06.2"
     style="fill:none;fill-rule:evenodd;stroke:#000000;stroke-width:0.8;stroke-linecap:butt;stroke-linejoin:miter;stroke-miterlimit:4;stroke-dasharray:0.8, 0.8;stroke-dashoffset:0;stroke-opacity:1"
     d="m 487.40695,347.20139 2.66747,31.4586 0.44458,50.66569 1.13763,34.39597 5.08648,-2.34871 c 3.32129,0.55541 6.64259,2.88185 9.96388,4.37138 3.64404,-1.67863 6.40833,-3.76055 9.95078,-5.0328 3.81516,1.4268 7.86565,0.26492 10.90515,6.92742 l -1.47757,-57.14476 0.44458,-47.97548 -0.66489,-18.38401 c -4.67784,3.38474 -12.23699,0.14038 -18.45204,0.001 0,0 -7.26177,3.33798 -11.11446,3.81115 -3.09577,0.38021 -8.89159,-0.74552 -8.89159,-0.74552 z m -306.23693,-4.71145 -3.14365,31.07039 0.62873,43.11809 11.78867,56.90954 c 4.88859,-2.44192 10.06299,-1.45423 15.09996,-2.11558 l 10.22533,-5.82881 10.22531,2.24186 -6.66868,-45.28528 -2.22291,-50.21732 5.65267,-32.38203 c -0.37093,2.88377 -3.34763,3.68237 -6.15119,4.74167 0,1.42648 -11.37099,-0.52616 -16.90782,-1.98374 -6.18593,1.70217 -18.52642,1.31646 -18.52642,-0.26879 z"
     inkscape:label="#path4199"
     inkscape:connector-curvature="0"
     sodipodi:nodetypes="ccccccccccccsccccccccccccccc" />
  <path
     id="C06.0"
     style="fill:none;fill-rule:evenodd;stroke:#000000;stroke-width:0.8;stroke-linecap:butt;stroke-linejoin:miter;stroke-miterlimit:4;stroke-dasharray:1.60001, 0.8;stroke-dashoffset:0;stroke-opacity:1"
     d="m 566.26708,290.81163 -44.16709,0.98751 c 1.40281,2.25427 2.19603,4.49323 2.35657,6.93862 2.52477,6.89468 1.79506,13.94433 2.51491,20.92495 2.0458,3.67315 4.00615,7.36054 3.77239,11.41362 1.0769,5.41573 -1.70078,10.02469 -4.71548,14.58404 l 1.3785,121.54489 1.45079,2.10259 c 3.19223,7.56575 -0.0689,14.24271 -2.82929,20.92496 l -2.7982,16.99069 37.06399,-1.13844 4.71546,-30.11926 2.10195,-36.73214 1.78756,-26.10647 -0.41299,-43.64341 -0.32362,-40.31907 c -0.45733,-12.78436 0.4535,-25.56872 -1.89545,-38.35308 z m -417.64629,-0.31702 41.75789,0.093 -3.55008,3.85891 -4.40111,16.02203 -3.77239,6.02385 c -0.13606,-0.0219 -4.52458,11.44999 -2.82928,17.75453 1.06683,3.96736 5.22893,8.91823 5.65857,8.56019 l -3.77238,32.02154 0.62873,40.58172 12.26021,58.65329 c -3.05991,1.58622 -3.29102,4.76363 -3.81048,7.77885 2.18538,5.87784 2.64732,12.76101 6.63978,17.58472 l 2.20054,5.38976 1.8862,1.90227 -32.06521,0.63409 c 0,0 -7.6378,-34.37763 -12.26024,-51.36124 -1.97376,-7.25192 -4.96504,-14.22369 -6.60166,-21.55905 -2.74312,-12.29472 -4.69088,-24.83121 -5.3442,-37.41128 -1.28347,-24.71417 -0.13464,-49.47269 2.59143,-74.06956 1.20751,-10.89518 4.78368,-32.45762 4.78368,-32.45762 z"
     inkscape:label="#path4204"
     inkscape:connector-curvature="0"
     sodipodi:nodetypes="ccccccccccccccccccccccscccccccccssssc" />
  <path
     id="C06.9"
     style="font-size:33.2768px;font-family:'.Arial Hebrew Desk Interface';-inkscape-font-specification:'.Arial Hebrew Desk Interface, Normal';display:inline;fill:none;stroke:#000000;stroke-width:1;stroke-dasharray:none"
     d="m 618.93383,143.71544 q -2.7719,3.62043 -7.41057,3.62043 -4.18613,0 -6.84489,-2.65875 -2.60219,-2.71532 -2.60219,-6.78832 0,-4.35583 2.99817,-7.354 3.05474,-2.99817 7.24087,-2.99817 5.31751,0 8.42882,3.95985 3.16787,3.95985 3.16787,10.63501 0,7.24086 -3.28101,11.70984 -3.22446,4.46898 -8.99452,4.46898 -3.05473,0 -5.54378,-1.69709 -2.43247,-1.75366 -2.99817,-4.01642 l 4.80839,-0.7354 q 1.13138,2.14964 4.12955,2.14964 3.22446,0 5.03468,-2.7719 1.86678,-2.82846 1.86678,-7.5237 z m -0.90511,-5.93977 q 0,-2.88504 -1.47081,-4.52555 -1.41423,-1.64049 -3.95985,-1.64049 -2.20619,0 -3.79014,1.75363 -1.58393,1.69709 -1.58393,4.41241 0,2.37592 1.4708,3.95985 1.47081,1.52736 3.8467,1.52736 2.26278,0 3.84672,-1.52736 1.64051,-1.58393 1.64051,-3.95985 z m 15.97264,4.47502 A 21.750674,21.750674 0 0 1 612.25068,164.00135 21.750674,21.750674 0 0 1 590.5,142.25069 21.750674,21.750674 0 0 1 612.25068,120.5 a 21.750674,21.750674 0 0 1 21.75068,21.75069 z"
     inkscape:label="C06.9" />
  <path
     id="C06.8"
     style="font-size:33.2768px;font-family:'.Arial Hebrew Desk Interface';-inkscape-font-specification:'.Arial Hebrew Desk Interface, Normal';display:inline;fill:none;stroke:#000000;stroke-width:1;stroke-dasharray:none"
     d="m 606.21,80.95843 q -3.28102,-2.26276 -3.28102,-6.109461 0,-3.846722 2.77191,-5.883209 2.82845,-2.036487 6.50545,-2.036487 3.62044,0 6.44891,2.036487 2.82846,2.036487 2.82846,5.883209 0,3.846701 -3.28102,6.109461 v 0.0567 q 2.2062,1.01825 3.5073,3.05474 1.35765,1.97992 1.35765,4.35584 0,3.84671 -2.99816,6.6186 -2.99817,2.7719 -7.86314,2.7719 -5.03466,0 -7.97626,-2.7719 -2.88504,-2.82846 -2.88504,-6.6186 0,-2.37592 1.30111,-4.35584 1.35766,-2.03649 3.56385,-3.05474 z m 5.99634,-1.58393 q 1.69709,0 3.05474,-1.01824 1.41423,-1.01825 1.41423,-2.941608 0,-2.093066 -1.35766,-3.111305 -1.30108,-1.074827 -3.11131,-1.074827 -1.97992,0 -3.22444,1.131386 -1.24453,1.131385 -1.24453,3.054746 0,1.866778 1.35767,2.941608 1.41423,1.01824 3.1113,1.01824 z m 0,14.14232 q 2.14963,0 3.79014,-1.24452 1.64051,-1.24453 1.64051,-3.84672 0,-2.09306 -1.58393,-3.5073 -1.58394,-1.41423 -3.84672,-1.41423 -2.20619,0 -3.8467,1.41423 -1.58394,1.41424 -1.58394,3.5073 0,2.60219 1.64051,3.84672 1.64051,1.24452 3.79013,1.24452 z M 634.00133,82.25068 A 21.750674,21.750674 0 0 1 612.25068,104.00136 21.750674,21.750674 0 0 1 590.5,82.25068 21.750674,21.750674 0 0 1 612.25068,60.5 21.750674,21.750674 0 0 1 634.00133,82.25068 Z"
     inkscape:label="C06.8" />
</svg>
