<?xml version="1.0" encoding="UTF-8" standalone="no"?>
<!-- Created with Inkscape (http://www.inkscape.org/) -->

<svg
   id="svg4136"
   version="1.1"
   inkscape:version="1.3 (0e150ed, 2023-07-21)"
   width="700"
   height="750"
   viewBox="0 0 700 750"
   sodipodi:docname="level3_C32_24-01.svg"
   xmlns:inkscape="http://www.inkscape.org/namespaces/inkscape"
   xmlns:sodipodi="http://sodipodi.sourceforge.net/DTD/sodipodi-0.dtd"
   xmlns="http://www.w3.org/2000/svg"
   xmlns:svg="http://www.w3.org/2000/svg"
   xmlns:rdf="http://www.w3.org/1999/02/22-rdf-syntax-ns#"
   xmlns:cc="http://creativecommons.org/ns#"
   xmlns:dc="http://purl.org/dc/elements/1.1/">
  <metadata
     id="metadata4142">
    <rdf:RDF>
      <cc:Work
         rdf:about="">
        <dc:format>image/svg+xml</dc:format>
        <dc:type
           rdf:resource="http://purl.org/dc/dcmitype/StillImage" />
      </cc:Work>
    </rdf:RDF>
  </metadata>
  <defs
     id="defs4140">
    <marker
       inkscape:stockid="Arrow1Mstart"
       orient="auto"
       refY="0"
       refX="0"
       id="Arrow1Mstart"
       style="overflow:visible"
       inkscape:isstock="true">
      <path
         id="path6347"
         d="M 0,0 5,-5 -12.5,0 5,5 Z"
         style="fill:#000000;fill-opacity:1;fill-rule:evenodd;stroke:#000000;stroke-width:1pt;stroke-opacity:1"
         transform="matrix(0.4,0,0,0.4,4,0)" />
    </marker>
    <marker
       inkscape:stockid="Arrow1Lend"
       orient="auto"
       refY="0"
       refX="0"
       id="Arrow1Lend"
       style="overflow:visible"
       inkscape:isstock="true">
      <path
         id="path6344"
         d="M 0,0 5,-5 -12.5,0 5,5 Z"
         style="fill:#000000;fill-opacity:1;fill-rule:evenodd;stroke:#000000;stroke-width:1pt;stroke-opacity:1"
         transform="matrix(-0.8,0,0,-0.8,-10,0)" />
    </marker>
    <marker
       inkscape:stockid="Arrow1Lstart"
       orient="auto"
       refY="0"
       refX="0"
       id="Arrow1Lstart"
       style="overflow:visible"
       inkscape:isstock="true">
      <path
         id="path6341"
         d="M 0,0 5,-5 -12.5,0 5,5 Z"
         style="fill:#000000;fill-opacity:1;fill-rule:evenodd;stroke:#000000;stroke-width:1pt;stroke-opacity:1"
         transform="matrix(0.8,0,0,0.8,10,0)" />
    </marker>
    <linearGradient
       id="linearGradient5691"
       inkscape:swatch="solid">
      <stop
         style="stop-color:#000000;stop-opacity:1;"
         offset="0"
         id="stop5693" />
    </linearGradient>
    <linearGradient
       id="linearGradient4239"
       inkscape:swatch="solid">
      <stop
         style="stop-color:#000000;stop-opacity:1;"
         offset="0"
         id="stop4241" />
    </linearGradient>
    <linearGradient
       id="linearGradient4181"
       inkscape:swatch="solid">
      <stop
         style="stop-color:#000000;stop-opacity:1;"
         offset="0"
         id="stop4183" />
    </linearGradient>
    <linearGradient
       id="linearGradient4169"
       inkscape:swatch="solid">
      <stop
         style="stop-color:#000000;stop-opacity:1;"
         offset="0"
         id="stop4171" />
    </linearGradient>
    <linearGradient
       id="linearGradient5621"
       inkscape:swatch="solid">
      <stop
         style="stop-color:#000000;stop-opacity:0;"
         offset="0"
         id="stop5623" />
    </linearGradient>
  </defs>
  <sodipodi:namedview
     pagecolor="#ffffff"
     bordercolor="#666666"
     borderopacity="1"
     objecttolerance="10"
     gridtolerance="10"
     guidetolerance="10"
     inkscape:pageopacity="0"
     inkscape:pageshadow="2"
     inkscape:window-width="1344"
     inkscape:window-height="772"
     id="namedview4138"
     showgrid="false"
     inkscape:zoom="0.65538044"
     inkscape:cx="402.05655"
     inkscape:cy="360.85911"
     inkscape:window-x="0"
     inkscape:window-y="25"
     inkscape:window-maximized="0"
     inkscape:current-layer="svg4136"
     inkscape:showpageshadow="2"
     inkscape:pagecheckerboard="0"
     inkscape:deskcolor="#d1d1d1" />
  <path
     style="fill:none;fill-rule:evenodd;stroke:#000000;stroke-width:1;stroke-linecap:butt;stroke-linejoin:miter;stroke-miterlimit:4;stroke-dasharray:1,1;stroke-dashoffset:0;stroke-opacity:1"
     d="m 311.80227,433.92142 1.457,116.04648 173.47811,2.22919 0.75388,-118.70557 z"
     id="C32.1"
     inkscape:connector-curvature="0"
     sodipodi:nodetypes="ccccc"
     inkscape:label="#path4168" />
  <path
     style="fill:none;fill-rule:evenodd;stroke:#000000;stroke-width:1;stroke-linecap:butt;stroke-linejoin:miter;stroke-miterlimit:4;stroke-dasharray:1,1;stroke-dashoffset:0;stroke-opacity:1"
     d="m 313.34071,550.95269 1.50777,35.68659 172.64278,-2e-5 -0.90343,-34.44217 z"
     id="C32.0"
     inkscape:connector-curvature="0"
     sodipodi:nodetypes="ccccc"
     inkscape:label="#path4170" />
  <path
     style="fill:none;fill-rule:evenodd;stroke:#000000;stroke-width:1;stroke-linecap:butt;stroke-linejoin:miter;stroke-miterlimit:4;stroke-dasharray:1,1;stroke-dashoffset:0;stroke-opacity:1"
     d="m 314.84848,586.08439 0.68578,47.81515 172.29339,-0.11174 -1.09062,-47.70345 z"
     id="C32.2"
     inkscape:connector-curvature="0"
     sodipodi:nodetypes="ccccc"
     inkscape:label="#path4172" />
  <path
     style="fill:none;fill-rule:evenodd;stroke:#000000;stroke-width:1;stroke-linecap:butt;stroke-linejoin:miter;stroke-miterlimit:4;stroke-dasharray:none;stroke-opacity:1"
     d="m 407.06009,440.01964 c -7.36899,-1.85211 -15.30451,5.13013 -19.83734,11.22815 -2.71525,3.65283 -2.20587,8.83834 -3.01563,13.31718 -0.66418,3.67365 0.028,7.695 -1.50778,11.09767 -2.21293,4.90292 -6.53081,8.63744 -10.5546,12.20742 -5.4423,4.82851 -14.03569,6.16865 -18.09354,12.20744 -2.74014,4.07781 -2.51033,9.54011 -3.01561,14.42698 -0.30436,2.94368 -1.8182,6.60519 0.51039,8.43154 5.92815,-1.60163 15.3553,-3.03218 23.49859,-3.40087 6.95986,-0.31512 15.56793,0.16857 22.73274,1.62789 5.04351,1.02726 10.08905,2.06335 15.07799,3.32931 5.19527,1.31832 15.50338,5.11777 15.50338,5.11777 0,0 -2.10718,-10.21453 -4.94879,-13.99589 -2.62435,-3.49225 -7.80512,-4.37376 -10.55459,-7.76838 -2.30033,-2.8401 -4.26423,-6.34228 -4.5234,-9.98789 -0.38249,-5.38036 2.01526,-10.7614 4.5234,-15.53674 2.21923,-4.22528 7.68246,-6.52417 9.04676,-11.09764 1.38218,-4.63342 0.46411,-10.01216 -1.50778,-14.42699 -1.83193,-4.10148 -6.32962,-6.41088 -9.04681,-9.98789 -1.619,-2.13131 -1.69161,-6.13665 -4.28738,-6.78906 z"
     id="path4148"
     inkscape:connector-curvature="0"
     sodipodi:nodetypes="ssssssscssscssssssss" />
  <path
     style="fill:none;fill-rule:evenodd;stroke:#000000;stroke-width:1;stroke-linecap:butt;stroke-linejoin:miter;stroke-miterlimit:4;stroke-dasharray:none;stroke-opacity:1"
     d="m 465.62821,485.65053 c -6.23834,3.27656 -0.89022,14.06621 -1.50783,21.08556 -0.4238,4.81657 0.63252,10.09128 -1.50778,14.42695 -2.1441,4.34336 -6.27526,7.71871 -10.55459,9.98791 -4.54729,2.41129 -9.97661,4.01364 -15.07797,3.32932 -3.93948,-0.52846 -6.87378,-4.04873 -10.5546,-5.54884 -4.49279,-1.83103 -8.95679,-3.28691 -13.63261,-4.58095 -6.12419,-1.69488 -11.66024,-2.41662 -17.84446,-3.73603 -1.26009,-0.26884 -2.19884,-0.15998 -6.61375,-0.77553 -7.34536,-1.02412 -24.5572,-0.19926 -36.54511,2.98878 -7.34147,1.9157 -15.29149,6.05992 -18.84746,12.76232 -1.9071,3.59456 -1.19613,8.31806 0,12.20743 1.57749,5.12939 5.32444,9.45154 9.04677,13.3172 4.76149,4.94484 12.26516,6.87304 16.58575,12.20743 3.83389,4.73349 4.89916,11.15687 7.53901,16.64648 1.4394,2.99325 3.74808,5.64855 4.5234,8.87815 0.69082,2.87762 -2.48218,7.2667 0,8.87813 5.78287,3.75424 12.55042,-5.71565 18.8932,-8.41843 5.84143,-2.48914 11.47873,-5.66102 17.64406,-7.17984 7.24058,-1.7837 15.10563,-0.0784 22.26683,-2.15801 4.90169,-1.42346 8.5946,-6.30138 13.66161,-6.91631 6.23559,-0.75674 14.88908,-0.99227 18.36014,4.24289 0.7472,1.12694 0.11831,4.08024 0.0169,5.60861 -0.1337,2.01548 -1.09399,4.27027 -1.09399,4.27027 0,0 4.80674,-2.52632 6.70878,-3.56394 1.71543,-0.93581 2.64286,-1.02814 6.05541,-3.16559 0,0 -2.43411,-12.67546 -2.99839,-19.34194 -0.43681,-5.16046 0.99597,-10.45449 0,-15.53673 -0.76823,-3.92014 -3.01555,-7.39845 -4.52334,-11.09767 -1.50779,-3.69922 -5.35695,-7.19089 -4.5234,-11.09766 1.45149,-6.80296 12.07688,-8.15159 15.07799,-14.42697 2.56276,-5.35878 2.40228,-11.88396 1.50777,-17.75628 -0.60156,-3.94915 -1.91091,-8.07562 -4.52338,-11.09764 -1.9072,-2.20618 -4.95717,-5.79511 -7.53898,-4.43907 z"
     id="C32.3"
     inkscape:connector-curvature="0"
     sodipodi:nodetypes="ssssssssssssssssssssssscsssssssssss"
     inkscape:label="#path4150" />
  <path
     style="fill:none;fill-rule:evenodd;stroke:#000000;stroke-width:1;stroke-linecap:butt;stroke-linejoin:miter;stroke-miterlimit:4;stroke-dasharray:none;stroke-opacity:1"
     d="m 422.88335,591.11273 c 0,0 13.03115,-18.97007 17.11228,-28.88832 1.59494,-3.87614 0.57882,-8.79708 3.0156,-12.20742 2.78038,-3.89122 7.78212,-5.63496 12.06238,-7.76838 2.87587,-1.43343 7.5367,-2.89181 7.5367,-2.89181"
     id="path4154"
     inkscape:connector-curvature="0"
     sodipodi:nodetypes="csssc" />
  <path
     style="fill:none;fill-rule:evenodd;stroke:#000000;stroke-width:1;stroke-linecap:butt;stroke-linejoin:miter;stroke-miterlimit:4;stroke-dasharray:none;stroke-opacity:1"
     d="m 473.13133,590.4992 c 0,0 1.55938,9.82888 0,14.12502 -1.55938,4.29614 -6.21686,7.45691 -8.52939,10.20139 -2.31253,2.74448 -5.15404,5.0423 -5.33088,6.2778 -0.30555,2.13465 5.33088,10.20141 5.33088,10.20141 0,0 4.41922,7.01912 5.33086,10.98611 0.70301,3.05916 0,9.4167 0,9.4167 0,2.09259 -0.77114,4.33245 0,6.27777 1.72033,4.33984 8.42882,6.16736 9.59559,10.2014 1.16677,4.03404 -3.10328,6.91711 -2.13237,10.98615 0.97091,4.06904 6.50137,7.27899 8.52939,10.98612 2.02802,3.70713 3.48313,7.78145 3.82754,10.78616 0.34441,3.00471 -1.71549,3.5958 -0.75391,6.65859 0.96158,3.06279 7.06488,6.17631 8.29288,9.43302 1.228,3.25671 -1.00369,4.7858 0,8.32325 1.00369,3.53745 7.21563,11.69196 7.21563,11.69196 l -28.46523,0.0952 -22.22891,-0.0952 -20.40882,0.0478 c 0,0 2.06458,-8.79115 0.55985,-11.73955 -1.50473,-2.9484 -5.64392,-1.82506 -6.78506,-4.43908 -1.14114,-2.61402 1.57963,-6.24038 1.50779,-8.87814 -0.0718,-2.63776 -0.0303,-4.40106 -1.50779,-6.65859 -1.47744,-2.25753 -5.696,-3.03101 -7.53902,-5.54886 -1.38453,-1.89148 -2.02235,-4.32675 -2.26167,-6.65856 -0.2093,-2.03932 0.99112,-4.06747 0.75388,-6.10373 -0.25109,-2.15517 -1.082,-4.28266 -2.26168,-6.1037 -1.72288,-2.65957 -4.42012,-4.54946 -6.78509,-6.65862 -2.41311,-2.15209 -4.45145,-4.71427 -5.1964,-7.86064 -0.70171,-2.96374 1.42689,-6.56631 1.42689,-6.56631 0,0 -4.41422,-7.21035 -6.0312,-11.09769 -1.17233,-2.81838 -2.01246,-6.60831 -2.62357,-8.77356 -0.61112,-2.16526 -0.87325,-3.52242 -1.30271,-4.12549 -0.42946,-0.60307 -9.6439,-4.85718 -9.6439,-4.85718 0,0 -10.9558,-3.25935 -13.57015,-7.76839 -1.02052,-1.76011 -1.52558,-4.14459 -1.61598,-6.17715 -0.13128,-2.95331 -0.92642,-5.92027 0.8291,-8.76026 7.52351,0.87103 11.44914,-5.65366 15.51584,-7.69234 6.88671,-3.45239 14.99841,-7.15124 20.96592,-8.64755 5.96751,-1.49631 14.9181,-0.89614 14.9181,-0.89614 0,0 8.1926,-0.73067 11.29535,-3.40955 3.10275,-2.67888 6.09861,-4.58142 9.71203,-4.92349 5.98807,-0.56687 14.15716,-0.70227 17.57971,4.2439 1.79489,2.59391 -0.99395,10.18307 -0.99395,10.18307 z"
     id="path4156"
     inkscape:connector-curvature="0"
     sodipodi:nodetypes="czzscssszzzzzzzcccczzzzsssssscszzcsscszczsscc" />
  <path
     style="fill:none;fill-rule:evenodd;stroke:#000000;stroke-width:1;stroke-linecap:butt;stroke-linejoin:miter;stroke-miterlimit:4;stroke-dasharray:none;stroke-opacity:1"
     d="m 74.116733,352.7795 c 0,0 16.47954,-9.88322 22.101133,-14.7279 5.621594,-4.84468 10.105014,-7.85628 12.062384,-13.31719 1.95737,-5.46091 4.59772,-10.99936 7.90218,-9.69075 4.52613,1.7924 0.63248,6.32397 -0.3632,9.69075 -0.99568,3.36678 -3.3584,6.559 -1.50779,9.98789 1.85061,3.42889 6.13589,6.15348 12.06238,5.54883 5.92649,-0.60465 12.43791,-10.27463 18.09355,-13.3172 5.65564,-3.04257 10.04866,-3.51528 15.07799,-5.54884 5.02933,-2.03356 8.48553,-5.10867 15.07796,-6.65859 6.59243,-1.54992 15.75799,-1.81093 24.12475,-1.10976 8.36676,0.70117 18.05882,4.52111 25.63258,5.54883 7.57376,1.02772 11.30887,0.72247 19.60135,1.10976 8.29248,0.38729 17.83737,0.41439 30.15594,1.10976 12.31857,0.69537 32.09092,0.23124 43.72614,3.32932 11.63522,3.09808 18.80432,6.9557 25.63253,12.20742 6.82821,5.25172 10.56503,12.00738 15.07796,17.75626 4.51293,5.74888 7.54573,11.07853 12.06241,16.6465 4.51668,5.56797 12.78691,11.9292 15.07793,16.6465 2.29102,4.7173 -1.09726,6.90224 1.50784,8.87814 2.6051,1.9759 6.77894,3.35304 10.55456,-1.10978 3.77562,-4.46282 0.57293,-16.68311 -1.50781,-24.41486 -2.08074,-7.73175 -6.079,-13.09415 -10.55459,-21.08556 -4.47559,-7.99141 -9.89441,-19.17368 -16.58574,-26.63439 -6.69133,-7.46071 -13.30424,-13.79218 -22.61694,-17.75627 -9.3127,-3.96409 -21.10552,-3.23722 -31.66375,-4.43906 -10.55823,-1.20184 -21.54891,-1.8962 -31.66375,-2.77442 -10.11484,-0.87822 -13.44722,-1.25702 -29.02511,-2.49697 -15.57789,-1.23995 -43.15825,-2.81792 -64.45834,-4.71652 -21.30009,-1.8986 -47.40832,-6.65859 -63.32746,-6.65859 -15.91914,0 -21.48503,0.87471 -31.663744,3.3293 -10.178713,2.45459 -28.904595,11.16126 -28.904595,11.16126"
     id="path4158"
     inkscape:connector-curvature="0"
     sodipodi:nodetypes="czzszzzzzzzzzzzzzzzzzzzzzzzzzzzc" />
  <path
     style="fill:none;fill-rule:evenodd;stroke:#000000;stroke-width:1;stroke-linecap:butt;stroke-linejoin:miter;stroke-miterlimit:4;stroke-dasharray:none;stroke-opacity:1"
     d="m 75.507655,363.07598 c 0,0 23.891541,-2.65847 32.772595,3.82956 4.91863,3.59329 5.02599,11.09766 7.53898,16.64649 2.51299,5.54883 3.32535,11.47163 5.9652,16.96124 1.4394,2.99325 2.78746,8.84103 6.09719,8.56338 5.02218,-0.42131 3.89534,-9.27508 4.52339,-14.42696 0.46388,-3.80519 0.0578,-8.65915 3.01559,-11.09766 3.88846,-3.20582 10.29109,-2.68559 15.07797,-1.10977 3.77549,1.24288 5.78192,5.50126 9.04679,7.76836 5.65863,3.9293 11.92097,6.92874 18.09358,9.98789 4.92284,2.43976 9.79919,5.13491 15.07794,6.65859 2.44044,0.70442 5.01242,1.37155 7.53897,1.10979 4.26162,-0.44152 11.86196,-0.15933 12.0624,-4.43907 0.52131,-11.1309 -23.23859,-10.68978 -29.61447,-15.50989 -6.37588,-4.8201 -21.06039,-11.10023 -21.65063,-15.56357 -0.59024,-4.46334 8.23149,-10.54291 13.57017,-14.42697 6.29465,-4.57956 13.71487,-7.55492 21.10917,-9.98789 7.29793,-2.40126 14.94469,-4.03657 22.61696,-4.43908 16.62877,-0.87239 33.27691,2.05712 49.7573,4.43908 11.16177,1.61325 22.3436,3.50537 33.17157,6.65859 21.39858,6.2315 42.16582,15.40038 57.29625,26.63439 6.67081,5.4919 10.82661,13.56316 15.07798,21.08556 4.36235,7.71877 9.68391,15.59153 10.55457,24.41487 0.7059,7.15369 -2.02765,14.34427 -4.52336,21.08556 -1.46172,3.94833 -3.8404,7.50234 -6.03121,11.09766 -2.32706,3.81892 -9.99683,7.36159 -7.53897,11.09767 3.23466,4.91687 17.8848,-3.36564 17.8848,-3.36564"
     id="path4160"
     inkscape:connector-curvature="0"
     sodipodi:nodetypes="csssssssssssszzsssssssssssc" />
  <path
     style="fill:none;fill-rule:evenodd;stroke:#000000;stroke-width:1;stroke-linecap:butt;stroke-linejoin:miter;stroke-miterlimit:4;stroke-dasharray:none;stroke-opacity:1"
     d="m 407.47092,440.24737 c 0,0 5.52683,-6.92182 9.09341,-6.12474 8.17052,1.82598 10.37808,13.57368 12.87674,21.5642 2.21317,7.07754 3.0308,14.93792 1.5078,22.19534 -1.11439,5.31033 -6.83869,9.04635 -7.53898,14.42697 -0.88113,6.77008 2.42701,13.47843 4.52336,19.97579 2.46805,7.64939 9.42374,22.19534 9.42374,22.19534"
     id="path4162"
     inkscape:connector-curvature="0"
     sodipodi:nodetypes="csssssc" />
  <path
     style="fill:none;fill-rule:evenodd;stroke:#000000;stroke-width:1.24646;stroke-linecap:butt;stroke-linejoin:miter;stroke-miterlimit:4;stroke-dasharray:none;stroke-opacity:1"
     d="m 376.66817,563.33417 28.64812,-2.21952 18.0936,1.10976 v 0 l -3.01561,-1.10976"
     id="path4164"
     inkscape:connector-curvature="0" />
  <path
     style="fill:none;fill-rule:evenodd;stroke:#000000;stroke-width:1.24646;stroke-linecap:butt;stroke-linejoin:miter;stroke-miterlimit:4;stroke-dasharray:none;stroke-opacity:1"
     d="m 381.19154,569.99278 22.61695,2.21952 16.58579,-2.21952 6.03116,-1.10977"
     id="path4166"
     inkscape:connector-curvature="0" />
  <path
     style="fill:none;fill-rule:evenodd;stroke:#000000;stroke-width:1;stroke-linecap:butt;stroke-linejoin:miter;stroke-miterlimit:4;stroke-dasharray:none;stroke-opacity:1"
     d="m 395.40217,635.9845 24.37352,-4.67777 22.15774,-5.41634 17.52038,-4.78077"
     id="path4155"
     inkscape:connector-curvature="0"
     sodipodi:nodetypes="cccc" />
  <path
     style="fill:none;fill-rule:evenodd;stroke:#000000;stroke-width:1;stroke-linecap:butt;stroke-linejoin:miter;stroke-miterlimit:4;stroke-dasharray:none;stroke-opacity:1"
     d="m 405.25004,659.86562 c 0,0 18.64682,-3.51646 27.8203,-5.90874 4.82248,-1.25761 9.51559,-2.96741 14.27943,-4.43155 7.54373,-2.31852 22.65016,-6.89354 22.65016,-6.89354"
     id="path4157"
     inkscape:connector-curvature="0"
     sodipodi:nodetypes="cssc" />
  <path
     style="fill:none;fill-rule:evenodd;stroke:#000000;stroke-width:1;stroke-linecap:butt;stroke-linejoin:miter;stroke-miterlimit:4;stroke-dasharray:none;stroke-opacity:1"
     d="m 417.31372,684.48533 c 0,0 22.03955,-4.04295 32.99042,-6.40113 6.2659,-1.34931 12.74886,-2.07885 18.71098,-4.43156 3.6927,-1.45718 10.34029,-5.90872 10.34029,-5.90872"
     id="path4159"
     inkscape:connector-curvature="0"
     sodipodi:nodetypes="cssc" />
  <path
     style="fill:none;fill-rule:evenodd;stroke:#000000;stroke-width:1;stroke-linecap:butt;stroke-linejoin:miter;stroke-miterlimit:4;stroke-dasharray:none;stroke-opacity:1"
     d="m 428.14639,709.59744 c 0,0 19.93879,-2.21638 28.0665,-3.93914 8.12771,-1.72276 15.54786,-3.74639 20.68056,-5.90874 5.1327,-2.16235 10.34028,-5.90874 10.34028,-5.90874 v 0"
     id="path4161"
     inkscape:connector-curvature="0"
     sodipodi:nodetypes="czzcc" />
  <path
     style="fill:none;fill-rule:evenodd;stroke:#000000;stroke-width:1;stroke-linecap:butt;stroke-linejoin:miter;stroke-miterlimit:4;stroke-dasharray:none;stroke-opacity:1"
     d="m 434.47137,729.19859 c 0,0 30.92788,-2.97173 39.4677,-5.81411 8.53982,-2.84238 8.07836,-5.15841 11.81748,-6.40111 3.73912,-1.2427 10.72305,-1.47719 10.72305,-1.47719"
     id="path4163"
     inkscape:connector-curvature="0"
     sodipodi:nodetypes="czzc" />
  <path
     id="C31.9"
     style="font-size:33.2768px;font-family:'.Arial Hebrew Desk Interface';-inkscape-font-specification:'.Arial Hebrew Desk Interface, Normal';display:inline;fill:none;stroke:#000000;stroke-width:1;stroke-dasharray:none"
     d="m 618.93383,143.71544 q -2.7719,3.62043 -7.41057,3.62043 -4.18613,0 -6.84489,-2.65875 -2.60219,-2.71532 -2.60219,-6.78832 0,-4.35583 2.99817,-7.354 3.05474,-2.99817 7.24087,-2.99817 5.31751,0 8.42882,3.95985 3.16787,3.95985 3.16787,10.63501 0,7.24086 -3.28101,11.70984 -3.22446,4.46898 -8.99452,4.46898 -3.05473,0 -5.54378,-1.69709 -2.43247,-1.75366 -2.99817,-4.01642 l 4.80839,-0.7354 q 1.13138,2.14964 4.12955,2.14964 3.22446,0 5.03468,-2.7719 1.86678,-2.82846 1.86678,-7.5237 z m -0.90511,-5.93977 q 0,-2.88504 -1.47081,-4.52555 -1.41423,-1.64049 -3.95985,-1.64049 -2.20619,0 -3.79014,1.75363 -1.58393,1.69709 -1.58393,4.41241 0,2.37592 1.4708,3.95985 1.47081,1.52736 3.8467,1.52736 2.26278,0 3.84672,-1.52736 1.64051,-1.58393 1.64051,-3.95985 z m 15.97264,4.47502 A 21.750674,21.750674 0 0 1 612.25068,164.00135 21.750674,21.750674 0 0 1 590.5,142.25069 21.750674,21.750674 0 0 1 612.25068,120.5 a 21.750674,21.750674 0 0 1 21.75068,21.75069 z"
     inkscape:label="C32.9" />
  <path
     id="C32.8"
     style="font-size:33.2768px;font-family:'.Arial Hebrew Desk Interface';-inkscape-font-specification:'.Arial Hebrew Desk Interface, Normal';display:inline;fill:none;stroke:#000000;stroke-width:1;stroke-dasharray:none"
     d="m 606.21,80.95843 q -3.28102,-2.26276 -3.28102,-6.10946 0,-3.84672 2.77191,-5.88321 2.82845,-2.03649 6.50545,-2.03649 3.62044,0 6.44891,2.03649 2.82846,2.03649 2.82846,5.88321 0,3.8467 -3.28102,6.10946 v 0.0567 q 2.2062,1.01825 3.5073,3.05474 1.35765,1.97992 1.35765,4.35583 0,3.84672 -2.99816,6.61861 -2.99817,2.7719 -7.86314,2.7719 -5.03466,0 -7.97626,-2.7719 -2.88504,-2.82846 -2.88504,-6.61861 0,-2.37591 1.30111,-4.35583 1.35766,-2.03649 3.56385,-3.05474 z m 5.99634,-1.58393 q 1.69709,0 3.05474,-1.01824 1.41423,-1.01825 1.41423,-2.94161 0,-2.09306 -1.35766,-3.1113 -1.30108,-1.07483 -3.11131,-1.07483 -1.97992,0 -3.22444,1.13139 -1.24453,1.13138 -1.24453,3.05474 0,1.86678 1.35767,2.94161 1.41423,1.01824 3.1113,1.01824 z m 0,14.14232 q 2.14963,0 3.79014,-1.24453 1.64051,-1.24452 1.64051,-3.84671 0,-2.09306 -1.58393,-3.5073 -1.58394,-1.41423 -3.84672,-1.41423 -2.20619,0 -3.8467,1.41423 -1.58394,1.41424 -1.58394,3.5073 0,2.60219 1.64051,3.84671 1.64051,1.24453 3.79013,1.24453 z M 634.00133,82.25068 A 21.750674,21.750674 0 0 1 612.25068,104.00136 21.750674,21.750674 0 0 1 590.5,82.25068 21.750674,21.750674 0 0 1 612.25068,60.5 21.750674,21.750674 0 0 1 634.00133,82.25068 Z"
     inkscape:label="C32.8" />
  <path
     id="path4152"
     style="fill:none;fill-rule:evenodd;stroke:#000000;stroke-width:1;stroke-linecap:butt;stroke-linejoin:miter;stroke-miterlimit:4;stroke-dasharray:none;stroke-opacity:1"
     d="m 555.73073,75.25993 c 0,0 7.84903,14.35637 10.83783,21.94887 2.8222,7.16928 5.69123,14.49384 6.64029,22.13993 1.36492,10.9965 -0.39927,22.1814 -1.47562,33.20989 -0.95806,9.81649 -2.18717,19.65089 -4.42687,29.25636 -2.76348,11.85179 -7.16657,23.26362 -11.06714,34.7913 -3.5004,10.34502 -6.73714,20.81165 -11.06717,30.83777 -3.86948,8.95972 -8.30105,17.69984 -13.28059,26.0935 -4.88847,8.24015 -10.99489,15.69815 -16.23183,23.72134 -5.08995,7.79801 -11.44655,15.0172 -14.7562,23.72138 -3.61188,9.49904 -4.92869,19.88721 -5.16467,30.04703 -0.27754,11.94889 3.1837,23.69474 4.42686,35.58203 1.51321,14.46953 1.92403,29.04816 3.68905,43.48914 1.1334,9.27324 2.57357,18.51835 4.42686,27.67493 2.0459,10.10824 3.95182,20.31961 7.3781,30.04704 3.47851,9.8757 7.57312,19.68756 13.28059,28.46562 5.71562,8.79059 13.15292,16.39975 20.65869,23.72138 5.02876,4.90539 10.938,8.82399 16.23183,13.44207 3.52316,3.07344 10.32935,9.48855 10.32935,9.48855 M 97.575436,74.91236 c 0,0 -6.27142,23.77663 -9.10796,35.73854 -2.11693,8.92728 -6.4412,17.72519 -5.90248,26.8842 0.57327,9.74646 6.92983,18.28144 9.59154,27.67492 1.54576,5.45516 4.27459,10.96534 3.68904,16.60496 -1.04596,10.07403 -7.30753,19.0047 -12.54277,27.6749 -6.21287,10.28927 -14.24454,19.39808 -22.134305,28.46562 -5.7905,6.6549 -13.8408,11.45271 -18.44527,18.97709 -3.19613,5.22293 -6.60319,11.31263 -5.90249,17.39566 0.63937,5.5506 5.29984,9.92145 8.85373,14.23281 3.20248,3.88505 6.51369,8.13092 11.06716,10.27926 3.59057,1.69405 8.771535,-0.97988 11.804975,1.58143 5.06161,4.27381 5.84345,12.35273 5.90248,18.97707 0.0391,4.39258 -1.95482,8.61546 -3.68906,12.65139 -0.96367,2.24265 -3.57749,3.88731 -3.68904,6.32569 -0.23925,5.22974 3.1964,10.28985 6.64028,14.23282 1.92346,2.20221 7.01569,1.84288 7.37811,4.74427 0.44683,3.57712 -6.13906,4.52182 -7.37811,7.90711 -1.72333,4.70842 -1.42245,10.49892 0.73782,15.02355 1.70485,3.57075 5.90248,5.2714 8.85372,7.9071 1.47562,1.31785 3.64765,2.13504 4.42687,3.95356 3.01203,7.02936 -0.25938,15.29812 -0.73782,22.93064 -0.49683,7.92591 -2.54232,15.7867 -2.21342,23.72135 0.23283,5.61691 0.21245,11.69549 2.95124,16.60496 2.89155,5.18331 7.9436,9.2637 13.280594,11.86066 6.73936,3.27934 14.71459,2.89467 22.13428,3.95357 9.79456,1.39783 19.61945,3.03396 29.51242,3.16285 13.0761,0.17036 26.02907,-2.91527 39.10394,-3.16285 6.15297,-0.11651 12.50987,-0.83523 18.44527,0.7907 7.53496,2.06411 15.51865,5.18643 20.65869,11.06998 6.47826,7.41534 7.86739,18.14108 10.32935,27.67491 1.66579,6.45068 0.48375,13.57928 2.95124,19.76779 2.38295,5.97648 7.88499,10.22221 11.06714,15.81423 4.43387,7.79167 8.01545,16.08258 11.06717,24.51207 3.44506,9.51598 8.35028,19.13867 8.1159,29.25635 -0.27734,11.97232 -11.19636,34.1374 -11.19636,34.1374"
     inkscape:label="Kopfform"
     sodipodi:nodetypes="csssssssssssssssssccssssssssssssssssssssssssssssssssssc" />
</svg>
