<?xml version="1.0" encoding="UTF-8" standalone="no"?>
<!-- Created with Inkscape (http://www.inkscape.org/) -->

<svg
   id="svg4136"
   version="1.1"
   inkscape:version="1.3 (0e150ed, 2023-07-21)"
   width="700"
   height="750"
   viewBox="0 0 700 750"
   sodipodi:docname="level3_C03_06.01.svg"
   xmlns:inkscape="http://www.inkscape.org/namespaces/inkscape"
   xmlns:sodipodi="http://sodipodi.sourceforge.net/DTD/sodipodi-0.dtd"
   xmlns="http://www.w3.org/2000/svg"
   xmlns:svg="http://www.w3.org/2000/svg"
   xmlns:rdf="http://www.w3.org/1999/02/22-rdf-syntax-ns#"
   xmlns:cc="http://creativecommons.org/ns#"
   xmlns:dc="http://purl.org/dc/elements/1.1/">
  <metadata
     id="metadata4142">
    <rdf:RDF>
      <cc:Work
         rdf:about="">
        <dc:format>image/svg+xml</dc:format>
        <dc:type
           rdf:resource="http://purl.org/dc/dcmitype/StillImage" />
      </cc:Work>
    </rdf:RDF>
  </metadata>
  <defs
     id="defs4140" />
  <sodipodi:namedview
     pagecolor="#ffffff"
     bordercolor="#666666"
     borderopacity="1"
     objecttolerance="10"
     gridtolerance="10"
     guidetolerance="10"
     inkscape:pageopacity="0"
     inkscape:pageshadow="2"
     inkscape:window-width="1344"
     inkscape:window-height="714"
     id="namedview4138"
     showgrid="false"
     inkscape:zoom="0.67438314"
     inkscape:cx="203.89003"
     inkscape:cy="355.13936"
     inkscape:window-x="0"
     inkscape:window-y="25"
     inkscape:window-maximized="0"
     inkscape:current-layer="svg4136"
     inkscape:showpageshadow="2"
     inkscape:pagecheckerboard="0"
     inkscape:deskcolor="#d1d1d1" />
  <path
     style="fill:none;fill-rule:evenodd;stroke:#000000;stroke-width:1.44884;stroke-linecap:butt;stroke-linejoin:miter;stroke-miterlimit:4;stroke-dasharray:none;stroke-opacity:1"
     d="m 212.5517,557.74588 c 0,0 7.124,15.69279 11.6422,22.33981 4.45386,6.55236 9.6903,12.6364 15.5193,18.00232 10.17817,9.36958 21.1255,18.35668 33.56502,24.40998 12.70836,6.18412 26.75114,9.90793 40.78326,11.5947 13.38732,1.60926 31.32007,1.08689 44.62435,-1.10541 15.851,-2.61195 27.86122,-6.51436 41.9949,-14.15081 12.88977,-6.96436 23.91114,-17.35603 33.56498,-28.37655 7.64101,-8.72273 14.07011,-18.68983 18.76749,-29.29198 2.51825,-5.68379 4.87239,-18.00233 4.87239,-18.00233 0,0 -3.36338,2.64353 -5.23323,3.66148 -3.08016,1.67684 -9.74469,3.96659 -9.74469,3.96659 0,0 -3.74797,7.92856 -6.49648,11.28963 -2.43549,2.97829 -5.01314,6.40814 -8.66192,7.62808 -5.03503,1.68342 -15.88017,-1.22045 -15.88017,-1.22045 0,0 -5.06692,7.14509 -8.66195,9.45885 -2.76581,1.78007 -6.09838,2.89429 -9.38376,3.05123 -4.67802,0.22346 -13.71474,-3.05123 -13.71474,-3.05123 0,0 -3.99442,7.46782 -7.57917,9.15375 -5.98761,2.81601 -19.85026,0 -19.85026,0 0,0 -3.54433,3.27441 -5.77463,3.96662 -4.71081,1.46208 -6.39112,2.00427 -11.18096,0.82663 -2.76901,-0.68079 -7.57917,-3.96662 -7.57917,-3.96662 0,0 -4.85095,3.13747 -6.50381,4.05537 -3.89248,2.16165 -9.55837,2.02281 -13.3538,-0.30503 -2.16565,-1.32825 -3.60917,-6.71287 -3.60917,-6.71287 0,0 -5.34117,3.31091 -8.30101,4.27175 -3.82042,1.2402 -7.98052,2.66244 -11.91016,1.83077 -4.61236,-0.97617 -11.91017,-7.62814 -11.91017,-7.62814 0,0 -5.28817,2.04785 -7.94007,3.05127 -3.95593,1.49684 -8.26694,2.53315 -12.23354,2.09384 -7.71409,-0.85436 -12.12246,-3.44459 -15.5887,-11.42738 0,0 -10.71153,-4.78778 -14.57584,-6.46548 -6.98887,-3.03425 -7.63601,-11.4402 -9.66649,-12.94839 z"
     id="C03.1"
     inkscape:connector-curvature="0"
     sodipodi:nodetypes="csssssssscscsscsscscsscsscsscsscsc"
     inkscape:label="#path4150" />
  <path
     style="fill:none;fill-rule:evenodd;stroke:#000000;stroke-width:1.44884;stroke-linecap:butt;stroke-linejoin:miter;stroke-miterlimit:4;stroke-dasharray:none;stroke-opacity:1"
     d="m 212.37914,557.47862 c 0,0 -3.59145,-8.24639 -5.75225,-12.18343 -1.22738,-2.23632 -2.47861,-4.48956 -4.08326,-6.47267 -1.94358,-2.40198 -6.63534,-6.47267 -6.63534,-6.47267 0,0 0.70795,-10.49878 -0.51041,-15.53442 -0.9355,-3.86654 -5.10408,-10.78778 -5.10408,-10.78778 0,0 -3.07868,-10.33486 -6.12493,-14.67136 -1.59139,-2.26543 -5.45688,-2.8879 -6.12491,-5.56407 -0.85503,-3.42528 3.57287,-9.97031 3.57287,-9.97031 0,0 -4.58126,-4.43505 -5.6145,-7.33577 -1.83493,-5.15139 -0.51043,-16.39737 -0.51043,-16.39737 0.25222,-5.76098 36.06443,-8.07275 36.23905,-2.04969 l 0.92707,22.03115 c 0,0 7.35551,5.0049 8.77071,8.92977 2.05644,5.70327 -1.53124,18.12349 -1.53124,18.12349 0,0 9.50236,3.29993 11.7394,7.3357 2.44066,4.4031 0,15.10288 0,15.10288 0,0 9.54473,3.53468 11.09031,8.1987 0.96019,2.89754 -1.90294,8.63023 -1.90294,8.63023 0,0 10.44689,-0.746 14.29144,2.15754 1.63931,1.23807 2.55201,5.6097 2.55201,5.6097 0,0 8.88996,-2.36048 12.27263,0.23412 3.48981,2.67677 3.03969,11.84817 3.03969,11.84817 0,0 5.30428,-2.53939 8.16652,-3.02062 6.71277,-1.12861 14.32334,-2.60328 20.41638,0.43149 1.47569,0.735 3.06244,3.88362 3.06244,3.88362 0,0 5.48287,-3.93008 8.67695,-4.74662 3.46155,-0.88492 7.52029,-1.5925 10.71863,0 1.98274,0.98723 4.00459,5.30247 4.00459,5.30247 0,0 2.93389,-5.81336 5.69317,-7.02852 4.36771,-1.9235 10.25199,-1.67852 14.29147,0.86302 2.36869,1.49032 4.08328,7.33572 4.08328,7.33572 0,0 5.08245,-4.24109 8.1665,-5.17815 5.5365,-1.68222 17.35391,-0.43149 17.35391,-0.43149 0,0 6.46045,-10.31279 11.73943,-12.51383 4.86985,-2.03045 15.8227,0.43149 15.8227,0.43149 0,0 5.14542,-7.45163 7.65608,-11.21929 1.90311,-2.85594 3.0353,-6.36624 5.61457,-8.63023 4.25343,-3.73351 15.31225,-7.3357 15.31225,-7.3357 0,0 -1.53857,-10.22756 0.51036,-14.67137 2.31842,-5.02829 12.24978,-11.21928 12.24978,-11.21928 0,0 -6.28434,-14.80885 -3.57282,-21.5756 1.4249,-3.55593 9.18736,-6.90417 9.18736,-6.90417 0,0 -3.26933,-16.6226 -2.06729,-22.1858 0.86427,-3.99996 8.25262,-0.57132 12.27548,0.17914 2.85319,0.53226 5.26785,2.87338 8.16653,3.02057 6.31783,0.32082 15.05173,-7.30889 18.37475,-4.74659 3.40292,2.62391 3.42923,12.66128 2.55203,18.98649 -0.64611,4.65888 -5.88607,12.89594 -5.88607,12.89594 0,0 8.37548,8.81783 8.4381,14.28928 0.0878,7.67427 -11.28836,17.82405 -16.84348,27.18521 -2.43617,4.1053 -2.84502,9.47677 -6.1249,12.94531 -1.86262,1.96976 -7.14575,3.88359 -7.14575,3.88359 l -6.72823,15.61298"
     id="path4152"
     inkscape:connector-curvature="0"
     sodipodi:nodetypes="csscscsscssscscscscscscsscsscsscscscsscscscssssscssscc" />
  <path
     style="fill:none;fill-rule:evenodd;stroke:#000000;stroke-width:1.44884;stroke-linecap:butt;stroke-linejoin:miter;stroke-miterlimit:4;stroke-dasharray:none;stroke-opacity:1"
     d="m 181.61685,475.82191 c 0,0 11.66704,2.43802 17.35393,1.29454 4.998,-1.00496 9.37562,-4.31066 14.41905,-4.63892"
     id="path4154"
     inkscape:connector-curvature="0"
     sodipodi:nodetypes="csc" />
  <path
     style="fill:none;fill-rule:evenodd;stroke:#000000;stroke-width:1.44884;stroke-linecap:butt;stroke-linejoin:miter;stroke-miterlimit:4;stroke-dasharray:none;stroke-opacity:1"
     d="m 189.78339,504.73311 c 0,0 12.03915,0.0142 17.86433,-1.29453 4.27259,-0.95994 12.24982,-4.7466 12.24982,-4.7466"
     id="path4156"
     inkscape:connector-curvature="0"
     sodipodi:nodetypes="csc" />
  <path
     style="fill:none;fill-rule:evenodd;stroke:#000000;stroke-width:1.44884;stroke-linecap:butt;stroke-linejoin:miter;stroke-miterlimit:4;stroke-dasharray:none;stroke-opacity:1"
     d="m 196.04385,532.2082 c 2.55202,0 9.08416,-1.66448 13.13507,-3.74195 3.09077,-1.58507 4.90451,-5.27917 8.16654,-6.47269 4.31611,-1.57918 14.3945,-0.60677 14.3945,-0.60677"
     id="path4158"
     inkscape:connector-curvature="0"
     sodipodi:nodetypes="cssc" />
  <path
     style="fill:none;fill-rule:evenodd;stroke:#000000;stroke-width:1.44884;stroke-linecap:butt;stroke-linejoin:miter;stroke-miterlimit:4;stroke-dasharray:none;stroke-opacity:1"
     d="m 211.81198,557.92052 c 0,0 8.49225,-3.8788 12.42404,-6.3684 5.98267,-3.78821 16.8435,-12.94537 16.8435,-12.94537"
     id="path4160"
     inkscape:connector-curvature="0"
     sodipodi:nodetypes="csc" />
  <path
     style="fill:none;fill-rule:evenodd;stroke:#000000;stroke-width:1.44884;stroke-linecap:butt;stroke-linejoin:miter;stroke-miterlimit:4;stroke-dasharray:none;stroke-opacity:1"
     d="m 257.78127,546.10312 c 0,0 -7.3433,6.79329 -9.81123,11.05862 -2.2792,3.93915 -2.00358,9.03899 -4.33851,12.94536 -1.7212,2.87958 -6.89046,7.33567 -6.89046,7.33567"
     id="path4162"
     inkscape:connector-curvature="0"
     sodipodi:nodetypes="cssc" />
  <path
     style="fill:none;fill-rule:evenodd;stroke:#000000;stroke-width:1.44884;stroke-linecap:butt;stroke-linejoin:miter;stroke-miterlimit:4;stroke-dasharray:none;stroke-opacity:1"
     d="m 272.93626,558.03512 c 0,0 -3.16603,8.0503 -3.27383,12.28772 -0.11516,4.52672 2.82537,13.28748 2.82537,13.28748"
     id="path4164"
     inkscape:connector-curvature="0"
     sodipodi:nodetypes="csc" />
  <path
     style="fill:none;fill-rule:evenodd;stroke:#000000;stroke-width:1.44884;stroke-linecap:butt;stroke-linejoin:miter;stroke-miterlimit:4;stroke-dasharray:none;stroke-opacity:1"
     d="m 304.67773,559.48974 -5e-5,25.9356"
     id="path4166"
     inkscape:connector-curvature="0"
     sodipodi:nodetypes="cc" />
  <path
     style="fill:none;fill-rule:evenodd;stroke:#000000;stroke-width:1.44884;stroke-linecap:butt;stroke-linejoin:miter;stroke-miterlimit:4;stroke-dasharray:none;stroke-opacity:1"
     d="m 328.0822,559.57858 -0.003,9.55357 -0.005,18.6796"
     id="path4168"
     inkscape:connector-curvature="0"
     sodipodi:nodetypes="ccc" />
  <path
     style="fill:none;fill-rule:evenodd;stroke:#000000;stroke-width:1.44884;stroke-linecap:butt;stroke-linejoin:miter;stroke-miterlimit:4;stroke-dasharray:none;stroke-opacity:1"
     d="m 352.67922,587.40864 v 0 l -0.45833,-26.16281"
     id="path4170"
     inkscape:connector-curvature="0"
     sodipodi:nodetypes="ccc" />
  <path
     style="fill:none;fill-rule:evenodd;stroke:#000000;stroke-width:1.44884;stroke-linecap:butt;stroke-linejoin:miter;stroke-miterlimit:4;stroke-dasharray:none;stroke-opacity:1"
     d="m 377.04085,555.98079 1.62418,11.8999 1.44362,10.37425"
     id="path4172"
     inkscape:connector-curvature="0"
     sodipodi:nodetypes="ccc" />
  <path
     style="fill:none;fill-rule:evenodd;stroke:#000000;stroke-width:1.44884;stroke-linecap:butt;stroke-linejoin:miter;stroke-miterlimit:4;stroke-dasharray:none;stroke-opacity:1"
     d="m 405.01171,543.77584 3.97008,14.34085 2.88731,10.37425"
     id="path4174"
     inkscape:connector-curvature="0" />
  <path
     style="fill:none;fill-rule:evenodd;stroke:#000000;stroke-width:1.44884;stroke-linecap:butt;stroke-linejoin:miter;stroke-miterlimit:4;stroke-dasharray:none;stroke-opacity:1"
     d="m 418.48058,523.92142 c 0,0 4.26369,9.06084 7.46413,12.83657 4.74537,5.59837 16.96296,14.03569 16.96296,14.03569"
     id="path4176"
     inkscape:connector-curvature="0"
     sodipodi:nodetypes="csc" />
  <path
     style="fill:none;fill-rule:evenodd;stroke:#000000;stroke-width:1.44884;stroke-linecap:butt;stroke-linejoin:miter;stroke-miterlimit:4;stroke-dasharray:none;stroke-opacity:1"
     d="m 433.88478,516.31463 c 0,0 11.42248,-0.77023 16.60205,1.22048 5.26146,2.02218 13.3538,10.37428 13.3538,10.37428"
     id="path4178"
     inkscape:connector-curvature="0"
     sodipodi:nodetypes="csc" />
  <path
     style="fill:none;fill-rule:evenodd;stroke:#000000;stroke-width:1.44884;stroke-linecap:butt;stroke-linejoin:miter;stroke-miterlimit:4;stroke-dasharray:none;stroke-opacity:1"
     d="m 446.11466,490.16607 c 0,0 13.84311,0.21148 20.25234,2.34886 6.09399,2.03226 16.24118,10.37426 16.24118,10.37426"
     id="path4180"
     inkscape:connector-curvature="0"
     sodipodi:nodetypes="csc" />
  <path
     style="fill:none;fill-rule:evenodd;stroke:#000000;stroke-width:1.44884;stroke-linecap:butt;stroke-linejoin:miter;stroke-miterlimit:4;stroke-dasharray:none;stroke-opacity:1"
     d="m 452.29139,461.69733 c 0,0 9.5266,3.57907 14.43656,4.882 6.16056,1.6348 18.76751,3.66148 18.76751,3.66148"
     id="path4182"
     inkscape:connector-curvature="0"
     sodipodi:nodetypes="csc" />
  <path
     style="fill:none;fill-rule:evenodd;stroke:#000000;stroke-width:1.44884;stroke-linecap:butt;stroke-linejoin:miter;stroke-miterlimit:4;stroke-dasharray:none;stroke-opacity:1"
     d="m 221.34899,480.77527 c -0.013,-13.91145 -0.62346,-20.91661 0.49616,-30.24719 4.21643,-35.13843 42.82322,-38.22985 56.7212,-39.29377 22.66525,-1.73507 32.64133,-0.53254 58.21477,16.25865 37.6037,-35.33574 90.12401,-22.36759 103.93613,8.05549 3.56022,10.47956 4.02144,22.69656 2.16597,33.51985"
     id="path4184"
     inkscape:connector-curvature="0"
     sodipodi:nodetypes="csscsc" />
  <path
     style="fill:none;fill-rule:evenodd;stroke:#000000;stroke-width:1.44884;stroke-linecap:butt;stroke-linejoin:miter;stroke-miterlimit:4;stroke-dasharray:none;stroke-opacity:1"
     d="m 225.70571,436.92749 c 0,0 -2.79063,-11.85264 -2.95545,-19.47321 -0.20996,-9.70783 -0.0362,-19.72731 2.88733,-28.98685 5.02413,-15.91281 12.71305,-31.8628 24.54213,-43.63278 7.12274,-7.08716 16.5888,-12.24904 26.34666,-14.64598 20.04346,-4.92351 37.41752,4.72137 42.94879,14.03571 3.74512,6.30656 -1.47019,29.46667 11.18827,36.0047 3.31849,1.71398 8.18069,1.6043 11.18832,-0.61025 10.99585,-8.09637 6.17412,-24.48091 8.30093,-35.07025 2.98809,-14.87764 23.57073,-18.01726 41.50505,-15.58043 17.153,2.33067 26.88218,11.27217 36.09136,25.02022 7.71391,11.51582 12.82461,23.70042 14.77635,35.35638 2.10043,12.544 5.63782,33.33022 -3.22709,42.45036 -0.0838,0.0862 -0.36077,0 -0.36077,0"
     id="path4186"
     inkscape:connector-curvature="0"
     sodipodi:nodetypes="cssssssssssssc" />
  <path
     style="fill:none;fill-rule:evenodd;stroke:#000000;stroke-width:1.44884;stroke-linecap:butt;stroke-linejoin:miter;stroke-miterlimit:4;stroke-dasharray:none;stroke-opacity:1"
     d="m 200.46344,199.27839 -0.0897,16.79368 0.72181,9.76399 c 0,0 -11.23398,6.52919 -12.99288,12.205 -1.66428,5.37049 3.60914,16.47671 3.60914,16.47671 0,0 -7.24758,6.54118 -8.66194,10.98445 -1.42098,4.46407 0.72183,14.03578 0.72183,14.03578 0,0 -9.92913,5.92229 -10.82741,10.98445 -1.0152,5.72104 7.21827,15.86647 7.21827,15.86647 0,0 -5.7397,7.22964 -6.49645,11.59475 -0.74003,4.26863 -1.33077,10.2569 2.16548,12.81523 5.88283,4.30468 14.3831,-2.54146 21.65483,-3.05125 5.28044,-0.37019 11.44278,2.88607 15.8802,0 4.47708,-2.91187 6.00265,-9.32814 6.49647,-14.64597 0.19328,-2.08135 -1.44367,-6.10248 -1.44367,-6.10248 0,0 9.1912,-11.45274 9.38373,-18.30745 0.1,-3.55906 -4.33093,-9.76398 -4.33093,-9.76398 0,0 12.07767,-9.1833 12.27104,-15.86652 0.13548,-4.68233 -7.94011,-11.59473 -7.94011,-11.59473 0,0 5.70443,-8.5174 6.49649,-13.42546 0.58836,-3.64582 -1.44366,-10.98452 -1.44366,-10.98452 0,0 11.3365,-2.21271 13.71471,-6.71272 3.93724,-7.44998 -3.60918,-25.02021 -3.60918,-25.02021"
     id="path4188"
     inkscape:connector-curvature="0"
     sodipodi:nodetypes="cccscscscssssscscscscsc" />
  <path
     style="fill:none;fill-rule:evenodd;stroke:#000000;stroke-width:1.44884;stroke-linecap:butt;stroke-linejoin:miter;stroke-miterlimit:4;stroke-dasharray:none;stroke-opacity:1"
     d="m 242.9614,195.93385 12.99293,-11.59476 c 0,0 10.74926,8.84909 16.60201,7.323 5.42004,-1.41326 10.10563,-13.42547 10.10563,-13.42547 0,0 18.80776,5.93964 28.15122,4.27176 6.22112,-1.11052 16.60209,-9.15376 16.60209,-9.15376 0,0 12.49274,7.43871 19.48931,7.93324 6.68049,0.47219 19.48932,-4.882 19.48932,-4.882 0,0 12.38453,8.24149 19.48938,9.76399 4.70956,1.00921 14.43654,-0.61023 14.43654,-0.61023 0,0 2.23695,14.88406 7.94007,18.30746 4.34624,2.60891 15.15836,-1.22047 15.15836,-1.22047 l 6.49649,18.30745 c 0,0 -1.83606,15.10301 0.72183,21.96895 1.73579,4.65924 9.38376,11.59476 9.38376,11.59476 0,0 -4.62201,12.3781 -2.88731,18.30748 1.52708,5.21969 10.82742,12.20498 10.82742,12.20498 0,0 -5.33275,12.39675 -5.05278,18.91769 0.334,7.77944 4.28281,18.45197 7.9401,21.96898 3.13548,3.0152 10.23924,2.60508 12.99286,1.22052 3.34264,-1.68072 4.25356,-7.29514 7.94014,-7.93327 6.55779,-1.13512 11.68228,10.49291 18.04568,8.5435 5.42312,-1.66135 8.66189,-14.64597 8.66189,-14.64597 0,0 0.38099,-17.67837 -2.88731,-25.63046 -1.77259,-4.31288 -8.6619,-10.98447 -8.6619,-10.98447 0,0 2.34778,-15.82481 0,-23.18946 -1.13644,-3.56483 -6.49649,-9.15376 -6.49649,-9.15376 0,0 -3.08751,-18.69426 -6.49642,-27.46122 -3.03981,-7.81771 -12.27107,-21.96894 -12.27107,-21.96894 v 0"
     id="path4190"
     inkscape:connector-curvature="0"
     sodipodi:nodetypes="ccscscscscsccscscssssscscscscc" />
  <path
     style="fill:none;fill-rule:evenodd;stroke:#000000;stroke-width:1.44884;stroke-linecap:butt;stroke-linejoin:miter;stroke-miterlimit:4;stroke-dasharray:none;stroke-opacity:1"
     d="m 148.40203,303.94792 c -5.10838,20.47497 -10.61728,41.16343 -11.54923,62.24545 -1.11901,25.31341 1.81368,50.91587 7.21827,75.67089 6.24772,28.61687 18.96516,55.42952 28.8731,82.99385 7.48602,20.82645 13.95201,42.09291 23.09846,62.24543 9.18037,20.22727 16.49918,42.44336 31.7604,58.5839 14.37336,15.20152 33.63213,26.14845 53.41525,32.95345 21.05916,7.24393 44.14604,7.9253 66.40811,7.32301 22.42862,-0.6068 46.5792,-0.48575 66.40814,-10.98453 20.35368,-10.77662 35.603,-30.40615 47.64062,-50.0404 12.85277,-20.96382 15.67707,-46.63183 24.54212,-69.5684 9.38907,-24.29237 22.2383,-47.25034 30.31678,-72.00941 7.13231,-21.85923 12.96093,-44.32004 15.88022,-67.12736 2.73826,-21.39298 4.02165,-43.27356 1.44365,-64.68645 -3.77601,-31.3636 -15.49152,-61.27153 -24.54215,-91.53735 -8.34764,-27.91496 -19.27338,-55.02232 -27.42944,-82.99386 -6.57915,-22.56345 -9.17187,-46.30386 -17.32387,-68.3479 C 454.96693,82.720709 450.64702,73.993269 426.32322,60.028281 414.97051,53.510365 397.30418,49.205016 380.8625,47.010489 c -14.12297,-1.885042 -50.43284,7.088291 -50.43284,7.088291 0,0 -31.03688,-9.321439 -49.21138,-6.455439 -15.64288,2.466781 -31.32861,9.172254 -43.30962,19.527937 -13.51715,11.683429 -21.19284,29.026828 -28.87313,45.158442 -9.21133,19.34739 -13.71418,40.60532 -20.21115,61.0249 -7.99608,25.13119 -15.28201,50.48328 -23.09848,75.67091 -5.6896,18.33406 -12.67689,36.29673 -17.32387,54.92239 z"
     id="path4192"
     inkscape:connector-curvature="0"
     sodipodi:nodetypes="ssssssssssssssssssscssssss" />
  <path
     style="fill:none;fill-rule:evenodd;stroke:#000000;stroke-width:1.44884;stroke-linecap:butt;stroke-linejoin:miter;stroke-miterlimit:4;stroke-dasharray:none;stroke-opacity:1"
     d="m 172.84966,290.52478 c 0,0 -8.37459,20.83229 -11.13877,31.67904 -3.6705,14.40315 -5.75192,29.21619 -7.14572,44.01418 -1.18738,12.60644 -2.45932,25.39274 -1.02082,37.973 1.68849,14.76653 5.41513,28.58037 8.49914,43.67612 3.08401,15.09576 9.58438,24.63336 16.04245,37.89003"
     id="path4194"
     inkscape:connector-curvature="0"
     sodipodi:nodetypes="cssszc" />
  <path
     style="fill:none;fill-rule:evenodd;stroke:#000000;stroke-width:1.44884;stroke-linecap:butt;stroke-linejoin:miter;stroke-miterlimit:4;stroke-dasharray:none;stroke-opacity:1"
     d="m 498.25357,311.78477 c 0,0 7.06851,14.73404 9.5147,22.50141 5.38981,17.11423 10.68427,34.70977 11.22901,52.64438 0.48577,15.99299 -3.243,31.94913 -7.14573,47.46623 -4.29877,17.09174 -17.80054,49.78558 -17.80054,49.78558"
     id="path4196"
     inkscape:connector-curvature="0"
     sodipodi:nodetypes="csssc" />
  <path
     style="fill:none;fill-rule:evenodd;stroke:#000000;stroke-width:1.44884;stroke-linecap:butt;stroke-linejoin:miter;stroke-miterlimit:4;stroke-dasharray:none;stroke-opacity:1"
     d="m 180.08562,306.66945 19.39554,-1.72607 18.88515,1.72607"
     id="path4198"
     inkscape:connector-curvature="0" />
  <path
     style="fill:none;fill-rule:evenodd;stroke:#000000;stroke-width:1.44884;stroke-linecap:butt;stroke-linejoin:miter;stroke-miterlimit:4;stroke-dasharray:none;stroke-opacity:1"
     d="m 183.65849,279.05274 c 0,0 14.63099,0.53126 21.94758,0.43147 6.13109,-0.0836 18.37474,-0.86301 18.37474,-0.86301"
     id="path4200"
     inkscape:connector-curvature="0"
     sodipodi:nodetypes="csc" />
  <path
     style="fill:none;fill-rule:evenodd;stroke:#000000;stroke-width:1.44884;stroke-linecap:butt;stroke-linejoin:miter;stroke-miterlimit:4;stroke-dasharray:none;stroke-opacity:1"
     d="m 191.82503,254.45657 c 0,0 14.65879,-0.17165 21.94759,-0.863 4.79627,-0.45493 14.29145,-2.15754 14.29145,-2.15754"
     id="path4202"
     inkscape:connector-curvature="0"
     sodipodi:nodetypes="csc" />
  <path
     style="fill:none;fill-rule:evenodd;stroke:#000000;stroke-width:1.44884;stroke-linecap:butt;stroke-linejoin:miter;stroke-miterlimit:4;stroke-dasharray:none;stroke-opacity:1"
     d="m 201.44179,225.67625 c 0,0 14.03151,-1.19734 21.00778,-0.56242 3.46359,0.31523 10.20819,2.15754 10.20819,2.15754"
     id="path4204"
     inkscape:connector-curvature="0"
     sodipodi:nodetypes="csc" />
  <path
     style="fill:none;fill-rule:evenodd;stroke:#000000;stroke-width:1.44884;stroke-linecap:butt;stroke-linejoin:miter;stroke-miterlimit:4;stroke-dasharray:none;stroke-opacity:1"
     d="m 214.41294,188.38596 c 0,0 13.93441,2.92018 20.79689,4.79604 2.75464,0.75298 8.16651,2.58908 8.16651,2.58908"
     id="path4206"
     inkscape:connector-curvature="0"
     sodipodi:nodetypes="csc" />
  <path
     style="fill:none;fill-rule:evenodd;stroke:#000000;stroke-width:1.44884;stroke-linecap:butt;stroke-linejoin:miter;stroke-miterlimit:4;stroke-dasharray:none;stroke-opacity:1"
     d="m 242.86039,159.15211 c 0,0 6.00402,7.68913 8.17213,12.02278 2.10941,4.21632 4.59365,13.37688 4.59365,13.37688"
     id="path4208"
     inkscape:connector-curvature="0"
     sodipodi:nodetypes="csc" />
  <path
     style="fill:none;fill-rule:evenodd;stroke:#000000;stroke-width:1.44884;stroke-linecap:butt;stroke-linejoin:miter;stroke-miterlimit:4;stroke-dasharray:none;stroke-opacity:1"
     d="m 280.63624,142.26366 c 0,0 0.69979,11.21814 1.02079,16.82892 0.36201,6.32763 1.02083,18.98651 1.02083,18.98651"
     id="path4210"
     inkscape:connector-curvature="0"
     sodipodi:nodetypes="csc" />
  <path
     style="fill:none;fill-rule:evenodd;stroke:#000000;stroke-width:1.44884;stroke-linecap:butt;stroke-linejoin:miter;stroke-miterlimit:4;stroke-dasharray:none;stroke-opacity:1"
     d="m 325.27094,139.7652 c 0,0 0.4583,10.01235 0.7917,15.0123 0.42244,6.3353 1.53124,18.98646 1.53124,18.98646"
     id="path4212"
     inkscape:connector-curvature="0"
     sodipodi:nodetypes="csc" />
  <path
     style="fill:none;fill-rule:evenodd;stroke:#000000;stroke-width:1.44884;stroke-linecap:butt;stroke-linejoin:miter;stroke-miterlimit:4;stroke-dasharray:none;stroke-opacity:1"
     d="m 369.3923,141.64242 -1.47614,17.45016 -1.40159,17.45094"
     id="path4214"
     inkscape:connector-curvature="0"
     sodipodi:nodetypes="ccc" />
  <path
     style="fill:none;fill-rule:evenodd;stroke:#000000;stroke-width:1.44884;stroke-linecap:butt;stroke-linejoin:miter;stroke-miterlimit:4;stroke-dasharray:none;stroke-opacity:1"
     d="m 404.21713,150.05704 c 0,0 -2.92456,12.85378 -3.63476,19.39183 -0.59054,5.43648 -0.51038,16.39744 -0.51038,16.39744"
     id="path4216"
     inkscape:connector-curvature="0"
     sodipodi:nodetypes="csc" />
  <path
     style="fill:none;fill-rule:evenodd;stroke:#000000;stroke-width:1.20737;stroke-linecap:butt;stroke-linejoin:miter;stroke-miterlimit:4;stroke-dasharray:none;stroke-opacity:1"
     d="m 429.91873,181.80201 -3.30551,10.94847 -3.06247,10.78776"
     id="path4218"
     inkscape:connector-curvature="0"
     sodipodi:nodetypes="ccc" />
  <path
     style="fill:none;fill-rule:evenodd;stroke:#000000;stroke-width:1.44884;stroke-linecap:butt;stroke-linejoin:miter;stroke-miterlimit:4;stroke-dasharray:none;stroke-opacity:1"
     d="m 430.1861,221.66174 c 0,0 12.84026,0.12274 18.88514,-1.72606 7.42577,-2.27114 20.41638,-11.21929 20.41638,-11.21929"
     id="path4220"
     inkscape:connector-curvature="0"
     sodipodi:nodetypes="csc" />
  <path
     style="fill:none;fill-rule:evenodd;stroke:#000000;stroke-width:1.44884;stroke-linecap:butt;stroke-linejoin:miter;stroke-miterlimit:4;stroke-dasharray:none;stroke-opacity:1"
     d="m 439.88384,254.88811 c 0,0 9.60393,-5.28507 14.80189,-6.90422 8.23718,-2.56586 25.52044,-4.31508 25.52044,-4.31508 v 0"
     id="path4222"
     inkscape:connector-curvature="0"
     sodipodi:nodetypes="cscc" />
  <path
     style="fill:none;fill-rule:evenodd;stroke:#000000;stroke-width:1.44884;stroke-linecap:butt;stroke-linejoin:miter;stroke-miterlimit:4;stroke-dasharray:none;stroke-opacity:1"
     d="m 447.66957,285.33491 c 0,0 13.16659,-6.53968 20.2868,-8.0082 6.27406,-1.29401 19.20922,-0.59219 19.20922,-0.59219"
     id="path4224"
     inkscape:connector-curvature="0"
     sodipodi:nodetypes="csc" />
  <path
     style="fill:none;fill-rule:evenodd;stroke:#000000;stroke-width:1.44884;stroke-linecap:butt;stroke-linejoin:miter;stroke-miterlimit:4;stroke-dasharray:none;stroke-opacity:1"
     d="m 331.80728,88.704413 0.91664,32.536357"
     id="path4234"
     inkscape:connector-curvature="0"
     sodipodi:nodetypes="cc" />
  <path
     style="fill:none;fill-rule:evenodd;stroke:#000000;stroke-width:1.44884;stroke-linecap:butt;stroke-linejoin:miter;stroke-miterlimit:4;stroke-dasharray:none;stroke-opacity:1"
     d="M 335.70309,626.84266 335.0156,601.2019"
     id="path4236"
     inkscape:connector-curvature="0"
     sodipodi:nodetypes="cc" />
  <path
     style="fill:none;fill-rule:evenodd;stroke:#000000;stroke-width:1.44884;stroke-linecap:butt;stroke-linejoin:miter;stroke-miterlimit:4;stroke-dasharray:none;stroke-opacity:1"
     d="m 200.47243,199.37911 c -0.34816,-0.94763 7.59838,-23.83244 13.6159,-35.1782 6.28527,-11.85059 13.82378,-23.26218 23.0985,-32.95345 9.23195,-9.64658 20.48507,-17.25786 31.76038,-24.40998 10.51125,-6.66746 15.88087,-9.293931 27.68224,-14.326077 8.6399,-3.684088 25.88529,-4.501402 35.27785,-4.51592 15.17066,-0.02345 29.05194,-0.884691 43.87042,2.365257 10.9335,2.397906 22.04773,6.147696 31.03855,12.81527 10.9815,8.14386 18.50505,20.28943 25.98583,31.73293 6.37273,9.74849 10.78749,20.64847 15.88017,31.12269 4.92297,10.12516 14.18138,30.65419 14.18138,30.65419 0,0 -6.86371,-9.80991 -12.01588,-12.34673 -6.30241,-3.10317 -20.93302,-2.441 -20.93302,-2.441 0,0 5.91663,-19.0802 2.16549,-27.46117 -1.23514,-2.75959 -4.32646,-4.61004 -7.21829,-5.49223 -6.68536,-2.03945 -20.93301,1.22048 -20.93301,1.22048 0,0 -2.13639,-12.17173 -6.49642,-15.86647 -4.89473,-4.14784 -12.75725,-6.51675 -18.76749,-4.27176 -4.95979,1.85262 -9.3838,12.81523 -9.3838,12.81523 0,0 -2.26793,-12.58329 -7.21829,-15.25623 -5.62415,-3.03674 -13.00403,-3.33946 -19.48927,-2.44099 -4.65754,0.64526 -9.59904,2.23794 -12.99295,5.49223 -2.43646,2.33622 -4.33097,9.15375 -4.33097,9.15375 0,0 -5.84545,-7.56998 -10.10559,-9.15375 -7.89578,-2.93538 -17.77916,-3.2547 -25.26393,0.61028 -4.28655,2.21349 -8.66195,11.59471 -8.66195,11.59471 0,0 -8.39412,-4.37539 -12.99291,-4.882 -5.79659,-0.63857 -12.70509,-1.11924 -17.32384,2.441 -5.41645,4.17513 -7.94013,18.91775 -7.94013,18.91775 0,0 -10.47375,-1.89342 -15.15837,0 -4.34268,1.75522 -7.95283,5.60396 -10.10555,9.76394 -3.00311,5.80331 -2.97754,19.37544 -2.97754,19.37544 0,0 -4.72473,1.54131 -6.40624,2.59355 -2.43173,1.52171 -6.14491,7.7685 -7.84127,8.32726 z"
     id="C03.0"
     inkscape:connector-curvature="0"
     inkscape:label="#path4148"
     sodipodi:nodetypes="cssssssssscscsscsscssscsscsscsscsc" />
  <path
     id="C03.9"
     style="font-size:33.2768px;font-family:'.Arial Hebrew Desk Interface';-inkscape-font-specification:'.Arial Hebrew Desk Interface, Normal';display:inline;fill:none;stroke:#000000;stroke-width:1;stroke-dasharray:none"
     d="m 618.93383,83.71544 q -2.7719,3.62043 -7.41057,3.62043 -4.18613,0 -6.84489,-2.65875 -2.60219,-2.71532 -2.60219,-6.78832 0,-4.35583 2.99817,-7.354 3.05474,-2.99817 7.24087,-2.99817 5.31751,0 8.42882,3.95985 3.16787,3.95985 3.16787,10.63501 0,7.24086 -3.28101,11.70984 -3.22446,4.46898 -8.99452,4.46898 -3.05473,0 -5.54378,-1.69709 -2.43247,-1.75366 -2.99817,-4.01642 l 4.80839,-0.7354 q 1.13138,2.14964 4.12955,2.14964 3.22446,0 5.03468,-2.7719 1.86678,-2.82846 1.86678,-7.5237 z m -0.90511,-5.93977 q 0,-2.88504 -1.47081,-4.52555 -1.41423,-1.64049 -3.95985,-1.64049 -2.20619,0 -3.79014,1.75363 -1.58393,1.69709 -1.58393,4.41241 0,2.37592 1.4708,3.95985 1.47081,1.52736 3.8467,1.52736 2.26278,0 3.84672,-1.52736 1.64051,-1.58393 1.64051,-3.95985 z m 15.97264,4.47502 A 21.750674,21.750674 0 0 1 612.25068,104.00135 21.750674,21.750674 0 0 1 590.5,82.25069 21.750674,21.750674 0 0 1 612.25068,60.5 21.750674,21.750674 0 0 1 634.00136,82.25069 Z"
     inkscape:label="C03.9" />
</svg>
