<?xml version="1.0" encoding="UTF-8" standalone="no"?>
<!-- Created with Inkscape (http://www.inkscape.org/) -->

<svg
   id="svg4136"
   version="1.1"
   inkscape:version="1.3 (0e150ed, 2023-07-21)"
   width="700"
   height="750"
   viewBox="0 0 700 750"
   sodipodi:docname="level2_C00-C14_21.01.svg"
   xmlns:inkscape="http://www.inkscape.org/namespaces/inkscape"
   xmlns:sodipodi="http://sodipodi.sourceforge.net/DTD/sodipodi-0.dtd"
   xmlns="http://www.w3.org/2000/svg"
   xmlns:svg="http://www.w3.org/2000/svg"
   xmlns:rdf="http://www.w3.org/1999/02/22-rdf-syntax-ns#"
   xmlns:cc="http://creativecommons.org/ns#"
   xmlns:dc="http://purl.org/dc/elements/1.1/">
  <metadata
     id="metadata4142">
    <rdf:RDF>
      <cc:Work
         rdf:about="">
        <dc:format>image/svg+xml</dc:format>
        <dc:type
           rdf:resource="http://purl.org/dc/dcmitype/StillImage" />
      </cc:Work>
    </rdf:RDF>
  </metadata>
  <defs
     id="defs4140" />
  <sodipodi:namedview
     pagecolor="#ffffff"
     bordercolor="#666666"
     borderopacity="1"
     objecttolerance="10"
     gridtolerance="10"
     guidetolerance="10"
     inkscape:pageopacity="0"
     inkscape:pageshadow="2"
     inkscape:window-width="1344"
     inkscape:window-height="769"
     id="namedview4138"
     showgrid="false"
     inkscape:zoom="0.5788828"
     inkscape:cx="183.97506"
     inkscape:cy="364.49519"
     inkscape:window-x="0"
     inkscape:window-y="25"
     inkscape:window-maximized="0"
     inkscape:current-layer="svg4136"
     inkscape:showpageshadow="2"
     inkscape:pagecheckerboard="0"
     inkscape:deskcolor="#d1d1d1" />
  <path
     style="fill:none;fill-rule:evenodd;stroke:#000000;stroke-width:1;stroke-linecap:butt;stroke-linejoin:miter;stroke-miterlimit:4;stroke-dasharray:none;stroke-opacity:1"
     d="m 335.40491,510.19686 c 0,0 5.27448,-6.54752 7.79301,-9.91235 2.69606,-3.60201 5.60844,-7.08209 7.82948,-10.99492 1.76795,-3.11461 2.92645,-6.5383 4.31973,-9.83758 0.93129,-2.20529 2.33036,-4.28963 2.6998,-6.65482 0.55229,-3.53584 2.16125,-8.71074 -0.80994,-10.70555 -1.30069,-0.87326 -4.44505,0.14335 -4.85967,0.86801 -2.00597,3.50599 -1.74054,10.67879 -4.31973,15.335 -2.85529,5.15467 -5.46957,10.62514 -9.55004,14.87638 -1.56372,1.62916 -3.63596,2.68593 -5.54617,3.89029 -3.67784,2.31882 -7.27097,4.93393 -11.36202,6.40592 -8.90834,3.20529 -27.9566,5.01198 -27.9566,5.01198"
     id="path4169"
     inkscape:connector-curvature="0"
     sodipodi:nodetypes="cssssssssssc" />
  <path
     style="fill:none;fill-rule:evenodd;stroke:#000000;stroke-width:1;stroke-linecap:butt;stroke-linejoin:miter;stroke-miterlimit:4;stroke-dasharray:none;stroke-opacity:1"
     d="m 117.48995,127.93016 c 0,0 -6.49085,24.60853 -9.42663,36.98896 -2.191,9.23962 -6.66656,18.34535 -6.109,27.82481 0.59332,10.08746 7.17229,18.92107 9.92713,28.6432 1.59984,5.64602 4.42415,11.34898 3.81812,17.18591 -1.08255,10.4265 -7.5632,19.66964 -12.98161,28.64319 -6.43024,10.64927 -14.742929,20.07676 -22.908741,29.46156 -5.993094,6.88774 -14.325053,11.85341 -19.090626,19.64105 -3.307948,5.40567 -6.834213,11.70843 -6.108996,18.00429 0.66174,5.7448 5.485267,10.26857 9.163495,14.73077 3.314529,4.02098 6.74159,8.41542 11.45438,10.63893 3.716199,1.75332 9.078425,-1.01417 12.217993,1.63675 5.238706,4.42334 6.047903,12.78492 6.108996,19.64103 0.04051,4.54627 -2.023216,8.91691 -3.818135,13.09405 -0.997384,2.32112 -3.702655,4.02331 -3.818111,6.547 -0.247626,5.41271 3.308231,10.64986 6.87261,14.73078 1.990754,2.27925 7.636245,4.91025 7.636245,4.91025 0,0 -6.353845,4.68004 -7.636245,8.18378 -1.783618,4.87315 -1.472222,10.86625 0.763636,15.54918 1.764497,3.69568 6.109003,5.45583 9.163499,8.18375 1.52725,1.36396 3.77526,2.20975 4.58174,4.09189 3.11741,7.2753 -0.26845,15.83336 -0.76363,23.73292 -0.51421,8.20322 -2.63127,16.33904 -2.29086,24.55131 0.24098,5.81342 0.21988,12.10468 3.05449,17.18592 2.99272,5.36466 8.22152,9.58782 13.74525,12.27564 6.97515,3.39408 15.22943,2.99593 22.90871,4.09188 10.13725,1.44674 20.30589,3.14013 30.54499,3.27353 13.53361,0.17632 26.93976,-3.01729 40.47209,-3.27353 6.36824,-0.12058 12.94756,-0.86444 19.09062,0.81838 7.79859,2.13633 16.06161,5.3679 21.38149,11.4573 6.70492,7.67478 8.14266,18.77578 10.69076,28.64317 1.72407,6.67638 0.50068,14.05439 3.0545,20.45942 2.46633,6.18559 8.16087,10.57985 11.45436,16.36753 4.589,8.06428 8.29588,16.64528 11.45437,25.3697 3.56559,9.84892 8.64243,19.80828 8.39985,30.27995 -0.28705,12.39121 -11.5881,35.33179 -11.5881,35.33179"
     id="path4150"
     inkscape:connector-curvature="0"
     sodipodi:nodetypes="cssssssssssssssscssssssssssssssssssc" />
  <path
     style="fill:none;fill-rule:evenodd;stroke:#000000;stroke-width:1;stroke-linecap:butt;stroke-linejoin:miter;stroke-miterlimit:4;stroke-dasharray:none;stroke-opacity:1"
     d="m 591.67498,128.28991 c 0,0 8.12366,14.85865 11.21703,22.7168 2.92094,7.42011 5.89035,15.00095 6.87261,22.91455 1.41267,11.38124 -0.41325,22.95748 -1.52726,34.37183 -0.99158,10.15994 -2.26368,20.33842 -4.58174,30.27995 -2.86016,12.26646 -7.41731,24.07757 -11.45436,36.00857 -3.62287,10.70697 -6.97286,21.5398 -11.45438,31.91671 -4.00486,9.27319 -8.59148,18.3191 -13.74524,27.00643 -5.0595,8.52846 -11.37957,16.2474 -16.79974,24.55131 -5.26804,8.07084 -11.84704,15.5426 -15.27249,24.55132 -3.73826,9.83139 -5.10112,20.58303 -5.34536,31.09831 -0.28725,12.36696 3.29509,24.52377 4.58175,36.82697 1.56616,14.97579 1.99134,30.06449 3.81811,45.01072 1.17306,9.59769 2.66361,19.16626 4.58174,28.6432 2.11748,10.46191 4.09009,21.03055 7.63625,31.09832 3.60021,10.22123 7.83808,20.37638 13.74524,29.46156 5.91559,9.09815 13.61311,16.97353 21.38149,24.55132 5.20471,5.07702 11.32069,9.13272 16.79974,13.91238 3.64643,3.18097 10.69075,9.82052 10.69075,9.82052"
     id="path4152"
     inkscape:connector-curvature="0"
     sodipodi:nodetypes="csssssssssssssssssc" />
  <path
     style="fill:none;fill-rule:evenodd;stroke:#000000;stroke-width:1;stroke-linecap:butt;stroke-linejoin:miter;stroke-miterlimit:4;stroke-dasharray:none;stroke-opacity:1"
     d="m 70.217913,356.21057 c 0,0 12.74386,-9.57512 15.700302,-16.15881 2.801491,-6.23863 -0.730716,-14.00414 1.52725,-20.45941 2.83437,-8.10314 9.796609,-14.10218 14.508855,-21.27779 5.49159,-8.36236 10.88838,-16.7914 16.03613,-25.3697 6.6213,-11.03384 12.23989,-22.66057 19.09061,-33.55345 5.47571,-8.70658 9.40148,-19.11094 17.56336,-25.36967 6.43476,-4.93433 14.91889,-6.7995 22.90873,-8.18378 16.55314,-2.86792 33.60291,-0.33949 50.39922,0 13.49897,0.27285 28.50954,-4.62374 40.4721,1.63675 6.36086,3.32889 8.93866,11.25326 12.98163,17.18592 5.76432,8.45857 10.05545,17.88106 16.0361,26.18808 4.1627,5.78192 8.38449,11.67488 13.74525,16.36752 6.12595,5.36246 13.27873,9.56974 20.61785,13.09403 11.39783,5.47331 23.93139,8.17068 35.89036,12.27564 7.12984,2.44734 15.97029,2.11727 21.38149,7.36542 6.70137,6.49945 8.70407,16.93301 9.92711,26.18803 0.61449,4.64996 -1.13104,9.31873 -1.39861,14.00148 -0.18422,3.22405 -0.065,6.4585 -0.14141,9.68691 -0.13014,5.49887 -0.13652,11.0068 -0.53995,16.49239 -0.40585,5.51853 -1.41754,10.97914 -1.88988,16.49238 -0.67617,7.8925 -0.81704,15.8224 -1.34992,23.72587 -0.32386,4.8034 -0.7775,9.59731 -1.12264,14.39923 -0.54211,7.54242 -1.29025,15.07743 -1.48929,22.63669 -0.2469,9.37687 0.30641,18.75804 0.36715,28.13797 0.0446,6.88009 -0.10267,13.7612 -0.002,20.6407 0.1154,7.88583 0.26072,15.77509 0.69462,23.64982 0.96716,17.5526 1.39006,35.22135 4.25274,52.56592 3.72485,22.56837 10.08942,44.66234 16.73889,66.54819 3.57324,11.76084 12.41916,34.72079 12.41916,34.72079"
     id="path4154"
     inkscape:connector-curvature="0"
     sodipodi:nodetypes="cssssssssssssssssssssssssssssc" />
  <path
     style="fill:none;fill-rule:evenodd;stroke:#000000;stroke-width:1;stroke-linecap:butt;stroke-linejoin:miter;stroke-miterlimit:4;stroke-dasharray:none;stroke-opacity:1"
     d="m 123.60348,454.67315 c 0,0 0.53231,3.39255 0.63902,5.10376 0.12606,2.02145 0.25446,4.06681 0,6.07614 -0.36285,2.86525 -1.21622,5.66125 -2.15987,8.39087 -1.17016,3.38483 -3.98964,6.27139 -4.3197,9.83754 -0.58414,6.31134 1.91878,12.65179 4.3197,18.51777 2.2254,5.43714 4.14412,12.019 9.1794,15.04568 2.78166,1.67204 6.3889,2.94281 9.58434,2.76117 4.42998,-0.25182 8.86465,-0.0442 13.36414,0 9.81076,0.0965 19.63469,-0.0138 29.42802,0.57868 8.5777,0.51892 17.13412,1.44004 25.6483,2.60406 10.13348,1.38541 20.23681,3.06731 30.238,5.20813 6.45046,1.38076 13.24093,-0.15791 19.16872,2.73625 2.55367,1.24679 6.09599,4.74132 6.09599,4.74132"
     id="path4201"
     inkscape:connector-curvature="0"
     sodipodi:nodetypes="cssssssssssssc" />
  <path
     style="fill:none;fill-rule:evenodd;stroke:#000000;stroke-width:1;stroke-linecap:butt;stroke-linejoin:miter;stroke-miterlimit:4;stroke-dasharray:none;stroke-opacity:1"
     d="m 150.13963,457.74896 c 0,0 -0.87886,-6.53341 -2.28545,-12.89263 -0.87343,-3.94879 -2.28652,-8.98413 -5.52289,-11.40935 -2.54997,-1.91086 -6.41603,-2.42274 -9.44936,-1.44671 -2.75675,0.88704 -4.85381,3.51715 -6.20959,6.07613 -2.61511,4.93592 -2.96981,16.4924 -2.96981,16.4924 l -4.04974,0.28935 v -3.4721 -11.86293 c 0,0 -0.57343,-10.48419 -3.23977,-14.75633 -1.64261,-2.63187 -4.30843,-4.92772 -7.28951,-5.78681 -1.28169,-0.36936 -3.28425,-0.75746 -3.28425,-0.75746 1.41827,-0.69732 5.56897,-2.03016 9.09669,-6.8678 3.45606,-4.73938 0.86274,-15.227 1.15301,-20.29746 l -0.4859,-17.79299 5.39964,1.15738 -0.53995,10.12688 c 0,0 -0.56443,9.73618 1.88987,13.599 1.6122,2.53744 4.6596,4.12605 7.5595,4.91875 3.04451,0.83223 6.47152,0.6071 9.4598,-0.40869 4.26987,-1.45143 7.22371,-5.42412 11.07258,-7.77458 6.75033,-4.12234 13.76483,-7.85155 20.99966,-11.04809 8.42021,-3.72027 17.02829,-7.19615 25.96323,-9.41134 9.60356,-2.38096 19.56138,-3.03928 29.39954,-4.09188 12.69041,-1.35777 25.42968,-2.32754 38.18123,-2.86431 10.04253,-0.42274 20.16832,-1.43589 30.15297,-0.27925 8.46695,0.98082 17.00658,2.71233 24.83832,6.07613 6.39011,2.74461 12.5482,6.45107 17.54887,11.28426 4.50361,4.35278 7.13911,10.29322 10.69491,15.44934 4.27461,6.19843 7.0549,13.74024 12.79071,18.61808 1.33988,1.13946 3.02079,2.09346 4.77264,2.25054 1.04987,0.0941 2.15651,-0.2664 3.05452,-0.81837 1.84102,-1.1316 3.64784,-2.77736 4.32482,-4.82957 1.82072,-5.51937 -0.16287,-11.73404 -1.61989,-17.36037 -1.79568,-6.93405 -4.80729,-13.62365 -8.63943,-19.67512 -3.96441,-6.26033 -8.88331,-12.04177 -14.57902,-16.78173 -6.42372,-5.34581 -13.78828,-9.75755 -21.59857,-12.73097 -6.51536,-2.48043 -13.58015,-3.37238 -20.51861,-4.05072 -15.94293,-1.55866 -32.03882,0.17251 -48.05683,0 -17.91192,-0.19291 -35.81522,-0.90522 -53.7264,-1.15738 -14.57791,-0.20523 -29.15776,-0.31058 -43.7371,-0.28936 -10.12478,0.0147 -20.28984,-0.62803 -30.37298,0.28936 -7.05133,0.64155 -14.05416,1.93693 -20.92817,3.63424 -3.48717,0.86104 -7.28853,1.28428 -10.254768,3.30992 -3.290292,2.24693 -6.044508,5.57383 -7.559497,9.25887 -1.436771,3.49479 -1.248026,5.13176 -1.248026,5.13176"
     id="path4166"
     inkscape:connector-curvature="0"
     sodipodi:nodetypes="cssssccccsscsccccssssssssssssssssssssssssssssc" />
  <path
     style="fill:none;fill-rule:evenodd;stroke:#000000;stroke-width:1;stroke-linecap:butt;stroke-linejoin:miter;stroke-miterlimit:4;stroke-dasharray:none;stroke-opacity:1"
     d="m 130.2635,433.64143 c 0,0 -1.09932,-4.30237 -1.16132,-6.84929 -0.0852,-3.50007 -1.28002,-8.10512 1.34992,-10.41622 0.87881,-0.77227 2.55884,-0.68152 3.50976,0 1.82121,1.30525 1.37609,4.26639 2.15985,6.36549 0.58302,1.56147 0.89359,3.29317 1.88987,4.62941 0.55212,0.74052 1.68057,0.94644 2.15986,1.73605 0.7145,1.1771 0.80993,3.59274 0.80993,3.59274"
     id="path4168"
     inkscape:connector-curvature="0"
     sodipodi:nodetypes="cssssssc" />
  <path
     style="fill:none;fill-rule:evenodd;stroke:#000000;stroke-width:1;stroke-linecap:butt;stroke-linejoin:miter;stroke-miterlimit:4;stroke-dasharray:none;stroke-opacity:1"
     d="m 125.61792,401.28123 c 0,0 -2.40962,2.79447 -3.26075,4.81197 -0.90153,2.13697 -1.26271,4.50133 -1.39415,6.81696 -0.12609,2.22126 -0.62682,4.7851 0.58876,6.6485 0.86119,1.32014 2.67936,2.86534 4.14275,2.27977 1.74319,-0.69753 1.10732,-3.58846 1.69927,-5.37027 0.7186,-2.16306 0.99041,-4.55696 2.24833,-6.45771 0.87161,-1.31703 2.91834,-1.71835 3.50977,-3.18276 0.50676,-1.25477 -0.26997,-3.28532 -0.26997,-3.28532"
     id="path4170"
     inkscape:connector-curvature="0"
     sodipodi:nodetypes="csssssssc" />
  <path
     style="fill:none;fill-rule:evenodd;stroke:#000000;stroke-width:1;stroke-linecap:butt;stroke-linejoin:miter;stroke-miterlimit:4;stroke-dasharray:none;stroke-opacity:1"
     d="m 285.60604,507.40984 c -2.1913,1.24504 -3.73632,3.44402 -5.9181,4.70566 -3.85088,2.22681 -8.91062,2.16254 -12.4089,4.91026 -1.90558,1.49673 -3.54647,3.59992 -4.19993,5.93325 -0.73746,2.63328 0.0942,5.49136 0.57271,8.18377 0.36025,2.02724 0.27018,4.4694 1.71817,5.93323 1.49568,1.51204 4.02731,2.27722 6.10898,1.84133 3.19098,-0.66817 5.5474,-3.69163 7.44535,-6.3424 1.7084,-2.38605 1.65528,-5.71732 3.24539,-8.18378 1.48944,-2.31031 3.90667,-3.87369 5.72719,-5.93323 1.74263,-1.97143 3.8613,-3.74861 4.96356,-6.13782 0.58125,-1.25989 1.41741,-2.86808 0.7636,-4.09189 -0.81561,-1.52668 -3.04215,-2.0084 -4.77263,-2.04593 -1.15632,-0.0251 -2.23978,0.65619 -3.24539,1.22755 z"
     id="path4174"
     inkscape:connector-curvature="0"
     sodipodi:nodetypes="ssssssssssssss" />
  <path
     style="fill:none;fill-rule:evenodd;stroke:#000000;stroke-width:1;stroke-linecap:butt;stroke-linejoin:miter;stroke-miterlimit:4;stroke-dasharray:none;stroke-opacity:1"
     d="m 336.00523,509.45578 c 0,0 -7.48168,9.74695 -11.07254,14.7308 -7.07243,9.816 -14.65754,19.34234 -20.61787,29.87076 -2.73041,4.82304 -5.80614,9.70126 -6.87262,15.13996 -0.63038,3.21475 -0.37204,6.63245 0.3818,9.82051 1.20608,5.10062 4.26977,9.57419 6.49082,14.3216 1.8612,3.97824 4.1029,7.78578 5.7272,11.86648 2.32906,5.85124 3.46889,12.12535 5.72717,18.00427 1.87945,4.89272 3.81929,9.81229 6.4908,14.32162 3.56476,6.01707 8.67143,10.99049 12.59981,16.77672 2.60408,3.83563 4.94167,7.84844 7.25443,11.86645 5.33779,9.27349 15.27249,28.234 15.27249,28.234"
     id="path4180"
     inkscape:connector-curvature="0"
     sodipodi:nodetypes="cssssssssssc" />
  <path
     style="fill:none;fill-rule:evenodd;stroke:#000000;stroke-width:1;stroke-linecap:butt;stroke-linejoin:miter;stroke-miterlimit:4;stroke-dasharray:none;stroke-opacity:1"
     d="m 304.50572,553.64812 c 0,0 -0.85947,-6.95314 -2.67269,-9.82049 -2.24001,-3.54226 -5.9527,-6.02546 -9.5453,-8.18381 -3.04621,-1.83009 -6.4161,-3.33814 -9.9271,-3.88725 -1.07094,-0.16749 -3.24543,0.20456 -3.24543,0.20456"
     id="path4182"
     inkscape:connector-curvature="0"
     sodipodi:nodetypes="csssc" />
  <path
     style="fill:none;fill-rule:evenodd;stroke:#000000;stroke-width:1;stroke-linecap:butt;stroke-linejoin:miter;stroke-miterlimit:4;stroke-dasharray:none;stroke-opacity:1"
     d="m 271.28808,538.91734 c 0,0 1.81057,8.99654 2.67267,13.50322 1.2509,6.53915 2.77685,13.03785 3.62721,19.64104 0.6638,5.15454 0.27428,10.42561 1.14543,15.54918 0.53278,3.13349 1.32039,6.24807 2.48179,9.20674 1.74624,4.44855 4.49653,8.43468 6.68172,12.68484 3.24452,6.31054 6.82072,12.47541 9.5453,19.02725 2.15406,5.1799 3.36571,10.70934 5.34538,15.95837 1.85365,4.91489 4.00989,9.71099 6.109,14.52617 1.85392,4.25275 4.53376,8.2017 5.72716,12.68486 1.02223,3.84015 0.98006,7.89604 1.14545,11.86647 0.20438,4.90642 -0.19103,14.73078 -0.19103,14.73078"
     id="path4184"
     inkscape:connector-curvature="0"
     sodipodi:nodetypes="cssssssssssc" />
  <path
     style="fill:none;fill-rule:evenodd;stroke:#000000;stroke-width:1;stroke-linecap:butt;stroke-linejoin:miter;stroke-miterlimit:4;stroke-dasharray:none;stroke-opacity:1"
     d="m 398.81422,679.96458 c 0,0 -6.90341,-15.52484 -9.98934,-23.43651 -4.49961,-11.53606 -7.68168,-23.5697 -12.41916,-35.01013 -2.00254,-4.83588 -5.14466,-9.19568 -6.74957,-14.17766 -2.9452,-9.14251 -2.93286,-19.00471 -5.12965,-28.35532 -1.0336,-4.39949 -3.3423,-8.52225 -3.77975,-13.0203 -0.39365,-4.04763 2.25447,-8.25886 1.07993,-12.15228 -0.49936,-1.65531 -1.62435,-3.43446 -3.23977,-4.05075 -1.25981,-0.48062 -2.79499,0.0464 -3.98867,0.67344 -1.62707,0.85477 -3.12529,2.26308 -3.84083,3.95601 -2.4041,5.68801 -0.24817,12.34943 -0.53996,18.51774 -0.26032,5.50308 -1.60703,11.00843 -1.07993,16.49239 0.67741,7.04782 3.181,13.81942 5.39965,20.54313 3.18981,9.66682 7.20878,19.05144 11.33924,28.35529 2.65785,5.9868 5.72359,11.78428 8.63943,17.64976 2.93367,5.90135 6.26825,11.61181 8.90941,17.64974 0.61885,1.41475 1.61989,4.34008 1.61989,4.34008"
     id="path4188"
     inkscape:connector-curvature="0"
     sodipodi:nodetypes="csssssssssssssssc" />
  <path
     style="fill:none;fill-rule:evenodd;stroke:#000000;stroke-width:1;stroke-linecap:butt;stroke-linejoin:miter;stroke-miterlimit:4;stroke-dasharray:none;stroke-opacity:1"
     d="m 305.13045,587.37582 c 1.46676,4.15974 8.82072,0.43354 13.22913,0.28934 4.42418,-0.14471 9.08071,0.38699 13.22912,-1.15735 4.78566,-1.78157 12.28761,-3.86473 12.41918,-8.96956 0.0238,-0.92339 -1.24352,-1.61991 -2.15988,-1.73603 -4.40976,-0.55882 -7.90378,4.1803 -12.14917,5.49746 -3.66713,1.13775 -7.53419,1.51174 -11.33925,2.02538 -3.13462,0.42314 -6.53078,-0.35128 -9.44938,0.86803 -1.5198,0.63493 -4.32747,1.62937 -3.77975,3.18273 z"
     id="path4190"
     inkscape:connector-curvature="0"
     sodipodi:nodetypes="sssssssss" />
  <path
     style="fill:none;fill-rule:evenodd;stroke:#000000;stroke-width:1;stroke-linecap:butt;stroke-linejoin:miter;stroke-miterlimit:4;stroke-dasharray:none;stroke-opacity:1"
     d="m 385.55632,297.51764 c 0,0 9.59823,3.0787 11.68762,5.06082 5.8365,5.53683 7.41394,14.59547 8.59197,22.5537 0.63878,4.31527 -0.74061,8.69601 -0.91616,13.05477 -0.55984,13.90021 0.12747,27.83209 -0.43591,41.73215 -0.51685,12.75226 -1.8343,25.45955 -2.69981,38.1929 -0.57661,8.48306 -1.60663,16.95131 -1.66101,25.45377 -0.0421,6.58615 0.71427,13.15326 1.03432,19.73176 0.42144,8.6625 0.67094,17.33351 1.16665,25.99208 0.74048,12.93396 1.80647,25.84723 2.69982,38.77153 0.90662,13.11629 0.54651,26.3802 2.69982,39.35025 2.51755,15.16399 7.97095,29.69193 11.87922,44.55834 3.64784,13.87577 6.35696,28.02276 10.79927,41.66496 1.66947,5.12691 5.9396,15.04567 5.9396,15.04567"
     id="path4194"
     inkscape:connector-curvature="0"
     sodipodi:nodetypes="cssssssssssssc" />
  <path
     style="fill:none;fill-rule:evenodd;stroke:#000000;stroke-width:1;stroke-linecap:butt;stroke-linejoin:miter;stroke-miterlimit:4;stroke-dasharray:none;stroke-opacity:1"
     d="m 125.62594,346.83371 c 0,0 -0.24841,16.62523 -0.95774,24.90154 -0.41254,4.81349 -2.02976,9.53648 -1.91551,14.36626 0.0844,3.56833 -0.22609,7.6798 1.91551,10.53526 1.85605,2.47474 5.2722,3.51894 8.30051,4.15027 1.9821,0.41322 4.16933,0.38999 6.06576,-0.31927 4.04754,-1.51378 6.61179,-5.59718 10.216,-7.98124 5.68113,-3.75786 11.73562,-6.95274 17.87803,-9.89679 9.12409,-4.37317 18.29259,-8.98191 28.09402,-11.493 17.32666,-4.43902 35.47419,-4.78881 53.3148,-6.06575 14.3359,-1.02609 28.79435,-2.67466 43.0988,-1.27702 9.99457,0.97654 29.37103,6.70428 29.37103,6.70428 v -20.75128 c 0,0 -10.78982,-2.41383 -16.28175,-2.87326 -27.36079,-2.28886 -54.91093,0.83266 -82.3666,0.63851 -14.58223,-0.10312 -29.15557,-0.79812 -43.73729,-0.95775 -11.59873,-0.12698 -23.19886,0 -34.79829,0 -4.4695,0 -8.94148,-0.14873 -13.40851,0 -1.59891,0.0532 -4.78877,0.31924 -4.78877,0.31924 z"
     id="C05"
     inkscape:connector-curvature="0"
     inkscape:label="#path4181"
     sodipodi:nodetypes="cssssssssssccsssssc" />
  <path
     style="fill:none;fill-rule:evenodd;stroke:#000000;stroke-width:1;stroke-linecap:butt;stroke-linejoin:miter;stroke-miterlimit:4;stroke-dasharray:none;stroke-opacity:1"
     d="m 89.550656,394.40202 c 0.312822,0 -3.399276,3.61704 -3.562474,5.99714 -0.36329,5.29828 3.095319,10.75994 6.595352,14.75412 2.063002,2.35426 4.900902,4.39164 7.981256,4.94837 0.53397,0.0965 1.09494,-0.11158 1.59626,-0.31923 4.78555,-1.9822 10.37753,-4.11227 12.92963,-8.61976 2.75577,-4.86721 0.79813,-16.76064 0.79813,-16.76064 z"
     id="C00"
     inkscape:connector-curvature="0"
     sodipodi:nodetypes="cssssscc"
     inkscape:label="#path4183" />
  <path
     style="fill:none;fill-rule:evenodd;stroke:#000000;stroke-width:1;stroke-linecap:butt;stroke-linejoin:miter;stroke-miterlimit:4;stroke-dasharray:none;stroke-dashoffset:0;stroke-opacity:1"
     d="m 298.44943,379.12856 c 0,0 -18.93532,-3.14765 -28.52232,-3.56231 -13.35141,-0.57748 -26.79644,-0.14906 -40.06592,1.43661 -13.4284,1.60466 -26.67126,4.68684 -39.74667,8.1409 -8.98013,2.37223 -26.49777,8.61976 -26.49777,8.61976 0,0 -10.74345,4.73909 -14.36628,9.09863 -2.93014,3.52599 -5.1174,8.18545 -5.108,12.77001 0.01,4.82174 3.28838,9.08712 5.42726,13.40852 2.08466,4.21186 3.69469,8.98246 7.18313,12.13149 2.26201,2.04192 6.48031,1.38705 8.3005,3.83103 1.57312,2.11224 2.16498,5.40527 1.11738,7.82163 -0.77505,1.78769 -4.55154,3.69716 -4.55154,3.69716 l 4.36975,25.93794 33.50239,1.64947 0.10837,5.77355 c 0,0 9.44222,0.84614 14.16535,1.24585 8.88007,0.75151 17.83737,0.82425 26.6475,2.16667 9.23023,1.40644 18.5544,2.95233 27.32729,6.14791 5.21794,1.90067 11.09304,3.51696 14.79767,7.65401 0.49439,0.5521 0.79812,2.07512 0.79812,2.07512 0,0 1.98091,-1.84532 3.19252,-2.39439 0.941,-0.42644 2.01033,-0.78593 3.03287,-0.63847 1.55514,0.22427 4.15027,2.23474 4.15027,2.23474 0,0 19.6259,-1.251 28.54454,-5.06773 1.78061,-0.76201 4.5,-2.46009 4.5,-2.46009 0,0 -2.03563,-5.67316 -1.27913,-8.11546 0.89085,-2.87604 4.28894,-3.31338 6.5122,-5.34373 3.24825,-2.9664 6.00905,-9.42454 5.98029,-10.38366 l 0.0847,-8.21072 -4e-5,-12.48949 0.0331,0.19261 -0.21329,20.22606 -39.69305,-0.11327 z"
     id="C02"
     inkscape:connector-curvature="0"
     sodipodi:nodetypes="cssscssssssccccsssscsscscssccccccc"
     inkscape:label="#path4187" />
  <path
     style="fill:none;fill-rule:evenodd;stroke:#000000;stroke-width:1;stroke-linecap:butt;stroke-linejoin:miter;stroke-miterlimit:4;stroke-dasharray:none;stroke-opacity:1"
     d="m 161.58695,456.38651 -11.44568,1.38614 c 0,0 0.3019,3.53085 0.60996,5.27332 1.40763,7.96183 5.64361,23.59025 5.64361,23.59025 l 16.70507,2.70891 26.47323,0.53559 -0.11288,-5.69033 -33.58417,-1.84331 z"
     id="C04"
     inkscape:connector-curvature="0"
     sodipodi:nodetypes="ccscccccc"
     inkscape:label="#path4189" />
  <path
     style="fill:none;fill-rule:evenodd;stroke:#000000;stroke-width:1;stroke-linecap:butt;stroke-linejoin:miter;stroke-miterlimit:4;stroke-dasharray:none;stroke-opacity:1"
     d="m 123.68139,454.58054 25.95794,-0.11276 c 0,0 -1.00512,-6.56965 -1.93563,-9.70699 -1.16342,-3.92262 -1.86538,-8.64223 -5.07924,-11.17434 -2.4981,-1.96818 -6.31986,-2.71188 -9.36839,-1.80594 -2.95867,0.87924 -5.23423,3.69592 -6.65946,6.43371 -2.55058,4.89951 -2.91522,16.36632 -2.91522,16.36632 z"
     id="C03"
     inkscape:connector-curvature="0"
     sodipodi:nodetypes="ccssssc"
     inkscape:label="#path4191" />
  <path
     style="fill:none;fill-rule:evenodd;stroke:#000000;stroke-width:1;stroke-linecap:butt;stroke-linejoin:miter;stroke-miterlimit:4;stroke-dasharray:1, 1;stroke-dashoffset:0;stroke-opacity:1"
     d="m 120.63145,391.69479 c -0.15519,-2.19015 -0.10531,-4.25126 -0.0337,-7.42897 0.0738,-3.27537 0.47887,-9.81695 0.47887,-9.81695 l -5.42726,-1.11738 c 0.0964,0 0.27652,11.99587 0.39906,17.87802 0.14276,6.85274 1.7029,13.53142 -0.58105,19.63837 -1.69512,4.53251 -0.90299,10.09831 1.05994,14.52142 1.94895,4.39161 3.14961,9.1979 3.11268,14.20664 -0.0381,5.16114 -0.005,15.28532 -0.005,15.28532 l 4.23525,-0.28574 c -0.22985,-0.0513 0.0594,-11.54171 2.95307,-16.51603 2.55689,-4.39533 -0.56764,-10.69918 -3.51176,-14.84512 -0.85888,-1.20948 -2.99086,-1.12067 -3.75119,-2.39441 -1.66813,-2.79451 -1.01791,-6.49641 -0.71831,-9.73712 0.18237,-1.97266 0.66139,-3.95945 1.51644,-5.74649 1.0266,-2.14556 3.56032,-5.36381 3.56032,-5.36381 -2.33763,-2.34308 -3.10355,-5.68352 -3.28737,-8.27775 z"
     id="C06"
     inkscape:connector-curvature="0"
     sodipodi:nodetypes="ssccssssccssssscss"
     inkscape:label="#path4193" />
  <path
     style="fill:none;fill-rule:evenodd;stroke:#000000;stroke-width:1;stroke-linecap:butt;stroke-linejoin:miter;stroke-miterlimit:4;stroke-dasharray:none;stroke-opacity:1"
     d="m 164.18301,489.74216 c -2.557,-0.4595 -5.13145,-1.88201 -7.67529,-1.35447 -4.67972,0.97048 -10.03882,1.6625 -11.96445,6.03669 -1.35078,3.06838 0.83756,6.66347 1.58021,9.93272 0.64343,2.83246 0.76574,6.01009 2.48319,8.35256 1.90658,2.60043 4.93917,4.44661 8.01391,5.41784 6.17173,1.9495 12.94384,0.17145 19.41399,0.33863 2.79638,0.0723 5.59636,0.0945 8.38704,0.28716 2.70553,0.18677 5.42619,1.33832 8.09228,0.84155 3.99173,-0.74378 7.73547,-2.93284 10.8491,-5.53907 3.0723,-2.57163 7.34055,-5.56997 7.26463,-9.57578 -0.0689,-3.63357 -3.84625,-6.4815 -6.91396,-8.43002 -3.67654,-2.33523 -8.59561,0.20557 -12.6671,-1.34144 -2.13936,-0.81288 -3.87435,-2.60738 -6.0951,-3.16043 -3.72408,-0.92744 -7.69255,0.25267 -11.51294,-0.11277 -3.12212,-0.29865 -6.16859,-1.13844 -9.25551,-1.69317 z"
     id="C08"
     inkscape:connector-curvature="0"
     sodipodi:nodetypes="ssssssssssssssss"
     inkscape:label="#path4203" />
  <path
     style="fill:none;fill-rule:evenodd;stroke:#000000;stroke-width:1;stroke-linecap:butt;stroke-linejoin:miter;stroke-miterlimit:4;stroke-dasharray:none;stroke-opacity:1"
     d="m 356.13907,413.26241 c 0,0 -3.92,5.32943 -5.76089,8.59514 -2.29215,4.06625 -4.70185,8.2206 -5.74649,12.77001 -0.83389,3.63159 -0.31637,7.44765 -0.31925,11.17375 -0.003,3.93886 -1.61474,8.38091 0.31925,11.81228 0.86963,1.54293 3.33354,1.51439 4.4695,2.87324 1.27777,1.52849 2.25192,5.17876 2.25192,5.17876 0,0 0.1341,-1.98742 0.90186,-2.71828 1.27501,-1.21374 3.40966,-1.46881 5.14673,-1.18346 1.6029,0.26331 3.28703,1.17797 4.15026,2.55399 0.7123,1.13542 0.81633,3.81638 0.88718,3.85181 0,0 6.70797,-7.87756 8.92859,-12.67171 1.85547,-4.00583 3.18072,-8.4828 3.45218,-12.88913 0.27114,-4.40121 -1.13404,-8.78551 -2.0942,-13.08926 -0.75755,-3.39559 -3.02151,-9.99028 -3.02151,-9.99028 0,0 -2.373,1.3864 -3.68274,1.37053 -1.71909,-0.0208 -3.4415,-0.84751 -4.78875,-1.91551 -2.03588,-1.61389 -5.09364,-5.72188 -5.09364,-5.72188 z"
     id="C09"
     inkscape:connector-curvature="0"
     sodipodi:nodetypes="cssssscssscssscssc"
     inkscape:label="#path4205" />
  <path
     style="fill:none;fill-rule:evenodd;stroke:#000000;stroke-width:1;stroke-linecap:butt;stroke-linejoin:miter;stroke-miterlimit:4;stroke-dasharray:none;stroke-opacity:1"
     d="m 332.29624,280.64473 -0.0367,70.31645 c 0,0 11.49638,6.45462 16.36261,10.39843 5.74366,4.65491 14.52588,16.76064 14.52588,16.76064 l 32.24431,0.15967 c 0,0 1.4082,-8.16712 1.75586,-12.29113 0.50972,-6.04641 0.34288,-12.13094 0.47889,-18.19728 0.0644,-2.87302 -0.002,-5.75055 0.15967,-8.61976 0.25508,-4.53553 1.90154,-9.06857 1.27699,-13.56813 -1.25526,-9.04346 -3.28109,-19.24775 -9.89675,-25.54004 -5.64491,-5.36899 -14.81109,-4.83805 -22.18791,-7.34276 -11.59173,-3.93583 -34.68285,-12.07609 -34.68285,-12.07609 z"
     id="C11"
     inkscape:connector-curvature="0"
     sodipodi:nodetypes="ccsccssssssc"
     inkscape:label="#path4207" />
  <path
     style="fill:none;fill-rule:evenodd;stroke:#000000;stroke-width:1;stroke-linecap:butt;stroke-linejoin:miter;stroke-miterlimit:4;stroke-dasharray:none;stroke-opacity:1"
     d="m 362.98859,378.12025 c 0,0 6.6866,12.40405 8.46012,19.15502 1.52146,5.7915 3.60746,12.18346 1.75587,17.87801 -0.59436,1.82794 -3.63595,4.66095 -3.63595,4.66095 0,0 2.60472,7.45777 3.47634,11.30156 0.88032,3.88213 2.00006,7.83909 1.75588,11.81228 -0.28111,4.57409 -1.65805,9.13212 -3.67139,13.24889 -2.27219,4.64605 -8.71112,12.00312 -8.71112,12.00312 0,0 0.42575,4.57354 0.4106,6.67302 -0.036,4.98652 -2.48787,14.75164 -2.48787,14.75164 l 31.06077,0.0936 -0.15967,-45.33352 2.55398,-39.74668 1.43664,-22.66677 0.31926,-3.76489 z"
     id="C10"
     inkscape:connector-curvature="0"
     sodipodi:nodetypes="csscssscsccccccc"
     inkscape:label="#path4209" />
  <path
     style="fill:none;fill-rule:evenodd;stroke:#000000;stroke-width:1;stroke-linecap:butt;stroke-linejoin:miter;stroke-miterlimit:4;stroke-dasharray:none;stroke-opacity:1"
     d="m 360.27496,489.69825 c 0,0 -4.99786,11.1824 -6.54463,17.07987 -1.47378,5.61918 -2.61091,11.43058 -2.55402,17.23954 0.0565,5.77301 1.02462,11.61056 2.87325,17.07987 1.05935,3.13416 1.68897,7.26262 4.62914,8.77939 1.49294,0.77018 3.05353,2.25829 3.35214,4.30989 0.58566,4.02378 -1.67179,8.08454 -1.277,12.1315 0.43793,4.48918 3.38449,8.46006 3.99062,12.92965 1.3541,9.98508 4.37457,28.82313 4.94837,28.41327 l 35.4373,0.0455 c 0,0 -6.44561,-25.51985 -8.62026,-38.51519 -1.7007,-10.16314 -2.31367,-20.36744 -3.1475,-30.6381 -0.6522,-8.03336 -0.89798,-16.22433 -1.32202,-24.27296 -0.43125,-8.1855 -0.63849,-24.58227 -0.63849,-24.58227 z"
     id="C13"
     inkscape:connector-curvature="0"
     inkscape:label="#path4211"
     sodipodi:nodetypes="csssssssccssscc" />
  <path
     style="fill:none;fill-rule:evenodd;stroke:#000000;stroke-width:1;stroke-linecap:butt;stroke-linejoin:miter;stroke-miterlimit:4;stroke-dasharray:1, 1;stroke-dashoffset:0;stroke-opacity:1"
     d="m 374.88064,569.67045 c 0.67019,-1.65511 2.92368,-2.51628 4.70894,-2.554 2.66461,-0.0563 5.606,1.36326 7.18313,3.51174 2.10179,2.86322 0.97606,7.038 1.59626,10.53527 0.55939,3.15435 2.96053,6.38955 1.91551,9.41788 -0.61562,1.78398 -2.51193,3.09786 -4.30989,3.67138 -1.73021,0.55191 -4.10415,0.7652 -5.42724,-0.47886 -2.86172,-2.69077 -0.87203,-7.82531 -1.75588,-11.65265 -0.97883,-4.23862 -5.54353,-8.4186 -3.91083,-12.45076 z"
     id="C12"
     inkscape:connector-curvature="0"
     sodipodi:nodetypes="sssssssss"
     inkscape:label="#path4223" />
  <path
     style="fill:none;fill-rule:evenodd;stroke:#000000;stroke-width:1;stroke-linecap:butt;stroke-linejoin:miter;stroke-miterlimit:4;stroke-dasharray:none;stroke-dashoffset:0;stroke-opacity:1"
     d="m 298.44535,379.31548 c 0.21129,-1.05645 16.2062,6.57838 22.08292,12.53253 5.3108,5.38077 8.56127,12.68387 10.97542,19.84831 2.46494,7.31517 2.9022,15.20854 3.3441,22.91519 0.29959,5.22478 -2.3135,10.79248 -0.47652,15.69284 0.38556,1.02852 1.64939,1.49055 2.24052,2.41633 0.67576,1.05832 1.15883,2.25933 1.42821,3.48576 0.2733,1.24423 0.14573,2.54433 0.16645,3.81806 0.047,2.88814 -0.0498,5.77689 -0.0956,8.66505 -0.0382,2.41042 -0.1493,7.98121 -0.1493,7.98121 l -39.83145,-0.0511 z"
     id="C01"
     inkscape:connector-curvature="0"
     sodipodi:nodetypes="cssssssssccc"
     inkscape:label="#path4185" />
  <path
     id="C14"
     style="font-size:33.2768px;font-family:'.Arial Hebrew Desk Interface';-inkscape-font-specification:'.Arial Hebrew Desk Interface, Normal';display:inline;fill:none;stroke:#000000;stroke-width:1;stroke-dasharray:none"
     d="M 634.00133,82.25068 A 21.750674,21.750674 0 0 1 612.25068,104.00136 21.750674,21.750674 0 0 1 590.5,82.25068 21.750674,21.750674 0 0 1 612.25068,60.5 21.750674,21.750674 0 0 1 634.00133,82.25068 Z m -19.08749,13.66938 c 0,0 0.0121,-1.52021 0,-2.28017 -0.0249,-1.56542 0.40185,-3.22906 -0.14928,-4.694466 -0.42772,-1.137266 -1.32349,-2.112532 -2.31368,-2.816685 -0.84273,-0.599289 -1.90827,-0.819437 -2.91079,-1.073021 -1.41842,-0.358786 -2.88255,-0.575889 -4.3449,-0.62259 -1.44129,-0.04603 -4.31277,0.339138 -4.31277,0.339138 v -1.66136 l -1.94051,-1.140093 c 0,0 2.25805,-2.216964 2.91078,-3.621439 0.71039,-1.528547 0.21469,-3.455996 0.97026,-4.962725 0.73047,-1.456669 1.88655,-2.783136 3.28394,-3.621451 2.19987,-1.319737 4.90182,-1.740616 7.46352,-1.877786 1.60553,-0.08597 3.28433,0.07221 4.77665,0.670644 1.42189,0.570193 2.74252,1.512805 3.73174,2.682563 1.0935,1.293072 1.82978,2.917085 2.23906,4.560337 0.37838,1.519199 0.47918,3.164002 0.14928,4.694459 -0.35684,1.65543 -1.283,3.16258 -2.23906,4.560338 -0.78861,1.152941 -2.11716,1.887353 -2.83614,3.084951 -0.46345,0.771967 -0.78911,1.654326 -0.89562,2.548406 -0.11694,0.98169 -0.0268,2.01726 0.29855,2.95082 0.28833,0.82735 1.41807,2.2131 1.41807,2.2131 m -12.46408,0.33529 c 0,0 0.57163,-2.57608 0.14927,-3.75559 -0.30271,-0.84536 -0.95111,-1.69499 -1.79124,-2.01191 -1.03186,-0.38924 -2.24554,0.77383 -3.28394,0.40238 -0.8145,-0.29135 -1.44853,-1.083527 -1.79125,-1.877776 -0.18625,-0.431633 -0.0746,-1.408337 -0.0746,-1.408337 0,0 3.39132,-0.09737 5.0752,0.06695 1.23351,0.120371 2.5559,0.102003 3.65712,0.670632 0.74038,0.382304 1.46719,0.975993 1.79124,1.743661 0.46945,1.11213 0,2.4143 0,3.62145 0,0.80477 0,2.41431 0,2.41431" />
  <path
     id="path4"
     style="fill:none;stroke:#000000;stroke-width:1;stroke-dasharray:none"
     d="m 479.75758,316.69988 c 0.48172,6.4952 -5.18881,11.12052 -7.42904,15.60099 m -23.51672,-58.43323 c 9.72551,-0.68823 17.14829,11.42724 19.43074,21.65946 1.71279,7.67845 -2.12454,15.02638 -8.99138,20.69529 -6.86683,5.66891 -16.76316,9.65879 -20.50648,12.15853 -5.88545,3.93022 -11.90827,9.94812 -13.36014,6.89157 -6.12009,-12.88431 9.6926,-10.18025 10.86232,-18.68784 1.78941,-13.01477 4.19821,-23.0134 16.15135,-9.42655 m 24.01628,-56.94818 c -46.51755,-0.85069 -42.48418,42.21805 -24.14439,46.80299 m -30.21201,-43.06835 c 12.03032,2.33982 30.76288,-14.3366 47.38754,-17.312 24.77917,-4.43487 45.64149,18.91118 43.17236,38.20028 -3.53672,27.62922 -17.30163,48.4137 -35.22121,66.46336 -11.51134,11.59491 -24.03117,18.09546 -34.06155,25.70067 -10.60437,8.04043 -24.03281,6.86032 -27.86741,4.18044 -9.23151,-6.45161 -12.8043,-11.95335 -1.98589,-35.42954"
     inkscape:label="Ohr" />
</svg>
