<?xml version="1.0" encoding="UTF-8" standalone="no"?>
<!-- Created with Inkscape (http://www.inkscape.org/) -->

<svg
   width="700"
   height="750"
   viewBox="0 0 700 750"
   id="svg2"
   version="1.1"
   inkscape:version="1.3 (0e150ed, 2023-07-21)"
   sodipodi:docname="level3_C58.svg"
   xmlns:inkscape="http://www.inkscape.org/namespaces/inkscape"
   xmlns:sodipodi="http://sodipodi.sourceforge.net/DTD/sodipodi-0.dtd"
   xmlns="http://www.w3.org/2000/svg"
   xmlns:svg="http://www.w3.org/2000/svg"
   xmlns:rdf="http://www.w3.org/1999/02/22-rdf-syntax-ns#"
   xmlns:cc="http://creativecommons.org/ns#"
   xmlns:dc="http://purl.org/dc/elements/1.1/">
  <defs
     id="defs4" />
  <sodipodi:namedview
     id="base"
     pagecolor="#ffffff"
     bordercolor="#666666"
     borderopacity="1.0"
     inkscape:pageopacity="0.0"
     inkscape:pageshadow="2"
     inkscape:zoom="0.58783297"
     inkscape:cx="203.28904"
     inkscape:cy="368.3019"
     inkscape:document-units="px"
     inkscape:current-layer="layer1"
     showgrid="false"
     inkscape:window-width="1440"
     inkscape:window-height="900"
     inkscape:window-x="0"
     inkscape:window-y="0"
     inkscape:window-maximized="0"
     inkscape:showpageshadow="2"
     inkscape:pagecheckerboard="0"
     inkscape:deskcolor="#d1d1d1" />
  <metadata
     id="metadata7">
    <rdf:RDF>
      <cc:Work
         rdf:about="">
        <dc:format>image/svg+xml</dc:format>
        <dc:type
           rdf:resource="http://purl.org/dc/dcmitype/StillImage" />
      </cc:Work>
    </rdf:RDF>
  </metadata>
  <g
     inkscape:label="Laag 1"
     inkscape:groupmode="layer"
     id="layer1"
     transform="translate(0,10.629921)">
    <path
       style="fill:none;fill-rule:evenodd;stroke:#000000;stroke-width:1;stroke-linecap:butt;stroke-linejoin:miter;stroke-dasharray:none;stroke-opacity:1"
       d="m 190.92619,544.46887 c 0,0 -0.21625,5.59974 -0.60435,8.33395 -0.25432,1.79172 -1.7971,3.46588 -2.60869,5.08336 -1.05395,2.10052 -2.55222,3.94699 -3.81252,5.93059 -1.9224,3.0257 -3.91239,6.01133 -5.71878,9.10768 -1.49636,2.56492 -2.99457,5.13937 -4.23614,7.83685 -1.23347,2.67988 -2.35533,5.4271 -3.17709,8.26046 -0.70195,2.42028 -0.56646,5.06566 -1.48265,7.41323 -0.69115,1.77093 -1.47863,3.68676 -2.96529,4.87155 -0.873,0.69574 -2.06723,0.93926 -3.1771,1.05904 -1.9767,0.21333 -4.05534,0.0251 -5.93059,-0.63542 -5.3015,-1.86734 -10.25436,-5.09578 -14.19104,-9.10769 -0.7548,-0.76923 -1.47028,-1.69937 -1.69446,-2.75349 -0.22225,-1.04503 0.21495,-2.12926 0.42362,-3.17709 0.85629,-4.29973 7.42911,-11.00616 3.3889,-12.70841 -3.18011,-1.33987 -2.81894,6.4924 -5.29516,8.89588 -1.04319,1.01255 -2.45551,1.5965 -3.81252,2.11807 -0.87924,0.33794 -1.88096,0.99034 -2.75349,0.63542 -1.08845,-0.44275 -1.50119,-1.86226 -1.90626,-2.96529 -0.3683,-1.00292 -0.54254,-2.11533 -0.42361,-3.1771 0.29342,-2.61964 1.55539,-5.06521 2.75348,-7.41323 3.12388,-6.12218 8.17494,-11.10696 11.43756,-17.15634 2.40278,-4.4551 4.65406,-9.08111 5.93059,-13.97924 0.9851,-3.7799 1.46221,-7.7479 1.27084,-11.64937 -0.21912,-4.46716 -1.74236,-8.77528 -2.75349,-13.13201 -1.74595,-7.52285 -4.45716,-14.83245 -5.71878,-22.4515 -0.8793,-5.31016 -0.76177,-10.73897 -1.27084,-16.09731 -0.60467,-6.36464 -1.96597,-12.6711 -2.11806,-19.06259 -0.15988,-6.71867 0.73267,-13.42264 1.27084,-20.12163 0.6987,-8.69728 0.89886,-17.48297 2.54167,-26.05222 1.6744,-8.73402 4.53344,-17.21471 7.41324,-25.6286 1.67274,-4.88722 3.49882,-9.73865 5.71878,-14.40285 3.47758,-7.30651 7.51605,-14.35434 11.86117,-21.18066 4.48205,-7.04145 9.69732,-13.58877 14.61466,-20.33344 6.15595,-8.44355 13.63255,-16.03303 18.63898,-25.20499 2.09833,-3.84422 3.27807,-8.12883 4.65975,-12.28478 2.827,-8.5033 5.14703,-17.17078 7.41323,-25.84041 2.33002,-8.91375 3.51986,-18.133 6.3542,-26.89944 3.73917,-11.56501 8.37724,-22.89077 13.97924,-33.67726 3.46661,-6.67485 7.77673,-12.889 12.07297,-19.0626 5.12185,-7.35999 10.36431,-14.67965 16.30912,-21.39247 5.16376,-5.83087 10.85637,-11.19717 16.73272,-16.30911 5.39135,-4.69003 10.95288,-9.23803 16.94453,-13.13201 6.25072,-4.06234 12.9527,-7.41626 19.69802,-10.59033 8.13799,-3.8294 16.47245,-7.28776 24.99318,-10.16672 6.37679,-2.15458 12.96633,-3.6228 19.48621,-5.29517 7.51319,-1.92715 14.16122,-2.72936 21.03689,-2.83255 8.60671,-0.12917 17.23163,0.63459 25.76043,1.79724 9.89513,1.34891 19.8654,2.87908 29.35489,5.99079 10.86735,3.56352 21.43369,8.34886 31.15215,14.37791 7.84445,4.86647 14.83844,11.05301 21.56687,17.37332 6.90249,6.48381 13.74218,13.20782 19.17054,20.96778 6.1949,8.85574 10.50166,18.91854 14.97699,28.75583 4.53,9.95746 8.93016,20.04779 11.98159,30.55306 3.80163,13.08802 6.78563,26.54628 7.78804,40.13833 0.66159,8.9707 -0.6911,17.97782 -1.19816,26.95858 -0.82368,14.58853 -0.47522,29.34004 -2.9954,43.73282 -3.00893,17.18402 -8.33467,33.95737 -14.37791,50.32268 -4.4884,12.15475 -9.81394,24.05771 -16.17515,35.3457 -8.89187,15.77865 -19.06509,30.92891 -30.55306,44.93097 -10.65851,12.99108 -22.95198,24.59721 -35.3457,35.94479 -6.48717,5.93959 -12.91355,12.10703 -20.36871,16.77422 -4.46861,2.79751 -9.41684,4.80598 -14.37791,6.58988 -5.83442,2.09793 -12.01126,3.08769 -17.97238,4.79264 -7.22727,2.06708 -14.5074,4.00721 -21.56687,6.58987 -5.71296,2.09005 -11.53934,4.09023 -16.77423,7.18895 -5.0189,2.97087 -9.18049,7.19586 -13.77883,10.78344 -8.97569,7.00275 -17.2824,14.97006 -26.95859,20.96779 -5.08629,3.15271 -10.52912,5.80503 -16.17515,7.78803 -7.54112,2.64859 -15.58235,3.56745 -23.3641,5.39172 -4.197,0.9839 -8.31442,2.37733 -12.58067,2.9954 -7.32299,1.06091 -14.76921,0.99839 -22.16595,1.19816 -3.79279,0.10243 -7.70162,-0.92022 -11.38251,0 -3.29343,0.82335 -6.60446,2.37356 -8.9862,4.79263 -1.5913,1.61624 -2.02536,4.06007 -3.10833,6.05297 -2.09899,3.86261 -4.69372,7.46011 -6.566,11.43756 -1.28456,2.7289 -1.54421,5.93638 -3.1771,8.47226 -0.75678,1.17528 -1.6972,2.37715 -2.9653,2.96529 -0.77125,0.3577 -1.71164,0.39568 -2.54168,0.21181 -1.11148,-0.24622 -2.27786,-0.78701 -2.96529,-1.69445 -0.8789,-1.16019 -1.13952,-2.78286 -1.05903,-4.23614 0.29155,-5.26398 10.08484,-12.21157 5.50697,-14.82646 -2.5277,-1.44383 -3.49085,4.678 -5.50697,6.77781 -1.1086,1.15462 -2.23356,2.34464 -3.60072,3.1771 -1.16464,0.70915 -2.45124,1.40381 -3.81251,1.48265 -1.67539,0.097 -3.41031,-0.44556 -4.87156,-1.27084 -3.5213,-1.98875 -6.0894,-5.37027 -8.68407,-8.47227 -1.69611,-2.02774 -3.83104,-3.99541 -4.44794,-6.566 -0.39849,-1.66049 0.20247,-3.43152 0.63542,-5.08336 0.42549,-1.62336 1.15919,-3.15701 1.90626,-4.65975 1.78955,-3.59969 4.02859,-6.95914 6.14239,-10.37852 2.73915,-4.43098 5.35127,-8.96117 8.47227,-13.13201 2.84918,-3.80758 5.67101,-7.75189 9.31949,-10.80214 1.38416,-1.1572 3.17873,-2.20367 4.65975,-3.23399 1.07053,-0.74474 4.73064,-1.61406 4.73064,-1.61406"
       id="path4168"
       inkscape:connector-curvature="0"
       sodipodi:nodetypes="csssssssssssssssssssssssssssssssssssssssssssssssssssssssssssssssssssssssssssssssssssssssssssssc" />
    <path
       style="fill:none;fill-rule:evenodd;stroke:#000000;stroke-width:1;stroke-linecap:butt;stroke-linejoin:miter;stroke-dasharray:none;stroke-opacity:1"
       d="m 365.44544,142.28917 c 7.93832,-1.07044 15.97063,-2.32807 23.96319,-1.79724 11.60645,0.77085 22.89663,4.23584 34.14754,7.18896 11.54549,3.03043 23.41046,5.56835 34.14753,10.78343 4.78292,2.3231 9.21448,5.44364 13.17976,8.98619 7.07483,6.3206 13.15794,13.77604 18.57147,21.56687 6.3751,9.17465 11.65061,19.13997 16.17514,29.3549 2.99229,6.75562 5.42209,13.79351 7.18896,20.96779 3.14049,12.75174 4.88213,25.85428 5.9908,38.94017 1.02848,12.13943 1.24112,24.37787 0.59907,36.54386 -0.51953,9.84435 -1.28865,20.15247 -3.29493,29.80421 -2.28892,11.01144 -6.24596,21.2591 -9.88481,31.90099 -3.74346,10.94783 -7.32922,22.04057 -12.58068,32.35031 -4.52548,8.8845 -10.49552,16.96646 -16.17515,25.16134 -8.37218,12.07983 -16.31446,24.61662 -26.3595,35.34569 -7.35733,7.85834 -15.79573,14.72027 -24.56227,20.96779 -9.62224,6.85734 -19.69749,13.30684 -30.55306,17.97239 -13.9362,5.98956 -29.0838,8.6438 -43.73281,12.58067 -4.77085,1.28215 -9.84161,1.63823 -14.37791,3.59448 -5.4427,2.34712 -10.15994,6.13158 -14.97699,9.58528 -8.31333,5.96044 -15.08726,14.08565 -23.96319,19.17054 -8.72066,4.99594 -18.46364,8.12766 -28.15674,10.78344 -8.01066,2.19482 -16.26138,3.90526 -24.56227,4.19355 -6.01704,0.20897 -12.17217,-0.1829 -17.97238,-1.79723 -4.04624,-1.12616 -7.60643,-3.56489 -11.38252,-5.40376 -6.02023,-2.93171 -12.66135,-4.89606 -17.97239,-8.97416 -5.49811,-4.22173 -10.16156,-9.66273 -13.77883,-15.57607 -5.70848,-9.33195 -8.61621,-20.14411 -11.98159,-30.55306 -2.2201,-6.86666 -4.09848,-13.86797 -5.39172,-20.96778 -1.97988,-10.86944 -3.74772,-21.90216 -3.59448,-32.94938 0.14258,-10.27885 1.80766,-20.55393 4.19356,-30.55306 2.84351,-11.91692 7.3879,-23.38896 11.98159,-34.74662 3.71821,-9.19307 7.33295,-18.54437 12.58068,-26.95859 4.20849,-6.7479 10.1599,-12.24365 14.97699,-18.57146 5.80722,-7.62847 12.28708,-14.89163 16.77423,-23.36411 2.9864,-5.63881 4.88351,-11.82397 6.58988,-17.97239 2.8278,-10.18919 3.40038,-20.90002 5.99079,-31.15214 2.76945,-10.96071 5.66927,-21.98589 10.18436,-32.3503 4.03606,-9.26478 9.3773,-17.94704 14.97698,-26.3595 6.15287,-9.24354 12.50391,-18.52077 20.36871,-26.35951 7.66644,-7.64104 16.70118,-13.84596 25.76043,-19.76962 9.35057,-6.11416 18.85408,-12.36085 29.3549,-16.17515 8.79764,-3.19564 18.28156,-4.14089 27.55766,-5.39172 z"
       id="path4170"
       inkscape:connector-curvature="0"
       sodipodi:nodetypes="sssssssssssssssssssssssssssssssssssssssssss" />
    <path
       style="fill:none;fill-rule:evenodd;stroke:#000000;stroke-width:1;stroke-linecap:butt;stroke-linejoin:miter;stroke-dasharray:none;stroke-opacity:1"
       d="m 355.88762,520.1846 c 0,0 1.28023,-6.90923 2.54167,-10.16672 1.50573,-3.88835 3.04006,-8.00872 5.93059,-11.01394 4.43196,-4.60782 10.99183,-6.5332 16.52091,-9.74311 2.95362,-1.71472 6.43375,-2.7165 8.89588,-5.08336 2.88104,-2.76956 4.05734,-6.89634 6.3542,-10.16671 1.44494,-2.05736 2.60384,-4.48359 4.65975,-5.93059 1.82576,-1.28502 4.50145,-0.87228 6.3542,-2.11807 1.08033,-0.72641 1.80737,-1.89032 2.54168,-2.96529 1.35401,-1.98216 1.40976,-4.9958 3.38891,-6.3542 1.65793,-1.13793 4.11919,0.008 5.98766,-0.73526 2.18958,-0.87101 3.74927,-2.85878 5.69125,-4.19356 2.44234,-1.67868 4.74,-3.68414 7.4885,-4.79263 1.4165,-0.57128 3.11842,-0.23297 4.4931,-0.89862 2.35886,-1.14221 4.17991,-3.19756 5.9908,-5.09218 3.49129,-3.65272 5.58772,-8.5383 9.28573,-11.98159 3.16167,-2.94389 7.51732,-4.36138 10.78343,-7.18895 4.97133,-4.30383 8.78374,-9.78746 13.17975,-14.67746 1.79611,-1.99795 3.92003,-3.74314 5.39172,-5.99079 3.9653,-6.05601 6.53937,-12.957 8.98619,-19.76963 1.8175,-5.06042 2.97768,-10.33844 4.19356,-15.57607 1.0583,-4.5588 2.67746,-9.09884 2.69586,-13.77883 0.0192,-4.87612 -1.58147,-9.6308 -2.69586,-14.37791 -2.51381,-10.70835 -6.08873,-21.14025 -8.9862,-31.75122 -1.55023,-5.67717 -3.9812,-11.21105 -4.49309,-17.07377 -0.62747,-7.18653 1.64157,-14.35467 1.79724,-21.56687 0.21564,-9.99032 -0.20735,-20.01058 -1.19816,-29.95398 -0.25065,-2.51546 -0.47669,-5.06573 -1.19816,-7.4885 -1.46694,-4.92614 -4.38505,-9.30462 -6.29033,-14.07837 -2.66894,-6.68711 -5.35456,-13.40627 -7.18896,-20.36871 -1.16268,-4.41295 -1.60715,-8.9845 -2.39632,-13.47929 -1.26589,-7.21003 -3.75144,-21.63815 -3.75144,-21.63815 1.62998,1.14937 3.43262,2.07551 5.07703,3.24309 1.60822,1.14188 3.06078,2.52642 4.43142,3.54571 2.5964,1.93084 4.65757,4.34863 6.87219,6.69106 4.37283,4.6252 8.44048,9.64898 12.08284,14.89794 3.24823,4.68099 6.07749,9.54659 8.82327,14.53892 2.74578,4.99233 5.35168,10.2022 7.65141,15.41506 3.00135,6.80326 5.41972,13.89521 7.18896,21.11756 3.05247,12.46069 4.73735,25.25999 5.84103,38.04155 1.07822,12.48677 1.35582,25.07372 0.74885,37.59225 -0.47712,9.84055 -1.39758,19.71782 -3.44471,29.3549 -2.30326,10.84284 -6.2605,21.2757 -9.88481,31.75122 -3.75604,10.85628 -7.10719,21.94397 -12.28114,32.20053 -4.16647,8.25938 -9.75585,15.72758 -14.97699,23.36411 -4.47471,6.45892 -8.93204,12.91957 -13.36773,19.40342 -4.4292,6.12427 -9.31289,12.10002 -14.48947,17.58975 -4.07594,4.3225 -8.02983,8.51423 -12.65473,12.2644 -2.84051,2.30328 -5.75376,4.56827 -8.67671,6.7992 -0.92645,0.70711 -1.99736,1.5065 -2.93128,2.20372 -9.53727,7.12004 -19.93322,13.23726 -30.85261,17.97239 -12.80445,5.55257 -40.11088,12.00755 -40.11088,12.00755 z"
       id="C58"
       inkscape:connector-curvature="0"
       inkscape:label="C58 Plazenta"
       sodipodi:nodetypes="csssssssssssssssssssssssssssssscsssssssssssssssssssc" />
    <path
       style="fill:none;fill-rule:evenodd;stroke:#000000;stroke-width:1;stroke-linecap:butt;stroke-linejoin:miter;stroke-dasharray:none;stroke-opacity:1"
       d="m 436.79775,445.62866 c 0,0 -3.63448,-3.69127 -4.87156,-5.93058 -0.86368,-1.56341 -0.43148,-3.82039 -1.69445,-5.08336 -0.63149,-0.63149 -1.65387,-0.75058 -2.54168,-0.84723 -2.68186,-0.29196 -5.43503,1.51552 -8.04865,0.84723 -1.08152,-0.27654 -2.0837,-1.0132 -2.75349,-1.90626 -0.66979,-0.89306 -1.0485,-2.06083 -1.05903,-3.1771 -0.0112,-1.18345 0.49509,-2.34839 1.05903,-3.3889 1.00363,-1.85178 3.21973,-2.92503 4.02433,-4.87156 0.86683,-2.09709 0.78281,-4.51343 0.63542,-6.77781 -0.10346,-1.5895 -0.28918,-3.26529 -1.05903,-4.65975 -0.6756,-1.22375 -1.70451,-2.36163 -2.9653,-2.96529 -2.36986,-1.13469 -5.21419,-1.0068 -7.83684,-0.84722 -2.17095,0.13209 -4.21609,1.08398 -6.3542,1.48264 -3.99492,0.74486 -8.01468,1.48375 -12.07298,1.69445 -1.97546,0.10256 -3.95841,-0.0585 -5.93058,-0.2118 -1.77237,-0.13775 -3.72133,0.1912 -5.29517,-0.63542 -1.41709,-0.74429 -2.83992,-2.03597 -3.1771,-3.60072 -0.20228,-0.93874 0.26878,-1.98695 0.84723,-2.75348 1.01446,-1.3443 2.69204,-2.08114 4.23613,-2.75349 1.33448,-0.58108 2.7835,-0.96772 4.23613,-1.05903 3.54843,-0.22304 7.10713,1.9839 10.59033,1.27084 2.07618,-0.42503 3.9315,-1.75968 5.50697,-3.1771 1.42779,-1.28456 2.58448,-2.91574 3.38891,-4.65975 0.76027,-1.64829 1.39217,-3.48404 1.27084,-5.29516 -0.15688,-2.34168 -1.57202,-4.42876 -2.54168,-6.56601 -0.69152,-1.5242 -2.95577,-2.89564 -2.32987,-4.44794 0.41745,-1.03533 2.0752,-0.88022 3.1771,-1.05903 2.02103,-0.32797 4.17732,-0.57498 6.14239,0 2.01126,0.5885 3.47292,2.35405 5.29517,3.3889 1.23551,0.70164 2.47129,1.43734 3.81252,1.90626 2.24826,0.78604 4.64214,1.88503 6.98961,1.48265 1.46795,-0.25162 2.75412,-1.28204 3.81253,-2.32987 1.42001,-1.40581 2.55562,-3.18428 3.1771,-5.08336 0.59451,-1.81668 0.8244,-3.84979 0.42361,-5.71878 -0.40406,-1.88423 -1.79423,-3.41201 -2.75349,-5.08336 -1.15122,-2.00581 -1.9703,-4.29037 -3.60071,-5.93059 -1.51951,-1.52866 -4.53253,-1.46636 -5.50698,-3.3889 -1.18489,-2.33772 1.15609,-5.26823 0.63543,-7.83685 -0.36386,-1.79507 -1.32974,-3.49827 -2.54168,-4.87155 -1.47731,-1.67398 -3.46806,-2.90286 -5.50698,-3.81252 -1.39185,-0.62097 -2.92389,-1.04754 -4.44794,-1.05903 -1.3018,-0.01 -2.84578,-0.0247 -3.81252,0.84722 -1.32636,1.19623 -1.61351,3.29908 -1.69445,5.08336 -0.0559,1.23175 0.24719,2.52356 0.84723,3.60072 0.43731,0.78503 1.07604,1.56237 1.90626,1.90626 0.91319,0.37826 1.97686,0 2.96529,0 0.49422,0 1.12003,0.3358 1.48265,0 0.67542,-0.62546 -0.40972,-2.07445 0.21181,-2.75349 0.57992,-0.63358 1.74244,-0.73819 2.54167,-0.42361 1.0775,0.4241 1.7452,1.65719 2.11807,2.75348 0.36375,1.06947 0.20622,2.27826 0,3.38891 -0.17952,0.96685 -0.77508,1.81199 -1.05903,2.75348 -0.37591,1.24639 -1.18397,2.55498 -0.84723,3.81252 0.29729,1.11021 1.49979,1.74677 2.32988,2.54169 1.66487,1.59432 3.62138,2.86296 5.29516,4.44793 1.12433,1.06467 2.71914,1.90975 3.1771,3.38891 0.27465,0.88708 0.23655,2.10039 -0.42361,2.75349 -0.70981,0.70222 -1.97039,0.50793 -2.96529,0.42361 -2.06906,-0.17536 -3.99375,-1.15767 -5.93059,-1.90626 -2.38717,-0.92264 -4.53167,-2.46413 -6.98962,-3.1771 -2.46449,-0.71486 -5.05934,-1.1029 -7.62504,-1.05904 -1.64798,0.0282 -3.35102,0.21113 -4.87155,0.84724 -1.68087,0.70318 -3.09289,1.95905 -4.44794,3.17709 -1.26454,1.13668 -2.96837,2.16502 -3.38891,3.81252 -0.23297,0.91269 0.22779,1.90431 0.63542,2.75349 0.73962,1.54077 2.20594,2.61796 3.1771,4.02432 0.70179,1.01627 1.35746,2.0707 1.90626,3.1771 0.50685,1.02182 1.37227,2.04101 1.27084,3.17711 -0.0592,0.66342 -0.64437,1.17321 -1.05903,1.69445 -0.6216,0.78138 -1.24689,1.63022 -2.11807,2.11806 -1.58377,0.88687 -3.49256,1.05756 -5.29516,1.27085 -2.6643,0.31524 -5.37979,-0.27386 -8.04866,0 -1.93666,0.19872 -3.88528,0.53157 -5.71878,1.18611 -1.35024,0.48202 -2.66525,1.13118 -3.81252,1.99098 -2.03782,1.5272 -4.00775,3.30978 -5.29516,5.50697 -1.23075,2.10049 -2.13058,4.55516 -2.11807,6.98963 0.0133,2.59021 0.91417,5.24409 2.32987,7.41323 1.23058,1.8855 3.11118,3.3617 5.08336,4.44794 1.7415,0.95918 3.76233,1.34075 5.71879,1.69445 2.99473,0.54141 6.06581,0.72784 9.10768,0.63542 4.34161,-0.13191 8.60811,-1.17218 12.92021,-1.69445 1.90407,-0.23062 3.80831,-0.46568 5.71877,-0.63542 1.05722,-0.0939 2.25617,-0.73946 3.17711,-0.21181 0.6849,0.39241 0.87767,1.34982 1.05903,2.11806 0.12977,0.54971 0.0531,1.13214 0,1.69446 -0.14183,1.50262 -0.24609,3.06352 -0.84723,4.44794 -0.90554,2.08545 -2.87155,3.54733 -4.02433,5.50697 -1.0251,1.74259 -2.46726,3.4866 -2.54168,5.50697 -0.0444,1.20564 0.53171,2.43539 1.27085,3.38891 0.52799,0.68113 1.33675,1.11896 2.11806,1.48265 1.98732,0.92509 4.18558,1.37462 6.3542,1.69445 2.16637,0.3195 4.58309,-0.71734 6.566,0.21181 0.76984,0.36073 1.20723,1.20956 1.69446,1.90625 0.59742,0.85425 1.19316,1.75206 1.48264,2.75349 0.56993,1.9716 0.42362,6.14239 0.42362,6.14239"
       id="path4174"
       inkscape:connector-curvature="0"
       sodipodi:nodetypes="cssssssssssssssssssssssssssssssssssssssssssssssssssssssssssssssssssssssssssssssssssssssssssssssc" />
    <path
       style="fill:none;fill-rule:evenodd;stroke:#000000;stroke-width:1;stroke-linecap:butt;stroke-linejoin:miter;stroke-dasharray:none;stroke-opacity:1"
       d="m 416.81652,432.24371 c 0,0 7.46618,-2.28665 11.08297,-3.74425 4.45342,-1.79477 8.74125,-3.98166 13.02998,-6.14056 5.56617,-2.80194 11.26888,-5.41114 16.47469,-8.83643 4.15549,-2.7342 8.09374,-5.84075 11.68206,-9.28574 3.14057,-3.01513 6.21314,-6.20317 8.53688,-9.88481 1.19315,-1.89038 2.02744,-4.00741 2.69586,-6.14057 0.7758,-2.47587 1.22209,-5.05837 1.4977,-7.63826 0.27581,-2.5818 0.54102,-5.22119 0.14977,-7.78804 -0.4282,-2.80924 -1.46569,-5.52596 -2.69586,-8.08757 -1.67251,-3.48271 -3.81097,-6.77204 -6.29034,-9.73504 -2.62945,-3.14235 -5.66021,-5.99417 -8.98619,-8.38712 -4.42442,-3.18325 -9.8095,-4.81511 -14.37791,-7.78803 -3.01302,-1.96074 -5.95093,-4.09276 -8.53688,-6.58988 -1.91282,-1.84712 -3.66318,-3.89808 -5.09218,-6.14056 -0.56405,-0.88514 -1.32077,-1.79641 -1.34793,-2.84564 -0.0238,-0.91752 0.66817,-1.71071 1.04839,-2.54608 0.69367,-1.52404 1.34889,-3.07956 2.24655,-4.4931 3.06795,-4.83109 7.7804,-8.51837 10.63366,-13.47929 1.01685,-1.76798 1.68475,-3.73062 2.24655,-5.69126 0.53136,-1.85438 0.82378,-3.77537 1.04839,-5.69125 0.227,-1.93631 0.60177,-3.91503 0.29954,-5.84103 -0.48009,-3.05942 -1.91023,-5.91662 -3.29494,-8.68666 -0.79268,-1.58571 -1.82073,-3.04658 -2.84563,-4.49309 -0.69867,-0.98609 -1.77546,-1.73271 -2.24655,-2.84563 -0.29449,-0.69572 0.0486,-1.57608 -0.29954,-2.24655 -0.40705,-0.78385 -1.13736,-1.44429 -1.94701,-1.79724 -1.19337,-0.52023 -2.60883,-0.50714 -3.89401,-0.29954 -1.65672,0.26762 -3.3485,0.87886 -4.64287,1.94701 -0.55533,0.45827 -1.03889,1.09507 -1.19816,1.79724 -0.23427,1.0328 0.30874,2.09551 0.44931,3.14517 0.32055,2.3936 0.33799,4.83996 0.89862,7.18895 0.65253,2.73403 1.74087,5.3532 2.84563,7.93781 0.61426,1.43707 1.94278,2.63832 2.09678,4.19356 0.0561,0.56644 -0.30922,1.09577 -0.44931,1.64747 -0.21458,0.84505 -0.1633,1.79093 -0.59908,2.54608 -0.58253,1.00945 -1.62131,1.68702 -2.54609,2.39632 -5.72751,4.39294 -12.76138,6.90334 -18.4217,11.38252 -0.71974,0.56955 -1.36085,1.24072 -1.94701,1.947 -0.734,0.88441 -1.47572,1.79738 -1.94701,2.84563 -0.50643,1.12643 -0.66121,2.38248 -0.89862,3.59448 -0.27144,1.38571 -0.65326,2.78256 -0.59907,4.19356 0.053,1.37979 0.52458,2.7146 0.89862,4.04379 1.04348,3.70817 3.74424,10.9332 3.74424,10.9332"
       id="path4176"
       inkscape:connector-curvature="0"
       sodipodi:nodetypes="cssssssssssssssssssssssssssssssssssssssssssc" />
    <path
       style="fill:none;fill-rule:evenodd;stroke:#000000;stroke-width:1;stroke-linecap:butt;stroke-linejoin:miter;stroke-dasharray:none;stroke-opacity:1"
       d="m 451.94192,284.33792 c 0,0 0.50279,-4.8707 0.74132,-7.30733 0.18309,-1.87033 -0.002,-3.81037 0.52952,-5.61288 0.28138,-0.95409 0.54866,-2.09647 1.37675,-2.64758 0.35388,-0.23551 0.88597,-0.28638 1.27084,-0.10591 0.39014,0.18294 0.53299,0.68184 0.74132,1.05904 0.35185,0.63704 0.70317,1.29881 0.84723,2.01216 0.1118,0.55364 -0.14686,1.14906 0,1.69445 0.32902,1.22191 1.2772,2.185 1.90625,3.283 0.46362,0.80925 1.06387,1.55718 1.37675,2.43578 0.42055,1.18092 0.41114,2.47328 0.63542,3.70662 0.16722,0.91956 0.27431,1.85435 0.52952,2.75348 0.51558,1.81644 1.48985,3.48065 2.01216,5.29517 0.44812,1.5568 0.65793,3.17276 0.95313,4.76565 0.26756,1.44371 0.84446,2.87738 0.74132,4.34204 -0.0651,0.92432 -0.43568,1.81737 -0.84722,2.64757 -0.38276,0.77215 -0.79186,1.60277 -1.48265,2.11807 -0.44739,0.33374 -1.05265,0.37346 -1.58855,0.52952 -0.41924,0.12208 -0.85473,0.18537 -1.27084,0.31771 -0.64971,0.20664 -1.40957,0.27428 -1.90626,0.74132 -0.73644,0.69247 -0.82437,1.84656 -1.27084,2.75349 -0.73924,1.50164 -1.5232,2.98143 -2.32988,4.44794 -1.0214,1.85686 -2.05286,3.7105 -3.17709,5.50697 -1.4699,2.34884 -3.07937,4.60775 -4.65975,6.88372 -1.63137,2.3494 -4.97746,6.98961 -4.97746,6.98961 v 0"
       id="path4178"
       inkscape:connector-curvature="0"
       sodipodi:nodetypes="cssssssssssssssssssssssssc" />
    <path
       style="fill:none;fill-rule:evenodd;stroke:#000000;stroke-width:1;stroke-linecap:butt;stroke-linejoin:miter;stroke-dasharray:none;stroke-opacity:1"
       d="m 377.09812,343.3552 c 0,0 4.87121,-0.53355 6.76902,-0.6739 2.89452,-0.21406 5.78594,-0.49917 8.68665,-0.59907 2.04564,-0.0704 4.09548,-0.0851 6.14057,0 2.40255,0.0999 7.18896,0.59907 7.18896,0.59907"
       id="path4180"
       inkscape:connector-curvature="0"
       sodipodi:nodetypes="csssc" />
    <path
       style="fill:none;fill-rule:evenodd;stroke:#000000;stroke-width:1;stroke-linecap:butt;stroke-linejoin:miter;stroke-dasharray:none;stroke-opacity:1"
       d="m 330.8823,369.10325 c 0,0 1.59924,-2.47227 2.54609,-3.59448 0.91058,-1.07922 1.81657,-2.21808 2.9954,-2.9954 1.34666,-0.88798 3.03456,-1.10828 4.4931,-1.79724 2.62631,-1.24058 4.98912,-3.55133 7.30501,-5.30438 3.34955,-2.5355 6.3005,-5.63697 8.83642,-8.9862 0.48593,-0.64178 1.00875,-1.31439 1.19817,-2.09678 0.79958,-3.30267 -0.10544,-6.80371 -0.44932,-10.18435 -0.12791,-1.25747 -0.34571,-2.50595 -0.59907,-3.74425 -0.74268,-3.6299 -1.81745,-7.18396 -2.69586,-10.78343 -0.76651,-3.14091 -1.99799,-6.21199 -2.24655,-9.43551 -0.19252,-2.49673 0.0996,-5.03466 0.59908,-7.48849 0.4723,-2.3205 0.81897,-4.85027 2.24655,-6.73965 0.80137,-1.0606 2.00357,-1.93122 3.29494,-2.24655 1.22116,-0.29818 2.53793,0.0958 3.74424,0.44931 1.6499,0.48346 3.40795,1.05036 4.64287,2.24656 0.85009,0.82343 1.27088,2.02317 1.64747,3.14516 0.19326,0.57578 0.67251,1.31791 0.29954,1.79724 -0.36917,0.47445 -1.27946,-0.15567 -1.79724,0.14977 -0.46511,0.27437 -0.66334,0.86188 -0.89862,1.34793 -0.84607,1.74788 -1.63891,3.60607 -1.79724,5.54149 -0.13586,1.66072 0.15822,3.38432 0.74885,4.9424 0.71663,1.89047 2.24837,3.3624 3.29494,5.09218 1.83996,3.04109 3.82896,6.02428 5.24195,9.28574 1.39348,3.21643 2.51713,6.58599 3.14516,10.03458 0.47482,2.60729 0.39723,5.28814 0.44931,7.9378 0.0569,2.89542 0.48425,5.86092 -0.14976,8.68665 -0.37177,1.65694 -1.16273,3.22472 -2.09679,4.64288 -1.30226,1.97721 -3.18683,3.50221 -4.79263,5.24194 -2.03644,2.20629 -3.90078,4.59035 -6.14057,6.58988 -3.38164,3.0189 -10.9332,8.08757 -10.9332,8.08757"
       id="path4182"
       inkscape:connector-curvature="0"
       sodipodi:nodetypes="csssssssssssssssssssssssssssssc" />
    <path
       style="fill:none;fill-rule:evenodd;stroke:#000000;stroke-width:1;stroke-linecap:butt;stroke-linejoin:miter;stroke-dasharray:none;stroke-opacity:1"
       d="m 353.85303,350.26637 c 0,0 -4.32533,1.06076 -6.23021,2.00021 -2.40492,1.18606 -4.67667,2.62557 -7.03918,3.89401 -2.38046,1.27808 -5.80625,6.06551 -7.18896,3.74426 -2.27617,-3.82114 7.66792,-4.58888 11.05537,-7.47111 2.51063,-2.13619 4.93714,-4.46674 6.77782,-7.20142 1.0408,-1.54631 1.73836,-3.31575 2.32987,-5.08336 0.47024,-1.40522 1.05876,-2.864 0.95313,-4.34204 -0.0645,-0.90254 -0.50862,-1.75355 -0.95313,-2.54168 -0.4198,-0.74433 -1.30829,-1.20488 -1.58855,-2.01216 -0.43994,-1.26725 -0.0869,-2.68571 0,-4.02433 0.0531,-0.81708 0.52575,-1.64384 0.31771,-2.43577 -0.22423,-0.85357 -0.75688,-1.8228 -1.58855,-2.11807 -0.54865,-0.19479 -1.1762,0.15833 -1.69445,0.42362 -1.85078,0.94741 -3.39404,5.58689 -4.76565,4.02432 -1.79679,-2.04694 5.10423,-2.94781 6.03649,-5.50697 0.3657,-1.00387 -0.0736,-2.16765 -0.42361,-3.1771 -0.36294,-1.04678 -1.11841,-1.913 -1.69446,-2.85939 -0.34631,-0.56895 -0.8923,-1.0496 -1.05903,-1.69445 -0.33625,-1.30053 0.41001,-2.69573 0.2118,-4.02433 -0.24387,-1.63466 -0.65459,-3.3751 -1.69445,-4.65974 -0.62859,-0.77656 -1.5813,-1.31313 -2.54167,-1.58856 -0.91619,-0.26276 -1.90789,0.0558 -2.85939,0 -1.20645,-0.0707 -2.45157,-0.0495 -3.60072,-0.42361 -0.6162,-0.20062 -1.17288,-0.56852 -1.69445,-0.95312 -1.48722,-1.09667 -3.01292,-2.26606 -4.02433,-3.81253 -1.76635,-2.70078 -1.94146,-6.17264 -3.283,-9.10768 -1.18237,-2.58681 -2.58954,-5.08029 -4.17645,-7.44065 -2.73752,-4.07177 -5.75499,-7.99057 -9.16737,-11.51604 -2.1597,-2.23127 -4.41341,-4.47153 -7.09552,-6.0365 -1.94852,-1.13693 -4.2042,-1.64661 -6.3542,-2.32987 -1.28945,-0.40979 -2.57415,-0.90553 -3.91842,-1.05903 -2.87792,-0.32863 -5.80759,-0.0233 -8.68407,0.31771 -3.36187,0.39857 -6.69863,1.08611 -9.95492,2.01216 -3.91055,1.11211 -7.76864,2.4845 -11.43755,4.23614 -2.55688,1.22072 -4.90618,2.83793 -7.30733,4.34203 -1.68437,1.0551 -3.412,2.05838 -4.97746,3.283 -1.92834,1.5085 -3.70235,3.21439 -5.40107,4.97746 -2.22365,2.30788 -4.39896,4.68992 -6.2483,7.30733 -1.38714,1.96324 -2.57914,4.07231 -3.60071,6.24829 -1.424,3.03318 -2.44889,6.242 -3.49481,9.4254 -0.99744,3.03582 -2.08742,6.06759 -2.64758,9.21359 -0.6825,3.83309 -0.74523,7.75732 -0.84723,11.64936 -0.0916,3.49432 -0.29217,7.02543 0.21181,10.48443 0.45934,3.15263 1.56995,6.17949 2.54168,9.21359 0.94014,2.93546 1.8299,5.91174 3.1771,8.68407 1.7598,3.6214 4.02872,6.98575 6.3542,10.27262 2.2767,3.21793 4.72209,6.33327 7.41323,9.21359 2.98463,3.19444 6.12875,6.28757 9.6372,8.89588 4.01326,2.9836 8.49013,5.30502 12.92021,7.62504 6.12873,3.2096 12.64847,5.6191 18.85079,8.68407 2.50578,1.23827 5.11837,2.32287 7.41323,3.91843 2.17592,1.51287 3.87815,3.61858 5.93059,5.29516 4.43441,3.62235 9.09251,6.96648 13.76743,10.27262 3.88497,2.74748 7.77676,5.50159 11.86117,7.94275 3.42942,2.04969 6.92873,4.01448 10.59033,5.61288 3.63232,1.58562 7.42502,2.79484 11.22575,3.91842 4.14639,1.22576 8.32997,2.40746 12.6025,3.07119 3.5316,0.54863 7.12284,0.67722 10.69623,0.74133 3.17835,0.057 6.35442,-0.20549 9.5313,-0.31771 4.73069,-0.1671 14.19104,-0.52952 14.19104,-0.52952"
       id="path4184"
       inkscape:connector-curvature="0"
       sodipodi:nodetypes="csssssssssssssssssssssssssssssssssssssssssssssssssssssssssssc" />
  </g>
</svg>
