<?xml version="1.0" encoding="UTF-8" standalone="no"?>
<!-- Created with Inkscape (http://www.inkscape.org/) -->

<svg
   xmlns:dc="http://purl.org/dc/elements/1.1/"
   xmlns:cc="http://creativecommons.org/ns#"
   xmlns:rdf="http://www.w3.org/1999/02/22-rdf-syntax-ns#"
   xmlns:svg="http://www.w3.org/2000/svg"
   xmlns="http://www.w3.org/2000/svg"
   xmlns:sodipodi="http://sodipodi.sourceforge.net/DTD/sodipodi-0.dtd"
   xmlns:inkscape="http://www.inkscape.org/namespaces/inkscape"
   width="270mm"
   height="270mm"
   viewBox="0 0 956.69289 956.69289"
   id="svg6114"
   version="1.1"
   inkscape:version="0.92.3 (2405546, 2018-03-11)"
   sodipodi:docname="Level3_C62.svg">
  <defs
     id="defs6116" />
  <sodipodi:namedview
     id="base"
     pagecolor="#ffffff"
     bordercolor="#666666"
     borderopacity="1.0"
     inkscape:pageopacity="0.0"
     inkscape:pageshadow="2"
     inkscape:zoom="0.35"
     inkscape:cx="223.39143"
     inkscape:cy="550.03659"
     inkscape:document-units="px"
     inkscape:current-layer="layer1"
     showgrid="false"
     inkscape:window-width="1680"
     inkscape:window-height="987"
     inkscape:window-x="-8"
     inkscape:window-y="-8"
     inkscape:window-maximized="1" />
  <metadata
     id="metadata6119">
    <rdf:RDF>
      <cc:Work
         rdf:about="">
        <dc:format>image/svg+xml</dc:format>
        <dc:type
           rdf:resource="http://purl.org/dc/dcmitype/StillImage" />
        <dc:title></dc:title>
      </cc:Work>
    </rdf:RDF>
  </metadata>
  <g
     inkscape:label="Laag 1"
     inkscape:groupmode="layer"
     id="layer1"
     transform="translate(0,-95.66929)">
    <path
       style="fill:none;fill-rule:evenodd;stroke:#000000;stroke-width:1.25;stroke-linecap:butt;stroke-linejoin:miter;stroke-miterlimit:4;stroke-dasharray:none;stroke-opacity:1"
       d="m 168.41744,164.03954 -5.8122,55.95448 -10.17138,46.36228 2.90611,35.17141 2.9061,14.3883 17.43664,20.78309 61.02825,63.94799 13.07748,17.58569 8.71832,17.5857 17.43664,36.77008 2.90611,12.7896"
       id="path6673"
       inkscape:connector-curvature="0" />
    <path
       style="fill:none;fill-rule:evenodd;stroke:#000000;stroke-width:1.25;stroke-linecap:butt;stroke-linejoin:miter;stroke-miterlimit:4;stroke-dasharray:none;stroke-opacity:1"
       d="m 674.08007,167.23694 7.26527,54.35578 1.45305,60.75058 -2.9061,22.38181 -8.71832,23.98049 -31.77133,37.28048 -41.99166,50.88567 -29.15899,60.54542"
       id="path6675"
       inkscape:connector-curvature="0"
       sodipodi:nodetypes="cccccccc" />
    <path
       style="fill:none;fill-rule:evenodd;stroke:#000000;stroke-width:1.25;stroke-linecap:butt;stroke-linejoin:miter;stroke-miterlimit:4;stroke-dasharray:none;stroke-opacity:1"
       d="m 156.71607,319.30303 -1.02747,36.17445 -12.32956,39.56579 -3.08239,41.8267 -6.16479,32.78309 -15.41197,42.95715 -13.35702,66.69663 -8.21971,56.52257 -6.16479,119.82785 -21.57674,212.52484"
       id="path6677"
       inkscape:connector-curvature="0"
       sodipodi:nodetypes="cccccccccc" />
    <path
       style="fill:none;fill-rule:evenodd;stroke:#000000;stroke-width:1.25;stroke-linecap:butt;stroke-linejoin:miter;stroke-miterlimit:4;stroke-dasharray:none;stroke-opacity:1"
       d="m 675.58538,318.17258 9.24719,71.21844 6.16477,75.74024 16.43942,55.39212 22.60422,94.9579 24.65913,118.6974 15.41196,108.52333 16.43943,98.34926"
       id="path6679"
       inkscape:connector-curvature="0" />
    <path
       style="fill:none;fill-rule:evenodd;stroke:#000000;stroke-width:1.25;stroke-linecap:butt;stroke-linejoin:miter;stroke-miterlimit:4;stroke-dasharray:none;stroke-opacity:1"
       d="m 328.30255,591.74182 18.49436,48.6094 21.57673,39.5658 5.13733,23.73947 3.08239,26.00039 -6.16478,27.13083 9.40815,6.76419 12.35096,-1.5987 5.81222,-35.17139 2.17958,-23.98049 -7.26527,-22.3818"
       id="path6681"
       inkscape:connector-curvature="0" />
    <path
       style="fill:none;fill-rule:evenodd;stroke:#000000;stroke-width:1.25;stroke-linecap:butt;stroke-linejoin:miter;stroke-miterlimit:4;stroke-dasharray:none;stroke-opacity:1"
       d="m 521.50945,602.88258 -15.98358,31.17465 -16.71013,33.57269 -2.9061,11.99024 v 27.17789 l -0.72652,31.97401 -2.17958,13.58894 -6.53875,2.39806 -14.53054,0.79934 h -9.44484 l 2.9061,-75.13888 0.72653,-7.19416"
       id="path6683"
       inkscape:connector-curvature="0" />
    <path
       style="fill:none;fill-rule:evenodd;stroke:#000000;stroke-width:1.25;stroke-linecap:butt;stroke-linejoin:miter;stroke-miterlimit:4;stroke-dasharray:none;stroke-opacity:1"
       d="m 370.39188,757.15709 -1.81631,20.38344 1.08979,17.58569 2.54284,16.78635 6.17547,15.18764 9.80811,13.18928 14.89381,8.39316 15.25706,2.39806 24.33864,-0.79936 17.07338,-7.59382 10.17137,-9.59219 7.9918,-15.58732 5.44896,-17.18604 1.81631,-20.78309 -1.45305,-29.17625 -6.17548,4.39642 h -24.33865 l -1.08979,21.98211 0.36327,14.78797 -3.26938,18.38504 -2.9061,11.1909 -5.08569,5.99513 -13.44075,1.59871 -13.804,-4.39644 -8.71831,-8.79284 -6.17548,-12.38992 -4.72243,-15.58733 -0.36326,-9.99186 -1.45306,-15.987 -12.35096,2.39804 z"
       id="C62.1"
       inkscape:connector-curvature="0"
       inkscape:label="#path6685" />
    <path
       style="fill:none;fill-rule:evenodd;stroke:#000000;stroke-width:1.25;stroke-linecap:butt;stroke-linejoin:miter;stroke-miterlimit:4;stroke-dasharray:none;stroke-opacity:1"
       d="m 466.65668,837.09209 12.71422,31.17464 19.61622,51.15838 22.52233,55.15509"
       id="path6687"
       inkscape:connector-curvature="0" />
    <path
       style="fill:none;fill-rule:evenodd;stroke:#000000;stroke-width:1.25;stroke-linecap:butt;stroke-linejoin:miter;stroke-miterlimit:4;stroke-dasharray:none;stroke-opacity:1"
       d="m 383.83263,834.29436 -6.90201,32.37367 -15.25706,42.36554 -17.07337,61.54993 -8.35507,28.7766"
       id="path6689"
       inkscape:connector-curvature="0" />
    <path
       id="C62.0"
       style="fill:none;fill-rule:evenodd;stroke:#000000;stroke-width:1.25;stroke-linecap:butt;stroke-linejoin:miter;stroke-miterlimit:4;stroke-dasharray:none;stroke-opacity:1"
       d="m 548.17985,612.08992 -0.51374,19.21769 4.10986,13.00018 8.73345,9.60885 10.27463,7.91315 9.24718,-3.39135 8.21971,-9.04361 5.65106,-13.56542 v -19.21767 l -7.19225,-19.78291 -8.21971,-9.0436 -10.78837,-4.52181 -7.70598,3.39136 -7.70599,8.47837 -1.54119,8.47839 z m -65.24397,-117.00171 -3.08239,15.2611 2.05493,19.7829 5.65105,16.39154 11.81584,9.04362 11.81584,2.2609 9.24717,-11.86974 4.10985,-17.522 -1.54119,-24.30471 -7.70598,-14.69586 -10.27464,-9.04361 -13.87077,3.39136 z m -71.92248,47.47897 -1.54119,18.65245 1.54119,18.65245 7.70599,15.26107 15.41196,7.91317 11.81583,-3.39136 9.24717,-13.00018 -2.05492,-19.21767 -4.62359,-19.7829 -11.3021,-15.82633 -11.3021,-4.5218 -10.27465,4.5218 z m -51.37319,78.00114 v 20.34812 l 5.13731,15.82632 10.27465,12.43497 13.35703,7.91315 10.27463,-3.95658 7.19226,-7.91316 -1.02746,-16.39154 -3.08241,-19.21767 -9.24717,-16.95677 -8.73344,-9.04362 -10.78837,-1.13044 -10.78837,7.91315 z m -53.42814,-157.69796 -1.5412,19.78289 3.0824,16.39155 7.70599,16.95678 10.78837,10.17405 11.3021,6.7827 9.24718,-4.5218 7.19225,-11.30451 v -17.522 l -4.62359,-21.47857 -9.24718,-18.08722 -15.41196,-12.43497 -10.27464,3.39136 -6.67852,6.21747 z M 240.96812,326.08574 v 11.86974 l 2.56865,19.78289 4.62359,15.82633 10.27464,10.73928 12.32957,7.34794 10.27465,-2.2609 5.65105,-10.73929 2.56866,-15.82632 -3.59613,-20.91335 -10.78838,-18.65244 -11.81583,-9.60885 -12.32956,1.69568 -8.21972,6.21749 z"
       inkscape:label="#path6701"
       inkscape:connector-curvature="0" />
    <path
       style="fill:none;fill-rule:evenodd;stroke:#000000;stroke-width:1.31658781;stroke-linecap:butt;stroke-linejoin:miter;stroke-miterlimit:4;stroke-dasharray:none;stroke-opacity:1"
       d="m 765.67695,263.40397 -0.51566,9.18755 v 8.64717 l 2.06268,8.10678 4.64102,9.72794 5.15672,8.10678 6.7037,7.56628 7.21937,5.9449 9.28209,5.40452 9.28204,2.70204 9.28207,1.08098 h 10.3134 l 6.70371,-0.5405 11.34472,-3.24252 8.25072,-4.32364 6.18805,-4.32364 6.18806,-5.4044 4.12536,-5.40452 5.67238,-11.34933 3.09402,-8.10677 1.547,-7.02579 v -10.26843 l -4.64102,-18.37521 -3.60971,-7.56629 -4.12534,-6.48539 -6.70373,-6.4853 -6.18805,-4.32364 -5.15668,-3.24263 -5.67239,-3.24276 -6.70368,-2.16177 -8.25073,-1.62128 -7.2194,-0.54049 -9.28205,1.08088 -9.28208,2.16177 -7.21936,3.24276 -7.2194,3.24264 -8.25072,7.56628 -5.15669,5.40453 -4.64103,5.94479 -3.60969,7.56628 -2.57835,5.40452 z"
       id="C62.9"
       inkscape:connector-curvature="0"
       inkscape:label="#path4217-8" />
    <path
       id="path4223"
       style="fill:none;fill-rule:evenodd;stroke:#000000;stroke-width:1.31658781;stroke-linecap:butt;stroke-linejoin:miter;stroke-miterlimit:4;stroke-dasharray:none;stroke-opacity:1"
       d="m 838.34847,272.391 c 0.7401,3.19928 0.52467,2.31145 0.51119,3.50736 -0.086,7.6257 0.14838,3.8556 -0.0703,6.37172 l -0.0852,4.87472 -0.66973,4.84708 -2.56403,4.48337 -4.67742,3.48274 -6.01647,2.48412 c -2.30937,0.50952 -4.24518,1.42922 -7.29267,0.95538 l -7.81753,-2.35615 c 0,0 1.09389,0.28679 1.4364,-0.51052 m 2.14975,-55.41189 -3.3831,4.77697 -1.70031,6.3055 -0.34728,5.92339 1.24113,6.3056 4.08799,5.54118 5.04149,2.67507 4.85917,0.57326 6.35892,-0.99772 c 1.76573,-0.51029 5.22071,-1.48227 5.22071,-1.48227 -0.16335,-0.44463 4.21903,-0.30285 4.18479,-1.71 -0.12672,-5.20433 -0.13007,-8.7156 0.0542,-12.81587 0.18354,4.22511 -0.015,-9.10806 -3.02919,-11.65573 l -5.05903,-4.96802 -5.40613,-1.91074 -7.02944,0.57304 z"
       inkscape:connector-curvature="0"
       sodipodi:nodetypes="csccccccccccccccccccsscccccc" />
  </g>
</svg>
