<?xml version="1.0" encoding="UTF-8" standalone="no"?>
<!-- Created with Inkscape (http://www.inkscape.org/) -->

<svg
   xmlns:dc="http://purl.org/dc/elements/1.1/"
   xmlns:cc="http://creativecommons.org/ns#"
   xmlns:rdf="http://www.w3.org/1999/02/22-rdf-syntax-ns#"
   xmlns:svg="http://www.w3.org/2000/svg"
   xmlns="http://www.w3.org/2000/svg"
   xmlns:sodipodi="http://sodipodi.sourceforge.net/DTD/sodipodi-0.dtd"
   xmlns:inkscape="http://www.inkscape.org/namespaces/inkscape"
   width="300mm"
   height="300mm"
   viewBox="0 0 1062.9921 1062.9921"
   id="svg2"
   version="1.1"
   inkscape:version="0.91 r13725"
   sodipodi:docname="Level_3_C65.svg">
  <defs
     id="defs4" />
  <sodipodi:namedview
     id="base"
     pagecolor="#ffffff"
     bordercolor="#666666"
     borderopacity="1.0"
     inkscape:pageopacity="0.0"
     inkscape:pageshadow="2"
     inkscape:zoom="0.49497475"
     inkscape:cx="447.00735"
     inkscape:cy="478.85983"
     inkscape:document-units="px"
     inkscape:current-layer="layer1"
     showgrid="false"
     inkscape:window-width="1366"
     inkscape:window-height="705"
     inkscape:window-x="-8"
     inkscape:window-y="-8"
     inkscape:window-maximized="1" />
  <metadata
     id="metadata7">
    <rdf:RDF>
      <cc:Work
         rdf:about="">
        <dc:format>image/svg+xml</dc:format>
        <dc:type
           rdf:resource="http://purl.org/dc/dcmitype/StillImage" />
        <dc:title />
      </cc:Work>
    </rdf:RDF>
  </metadata>
  <g
     inkscape:label="Laag 1"
     inkscape:groupmode="layer"
     id="layer1"
     transform="translate(0,10.629921)">
    <path
       style="fill:none;fill-rule:evenodd;stroke:#000000;stroke-width:1.25;stroke-linecap:butt;stroke-linejoin:miter;stroke-opacity:1;stroke-miterlimit:4;stroke-dasharray:none"
       d="m 451.38242,343.92012 -4.68528,5.31925 -8.4335,9.00178 -10.30763,8.59262 -8.90203,3.27339 -28.11168,2.86421 -21.55229,0 -14.99289,-1.22752 -13.58733,-2.04587 -14.52437,-5.72841 -20.61522,-17.59441 -12.18174,-14.7302 -11.24466,-21.68613 -5.62235,-21.68613 -3.27969,-32.73379 5.62234,-32.32461 2.34264,-15.95772 9.83909,-29.46041 12.18172,-32.32461 12.65026,-21.68613 26.7061,-34.370478 33.2655,-30.278749 25.76903,-16.776068 22.48935,-12.275174 27.17463,-9.410958 22.95787,-3.273386 34.67108,-1.227513 22.48935,1.227513 18.9945,3.271026 55.65828,11.573136 51.6827,15.04509 34.45514,17.359702 26.56896,18.262667 41.90627,36.191042 27.89417,39.62301 22.39832,39.60306 8.45123,36.4454 13.25198,46.29256 2.65039,46.29256 9.40642,52.07914 2.84545,70.30184 -0.065,56.6884 -6.88605,55.86538 2.65039,52.07912 -14.57718,50.92183 -18.55276,67.12421 -21.20315,43.97794 -27.82916,34.71942 -53.00789,35.87673 -46.38191,25.46091 -47.70711,19.67434 -43.73151,9.25851 -37.10554,-1.15731 -38.43072,-6.94388 -49.0323,-19.67435 -39.75593,-28.93285 -39.75592,-46.29256 -25.17874,-43.97793 -18.55277,-48.6072 0,-50.92181 3.8338,-26.39307 7.85532,-22.2871 7.49646,-13.09352 13.11878,-13.09351 11.24468,-8.18344 18.74111,-5.72841 19.67818,-4.91008 28.338,-2.55908"
       id="0"
       inkscape:connector-curvature="0"
       inkscape:label="#path4147"
       sodipodi:nodetypes="cccccccccccccccccccccccccccccccccccccccccccccccccccccccccccccccccccc" />
    <path
       style="fill:none;fill-rule:evenodd;stroke:#000000;stroke-width:1.25;stroke-linecap:butt;stroke-linejoin:miter;stroke-opacity:1;stroke-miterlimit:4;stroke-dasharray:none"
       d="m 341.77662,370.75914 -1.3252,13.88777 -3.97559,25.46092 -3.9756,18.51702 -7.28859,25.46091 -15.23976,32.4048 -11.92677,28.93284 -11.92679,19.09569 -12.58936,32.98344 -12.58938,45.71391 -12.58938,50.92182 -9.27638,57.8657 -6.626,156.23741 2.6504,101.26498 7.95119,-2.31463 9.93898,0 8.61379,2.89328 9.93898,3.47195 5.96338,-0.57866 4.6382,-90.2705 7.95118,-137.14172 4.63819,-37.03405 2.65039,-37.03405 7.95119,-24.30359 5.30079,-16.2024 7.47861,-8.15479 7.51113,-11.28066 7.19609,-10.58663"
       id="path4151"
       inkscape:connector-curvature="0"
       sodipodi:nodetypes="cccccccccccccccccccccccccccc" />
    <path
       style="fill:none;fill-rule:evenodd;stroke:#000000;stroke-width:1.25;stroke-linecap:butt;stroke-linejoin:miter;stroke-opacity:1;stroke-miterlimit:4;stroke-dasharray:none"
       d="M 493.92857,272.71935 500,269.14792 l 7.14285,1.07143 6.07143,5.35715 7.85715,7.85714 7.5,4.28571 15.71428,2.85715 11.07143,-1.78572 10,-6.07143 4.28571,-3.92857 5,0 2.85715,3.92857 0,5.35715 -0.71429,11.78571 -0.35714,16.78571 1.07143,10 4.28571,2.14286 5.71429,-1.42857 15.35714,-5 13.21429,-1.07143 1.78571,2.14286 0.71429,3.92857 -5.35715,4.28571 -17.14285,17.5 -4.28572,7.14286 -2.14286,3.57143 -1.42857,4.64286 0.35715,4.64285 5.71428,29.28572 5.71429,7.14285 6.42857,6.07143 3.57143,5 5,2.85715 3.21428,3.92857 0,4.28571 -0.71428,3.92857 -4.64286,-1.07143 -5.35714,-2.85714 -4.28572,1.78572 -3.92857,2.14285 -1.78571,3.92857 -0.35715,3.21429 1.42858,1.78571 3.92857,1.78572 11.42857,8.92857 1.07143,3.21429 -0.35715,3.21428 -1.78571,2.5 -3.57143,0 -5.35714,1.78572 -11.07143,0 -13.57143,1.07142 -5.71428,0 -3.57143,2.14286 -2.85715,3.57143 -2.85714,5.35714 -2.14286,6.07143 0,10 1.07143,4.28572 6.07143,7.5 11.78572,10.35714 7.5,4.28571 7.14285,2.14286 12.14286,0.35714 15.35714,0 8.92857,0 6.07143,2.14286 2.85715,2.85714 1.07142,6.07143 0,5.71429 -0.35714,3.57143 -3.57143,1.78571 -11.42857,-1.07143 -12.14286,-1.07143 -11.42857,0 -12.14285,0 -3.92858,0.71429 -3.57142,3.21428 -1.42858,3.92858 -0.35714,10.71428 -2.5,5.71429 -0.35714,5 0,6.42857 0,3.57143 -1.07143,3.92857 -2.85714,1.42857 -5.71429,2.5 -9.64286,-0.71429 -2.85714,-3.21428 -2.5,-5.71429 -0.35714,-6.42857 0.71428,-20 -1.07142,-10.71428 -0.71429,-3.21429 -5.71429,-2.85714 -21.78571,-8.92857 -11.78571,-3.92858 -6.07143,-0.35714 -2.14286,2.5 -0.35714,6.42857 -2.14286,18.57143 -0.71429,7.14286 1.78572,3.57143 3.92857,5.71428 6.81558,5.86645 5.3033,4.79822 8.5863,7.82869 1.51523,3.53553 0.25253,4.54569 -1.01015,3.03045 -2.0203,2.52538 -4.04061,0.75762 -4.04061,-2.52538 -4.04061,-3.03046 -1.76777,0 -2.02031,1.51523 -0.75761,3.28299 -0.25254,2.52539 0.50508,4.04061 -2.02031,4.04061 -3.03046,3.53553 -2.0203,5.3033 0,4.29315 0,3.03046 0,2.77792 -1.26269,1.76776 -7.32361,5.3033 -9.34391,0.75762 -5.55584,-1.76777 -7.82868,-5.05076 -2.77792,-7.57615 -0.25254,-16.66751 -5.05076,-18.43529 -5.55584,-10.6066 -8.33376,-8.08122 -5.3033,-4.54568 -7.82868,-2.02031 -4.79822,-0.25254 -3.283,-5.3033 -4.04061,-6.06091 -6.81853,-3.03046 -5.55584,0 -17.12927,-1.26269 -16.71084,-1.26269 -14.89975,0 -5.80838,0 -2.52538,-2.77792 -2.27284,-3.283 -1.51523,-12.37437 2.02031,-9.34391 2.52538,-5.3033 4.54568,-4.29315 14.14214,-17.9302 50.25509,-40.40611 44.44671,-45.7094 0,-5.05076 -0.25254,-6.06092 -1.51523,-12.37436 0.25254,-7.07107 0.75761,-5.3033 -2.0203,-5.80838 -4.79822,-6.56599 -3.78808,0 -2.52538,-0.75762 -2.27284,-3.28299 -2.27284,-3.283 2.27284,-6.56599 1.51523,-7.07107 7.82868,-5.80837 5.80838,-10.10153 1.26269,-6.06092 -1.76777,-15.65736 0,-8.5863 1.76777,-3.53553 3.53553,-1.01015 7.57615,2.0203 6.31345,-1.76776 3.28299,-3.78808 z"
       id="C65"
       inkscape:connector-curvature="0"
       inkscape:label="#path3336"
       sodipodi:nodetypes="ccccccccccccccccccccccccccccccccccccccccccccccccccccccccccccccccccccccccccccccccccccccccccccccccccccccccccccccccccccccccccccccccccccccccccccccccccccccccccccccccccccccccccccccccccc" />
  </g>
</svg>
