<?xml version="1.0" encoding="UTF-8" standalone="no"?>
<!-- Created with Inkscape (http://www.inkscape.org/) -->

<svg
   width="700"
   height="750"
   viewBox="0 0 700 750"
   version="1.1"
   id="svg1"
   inkscape:version="1.2.2 (732a01da63, 2022-12-09)"
   sodipodi:docname="level3_C74.svg"
   xmlns:inkscape="http://www.inkscape.org/namespaces/inkscape"
   xmlns:sodipodi="http://sodipodi.sourceforge.net/DTD/sodipodi-0.dtd"
   xmlns="http://www.w3.org/2000/svg"
   xmlns:svg="http://www.w3.org/2000/svg">
  <sodipodi:namedview
     id="namedview1"
     pagecolor="#ffffff"
     bordercolor="#000000"
     borderopacity="0.25"
     inkscape:showpageshadow="2"
     inkscape:pageopacity="0.0"
     inkscape:pagecheckerboard="0"
     inkscape:deskcolor="#d1d1d1"
     inkscape:document-units="px"
     inkscape:zoom="1.0501374"
     inkscape:cx="250.91954"
     inkscape:cy="298.05623"
     inkscape:window-width="1920"
     inkscape:window-height="1009"
     inkscape:window-x="-8"
     inkscape:window-y="-8"
     inkscape:window-maximized="1"
     inkscape:current-layer="layer10"
     showgrid="false" />
  <defs
     id="defs1" />
  <g
     inkscape:label="Ebene 1"
     inkscape:groupmode="layer"
     id="layer1">
    <g
       inkscape:groupmode="layer"
       id="layer10"
       inkscape:label="Nebenniere"
       transform="matrix(2.6351636,0,0,2.6351636,-1069.4437,-1576.8058)"
       style="stroke-width:0.37948308;stroke-dasharray:none">
      <path
         style="display:inline;fill:none;stroke:#ffffff;stroke-width:0.379483;stroke-dasharray:none;stroke-opacity:1"
         d="m 511.16021,724.58816 c 0.13553,2.18022 0.67054,4.33684 -1.3708,5.78715 1.48813,2.69172 -0.65159,4.44532 -1.54863,6.68356 -0.87176,3.9135 0.0282,10.19599 -4.33152,11.20625 -0.83352,3.3341 -0.56517,6.54227 -2.09547,9.90133 1.03244,2.06489 3.28461,3.22539 5.25445,4.45005 3.51731,2.20101 11.8431,-4.98989 15.78279,-5.72708 6.03883,-3.38518 10.58208,-3.66655 10.65504,-11.52077 0.63853,-6.38531 0.36683,-12.1895 -0.21263,-18.41053 7.16348,0.19505 16.43276,1.14984 23.55407,2.19869 6.3e-4,3.23637 -0.17934,5.97056 -0.43309,9.08628 0.13972,3.98741 -0.19233,9.79021 2.39738,12.18671 1.87144,2.59473 12.89596,5.7837 17.38503,4.85997 1.13417,-1.0618 1.19411,-1.12558 2.78298,-5.13469 -0.57424,-1.00492 -1.48834,-2.07621 -2.90074,-3.30955 -1.4124,-1.23334 -4.43895,-8.76907 -4.63454,-11.08822 -0.0476,-0.56478 0.0512,-2.154 -0.18567,-2.55662 -1.10281,-1.87459 -1.98103,-6.80378 -1.76544,-9.4191 -0.23646,-2.36461 -3.74815,-4.07828 -1.81654,-6.79521 -0.94829,-1.89658 -2.0936,-3.79162 -1.74926,-6.32426 -2.04046,-1.63472 -1.98406,-10.75696 -1.79707,-15.9452 -0.17594,-5.81481 -0.15927,-12.49395 0.24965,-18.63638 0,-2.0965 0.61126,-2.42957 1.54742,-4.17131 0.71304,-1.32662 -0.67418,-2.55656 1.14375,-3.22941 0.7333,-0.24443 0.64227,-1.61341 1.66029,-2.12242 0.68433,-0.34217 1.45383,0.46444 2.17463,0.10404 0.55148,-0.27574 1.0775,-0.74427 1.55294,-0.98199 2.35575,-1.17787 5.47403,3.21616 6.58823,4.61655 5.78478,3.48241 1.13072,6.53658 3.69999,8.87939 0.41779,0.38097 2.96876,0.53533 4.30959,1.42614 1.2642,0.8399 3.01827,3.47363 3.27167,4.15292 2.20863,0.91048 3.63128,2.54018 3.48417,5.48417 2.09821,0.81689 3.7244,2.20038 5.3,3.84403 1.98701,1.12938 3.86109,1.45144 4.82756,2.98904 0,0 6.32403,1.52467 9.01543,3.02757 2.74521,1.53295 4.46066,2.3541 7.73712,4.50772 5.30023,4.41686 13.88434,13.73939 14.82439,20.73995 1.46174,1.21811 3.0102,3.0243 4.67839,4.90364 1.66818,1.87934 6.48359,19.35411 6.75688,22.97998 -0.0981,5.47352 0.51746,13.01658 -2.34739,15.80199 0.88773,2.36728 1.92064,5.35754 2.07268,8.13127 -0.26453,9.06292 -1.04959,17.79975 -5.75254,26.54618 -2.52918,6.79809 -5.40316,9.04858 -12.25553,12.01241 -3.07225,1.32883 -10.8276,4.19362 -14.00467,4.48816 -7.20708,2.42679 -20.30901,-0.27474 -24.18864,-6.61551 -1.52343,-2.666 -3.58532,-5.61323 -4.52053,-8.76789 -0.80021,6.985 -0.44638,15.16894 0.29862,22.3017 -1.90147,1.37211 -4.53334,2.60706 -6.5989,3.33464 -0.76265,-5.19292 -0.19172,-11.53782 -0.92525,-16.72572 0,-4.50742 -0.37175,-8.93905 -0.21177,-13.41195 -0.52754,-4.22034 -0.93658,-8.9206 -0.55118,-13.47996 -0.41159,-3.7043 -0.59717,-8.40641 0.71346,-12.07392 -0.0671,-3.03274 2.36237,-8.45001 2.73729,-8.40835 0.45969,-0.91939 -6.04825,-3.47015 -11.66518,-4.27062 -5.39306,-2.13248 -10.60324,-3.14229 -10.87396,-1.6153 -1.73492,2.54835 -1.23325,10.98298 -0.62082,19.5882 -0.11102,8.58392 -0.25263,17.47731 -0.53385,21.47812 -7.58273,3.47411 -14.04509,5.93201 -23.59825,9.67863 0.27657,-6.02596 -0.28623,-10.44231 -0.62772,-17.25624 -0.34148,-6.81393 -0.27626,-20.4033 -0.15298,-24.88517 0.12329,-4.48187 0.54239,-5.14689 -0.8792,-6.04641 -0.74645,-0.88275 -8.02119,3.06421 -16.5101,6.77395 -9.20784,2.31085 -17.97054,7.41149 -19.45096,9.79799 3.11978,5.38778 3.53297,11.69209 3.84886,17.93663 0,4.91162 -0.65718,9.45273 -1.28709,14.25705 -0.63297,5.06375 0.1364,10.21912 0.099,15.39564 0,4.18886 0.46137,8.36977 0.16461,12.60248 -2.02074,-0.25259 -4.2622,-1.1478 -6.38475,-1.32932 -0.0715,-1.2965 0.0725,-3.10329 0.0322,-4.54067 0.6163,-4.93041 -0.021,-10.08992 0.099,-15.04915 -2e-5,-4.9111 -1.45898,-3.75093 -2.16922,-0.0626 -0.82921,3.31683 -2.67363,5.96819 -4.41903,9.28637 -1.7454,3.31818 -5.4583,6.11169 -8.67795,8.16554 -1.23902,1.48682 -6.96389,3.15404 -9.09423,3.45837 -5.90459,0.11236 -11.96753,0.54807 -17.61208,-1.50498 -4.04573,-1.51715 -7.7693,-3.18144 -10.79139,-6.43641 -1.83226,-0.6871 -6.15939,-7.60733 -6.83869,-8.78093 -0.67931,-1.17359 -2.94303,-8.08061 -3.47238,-9.40754 -1.11834,-1.95708 -0.79496,-6.88523 -1.43769,-9.19707 -0.51234,-4.0987 -0.58602,-8.88655 1.19135,-12.78716 -1.16338,-3.13459 -1.39637,-6.64955 -0.71481,-10.16618 v -4.20944 c 0.67245,-5.37959 0.25628,-10.78445 2.54154,-15.72581 1.31591,-5.26365 3.18386,-10.88518 7.8708,-14.16254 -0.0155,-2.68166 0.47155,-5.31107 1.64927,-7.68069 0.74068,-1.49028 1.36002,-3.00049 2.39863,-4.50017 1.0386,-1.49967 3.35556,-6.88406 6.25373,-9.78223 1.94531,-1.94531 3.79024,-4.02863 6.13977,-5.52167 0.82492,-0.51557 3.02628,-2.27759 4.01839,-2.72064 3.15487,-1.40891 6.07097,-2.73958 9.70338,-3.13069 1.06133,-0.11793 2.97033,-0.50408 3.9309,-0.98437 0.60639,-0.30319 -0.45547,-1.86432 -0.0575,-2.39457 0.3727,-0.49654 3.73399,-1.68833 4.39889,-2.32688 0.6649,-0.63855 4.33626,-3.27539 5.32383,-4.10998 0.79735,-0.67385 0.68498,-1.51869 0.92282,-2.98316 0.13894,-0.85552 2.6983,-2.8799 4.41011,-4.25954 0.26111,-0.52222 0.84328,-1.7661 1.26213,-2.18495 0.78679,-0.78679 2.94555,-0.66925 3.99704,-1.19499 1.94205,-0.97103 1.58217,-3.05195 1.68947,-5.10961 0,-0.76167 0.10003,-1.90134 0.53568,-2.5548 0.57066,-0.856 1.71284,-1.13595 2.43119,-1.8543 0.7674,-0.7674 3.77858,-3.88076 4.52345,-4.24736 0.70298,-0.34599 0.68667,-0.45823 1.4515,-0.24415 0.76483,0.21408 2.075,1.11078 3.43155,0.83777 1.25845,-0.25327 1.21377,1.59347 2.16635,2.12881 1.52569,0.85742 0.50178,1.07858 1.21297,2.51164 1.26887,2.5568 2.49604,4.66157 2.02903,7.92104 -0.59567,4.15751 1.62839,30.77523 -2.11572,31.62462 z"
         id="C74"
         inkscape:label="C74 Umriss"
         sodipodi:nodetypes="cccccccccccccczsscccccscssscssccccscczccccsccccccccccccccczzccccccccccczcscczcccccccszscscsszsscsscssszsssscc" />
      <path
         id="path26"
         style="fill:none;stroke:#ffffff;stroke-width:0.37948308;stroke-dasharray:none;stroke-opacity:1"
         d="m 591.97468,769.82915 c -0.44046,2.38178 -0.63764,4.26531 1.5148,5.84277 -0.87656,0.87655 -2.19332,1.5037 -3.02959,2.51022 -1.32435,-0.9512 -3.20237,-2.94441 -4.06829,-4.28469 -0.58257,-0.9017 -1.04329,-2.26882 -1.31775,-3.33397 -0.34311,-1.33156 -1.21099,-2.77385 -1.4385,-4.11015 -0.16725,-0.98234 -0.88888,-1.92388 -1.26877,-2.9863 2.68813,0.48601 4.5669,3.52916 6.57852,4.89061 0.9935,0.67239 2.27874,1.07008 3.02958,1.47151 z m -7.48195,-8.87872 c 0.8477,0.72994 1.40329,1.75951 2.25667,2.47066 1.05447,1.01178 2.21936,2.04328 3.61844,2.56793 0.32761,0.12285 0.67553,0.17634 1.01161,0.27236 0.0239,0.007 0.23091,0.0854 0.23345,0.0778 0.27045,-0.81135 -0.23514,-3.32241 -0.33072,-4.18262 -0.19519,-0.017 -0.41078,0.0286 -0.60307,-0.0194 -0.33623,-0.0841 -0.61733,-0.39146 -0.95325,-0.44745 -0.79994,-0.13332 -4.94065,-0.55645 -5.38876,-0.83652 m 5.95293,-3.50175 c -0.71953,-0.0397 -1.42734,0.0826 -2.13994,0.15563 -0.36922,0.0379 -0.76434,0.0776 -1.12834,0.15564 -4.02365,0.8622 1.45377,1.38881 2.49011,1.53686 0.11152,0.0159 1.06035,0.13597 1.10889,0.0389 0.29802,-0.59604 -0.47686,-1.30246 -0.33072,-1.88703 z m -9.12394,-5.87512 c -0.61421,1.35071 -1.94426,2.33146 -2.47066,3.73518 2.5647,0.87894 4.13952,-0.11742 6.53655,-0.83653 0.15495,-0.0465 1.50837,-0.58226 1.42015,-0.75871 -0.2083,-0.41659 -5.42506,-2.16704 -5.48604,-2.13994 z m -98.25431,27.85321 c -0.3381,0.79399 -0.78122,3.46995 -0.6307,4.07536 0.37231,-0.16466 3.43382,-0.4856 3.86622,-0.665 2.19649,-0.91132 4.13541,-1.67067 6.1281,-3.2648 1.34919,-1.07937 2.76239,-2.76543 1.84361,-2.76543 -0.44863,0 -1.60412,0.93901 -2.13472,1.11588 -1.55326,0.51775 -8.09019,2.68278 -9.07251,1.50399 z m 1.01884,-4.2209 c -0.18682,0.49142 -0.27231,1.30019 -0.2911,1.60103 3.37992,0.41316 6.14194,-0.89315 8.05368,-1.69806 0.27152,-0.11432 2.10112,-1.29502 1.74658,-1.64955 -0.43245,-0.43245 -3.48085,0.53971 -4.02684,0.6307 -0.66801,0.11134 -1.32409,0.37433 -1.98916,0.48517 -1.16255,0.19376 -2.34838,0.48761 -3.49316,0.63071 z m 1.6466,-4.76438 c 0.22489,0.2682 -0.47658,1.77377 -0.28815,1.80489 1.9479,0.32173 14.79597,-3.38456 5.0942,-2.74679 -0.54817,0.036 -1.30236,0.36605 -1.84656,0.45674 -1.00653,0.16776 -1.99586,0.24426 -2.95949,0.48516 z m 18.19649,-4.93884 c -1.10027,-0.86786 -2.02483,-1.99015 -3.63871,-3.5902 -0.67444,0.51507 -1.11328,0.94721 -1.84361,1.3854 -1.36649,0.78271 -2.95675,1.20106 -4.46348,1.52557 -2.02182,0.50545 -5.63065,0.42954 -7.42297,-0.24258 0.59029,0.25018 -0.22118,2.32714 0.0201,2.56841 0.1558,0.15579 2.53234,-0.28669 3.00948,-0.28669 2.4705,0 12.90217,-0.28214 14.3392,-1.35991 z"
         inkscape:label="C74 Lücken" />
      <path
         id="C74.9"
         style="stroke-width:0.37948308;stroke-dasharray:none;font-size:33.2768px;font-family:'.Arial Hebrew Desk Interface';-inkscape-font-specification:'.Arial Hebrew Desk Interface, Normal';display:inline;fill:none;stroke:#000000"
         d="m 640.62543,630.05443 q -1.05189,1.3739 -2.81219,1.3739 -1.58856,0 -2.59752,-1.00895 -0.98749,-1.03042 -0.98749,-2.57605 0,-1.65297 1.13776,-2.79072 1.15922,-1.13776 2.74779,-1.13776 2.0179,0 3.19859,1.5027 1.20216,1.50269 1.20216,4.03581 0,2.74778 -1.24509,4.44368 -1.22363,1.6959 -3.41327,1.6959 -1.15922,0 -2.10377,-0.64401 -0.92308,-0.66549 -1.13775,-1.52417 l 1.8247,-0.27907 q 0.42934,0.81575 1.56709,0.81575 1.22363,0 1.91058,-1.05189 0.70841,-1.07335 0.70841,-2.85512 z m -0.34348,-2.25404 q 0,-1.09482 -0.55814,-1.71737 -0.53668,-0.62253 -1.5027,-0.62253 -0.83721,0 -1.43829,0.66547 -0.60108,0.64402 -0.60108,1.67443 0,0.90162 0.55815,1.5027 0.55814,0.57961 1.45976,0.57961 0.85868,0 1.45976,-0.57961 0.62254,-0.60108 0.62254,-1.5027 z m 6.06135,1.6982 a 8.2540128,8.2540128 0 0 1 -8.25401,8.25401 8.2540128,8.2540128 0 0 1 -8.25402,-8.25401 8.2540128,8.2540128 0 0 1 8.25402,-8.25402 8.2540128,8.2540128 0 0 1 8.25401,8.25402 z"
         inkscape:label="C74.9" />
      <path
         id="C74.0"
         style="stroke-width:0.379483;stroke-dasharray:none;fill:none;stroke:#000000;stroke-opacity:1"
         d="m 565.46078,699.32649 c 0.0419,2.27661 0.19198,4.76586 0.63116,6.96173 0.21492,1.07463 1.74488,2.72857 1.91394,5.07931 0.12678,1.76285 0.8084,1.1015 1.47227,2.42924 0.38927,0.77854 -0.133,2.39385 -0.36067,3.29225 -0.12509,0.49358 -0.37866,1.81382 -0.15907,2.18511 0.53849,0.91053 1.49296,-0.0711 1.62394,0.19087 0.33517,0.67036 0.36807,2.7405 0.36807,3.60705 0,1.28291 -0.52245,2.73351 -0.18794,4.03061 0.33451,1.2971 0.82931,5.22718 2.56502,5.32162 1.54716,-0.77358 2.55079,-9.14473 2.62862,-10.75088 0.20287,-4.18649 0.14458,-6.68273 0.12409,-11.97986 -0.0205,-5.29713 0.42217,-5.52422 0.24396,-8.19019 -0.2052,-3.06967 0.14082,-6.20665 -0.0736,-9.27527 0.38834,1.165 0.93835,17.04015 0.97978,18.7025 0.096,3.85165 -0.32791,11.0396 0.67171,12.63789 0.99962,1.5983 0.0435,3.71148 2.63662,1.36202 0.91355,-0.82772 2.28853,-5.99168 4.48172,-9.64973 2.1932,-3.65806 1.89263,-7.15059 2.48619,-9.54075 0.59356,-2.39016 0.003,-2.83669 0.89018,-3.13246 1.00837,-0.33612 2.15645,-0.25223 3.16537,0 1.81148,0.45287 4.05631,-0.48227 5.59461,-1.25142 0.47089,-0.23545 1.25564,-0.37228 1.61949,-0.73614 1.45848,-1.45848 -1.06265,-5.11138 -2.28201,-6.33074 -1.7594,-1.7594 -3.70501,-2.72392 -4.90054,-3.86774 -1.19553,-1.14381 -1.31243,-1.63854 -1.79827,-2.61023 -0.32144,-0.64287 -1.19089,-1.92702 -1.69311,-2.42923 -0.30838,-0.30839 -0.79548,-0.67794 -1.03058,-1.03059 -0.31321,-0.46981 -0.60174,-0.96981 -1.03059,-1.39865 -0.42259,-0.42259 -1.02519,-0.54941 -1.54588,-0.80975 -1.04696,-0.52348 -2.34859,-1.46523 -3.16537,-2.28201 -0.32761,-0.32761 -1.55109,-2.8339 -1.61949,-3.3126 -0.12964,-0.90746 0.0617,-1.84774 -0.44168,-2.72369 -0.98644,-1.71639 -4.60519,-4.55399 -6.38345,-4.15424 -1.77826,0.39975 -2.61334,1.03402 -4.90047,2.07172 -2.28712,1.0377 -2.19498,4.56146 -2.42933,6.56212 -0.29223,2.4948 0.14263,5.93657 0.1684,8.54995 0.0229,2.32452 -0.30503,10.19558 -0.26309,12.47218 z m -54.7506,17.36446 c 0,3.13768 -0.75529,5.5824 -1.70309,8.42581 -0.4406,1.32181 -0.56152,2.74834 -1.07564,4.03363 -0.90855,2.27139 -1.77805,4.77359 -1.72117,7.03817 0.0235,0.93718 -0.65537,2.37433 -0.57589,3.29982 0.14801,1.72354 0.72257,5.00358 -0.67545,6.92257 -1.00095,-0.037 -1.97684,-1.79076 -2.76421,-2.64981 -2.2967,-2.5058 -5.06587,-3.38146 -3.71162,-7.28697 1.35425,-3.9055 2.10472,-7.41905 2.07468,-13.51009 -0.03,-6.09104 0.13194,-6.93132 -0.0277,-8.48349 -0.1596,-1.55217 -0.53006,-5.18321 -0.57626,-5.22941 -0.26478,-0.26477 -0.20988,16.19116 -0.62314,19.67527 -0.34358,2.89661 -1.38679,7.40765 -3.41415,8.08344 -2.18561,-3.62321 -3.73689,-6.69603 -5.15345,-10.60938 -0.92529,-3.97477 -2.26339,-8.63635 -2.71759,-9.0806 -0.90839,-0.88851 -4.43861,-1.04056 -4.94329,-1.16674 -4.88231,-1.22057 -9.06849,-2.31531 -3.944,-7.43981 2.63192,-2.63191 4.02402,-0.85492 5.71272,-1.98071 0.25348,-0.16899 1.186,-0.99619 1.61757,-2.41968 1.99607,-6.58385 4.13149,-8.08505 5.12915,-8.41759 0.69475,-0.23161 1.55171,-0.0392 2.24091,-0.26891 2.30819,-0.7694 3.38868,-2.1291 3.40618,-2.15127 0.87387,-1.31082 1.27708,-1.94653 1.65298,-3.45011 0.17885,-0.71542 -0.40283,-3.28186 0.0223,-3.91952 0.5175,-0.77624 2.39627,-1.35007 3.00934,-1.96313 1.28164,-1.28165 2.51888,-2.07019 4.88297,-1.13324 2.36409,0.93695 3.4986,5.28162 3.78823,7.68727 0.15953,1.32507 0.25592,1.57063 0.26891,4.75073 0.0114,2.79517 0.44818,6.01574 0.44818,8.87399 0,2.43485 0.47138,4.02962 0.22811,6.4675 -0.19959,2.00019 -0.73777,3.70088 -0.8556,5.90226 z"
         inkscape:label="C74.0" />
      <path
         id="C74.1"
         style="stroke-width:0.379483;stroke-dasharray:none;fill:none;stroke:#000000;stroke-opacity:1"
         d="m 576.10588,686.99039 c -2.82035,-4.93357 -2.85269,37.62871 -3.11389,39.95526 -0.40614,-3.64417 -3.13241,-15.31457 -3.97454,-19.25503 -0.74271,-3.71359 -0.86191,-29.02629 1.5679,-31.45612 2.99072,-2.99071 21.3989,19.62643 21.79307,20.9496 -4.93353,0.6383 -13.97097,-6.16763 -16.27254,-10.19371 z m -73.08624,15.78917 c 4.30627,0.59068 -1.50979,38.05776 -0.3456,35.78258 2.71801,-5.3118 6.08975,-20.36439 6.36753,-25.89837 0.23795,-4.74051 1.93365,-17.78146 -2.50414,-19.99781 -4.4122,-2.20357 -21.7217,19.44605 -21.45332,21.08821 4.22504,-0.80163 14.43068,-11.45536 17.93553,-10.97461 z"
         inkscape:label="C74.1"
         sodipodi:nodetypes="sccscssssscs" />
      <path
         style="display:inline;fill:none;stroke:#000000;stroke-width:0.37948308;stroke-dasharray:none"
         d="m 698.49118,632.34314 c 3.85157,0.27617 8.04057,1.50927 11.37392,2.62038 1.73352,0.57784 5.83136,3.25106 7.35045,4.62846 1.51908,1.3774 5.53563,4.75181 7.33613,7.47339 1.8005,2.72159 4.21709,7.14441 6.47031,11.36175 1.43756,2.69067 2.07327,5.19471 1.71405,8.16026"
         transform="matrix(-1,0,0,1,1172.2916,81.006633)"
         id="path50" />
      <path
         style="display:inline;fill:none;stroke:#000000;stroke-width:0.37948308;stroke-dasharray:none"
         d="m 724.35736,662.80357 c 1.43426,0.94432 2.77205,1.30034 4.66402,2.09067 1.95004,0.81459 4.02875,1.56487 5.4465,2.98261 2.86738,2.86738 3.70496,4.46941 5.29808,8.92473 1.59312,4.45533 2.35122,8.59347 2.84184,13.26008 0.49062,4.66661 0.64521,8.82885 0.91264,13.28361 0.13169,2.19351 0.29434,4.39076 -0.83601,6.90203 -1.13035,2.51127 -3.842,4.32829 -5.78248,6.26877 0.34126,2.16876 0.041,4.37112 -0.99148,6.28277 -0.82796,1.53296 -2.11887,2.64891 -2.89888,4.20893 -0.71657,1.43315 -0.71418,2.99676 -1.42646,4.42132"
         transform="matrix(-1,0,0,1,1172.2916,81.006633)"
         id="path48" />
      <path
         style="display:inline;fill:none;stroke:#000000;stroke-width:0.37948308;stroke-dasharray:none"
         d="m 737.11803,716.27831 c -1.77655,-0.52009 -4.50834,-1.18918 -6.85929,-0.40552"
         transform="matrix(-1,0,0,1,1172.2916,81.006633)"
         id="path47" />
      <path
         style="display:inline;fill:none;stroke:#000000;stroke-width:0.37948308;stroke-dasharray:none"
         d="m 742.44358,710.83041 c 1.10831,1.86994 1.20442,3.42636 1.46101,6.20437 0.25659,2.77801 -0.0177,9.93078 -1.57702,15.34255 -1.55934,5.41177 -2.25705,7.22711 -4.63363,11.50786 -2.37658,4.28075 -3.84818,5.38009 -9.00514,9.65667 -2.2028,1.82674 -4.64799,2.76166 -7.23004,3.66758 -4.26111,1.49501 -10.85819,1.46435 -15.42029,1.58181 -4.5621,0.11746 -9.4297,-2.19407 -13.05412,-4.57015 -3.62441,-2.37609 -7.17756,-6.01163 -8.47251,-9.17577 -1.7815,-3.3557 -3.21141,-6.70324 -4.14971,-10.37427 -1.74321,-6.10124 -0.2585,-14.19693 1.31947,-18.13322 1.57797,-3.93629 3.59754,-5.28256 5.4834,-6.22549 1.88586,-0.94293 3.13555,-1.27909 4.47916,-1.44731"
         transform="matrix(-1,0,0,1,1172.2916,81.006633)"
         id="path46" />
      <path
         style="display:inline;fill:none;stroke:#000000;stroke-width:0.37948308;stroke-dasharray:none"
         d="m 685.71422,683.35312 c -0.13196,2.64845 0.55123,5.05198 1.47659,7.42019 0.92537,2.36821 1.80928,5.53567 2.3785,7.32842 0.56922,1.79275 0.56156,3.4935 1.10171,7.85916 0.11874,0.95968 0.91147,3.3612 1.62153,4.07125 0.80902,0.80902 2.78333,2.46885 3.90409,3.1817 0.8872,0.56429 3.88122,1.85148 4.99525,2.64532 1.11403,0.79384 2.2006,1.91051 4.98708,3.83661 2.78649,1.9261 6.78845,2.8135 7.51053,3.17454"
         transform="matrix(-1,0,0,1,1172.2916,81.006633)"
         id="path45" />
      <path
         style="display:inline;fill:none;stroke:#000000;stroke-width:0.37948308;stroke-dasharray:none"
         d="m 701.68831,716.27402 c 2.20676,-0.11446 3.48047,-0.0927 5.63896,0.0113 2.1585,0.10398 4.23832,0.73224 6.09626,1.13362 1.85794,0.40138 4.02027,1.01481 5.58279,1.56104"
         transform="matrix(-1,0,0,1,1172.2916,81.006633)"
         id="path44" />
      <path
         style="display:inline;fill:none;stroke:#000000;stroke-width:0.37948308;stroke-dasharray:none"
         d="m 668.30203,667.23824 c 0.89986,3.5439 0.75686,7.21957 2.33421,10.37428"
         transform="matrix(-1,0,0,1,1172.2916,81.006633)"
         id="path43" />
      <path
         style="display:inline;fill:none;stroke:#000000;stroke-width:0.37948308;stroke-dasharray:none"
         d="m 671.93303,680.59512 c 3.77058,3.85066 11.37928,4.6099 14.34208,2.40809 2.9628,-2.20182 4.20103,-3.31186 5.90029,-4.41623 1.57116,-1.33399 2.0687,-1.43177 5.12255,-3.32495 3.05385,-1.89318 5.02526,-2.51351 7.18438,-4.39279"
         transform="matrix(-1,0,0,1,1172.2916,81.006633)"
         id="path42" />
      <path
         style="display:inline;fill:none;stroke:#000000;stroke-width:0.37948308;stroke-dasharray:none"
         d="m 715.2634,651.79469 c 2.03873,0.93891 5.23634,2.46449 9.25326,11.38864 -0.45249,1.48155 -1.02029,4.73818 -2.23038,5.5449 -2.0993,1.39954 -3.59072,1.42566 -4.98571,3.51815 -0.32138,0.48207 -0.99697,1.91583 -1.27122,2.46434"
         transform="matrix(-1,0,0,1,1172.2916,81.006633)"
         id="path41" />
      <path
         style="display:inline;fill:none;stroke:#000000;stroke-width:0.37948308;stroke-dasharray:none"
         d="m 688.51208,622.79881 c 1.22013,0.99559 2.92854,1.66878 4.00668,2.85908 0.91348,1.00852 1.46683,1.32832 3.30573,2.54287 0.80318,0.53048 2.97538,0.78224 2.96853,1.8021 -0.017,2.53638 -0.37025,2.89752 -1.46772,3.10951 -1.13045,0.21837 -1.24038,0.53858 -2.26367,1.31844 -1.69266,1.28999 -5.32195,3.4266 -7.14185,3.46072 -0.97809,0.0183 -3.14961,-0.71678 -2.54202,-0.43367 1.0855,0.50579 0.1047,3.43036 -1.22289,3.89345 -1.02923,0.35902 -0.90259,3.14625 -0.9176,4.26814 -0.015,1.12189 -0.75858,3.41001 -1.53941,3.80041 -0.78082,0.39039 -1.29002,0.39648 -1.00347,0.9039 0.1398,0.24756 0.29153,0.49315 0.38144,0.76287 0.25441,0.76325 -0.0168,1.82521 -0.47436,2.47753 -0.44863,0.63965 -1.0788,1.53226 -1.4328,2.22678 -0.45022,0.8833 -0.44668,2.05827 -1.05158,2.66318 -0.43332,0.43331 -2.07127,0.14964 -2.76273,1.53256 -0.5973,1.19459 -1.34954,3.3803 -3.29709,3.45417 -1.94756,0.0739 -2.14009,4.56298 -4.58581,3.41159 -1.47057,-0.69231 -2.15246,-1.34819 -2.18932,-2.65409 -0.0293,-1.03855 -1.40418,-7.56409 -1.11642,-8.53455 0.22765,-0.76772 0.69182,-1.51079 1.01715,-2.16144"
         transform="matrix(-1,0,0,1,1172.2916,81.006633)"
         id="path40" />
      <path
         style="display:inline;fill:none;stroke:#000000;stroke-width:0.37948308;stroke-dasharray:none"
         d="m 663.53,647.90803 c -0.61897,1.0637 -1.31665,2.53479 -1.47264,3.48699 -0.25911,1.58169 1.59248,3.7456 2.10836,4.77736"
         transform="matrix(-1,0,0,1,1172.2916,81.006633)"
         id="path39" />
      <path
         style="display:inline;fill:none;stroke:#000000;stroke-width:0.37948308;stroke-dasharray:none"
         d="m 661.24141,642.69514 c -0.83582,3.67523 -0.45851,4.38189 1.1443,7.37434"
         transform="matrix(-1,0,0,1,1172.2916,81.006633)"
         id="path38" />
      <path
         style="display:inline;fill:none;stroke:#000000;stroke-width:0.37948308;stroke-dasharray:none"
         d="m 688.70444,624.25932 c -0.31924,-1.43164 0.0343,-3.67751 -1.06843,-4.78018 -0.87524,-0.87525 -1.66015,-1.25415 -2.61874,-2.21273 -1.0683,-1.06831 -1.6939,-2.32963 -2.67001,-3.30574 -1.04858,-1.04858 -3.95968,-1.03475 -4.9586,-2.16144 -1.15959,-1.3079 0.31739,-4.50145 -1.01715,-6.35718 -1.07392,-1.49333 -2.1977,-1.74347 -3.07893,-2.7422 -1.66354,-1.88534 -3.5146,-4.03823 -4.97622,-4.13053 -1.46163,-0.0923 -1.75931,1.16362 -3.2918,0.88672 -1.2969,-0.26696 -2.06605,0.60905 -2.54248,1.63564 -0.27532,0.55064 -1.43074,0.71972 -1.29892,1.80053 0.0334,1.69573 -0.83525,1.60617 -1.73859,5.00331 -0.90333,3.39714 -0.2468,6.17281 -0.22352,9.54971 0.0221,3.21047 -0.8416,4.88063 -0.22352,7.60075 0.2499,1.09979 -0.22591,2.12344 -0.17185,3.53622 0.0541,1.41278 -0.14514,2.84557 0.12022,4.74847 0.26537,1.9029 0.35713,3.58331 0.30213,5.79905 -0.0332,1.33584 0.53896,3.50886 1.70596,4.83686"
         transform="matrix(-1,0,0,1,1172.2916,81.006633)"
         id="path37" />
      <path
         style="display:inline;fill:none;stroke:#000000;stroke-width:0.37948308;stroke-dasharray:none"
         d="m 638.89705,645.84753 c -0.23635,7.95223 -0.71272,18.36969 0.22613,22.09005 0.93885,3.72036 4.16609,4.64725 4.93229,5.05722 3.71713,1.98893 4.90506,2.56458 11.94252,6.14017 1.83553,0.9326 6.83847,3.76169 9.08781,2.63702 0.83519,-0.41759 2.65506,-1.57353 3.4192,-2.19938 2.77286,-2.27103 2.92169,-3.3388 4.68919,-6.2082 0.6944,-1.1273 1.37449,-1.67355 2.97478,-2.01811 1.60028,-0.34455 0.93877,-1.14247 0.93877,-2.72541"
         transform="matrix(-1,0,0,1,1172.2916,81.006633)"
         id="path36" />
      <path
         style="display:inline;fill:none;stroke:#000000;stroke-width:0.37948308;stroke-dasharray:none"
         d="m 681.10741,675.22367 c -1.50728,0.0155 -2.86737,-1.46279 -4.53484,-0.90696 -2.53982,0.8466 -3.97846,8.52143 -8.88829,10.15804 0.60612,0.20694 2.09227,0.28466 3.00541,0.3743 0.86523,0.0849 2.1513,0.13433 4.0044,0.50495 1.8531,0.37062 3.68973,0.38098 6.18575,0.43445 2.49602,0.0535 3.32768,0.23172 4.98269,0.49798"
         transform="matrix(-1,0,0,1,1172.2916,81.006633)"
         id="path35" />
      <path
         style="display:inline;fill:none;stroke:#000000;stroke-width:0.37948308;stroke-dasharray:none"
         d="m 686.67621,689.25525 c -0.53472,-0.0917 -1.5702,-0.23634 -2.76833,-0.48068 -1.19813,-0.24434 -1.81822,-0.2975 -3.52762,-0.32572 -0.87734,0.016 -2.34141,0.0509 -2.34141,0.3342 0,0.46201 1.27795,0.76194 2.90564,1.18627 1.6277,0.42433 3.2797,0.75297 6.46911,1.26203"
         transform="matrix(-1,0,0,1,1172.2916,81.006633)"
         id="path34" />
      <path
         style="display:inline;fill:none;stroke:#000000;stroke-width:0.37948308;stroke-dasharray:none"
         d="m 688.44435,694.3079 c -0.77705,0.0517 -2.25677,-0.32855 -3.16361,-0.66463 -1.60765,-0.62804 -3.28139,-1.08109 -4.86972,-1.2912 -1.58833,-0.21011 -3.31915,-0.5358 -4.75522,-0.5358"
         transform="matrix(-1,0,0,1,1172.2916,81.006633)"
         id="path33" />
      <path
         style="display:inline;fill:none;stroke:#000000;stroke-width:0.37948308;stroke-dasharray:none"
         d="m 678.63464,692.15391 c 0.38647,1.07139 0.81512,1.34106 2.24094,2.06344 1.42583,0.72238 2.10816,0.87635 3.31989,1.12248 1.89053,0.38402 2.63962,0.29393 4.65438,0.29393"
         transform="matrix(-1,0,0,1,1172.2916,81.006633)"
         id="path32" />
      <path
         style="display:inline;fill:none;stroke:#000000;stroke-width:0.37948308;stroke-dasharray:none"
         d="m 689.58657,698.41582 c -1.53488,0.15212 -3.07924,0.16749 -5.18292,-0.3812 -2.10369,-0.5487 -3.07001,-0.95741 -4.6368,-1.65381 -1.56679,-0.6964 -2.77186,-1.10524 -4.64685,-1.08193"
         transform="matrix(-1,0,0,1,1172.2916,81.006633)"
         id="path31" />
      <path
         style="display:inline;fill:none;stroke:#000000;stroke-width:0.37948308;stroke-dasharray:none"
         d="m 677.2632,695.43283 c 1.25007,2.35915 2.4322,3.09455 4.10109,4.09589 3.31824,1.99094 5.12059,2.44179 9.02598,2.80252"
         transform="matrix(-1,0,0,1,1172.2916,81.006633)"
         id="path30" />
      <path
         style="display:inline;fill:none;stroke:#000000;stroke-width:0.37948308;stroke-dasharray:none"
         d="m 690.3233,704.94326 c -1.66446,-0.0689 -3.979,-0.82405 -6.09472,-1.6074 -3.15085,-1.16661 -6.64203,-2.94161 -9.37648,-5.55891 -2.73445,-2.6173 -4.66245,-3.76628 -6.66021,-4.67384 -2.89024,-1.3321 -4.33701,-1.88611 -7.98315,-3.11101 -3.86757,-1.29929 -5.5043,-1.79013 -8.86332,-3.33742 -3.35903,-1.54729 -5.10158,-2.46918 -7.69079,-3.76043 -1.50409,-0.7501 -3.23284,-1.44637 -4.01849,-0.72244 -1.23088,1.13418 -0.90676,3.05606 -0.65399,5.25112 0.27306,4.26438 0.13016,8.60403 0.13016,12.81917 0.009,4.94395 -0.35275,11.26157 -0.51846,14.60284 -0.16571,3.34126 -0.19722,5.1541 -0.35911,7.42056 -0.16189,2.26645 -0.22092,5.29415 -0.04,8.17921"
         transform="matrix(-1,0,0,1,1172.2916,81.006633)"
         id="path29" />
      <path
         style="display:inline;fill:none;stroke:#000000;stroke-width:0.37948308;stroke-dasharray:none"
         d="m 615.51299,648.03361 c 0,0 0.0767,5.74155 0.18025,8.748 0.10359,3.00644 0.56296,9.31868 -1.6012,12.10032 -3.36898,3.36898 -7.25966,3.90384 -12.31006,4.91392 -1.20205,0.24041 -5.84631,1.00135 -6.60601,-0.42238 -1.15819,-2.17053 -1.77823,-3.42037 -2.43881,-4.61564 -0.88575,-1.6027 -1.31493,-2.6155 -1.95487,-3.80145 -0.63995,-1.18595 -1.11684,-1.76798 -0.70997,-3.4685"
         transform="matrix(-1,0,0,1,1172.2916,81.006633)"
         id="path28" />
      <path
         style="display:inline;fill:none;stroke:#000000;stroke-width:0.37948308;stroke-dasharray:none"
         d="m 675.88432,698.60766 c -2.26872,3.97658 -2.70262,5.84894 -3.51907,12.89408 -0.81644,7.04514 -0.23331,12.44893 0.59696,17.23297 0.83028,4.78404 0.46489,8.76024 0.26013,12.98279 -0.20476,4.22255 -0.15634,6.89274 -0.31259,10.19785 -0.15624,3.30512 0.10921,6.41381 0.10921,6.98407"
         transform="matrix(-1,0,0,1,1172.2916,81.006633)"
         id="path27" />
      <path
         style="display:inline;fill:none;stroke:#000000;stroke-width:0.37948308;stroke-dasharray:none"
         d="m 679.89337,732.54894 c -1.1664,8.23578 -0.64659,16.54963 -0.64659,25.06652"
         transform="matrix(-1,0,0,1,1172.2916,81.006633)"
         id="path25" />
      <path
         style="display:inline;fill:none;stroke:#000000;stroke-width:0.37948308;stroke-dasharray:none"
         d="m 589.83635,663.20323 c -0.97444,6.5e-4 -1.80323,0.0556 -2.60479,0.46065"
         transform="matrix(-1,0,0,1,1172.2916,81.006633)"
         id="path24" />
      <path
         style="display:inline;fill:none;stroke:#000000;stroke-width:0.37948308;stroke-dasharray:none"
         d="m 588.67161,663.89047 c 0.53648,2.34119 -0.39999,1.99802 -1.73783,2.63655"
         transform="matrix(-1,0,0,1,1172.2916,81.006633)"
         id="path23" />
      <path
         style="display:inline;fill:none;stroke:#000000;stroke-width:0.37948308;stroke-dasharray:none"
         d="m 588.6599,665.48845 c 1.66106,3.12082 3.25553,6.29898 4.9886,8.89861 -2.13046,0.22208 -2.85341,-0.0616 -4.43925,-0.32872 -1.06162,-0.17881 -1.61973,-0.64302 -3.27198,-1.07027 -1.24495,-0.32193 -1.92922,-0.30516 -3.94474,0.15292"
         transform="matrix(-1,0,0,1,1172.2916,81.006633)"
         id="path22" />
      <path
         style="display:inline;fill:none;stroke:#000000;stroke-width:0.37948308;stroke-dasharray:none"
         d="m 580.12719,675.6789 c 0.49699,0.2485 1.15982,0.48131 1.71245,0.58101 1.12888,0.20366 1.58105,0.23065 4.15878,0.79509 0.98657,0.21608 2.02576,-0.0388 3.13815,0.0928 -0.16329,0.0753 -1.15058,0.54305 -2.07312,0.63442 -1.31791,0.13052 -2.23147,0.16167 -4.52049,0.19024 -1.05241,0.0431 -1.64694,0.38998 -2.69098,1.22317"
         transform="matrix(-1,0,0,1,1172.2916,81.006633)"
         id="path21" />
      <path
         style="display:inline;fill:none;stroke:#000000;stroke-width:0.37948308;stroke-dasharray:none"
         d="m 579.97429,681.33622 c 1.0037,-0.36015 1.7907,-0.43634 2.68014,-0.59432 0.88945,-0.15798 3.42692,-0.70658 4.16964,-0.78174 0.74272,-0.0752 1.02068,-0.0522 1.40664,-0.0918 -0.75054,0.68937 -1.33043,1.12778 -1.74302,1.43723 -0.42009,0.28398 -1.75958,1.7098 -2.09296,2.08115 -0.78682,0.78682 -1.54102,1.62229 -2.49394,1.77185 -0.95292,0.14956 -1.56185,0.28949 -2.26287,0.7339"
         transform="matrix(-1,0,0,1,1172.2916,81.006633)"
         id="path20" />
      <path
         style="display:inline;fill:none;stroke:#000000;stroke-width:0.37948308;stroke-dasharray:none"
         d="m 578.63937,689.36311 c 0.97536,-0.35399 1.69443,-0.46577 3.29862,-1.11784 1.60419,-0.65207 2.62726,-1.94215 3.62014,-2.79319 1.70116,-1.55108 2.06445,-1.92923 4.14039,-2.92332 -0.3546,0.96143 -0.56216,1.4097 -0.65244,1.69319 -0.52669,1.65383 -0.82879,2.3085 -1.57509,4.54737 -0.62281,1.86844 -0.65666,2.93249 -1.7425,4.56125 -1.42943,2.14416 -2.15604,2.62388 -4.04875,3.63876"
         transform="matrix(-1,0,0,1,1172.2916,81.006633)"
         id="path19" />
      <path
         style="display:inline;fill:none;stroke:#000000;stroke-width:0.37948308;stroke-dasharray:none"
         d="m 583.57091,698.96576 c 2.19742,-2.31546 3.30359,-3.31178 3.98467,-4.44397 1.10412,-1.83543 1.63625,-2.88585 2.0617,-4.44255 0.70395,-2.57575 0.37369,-4.95901 2.95213,-6.19414 2.52524,-1.20965 4.82319,-1.25497 8.20579,-2.23856 2.86861,-0.83413 4.60684,-1.41487 6.5312,-2.07446 1.92435,-0.6596 5.12515,-1.77418 6.4863,0.34099 1.36116,2.11516 0.53639,10.51829 0.19871,16.02723 -0.33768,5.50894 0.36886,18.5548 0.42178,24.79547"
         transform="matrix(-1,0,0,1,1172.2916,81.006633)"
         id="path18" />
      <path
         style="display:inline;fill:none;stroke:#000000;stroke-width:0.37948308;stroke-dasharray:none"
         d="m 590.80154,685.47201 c 1.88207,2.37611 2.58096,4.84886 3.74756,12.71525 0.42637,3.51836 -0.27646,7.17459 -0.23333,11.06933 0.0431,3.89475 -0.43642,5.31304 -0.5903,12.35917 -0.15388,7.04613 -0.24949,14.16757 -0.44749,18.41338 -0.198,4.24581 -0.8175,6.94917 -0.60787,9.50376"
         transform="matrix(-1,0,0,1,1172.2916,81.006633)"
         id="path17" />
      <path
         style="display:inline;fill:none;stroke:#000000;stroke-width:0.37948308;stroke-dasharray:none"
         d="m 586.73856,722.15305 c -0.0399,4.24394 0.12155,7.09123 -0.0954,11.88885 -0.14555,3.21907 0.0557,6.18131 -0.54245,12.26862"
         transform="matrix(-1,0,0,1,1172.2916,81.006633)"
         id="path16" />
      <path
         style="display:inline;fill:none;stroke:#000000;stroke-width:0.37948308;stroke-dasharray:none"
         d="m 578.69222,694.61982 c 1.62161,1.24281 3.66613,3.01321 4.72616,4.27683 1.79377,2.34101 2.28219,5.29076 2.73412,8.07271 -0.009,3.10892 0.85212,5.97907 0.97442,9.09453 0.15018,3.82566 0.008,6.40024 -1.93142,10.60158 -1.93928,4.20134 -4.24997,8.0667 -7.92099,10.18592 -5.65177,3.26267 -13.10349,3.38859 -18.37515,2.67306 -5.27165,-0.71554 -8.1283,-1.63678 -15.18799,-4.73016 -11.32219,-5.01104 -12.30344,-12.19536 -13.84707,-15.69889 -1.54364,-3.50353 -3.4093,-11.41956 -3.86574,-15.85281 -0.45644,-4.43324 -0.82524,-11.20328 1.79738,-15.00363"
         transform="matrix(-1,0,0,1,1172.2916,81.006633)"
         id="path15" />
      <path
         style="display:inline;fill:none;stroke:#000000;stroke-width:0.37948308;stroke-dasharray:none"
         d="m 536.38341,645.00856 c -1.36602,0.62932 -3.21014,2.45084 -4.94472,5.81991 -1.73457,3.36906 -4.16903,11.32532 -5.45769,17.59947 -1.28866,6.27415 -0.64161,11.83612 0.20204,17.03578 0.36119,2.22606 2.32304,3.30675 4.0426,5.08772 3.07367,3.18343 6.62051,6.5751 9.78621,12.43189 0.99715,1.8448 2.21718,3.27478 3.13086,5.10214"
         transform="matrix(-1,0,0,1,1172.2916,81.006633)"
         id="path14" />
      <path
         style="display:inline;fill:none;stroke:#000000;stroke-width:0.37948308;stroke-dasharray:none"
         d="m 557.06975,653.45185 c -3.41021,-1.76468 -6.58134,-3.6595 -10.00532,-5.42662 -2.89263,-1.49289 -5.88811,-1.5757 -10.34449,-2.71331 -0.78324,-0.19994 0.59416,-3.69931 1.18707,-5.25703 1.32808,-3.20014 3.1597,-4.83465 5.83549,-8.19489 2.67578,-3.36025 6.03071,-6.6451 10.75337,-10.05022 1.6645,-1.20014 4.22203,-2.71664 5.88975,-3.34736 1.66772,-0.63072 7.44049,-2.28795 8.03151,-2.28795"
         transform="matrix(-1,0,0,1,1172.2916,81.006633)"
         id="path13" />
      <path
         style="display:inline;fill:none;stroke:#000000;stroke-width:0.37948308;stroke-dasharray:none"
         d="m 593.03347,669.25684 c 1.3891,-1.38911 3.0738,-3.06215 4.46338,-5.52245 1.38959,-2.4603 2.0909,-3.78175 3.11238,-6.84619 0.40458,-1.21373 0.71964,-3.82431 -0.0201,-4.60652"
         transform="matrix(-1,0,0,1,1172.2916,81.006633)"
         id="path12" />
      <path
         style="display:inline;fill:none;stroke:#000000;stroke-width:0.37948308;stroke-dasharray:none"
         d="m 591.19145,670.54096 c -1.99054,0.54077 -4.30463,1.43233 -6.01579,2.2879"
         transform="matrix(-1,0,0,1,1172.2916,81.006633)"
         id="path11" />
      <path
         style="display:inline;fill:none;stroke:#000000;stroke-width:0.37948308;stroke-dasharray:none"
         d="m 580.08483,672.39206 c -1.22622,0.0951 -2.27518,-0.5215 -3.11764,-1.36396 -1.60765,-1.60766 -5.10752,-4.94071 -7.11213,-5.94302 -1.53081,-0.76541 -3.66669,-0.94103 -5.35846,-1.36397 -1.85838,-0.4646 -3.85543,-1.58672 -5.5533,-2.43566"
         transform="matrix(-1,0,0,1,1172.2916,81.006633)"
         id="path10" />
      <path
         style="display:inline;fill:none;stroke:#000000;stroke-width:0.37948308;stroke-dasharray:none"
         d="m 569.95248,665.15202 c -1.8057,-2.00646 -2.38761,-3.47028 -3.55832,-6.07512 -0.46291,-1.02999 -0.91982,-1.83586 -1.41043,-3.34476"
         transform="matrix(-1,0,0,1,1172.2916,81.006633)"
         id="path9" />
      <path
         style="display:inline;fill:none;stroke:#000000;stroke-width:0.37948308;stroke-dasharray:none"
         d="m 581.64366,676.1917 c 0.0511,0.61832 -0.11117,1.79923 -0.21993,2.01687"
         transform="matrix(-1,0,0,1,1172.2916,81.006633)"
         id="path8" />
      <path
         style="display:inline;fill:none;stroke:#000000;stroke-width:0.37948308;stroke-dasharray:none"
         d="m 581.0476,681.07376 c 0.16364,1.26948 -0.49313,3.06389 -0.25378,4.23943"
         transform="matrix(-1,0,0,1,1172.2916,81.006633)"
         id="path7" />
      <path
         style="display:inline;fill:none;stroke:#000000;stroke-width:0.37948308;stroke-dasharray:none"
         d="m 580.53,688.84374 c -0.0942,1.28513 0.26107,2.74174 -0.0555,4.00787 -0.58542,2.3417 -6.41753,2.69862 -8.30637,3.11458 -1.26178,0.27787 -4.06371,1.05579 -6.79473,1.5619 -3.27053,2.20569 -7.16616,3.91506 -10.61948,5.06617"
         transform="matrix(-1,0,0,1,1172.2916,81.006633)"
         id="path6" />
      <path
         style="display:inline;fill:none;stroke:#000000;stroke-width:0.37948308;stroke-dasharray:none"
         d="m 565.4124,697.55313 c -3.24456,-0.16233 -6.34709,0.27411 -9.48932,1.04664"
         transform="matrix(-1,0,0,1,1172.2916,81.006633)"
         id="path5" />
      <path
         style="display:inline;fill:none;stroke:#000000;stroke-width:0.37948308;stroke-dasharray:none"
         d="m 578.65229,608.78246 c -1.22013,0.99559 -2.92854,1.66878 -4.00668,2.85908 -0.91348,1.00852 -1.46683,1.32832 -3.30573,2.54287 -0.80318,0.53048 -2.97538,0.78224 -2.96853,1.8021 0.017,2.53638 0.37025,2.89752 1.46772,3.10951 1.13045,0.21837 1.24038,0.53858 2.26367,1.31844 1.69266,1.28999 5.32195,3.4266 7.14185,3.46072 0.97809,0.0183 3.14961,-0.71678 2.54202,-0.43367 -1.0855,0.50579 -0.1047,3.43036 1.22289,3.89345 1.02923,0.35902 0.90259,3.14625 0.9176,4.26814 0.015,1.12189 0.75858,3.41001 1.53941,3.80041 0.78082,0.39039 1.29002,0.39648 1.00347,0.9039 -0.1398,0.24756 -0.29153,0.49315 -0.38144,0.76287 -0.25441,0.76325 0.0168,1.82521 0.47436,2.47753 0.44863,0.63965 1.0788,1.53226 1.4328,2.22678 0.45022,0.8833 0.44668,2.05827 1.05158,2.66318 0.43332,0.43331 2.07127,0.14964 2.76273,1.53256 0.5973,1.19459 1.34954,3.3803 3.29709,3.45417 1.94756,0.0739 2.14009,4.56298 4.58581,3.41159 1.47057,-0.69231 2.15246,-1.34819 2.18932,-2.65409 0.0293,-1.03855 1.40418,-7.56409 1.11642,-8.53455 -0.22765,-0.76772 -0.69182,-1.51079 -1.01715,-2.16144"
         transform="matrix(-1,0,0,1,1172.2916,81.006633)"
         id="path4" />
      <path
         style="display:inline;fill:none;stroke:#000000;stroke-width:0.37948308;stroke-dasharray:none"
         d="m 603.63437,633.89168 c 0.61897,1.0637 1.31665,2.53479 1.47264,3.48699 0.25911,1.58169 -1.59248,3.7456 -2.10836,4.77736"
         transform="matrix(-1,0,0,1,1172.2916,81.006633)"
         id="path3" />
      <path
         style="display:inline;fill:none;stroke:#000000;stroke-width:0.37948308;stroke-dasharray:none"
         d="m 605.92296,628.67879 c 0.83582,3.67523 0.45851,4.38189 -1.1443,7.37434"
         transform="matrix(-1,0,0,1,1172.2916,81.006633)"
         id="path2" />
      <path
         style="display:inline;fill:none;stroke:#000000;stroke-width:0.37948308;stroke-dasharray:none"
         d="m 578.45993,610.24297 c 0.31924,-1.43164 -0.0343,-3.67751 1.06843,-4.78018 0.87524,-0.87525 1.66015,-1.25415 2.61874,-2.21273 1.0683,-1.06831 1.6939,-2.32963 2.67001,-3.30574 1.04858,-1.04858 3.95968,-1.03475 4.9586,-2.16144 1.15959,-1.3079 -0.31739,-4.50145 1.01715,-6.35718 1.07392,-1.49333 2.1977,-1.74347 3.07893,-2.7422 1.66354,-1.88534 3.5146,-4.03823 4.97622,-4.13053 1.46163,-0.0923 1.75931,1.16362 3.2918,0.88672 1.2969,-0.26696 2.06605,0.60905 2.54248,1.63564 0.27532,0.55064 1.43074,0.71972 1.29892,1.80053 -0.0334,1.69573 0.83525,1.60617 1.73859,5.00331 0.90333,3.39714 0.2468,6.17281 0.22352,9.54971 -0.0221,3.21047 0.8416,4.88063 0.22352,7.60075 -0.2499,1.09979 0.22591,2.12344 0.17185,3.53622 -0.0541,1.41278 0.14514,2.84557 -0.12022,4.74847 -0.26537,1.9029 -0.35713,3.58331 -0.30213,5.79905 0.0332,1.33584 -0.53896,3.50886 -1.70596,4.83686"
         transform="matrix(-1,0,0,1,1172.2916,81.006633)"
         id="path1" />
    </g>
  </g>
</svg>
