<?xml version="1.0" encoding="UTF-8" standalone="no"?>
<!-- Created with Inkscape (http://www.inkscape.org/) -->

<svg
   xmlns:dc="http://purl.org/dc/elements/1.1/"
   xmlns:cc="http://creativecommons.org/ns#"
   xmlns:rdf="http://www.w3.org/1999/02/22-rdf-syntax-ns#"
   xmlns:svg="http://www.w3.org/2000/svg"
   xmlns="http://www.w3.org/2000/svg"
   xmlns:sodipodi="http://sodipodi.sourceforge.net/DTD/sodipodi-0.dtd"
   xmlns:inkscape="http://www.inkscape.org/namespaces/inkscape"
   width="250mm"
   height="250mm"
   viewBox="0 0 885.82675 885.82675"
   id="svg2"
   version="1.1"
   inkscape:version="0.92.3 (2405546, 2018-03-11)"
   sodipodi:docname="Level3_C60.svg">
  <defs
     id="defs4" />
  <sodipodi:namedview
     id="base"
     pagecolor="#ffffff"
     bordercolor="#666666"
     borderopacity="1.0"
     inkscape:pageopacity="0.0"
     inkscape:pageshadow="2"
     inkscape:zoom="0.49497475"
     inkscape:cx="111.03431"
     inkscape:cy="522.59352"
     inkscape:document-units="px"
     inkscape:current-layer="layer1"
     showgrid="false"
     inkscape:window-width="1680"
     inkscape:window-height="987"
     inkscape:window-x="-8"
     inkscape:window-y="-8"
     inkscape:window-maximized="1" />
  <metadata
     id="metadata7">
    <rdf:RDF>
      <cc:Work
         rdf:about="">
        <dc:format>image/svg+xml</dc:format>
        <dc:type
           rdf:resource="http://purl.org/dc/dcmitype/StillImage" />
        <dc:title></dc:title>
      </cc:Work>
    </rdf:RDF>
  </metadata>
  <g
     inkscape:label="Laag 1"
     inkscape:groupmode="layer"
     id="layer1"
     transform="translate(0,-166.53543)">
    <path
       id="C60.0"
       style="fill:none;fill-rule:evenodd;stroke:#000000;stroke-width:1.25;stroke-linecap:butt;stroke-linejoin:miter;stroke-miterlimit:4;stroke-dasharray:none;stroke-opacity:1"
       d="m 285.26144,824.28398 2.482,14.49206 -0.82733,15.34453 -4.964,15.34454 v 5.11485 l 4.964,3.40989 4.13665,-5.96732 4.13666,-18.75442 0.82733,-22.16434 z m -87.69714,-45.18113 10.75531,12.78711 -2.48199,17.04948 -1.65467,16.19701 3.30933,17.90196 7.44598,17.90196 11.58265,20.45938 -3.30933,3.4099 -10.75531,-5.96732 -15.7193,-24.72176 -3.30932,-20.45938 0.82733,-27.27916 z"
       inkscape:label="#path4149"
       inkscape:connector-curvature="0" />
    <path
       id="C60.1"
       style="fill:none;fill-rule:evenodd;stroke:#000000;stroke-width:1.25;stroke-linecap:butt;stroke-linejoin:miter;stroke-miterlimit:4;stroke-dasharray:none;stroke-opacity:1"
       d="m 264.99182,814.05429 0.82734,10.22969 1.24098,9.80345 3.30933,9.80345 -0.82733,10.22969 -0.82733,12.36088 -3.30932,9.80345 -4.55033,7.24603 -0.41367,2.98366 h 5.37767 l 6.61865,-2.98366 4.55032,-2.98365 2.48199,-4.26238 2.89566,-7.24603 4.55033,-15.13141 0.6205,-16.62326 -2.482,-13.42646 -1.241,-4.68861 -2.06832,-5.54108 -2.482,-2.34431 -3.72299,-3.83612 -2.482,-0.63936 h -2.89565 l -1.8615,1.27871 -2.46537,3.19677 z m -56.67221,-21.31186 4.13666,-1.70495 6.61865,3.83614 3.30933,5.54108 5.37765,5.96732 h 6.61865 4.13666 l 1.91777,-0.14626 1.89699,1.95463 -0.91909,4.15895 -1.65467,13.63959 -1.241,14.06582 2.06832,13.21335 3.30933,14.49206 3.723,7.67227 3.30933,5.54108 -0.41367,2.55742 -0.82734,0.42625 h -8.2733 l -5.37766,-2.13118 -4.96399,-1.27872 -4.55032,-2.98366 -3.723,-2.55743 -8.89381,-15.34453 -5.79132,-15.34454 -4.3435,-19.39379 z"
       inkscape:label="#path4154"
       inkscape:connector-curvature="0"
       sodipodi:nodetypes="ccccccccccccccccccccccccccccccccccccccccccccccccccccc" />
    <path
       style="fill:none;fill-rule:evenodd;stroke:#000000;stroke-width:1.25;stroke-linecap:butt;stroke-linejoin:miter;stroke-miterlimit:4;stroke-dasharray:none;stroke-opacity:1"
       d="m 208.31961,769.72563 8.27331,11.08216 9.92799,9.37722 10.7553,3.4099 4.13667,-9.37722 -0.82735,-29.8366 3.30933,-53.70587 2.482,-44.32866 10.75531,-36.65639 15.7193,-23.86928 18.20129,-21.31186 23.16529,-2.55742 23.16528,2.55742 28.9566,6.81979 25.64728,11.08218 20.68328,5.11484 21.51063,3.4099 8.27331,-5.11485 v -7.67228 l -9.10064,-8.52473 -37.22993,-19.6069 -49.63988,-23.86928 -33.09326,-4.26237 -25.64728,6.81979 -27.30195,13.63959 -22.33794,28.13165 -14.89197,34.95143 -9.92798,34.09898 -8.27332,35.80391 2.482,45.18114 z"
       id="C60.2"
       inkscape:connector-curvature="0"
       inkscape:label="#path4157" />
    <path
       style="fill:none;fill-rule:evenodd;stroke:#000000;stroke-width:1.25;stroke-linecap:butt;stroke-linejoin:miter;stroke-miterlimit:4;stroke-dasharray:none;stroke-opacity:1"
       d="m 196.08624,778.78775 1.17002,-52.44275 1.17002,-58.47067 7.60516,-36.77019 13.45527,-34.35906 12.28525,-30.13952 18.13536,-28.33113 5.85011,-21.09767 -2.34005,-35.56462 -8.19015,-22.90604 -16.96535,-45.20927 -12.49628,-42.72914 -14.89197,-42.6237 -6.61865,-36.6564 -5.79133,-42.62371"
       id="path4159"
       inkscape:connector-curvature="0" />
    <path
       style="fill:none;fill-rule:evenodd;stroke:#000000;stroke-width:1.25;stroke-linecap:butt;stroke-linejoin:miter;stroke-miterlimit:4;stroke-dasharray:none;stroke-opacity:1"
       d="m 296.12325,833.64167 -2.34006,-19.28929 -7.60514,-19.28929 -2.92507,-36.16742 1.17003,-47.01765 4.6801,-39.18136 9.36018,-15.06976 12.28524,-5.42511 h 14.04029 l 7.60515,7.23348 6.43513,16.87813 -2.92506,30.13952 -2.92506,28.33114 -8.77518,31.94788 -11.70023,38.57858 -3.51007,34.96184 1.17002,44.60648 7.60515,25.91999 16.96535,24.7144 14.62529,16.27534 21.06042,12.6586 27.49555,5.4251 19.89041,-6.0279 21.64543,-25.3172 16.96534,-33.15346 1.17002,-34.35904 -1.89474,-46.73069 -4.13666,-56.2633 v -32.39402 l 13.2373,-18.75443 26.4746,1.70495 23.1653,9.37721 25.64728,5.96732 36.40258,0.85248 28.9566,0.85247 17.70606,-12.89841 9.36019,-12.05581 4.68009,-18.0837 v -24.71441 l -11.11522,-15.67254 -9.9452,-9.64465 -7.60516,-18.6865 -2.34004,-25.31719 7.60516,-21.70045 16.96534,-30.13951 13.45527,-21.09766 14.04028,-12.05581 11.70023,-7.23348 7.02014,1.80837 0.585,-13.86418 v -12.05581 l 8.77518,-10.85022 13.45527,-13.26139 9.36019,-3.61675 -2.92506,-13.26138 -2.34004,-10.24743 v -9.64465 l 2.92506,-12.65859 2.92505,-5.42511 5.85013,-15.06976 4.09508,-8.43907 3.24808,-2.15308"
       id="path4161"
       inkscape:connector-curvature="0" />
    <path
       style="fill:none;fill-rule:evenodd;stroke:#000000;stroke-width:1.25;stroke-linecap:butt;stroke-linejoin:miter;stroke-miterlimit:4;stroke-dasharray:none;stroke-opacity:1"
       d="m 229.0029,879.6948 2.482,40.06629 3.30932,46.03361 3.30933,20.45934"
       id="path4163"
       inkscape:connector-curvature="0" />
    <path
       style="fill:none;fill-rule:evenodd;stroke:#000000;stroke-width:1.25;stroke-linecap:butt;stroke-linejoin:miter;stroke-miterlimit:4;stroke-dasharray:none;stroke-opacity:1"
       d="m 251.07734,883.07048 2.92507,-2.41117 -2.34006,-17.48092 -4.68009,-25.91998 2.34005,-14.46697 1.75503,-17.48092 4.09508,-6.0279 -2.34005,-64.49856 5.26511,-51.83996 6.43513,-28.33115 8.19017,-25.91999 13.45527,-20.49486 14.04028,-10.24744 20.47541,-3.61674 24.57049,3.01395 44.1376,20.02281 m 12.53215,1.13956 51.55743,18.62179 34.51568,-3.01396 10.53021,-4.82232 11.11522,-12.05581 9.36019,-22.90602 0.58502,-39.18137 -1.17003,-68.1153 -14.62529,-3.61674 -15.21031,-6.02791 -24.57049,-24.71441 -25.74051,-27.12555 -13.45528,-20.39716 m -5.85011,-11.82736 6.43512,-13.58755 25.74052,-16.87813 29.8356,-4.82232 23.98548,4.21954 47.38595,9.04184 18.72037,12.05582 19.30539,19.89208 8.19017,17.48091 m 0.58501,33.75625 -12.28524,6.6307 -29.8356,16.27534 -22.23045,4.21954 -5.85012,0.60278 4.6801,38.57858 -0.15988,45.66617 m -1.75504,10.55574 0.15988,29.37432 -8.77517,15.67254 -5.26511,12.6586 -8.77517,9.64465 -4.6801,1.20557"
       id="path4167"
       inkscape:connector-curvature="0"
       sodipodi:nodetypes="ccccccccccccccccccccccccccccccccccccccccccccccccccc" />
    <path
       style="fill:none;fill-rule:evenodd;stroke:#000000;stroke-width:1.25;stroke-linecap:butt;stroke-linejoin:miter;stroke-miterlimit:4;stroke-dasharray:none;stroke-opacity:1"
       d="m 259.26751,884.27606 1.75503,-9.04187 2.92506,-16.87812 v -35.56463 l -1.17003,-16.87813 1.75504,-58.47065 1.75504,-59.67624 8.77517,-31.34509 9.36019,-29.53673 21.64543,-16.27535 28.08057,0.6028 58.33421,26.88193 m 13.62223,4.75631 42.70586,11.76266 35.68571,-3.01395 21.06042,-6.63069"
       id="path4169"
       inkscape:connector-curvature="0"
       sodipodi:nodetypes="cccccccccccccccc" />
    <path
       style="fill:none;fill-rule:evenodd;stroke:#000000;stroke-width:1.25;stroke-linecap:butt;stroke-linejoin:miter;stroke-miterlimit:4;stroke-dasharray:none;stroke-opacity:1"
       d="m 225.69357,413.3914 8.27331,93.77217 -4.96398,61.37815"
       id="path4171"
       inkscape:connector-curvature="0" />
    <path
       style="fill:none;fill-rule:evenodd;stroke:#000000;stroke-width:1.25;stroke-linecap:butt;stroke-linejoin:miter;stroke-miterlimit:4;stroke-dasharray:none;stroke-opacity:1"
       d="m 531.29797,760.70404 36.27071,14.46696 51.48104,15.67256 57.33115,2.41115 56.16112,-19.28929 40.95082,-24.11161 37.44076,-43.40089 33.93067,-62.69019 18.72038,-89.21297 7.02014,-38.57858 2.34005,-59.07344 L 858.90454,359.2457 837.8441,243.50996 821.46377,183.23094"
       id="path4173"
       inkscape:connector-curvature="0" />
    <path
       style="fill:none;fill-rule:evenodd;stroke:#000000;stroke-width:1.25;stroke-linecap:butt;stroke-linejoin:miter;stroke-miterlimit:4;stroke-dasharray:none;stroke-opacity:1"
       d="m 734.88204,775.171 -9.36019,16.87813 -17.55035,18.08371"
       id="path4175"
       inkscape:connector-curvature="0" />
    <path
       style="fill:none;fill-rule:evenodd;stroke:#000000;stroke-width:1.25;stroke-linecap:butt;stroke-linejoin:miter;stroke-miterlimit:4;stroke-dasharray:none;stroke-opacity:1"
       d="m 709.14152,813.74959 -1.17002,24.11161 -1.17002,28.93393 -2.34005,31.3451 1.17003,32.55068 1.17002,40.98974 -3.51007,12.05576"
       id="path4177"
       inkscape:connector-curvature="0" />
    <path
       style="fill:none;fill-rule:evenodd;stroke:#000000;stroke-width:1.25;stroke-linecap:butt;stroke-linejoin:miter;stroke-miterlimit:4;stroke-dasharray:none;stroke-opacity:1"
       d="m 336.55599,807.23449 -6.61865,16.19702 -1.65466,17.90195 0.82734,30.68907 5.79131,26.4267 10.75532,17.04949 14.89196,13.63958 19.02863,5.11486 10.7553,1.70494 14.89197,-4.26237 12.40998,-23.86928 3.30933,-24.72175 -2.482,-33.2465 -7.44599,-30.68907 -14.89197,-18.75443 -17.37395,-10.22969 -17.37396,2.55742 -11.58265,8.52474 z"
       id="path4179"
       inkscape:connector-curvature="0" />
    <path
       style="fill:none;fill-rule:evenodd;stroke:#000000;stroke-width:1.25;stroke-linecap:butt;stroke-linejoin:miter;stroke-miterlimit:4;stroke-dasharray:none;stroke-opacity:1"
       d="m 338.24409,807.1189 -7.60516,-6.0279 1.75504,-6.02791 7.60516,-15.06976 19.30538,-14.46697 21.64544,-2.41115 15.79531,8.43906 10.53021,8.43906 14.6253,18.08371 5.2651,16.27534 0.58501,27.72835 2.34005,28.33115 -1.75503,24.7144 -1.75504,14.46697 -7.02014,17.48092 -3.51007,6.0279 1.17002,7.23348 -6.43513,3.61674 -4.68009,-0.60279 -6.43513,-3.61674 v -6.63069 l 5.96787,-2.25881 11.9963,-21.73809 3.72299,-26.42671 -2.48199,-32.82026 -7.03232,-30.68907 -16.54664,-20.03314 -15.71929,-8.52474 -18.61496,2.13118 -12.40998,9.80346 z"
       id="path4181"
       inkscape:connector-curvature="0" />
    <path
       style="fill:none;fill-rule:evenodd;stroke:#000000;stroke-width:1.25;stroke-linecap:butt;stroke-linejoin:miter;stroke-miterlimit:4;stroke-dasharray:none;stroke-opacity:1"
       d="m 388.88346,554.62668 -7.65156,-44.05322 m 0,0 -5.37766,-43.47618 4.55032,-19.60691 12.82364,-21.31185 12.40999,-12.36087 22.7516,-11.08217 26.88828,-6.8198 h 31.4386 l 50.05355,5.96732 33.09327,11.08218 19.85595,13.21334 7.44599,12.36087 2.48199,10.65594 -1.241,11.93463 -5.37765,8.95099 -2.482,8.95098 v 11.08216 l 0.41368,15.77076 3.30932,4.68861 7.44598,-8.95097 8.68698,-12.78712 -0.82733,-21.31185 0.41366,-19.6069 -4.55032,-18.77157 -10.34164,-11.06504 -19.85596,-11.08215 -20.68329,-8.95098 -33.92059,-8.09851 -28.95661,-3.83614 -38.88458,0.42625 -28.54293,4.26236 -22.75162,11.08216 -18.20129,14.9183 -12.82364,17.04948 -5.79132,19.60691 0.82733,36.23015 4.13666,26.4267 m 0,0 7.93418,34.20892 m 6.24475,39.4309 11.88201,55.93627 2.48199,13.63959 13.65098,36.65639 2.06832,6.39356 v 8.52474 l 1.65467,78.00139 6.62711,9.47213 5.26511,16.57674 0.58501,32.24928 2.34005,22.60464 -3.21757,35.26322 -0.58501,4.21954 -7.89766,19.28929 -2.92505,5.72651 1.75502,5.12372 1.36232,-2.19456 11.16897,-11.08216 7.03231,-16.62325 2.482,-24.29551 0.82733,-42.62372 -2.48199,-39.21381 -6.61865,-14.49206 -3.30934,-42.62371 -0.82732,-44.32866 -3.30933,-11.5084 -14.89196,-42.19747 -3.26594,-10.65593 -5.00738,-24.72175 -3.81803,-19.3296"
       id="path4183"
       inkscape:connector-curvature="0"
       sodipodi:nodetypes="ccccccccccccccccccccccccccccccccccccccccccccccccccccccccccccccccccccccc" />
    <path
       style="fill:none;fill-rule:evenodd;stroke:#000000;stroke-width:1.25;stroke-linecap:butt;stroke-linejoin:miter;stroke-miterlimit:4;stroke-dasharray:none;stroke-opacity:1"
       d="m 517.31866,516.61962 -31.01565,-3.48873 -26.06095,-18.75444 -29.37027,-36.65639 -29.21871,-38.23482 m -6.69568,-13.43135 -6.27952,-34.00749 4.55032,-8.0985 18.61497,-6.39356 21.51062,-12.36086 29.37027,-5.96733 34.74792,-1.27871 34.33426,3.83614 26.88827,10.22968 24.81994,14.06583 23.99262,20.88561 11.16898,22.59057 10.34163,26.00047 1.65467,18.75443 -8.27332,17.90196 -10.7553,14.06582 m -21.65469,17.47572 -27.57154,8.09851 -23.16529,5.54108"
       id="path4185"
       inkscape:connector-curvature="0"
       sodipodi:nodetypes="cccccccccccccccccccccccc" />
    <path
       style="fill:none;fill-rule:evenodd;stroke:#000000;stroke-width:1.25;stroke-linecap:butt;stroke-linejoin:miter;stroke-miterlimit:4;stroke-dasharray:none;stroke-opacity:1"
       d="m 517.44124,517.07905 -24.10592,-1.39073 -9.10064,11.08216 -2.89567,11.93464 0.82734,16.197 3.30932,20.03315 15.71931,17.47573 14.89196,8.0985 m 15.90676,7.67227 26.70081,-2.55742 14.06464,-11.08217 12.82363,-14.9183 8.68699,-13.21336 7.44598,-15.34452 v -19.60691 l -5.18898,-7.65164 -9.36019,-10.54882 -9.36019,-3.01396 -6.72764,-1.80837 -10.82271,4.82233 -25.419,3.41305"
       id="path4187"
       inkscape:connector-curvature="0"
       sodipodi:nodetypes="ccccccccccccccccccccc" />
    <path
       style="fill:none;fill-rule:evenodd;stroke:#000000;stroke-width:1.25;stroke-linecap:butt;stroke-linejoin:miter;stroke-miterlimit:4;stroke-dasharray:none;stroke-opacity:1"
       d="m 533.46089,568.54171 18.2013,-7.67226 19.85596,-19.60692 14.89197,-15.34452 10.75531,-6.8198 4.96399,-1.70495"
       id="path4189"
       inkscape:connector-curvature="0" />
    <path
       style="fill:none;fill-rule:evenodd;stroke:#000000;stroke-width:1.25;stroke-linecap:butt;stroke-linejoin:miter;stroke-miterlimit:4;stroke-dasharray:none;stroke-opacity:1"
       d="m 531.80624,577.06646 18.20129,-4.26237 14.89197,-12.78711 12.82364,-15.77078 11.16898,-12.36087 12.82363,-8.52475 6.61865,-2.98365"
       id="path4191"
       inkscape:connector-curvature="0" />
    <path
       style="fill:none;fill-rule:evenodd;stroke:#000000;stroke-width:1.25;stroke-linecap:butt;stroke-linejoin:miter;stroke-miterlimit:4;stroke-dasharray:none;stroke-opacity:1"
       d="m 602.12942,514.83583 3.30932,-8.95098 5.17083,-6.81979 3.10248,-8.52473 6.41182,-9.37722 5.17083,-6.81979 7.65281,-9.1641 5.37766,-5.32797 1.03417,-8.31162 2.89565,-4.68861 4.75716,-3.19677 4.55032,-0.85249 3.30933,-0.42622 1.241,1.49182 v 2.3443 5.96732 l -0.20684,5.32797 -1.24099,4.47549 -1.65467,1.06559 1.8615,1.49183 1.241,1.70495 0.20683,2.55743 0.20684,4.26237 -0.41367,6.39354 -3.1025,3.83615 -1.65466,0.21311 -1.65466,2.13119 v 2.55742 l -0.82734,4.47549 -2.68882,3.83613 -2.27517,0.21312 -4.96398,1.27871 -1.84486,2.98366 -1.46447,4.68861 -2.68883,1.49183 -1.65466,2.55743 -3.51616,3.62301 -1.44783,4.04925 -2.89566,0.63936 h -3.30933 l -1.03416,1.91807 -1.03417,1.70494 h -4.34349 l -5.37765,-0.42623 -4.55032,-2.34431 z"
       id="path4193"
       inkscape:connector-curvature="0" />
    <path
       style="fill:none;fill-rule:evenodd;stroke:#000000;stroke-width:1.25;stroke-linecap:butt;stroke-linejoin:miter;stroke-miterlimit:4;stroke-dasharray:none;stroke-opacity:1"
       d="m 863.56618,390.3746 -4.13666,47.73856 -9.10065,73.31278 -30.61126,75.01774 -31.4386,59.67319 -21.51063,29.8366 -31.43859,23.86927 -20.68329,12.78712 -16.54663,5.96732 -18.20129,-3.4099 -12.40997,-16.19701 -7.44599,-28.98412 1.65466,-34.09897 9.92799,-24.72175 23.99261,-13.63959 10.75531,-10.22969 v -11.08216 l -0.82734,-10.2297 15.7193,-4.26238 19.02863,-25.57421 11.58264,-26.4267 8.27331,-23.86928 v -20.45938 l -0.82733,-5.96732 5.79133,-22.16434 9.10065,-19.60691 1.65465,-27.27917 -14.89196,-16.19701"
       id="path4195"
       inkscape:connector-curvature="0" />
    <path
       style="fill:none;fill-rule:evenodd;stroke:#000000;stroke-width:1.25;stroke-linecap:butt;stroke-linejoin:miter;stroke-miterlimit:4;stroke-dasharray:none;stroke-opacity:1"
       d="m 636.87734,705.79006 9.92797,-8.52474 10.75532,-2.55742 6.61865,2.55742 4.96399,4.26237"
       id="path4197"
       inkscape:connector-curvature="0" />
    <path
       style="fill:none;fill-rule:evenodd;stroke:#000000;stroke-width:1.09153807;stroke-linecap:butt;stroke-linejoin:miter;stroke-miterlimit:4;stroke-dasharray:none;stroke-opacity:1"
       d="m 19.436339,794.73969 -0.474849,8.28027 v 7.79338 l 1.899419,7.30579 4.273657,8.7675 4.748553,7.30622 6.173071,6.81878 6.64793,5.35797 8.54735,4.87067 8.54734,2.43541 8.54736,0.97421 h 9.49705 l 6.17308,-0.4873 10.44674,-2.92232 7.59765,-3.89656 5.69822,-3.89655 5.69823,-4.87106 3.79881,-4.87056 5.22339,-10.22859 2.84914,-7.30608 1.42453,-6.33166 v -9.2544 l -4.27367,-16.56055 -3.32398,-6.81925 -3.79882,-5.84477 -6.17305,-5.84485 -5.69825,-3.89657 -4.7485,-2.92244 -5.2234,-2.92245 -6.17307,-1.94829 -7.59763,-1.46123 -6.64797,-0.48706 -8.54732,0.97416 -8.54737,1.9483 -6.64792,2.92243 -6.64794,2.92245 -7.59765,6.819 -4.748504,4.87068 -4.273675,5.35789 -3.323972,6.81889 -2.374258,4.87065 z"
       id="C60.8"
       inkscape:connector-curvature="0"
       inkscape:label="#path4217" />
    <path
       style="fill:none;fill-rule:evenodd;stroke:#000000;stroke-width:1.09153807;stroke-linecap:butt;stroke-linejoin:miter;stroke-miterlimit:4;stroke-dasharray:none;stroke-opacity:1"
       d="m 63.09682,787.12106 -0.3356,3.44424 0.3356,5.16617 3.52563,4.13272 4.7008,2.75539 4.02923,2.23883 4.19715,2.75502 3.52558,2.7554 2.68619,4.30536 1.34308,5.33812 -0.83943,5.85498 -2.85406,4.82207 -4.70079,2.75525 -5.20446,0.17302 -4.19714,-0.86119 -4.70082,-3.09964 -2.51827,-4.13297 -0.67152,-5.68276 0.50366,-5.16616 2.68617,-4.47734 3.69347,-3.09997 3.69349,-1.72195 5.70811,-2.06619 4.02926,-2.92766 3.02194,-4.13308 1.51101,-5.51042 -0.83945,-4.99385 -3.3577,-4.30538 -4.70081,-2.41079 -5.03659,-0.17301 -5.03657,1.55 -2.85405,3.44388 z"
       id="path4230"
       inkscape:connector-curvature="0"
       sodipodi:nodetypes="ccccccccccccccccccccccccccccccccc" />
    <path
       style="fill:none;fill-rule:evenodd;stroke:#000000;stroke-width:1.09153807;stroke-linecap:butt;stroke-linejoin:miter;stroke-miterlimit:4;stroke-dasharray:none;stroke-opacity:1"
       d="m 19.74598,917.60978 -0.466686,8.28171 v 7.79461 l 1.866799,7.3075 4.200304,8.76882 4.667037,7.3075 6.067116,6.82029 6.53381,5.35876 8.40065,4.87167 8.40061,2.43564 8.40064,0.97441 h 9.33402 l 6.06712,-0.48721 10.26742,-2.92284 7.46722,-3.89735 5.60043,-3.89736 5.60042,-4.87156 3.73362,-4.87166 5.13372,-10.23035 2.80022,-7.30749 1.40009,-6.33309 v -9.25602 l -4.20031,-16.56352 -3.26693,-6.8203 -3.73359,-5.84597 -6.06713,-5.84588 -5.60043,-3.89736 -4.66699,-2.92293 -5.13374,-2.92304 -6.06709,-1.94863 -7.46723,-1.46143 -6.53384,-0.4872 -8.40062,0.97431 -8.40064,1.94863 -6.5338,2.92304 -6.53384,2.92294 -7.46723,6.82029 -4.667,4.87167 -4.200314,5.35867 -3.266913,6.82029 -2.333505,4.87167 z"
       id="C60.9"
       inkscape:connector-curvature="0"
       inkscape:label="#path4217-8" />
    <path
       id="path4223"
       style="fill:none;fill-rule:evenodd;stroke:#000000;stroke-width:1.09153807;stroke-linecap:butt;stroke-linejoin:miter;stroke-miterlimit:4;stroke-dasharray:none;stroke-opacity:1"
       d="m 83.68809,925.71074 c 0.66982,2.88385 0.47484,2.08356 0.46264,3.16156 -0.0778,6.87385 0.13429,3.47546 -0.0636,5.7435 l -0.0771,4.3941 -0.60613,4.36919 -2.32055,4.04133 -4.23325,3.13937 -5.44514,2.2392 c -2.09007,0.45928 -3.84205,1.2883 -6.60014,0.86118 l -7.07517,-2.12385 c 0,0 0.99002,0.25852 1.3,-0.46018 m 1.94561,-49.9486 -3.06184,4.30599 -1.53885,5.68381 -0.3143,5.33938 1.12327,5.68391 3.69979,4.99485 4.56275,2.41132 4.39773,0.51674 5.75507,-0.89935 c 1.59805,-0.45998 4.72495,-1.33613 4.72495,-1.33613 -0.14784,-0.40079 3.81838,-0.27299 3.78739,-1.5414 -0.11468,-4.69121 -0.11772,-7.85629 0.0491,-11.5523 0.16611,3.80854 -0.0136,-8.21006 -2.74154,-10.50654 l -4.57862,-4.4782 -4.89276,-1.72236 -6.3619,0.51655 z"
       inkscape:connector-curvature="0"
       sodipodi:nodetypes="csccccccccccccccccccsscccccc" />
  </g>
</svg>
