<?xml version="1.0" encoding="UTF-8" standalone="no"?>
<!-- Created with Inkscape (http://www.inkscape.org/) -->

<svg
   width="700"
   height="750"
   viewBox="0 0 700 750"
   id="svg2"
   version="1.1"
   inkscape:version="1.2.2 (732a01da63, 2022-12-09)"
   sodipodi:docname="level3_C37.svg"
   xmlns:inkscape="http://www.inkscape.org/namespaces/inkscape"
   xmlns:sodipodi="http://sodipodi.sourceforge.net/DTD/sodipodi-0.dtd"
   xmlns="http://www.w3.org/2000/svg"
   xmlns:svg="http://www.w3.org/2000/svg"
   xmlns:rdf="http://www.w3.org/1999/02/22-rdf-syntax-ns#"
   xmlns:cc="http://creativecommons.org/ns#"
   xmlns:dc="http://purl.org/dc/elements/1.1/">
  <defs
     id="defs4">
    <inkscape:path-effect
       effect="spiro"
       id="path-effect4169"
       is_visible="true"
       lpeversion="0" />
    <inkscape:path-effect
       effect="spiro"
       id="path-effect4165"
       is_visible="true"
       lpeversion="0" />
    <inkscape:path-effect
       effect="spiro"
       id="path-effect4161"
       is_visible="true"
       lpeversion="0" />
    <inkscape:path-effect
       effect="spiro"
       id="path-effect4157"
       is_visible="true"
       lpeversion="0" />
    <inkscape:path-effect
       effect="spiro"
       id="path-effect4153"
       is_visible="true"
       lpeversion="0" />
    <inkscape:path-effect
       effect="spiro"
       id="path-effect4149"
       is_visible="true"
       lpeversion="0" />
  </defs>
  <sodipodi:namedview
     id="base"
     pagecolor="#ffffff"
     bordercolor="#666666"
     borderopacity="1.0"
     inkscape:pageopacity="0.0"
     inkscape:pageshadow="2"
     inkscape:zoom="1.1651904"
     inkscape:cx="572.86773"
     inkscape:cy="259.1851"
     inkscape:document-units="px"
     inkscape:current-layer="svg2"
     showgrid="false"
     inkscape:window-width="1920"
     inkscape:window-height="1009"
     inkscape:window-x="-8"
     inkscape:window-y="-8"
     inkscape:window-maximized="1"
     inkscape:showpageshadow="2"
     inkscape:pagecheckerboard="0"
     inkscape:deskcolor="#d1d1d1"
     showguides="true" />
  <metadata
     id="metadata7">
    <rdf:RDF>
      <cc:Work
         rdf:about="">
        <dc:format>image/svg+xml</dc:format>
        <dc:type
           rdf:resource="http://purl.org/dc/dcmitype/StillImage" />
      </cc:Work>
    </rdf:RDF>
  </metadata>
  <path
     id="C34"
     style="display:inline;overflow:visible;fill:none;fill-opacity:1;fill-rule:evenodd;stroke:#000000;stroke-width:1;stroke-linecap:butt;stroke-linejoin:miter;stroke-miterlimit:4;stroke-dasharray:none;stroke-opacity:1"
     d="m 250.42032,232.30927 c -25.84204,-0.84171 -49.13268,11.35404 -89.47798,58.84804 -40.34529,47.49401 -71.747971,131.34686 -84.544619,178.29625 -12.796634,46.94938 -8.514902,179.35997 1.20402,214.02285 9.718918,34.66289 13.856778,33.68218 28.201049,26.14765 14.34426,-7.53454 107.72776,-33.16662 155.09123,-47.4331 47.36348,-14.26649 87.40734,-34.92882 70.81211,-64.67439 -8.9832,-16.1016 -35.19397,-60.91522 -25.48685,-93.83052 6.5452,-22.19373 16.136,-39.66726 22.45129,-48.3314 8.62037,-11.82655 -24.53889,-23.96278 -33.42232,-47.21329 -6.88152,-18.01093 0.77629,-42.68469 4.17568,-55.21496 8.00554,-29.50878 8.41431,-68.06054 2.40804,-91.15165 -6.00628,-23.09109 -25.5696,-28.62379 -51.41165,-29.46548 z m 207.67704,-9.80668 c 26.56655,-0.86525 45.14446,1.538 91.98577,60.49236 46.8413,58.95436 73.75924,135.01677 86.91455,183.27798 13.15529,48.26122 12.87376,165.14277 -1.23774,220.00297 -14.11149,54.86019 -17.35832,33.57728 -28.99155,26.87828 -98.48904,-56.71475 -197.21064,-37.45698 -223.74736,-69.39421 -5.14603,-6.19331 -0.17758,-36.92112 19.35373,-46.1194 13.81244,-6.50492 32.7645,-8.37268 40.16967,-14.10853 18.26616,-14.14848 21.83995,-26.81266 23.94718,-59.03041 2.10723,-32.21776 -53.06215,-144.73734 -55.16296,-173.20006 -2.10079,-28.46274 -18.49387,-85.8722 -16.49237,-93.51444 2.00146,-7.64226 36.69454,-34.41929 63.26108,-35.28454 z"
     sodipodi:nodetypes="zzzzzzssssszzzzzzzssszzzz" />
  <path
     id="C33"
     style="fill:none;stroke:#000000;stroke-width:1;stroke-dasharray:none;stroke-opacity:1"
     d="m 508.98127,387.09162 c 2.90625,-1.58001 5.50593,-2.05725 8.50525,-1.86516 0.78236,0.60459 1.24451,2.14284 1.26677,3.05675 0.0283,1.15479 0.33437,2.63409 -0.11623,3.64799 -0.79228,1.7826 -1.80148,2.22318 -3.16693,3.28521 -2.05455,1.23521 -4.02403,3.3995 -5.86893,4.85066 M 379.12391,168.59042 c 0.70886,5.62652 1.38961,18.10086 0.33513,31.93458 -1.05445,13.83368 0.32176,22.84139 -0.60213,44.27296 -0.53829,12.48721 -1.64981,32.14333 -1.6576,48.49927 -0.006,18.45543 1.46291,37.00953 -0.0999,51.21372 -2.94755,26.79236 8.71178,37.68093 21.01516,53.62491 2.84825,3.69107 8.37668,7.56265 12.86349,12.04947 4.48687,4.48686 14.03276,10.44928 21.29776,14.31476 7.26498,3.86552 11.66743,5.24211 13.40994,6.11339 2.98314,1.49157 13.82452,3.27134 18.89375,2.98394 4.05123,-0.22958 11.22243,-3.03289 16.53277,-7.66433 5.31031,-4.63149 9.84365,-11.42774 12.11293,-19.8798 1.32168,-4.92272 0.47809,-12.43222 0.0811,-18.92927 -0.39726,-6.49695 -2.73735,-13.45317 -6.40442,-20.01066 -3.66707,-6.55751 -5.53524,-10.90554 -6.84285,-12.83408 -1.63781,-2.41548 4.19945,-8.51866 5.852,-6.62635 2.79851,3.2046 4.47465,5.05424 6.83564,8.40966 2.18244,3.12465 3.27826,4.87846 5.13017,8.1039 1.17828,2.02602 1.97974,4.21226 3.02666,6.89093 -0.36864,-3.49169 0.7376,-6.72061 0.80622,-8.72056 0.15557,-4.53551 2.40878,-9.6853 4.85278,-11.5654 2.44401,-1.88016 3.59886,-1.79552 5.21878,-1.76855 0.60531,0.15128 2.82099,3.59913 2.73038,4.40452 -0.2484,2.20652 -0.78563,3.79592 -1.15811,4.72711 -1.12478,2.81192 -2.20429,6.50088 -2.91558,9.34601 -0.67661,2.70647 -1.05988,7.41492 -1.38915,11.02822 -0.32926,3.61331 0.21337,9.78653 0.67264,13.7348 0.45916,3.94826 0.17288,7.89188 -0.33817,10.95836 -0.51107,3.06646 -1.64726,7.19209 -2.51143,11.17634 -0.86421,3.98421 -1.53026,7.36398 -3.21969,10.8346 -1.12391,2.3307 -2.57053,6.01125 -3.93193,7.37267 -1.23059,1.50975 -4.01759,4.57018 -7.47304,5.88776 3.15478,0.55448 11.30952,2.395 14.93004,2.24735 3.6205,-0.14782 5.76009,-1.31217 7.74254,-1.99805 1.98245,-0.6859 7.11872,-2.35017 9.04059,-2.60971 1.92191,-0.25949 3.13782,2.64569 3.27974,4.12888 0.1419,1.48318 0.48889,2.96537 -0.22494,4.58409 -0.71369,1.61864 -9.41529,0.89941 -10.96994,0.20478 2.84932,1.01265 7.21185,3.34112 8.97471,4.17484 1.76291,0.83371 3.00188,1.79182 4.09748,2.92366 1.64615,1.70053 3.67134,5.36528 1.30989,8.25649 -2.36144,2.89114 -4.92224,3.01853 -6.37239,1.70278 -2.69016,-2.44085 -6.39841,-4.04842 -10.41854,-4.75433 -4.02013,-0.70595 -15.63662,-0.89262 -19.17369,-0.69655 -3.53704,0.19614 -17.50856,-2.08969 -21.16815,-1.9651 3.35425,3.14842 5.5175,6.129 7.57068,9.28672 1.70624,2.78568 3.59163,4.89207 5.66241,8.96335 2.16976,4.42468 3.72873,9.0988 5.8665,13.39436 2.13775,4.29555 5.92783,7.28837 9.91318,11.52701 2.94791,2.99376 7.20064,7.16906 12.78872,9.98387 3.23782,1.49884 6.21409,3.03599 9.02786,3.39133 2.81381,0.35538 4.93329,0.29341 5.45083,0.81094 0.47577,0.4758 2.06495,9.29963 0.57519,9.98603 -1.48977,0.68633 -8.25862,-0.72508 -8.95376,-0.93276 -0.69515,-0.20777 -5.27093,-1.96074 -9.17049,-4.02491 1.48626,2.74621 6.04783,15.25594 4.8918,17.56799 -1.17401,2.34804 -7.43765,3.18834 -8.09746,0.79001 -0.89726,-3.26138 -1.88184,-6.17679 -2.8822,-10.10707 -1.00039,-3.93029 -2.60821,-5.24726 -4.37516,-7.79586 -1.76697,-2.54862 -5.94733,-7.65981 -9.50461,-10.2765 -3.55723,-2.61665 -7.31296,-5.96392 -10.35543,-8.28392 2.33601,3.30108 4.16019,4.96143 5.04451,8.01752 1.13265,3.9143 0.20369,7.7644 -0.98756,8.88542 -1.53398,1.44383 -6.50418,0.22307 -9.78313,-1.75386 -1.47297,-0.888 -2.15084,-3.23701 -2.15084,-4.87612 0,-9.32171 -0.42616,-12.28457 -2.59227,-20.94899 -1.39347,-5.57388 -8.93123,-16.15451 -13.28334,-19.69845 -2.37236,-1.93191 -6.61076,-6.97061 -10.38837,-7.64096 -5.47908,-0.97232 -26.71892,-9.16261 -36.3894,-15.35953 -6.78694,-4.34908 -15.58197,-9.63844 -21.54746,-13.59149 -5.96551,-3.95295 -10.22726,-9.26198 -16.01944,-14.10782 -5.79216,-4.84583 -10.07092,-7.0234 -15.45786,-6.71556 -6.67178,0.38117 -14.87604,14.29561 -19.57362,20.49196 -7.8648,10.37399 -14.57406,21.22237 -22.93307,30.97937 -6.81811,7.95844 -18.86291,15.57545 -22.09964,22.36104 -3.23675,6.78554 -6.05621,19.33134 -5.80374,26.92505 0.25245,7.59369 1.2637,10.55195 3.03442,15.16352 1.77073,4.61159 4.61343,7.76452 6.91485,10.80432 2.30139,3.03975 7.05285,6.23721 5.449,10.24355 -0.38351,0.95793 -2.92216,5.419 -4.55093,4.60463 -1.62875,-0.8144 -6.25441,-5.41326 -7.77301,-7.53549 -0.0242,2.71453 -0.10927,5.37895 0.33784,8.21149 0.44698,2.83261 1.76728,6.23282 2.96871,8.9162 1.20139,2.68334 2.41839,7.35427 2.41839,8.29275 0,5.26524 -3.97896,5.49557 -6.53099,4.94292 -2.55201,-0.55264 -3.37098,-4.34265 -4.36589,-6.82086 -0.68556,-1.70759 -1.6578,-6.64627 -3.77366,-11.7501 2.30776,5.30928 -0.39554,14.53853 -2.77935,15.33317 -0.91038,0.30344 -2.53392,-0.72283 -3.20933,-1.17312 -1.38514,-0.92339 -2.16403,-1.67737 -2.12454,-2.79071 0.0826,-2.32991 1.0866,-4.18249 1.66109,-7.05732 0.57452,-2.87485 1.03757,-5.8331 1.45185,-11.33663 0.41418,-5.50355 -0.6191,-11.04599 -1.32473,-15.20226 -0.70569,-4.1563 -1.3163,-8.93723 -1.99581,-12.34629 -0.67945,-3.40897 -0.9295,-5.04594 -1.11181,-7.19786 -1.86282,3.25389 -3.16432,7.58113 -5.34402,10.81833 -2.06671,4.22076 -10.02855,15.88645 -11.6004,16.03209 -1.57181,0.14556 -4.74285,-1.13558 -6.84993,-3.04533 -2.1071,-1.90968 -2.45131,-6.11378 -1.33515,-8.03202 1.11617,-1.91827 4.35066,-6.95748 7.67955,-11.39597 1.30306,-1.73746 3.38714,-6.32799 3.9526,-8.43352 0.96057,-3.57669 1.52431,-6.41497 2.80936,-11.71497 -4.25137,0.36334 -6.58273,0.34168 -10.16649,0.86661 -3.5837,0.5249 -8.4526,0.69571 -11.73097,1.60991 -3.2783,0.91417 -6.79373,3.33023 -11.07031,5.22785 -4.27657,1.89763 -8.45184,5.45624 -11.24079,5.56414 -2.50371,0.097 -4.87115,-1.86822 -5.38296,-3.81518 -0.5118,-1.94696 0.0579,-5.46766 2.27742,-6.71617 3.10609,-1.74719 4.68547,-2.66678 10.50445,-6.58195 -9.59102,5.24535 -11.31489,5.49271 -13.10502,5.86821 -2.35588,0.49417 -3.51236,0.71374 -5.87164,0.71374 -3.44829,0 -4.10678,-4.91082 -2.73716,-7.5598 1.82547,-3.53076 10.40137,-2.9785 15.3803,-3.38886 4.97897,-0.41043 10.45097,-1.7039 17.5442,-3.46485 7.09329,-1.76094 18.20963,-6.16049 24.5467,-12.44066 5.78725,-5.73526 21.10371,-14.89113 29.19255,-24.75883 4.03478,-4.92206 5.56451,-11.09041 9.25284,-16.7015 3.68827,-5.61107 5.42342,-10.03108 3.38722,-13.42892 -2.03615,-3.39784 -11.0089,-6.94018 -12.33854,-7.29699 -1.32964,-0.35678 -4.10455,0.23244 -6.36829,1.19407 -2.26367,0.9617 -4.07553,1.51487 -5.96572,2.37228 -1.89018,0.85737 -3.43602,1.26414 -4.58989,2.26948 -1.07159,0.93366 -2.78156,-1.84287 -3.38595,-3.05163 -0.60439,-1.20876 -1.45785,-4.08261 -1.05039,-5.30496 0.40744,-1.2224 5.02545,-4.15005 7.99636,-5.33754 2.97091,-1.18749 6.12596,-3.35016 9.51638,-4.61288 -0.96256,-1.91385 -1.77682,-2.7387 -3.70579,-4.6677 -1.44888,-1.44886 -3.74019,-3.44018 -4.96165,-4.66163 -1.22139,-1.2214 -3.23934,-2.41103 -3.80375,-3.53993 -0.27162,-0.54317 3.53391,-5.39133 4.11283,-5.97026 0.5026,-0.5026 3.08138,0.92897 6.36826,2.78611 -1.33201,-3.16829 -3.55183,-6.79948 -2.20523,-9.71178 1.31915,-2.85298 7.46148,-5.86269 8.73213,-3.05316 3.52676,7.79796 6.4731,30.02944 18.31613,29.89531 7.609,-0.0864 12.57194,-6.48741 20.29802,-19.33388 2.73083,-4.54072 2.77477,-9.9414 2.57647,-18.04045 -0.21589,-8.81872 -0.66345,-20.77891 -0.54007,-39.15153 0.23675,-35.24596 -1.35744,-19.59594 -0.76093,-35.00219 0.59647,-15.40624 -1.17295,-22.97802 -0.54395,-34.06601 0.62907,-11.08801 -0.59448,-22.26996 -0.71649,-31.88334 -0.12213,-9.61335 0.2476,-25.42006 0.98588,-33.06058 0.73819,-7.64046 0.17861,-15.47028 0.21243,-23.15934 z m 136.57193,358.36026 c 2.14325,2.27384 4.32086,4.45962 6.33887,6.82599 1.28845,0.42948 5.75139,-4.41743 4.71123,-5.54446 -2.29772,-2.48957 -2.9915,-3.52256 -4.73557,-5.83555 -0.34142,-0.34144 -1.17012,-1.33999 -1.32636,-1.65246"
     inkscape:label="C33"
     sodipodi:nodetypes="ccsscccsscsssssssssssscccsscssssssscccssssscsssssscccsccsssscssssscssssssssssssasssssscssssscsssssssccssssscsssssscssssssassssssssscsssscssssssssssccccscc" />
  <path
     style="fill:none;stroke:#000000;stroke-width:1;stroke-dasharray:none"
     d="m 281.92214,375.84347 c 2.31432,1.04379 8.3557,-0.1835 9.08679,-3.83891"
     id="path8"
     sodipodi:nodetypes="cc" />
  <path
     style="fill:none;stroke:#000000;stroke-width:1;stroke-dasharray:none"
     d="m 269.11162,410.19445 c 3.74676,0.29962 4.40837,5.69367 4.40837,8.75456"
     id="path10"
     sodipodi:nodetypes="cc" />
  <path
     style="fill:none;stroke:#000000;stroke-width:1;stroke-dasharray:none"
     d="m 207.11543,492.94342 c 2.48455,2.1862 1.83836,6.94056 0.12111,9.338"
     id="path11"
     sodipodi:nodetypes="cc" />
  <path
     style="fill:none;stroke:#000000;stroke-width:1;stroke-dasharray:none"
     d="m 213.53441,503.27258 c 3.36727,0.30744 5.43678,6.33152 4.30127,8.60254"
     id="path12" />
  <path
     style="fill:none;stroke:#000000;stroke-width:1;stroke-dasharray:none"
     d="m 254.9219,542.33095 c -0.20548,-0.74031 -0.9286,-5.93934 -1.3915,-6.54737 -1.9268,-2.53105 -2.62618,-3.11684 -7.20384,-3.87219"
     id="path14"
     sodipodi:nodetypes="csc"
     inkscape:label="path14" />
  <path
     style="fill:none;stroke:#000000;stroke-width:1;stroke-dasharray:none"
     d="m 508.58342,535.09335 c 2.62781,-1.72259 5.25562,-1.49975 8.2454,-1.07083"
     id="path20"
     sodipodi:nodetypes="cc" />
  <path
     style="fill:none;stroke:#000000;stroke-width:1;stroke-dasharray:none"
     d="m 289.29074,574.66742 c 1.66727,-2.29684 4.56051,-3.66703 7.50198,-3.65227"
     id="path23"
     sodipodi:nodetypes="cc" />
  <path
     style="fill:none;stroke:#000000;stroke-width:1;stroke-dasharray:none"
     d="m 298.45947,552.41877 c -1.61407,-5.49253 2.86065,-8.02423 4.95785,-7.80782"
     id="path24"
     sodipodi:nodetypes="cc" />
  <path
     style="fill:none;stroke:#000000;stroke-width:1;stroke-dasharray:none"
     d="m 523.56126,461.50528 c -0.13048,-3.37327 -0.72497,-6.95412 3.20819,-8.26516 1.14294,-0.38099 1.92944,-0.53501 3.04507,-0.16311"
     id="path25" />
  <path
     style="fill:none;stroke:#000000;stroke-width:1;stroke-dasharray:none"
     d="m 479.95897,353.95278 c 3.54615,0.29195 5.82737,-3.50425 5.48792,-6.59857"
     id="path26"
     sodipodi:nodetypes="cc" />
  <path
     style="fill:none;stroke:#000000;stroke-width:1;stroke-dasharray:none"
     d="m 330.63286,179.92692 c 19.69722,-2.93432 29.99714,-5.61028 48.82815,1.45137"
     id="path27" />
  <path
     style="fill:none;stroke:#000000;stroke-width:1;stroke-dasharray:none"
     d="m 330.84021,186.56172 c 13.09595,-1.234 14.83517,3.22756 23.58033,3.01068 8.74521,-0.21705 22.43139,-2.58363 25.31927,0.30424"
     id="path28"
     sodipodi:nodetypes="czc" />
  <path
     style="fill:none;stroke:#000000;stroke-width:1;stroke-dasharray:none"
     d="m 329.38884,211.857 c 9.21934,-4.03096 19.94959,-4.10869 26.72824,-4.42795 6.77868,-0.31928 22.41569,1.72347 22.82556,3.90961"
     id="path31"
     sodipodi:nodetypes="czc" />
  <path
     style="fill:none;stroke:#000000;stroke-width:1;stroke-dasharray:none"
     d="m 329.34156,217.64103 c 13.75283,-3.83732 33.13261,-5.74502 49.46735,1.02751"
     id="path32"
     sodipodi:nodetypes="cc" />
  <path
     style="fill:none;stroke:#000000;stroke-width:1;stroke-dasharray:none"
     d="m 329.82346,235.36943 c 15.86955,-5.29379 33.43537,-5.87883 48.94389,-0.70934"
     id="path35" />
  <path
     style="fill:none;stroke:#000000;stroke-width:1;stroke-dasharray:none"
     d="m 329.82346,242.46275 c 10.5422,-4.89074 18.82345,-4.57423 24.04665,-4.75721 6.46735,-0.22678 14.35816,0.28998 25.13366,2.98389"
     id="path36"
     sodipodi:nodetypes="csc" />
  <path
     style="fill:none;stroke:#000000;stroke-width:1;stroke-dasharray:none"
     d="m 329.85296,260.8814 c 9.77846,-4.24945 37.73276,-7.2705 48.35766,-2.64392"
     id="path39"
     sodipodi:nodetypes="cc" />
  <path
     style="fill:none;stroke:#000000;stroke-width:1;stroke-dasharray:none"
     d="m 330.01418,265.39543 c 10.83008,-3.83722 33.2329,-4.75333 47.9901,-0.72318"
     id="path40"
     sodipodi:nodetypes="cc" />
  <path
     style="fill:none;stroke:#000000;stroke-width:1;stroke-dasharray:none"
     d="m 330.72388,278.23865 c 14.56766,8.27682 31.94112,-0.10149 46.56026,1.72588"
     id="path43"
     sodipodi:nodetypes="cc" />
  <path
     style="fill:none;stroke:#000000;stroke-width:1;stroke-dasharray:none"
     d="m 330.80608,286.0129 c 14.26892,3.10089 32.8947,3.15234 46.57061,-0.2665"
     id="path44"
     sodipodi:nodetypes="cc" />
  <path
     style="fill:none;stroke:#000000;stroke-width:1;stroke-dasharray:none"
     d="m 330.97202,299.97943 c 13.25459,2.39923 34.32495,8.21412 46.23435,-2.47249"
     id="path47"
     sodipodi:nodetypes="cc" />
  <path
     style="fill:none;stroke:#000000;stroke-width:1;stroke-dasharray:none"
     d="m 331.37076,304.95797 c 6.54134,7.04777 34.61058,10.03638 45.83561,-1.22535"
     id="path48"
     sodipodi:nodetypes="cc" />
  <path
     style="fill:none;stroke:#000000;stroke-width:1;stroke-dasharray:none"
     d="m 331.56432,327.02646 c 15.01851,7.9768 30.97091,-6.00298 46.10825,-4.43369"
     id="path51"
     sodipodi:nodetypes="cc" />
  <path
     style="fill:none;stroke:#000000;stroke-width:1;stroke-dasharray:none"
     d="m 331.36991,335.74082 c 11.87037,6.4065 18.3843,2.33348 30.01216,-2.53647 3.69743,-1.54852 9.30959,-4.97277 16.30829,-6.42901"
     id="path52"
     sodipodi:nodetypes="csc" />
  <path
     style="fill:none;stroke:#000000;stroke-width:1;stroke-dasharray:none"
     d="m 377.84085,329.92297 c -4.47616,4.53752 -25.64794,10.04087 -25.35412,11.34683 0.69835,3.10406 21.08011,-3.33765 25.21996,-4.51355"
     id="path53"
     sodipodi:nodetypes="csc" />
  <path
     style="fill:none;stroke:#000000;stroke-width:1;stroke-dasharray:none"
     d="m 331.7955,351.15768 c 14.5782,3.49649 31.40741,1.16621 44.86153,-2.19732"
     id="path55" />
  <path
     style="fill:none;stroke:#000000;stroke-width:1;stroke-dasharray:none"
     d="m 331.77391,355.37469 c 18.20641,6.20338 29.92277,3.59903 44.69999,-2.38594"
     id="path56"
     sodipodi:nodetypes="cc" />
  <path
     style="fill:none;stroke:#000000;stroke-width:1;stroke-dasharray:none"
     d="m 332.04233,370.31639 c 15.31021,5.45754 18.9345,8.91738 26.85271,5.66817 3.23101,-1.32589 17.36528,-7.50857 19.47195,-10.03659"
     id="path58"
     sodipodi:nodetypes="csc" />
  <path
     style="fill:none;stroke:#000000;stroke-width:1;stroke-dasharray:none"
     d="m 331.9786,374.96175 c 14.51912,9.15355 24.53355,10.12141 29.89915,7.81215 5.36563,-2.30924 16.27182,-8.23113 18.94606,-9.56825"
     id="path59"
     sodipodi:nodetypes="czc" />
  <path
     style="fill:none;stroke:#000000;stroke-width:1;stroke-dasharray:none"
     d="m 331.5635,377.62507 c 15.80366,11.3655 32.47552,18.74257 50.56066,-1.79426"
     id="path60"
     sodipodi:nodetypes="cc" />
  <path
     style="fill:none;stroke:#000000;stroke-width:1;stroke-dasharray:none"
     d="m 329.59172,382.44167 c 8.86212,9.53289 22.02222,15.20796 24.529,30.24492"
     id="path61"
     sodipodi:nodetypes="cc" />
  <path
     style="fill:none;stroke:#000000;stroke-width:1;stroke-dasharray:none"
     d="m 384.53069,380.45499 c -8.40079,7.06188 -17.69227,20.4075 -17.99398,32.44096"
     id="path62"
     sodipodi:nodetypes="cc" />
  <path
     style="fill:none;stroke:#000000;stroke-width:1;stroke-dasharray:none"
     d="m 285.32165,388.86327 c 1.7662,4.94864 4.34674,7.58065 6.97897,10.79306 -3.04417,-0.93907 -4.4131,-0.60448 -5.51828,-0.0814"
     id="path127"
     sodipodi:nodetypes="ccc" />
  <path
     style="fill:#ffffff;fill-opacity:1;stroke:#000000;stroke-width:1;stroke-dasharray:none;stroke-opacity:1"
     d="m 321.71097,153.2068 c 1.20944,3.57548 3.45371,4.53567 4.94809,6.60569 1.49436,2.07004 1.78164,4.3963 3.21221,5.82684 1.43053,1.43055 3.95836,2.08903 6.13037,1.2859 0.60004,-0.22201 2.19732,-1.16726 4.0838,-0.9836 4.94196,0.48111 12.76844,2.86077 16.57589,2.57203 5.26077,-0.399 10.56973,-3.10706 13.69433,-3.10706 3.12457,0 4.03728,1.11584 5.05854,1.82262 1.02125,0.70676 2.60605,0.82537 4.49657,0.19512 1.8905,-0.6302 2.91728,-5.11297 4.54466,-7.55399 0.87495,-1.31242 3.92708,-3.81154 4.74062,-5.75721 2.67203,-6.39068 2.20334,-12.08284 3.54688,-16.86228 1.34353,-4.77942 2.4374,-9.7345 3.46881,-12.82869 1.27469,-3.82403 3.31975,-8.62029 6.70962,-15.40014 1.67261,-7.20121 -8.05858,-12.424584 -12.70689,-17.050534 -4.34336,-4.343357 -6.67079,-5.403457 -12.82877,-4.985487 -2.02731,0.13742 -7.55637,3.12477 -9.2605,5.863207 -1.70411,2.73841 -4.61665,5.8016 -6.869,10.308354 -2.25233,4.50672 -1.79388,7.10879 -5.31911,7.30984 -3.52522,0.20082 -5.36444,-7.28401 -5.93885,-8.43284 -0.57439,-1.14878 -2.769,-4.376674 -4.07283,-6.115094 -1.30384,-1.73847 -4.81501,-6.119297 -7.13559,-7.279557 -7.21531,-3.60768 -12.61718,-0.90024 -17.82105,2.888117 -4.91365,3.57708 -9.03532,8.839964 -11.98628,14.212684 -2.05028,5.038 1.9661,7.8671 3.91212,11.75917 1.21548,2.43097 1.48185,5.65817 2.1531,8.34327 1.51562,5.06719 3.12887,6.96754 4.04224,12.17555 0.79693,4.54402 1.41159,11.61256 2.62102,15.18796 z"
     id="path1-9"
     sodipodi:nodetypes="zzzssszzzsszsszszzzzzsscscsz" />
  <path
     style="fill:none;stroke:#000000;stroke-width:1;stroke-dasharray:none"
     d="m 333.48373,142.3953 c -0.35795,8.52647 19.59716,10.39617 23.62647,10.37298 5.88396,-0.0338 18.04687,-5.13111 20.91586,-9.70018"
     id="path4-2"
     sodipodi:nodetypes="csc" />
  <path
     id="C37"
     style="fill:none;fill-opacity:1;stroke:#000000;stroke-width:1;stroke-dasharray:none;stroke-opacity:1"
     d="m 356.77561,368.82676 c -0.17249,11.35327 3.69431,24.31394 -5.29798,33.03948 m 8.32591,-123.45013 c 8.96732,-3.5984 24.08249,-41.15785 25.02562,-30.89776 1.01109,10.99933 8.46228,47.40021 12.3451,59.14752 8.77304,26.54209 11.73768,85.08535 6.09493,95.09035 -5.64275,10.00496 -10.41468,13.26604 -24.92982,14.04009 -14.51512,0.77404 -22.10709,-11.93038 -26.86174,-13.93007 -8.8989,8.89893 -33.15274,30.44795 -48.8639,14.73674 -14.64446,-16.95487 4.56591,-62.20758 7.10745,-87.64479 2.54153,-25.4372 11.52074,-81.73647 23.91723,-93.07411 7.60113,-6.9519 17.19777,46.13045 26.16513,42.53203 z"
     inkscape:label="C37" />
  <path
     id="path16"
     style="fill:none;fill-opacity:1;stroke:#000000;stroke-width:1;stroke-dasharray:none;stroke-opacity:1"
     d="m 400.23388,463.95895 c 12.87785,4.93609 13.80299,20.89742 20.57096,29.9214 m -22.07555,-72.0731 c -2.2688,18.06796 4.21302,37.53102 0.62336,55.47927 -4.54839,22.74196 -16.18932,55.71117 0,77.29695 m -40.51709,-127.7391 c -27.20862,18.23149 -47.21492,66.03193 -50.27913,84.41726 -3.06426,18.38533 4.57515,50.38141 22.99854,63.09902 31.66594,21.85899 94.34063,22.47745 115.4241,-1.48987 25.50268,-28.99089 12.2898,-84.08009 -5.04197,-116.10886 -3.59581,-6.64504 -9.69595,-20.14535 -16.31254,-24.55636 -10.74669,-7.16448 -17.4939,-8.57131 -29.25087,-10.9227 -9.17288,-2.02936 -27.02979,-1.47975 -37.53813,5.56151 z"
     inkscape:label="C38" />
</svg>
