<?xml version="1.0" encoding="UTF-8" standalone="no"?>
<!-- Created with Inkscape (http://www.inkscape.org/) -->

<svg
   xmlns:dc="http://purl.org/dc/elements/1.1/"
   xmlns:cc="http://creativecommons.org/ns#"
   xmlns:rdf="http://www.w3.org/1999/02/22-rdf-syntax-ns#"
   xmlns:svg="http://www.w3.org/2000/svg"
   xmlns="http://www.w3.org/2000/svg"
   xmlns:sodipodi="http://sodipodi.sourceforge.net/DTD/sodipodi-0.dtd"
   xmlns:inkscape="http://www.inkscape.org/namespaces/inkscape"
   width="300mm"
   height="300mm"
   viewBox="0 0 1062.9921 1062.9921"
   id="svg4229"
   version="1.1"
   inkscape:version="0.91 r13725"
   sodipodi:docname="Level3_C61.svg">
  <defs
     id="defs4231" />
  <sodipodi:namedview
     id="base"
     pagecolor="#ffffff"
     bordercolor="#666666"
     borderopacity="1.0"
     inkscape:pageopacity="0.0"
     inkscape:pageshadow="2"
     inkscape:zoom="0.49497475"
     inkscape:cx="466.39755"
     inkscape:cy="517.54896"
     inkscape:document-units="px"
     inkscape:current-layer="layer1"
     showgrid="false"
     inkscape:window-width="1680"
     inkscape:window-height="1028"
     inkscape:window-x="1912"
     inkscape:window-y="142"
     inkscape:window-maximized="1" />
  <metadata
     id="metadata4234">
    <rdf:RDF>
      <cc:Work
         rdf:about="">
        <dc:format>image/svg+xml</dc:format>
        <dc:type
           rdf:resource="http://purl.org/dc/dcmitype/StillImage" />
        <dc:title />
      </cc:Work>
    </rdf:RDF>
  </metadata>
  <g
     inkscape:label="Laag 1"
     inkscape:groupmode="layer"
     id="layer1"
     transform="translate(0,10.629921)">
    <path
       style="fill:none;fill-rule:evenodd;stroke:#000000;stroke-width:1.25;stroke-linecap:butt;stroke-linejoin:miter;stroke-opacity:1;stroke-miterlimit:4;stroke-dasharray:none"
       d="m 498.49929,445.2287 -11.14984,12.38278 -3.54768,13.33531 1.01363,18.09791 4.05448,22.38427 19.2588,19.5267 18.24517,9.04895 23.82011,8.57269 28.38138,-2.85757 17.23155,-12.38278 15.71112,-16.66912 10.64303,-14.7641 9.12259,-17.14539 0,-21.908 -6.35739,-8.54964 -11.46781,-11.78685 -11.46781,-3.36768 -8.24249,-2.0206 -13.25965,5.38828 -21.86053,4.37797 -19.7103,-0.67354 -20.78541,0 z"
       id="C61"
       inkscape:connector-curvature="0"
       inkscape:label="#path4187" />
    <path
       inkscape:connector-curvature="0"
       id="0"
       style="fill:none;fill-rule:evenodd;stroke:#000000;stroke-width:1.25;stroke-linecap:butt;stroke-linejoin:miter;stroke-opacity:1;stroke-miterlimit:4;stroke-dasharray:none"
       d="m 243.57359,790.04159 3.04087,16.19286 -1.01362,17.1454 -6.08174,17.14538 0,5.71514 6.08174,3.81009 5.0681,-6.66766 5.06812,-20.95547 1.01361,-24.76557 z m -107.44383,-50.48367 13.17707,14.28783 -3.04085,19.05044 -2.02725,18.09792 4.05449,20.00295 9.12258,20.00296 14.1907,22.86052 -4.05449,3.81009 -13.17706,-6.66765 -19.2588,-27.62313 -4.05449,-22.86052 1.01363,-30.4807 z"
       inkscape:label="#path4149" />
    <path
       id="1"
       style="fill:none;fill-rule:evenodd;stroke:#000000;stroke-width:1.25;stroke-linecap:butt;stroke-linejoin:miter;stroke-opacity:1;stroke-miterlimit:4;stroke-dasharray:none"
       d="m 218.73987,778.61133 1.01364,11.43026 1.52041,10.954 4.05449,10.95399 -1.01362,11.43027 -1.01362,13.81156 -4.05449,10.954 -5.57491,8.09644 -0.50681,3.33382 6.58855,0 8.10896,-3.33382 5.57492,-3.33383 3.04085,-4.76261 3.54768,-8.09643 5.57492,-16.90727 0.76021,-18.57418 -3.04086,-15.00221 -1.52044,-5.23887 -2.53405,-6.19139 -3.04087,-2.61943 -4.56129,-4.28635 -3.04086,-0.71439 -3.54766,0 -2.28066,1.42878 -3.02048,3.57196 z m -69.43304,-23.81306 5.06812,-1.90504 8.10896,4.28636 4.05449,6.19139 6.58853,6.66764 8.10898,0 5.0681,0 2.34958,-0.16342 2.32413,2.18403 -1.12604,4.64705 -2.02725,15.24035 -1.52042,15.7166 2.53405,14.76409 4.05448,16.19288 4.5613,8.57269 4.05447,6.19139 -0.50681,2.85757 -1.01361,0.47626 -10.13621,0 -6.58855,-2.3813 -6.08171,-1.42879 -5.57492,-3.33383 -4.5613,-2.85756 -10.89642,-17.14539 -7.09534,-17.1454 -5.32152,-21.66986 z"
       inkscape:label="#path4154"
       inkscape:connector-curvature="0"
       sodipodi:nodetypes="ccccccccccccccccccccccccccccccccccccccccccccccccccccc" />
    <path
       style="fill:none;fill-rule:evenodd;stroke:#000000;stroke-width:1.25;stroke-linecap:butt;stroke-linejoin:miter;stroke-opacity:1;stroke-miterlimit:4;stroke-dasharray:none"
       d="m 354.29585,487.37493 -76.25913,-24.04832 -31.42226,7.62018 -33.4495,15.24035 -27.36776,31.43322 -18.24519,39.05338 -12.16344,38.10088 -10.13621,40.00591 3.04086,50.48366 1.01361,43.816 10.13622,12.38278 12.16345,10.47774 13.17707,3.81009 5.06811,-10.47774 -1.01362,-33.33827 4.05448,-60.00887 3.04086,-49.53112 13.17707,-40.95844 19.2588,-26.67062 22.29967,-23.81304 28.3814,-2.85756 28.38139,2.85756 58.33386,16.19161 m 13.56511,3.81136 20.34053,5.71511 26.35414,3.81009 10.13621,-5.71513 0,-8.5727 -11.14982,-9.5252 -52.75581,-25.47944"
       id="2"
       inkscape:connector-curvature="0"
       inkscape:label="#path4157"
       sodipodi:nodetypes="cccccccccccccccccccccccccccccc" />
    <path
       style="fill:none;fill-rule:evenodd;stroke:#000000;stroke-width:1.25;stroke-linecap:butt;stroke-linejoin:miter;stroke-opacity:1;stroke-miterlimit:4;stroke-dasharray:none"
       d="m 134.31889,739.20586 1.43348,-58.59752 1.43347,-65.33286 9.3176,-41.0856 16.48498,-38.39148 15.05151,-33.67674 22.21888,-31.65611 7.16738,-23.57372 -2.86695,-39.73854 -10.03434,-25.59432 -20.78541,-50.5151 -15.31006,-47.74388 -18.24518,-47.62608 -8.10896,-40.95844 -7.09535,-47.62608"
       id="path4159"
       inkscape:connector-curvature="0" />
    <path
       style="fill:none;fill-rule:evenodd;stroke:#000000;stroke-width:1.25;stroke-linecap:butt;stroke-linejoin:miter;stroke-opacity:1;stroke-miterlimit:4;stroke-dasharray:none"
       d="m 256.88115,800.4975 -2.86698,-21.5531 -9.31758,-21.55311 -3.5837,-40.41208 1.43348,-52.5357 5.73391,-43.77974 11.46781,-16.83837 15.05151,-6.06182 17.20172,0 9.3176,8.08242 7.88412,18.85896 -3.58369,33.67674 -3.58369,31.65613 -10.75107,35.69733 -14.33477,43.10622 -4.30044,39.06501 1.43348,49.84155 9.31761,28.96199 20.7854,27.61492 17.91846,18.18544 25.80257,14.14423 33.6867,6.06181 24.36911,-6.73535 26.51931,-28.28845 20.7854,-37.0444 1.43349,-38.39148 -2.32138,-52.21506 -5.06811,-62.86645 0,-36.19582 16.21793,-20.95548 32.43587,1.90504 28.3814,10.47774 31.42225,6.66766 44.59932,0.95252 35.47674,0.95252 21.6929,-14.41219 11.46782,-13.47069 5.73391,-20.20603 0,-27.61493 -13.61803,-17.5119 -12.18455,-10.77655 -9.3176,-20.87957 -2.86696,-28.28845 9.3176,-24.24725 20.78542,-33.67673 16.48497,-23.57371 17.20173,-13.4707 14.33476,-8.08241 8.60085,2.0206 0.71674,-15.49129 0,-13.4707 10.75108,-12.12362 16.48499,-14.81776 11.4678,-4.04121 -3.58369,-14.81775 -2.86695,-11.4501 0,-10.77654 3.58369,-14.14423 3.5837,-6.06181 7.16739,-16.83838 5.01716,-9.42949 3.97945,-2.40577"
       id="path4161"
       inkscape:connector-curvature="0" />
    <path
       style="fill:none;fill-rule:evenodd;stroke:#000000;stroke-width:1.25;stroke-linecap:butt;stroke-linejoin:miter;stroke-opacity:1;stroke-miterlimit:4;stroke-dasharray:none"
       d="m 174.64737,851.9555 3.04086,44.76853 4.05449,51.43617 4.05448,22.86052"
       id="path4163"
       inkscape:connector-curvature="0" />
    <path
       style="fill:none;fill-rule:evenodd;stroke:#000000;stroke-width:1.25;stroke-linecap:butt;stroke-linejoin:miter;stroke-opacity:1;stroke-miterlimit:4;stroke-dasharray:none"
       d="m 201.69229,855.72735 3.58369,-2.69415 -2.86696,-19.5325 -5.7339,-28.96199 2.86695,-16.16483 2.15022,-19.5325 5.01717,-6.73535 -2.86696,-72.0682 6.45065,-57.92398 7.88412,-31.65612 10.03433,-28.962 16.48499,-22.90017 17.20173,-11.45009 25.08583,-4.04121 30.10302,3.36768 55.84426,23.30768 m 12.29491,4.10348 64.45741,17.04212 42.28754,-3.36767 12.9013,-5.38828 13.61802,-13.4707 11.46783,-25.59431 0.71672,-43.77975 -1.43347,-76.10941 -17.91846,-4.0412 -18.63519,-6.73535 -30.10301,-27.61493 -31.53649,-30.30905 -16.48498,-24.72664 m -5.73881,-14.57327 6.45555,-11.88873 31.53648,-18.85896 36.55366,-5.38827 29.38627,4.71473 58.05579,10.10302 22.93563,13.4707 23.65236,22.22665 10.03434,19.53249 m 0.71674,37.71794 -15.0515,7.40888 -36.55365,18.18544 -27.23606,4.71474 -7.16738,0.67353 5.73391,43.10622 -0.71919,54.02425 m -1.0788,9.91118 -0.35224,31.70648 -10.75106,17.51191 -6.45065,14.14422 -10.75108,10.77655 -5.73391,1.34707"
       id="path4167"
       inkscape:connector-curvature="0"
       sodipodi:nodetypes="ccccccccccccccccccccccccccccccccccccccccccccccccccc" />
    <path
       style="fill:none;fill-rule:evenodd;stroke:#000000;stroke-width:1.25;stroke-linecap:butt;stroke-linejoin:miter;stroke-opacity:1;stroke-miterlimit:4;stroke-dasharray:none"
       d="m 211.72662,857.07441 2.15021,-10.10302 3.5837,-18.85897 0,-39.73854 -1.43348,-18.85897 2.15022,-65.33286 2.15021,-66.67993 10.75108,-35.02379 11.46781,-33.0032 26.51932,-18.18543 34.40345,0.67353 73.00428,30.3283 m 15.15451,6.7161 52.32191,11.4501 43.72103,-3.36768 25.80257,-7.40888"
       id="path4169"
       inkscape:connector-curvature="0"
       sodipodi:nodetypes="cccccccccccccccc" />
    <path
       style="fill:none;fill-rule:evenodd;stroke:#000000;stroke-width:1.25;stroke-linecap:butt;stroke-linejoin:miter;stroke-opacity:1;stroke-miterlimit:4;stroke-dasharray:none"
       d="m 170.59288,330.92609 10.1362,104.77738 -6.08171,68.58158"
       id="path4171"
       inkscape:connector-curvature="0" />
    <path
       style="fill:none;fill-rule:evenodd;stroke:#000000;stroke-width:1.25;stroke-linecap:butt;stroke-linejoin:miter;stroke-opacity:1;stroke-miterlimit:4;stroke-dasharray:none"
       d="m 545.00993,718.99982 44.43778,16.16482 63.07295,17.51191 70.24036,2.69413 68.80687,-21.55311 50.17168,-26.94137 45.87126,-48.4945 41.57081,-70.0476 22.93562,-99.68313 8.60086,-43.1062 2.86695,-66.00639 L 946.38336,270.42576 920.58078,141.10713 900.51211,73.753659"
       id="path4173"
       inkscape:connector-curvature="0" />
    <path
       style="fill:none;fill-rule:evenodd;stroke:#000000;stroke-width:1.25;stroke-linecap:butt;stroke-linejoin:miter;stroke-opacity:1;stroke-miterlimit:4;stroke-dasharray:none"
       d="m 794.43484,735.16464 -11.4678,18.85897 -21.50215,20.20604"
       id="path4175"
       inkscape:connector-curvature="0" />
    <path
       style="fill:none;fill-rule:evenodd;stroke:#000000;stroke-width:1.25;stroke-linecap:butt;stroke-linejoin:miter;stroke-opacity:1;stroke-miterlimit:4;stroke-dasharray:none"
       d="m 762.89836,778.27086 -1.43347,26.94139 -1.43348,32.32966 -2.86694,35.02379 1.43346,36.37089 1.43348,45.80035 -4.30042,13.47069"
       id="path4177"
       inkscape:connector-curvature="0" />
    <path
       style="fill:none;fill-rule:evenodd;stroke:#000000;stroke-width:1.25;stroke-linecap:butt;stroke-linejoin:miter;stroke-opacity:1;stroke-miterlimit:4;stroke-dasharray:none"
       d="m 306.4181,770.99115 -8.10896,18.09792 -2.02725,20.00296 1.01363,34.29077 7.09533,29.52818 13.17708,19.05044 18.24518,15.24034 23.31329,5.71513 13.17707,1.90504 18.24518,-4.7626 15.20431,-26.67061 4.05448,-27.62314 -3.04086,-37.14835 -9.12259,-34.29078 -18.24518,-20.95547 -21.28604,-11.43027 -21.28603,2.85756 -14.19071,9.52523 z"
       id="path4179"
       inkscape:connector-curvature="0" />
    <path
       style="fill:none;fill-rule:evenodd;stroke:#000000;stroke-width:1.25;stroke-linecap:butt;stroke-linejoin:miter;stroke-opacity:1;stroke-miterlimit:4;stroke-dasharray:none"
       d="m 308.4863,770.86198 -9.31761,-6.73535 2.15023,-6.73534 9.3176,-16.83837 23.65235,-16.16483 26.51933,-2.69413 19.35192,9.42948 12.90129,9.42948 17.91846,20.20604 6.45065,18.18544 0.71673,30.98259 2.86696,31.65613 -2.15022,27.61491 -2.15021,16.16484 -8.60086,19.5325 -4.30042,6.73535 1.43346,8.08241 -7.88411,4.04121 -5.73392,-0.67354 -7.88411,-4.04121 0,-7.40887 7.31164,-2.52391 14.6975,-24.2893 4.56128,-29.52818 -3.04085,-36.6721 -8.61578,-34.29078 -20.27242,-22.38426 -19.25879,-9.52522 -22.80647,2.3813 -15.20432,10.95401 z"
       id="path4181"
       inkscape:connector-curvature="0" />
    <path
       style="fill:none;fill-rule:evenodd;stroke:#000000;stroke-width:1.25;stroke-linecap:butt;stroke-linejoin:miter;stroke-opacity:1;stroke-miterlimit:4;stroke-dasharray:none"
       d="m 407.27339,916.25072 13.68388,-12.38277 8.61578,-18.57419 3.04086,-27.14686 1.01362,-47.6261 -3.04086,-43.816 -8.10896,-16.19287 -4.05449,-47.62609 -1.01362,-49.53113 -4.05448,-12.85905 -18.24518,-47.14982 -7.09534,-11.90653 -3.04087,-27.62313 -8.61579,-34.76704 -10.64301,-46.67358 -4.56129,-32.862 -6.58854,-48.57861 5.57491,-21.908 15.71113,-23.81303 15.20432,-13.81157 27.87457,-12.38279 32.94269,-7.62018 38.51759,0 61.32406,6.66766 40.54485,12.38279 24.3269,14.76409 9.12259,13.81155 3.04087,11.90653 -1.52044,13.3353 -6.58853,10.00149 -3.04086,10.00147 0,12.38279 0.50681,17.62165 4.05448,5.23886 9.12259,-10.00147 10.64301,-14.28783 -1.01361,-23.81304 0.5068,-21.90801 -5.5749,-20.97461 -12.67027,-12.36364 -24.32691,-12.38279 -25.34052,-10.00147 -41.55845,-9.04896 -35.47674,-4.28635 -47.64019,0.47626 -34.96992,4.76261 -27.87458,12.38278 -22.29966,16.66913 -15.71113,19.05043 -7.09534,21.908 1.01362,40.48218 5.0681,29.52817 14.1907,60.48514 17.73837,84.29818 3.04085,15.24035 16.72475,40.95843 2.53405,7.14391 0,9.52523 2.02725,87.15574 8.11933,10.5838 6.45064,18.52221 0.71674,36.0341 2.86696,25.25754 -3.94206,39.40178 -0.71674,4.71473 -9.67597,21.55312 -3.58368,6.39857 2.1502,5.72505 z"
       id="path4183"
       inkscape:connector-curvature="0" />
    <path
       style="fill:none;fill-rule:evenodd;stroke:#000000;stroke-width:1.25;stroke-linecap:butt;stroke-linejoin:miter;stroke-opacity:1;stroke-miterlimit:4;stroke-dasharray:none"
       d="m 616.63364,429.3934 -33.49702,11.54894 -28.38138,6.1914 -38.01078,-1.42879 -26.86096,-3.33382 -31.92906,-20.95548 -35.98354,-40.95844 -31.42225,-39.52966 -15.20432,-28.57564 -5.0681,-27.62314 5.57491,-9.04896 22.80647,-7.14391 26.35415,-13.81155 35.98354,-6.66766 42.57209,-1.42878 42.06527,4.28635 32.94268,11.43025 30.40862,15.71661 29.39502,23.33679 13.68388,25.24182 12.67025,29.05192 2.02725,20.95547 -10.13621,20.00297 -14.60564,15.7166"
       id="path4185"
       inkscape:connector-curvature="0"
       sodipodi:nodetypes="cccccccccccccccccccccccc" />
    <path
       style="fill:none;fill-rule:evenodd;stroke:#000000;stroke-width:1.25;stroke-linecap:butt;stroke-linejoin:miter;stroke-opacity:1;stroke-miterlimit:4;stroke-dasharray:none"
       d="m 547.65989,504.28505 22.29966,-8.5727 24.32691,-21.908 18.24518,-17.14539 13.17707,-7.62018 6.08173,-1.90504"
       id="path4189"
       inkscape:connector-curvature="0" />
    <path
       style="fill:none;fill-rule:evenodd;stroke:#000000;stroke-width:1.25;stroke-linecap:butt;stroke-linejoin:miter;stroke-opacity:1;stroke-miterlimit:4;stroke-dasharray:none"
       d="m 545.63266,513.81027 22.29965,-4.76261 18.24519,-14.28783 15.71113,-17.62165 13.68388,-13.81157 15.71112,-9.52522 8.10896,-3.33382"
       id="path4191"
       inkscape:connector-curvature="0" />
    <path
       style="fill:none;fill-rule:evenodd;stroke:#000000;stroke-width:1.25;stroke-linecap:butt;stroke-linejoin:miter;stroke-opacity:1;stroke-miterlimit:4;stroke-dasharray:none"
       d="m 632.50473,446.41903 3.3402,-12.14433 6.33512,-7.62018 3.80108,-9.52521 7.85556,-10.47774 6.33513,-7.62018 9.376,-10.23961 6.58853,-5.95327 1.26703,-9.28708 3.54767,-5.23887 5.82833,-3.57195 5.57491,-0.95253 4.05448,-0.47626 1.52044,1.66691 0,2.61944 0,6.66765 -0.25341,5.95327 -1.52044,5.00074 -2.02723,1.19065 2.28064,1.66691 1.52044,1.90504 0.2534,2.85757 0.25341,4.76261 -0.50681,7.14391 -3.80108,4.28635 -2.02724,0.23813 -2.02724,2.38131 0,2.85756 -1.01363,5.00074 -3.29427,4.28635 -2.78745,0.23813 -6.08173,1.42878 -2.26027,3.33383 -1.79422,5.23887 -3.29426,1.6669 -2.02725,2.85757 -4.30789,4.04822 -1.77382,4.52448 -3.54769,0.71439 -4.05448,0 -1.26703,2.14317 -1.26702,1.90504 -5.32151,0 -6.58854,-0.47625"
       id="path4193"
       inkscape:connector-curvature="0"
       sodipodi:nodetypes="cccccccccccccccccccccccccccccccccccccccccccc" />
    <path
       style="fill:none;fill-rule:evenodd;stroke:#000000;stroke-width:1.25;stroke-linecap:butt;stroke-linejoin:miter;stroke-opacity:1;stroke-miterlimit:4;stroke-dasharray:none"
       d="m 952.09466,305.20799 -5.0681,53.34123 -11.14983,81.91686 -37.50397,83.82193 -38.5176,66.67653 -26.35416,33.33825 -38.51758,26.67061 -25.34053,14.28783 -20.27242,6.66765 -22.29966,-3.81009 -15.20432,-18.09791 -9.12259,-32.38573 2.02725,-38.10088 12.16345,-27.62314 29.39501,-15.24035 13.17708,-11.43025 0,-12.38278 -1.01363,-11.43026 19.2588,-4.76262 23.31328,-28.57565 14.19069,-29.52818 10.13621,-26.6706 0,-22.86053 -1.01362,-6.66765 7.09536,-24.76557 11.14983,-21.908 2.02723,-30.4807 -18.24518,-18.09791"
       id="path4195"
       inkscape:connector-curvature="0" />
    <path
       style="fill:none;fill-rule:evenodd;stroke:#000000;stroke-width:1.25;stroke-linecap:butt;stroke-linejoin:miter;stroke-opacity:1;stroke-miterlimit:4;stroke-dasharray:none"
       d="m 674.36252,657.64105 12.16345,-9.52521 13.17708,-2.85757 8.10897,2.85757 6.08171,4.7626"
       id="path4197"
       inkscape:connector-curvature="0" />
  </g>
</svg>
