<?xml version="1.0" encoding="UTF-8" standalone="no"?>
<!--
Diese Daten wurden aus der OSM-Datenbank extrahiert und stehen unter der 
Open Database Licence (http://www.openstreetmap.org/copyright) frei zur Verfügung. 
Quelle der Rohdaten: © OpenStreetMap-Mitwirkende (http://www.openstreetmap.org) 
Generiert von: http://www.suche-postleitzahl.org 
-->

<svg
   width="780"
   height="480"
   version="1.1"
   id="svg977"
   sodipodi:docname="level4_Wuerzburg.svg"
   inkscape:version="1.2.2 (732a01da63, 2022-12-09)"
   xmlns:inkscape="http://www.inkscape.org/namespaces/inkscape"
   xmlns:sodipodi="http://sodipodi.sourceforge.net/DTD/sodipodi-0.dtd"
   xmlns="http://www.w3.org/2000/svg"
   xmlns:svg="http://www.w3.org/2000/svg"
   xmlns:rdf="http://www.w3.org/1999/02/22-rdf-syntax-ns#"
   xmlns:cc="http://creativecommons.org/ns#"
   xmlns:dc="http://purl.org/dc/elements/1.1/">
  <defs
     id="defs981" />
  <sodipodi:namedview
     id="namedview979"
     pagecolor="#ffffff"
     bordercolor="#000000"
     borderopacity="0.25"
     inkscape:showpageshadow="2"
     inkscape:pageopacity="0.0"
     inkscape:pagecheckerboard="0"
     inkscape:deskcolor="#d1d1d1"
     showgrid="false"
     inkscape:zoom="0.97698587"
     inkscape:cx="359.26825"
     inkscape:cy="281.47797"
     inkscape:window-width="1920"
     inkscape:window-height="1009"
     inkscape:window-x="-8"
     inkscape:window-y="-8"
     inkscape:window-maximized="1"
     inkscape:current-layer="svg977" />
  <metadata
     id="metadata4">
    <rdf:RDF>
      <cc:Work
         rdf:about="">
        <dc:format>image/svg+xml</dc:format>
        <dc:type
           rdf:resource="http://purl.org/dc/dcmitype/StillImage" />
      </cc:Work>
    </rdf:RDF>
  </metadata>
  <path
     id="97084"
     stroke="#000000"
     stroke-width="0.193463"
     fill="#ececec"
     d="m 331.71461,376.51874 -0.52323,-0.33424 3.81366,-6.56451 0.79952,-1.20208 0.88696,-1.21656 0.43469,-0.52738 1.41352,-1.37526 0.94836,-0.77697 0.86404,-0.5897 1.61485,-0.85822 3.93757,-2.28138 -2.40059,-6.11687 -0.37039,-6.87899 0.58796,-5.72072 3.82234,-17.93532 0.31634,-3.58317 -0.14794,-2.89213 -1.15591,-7.59438 -0.1882,-2.08065 -0.0672,-3.03768 0.55103,-3.22507 1.16949,-2.97581 1.51896,-2.43447 2.63439,-2.55953 5.64541,-4.36975 2.90335,-3.41273 4.19385,-7.59582 3.27108,-5.35903 2.76141,-4.74194 1.96857,-2.98295 9.6951,5.32173 8.11206,5.41628 14.24045,10.02749 -0.29588,1.36145 1.87713,0.98948 2.07757,1.54775 0.4189,0.25762 1.36435,0.22868 1.66201,0.76457 0.90186,0.47424 4.11933,1.24052 0.97149,0.12054 0.43936,0.13397 0.26273,0.0276 0.52768,0.21525 1.01331,0.3134 0.44203,0.0882 1.12299,0.0985 2.13852,0.42085 1.98859,0.31134 2.04753,0.4391 2.13563,0.58994 2.36166,0.83067 0.96281,0.24211 0.76772,0.0861 1.25223,0.0193 1.42954,0.18391 0.71277,0.14567 2.68912,0.85133 0.52478,0.39467 0.42224,0.2173 -0.0449,0.26966 2.21616,0.84236 0.90698,0.41292 1.35479,0.70667 1.65845,1.45362 0.6289,-0.30271 0.57106,0.57855 0.63535,1.1664 1.22243,1.07789 1.02355,1.39161 0.67984,1.34647 3.43125,5.00082 0.56639,1.42426 1.01553,3.07229 1.88047,6.91676 0.72389,1.44137 0.67339,1.21479 2.09937,2.36792 0.69965,0.66523 1.32053,1.62347 0.66494,0.89109 0.81598,1.51016 0.73257,1.11076 1.52253,2.66012 0.94346,1.81482 0.86093,2.08163 1.12387,2.59805 0.97416,2.55772 0.31901,1.19157 -0.31434,1.75102 -0.10811,1.12029 0.55726,2.54488 0.74681,2.23466 0.5735,2.78235 -0.0741,0.28608 -0.007,0.70574 -0.45693,1.2655 -0.69898,1.71749 -0.3526,1.32055 0.0652,1.40936 -0.18953,2.40249 -0.24471,1.29229 -0.56794,1.89332 -0.12147,1.73357 0.11924,1.67847 0.007,0.83097 0.43246,0.69913 0.26918,0.59413 0.14749,0.52116 0.10345,0.93939 -0.0997,0.85573 -0.10967,0.42098 -0.30811,0.89187 -0.15283,0.72424 0.0645,4.11919 -0.65137,0.16522 -5.46788,1.10972 -0.0843,0.44472 -2.89379,1.93063 0.9181,6.48978 0.25517,3.24188 -1.63843,1.3282 -0.72256,0.37377 -5.26522,0.46876 -2.22217,0.13113 -0.96148,0.005 -1.53988,0.10602 -2.5067,0.0902 -0.89429,0.16313 -1.43043,3.50539 -0.1911,0.90997 0.009,0.61193 0.14749,1.30711 -0.10522,0.60952 -0.0541,0.78883 -0.0556,1.11299 0.0509,0.67352 0.21935,0.6625 0.36862,0.8091 1.37815,2.481 0.55081,0.87376 0.69698,0.94538 0.49786,0.5675 0.82089,1.12878 0.56661,0.93845 0.49008,1.06099 3.94914,6.07907 3.41457,7.33414 0.6111,0.0719 0.57818,0.11631 3.96315,-0.0482 5.97265,0.0275 4.03746,0.2137 0.0607,1.60694 -0.0418,1.02198 0.075,4.26203 -0.0759,1.37602 -0.10078,0.74255 -0.32212,1.02745 -0.8676,2.33838 -0.90409,1.67876 -0.97994,2.41302 -0.39487,1.92473 -0.86337,0.39741 -0.26229,0.51608 0.11168,1.75819 -0.83,1.48189 -0.005,0.37261 -1.4985,1.475 -0.61155,0.1875 -0.39687,0.33887 -0.0649,1.33083 0.53791,1.81418 0.007,3.59013 -0.86671,0.72487 -1.10875,0.8553 -1.57146,0.63336 -19.16552,6.20876 -0.20912,-1.4081 -0.97861,0.22875 -0.1199,-0.71867 -5.34732,0.79815 -6.12236,0.64438 -1.43043,0.47956 -1.95366,0.75547 -0.51411,0.1641 -0.34259,-0.69527 -0.31412,0.17408 -0.86226,0.26729 -1.03533,0.18649 -1.13389,0.11248 -0.0516,-0.27212 -0.48964,-6.77225 -4.19318,1.65825 -3.46195,0.96538 -2.11272,-6.38401 -0.60153,-0.30721 -1.01821,-0.19679 -0.5744,-0.15965 -1.14612,-0.42214 -0.33592,-0.0936 -0.56015,-0.0681 -1.61975,-0.0736 -5.92727,-0.005 -0.0823,0.0124 -0.0934,0.15999 -0.80708,8.87759 -0.51211,0.16819 -9.0533,2.23756 0.16796,-0.54905 0.10856,-0.70111 0.01,-1.16352 -0.9092,-15.00723 -0.53191,-0.43626 -0.5299,-0.36027 -0.44693,-4.58468 -0.14682,-1.1571 -0.3575,-0.6269 -6.60533,-9.33226 -1.12788,-1.73393 -4.35914,2.06839 -6.8754,2.59271 -1.90338,-3.05931 -1.10475,-1.94345 -1.0667,-2.13103 -0.68896,-1.66374 -0.41067,-1.12557 7.16461,-4.86579 -5.54842,-8.68714 -0.23982,-0.44187 2.03464,-1.16526 0.85692,-0.35307 2.60547,-0.96155 -2.32317,-2.66851 -0.72566,-0.58403 -0.22336,-0.39474 0.52368,-0.006 0.16751,-0.0506 0.406,-0.26605 0.0763,-0.0829 0.0547,-0.0974 0.0968,-0.35176 -0.95502,0.0383 -3.1445,0.0371 -0.45627,0.13253 0.68941,-4.17667 -1.60506,-1.05314 -2.43351,-0.18414 -3.0515,-0.0124 0.99195,-6.18644 -0.30633,-3.00123 -0.25294,-2.13363 -0.0612,-0.81606 0.0122,-0.46328 0.0801,-0.60336 0.1228,-0.51285 0.11167,-2.33673 -0.008,-0.39169 -0.58641,-0.0599 -3.91778,-0.55416 -0.12079,-0.0599 -4.03523,-4.34211 -2.00661,-1.89005 -0.37885,-0.28191 -0.35483,-0.14182 -0.87049,-0.49601 -1.68337,-0.86225 -1.03333,-0.33011 -1.68738,-0.31667 -3.15695,-0.65711 -0.99796,-0.253 -4.19629,-1.66327 -1.66291,-1.15831 z" />
  <path
     id="97082"
     stroke="#000000"
     stroke-width="0.193463"
     fill="#ececec"
     d="m 220.99231,177.09639 -0.0957,-0.46664 0.17419,0.0155 0.73168,0.75751 1.49894,0.67721 0.45361,-0.11959 3.312,-0.65515 2.30449,-1.41922 1.36324,-1.46644 0.69274,-0.95811 0.73235,-1.40788 1.49583,0.85507 1.49405,-2.73133 -0.55148,-0.16543 -1.15613,-0.72136 0.54503,-1.05085 0.721,-1.53509 0.15728,-0.48183 0.13459,-0.0755 1.07849,0.14993 0.75815,0.18715 0.36061,0.16027 0.69119,0.41014 0.48808,0.46253 2.04042,2.49081 0.1753,0.17956 0.53413,0.41082 1.06181,1.26762 1.54211,1.51092 1.23288,1.26277 2.30181,-2.26878 2.15699,3.4633 4.01142,2.5379 3.96961,1.13901 6.48965,-0.26054 21.21217,-12.98243 9.68198,-6.18225 8.02286,-4.00237 5.83873,-1.98502 7.32544,-0.8593 3.87817,0.55322 4.7985,3.49885 2.59479,2.63745 6.53326,7.72287 2.32961,3.00124 2.64952,5.32991 3.33827,14.33531 1.74231,18.28566 0.3486,9.58328 2.3423,9.25921 3.61256,8.29441 8.96787,17.98133 4.40875,5.36998 5.57822,3.91275 2.00105,1.26692 1.82085,1.02372 -1.96857,2.98295 -2.76141,4.74194 -3.27108,5.35902 -4.19385,7.59583 -2.90335,3.41273 -5.64541,4.36975 -2.63439,2.55952 -1.51896,2.43448 -1.16949,2.9758 -0.55103,3.22508 0.0672,3.03768 0.1882,2.08064 1.15591,7.59438 0.14794,2.89214 -0.31634,3.58316 -3.82234,17.93533 -0.58796,5.72071 0.37039,6.879 2.40059,6.11687 -3.93757,2.28138 -1.61485,0.85821 -0.86404,0.58971 -0.94836,0.77697 -1.41352,1.37526 -0.43469,0.52738 -0.88696,1.21656 -0.79952,1.20208 -3.81366,6.56451 -0.70654,-0.4444 -2.12963,-1.53353 -2.10916,-1.15662 -2.39925,-1.01239 -2.89934,-1.52427 -2.11828,-2.11294 -1.75989,-1.84274 -3.78719,-3.43353 -1.62197,-1.67032 -1.60061,-1.37393 -2.12429,-1.23899 -3.13047,-1.6504 -2.64419,-1.62287 -1.69983,-0.58629 -1.97723,-1.1292 -2.34586,-0.92403 -1.56502,-0.8056 -1.12922,-0.96157 -1.85978,-1.50139 -2.03775,-2.18861 -0.98439,1.22462 -1.72764,1.9593 -1.71429,1.84153 -2.07912,1.94548 -0.86315,0.86136 -1.09407,1.21148 -0.0647,0.10741 -0.61844,-0.30502 -0.40733,0.52087 -0.86516,0.28609 -0.85803,0.4138 -0.39087,0.0489 -0.75169,0.008 -0.8071,0.16525 -3.74113,1.17668 -7.06561,-1.07822 -1.29806,-0.0303 -1.25246,0.37146 -0.52768,-1.34711 -0.41244,-0.40037 -1.0656,-0.45203 -3.92667,1.8339 -0.42534,0.26199 -1.67625,-0.95843 -2.49513,-3.63995 -0.86494,-1.08963 -0.3566,0.11775 -0.4189,0.0657 -0.60175,-0.50574 -1.0676,-0.65171 -0.57328,-0.16835 -1.79705,-0.43414 -0.47006,-0.0616 -0.59508,-0.14081 -0.0801,-0.0427 -0.42335,-0.38938 -0.30677,-0.33464 -1.08272,-1.81402 -2.01373,-3.55511 -2.22662,-4.18972 -0.93033,-1.59515 -4.77759,-7.57104 -1.59038,-2.86544 1.32231,-0.65869 0.57707,-0.51753 0.24515,-0.35259 1.69894,-1.19895 1.32721,-2.90685 0.63691,-1.49098 0.17841,-0.28512 1.93008,-1.82088 1.31987,-1.13323 4.24145,-1.63875 1.60083,-1.4783 0.36951,0.16701 0.21623,-0.004 1.78704,-1.45765 0.47429,-0.0551 0.10656,-0.0424 1.75744,-2.13225 0.1188,-0.0434 0.36906,-0.0231 1.96857,-2.36026 2.02284,-0.98144 1.49539,-0.5255 1.16948,-0.56167 0.77928,-0.007 0.1297,-0.0434 0.10077,-0.0923 0.68607,-1.19979 1.23867,-2.01596 0.1684,-0.94601 0.44204,-0.89365 0.72389,-1.31623 0.26072,-0.38536 0.8943,-1.0576 0.39064,-0.55825 1.37481,-1.73779 -0.5804,-0.32475 0.36973,-1.51223 0.45405,-2.06568 0.89096,-0.87305 0.32946,-0.79075 0.70899,-1.32973 0.92744,-1.18234 0.17085,-1.31599 1.59794,-1.23815 0.24827,-0.40021 1.18995,-0.96608 0.23936,-0.38643 0.95414,-1.18996 0.3664,-0.2962 0.25027,-0.13846 0.35794,-0.5831 0.29788,-0.14775 0.0845,-0.94682 0.095,-0.15016 0.20088,-0.62513 0.0443,-0.63133 0.30833,-0.31067 0.10544,-0.90929 -0.17797,-1.1373 -0.0943,-0.85419 -0.66115,0.20597 -0.75014,0.13226 -1.02533,0.0809 -0.47072,-0.0337 -0.92723,-0.14845 -2.30715,-0.42778 -1.62152,-0.15362 -0.30989,-0.0183 -2.41838,0.17083 -1.16214,-0.005 -1.88024,-0.4395 -2.08625,-0.27141 -0.63869,-0.14604 -1.51341,-0.73674 -1.13299,-0.59725 -0.47985,-0.13847 -0.37908,-0.0844 -0.49186,-0.043 -0.88495,-0.042 -0.49587,0.0245 -0.60732,0.0744 -1.9461,0.4767 -0.72032,0.0544 -2.20482,0.27521 -1.16036,0.17703 -0.72634,0.19117 -6.79087,2.9442 -2.78366,1.02363 -2.56298,0.99264 -1.45468,0.60825 -0.94368,0.46153 -4.37582,2.78772 -0.13926,-0.69296 -0.0194,-0.50182 0.0327,-0.32548 -0.0133,-2.7106 0.0278,-0.10849 0.13326,-0.17773 0.55927,-0.23731 1.35679,-0.7908 2.22529,-2.95005 0.38486,-0.74776 0.26117,-0.71196 0.0897,-0.80357 0.022,-0.7495 -0.13682,-0.7712 -0.33235,-0.75088 -0.88963,-1.3144 -0.57929,-0.6827 -0.90742,-0.93862 -2.74206,-2.66571 0.44715,-0.516 0.49853,-0.23147 0.62156,-0.18084 1.05936,-0.49533 2.40148,-0.90248 0.10923,-0.0114 0.41177,0.11299 0.35327,-0.0103 0.13147,-0.0448 0.39888,-0.27144 1.30251,-1.06576 1.01576,-0.66481 3.41879,-1.80397 0.94302,-0.40199 0.99196,-0.40096 0.47562,-0.14916 0.74013,-0.0417 1.47003,-0.46538 1.96077,-0.37099 1.05002,-0.27489 1.17883,-0.35756 3.39432,-1.3152 0.12302,-0.13366 0.0514,-0.16121 0.0116,-0.27111 -0.0576,-0.52291 2.20059,-0.74511 2.08847,-0.8078 2.09337,-0.71721 3.49131,-1.11785 1.71696,-0.91908 2.2849,-1.82751 2.24531,-1.8985 0.90853,-0.82196 0.41623,-0.49263 0.5606,-1.18473 -1.88002,-0.73172 1.2311,-3.07779 -1.12232,-0.26562 0.7032,-1.68189 1.09251,0.45268 0.48497,-1.36667 0.43535,-1.52999 2.86731,0.39757 0.0445,-0.21395 3.02593,0.0661 0.0434,-0.66526 2.62282,-0.68077 0.37841,0.29388 0.3506,-0.4651 0.60665,-0.70661 0.42646,-0.34727 1.09562,-0.72212 1.29362,-0.70421 0.33703,1.97446 -0.20489,0.053 0.49542,2.62247 0.1822,1.13413 0.33703,1.39251 1.43821,1.97988 1.04713,1.30498 0.58908,0.29214 0.63735,0.42304 1.45935,1.12583 1.26959,0.42339 -0.13125,0.72103 2.96118,0.22048 2.42016,-0.16812 1.66891,-0.19395 -0.14615,0.25561 -0.26852,1.1203 0.51233,0.0682 3.99608,0.86881 1.09073,0.4661 0.69208,0.38342 0.36951,0.45059 1.963,2.13099 4.96045,-0.97662 -0.68629,-1.59532 -2.3205,-4.599 -1.15146,-2.05288 -1.35991,-2.2796 -1.08005,-1.46003 -1.18416,-1.18891 -0.94858,-1.01563 -2.32918,-3.13753 -1.15947,-1.64958 -1.38905,-1.55657 -0.21712,-0.44169 -0.40666,-0.37244 -0.51744,-0.63704 -0.37129,-0.38036 -2.26333,-2.18366 -3.41901,-3.71139 -0.14905,-0.3418 -0.0383,-0.45893 -1.78081,-1.35338 -1.97101,-1.18698 -0.1793,-0.0272 -0.74992,0.23946 -1.66312,-1.12186 -0.59976,-0.48513 -0.62934,-0.62399 -0.55282,-0.76905 -0.12169,-0.67671 -1.8115,-3.0001 -0.43692,-0.5675 0.15817,-0.32941 0.40177,-0.6781 -1.2796,-1.34038 0.0245,-0.59611 -3.12359,-3.48366 -0.1604,-0.49585 -2.31093,-1.03685 -2.787,-1.17537 -2.88354,-1.06443 -2.46021,-0.74465 -3.07843,-1.0958 -1.21575,-0.50379 -1.59838,-0.94315 -2.13564,-1.36391 -3.35094,-2.42219 -3.16919,-2.24268 -2.45419,-2.03078 0.52412,-0.86291 -3.75516,-2.83997 0.27563,-0.91738 -0.53035,-0.43904 -0.57306,-0.57759 -0.39242,-0.49246 -1.08005,-1.5777 -0.81733,-0.91705 -1.55945,-0.27846 -1.64421,-0.45905 -2.34119,-0.89121 0.17774,-1.36337 -0.40866,-0.56555 -0.85381,-0.7003 -0.37529,-0.43666 -1.96945,1.83347 -2.40148,2.53786 -0.48007,0.63929 -0.68652,1.53738 -0.82555,1.08419 -4.57314,1.46325 -1.14657,0.10098 z" />
  <path
     id="97080"
     stroke="#000000"
     stroke-width="0.193463"
     fill="#ececec"
     d="m 359.43912,44.984049 3.92822,11.390577 -6.55705,0.743916 1.53832,12.16189 9.33204,-0.87422 0.72145,23.15958 6.05919,-0.05724 -0.30856,4.977646 -1.12054,9.989322 7.90563,2.23451 13.95079,4.98817 2.15209,4.89941 14.24912,5.43604 -1.77814,3.01925 0.0358,1.86158 0.72211,0.0121 0.0118,1.00249 1.242,0.26165 -0.15705,0.968 -3.05129,5.0692 0.0503,1.42437 1.76746,0.7315 8.85975,-2.27618 0.0941,1.91629 -1.86156,0.73666 -0.85671,5.0269 -1.36635,4.40666 -2.472,2.83371 1.19818,0.95686 -1.30963,1.4401 0.95169,0.80759 0.57996,-0.58424 1.71852,0.13719 0.22023,1.87679 -0.46428,4.10785 0.11702,2.40821 2.59257,0.67348 2.11828,0.83271 -5.31662,3.56171 -6.89698,0.008 -2.58189,-0.36706 -2.39724,-0.25263 -1.59972,-0.3288 -1.95677,-0.29193 -3.4822,3.49205 3.40656,4.48868 1.94921,1.23692 -4.69684,0.74546 -7.51164,-0.34947 -8.31539,-0.559 -4.50685,-2.85882 -0.31279,-0.44976 -1.44577,0.29743 -0.33192,-1.09185 1.01332,-0.38428 -0.20956,-0.6376 1.93808,-1.44961 -0.12213,-6.73984 -19.42914,-4.0823 -7.10476,-0.67246 -0.78684,2.69467 1.7045,1.40832 2.74229,0.51872 0.10922,0.90889 -11.21518,3.28429 -6.78731,4.83895 -2.32962,-3.00123 -6.53325,-7.72288 -2.59479,-2.63744 -4.7985,-3.49886 -3.87817,-0.55322 -7.32545,0.8593 -5.83873,1.98502 -8.02285,4.00237 -9.68198,6.18225 -21.21217,12.98244 -6.48965,0.26054 -3.96961,-1.13901 -4.01142,-2.5379 -2.15699,-3.46331 -1.1419,-1.77528 -1.81417,-3.10636 -3.37452,-6.57719 -1.21086,-2.86837 -1.74366,-3.04213 -1.77702,-2.4545 -1.94543,-2.39938 -2.13852,-3.68238 -0.8874,-1.89379 -0.86427,-2.41776 -0.67851,-1.61187 -0.86226,-2.24788 -0.97527,-4.0222 -1.01576,-5.24403 -0.8676,-4.79982 -0.85114,-3.25442 -0.70031,-3.69475 -1.06158,-4.3654 -0.13259,-2.96469 0.44114,-3.77429 0.73969,-4.72635 0.1555,-2.504247 -0.50677,-3.282849 -0.70698,-2.749491 -0.90454,-2.073702 3.18188,-1.740284 0.90475,-0.439644 2.40547,-1.033769 1.85801,-0.85516 1.30273,-0.658266 1.09162,-0.452064 0.92388,-0.321725 0.34193,0.939305 -0.10122,0.475508 0.0229,0.696888 0.12969,0.457231 0.71989,1.250316 0.0821,0.461018 0.55259,0.434471 1.58482,0.144478 1.93141,0.04172 0.84958,2.111292 0.67206,1.132354 0.4714,0.617553 0.96526,-0.442732 1.09918,-0.24309 0.28675,0.610654 0.27474,0.742023 0.6774,1.577481 0.26895,0.896832 7.39419,-2.80705 3.30177,-0.98822 0.067,-2.211618 1.62219,-1.44167 -1.20418,-2.305807 -1.27004,-2.293073 -1.06625,-1.502069 -0.8943,-1.674499 1.90583,-0.623113 1.73209,-0.475872 1.27381,-0.494151 1.51141,-0.886575 1.38059,-0.686573 2.04109,-0.953826 2.09559,-0.935556 2.41816,-0.931423 1.88425,-1.14696 2.58923,-1.407327 1.12143,0.612798 1.93185,1.814585 2.12496,1.171089 1.32631,0.176214 2.369,0.542095 2.95941,0.425877 0.72122,-0.327943 0.99908,0.101727 -0.59642,3.518719 4.19095,0.726561 0.62779,0.363111 1.47247,0.392761 0.58886,-0.04793 0.63134,-0.419315 0.0879,-0.574833 0.38553,-1.852453 2.04843,0.236903 0.12191,-0.478976 0.72544,-0.280355 0.21045,-0.537258 4.39629,0.493122 1.10675,-6.81689 0.99863,-5.602902 1.62464,0.122771 0.13792,-0.06621 0.11101,-0.150015 0.0707,-0.253475 -0.0289,-0.697662 0.33925,-11.899659 0.0363,-0.202107 0.25806,-0.843258 -0.34682,-0.05553 -0.37907,-0.110367 0.43469,-5.275215 0.0821,-3.723275 0.14794,-7.651341 -0.17597,-7.95386 1.23511,-4.821692 0.25004,-6.006435 0.0794,-2.901878 0.45627,-0.07314 0.313,-0.133157 3.78141,-1.734874 1.36725,-0.356707 1.73253,-1.072535 0.33948,0.176283 0.13103,0.193877 0.2298,0.171454 3.72823,1.936696 3.14205,1.04699 1.40485,0.609911 0.727,0.20215 0.93279,0.82965 0.83467,1.329848 0.65159,1.329837 0.26073,0.644042 1.10919,-0.218358 1.81796,0.09072 0.51744,-0.195591 0.57796,-0.69717 0.19421,-0.461216 0.10656,-0.759616 -0.0761,-0.702008 -0.21112,-0.488126 -0.37462,-0.683384 -1.33014,-2.007058 -0.13993,-0.294609 -0.13147,-0.175591 -0.19088,-3.070307 1.06226,0.133509 1.03267,0.522988 1.2707,1.069436 0.90431,1.086677 1.22643,2.255089 2.53495,3.713915 4.6995,6.566244 0.25339,0.552952 2.39146,-2.014855 1.52853,-0.863765 2.88177,-0.875149 0.63491,-0.269757 5.51237,10.278704 2.25821,4.12572 1.65334,3.880038 0.78484,2.334397 z" />
  <path
     id="97078"
     stroke="#000000"
     stroke-width="0.193463"
     fill="#ececec"
     d="m 485.2194,86.362483 0.21757,0.265861 -19.65805,19.688916 -6.60667,9.1058 -6.82068,10.39808 -9.00569,13.22619 -5.12663,6.18924 -11.13109,9.24189 -3.64592,3.65773 -3.18966,5.54815 -2.11828,-0.83271 -2.59257,-0.67348 -0.11702,-2.40821 0.46428,-4.10784 -0.22023,-1.8768 -1.71852,-0.13718 -0.57996,0.58423 -0.95169,-0.80759 1.30963,-1.4401 -1.19817,-0.95686 2.47199,-2.83371 1.36636,-4.40665 0.8567,-5.02691 1.86156,-0.73666 -0.0941,-1.91629 -8.85975,2.27618 -1.76746,-0.73149 -0.0503,-1.42438 3.05129,-5.06919 0.15705,-0.96801 -1.242,-0.26165 -0.0118,-1.00249 -0.72211,-0.0121 -0.0358,-1.86159 1.77814,-3.01925 -14.24911,-5.43604 -2.1521,-4.89941 -13.95079,-4.98816 -7.90563,-2.23452 1.12054,-9.989322 0.30856,-4.977646 -6.05919,0.05724 -0.72145,-23.15958 -9.33204,0.874221 -1.53832,-12.161891 6.55706,-0.743915 -3.77785,-10.912879 7.66492,-1.776976 0.40088,-0.02932 1.59393,6.768412 7.66336,-1.034009 -0.32279,1.853483 -0.003,0.151757 0.0467,0.21349 0.0805,0.108641 0.36661,0.0023 10.38362,-1.257149 0.44003,1.308537 0.13081,0.281783 0.76215,-0.389387 2.48356,-1.161613 0.35128,-0.18521 0.2863,-0.200729 2.46377,-1.067123 4.74577,-2.228762 -1.57792,-1.815247 -0.68452,-0.622904 -0.9795,-0.720177 -1.24623,-0.653951 -0.68518,-0.254203 0.0387,-0.471496 0.17241,-0.658791 0.47718,-0.602223 0.64136,-0.335949 0.81287,-0.308356 0.42557,-0.0921 3.52469,-0.593607 3.29198,-0.206951 4.31687,-0.801253 1.88069,-0.916806 1.38149,-0.437706 1.20508,-0.554642 1.56412,-0.623628 0.94502,-0.545329 2.43707,-1.169313 4.47771,-1.047904 4.58293,-0.804728 3.59943,-1.006177 3.02081,-0.751967 2.24308,-0.308717 0.8676,-0.195928 0.76549,-0.1328 1.4371,-0.464981 -0.0901,0.474638 -0.0454,0.578118 4.63499,-0.649521 1.13478,-0.235595 0.9726,0.203171 1.9025,0.606057 1.80883,0.322174 2.74028,0.685389 1.5341,0.6847 0.92544,1.195539 1.30785,0.628812 0.9835,0.289397 0.39065,0.04829 1.52831,-1.104817 1.14412,-0.478077 1.6015,-0.946847 0.97861,-0.441861 0.56483,-0.381501 0.91921,1.835057 0.60732,1.917133 0.40488,0.996496 1.47759,2.025406 1.61263,1.586295 0.7448,-0.427011 8.78746,-4.559232 1.7283,-0.962703 1.25758,3.122646 0.71521,1.361074 1.44178,3.341928 0.40688,1.462781 0.39954,1.888736 0.22513,2.014258 0.002,1.651055 -0.1079,1.308208 -0.418,2.526366 -0.34371,1.406472 -1.60172,5.388147 -0.22002,0.842538 -0.17886,0.908754 -0.27896,2.019238 -0.0474,1.488117 0.14727,1.623633 0.39265,1.877093 0.63646,2.01157 0.60287,1.708761 0.48341,1.227673 0.02,0.172425 0.44981,0.533142 -1.02822,3.347771 -0.56505,1.469714 -0.30655,0.204146 0.12458,0.672435 0.64224,1.477971 0.96638,1.560719 1.69338,2.493807 z" />
  <path
     id="97076"
     stroke="#000000"
     stroke-width="0.193463"
     fill="#ececec"
     d="m 509.23658,203.74152 -0.85781,1.85074 -13.01134,-6.83518 -1.37993,0.78532 -7.29807,-6.23925 -4.62698,-4.67667 -2.19859,-1.62658 -3.79609,-2.14145 -3.33337,-1.66591 -1.84843,-0.62307 -5.97021,-1.2927 -3.13581,0.0755 -2.40348,0.11132 -12.58043,1.50119 -5.87588,-0.40011 -6.10657,-0.97667 -13.33681,-2.00022 -15.71046,-2.52858 -2.81481,-0.92363 -1.57458,-0.90433 -1.94921,-1.23692 -3.40656,-4.48868 3.4822,-3.49205 1.95677,0.29192 1.59972,0.32881 2.39725,0.25263 2.58189,0.36706 6.89698,-0.008 5.31661,-3.56172 3.18966,-5.54814 3.64592,-3.65773 11.13109,-9.24189 5.12663,-6.18924 9.00569,-13.22619 6.82068,-10.39809 6.60667,-9.10579 19.65805,-19.68892 0.68029,-0.620683 1.00085,-1.003098 0.30232,-0.276895 0.2812,-0.19 0.36928,-0.462067 0.6447,-0.333449 0.91609,-0.667246 0.66739,-0.368624 0.0836,0.02171 0.1555,0.167244 1.21176,1.414145 0.83423,1.158618 0.29565,0.508614 4.95355,4.270253 4.00742,3.845338 4.03947,4.036956 -0.51211,0.440998 2.59301,3.053846 -0.67495,0.8506 0.80198,0.81853 0.6269,0.80095 6.1326,-3.85028 0.69964,1.19091 -2.47289,2.00461 2.23263,3.66713 0.20311,0.6868 0.0294,0.20101 -0.0403,1.44841 0.10122,4.1107 -0.50833,5.07628 -0.0461,0.87602 0.0325,0.92739 0.8478,6.57018 1.22554,-0.001 0.52657,6.13108 0.70075,3.96948 3.85437,1.87561 5.01763,2.14756 0.28319,0.17442 -4.44145,11.00313 5.32618,2.60754 6.52547,-2.3187 0.727,-0.16786 0.20155,0.4543 0.58263,1.64793 2.11628,5.51346 -16.07375,5.80002 1.37415,4.81827 0.31723,1.40685 1.21842,4.20188 1.38705,4.05772 0.39064,0.8657 -0.12769,0.0713 -0.11168,0.13716 -0.40688,1.0742 -1.18705,1.08557 -1.52832,1.24408 -3.27063,3.05744 -1.5708,1.87607 -2.16455,2.22065 -1.90628,3.19791 -2.10827,-0.60684 -0.12814,0.48692 -0.0872,0.19917 -0.34971,1.13649 -1.05536,2.53035 z" />
  <path
     id="97074"
     stroke="#000000"
     stroke-width="0.193463"
     fill="#ececec"
     d="m 405.16145,285.15822 -0.19532,0.90271 -14.24045,-10.02749 -8.11206,-5.41628 -9.6951,-5.32173 7.91363,-7.25642 -0.28164,-4.94872 -1.72386,-8.6563 -0.91743,-2.97165 -0.2823,-1.24883 -2.23129,-11.32395 -1.04157,-4.83105 -0.0812,-0.86204 -0.0674,-1.87948 0.10055,-1.45123 0.21,-1.37785 0.66961,-2.55625 0.73724,-1.88094 2.01706,-3.19168 0.4298,-0.48895 1.29584,-1.32073 2.39257,-2.17356 2.46666,-2.1188 2.33073,-2.22669 1.77835,-2.17605 0.97572,-1.25672 2.59101,-4.33087 3.55227,-4.89718 2.3165,-4.98485 0.78284,-2.74527 0.53324,-3.01205 0.77706,-1.69078 1.21442,-2.20533 1.57458,0.90433 2.81481,0.92363 15.71046,2.52858 13.33681,2.00022 6.10657,0.97667 5.87588,0.40011 12.58043,-1.50119 2.40348,-0.11132 3.13581,-0.0755 5.97021,1.2927 1.84843,0.62307 3.33337,1.66591 3.79609,2.14145 2.19859,1.62658 4.62698,4.67667 7.29807,6.23925 1.37993,-0.78532 13.01134,6.83518 -0.55081,1.21566 -0.48719,1.29318 -0.24983,0.41659 -0.6151,1.38276 -0.97839,0.0152 -1.65823,0.11026 -3.73091,0.0858 -0.74502,-0.0972 -0.71076,-0.27428 -0.34771,-0.25326 -0.307,-0.28564 -0.92388,-1.05749 -0.45427,-0.58612 -0.44359,-0.5017 -0.26206,-0.39591 -1.25268,-0.25258 -0.79708,-0.30564 -2.01239,-0.3463 -0.44359,-0.11577 0.55683,-0.37043 1.68069,-1.48582 -1.38616,-0.76153 -0.30032,-0.13542 -1.59705,-0.49034 -0.77573,-0.14679 -1.31319,-0.0999 -3.61033,-0.42729 -3.30467,0.003 -0.0736,-1.08958 -6.84136,0.0389 -0.095,2.33869 0.0182,0.70157 0.18798,1.40692 0.11056,0.50963 0.1228,1.36349 -0.68162,0.16298 -0.4952,0.18297 -1.12165,0.66709 -0.67717,0.53615 -0.38753,0.38455 -0.36795,0.43898 -0.57596,0.81869 -0.62823,1.17532 -1.72741,3.91215 -1.2469,3.17782 -0.49654,0.89307 -0.83779,1.20385 -0.77016,0.95026 -0.52256,0.55299 -0.63958,0.59503 -0.62378,0.51508 -0.76638,0.50407 -0.78752,0.45892 -0.92611,0.46513 -0.74591,0.30044 -1.15502,0.37072 -0.57306,0.12851 -0.67273,0.10026 -0.60331,0.25117 -2.18124,-0.003 0.11546,1.25721 -3.47619,0.0572 1.01821,1.05565 1.10096,1.0546 0.79441,0.68768 0.12503,0.48682 -0.3179,4.73165 -0.62734,0.26321 0.0545,1.04491 0.78307,7.69661 0.59352,1.56263 0.97817,2.72665 1.72118,4.94197 3.36919,-0.35585 -0.0676,1.45749 0.23024,2.50053 0.41757,2.69202 0.57973,3.42155 0.18553,0.76848 0.31879,1.07023 -1.82507,0.19944 -0.59843,-0.30002 -4.2895,-1.59794 -2.3136,-0.74713 -2.23552,-0.39406 -0.67162,-2.09124 -1.04846,-0.70891 -0.84802,-0.63209 -0.74258,-0.75853 -0.32457,0.36893 -1.89493,1.66688 -0.33213,0.24939 -0.16218,0.24285 -0.21022,0.17671 -0.35127,0.18911 -0.34993,0.11401 -3.69665,2.36679 -0.57951,-0.59074 -1.81284,-1.37784 -1.1172,-0.91697 -1.31764,0.45297 -1.99882,0.58972 -0.35616,0.30485 -2.44664,0.97999 -0.58485,0.12676 -0.46628,0.03 -0.6289,-0.063 -1.64221,-0.22768 -1.71295,-0.28556 -0.21001,0.98412 -0.0169,0.32861 0.0603,0.98653 0.0587,0.42712 -0.0305,0.11918 -0.54859,1.02027 -1.01932,1.16321 -1.63331,1.1794 -1.10942,1.20384 -0.12458,0.1829 -1.27693,2.59812 -0.0623,0.49669 -0.19865,0.71815 -0.37285,0.40505 -0.59553,0.38095 -0.14015,0.16292 -0.74324,1.54168 -0.29654,2.19918 0.20533,0.64511 -0.29276,1.63292 -0.56061,1.20237 -0.32346,0.81249 -3.16696,-1.26816 -3.40967,-1.44829 -2.04331,-0.82559 -1.852,-0.93064 -1.93475,-0.82112 -0.66227,0.66199 -0.47851,0.42365 -0.83979,2.53359 1.78459,1.46516 0.88339,1.93872 z" />
  <path
     id="97072"
     stroke="#000000"
     stroke-width="0.193463"
     fill="#ececec"
     d="m 344.18692,218.18711 2.22195,-0.5978 1.33499,-0.17158 2.2809,-0.50443 5.12618,-0.8793 1.04847,-0.0851 1.26447,-0.43827 4.30174,-2.03325 0.96015,-0.33835 2.28468,-0.72393 1.85177,-0.27358 0.26517,-0.15781 0.16284,-0.18779 0.34838,-2.40025 0.0872,-0.21743 0.80886,-0.76632 0.57284,-0.36801 0.24605,-0.0786 1.35613,-0.2915 0.30521,-0.17126 1.9045,-2.26352 1.20752,-0.71052 3.0317,-0.95035 0.90987,-0.35664 -0.33769,-0.72225 0.23403,-4.88006 1.96945,-1.15612 0.62423,-5.03531 1.65978,-2.50531 1.50073,-0.76504 v -1.85403 l -1.73209,-1.91677 -0.22891,-1.16517 2.5414,-3.85982 -0.13169,-1.3103 1.58259,-0.47421 -0.91588,4.24378 3.2297,3.32595 8.92672,2.0584 -1.238,2.6642 -3.55227,4.89718 -2.59101,4.33087 -0.97572,1.25672 -1.77835,2.17605 -2.33073,2.22669 -2.46666,2.1188 -2.39257,2.17356 -1.29584,1.32073 -0.4298,0.48895 -2.01706,3.19168 -0.73724,1.88094 -0.66961,2.55625 -0.21,1.37785 -0.10055,1.45123 0.0674,1.87948 0.0812,0.86204 1.04157,4.83105 2.23129,11.32395 0.2823,1.24883 0.91743,2.97165 1.72386,8.6563 0.28164,4.94872 -7.91363,7.25642 -1.82085,-1.02372 -2.00105,-1.26691 -5.57822,-3.91276 -4.40875,-5.36997 -8.96787,-17.98134 -3.61256,-8.2944 z" />
  <path
     id="97070"
     stroke="#000000"
     stroke-width="0.193463"
     fill="#ececec"
     d="m 336.10822,170.65295 6.78731,-4.83895 11.21518,-3.28429 -0.10922,-0.90889 -2.74229,-0.51872 -1.7045,-1.40833 0.78685,-2.69466 7.10475,0.67246 19.42914,4.08229 0.12213,6.73985 -1.93808,1.4496 0.20956,0.63761 -1.01332,0.38428 0.33192,1.09184 1.44577,-0.29743 0.31279,0.44977 4.50685,2.85881 8.31539,0.55901 7.51164,0.34946 4.69684,-0.74545 -1.21442,2.20533 -0.77706,1.69078 -0.53324,3.01205 -0.78284,2.74527 -1.0785,2.32065 -8.92672,-2.0584 -3.2297,-3.32595 0.91588,-4.24378 -1.58259,0.47421 0.13169,1.3103 -2.5414,3.85982 0.22891,1.16517 1.73209,1.91677 v 1.85403 l -1.50073,0.76504 -1.65978,2.50531 -0.62423,5.03531 -1.96945,1.15612 -0.23403,4.88006 0.33769,0.72225 -0.90987,0.35664 -3.0317,0.95035 -1.20752,0.71052 -1.9045,2.26352 -0.30521,0.17126 -1.35613,0.2915 -0.24605,0.0786 -0.57284,0.36801 -0.80886,0.76632 -0.0872,0.21743 -0.34838,2.40025 -0.16284,0.18779 -0.26517,0.15781 -1.85177,0.27358 -2.28468,0.72393 -0.96015,0.33835 -4.30174,2.03325 -1.26447,0.43827 -1.04847,0.0851 -5.12618,0.8793 -2.2809,0.50443 -1.33499,0.17158 -2.22195,0.5978 -0.3486,-9.58327 -1.74231,-18.28567 -3.33827,-14.3353 z" />
</svg>
