<?xml version="1.0" encoding="UTF-8" standalone="no"?>
<!-- Created with Inkscape (http://www.inkscape.org/) -->

<svg
   xmlns:dc="http://purl.org/dc/elements/1.1/"
   xmlns:cc="http://creativecommons.org/ns#"
   xmlns:rdf="http://www.w3.org/1999/02/22-rdf-syntax-ns#"
   xmlns:svg="http://www.w3.org/2000/svg"
   xmlns="http://www.w3.org/2000/svg"
   xmlns:sodipodi="http://sodipodi.sourceforge.net/DTD/sodipodi-0.dtd"
   xmlns:inkscape="http://www.inkscape.org/namespaces/inkscape"
   id="svg4136"
   version="1.1"
   inkscape:version="0.91 r13725"
   width="553.75"
   height="446.25"
   viewBox="0 0 553.75 446.25"
   sodipodi:docname="ccc_muenchen.svg">
  <metadata
     id="metadata4142">
    <rdf:RDF>
      <cc:Work
         rdf:about="">
        <dc:format>image/svg+xml</dc:format>
        <dc:type
           rdf:resource="http://purl.org/dc/dcmitype/StillImage" />
        <dc:title></dc:title>
      </cc:Work>
    </rdf:RDF>
  </metadata>
  <defs
     id="defs4140" />
  <sodipodi:namedview
     pagecolor="#ffffff"
     bordercolor="#666666"
     borderopacity="1"
     objecttolerance="10"
     gridtolerance="10"
     guidetolerance="10"
     inkscape:pageopacity="0"
     inkscape:pageshadow="2"
     inkscape:window-width="1680"
     inkscape:window-height="1028"
     id="namedview4138"
     showgrid="false"
     inkscape:zoom="1.538601"
     inkscape:cx="244.50967"
     inkscape:cy="216.38546"
     inkscape:window-x="1912"
     inkscape:window-y="142"
     inkscape:window-maximized="1"
     inkscape:current-layer="svg4136" />
  <path
     style="fill:none;fill-rule:evenodd;stroke:#000000;stroke-width:1.25;stroke-linecap:butt;stroke-linejoin:miter;stroke-miterlimit:0;stroke-dasharray:none;stroke-opacity:1"
     d="m 50.093975,127.76262 20.680999,-1.37874 37.455586,-10.11071 -1.60852,38.60453 12.52349,8.90432 -0.11489,13.15542 6.14685,6.37664 -7.98516,3.27449 4.59578,6.89366 -10.57029,17.00438 27.57466,24.35762 -13.32775,12.4086 -3.21705,13.78733 -5.97451,9.65114 -16.544797,-0.45958 -2.297889,12.4086 -29.872554,13.32775 -12.868177,-2.29788 -2.297889,-5.97452 -6.434089,1.37874 -4.595777,-1.37874 4.1362,-5.05535 -2.297889,-12.4086 7.812822,-2.29789 -2.757467,-4.59578 0.919156,-13.78733 -11.489444,-8.73198 -0.919156,-7.35324 -11.489443,-3.21704 -0.459578,-5.05536 -5.974511,1.83831 -0.459578,-5.05535 -13.3277547,-0.91916 -1.3787333,-6.89367 8.2724,-5.97451 6.893666,-18.84268 -1.838311,-7.81283 10.570288,-7.81282 8.2724,3.21705 2.757466,3.21704 15.625644,-13.78733 -4.1362,-5.51494 1.838311,-7.81282 -5.974511,-4.1362 z"
     id="Aubing-Lochhausen-Langwied"
     inkscape:connector-curvature="0"
     sodipodi:nodetypes="ccccccccccccccccccccccccccccccccccccccccccccc"
     inkscape:label="#22" />
  <path
     style="fill:none;fill-rule:evenodd;stroke:#000000;stroke-width:1.25;stroke-linecap:butt;stroke-linejoin:miter;stroke-miterlimit:0;stroke-dasharray:none;stroke-opacity:1"
     d="m 108.00077,116.27317 40.44284,-7.81282 8.2724,-12.408599 10.57029,-7.353244 11.02987,-4.1362 14.79491,15.277578 1.69892,10.110705 -6.73597,-2.27957 -2.32576,12.14417 -13.86619,1.51334 26.19593,21.60015 3.21705,11.94902 -1.55107,14.70649 -2.92982,-0.45957 -3.84896,18.95757 -11.77668,3.10215 -3.38938,-3.50428 -2.58513,4.19366 -4.71067,-8.96177 -19.30227,4.59577 -4.65322,-4.88301 -6.2043,0.63192 -3.38939,9.19155 -4.76812,-8.2724 -6.83622,-0.80426 -6.31919,-6.89366 0,-12.86818 -11.94902,-8.2724 z"
     id="Allach-Untermenzing"
     inkscape:connector-curvature="0"
     sodipodi:nodetypes="ccccccccccccccccccccccccccccc"
     inkscape:label="#23" />
  <path
     style="fill:none;fill-rule:evenodd;stroke:#000000;stroke-width:1.25;stroke-linecap:butt;stroke-linejoin:miter;stroke-opacity:1;stroke-miterlimit:0;stroke-dasharray:none"
     d="m 178.31617,84.102729 11.02987,-4.595777 -0.91916,-7.353244 8.73198,5.97451 -3.21705,-17.004377 -3.21704,-4.136199 9.65113,-8.2724 -3.67662,-2.297889 3.21704,-5.514933 -3.21704,-5.974511 0.45958,-7.812821 15.16606,-5.974511 38.60453,14.706488 6.89367,24.357621 5.05536,-4.595778 1.83831,6.893667 21.14057,5.514933 5.51494,5.514933 -1.37874,2.757466 13.78734,1.378734 5.51493,5.055355 -5.51493,9.651133 5.97451,56.068481 -33.0896,4.1362 -5.97451,-2.29788 -74.91118,-18.84269 -10.57028,-11.02987 2.29788,-12.86818 7.35325,2.29789 -1.37874,-9.19155 z"
     id="Feldmoching-Hasenbergl"
     inkscape:connector-curvature="0"
     inkscape:label="#24" />
  <path
     style="fill:none;fill-rule:evenodd;stroke:#000000;stroke-width:1.25;stroke-linecap:butt;stroke-linejoin:miter;stroke-miterlimit:0;stroke-dasharray:none;stroke-opacity:1"
     d="m 303.7809,77.438851 4.59577,-10.340499 11.48945,3.217044 11.94902,-6.893666 8.2724,11.949022 0.91915,22.059732 -4.59577,29.872556 7.81282,0 0.91915,16.08522 -5.97451,2.75747 0,29.87255 -5.05535,5.05536 -7.35325,-5.05536 -26.65551,7.81282 2.29789,18.84269 -6.89366,-0.45958 -0.45958,-6.89366 -6.89367,3.67662 1.83831,-5.51494 -21.60015,7.81283 1.32129,-51.30037 7.41068,2.75746 32.40024,-4.36598 -5.74473,-56.930196 5.05536,-9.651134 z"
     id="Milbersthofen-Am_Hart"
     inkscape:connector-curvature="0"
     sodipodi:nodetypes="cccccccccccccccccccccccccc"
     inkscape:label="#11" />
  <path
     style="fill:none;fill-rule:evenodd;stroke:#000000;stroke-width:1.25;stroke-linecap:butt;stroke-linejoin:miter;stroke-miterlimit:0;stroke-dasharray:none;stroke-opacity:1"
     d="m 116.50296,270.6913 5.97451,-9.99582 2.75747,-13.67244 13.67244,-12.06391 -28.14914,-24.47252 11.10572,-17.0637 -5.19953,-6.65035 8.66269,-3.47948 6.93589,1.03066 4.87456,8.12426 3.24971,-9.09917 6.17444,-0.64994 4.62843,4.77937 19.09442,-4.77937 4.87455,9.09917 2.59977,-4.22462 3.2497,3.57468 11.69894,-3.2497 5.84947,17.22343 -2.27479,5.84947 -8.44923,0 -4.54959,10.72403 10.07409,25.02273 -2.59977,2.59977 4.87456,6.82438 -4.87456,20.14817 4.87456,11.049 -34.44688,2.59977 -12.02391,-3.89965 4.54959,-7.47432 -8.77421,1.94982 -0.97491,-3.57468 -7.79929,0.97492 -3.24971,5.19953 -2.27479,-6.49942 -9.42415,-0.97491 z"
     id="Pasing-Obermenzing"
     inkscape:connector-curvature="0"
     sodipodi:nodetypes="ccccccccccccccccccccccccccccccccccccc"
     inkscape:label="#21" />
  <path
     style="fill:none;fill-rule:evenodd;stroke:#000000;stroke-width:1.25;stroke-linecap:butt;stroke-linejoin:miter;stroke-miterlimit:0;stroke-dasharray:none;stroke-opacity:1"
     d="m 198.72766,205.29419 -5.69347,-17.05108 3.89796,-18.86802 2.92474,0 0.99124,-13.56991 -2.99682,-13.51415 -25.73181,-20.82122 12.71327,-1.66089 10.7995,11.21965 74.09328,18.84829 -0.89367,51.10162 -8.2055,3.16846 -2.2748,-7.79929 -11.04899,2.92473 -10.39906,5.19953 -10.36133,-13.07598 -1.94982,11.45113 -15.00609,-3.34657 -3.24801,7.74353 z"
     id="Moosach"
     inkscape:connector-curvature="0"
     sodipodi:nodetypes="cccccccccccccccccccc"
     inkscape:label="#10" />
  <path
     style="fill:none;fill-rule:evenodd;stroke:#000000;stroke-width:1.25;stroke-linecap:butt;stroke-linejoin:miter;stroke-miterlimit:0;stroke-dasharray:none;stroke-opacity:1"
     d="m 340.8941,97.231632 17.22344,4.549588 6.17444,-1.949823 -1.62485,-10.074087 5.19953,1.949823 -0.32497,-4.874558 11.69894,-0.649941 -10.07409,-14.623675 0.64994,-8.774205 4.87456,8.774205 5.84947,0.324971 0.97491,-4.549588 5.19953,-0.649941 2.59977,2.599764 5.52449,-0.974911 2.2748,-4.549588 6.17444,0.324971 5.5245,6.499411 9.74911,-0.649941 0,9.749116 14.29871,10.399057 4.22462,-0.32497 -1.62486,17.54841 -18.84829,13.32379 2.2748,8.44924 -13.97374,35.42179 4.22462,4.87455 -3.57468,6.82439 -4.54958,-2.92474 -42.26589,66.34974 -10.37934,-17.27919 -4.54959,2.2748 1.29988,4.87456 -3.09539,6.82438 -6.65373,0.64994 -1.62485,-8.77421 -4.22462,-0.97491 -1.98925,-11.14418 5.8889,-3.80446 -5.19953,-3.24971 -0.64994,-5.5245 9.11889,-5.35385 -3.07906,-17.31524 5.50479,-4.74332 0.0788,-29.95306 5.96437,-2.96416 -1.01434,-16.03845 -7.58921,0.19375 z"
     id="Schwabing-Freimann"
     inkscape:connector-curvature="0"
     sodipodi:nodetypes="ccccccccccccccccccccccccccccccccccccccccccccccccc"
     inkscape:label="#12" />
  <path
     style="fill:none;fill-rule:evenodd;stroke:#000000;stroke-width:1.25;stroke-linecap:butt;stroke-linejoin:miter;stroke-miterlimit:0;stroke-dasharray:none;stroke-opacity:1"
     d="m 193.36734,246.44857 76.11756,8.32985 8.78943,-9.3639 0,-8.04261 5.97451,0 8.96177,-11.02987 -6.2043,-9.65113 4.36599,-3.44683 4.59577,-11.25966 -1.14894,-6.89366 -6.77877,4.02131 1.72341,-5.74473 -29.18318,10.91497 -2.98726,-8.2724 -9.65113,3.44684 -10.3405,5.28514 -11.02987,-13.32776 -2.0681,11.71924 -14.93627,-3.44684 -3.21705,7.58304 -7.75537,-2.29789 -2.24045,6.03195 -8.61708,0.17235 -4.36599,10.57029 z"
     id="Neuhausen-Nymphenburg"
     inkscape:connector-curvature="0"
     sodipodi:nodetypes="ccccccccccccccccccccccccc"
     inkscape:label="#9" />
  <path
     style="fill:none;fill-rule:evenodd;stroke:#000000;stroke-width:1.25;stroke-linecap:butt;stroke-linejoin:miter;stroke-opacity:1;stroke-miterlimit:0;stroke-dasharray:none"
     d="m 293.21061,225.88247 15.85543,-0.91916 14.70649,5.97451 5.97451,-3.44683 -2.29789,-11.48945 5.74472,-4.1362 -4.59578,-2.98725 -0.68936,-5.28514 8.73198,-5.51494 -3.21705,-17.92353 -6.89366,-4.59578 -26.65551,8.2724 2.98725,18.6129 -7.12345,-0.45958 -3.90642,10.80008 -4.59577,3.67662 z"
     id="Schwabing-West"
     inkscape:connector-curvature="0"
     inkscape:label="#4" />
  <path
     style="fill:none;fill-rule:evenodd;stroke:#000000;stroke-width:1.25;stroke-linecap:butt;stroke-linejoin:miter;stroke-miterlimit:0;stroke-dasharray:none;stroke-opacity:1"
     d="m 269.77215,254.77842 16.02776,0.34468 9.53624,4.71068 14.47671,1.55107 9.07666,-7.35324 16.37245,-0.57448 6.75005,-17.00438 -6.75005,0.68937 -2.0681,-9.65113 -3.44683,-0.22979 -5.51493,3.67662 -15.62565,-5.97451 -14.93627,0.68937 -8.96177,11.48944 -6.66388,0 0.68937,8.50219 z"
     id="Maxvorstadt"
     inkscape:connector-curvature="0"
     sodipodi:nodetypes="ccccccccccccccccc"
     inkscape:label="#3" />
  <path
     style="fill:none;fill-rule:evenodd;stroke:#000000;stroke-width:1.25;stroke-linecap:butt;stroke-linejoin:miter;stroke-miterlimit:0;stroke-dasharray:none;stroke-opacity:1"
     d="m 400.98159,173.26081 -48.60034,75.94523 2.00895,9.99581 11.43369,2.29789 1.18837,5.863 6.78694,-2.15849 10.21744,2.19115 3.40741,3.2959 19.30226,-2.75747 4.1362,5.51493 5.51494,-4.1362 21.60015,0.45958 1.83831,5.05536 15.62565,-4.59578 6.43408,-11.48944 -5.51493,-2.29789 4.1362,-35.38749 11.48944,4.59578 18.38311,-25.73636 -3.21704,-9.19155 11.48944,4.1362 3.21705,-9.19156 -5.97451,-8.73197 8.2724,-2.29789 -3.21705,-6.89367 -7.81282,-3.21704 -5.97451,6.43408 -36.30664,-5.05535 0.45958,10.11071 6.89366,3.67662 -1.37873,4.59578 -22.51931,0 c 0,0 -3.21705,3.67662 -5.05536,3.67662 -1.83831,0 -9.19155,-0.91915 -9.19155,-0.91915 l -2.29789,-7.81283 -14.24691,0.91916 1.83831,-4.59578 z"
     id="Bogenhausen"
     inkscape:connector-curvature="0"
     sodipodi:nodetypes="ccccccccccccccccccccccccccccccccsccccc"
     inkscape:label="#13" />
  <path
     style="fill:none;fill-rule:evenodd;stroke:#000000;stroke-width:1.25;stroke-linecap:butt;stroke-linejoin:miter;stroke-miterlimit:0;stroke-dasharray:none;stroke-opacity:1"
     d="m 195.61763,287.45434 -4.89286,-11.24811 5.05535,-20.681 -5.28514,-6.2043 3.31222,-3.22859 69.30106,8.05416 -0.22978,6.89366 -12.4086,0.45958 0,6.89367 -10.11071,11.02986 -0.91916,8.73198 -18.38311,10.57029 -7.35324,-3.67662 -4.1362,3.67662 -2.29789,-11.02987 z"
     id="Laim"
     inkscape:connector-curvature="0"
     sodipodi:nodetypes="cccccccccccccccc"
     inkscape:label="#25" />
  <path
     style="fill:none;fill-rule:evenodd;stroke:#000000;stroke-width:1.25;stroke-linecap:butt;stroke-linejoin:miter;stroke-miterlimit:0;stroke-dasharray:none;stroke-opacity:1"
     d="m 160.39264,289.99356 -5.05536,12.4086 5.97451,10.11071 -1.37873,7.35325 -3.67662,0.45958 0.91915,22.97888 5.97451,-1.83831 0,-5.51493 4.59578,2.29789 5.51493,4.1362 -5.97451,11.94902 5.2277,6.83622 9.3639,-1.49363 8.04261,3.0447 23.78315,-13.90222 -1.83831,-30.79171 4.13619,-4.59578 -1.83831,-18.15333 -4.36599,2.75747 -2.75747,-10.80008 -13.09796,1e-5 z"
     id="Hadern"
     inkscape:connector-curvature="0"
     sodipodi:nodetypes="cccccccccccccccccccccc"
     inkscape:label="#20" />
  <path
     style="fill:none;fill-rule:evenodd;stroke:#000000;stroke-width:1.25;stroke-linecap:butt;stroke-linejoin:miter;stroke-miterlimit:0;stroke-dasharray:none;stroke-opacity:1"
     d="m 480.02897,229.4442 -19.50418,-8.60315 -4.29869,35.71246 5.41976,1.95898 -5.74473,11.37455 -16.08522,5.40004 0,8.73197 5.97452,3.79152 c 0.67021,0.19149 -7.48349,4.86169 -7.35325,5.51493 0.38537,1.93291 -2.41279,15.74054 -2.41279,15.74054 l -7.69792,7.58303 4.59578,5.97451 -1.37874,5.05536 19.76185,2.75747 7.81282,11.02986 -3.67662,5.51493 22.51931,7.81283 12.86817,11.02986 33.54918,-18.84269 -2.29789,-4.59577 8.2724,0.45958 -2.29789,-15.62565 5.97451,-2.75747 -12.4086,-5.51493 5.05536,-3.67662 -24.35762,-5.51493 -1.37874,-4.59578 5.05536,-0.91916 -5.97451,-5.51493 6.43409,-5.05535 10.11071,10.57028 3.67662,-5.51493 3.67662,5.51493 4.59578,-8.2724 3.21704,7.81283 4.59578,-16.5448 -6.89367,-1.83831 2.75747,-8.2724 12.4086,2.29788 -1.83831,-6.89366 3.67662,-2.29789 -5.05535,-5.97451 -7.81283,2.75747 -10.57028,-11.48945 7.35324,-0.91915 -5.05536,-3.67663 5.51494,-0.91915 -9.19156,-7.81282 -43.65988,11.02986 z"
     id="Trudering-Riem"
     inkscape:connector-curvature="0"
     sodipodi:nodetypes="ccccccccsccccccccccccccccccccccccccccccccccccccccc"
     inkscape:label="#15" />
  <path
     style="fill:none;fill-rule:evenodd;stroke:#000000;stroke-width:1.25;stroke-linecap:butt;stroke-linejoin:miter;stroke-miterlimit:0;stroke-dasharray:none;stroke-opacity:1"
     d="m 172.34166,361.22812 -2.75747,14.70648 11.94902,0.91916 -10.57029,4.1362 -4.13619,7.81282 3.67662,2.75747 3.67662,-1.83831 17.46395,13.32775 3.67663,0.45958 0,5.51493 22.05973,11.48945 -3.67662,4.59577 4.59577,6.89367 -0.45957,5.97451 10.57028,-6.43409 6.43409,4.59578 1.83831,-8.73198 10.11071,0 1.37874,-7.81282 5.51493,4.1362 5.05536,-22.97889 14.24691,0.91916 14.24691,-28.49382 -3.21705,-19.76185 5.05536,-8.2724 3.64874,-5.4082 -4.10832,-5.16208 -3.21704,8.2724 -5.97452,-4.59578 -6.43408,0.45958 -1.37874,10.11071 -2.75746,-7.35325 -4.1362,3.21705 -2.75747,-3.21705 -4.59578,0 2.75747,7.81282 -7.35324,-3.21704 -12.86818,-1.83831 -0.91916,-7.35325 -7.81282,10.11071 -7.81282,-3.21704 0.22979,8.04261 -9.58384,-3.06611 -24.19513,13.86619 -7.81282,-2.75747 z"
     id="Thalkirchen-Obersendling-Fuerstenried-Forstenried-Solln"
     inkscape:connector-curvature="0"
     sodipodi:nodetypes="cccccccccccccccccccccccccccccccccccccccccccccc"
     inkscape:label="#19" />
  <path
     style="fill:none;fill-rule:evenodd;stroke:#000000;stroke-width:1.25;stroke-linecap:butt;stroke-linejoin:miter;stroke-miterlimit:0;stroke-dasharray:none;stroke-opacity:1"
     d="m 214.62281,295.04892 6.2043,3.90641 18.67034,-10.80008 0.86172,-9.19155 10.1107,-10.22561 15.6831,21.60015 0.51707,13.55755 2.183,38.03006 -4.02948,2.48825 -2.75746,-3.08244 -5.16209,-0.32497 3.59299,8.54162 -8.18876,-3.94584 -11.94902,-1.83831 -1.40662,-6.78694 -7.78494,10.46356 -7.54361,-3.21704 0.19037,7.81282 -9.88092,-3.58145 -1.83831,-30.42731 4.36598,-5.51493 z"
     id="Sendling-Westpark"
     inkscape:connector-curvature="0"
     sodipodi:nodetypes="cccccccccccccccccccccc"
     inkscape:label="#7" />
  <path
     style="fill:none;fill-rule:evenodd;stroke:#000000;stroke-width:1.25;stroke-linecap:butt;stroke-linejoin:miter;stroke-miterlimit:0;stroke-dasharray:none;stroke-opacity:1"
     d="m 358.47065,239.44001 -10.02708,-17.43607 -4.65153,2.46037 1.81043,4.86499 -3.67662,7.35324 -6.5456,16.57269 -16.43329,0.89127 -9.19155,7.35324 1.37873,8.73198 -6.43409,8.73198 12.4086,8.73197 7.272,-2.86658 -0.33771,-7.59698 15.58502,0.35285 6.43409,-2.75746 0.91915,-7.35325 7.35325,-8.73197 -2.29789,-9.65114 6.70415,-9.52638 z"
     id="Altstadt-Lehel"
     inkscape:connector-curvature="0"
     sodipodi:nodetypes="cccccccccccccccccccc"
     inkscape:label="#1" />
  <path
     style="fill:none;fill-rule:evenodd;stroke:#000000;stroke-width:1.25;stroke-linecap:butt;stroke-linejoin:miter;stroke-miterlimit:0;stroke-dasharray:none;stroke-opacity:1"
     d="m 265.92318,290.05101 -15.4533,-21.6576 0,-6.89367 12.63838,-0.57447 -0.11489,-6.77877 22.86399,0.91915 4.07876,2.29789 -4.07876,3.67662 -2.75746,18.38311 -3.67663,1.83832 0.91916,11.94902 -12.35115,-9.47879 z"
     id="Schwanthalerhoehe"
     inkscape:connector-curvature="0"
     sodipodi:nodetypes="ccccccccccccc"
     inkscape:label="#8" />
  <path
     style="fill:none;fill-rule:evenodd;stroke:#000000;stroke-width:1.25;stroke-linecap:butt;stroke-linejoin:miter;stroke-miterlimit:0;stroke-dasharray:none;stroke-opacity:1"
     d="m 280.80201,293.67019 22.32895,16.19194 21.33093,-15.27279 11.94903,-5.05535 3.44683,-11.71923 0,0.11489 -15.85543,-0.80426 0.10672,7.70609 -7.07924,2.46037 -11.98506,-8.55794 6.0894,-8.61708 -1.37873,-8.61709 -14.70649,-1.37873 -5.01762,-2.80844 -4.25279,4.24293 -2.21904,17.86777 -4.1362,2.29789 z"
     id="Ludwigsvorstadt-Isarvorstadt"
     inkscape:connector-curvature="0"
     sodipodi:nodetypes="cccccccccccccccccc"
     inkscape:label="#2" />
  <path
     style="fill:none;fill-rule:evenodd;stroke:#000000;stroke-width:1.25;stroke-linecap:butt;stroke-linejoin:miter;stroke-miterlimit:0;stroke-dasharray:none;stroke-opacity:1"
     d="m 293.21061,340.08754 9.19155,-6.89367 0.89128,-23.05774 -35.35961,-26.57666 -1.83831,5.97452 2.29789,52.39186 3.32377,6.32736 1.46237,-9.32616 7.16288,-0.67782 5.11111,4.48905 3.18917,-8.37914 z"
     id="Sendling"
     inkscape:connector-curvature="0"
     sodipodi:nodetypes="cccccccccccc"
     inkscape:label="#6" />
  <path
     style="fill:none;fill-rule:evenodd;stroke:#000000;stroke-width:1.25;stroke-linecap:butt;stroke-linejoin:miter;stroke-miterlimit:0;stroke-dasharray:none;stroke-opacity:1"
     d="m 272.8743,401.67096 4.71066,0 -4.59577,10.11071 5.05535,0 -1.37873,11.02986 9.19155,-3.67662 8.2724,-32.63002 10.57029,4.59578 2.75747,-6.43409 17.00437,-3.21704 -0.45957,-5.97451 17.46395,-7.81283 -1.83831,-9.65113 -1.78734,-5.21784 -4.56789,0.59418 2.02867,-7.35324 -15.65353,-25.14217 3.43529,-4.7025 6.43409,2.29788 -0.45958,-6.89366 -11.94902,-11.02987 -14.24691,9.19156 -0.91916,24.35762 -9.19155,5.51493 -8.15751,13.44265 2.64257,20.22142 z"
     id="Untergiesing-Harlaching"
     inkscape:connector-curvature="0"
     sodipodi:nodetypes="ccccccccccccccccccccccccccc"
     inkscape:label="#18" />
  <path
     style="fill:none;fill-rule:evenodd;stroke:#000000;stroke-width:1.25;stroke-linecap:butt;stroke-linejoin:miter;stroke-miterlimit:0;stroke-dasharray:none;stroke-opacity:1"
     d="m 316.67696,300.32012 7.60731,-5.68776 12.16727,-4.9104 3.5211,-11.79231 6.08941,-2.64257 0.91915,-7.35325 7.4321,-8.59737 11.43848,2.08443 1.35085,5.59379 6.43408,-1.37874 10.57029,1.83831 3.67663,3.67663 -1.83832,6.89366 -10.11071,2.29789 -5.51493,17.00438 -41.49899,14.00318 z"
     id="Au-Haidhausen"
     inkscape:connector-curvature="0"
     sodipodi:nodetypes="ccccccccccccccccc"
     inkscape:label="#5" />
  <path
     style="fill:none;fill-rule:evenodd;stroke:#000000;stroke-width:1.25;stroke-linecap:butt;stroke-linejoin:miter;stroke-miterlimit:0;stroke-dasharray:none;stroke-opacity:1"
     d="m 341.00669,367.20263 7.35325,16.5448 16.08522,-2.75747 2.29789,5.51493 5.51493,-3.67662 11.94902,0.91916 -4.1362,-5.05536 5.51493,-1.83832 -3.21704,-13.32775 -11.14476,-1.14894 -11.60433,-27.34488 -1.14895,-9.99581 -7.23835,-8.50219 7.12345,-14.70649 -29.32596,9.68718 0.48746,6.97251 -6.89367,-2.29788 -2.75746,5.05535 15.62564,24.35762 -2.29789,7.81282 4.59578,-0.91915 1.83831,4.59578 z"
     id="Obergiesing"
     inkscape:connector-curvature="0"
     sodipodi:nodetypes="ccccccccccccccccccccccc"
     inkscape:label="#17" />
  <path
     style="fill:none;fill-rule:evenodd;stroke:#000000;stroke-width:1.25;stroke-linecap:butt;stroke-linejoin:miter;stroke-miterlimit:0;stroke-dasharray:none;stroke-opacity:1"
     d="m 363.06643,300.10427 7.35324,7.81283 5.97451,-3.67663 17.34906,0.45958 39.52368,18.6129 -4.94045,-6.77877 7.81282,-7.69793 2.29789,-16.08522 7.35324,-5.05536 -5.97451,-3.21704 -0.11489,-9.76603 -1.83831,-4.71067 -22.05974,-0.57447 -4.82556,3.79152 -4.02131,-5.40005 -19.07247,2.87237 -1.72342,7.12346 -10.22561,2.52767 -5.51493,16.5448 z"
     id="Berg_am_Laim"
     inkscape:connector-curvature="0"
     sodipodi:nodetypes="cccccccccccccccccccc"
     inkscape:label="#14" />
  <path
     style="fill:none;fill-rule:evenodd;stroke:#000000;stroke-width:1.25;stroke-linecap:butt;stroke-linejoin:miter;stroke-miterlimit:0;stroke-dasharray:none;stroke-opacity:1"
     d="m 385.58574,376.85376 5.05535,0 8.73198,8.2724 6.43409,-4.59578 5.05535,6.43409 5.51494,-1.37873 1.37873,5.05535 41.362,13.32776 15.62564,-5.51494 12.4086,5.51494 0.45958,-8.2724 -5.97451,-3.67663 4.1362,-8.73197 -0.91916,-12.86818 8.73198,1.83831 -2.41278,-6.20429 -12.75328,-11.02988 -22.74911,-7.81281 3.44684,-5.62983 -7.81282,-11.60434 -19.76185,-2.75747 1.49363,-4.1362 -38.71943,-18.38311 -17.92353,-0.1149 -5.97451,3.33195 -7.35325,-7.81283 -4.13619,1.37874 -7.81283,15.16606 7.35325,8.2724 1.37873,10.11071 11.48945,27.57467 11.02986,0.91915 z"
     id="Ramersdorf-Perlach"
     inkscape:connector-curvature="0"
     sodipodi:nodetypes="ccccccccccccccccccccccccccccccccc"
     inkscape:label="#16" />
</svg>
