<?xml version="1.0" encoding="UTF-8" standalone="no"?>
<!-- Created with Inkscape (http://www.inkscape.org/) -->

<svg
   xmlns:dc="http://purl.org/dc/elements/1.1/"
   xmlns:cc="http://creativecommons.org/ns#"
   xmlns:rdf="http://www.w3.org/1999/02/22-rdf-syntax-ns#"
   xmlns:svg="http://www.w3.org/2000/svg"
   xmlns="http://www.w3.org/2000/svg"
   xmlns:sodipodi="http://sodipodi.sourceforge.net/DTD/sodipodi-0.dtd"
   xmlns:inkscape="http://www.inkscape.org/namespaces/inkscape"
   id="svg4136"
   version="1.1"
   inkscape:version="0.91 r13725"
   width="300"
   height="300"
   viewBox="0 0 300 300"
   sodipodi:docname="ccc_larynx_C32.svg">
  <metadata
     id="metadata4142">
    <rdf:RDF>
      <cc:Work
         rdf:about="">
        <dc:format>image/svg+xml</dc:format>
        <dc:type
           rdf:resource="http://purl.org/dc/dcmitype/StillImage" />
        <dc:title />
      </cc:Work>
    </rdf:RDF>
  </metadata>
  <defs
     id="defs4140" />
  <sodipodi:namedview
     pagecolor="#ffffff"
     bordercolor="#666666"
     borderopacity="1"
     objecttolerance="10"
     gridtolerance="10"
     guidetolerance="10"
     inkscape:pageopacity="0"
     inkscape:pageshadow="2"
     inkscape:window-width="1920"
     inkscape:window-height="1138"
     id="namedview4138"
     showgrid="false"
     inkscape:zoom="1.0547676"
     inkscape:cx="4.8363223"
     inkscape:cy="190.90514"
     inkscape:window-x="-8"
     inkscape:window-y="-8"
     inkscape:window-maximized="1"
     inkscape:current-layer="svg4136" />
  <path
     style="fill:none;fill-rule:evenodd;stroke:#000000;stroke-width:0.6;stroke-linecap:butt;stroke-linejoin:miter;stroke-miterlimit:4;stroke-dasharray:0.6,0.6;stroke-dashoffset:0;stroke-opacity:1"
     d="m 174.8826,184.28958 0.72578,17.1781 83.10335,-1e-5 -0.43487,-16.57909 z"
     id="C32.0"
     inkscape:connector-curvature="0"
     sodipodi:nodetypes="ccccc"
     inkscape:label="#path4170" />
  <path
     style="fill:none;fill-rule:evenodd;stroke:#000000;stroke-width:0.99999988;stroke-linecap:butt;stroke-linejoin:miter;stroke-miterlimit:4;stroke-dasharray:0.99999997, 0.99999997;stroke-dashoffset:0;stroke-opacity:1"
     d="m 175.60838,201.20058 0.33011,23.01631 82.93517,-0.0538 -0.52498,-22.96254 z"
     id="C32.2"
     inkscape:connector-curvature="0"
     sodipodi:nodetypes="ccccc"
     inkscape:label="#path4172" />
  <path
     style="fill:none;fill-rule:evenodd;stroke:#000000;stroke-width:0.99999988;stroke-linecap:butt;stroke-linejoin:miter;stroke-miterlimit:4;stroke-dasharray:0.99999997, 0.99999997;stroke-dashoffset:0;stroke-opacity:1"
     d="m 174.14206,127.95539 0.70134,55.86015 83.50544,1.07304 0.36289,-57.14013 z"
     id="C32.1"
     inkscape:connector-curvature="0"
     sodipodi:nodetypes="ccccc"
     inkscape:label="#path4168" />
  <path
     style="fill:none;fill-rule:evenodd;stroke:#000000;stroke-width:0.60000002;stroke-linecap:butt;stroke-linejoin:miter;stroke-miterlimit:4;stroke-dasharray:none;stroke-opacity:1"
     d="M 40.610788,25.182562 37.201136,35.254546 27.1757,45.363707 l 3.81629,9.350577 14.775128,4.569023 10.201966,2.26241 5.689716,6.906826 0.725792,5.876169 -5.080554,4.807777 -2.903174,4.807776 10.161108,8.012964 -5.806347,4.807777 1.451586,6.410364 6.532142,1.60259 3.628968,0.53421 3.628966,6.41036 1.451589,6.94456 -5.080555,8.54716 2.17738,8.01297 2.17738,4.80776 3.628972,6.94457 7.257932,3.73939 9.435305,0.53419 9.43533,3.20518 10.16109,1.0684 8.70953,1.60259 14.51588,1.60259 18.14483,2.1368 5.80634,2.67098 3.62897,7.47877 0,6.41036 -1.45157,10.14975 5.80635,10.14975 0,10.14975 0,10.68394 6.66599,14.35594 5.08056,0.84222 23.00559,18.20117 -2.41316,8.96103 -0.48756,1.66998 4.0785,11.28917 0.11748,0.14532 69.58579,-0.0419 -0.13152,-36.27653 0.21869,-25.83209 -0.24759,-186.966171 c -10.88652,-0.03762 -27.52395,1.265542 -47.40822,1.227929 -10.39791,-0.3127 -7.31149,-0.318986 -7.31149,-0.318986 0,0 -9.7986,-0.122136 -13.38845,0.04182 l -6.83782,-0.213351 -16.90193,-0.356231 -6.13784,0.03349 18.47039,0.244113 C 176.11884,25.15917 143.93729,25.244507 118.88945,25.3482 88.621403,25.473506 72.814404,24.45914 40.610788,25.182562 Z"
     id="path4146"
     inkscape:connector-curvature="0"
     sodipodi:nodetypes="ccccccccccccccccccccccccccccccccccccccccccccccccsccccsc" />
  <path
     style="fill:none;fill-rule:evenodd;stroke:#000000;stroke-width:0.6;stroke-linecap:butt;stroke-linejoin:miter;stroke-opacity:1;stroke-miterlimit:4;stroke-dasharray:none"
     d="m 219.99538,130.89083 -9.54891,5.40478 -1.4516,6.41036 -0.72579,5.34198 -5.08056,5.87617 -8.70951,5.87617 -1.45159,6.94457 0,4.27358 11.43125,-2.80455 2.72583,0.42757 8.34251,1.30857 7.25795,1.6026 7.43937,2.13679 -2.35881,-6.41037 -5.08056,-3.73938 -2.17739,-4.80778 2.17739,-7.47876 4.35475,-5.34197 -0.72579,-6.94457 -4.35477,-4.80778 z"
     id="path4148"
     inkscape:connector-curvature="0"
     sodipodi:nodetypes="ccccccccccccccccccccc" />
  <path
     style="fill:none;fill-rule:evenodd;stroke:#000000;stroke-width:0.6;stroke-linecap:butt;stroke-linejoin:miter;stroke-opacity:1;stroke-miterlimit:4;stroke-dasharray:none"
     d="m 248.18773,152.85572 -0.7258,10.14975 -0.72579,6.94456 -5.08056,4.80778 -7.25793,1.6026 -5.08056,-2.67099 -6.71359,-2.00324 -8.89096,-2.27034 -2.73086,-0.10319 -3.05292,-0.83875 -6.19182,0.40774 3.03927,-0.60097 -6.62287,1.43566 -4.76302,1.035 -9.07242,6.14327 0,5.87617 4.35476,6.41037 7.98372,5.87617 3.62898,8.01296 2.17738,4.27358 0,4.27358 9.09444,-4.0523 8.49314,-3.45609 10.71837,-1.03877 6.57616,-3.32924 8.83783,2.04236 -0.3356,1.92355 -0.13359,2.91385 c 1.46201,-0.97038 3.18062,-1.63854 4.00111,-2.15889 1.35689,-0.86053 0.91754,0.0496 2.27442,-0.94908 l -1.62393,-9.5239 0,-7.47876 -2.17736,-5.34198 -2.17738,-5.34197 7.25794,-6.94457 0.72579,-8.54716 -2.17738,-5.34197 z"
     id="C32.3"
     inkscape:connector-curvature="0"
     sodipodi:nodetypes="ccccccccccccccccccccccccccccsccccccccc"
     inkscape:label="#path4150" />
  <path
     style="fill:none;fill-rule:evenodd;stroke:#000000;stroke-width:0.6;stroke-linecap:butt;stroke-linejoin:miter;stroke-opacity:1;stroke-miterlimit:4;stroke-dasharray:none"
     d="m 227.90576,203.01103 7.94347,-13.29569 1.45159,-5.87617 5.80635,-3.73939 4.35476,-1.60259"
     id="path4154"
     inkscape:connector-curvature="0"
     sodipodi:nodetypes="ccccc" />
  <path
     style="fill:none;fill-rule:evenodd;stroke:#000000;stroke-width:0.6;stroke-linecap:butt;stroke-linejoin:miter;stroke-opacity:1;stroke-miterlimit:4;stroke-dasharray:none"
     d="m 251.79944,203.32569 0,6.79922 -4.10571,4.91055 -2.56607,3.02188 2.56607,4.91055 2.56606,5.28828 0,4.53282 0,3.02187 4.61894,4.91055 -1.02644,5.28829 4.10571,5.28828 1.84243,5.19203 -0.36291,3.20518 3.99186,4.54068 0,4.00648 3.47332,5.62804 -13.70203,0.0458 -10.70011,-0.0458 -9.82399,0.023 0.26949,-5.65096 -3.26606,-2.13679 0.72579,-4.27358 -0.72579,-3.20518 -3.62898,-2.671 -1.08868,-3.20517 0.36289,-2.93809 -1.08869,-2.93808 -3.26607,-3.20519 -3.62897,-2.93808 1.81448,-4.00648 -2.90318,-5.34198 -1.45158,-4.27357 -0.36289,-2.1368 -4.71767,-2.13678 -6.53213,-3.73939 0,-2.93808 -0.3629,-4.80778 6.53215,-2.67098 9.7982,-4.27358 8.34663,-1.3355 3.99187,0 6.16923,-3.47228 8.34664,2.40389 -0.36291,4.54067 z"
     id="path4156"
     inkscape:connector-curvature="0"
     sodipodi:nodetypes="ccccccccccccccccccccccccccccccccccccccccccccc" />
  <path
     style="fill:none;fill-rule:evenodd;stroke:#000000;stroke-width:0.6;stroke-linecap:butt;stroke-linejoin:miter;stroke-opacity:1;stroke-miterlimit:4;stroke-dasharray:none"
     d="m 60.570109,88.484948 9.798212,-6.677469 5.806348,-6.410366 1.451582,-5.876177 4.354768,1.068401 -2.177384,4.807776 -0.725791,4.807776 5.80635,2.670983 8.709514,-6.410366 7.257942,-2.67099 7.25793,-3.205179 11.61269,-0.534197 12.3385,2.670983 9.43531,0.534196 14.51587,0.534197 21.04802,1.602597 12.33848,5.876169 7.25793,8.547154 5.80636,8.012963 7.25792,8.012961 0.72581,4.27358 5.08054,-0.5342 -0.72579,-11.752341 -5.08056,-10.149749 -7.98372,-12.820733 -10.88689,-8.547161 -15.24167,-2.13679 -15.24166,-1.335492 -14.51588,-1.335494"
     id="path4158"
     inkscape:connector-curvature="0"
     sodipodi:nodetypes="ccccccccccccccccccccccccccccc" />
  <path
     style="fill:none;fill-rule:evenodd;stroke:#000000;stroke-width:0.6;stroke-linecap:butt;stroke-linejoin:miter;stroke-opacity:1;stroke-miterlimit:4;stroke-dasharray:none"
     d="m 61.6588,94.094015 14.515869,1.602598 3.628966,8.012957 3.628966,8.01296 2.177384,4.27358 2.177384,-6.94457 1.451582,-5.34197 7.257932,-0.5342 4.354767,3.73938 8.70953,4.80778 7.25792,3.20518 3.62896,0.5342 5.80636,-2.13679 -14.51587,-6.94456 -5.80635,-4.80778 -4.35476,-3.205185 6.53214,-6.944562 10.16111,-4.807778 10.88691,-2.136794 23.95118,2.136794 15.96747,3.205181 12.33848,5.876177 15.24165,6.944557 7.25794,10.14975 5.08055,11.75234 -2.17737,10.14975 -2.90318,5.34197 -3.62896,5.34198 8.34662,-1.60259"
     id="path4160"
     inkscape:connector-curvature="0"
     sodipodi:nodetypes="ccccccccccccccccccccccccccccc" />
  <path
     style="fill:none;fill-rule:evenodd;stroke:#000000;stroke-width:0.6;stroke-linecap:butt;stroke-linejoin:miter;stroke-opacity:1;stroke-miterlimit:4;stroke-dasharray:none"
     d="m 219.16895,131.43743 5.40139,-3.38519 6.19835,10.38015 0.72579,10.68395 -3.62896,6.94457 2.17736,9.61555 4.53622,10.68395"
     id="path4162"
     inkscape:connector-curvature="0"
     sodipodi:nodetypes="ccccccc" />
  <path
     style="fill:none;fill-rule:evenodd;stroke:#000000;stroke-width:0.6;stroke-linecap:butt;stroke-linejoin:miter;stroke-opacity:1;stroke-miterlimit:4;stroke-dasharray:none"
     d="m 205.36592,190.24953 13.79006,-1.06839 8.70954,0.5342 0,0 -1.4516,-0.5342"
     id="path4164"
     inkscape:connector-curvature="0" />
  <path
     style="fill:none;fill-rule:evenodd;stroke:#000000;stroke-width:0.6;stroke-linecap:butt;stroke-linejoin:miter;stroke-opacity:1;stroke-miterlimit:4;stroke-dasharray:none"
     d="m 207.54329,193.45472 10.8869,1.06839 7.98373,-1.06839 2.90317,-0.5342"
     id="path4166"
     inkscape:connector-curvature="0" />
  <path
     style="fill:none;fill-rule:evenodd;stroke:#000000;stroke-width:0.6;stroke-linecap:butt;stroke-linejoin:miter;stroke-opacity:1;stroke-miterlimit:4;stroke-dasharray:none"
     d="M 146.93953,61.775079 115.36751,59.37119 84.884194,56.166007 69.642528,57.768598 56.578245,62.042177"
     id="path4174"
     inkscape:connector-curvature="0"
     sodipodi:nodetypes="ccccc" />
  <path
     style="fill:none;fill-rule:evenodd;stroke:#000000;stroke-width:0.60000002;stroke-linecap:butt;stroke-linejoin:miter;stroke-miterlimit:4;stroke-dasharray:none;stroke-opacity:1"
     d="m 214.38372,225.2205 11.73244,-2.25169 10.66585,-2.60721 9.00673,-2.84422 -0.94808,0.47403"
     id="path4155"
     inkscape:connector-curvature="0"
     sodipodi:nodetypes="ccccc" />
  <path
     style="fill:none;fill-rule:evenodd;stroke:#000000;stroke-width:0.60000002;stroke-linecap:butt;stroke-linejoin:miter;stroke-miterlimit:4;stroke-dasharray:none;stroke-opacity:1"
     d="m 219.12409,236.71592 13.39158,-2.84423 6.87355,-2.13317 10.90288,-3.31827"
     id="path4157"
     inkscape:connector-curvature="0"
     sodipodi:nodetypes="cccc" />
  <path
     style="fill:none;fill-rule:evenodd;stroke:#000000;stroke-width:0.6;stroke-linecap:butt;stroke-linejoin:miter;stroke-opacity:1;stroke-miterlimit:4;stroke-dasharray:none"
     d="m 224.93106,248.56687 15.88028,-3.08125 9.00672,-2.13317 4.9774,-2.84423"
     id="path4159"
     inkscape:connector-curvature="0" />
  <path
     style="fill:none;fill-rule:evenodd;stroke:#000000;stroke-width:0.6;stroke-linecap:butt;stroke-linejoin:miter;stroke-opacity:1;stroke-miterlimit:4;stroke-dasharray:none"
     d="m 230.14548,260.65484 13.51009,-1.89615 9.9548,-2.84423 4.9774,-2.84423 0,0"
     id="path4161"
     inkscape:connector-curvature="0" />
  <path
     style="fill:none;fill-rule:evenodd;stroke:#000000;stroke-width:0.60000002;stroke-linecap:butt;stroke-linejoin:miter;stroke-miterlimit:4;stroke-dasharray:none;stroke-opacity:1"
     d="m 232.8712,270.1356 19.31705,-2.84423 5.68846,-3.08124 4.85889,-0.71106"
     id="path4163"
     inkscape:connector-curvature="0"
     sodipodi:nodetypes="cccc" />
</svg>
