<?xml version="1.0" encoding="UTF-8" standalone="no"?>
<!-- Created with Inkscape (http://www.inkscape.org/) -->

<svg
   xmlns:dc="http://purl.org/dc/elements/1.1/"
   xmlns:cc="http://creativecommons.org/ns#"
   xmlns:rdf="http://www.w3.org/1999/02/22-rdf-syntax-ns#"
   xmlns:svg="http://www.w3.org/2000/svg"
   xmlns="http://www.w3.org/2000/svg"
   xmlns:sodipodi="http://sodipodi.sourceforge.net/DTD/sodipodi-0.dtd"
   xmlns:inkscape="http://www.inkscape.org/namespaces/inkscape"
   width="300mm"
   height="300mm"
   viewBox="0 0 1062.9921 1062.9921"
   id="svg2"
   version="1.1"
   inkscape:version="0.91 r13725"
   sodipodi:docname="Level3_C50.svg">
  <defs
     id="defs4">
    <inkscape:path-effect
       effect="spiro"
       id="path-effect4191"
       is_visible="true" />
    <inkscape:path-effect
       effect="spiro"
       id="path-effect4241"
       is_visible="true" />
    <inkscape:path-effect
       effect="spiro"
       id="path-effect4237"
       is_visible="true" />
    <inkscape:path-effect
       effect="spiro"
       id="path-effect4233"
       is_visible="true" />
    <inkscape:path-effect
       effect="spiro"
       id="path-effect4229"
       is_visible="true" />
    <inkscape:path-effect
       effect="spiro"
       id="path-effect4225"
       is_visible="true" />
    <inkscape:path-effect
       effect="spiro"
       id="path-effect4169"
       is_visible="true" />
    <inkscape:path-effect
       effect="spiro"
       id="path-effect4165"
       is_visible="true" />
    <inkscape:path-effect
       effect="spiro"
       id="path-effect4161"
       is_visible="true" />
    <inkscape:path-effect
       effect="spiro"
       id="path-effect4157"
       is_visible="true" />
    <inkscape:path-effect
       effect="spiro"
       id="path-effect4153"
       is_visible="true" />
    <inkscape:path-effect
       effect="spiro"
       id="path-effect4169-9"
       is_visible="true" />
    <inkscape:path-effect
       effect="spiro"
       id="path-effect4165-4"
       is_visible="true" />
    <inkscape:path-effect
       effect="spiro"
       id="path-effect4161-3"
       is_visible="true" />
    <inkscape:path-effect
       effect="spiro"
       id="path-effect4157-2"
       is_visible="true" />
    <inkscape:path-effect
       effect="spiro"
       id="path-effect4153-5"
       is_visible="true" />
  </defs>
  <sodipodi:namedview
     id="base"
     pagecolor="#ffffff"
     bordercolor="#666666"
     borderopacity="1.0"
     inkscape:pageopacity="0.0"
     inkscape:pageshadow="2"
     inkscape:zoom="0.49497475"
     inkscape:cx="648.49036"
     inkscape:cy="524.60676"
     inkscape:document-units="px"
     inkscape:current-layer="layer1"
     showgrid="false"
     inkscape:window-width="1366"
     inkscape:window-height="705"
     inkscape:window-x="-8"
     inkscape:window-y="-8"
     inkscape:window-maximized="1" />
  <metadata
     id="metadata7">
    <rdf:RDF>
      <cc:Work
         rdf:about="">
        <dc:format>image/svg+xml</dc:format>
        <dc:type
           rdf:resource="http://purl.org/dc/dcmitype/StillImage" />
        <dc:title></dc:title>
      </cc:Work>
    </rdf:RDF>
  </metadata>
  <g
     inkscape:label="Laag 1"
     inkscape:groupmode="layer"
     id="layer1"
     transform="translate(0,10.629921)">
    <path
       style="fill:none;fill-rule:evenodd;stroke:#000000;stroke-width:1.25;stroke-linecap:butt;stroke-linejoin:miter;stroke-miterlimit:4;stroke-dasharray:none;stroke-opacity:1"
       d="m 194.72923,945.60878 -0.52922,9.02693 0,8.49604 2.11614,7.96496 4.76162,9.55796 5.29041,7.96502 6.87776,7.43399 7.40666,5.84092 9.52313,5.3101 9.5228,2.6549 9.52319,1.062 10.58087,0 6.87776,-0.531 11.63938,-3.1859 8.46468,-4.248 6.34855,-4.24804 6.34891,-5.31003 4.23234,-5.30997 5.81969,-11.15096 3.17427,-7.96495 1.58691,-6.90297 0,-10.08905 -4.76118,-18.05393 -3.7035,-7.434 -4.23239,-6.372 -6.87776,-6.37198 -6.34848,-4.24799 -5.29085,-3.18598 -5.81931,-3.186 -6.87776,-2.12401 -8.46506,-1.593 -7.4066,-0.53098 -9.5228,1.06201 -9.5232,2.124 -7.4066,3.18597 -7.40699,3.18601 -8.46473,7.43397 -5.29046,5.31001 -4.76157,5.84094 -3.7035,7.43405 -2.64504,5.30997 z"
       id="C50.9"
       inkscape:connector-curvature="0"
       inkscape:label="#path4217-8" />
    <path
       style="fill:none;fill-rule:evenodd;stroke:#000000;stroke-width:1.25;stroke-linecap:butt;stroke-linejoin:miter;stroke-miterlimit:4;stroke-dasharray:none;stroke-opacity:1"
       d="m 36.005547,945.05057 -0.529284,9.02698 0,8.49598 2.116197,7.965 4.761621,9.55796 5.290409,7.96499 6.877763,7.43401 7.406994,5.84101 9.5228,5.31 9.522807,2.6549 9.52319,1.062 10.580866,0 6.87776,-0.531 11.63933,-3.1859 8.46473,-4.248 6.34853,-4.24803 6.34892,-5.31 4.23235,-5.30997 5.81968,-11.15097 3.17427,-7.965 1.58692,-6.90298 0,-10.089 -4.76119,-18.05398 -3.70349,-7.43396 -4.23239,-6.37199 -6.87777,-6.37199 -6.34853,-4.24799 -5.29041,-3.18597 -5.8197,-3.18602 -6.87776,-2.12399 -8.46472,-1.59301 -7.406996,-0.53099 -9.52281,1.06201 -9.52313,2.124 -7.40665,3.18597 -7.406607,3.18601 -8.465065,7.43398 -5.290464,5.31 -4.761566,5.84096 -3.703109,7.43402 -2.645425,5.30996 z"
       id="C50.8"
       inkscape:connector-curvature="0"
       inkscape:label="#path4217" />
    <path
       id="path4223"
       style="fill:none;fill-rule:evenodd;stroke:#000000;stroke-width:1.25;stroke-linecap:butt;stroke-linejoin:miter;stroke-miterlimit:4;stroke-dasharray:none;stroke-opacity:1"
       d="m 265.86649,953.6312 c 0.75935,3.14331 0.53841,2.27092 0.5246,3.44601 -0.0882,7.49241 0.15345,3.78815 -0.0729,6.26032 l -0.0882,4.78943 -0.68721,4.76242 -2.63046,4.40502 -4.79918,3.42191 -6.17249,2.44054 c -2.36929,0.50068 -4.35546,1.40422 -7.48178,0.9387 l -8.02063,-2.31497 c 0,0 1.12254,0.28179 1.47384,-0.50154 m 2.20552,-54.44316 -3.47111,4.6934 -1.74418,6.19531 -0.35666,5.81984 1.27327,6.19531 4.194,5.44436 5.17232,2.62835 4.98555,0.56321 6.5238,-0.98039 c 1.81168,-0.50136 5.35598,-1.45633 5.35598,-1.45633 -0.16875,-0.43683 4.32862,-0.29752 4.29371,-1.68002 -0.13036,-5.11336 -0.13424,-8.56326 0.0536,-12.59188 0.18791,4.15122 0,-8.94879 -3.10788,-11.45187 l -5.19038,-4.88121 -5.54659,-1.87733 -7.21184,0.56298 z"
       inkscape:connector-curvature="0"
       sodipodi:nodetypes="csccccccccccccccccccsscccccc" />
    <path
       style="fill:none;fill-rule:evenodd;stroke:#000000;stroke-width:1.25;stroke-linecap:butt;stroke-linejoin:miter;stroke-miterlimit:4;stroke-dasharray:none;stroke-opacity:1"
       d="m 84.649574,936.74474 -0.37584,3.75473 0.37584,5.63206 3.92786,4.50569 5.23749,3.00379 4.48892,2.44055 4.676486,3.0038 3.92782,3.00379 2.99288,4.69342 1.49643,5.81979 -0.93533,6.38307 -3.17968,5.25663 -5.2375,3.00376 -5.798586,0.18783 -4.67605,-0.93869 -5.23755,-3.37924 -2.80567,-4.50565 -0.74825,-6.19536 0.56144,-5.6321 2.99248,-4.88113 4.1154,-3.37928 4.11501,-1.87734 6.359626,-2.25268 4.48892,-3.19152 3.36716,-4.50569 1.68325,-6.00755 -0.93501,-5.44435 -3.74112,-4.69342 -5.23748,-2.6283 -5.611446,-0.18784 -5.61145,1.68965 -3.17962,3.75473 z"
       id="path4230"
       inkscape:connector-curvature="0"
       sodipodi:nodetypes="ccccccccccccccccccccccccccccccccc" />
    <path
       style="fill:none;fill-rule:evenodd;stroke:#000000;stroke-width:1.25;stroke-linecap:butt;stroke-linejoin:miter;stroke-miterlimit:4;stroke-dasharray:none;stroke-opacity:1"
       d="m 46.846259,340.39281 41.21314,15.68319 25.512891,23.52479 c 5.33307,7.77447 10.56705,15.61691 15.70025,23.52478 6.71548,10.34543 13.25846,20.80283 19.6253,31.36639 l 9.81266,33.32677 6.06792,33.17542 m 15.70024,41.16838 9.63233,33.47814 10.23807,60.3334 9.71403,29.11044 5.55088,23.56558 c 0.3044,12.94298 0.76702,25.88225 1.38771,38.81392 0.37726,7.85997 0.81295,15.7176 1.38772,23.5656 0.71203,9.72222 1.63748,19.42882 2.77545,29.11043 l 0,26.33801 -2.77545,26.33802 -6.93858,29.11044 m 617.53477,-1.38621 -8.32631,-24.95181 c -0.67512,-7.84075 -1.13792,-15.69979 -1.38772,-23.56559 -0.35205,-11.08562 -0.28101,-22.18142 0,-33.26907 0.26954,-10.63485 0.73221,-21.26481 1.38772,-31.88286 l 9.71403,-56.83467 12.48947,-37.42769 c 2.20388,-12.13639 4.98347,-24.16823 8.32631,-36.0415 3.131,-11.12086 6.75528,-22.10116 9.71403,-33.26908 1.57914,-5.96054 2.9678,-11.97153 4.16316,-18.02073 l 17.24435,-32.80895 c 4.61972,12.71728 9.04887,25.50379 13.28546,38.35378 7.55421,22.91264 14.4961,46.02716 20.81577,69.31057 4.10966,10.18735 8.2729,20.35309 12.48947,30.49665 4.44941,10.70369 8.95968,21.38598 13.87719,31.88286 6.13814,13.10243 12.90312,25.89975 19.42806,38.81392 13.52622,26.77111 26.02788,54.05986 37.46843,81.78646 M 998.28727,210.4072 983.02236,192.38645 956.6557,177.13813 934.45221,167.43465 903.9224,157.73117 880.33118,146.64148 c -10.11548,-2.9906 -20.29522,-5.76387 -30.52981,-8.31726 -12.4144,-3.09722 -24.90952,-5.8709 -37.4684,-8.31727 l -44.40699,-13.86212 -34.69297,-6.93106 c -9.61488,-4.38532 -19.33246,-8.54547 -29.14209,-12.475895 -5.98006,-2.396031 -11.99433,-4.706697 -18.04035,-6.931058 L 665.23479,69.013648 M 366.8753,70.399859 348.83496,89.806817 c -8.7247,3.405463 -17.51582,6.640777 -26.36666,9.703483 -9.67557,3.34809 -19.42115,6.48947 -29.14209,9.70347 -14.85988,4.91307 -29.66351,9.99629 -44.407,15.24833 l -29.14209,6.93106 -23.59121,2.77242 -26.36666,-4.15863 -24.97893,-6.93106 -22.2035,-2.77242 -34.692964,0 -18.040342,-1.38621 -30.529809,1.38621"
       id="path4189"
       inkscape:path-effect="#path-effect4191"
       inkscape:original-d="m 46.846259,340.39281 41.21314,15.68319 25.512891,23.52479 15.70025,23.52478 19.6253,31.36639 9.81266,33.32677 6.06792,33.17542 m 15.70024,41.16838 9.63233,33.47814 10.23807,60.3334 9.71403,29.11044 5.55088,23.56558 1.38771,38.81392 1.38772,23.5656 2.77545,29.11043 0,26.33801 -2.77545,26.33802 -6.93858,29.11044 m 617.53477,-1.38621 -8.32631,-24.95181 -1.38772,-23.56559 0,-33.26907 1.38772,-31.88286 9.71403,-56.83467 12.48947,-37.42769 8.32631,-36.0415 9.71403,-33.26908 4.16316,-18.02073 17.24435,-32.80895 13.28546,38.35378 20.81577,69.31057 12.48947,30.49665 13.87719,31.88286 19.42806,38.81392 37.46843,81.78646 m -1.38774,-612.70539 -15.26491,-18.02075 -26.36666,-15.24832 -22.20349,-9.70348 -30.52981,-9.70348 -23.59122,-11.08969 -30.52981,-8.31726 -37.4684,-8.31727 -44.40699,-13.86212 -34.69297,-6.93106 L 704.09092,96.737875 686.05057,89.806817 665.23479,69.013648 M 366.8753,70.399859 348.83496,89.806817 322.4683,99.5103 l -29.14209,9.70347 -44.407,15.24833 -29.14209,6.93106 -23.59121,2.77242 -26.36666,-4.15863 -24.97893,-6.93106 -22.2035,-2.77242 -34.692964,0 -18.040342,-1.38621 -30.529809,1.38621"
       inkscape:connector-curvature="0"
       sodipodi:nodetypes="ccccccccccccccccccccccccccccccccccccccccccccccccccccccccccccc" />
    <path
       id="50.6"
       style="fill:none;fill-rule:evenodd;stroke:#000000;stroke-width:1.25;stroke-linecap:butt;stroke-linejoin:miter;stroke-miterlimit:4;stroke-dasharray:none;stroke-opacity:1"
       d="M 851.17731,342.04602 834.1606,330.5922 m -34.36709,-18.1352 -11.34447,-3.18162 21.02065,0.31816 20.01965,-0.63631 11.67814,-1.90898 18.68502,-3.81793 11.01081,-4.1361 13.01279,-5.09059 19.01867,-9.22668 15.34841,-8.27219 7.67421,-2.86346 6.33955,-0.31816 4.3376,3.49977 2.66926,4.77243 0.33372,6.68139 -2.00199,5.40874 -1.66831,6.36324 -3.33662,7.63587 -4.33759,9.54484 -7.00687,15.27176 -7.00689,13.68093 -5.33858,15.58991 -5.33857,11.13566 -2.66929,8.2722 -9.67617,30.22534 m -715.79771,-15.50546 -5.66242,6.74921 -1.88747,8.09908 -16.04351,-45.89472 -8.49362,-20.69762 -10.38109,-21.14757 -7.07802,-13.04851 -5.66242,-10.79874 -0.47187,-13.49846 1.88748,-9.44891 8.02176,-4.04954 6.60614,2.24975 10.85296,3.14964 16.04351,9.44891 12.26857,4.94943 9.90923,6.29927 10.85296,3.14964 11.7967,1.7998 11.7967,1.79979 16.04352,2.24974 18.40284,2.24974 10.3811,-1.34984 4.71868,0 8.49363,0 -13.68419,2.69969 -11.32483,3.59958 -18.40284,8.09908"
       inkscape:label="#path4169"
       inkscape:connector-curvature="0"
       sodipodi:nodetypes="cccccccccccccccccccccccccccccccccccccccccccccccccccccc" />
    <path
       id="C50.2"
       style="fill:none;fill-rule:evenodd;stroke:#000000;stroke-width:1.25;stroke-linecap:butt;stroke-linejoin:miter;stroke-miterlimit:4;stroke-dasharray:none;stroke-opacity:1"
       d="m 730.21673,503.43739 -13.68417,-1.34984 -12.26856,-1.34985 -21.23406,-4.04953 -15.57164,-2.69969 -14.15605,-3.14964 -16.51537,-3.59959 -10.3811,-2.69968 -15.57164,-5.84934 -7.54988,-2.69968 -9.90924,-5.84934 -9.90923,-4.49947 -12.26856,-7.64912 -9.43736,-10.34882 0.94373,-18.89781 5.19548,-21.15871 6.00591,-13.36279 6.67322,-12.72645 9.34251,-17.18072 9.34251,-12.72646 11.34446,-10.18116 16.68306,-12.09014 16.01574,-8.2722 13.34643,-5.09059 18.01769,-6.36323 13.34645,-1.27264 16.68305,-3.18161 14.6811,-1.90897 16.68305,0 20.01965,2.54529 6.67323,8.2722 9.34251,12.72646 8.60696,11.98206 5.66241,10.79876 4.71868,12.59855 3.30308,13.49845 2.35934,14.84828 1.4156,12.1486 1.41561,12.14862 -0.94374,16.19813 -0.94374,12.14861 -4.24681,26.54694 m -530.73254,-4.94943 -1.88747,-15.29824 -1.88747,-17.99792 0,-23.39732 0,-8.99897 1.88747,-17.09802 4.71868,-16.19815 5.66242,-14.39834 6.60615,-16.19814 8.49362,-9.89885 10.38111,-14.39835 7.54988,-6.29928 23.59339,-1.79979 25.48088,0.89989 16.0435,2.69969 27.36835,7.19918 23.5934,9.89886 22.64966,14.39834 17.93098,14.39834 11.32483,17.99794 11.32483,19.79772 3.77494,17.09804 5.66243,17.09803 3.77494,22.49741 -15.09978,13.49845 -17.93097,9.89886 -17.93099,7.19918 -22.64967,8.09907 -26.4246,4.49947 -27.36835,6.29929 -18.87472,4.49947 -16.98724,0.8999 -7.54989,1.79979"
       inkscape:label="#path4172"
       inkscape:connector-curvature="0"
       sodipodi:nodetypes="ccccccccccccccccccccccccccccccccccccccccccccccccccccccccccccccccccccccccccc" />
    <path
       id="C50.4"
       style="fill:none;fill-rule:evenodd;stroke:#000000;stroke-width:1.25;stroke-linecap:butt;stroke-linejoin:miter;stroke-miterlimit:4;stroke-dasharray:none;stroke-opacity:1"
       d="m 821.52319,514.6861 5.19054,0.67492 4.95461,0 5.4265,1.34985 9.67328,-0.67493 5.19055,0.22498 5.89835,0.44995 5.89835,-1.34985 5.42648,-0.67492 3.53902,-1.34984 4.24681,-2.24974 7.54989,-4.72447 3.539,-2.69968 2.59528,-1.57482 2.8312,-3.59959 2.35935,-10.79875 0,-14.39835 0.47185,-13.49845 0,-10.34881 -2.35933,-16.19814 -2.35934,-12.59855 -1.88748,-12.1486 -4.71868,-10.79876 -6.13427,-13.49844 -5.19056,-8.99897 -7.54988,-12.14861 -7.07802,-9.89886 -8.49363,-10.79876 -9.04192,-6.99128 -8.67518,-6.36323 -11.01082,-6.36324 -9.00884,-5.09057 -7.34055,-2.22713 -9.67617,-2.86346 -7.6742,-3.18162 -8.34153,-1.5908 -12.67911,-2.22713 -9.67618,-0.31816 -2.33563,-0.31816 8.00787,8.27219 4.33759,5.72691 6.67322,11.45381 7.6742,10.49932 4.00394,5.40875 2.33563,6.04507 1.33464,6.04507 2.66929,5.40875 1.6683,5.7269 0.66732,7.63587 1.66831,6.04507 1.00098,6.04507 0.33367,7.95404 1.33464,6.36323 0.33366,4.1361 0.33366,6.68139 -0.33366,8.90852 -0.33366,5.72692 -0.33367,6.36322 -0.66731,7.63587 -0.33366,5.7269 -1.66831,7.95404 -1.00099,5.72692 -1.00098,6.04506 m -530.708,0.31816 -2.66929,-14.63543 -1.33464,-15.27175 -1.33465,-15.27174 2.00196,-12.09014 0,-21.63498 0.66733,-10.81749 4.00393,-11.45382 5.33858,-10.81748 4.67125,-13.99911 4.67125,-8.2722 7.34055,-8.2722 6.8538,-9.82725 9.82925,-11.80773 -19.35233,3.18162 -18.68503,3.18162 -14.01376,5.09057 -11.34448,4.45427 -14.01376,6.99955 -9.34251,8.2722 -8.00787,6.36323 -6.67323,10.18116 -8.67518,8.90853 -6.00589,11.45381 -4.00394,6.36323 -5.33857,10.81749 -6.67323,12.72646 -4.00393,12.09014 -2.00196,10.18116 -2.00197,7.63588 0,13.36278 0,15.27174 -0.66732,13.99911 -0.66732,10.81749 1.33464,8.90852 4.00393,5.72691 11.34448,8.90852 7.34055,2.54529 8.00787,3.81794 11.34446,-0.63633 12.67912,0.63633 12.67912,0"
       inkscape:label="#path4175"
       inkscape:connector-curvature="0"
       sodipodi:nodetypes="ccccccccccccccccccccccccccccccccccccccccccccccccccccccccccccccccccccccccccccccccccccccccccccccccccccccccc" />
    <path
       id="C50.5"
       style="fill:none;fill-rule:evenodd;stroke:#000000;stroke-width:1.25;stroke-linecap:butt;stroke-linejoin:miter;stroke-miterlimit:4;stroke-dasharray:none;stroke-opacity:1"
       d="m 775.04419,538.0834 -1.4156,4.49949 -1.41561,3.82455 -1.65153,4.4995 -1.88747,4.49948 -2.59528,4.94943 -0.94373,2.92465 -2.35934,3.14966 -1.65154,5.39936 -3.30308,3.82457 -2.83121,4.04953 -3.06715,4.04954 -0.70779,3.82455 -3.30308,2.92467 -3.77494,2.69969 -6.37022,4.04954 -6.13428,4.72445 -6.84209,3.59958 -2.8312,1.12488 -8.72956,1.79979 -4.71868,1.57482 -5.42648,-0.67492 11.32483,1.12486 6.13428,1.12488 5.19055,0.89989 7.54989,0.67493 7.78582,-0.22498 7.54988,0 8.49363,0 6.60615,-0.22497 11.56077,-1.34985 7.54989,-1.57481 7.31394,-2.02478 6.84209,-2.69968 6.84209,-1.79979 5.66241,-1.79979 6.13429,-2.02478 4.24682,-2.02476 7.07801,-2.92466 4.95461,-2.47472 5.19056,-3.59959 5.89833,-4.2745 4.01089,-2.24975 4.71868,-4.04953 3.77495,-4.04953 4.71867,-5.17441 3.53901,-4.49948 5.19055,-7.42415 4.01088,-5.62436 2.35933,-4.04952 2.59528,-4.72446 4.24681,-6.29928 2.59527,-6.0743 3.06715,-5.84932 0.7078,-3.59959 1.17966,-4.49949 0.47188,-4.49948 0.94373,-3.14963 0.70781,-3.82456 2.1234,-6.07431 -4.71868,4.72446 -4.48275,3.3746 -5.66241,3.37462 -4.95461,2.69968 -6.13428,2.6997 -4.01089,0 -5.66241,1.12487 -3.77495,0 -5.89834,-0.22497 -8.02176,0.22497 -4.24681,0 -4.24682,-1.12487 -5.89834,0 -4.24681,-0.44995 -4.71868,-1.34984 m -578.62715,-1.12488 -8.02175,2.24975 -27.84021,1.34984 -8.96549,0 -16.04351,-6.74922 -14.79698,-13.88688 4.00393,14.63542 4.67126,12.09014 5.33858,14.63543 6.67321,13.36278 8.67519,10.81749 11.34448,12.09014 13.34644,11.45381 13.34644,8.90852 16.01574,6.99956 12.67912,3.81794 15.3484,5.09058 14.68109,1.27265 16.68306,1.90896 18.01769,0 18.68501,-2.54529 9.87849,-1.66264 -11.32483,-0.89989 -7.54989,-2.69969 -6.60615,-3.59958 -4.71869,-2.6997 -8.96548,-8.09906 -4.24682,-2.6997 -6.60615,-10.3488 -6.13428,-6.74923 -2.35934,-4.49948 -1.88747,-4.04954 -2.35935,-7.64911 -2.83121,-6.29928 -2.35933,-8.99897"
       inkscape:label="#path4178"
       inkscape:connector-curvature="0"
       sodipodi:nodetypes="cccccccccccccccccccccccccccccccccccccccccccccccccccccccccccccccccccccccccccccccccccccccccccccccccccccccccccccc" />
    <path
       id="C50.3"
       style="fill:none;fill-rule:evenodd;stroke:#000000;stroke-width:1.25;stroke-linecap:butt;stroke-linejoin:miter;stroke-miterlimit:4;stroke-dasharray:none;stroke-opacity:1"
       d="m 730.05835,504.30837 -11.34447,-1.90897 -16.68305,-1.59082 -10.3435,-1.90896 -9.34251,-2.86345 -13.34643,-2.22713 -17.35038,-3.81794 -7.67421,-0.95449 -11.0108,-3.18161 -6.0059,-1.27264 -5.33858,-1.59082 -5.33858,-1.90897 -4.67126,-1.90896 -6.33956,-3.18162 -5.00491,-2.22713 -4.33759,-2.22712 -5.33858,-2.86346 -5.00491,-2.54529 -5.67225,-2.86346 -6.33955,-3.1816 -3.33661,-2.5453 -8.00787,-8.90853 -0.33366,7.31772 1.6683,11.77197 1.66831,7.31772 1.6683,6.36323 1.66832,6.99955 2.00195,6.68139 3.00296,6.36324 4.00393,11.4538 4.00394,7.63588 6.00589,8.2722 5.67224,10.18116 5.00492,6.36323 5.33858,6.99955 5.00491,4.77243 4.00393,4.45426 8.00786,6.68139 8.00787,5.72691 9.67617,7.3177 7.67421,5.0906 10.67714,5.7269 12.0118,5.7269 11.67814,5.09059 8.00787,2.86345 9.67616,3.49978 11.42766,-0.12642 13.68416,-2.69968 9.90923,-6.29928 7.54988,-4.94943 9.43737,-6.74923 3.77495,-7.64911 6.60615,-10.34882 4.2468,-7.64912 4.71868,-9.44891 2.83121,-5.84933 2.35934,-5.84933 m -448.09712,-38.64727 22.02163,-2.54529 16.68305,-3.81794 18.68502,-3.81794 19.35234,-4.45426 13.34645,-1.27264 13.34644,-3.18162 22.02163,-8.27219 13.34644,-5.72692 12.67912,-6.99955 8.67518,-5.7269 10.00983,-10.18116 -2.66928,15.90806 -1.33465,17.18072 -4.67125,12.72646 -5.33858,10.18117 -4.00393,10.81749 -5.33858,10.18116 -6.67322,8.90853 -5.33857,8.90852 -10.00983,10.18116 -6.67323,7.63588 -10.67715,8.90852 -8.00787,7.63587 -12.01179,8.2722 -14.01377,7.63588 -14.68108,5.09058 -14.01376,5.09058 -10.67717,3.18162 -10.00982,2.54529 -8.67519,0 -8.00786,-3.18161 -10.00983,-5.72691 -14.68109,-10.81749 -8.00786,-11.45381 -8.00787,-10.81749 -4.67125,-13.99911 -3.33661,-11.45381 0,-3.81794"
       inkscape:label="#path4181"
       inkscape:connector-curvature="0"
       sodipodi:nodetypes="cccccccccccccccccccccccccccccccccccccccccccccccccccccccccccccccccccccccccccccccccccccccccccccccc" />
    <path
       id="C50.1"
       style="fill:none;fill-rule:evenodd;stroke:#000000;stroke-width:1.25;stroke-linecap:butt;stroke-linejoin:miter;stroke-miterlimit:4;stroke-dasharray:none;stroke-opacity:1"
       d="m 818.45601,503.43741 c 0,19.38297 -19.64741,35.09597 -43.88372,35.09597 -24.23631,0 -43.88372,-15.713 -43.88372,-35.09597 0,-19.38296 19.64741,-35.09596 43.88372,-35.09596 24.23631,0 43.88372,15.713 43.88372,35.09596 z m -492.62555,-2.94699 c 10e-6,20.04347 -19.72894,36.29192 -44.06582,36.29192 -24.33688,0 -44.06582,-16.24845 -44.06581,-36.29192 0,-20.04347 19.72894,-36.29191 44.06581,-36.29191 24.33688,0 44.06582,16.24844 44.06582,36.29191 z"
       inkscape:label="#path4184"
       inkscape:connector-curvature="0"
       sodipodi:nodetypes="ssssssssss" />
    <path
       id="C50.0"
       style="fill:none;fill-rule:evenodd;stroke:#000000;stroke-width:1.25;stroke-linecap:butt;stroke-linejoin:miter;stroke-miterlimit:4;stroke-dasharray:none;stroke-opacity:1"
       d="m 795.80635,502.98746 c 0,8.20049 -6.97166,14.8483 -15.57165,14.8483 -8.59998,0 -15.57164,-6.64781 -15.57164,-14.8483 0,-8.20048 6.97166,-14.84829 15.57164,-14.84829 8.59998,0 15.57165,6.6478 15.57165,14.84829 z m -502.02992,-0.58804 c 0,7.73149 -7.46926,13.9991 -16.68305,13.9991 -9.2138,0 -16.68306,-6.26761 -16.68306,-13.9991 0,-7.73149 7.46926,-13.9991 16.68306,-13.9991 9.21379,0 16.68305,6.26761 16.68305,13.9991 z"
       inkscape:label="#path4190"
       inkscape:connector-curvature="0"
       sodipodi:nodetypes="ssssssssss" />
  </g>
</svg>
