<?xml version="1.0" encoding="UTF-8" standalone="no"?>
<!-- Created with Inkscape (http://www.inkscape.org/) -->

<svg
   xmlns:dc="http://purl.org/dc/elements/1.1/"
   xmlns:cc="http://creativecommons.org/ns#"
   xmlns:rdf="http://www.w3.org/1999/02/22-rdf-syntax-ns#"
   xmlns:svg="http://www.w3.org/2000/svg"
   xmlns="http://www.w3.org/2000/svg"
   xmlns:sodipodi="http://sodipodi.sourceforge.net/DTD/sodipodi-0.dtd"
   xmlns:inkscape="http://www.inkscape.org/namespaces/inkscape"
   id="svg4136"
   version="1.1"
   inkscape:version="0.91 r13725"
   width="300"
   height="300"
   viewBox="0 0 300 300"
   sodipodi:docname="trachea.svg">
  <metadata
     id="metadata4142">
    <rdf:RDF>
      <cc:Work
         rdf:about="">
        <dc:format>image/svg+xml</dc:format>
        <dc:type
           rdf:resource="http://purl.org/dc/dcmitype/StillImage" />
        <dc:title></dc:title>
      </cc:Work>
    </rdf:RDF>
  </metadata>
  <defs
     id="defs4140" />
  <sodipodi:namedview
     pagecolor="#ffffff"
     bordercolor="#666666"
     borderopacity="1"
     objecttolerance="10"
     gridtolerance="10"
     guidetolerance="10"
     inkscape:pageopacity="0"
     inkscape:pageshadow="2"
     inkscape:window-width="1366"
     inkscape:window-height="706"
     id="namedview4138"
     showgrid="false"
     inkscape:zoom="1.0848485"
     inkscape:cx="95.385828"
     inkscape:cy="121.45662"
     inkscape:window-x="-8"
     inkscape:window-y="-8"
     inkscape:window-maximized="1"
     inkscape:current-layer="svg4136" />
  <path
     style="fill:none;fill-rule:evenodd;stroke:#000000;stroke-width:0.6;stroke-linecap:butt;stroke-linejoin:miter;stroke-opacity:1;stroke-miterlimit:4;stroke-dasharray:none"
     d="m 129.19314,76.870905 8.65447,-4.426287 10.22801,5.164003 11.89701,-4.340629 7.17229,2.608216 1.43446,7.071582 -0.78677,10.328017 0.73904,7.939703 -1.57354,12.54117 0.78678,12.54116 0,12.54116 -0.78678,11.80345 0,13.27886 0,12.54117 -0.78677,15.49202 1.57355,14.75431 2.3603,16.96746 1.57354,9.59029 2.36032,2.21315 -8.65448,7.37715 -8.65447,5.90173 -4.72062,7.37716 -7.86771,-0.73773 -5.50739,-9.59029 -8.65447,-5.90172 -5.5074,-4.97958 3.93386,-6.82387 0,-14.01659 2.36031,-12.54116 -0.78677,-11.06574 0,-13.27887 -1.57354,-16.22974 -0.78677,-11.80345 0,-14.01659 0,-14.01659 0,-12.54116 0.78677,-8.852586 -0.78677,-12.541162 1.57354,-6.639439 z"
     id="C33"
     inkscape:connector-curvature="0"
     sodipodi:nodetypes="cccccccccccccccccccccccccccccccccccccccc"
     inkscape:label="#path4146" />
  <path
     style="fill:none;fill-rule:evenodd;stroke:#000000;stroke-width:0.6;stroke-linecap:butt;stroke-linejoin:miter;stroke-opacity:1;stroke-miterlimit:4;stroke-dasharray:none"
     d="m 128.0607,229.10109 12.58832,5.90173 10.22801,0 9.83464,-1.47543 7.47431,-3.68858 2.36032,-4.4263 -0.98347,-3.873 -10.81809,6.08616 -11.80155,0.73771 -7.08093,-0.73771 -5.5074,-1.47544 -5.50739,-1.47543 -0.78677,-6.63944 0.78677,-2.95085 10.22801,2.95085 11.01478,1.10658 7.86772,-0.73772 5.8769,0.11187 c -2.52461,-0.22638 3.10915,0.49757 3.10915,0.49757 0,0 2.55516,-0.97604 2.00487,-2.52628"
     id="path4148"
     inkscape:connector-curvature="0"
     sodipodi:nodetypes="cccccccccccccccccccc" />
  <path
     style="fill:none;fill-rule:evenodd;stroke:#000000;stroke-width:0.6;stroke-linecap:butt;stroke-linejoin:miter;stroke-opacity:1;stroke-miterlimit:4;stroke-dasharray:none"
     d="m 128.9627,78.58095 11.99824,2.213144 c 2.41206,0.444508 5.67482,0.40025 8.291,0.46197 2.46667,0.05818 5.05797,-0.117333 7.83779,-0.646394 l 7.27763,-2.02872 3.54046,8e-6 c 0.68493,3.534686 0.93688,6.110114 0.5802,8.668151 l -10.80821,1.659857 -10.03132,0.553286 -8.26109,-0.184422 -6.49085,-1.106581 -5.11401,-0.184431 0.39338,5.348444 11.80156,2.213142 12.58832,0 8.65448,-0.73772 6.29415,-0.737705 0.78678,9.590301 -9.04786,-1.29101 -7.67101,0.36886 -6.49085,-0.18443 -8.26109,-1.10658 -4.72062,0 -3.93385,0 -0.3934,5.7173 11.40818,0.92214 12.58832,0.73772 5.3107,0.18443 6.29416,0 4.32724,-0.18443 -0.98346,9.5903 -12.58832,0 -11.80156,-1.47543 -7.86771,0 -6.88423,-0.36886 c 0.0656,3.66865 -0.0656,4.54925 0,6.63944 l 15.53871,1.84429 13.3751,0 7.08093,0 4.13054,0.36885 -0.19669,8.48373 -15.73541,-1.47543 -11.01478,-0.73771 -7.08094,-0.73772 -6.29416,0 0,8.11488 13.96518,0.36885 11.21147,1.10657 7.08094,0.73772 7.67101,0.73771 -0.59008,9.5903 -11.80156,-1.47543 -8.65448,-1.291 -7.47431,0.73771 -5.50739,0.55329 -5.70408,0.36886 0.78677,7.93045 16.32548,-0.92215 10.22801,0 5.5074,0 6.29416,0 0,8.85258 -13.37509,-2.21315 -8.65448,0 -6.29416,0 -9.44124,0.73772 0.78677,5.90172 12.58832,1.47543 11.60486,-0.55329 8.0644,0.55329 4.91732,-1.47543 -0.1967,5.90172 -7.47432,1.65987 -7.47432,1.291 -10.22801,-0.73773 -5.50739,-1.47541 -6.29416,0 0,5.90172 15.14532,2.582 13.1784,-1.10658 8.65447,-1.84429 -0.78676,7.74602 -12.58832,0.73771 -11.01479,0.73772 -6.29416,0 -6.09748,-2.21315 0.78678,8.85258 13.96517,1.65986 12.58833,-1.65986 6.29416,0 3.14708,-1.47543 0.98346,8.85259 -12.19494,0.36886 -7.47432,0.36886 -9.44124,-1.10658 -6.88424,1e-5 -1.37685,-1.47544 -0.98346,4.79515 5.90078,2.76643 20.96873,1.50708 7.35499,-1.13823 4.64904,-0.48616 1.05505,4.17474"
     id="path4150"
     inkscape:connector-curvature="0"
     sodipodi:nodetypes="ccscccccccccccccccccccccccccccccccccccccccccccccccccccccccccccccccccccccccccccccccccccccccccccccccccccc" />
  <path
     style="fill:none;fill-rule:evenodd;stroke:#000000;stroke-width:0.6;stroke-linecap:butt;stroke-linejoin:miter;stroke-opacity:1;stroke-miterlimit:4;stroke-dasharray:none"
     d="m 124.54265,234.86872 -4.09101,8.46745 -5.00697,6.78137 -5.00697,5.73807 -7.2323,8.3463 6.11963,7.303 8.90129,5.73809 8.90129,3.6515 5.56331,-8.86794 5.5633,-8.86794 3.66387,-5.70644 2.22533,-2.08657 -4.97323,-9.1473 -5.76,-3.77265 -5.6925,-4.78429 z"
     id="path4152"
     inkscape:connector-curvature="0"
     sodipodi:nodetypes="cccccccccccccccc" />
  <path
     style="fill:none;fill-rule:evenodd;stroke:#000000;stroke-width:0.6;stroke-linecap:butt;stroke-linejoin:miter;stroke-opacity:1;stroke-miterlimit:4;stroke-dasharray:none"
     d="m 173.73018,235.51151 6.80517,6.78137 10.57029,6.78136 8.34495,5.21644 7.2323,4.17315 3.89432,1.56493 -2.22533,6.25972 -2.22532,6.25973 -4.45065,6.78137 -1.66899,4.17315 -10.57028,-3.12988 -7.2323,-3.65149 -8.34496,-5.21645 -7.78863,-5.21643 -6.67597,-4.17315 -3.8943,-3.12986 -3.1413,-2.88214 4.38315,-6.9658 8.21577,-6.32301 5.52955,-4.02035 z"
     id="path4154"
     inkscape:connector-curvature="0"
     sodipodi:nodetypes="ccccccccccccccccccccc" />
  <path
     style="fill:none;fill-rule:evenodd;stroke:#000000;stroke-width:0.6;stroke-linecap:butt;stroke-linejoin:miter;stroke-opacity:1;stroke-miterlimit:4;stroke-dasharray:none"
     d="m 129.21385,76.67106 -6.53688,-7.563837 -4.45065,-5.738074 0.55633,-8.346299 -0.55633,-9.389582 -2.22532,-6.259724 -2.22532,-5.216433 -1.669,-6.781365 1.11267,-5.738082 7.23229,-2.086575 7.2323,-1.564933 6.11963,0 5.56332,4.173149 3.33798,6.781366 4.45064,5.738082 3.89432,0 2.78165,-4.173149 3.33798,-6.781366 5.00698,-5.216432 8.90129,-1.043292 6.11964,2.086575 5.5633,4.173149 -2.78165,8.86794 -2.22532,6.781366 -1.11267,6.781366 0,6.781366 0,7.303007 -0.69541,5.477261 -2.92073,1.695344 -2.50349,3.260268 -3.33799,5.216433 -7.23229,-2.869037 -7.78863,2.999447 -3.50094,1.749365 -9.99008,-4.487991 c -1.01994,-0.217349 -1.63188,-0.816068 -1.73649,-0.175156 z"
     id="path4156"
     inkscape:connector-curvature="0"
     sodipodi:nodetypes="ccccccccccccccccccccccccccccccccccccc" />
</svg>
