<?xml version="1.0" encoding="UTF-8" standalone="no"?>
<!-- Created with Inkscape (http://www.inkscape.org/) -->

<svg
   width="3023.6221"
   height="1587.4016"
   viewBox="0 0 3023.6221 1587.4016"
   id="svg6871"
   version="1.1"
   inkscape:version="1.2.2 (732a01da63, 2022-12-09)"
   sodipodi:docname="level2_7.svg"
   xmlns:inkscape="http://www.inkscape.org/namespaces/inkscape"
   xmlns:sodipodi="http://sodipodi.sourceforge.net/DTD/sodipodi-0.dtd"
   xmlns="http://www.w3.org/2000/svg"
   xmlns:svg="http://www.w3.org/2000/svg"
   xmlns:rdf="http://www.w3.org/1999/02/22-rdf-syntax-ns#"
   xmlns:cc="http://creativecommons.org/ns#"
   xmlns:dc="http://purl.org/dc/elements/1.1/">
  <defs
     id="defs6873" />
  <sodipodi:namedview
     id="base"
     pagecolor="#ffffff"
     bordercolor="#666666"
     borderopacity="1.0"
     inkscape:pageopacity="0.0"
     inkscape:pageshadow="2"
     inkscape:zoom="0.35"
     inkscape:cx="1537.1429"
     inkscape:cy="665.71428"
     inkscape:document-units="px"
     inkscape:current-layer="layer1"
     showgrid="false"
     inkscape:window-width="1920"
     inkscape:window-height="1009"
     inkscape:window-x="-8"
     inkscape:window-y="-8"
     inkscape:window-maximized="1"
     inkscape:showpageshadow="2"
     inkscape:pagecheckerboard="0"
     inkscape:deskcolor="#d1d1d1" />
  <metadata
     id="metadata6876">
    <rdf:RDF>
      <cc:Work
         rdf:about="">
        <dc:format>image/svg+xml</dc:format>
        <dc:type
           rdf:resource="http://purl.org/dc/dcmitype/StillImage" />
      </cc:Work>
    </rdf:RDF>
  </metadata>
  <g
     inkscape:label="Ebene 1"
     inkscape:groupmode="layer"
     id="layer1"
     transform="translate(0,10.629921)">
    <path
       style="fill:none;fill-rule:evenodd;stroke:#000000;stroke-width:4.55339;stroke-linecap:butt;stroke-linejoin:miter;stroke-miterlimit:4;stroke-dasharray:none;stroke-opacity:1"
       d="m 1263.2214,396.01337 -2.3163,38.92435 v 36.63527 l 9.2626,34.34508 20.8421,41.21458 23.1563,34.3456 30.1045,32.05597 32.4208,25.18634 41.6817,22.8973 41.6817,11.44778 41.684,4.58046 h 46.3128 l 30.1043,-2.28736 50.946,-13.73746 37.0509,-18.3179 27.7878,-18.31738 27.7896,-22.89727 18.5253,-22.89668 25.4729,-48.08361 13.8941,-34.34507 6.9459,-29.76626 v -43.50427 l -20.84,-77.84934 -16.2103,-32.05591 -18.5254,-27.47606 -30.1043,-27.4766 -27.7881,-18.31732 -23.1563,-13.73804 -25.4733,-13.73798 -30.1041,-9.15929 -37.0509,-6.86899 -32.4208,-2.28739 -41.6819,4.5805 -41.6832,9.15867 -32.4193,13.73805 -32.4191,13.73797 -37.0522,32.05598 -23.1567,22.89665 -20.8417,25.18637 -16.2086,32.05594 -11.5793,22.89672 z"
       id="7.1."
       inkscape:connector-curvature="0"
       inkscape:label="#path4217" />
    <text
       xml:space="preserve"
       style="font-style:normal;font-weight:normal;font-size:37.5px;line-height:1.25;font-family:sans-serif;letter-spacing:0px;word-spacing:0px;fill:#000000;fill-opacity:1;stroke:none;stroke-width:0.9375"
       x="176.63023"
       y="165.14104"
       id="text45652" />
    <flowRoot
       xml:space="preserve"
       id="flowRoot45654"
       style="font-style:normal;font-variant:normal;font-weight:normal;font-stretch:normal;font-size:85.3333px;line-height:1.25;font-family:'Times New Roman';-inkscape-font-specification:'Times New Roman, ';letter-spacing:0px;word-spacing:0px;fill:#000000;fill-opacity:1;stroke:none"
       transform="matrix(3.0250981,0,0,3.0250981,919.92172,-179.45706)"><flowRegion
         id="flowRegion45656"
         style="font-style:normal;font-variant:normal;font-weight:normal;font-stretch:normal;font-size:85.3333px;font-family:'Times New Roman';-inkscape-font-specification:'Times New Roman, '"><rect
           id="rect45658"
           width="133.96185"
           height="102.93716"
           x="141.09023"
           y="157.41672"
           style="font-style:normal;font-variant:normal;font-weight:normal;font-stretch:normal;font-size:85.33333588px;font-family:'Times New Roman';-inkscape-font-specification:'Times New Roman, '" /></flowRegion><flowPara
         id="flowPara45660">7.1.</flowPara></flowRoot>
    <path
       style="fill:none;fill-rule:evenodd;stroke:#000000;stroke-width:4.55339;stroke-linecap:butt;stroke-linejoin:miter;stroke-miterlimit:4;stroke-dasharray:none;stroke-opacity:1"
       d="m 1269.6118,1100.7174 -2.3163,38.9243 v 36.6353 l 9.2626,34.3451 20.8421,41.2146 23.1564,34.3455 30.1044,32.056 32.4208,25.1864 41.6818,22.8973 41.6817,11.4477 41.684,4.5805 h 46.3127 l 30.1043,-2.2874 50.9461,-13.7374 37.0508,-18.3179 27.7879,-18.3174 27.7896,-22.8973 18.5252,-22.8966 25.473,-48.0837 13.894,-34.345 6.946,-29.7663 v -43.5043 l -20.84,-77.8493 -16.2104,-32.0559 -18.5254,-27.47607 -30.1043,-27.4766 -27.7881,-18.31732 -23.1563,-13.73804 -25.4732,-13.73798 -30.1042,-9.15929 -37.0508,-6.86899 -32.4208,-2.28739 -41.6819,4.58049 -41.6833,9.15868 -32.4192,13.73804 -32.4192,13.73798 -37.0522,32.05597 -23.1566,22.89666 -20.8417,25.18636 -16.2086,32.056 -11.5793,22.8967 z"
       id="7.2."
       inkscape:connector-curvature="0"
       inkscape:label="#path4217" />
    <flowRoot
       transform="matrix(3.0250981,0,0,3.0250981,926.31218,525.24692)"
       xml:space="preserve"
       id="flowRoot45654-6"
       style="font-style:normal;font-variant:normal;font-weight:normal;font-stretch:normal;font-size:85.3333px;line-height:1.25;font-family:'Times New Roman';-inkscape-font-specification:'Times New Roman, ';letter-spacing:0px;word-spacing:0px;fill:#000000;fill-opacity:1;stroke:none"><flowRegion
         id="flowRegion45656-3"
         style="font-style:normal;font-variant:normal;font-weight:normal;font-stretch:normal;font-size:85.3333px;font-family:'Times New Roman';-inkscape-font-specification:'Times New Roman, '"><rect
           id="rect45658-5"
           width="133.96185"
           height="102.93716"
           x="141.09023"
           y="157.41672"
           style="font-style:normal;font-variant:normal;font-weight:normal;font-stretch:normal;font-size:85.33333588px;font-family:'Times New Roman';-inkscape-font-specification:'Times New Roman, '" /></flowRegion><flowPara
         id="flowPara45660-2">7.2.</flowPara></flowRoot>
    <path
       style="fill:none;stroke:#000000;stroke-width:3.0251px;stroke-linecap:butt;stroke-linejoin:miter;stroke-opacity:1"
       d="m 1372.39,354.26011 91.8333,2.16077 -56.1804,170.70198"
       id="path46232"
       inkscape:connector-curvature="0"
       sodipodi:nodetypes="ccc" />
    <path
       style="fill:none;stroke:#000000;stroke-width:3.0251px;stroke-linecap:butt;stroke-linejoin:miter;stroke-opacity:1"
       d="m 1575.5037,369.3856 38.8941,-19.44708 -3.2411,173.94315"
       id="path46234"
       inkscape:connector-curvature="0"
       sodipodi:nodetypes="ccc" />
    <path
       style="fill:none;stroke:#000000;stroke-width:3.0251px;stroke-linecap:butt;stroke-linejoin:miter;stroke-opacity:1"
       d="m 1378.8723,1060.8366 h 90.753 l -55.1,172.8628"
       id="path46236"
       inkscape:connector-curvature="0"
       sodipodi:nodetypes="ccc" />
    <path
       style="fill:none;stroke:#000000;stroke-width:3.0251px;stroke-linecap:butt;stroke-linejoin:miter;stroke-opacity:1"
       d="m 1562.539,1099.7308 15.1255,-28.0903 25.9294,-12.9647 30.251,8.6432 12.9647,23.7686 v 28.0902 l -8.6432,19.4471 -79.949,88.5921 88.5922,2.1608"
       id="path46238"
       inkscape:connector-curvature="0" />
    <path
       style="fill:none;stroke:#000000;stroke-width:3.0251px;stroke-linecap:butt;stroke-linejoin:miter;stroke-opacity:1"
       d="m 1502.037,519.56009 c 1.8913,3.1482 6.5091,1.90857 8.6432,-1.08036 2.9072,-4.07177 -0.4338,-10.31412 -5.402,-9.72358 -3.7336,0.44377 -5.1774,7.58094 -3.2412,10.80394 z"
       id="path32"
       inkscape:connector-curvature="0"
       sodipodi:nodetypes="ssss" />
    <path
       style="fill:none;stroke:#000000;stroke-width:3.0251px;stroke-linecap:butt;stroke-linejoin:miter;stroke-opacity:1"
       d="m 1697.4914,519.7454 c 1.8913,3.1482 6.509,1.90857 8.6431,-1.08036 2.9073,-4.07176 -0.4338,-10.31411 -5.4019,-9.72358 -3.7336,0.44378 -5.1774,7.58094 -3.2412,10.80394 z"
       id="path32-5"
       inkscape:connector-curvature="0"
       sodipodi:nodetypes="ssss" />
    <path
       style="fill:none;stroke:#000000;stroke-width:3.0251px;stroke-linecap:butt;stroke-linejoin:miter;stroke-opacity:1"
       d="m 1510.5836,1224.1611 c 1.8913,3.1482 6.509,1.9086 8.6431,-1.0803 2.9073,-4.0718 -0.4338,-10.3141 -5.4019,-9.7236 -3.7337,0.4438 -5.1774,7.5809 -3.2412,10.8039 z"
       id="path32-3"
       inkscape:connector-curvature="0"
       sodipodi:nodetypes="ssss" />
    <path
       style="fill:none;stroke:#000000;stroke-width:3.0251px;stroke-linecap:butt;stroke-linejoin:miter;stroke-opacity:1"
       d="m 1705.0542,1226.3219 c 1.8913,3.1482 6.509,1.9086 8.6431,-1.0804 2.9072,-4.0717 -0.4338,-10.3141 -5.4019,-9.7235 -3.7336,0.4437 -5.1775,7.5809 -3.2412,10.8039 z"
       id="path32-0"
       inkscape:connector-curvature="0"
       sodipodi:nodetypes="ssss" />
  </g>
  <g
     inkscape:groupmode="layer"
     id="layer2"
     inkscape:label="Ebene 2" />
</svg>
