<?xml version="1.0" encoding="UTF-8" standalone="no"?>
<!-- Created with Inkscape (http://www.inkscape.org/) -->

<svg
   width="800"
   height="420"
   viewBox="0 0 211.66667 111.125"
   version="1.1"
   id="svg8"
   inkscape:version="1.2.2 (732a01da63, 2022-12-09)"
   sodipodi:docname="level2_5.svg"
   xmlns:inkscape="http://www.inkscape.org/namespaces/inkscape"
   xmlns:sodipodi="http://sodipodi.sourceforge.net/DTD/sodipodi-0.dtd"
   xmlns:xlink="http://www.w3.org/1999/xlink"
   xmlns="http://www.w3.org/2000/svg"
   xmlns:svg="http://www.w3.org/2000/svg"
   xmlns:rdf="http://www.w3.org/1999/02/22-rdf-syntax-ns#"
   xmlns:cc="http://creativecommons.org/ns#"
   xmlns:dc="http://purl.org/dc/elements/1.1/">
  <defs
     id="defs2">
    <clipPath
       id="clipPath1091"
       clipPathUnits="userSpaceOnUse">
      <use
         height="100%"
         width="100%"
         id="use1093"
         xlink:href="#g1087"
         y="0"
         x="0" />
    </clipPath>
  </defs>
  <sodipodi:namedview
     id="base"
     pagecolor="#ffffff"
     bordercolor="#666666"
     borderopacity="1.0"
     inkscape:pageopacity="0.0"
     inkscape:pageshadow="2"
     inkscape:zoom="0.7"
     inkscape:cx="480"
     inkscape:cy="374.28572"
     inkscape:document-units="mm"
     inkscape:current-layer="layer1-3"
     showgrid="false"
     inkscape:snap-nodes="false"
     inkscape:window-width="1920"
     inkscape:window-height="1009"
     inkscape:window-x="-8"
     inkscape:window-y="-8"
     inkscape:window-maximized="1"
     inkscape:showpageshadow="2"
     inkscape:pagecheckerboard="0"
     inkscape:deskcolor="#d1d1d1" />
  <metadata
     id="metadata5">
    <rdf:RDF>
      <cc:Work
         rdf:about="">
        <dc:format>image/svg+xml</dc:format>
        <dc:type
           rdf:resource="http://purl.org/dc/dcmitype/StillImage" />
      </cc:Work>
    </rdf:RDF>
  </metadata>
  <g
     inkscape:label="Layer 1"
     inkscape:groupmode="layer"
     id="layer1">
    <g
       id="layer1-3"
       inkscape:label="Layer 1"
       transform="translate(-6.0022523,-1.06326)">
      <path
         sodipodi:nodetypes="cccccccccscsccccscccccccccccccccccsccccccccccccccccccccccccccsccccccccccccccccccccccccccccaaaaaaassccc"
         inkscape:connector-curvature="0"
         id="path28"
         d="m 23.4757,20.787917 0.633345,1.329562 0.380009,0.725215 0.253337,0.966954 0.506677,1.692169 0.633346,1.087825 0.190004,1.389995 0.443341,1.692169 0.316673,1.631735 c 0,0 0.190003,0.966954 0.190003,1.208692 0,0.24174 0.126669,1.873472 0.126669,1.873472 0,0 0.06334,1.148258 0.06334,1.389997 v 1.631734 l -0.316673,1.450431 -0.06334,1.32956 -0.190005,1.933909 c 0,0 -0.253338,1.329566 -0.316671,1.5713 -0.06334,0.24174 -0.506678,1.752606 -0.506678,1.752606 l -0.380007,1.994342 -0.06334,0.966951 -0.443342,0.846087 c 0,0 -0.886683,0.543911 -1.140021,0.725218 -0.253339,0.181301 -2.09004,1.269124 -2.09004,1.269124 l -1.330025,0.664779 c 0,0 -1.140023,0.785651 -1.39336,1.087827 -0.253339,0.302171 -1.013354,1.208691 -1.013354,1.208691 l -1.583363,2.35695 -0.503135,1.076249 -0.447842,1.025609 -0.268706,0.982876 c 0,0 -0.268706,0.769207 -0.313489,0.982877 -0.04478,0.21367 -0.358276,1.367478 -0.403059,1.538416 -0.04479,0.170932 -0.268707,1.452944 -0.268707,1.452944 0,0 -0.08956,1.452946 -0.179136,1.623883 -0.08957,0.170933 -0.179138,2.051219 -0.179138,2.264889 0,0.213665 0.08957,2.307615 0.08957,2.307615 l 0.223921,2.264888 0.08956,1.452952 0.403059,1.837547 0.313489,1.367478 0.358275,1.068346 v 1.15381 l -0.671764,1.709349 -0.179137,1.111078 0.268705,1.324745 c 0,0 0.223921,0.769212 0.268706,0.982875 0.04478,0.213673 0.358275,1.068345 0.358275,1.068345 l 0.850901,1.239275 0.537411,0.940143 0.94047,1.282013 c 0,0 0.537411,0.940143 0.716549,1.068346 0.179137,0.128197 1.119607,0.769207 1.119607,0.769207 l 1.119607,0.384603 1.522667,0.08547 1.298743,-0.17094 1.25396,-0.213663 0.716549,-0.641009 0.403058,-0.641004 0.71655,-0.854677 0.08956,-0.256407 0.223922,1.196549 c 0,0 -0.134355,0.811944 -0.134355,1.025607 0,0.213674 0.268706,1.196548 0.313491,1.410216 0.07611,0.454633 0.179137,0.905762 0.179137,1.367478 m 63.085388,0.443357 0.553089,-21.297417 0.04473,-1.880287 0.403059,-0.940143 1.074824,-1.239274 0.940472,-1.495682 0.447839,-1.923018 2.239207,-1.452946 0.76134,-0.512802 0.94047,-0.769211 0.71655,-1.025608 1.11961,-1.410213 0.895683,-0.940143 0.67176,-1.111074 c 0,0 0.80612,-1.068342 0.89569,-1.324747 0.0896,-0.256403 0.80612,-1.581148 0.80612,-1.581148 l 0.58219,-1.538417 0.71655,-1.53841 0.62698,-1.495684 0.53742,-1.709348 0.31349,-1.367479 0.44783,-1.794815 0.22393,-1.367479 0.0448,-1.538416 0.0896,-1.452944 0.0896,-1.410218 c 0,0 0.008,-1.111548 -0.0149,-1.666615 -0.0223,-0.52808 -0.0926,-1.053278 -0.11944,-1.581147 -0.0289,-0.569243 -0.004,-1.14087 -0.0448,-1.709348 -0.0395,-0.543711 -0.10936,-1.085355 -0.19407,-1.623881 -0.11416,-0.725935 -0.26729,-1.445439 -0.42296,-2.16362 -0.15312,-0.706519 -0.31027,-1.412863 -0.50256,-2.109749 -0.11915,-0.431823 -0.25455,-0.859386 -0.40306,-1.282012 -0.17736,-0.504746 -0.44181,-0.97943 -0.5822,-1.495681 -0.0984,-0.361994 -0.0681,-0.752719 -0.17909,-1.111077 -0.1863,-0.601784 -0.80611,-1.709349 -0.80611,-1.709349 l -0.49264,-0.982875 -0.2687,-1.111078"
         style="fill:none;stroke:#000000;stroke-width:0.263266;stroke-linecap:butt;stroke-linejoin:miter;stroke-miterlimit:4;stroke-dasharray:none;stroke-opacity:1" />
      <path
         sodipodi:nodetypes="caazssssssssssssassssaaaaaaaaacccccccccssssaaasssssssssssssssasassccc"
         inkscape:label="#path49"
         inkscape:connector-curvature="0"
         id="5.1."
         d="m 69.002574,21.495629 c 0,0 -0.04249,1.144035 0.235589,1.609545 0.287899,0.481981 0.844262,0.764603 1.351698,1.004806 0.34796,0.164709 0.731093,0.201665 1.120436,0.280108 0.389342,0.07844 0.904019,-0.08086 1.213803,0.186739 0.320346,0.27673 0.840331,0.840327 0.373478,1.213806 -0.466846,0.373478 -0.91993,0.700983 -1.120435,1.213806 -0.113331,0.289864 -0.132008,0.651847 0,0.933696 0.103104,0.22013 0.468208,0.241856 0.560215,0.466848 0.118402,0.289512 0.09338,0.560216 -0.09337,0.933697 -0.186737,0.373477 -0.290474,0.481244 -0.373479,0.746957 -0.06561,0.210064 -0.1549,0.442291 -0.09337,0.653588 0.08022,0.275497 0.444133,0.391176 0.560215,0.653587 0.101515,0.229474 0.06533,0.497606 0.09338,0.746958 0.03498,0.310824 0.09418,0.620913 0.09337,0.933696 -0.0016,0.594607 -0.09337,1.400545 -0.186741,1.774024 -0.09337,0.373479 -0.265232,0.804559 -0.373479,1.213807 -0.07338,0.277401 -0.143602,0.556644 -0.186736,0.840325 -0.05633,0.370515 -0.04927,0.748265 -0.09337,1.120437 -0.04817,0.40652 -0.09055,0.815905 -0.186743,1.213805 -0.138759,0.573987 -0.350352,1.128682 -0.560215,1.680657 -0.168469,0.443108 -0.401416,0.860508 -0.56022,1.307172 -0.227707,0.640466 -0.322373,1.323988 -0.560215,1.960761 -0.180261,0.482615 -0.481392,0.914994 -0.653589,1.400545 -0.171566,0.483776 -0.209606,1.007477 -0.373478,1.493914 -0.151339,0.449249 -0.395937,0.862498 -0.56022,1.307178 -0.1808,0.48939 -0.358089,0.983655 -0.466848,1.493913 -0.111054,0.52104 -0.131497,1.057411 -0.186741,1.587282 -0.03566,0.341915 -0.04703,0.686439 -0.09337,1.027068 -0.04692,0.34479 -0.145323,0.681572 -0.186737,1.027067 -0.06309,0.52624 -0.09338,1.587282 -0.09338,1.587282 l -0.186736,1.680655 0.28011,1.587283 1.027061,1.027067 c 0,0 0.37348,0.466847 0.840331,0.840326 0.466847,0.373483 0.560215,0.466851 0.560215,0.466851 l 1.120436,1.307173 c 0,0 0.466853,0.84033 0.653588,1.213809 0.186743,0.373478 0.840326,1.587282 0.840326,1.587282 0,0 0.307036,1.034468 0.746963,1.213803 0.356488,0.145322 0.774295,-0.111608 1.120435,-0.280105 0.319068,-0.155312 0.684419,-0.334813 0.840325,-0.653589 0.177764,-0.36346 0.10495,-0.823055 0,-1.213808 -0.177243,-0.659905 -0.734926,-1.156328 -1.027067,-1.77402 -0.227385,-0.480771 -0.398132,-0.987379 -0.560215,-1.493913 -0.147247,-0.460178 -0.310702,-0.921479 -0.373478,-1.400546 -0.04447,-0.339453 -0.09338,-0.653587 0,-1.027067 0.09337,-0.373477 0.525588,-1.078029 0.840324,-1.587287 0.281507,-0.455492 0.526606,-0.95932 0.933693,-1.307172 0.370362,-0.316472 0.868102,-0.442559 1.307178,-0.653589 0.401635,-0.193035 0.855105,-0.295817 1.213804,-0.560215 0.337053,-0.248441 0.523608,-0.659813 0.840331,-0.933698 0.424406,-0.367003 0.936445,-0.61838 1.400546,-0.933694 0.40704,-0.27655 0.852169,-0.506588 1.213802,-0.84033 0.325069,-0.299998 0.557802,-0.686705 0.840326,-1.027068 0.493773,-0.594852 1.400546,-1.400545 1.493913,-1.774019 0.09337,-0.373478 0.68003,-2.117905 1.027068,-3.174569 0.18426,-0.56104 0.410768,-1.109358 0.560221,-1.680657 0.208547,-0.797201 0.364626,-1.609942 0.466846,-2.427606 0.06575,-0.525917 0.03232,-1.060806 0.09337,-1.587288 0.08372,-0.721739 0.140417,-1.459316 0.373478,-2.147501 0.258992,-0.764741 0.859718,-1.383349 1.120435,-2.147503 0.285845,-0.837815 0.373478,-2.240873 0.466847,-2.614351 0.09337,-0.373479 0.262203,-1.488315 0.28011,-2.240872 0.01929,-0.811365 -0.167177,-1.616252 -0.186737,-2.427611 -0.02628,-1.08944 0.276993,-2.193762 0.09337,-3.267938 -0.146085,-0.854596 -0.9337,-2.42761 -0.9337,-2.42761 l -0.280103,-0.840327 z"
         style="fill:none;stroke:#000000;stroke-width:0.263266;stroke-linecap:butt;stroke-linejoin:miter;stroke-miterlimit:4;stroke-dasharray:none;stroke-opacity:1" />
      <path
         sodipodi:nodetypes="cccaaacaaacccaazsaaaassccssssssassccc"
         inkscape:label="#path874"
         inkscape:connector-curvature="0"
         id="5.3."
         d="m 38.470465,26.416788 c -0.09337,0.37348 -0.746958,1.587285 -0.746958,1.587285 l -0.37348,1.400544 c 0,0 -0.16137,0.957039 -0.152937,1.439499 0.01551,0.886966 0.09664,1.792167 0.373479,2.634964 0.28681,0.87316 0.894766,1.60628 1.307174,2.427612 0.252183,0.502234 0.713157,1.527717 0.713157,1.527717 0,0 0.718627,1.447177 1.120435,2.147501 0.505528,0.881106 0.993777,1.781557 1.621086,2.58055 0.652411,0.830966 1.347737,1.660108 2.207071,2.274673 1.007861,0.720785 3.361306,1.587283 3.361306,1.587283 l 1.587285,0.373478 1.960763,0.28011 c 0,0 1.867393,0 2.801091,0 0.59134,0 1.185298,-0.05557 1.774022,0 0.662394,0.06252 1.300541,0.342667 1.960762,0.373479 0.660223,0.03081 1.587283,-0.09337 1.960761,-0.18674 0.373478,-0.09337 1.755663,-0.321559 2.61435,-0.560218 1.01468,-0.282018 1.988286,-0.695382 2.987833,-1.027066 0.775374,-0.257294 1.636729,-0.321658 2.334239,-0.746958 0.526121,-0.320796 0.924591,-0.824121 1.307178,-1.307174 0.477257,-0.602583 0.867454,-1.274526 1.213802,-1.960764 0.377587,-0.748132 0.775218,-1.511343 0.933695,-2.33424 0.164799,-0.855727 0,-2.614351 0,-2.614351 l -0.37348,-3.174567 c 0,0 -0.212791,-1.435267 -0.560215,-2.054134 -0.37721,-0.671934 -0.988009,-1.196237 -1.587281,-1.680654 -0.792854,-0.640899 -1.684331,-1.169642 -2.614354,-1.587283 -0.772341,-0.346832 -1.625282,-0.476641 -2.427608,-0.746958 -0.942431,-0.317522 -1.849131,-0.739363 -2.801092,-1.027066 -1.531917,-0.46298 -3.104217,-0.782498 -4.66848,-1.120437 -0.805449,-0.174005 -1.624545,-0.282154 -2.427611,-0.466847 -1.287568,-0.296121 -2.520907,-0.83572 -3.828157,-1.027066 -1.078267,-0.15783 -2.181467,-0.177948 -3.267939,-0.09337 -1.357156,0.105651 -4.014894,0.746957 -4.014894,0.746957 l -2.42761,0.840327 z"
         style="fill:none;stroke:#000000;stroke-width:0.263266;stroke-linecap:butt;stroke-linejoin:miter;stroke-miterlimit:4;stroke-dasharray:none;stroke-opacity:1" />
      <path
         inkscape:label="#path891"
         sodipodi:nodetypes="ssaaasssssssssaaaaasaacasss"
         inkscape:connector-curvature="0"
         id="5.4."
         d="m 53.71506,49.897207 c 0.03116,0.624793 0.05054,1.256831 0.18674,1.867393 0.122156,0.547621 0.129033,1.1723 0.316385,1.726617 0.227965,0.674478 0.522929,1.348394 0.968529,1.903669 0.428987,0.534572 1.033811,0.902868 1.587285,1.307175 0.515541,0.376597 1.060106,0.924487 1.609544,1.038196 0.681493,0.141039 1.393908,-0.153404 2.054133,-0.373478 0.462154,-0.154052 0.90636,-0.376698 1.307172,-0.653588 0.453037,-0.312963 0.826916,-0.72864 1.213804,-1.120436 0.294206,-0.29794 0.566194,-0.617187 0.840331,-0.933696 0.318286,-0.367486 0.689288,-0.700178 0.933693,-1.120435 0.267368,-0.459741 0.373478,-0.995943 0.56022,-1.493915 0.186742,-0.497971 0.480739,-0.968053 0.56022,-1.493914 0.07921,-0.524059 -0.01793,-1.062668 -0.09338,-1.587285 -0.05909,-0.41101 -0.02325,-0.887556 -0.280105,-1.213807 -0.258308,-0.328078 -0.726417,-0.422 -1.12044,-0.560216 -0.420497,-0.147502 -0.863842,-0.235016 -1.307173,-0.280109 -0.441363,-0.04489 -0.889964,-0.03799 -1.330881,0.01108 -0.494602,0.0551 -0.974153,0.204504 -1.45908,0.316385 -0.304768,0.07032 -0.506847,0.226581 -0.911432,0.223017 -0.202773,-0.0017 -0.576871,0.13741 -0.870832,0.139333 -0.483564,0.0032 -0.958435,-0.130637 -1.435378,-0.210442 -0.520312,-0.08707 -1.555337,-0.292683 -1.555337,-0.292683 0,0 -0.409179,-0.0079 -0.592164,0.06966 -0.283311,0.1201 -0.344652,0.267449 -0.715012,0.58392 -0.203544,0.173927 -0.385142,0.398628 -0.466848,0.653589 -0.15197,0.474216 -0.0248,0.996562 0,1.493914 z"
         style="fill:none;stroke:#000000;stroke-width:0.263266;stroke-linecap:butt;stroke-linejoin:miter;stroke-miterlimit:4;stroke-dasharray:none;stroke-opacity:1" />
      <path
         sodipodi:nodetypes="cccscsccccssasssssscsssasssasssassssssssssscssssssaaaaaccccssssssssssscccccsssassssscccccaaaaccsasaccacccc"
         inkscape:label="#path908"
         inkscape:connector-curvature="0"
         id="5.5."
         d="m 39.414446,64.513943 0.49015,1.125172 c 0,0 0.267355,1.081897 0.311913,1.254999 0.04455,0.173103 0.222797,1.081899 0.222797,1.298274 0,0.21638 -0.08912,1.471379 -0.08912,1.471379 0,0 -0.04456,0.649142 0.04456,0.908791 0.08912,0.259658 0.356472,0.735691 0.356472,0.735691 0,0 0.267355,0.432763 0.311913,0.605861 0.04455,0.173105 0.178238,0.908798 0.178238,0.908798 0,0 0.08912,0.692412 0.133676,0.952071 0.04456,0.259653 0.167846,0.551753 0.267355,0.822235 0.0808,0.219621 0.21077,0.42207 0.267355,0.649141 0.0736,0.295354 0.095,0.604466 0.08912,0.908791 -0.0085,0.436735 -0.106463,0.867397 -0.178237,1.298278 -0.05072,0.304509 -0.09412,0.611769 -0.178237,0.908791 -0.09233,0.326049 -0.337362,0.613738 -0.356472,0.952069 -0.03103,0.549346 0.237467,1.075858 0.401033,1.601208 0.10074,0.323551 0.339336,0.613628 0.356473,0.95207 0.03545,0.700126 -0.265304,1.386772 -0.534711,2.033964 -0.135072,0.324485 -0.534709,0.908785 -0.534709,0.908785 0,0 -0.356523,0.411472 -0.579268,0.562587 -0.175107,0.118796 -0.392538,0.359194 -0.579269,0.259658 -0.154991,-0.08261 -0.149888,-0.354528 -0.08912,-0.519312 0.09361,-0.253852 0.460932,-0.303278 0.623827,-0.519307 0.199351,-0.264382 0.332723,-0.5848 0.401032,-0.908796 0.08035,-0.381104 0,-0.77896 0,-1.168443 0,-0.418333 0.01951,-0.837125 0,-1.255004 -0.01487,-0.318395 -0.05871,-0.63478 -0.08912,-0.95207 -0.02903,-0.302996 -0.124479,-0.606467 -0.08912,-0.90879 0.02657,-0.227222 0.08912,-0.432758 0.222796,-0.649137 0.133678,-0.216379 0.201713,-0.42134 0.222795,-0.649136 0.03763,-0.406515 -0.135384,-0.805725 -0.178235,-1.211724 -0.04856,-0.460006 -0.09798,-0.922349 -0.08912,-1.384828 0.0055,-0.289978 0.119768,-0.57711 0.08912,-0.86552 -0.03046,-0.286591 0.04455,-0.432758 -0.267356,-0.822236 -0.311914,-0.389483 -0.431531,-0.448423 -0.623826,-0.692416 -0.162455,-0.206131 -0.345652,-0.406458 -0.445592,-0.649142 -0.09491,-0.230465 -0.0053,-0.522062 -0.133677,-0.735683 -0.155965,-0.259459 -0.534714,-0.519291 -0.712946,-0.562588 -0.178242,-0.0433 -0.948394,-0.308378 -1.336774,-0.605866 -0.22255,-0.170468 -0.305364,-0.487925 -0.534708,-0.649138 -0.24521,-0.172364 -0.550367,-0.25743 -0.846622,-0.302933 -0.3673,-0.05641 -0.743316,0.01681 -1.113979,0.04328 -0.417069,0.02977 -1.247654,0.129829 -1.247654,0.129829 0,0 -0.629258,0.296589 -0.891183,0.519313 -0.213562,0.181598 -0.293805,0.50577 -0.534708,0.649131 -0.13004,0.07739 -0.300772,0.04283 -0.44564,0.08656 -0.431255,0.130168 -0.884342,0.252983 -1.247654,0.519308 -0.334674,0.245331 -0.552955,0.620195 -0.802065,0.952066 -0.353795,0.471341 -0.689683,0.958681 -0.980299,1.471389 -0.204769,0.361253 -0.389225,0.736233 -0.53471,1.125169 -0.184376,0.492907 -0.344958,1.000428 -0.424545,1.520636 -0.07918,0.51754 -0.07167,1.046825 -0.04926,1.569901 0.02523,0.588946 0.06324,1.184537 0.206452,1.756357 0.158113,0.631302 0.499006,1.20295 0.712945,1.817581 0.267722,0.769149 0.712947,2.336902 0.712947,2.336902 l 1.515009,1.990685 1.515009,1.557932 1.693246,0.692412 c 0,0 1.298179,-0.334172 1.871483,-0.08655 0.41879,0.180881 0.469869,0.863689 0.891182,1.038619 0.357652,0.148497 0.779186,-0.0087 1.158537,-0.08655 0.522949,-0.107313 1.046728,-0.262979 1.515009,-0.519312 0.366107,-0.200406 0.654699,-0.517853 0.9803,-0.778966 0.357761,-0.286908 0.792677,-0.499836 1.069418,-0.865515 0.227337,-0.300395 0.260075,-0.710741 0.445591,-1.03862 0.17513,-0.309522 0.437951,-0.562327 0.623831,-0.865521 0.203523,-0.331971 0.423725,-0.665375 0.534707,-1.038614 0.08266,-0.278004 0.07424,-0.57587 0.08912,-0.86552 0.02367,-0.461004 0.058,-0.926875 0,-1.384823 -0.05989,-0.472879 -0.356472,-1.384828 -0.356472,-1.384828 l -0.267351,-0.865521 0.08912,-0.865515 0.44559,-1.125174 0.178234,-1.81758 c 0,0 0.139954,-0.762144 0.04458,-1.12518 -0.06463,-0.245996 -0.273281,-0.429202 -0.401032,-0.649131 -0.140288,-0.241512 -0.332056,-0.465043 -0.401031,-0.735691 -0.04631,-0.181717 -0.0048,-0.375116 0,-0.562582 0.0074,-0.288801 0.103042,-0.582617 0.04458,-0.865524 -0.0814,-0.393949 -0.321609,-0.740704 -0.534712,-1.081894 -0.115866,-0.185501 -0.340606,-0.309114 -0.401029,-0.519312 -0.0841,-0.292537 0.06224,-0.605596 0.08912,-0.908791 0.03322,-0.374763 0.082,-0.74901 0.08912,-1.125176 0.0069,-0.360871 -0.04456,-1.081894 -0.04456,-1.081894 l -0.222799,-1.298277 -0.401032,-0.908792 z m 0.544112,-11.418149 c 0,0 0.830075,-0.539581 1.193691,-0.872191 0.38227,-0.349672 0.700277,-0.764658 1.024861,-1.168447 0.549724,-0.683868 1.058077,-1.400533 1.559571,-2.120516 0.246851,-0.354397 0.508175,-0.701631 0.712945,-1.081896 0.178612,-0.33169 0.296967,-0.692454 0.44559,-1.038621 0.153138,-0.356682 0.459699,-1.069923 0.459699,-1.069923 l -1.296919,-0.72833 c 0,0 -0.195605,0.57191 -0.321315,0.846185 -0.129888,0.283392 -0.162258,0.564171 -0.297809,0.822241 -0.09888,0.188267 -0.297685,0.345624 -0.370578,0.519309 -0.116322,0.27716 -0.216256,0.561369 -0.342364,0.834213 -0.158746,0.34346 -0.520604,1.008693 -0.520604,1.008693 l -0.722351,1.105839 c 0,0 -0.568008,0.621284 -0.874838,0.908792 -0.209812,0.196601 -0.658981,0.5566 -0.658981,0.5566 0,0 -0.910918,0.738104 -1.232429,1.074535 z"
         style="fill:none;stroke:#000000;stroke-width:0.263266;stroke-linecap:butt;stroke-linejoin:miter;stroke-miterlimit:4;stroke-dasharray:none;stroke-opacity:1" />
      <path
         sodipodi:nodetypes="zaccccccccccsssssssssssssscsssssssssssscccccccccccccccccccccccccccssssccccccccssssccccccccccaaaz"
         inkscape:label="#path927"
         inkscape:connector-curvature="0"
         id="5.6."
         d="m 19.132986,54.540232 c -0.238549,0.29353 -0.482421,0.630079 -0.694582,0.964758 -0.265871,0.419404 -0.72203,1.303054 -0.72203,1.303054 l -0.752115,1.495307 -0.391099,1.312206 -0.451268,1.525821 -0.361013,1.708922 -0.180508,2.960094 -0.03008,2.929577 0.120334,2.715964 0.120334,1.922534 0.511439,2.441318 c 0,0 0.09568,1.126383 0.210591,1.678403 0.10154,0.487819 0.246394,0.967657 0.421185,1.43427 0.05892,0.157282 0.25818,0.296667 0.21059,0.457739 -0.08074,0.273291 -0.531595,0.245761 -0.722029,0.457756 -0.181886,0.202479 -0.290936,0.46939 -0.361015,0.73239 -0.12334,0.462885 -0.138032,0.957627 -0.09025,1.434275 0.05778,0.57645 0.260491,1.131378 0.451268,1.678404 0.149648,0.429098 0.324321,0.851993 0.541521,1.251172 0.198687,0.365152 0.476967,0.681756 0.691947,1.037561 0.227637,0.376753 0.361067,0.812519 0.631776,1.159624 0.276838,0.354966 0.682266,0.589585 0.992791,0.915489 0.301888,0.316842 0.493387,0.742964 0.842367,1.007043 0.376818,0.285141 0.83781,0.455226 1.293636,0.579811 0.350446,0.09578 0.720471,0.145042 1.083045,0.122069 0.515019,-0.03264 1.504227,-0.366184 1.504227,-0.366184 0,0 0.459346,-0.324971 0.661861,-0.518787 0.222632,-0.213068 0.431953,-0.44468 0.601692,-0.701883 0.224876,-0.340755 0.402954,-0.714552 0.541521,-1.098587 0.117135,-0.324647 0.148376,-0.674478 0.240678,-1.007044 0.0799,-0.287892 0.240828,-0.557186 0.27076,-0.854457 0.03792,-0.376596 -0.06362,-0.754882 -0.120334,-1.129111 -0.03108,-0.205014 -0.0583,-0.412462 -0.120335,-0.610324 -0.08971,-0.286121 -0.166243,-0.595962 -0.361014,-0.823945 -0.146982,-0.172046 -0.377696,-0.249566 -0.571607,-0.366196 -0.08878,-0.05339 -0.216233,-0.06451 -0.27076,-0.152591 -0.310928,-0.502301 -0.0799,-1.179286 -0.09025,-1.769946 -0.01108,-0.630656 0.03008,-1.769959 0.03008,-1.892025 0,-0.122058 -0.270761,-3.234741 -0.270761,-3.234741 l -0.06017,-2.56338 -0.09025,-2.410795 v -3.326292 l 0.09025,-1.647889 0.481353,-1.220657 0.812283,-1.190141 0.992791,-0.671361 1.444059,-0.213615 1.865244,0.09155 1.353805,0.12207 1.263551,0.183098 1.865244,0.396715 2.015666,0.457746 1.05296,0.396713 3.519894,0.884977 2.376681,0.42723 1.774988,0.244133 2.105922,0.457746 1.895326,0.152582 2.075835,0.183098 1.835159,0.06104 2.045749,-0.06104 1.32372,-0.183098 1.23347,-0.549297 0.872447,-0.42723 0.511447,-0.549296 c 0,0 0.310143,-0.494485 0.421173,-0.76291 0.0971,-0.234735 0.182045,-0.47998 0.210599,-0.732394 0.04123,-0.364422 -0.0366,-0.732603 -0.06017,-1.098592 -0.02623,-0.407154 0.07509,-0.847668 -0.09025,-1.220657 -0.16505,-0.372318 -0.842359,-0.884978 -0.842359,-0.884978 l -0.661861,-0.518779 -0.962709,-0.549296 -0.932625,-0.33568 -1.293633,-0.305165 -1.383889,-0.09155 -2.406765,-0.305164 -1.534314,-0.122069 c 0,0 -1.892132,0.05068 -2.617357,-0.457747 -0.37038,-0.259661 -0.394113,-0.822766 -0.6755,-1.176922 -0.144563,-0.181947 -0.310262,-0.356883 -0.510553,-0.474722 -0.681267,-0.400818 -1.500338,-0.498384 -2.254937,-0.733667 -0.720571,-0.224672 -1.999662,-0.604195 -2.169847,-0.64735 -0.170184,-0.04315 -2.254937,-0.647352 -2.254937,-0.647352 l -2.935676,-0.733665 -1.914569,-0.561038 -1.786931,-0.431568 -2.133815,-0.422355 -0.992791,-0.213616 -1.444059,-0.152581 -1.955496,0.06103 -1.474145,0.03051 c 0,0 -1.148844,0.491101 -1.698637,0.786009 -0.695061,0.372831 -1.379396,0.773275 -2.015665,1.239402 -0.363702,0.266447 -0.709255,0.561071 -1.022875,0.884977 -0.248756,0.256914 -0.436855,0.540011 -0.675406,0.83354 z"
         style="fill:none;stroke:#000000;stroke-width:0.263266;stroke-linecap:butt;stroke-linejoin:miter;stroke-miterlimit:4;stroke-dasharray:none;stroke-opacity:1" />
      <path
         inkscape:label="#path949"
         sodipodi:nodetypes="sssassssssssscssssssss"
         inkscape:connector-curvature="0"
         id="5.2."
         d="m 71.675702,67.11909 c -0.585895,0.172923 -1.089495,0.612207 -1.477846,1.083755 -0.392263,0.476293 -0.622738,1.080461 -0.788189,1.674895 -0.25674,0.922409 -0.467248,1.915215 -0.295568,2.857169 0.171176,0.939178 0.629818,1.863332 1.280799,2.561603 0.572268,0.613832 1.382946,0.982912 2.167511,1.280804 1.125987,0.427528 2.343618,0.635795 3.546833,0.689658 2.242748,0.100396 4.584781,0.06377 6.699576,-0.689658 1.407182,-0.501327 2.608542,-1.492262 3.743882,-2.463083 1.113173,-0.951868 2.046852,-2.102693 2.955693,-3.251262 0.47069,-0.594846 0.684055,-1.234031 1.286779,-1.876892 0.312056,-0.332835 0.793808,-0.820229 1.077781,-1.177326 0.620672,-0.780499 1.056683,-1.874566 0.886706,-2.857173 -0.08396,-0.485407 -0.492615,-1.083754 -0.886706,-1.182279 -0.394092,-0.09853 -2.083813,-0.90122 -3.152742,-1.280801 -1.164968,-0.413683 -2.313079,-1.005448 -3.546834,-1.083754 -1.163861,-0.07387 -2.266035,0.295569 -3.448315,0.591139 -1.182274,0.295569 -1.954718,0.827939 -2.857169,1.379324 -0.743689,0.454386 -1.401244,0.921695 -2.085887,1.576371 -0.441512,0.422185 -0.876484,1.107659 -1.362422,1.477848 -0.587069,0.447229 -1.339552,0.675993 -2.068987,0.788185 -0.552765,0.08502 -1.138504,-0.256835 -1.674895,-0.09852 z"
         style="fill:none;stroke:#000000;stroke-width:0.263266;stroke-linecap:butt;stroke-linejoin:miter;stroke-miterlimit:4;stroke-dasharray:none;stroke-opacity:1" />
      <path
         sodipodi:nodetypes="cccccccccccccccccccccccccccccccccccc"
         inkscape:connector-curvature="0"
         id="path961"
         d="M 120.28314,19.908374 V 21.8096 l -0.14921,2.44441 c 0,0 0,1.6296 0.14921,2.1728 0.14922,0.5432 0.29827,3.80241 0.29827,3.80241 l 0.44739,3.25923 0.44739,5.02463 0.74566,6.3826 0.59652,2.85183 1.04391,3.80241 1.04392,2.716 0.44737,2.71604 v 4.8888 l -0.14921,7.60484 0.14921,5.83943 -0.14921,6.65422 0.89479,6.79003 v 5.70363 m 62.95474,0.0827 0.57474,-12.84802 2.83346,-0.9506 3.72828,-2.44441 2.38607,-2.4444 1.78958,-2.03702 1.78956,-2.98761 1.34216,-3.80242 1.34218,-3.80242 1.34218,-6.24681 0.44739,-6.65425 v -4.20977 l -0.74565,-5.02461 -1.34218,-3.53081 -2.08782,-5.56784 -2.08782,-5.02462 -2.53523,-3.53081 -1.78955,-3.395022"
         style="fill:none;stroke:#000000;stroke-width:0.257473;stroke-linecap:butt;stroke-linejoin:miter;stroke-miterlimit:4;stroke-dasharray:none;stroke-opacity:1" />
      <path
         sodipodi:nodetypes="ssssscsssscssssssssscassssssaass"
         inkscape:label="#path980"
         inkscape:connector-curvature="0"
         id="5.7."
         d="m 135.59854,34.44833 c -0.48639,1.28741 -0.25291,2.77589 0,4.12869 0.1533,0.82 0.52363,1.59121 0.90413,2.33357 0.55383,1.08056 1.22241,2.11007 1.98906,3.05165 0.53626,0.65862 1.11762,1.30075 1.80826,1.79508 0.65663,0.47 2.16991,1.07703 2.16991,1.07703 0,0 1.3089,0.6397 1.98907,0.89754 0.94418,0.35793 1.91875,0.63295 2.89321,0.89754 1.01549,0.27574 2.06281,0.42701 3.07402,0.71803 1.59247,0.45832 3.13595,1.07234 4.70148,1.61557 1.02575,0.35594 3.07402,1.07706 3.07402,1.07706 0,0 1.43806,0.97054 2.16991,1.43603 0.77478,0.49281 1.4668,1.18745 2.35072,1.43608 1.04442,0.29377 2.1879,0.19676 3.25486,0 0.82485,-0.15212 1.56061,-0.61614 2.35074,-0.89754 1.07657,-0.38343 2.29419,-0.45807 3.25485,-1.07706 0.82155,-0.52935 1.51466,-1.29961 1.98908,-2.15408 0.33135,-0.59676 0.58655,-1.29342 0.54246,-1.97458 -0.0503,-0.77708 -0.43998,-1.52881 -0.9041,-2.1541 -0.55949,-0.75377 -1.52596,-1.11204 -2.16992,-1.79506 -0.55972,-0.59367 -1.44661,-1.97459 -1.44661,-1.97459 0,0 -1.65618,-1.70839 -2.53154,-2.51312 -0.81569,-0.74986 -1.59297,-1.56527 -2.53157,-2.15407 -1.00455,-0.63018 -2.20728,-0.88031 -3.25484,-1.43606 -1.19407,-0.63349 -2.37693,-1.31378 -3.4357,-2.15411 -1.06439,-0.84479 -1.88643,-1.95939 -2.89319,-2.8721 -1.0432,-0.94575 -2.09079,-1.90039 -3.25487,-2.69263 -1.02429,-0.6971 -2.05497,-1.48612 -3.25484,-1.79505 -1.40091,-0.3607 -2.95709,-0.42518 -4.3398,0 -1.32328,0.4069 -2.31667,1.51848 -3.4357,2.33358 -0.86504,0.6301 -1.75245,1.2409 -2.53156,1.97459 -0.92908,0.87491 -2.08051,1.67829 -2.53154,2.87211 z"
         style="fill:none;stroke:#000000;stroke-width:0.263266;stroke-linecap:butt;stroke-linejoin:miter;stroke-miterlimit:4;stroke-dasharray:none;stroke-opacity:1" />
      <path
         inkscape:label="#path997"
         inkscape:connector-curvature="0"
         id="5.3.1"
         d="m 140.14942,54.43913 1.21926,-1.57118 1.89663,-1.41406 2.84494,-0.15721 c 0,0 1.89663,0 2.43853,0 0.54189,0 2.30305,0 2.30305,0 h 3.11589 l 2.30305,0.78559 1.89663,1.09983 0.94831,0.78559 0.94832,1.25694 0.82303,0.97177 0.28739,1.16655 0.0478,1.44428 -0.19158,1.33318 -0.47898,1.33319 -0.95794,1.22211 -0.91004,1.05542 -0.62267,0.99989 -1.05373,0.49996 -1.6285,0.61104 -2.25117,-0.3333 -0.43107,-0.44439 -1.6764,-0.0555 -1.82009,-0.0555 -0.91005,-0.16667 -1.14953,-0.44441 -1.14953,-0.83322 -0.71846,-0.72215 -1.29322,-0.94435 c 0,0 -0.76636,-0.49994 -1.05374,-0.66661 -0.28738,-0.16667 -1.14953,-0.88878 -1.14953,-0.88878 0,0 -0.76635,-0.99989 -0.95794,-1.11098 -0.19159,-0.11114 -0.62266,-1.16655 -0.62266,-1.16655 l -0.47898,-1.16654 -0.14368,-1.2221 z"
         style="fill:none;stroke:#000000;stroke-width:0.263266;stroke-linecap:butt;stroke-linejoin:miter;stroke-miterlimit:4;stroke-dasharray:none;stroke-opacity:1" />
      <path
         inkscape:label="#path1014"
         sodipodi:nodetypes="cssssscssssssssssssssaaasssssaaaassassssasssssssssssssssccaaaaaaaaassssssssssc"
         inkscape:connector-curvature="0"
         id="5.8."
         d="m 140.87772,28.858 c 0.18597,-0.30604 0.0158,-0.98476 0.20687,-1.1973 0.14387,-0.16002 0.27414,-0.32296 0.39328,-0.50214 0.0669,-0.10061 0.0181,-0.29825 0.13237,-0.33741 0.24269,-0.0831 0.41398,0.3256 0.66133,0.39364 0.23381,0.0643 0.49201,0.0579 0.72749,0 0.3141,-0.0772 0.85977,-0.44987 0.85977,-0.44987 0,0 0.67255,-0.35635 0.992,-0.56235 0.32095,-0.20698 0.63693,-0.4251 0.92589,-0.6748 0.23831,-0.20594 0.47952,-0.41767 0.66136,-0.67483 0.14462,-0.20453 0.20165,-0.46011 0.33067,-0.67482 0.15492,-0.25784 0.34402,-0.49389 0.52906,-0.73104 0.10542,-0.13511 0.25674,-0.23906 0.33069,-0.39365 0.0989,-0.20678 0.17091,-0.44885 0.13237,-0.67481 -0.0366,-0.21436 -0.22517,-0.37221 -0.33069,-0.56235 -0.0924,-0.16645 -0.24308,-0.31696 -0.26453,-0.5061 -0.0197,-0.17328 0.0464,-0.35441 0.13237,-0.50613 0.15528,-0.274007 0.45632,-0.435726 0.66136,-0.674798 0.16766,-0.1955 0.3892,-0.371825 0.46293,-0.618593 0.10216,-0.341896 0.0822,-0.74386 -0.0661,-1.068455 -0.16676,-0.365215 -0.52591,-0.620505 -0.85976,-0.843521 -0.39838,-0.266117 -0.86813,-0.411012 -1.32269,-0.562337 -0.36047,-0.120002 -0.73005,-0.223379 -1.10688,-0.271721 -0.39821,-0.05109 -0.80458,-0.05491 -1.20431,-0.01742 -0.23103,0.02169 -0.39527,0.02528 -0.68206,0.139333 -0.25362,0.100863 -0.4659,0.169565 -0.68228,0.335922 -0.22604,0.173778 -0.35006,0.337013 -0.55333,0.53695 -0.17465,0.171785 -0.4393,0.342339 -0.57096,0.548922 -0.15503,0.243233 -0.2634,0.525767 -0.39328,0.783309 -0.17887,0.35468 -0.23671,0.69189 -0.34348,1.041518 -0.0755,0.247064 -0.10923,0.508101 -0.20983,0.746031 -0.11099,0.2625 -0.29105,0.4902 -0.42917,0.7395 -0.24847,0.44851 -0.43238,0.93459 -0.71848,1.36008 -0.29249,0.43498 -0.68207,0.75086 -1.01056,1.20483 -0.22271,0.30779 -0.52662,0.55268 -0.69289,0.89428 -0.22136,0.45481 -0.36819,0.69912 -0.47764,1.07594 -0.11395,0.39232 -0.21926,0.8764 -0.18017,1.21227 0.0461,0.39648 0.0365,0.80999 0.12873,1.19834 0.0862,0.36272 0.12782,0.46616 0.27843,0.80721 0.0703,0.15914 0.21551,1.69768 0.38645,1.73001 0.35798,0.0677 0.64138,-0.25131 0.89458,-0.47454 0.2109,-0.18593 0.29383,-0.22394 0.48554,-0.68972 0.0991,-0.24083 -0.50604,-1.3169 -0.67359,-1.51628 -0.19585,-0.23307 -0.29231,-0.47525 -0.35844,-0.70019 -0.0661,-0.22495 -0.209,-0.87038 -0.14287,-1.09532 0.0661,-0.22493 0.16711,-0.47593 0.34809,-0.99332 0.11363,-0.32483 0.30335,-0.7375 0.52555,-1.00028 0.24061,-0.28453 0.57243,-0.48741 0.79362,-0.78729 0.33898,-0.45958 0.65363,-0.98917 0.96778,-1.46608 0.17286,-0.26242 0.39879,-0.66084 0.54296,-0.94005 0.1517,-0.29379 0.12641,-0.49737 0.2123,-0.816658 0.0906,-0.336767 0.25714,-0.612258 0.36904,-0.942561 0.0913,-0.269585 0.16803,-0.553683 0.33067,-0.78727 0.17247,-0.247721 0.39683,-0.58454 0.64391,-0.757926 0.20258,-0.142158 0.39723,-0.401014 0.62653,-0.494148 0.23516,-0.09551 0.47885,-0.121553 0.72746,-0.172683 0.17372,-0.0357 0.77293,0.03092 0.77293,0.03092 l 0.90494,0.250338 c 0,0 0.78618,0.27268 1.12452,0.506107 0.28225,0.194723 0.68398,0.38697 0.72774,0.727063 0.0472,0.366868 -0.35287,0.651638 -0.56094,0.95746 -0.12059,0.177239 -0.22612,0.376414 -0.3968,0.506118 -0.28713,0.21819 -0.65475,0.30791 -0.99909,0.41503 -0.25825,0.0803 -0.52412,0.14617 -0.79363,0.16873 -0.43975,0.0368 -0.9014,-0.18758 -1.32267,-0.0562 -0.23742,0.0741 -0.39726,0.29934 -0.59522,0.44989 -0.22096,0.16804 -0.49728,0.28219 -0.66136,0.5061 -0.15318,0.20903 -0.14147,0.50299 -0.26454,0.73106 -0.1223,0.22664 -0.29034,0.42742 -0.46293,0.61856 -0.24104,0.26695 -0.57348,0.44663 -0.79361,0.73106 -0.14311,0.1849 -0.27387,0.39179 -0.33068,0.61859 -0.0638,0.25456 -0.0347,0.52714 0,0.78727 0.0333,0.25029 0.0687,0.51441 0.1984,0.73106 0.14019,0.2342 -0.0795,0.49926 -0.0579,0.77135 0.0486,0.61287 -0.20068,0.70101 -0.47117,1.25309 -0.0767,0.15659 -0.0507,0.35201 -0.13227,0.50611 -1.10382,2.08423 0.86329,0.38417 0.98678,0.18094 z"
         style="fill:none;stroke:#000000;stroke-width:0.263266;stroke-linecap:butt;stroke-linejoin:miter;stroke-miterlimit:4;stroke-dasharray:none;stroke-opacity:1" />
      <path
         inkscape:label="#path1031"
         sodipodi:nodetypes="saazssassassssssssssssssscssssssscccccccccsassssss"
         inkscape:connector-curvature="0"
         id="5.9."
         d="m 163.20273,56.0175 c -0.25711,0.30454 0.0881,0.7713 0.15153,1.15408 0.0615,0.3712 0.16974,0.73413 0.22167,1.1068 0.0875,0.62799 0.12588,1.27216 0.15062,1.89618 0.0248,0.62404 0.009,1.23004 0,1.84496 -0.008,0.54683 -0.0175,1.094 -0.0502,1.63993 -0.0225,0.37664 -0.017,0.75951 -0.10047,1.12749 -0.0847,0.37341 -0.28513,0.71146 -0.4016,1.0762 -0.11833,0.37057 -0.15486,0.76704 -0.30119,1.12747 -0.2062,0.50788 -0.46877,1.00063 -0.80319,1.43494 -0.26984,0.35044 -0.85335,0.7175 -0.95378,0.92247 -0.10044,0.205 -0.60948,0.80869 -0.95378,1.17871 -0.37468,0.40266 -0.84633,0.71029 -1.20477,1.12748 -0.40493,0.47133 -0.67303,1.04668 -1.05417,1.53744 -0.26473,0.34086 -0.58562,0.63524 -0.85339,0.97371 -0.2863,0.36188 -0.56706,0.73103 -0.80319,1.12747 -0.23361,0.39221 -0.4213,0.81088 -0.60237,1.22995 -0.18826,0.4357 -0.41696,0.86552 -0.502,1.33248 -0.0245,0.13444 -0.078,0.29778 0,0.40997 0.22419,0.32239 0.71989,0.33021 1.10437,0.41001 0.62349,0.12936 1.30037,0.29439 1.90757,0.10252 0.26374,-0.0833 0.46871,-0.30586 0.65259,-0.51249 0.31957,-0.35911 0.44847,-0.85798 0.75299,-1.22995 0.31814,-0.38862 0.73978,-0.67955 1.10437,-1.02497 0.32108,-0.3042 0.62698,-0.62443 0.95378,-0.92247 0.30978,-0.28252 0.95378,-0.81998 0.95378,-0.81998 0,0 0.80052,-0.61579 1.15457,-0.97372 0.29589,-0.29913 0.52186,-0.66086 0.80319,-0.97371 0.31978,-0.35563 0.69757,-0.65776 1.00398,-1.02497 0.24131,-0.28921 0.46693,-0.59475 0.65259,-0.92247 0.18404,-0.32487 0.33788,-0.66939 0.45179,-1.02497 0.17564,-0.54832 0.19171,-1.138 0.35138,-1.69118 0.10619,-0.36788 0.27522,-0.71478 0.4016,-1.07624 0.14236,-0.40711 0.40159,-1.22995 0.40159,-1.22995 l 0.95378,-1.22995 0.90358,-1.28121 0.75299,-1.6912 0.30119,-1.28121 0.25098,-1.38371 0.35141,-1.33245 0.25099,-1.4862 0.22542,-0.97888 c 0,0 0.37944,-0.77686 0.14868,-1.01901 -0.21465,-0.22525 -0.59114,0.14909 -0.87615,0.25545 -0.34504,0.12877 -0.66113,0.32673 -1.00397,0.46123 -0.45905,0.18009 -0.94195,0.29331 -1.40559,0.46124 -0.60938,0.22073 -1.18149,0.54834 -1.80716,0.71749 -0.44109,0.11926 -0.90128,0.15415 -1.35537,0.20498 -0.46685,0.0523 -0.96073,0.15942 -1.43019,0.17646 -0.23408,0.009 -0.69939,-0.10523 -0.8505,0.0737 z"
         style="fill:none;stroke:#000000;stroke-width:0.263266;stroke-linecap:butt;stroke-linejoin:miter;stroke-miterlimit:4;stroke-dasharray:none;stroke-opacity:1" />
      <path
         inkscape:label="#path1048"
         sodipodi:nodetypes="aaaassaaaaaaascaaaaaa"
         inkscape:connector-curvature="0"
         id="5.10."
         d="m 154.29617,78.8198 c 0.41195,0.20782 0.82924,0.41399 1.26987,0.55084 0.27914,0.0866 0.5712,0.12711 0.86058,0.16819 0.3755,0.0533 0.75422,0.11385 1.13328,0.1013 0.47974,-0.016 0.90999,-0.1976 1.42261,-0.22318 0.57424,-0.0287 1.18349,-0.0299 1.75028,0.0667 0.79861,0.13605 1.72737,0.18758 2.27175,0.77376 0.28864,0.31079 0.33821,0.80775 0.3202,1.23154 -0.0126,0.29576 -0.13993,0.58563 -0.29557,0.83744 -0.19164,0.31008 -0.45141,0.59201 -0.75958,0.7867 -0.3011,0.1902 -0.66058,0.28772 -1.01285,0.34007 -0.59776,0.0889 -1.20978,-0.005 -1.81223,-0.0523 -1.02391,-0.081 -2.04451,-0.21662 -3.05571,-0.39682 -1.40422,-0.25023 -2.53478,-0.35724 -4.17255,-0.94865 -1.4521,-0.52436 -3.99019,-1.3547 -3.99019,-1.3547 0,0 -2.92268,-0.71301 -3.83805,-1.78711 -0.84844,-0.99557 -2.01102,-2.86509 -1.07138,-3.77509 1.39478,-1.35078 3.68019,1.24516 5.54983,1.76906 0.80535,0.22568 1.6395,0.34384 2.43845,0.59115 0.70138,0.2171 1.3964,0.46589 2.05947,0.78118 0.32418,0.15415 0.61129,0.37822 0.93179,0.5399 z"
         style="fill:none;stroke:#000000;stroke-width:0.263266;stroke-linecap:butt;stroke-linejoin:miter;stroke-miterlimit:4;stroke-dasharray:none;stroke-opacity:1" />
      <path
         sodipodi:nodetypes="sssssaazaasssssscsscssassssssssssssassssccsssssaaassssssssssssssssssss"
         inkscape:label="#path1050"
         inkscape:connector-curvature="0"
         id="5.1.1."
         d="m 172.45673,41.97727 c -0.25795,-0.67947 -0.17151,-1.43711 -0.23627,-2.15759 -0.0335,-0.37239 -0.0764,-0.74499 -0.0787,-1.11876 -0.003,-0.45353 -0.003,-0.91181 0.0787,-1.3585 0.11035,-0.60274 0.3275,-1.18499 0.55128,-1.75804 0.24589,-0.62965 0.45782,-1.29164 0.86632,-1.83795 0.35583,-0.47587 0.86033,-0.83507 1.33881,-1.19868 0.47021,-0.35731 1.02256,-0.68044 1.49636,-0.95893 0.47381,-0.27848 0.84755,-0.58284 1.33885,-0.7192 0.50507,-0.1402 1.04942,-0.0887 1.57511,-0.0799 0.63238,0.0106 1.26908,0.0449 1.8901,0.15991 0.56546,0.10473 1.14784,0.21561 1.65386,0.47947 0.45318,0.2363 0.81947,0.60626 1.18134,0.95894 0.37771,0.36812 0.72261,0.77047 1.02381,1.19867 0.33641,0.47823 0.61746,0.99304 0.8663,1.5183 0.22032,0.46507 0.4509,0.9367 0.55129,1.43841 0.18327,0.9159 0.0787,2.7969 0.0787,2.7969 0,0 -0.0373,2.18466 -0.0787,3.27634 -0.0192,0.50641 -0.14081,1.01512 -0.0787,1.51833 0.0987,0.79947 0.7088,2.3174 0.7088,2.3174 0,0 0.30416,1.32552 0.39377,1.99779 0.0988,0.74151 0.13132,1.49042 0.1576,2.23753 0.0281,0.79865 0.073,1.60128 0,2.39732 -0.079,0.86236 -0.26177,1.71543 -0.47253,2.55715 -0.21018,0.83944 -0.55605,1.643 -0.78756,2.47724 -0.21249,0.76566 -0.162,1.6187 -0.55129,2.31744 -0.27019,0.48498 -0.78753,0.79912 -1.1813,1.19867 -0.42002,0.42621 -0.90645,0.8001 -1.26009,1.27859 -0.3975,0.53785 -0.5732,1.20356 -0.94507,1.75803 -0.22953,0.34223 -0.5034,0.65681 -0.78756,0.95893 -0.29394,0.31253 -0.68966,0.53672 -0.94505,0.87904 -0.28599,0.38331 -0.47592,0.83093 -0.63005,1.27857 -0.16871,0.48998 -0.24212,1.00703 -0.31502,1.5183 -0.0943,0.66166 -0.16392,1.33 -0.15738,1.99779 0.005,0.53509 0.20669,1.06521 0.15738,1.59823 -0.0433,0.46818 -0.13872,0.95723 -0.39379,1.35848 -0.298,0.46878 -0.85322,0.7326 -1.26005,1.11875 -0.27164,0.25783 -0.53958,0.52021 -0.78756,0.79912 -0.36355,0.40889 -0.72105,0.8264 -1.02382,1.27858 -0.4245,0.63397 -0.91323,1.26646 -1.10258,1.99779 -0.11379,0.43946 0,1.35846 0,1.35846 l 0.47253,1.59825 c 0,0 0.23366,0.57669 0.0787,0.79911 -0.47318,0.67913 -1.69722,1.11591 -2.4414,0.7192 -0.62751,-0.33452 -0.31702,-1.34662 -0.55129,-1.99778 -0.21693,-0.60295 -0.4223,-1.2251 -0.78754,-1.75804 -0.33591,-0.49011 -0.90034,-0.80432 -1.2601,-1.27858 -0.35387,-0.46649 -0.58649,-1.00761 -0.86631,-1.51833 -0.21702,-0.39609 -0.45128,-0.78534 -0.63005,-1.19866 -0.22417,-0.5183 -0.48382,-1.0408 -0.55128,-1.59822 -0.10286,-0.85002 0.0231,-1.72623 0.23628,-2.55715 0.17968,-0.70038 0.61329,-1.3186 0.8663,-1.9978 0.21466,-0.57625 0.29082,-1.19944 0.55128,-1.75803 0.22596,-0.48459 0.62298,-0.8817 0.86631,-1.35849 0.26106,-0.51154 0.51079,-1.04026 0.63005,-1.59823 0.1228,-0.57459 0.006,-1.17562 0.0787,-1.75804 0.0804,-0.64699 0.32784,-1.26937 0.39378,-1.91787 0.0701,-0.68929 -0.0541,-1.38708 0,-2.0777 0.0526,-0.6716 0.24665,-1.32747 0.31502,-1.99776 0.0569,-0.55727 -0.043,-1.13051 0.0787,-1.67814 0.0747,-0.33601 0.27426,-0.63508 0.39378,-0.95895 0.20404,-0.55285 0.27328,-1.15581 0.55128,-1.67813 0.22023,-0.41377 0.53627,-0.77883 0.8663,-1.11875 0.37747,-0.38881 0.87804,-0.65417 1.26008,-1.03884 0.41265,-0.41549 0.9586,-0.80139 1.10257,-1.35849 0.10858,-0.42012 -0.0592,-0.88047 -0.23626,-1.27859 -0.29684,-0.6676 -0.91375,-1.1577 -1.33884,-1.75804 -0.44261,-0.62511 -0.87477,-1.25875 -1.26009,-1.91786 -0.31827,-0.54444 -0.53912,-1.13859 -0.86628,-1.67814 -0.23588,-0.38901 -0.62697,-0.69602 -0.78751,-1.11889 z"
         style="fill:none;stroke:#000000;stroke-width:0.257976;stroke-linecap:butt;stroke-linejoin:miter;stroke-miterlimit:4;stroke-dasharray:none;stroke-opacity:1" />
      <path
         sodipodi:nodetypes="ssssassasasasssssssssszssssssssssss"
         inkscape:label="#path1067"
         inkscape:connector-curvature="0"
         id="5.11."
         d="m 169.80264,21.63606 c 0.99742,-0.53923 2.23919,0.36267 3.34979,0.59114 1.12356,0.23113 2.26962,0.40211 3.34978,0.78819 1.68733,0.60308 3.26677,1.48449 4.82764,2.36455 1.42836,0.80534 2.9046,1.57958 4.13797,2.66013 1.48972,1.30514 2.87774,2.80231 3.84241,4.53206 0.67278,1.20636 0.8996,2.6133 1.2808,3.94093 0.48579,1.69193 1.02066,3.38224 1.2808,5.12321 0.28187,1.88638 0.28519,3.80704 0.29557,5.71433 0.009,1.61054 -0.0866,3.22088 -0.19705,4.82764 -0.14029,2.04084 -0.10787,4.12069 -0.59114,6.10844 -0.58491,2.40589 -1.72891,4.64495 -2.75865,6.89662 -0.89188,1.95024 -1.85212,3.8756 -2.95569,5.71435 -1.19071,1.98395 -2.51797,3.88979 -3.94093,5.71435 -0.88727,1.13768 -1.43239,3.47832 -2.85717,3.25126 -0.24699,-0.0394 -0.31994,-0.44075 -0.29557,-0.68967 0.0737,-0.75246 0.83922,-1.25823 1.2808,-1.87193 0.98592,-1.3702 2.0986,-2.64795 3.05422,-4.03945 0.80996,-1.17941 1.55695,-2.40268 2.26603,-3.64536 0.84448,-1.47996 1.6091,-3.00475 2.36456,-4.53207 0.75559,-1.5276 1.59694,-3.02468 2.16751,-4.63059 0.36267,-1.02075 0.58927,-2.0879 0.78818,-3.15275 0.19447,-1.04108 0.26899,-1.79002 0.3941,-3.15273 0.12511,-1.36271 0.27333,-3.34704 0.29557,-5.02468 0.027,-2.03704 -0.0985,-5.71435 -0.19705,-6.10844 -0.0985,-0.39409 -0.46535,-3.2467 -0.88671,-4.82764 -0.45742,-1.71624 -0.92705,-3.46315 -1.77341,-5.02468 -0.59158,-1.09145 -1.45687,-2.01416 -2.26604,-2.95569 -0.77208,-0.89837 -1.52998,-1.83187 -2.46308,-2.5616 -0.98508,-0.77039 -2.14965,-1.28007 -3.25126,-1.87195 -0.77627,-0.41707 -1.55867,-0.82577 -2.36456,-1.18227 -0.99836,-0.44165 -2.00674,-0.87477 -3.05422,-1.18228 -1.4152,-0.41546 -4.33502,-0.88671 -4.33502,-0.88671 -0.35972,-0.0736 -0.90997,0.1264 -1.08375,-0.19705 -0.11838,-0.22032 0.0755,-0.57072 0.29557,-0.68966 z"
         style="fill:none;stroke:#000000;stroke-width:0.263266;stroke-linecap:butt;stroke-linejoin:miter;stroke-miterlimit:4;stroke-dasharray:none;stroke-opacity:1" />
      <g
         style="stroke-width:0.505;stroke-miterlimit:4;stroke-dasharray:none"
         inkscape:label="Clip"
         id="5.12."
         transform="matrix(0.52131946,0,0,0.52131946,105.95962,-59.401963)">
        <path
           sodipodi:nodetypes="sssssassss"
           inkscape:connector-curvature="0"
           id="path1069"
           d="m 63.610146,243.27882 c -1.310398,0.26208 -2.244339,1.74127 -2.939965,2.93996 -0.509848,0.87856 -0.814608,1.92427 -0.801807,2.93997 0.01172,0.93005 -0.0067,2.21281 0.801807,2.67269 0.957858,0.54485 2.264653,-0.23092 3.207234,-0.8018 1.147011,-0.69469 1.880537,-1.92479 2.672695,-3.00679 0.719798,-0.98316 1.753058,-1.8797 1.870888,-3.14041 0.103879,-1.11145 -0.529618,-2.63561 -1.603618,-2.93997 -0.691052,-0.19584 -1.265045,0.41631 -1.937704,0.66818 -0.425427,0.15929 -1.26953,0.66817 -1.26953,0.66817 z"
           style="fill:none;stroke:#000000;stroke-width:0.505;stroke-linecap:butt;stroke-linejoin:miter;stroke-miterlimit:4;stroke-dasharray:none;stroke-opacity:1" />
        <path
           sodipodi:nodetypes="sssssasss"
           inkscape:connector-curvature="0"
           id="path1071"
           d="m 55.859331,253.16779 c -0.690137,0.96773 -0.66731,2.29354 -0.801809,3.47451 -0.141135,1.23925 -0.394418,2.55852 0,3.74177 0.281727,0.84518 0.929926,1.55519 1.603616,2.13815 0.844133,0.73044 1.869887,1.92149 2.939965,1.60362 1.260937,-0.37457 1.676563,-2.17354 1.870887,-3.4745 0.268439,-1.79715 -0.534539,-4.27631 -1.069078,-5.34539 -0.534539,-1.06908 -1.025807,-3.19007 -2.405425,-3.47451 -0.823159,-0.16972 -1.650156,0.65206 -2.138156,1.33635 z"
           style="fill:none;stroke:#000000;stroke-width:0.505;stroke-linecap:butt;stroke-linejoin:miter;stroke-miterlimit:4;stroke-dasharray:none;stroke-opacity:1" />
        <path
           sodipodi:nodetypes="acssasasaaa"
           inkscape:connector-curvature="0"
           id="path1073"
           d="m 72.430043,239.00251 c 0.952998,0.11174 1.353756,0.39593 2.672693,1.06908 1.318937,0.67315 3.843348,1.63131 5.078122,3.20723 0.695028,0.88705 1.180122,2.08582 1.069078,3.20724 -0.07078,0.71477 -0.415344,1.57333 -1.069078,1.87088 -1.240376,0.56456 -2.405426,-0.53453 -4.009043,-0.8018 -1.603617,-0.26726 -3.683891,-0.94261 -5.078122,-2.13816 -1.032328,-0.88522 -2.116052,-2.11478 -2.138156,-3.4745 -0.01168,-0.71817 0.334341,-0.96998 0.601356,-1.40317 0.290297,-0.47095 0.585973,-0.99994 1.069079,-1.26953 0.530859,-0.29624 1.200287,-0.33806 1.804071,-0.26727 z"
           style="fill:none;stroke:#000000;stroke-width:0.505;stroke-linecap:butt;stroke-linejoin:miter;stroke-miterlimit:4;stroke-dasharray:none;stroke-opacity:1" />
        <path
           sodipodi:nodetypes="sasaaaass"
           inkscape:connector-curvature="0"
           id="path1075"
           d="m 55.59206,232.32077 c -0.214059,1.31909 0,2.67269 0,4.00904 0,1.24726 -0.26727,2.6727 0,3.74178 0.26727,1.06908 0.648136,2.98959 1.870887,3.4745 1.571309,0.62314 3.716922,-0.31496 4.810853,-1.60362 1.459711,-1.71955 1.252811,-4.43365 1.069078,-6.68173 -0.160641,-1.96553 -0.578773,-4.12284 -1.870888,-5.61266 -1.044187,-1.20396 -2.803936,-2.74804 -4.276312,-2.13816 -1.56169,0.64687 -1.332852,3.14232 -1.603618,4.81085 z"
           style="fill:none;stroke:#000000;stroke-width:0.505;stroke-linecap:butt;stroke-linejoin:miter;stroke-miterlimit:4;stroke-dasharray:none;stroke-opacity:1" />
        <path
           sodipodi:nodetypes="sasssss"
           inkscape:connector-curvature="0"
           id="path1077"
           d="m 63.476511,263.1904 c -1.084217,-0.19714 -0.67127,2.43565 -0.601354,3.67496 0.05083,0.90108 0.266165,1.95542 0.734991,2.60588 0.658914,0.91419 2.213669,1.60082 3.207234,1.06908 0.895589,-0.4793 1.603613,-1.06908 0.801807,-2.93997 -0.80181,-1.8709 -0.67314,-3.21095 -1.469982,-3.80859 -0.796843,-0.59763 -2.672696,-0.60136 -2.672696,-0.60136 z"
           style="fill:none;stroke:#000000;stroke-width:0.505;stroke-linecap:butt;stroke-linejoin:miter;stroke-miterlimit:4;stroke-dasharray:none;stroke-opacity:1" />
        <path
           sodipodi:nodetypes="ssssssss"
           inkscape:connector-curvature="0"
           id="path1079"
           d="m 57.529767,267.86761 c -0.923002,1.43006 -0.445328,3.3784 -0.534541,5.07812 -0.0607,1.15658 -0.366246,2.37577 0,3.47451 0.42259,1.26777 1.080616,3.38245 2.405425,3.20723 0.951241,-0.12581 1.109128,-1.68011 1.5368,-2.53906 0.734718,-1.47562 0.83881,-3.64784 0.734992,-5.07811 -0.09678,-1.33331 0.388329,-2.68108 -0.133636,-3.60815 -1.179263,-2.0945 -3.127117,-1.90095 -4.00904,-0.53454 z"
           style="fill:none;stroke:#000000;stroke-width:0.505;stroke-linecap:butt;stroke-linejoin:miter;stroke-miterlimit:4;stroke-dasharray:none;stroke-opacity:1" />
      </g>
    </g>
  </g>
</svg>
