<?xml version="1.0" encoding="UTF-8" standalone="no"?>
<!-- Created with Inkscape (http://www.inkscape.org/) -->

<svg
   width="800"
   height="420"
   viewBox="0 0 800 420"
   version="1.1"
   id="svg4597"
   inkscape:version="1.2.2 (732a01da63, 2022-12-09)"
   sodipodi:docname="level2_2.svg"
   xmlns:inkscape="http://www.inkscape.org/namespaces/inkscape"
   xmlns:sodipodi="http://sodipodi.sourceforge.net/DTD/sodipodi-0.dtd"
   xmlns:xlink="http://www.w3.org/1999/xlink"
   xmlns="http://www.w3.org/2000/svg"
   xmlns:svg="http://www.w3.org/2000/svg"
   xmlns:rdf="http://www.w3.org/1999/02/22-rdf-syntax-ns#"
   xmlns:cc="http://creativecommons.org/ns#"
   xmlns:dc="http://purl.org/dc/elements/1.1/">
  <defs
     id="defs4591">
    <clipPath
       clipPathUnits="userSpaceOnUse"
       id="clipPath6396">
      <g
         inkscape:label="Clip"
         id="use6398">
        <path
           sodipodi:nodetypes="cccccccccsssccccccccccccsasssssscaaaaac"
           style="fill:none;stroke:#000000;stroke-width:0.264583px;stroke-linecap:butt;stroke-linejoin:miter;stroke-opacity:1"
           d="m 146.0878,136.92708 1.32291,-1.6064 1.41741,-1.98437 1.98438,-2.55134 1.5119,-2.36235 c 0,0 1.03944,-1.22843 1.32292,-1.88988 0.28348,-0.66146 1.88988,-4.25224 1.88988,-4.25224 0,0 0.75595,-2.07886 0.85045,-2.64583 0.0945,-0.56696 0.56696,-3.2128 0.56696,-3.2128 0,0 0.0945,-1.98437 0.0945,-2.45684 0,-0.47247 -0.0945,-2.64584 -0.0945,-3.2128 0,-0.56696 -0.47247,-3.49628 -0.47247,-3.96875 0,-0.47247 -0.37798,-2.83482 -0.37798,-2.83482 l -0.47246,-2.36235 -0.75596,-1.984376 -0.75595,-2.362353 -1.22842,-1.889879 -1.6064,-2.078871 -1.79539,-1.700893 c 0,0 -1.41741,-0.850445 -1.79538,-1.039434 -0.37798,-0.188986 -1.41742,-0.661458 -1.98438,-0.755951 -0.56696,-0.09449 -2.83482,-0.661459 -2.83482,-0.661459 l -1.51191,-0.377976 -2.64583,-0.188989 h -2.26786 c -0.47247,0 -1.15171,0.26117 -1.70089,0.472472 -0.78881,0.3035 -1.51191,0.75595 -2.26786,1.133927 -0.44097,0.220486 -0.94899,0.340132 -1.32291,0.661459 -0.4971,0.427178 -0.75596,1.228425 -1.13393,1.606399 -0.37798,0.377979 -1.03944,2.362353 -1.22842,2.83482 -0.18899,0.472474 -0.34803,2.263757 -0.47247,3.401787 -0.0859,0.785284 -0.15747,1.573007 -0.18899,2.362347 -0.0302,0.75535 0,2.26786 0,2.26786 0,0 0.25547,2.81035 0.75595,4.11049 0.26481,0.68793 0.68706,1.31769 1.1616,1.88177 0.5161,0.61348 1.11965,1.17111 1.80014,1.59494 0.62228,0.38758 1.31642,0.68889 2.03498,0.83423 0.89536,0.18111 1.83017,0.10565 2.74033,0.0277 0.76957,-0.0659 2.27932,-0.41712 2.27932,-0.41712"
           id="path6416"
           inkscape:connector-curvature="0" />
        <path
           style="fill:none;stroke:#000000;stroke-width:0.264583px;stroke-linecap:butt;stroke-linejoin:miter;stroke-opacity:1"
           d="m 129.45685,115.09896 0.85044,0.37797 1.51191,0.66146 h 1.88987 l 2.17337,0.0945 2.64583,-0.37798 2.26786,-0.75595 2.17336,-0.85045 0.66146,-0.47247"
           id="path6418"
           inkscape:connector-curvature="0" />
      </g>
    </clipPath>
    <clipPath
       clipPathUnits="userSpaceOnUse"
       id="clipPath872">
      <use
         x="0"
         y="0"
         xlink:href="#g868"
         id="use874"
         width="100%"
         height="100%" />
    </clipPath>
  </defs>
  <sodipodi:namedview
     id="base"
     pagecolor="#ffffff"
     bordercolor="#666666"
     borderopacity="1.0"
     inkscape:pageopacity="0.0"
     inkscape:pageshadow="2"
     inkscape:zoom="0.35"
     inkscape:cx="1248.5714"
     inkscape:cy="588.57143"
     inkscape:document-units="mm"
     inkscape:current-layer="layer1"
     showgrid="false"
     inkscape:snap-nodes="true"
     inkscape:snap-bbox="false"
     inkscape:object-paths="true"
     inkscape:snap-global="false"
     inkscape:window-width="1920"
     inkscape:window-height="1009"
     inkscape:window-x="-8"
     inkscape:window-y="-8"
     inkscape:window-maximized="1"
     inkscape:showpageshadow="2"
     inkscape:pagecheckerboard="0"
     inkscape:deskcolor="#d1d1d1" />
  <metadata
     id="metadata4594">
    <rdf:RDF>
      <cc:Work
         rdf:about="">
        <dc:format>image/svg+xml</dc:format>
        <dc:type
           rdf:resource="http://purl.org/dc/dcmitype/StillImage" />
      </cc:Work>
    </rdf:RDF>
  </metadata>
  <g
     inkscape:label="Ebene 1"
     inkscape:groupmode="layer"
     id="layer1"
     transform="translate(0,-60)">
    <path
       style="fill:none;fill-rule:evenodd;stroke:#000000;stroke-width:0.900655;stroke-linecap:butt;stroke-linejoin:miter;stroke-miterlimit:4;stroke-dasharray:none;stroke-opacity:1"
       d="m 225.89517,77.099179 c 0,0 -4.47904,17.770537 -6.15187,25.107961 -1.67284,7.33744 -4.35209,12.46326 -3.98678,18.88741 0.38784,6.82027 4.68251,12.85195 6.4785,19.44297 1.0454,3.83642 2.88967,7.70945 2.49173,11.66581 -0.70751,7.03405 -4.9198,13.33068 -8.47191,19.44299 -4.18194,7.19607 -9.6093,13.61521 -14.95036,19.99841 -3.90327,4.66488 -9.36578,8.09489 -12.45868,13.33231 -2.17892,3.6897 -4.46499,7.96302 -3.98678,12.22129 0.43342,3.8594 3.56598,6.95703 5.98019,9.99916 2.15369,2.71384 4.36048,5.70439 7.47518,7.22165 2.41251,1.1752 5.9373,-0.63682 7.97354,1.11105 3.51968,3.02122 3.98678,13.33226 3.98678,13.33226 0,0 -1.31573,6.04487 -2.49173,8.88823 -0.64908,1.56938 -2.41586,2.74743 -2.49173,4.44403 -0.16319,3.64937 2.12765,7.20871 4.48509,9.99923 1.28968,1.52662 4.73421,1.35024 4.98345,3.33309 0.31025,2.46819 -4.14917,3.21156 -4.98345,5.55509 -1.18125,3.31819 -0.98479,7.36017 0.49857,10.55474 1.14584,2.46768 3.98675,3.70344 5.98014,5.55513 l 1.57257,1.46081 c 0,0 1.16897,0.72167 1.41752,1.31677 2.07058,4.95747 -0.17533,10.74704 -0.49857,16.10983 -0.33558,5.5673 -1.7174,11.09234 -1.495,16.66532 0.1573,3.94181 0.11683,8.19573 1.99336,11.66579 1.94128,3.58981 8.97022,8.33265 8.97022,8.33265 0,0 9.93659,2.03339 14.95041,2.77757 6.61333,0.9816 13.24871,2.13152 19.93387,2.22204 8.83439,0.11958 17.57881,-2.04812 26.4123,-2.22204 4.15621,-0.0818 8.45958,-0.57938 12.45868,0.55551 5.12262,1.45373 10.50941,3.71624 13.95373,7.77719 4.45382,5.25116 4.60512,5.64771 6.26554,12.3301 1.12776,4.5387 -1.34609,6.91515 0.33377,11.27974 1.60332,4.16573 7.70264,16.91576 9.84611,20.83105 3.00503,5.48902 5.41732,11.31115 7.47518,17.22086 2.33182,6.69645 5.64071,13.46496 5.48182,20.55399 -0.18783,8.38029 -7.56247,23.98308 -7.56247,23.98308"
       id="path4150-2"
       inkscape:connector-curvature="0"
       sodipodi:nodetypes="czsasasssasscasssssscsssscssssssssssc" />
    <path
       style="display:inline;fill:none;fill-rule:evenodd;stroke:#000000;stroke-width:0.900655;stroke-linecap:butt;stroke-linejoin:miter;stroke-miterlimit:4;stroke-dasharray:none;stroke-opacity:1"
       d="m 535.35146,77.343337 c 0,0 5.30537,10.098999 7.32028,15.420106 1.91086,5.046356 3.84435,10.196507 4.48508,15.554367 0.9243,7.72919 -0.26932,15.58129 -0.99668,23.33149 -0.64692,6.89317 -1.47495,13.79838 -2.99009,20.55403 -1.86454,8.31354 -4.83944,16.34053 -7.47518,24.44261 -2.36334,7.26468 -4.54495,14.60985 -7.47519,21.66496 -2.6094,6.28262 -5.59893,12.423 -8.9702,18.33188 -3.29519,5.77553 -7.42906,11.03315 -10.96364,16.66537 -3.44069,5.4826 -7.73904,10.58806 -9.96697,16.66535 -2.4548,6.69614 -3.32892,13.97932 -3.4884,21.10945 -0.18766,8.38997 2.15052,16.64803 2.99008,24.998 1.02227,10.16692 1.29911,20.40479 2.49174,30.55314 0.76533,6.51236 1.73745,13.00652 2.99008,19.44293 1.38113,7.09677 2.66298,14.26205 4.98347,21.10946 2.3449,6.91948 5.09336,13.80583 8.97022,19.99839 3.84462,6.14105 8.86648,11.50656 13.95369,16.66542 3.38668,3.43439 7.39146,6.20258 10.96362,9.44364 2.38214,2.16135 6.97687,6.66618 6.97687,6.66618"
       id="path4152-8"
       inkscape:connector-curvature="0"
       sodipodi:nodetypes="csaassssasssasssssc" />
    <path
       style="opacity:1;fill:none;stroke:#000000;stroke-width:0.901285;stroke-linecap:butt;stroke-linejoin:miter;stroke-miterlimit:4;stroke-dasharray:none;stroke-opacity:1"
       d="m 413.52373,138.86704 c 1.29143,-1.00671 2.45581,-2.26267 4.01499,-2.8566 1.17476,-0.4475 2.52158,-0.27641 3.77882,-0.43948 1.02557,-0.13306 2.03588,-0.39603 3.0703,-0.43948 1.26077,-0.0529 2.51676,0.2176 3.77881,0.21973 1.34065,0.002 4.015,-0.21973 4.015,-0.21973 l 3.30647,0.43948 7.55765,1.31843 6.61295,2.63686 3.54264,1.97769 3.8969,2.74672 4.72354,4.7244 2.59793,3.73558 2.95223,6.26257 1.06279,4.06516 0.9447,7.14152 0.35427,3.95528 0.23616,4.9441 -0.47234,6.26253 -0.70854,5.71321 -0.59045,4.50461 -1.06277,4.94412 -1.65326,4.72437 -1.65322,3.40593 -2.12559,4.06517 -1.77133,4.06515 -1.8894,3.40594 -2.0075,3.40594 -1.88942,3.07634 -1.88942,3.40592 -2.36176,3.51583 -2.71602,3.95527 -2.47985,3.07635 -2.1256,2.52697 -2.59792,2.30725 -3.42458,1.97765 -3.07028,1.64804 -4.36926,1.64804 -3.54264,0.43948 -4.84164,-0.32962 -2.12558,-0.32961 -2.9522,-0.32961 -2.24367,-0.87895 -2.1256,-0.76909 -2.24368,-1.53816 -2.12558,-2.63685 -0.82663,-2.52698 -0.59041,-2.63687 0.82659,-3.07634 0.47236,-2.08751 0.59045,-1.75789 0.59043,-2.63687 1.06279,-2.30725 0.94471,-2.52699 1.18088,-2.41711 0.82663,-2.63686 -0.47236,-4.83423 v -3.84542 l -0.11816,-3.07633 -0.59043,-3.40595 -0.70852,-4.50463 -0.82663,-4.06515 -2.47984,-6.59214 c 0,0 -1.53515,-3.07633 -1.53515,-4.06517 0,-0.98881 -0.70852,-4.72437 -0.70852,-4.72437 l -0.59045,-3.8454 -0.94472,-3.51581 -0.59043,-5.49346 0.23618,-3.29608 v -3.62569 l 1.41706,-5.16386 0.70854,-3.73558 2.12558,-4.06519 c 0,0 0.68357,-1.94738 1.18087,-2.85661 0.72298,-1.32182 1.56909,-2.60273 2.59794,-3.73556 0.82716,-0.91076 1.85179,-1.65138 2.83414,-2.41715 z"
       id="2.4"
       inkscape:connector-curvature="0"
       sodipodi:nodetypes="sssssccccccccccccccccccccccccccccccccccccccccccccccccccccccccccscccccccccsss"
       inkscape:label="#path5610" />
    <g
       id="Innenohr"
       inkscape:label="#g6368" />
    <g
       id="2.2"
       inkscape:label="#g6661"
       transform="matrix(1.7741836,0,0,1.7741836,182.92697,-12.930003)">
      <path
         inkscape:label="#path6522"
         sodipodi:nodetypes="cccccccccccccccccccccccc"
         inkscape:connector-curvature="0"
         id="ghf"
         d="m 30.313399,125.55817 3.657864,-2.99037 4.589383,-2.71683 5.025655,-2.10927 4.862405,-1.19748 5.680602,-0.28401 5.039759,0.29232 3.68141,0.6676 5.013513,2.53103 5.637157,4.75764 2.996541,4.10731 c 0.608452,1.50063 1.724023,2.8396 0.656193,4.87459 v 0 c -0.125531,1.66246 -3.326474,1.32456 -5.831072,1.43959 l -2.795379,-0.15317 -6.941288,-0.37568 -6.848845,-0.12321 -8.612584,0.42225 -5.890341,0.93841 c -1.702196,0.24007 -2.667987,0.75079 -6.859427,0.076 l -2.653693,-1.22961 c -1.91742,-0.93578 -2.363707,-2.09995 -3.044297,-3.22774 -0.439662,-0.97379 -0.07696,-2.02559 0.474772,-3.09575 z"
         style="fill:none;stroke:#000000;stroke-width:0.508;stroke-linecap:butt;stroke-linejoin:miter;stroke-miterlimit:4;stroke-dasharray:none;stroke-opacity:1" />
      <path
         sodipodi:nodetypes="ccccccccccccccccccccccsccccccccscsscscccc"
         inkscape:connector-curvature="0"
         id="path6599"
         d="m 28.510622,102.50055 -1.578848,1.38185 -1.313552,1.38592 -0.833514,1.12519 -0.719325,1.14584 -0.737445,1.47727 -0.467786,1.29982 c 0,0 -0.253494,1.07736 -0.274611,1.22137 -0.02117,0.14401 -0.09451,0.92206 -0.09821,1.0645 -0.0037,0.14243 0.07583,1.38711 0.07583,1.38711 0,0 0.262943,1.02468 0.319138,1.15599 0.05622,0.13132 0.85188,1.43844 0.85188,1.43844 l 0.620953,0.96225 0.727362,1.21894 c 0.242391,0.53125 0.499675,0.94668 0.826771,0.81933 l 0.715831,-0.0319 0.898975,-0.3482 1.087516,-0.54669 1.47119,-0.93318 1.133607,-0.88298 c 0,0 1.094953,-0.95919 1.188853,-1.04711 0.09388,-0.0879 1.479735,-1.48781 1.479735,-1.48781 0,0 0.788908,-0.90624 0.912997,-1.06498 0.124089,-0.15874 0.810207,-1.15398 0.810207,-1.15398 0,0 0.293687,-0.53655 0.385153,-0.76706 0.09149,-0.23051 0.183039,-0.45004 0.256594,-0.73205 0.07356,-0.28199 0.227038,-1.27495 0.227038,-1.27495 l -0.01878,-1.0054 -0.239712,-1.00452 c 0,0 -0.195421,-0.5127 -0.412646,-0.65705 -0.217221,-0.14434 -0.547264,-0.3104 -0.811979,-0.41797 -0.264741,-0.10757 -0.277947,-0.10983 -0.560838,-0.22825 -0.282893,-0.11841 -0.562399,-0.23556 -0.810922,-0.35194 -0.248549,-0.11639 -0.212724,-0.0819 -0.711068,-0.34453 -0.498343,-0.2626 -0.396503,-0.19401 -0.849365,-0.45776 -0.452861,-0.26375 -0.361315,-0.20169 -0.715618,-0.42273 -0.354279,-0.22105 -0.381293,-0.23444 -0.638388,-0.40368 -0.257096,-0.16924 -0.258234,-0.16365 -0.602694,-0.40248 -0.344436,-0.23881 0.09234,0.0679 -0.344436,-0.23881 -0.436772,-0.30677 -0.753478,-0.52919 -0.753478,-0.52919 z"
         style="fill:none;stroke:#000000;stroke-width:0.508;stroke-linecap:butt;stroke-linejoin:miter;stroke-miterlimit:4;stroke-dasharray:none;stroke-opacity:1" />
      <path
         inkscape:connector-curvature="0"
         id="path6618"
         d="m 25.489141,71.576011 1.124005,1.868831 c 0,0 0.677463,0.802664 0.863386,0.972279 0.185896,0.169614 1.254284,0.957732 1.537972,1.101813 0.283684,0.144081 1.100137,0.489443 1.100137,0.489443 l 1.812447,0.328278 c 0,0 0.139806,0.03448 0.856801,0.04702 0.716996,0.01254 0.847699,0.02791 1.672803,6.61e-4 0.825128,-0.02725 1.522172,-0.02147 2.105394,-0.113041 0.583249,-0.09159 0.82095,-0.155457 0.82095,-0.155457 l 0.606134,-0.4115 0.138164,-1.459186 -0.247252,-0.463714 c 0,0 0.113107,0.0222 -0.59063,-0.832193 -0.703764,-0.854396 -0.703764,-0.854396 -0.703764,-0.854396 0,0 -0.654846,-0.794377 -0.984726,-1.296066 -0.329858,-0.50169 -0.427251,-0.641672 -0.635054,-0.997816 -0.207829,-0.356145 -0.228203,-0.347351 -0.568697,-1.011625 -0.34049,-0.664275 -0.569383,-1.106782 -0.822854,-1.689195 -0.253468,-0.582415 -0.318637,-0.72946 -0.437485,-1.026237 -0.118853,-0.296779 -0.370445,-0.909077 -0.609178,-1.616378 -0.238733,-0.707305 -0.357081,-1.047484 -0.516706,-1.597446 -0.159623,-0.549963 -0.368142,-1.307761 -0.451166,-1.647276 -0.08303,-0.339515 -0.160657,-0.627199 -0.28009,-1.208221 -0.119433,-0.581019 -0.183354,-0.883928 -0.255957,-1.314733 -0.07263,-0.430809 -0.11631,-0.671344 -0.173249,-1.09355 -0.05691,-0.422207 -0.04929,-0.212652 -0.124301,-0.988534 -0.07498,-0.775876 -0.05678,-0.871955 -0.149756,-1.509488 -0.09297,-0.637536 -0.100353,-0.791553 -0.201503,-1.180058 -0.101124,-0.388505 -0.06186,-0.477164 -0.292022,-0.933835 -0.23016,-0.456668 -0.352398,-0.697773 -0.550413,-0.878472 -0.198013,-0.180696 -1.325457,-0.61113 -1.325457,-0.61113 v 0 l -1.064843,0.544909 c 0,0 -0.115543,0.132594 -0.24921,0.390161 -0.133693,0.257566 -0.07075,-0.01935 -0.372453,0.798595 -0.301678,0.817943 -0.51951,1.487093 -0.51951,1.487093 0,0 -0.102949,0.328251 -0.19111,0.631081 -0.08818,0.302827 -0.06628,0.196981 -0.277548,0.974406 -0.211268,0.777428 0.03282,-0.172615 -0.211268,0.777428 -0.244106,0.950043 -0.392932,1.590686 -0.392932,1.590686 0,0 -0.0867,0.342385 -0.168858,0.850599 -0.08215,0.50821 -0.122662,0.645182 -0.17981,1.287567 -0.05718,0.642385 -0.06768,0.639906 -0.09361,1.214546 -0.02592,0.57464 -0.04379,1.07165 -0.05032,1.430157 -0.0066,0.358508 -0.02303,3.214588 -0.02303,3.214588 0,0 -0.01298,0.784189 0.02871,1.365506 0.04178,0.581318 0.05017,0.941292 0.164357,1.358939 0.11417,0.41764 0.421191,1.199801 0.421191,1.199801 z"
         style="fill:none;stroke:#000000;stroke-width:0.508;stroke-linecap:butt;stroke-linejoin:miter;stroke-miterlimit:4;stroke-dasharray:none;stroke-opacity:1" />
      <path
         sodipodi:nodetypes="cccccccccccccccccccsccccccccccssccccccc"
         inkscape:connector-curvature="0"
         id="path6635"
         d="m 77.014087,112.43096 c 0,0 1.200047,0.96543 1.556809,1.18534 0.356765,0.21992 1.212823,0.72934 1.914499,1.05614 0.70165,0.3268 1.473015,0.67233 2.071344,0.89734 0.598329,0.22501 1.029254,0.42631 2.234391,0.77471 1.205181,0.3484 1.210291,0.46471 2.695469,0.71669 1.485178,0.25198 1.931342,0.4073 3.358045,0.37908 1.426732,-0.0282 1.321472,0.0935 2.622792,-0.13935 1.30132,-0.23281 2.83127,-0.74971 2.83127,-0.74971 0,0 1.69405,-1.15531 1.88544,-1.3789 0.19136,-0.2236 0.95857,-1.55078 0.95857,-1.55078 l 0.34037,-2.04389 -0.107,-1.19031 c 0,0 -0.44583,-1.60049 -0.71979,-1.98398 -0.27399,-0.38348 -0.4747,-0.70991 -0.90835,-1.01804 -0.43366,-0.30814 -0.32066,-0.65637 -1.89355,-0.93805 -1.57282,-0.28168 -0.7251,-0.17389 -1.57282,-0.28168 -0.84773,-0.1078 -3.315136,-0.7808 -3.315136,-0.7808 0,0 -0.952197,-0.4207 -1.289077,-0.65587 -0.33688,-0.23517 -0.721283,-0.46527 -1.122977,-1.03517 -0.401693,-0.56991 -0.661546,-1.01061 -1.234318,-1.57738 -0.572838,-0.56677 -1.324122,-1.20257 -1.697275,-1.41617 -0.373153,-0.2136 -0.157339,-0.26012 -1.096428,-0.54345 -0.939048,-0.283324 -1.228265,-0.415885 -1.998704,-0.439441 -0.770439,-0.02356 -1.407265,-0.03166 -2.07899,0.07645 -0.671752,0.108113 -0.686407,0.04866 -1.326435,0.263301 -0.640056,0.21464 -0.85659,0.25222 -1.349375,0.53634 -0.492814,0.28411 -0.969699,0.5857 -1.268889,0.85576 -0.299219,0.27005 -0.68334,0.66773 -0.68334,0.66773 0,0 -0.417222,0.48789 -0.598197,0.76847 -0.180974,0.28058 -0.224446,0.24034 -0.503793,0.86075 -0.279347,0.62041 -0.443018,1.02825 -0.529088,1.33422 -0.08607,0.30598 -0.306334,1.43328 -0.306334,1.43328 0.466878,-0.43096 0.273211,-2.0318 0,0 0.409389,1.40174 0.390314,1.36921 0.507921,1.63604 0.117608,0.26683 0.256355,0.59463 0.490167,1.04767 0.233788,0.45304 0.504324,0.96308 0.6985,1.28616 0.194179,0.32307 0.942526,1.41421 0.942526,1.41421 z"
         style="fill:none;stroke:#000000;stroke-width:0.508;stroke-linecap:butt;stroke-linejoin:miter;stroke-miterlimit:4;stroke-dasharray:none;stroke-opacity:1" />
      <path
         sodipodi:nodetypes="scsssaaasaassssssssssssssssassssssssssssssssssssssscssssss"
         inkscape:connector-curvature="0"
         id="path6654"
         d="m 24.722431,92.405175 c -0.02265,0.699002 -0.334087,2.071338 -0.334087,2.071338 0,0 -0.127574,0.669445 -0.200452,1.002263 -0.102844,0.469668 -0.199258,0.941661 -0.334087,1.403165 -0.152096,0.520607 -0.400904,1.269529 -0.534539,1.536798 -0.133635,0.267271 -0.460846,1.327484 -0.801809,1.937701 -0.388986,0.69616 -0.952537,1.27977 -1.403165,1.93771 -0.509677,0.74416 -1.005706,1.49849 -1.469982,2.27179 -0.472136,0.78639 -0.83593,1.63672 -1.336348,2.40542 -0.685336,1.05276 -1.514353,2.00466 -2.27179,3.00679 -0.690288,0.91329 -1.363516,1.83974 -2.071339,2.73951 -0.587158,0.74638 -1.190008,1.48056 -1.80407,2.20497 -0.785788,0.92699 -1.535108,1.89139 -2.4054253,2.73952 -0.8720667,0.84984 -1.9229167,1.50056 -2.8063301,2.3386 -0.9032884,0.85689 -1.8303559,1.71582 -2.5390604,2.73951 -0.5953138,0.8599 -0.9568067,1.86051 -1.4031651,2.80634 -0.1872377,0.39675 -0.4083783,0.78253 -0.534539,1.20271 -0.155837,0.51902 -0.232576,1.06282 -0.2672695,1.60362 -0.038525,0.60053 -1e-6,1.46998 0.066817,1.80407 0.066816,0.33408 0.6861348,1.6304 1.2027129,2.3386 0.3341184,0.45806 0.8280963,0.77715 1.202713,1.20272 0.4253737,0.48323 0.7897361,1.01694 1.181414,1.52787 0.30087,0.39247 0.5870269,0.79641 0.8976934,1.18117 0.2736457,0.33891 0.5257564,0.70181 0.8504465,0.99219 0.3549041,0.3174 0.7356951,0.63513 1.1811757,0.8032 0.5939945,0.2241 1.2578239,0.17662 1.8898809,0.23624 0.738432,0.0697 1.511236,-0.0749 2.22061,0.14174 0.714556,0.2182 1.217004,0.92463 1.935022,1.13115 1.541883,0.44349 3.206694,0.13396 4.810851,0.14985 0.936457,0.009 1.871403,-0.0955 2.80633,-0.14985 1.053062,-0.0612 2.490216,0.38828 3.122237,-0.51554 0.399564,-0.57139 1.139041,-2.31525 1.502408,-2.91032 0.431816,-0.70717 -0.20522,-2.06751 0.05257,-2.85497 0.13859,-0.42334 -0.318469,-1.6478 0,-1.33635 0.570984,0.55841 -0.592807,-1.06159 -0.701582,-1.67044 -0.0628,-0.35149 0.01782,-0.7154 0.06682,-1.06907 0.05786,-0.41758 0.08928,-0.85398 0.267269,-1.23613 0.184329,-0.39577 0.534839,-0.69021 0.801809,-1.03566 0.301017,-0.38951 0.579228,-0.79766 0.902036,-1.16931 0.821252,-0.94551 2.134571,-1.53601 2.624336,-2.68865 0.406677,-0.95709 -0.01458,-2.08412 0.09449,-3.1183 0.03693,-0.35021 0.1864,-0.68728 0.188989,-1.03943 0.0028,-0.38318 -0.325093,-0.77573 -0.188989,-1.13393 0.09348,-0.24602 0.409088,-0.33121 0.614211,-0.4961 0.31439,-0.25272 0.850458,-0.70868 0.944941,-0.75595 0.0945,-0.0473 1.488282,-1.27567 1.535528,-1.37016 0.04725,-0.0945 1.157558,-1.20479 1.252045,-1.27567 0.09451,-0.0709 0.708357,-0.8587 0.968566,-1.34654 0.371723,-0.69691 0.620075,-1.4583 0.826823,-2.22061 0.167402,-0.61724 0.297115,-1.25123 0.330729,-1.88988 0.03651,-0.69361 0.153428,-1.45014 -0.141743,-2.07887 -0.194093,-0.41343 -0.992187,-0.94494 -0.992187,-0.94494 0,0 -3.145975,-1.48758 -4.582959,-2.45685 -0.815795,-0.55027 -1.887871,-0.98218 -2.267858,-1.88988 -0.585852,-1.399466 0.395874,-3.018673 0.377976,-4.535712 -0.02093,-1.773861 0.740985,-4.093214 -0.566965,-5.291666 -1.196227,-1.096082 -3.763431,-1.28434 -4.866443,-0.0945 -0.254669,0.274717 0.118867,0.744319 0.106734,1.118723 z"
         style="fill:none;stroke:#000000;stroke-width:0.508;stroke-linecap:butt;stroke-linejoin:miter;stroke-miterlimit:4;stroke-dasharray:none;stroke-opacity:1" />
    </g>
    <path
       style="fill:none;stroke:#000000;stroke-width:0.901285;stroke-linecap:butt;stroke-linejoin:miter;stroke-miterlimit:4;stroke-dasharray:none;stroke-opacity:1"
       d="m 246.95343,134.16494 c 0.33012,-0.66906 0.55828,-1.38804 0.92146,-2.03975 0.35699,-0.64059 0.78713,-1.23946 1.22863,-1.82503 0.47865,-0.63485 1.04582,-1.19886 1.53578,-1.82503 0.57244,-0.73158 1.00457,-1.57515 1.63817,-2.25445 0.75959,-0.81438 1.66736,-1.48074 2.55964,-2.14709 0.62315,-0.46537 1.27039,-0.90182 1.94532,-1.28826 0.4946,-0.28319 1.03952,-0.47125 1.53579,-0.75148 0.45977,-0.25963 1.33101,-0.85884 1.33101,-0.85884 l 2.86679,-1.07355 2.96918,-0.85884 3.17396,-0.42941 h 2.55964 c 0,0 1.57144,-0.0491 2.35486,0 0.85826,0.0538 2.55964,0.32206 2.55964,0.32206 l 3.07157,0.64413 1.94532,0.75148 2.45725,0.9662 c 0,0 1.47484,0.84332 2.25249,1.1809 0.69642,0.30232 1.45366,0.44917 2.15009,0.75148 0.28278,0.12276 0.55333,0.27318 0.81908,0.42941 0.84421,0.49633 2.45725,1.61033 2.45725,1.61033 l 3.17396,2.3618 3.58349,1.93239 3.89065,1.93239 3.5835,1.61031 2.7644,1.18092 c 0,0 2.30152,1.04909 3.48111,1.50298 1.14359,0.44001 2.32471,0.77574 3.48111,1.18089 1.98648,0.696 5.93836,2.14712 5.93836,2.14712 0,0 1.99479,0.44676 2.96918,0.75147 1.46084,0.45687 2.85294,1.11213 4.3002,1.61034 0.67657,0.23292 2.0477,0.64414 2.0477,0.64414 0,0 1.83573,0.46317 2.76441,0.64413 0.67821,0.13218 1.59177,-0.19711 2.04772,0.32207 0.85037,0.96831 0.10513,2.57608 0.10238,3.86479 -0.002,1.10986 -0.10238,3.32802 -0.10238,3.32802 0,0 -0.0853,2.79093 -0.10239,4.18686 -0.0144,1.18082 0,2.36181 0,3.54272 0,0.60835 0.42328,1.38811 0,1.82505 -0.78402,0.80933 -2.25206,0.0894 -3.37872,0.10734 -1.3991,0.0222 -2.80079,-0.0793 -4.19781,0 -1.57753,0.0896 -3.13388,0.42133 -4.70973,0.53676 -1.08978,0.0798 -2.1892,-0.002 -3.27634,0.10734 -1.48118,0.14992 -2.93608,0.49505 -4.40258,0.75147 -1.40027,0.24486 -2.80437,0.47037 -4.19781,0.75149 -1.44011,0.29056 -4.30019,0.96621 -4.30019,0.96621 0,0 -2.22428,0.61101 -3.27633,1.07355 -1.00335,0.44114 -1.87759,1.13836 -2.8668,1.61032 -0.96133,0.45867 -1.99838,0.74268 -2.96918,1.18092 -1.0813,0.48811 -2.09302,1.12141 -3.17395,1.61032 -0.70318,0.31804 -2.1501,0.85883 -2.1501,0.85883 l -3.48111,1.71767 -3.89064,1.39563 -2.8668,1.07354 -3.68587,1.07354 -2.76442,0.42941 -5.01689,0.10734 -1.43339,-0.2147 -3.68588,-0.53676 -2.66203,-0.75149 -2.1501,-0.75147 -2.45725,-1.50297 -2.66202,-1.71767 -2.55963,-1.93241 -1.84294,-1.61032 c 0,0 -0.69499,-1.13789 -1.02385,-1.71768 -0.46131,-0.8133 -0.70433,-1.77524 -1.33102,-2.46916 -0.46991,-0.52034 -1.19972,-0.73475 -1.74055,-1.18092 -0.74317,-0.6131 -1.37735,-1.34779 -2.04771,-2.03974 -0.7229,-0.7462 -1.50315,-1.4472 -2.12852,-2.27686 -0.67285,-0.89265 -1.23349,-1.87193 -1.72439,-2.8762 -0.3672,-0.75123 -0.73678,-1.52044 -0.90531,-2.33944 -0.18766,-0.91193 -0.13454,-1.86077 -0.10239,-2.79124 0.0388,-1.1224 0.11383,-2.25367 0.35564,-3.35038 0.11396,-0.51684 0.33546,-1.00401 0.51192,-1.50298 0.16521,-0.46716 0.34044,-0.93072 0.51191,-1.39561 0.23775,-0.64458 0.42567,-1.3101 0.7167,-1.93241 0.262,-0.56021 0.55178,-1.11454 0.92147,-1.61034 0.2956,-0.39642 0.69206,-0.70688 1.02386,-1.07354 0.31642,-0.34969 0.59489,-0.73334 0.92147,-1.07356 0.29076,-0.3029 0.59505,-0.43518 0.92146,-0.85884 0.32642,-0.42364 0.634,-1.135 0.9215,-1.71768 z"
       id="2.1"
       inkscape:connector-curvature="0"
       sodipodi:nodetypes="aaaaassscccccaccccsssccccccsscsscssscssssssssscsssscccccccccccccccsaaaaaaaaaaaaaaza"
       inkscape:label="#path6680" />
    <path
       style="fill:none;stroke:#000000;stroke-width:0.901285;stroke-linecap:butt;stroke-linejoin:miter;stroke-miterlimit:4;stroke-dasharray:none;stroke-opacity:1"
       d="m 214.7669,275.9437 c -0.10221,-1.21864 2.34274,-0.57674 3.28222,-1.28164 0.86853,-0.65167 1.50555,-1.68679 1.98605,-2.58204 0.50503,-0.94099 1.44418,-2.44882 2.14726,-3.25266 1.29158,-1.47671 2.53026,-1.74637 3.76584,-2.66043 1.33742,-0.98939 2.56839,-2.12315 3.94637,-3.05521 2.00026,-1.35298 4.18037,-2.41939 6.24841,-3.66628 1.3251,-0.79895 2.68364,-1.54993 3.94637,-2.44419 1.7228,-1.22007 3.33648,-2.59059 4.93296,-3.97185 0.79208,-0.68529 1.49398,-1.47227 2.30205,-2.13863 1.46593,-1.20886 2.94095,-2.44195 4.60409,-3.36077 1.44589,-0.79881 3.08709,-1.17942 4.6041,-1.83315 1.99804,-0.86103 3.80656,-2.2312 5.91954,-2.74969 2.13156,-0.52304 4.38308,-0.2545 6.57728,-0.30542 1.64388,-0.0382 4.93297,0 4.93297,0 0,0 3.29058,-0.0802 4.93295,0 2.09025,0.10201 4.1623,0.44455 6.2484,0.61108 1.64225,0.13111 3.28802,0.21428 4.93297,0.30541 2.0821,0.11532 4.16374,0.2545 6.24841,0.30542 2.30136,0.0562 4.60961,-0.15932 6.90615,0 2.2083,0.15311 4.40893,0.47117 6.57727,0.91658 1.89236,0.38872 3.80213,0.79737 5.59068,1.52761 2.32381,0.94876 4.43021,2.36614 6.57728,3.66626 1.90629,1.15432 3.81306,2.32228 5.59068,3.66632 1.73603,1.31257 3.2916,2.84816 4.93296,4.27734 1.86694,1.6256 3.82922,3.14903 5.5907,4.88834 1.7523,1.73022 3.39065,3.57968 4.93294,5.49945 1.64863,2.05213 4.6041,6.416 4.6041,6.416 0,0 2.33854,6.06191 3.28864,9.16568 1.169,3.81882 2.25774,7.67835 2.95979,11.6099 0.55797,3.12475 0.88285,6.2988 0.98657,9.47127 0.0933,2.85212 -0.32888,8.55463 -0.32888,8.55463 0,0 -2.20685,5.39897 -3.61751,7.94363 -1.53991,2.7778 -3.36245,5.39806 -5.2618,7.94364 -1.42972,1.91615 -3.13881,3.61034 -4.6041,5.49942 -0.92192,1.18856 -1.29268,2.97947 -2.63092,3.6663 -1.4629,0.75081 -4.93296,0 -4.93296,0 l -7.56386,1.52762 -6.90614,-0.91658 h -3.28864 c 0,0 -5.1293,-0.65556 -7.56388,0 -1.9584,0.52734 -3.67948,1.7865 -5.26181,3.05522 -0.75674,0.60675 -1.0986,1.71923 -1.97318,2.13865 -2.67507,1.28288 -5.91296,0.56215 -8.87933,0.61108 -5.70317,0.094 -11.40607,-0.28903 -17.10092,-0.61108 -3.95186,-0.22349 -7.88246,-0.80642 -11.8391,-0.91658 -4.71299,-0.13129 -9.43585,0.60495 -14.14115,0.30543 -3.42925,-0.2183 -8.37613,1.38787 -10.19477,-1.52761 -1.92227,-3.0816 2.65026,-6.81237 3.28864,-10.38781 0.41216,-2.30841 0.60412,-4.69832 0.32888,-7.02703 -0.3236,-2.73776 -1.48146,-5.31176 -2.30203,-7.94364 -0.92685,-2.97268 -1.95944,-5.91142 -2.95978,-8.86018 -0.86509,-2.55009 -2.6309,-7.63811 -2.6309,-7.63811 0,0 -1.09141,-5.70404 -1.64432,-8.55465 -0.43472,-2.24124 -0.39937,-4.63037 -1.31546,-6.72153 -0.96581,-2.20462 -2.26055,-4.49704 -4.26879,-5.82372 -1.83245,-1.21057 -4.29467,-0.92955 -6.41607,-1.49786 -2.04792,-0.54859 -5.92229,0.12242 -6.08722,-1.84394 z"
       id="2.3"
       inkscape:connector-curvature="0"
       sodipodi:nodetypes="sassassssssssscsssssssssssscssscssssccccsssssssssssscsaaas"
       inkscape:label="#path6726" />
    <g
       id="2.5"
       inkscape:label="#g6873"
       transform="matrix(1.7741836,0,0,1.7741836,182.92697,-12.930003)">
      <path
         inkscape:connector-curvature="0"
         id="path6813"
         d="m 79.676856,202.23327 0.553021,-0.69128 0.760405,-0.55302 1.036915,-0.27651 0.89866,-0.48389 0.967792,-0.62215 0.96778,-0.41477 0.96779,-0.13826 0.41477,0.13826 0.82953,0.0691 0.62215,-0.62215 0.55302,-0.34564 h 0.55302 l 0.82953,0.20739 0.483901,0.27651 0.69127,0.34563 0.41477,-0.13825 0.55302,-0.89866 0.20738,-0.55302 0.96779,-0.27651 1.38255,-0.62215 1.03692,-0.27651 0.62215,0.13825 0.48389,0.34564 0.82953,0.41477 c 0,0 0.55303,-0.4839 0.82954,-0.62215 0.27651,-0.13826 0.96778,-0.13826 0.96778,-0.13826 l 0.4839,0.89866 0.69128,0.4839 0.89866,0.48389 0.55302,0.89866 0.69127,0.7604 0.20739,1.10605 -0.41477,0.82953 -0.34564,0.62215 v 1.10604 l -0.7604,0.82953 -0.55302,0.76041 -0.4839,1.17517 -0.89866,0.20738 h -1.03691 c 0,0 -0.0691,-0.13825 -0.41477,-0.20738 -0.34564,-0.0691 -1.03691,-0.34564 -1.31343,-0.0691 -0.27651,0.27651 -0.7604,0.41476 -0.82953,0.62215 -0.0691,0.20738 -0.34564,0.7604 -0.34564,0.7604 0,0 -0.48389,0.27651 -0.82953,0.27651 -0.34564,0 -0.7604,-0.41476 -1.03691,-0.48389 -0.27651,-0.0691 -0.96779,-0.41477 -0.96779,-0.41477 l -1.03692,-0.34564 -0.7604,0.34564 -0.76041,0.4839 c 0,0 -0.276511,0.41476 -0.553021,0.48389 -0.27651,0.0691 -0.48389,0.0691 -0.96778,0 -0.4839,-0.0691 -1.38256,-0.48389 -1.38256,-0.48389 l -0.89866,-0.69128 c 0,0 -0.89866,-0.41476 -0.89866,-0.13825 0,0.27651 0,0.69127 -0.34563,0.69127 -0.34564,0 -1.382558,0 -1.382558,0 0,0 -0.967788,-0.55302 -1.244299,-0.55302 -0.27651,0 -0.691276,-0.34564 -0.691276,-0.34564 l -0.829533,-0.7604 -0.483894,-0.69128 -0.207383,-0.55302 0.06913,-0.48389 -0.829532,-0.41477 c 0,0 -0.483894,-0.62215 -0.207383,-0.62215 0.27651,0 0.691277,-0.27651 0.691277,-0.27651 z"
         style="fill:none;stroke:#000000;stroke-width:0.508;stroke-linecap:butt;stroke-linejoin:miter;stroke-miterlimit:4;stroke-dasharray:none;stroke-opacity:1" />
      <path
         inkscape:connector-curvature="0"
         id="path6836"
         d="m 74.83236,153.94181 0.967784,-0.62215 1.52081,-0.13825 h 2.07383 c 0,0 1.65907,-0.41477 1.93558,-0.41477 0.27651,0 1.2443,-0.0691 1.79732,-0.13825 0.55302,-0.0691 1.65906,-0.20739 1.65906,-0.20739 l 1.45168,-0.13825 c 0,0 1.38256,-0.48389 1.65907,-0.48389 0.27651,0 1.03691,-0.13826 1.03691,-0.13826 l 0.4839,-0.89866 -0.0691,-1.17517 -0.41477,-1.2443 -0.41476,-1.10604 0.7604,-0.69128 0.34564,-0.89866 -0.34564,-0.82953 0.82953,-0.48389 0.62215,-0.76041 v -0.62215 c 0,0 0,-0.82953 0.34564,-1.03691 0.34564,-0.20739 0.89866,-0.76041 1.2443,-0.76041 0.34564,0 0.89866,-0.0691 1.31342,-0.0691 0.41477,0 0.69128,0 1.10605,0 0.41476,0 1.38255,-0.27651 1.38255,-0.27651 l 1.2443,0.0691 c 0,0 0.82953,0.13826 1.10604,0.27651 0.27651,0.13826 0.82953,0.41477 0.82953,0.41477 l 0.829536,0.41476 1.10604,0.62215 0.20738,0.4839 0.0691,1.10604 1.03692,1.45168 0.48389,0.82953 0.0691,1.17517 -0.20738,0.96779 c 0,0 -0.48389,0.62215 -0.34564,0.89866 0.13826,0.27651 0.55302,1.17517 0.55302,1.17517 v 0.62215 l 0.34564,0.69128 0.76041,0.82953 0.27651,0.82953 0.0691,0.89866 -0.41477,1.17517 c 0,0 0.34564,1.31343 0.41477,1.58994 0.0691,0.27651 0.34563,0.41476 0.41476,0.69127 0.0691,0.27652 0.82953,1.2443 0.82953,1.2443 l 1.2443,0.89866 1.2443,0.76041 0.20738,0.82953 -0.0691,0.96779 0.27652,0.7604 0.48389,0.41477 c 0,0 -0.0691,0.62215 -0.13826,1.10604 -0.0691,0.48389 -0.0691,1.58994 -0.0691,1.58994 l 0.34564,0.96779 0.27651,1.03691 -0.62215,0.76041 -0.69127,1.03691 0.41476,1.17517 -0.13825,0.82953 -1.38256,0.55302 -0.0691,1.10605 -0.41476,0.89866 -0.55302,0.55302 0.20738,1.17517 c 0,0 -0.76041,0.82953 -1.10604,1.03691 -0.34564,0.20739 -1.45169,0 -1.45169,0 0,0 -0.13825,1.03692 -0.7604,0.62215 -0.62215,-0.41476 -1.03692,-1.03691 -1.03692,-1.03691 0,0 -0.62214,-0.27651 -0.7604,0.0691 -0.13825,0.34563 -0.89866,0 -0.89866,0 0,0 -0.553016,-0.34564 -0.553016,-0.89866 0,-0.55303 -0.13825,-1.10605 -0.13825,-1.10605 l -0.55303,1.38256 h -0.7604 l -0.48389,-0.89866 c 0,0 -0.0691,-0.4839 -0.34564,-0.89866 -0.27651,-0.41477 -0.34564,-0.62215 -0.34564,-0.96779 0,-0.34564 -0.0691,-1.72819 -0.0691,-1.72819 l 0.89866,-0.55302 0.13825,-0.62215 -0.96778,-0.20739 c 0,0 -0.13826,-0.55302 0,-0.82953 0.13825,-0.27651 0.41476,-1.58993 0.41476,-1.58993 0,0 0.41477,-0.41477 0.41477,-0.76041 0,-0.34564 0.0691,-1.17517 -0.20738,-1.31342 -0.27651,-0.13826 -0.4839,-0.55302 -0.4839,-0.55302 l 0.4839,-0.34564 -0.41477,-0.89866 -1.38255,-0.55302 -0.34564,-0.55303 0.41476,-0.62215 0.20739,-0.69127 c 0,0 -0.55302,-0.13826 -0.82954,-0.20739 -0.27651,-0.0691 -0.89866,-0.62214 -0.89866,-0.62214 l -0.89866,-0.89866 -0.62214,-1.03692 0.34563,-1.10604 0.4839,-0.69128 -0.69128,-0.89866 c 0,0 0.41477,-0.27651 -0.13825,-0.62215 -0.55303,-0.34564 -0.96779,-1.10604 -0.96779,-1.10604 l 0.0691,-1.31343 0.20738,-0.96778 -1.2443,-0.62215 -0.7604,0.41476 -0.89866,0.4839 c 0,0 -0.27651,0.27651 -1.45168,0.27651 -1.17517,0 -1.52081,0 -1.52081,0 l -0.7604,0.27651 -2.21209,0.34564 -1.45168,0.13825 -1.65907,-0.0691 -0.96778,0.13826 -1.79732,0.62215 -1.31343,0.55302 -0.69128,0.48389 z"
         style="fill:none;stroke:#000000;stroke-width:0.508;stroke-linecap:butt;stroke-linejoin:miter;stroke-miterlimit:4;stroke-dasharray:none;stroke-opacity:1" />
      <path
         inkscape:connector-curvature="0"
         id="path6853"
         d="m 32.740977,168.82577 -0.593181,1.13027 0.508437,1.73887 0.847411,1.73887 0.423706,1.04333 -1.016899,0.60861 -0.508437,1.39109 1.016887,1.30416 h 1.186373 l 0.847411,0.69555 0.254219,1.21722 0.508436,1.04332 1.016899,0.7825 0.762668,0.6086 0.169474,1.21721 1.016887,0.26083 c 0,0 0.762667,-0.0869 1.186373,0.17389 0.423705,0.26083 1.10163,0.34778 1.10163,0.34778 l 1.016886,-0.52167 c 0,0 0.677924,-0.52166 1.016898,-0.52166 0.33895,0 1.016886,0.17389 1.355848,0.26083 0.338962,0.0869 2.033772,0.1739 2.033772,0.1739 l 1.016887,-0.0869 1.35586,-0.86945 c 0,0 0.847399,-0.78249 1.271105,-0.86944 0.423705,-0.0869 1.101629,-0.34777 1.186373,-0.69554 0.08471,-0.34778 0.59318,-0.60861 0.932142,-0.69555 0.338962,-0.0869 0.677937,-0.7825 0.677937,-0.7825 l 0.677924,-1.30415 c 0,0 0.423693,-0.43472 0.423693,-0.86944 0,-0.43472 -0.08471,-1.30416 -0.08471,-1.30416 l 0.593193,-1.2172 c 0,0 -0.593193,-0.34778 -1.271117,-0.69556 -0.677924,-0.34777 -1.101617,-0.95638 -1.101617,-0.95638 l -1.10163,-0.26083 c 0,0 -1.35586,0 -2.033784,0.0869 -0.677924,0.0869 -1.10163,0.34778 -1.10163,0.34778 l -1.525335,0.0869 c 0,0 -1.016886,-0.52166 -1.440592,-0.43472 -0.423706,0.0869 -0.593181,0.43472 -0.932143,0.26083 -0.338962,-0.17389 -0.508449,-0.43472 -1.101629,-0.52167 -0.593181,-0.0869 -1.610079,-0.52165 -1.610079,-0.52165 l -1.10163,-0.60861 -0.762655,0.26084 -0.847412,0.95637 -1.355848,-0.17388 c 0,0 -1.186373,-0.60861 -1.610079,-0.60861 -0.423705,0 -1.525335,-0.0869 -1.525335,-0.0869 l -0.254218,-1.3911 -0.254231,-1.30415 z"
         style="fill:none;stroke:#000000;stroke-width:0.508;stroke-linecap:butt;stroke-linejoin:miter;stroke-miterlimit:4;stroke-dasharray:none;stroke-opacity:1" />
    </g>
    <path
       style="fill:none;stroke:#000000;stroke-width:0.901285;stroke-linecap:butt;stroke-linejoin:miter;stroke-miterlimit:4;stroke-dasharray:none;stroke-opacity:1"
       d="m 324.23417,191.79386 c 1.01873,-0.15488 1.68595,1.19967 2.60802,1.65966 0.90633,0.45215 1.88576,0.74206 2.84511,1.06691 1.29058,0.43702 2.58785,0.86431 3.91203,1.18547 1.91317,0.46402 3.86204,0.77392 5.80877,1.06691 2.00659,0.30198 4.01671,0.69889 6.04586,0.71129 2.26478,0.0142 4.56111,-0.15737 6.75714,-0.71129 1.61515,-0.40742 3.29097,-0.89692 4.62331,-1.89673 1.62677,-1.22074 1.98095,-3.8657 3.80137,-4.77275 3.80269,-1.89475 8.85846,-2.05968 12.74138,-0.3353 0.94176,0.41823 1.48223,1.46315 2.0118,2.3471 1.10935,1.8517 1.59661,4.01149 2.34709,6.03539 0.70054,1.8892 1.22443,3.8454 2.0118,5.70009 0.9766,2.30046 2.30147,4.4388 3.35299,6.70599 1.07441,2.31654 2.15191,4.35493 3.01769,7.04129 0.86579,2.68637 1.14646,6.08536 2.01181,9.05309 1.09861,3.76768 2.78862,7.33968 4.0236,11.0649 1.46874,4.4304 2.71828,8.9307 4.0236,13.41197 1.49412,5.12945 3.16134,10.2171 4.35888,15.42378 0.71255,3.09808 1.12308,6.25797 1.6765,9.38839 0.79011,4.4693 1.69354,8.92069 2.3471,13.41198 0.69672,4.78792 1.18441,9.60463 1.6765,14.41789 0.38799,3.79505 0.64195,7.60276 1.00589,11.40019 0.62173,6.48734 0.63785,13.0768 2.0118,19.44738 2.01183,9.3283 5.95611,18.13299 9.05309,27.15925 2.61564,7.62337 6.0043,15.00399 8.0472,22.80037 2.30083,8.78078 3.04548,17.89776 4.69419,26.82398 1.489,8.06153 9.4031,17.431 4.69419,24.14156 -4.1586,5.92634 -15.82295,7.89703 -21.45918,3.353 -2.96345,-2.38921 -0.82879,-7.59685 -0.67059,-11.40018 0.13129,-3.15851 1.1171,-6.2351 1.3412,-9.3884 0.25353,-3.56752 0.0777,-7.15389 0,-10.72958 -0.11178,-5.14491 0.66718,-10.45459 -0.67061,-15.42378 -1.37758,-5.117 -5.0921,-9.30109 -7.37658,-14.08258 -3.1507,-6.59454 -3.84242,-14.67321 -8.71778,-20.11799 -2.4044,-2.68521 -5.969,-4.22497 -9.3884,-5.36477 -1.70969,-0.56991 -3.68608,-0.0142 -5.36479,-0.67061 -1.79117,-0.69947 -3.58566,-1.78178 -4.69419,-3.35299 -0.93815,-1.32972 -0.92027,-3.12225 -1.34121,-4.69421 -0.71519,-2.67086 -1.1611,-5.41635 -2.01179,-8.04718 -0.74072,-2.29074 -2.10384,-4.36902 -2.6824,-6.70599 -1.0263,-4.14545 -1.36731,-8.47088 -1.3412,-12.74139 0.0234,-3.82619 0.13537,-7.76888 1.3412,-11.40018 0.47555,-1.43208 2.27777,-2.41038 2.26545,-3.91931 -0.007,-0.92162 -1.34894,-1.45222 -1.42255,-2.37093 -0.10202,-1.27271 0.46966,-2.70659 1.42255,-3.55639 0.67251,-0.59974 1.97767,-0.0674 2.60802,-0.71128 0.68384,-0.69855 0.81793,-1.8734 0.71127,-2.84512 -0.0772,-0.70265 -1.02284,-1.1938 -0.94837,-1.89673 0.10662,-1.00646 1.31142,-1.54526 1.89674,-2.37093 0.43118,-0.60824 1.21711,-1.15183 1.18547,-1.89674 -0.0335,-0.7896 -1.05576,-1.19671 -1.42255,-1.89675 -0.34797,-0.66411 -0.65264,-1.38636 -0.71129,-2.13382 -0.11284,-1.43777 0.95666,-2.84652 0.71129,-4.26768 -0.13839,-0.80181 -0.98136,-1.34618 -1.18546,-2.13383 -0.31719,-1.22406 0.39987,-2.59387 0,-3.79347 -0.24991,-0.74975 -0.82173,-1.38333 -1.42256,-1.89674 -1.15572,-0.98757 -2.75969,-1.2997 -4.03059,-2.13385 -0.84611,-0.55534 -2.00923,-0.95147 -2.37091,-1.89672 -0.34361,-0.89797 0.1977,-1.92428 0.47418,-2.84512 0.22384,-0.74548 0.82915,-1.36465 0.94838,-2.13383 0.10964,-0.70721 0.0215,-1.46654 -0.23711,-2.13385 -0.38843,-1.00229 -1.89674,-2.60801 -1.89674,-2.60801 0,0 -0.30585,-2.22041 -0.94835,-3.0822 -0.34065,-0.45689 -1.25627,-0.40327 -1.42256,-0.94837 -0.42396,-1.38974 1.59593,-2.57901 1.65964,-4.03058 0.058,-1.32352 -0.43054,-2.70483 -1.18547,-3.79348 -0.51349,-0.74048 -1.73794,-0.85019 -2.13383,-1.65965 -0.34723,-0.70994 0.28085,-1.63221 0,-2.37093 -0.3382,-0.88954 -1.14141,-1.55494 -1.89675,-2.13382 -0.98185,-0.75247 -2.17201,-1.19706 -3.3193,-1.65965 -1.22867,-0.4954 -2.48925,-0.95296 -3.79349,-1.18547 -1.55803,-0.27777 -3.15975,-0.19756 -4.74185,-0.23709 -1.34311,-0.0335 -2.69712,-0.16411 -4.03058,0 -1.29364,0.15933 -2.68952,0.25545 -3.79348,0.94838 -1.04559,0.65629 -1.95067,1.68434 -2.37092,2.8451 -0.18833,0.52017 0.16883,1.13283 0,1.65966 -0.20748,0.64741 -0.58097,1.34855 -1.18547,1.65964 -0.84326,0.43396 -2.32304,-0.79175 -2.84511,0 -0.33133,0.50246 0.71128,1.65964 0.71128,1.65964 0,0 1.0252,1.29892 0.71128,1.89674 -0.45447,0.86549 -2.32236,-0.11479 -2.84511,0.71127 -0.64648,1.02158 0.71127,3.55641 0.71127,3.55641 0,0 1.42133,1.51939 1.18547,2.37091 -0.27506,0.99305 -1.68595,1.19967 -2.60802,1.65966 -0.60422,0.30144 -1.22325,0.75987 -1.89674,0.71127 -1.79924,-0.12987 -3.22019,-1.63918 -4.74185,-2.60801 -2.1468,-1.36685 -4.04737,-3.09228 -6.16441,-4.50476 -2.15348,-1.43679 -5.369,-1.77449 -6.6386,-4.03057 -2.24798,-3.99472 -2.69821,-10.04588 0,-13.75138 1.51533,-2.08103 7.34988,-2.37093 7.34988,-2.37093 0,0 2.58567,-4.29867 2.37092,-6.63859 -0.25892,-2.82115 -2.68313,-5.00142 -4.26766,-7.34987 -1.00798,-1.49394 -3.3193,-4.26766 -3.3193,-4.26766 0,0 -3.97719,-2.31169 -4.03058,-4.26768 -0.14688,-5.38138 5.10987,-11.51952 10.43208,-12.32882 z"
       id="2.6."
       inkscape:connector-curvature="0"
       sodipodi:nodetypes="ssssssaaasaaaazaaassssssssssssassssssssssssasssssssssssssssssscsssssssssssssssscsscsssassscsscss"
       inkscape:label="#path6902" />
    <path
       style="fill:none;stroke:#000000;stroke-width:0.895321px;stroke-linecap:butt;stroke-linejoin:miter;stroke-opacity:1"
       d="m 374.53155,342.92578 c -1.18772,-0.6782 -2.68267,0.72403 -3.8333,1.46342 -2.04726,1.31556 -5.20229,5.12191 -5.20229,5.12191 0,0 -2.33295,2.8303 -3.28567,4.39023 -1.08452,1.77577 -1.82308,3.74092 -2.73806,5.60971 -0.63729,1.30159 -1.28752,2.59687 -1.91663,3.90242 -0.74172,1.53919 -1.18649,3.25163 -2.19046,4.63413 -1.25324,1.72577 -2.89114,3.19071 -4.65469,4.3902 -1.58363,1.07713 -3.85915,1.07372 -5.2023,2.43901 -1.25002,1.27061 -2.07916,3.09909 -2.19044,4.87804 -0.1168,1.86691 0.87716,3.65913 1.64283,5.36579 0.93477,2.08355 2.40717,3.88204 3.55948,5.85364 1.12905,1.93182 2.29086,3.84934 3.28565,5.85361 1.22171,2.46149 2.37818,4.9671 3.28568,7.56092 0.69515,1.98689 1.1751,4.04517 1.64282,6.09755 0.33081,1.45158 0.11337,3.08053 0.82143,4.39023 0.78183,1.44637 2.53992,2.12471 3.55947,3.4146 1.22818,1.55383 2.24537,3.29563 3.01187,5.12192 0.81464,1.94096 1.14678,4.05181 1.64284,6.09752 0.50962,2.10159 0.52154,4.35189 1.36902,6.34143 0.57622,1.35272 2.46423,3.65851 2.46423,3.65851 0,0 1.09018,4.89499 3.01187,6.09754 10.90914,6.82674 32.01156,11.2948 38.60654,0.24401 1.94758,-3.26342 -3.71031,-6.63469 -5.47609,-9.99994 -1.60629,-3.06132 -3.28648,-6.09338 -4.65469,-9.26825 -1.1639,-2.70076 -2.07463,-5.50509 -3.01187,-8.29264 -0.78659,-2.33947 -1.56833,-4.68462 -2.19043,-7.07312 -0.7751,-2.97592 -1.50981,-5.97616 -1.91665,-9.02433 -0.21546,-1.61426 0.18208,-3.31462 -0.27392,-4.87805 -0.26105,-0.89502 -0.83826,-1.6725 -1.36903,-2.439 -0.96804,-1.398 -2.45204,-2.42027 -3.28563,-3.90241 -0.84106,-1.49544 -1.3097,-3.19493 -1.64284,-4.87801 -0.26894,-1.35876 -0.63455,-2.80897 -0.27391,-4.14632 0.38281,-1.41963 1.60189,-2.46759 2.46423,-3.65851 0.78506,-1.08418 2.46424,-3.17073 2.46424,-3.17073 0,0 -0.90785,-2.45824 -1.91662,-3.1707 -0.98942,-0.69879 -2.3565,-0.58998 -3.55949,-0.73172 -2.53925,-0.29918 -5.62512,1.29542 -7.66655,-0.24401 -1.43157,-1.07953 -1.2033,-3.38363 -1.64284,-5.12191 -0.72995,-2.88673 -1.43444,-5.81013 -1.6428,-8.78043 -0.14229,-2.02956 0.39954,-4.06684 0.27391,-6.09751 -0.16801,-2.71624 0.99441,-6.6993 -1.36891,-8.04875 z"
       id="2.7"
       inkscape:connector-curvature="0"
       sodipodi:nodetypes="sscssssssssssssssssscssssssasasssscsssssss"
       inkscape:label="#path6904" />
    <path
       style="fill:none;stroke:#000000;stroke-width:0.895963;stroke-linecap:butt;stroke-linejoin:miter;stroke-miterlimit:4;stroke-dasharray:none;stroke-opacity:1"
       d="m 335.82358,410.14369 c -0.17872,0.73293 -0.17332,1.52901 0,2.26326 0.25839,1.09454 1.08065,1.97779 1.50885,3.01771 0,0 1.6306,3.77425 2.3471,5.70008 0.43134,1.15939 0.75165,2.35778 1.17355,3.52065 0.57336,1.58035 1.23048,3.12904 1.84414,4.69419 0.50382,1.28499 0.50821,2.90531 1.50885,3.85596 0.76872,0.7303 1.96704,0.86314 3.0177,1.00589 1.60801,0.21847 3.24408,-0.379 4.86184,-0.25148 0.93968,0.0742 1.93411,0.14407 2.76622,0.58678 1.06411,0.56623 1.8209,1.59378 2.59858,2.51475 1.18008,1.39747 1.68795,3.36583 3.10154,4.52654 1.48013,1.21537 3.51769,3.01077 5.28096,2.26327 1.15622,-0.49015 1.30115,-2.26547 1.34121,-3.52065 0.0392,-1.22784 -0.69936,-2.35583 -1.08972,-3.52064 -0.33983,-1.01405 -0.81909,-1.98304 -1.08972,-3.01769 -0.30108,-1.15102 -0.34693,-2.35535 -0.58679,-3.52067 -0.33064,-1.60633 -0.66857,-3.21768 -1.17356,-4.778 -0.3435,-1.06137 -0.76996,-2.09806 -1.25734,-3.10152 -0.39369,-0.81054 -0.79425,-1.63101 -1.34121,-2.34711 -0.50371,-0.65946 -1.14506,-1.2035 -1.76035,-1.76031 -0.5889,-0.53294 -1.2904,-0.93946 -1.84414,-1.50885 -0.54163,-0.55692 -1.13588,-1.12311 -1.42503,-1.84416 -0.39738,-0.99093 -0.22047,-2.12389 -0.3353,-3.18533 -0.10887,-1.00623 -0.12969,-2.02672 -0.3353,-3.01769 -0.30883,-1.48851 -0.79085,-2.94183 -1.3412,-4.35891 -0.42533,-1.09518 -0.95447,-2.14949 -1.50885,-3.18535 -0.61502,-1.14919 -1.38458,-2.21042 -2.01179,-3.35299 -0.54118,-0.98586 -0.88976,-2.07881 -1.50885,-3.01769 -0.52388,-0.79448 -1.17123,-1.50651 -1.84415,-2.17945 -0.67293,-0.67293 -1.33012,-1.41485 -2.17945,-1.84415 -1.07664,-0.5442 -2.32225,-0.97662 -3.52064,-0.83825 -0.86894,0.10042 -1.85075,0.4533 -2.3471,1.17355 -0.63739,0.92488 -0.39016,2.23109 -0.3353,3.35299 0.0557,1.13845 0.40873,2.24369 0.6706,3.353 0.29278,1.24024 0.69994,2.45123 1.0059,3.6883 0.2474,1.0003 0.83566,2.00057 0.6706,3.01769 -0.10439,0.64328 -0.54929,1.2115 -1.0059,1.67649 -0.73877,0.75233 -1.96733,0.90163 -2.6824,1.67652 -0.57631,0.62453 -0.97222,1.43766 -1.17355,2.26327 z"
       id="2.8"
       inkscape:connector-curvature="0"
       sodipodi:nodetypes="assaaaaaaaaaaaaaaaaaaaaaaaaaaaaaaaaaaaaa"
       inkscape:label="#path37" />
    <g
       id="2.9"
       inkscape:label="Clip"
       transform="matrix(1.7741836,0,0,1.7741836,182.92697,-12.930003)">
      <path
         style="fill:none;stroke:#000000;stroke-width:0.505;stroke-linecap:butt;stroke-linejoin:miter;stroke-miterlimit:4;stroke-dasharray:none;stroke-opacity:1"
         d="m 168.18271,125.66472 c -0.42961,0.39084 -0.66897,0.95392 -0.93545,1.46998 -0.24529,0.47503 -0.43868,0.97731 -0.60471,1.4855 -0.34223,1.04749 -0.63989,2.11721 -0.80181,3.20723 -0.13107,0.88233 -0.31329,1.79897 -0.13363,2.6727 0.14275,0.6942 0.29472,1.60641 0.93544,1.90933 0.63783,0.30155 1.48388,-0.0792 2.05988,-0.4866 0.86214,-0.60981 1.26048,-1.71073 1.71362,-2.66459 0.45302,-0.95358 0.77255,-1.97625 0.98269,-3.01084 0.25074,-1.2345 0.75395,-2.58208 0.32193,-3.76539 -0.28086,-0.76928 -0.92832,-1.60957 -1.73725,-1.73725 -0.66579,-0.10509 -1.30214,0.46634 -1.80071,0.91993 z"
         id="path844"
         inkscape:connector-curvature="0"
         sodipodi:nodetypes="aaaaaaaaaaaa" />
      <path
         style="fill:none;stroke:#000000;stroke-width:0.505;stroke-linecap:butt;stroke-linejoin:miter;stroke-miterlimit:4;stroke-dasharray:none;stroke-opacity:1"
         d="m 159.02537,141.44913 c -0.89531,0.31338 -1.69871,0.97144 -2.24817,1.74467 -0.81842,1.15174 -1.03644,2.64005 -1.35256,4.01714 -0.32032,1.39542 -0.83613,2.85964 -0.54195,4.2608 0.16011,0.76259 0.48547,1.69998 1.20271,2.00452 1.16604,0.4951 2.7244,-0.0516 3.70263,-0.85647 1.03993,-0.85566 1.2868,-2.39075 1.65156,-3.68711 0.41283,-1.46721 0.65621,-3.01315 0.5811,-4.53548 -0.0502,-1.01772 0.11633,-2.34982 -0.68508,-2.9791 -0.60573,-0.47564 -1.58333,-0.2234 -2.31024,0.031 z"
         id="path846"
         inkscape:connector-curvature="0"
         sodipodi:nodetypes="aaaaaaaaaa" />
      <path
         style="fill:none;stroke:#000000;stroke-width:0.505;stroke-linecap:butt;stroke-linejoin:miter;stroke-miterlimit:4;stroke-dasharray:none;stroke-opacity:1"
         d="m 134.70384,168.57699 c -0.11377,0.95646 0.25966,1.91659 0.53454,2.83974 0.24081,0.80869 0.5935,1.58291 0.96885,2.33861 0.30418,0.61239 0.69482,1.1779 1.03567,1.77066 0.58665,1.02022 0.92365,2.22327 1.73725,3.0736 0.58104,0.60728 1.29845,1.37201 2.13816,1.33634 0.66757,-0.0284 1.2667,-0.6257 1.60362,-1.20271 0.52098,-0.89225 0.47487,-2.04304 0.4009,-3.0736 -0.0828,-1.15349 -0.53909,-2.25446 -0.93544,-3.34087 -0.36894,-1.01128 -0.77306,-2.02262 -1.33635,-2.93996 -0.597,-0.97224 -1.18834,-2.04062 -2.13816,-2.6727 -0.80993,-0.53899 -1.92399,-1.21163 -2.80633,-0.80181 -0.88604,0.41154 -1.08731,1.70259 -1.20271,2.6727 z"
         id="path848"
         inkscape:connector-curvature="0"
         sodipodi:nodetypes="aaaaaaaaaaaaa" />
      <path
         style="fill:none;stroke:#000000;stroke-width:0.505;stroke-linecap:butt;stroke-linejoin:miter;stroke-miterlimit:4;stroke-dasharray:none;stroke-opacity:1"
         d="m 138.44562,180.43707 c -0.76172,0.41331 -0.89139,1.50719 -1.13591,2.33861 -0.26267,0.89317 -0.2964,1.84269 -0.33408,2.77292 -0.0347,0.85744 0.001,1.72006 0.10023,2.57247 0.10082,0.86777 0.0908,1.8012 0.50113,2.57247 0.25148,0.47274 0.63253,0.95327 1.13589,1.1359 0.7042,0.25549 1.63744,0.2468 2.23839,-0.20045 0.57731,-0.42966 0.60044,-1.31362 0.8018,-2.00452 0.2854,-0.97925 0.4683,-1.99168 0.56795,-3.00679 0.12077,-1.23026 0.29255,-2.49966 0.0334,-3.70837 -0.1619,-0.75518 -0.34563,-1.64855 -0.96885,-2.10474 -0.79693,-0.58334 -2.0719,-0.83851 -2.93996,-0.3675 z"
         id="path850"
         inkscape:connector-curvature="0"
         sodipodi:nodetypes="aaaaaaaaaaaa" />
      <path
         style="fill:none;stroke:#000000;stroke-width:0.505;stroke-linecap:butt;stroke-linejoin:miter;stroke-miterlimit:4;stroke-dasharray:none;stroke-opacity:1"
         d="m 143.69078,186.81813 c -0.43362,1.06774 -0.36155,2.289 -0.33409,3.4411 0.0295,1.23752 0.15548,2.49654 0.53454,3.67495 0.31877,0.99098 0.63894,2.10403 1.43658,2.77293 0.57215,0.4798 1.41497,0.85412 2.13815,0.66817 0.7323,-0.18829 1.21939,-0.96723 1.57021,-1.63703 0.67488,-1.2885 0.92226,-2.82275 0.86863,-4.27631 -0.0683,-1.84966 -0.36708,-3.88432 -1.5034,-5.34539 -0.67076,-0.86246 -1.7661,-1.83967 -2.83974,-1.63702 -0.98097,0.18516 -1.49526,1.41367 -1.87088,2.3386 z"
         id="path852"
         inkscape:connector-curvature="0"
         sodipodi:nodetypes="aaaaaaaaaa" />
      <path
         style="fill:none;stroke:#000000;stroke-width:0.505;stroke-linecap:butt;stroke-linejoin:miter;stroke-miterlimit:4;stroke-dasharray:none;stroke-opacity:1"
         d="m 141.81989,197.60914 c -0.63165,0.56431 -0.87286,1.48123 -1.06908,2.3052 -0.30975,1.30072 -0.20937,2.6741 -0.13364,4.00905 0.0561,0.98903 0.15424,1.98975 0.43432,2.93996 0.15218,0.51627 0.13363,0.80181 0.66817,1.46998 0.53454,0.66818 1.23305,0.93553 1.93771,0.86863 0.54131,-0.0514 1.00706,-0.50276 1.33635,-0.93545 0.66552,-0.8745 0.90401,-2.02614 1.10248,-3.107 0.18106,-0.98603 0.19167,-2.01208 0.0668,-3.00679 -0.14973,-1.19299 -0.35717,-2.43937 -0.96885,-3.47451 -0.39662,-0.67118 -0.91078,-1.46174 -1.67043,-1.63702 -0.58334,-0.1346 -1.25739,0.16909 -1.70385,0.56795 z"
         id="path854"
         inkscape:connector-curvature="0"
         sodipodi:nodetypes="aaaacaaaaaaa" />
      <path
         style="fill:none;stroke:#000000;stroke-width:0.505;stroke-linecap:butt;stroke-linejoin:miter;stroke-miterlimit:4;stroke-dasharray:none;stroke-opacity:1"
         d="m 155.14996,234.19166 c -0.71723,1.08068 -0.62705,2.56779 -0.50114,3.8587 0.0918,0.94108 0.53031,1.81999 0.90204,2.6894 0.37601,0.87941 0.70104,1.82413 1.33635,2.53906 0.57452,0.64652 1.2744,1.42548 2.13816,1.46998 0.55741,0.0287 1.13163,-0.35791 1.46998,-0.80181 0.47159,-0.61871 0.52143,-1.49395 0.53454,-2.27178 0.0191,-1.13552 -0.38946,-2.23992 -0.66817,-3.34087 -0.14869,-0.58735 -0.25961,-1.19735 -0.53455,-1.73726 -0.50534,-0.99236 -1.18436,-1.91937 -2.00452,-2.67269 -0.30949,-0.28427 -0.64888,-0.66177 -1.06907,-0.66818 -0.61877,-0.009 -1.26142,0.41984 -1.60362,0.93545 z"
         id="path856"
         inkscape:connector-curvature="0"
         sodipodi:nodetypes="aaaaaaaaaaaa" />
      <path
         style="fill:none;stroke:#000000;stroke-width:0.505;stroke-linecap:butt;stroke-linejoin:miter;stroke-miterlimit:4;stroke-dasharray:none;stroke-opacity:1"
         d="m 155.71791,246.01834 c -0.49017,0.53438 -0.31021,1.41871 -0.40091,2.13815 -0.0852,0.67542 -0.15619,1.35753 -0.13364,2.03793 0.0309,0.93188 -0.0147,1.92249 0.3675,2.77292 0.44667,0.99377 1.12596,2.06909 2.13816,2.47224 0.4159,0.16565 0.95266,0.097 1.33635,-0.13363 0.55062,-0.33098 0.8613,-0.99571 1.06907,-1.60362 0.408,-1.19374 0.36512,-2.51744 0.26727,-3.77518 -0.0771,-0.99113 -0.24399,-2.00747 -0.66817,-2.90655 -0.31173,-0.66075 -0.64325,-1.50623 -1.33635,-1.73726 -0.86637,-0.28879 -2.02196,0.062 -2.63928,0.735 z"
         id="path858"
         inkscape:connector-curvature="0"
         sodipodi:nodetypes="aaaaaaaaaaa" />
    </g>
  </g>
</svg>
