<?xml version="1.0" encoding="UTF-8" standalone="no"?>
<!-- Created with Inkscape (http://www.inkscape.org/) -->

<svg
   xmlns:dc="http://purl.org/dc/elements/1.1/"
   xmlns:cc="http://creativecommons.org/ns#"
   xmlns:rdf="http://www.w3.org/1999/02/22-rdf-syntax-ns#"
   xmlns:svg="http://www.w3.org/2000/svg"
   xmlns="http://www.w3.org/2000/svg"
   xmlns:sodipodi="http://sodipodi.sourceforge.net/DTD/sodipodi-0.dtd"
   xmlns:inkscape="http://www.inkscape.org/namespaces/inkscape"
   width="60mm"
   height="300mm"
   viewBox="0 0 212.59842 1062.9921"
   id="svg6871"
   version="1.1"
   inkscape:version="0.92.3 (2405546, 2018-03-11)"
   sodipodi:docname="zielgebiet_7_R.svg">
  <defs
     id="defs6873" />
  <sodipodi:namedview
     id="base"
     pagecolor="#ffffff"
     bordercolor="#666666"
     borderopacity="1.0"
     inkscape:pageopacity="0.0"
     inkscape:pageshadow="2"
     inkscape:zoom="1.4"
     inkscape:cx="69.415353"
     inkscape:cy="799.56902"
     inkscape:document-units="px"
     inkscape:current-layer="layer1"
     showgrid="false"
     inkscape:window-width="1680"
     inkscape:window-height="987"
     inkscape:window-x="-8"
     inkscape:window-y="-8"
     inkscape:window-maximized="1" />
  <metadata
     id="metadata6876">
    <rdf:RDF>
      <cc:Work
         rdf:about="">
        <dc:format>image/svg+xml</dc:format>
        <dc:type
           rdf:resource="http://purl.org/dc/dcmitype/StillImage" />
        <dc:title></dc:title>
      </cc:Work>
    </rdf:RDF>
  </metadata>
  <g
     inkscape:label="Ebene 1"
     inkscape:groupmode="layer"
     id="layer1"
     transform="translate(0,10.629921)">
    <path
       style="fill:none;fill-rule:evenodd;stroke:#000000;stroke-width:1.41113234;stroke-linecap:butt;stroke-linejoin:miter;stroke-miterlimit:4;stroke-dasharray:none;stroke-opacity:1"
       d="m 25.76607,163.96256 -0.71784,12.06294 v 11.35354 l 2.87055,10.64379 6.45912,12.7727 7.17631,10.64395 9.32959,9.93438 10.04745,7.80543 12.91747,7.09604 12.91747,3.54775 12.91817,1.41952 h 14.35266 l 9.32955,-0.70887 15.78855,-4.25734 11.48234,-5.67685 8.61165,-5.67669 8.6122,-7.09603 5.74112,-7.09585 7.89424,-14.90146 4.30586,-10.64379 2.15261,-9.22478 v -13.48229 l -6.45847,-24.12608 -5.0237,-9.93436 -5.74116,-8.51503 -9.32955,-8.5152 -8.61172,-5.67667 -7.17631,-4.25752 -7.89435,-4.2575 -9.3295,-2.83853 -11.48232,-2.12875 -10.04746,-0.70888 -12.91751,1.41953 -12.91795,2.83834 -10.04697,4.25752 -10.04692,4.2575 -11.48275,9.93438 -7.17642,7.09584 -6.45899,7.80544 -5.02316,9.93437 -3.58851,7.09586 z"
       id="7.1."
       inkscape:connector-curvature="0"
       inkscape:label="#path4217" />
    <text
       xml:space="preserve"
       style="font-style:normal;font-weight:normal;font-size:37.5px;line-height:1.25;font-family:sans-serif;letter-spacing:0px;word-spacing:0px;fill:#000000;fill-opacity:1;stroke:none;stroke-width:0.93749994"
       x="176.63023"
       y="165.14104"
       id="text45652"><tspan
         sodipodi:role="line"
         id="tspan45650"
         x="176.63023"
         y="199.35342"
         style="stroke-width:0.93749994" /></text>
    <flowRoot
       xml:space="preserve"
       id="flowRoot45654"
       style="font-style:normal;font-variant:normal;font-weight:normal;font-stretch:normal;font-size:85.33333588px;line-height:1.25;font-family:'Times New Roman';-inkscape-font-specification:'Times New Roman, ';letter-spacing:0px;word-spacing:0px;fill:#000000;fill-opacity:1;stroke:none"
       transform="matrix(0.93749997,0,0,0.93749997,-80.625,-14.379921)"><flowRegion
         id="flowRegion45656"
         style="font-style:normal;font-variant:normal;font-weight:normal;font-stretch:normal;font-size:85.33333588px;font-family:'Times New Roman';-inkscape-font-specification:'Times New Roman, '"><rect
           id="rect45658"
           width="133.96185"
           height="102.93716"
           x="141.09023"
           y="157.41672"
           style="font-style:normal;font-variant:normal;font-weight:normal;font-stretch:normal;font-size:85.33333588px;font-family:'Times New Roman';-inkscape-font-specification:'Times New Roman, '" /></flowRegion><flowPara
         id="flowPara45660">7.1.</flowPara></flowRoot>    <path
       style="fill:none;fill-rule:evenodd;stroke:#000000;stroke-width:1.41113234;stroke-linecap:butt;stroke-linejoin:miter;stroke-miterlimit:4;stroke-dasharray:none;stroke-opacity:1"
       d="m 27.74652,382.35547 -0.71784,12.06294 v 11.35354 l 2.87055,10.64379 6.45912,12.7727 7.17631,10.64394 9.32959,9.93438 10.04745,7.80544 12.91747,7.09604 12.91747,3.54774 12.91817,1.41953 h 14.35266 l 9.32954,-0.70888 15.78855,-4.25733 11.48234,-5.67686 8.61165,-5.67669 8.61221,-7.09603 5.74111,-7.09584 7.89425,-14.90146 4.30585,-10.64379 2.15262,-9.22478 v -13.48229 l -6.45847,-24.12608 -5.02371,-9.93436 -5.74115,-8.51503 -9.32955,-8.5152 -8.61173,-5.67667 -7.17631,-4.25752 -7.89434,-4.2575 -9.32951,-2.83853 -11.48231,-2.12875 -10.04746,-0.70888 -12.91751,1.41953 -12.91795,2.83834 -10.04697,4.25752 -10.04692,4.2575 -11.48275,9.93438 -7.17642,7.09584 -6.45899,7.80544 -5.02316,9.93437 -3.58851,7.09586 z"
       id="7.2."
       inkscape:connector-curvature="0"
       inkscape:label="#path4217" />
    <flowRoot
       transform="matrix(0.93749997,0,0,0.93749997,-78.644549,204.01298)"
       xml:space="preserve"
       id="flowRoot45654-6"
       style="font-style:normal;font-variant:normal;font-weight:normal;font-stretch:normal;font-size:85.33333588px;line-height:1.25;font-family:'Times New Roman';-inkscape-font-specification:'Times New Roman, ';letter-spacing:0px;word-spacing:0px;fill:#000000;fill-opacity:1;stroke:none"><flowRegion
         id="flowRegion45656-3"
         style="font-style:normal;font-variant:normal;font-weight:normal;font-stretch:normal;font-size:85.33333588px;font-family:'Times New Roman';-inkscape-font-specification:'Times New Roman, '"><rect
           id="rect45658-5"
           width="133.96185"
           height="102.93716"
           x="141.09023"
           y="157.41672"
           style="font-style:normal;font-variant:normal;font-weight:normal;font-stretch:normal;font-size:85.33333588px;font-family:'Times New Roman';-inkscape-font-specification:'Times New Roman, '" /></flowRegion><flowPara
         id="flowPara45660-2">7.2.</flowPara></flowRoot>    <path
       style="fill:none;stroke:#000000;stroke-width:0.9375px;stroke-linecap:butt;stroke-linejoin:miter;stroke-opacity:1"
       d="m 60.267856,150.35328 28.794641,0.66964 -16.74107,52.90179"
       id="path46232"
       inkscape:connector-curvature="0"
       sodipodi:nodetypes="ccc" />
    <path
       style="fill:none;stroke:#000000;stroke-width:0.9375px;stroke-linecap:butt;stroke-linejoin:miter;stroke-opacity:1"
       d="m 122.54464,155.71042 12.05357,-6.02679 -0.66964,52.90179"
       id="path46234"
       inkscape:connector-curvature="0" />
    <path
       style="fill:none;stroke:#000000;stroke-width:0.9375px;stroke-linecap:butt;stroke-linejoin:miter;stroke-opacity:1"
       d="m 62.946427,368.65685 27.455357,0.66965 -18.080357,54.24107"
       id="path46236"
       inkscape:connector-curvature="0"
       sodipodi:nodetypes="ccc" />
    <path
       style="fill:none;stroke:#000000;stroke-width:0.9375px;stroke-linecap:butt;stroke-linejoin:miter;stroke-opacity:1"
       d="m 118.52678,382.04971 4.6875,-8.70536 8.03572,-4.01786 9.375,2.67857 4.01785,7.36607 v 8.70536 l -2.67857,6.02679 -24.77678,27.45535 27.45535,0.66965"
       id="path46238"
       inkscape:connector-curvature="0" />
    <ellipse
       style="opacity:0;fill:#000000;fill-opacity:1;stroke:#020000;stroke-width:0.9375;stroke-miterlimit:4;stroke-dasharray:none;stroke-opacity:1"
       id="path46240"
       cx="-228.34821"
       cy="228.36667"
       rx="2.6785715"
       ry="3.0133927" />
    <path
       style="fill:none;stroke:#000000;stroke-width:0.9375px;stroke-linecap:butt;stroke-linejoin:miter;stroke-opacity:1"
       d="m -249.10714,215.97828 c 0,0 -2.8764,1.04306 -2.67857,2.17635 0.20334,1.16484 2.45594,1.94779 3.34822,1.17187 C -247.57863,218.57964 0,0 -249.10714,215.97828 c 249.10714,-215.97828 0,0 0,0 z"
       id="path46242"
       inkscape:connector-curvature="0"
       sodipodi:nodetypes="csscc" />
  </g>
  <g
     inkscape:groupmode="layer"
     id="layer2"
     inkscape:label="Ebene 2" />
</svg>
