<?xml version="1.0" encoding="UTF-8" standalone="no"?>
<!-- Created with Inkscape (http://www.inkscape.org/) -->

<svg
   id="svg4136"
   version="1.1"
   inkscape:version="1.3 (0e150ed, 2023-07-21)"
   width="700"
   height="750"
   viewBox="0 0 700 750"
   sodipodi:docname="level3_C20_neu.svg"
   xmlns:inkscape="http://www.inkscape.org/namespaces/inkscape"
   xmlns:sodipodi="http://sodipodi.sourceforge.net/DTD/sodipodi-0.dtd"
   xmlns="http://www.w3.org/2000/svg"
   xmlns:svg="http://www.w3.org/2000/svg"
   xmlns:rdf="http://www.w3.org/1999/02/22-rdf-syntax-ns#"
   xmlns:cc="http://creativecommons.org/ns#"
   xmlns:dc="http://purl.org/dc/elements/1.1/">
  <metadata
     id="metadata4142">
    <rdf:RDF>
      <cc:Work
         rdf:about="">
        <dc:format>image/svg+xml</dc:format>
        <dc:type
           rdf:resource="http://purl.org/dc/dcmitype/StillImage" />
      </cc:Work>
    </rdf:RDF>
  </metadata>
  <defs
     id="defs4140" />
  <sodipodi:namedview
     pagecolor="#ffffff"
     bordercolor="#666666"
     borderopacity="1"
     objecttolerance="10"
     gridtolerance="10"
     guidetolerance="10"
     inkscape:pageopacity="0"
     inkscape:pageshadow="2"
     inkscape:window-width="1344"
     inkscape:window-height="686"
     id="namedview4138"
     showgrid="false"
     inkscape:zoom="0.69754615"
     inkscape:cx="192.81878"
     inkscape:cy="336.17847"
     inkscape:window-x="0"
     inkscape:window-y="25"
     inkscape:window-maximized="0"
     inkscape:current-layer="svg4136"
     inkscape:showpageshadow="2"
     inkscape:pagecheckerboard="0"
     inkscape:deskcolor="#d1d1d1" />
  <path
     style="fill:none;fill-rule:evenodd;stroke:#000000;stroke-width:1.30663;stroke-linecap:butt;stroke-linejoin:miter;stroke-miterlimit:4;stroke-dasharray:none;stroke-opacity:1"
     d="m 368.07851,195.48832 -87.01846,0.78673 c 0,0 -2.10712,9.74595 -3.3322,14.43588 -2.05844,7.88026 -4.55776,15.51783 -6.65431,23.38803 -1.83312,6.88129 -3.71128,13.70676 -5.32892,20.64187 -1.24484,5.33684 -2.15962,10.52121 -2.68208,15.97635 -0.54906,5.73294 0.0708,11.5311 0.69368,17.25649 0.65377,6.00906 1.69006,10.65769 3.44868,16.44072 1.80981,5.95135 4.86452,13.16048 8.08309,18.48352 3.12726,5.17202 6.24733,8.8988 11.01415,12.61458 2.77508,2.1632 6.26541,3.96866 9.7435,4.50104 5.91872,0.90597 11.37103,-1.5412 17.34812,-1.18572 3.35878,0.19976 8.21238,-1.43441 10.32342,1.18572 1.88557,2.34024 2.34858,6.72281 0.38973,9.00207 -3.82419,4.44973 -12.27391,0.47898 -17.92804,2.04593 -5.27921,1.46305 -10.65352,2.9786 -14.81012,6.54696 -4.38667,3.76587 -7.38406,9.45263 -9.7435,14.73067 -3.5484,7.93772 -5.23282,17.19622 -6.62556,25.77869 -1.35515,8.35081 -2.18801,16.91283 -1.94872,25.3695 0.1898,6.70768 1.1445,14.45482 3.11792,20.86845 3.04013,9.88044 7.04588,15.56841 11.50502,24.00905 1.48533,2.81154 7.33711,10.96023 7.33711,10.96023 l 92.50136,1.49915 c 0,0 5.75816,-6.52807 7.24094,-9.1573 1.53024,-2.71339 2.21432,-4.92741 3.04262,-7.93042 1.17719,-4.26792 1.55062,-8.04462 1.928,-12.45579 0.16444,-1.92215 0.426,-4.6788 0.29092,-6.60324 -0.16546,-2.35734 8.6e-4,-4.4819 -0.30421,-6.82527 -0.33008,-2.5355 -0.94185,-5.34597 -1.99546,-7.6757 -1.21155,-2.67897 -3.09773,-4.84068 -5.54023,-6.47742 -2.07907,-1.39321 -5.33049,-2.12577 -7.77344,-2.66943 -3.45435,-0.76874 -8.22355,-0.3795 -11.06446,-2.48964 -2.35093,-1.7462 -4.05616,-4.16587 -2.71493,-6.76917 1.50009,-2.91164 6.69076,-2.85553 9.92115,-2.31469 8.22845,1.37763 18.34902,5.28581 25.90527,1.15736 3.46266,-1.89187 4.69318,-6.71577 6.06294,-10.41617 2.25017,-6.07882 2.41298,-12.09764 3.30703,-18.51761 0.7033,-5.05021 2.46525,-11.169 1.65354,-16.20292 -1.74098,-10.7969 -3.12367,-20.28031 -5.58109,-30.83196 -1.8373,-7.88899 -4.14225,-16.05707 -6.52229,-23.79963 -1.00544,-3.27081 -2.43345,-8.2367 -3.88073,-11.33743 -2.6988,-5.78203 -5.44069,-11.65967 -9.92113,-16.20291 -3.87139,-3.92566 -9.0145,-7.7967 -14.33057,-9.25882 -4.81548,-1.32444 -10.96375,-0.0695 -15.98411,0.57869 -2.84907,0.36783 -5.98807,1.3433 -8.73034,1.62412 -1.84539,0.18897 -3.56979,0.33156 -4.68412,-1.24813 -0.68715,-0.97412 -0.0923,-3.09931 0.92523,-3.72033 1.49742,-0.9139 3.2152,-1.70678 4.66229,-2.11587 2.32775,-0.65805 4.24024,-0.83088 6.80542,-1.65592 3.70742,-1.19242 8.90088,-2.15932 12.04503,-4.45739 2.76622,-2.02184 5.10601,-5.02487 6.61412,-8.10147 2.29801,-4.68802 3.63428,-10.40809 3.85824,-15.62424 0.25849,-6.02044 -0.85993,-9.54257 -2.28366,-15.39795 -1.37894,-5.67119 -2.37143,-11.85782 -5.01469,-17.06139 -2.38339,-4.69199 -7.37115,-11.37787 -7.37115,-11.37787 z"
     id="C20"
     inkscape:connector-curvature="0"
     sodipodi:nodetypes="ccsssssssssssssssssssccsssssssssssssssssssssssssssssssc"
     inkscape:label="#path4153" />
  <path
     style="fill:none;fill-rule:evenodd;stroke:#000000;stroke-width:1.32315;stroke-linecap:butt;stroke-linejoin:miter;stroke-miterlimit:4;stroke-dasharray:none;stroke-opacity:1"
     d="m 504.56207,123.62315 c 0,0 -12.48615,3.64528 -17.87174,7.12804 -4.78385,3.09363 -6.88271,10.07692 -12.28682,11.88005 -6.05099,2.01896 -12.79324,-0.85713 -18.98869,-2.37602 -7.71723,-1.89198 -15.0531,-5.14724 -22.33967,-8.31602 -6.49091,-2.82276 -12.78252,-6.10069 -18.98872,-9.50406 -6.08682,-3.3379 -11.61407,-7.68658 -17.87172,-10.69204 -7.1625,-3.44005 -14.56241,-6.68833 -22.33968,-8.31603 -12.59125,-2.63522 -25.88943,-4.551791 -38.53111,-2.17018 -13.88086,2.61505 -28.16311,8.03189 -38.54073,17.61424 -8.99241,8.30331 -13.54864,20.62539 -17.87174,32.07613 -3.72123,9.85654 -4.47809,20.58988 -6.70189,30.88812 -2.99231,13.85711 -5.50246,27.82572 -8.93589,41.58018 -3.29092,13.18357 -9.38319,25.73401 -11.16981,39.20415 -1.45804,10.99283 -1.51412,22.35216 0.46002,33.26413 1.87223,10.34865 6.00705,20.26106 10.64425,29.70013 3.42262,6.96678 11.60025,11.9115 12.54959,19.61534 0.84998,6.89753 -3.01601,13.83247 -6.6363,19.76475 -3.12412,5.11923 -6.77427,11.276 -12.54963,12.89211 -13.70328,3.83458 -27.15461,-9.43197 -41.32839,-10.69202 -15.62122,-1.38873 -46.91329,3.56401 -46.91329,3.56401"
     id="path4146-5"
     inkscape:connector-curvature="0"
     sodipodi:nodetypes="csssssssssssssssssssc" />
  <path
     style="fill:none;fill-rule:evenodd;stroke:#000000;stroke-width:1.32315;stroke-linecap:butt;stroke-linejoin:miter;stroke-miterlimit:4;stroke-dasharray:none;stroke-opacity:1"
     d="m 511.1719,219.07189 c 0,0 -16.17826,1.44055 -24.25172,2.31471 -9.56764,1.03594 -19.04656,3.88774 -28.66114,3.47205 -18.75566,-0.81092 -38.31555,-3.19945 -55.11755,-11.57352 -6.82471,-3.40142 -10.37881,-18.38883 -17.23219,-15.04556 -3.81969,1.86337 -0.0211,8.54198 0.69692,12.73086 1.12747,6.57779 5.41272,12.54421 5.62573,19.21453 0.21964,6.87558 -4.77131,17.23478 -3.12952,25.71073 0.68547,3.5388 3.4387,6.33673 5.22027,9.47025 2.87319,5.05352 5.9452,9.99227 8.81879,15.04556 4.13771,7.27627 8.93024,14.25322 12.12587,21.98967 2.65036,6.41638 4.29351,13.22979 5.74528,20.01851 1.51528,7.08571 2.24331,14.32117 3.07352,21.51937 0.68362,5.92722 -1.37871,12.64332 1.56941,17.83059 3.48719,6.13577 10.2242,11.13978 17.17056,12.38731 7.12907,1.28034 13.79523,-4.6256 20.94468,-5.78675 7.26394,-1.17974 14.68791,-1.13984 22.04701,-1.15736 8.09308,-0.0193 24.25172,1.15736 24.25172,1.15736"
     id="path4148-8"
     inkscape:connector-curvature="0"
     sodipodi:nodetypes="csssassssssssssssc" />
  <path
     style="fill:none;fill-rule:evenodd;stroke:#000000;stroke-width:1.32315;stroke-linecap:butt;stroke-linejoin:miter;stroke-miterlimit:4;stroke-dasharray:none;stroke-opacity:1"
     d="m 231.93048,676.95343 c 39.06883,2.13356 50.63741,-2.29364 69.44809,-12.73089 15.49402,-8.59699 26.70431,-21.99383 38.92892,-31.97628 6.60883,3.83771 15.44128,18.46702 41.71516,32.58037 13.99507,6.87308 33.62637,9.99153 54.2768,11.00259"
     id="path4150-9"
     inkscape:connector-curvature="0"
     sodipodi:nodetypes="cscsc" />
  <path
     style="fill:none;fill-rule:evenodd;stroke:#000000;stroke-width:1.32315;stroke-linecap:butt;stroke-linejoin:miter;stroke-miterlimit:4;stroke-dasharray:none;stroke-opacity:1"
     d="m 301.97463,582.00049 c -1.90097,2.45757 4.74976,7.00858 7.40034,8.62961 11.34514,3.7271 20.76217,3.67075 32.8836,3.55597 13.80038,-0.13068 26.14298,-2.17165 31.0525,-4.53018 2.14404,-1.03 9.41022,-2.99182 9.64657,-5.35866 0.57471,-5.75526 -12.45174,-8.69811 -19.09727,-9.82046 -6.50433,-1.0985 -13.33275,-1.19189 -20.58571,-0.88825 -6.77329,0.28356 -20.2626,0.66182 -26.36679,1.80793 -4.30527,0.80835 -12.02449,2.84362 -14.93324,6.60404 z"
     id="C21.0-6"
     inkscape:connector-curvature="0"
     inkscape:label="#path4152"
     sodipodi:nodetypes="sssssssss" />
  <path
     style="fill:none;fill-rule:evenodd;stroke:#000000;stroke-width:1.32315;stroke-linecap:butt;stroke-linejoin:miter;stroke-miterlimit:4;stroke-dasharray:none;stroke-opacity:1"
     d="m 507.28467,133.78407 c 0,0 -3.59248,-0.42615 -5.06663,0.40919 -1.75002,0.99166 -1.79636,3.85311 -3.50765,4.91021 -2.23777,1.38233 -5.62975,-0.26607 -7.79481,1.22757 -1.93965,1.33814 -2.00741,4.32058 -3.50764,6.13777 -1.19938,1.45278 -2.45913,3.22719 -4.28714,3.68268 -1.80894,0.45074 -3.8139,-2.10945 -5.45638,-1.22757 -1.92893,1.03568 -0.31949,5.29085 -2.33843,6.1378 -3.13824,1.3165 -6.0717,-3.19188 -9.35374,-4.09186 -2.14609,-0.58849 -4.47523,-1.39105 -6.62559,-0.81837 -2.19683,0.58506 -3.22003,4.50065 -5.45638,4.09185 -2.38404,-0.43579 -1.77346,-4.97051 -3.89738,-6.13778 -2.04934,-1.12629 -5.00504,-1.19461 -7.01532,0 -0.93447,0.55531 -0.57211,2.40849 -1.55895,2.8643 -1.20513,0.55663 -2.77505,-0.10951 -3.89741,-0.81837 -0.72492,-0.45785 -0.70679,-1.95135 -1.55896,-2.04593 -1.68623,-0.18714 -2.24207,2.90164 -3.8974,3.27348 -1.04838,0.2355 -2.39117,-0.0269 -3.11791,-0.81837 -1.02986,-1.12157 -0.47307,-3.0095 -0.77949,-4.50103 -0.33858,-1.64808 0.18675,-3.91413 -1.1692,-4.91023 -1.57433,-1.15652 -3.89333,0.46096 -5.84612,0.40918 -2.22453,-0.059 -4.70337,0.30284 -6.62558,-0.81837 -1.31962,-0.76973 -1.30946,-3.11602 -2.72819,-3.68265 -1.46975,-0.58701 -3.18091,1.33495 -4.67687,0.81837 -3.12143,-1.07789 -6.62556,-7.36535 -6.62556,-7.36535 0,0 -3.16395,2.29934 -4.67689,1.63675 -1.4976,-0.65587 -0.91514,-3.23426 -1.94869,-4.50105 -0.90221,-1.10581 -2.16233,-1.97878 -3.50767,-2.4551 -1.84145,-0.65197 -4.19805,0.63962 -5.84607,-0.4092 -1.57965,-1.00531 -1.3886,-3.60203 -2.72821,-4.91022 -0.62984,-0.61507 -1.46294,-1.13511 -2.33842,-1.22757 -2.01245,-0.21253 -3.8287,1.4782 -5.84612,1.63675 -1.17353,0.0922 -2.61988,0.36382 -3.50767,-0.40918 -1.16909,-1.01792 -0.37095,-3.17223 -1.1692,-4.50104 -0.72675,-1.20978 -1.74245,-2.54834 -3.11791,-2.86431 -1.85065,-0.42513 -3.76121,0.78111 -5.45636,1.63674 -1.01476,0.5122 -1.6086,1.84938 -2.72818,2.04594 -4.14682,0.72805 -7.87423,-3.53671 -12.08195,-3.68268 -5.46278,-0.1895 -10.91747,1.6198 -15.97933,3.68268 -4.36786,1.78006 -8.27466,4.58119 -12.08194,7.36534 -4.02869,2.94606 -7.75782,6.30688 -11.30246,9.82045 -3.62099,3.58926 -7.57077,7.04944 -10.13323,11.45718 -3.83919,6.60386 -5.25321,14.35744 -7.40507,21.68683 -4.27433,14.55867 -10.91272,44.19203 -10.91272,44.19203 0,0 -6.00412,20.38315 -8.57426,30.68889 -2.19651,8.80756 -4.86603,17.5728 -5.84611,26.59706 -0.61852,5.69511 -0.57176,11.4858 0,17.18579 0.65283,6.50823 1.97692,12.97913 3.89742,19.23172 1.77972,5.79427 3.85523,11.60408 7.0153,16.77659 3.25614,5.32976 7.11507,10.53482 12.08194,14.32151 2.8451,2.16907 6.19863,4.018 9.7435,4.50104 5.86931,0.79978 10.88572,-1.53877 16.79971,-1.20253 3.50444,0.19925 8.69405,-1.5503 10.87183,1.20253 1.86347,2.35553 2.34056,6.71837 0.38973,9.00207 -3.90673,4.57333 -12.12309,0.47101 -17.92804,2.04593 -5.20924,1.4133 -10.68645,3.06429 -14.81012,6.54696 -4.49772,3.79858 -7.35384,9.35031 -9.7435,14.73067 -3.60131,8.10839 -5.17601,17.02573 -6.62556,25.77869 -1.38571,8.36745 -2.25249,16.89353 -1.94872,25.3695 0.25191,7.02885 1.09163,14.13329 3.11792,20.86845 2.03764,6.77286 5.74281,12.9351 8.96403,19.23172 1.44988,2.83411 2.40385,4.67925 4.65868,8.33701 2.37139,3.84685 4.80349,7.67653 8.39534,10.31262 3.82521,3.18259 5.99414,7.87608 7.65143,12.46755 1.76193,4.87856 1.08368,8.85458 0.0206,13.705 -0.57934,2.64342 -0.44421,5.15651 -0.27556,7.81209 0,0 1.93775,-2.59043 3.36598,-3.16927 0.3674,-0.1489 0.81196,-0.13957 1.18916,-0.0176 0.92331,0.29855 1.94301,0.85126 2.33452,1.73915 0.74304,1.68511 -0.55118,5.49742 -0.55118,5.49742 -5.46962,10.54661 -9.55651,10.97352 -8.26764,23.14703 1.5899,6.28833 1.37602,12.20073 0.27562,18.51761 -1.15481,6.74404 -1.51568,10.84083 -1.95529,20.06436 3.23014,-2.72595 12.35186,-6.81873 19.29363,-7.2726 l 16.83453,-1.10067 c 9.16624,-0.59931 18.34922,-0.9026 27.28322,1.03981 9.92231,2.15729 10.63097,2.03745 17.2626,7.75903 -0.38975,-4.20487 -1.21946,-8.24991 -2.15961,-12.2922 -0.94241,-4.05201 -1.4282,-6.77815 -1.59921,-10.22303 -0.16284,-3.28027 0.41463,-6.55602 0.55118,-9.83749 0.1404,-3.37394 0.54719,-6.76092 0.27559,-10.12684 -0.19741,-2.44655 -0.43506,-4.96725 -1.37793,-7.23343 -1.43676,-3.45324 -4.74773,-5.87376 -6.33853,-9.25881 -1.27987,-2.72344 -3.09922,-5.73531 -2.48028,-8.68015 0.23671,-1.12622 1.07495,-2.43756 2.20469,-2.65688 1.35316,-0.26269 2.57102,1.09237 3.63961,1.96311 1.09025,0.88838 2.71151,3.23241 2.71151,3.23241 -1.06788,-12.22229 -1.27003,-15.47396 0.81416,-23.66028 1.43455,-5.63462 8.2328,-12.49085 12.10987,-16.56135"
     id="path4168-0"
     inkscape:connector-curvature="0"
     sodipodi:nodetypes="cssssssssssssssssssssssscsssssssssssssssssscssssssssssssssssssssscssscsscssscssssssssscsc" />
  <path
     style="fill:none;fill-rule:evenodd;stroke:#000000;stroke-width:1.32315;stroke-linecap:butt;stroke-linejoin:miter;stroke-miterlimit:4;stroke-dasharray:none;stroke-opacity:1"
     d="m 505.66015,209.2344 c 0,0 -4.42163,-4.05833 -7.1653,-4.05072 -2.32889,0.006 -3.82655,2.82207 -6.06291,3.47205 -4.06199,1.18058 -9.01735,-1.5427 -12.67704,0.57867 -1.18611,0.68754 -0.92012,2.9932 -2.20474,3.47206 -2.51624,0.93796 -5.03146,-2.26805 -7.71643,-2.3147 -1.51936,-0.0264 -3.15832,0.29483 -4.4094,1.15735 -1.56134,1.07642 -1.46213,4.19051 -3.30708,4.6294 -2.82615,0.6723 -4.81654,-3.87841 -7.71643,-4.05073 -2.15945,-0.12832 -3.93555,1.92241 -6.06294,2.3147 -0.9034,0.16658 -1.91955,0.38004 -2.75588,0 -2.79752,-1.27124 -3.00697,-6.62268 -6.06293,-6.9441 -1.59872,-0.16815 -2.26956,2.64774 -3.85822,2.89338 -2.30839,0.35692 -4.81878,-0.82045 -6.61412,-2.31471 -1.70762,-1.42124 -1.43193,-4.59517 -3.30703,-5.78675 -4.0448,-2.57037 -11.57631,2.76453 -14.33057,-1.15736 -0.80422,-1.14517 1.95206,-2.93889 1.10236,-4.05073 -2.23121,-2.91955 -8.05809,2.16983 -11.02354,0 -1.46994,-1.07556 -1.65349,-5.20808 -1.65349,-5.20808 0,0 -5.72896,1.66826 -8.26764,0.57868 -3.4477,-1.47972 -3.77139,-7.08087 -7.1653,-8.68013 -4.65354,-2.19281 -11.34556,-3.12369 -15.43291,0 -2.22367,1.6994 -2.59413,5.32998 -2.20469,8.10145 0.69051,4.91401 5.66512,8.21243 7.71645,12.73087 2.50983,5.52836 4.11325,11.45211 5.51176,17.36026 1.34963,5.70166 3.00384,11.5063 2.75588,17.36027 -0.22702,5.35972 -1.46043,10.82543 -3.85824,15.62424 -1.55823,3.11854 -3.79229,6.05437 -6.61412,8.10147 -3.02957,2.1978 -6.91121,2.89869 -10.47231,4.05073 -3.59628,1.10659 -15.22302,2.46968 -14.33057,6.9441 0.89922,4.50837 9.20398,1.02562 13.77937,0.57869 5.33151,-0.52079 10.84392,-1.99418 15.98411,-0.57869 5.48303,1.5099 10.35812,5.18904 14.33057,9.25882 4.4236,4.53198 7.25836,10.45689 9.92113,16.20291 2.22033,4.79128 3.42966,9.9916 4.9606,15.04555 1.79862,5.93762 3.55216,11.89688 4.96058,17.93896 1.33731,5.73701 2.24422,11.56611 3.30705,17.36025 0.95415,5.2017 2.56319,10.33929 2.75588,15.62426 0.19781,5.42542 -1.65354,16.20292 -1.65354,16.20292 0,0 -1.14564,12.63171 -3.30703,18.51761 -1.38483,3.77118 -2.53639,8.49185 -6.06294,10.41617 -7.5876,4.14029 -17.15031,-0.47355 -25.90527,-1.15736 -3.38555,-0.26443 -8.36201,-0.70209 -9.92115,2.31469 -1.33919,2.59121 0.387,5.01173 2.71493,6.76917 2.80297,2.11606 7.63741,1.72175 11.06446,2.48964 2.67338,0.59902 5.50767,1.12927 7.77344,2.66943 2.34973,1.59723 4.39182,3.87867 5.54023,6.47742 2.38941,5.40701 2.46564,11.69106 2.2047,17.59674 -0.3597,8.14069 -1.2647,16.32079 -5.16657,23.89368 -2.36089,4.58209 -7.24094,9.1573 -7.24094,9.1573"
     id="path4170-4"
     inkscape:connector-curvature="0"
     sodipodi:nodetypes="cssssssssssssssssscssssssssssssssssssscssssssssssc" />
</svg>
