<?xml version="1.0" encoding="UTF-8" standalone="no"?>
<!-- Created with Inkscape (http://www.inkscape.org/) -->

<svg
   xmlns:dc="http://purl.org/dc/elements/1.1/"
   xmlns:cc="http://creativecommons.org/ns#"
   xmlns:rdf="http://www.w3.org/1999/02/22-rdf-syntax-ns#"
   xmlns:svg="http://www.w3.org/2000/svg"
   xmlns="http://www.w3.org/2000/svg"
   xmlns:sodipodi="http://sodipodi.sourceforge.net/DTD/sodipodi-0.dtd"
   xmlns:inkscape="http://www.inkscape.org/namespaces/inkscape"
   width="300mm"
   height="300mm"
   viewBox="0 0 1062.9921 1062.9921"
   id="svg2"
   version="1.1"
   inkscape:version="0.92.3 (2405546, 2018-03-11)"
   sodipodi:docname="level3_C69.svg">
  <defs
     id="defs4">
    <inkscape:path-effect
       effect="spiro"
       id="path-effect4276"
       is_visible="true" />
    <inkscape:path-effect
       effect="spiro"
       id="path-effect4272"
       is_visible="true" />
    <inkscape:path-effect
       effect="spiro"
       id="path-effect4268"
       is_visible="true" />
    <inkscape:path-effect
       effect="spiro"
       id="path-effect4264"
       is_visible="true" />
    <inkscape:path-effect
       effect="spiro"
       id="path-effect4236"
       is_visible="true" />
    <inkscape:path-effect
       effect="spiro"
       id="path-effect4221"
       is_visible="true" />
    <inkscape:path-effect
       effect="spiro"
       id="path-effect4217"
       is_visible="true" />
    <inkscape:path-effect
       effect="spiro"
       id="path-effect4213"
       is_visible="true" />
    <inkscape:path-effect
       effect="spiro"
       id="path-effect4209"
       is_visible="true" />
    <inkscape:path-effect
       effect="spiro"
       id="path-effect4205"
       is_visible="true" />
    <inkscape:path-effect
       effect="spiro"
       id="path-effect4201"
       is_visible="true" />
    <inkscape:path-effect
       effect="spiro"
       id="path-effect4197"
       is_visible="true" />
    <inkscape:path-effect
       effect="spiro"
       id="path-effect4193"
       is_visible="true" />
    <inkscape:path-effect
       effect="spiro"
       id="path-effect4189"
       is_visible="true" />
    <inkscape:path-effect
       effect="spiro"
       id="path-effect4185"
       is_visible="true" />
    <inkscape:path-effect
       effect="spiro"
       id="path-effect4181"
       is_visible="true" />
    <inkscape:path-effect
       effect="spiro"
       id="path-effect4177"
       is_visible="true" />
    <inkscape:path-effect
       effect="spiro"
       id="path-effect4173"
       is_visible="true" />
    <inkscape:path-effect
       effect="spiro"
       id="path-effect4169"
       is_visible="true" />
    <inkscape:path-effect
       effect="spiro"
       id="path-effect4161"
       is_visible="true" />
    <inkscape:path-effect
       effect="spiro"
       id="path-effect4157"
       is_visible="true" />
    <inkscape:path-effect
       effect="spiro"
       id="path-effect4149"
       is_visible="true" />
    <inkscape:path-effect
       effect="spiro"
       id="path-effect4276-4"
       is_visible="true" />
  </defs>
  <sodipodi:namedview
     id="base"
     pagecolor="#ffffff"
     bordercolor="#666666"
     borderopacity="1.0"
     inkscape:pageopacity="0.0"
     inkscape:pageshadow="2"
     inkscape:zoom="0.74871348"
     inkscape:cx="656.12266"
     inkscape:cy="435.30103"
     inkscape:document-units="px"
     inkscape:current-layer="layer1"
     showgrid="false"
     inkscape:window-width="1680"
     inkscape:window-height="987"
     inkscape:window-x="1672"
     inkscape:window-y="-8"
     inkscape:window-maximized="1" />
  <metadata
     id="metadata7">
    <rdf:RDF>
      <cc:Work
         rdf:about="">
        <dc:format>image/svg+xml</dc:format>
        <dc:type
           rdf:resource="http://purl.org/dc/dcmitype/StillImage" />
        <dc:title />
      </cc:Work>
    </rdf:RDF>
  </metadata>
  <g
     inkscape:label="Laag 1"
     inkscape:groupmode="layer"
     id="layer1"
     transform="translate(0,10.629921)">
    <path
       style="fill:none;fill-rule:evenodd;stroke:#000000;stroke-width:1.25;stroke-linecap:butt;stroke-linejoin:miter;stroke-miterlimit:4;stroke-dasharray:none;stroke-opacity:1"
       d="m 730.19405,228.4453 9.17902,2.72701 7.86774,4.77229 7.86773,10.2263 c 3.08355,4.98486 6.14327,9.98446 9.17902,14.99858 3.97507,6.56558 7.90904,13.15605 11.8016,19.77088 l 9.17903,18.40734 7.86773,22.49788 7.21208,29.99717 0.65567,20.45264 -1.96696,25.90663 c -1.11116,6.4021 -2.42331,12.76932 -3.93386,19.08912 -1.36796,5.72323 -2.89862,11.40758 -4.58951,17.04385 l -8.52338,14.99858 c -4.17231,5.6667 -8.32476,11.34803 -12.45724,17.04385 -3.2909,4.53587 -6.56914,9.08092 -9.83467,13.63509 l -10.49031,11.5898 c -4.24844,3.52437 -8.40283,7.16212 -12.45725,10.90807 -2.89269,2.67261 -5.73451,5.40028 -8.52338,8.18105 l -15.07982,1.36351 v -9.54456 c 1.06154,-3.6453 2.15433,-7.2815 3.27822,-10.90807 1.27157,-4.10311 2.58294,-8.19388 3.93387,-12.27155 l 13.11289,-6.1358 11.80161,-6.81754 13.11288,-15.68034 6.55645,-10.90805 c 2.04224,-4.28294 4.00957,-8.6016 5.9008,-12.95333 2.05748,-4.73428 4.02489,-9.50771 5.90079,-14.31683 1.13093,-6.3564 2.2237,-12.7196 3.27822,-19.08912 0.9022,-5.44949 1.77642,-10.90362 2.62259,-16.36209 l 0.65565,-12.95333 c -0.10983,-5.23057 -0.32844,-10.45886 -0.65565,-15.68034 -0.32806,-5.23513 -0.76528,-10.46342 -1.31129,-15.68033 l -3.93387,-18.40737 -5.24516,-14.99859 -11.14595,-19.0891 -11.14596,-14.31684 -12.45724,-12.95332 -9.83466,-7.4993 -5.24517,-6.13579 -3.93387,-5.45402 1.96694,-4.77228 z"
       id="C69.1"
       inkscape:path-effect="#path-effect4149"
       inkscape:original-d="m 730.19405,228.4453 9.17902,2.72701 7.86774,4.77229 7.86773,10.2263 9.17902,14.99858 11.8016,19.77088 9.17903,18.40734 7.86773,22.49788 7.21208,29.99717 0.65567,20.45264 -1.96696,25.90663 -3.93386,19.08912 -4.58951,17.04385 -8.52338,14.99858 -12.45724,17.04385 -9.83467,13.63509 -10.49031,11.5898 -12.45725,10.90807 -8.52338,8.18105 -15.07982,1.36351 v -9.54456 l 3.27822,-10.90807 3.93387,-12.27155 13.11289,-6.1358 11.80161,-6.81754 13.11288,-15.68034 6.55645,-10.90805 5.9008,-12.95333 5.90079,-14.31683 3.27822,-19.08912 2.62259,-16.36209 0.65565,-12.95333 -0.65565,-15.68034 -1.31129,-15.68033 -3.93387,-18.40737 -5.24516,-14.99859 -11.14595,-19.0891 -11.14596,-14.31684 -12.45724,-12.95332 -9.83466,-7.4993 -5.24517,-6.13579 -3.93387,-5.45402 1.96694,-4.77228 z"
       inkscape:connector-curvature="0"
       inkscape:label="#path4147" />
    <path
       style="fill:none;fill-rule:evenodd;stroke:#000000;stroke-width:1.25;stroke-linecap:butt;stroke-linejoin:miter;stroke-miterlimit:4;stroke-dasharray:none;stroke-opacity:1"
       d="m 182.07528,486.83005 126.53939,-38.85999 12.45723,-2.72701 8.52338,4.09052 c 2.75094,4.37623 5.59289,8.69525 8.52338,12.95333 4.27104,6.20593 8.72891,12.28069 13.11289,18.40736 4.67349,6.53127 9.2635,13.12227 13.76854,19.77085 l 17.7024,21.13439 26.88142,22.49787 19.66933,13.63508 19.66934,10.22631 c 5.49366,1.96401 10.95817,4.00957 16.39111,6.13579 9.27496,3.62982 18.45791,7.49475 27.53706,11.58981 l 17.04675,2.72702 -47.20639,-10.22631 -22.94755,-8.18105 -22.94757,-11.58982 -25.57013,-15.68033 -32.12658,-30.67893 -17.7024,-19.77086 -13.11288,-18.40736 -8.52339,-2.72702 c -4.39184,1.29535 -8.7635,2.65908 -13.11288,4.09053 -7.2506,2.38629 -14.43774,4.96026 -21.63627,7.49929 -34.48095,12.16193 -69.24243,23.52853 -104.24747,34.0877 m 1.31129,-77.71995 112.77085,-32.7242 2.62257,-6.81753 c 0.6247,-6.82047 1.28035,-13.6381 1.96694,-20.45262 1.21455,-12.05459 2.52589,-24.09943 3.93386,-36.13296 l 9.17903,-36.81472 8.52337,-20.45262 18.35805,-21.13437 24.9145,-14.99859 25.57013,-8.18104 30.15965,-6.81755 57.04106,-4.77226 18.35805,-23.17964 9.17901,-8.86281 18.35805,-4.77227 11.14596,1.3635 v 7.4993 l -11.8016,4.09053 -9.83468,8.18104 -5.90079,10.90807 -2.62258,12.95331 -2.62257,26.58841 c -9.81704,-0.91037 -19.65526,-1.59237 -29.50401,-2.04525 -7.86306,-0.36157 -15.73253,-0.57711 -23.6032,-0.68177 -7.4302,-0.0988 -14.8617,-0.0988 -22.2919,0 l -20.98063,1.36352 -15.73547,2.72701 -30.81529,8.86281 -17.04676,11.58982 -13.11288,15.68033 -5.24516,12.95333 -1.96694,21.81611 -2.62257,15.68035 -1.3113,15.68034 -4.5895,12.27158 2.62257,12.27156 6.55644,14.31685 -3.93386,14.99858 -5.9008,8.18105 -7.21208,4.77228 -15.07983,6.81753 c -9.72403,3.30715 -19.5672,6.26397 -29.504,8.8628 -10.22775,2.67492 -20.55063,4.96973 -30.81529,7.4993 -16.11037,3.97016 -32.0781,8.51909 -47.86204,13.63508"
       id="C69.2"
       inkscape:path-effect="#path-effect4157"
       inkscape:original-d="m 182.07528,486.83005 126.53939,-38.85999 12.45723,-2.72701 8.52338,4.09052 8.52338,12.95333 13.11289,18.40736 13.76854,19.77085 17.7024,21.13439 26.88142,22.49787 19.66933,13.63508 19.66934,10.22631 16.39111,6.13579 27.53706,11.58981 17.04675,2.72702 -47.20639,-10.22631 -22.94755,-8.18105 -22.94757,-11.58982 -25.57013,-15.68033 -32.12658,-30.67893 -17.7024,-19.77086 -13.11288,-18.40736 -8.52339,-2.72702 -13.11288,4.09053 -21.63627,7.49929 -104.24747,34.0877 m 1.31129,-77.71995 112.77085,-32.7242 2.62257,-6.81753 1.96694,-20.45262 3.93386,-36.13296 9.17903,-36.81472 8.52337,-20.45262 18.35805,-21.13437 24.9145,-14.99859 25.57013,-8.18104 30.15965,-6.81755 57.04106,-4.77226 18.35805,-23.17964 9.17901,-8.86281 18.35805,-4.77227 11.14596,1.3635 v 7.4993 l -11.8016,4.09053 -9.83468,8.18104 -5.90079,10.90807 -2.62258,12.95331 -2.62257,26.58841 -29.50401,-2.04525 -23.6032,-0.68177 h -22.2919 l -20.98063,1.36352 -15.73547,2.72701 -30.81529,8.86281 -17.04676,11.58982 -13.11288,15.68033 -5.24516,12.95333 -1.96694,21.81611 -2.62257,15.68035 -1.3113,15.68034 -4.5895,12.27158 2.62257,12.27156 6.55644,14.31685 -3.93386,14.99858 -5.9008,8.18105 -7.21208,4.77228 -15.07983,6.81753 -29.504,8.8628 -30.81529,7.4993 -47.86204,13.63508"
       inkscape:connector-curvature="0"
       inkscape:label="#path4155"
       sodipodi:nodetypes="ccccccccccccccccccccccccccccccccccccccccccccccccccccccccccccccccccccc" />
    <path
       style="fill:none;fill-rule:evenodd;stroke:#000000;stroke-width:1.25;stroke-linecap:butt;stroke-linejoin:miter;stroke-miterlimit:4;stroke-dasharray:none;stroke-opacity:1"
       d="m 296.37013,336.23153 c 0.67532,-6.43884 1.44812,-12.86746 2.31805,-19.28291 1.86024,-5.46152 3.71469,-10.92502 5.56333,-16.39048 2.83797,-8.39037 5.66313,-16.78779 8.8086,-25.06779 1.47551,-3.88409 3.02121,-7.74151 4.63609,-11.56975 l 11.12666,-11.08767 19.00804,-16.39048 18.08083,-13.49803 c 4.73335,-2.67596 9.52553,-5.24785 14.37192,-7.71318 7.44996,-3.78975 15.02803,-7.32764 22.71692,-10.60559 5.84865,-2.15496 11.72155,-4.24412 17.6172,-6.26695 6.31055,-2.16518 12.64718,-4.25437 19.00804,-6.26696 l 22.25331,-4.33865 c 8.95032,-1.07877 17.91443,-2.04302 26.88942,-2.89243 5.55939,-0.52615 11.12295,-1.00825 16.68998,-1.44622 l 16.22637,0.48207 11.59027,2.41035 -0.46361,6.74904 -9.27221,0.48207 -18.54443,3.3745 -27.81663,31.81682 -26.42582,3.85657 -25.96219,1.92831 -18.54442,2.89242 c -5.90856,1.47067 -11.78306,3.07815 -17.61721,4.82073 -7.80399,2.33094 -15.53578,4.90364 -23.18053,7.71316 l -26.42581,15.90842 -17.15359,19.76499 -8.345,17.83669 -9.73582,34.22717 c -0.66268,4.01025 -1.28087,8.02785 -1.85443,12.05181 -2.21092,15.51145 -3.75818,31.11747 -4.63611,46.76108 l -2.31806,10.12352 -8.345,2.41037 5.56334,-9.15938 2.78166,-9.64147 -1.85444,-13.49804 1.85444,-11.08767 v -14.46218 c 0.40532,-4.98662 0.86897,-9.96849 1.39084,-14.94426 z"
       id="C69.3"
       inkscape:path-effect="#path-effect4161"
       inkscape:original-d="m 296.37013,336.23153 2.31805,-19.28291 5.56333,-16.39048 8.8086,-25.06779 4.63609,-11.56975 11.12666,-11.08767 19.00804,-16.39048 18.08083,-13.49803 14.37192,-7.71318 22.71692,-10.60559 17.6172,-6.26695 19.00804,-6.26696 22.25331,-4.33865 26.88942,-2.89243 16.68998,-1.44622 16.22637,0.48207 11.59027,2.41035 -0.46361,6.74904 -9.27221,0.48207 -18.54443,3.3745 -27.81663,31.81682 -26.42582,3.85657 -25.96219,1.92831 -18.54442,2.89242 -17.61721,4.82073 -23.18053,7.71316 -26.42581,15.90842 -17.15359,19.76499 -8.345,17.83669 -9.73582,34.22717 -1.85443,12.05181 -4.63611,46.76108 -2.31806,10.12352 -8.345,2.41037 5.56334,-9.15938 2.78166,-9.64147 -1.85444,-13.49804 1.85444,-11.08767 v -14.46218 z"
       inkscape:connector-curvature="0"
       inkscape:label="#path4159" />
    <path
       style="fill:none;fill-rule:evenodd;stroke:#000000;stroke-width:1.25;stroke-linecap:butt;stroke-linejoin:miter;stroke-miterlimit:4;stroke-dasharray:none;stroke-opacity:1"
       d="m 705.93521,292.87103 2.99017,-5.13737 0.28805,-2.70278 0.98346,-4.09053 2.62258,-4.4314 3.93386,-2.72701 2.95041,-0.34088 2.95039,3.40876 3.27824,0.68176 0.32781,-3.06789 c -0.63157,-2.1661 -1.28726,-4.32517 -1.96693,-6.47666 -0.93797,-2.96916 -1.92159,-5.92389 -2.9504,-8.86281 l -3.60604,-7.15842 -1.63911,-5.11315 4.5895,-3.06789 -9.50684,-9.54455 c -1.85269,-2.84389 -3.71035,-5.68453 -5.57297,-8.52193 -5.26343,-8.01798 -10.56643,-16.00997 -15.90875,-23.9756 l -1.21666,2.66221 -2.46666,3.55508 -1.5738,2.66222 -1.57381,3.91221 c 0.68186,2.36847 1.37749,4.73297 2.08686,7.09335 0.95845,3.18918 1.94196,6.37084 2.95042,9.54456 l 0.98346,8.18104 1.96694,5.79491 4.26168,4.4314 3.27822,2.38614 -3.27822,2.72702 -0.32782,2.72701 1.6391,2.38615 1.96694,4.09052 3.27822,3.0679 -4.26168,2.38613 -3.60605,3.40877 v 2.38614 l 3.60605,2.72702 3.60604,-3.40877 2.29475,1.70438 c -0.56969,1.31236 -1.11617,2.63478 -1.63911,3.96646 -0.67653,1.72279 -1.31364,3.46106 -1.91068,5.21299 l 0.48008,3.9322 5.03665,3.25045 m 7.36434,158.14269 -10.54173,2.41036 -1.73995,0.8522 -0.65563,1.3635 -2.29476,2.2157 -1.96694,1.02263 -0.98347,-2.38614 -2.62257,0.68176 -0.32782,4.09052 c -0.30218,1.14345 -0.63011,2.28009 -0.98347,3.40878 -0.10695,0.34161 -0.21623,0.6825 -0.32782,1.02262 h -2.29475 l -0.98347,-4.09052 -2.62258,-2.72702 h -2.95041 l -2.29475,3.40877 v 4.09053 c 1.07263,1.49187 2.16551,2.96918 3.27822,4.4314 0.43409,0.57043 0.87119,1.13857 1.31129,1.70438 l 0.32782,16.70297 -1.31129,7.84017 -5.90079,14.65771 -8.28813,13.45611 c 0.0955,1.60546 0.18941,3.21102 0.28166,4.81667 0.0956,1.66498 0.18954,3.33005 0.28167,4.99523 l 1.53166,4.81667 0.99595,4.81667 16.09567,-20.51667 8.345,-14.94425 6.95415,-8.67731 2.78167,-6.26695 4.13075,-6.01668 1.96693,-2.38613 v -5.45403 l -0.98347,-4.4314 -1.96693,-2.38615 -1.63911,-4.77228 c 1.10571,-0.54269 2.19884,-1.11102 3.27821,-1.70438 1.55972,-0.85742 3.0907,-1.7671 4.58952,-2.72702 l 0.98347,-2.66143 0.0796,-2.92671 -3.76515,-7.72674"
       id="C69.4"
       inkscape:path-effect="#path-effect4169"
       inkscape:original-d="m 705.93521,292.87103 2.99017,-5.13737 0.28805,-2.70278 0.98346,-4.09053 2.62258,-4.4314 3.93386,-2.72701 2.95041,-0.34088 2.95039,3.40876 3.27824,0.68176 0.32781,-3.06789 -1.96693,-6.47666 -2.9504,-8.86281 -3.60604,-7.15842 -1.63911,-5.11315 4.5895,-3.06789 -9.50684,-9.54455 -5.57297,-8.52193 -15.90875,-23.9756 -1.21666,2.66221 -2.46666,3.55508 -1.5738,2.66222 -1.57381,3.91221 2.08686,7.09335 2.95042,9.54456 0.98346,8.18104 1.96694,5.79491 4.26168,4.4314 3.27822,2.38614 -3.27822,2.72702 -0.32782,2.72701 1.6391,2.38615 1.96694,4.09052 3.27822,3.0679 -4.26168,2.38613 -3.60605,3.40877 v 2.38614 l 3.60605,2.72702 3.60604,-3.40877 2.29475,1.70438 -1.63911,3.96646 -1.91068,5.21299 0.48008,3.9322 c 5.14901,18.00747 5.02293,6.60217 5.03665,3.25045 m 7.36434,158.14269 -10.54173,2.41036 -1.73995,0.8522 -0.65563,1.3635 -2.29476,2.2157 -1.96694,1.02263 -0.98347,-2.38614 -2.62257,0.68176 -0.32782,4.09052 -0.98347,3.40878 -0.32782,1.02262 h -2.29475 l -0.98347,-4.09052 -2.62258,-2.72702 h -2.95041 l -2.29475,3.40877 v 4.09053 l 3.27822,4.4314 1.31129,1.70438 0.32782,16.70297 -1.31129,7.84017 -5.90079,14.65771 -8.28813,13.45611 0.28166,4.81667 0.28167,4.99523 1.53166,4.81667 0.99595,4.81667 16.09567,-20.51667 8.345,-14.94425 6.95415,-8.67731 2.78167,-6.26695 4.13075,-6.01668 1.96693,-2.38613 v -5.45403 l -0.98347,-4.4314 -1.96693,-2.38615 -1.63911,-4.77228 3.27821,-1.70438 4.58952,-2.72702 0.98347,-2.66143 0.0796,-2.92671 -3.76515,-7.72674"
       inkscape:connector-curvature="0"
       inkscape:label="#path4167"
       sodipodi:nodetypes="ccccccccccccccccccccccccccccccccccccccccccccccccccccccccccccccccccccccccccccccccccccc" />
    <path
       style="fill:none;fill-rule:evenodd;stroke:#000000;stroke-width:1.25;stroke-linecap:butt;stroke-linejoin:miter;stroke-miterlimit:4;stroke-dasharray:none;stroke-opacity:1"
       d="m 768.87708,478.36621 c -0.46618,4.65819 -0.90328,9.31929 -1.31129,13.98293 -0.47687,5.45075 -0.91398,10.90497 -1.31129,16.36209 l -2.62257,17.04385 -5.24517,20.45263 c -2.55233,4.23294 -4.95828,8.55415 -7.21208,12.95331 -2.75958,5.38638 -5.28966,10.88653 -7.86774,16.3621 -2.36314,5.01906 -4.76728,10.01881 -7.2121,14.9986 l -0.65563,8.86278 5.90079,-2.727 6.55645,-7.4993 8.52337,-4.09052 3.27823,4.09052 1.96693,9.54455 -6.44603,21.95383 -5.31596,9.91193 -3.37966,8.93767 c -1.15087,3.76277 -2.18536,7.56113 -3.10151,11.38783 -0.98258,4.10418 -1.82896,8.24063 -2.55835,12.39728 -0.66518,3.79072 -1.23313,7.59851 -1.70311,11.41835 l -3.53554,14.21392 c -0.95648,2.65151 -1.95482,5.28792 -2.99455,7.90791 -1.172,2.95331 -2.39658,5.88576 -3.67296,8.79549 l -14.30929,8.16789 -19.1929,6.56599 c -21.85007,1.87241 -43.74513,3.2198 -65.65991,4.04061 -36.60775,1.37113 -73.25654,1.27262 -109.88449,0.63933 -37.14193,-0.64218 -74.2833,-1.83407 -111.42857,-1.42858 -36.20151,0.39519 -72.37194,2.30735 -108.57143,2.85715 -42.38126,0.64368 -84.76519,-0.5804 -127.14285,-1.42857 -26.28383,-0.52606 -52.57056,-0.90754 -78.858589,-1.14441 17.524449,-2.88518 34.565189,-8.68692 50.209489,-17.09446 11.80657,-6.34507 22.81831,-14.1673 32.69696,-23.2264 28.12699,2.00029 56.30083,3.26296 84.47825,4.34078 l 61.10481,2.33734 c 9.01741,-0.52443 18.03295,-1.08095 27.0464,-1.66953 15.25663,-0.99626 30.50757,-2.08443 45.74513,-3.33906 15.48641,-1.27512 30.95866,-2.72217 46.41295,-4.34078 12.81839,-1.99967 25.61881,-4.11452 38.3992,-6.34421 18.96772,-3.30914 37.89131,-6.87123 56.76404,-10.685 l 32.38889,-12.02062 c 5.9979,-3.2508 12.00827,-6.47859 18.03093,-9.68328 12.13199,-6.4555 24.31408,-12.81739 36.39577,-19.36655 9.63738,-5.22417 19.21033,-10.5672 28.71592,-16.02749 l 22.70562,-28.04812 8.68156,-14.02405 12.02062,-16.69531 c 5.09412,-5.03528 10.10365,-10.15613 15.02577,-15.35968 4.87253,-5.15113 9.6594,-10.38328 14.35796,-15.69358 l 15.02578,-3.00516 2.33734,-3.67297 17.36312,-16.3614 z M 766.7329,250.09989 c 0.18327,-3.67072 0.2424,-7.34764 0.17725,-11.02235 -0.0464,-2.61551 -0.15568,-5.22991 -0.32782,-7.84016 l -2.29476,-9.88544 -2.9504,-8.52192 c -1.74921,-3.63563 -3.4976,-7.27165 -5.24516,-10.90807 -2.14029,-4.45363 -4.27978,-8.90871 -6.55643,-13.2942 -3.97483,-7.6567 -8.36231,-15.09089 -12.78508,-22.49788 -2.46143,-4.12225 -4.93512,-8.23837 -7.5399,-12.27157 -1.62174,-2.51109 -3.29386,-4.98934 -4.91734,-7.4993 -3.51009,-5.42673 -6.79217,-11.00093 -9.83467,-16.70297 l -4.24851,-11.24894 -4.60268,-9.54455 -1.31131,-5.45404 -0.32781,-4.772278 c 2.4002,0.181141 4.8055,0.294827 7.21209,0.34088 1.63891,0.03136 3.27843,0.03136 4.91734,0 l 4.26168,-1.363511 1.63911,-4.772273 0.32782,-6.817541 -2.67967,-15.432036 -3.4834,-9.355437 -7.07107,-6.060916 -20.20306,-6.060915 c -9.41673,-1.112659 -18.84556,-2.122892 -28.28427,-3.030458 -17.81587,-1.713062 -35.66692,-3.06031 -53.53809,-4.04061 -20.1928,0.767636 -40.40198,1.104456 -60.60915,1.010152 -30.31243,-0.141463 -60.61069,-1.252799 -90.91373,-2.020305 -18.18017,-0.460462 -36.36348,-0.797189 -54.54823,-1.010152 -15.4665,1.59085 -30.95807,2.937943 -46.46702,4.04061 -25.56237,1.817453 -51.16705,2.970609 -76.7716,4.04061 -26.26051,1.097414 -52.52467,2.107574 -78.79189,3.030458 l -72.73099,3.030458 -29.294421,-1.010153 -20.203051,1.010153 -0.959065,-0.13334 c 32.734497,21.41136 62.368427,47.554914 87.693617,77.364784 7.5153,8.84614 14.65325,18.01285 21.38794,27.46684 l 66.34614,-38.48548 32.58281,-15.58308 c 11.39481,-3.36395 22.80686,-6.669509 34.23555,-9.916506 18.84425,-5.353826 37.73373,-10.548433 56.66575,-15.58308 l 23.13851,-4.013824 c 6.06308,0.115956 12.13138,-0.04166 18.18026,-0.472214 3.54671,-0.25245 7.086,-0.598614 10.62483,-0.944429 6.4535,-0.630637 12.90709,-1.260257 19.36079,-1.888858 16.30952,0.139094 32.61417,0.847991 48.87421,2.124965 7.48748,0.588025 14.9655,1.296469 22.43019,2.124965 9.78418,2.17331 19.54409,4.455871 29.2773,6.847111 7.73008,1.899115 15.44332,3.866779 23.13851,5.902682 11.2057,5.122459 22.30588,10.475739 33.29113,16.055298 12.59058,6.39493 25.03018,13.08712 37.30494,20.06911 l 30.45784,19.59691 3.54161,3.3055 28.80509,32.11059 19.36079,26.20791 17.94416,20.30522 10.15261,3.54161 c 2.2456,2.94056 4.52821,5.85286 6.84711,8.73597 3.04262,3.78293 6.14772,7.51561 9.3136,11.196 z"
       id="C69.6"
       inkscape:path-effect="#path-effect4173"
       inkscape:original-d="m 768.87708,478.36621 -1.31129,13.98293 -1.31129,16.36209 -2.62257,17.04385 -5.24517,20.45263 -7.21208,12.95331 -7.86774,16.3621 -7.2121,14.9986 -0.65563,8.86278 5.90079,-2.727 6.55645,-7.4993 8.52337,-4.09052 3.27823,4.09052 1.96693,9.54455 -6.44603,21.95383 -5.31596,9.91193 -3.37966,8.93767 -3.10151,11.38783 -2.55835,12.39728 -1.70311,11.41835 -3.53554,14.21392 -2.99455,7.90791 -3.67296,8.79549 -14.30929,8.16789 -19.1929,6.56599 -65.65991,4.04061 -109.88449,0.63933 -111.42857,-1.42858 -108.57143,2.85715 -127.14285,-1.42857 -78.858589,-1.14441 c 29.686659,-3.31605 37.845779,-10.58468 50.209489,-17.09446 12.3637,-6.50978 28.93198,-12.26071 32.69696,-23.2264 21.22019,40.76919 56.24789,3.29585 84.47825,4.34078 l 61.10481,2.33734 27.0464,-1.66953 45.74513,-3.33906 46.41295,-4.34078 38.3992,-6.34421 56.76404,-10.685 32.38889,-12.02062 18.03093,-9.68328 36.39577,-19.36655 28.71592,-16.02749 22.70562,-28.04812 8.68156,-14.02405 12.02062,-16.69531 15.02577,-15.35968 14.35796,-15.69358 15.02578,-3.00516 2.33734,-3.67297 17.36312,-16.3614 z m -2.14418,-228.26632 0.17725,-11.02235 -0.32782,-7.84016 -2.29476,-9.88544 -2.9504,-8.52192 -5.24516,-10.90807 -6.55643,-13.2942 -12.78508,-22.49788 -7.5399,-12.27157 -4.91734,-7.4993 -9.83467,-16.70297 -4.24851,-11.24894 -4.60268,-9.54455 -1.31131,-5.45404 -0.32781,-4.772278 7.21209,0.34088 h 4.91734 l 4.26168,-1.363511 1.63911,-4.772273 0.32782,-6.817541 -2.67967,-15.432036 -3.4834,-9.355437 -7.07107,-6.060916 -20.20306,-6.060915 -28.28427,-3.030458 -53.53809,-4.04061 -60.60915,1.010152 -90.91373,-2.020305 -54.54823,-1.010152 -46.46702,4.04061 -76.7716,4.04061 -78.79189,3.030458 c -4.45602,82.634172 -41.01674,32.836471 -72.73099,3.030458 l -29.294421,-1.010153 -20.203051,1.010153 -0.959065,-0.13334 c 30.058797,10.618938 64.401677,62.841894 87.693617,77.364784 23.29193,14.52289 35.53293,-8.65428 21.38794,27.46684 l 66.34614,-38.48548 32.58281,-15.58308 34.23555,-9.916506 56.66575,-15.58308 23.13851,-4.013824 18.18026,-0.472214 10.62483,-0.944429 19.36079,-1.888858 48.87421,2.124965 22.43019,2.124965 29.2773,6.847111 23.13851,5.902682 33.29113,16.055298 37.30494,20.06911 30.45784,19.59691 3.54161,3.3055 28.80509,32.11059 19.36079,26.20791 17.94416,20.30522 10.15261,3.54161 6.84711,8.73597 z"
       inkscape:connector-curvature="0"
       inkscape:label="#path4171"
       sodipodi:nodetypes="cccccccccccccccccccccccccccccccscccccccccccccccccccccccccccccccccccccccccccccccccccccccccsccccccccccccccccccccccc" />
    <path
       style="fill:none;fill-rule:evenodd;stroke:#000000;stroke-width:1.25;stroke-linecap:butt;stroke-linejoin:miter;stroke-miterlimit:4;stroke-dasharray:none;stroke-opacity:1"
       d="m 183.71274,414.32734 85.30435,-24.10366 c 1.02168,-7.10392 1.98222,-14.21663 2.88148,-21.33708 1.06242,-8.41238 2.03945,-16.83667 3.27823,-25.22489 1.11236,-7.53222 2.43546,-15.03286 3.93387,-22.49787 1.55918,-7.76774 3.30826,-15.49737 5.24515,-23.17964 l 8.52338,-21.81613 c 2.81702,-5.46654 5.65817,-10.92064 8.52336,-16.36209 5.16722,-9.81337 10.4126,-19.58559 15.73547,-29.31542 l 11.14597,-14.99859 19.66933,-21.81613 c 4.66079,-4.47811 9.47249,-8.79915 14.42418,-12.95332 5.33563,-4.47628 10.83218,-8.75756 16.3911,-12.95332 7.10966,-5.36622 14.32357,-10.59432 21.63628,-15.68036 l 19.66934,-10.90806 c 8.7725,-3.32964 17.5149,-6.7386 26.22577,-10.2263 8.33411,-3.33685 16.63935,-6.74579 24.91449,-10.22631 l 19.01369,-4.77228 32.78222,-4.09053 c 11.37283,0.19828 22.74118,0.65294 34.09352,1.36351 10.28777,0.64394 20.56239,1.49804 30.81528,2.5616 m 67.53138,19.77086 16.39112,10.39173 17.7024,18.40736 c 8.71571,10.29476 17.24103,20.75071 25.57013,31.36069 6.00343,7.64744 11.90493,15.3749 17.7024,23.17963 l 13.11289,13.63508 2.62258,4.09051"
       id="path4175"
       inkscape:path-effect="#path-effect4177"
       inkscape:original-d="m 183.71274,414.32734 85.30435,-24.10366 2.88148,-21.33708 3.27823,-25.22489 3.93387,-22.49787 5.24515,-23.17964 8.52338,-21.81613 8.52336,-16.36209 15.73547,-29.31542 11.14597,-14.99859 19.66933,-21.81613 14.42418,-12.95332 16.3911,-12.95332 21.63628,-15.68036 19.66934,-10.90806 26.22577,-10.2263 24.91449,-10.22631 19.01369,-4.77228 32.78222,-4.09053 34.09352,1.36351 30.81528,2.5616 m 67.53138,19.77086 16.39112,10.39173 17.7024,18.40736 25.57013,31.36069 17.7024,23.17963 13.11289,13.63508 2.62258,4.09051"
       inkscape:connector-curvature="0"
       sodipodi:nodetypes="cccccccccccccccccccccccccccc" />
    <path
       style="fill:none;fill-rule:evenodd;stroke:#000000;stroke-width:1.25;stroke-linecap:butt;stroke-linejoin:miter;stroke-miterlimit:4;stroke-dasharray:none;stroke-opacity:1"
       d="m 691.50384,204.42873 -2.4555,-3.65967 -5.56333,-5.78487 -8.8086,-11.56975 -10.66305,-11.08768 c -3.65558,-2.95994 -7.36529,-5.85302 -11.12666,-8.6773 -3.05707,-2.29545 -6.14826,-4.54546 -9.2722,-6.74903 l -18.08082,-8.19523 -13.90832,-8.19524 -11.96115,-1.44622 c -3.40765,-0.89803 -6.84012,-1.7019 -10.29217,-2.41037 -2.61664,-0.53702 -5.24454,-1.01923 -7.88137,-1.44622 h -9.73583 c -3.38587,-0.57435 -6.78735,-1.05666 -10.19942,-1.44622 -3.85235,-0.43983 -7.7182,-0.76141 -11.59028,-0.96415 l -13.4447,1.44622 h -19.00805 c -5.98377,1.47783 -12.01482,2.76423 -18.08081,3.85659 -2.92852,0.52737 -5.86519,1.00952 -8.8086,1.44622 l 1.39084,9.64145 16.22637,-3.85658 c 4.95754,-0.5424 9.90407,-1.18534 14.83554,-1.92829 7.14441,-1.07634 14.25719,-2.3626 21.32608,-3.85658 5.87044,0.66052 11.74288,1.30329 17.61721,1.92829 4.63495,0.49314 9.27107,0.97521 13.90832,1.44622 l 18.54442,3.85659 15.76278,4.82071 20.86247,8.67733 9.27221,5.78486 c 5.69319,4.00121 11.26021,8.18194 16.68999,12.5339 3.13722,2.51447 6.22864,5.08609 9.2722,7.71315 l 6.02695,8.67733 6.95415,11.56974 3.99393,9.26667"
       id="path4179"
       inkscape:path-effect="#path-effect4181"
       inkscape:original-d="m 691.50384,204.42873 -2.4555,-3.65967 -5.56333,-5.78487 -8.8086,-11.56975 -10.66305,-11.08768 -11.12666,-8.6773 -9.2722,-6.74903 -18.08082,-8.19523 -13.90832,-8.19524 -11.96115,-1.44622 -10.29217,-2.41037 -7.88137,-1.44622 h -9.73583 l -10.19942,-1.44622 -11.59028,-0.96415 -13.4447,1.44622 h -19.00805 l -18.08081,3.85659 -8.8086,1.44622 1.39084,9.64145 16.22637,-3.85658 14.83554,-1.92829 21.32608,-3.85658 17.61721,1.92829 13.90832,1.44622 18.54442,3.85659 15.76278,4.82071 20.86247,8.67733 9.27221,5.78486 16.68999,12.5339 9.2722,7.71315 6.02695,8.67733 6.95415,11.56974 3.99393,9.26667"
       inkscape:connector-curvature="0"
       sodipodi:nodetypes="cccccccccccccccccccccccccccccccccc" />
    <path
       style="fill:none;fill-rule:evenodd;stroke:#000000;stroke-width:1.25;stroke-linecap:butt;stroke-linejoin:miter;stroke-miterlimit:4;stroke-dasharray:none;stroke-opacity:1"
       d="m 492.47743,149.18726 1.85445,10.60561 12.51747,-2.89244 18.08082,-2.89244 c 3.54923,-0.25533 7.10525,-0.41609 10.66304,-0.48206 4.1719,-0.0773 8.34495,-0.0244 12.5175,0 3.55431,0.0208 7.10873,0.0208 10.66304,0 6.03497,0.74164 12.06233,1.54515 18.08082,2.41035 5.26131,0.75635 10.51585,1.55986 15.76276,2.41038 5.11475,1.55865 10.21477,3.16565 15.29915,4.82071 4.80487,1.56407 9.59576,3.17107 14.37192,4.82073 4.48157,2.24967 8.96314,4.49934 13.44471,6.74902 4.48157,2.24968 8.96315,4.49936 13.44472,6.74904 l 6.95415,2.41035 h 6.02694"
       id="path4183"
       inkscape:path-effect="#path-effect4185"
       inkscape:original-d="m 492.47743,149.18726 1.85445,10.60561 12.51747,-2.89244 18.08082,-2.89244 10.66304,-0.48206 h 12.5175 10.66304 l 18.08082,2.41035 15.76276,2.41038 15.29915,4.82071 14.37192,4.82073 13.44471,6.74902 13.44472,6.74904 6.95415,2.41035 h 6.02694"
       inkscape:connector-curvature="0" />
    <path
       style="fill:none;fill-rule:evenodd;stroke:#000000;stroke-width:1.25;stroke-linecap:butt;stroke-linejoin:miter;stroke-miterlimit:4;stroke-dasharray:none;stroke-opacity:1"
       d="m 183.38657,220.946 13.11289,-8.8628 16.39111,-12.95333 c 7.41798,-4.79195 14.84866,-9.56425 22.29192,-14.31684 8.94236,-5.70977 17.90289,-11.39109 26.88141,-17.04383 9.89122,-5.10401 19.95182,-9.87979 30.15965,-14.31684 9.50523,-4.13165 19.13698,-7.96916 28.84835,-11.58982 6.95914,-2.59455 13.95938,-5.07787 20.98063,-7.4993 6.75559,-2.32981 13.53091,-4.60243 20.32498,-6.81753 l 18.35803,-7.4993 c 9.33896,-2.30319 18.74127,-4.34949 28.19272,-6.13579 8.27042,-1.56309 16.57846,-2.92712 24.9145,-4.09051 7.63615,-0.81871 15.28697,-1.50061 22.94755,-2.04527 14.41669,-1.025 28.86633,-1.56387 43.27253,-2.72702 8.54485,-0.68991 17.07197,-1.59931 25.57013,-2.72701 l 24.91449,3.40876 34.74916,9.54457"
       id="path4187"
       inkscape:path-effect="#path-effect4189"
       inkscape:original-d="m 183.38657,220.946 13.11289,-8.8628 16.39111,-12.95333 22.29192,-14.31684 26.88141,-17.04383 30.15965,-14.31684 28.84835,-11.58982 20.98063,-7.4993 20.32498,-6.81753 18.35803,-7.4993 28.19272,-6.13579 24.9145,-4.09051 22.94755,-2.04527 43.27253,-2.72702 25.57013,-2.72701 24.91449,3.40876 34.74916,9.54457"
       inkscape:connector-curvature="0" />
    <path
       style="fill:none;fill-rule:evenodd;stroke:#000000;stroke-width:1.25;stroke-linecap:butt;stroke-linejoin:miter;stroke-miterlimit:4;stroke-dasharray:none;stroke-opacity:1"
       d="m 183.38657,159.58814 c 8.31577,-4.7532 16.62063,-9.52549 24.91449,-14.31683 7.44155,-4.29896 14.87426,-8.61327 22.29191,-12.95333 6.5683,-3.8431 13.12478,-7.7064 19.66933,-11.58981 l 34.09352,-15.68035 19.01368,-4.77227 34.09351,-11.58982 c 7.46801,-1.409003 14.9016,-3.000395 22.29192,-4.772279 9.25258,-2.218375 18.43733,-4.719697 27.53707,-7.499293 l 15.07982,-1.363508 h 13.11289 l 15.07981,-2.045263 c 9.1695,-0.501491 18.35399,-0.728878 27.53708,-0.681754 7.87159,0.04039 15.74164,0.28245 23.6032,0.681754 9.19329,0.466945 18.37567,1.148948 27.53707,2.045263 6.81158,1.172425 13.59015,2.536653 20.32497,4.090523 6.36747,1.469115 12.69458,3.107409 19.01369,4.772278 6.78322,1.787147 13.55831,3.605183 20.32498,5.454031 9.02534,3.946404 17.98735,8.037632 26.88143,12.271578 10.85265,5.16631 21.60737,10.54682 32.12657,16.36209 6.66091,3.68231 13.22626,7.53839 19.66933,11.58981 4.20577,2.6446 8.35927,5.37233 12.45726,8.18106"
       id="path4191"
       inkscape:path-effect="#path-effect4193"
       inkscape:original-d="m 183.38657,159.58814 24.91449,-14.31683 22.29191,-12.95333 19.66933,-11.58981 34.09352,-15.68035 19.01368,-4.77227 34.09351,-11.58982 22.29192,-4.772279 27.53707,-7.499293 15.07982,-1.363508 h 13.11289 l 15.07981,-2.045263 27.53708,-0.681754 23.6032,0.681754 27.53707,2.045263 20.32497,4.090523 19.01369,4.772278 20.32498,5.454031 26.88143,12.271578 32.12657,16.36209 19.66933,11.58981 12.45726,8.18106"
       inkscape:connector-curvature="0" />
    <path
       style="fill:none;fill-rule:evenodd;stroke:#000000;stroke-width:1.25;stroke-linecap:butt;stroke-linejoin:miter;stroke-miterlimit:4;stroke-dasharray:none;stroke-opacity:1"
       d="m 183.71274,539.66626 57.48772,-24.10363 27.81663,-7.71316 c 7.09221,-0.81045 14.20355,-1.45345 21.3261,-1.9283 8.02547,-0.53504 16.06518,-0.85658 24.10775,-0.96415 l 8.34498,8.67732 9.27223,17.35462 c 6.80522,6.44015 13.4156,13.08619 19.81905,19.92595 3.56142,3.80409 7.05885,7.66809 10.49031,11.58982 4.71605,4.19706 9.5257,8.28894 14.42417,12.27157 5.77986,4.69923 11.68339,9.24636 17.70241,13.63508 l 21.63627,12.95332 28.1927,12.95333 c 7.64286,2.06881 15.2921,4.11408 22.94756,6.13578 9.60641,2.53692 19.22263,5.03671 28.84836,7.4993 l 23.6032,1.36352 15.07983,-1.36352 19.66933,0.68175 17.7024,-1.3635 7.86773,-2.04527 c -9.34813,2.68093 -18.74804,5.18132 -28.19272,7.4993 -11.71829,2.87599 -23.51025,5.47208 -35.40479,7.4993 -6.09895,1.03946 -12.22283,1.92902 -18.35805,2.72701 -5.89064,0.76618 -11.79224,1.44802 -17.7024,2.04526 -8.95279,-0.4544 -17.91711,-0.68175 -26.88143,-0.68175 -8.96432,0 -17.92863,0.22735 -26.88142,0.68175 -8.94034,-1.70151 -17.90173,-3.29243 -26.88142,-4.77227 -8.94323,-1.47383 -17.90461,-2.83748 -26.88143,-4.09053 h -17.04675 l -39.99431,-4.77228 H 302.05822 275.1768 246.32843 l -30.81528,2.04526 -21.08737,-0.27848 -17.40914,-3.71585"
       id="path4195"
       inkscape:path-effect="#path-effect4197"
       inkscape:original-d="m 183.71274,539.66626 57.48772,-24.10363 27.81663,-7.71316 21.3261,-1.9283 24.10775,-0.96415 8.34498,8.67732 9.27223,17.35462 19.81905,19.92595 10.49031,11.58982 14.42417,12.27157 17.70241,13.63508 21.63627,12.95332 28.1927,12.95333 22.94756,6.13578 28.84836,7.4993 23.6032,1.36352 15.07983,-1.36352 19.66933,0.68175 17.7024,-1.3635 7.86773,-2.04527 -28.19272,7.4993 -35.40479,7.4993 -18.35805,2.72701 -17.7024,2.04526 -26.88143,-0.68175 -26.88142,0.68175 -26.88142,-4.77227 -26.88143,-4.09053 h -17.04675 l -39.99431,-4.77228 H 302.05822 275.1768 246.32843 l -30.81528,2.04526 -21.08737,-0.27848 -17.40914,-3.71585"
       inkscape:connector-curvature="0"
       sodipodi:nodetypes="cccccccccccccccccccccccccccccccccccc" />
    <path
       style="fill:none;fill-rule:evenodd;stroke:#000000;stroke-width:1.25;stroke-linecap:butt;stroke-linejoin:miter;stroke-miterlimit:4;stroke-dasharray:none;stroke-opacity:1"
       d="m 736.75049,503.19213 -4.58951,6.81755 c -4.12575,4.34331 -8.27827,8.66119 -12.45724,12.95332 -4.61898,4.74405 -9.27105,9.45746 -13.76853,14.31684 -4.29755,4.64336 -8.45257,9.41863 -12.45724,14.31683 l -15.07984,22.49788 c -3.51093,4.30628 -7.00772,8.62409 -10.4903,12.95333 -5.58938,6.94825 -11.14215,13.92596 -16.65798,20.93274 l 2.2338,-1.16188 c -12.90899,6.78979 -25.80337,13.60735 -38.68302,20.45262 -15.31928,8.14188 -30.61772,16.32296 -45.89512,24.54314 l -34.0935,12.27157 c -9.6327,1.72883 -19.24937,3.54694 -28.84837,5.45404 -15.07233,2.99452 -30.10345,6.20886 -45.23946,8.86279 -11.88386,2.0837 -23.82843,3.82112 -35.81346,5.20931 -20.95987,1.05333 -41.91285,2.24384 -62.85714,3.57143 -14.05171,0.89069 -28.09951,1.84308 -42.14286,2.85714 -30.48656,-0.90163 -60.96458,-2.09218 -91.42858,-3.57143 -17.62409,-0.85578 -35.24349,-1.80818 -52.85714,-2.85714"
       id="path4199"
       inkscape:path-effect="#path-effect4201"
       inkscape:original-d="m 736.75049,503.19213 -4.58951,6.81755 -12.45724,12.95332 -13.76853,14.31684 -12.45724,14.31683 -15.07984,22.49788 -10.4903,12.95333 -16.65798,20.93274 2.2338,-1.16188 -38.68302,20.45262 -45.89512,24.54314 -34.0935,12.27157 -28.84837,5.45404 -45.23946,8.86279 -35.81346,5.20931 -62.85714,3.57143 -42.14286,2.85714 -91.42858,-3.57143 -52.85714,-2.85714"
       inkscape:connector-curvature="0"
       sodipodi:nodetypes="cccccccccccccc" />
    <path
       style="fill:none;fill-rule:evenodd;stroke:#000000;stroke-width:1.25;stroke-linecap:butt;stroke-linejoin:miter;stroke-miterlimit:4;stroke-dasharray:none;stroke-opacity:1"
       d="m 305.33644,475.24023 9.17902,4.09053 11.14596,3.40876 10.1156,15.46848 12.9811,16.39049 26.88942,27.47813 32.45276,24.58573 25.03496,13.49803 31.06192,13.01597 42.18856,10.12353 33.84358,1.92829 29.20747,-1.92829 21.32609,-4.82072 29.67108,-13.98011 16.68999,-9.64147 15.29915,-11.08767 16.22637,-15.42632 12.98109,-17.12242 m -9.34095,-12.99833 -8.73985,14.69441 -12.98111,16.87255 -22.25331,19.28291 c -5.62151,3.22919 -11.34302,6.28427 -17.15359,9.15939 -3.37058,1.6678 -6.77113,3.27505 -10.19943,4.82072 l -24.10775,8.19525 -27.81665,6.26694 -23.18052,-2.41036 -16.68999,-6.26694"
       id="path4203"
       inkscape:path-effect="#path-effect4205"
       inkscape:original-d="m 305.33644,475.24023 9.17902,4.09053 11.14596,3.40876 10.1156,15.46848 12.9811,16.39049 26.88942,27.47813 32.45276,24.58573 25.03496,13.49803 31.06192,13.01597 42.18856,10.12353 33.84358,1.92829 29.20747,-1.92829 21.32609,-4.82072 29.67108,-13.98011 16.68999,-9.64147 15.29915,-11.08767 16.22637,-15.42632 12.98109,-17.12242 m -9.34095,-12.99833 -8.73985,14.69441 -12.98111,16.87255 -22.25331,19.28291 -17.15359,9.15939 -10.19943,4.82072 -24.10775,8.19525 -27.81665,6.26694 -23.18052,-2.41036 -16.68999,-6.26694"
       inkscape:connector-curvature="0"
       sodipodi:nodetypes="cccccccccccccccccccccccccccc" />
    <path
       style="fill:none;fill-rule:evenodd;stroke:#000000;stroke-width:1.25;stroke-linecap:butt;stroke-linejoin:miter;stroke-miterlimit:4;stroke-dasharray:none;stroke-opacity:1"
       d="m 719.70374,276.84982 c 2.01294,5.97046 4.19965,11.88233 6.55644,17.7256 1.6641,4.12587 3.41298,8.21754 5.24516,12.27157 l 7.86773,14.31685 3.93387,10.2263 0.65564,9.54455 -2.62258,4.77228 -3.27822,2.72702 -1.31129,8.18104 v 12.27157 l -1.31128,12.95333 v 8.18105 l -0.65565,7.49929 2.62258,2.04527 3.93386,4.77227 -1.31129,8.86281 c -1.56104,3.80841 -3.25676,7.56161 -5.08292,11.25024 -1.9294,3.89715 -4.0035,7.72057 -6.02694,11.56974 -2.02338,3.84906 -3.9964,7.72446 -6.02693,11.56975 -1.36498,2.58493 -2.75591,5.15616 -4.17249,7.71317 l -1.85445,7.2311"
       id="path4207"
       inkscape:path-effect="#path-effect4209"
       inkscape:original-d="m 719.70374,276.84982 6.55644,17.7256 5.24516,12.27157 7.86773,14.31685 3.93387,10.2263 0.65564,9.54455 -2.62258,4.77228 -3.27822,2.72702 -1.31129,8.18104 v 12.27157 l -1.31128,12.95333 v 8.18105 l -0.65565,7.49929 2.62258,2.04527 3.93386,4.77227 -1.31129,8.86281 -5.08292,11.25024 -6.02694,11.56974 -6.02693,11.56975 -4.17249,7.71317 -1.85445,7.2311"
       inkscape:connector-curvature="0" />
    <path
       style="fill:none;fill-rule:evenodd;stroke:#000000;stroke-width:1.25;stroke-linecap:butt;stroke-linejoin:miter;stroke-miterlimit:4;stroke-dasharray:none;stroke-opacity:1"
       d="m 711.76526,483.74582 6.49054,-5.3028 c 3.33915,-3.28253 6.58613,-6.65881 9.73584,-10.12353 3.69047,-4.05956 7.24738,-8.24054 10.66304,-12.53389 l 4.6361,-11.08768 7.41777,-13.98012 c 1.76852,-4.47302 3.46869,-8.97307 5.09972,-13.49804 1.61325,-4.47565 3.15885,-8.97567 4.63611,-13.49803 0.56576,-5.95086 1.18394,-11.89673 1.85444,-17.8367 0.50738,-4.4949 1.04486,-8.98785 1.39083,-13.49804 0.28298,-3.68903 0.43764,-7.3879 0.46361,-11.08768 l -0.92721,-11.56975 -2.78167,-13.01595 -4.63611,-16.39049 -6.02693,-15.42632 c -2.51325,-4.15373 -4.986,-8.33196 -7.41778,-12.5339 -2.50136,-4.32216 -4.9593,-8.66927 -7.41777,-13.01597 -1.54514,-2.73188 -3.09051,-5.46362 -4.63611,-8.19524 l -7.88138,-9.15939"
       id="path4211"
       inkscape:path-effect="#path-effect4213"
       inkscape:original-d="m 711.76526,483.74582 6.49054,-5.3028 9.73584,-10.12353 10.66304,-12.53389 4.6361,-11.08768 7.41777,-13.98012 5.09972,-13.49804 4.63611,-13.49803 1.85444,-17.8367 1.39083,-13.49804 0.46361,-11.08768 -0.92721,-11.56975 -2.78167,-13.01595 -4.63611,-16.39049 -6.02693,-15.42632 -7.41778,-12.5339 -7.41777,-13.01597 -4.63611,-8.19524 -7.88138,-9.15939"
       inkscape:connector-curvature="0" />
    <path
       style="fill:none;fill-rule:evenodd;stroke:#000000;stroke-width:1.25;stroke-linecap:butt;stroke-linejoin:miter;stroke-miterlimit:4;stroke-dasharray:none;stroke-opacity:1"
       d="m 700.17499,292.84497 -9.27221,3.85658 -6.49056,7.71317 -4.17248,6.74902 c -1.3173,2.97191 -2.58703,5.96491 -3.80854,8.97746 -1.37245,3.38482 -2.68402,6.79433 -3.93387,10.22631 -0.69816,2.60248 -1.35392,5.21634 -1.96693,7.84018 -0.71376,3.05509 -1.36956,6.12371 -1.96693,9.20367 -0.25899,3.18811 -0.58691,6.37062 -0.98346,9.54455 -0.45589,3.64885 -1.00249,7.28637 -1.63912,10.90806 l -0.32782,11.58983 0.98346,10.2263 c 0.94853,4.43906 1.93204,8.87064 2.95041,13.2942 0.73412,3.18885 1.48641,6.37373 2.29476,9.54457 0.52297,2.05141 1.06939,4.09685 1.6391,6.13578 l 4.91733,10.56718 6.22862,9.54457 4.91735,3.40875 10.16248,1.36352 8.8512,-2.72701 5.57298,-3.74965 5.57298,-5.11316 5.90081,-10.56719 c 1.08118,-2.80555 2.06542,-5.64845 2.95039,-8.52193 1.01218,-3.28655 1.89443,-6.61269 2.9504,-9.88543 0.78053,-2.41907 1.65561,-4.80764 2.62257,-7.15841 l 0.98347,-6.47667 v -7.15841 l 1.63911,-11.58982 0.32783,-15.33946 1.6391,-5.11316 -3.27821,-17.38471 -2.62258,-10.22632 -4.26169,-11.24894 -4.91734,-10.22631 -4.58951,-6.13579 -6.88427,-4.09053 c -1.74128,0.37605 -3.49014,0.71702 -5.24515,1.02264 -2.23886,0.38987 -4.48775,0.72221 -6.74368,0.99656 z"
       id="path4215"
       inkscape:path-effect="#path-effect4217"
       inkscape:original-d="m 700.17499,292.84497 -9.27221,3.85658 -6.49056,7.71317 -4.17248,6.74902 -3.80854,8.97746 -3.93387,10.22631 -1.96693,7.84018 -1.96693,9.20367 -0.98346,9.54455 -1.63912,10.90806 -0.32782,11.58983 0.98346,10.2263 2.95041,13.2942 2.29476,9.54457 1.6391,6.13578 4.91733,10.56718 6.22862,9.54457 4.91735,3.40875 10.16248,1.36352 8.8512,-2.72701 5.57298,-3.74965 5.57298,-5.11316 5.90081,-10.56719 2.95039,-8.52193 2.9504,-9.88543 2.62257,-7.15841 0.98347,-6.47667 v -7.15841 l 1.63911,-11.58982 0.32783,-15.33946 1.6391,-5.11316 -3.27821,-17.38471 -2.62258,-10.22632 -4.26169,-11.24894 -4.91734,-10.22631 -4.58951,-6.13579 -6.88427,-4.09053 -5.24515,1.02264 z"
       inkscape:connector-curvature="0" />
    <path
       style="fill:none;fill-rule:evenodd;stroke:#000000;stroke-width:1.25;stroke-linecap:butt;stroke-linejoin:miter;stroke-miterlimit:4;stroke-dasharray:none;stroke-opacity:1"
       d="m 724.74636,517.49092 14.37193,-3.85658 c 3.17001,-2.97145 6.26216,-6.02598 9.2722,-9.15938 4.17988,-4.35119 8.20139,-8.85451 12.05389,-13.49805 l 8.34499,-14.46218 12.21712,-16.61397 c 2.76946,-4.58931 5.61105,-9.13509 8.52339,-13.63508 2.67265,-4.12965 5.40488,-8.22074 8.19554,-12.27157 1.35868,-5.61281 2.88949,-11.18396 4.58953,-16.70297 0.63229,-2.05265 1.28798,-4.09809 1.9669,-6.13579 l 2.2948,-16.02122 0.65561,-11.58981 -0.32784,-15.33947 0.32784,-6.47666 c -0.38187,-2.73548 -0.81909,-5.46324 -1.31129,-8.18104 -1.38787,-7.66339 -3.21134,-15.23985 -4.9173,-22.83876 -1.37966,-6.14546 -2.6834,-12.3099 -4.26171,-18.40736 -0.70978,-2.74208 -1.47491,-5.46984 -2.29475,-8.18105 -2.37723,-5.17855 -4.89171,-10.2941 -7.53991,-15.33946 -2.22605,-4.24109 -4.54627,-8.43203 -6.88428,-12.61245 -1.84643,-3.30146 -3.7041,-6.59662 -5.57298,-9.88542 l -3.60603,-9.88545 -5.9008,-6.47666 -7.97592,-11.54981 -7.41775,-7.71316 -10.19945,-5.06176 6.72235,6.50798 4.40431,7.71317 7.18597,9.8825 c 2.78067,4.24317 5.41002,8.58549 7.88137,13.01596 2.18842,3.92326 4.2529,7.9154 6.49056,11.81079 1.88829,3.28719 3.89913,6.50399 6.02694,9.64145 1.55414,3.45092 3.09951,6.9058 4.63609,10.36457 2.10272,4.73311 4.18899,9.47353 6.25875,14.22115 1.56943,4.60423 2.96163,9.26886 4.17249,13.98011 1.23421,4.80211 2.27965,9.65077 3.47709,14.46218 1.16948,4.69906 2.48386,9.36205 3.94066,13.98012 l 0.69546,17.59565 c -0.61459,5.12701 -1.07847,10.27208 -1.39084,15.42634 -0.25779,4.25373 -0.41239,8.51371 -0.46363,12.77493 l -2.08624,11.81078 -4.86791,17.59566 -0.92722,6.02591 c -1.25963,2.43924 -2.57363,4.8504 -3.94069,7.23109 -2.45829,4.28101 -5.08823,8.46345 -7.88139,12.5339 -2.76823,3.86624 -5.54992,7.72285 -8.34499,11.56973 -2.58907,3.56336 -5.18999,7.11887 -7.88136,10.60561 -2.98213,3.86342 -6.07471,7.64158 -9.27223,11.32872 -2.4872,2.86806 -5.03789,5.68107 -7.64957,8.43627 -2.31099,1.84465 -4.55381,3.7747 -6.72236,5.78488 -1.02115,0.94658 -2.02584,1.91092 -3.01346,2.89244 l -1.62264,3.13347 -2.54986,3.61555 z"
       id="C69.0"
       inkscape:path-effect="#path-effect4221"
       inkscape:original-d="m 724.74636,517.49092 14.37193,-3.85658 9.2722,-9.15938 12.05389,-13.49805 8.34499,-14.46218 12.21712,-16.61397 8.52339,-13.63508 8.19554,-12.27157 4.58953,-16.70297 1.9669,-6.13579 2.2948,-16.02122 0.65561,-11.58981 -0.32784,-15.33947 0.32784,-6.47666 -1.31129,-8.18104 -4.9173,-22.83876 -4.26171,-18.40736 -2.29475,-8.18105 -7.53991,-15.33946 -6.88428,-12.61245 -5.57298,-9.88542 -3.60603,-9.88545 -5.9008,-6.47666 -7.97592,-11.54981 -7.41775,-7.71316 -10.19945,-5.06176 6.72235,6.50798 4.40431,7.71317 7.18597,9.8825 7.88137,13.01596 6.49056,11.81079 6.02694,9.64145 4.63609,10.36457 6.25875,14.22115 4.17249,13.98011 3.47709,14.46218 3.94066,13.98012 0.69546,17.59565 -1.39084,15.42634 -0.46363,12.77493 -2.08624,11.81078 -4.86791,17.59566 -0.92722,6.02591 -3.94069,7.23109 -7.88139,12.5339 -8.34499,11.56973 -7.88136,10.60561 -9.27223,11.32872 -7.64957,8.43627 -6.72236,5.78488 -3.01346,2.89244 -1.62264,3.13347 -2.54986,3.61555 z"
       inkscape:connector-curvature="0"
       inkscape:label="#path4219" />
    <path
       style="fill:none;fill-rule:evenodd;stroke:#000000;stroke-width:1.25;stroke-linecap:butt;stroke-linejoin:miter;stroke-miterlimit:4;stroke-dasharray:none;stroke-opacity:1"
       d="m 342.17883,868.24927 c 3.65816,-3.25126 7.36255,-6.45051 11.11167,-9.59645 5.13648,-4.3101 10.35692,-8.52013 15.65737,-12.62691 l 21.2132,-14.14214 22.72843,-11.61675 19.1929,-7.07107 17.67767,-5.05076 18.68782,-3.03046 27.7792,0.50508 18.18274,2.0203 19.69798,4.04061 c 5.20698,2.21746 10.42621,4.40617 15.65736,6.56599 5.375,2.21921 10.7626,4.40793 16.16244,6.566 3.81027,2.54327 7.51816,5.23992 11.11168,8.08122 5.07443,4.01221 9.92271,8.31405 15.15229,12.12183 2.83222,2.06221 5.77105,3.97559 8.5863,6.06091 1.73292,1.28361 3.41806,2.63173 5.05076,4.04061 l 7.07107,1.51523 5.55584,3.53554 6.06091,7.07106 1.51523,6.56599 -3.03046,3.53554 -5.55584,4.54569 -7.57614,2.52538 c -2.52474,0.0695 -5.0514,0.0695 -7.57614,0 -2.86643,-0.0789 -5.73039,-0.24736 -8.5863,-0.50508 -2.51367,1.70107 -5.03913,3.38471 -7.57614,5.05076 -2.84952,1.87128 -5.71359,3.72035 -8.5863,5.55584 -3.18819,2.03706 -6.38707,4.0574 -9.59645,6.06092 -4.7031,2.21214 -9.41722,4.40084 -14.14214,6.56599 -5.20612,2.38566 -10.42535,4.74273 -15.65736,7.07107 l -17.67767,6.06091 -15.15229,3.53554 -13.63706,2.0203 -18.18274,1.51523 -12.62691,-1.51523 c -7.62869,-1.4343 -15.21027,-3.1191 -22.72843,-5.05076 -4.39064,-1.1281 -8.75916,-2.34024 -13.13199,-3.53554 -4.37279,-1.19529 -8.75016,-2.37381 -13.13198,-3.53553 -4.35859,-2.39159 -8.7361,-4.74872 -13.13198,-7.07107 -7.52327,-3.97456 -15.10034,-7.84729 -22.72843,-11.61675 l -12.12183,-8.08122 z"
       id="path4234"
       inkscape:path-effect="#path-effect4236"
       inkscape:original-d="m 342.17883,868.24927 11.11167,-9.59645 15.65737,-12.62691 21.2132,-14.14214 22.72843,-11.61675 19.1929,-7.07107 17.67767,-5.05076 18.68782,-3.03046 27.7792,0.50508 18.18274,2.0203 19.69798,4.04061 15.65736,6.56599 16.16244,6.566 11.11168,8.08122 15.15229,12.12183 8.5863,6.06091 5.05076,4.04061 7.07107,1.51523 5.55584,3.53554 6.06091,7.07106 1.51523,6.56599 -3.03046,3.53554 -5.55584,4.54569 -7.57614,2.52538 h -7.57614 l -8.5863,-0.50508 -7.57614,5.05076 -8.5863,5.55584 -9.59645,6.06092 -14.14214,6.56599 -15.65736,7.07107 -17.67767,6.06091 -15.15229,3.53554 -13.63706,2.0203 -18.18274,1.51523 -12.62691,-1.51523 -22.72843,-5.05076 -13.13199,-3.53554 -13.13198,-3.53553 -13.13198,-7.07107 -22.72843,-11.61675 -12.12183,-8.08122 z"
       inkscape:connector-curvature="0" />
    <path
       style="fill:none;fill-rule:evenodd;stroke:#000000;stroke-width:1.25;stroke-linecap:butt;stroke-linejoin:miter;stroke-miterlimit:4;stroke-dasharray:none;stroke-opacity:1"
       d="m 478.30194,838.1159 7.14286,0.71428 6.42857,1.78572 6.07143,3.92857 5.18004,5.0962 3.28299,5.3033 1.51523,8.33376 -0.25253,5.3033 -1.2627,4.79823 c -0.92596,1.43106 -1.85193,2.86212 -2.77791,4.29318 -0.92597,1.43104 -1.85194,2.86207 -2.77792,4.2931 l -3.53554,3.5355 -3.03046,2.0203 -4.29314,1.2627 -2.52539,1.5153 h -7.07106 l -5.05077,-0.7576 -5.80837,-2.0204 -5.55584,-3.0304 -3.78807,-3.7881 -3.283,-4.0406 -1.51523,-5.05075 -1.26269,-5.55584 v -5.3033 l 1.76777,-6.81853 2.52538,-4.29315 3.78807,-4.04061 4.29315,-3.78807 c 1.42291,-0.52775 2.8542,-1.03291 4.29315,-1.51523 1.59038,-0.53308 3.19012,-1.03826 4.79822,-1.51523 l 3.53554,-0.75761 z"
       id="path4262"
       inkscape:path-effect="#path-effect4264"
       inkscape:original-d="m 478.30194,838.1159 7.14286,0.71428 6.42857,1.78572 6.07143,3.92857 5.18004,5.0962 3.28299,5.3033 1.51523,8.33376 -0.25253,5.3033 -1.2627,4.79823 -2.77791,4.29318 -2.77792,4.2931 -3.53554,3.5355 -3.03046,2.0203 -4.29314,1.2627 -2.52539,1.5153 h -7.07106 l -5.05077,-0.7576 -5.80837,-2.0204 -5.55584,-3.0304 -3.78807,-3.7881 -3.283,-4.0406 -1.51523,-5.05075 -1.26269,-5.55584 v -5.3033 l 1.76777,-6.81853 2.52538,-4.29315 3.78807,-4.04061 4.29315,-3.78807 4.29315,-1.51523 4.79822,-1.51523 3.53554,-0.75761 z"
       inkscape:connector-curvature="0" />
    <path
       style="fill:none;fill-rule:evenodd;stroke:#000000;stroke-width:1.25;stroke-linecap:butt;stroke-linejoin:miter;stroke-miterlimit:4;stroke-dasharray:none;stroke-opacity:1"
       d="m 432.33494,813.70103 c -1.47607,1.63888 -2.93951,3.28913 -4.39014,4.95057 -0.83232,0.95327 -1.66044,1.91024 -2.5,2.85715 -1.39737,1.57604 -2.82632,3.12407 -4.28571,4.64285 -0.86837,1.58865 -1.70197,3.19631 -2.5,4.82143 -1.00983,2.05643 -1.96269,4.14083 -2.85714,6.25 l -2.5,4.64286 c -0.37662,2.19916 -0.73379,4.40166 -1.07143,6.60714 -0.38217,2.49634 -0.73934,4.99651 -1.07143,7.5 l -0.35714,6.96429 0.53571,6.96428 1.25,6.42858 1.96429,7.14285 3.03571,6.60715 4.64286,7.32143 c 2.23432,2.63676 4.5575,5.19822 6.96428,7.67857 2.08155,2.14518 4.22562,4.22969 6.42857,6.25 l 6.25,4.82143 6.96429,3.39285 c 2.56134,0.88763 5.12087,1.78049 7.67857,2.67857 2.02496,0.71102 4.04878,1.42531 6.07143,2.14286 2.25787,0.4382 4.51991,0.85489 6.78571,1.25 1.78345,0.311 3.56924,0.60863 5.35715,0.89286 h 5.17857"
       id="path4266"
       inkscape:path-effect="#path-effect4268"
       inkscape:original-d="m 432.33494,813.70103 -4.39014,4.95057 -2.5,2.85715 -4.28571,4.64285 -2.5,4.82143 -2.85714,6.25 -2.5,4.64286 -1.07143,6.60714 -1.07143,7.5 -0.35714,6.96429 0.53571,6.96428 1.25,6.42858 1.96429,7.14285 3.03571,6.60715 4.64286,7.32143 6.96428,7.67857 6.42857,6.25 6.25,4.82143 6.96429,3.39285 7.67857,2.67857 6.07143,2.14286 6.78571,1.25 5.35715,0.89286 h 5.17857"
       inkscape:connector-curvature="0" />
    <path
       style="fill:none;fill-rule:evenodd;stroke:#000000;stroke-width:1.25;stroke-linecap:butt;stroke-linejoin:miter;stroke-miterlimit:4;stroke-dasharray:none;stroke-opacity:1"
       d="m 521.15909,809.36589 c 1.62065,1.41328 3.22789,2.84194 4.82143,4.28571 1.56085,1.41415 3.10855,2.84281 4.64285,4.28572 l 6.42858,8.39286 c 1.08769,1.83573 2.15917,3.68106 3.21428,5.53571 1.21217,2.13071 2.40272,4.27371 3.57143,6.42857 l 1.78571,6.25 c 0.3951,1.71805 0.75236,3.44479 1.07143,5.17857 0.42517,2.31028 0.78251,4.63305 1.07143,6.96429 l 0.17857,9.28571 -0.71428,5.53572 c -0.5423,2.02206 -1.07802,4.04588 -1.60715,6.07143 -0.48166,1.84382 -0.95785,3.68907 -1.42857,5.53571 l -2.67857,5.89286 c -0.94957,1.54935 -1.90196,3.09697 -2.85714,4.64286 -1.06793,1.72836 -2.13936,3.45455 -3.21429,5.17857 l -6.78571,7.67857 c -1.56713,1.47275 -3.1751,2.90205 -4.82143,4.28571 -1.68684,1.41771 -3.41396,2.78749 -5.17857,4.10715 -1.61846,0.81127 -3.2258,1.64471 -4.82143,2.5 -2.04344,1.09533 -4.06767,2.22652 -6.07143,3.39285 l -5.53571,2.14286 c -2.07337,0.57352 -4.15716,1.10936 -6.25,1.60714 -0.7726,0.18376 -1.54643,0.36234 -2.32143,0.53572"
       id="path4270"
       inkscape:path-effect="#path-effect4272"
       inkscape:original-d="m 521.15909,809.36589 4.82143,4.28571 4.64285,4.28572 6.42858,8.39286 3.21428,5.53571 3.57143,6.42857 1.78571,6.25 1.07143,5.17857 1.07143,6.96429 0.17857,9.28571 -0.71428,5.53572 -1.60715,6.07143 -1.42857,5.53571 -2.67857,5.89286 -2.85714,4.64286 -3.21429,5.17857 -6.78571,7.67857 -4.82143,4.28571 -5.17857,4.10715 -4.82143,2.5 -6.07143,3.39285 -5.53571,2.14286 -6.25,1.60714 -2.32143,0.53572"
       inkscape:connector-curvature="0" />
    <path
       style="fill:none;fill-rule:evenodd;stroke:#000000;stroke-width:1.25;stroke-linecap:butt;stroke-linejoin:miter;stroke-miterlimit:4;stroke-dasharray:none;stroke-opacity:1"
       d="m 494.55358,158.96935 6.42857,2.85714 5,2.85715 4.42621,3.02302 5.50507,2.96175 4.7908,2.5 3.92857,3.9719 4.22443,4.11984 4.26777,5.2092 -0.35714,1.07143"
       id="path4194"
       inkscape:connector-curvature="0"
       sodipodi:nodetypes="cccccccccc" />
    <path
       id="C69.5"
       style="fill:none;fill-rule:evenodd;stroke:#000000;stroke-width:1.25;stroke-linecap:butt;stroke-linejoin:miter;stroke-miterlimit:4;stroke-dasharray:none;stroke-opacity:1"
       d="m 454.0073,771.1925 -0.8839,7.57615 -1.6415,3.28299 -1.8941,3.66181 -3.0304,6.06091 -2.2729,2.77792 -5.3033,1.76777 -3.5355,2.0203 -3.78806,3.53554 -7.57615,4.54568 -4.79822,2.27285 -5.80838,0.25253 -3.283,-2.0203 -7.3236,1.26269 -8.08122,1.51523 -6.56599,-0.25254 -6.06092,-1.01015 -2.77792,1.51523 -4.79822,4.29314 -4.79823,3.78808 -2.77792,2.27284 -0.80219,2.85976 -0.71428,3.57143 -1.78572,2.14285 -2.67857,2.5 -3.03571,2.14286 -3.75,1.60714 -2.14286,-1.07143 -3.21429,-0.89285 -3.57143,1.42857 -2.32142,2.85714 -1.78572,1.78572 -0.53571,3.03571 -0.53572,3.03571 -0.17857,1.07143 -0.89286,3.75 -3.39285,4.64286 -3.03572,4.28571 -3.57143,4.82143 -4.28571,4.28572 -4.28571,3.39285 -2.14286,1.25 -3.39286,-0.17857 -3.21428,-3.57143 -2.32143,-2.85714 -5.17857,-5.17857 -2.85715,-0.71429 h -3.75 l -2.14285,-0.71428 -2.14286,-2.67857 -2.14286,-4.82143 v -4.28572 l 3.21429,-3.75 3.57143,-4.10714 3.21428,-3.39286 0.89286,-4.28571 1.60714,-5.71429 2.5,-6.42857 4.64286,-4.64285 4.10714,-1.42858 4.46429,-2.85714 3.03571,-4.28571 4.10714,-5.89286 4.10715,-3.92857 5.71428,-2.32143 4.46429,-2.67857 6.07143,-4.82143 4.46428,-3.21429 4.10715,-2.5 8.25,-1.42857 4.25,0.53572 4.28571,2.5 4.64286,0.89285 3.92857,-1.60714 1.42857,-2.5 0.89286,-3.57143 1.25,-3.03571 0.71428,-1.42857 2.5,-1.07143 1.78572,0.53571 h 2.85714 l 5.89286,-2.67857 4.64285,-4.10714 8.39286,-5.71429 3.75,-2.67857 5.35714,-1.42857 3.57143,0.71429 3.92857,1.42857 2.67858,1.60714 3.3928,3.21429 3.75,3.57142 2.3215,2.67858 3.5714,0.89285 h 3.2143 l 3.75,0.35715 1.9643,0.17857 1.7857,1.07143 m 141.91769,76.19496 5.12386,-3.43933 5.80838,-3.03046 5.80838,-1.76776 7.82868,0.50507 2.52538,3.03046 5.05076,6.06091 7.32361,6.566 9.09137,9.34391 11.61676,11.36421 11.61675,8.33376 8.08122,5.05076 8.33376,4.29315 4.54569,1.26269 -0.25254,-6.06091 2.02028,-6.31346 2.2729,-5.3033 7.8286,-4.04061 3.7881,-0.25253 4.5457,1.26269 8.3338,3.03045 3.5355,3.03046 1.0101,3.53554 0.5051,9.59644 v 20.20306 l -1.0101,3.78807 -3.0305,4.29315 -4.0406,5.55584 -2.0203,4.29314 -0.5051,2.77792 1.5153,4.54569 3.0304,1.76777 4.2932,3.03045 2.5253,6.31346 0.5051,8.83883 1.01024,54.80076 -1.01024,6.566 -2.2728,5.5558 -2.7779,4.2932 -5.5559,3.0305 h -4.7982 l -8.3338,-1.7678 -6.3134,-3.7881 -2.7779,-4.0406 -1.7678,-4.2931 -1.51523,-6.061 -0.75762,-5.3033 -0.75761,-7.32357 1.51523,-46.46701 2.0203,-4.29315 3.03043,-4.29315 4.5457,-9.09137 2.2729,-4.79823 -0.2526,-3.78807 -2.0203,-3.78807 -3.5355,-5.05076 -3.53555,-5.05077 0.75765,-3.28299 -14.64725,2.77792 -11.11168,3.28299 -10.6066,2.27285 -11.36422,1.51523 -11.36421,0.75761 -10.6066,0.25254 -9.59645,0.50507 -7.32361,-1.01015 -8.08122,-2.0203 -5.3033,-3.53554 -4.29315,-5.3033 -11.11168,-12.6269 5.3033,-4.29315 7.32361,9.34391 10.85914,8.58629 12.12183,2.77792 13.38452,-0.50507 22.4759,-2.02031 17.42513,-2.77792 8.08122,-2.27284 5.55584,-2.77792 2.27284,-1.76777 -3.03046,-2.77792 -16.41498,-10.6066 -5.55583,-5.55584 -6.31346,-6.06091 -6.81853,-5.80838 -7.3236,-8.33376 -6.566,-8.08122 -5.80837,-5.05076 -5.05077,-2.27284 -8.83883,-1.51523 -4.54569,2.27284 -4.29314,2.77792 -5.55584,-4.04061"
       inkscape:label="#path4226"
       inkscape:connector-curvature="0"
       sodipodi:nodetypes="cccccccccccccccccccccccccccccccccccccccccccccccccccccccccccccccccccccccccccccccccccccccccccccccccccccccccccccccccccccccccccccccccccccccccccccccccccccccccccccccccccccccccccccccccccccccccccccc" />
    <path
       style="fill:none;fill-rule:evenodd;stroke:#000000;stroke-width:1.25;stroke-linecap:butt;stroke-linejoin:miter;stroke-miterlimit:4;stroke-dasharray:none;stroke-opacity:1"
       d="m 862.56925,103.13892 -0.51373,8.24106 v 7.75649 l 2.05495,7.2712 4.6236,8.72598 5.13738,7.27163 6.67855,6.7865 7.19227,5.3326 9.24723,4.8476 9.24723,2.4239 9.24724,0.9696 h 10.27471 l 6.67855,-0.485 11.30216,-2.9085 8.21977,-3.8781 6.16482,-3.8781 6.16481,-4.848 4.10988,-4.8475 5.65113,-10.18016 3.0824,-7.27149 1.5412,-6.30168 v -9.21058 l -4.6236,-16.482138 -3.59619,-6.78696 -4.10989,-5.817096 -6.67852,-5.81718 -6.16484,-3.87812 -5.13733,-2.9086 -5.6511,-2.90862 -6.67854,-1.93906 -8.21976,-1.45431 -7.19233,-0.48476 -9.24721,0.96955 -9.24725,1.93908 -7.19228,2.90858 -7.19229,2.90862 -8.21976,6.78672 -5.13733,4.84761 -4.62362,5.332516 -3.59615,6.78661 -2.56867,4.84759 z"
       id="C69.8"
       inkscape:connector-curvature="0"
       inkscape:label="#path4217" />
    <path
       style="fill:none;fill-rule:evenodd;stroke:#000000;stroke-width:1.25;stroke-linecap:butt;stroke-linejoin:miter;stroke-miterlimit:4;stroke-dasharray:none;stroke-opacity:1"
       d="m 909.80479,95.556372 -0.36308,3.42793 0.36308,5.141708 3.81432,4.11315 5.08571,2.74234 4.35917,2.22823 4.54083,2.74198 3.81427,2.74235 2.90613,4.28498 1.45307,5.31284 -0.90817,5.82726 -3.08776,4.79924 -5.08571,2.7422 -5.63062,0.1722 -4.54082,-0.8571 -5.08573,-3.08497 -2.72448,-4.1134 -0.7265,-5.65586 0.54489,-5.1417 2.90613,-4.45613 3.9959,-3.0853 3.99592,-1.71379 6.17552,-2.05641 4.35919,-2.9138 3.26938,-4.11351 1.63473,-5.484328 -0.90817,-4.97021 -3.63265,-4.285 -5.08573,-2.39937 -5.449,-0.17219 -5.44898,1.54266 -3.08776,3.42757 z"
       id="path4230"
       inkscape:connector-curvature="0"
       sodipodi:nodetypes="ccccccccccccccccccccccccccccccccc" />
    <path
       style="fill:none;fill-rule:evenodd;stroke:#000000;stroke-width:1.25;stroke-linecap:butt;stroke-linejoin:miter;stroke-miterlimit:4;stroke-dasharray:none;stroke-opacity:1"
       d="m 863.83087,221.97233 -0.5049,8.24253 v 7.75769 l 2.01966,7.27283 4.54424,8.72736 5.04919,7.2729 6.56391,6.78796 7.06881,5.33343 9.08852,4.84855 9.08848,2.42419 9.08851,0.96979 h 10.09834 l 6.56391,-0.4849 11.10815,-2.90908 8.07867,-3.87888 6.059,-3.87891 6.05901,-4.84848 4.03934,-4.84856 5.55409,-10.18192 3.0295,-7.27286 1.5147,-6.30312 v -9.21227 l -4.5442,-16.4851 -3.53443,-6.78795 -4.03932,-5.81828 -6.56392,-5.81826 -6.05901,-3.87885 -5.04915,-2.90912 -5.5541,-2.90915 -6.5639,-1.93942 -8.07867,-1.45457 -7.06886,-0.48486 -9.08848,0.96973 -9.08852,1.93942 -7.06882,2.90912 -7.06884,2.90915 -8.07866,6.78797 -5.04915,4.84857 -4.54425,5.33338 -3.53442,6.788 -2.52458,4.84854 z"
       id="C69.9"
       inkscape:connector-curvature="0"
       inkscape:label="#path4217-8" />
    <path
       id="path4223"
       style="fill:none;fill-rule:evenodd;stroke:#000000;stroke-width:1.25;stroke-linecap:butt;stroke-linejoin:miter;stroke-miterlimit:4;stroke-dasharray:none;stroke-opacity:1"
       d="m 933.00877,230.03496 c 0.72466,2.8702 0.51373,2.07362 0.50052,3.14657 -0.0842,6.84131 0.1453,3.45895 -0.0688,5.71631 l -0.0835,4.37325 -0.65576,4.34858 -2.51056,4.02217 -4.57989,3.12452 -5.891,2.22853 c -2.26121,0.45709 -4.15665,1.28219 -7.14059,0.85714 l -7.6545,-2.11384 c 0,0 1.07107,0.2573 1.40644,-0.45795 m 2.10492,-49.71207 -3.31255,4.28553 -1.66486,5.65694 -0.34003,5.31409 1.21525,5.65696 4.00274,4.97126 4.93636,2.39992 4.75783,0.51427 6.22631,-0.89516 c 1.72891,-0.45779 5.11184,-1.32978 5.11184,-1.32978 -0.15994,-0.3989 4.13106,-0.27168 4.09753,-1.53404 -0.12407,-4.66901 -0.12736,-7.81911 0.0531,-11.49766 0.17971,3.79048 -0.0147,-8.17113 -2.96602,-10.45674 l -4.95354,-4.457 -5.29339,-1.71421 -6.88285,0.5141 z"
       inkscape:connector-curvature="0"
       sodipodi:nodetypes="csccccccccccccccccccsscccccc" />
  </g>
</svg>
