<?xml version="1.0" encoding="UTF-8" standalone="no"?>
<!-- Created with Inkscape (http://www.inkscape.org/) -->

<svg
   id="svg4136"
   version="1.1"
   inkscape:version="1.3 (0e150ed, 2023-07-21)"
   width="700"
   height="750"
   viewBox="0 0 700 750"
   sodipodi:docname="level3_C17_neu.svg"
   xmlns:inkscape="http://www.inkscape.org/namespaces/inkscape"
   xmlns:sodipodi="http://sodipodi.sourceforge.net/DTD/sodipodi-0.dtd"
   xmlns="http://www.w3.org/2000/svg"
   xmlns:svg="http://www.w3.org/2000/svg"
   xmlns:rdf="http://www.w3.org/1999/02/22-rdf-syntax-ns#"
   xmlns:cc="http://creativecommons.org/ns#"
   xmlns:dc="http://purl.org/dc/elements/1.1/">
  <metadata
     id="metadata4142">
    <rdf:RDF>
      <cc:Work
         rdf:about="">
        <dc:format>image/svg+xml</dc:format>
        <dc:type
           rdf:resource="http://purl.org/dc/dcmitype/StillImage" />
      </cc:Work>
    </rdf:RDF>
  </metadata>
  <defs
     id="defs4140" />
  <sodipodi:namedview
     pagecolor="#ffffff"
     bordercolor="#666666"
     borderopacity="1"
     objecttolerance="10"
     gridtolerance="10"
     guidetolerance="10"
     inkscape:pageopacity="0"
     inkscape:pageshadow="2"
     inkscape:window-width="1344"
     inkscape:window-height="759"
     id="namedview4138"
     showgrid="false"
     inkscape:zoom="0.73574361"
     inkscape:cx="377.16943"
     inkscape:cy="400.95489"
     inkscape:window-x="0"
     inkscape:window-y="25"
     inkscape:window-maximized="0"
     inkscape:current-layer="svg4136"
     inkscape:showpageshadow="2"
     inkscape:pagecheckerboard="0"
     inkscape:deskcolor="#d1d1d1"
     showguides="false" />
  <path
     style="fill:none;fill-rule:evenodd;stroke:#000000;stroke-width:1;stroke-linecap:butt;stroke-linejoin:miter;stroke-miterlimit:4;stroke-dasharray:none;stroke-opacity:1"
     d="m 259.33615,280.17007 c -1.06695,-2.98893 -1.87773,-6.0116 -2.33034,-7.89142 -0.38651,-2.12366 -0.62821,-4.16023 -0.58204,-6.33916 0.64283,-6.91119 0.92838,-8.49948 3.28714,-12.31499 -9.37841,-6.52339 -17.75626,-6.7211 -26.60759,-4.97113 -8.69023,1.71812 -15.95733,8.271 -22.30064,14.45441 -5.90412,5.75529 -10.03182,13.16759 -13.97907,20.40645 -2.77615,5.09118 -7.27379,15.24214 -8.8446,23.44605 -0.56288,6.76024 0.005,13.60492 0.23845,20.3813 0,0 14.30908,-4.25799 21.47902,-3.2462 3.9903,0.56309 7.28515,3.45156 10.98704,5.04391 3.40185,1.46329 7.00342,2.47189 10.30862,4.14207 3.42044,1.72842 6.14632,4.8251 9.77905,6.04582 4.02289,1.35182 8.89808,-0.73268 12.67486,1.20304 2.11847,1.08578 3.39118,3.38868 4.69925,5.37759 1.20664,1.83469 2.83769,5.94524 2.83769,5.94524 0,0 5.53195,-4.53128 8.48035,-6.54587 2.49529,-1.70499 4.94473,-3.59864 7.76954,-4.67286 3.22295,-1.22562 6.72042,-1.81198 10.16726,-1.90595 5.12173,-0.13963 10.14023,1.50682 15.23961,2.00473 3.99626,0.3902 8.13037,-0.22289 12.02124,0.76881 3.22419,0.82178 6.0564,2.75879 9.05108,4.20882 2.82923,1.36991 5.59303,2.87228 8.42226,4.24219 1.49734,0.72501 4.52553,2.10439 4.52553,2.10439 0,0 6.41095,-3.74546 9.81234,-5.20983 3.2022,-1.37862 6.60095,-2.24665 9.9116,-3.33946 2.7664,-0.91316 5.69238,-1.4219 8.31589,-2.6884 2.54372,-1.22798 4.42578,-3.66285 7.05618,-4.69214 4.52131,-1.76921 9.5535,-1.79422 14.38135,-2.3083 4.38287,-0.46671 8.79874,-0.83446 13.20435,-0.70072 4.58849,0.13928 9.25623,0.34671 13.68287,1.56263 2.9593,0.81288 5.71014,2.29244 8.39742,3.77458 2.15851,1.19051 4.02454,2.8611 6.16292,4.0874 1.66781,0.95644 3.44726,1.70364 5.17908,2.53862 2.36435,1.13995 4.8848,1.98975 7.1151,3.37373 2.61173,1.62067 4.8421,3.78772 7.23917,5.71171 1.99073,1.59784 5.93196,4.84324 5.93196,4.84324 0,0 7.6557,-2.80247 11.30208,-4.60655 4.11148,-2.03419 8.21799,-4.19086 11.86055,-6.97903 3.17299,-2.42874 8.56615,-8.38576 8.56615,-8.38576 0,0 -7.57901,-5.7074 -11.1855,-8.78463 -3.71311,-3.1682 -8.40953,-8.46627 -15.85998,-13.69469 -3.35099,-2.35158 -6.72167,-4.75158 -10.43266,-6.48005 -5.09981,-2.37535 -10.50492,-4.24941 -16.04207,-5.24454 -9.95851,-1.78974 -19.65713,-1.81829 -30.3303,-1.20385 -7.54992,0.43464 -15.0793,1.22369 -22.58644,2.13642 -9.83666,1.19596 -19.71179,2.22864 -29.40376,4.37384 -4.98211,1.17792 -9.93941,2.54603 -14.72584,4.36234 -8.31449,3.15512 -16.11054,7.53607 -24.16768,11.3001 -7.1775,3.3531 -13.73461,7.86635 -21.53583,10.05217 -6.93427,1.80972 -13.96415,4.03398 -21.13037,3.96739 -4.53225,-0.0421 -9.03927,-1.25301 -13.3149,-2.75704 -3.72366,-1.30987 -7.55267,-2.81374 -10.54547,-5.38756 -2.951,-2.53788 -5.33155,-5.88495 -6.8089,-9.48588 -1.54857,-3.77453 -1.8025,-8.01213 -1.90269,-12.09074 -0.0971,-3.9514 0.12488,-8.0057 1.26598,-11.78999 0.83649,-2.7741 2.18578,-5.45947 4.00444,-7.7151 1.64175,-2.03621 3.79713,-3.66328 6.03965,-5.00962 4.08289,-2.45124 13.2196,-5.41753 13.2196,-5.41753 z"
     id="C17.0"
     inkscape:connector-curvature="0"
     inkscape:label="C17.0 Duodenum"
     sodipodi:nodetypes="ccccaaaacaaaaaacaaaaaaacaaaaaaaaaaaacaacaaaaaaaaaaaaaaaaaac" />
  <path
     style="opacity:1;fill:none;fill-rule:evenodd;stroke:#000000;stroke-width:1;stroke-linecap:butt;stroke-linejoin:miter;stroke-miterlimit:4;stroke-dasharray:none;stroke-opacity:1"
     d="m 188.21746,327.34158 c -6.84667,2.96956 -10.85322,7.63358 -12.52109,13.55387 -1.32657,4.70879 -0.0186,7.17043 2.86684,14.39354 0,0 -3.77845,6.27628 -5.16271,9.65223 -1.19347,2.91063 -2.09725,5.95837 -2.67244,9.05115 -0.86387,4.64503 -1.6679,9.43266 -1.14193,14.12797 0.37668,3.36256 1.98806,6.46891 3.03623,9.68606 1.20513,3.69888 2.42128,7.39532 3.73943,11.05544 1.38932,3.85774 2.32635,7.94831 4.39301,11.48967 2.84079,4.86788 10.7801,13.02638 10.7801,13.02638 4.10158,-2.24891 7.57738,-4.95 12.90658,-6.31185 5.6439,-1.16315 11.28513,-2.60201 16.95221,-1.36854 4.2545,1.15448 8.51801,2.43033 12.8734,4.94384 l 9.8287,6.98102 c 0,0 0.11832,-6.75698 1.90143,-9.41696 2.06497,-3.08045 5.82334,-4.88812 9.2513,-6.18005 3.74307,-1.41069 7.70374,-1.20381 11.89719,-1.56924 2.92602,-0.25498 5.85283,-0.32196 8.80298,-0.46715 2.03634,-0.10022 6.0073,1.15014 6.0073,1.15014 0,0 2.36235,7.95909 4.72311,10.94107 2.55568,3.22819 9.85356,7.44861 9.85356,7.44861 4.55587,0.0931 8.77511,-1.07085 13.15473,-1.63589 3.57667,-0.83622 7.1502,-1.69196 10.51557,-3.84042 l 4.73249,-5.87808 7.47307,-7.76947 c 4.69682,4.85872 7.16144,5.8878 10.43672,8.09123 l 8.94557,6.69351 c 5.66166,1.74191 8.512,-1.357 12.47632,-2.53776 l 8.65406,-3.27271 8.55475,-5.14309 4.85656,-3.54008 9.20836,-4.70888 c 4.28475,-1.45531 8.6256,-2.63936 13.31431,-2.14172 5.65537,-0.0897 11.405,1.69034 14.8378,4.32241 1.46162,0.75589 2.95977,2.29548 4.70158,9.06073 0.72962,3.82063 1.06819,7.62947 0.78376,11.4195 l 0.29137,10.70699 0.5211,9.81948 22.83457,2.53953 c 6.1449,1.24519 12.07359,1.1837 18.50756,4.17589 1.87717,1.01176 3.66554,2.23641 5.25356,3.94144 0,0 9.41861,-5.1589 13.4113,-8.68321 3.68545,-3.25312 6.80249,-7.1723 9.48977,-11.28859 2.34732,-3.59556 3.64002,-7.78418 5.69225,-11.55596 1.79784,-3.30424 4.54298,-6.13714 5.79149,-9.68558 1.24112,-3.52746 2.1574,-7.42392 1.54018,-11.11206 -0.71766,-4.28832 -3.11768,-8.29207 -5.89995,-11.63329 -2.46766,-2.9634 -6.35388,-4.41222 -9.19992,-7.01435 -2.6838,-2.45379 -7.36325,-8.04968 -7.36325,-8.04968 0,0 2.37733,-6.00647 4.60842,-8.21609 2.81343,-2.78636 7.29182,-3.27835 10.41628,-5.71082 2.30355,-1.79337 4.9693,-3.66818 5.96522,-6.41239 0.95845,-2.64098 0.41206,-5.74164 -0.44665,-8.41671 -1.04162,-3.24488 -3.11395,-6.18574 -5.50171,-8.61736 -2.74893,-2.79942 -6.59939,-4.24963 -9.80388,-6.5134 -3.57615,-2.52632 -10.50715,-7.88287 -10.50715,-7.88287 0,0 -5.38703,5.96504 -8.56615,8.38576 -3.90599,2.97419 -8.31923,5.25203 -12.73136,7.40508 -3.36649,1.64279 -10.43127,4.1805 -10.43127,4.1805 0,0 -5.87821,-4.95053 -8.89499,-7.32944 -1.40196,-1.10553 -2.75021,-2.29855 -4.27614,-3.22551 -3.71958,-2.25954 -7.98496,-3.49924 -11.78171,-5.62655 -2.45847,-1.37746 -4.60181,-3.2821 -7.09061,-4.60397 -2.62706,-1.3953 -5.3425,-2.71602 -8.21735,-3.47995 -4.21706,-1.12059 -8.63771,-1.38379 -12.99786,-1.55228 -4.16438,-0.16092 -8.34437,0.11008 -12.49163,0.52016 -5.27856,0.52194 -10.80728,0.46652 -15.7209,2.46451 -2.21074,0.89894 -3.71225,3.06082 -5.83987,4.14189 -5.72349,2.90818 -12.35169,3.61226 -18.26186,6.11938 -3.74053,1.58674 -10.81731,5.6187 -10.81731,5.6187 l -12.2942,-5.91224 c -3.2883,-1.84335 -6.59637,-3.79612 -9.70467,-4.64316 -4.6664,-1.01572 -9.18183,-0.49861 -13.74491,-0.97706 -6.65799,-1.2338 -10.4294,-1.71765 -13.51594,-1.79648 -3.44078,0.21571 -6.67849,0.50008 -10.25493,1.91068 -3.13056,1.28654 -5.22181,3.06453 -7.68187,4.66813 l -8.5956,6.65461 c 0,0 -1.40744,-3.94988 -2.51555,-5.70993 -1.33856,-2.12607 -2.73878,-4.45102 -4.90614,-5.72164 -2.16095,-1.26686 -10.49975,-0.47304 -11.80716,-0.9647 -4.56684,-1.41306 -7.32461,-4.12092 -10.80209,-6.3783 l -12.33319,-4.99096 c -3.03705,-1.79087 -6.11533,-3.91792 -8.95917,-4.13305 -4.3463,-0.59913 -9.0229,0.7867 -13.56028,1.33584 z"
     id="C17.1"
     inkscape:connector-curvature="0"
     inkscape:label="C17.1 Jejunum"
     sodipodi:nodetypes="cacaaaaaacccccassscscccccccccccccccccccccaaaaaaacaaaaaacaacaaaaaaaaaaccccccccascccccc" />
  <path
     style="fill:none;fill-rule:evenodd;stroke:#000000;stroke-width:1;stroke-linecap:butt;stroke-linejoin:miter;stroke-miterlimit:4;stroke-dasharray:none;stroke-opacity:1"
     d="m 191.86803,433.23469 c -3.35222,2.08828 -7.55503,3.70727 -9.41743,7.19006 -1.70439,3.18732 -0.75805,7.20774 -0.68686,10.82145 0.0831,4.21867 0.67054,8.4192 1.29877,12.59166 0.65742,4.36629 1.29009,8.77006 2.5811,12.99262 1.45445,4.7571 3.12857,9.54858 5.7747,13.76088 2.33305,3.71393 5.27794,7.13519 8.72002,9.85336 6.15853,4.86331 13.63739,7.80937 20.7661,11.08973 4.81377,2.21511 9.62682,4.67402 14.80933,5.77887 4.53922,0.96771 8.80913,1.0431 13.49901,1.62206 2.16578,0.26737 6.24132,2.0195 6.24132,2.0195 0,0 -4.87631,1.91085 -7.44612,2.27078 -4.37597,0.61291 -8.86413,-0.73838 -13.25399,-0.23446 -4.03702,0.46342 -8.56121,0.54823 -11.82278,2.97195 -3.32122,2.46805 -4.96127,6.76371 -6.37062,10.65415 -1.0326,2.85044 -1.64186,5.96121 -1.41489,8.98441 0.31381,4.17994 1.15762,8.72787 3.78907,11.99067 2.35136,2.91551 6.29141,4.15068 9.75424,5.57822 8.36917,3.45016 17.92153,3.447 26.22665,7.04861 3.75583,1.62876 6.98857,4.2671 10.43268,6.48008 3.52085,2.26228 6.65857,5.19193 10.45748,6.94765 5.64372,2.60833 11.47058,4.08236 17.68366,4.31159 12.30839,0.45411 23.90203,-3.5028 34.64639,-9.52455 3.54642,-1.98762 10.12608,-6.07292 10.12608,-6.07292 0,0 0.0384,-7.67165 -1.23751,-11.20675 -1.54274,-4.27457 -7.50266,-11.38322 -7.50266,-11.38322 0,0 6.59134,8.22992 11.23891,10.26565 6.21163,2.72083 20.26981,1.73781 20.26981,1.73781 l 13.12994,-2.10348 15.52098,-4.57499 14.8922,-4.54159 14.86739,-5.00916 16.05049,-6.47868 16.03842,-4.70346 c 0,0 6.0533,-7.55568 7.66514,-12.02853 0.80639,-2.23774 0.88534,-7.08068 0.88534,-7.08068 0,0 7.7367,-4.86186 10.92099,-8.08213 2.11521,-2.1391 3.56291,-4.84889 5.28681,-7.31426 1.79439,-2.56617 4.15469,-4.85284 5.26203,-7.78181 1.23458,-3.26553 1.77394,-6.92312 1.34043,-10.38721 -0.24537,-1.96072 -1.26873,-3.75983 -2.18412,-5.51103 -1.18044,-2.25826 -2.50958,-4.48722 -4.22759,-6.36913 -1.40805,-1.54239 -3.26279,-3.01569 -5.14603,-3.91846 -5.65753,-2.71206 -11.93075,-3.01967 -18.11799,-4.05938 -7.71744,-1.29684 -23.31931,-2.71582 -23.31931,-2.71582 0,0 -0.46503,-9.93555 -0.69883,-14.90327 -0.26643,-5.66102 0.59507,-11.49059 -0.80223,-16.98292 -0.82206,-3.23124 -1.43052,-6.1761 -3.90981,-8.40541 -3.93882,-3.54168 -10.34232,-4.65724 -15.62957,-4.97773 -4.87861,-0.29572 -9.49614,0.54574 -14.07225,2.26258 -2.73006,1.02425 -5.20353,2.64398 -7.70191,4.14745 -3.24723,1.95412 -6.22749,4.32727 -9.45071,6.32074 -1.53942,0.95209 -3.08492,1.90738 -4.71698,2.69011 -2.66121,1.27631 -5.40952,2.40064 -8.23549,3.25207 -4.15512,1.25189 -8.99458,4.90384 -12.73503,2.70355 -3.21215,-1.88952 -7.90757,-6.2863 -12.65945,-9.07913 -2.64881,-1.55678 -6.87483,-5.73787 -6.87483,-5.73787 0,0 -5.78442,5.71676 -8.47626,8.7605 -1.4183,1.60371 -2.29076,3.75572 -4.03522,4.99682 -2.96778,2.11145 -6.74812,2.81579 -10.28183,3.69829 -4.21313,1.05218 -12.89241,1.87182 -12.89241,1.87182 0,0 -7.70182,-4.71554 -10.37491,-8.22787 -2.27256,-2.98606 -4.3919,-10.36538 -4.3919,-10.36538 l -5.42909,-1.15388 c 0,0 -5.28041,0.20962 -7.85737,0.35372 -4.46221,0.24952 -9.20987,0.14402 -13.42101,1.68641 -3.48231,1.27545 -7.21066,3.08343 -9.2513,6.18005 -1.79091,2.71765 -1.78149,9.60016 -1.78149,9.60016 l -10.04344,-7.22132 c 0,0 -8.24018,-4.29432 -12.75267,-4.95023 -5.65987,-0.82269 -11.59172,-0.13765 -17.10099,1.39824 -4.46635,1.24514 -8.5151,3.75081 -12.4506,6.20244 z"
     id="C17.2"
     inkscape:connector-curvature="0"
     inkscape:label="C17.2 Ileum"
     sodipodi:nodetypes="sssssssssscsssssssssssscscscccccccacsssssssscssssssssssscssscaccssaccsss" />
  <path
     style="fill:none;fill-rule:evenodd;stroke:#000000;stroke-width:1;stroke-linecap:butt;stroke-linejoin:miter;stroke-miterlimit:4;stroke-dasharray:none;stroke-opacity:1"
     d="m 189.02916,350.5134 c 0,0 6.26318,3.92532 9.72946,5.11064 3.26224,1.11555 6.8021,1.13651 10.18456,1.80409 4.05658,0.80063 12.12049,2.6392 12.12049,2.6392 0,0 -4.55803,5.48659 -5.84117,8.75037 -1.81154,4.60781 -1.50872,9.7875 -2.37465,14.66231 -0.75957,4.27605 -2.74452,8.45739 -2.4739,12.79194 0.30215,4.83949 2.34451,9.49267 4.51708,13.82763 1.23845,2.4711 2.61596,5.05279 4.77364,6.78037 5.08487,4.07128 11.59489,6.62791 18.05252,7.48245 6.05198,0.80086 17.85802,-2.45307 17.85802,-2.45307"
     id="path4152"
     inkscape:connector-curvature="0"
     sodipodi:nodetypes="csscssssssc" />
  <path
     style="fill:none;fill-rule:evenodd;stroke:#000000;stroke-width:1;stroke-linecap:butt;stroke-linejoin:miter;stroke-miterlimit:4;stroke-dasharray:none;stroke-opacity:1"
     d="m 275.69502,419.6982 3.00053,-7.35759 3.26044,8.79849 z"
     id="path4154"
     inkscape:connector-curvature="0"
     sodipodi:nodetypes="cccc" />
  <path
     style="fill:none;fill-rule:evenodd;stroke:#000000;stroke-width:1;stroke-linecap:butt;stroke-linejoin:miter;stroke-miterlimit:4;stroke-dasharray:none;stroke-opacity:1"
     d="m 293.54351,370.54205 3.64752,7.8273 0.18491,0.15601 6.92363,-6.74974 z"
     id="path4156"
     inkscape:connector-curvature="0"
     sodipodi:nodetypes="ccccc" />
  <path
     style="fill:none;fill-rule:evenodd;stroke:#000000;stroke-width:1;stroke-linecap:butt;stroke-linejoin:miter;stroke-miterlimit:4;stroke-dasharray:none;stroke-opacity:1"
     d="m 345.29704,372.23113 -3.07789,13.29282 16.19937,-3.67311 z"
     id="path4158"
     inkscape:connector-curvature="0" />
  <path
     style="fill:none;fill-rule:evenodd;stroke:#000000;stroke-width:1;stroke-linecap:butt;stroke-linejoin:miter;stroke-miterlimit:4;stroke-dasharray:none;stroke-opacity:1"
     d="m 260.89694,351.96014 c 0,0 -1.95042,6.5303 -2.53675,9.87928 -0.73484,4.19722 -1.12628,8.46508 -1.21636,12.72519 -0.0528,2.49678 0.3933,4.98415 0.397,7.48149 0.003,2.03992 0.51945,4.24672 -0.30616,6.11211 -1.60238,3.62043 -6.28856,5.05526 -8.3811,8.41627 -0.88955,1.42879 -1.63821,4.77607 -1.63821,4.77607"
     id="path4160"
     inkscape:connector-curvature="0"
     sodipodi:nodetypes="csssssc" />
  <path
     style="fill:none;fill-rule:evenodd;stroke:#000000;stroke-width:1;stroke-linecap:butt;stroke-linejoin:miter;stroke-miterlimit:4;stroke-dasharray:none;stroke-opacity:1"
     d="m 380.59158,360.04206 c 0,0 3.34246,4.92954 5.98157,5.77844 4.81602,1.54912 10.02929,-3.05443 15.01627,-2.20363 3.61118,0.61608 7.58348,2.14168 9.72949,5.11066 2.20817,3.05498 1.87589,7.38614 1.85307,11.15554 -0.0223,3.68674 -1.52725,7.22503 -1.94439,10.88816 -0.69241,6.08048 -3.93347,13.01069 -0.91863,18.33633 1.93294,3.41448 6.58244,4.57026 10.3831,5.54489 4.68588,1.20164 9.70468,0.71146 14.51153,0.16773 3.39411,-0.38393 7.42981,-0.11093 9.96122,-2.40426 2.87468,-2.60432 2.70951,-7.27489 3.83072,-10.98826 1.41854,-4.69814 3.172,-9.37786 3.65707,-14.26146 0.3394,-3.41704 -0.36393,-6.85806 -0.5459,-10.28709 -0.1158,-2.18211 0.33339,-4.46991 -0.3474,-6.54633 -1.68844,-5.14979 -5.3974,-9.47434 -8.91859,-13.59409 -1.35625,-1.5868 -4.63722,-4.20858 -4.63722,-4.20858"
     id="path4162"
     inkscape:connector-curvature="0"
     sodipodi:nodetypes="cssssssssssssssc" />
  <path
     style="fill:none;fill-rule:evenodd;stroke:#000000;stroke-width:1;stroke-linecap:butt;stroke-linejoin:miter;stroke-miterlimit:4;stroke-dasharray:none;stroke-opacity:1"
     d="m 452.76657,358.78003 c 0,0 4.54922,5.86436 7.62192,7.81241 2.10423,1.33405 4.6654,1.76984 7.06548,2.4385 2.30395,0.64188 7.01583,1.50335 7.01583,1.50335"
     id="path4164"
     inkscape:connector-curvature="0"
     sodipodi:nodetypes="cssc" />
  <path
     style="fill:none;fill-rule:evenodd;stroke:#000000;stroke-width:1;stroke-linecap:butt;stroke-linejoin:miter;stroke-miterlimit:4;stroke-dasharray:none;stroke-opacity:1"
     d="m 450.5767,395.0243 c 0,0 2.5551,7.96451 4.37563,11.71416 1.54816,3.18865 3.223,6.39086 5.52651,9.08496 2.81074,3.28733 6.00156,6.5172 9.90317,8.38382 4.68157,2.23977 10.10401,2.72235 15.28921,2.93996 2.94,0.12338 8.77815,-0.93474 8.77815,-0.93474"
     id="path4166"
     inkscape:connector-curvature="0"
     sodipodi:nodetypes="cssssc" />
  <path
     style="fill:none;fill-rule:evenodd;stroke:#000000;stroke-width:1;stroke-linecap:butt;stroke-linejoin:miter;stroke-miterlimit:4;stroke-dasharray:none;stroke-opacity:1"
     d="m 445.47751,412.09175 c 0,0 4.36502,7.16275 6.54582,10.74517 1.84314,3.02774 3.31264,6.31676 5.52653,9.08498 1.7315,2.16505 4.25006,3.61341 5.98156,5.77846 2.21388,2.76821 2.77374,6.8519 5.52653,9.08493 1.58729,1.28759 3.20287,1.10614 5.78311,2.03767"
     id="path4168"
     inkscape:connector-curvature="0"
     sodipodi:nodetypes="cssssc" />
  <path
     style="fill:none;fill-rule:evenodd;stroke:#000000;stroke-width:1;stroke-linecap:butt;stroke-linejoin:miter;stroke-miterlimit:4;stroke-dasharray:none;stroke-opacity:1"
     d="m 470.52861,424.13728 c 0,0 -2.99793,4.76806 -4.17587,7.31746 -0.95794,2.07327 -2.33058,6.44307 -2.33058,6.44307"
     id="path4170"
     inkscape:connector-curvature="0"
     sodipodi:nodetypes="csc" />
  <path
     style="fill:none;fill-rule:evenodd;stroke:#000000;stroke-width:1;stroke-linecap:butt;stroke-linejoin:miter;stroke-miterlimit:4;stroke-dasharray:none;stroke-opacity:1"
     d="m 355.60515,412.01051 c 0,0 8.85266,1.09248 13.30365,1.16966 5.24641,0.091 10.50039,-0.29181 15.71949,-0.83417 4.61635,-0.47973 9.52704,-0.23054 13.75869,-2.13685 2.86178,-1.2892 5.8304,-3.21095 7.2476,-6.01155 0.85099,-1.68169 0.33102,-5.64453 0.33102,-5.64453 v 0"
     id="path4172"
     inkscape:connector-curvature="0"
     sodipodi:nodetypes="csssssc" />
  <path
     style="fill:none;fill-rule:evenodd;stroke:#000000;stroke-width:1;stroke-linecap:butt;stroke-linejoin:miter;stroke-miterlimit:4;stroke-dasharray:none;stroke-opacity:1"
     d="m 385.08383,373.4021 c 0,0 -4.66859,7.17248 -8.35626,8.88388 -3.23654,1.50203 -7.12745,0.77929 -10.68924,0.56727 -2.79412,-0.16632 -8.2734,-1.43663 -8.2734,-1.43663"
     id="path4174"
     inkscape:connector-curvature="0"
     sodipodi:nodetypes="cssc" />
  <path
     style="fill:none;fill-rule:evenodd;stroke:#000000;stroke-width:1;stroke-linecap:butt;stroke-linejoin:miter;stroke-miterlimit:4;stroke-dasharray:none;stroke-opacity:1"
     d="m 283.10592,364.74641 c 0,0 4.07128,3.7348 6.56072,4.80989 2.57619,1.11255 5.50925,1.07513 8.27836,1.52962 2.40791,0.39521 5.59887,-0.1021 7.79224,0.96717 2.64679,1.2903 5.82901,6.18824 5.82901,6.18824 v 0"
     id="path4176"
     inkscape:connector-curvature="0"
     sodipodi:nodetypes="cssssc" />
  <path
     style="fill:none;fill-rule:evenodd;stroke:#000000;stroke-width:1;stroke-linecap:butt;stroke-linejoin:miter;stroke-miterlimit:4;stroke-dasharray:none;stroke-opacity:1"
     d="m 297.17837,378.53594 c 0,0 -4.9265,6.0868 -7.17275,9.28993 -1.87011,2.66677 -4.28777,5.13372 -5.23718,8.24942 -0.77586,2.54614 0.99504,5.60759 -0.20685,7.98251 -0.97253,1.92171 -4.00775,2.10709 -5.10557,3.96008 -0.72536,1.22434 -0.67435,4.21564 -0.67435,4.21564"
     id="path4178"
     inkscape:connector-curvature="0"
     sodipodi:nodetypes="cssssc" />
  <path
     style="fill:none;fill-rule:evenodd;stroke:#000000;stroke-width:1;stroke-linecap:butt;stroke-linejoin:miter;stroke-miterlimit:4;stroke-dasharray:none;stroke-opacity:1"
     d="m 328.14439,400.52623 -5.56944,4.2744 5.90283,2.00771 z"
     id="path4180"
     inkscape:connector-curvature="0" />
  <path
     style="fill:none;fill-rule:evenodd;stroke:#000000;stroke-width:1;stroke-linecap:butt;stroke-linejoin:miter;stroke-miterlimit:4;stroke-dasharray:none;stroke-opacity:1"
     d="m 394.54474,416.34986 c 0,0 -4.89347,4.99274 -7.43932,7.38654 -5.76462,3.83198 -8.68553,9.21436 -11.43465,15.38251 -1.37956,3.07099 -3.22016,6.11615 -3.51023,9.47026 -0.29727,3.43744 0.87358,6.87817 1.8778,10.17907 0.99361,3.26601 2.10923,6.60228 4.06573,9.39982 1.4826,2.11992 3.58545,3.75753 5.63366,5.33773 2.29192,1.76822 5.13141,2.75538 7.37701,4.58207 2.47912,2.01665 3.90901,5.23667 6.61063,6.94378 3.09527,1.95585 6.84681,2.70457 10.43666,3.42499 4.11011,0.82482 8.35865,0.65309 12.53694,0.99255 5.67367,0.46095 11.32939,1.21484 17.01813,1.41793 2.67203,0.0954 5.41575,-0.69713 8.02063,-0.0943 2.16553,0.50115 3.89524,2.16539 5.95547,2.99971 1.1741,0.47547 3.62709,1.13378 3.62709,1.13378"
     id="path4182"
     inkscape:connector-curvature="0"
     sodipodi:nodetypes="csssssssssssssc" />
  <path
     style="fill:none;fill-rule:evenodd;stroke:#000000;stroke-width:1;stroke-linecap:butt;stroke-linejoin:miter;stroke-miterlimit:4;stroke-dasharray:none;stroke-opacity:1"
     d="m 421.39585,435.36613 c 0,0 -4.42858,5.56672 -6.23055,8.61994 -1.27393,2.15853 -2.83386,4.32291 -3.20599,6.80155 -0.24678,1.64373 -0.2264,3.5612 0.70783,4.93597 1.48861,2.19057 4.3218,3.32682 6.89728,3.94442 3.35384,0.80425 6.85553,-3.6e-4 10.33445,-0.50447"
     id="path4184"
     inkscape:connector-curvature="0"
     sodipodi:nodetypes="caaaac" />
  <path
     style="fill:none;fill-rule:evenodd;stroke:#000000;stroke-width:1;stroke-linecap:butt;stroke-linejoin:miter;stroke-miterlimit:4;stroke-dasharray:none;stroke-opacity:1"
     d="m 460.08039,515.25398 c 0,0 -5.70427,-7.08173 -8.67986,-10.19234 -2.5287,-2.64344 -4.98033,-5.43985 -7.97959,-7.53426 -5.62061,-4.29409 -12.14462,-5.70289 -19.04226,-5.95242 -8.65815,-0.29972 -17.10191,0.37327 -21.21865,3.44696 -3.74887,2.79902 -5.05068,8.81634 -8.3218,12.66598 -3.718,4.37556 -8.00928,8.5534 -12.68067,11.65854 -1.77944,1.0294 -14.25734,4.63979 -19.81463,4.69879"
     id="path4186"
     inkscape:connector-curvature="0"
     sodipodi:nodetypes="cssssasc" />
  <path
     style="fill:none;fill-rule:evenodd;stroke:#000000;stroke-width:1;stroke-linecap:butt;stroke-linejoin:miter;stroke-miterlimit:4;stroke-dasharray:none;stroke-opacity:1"
     d="m 360.90415,496.93274 c -9.34608,2.60962 -17.63145,5.45729 -23.51789,10.53202 -2.96945,2.55997 -6.30685,5.302 -7.54687,9.02134 -1.8501,5.54925 -2.08551,12.51159 0.93003,17.52393 4.9842,8.28457 15.18125,13.55627 24.86895,14.92725 16.01241,2.13536 27.81515,-0.99337 31.97717,-2.36007 3.94914,-1.2968 7.95741,-2.79117 11.3143,-5.24243 3.18617,-2.3266 5.24852,-5.89567 8.00901,-8.71426 5.28851,-5.39982 9.72444,-11.79836 17.20557,-11.85491"
     id="path4188"
     inkscape:connector-curvature="0"
     sodipodi:nodetypes="csaassssc" />
  <path
     style="fill:none;fill-rule:evenodd;stroke:#000000;stroke-width:1;stroke-linecap:butt;stroke-linejoin:miter;stroke-miterlimit:4;stroke-dasharray:none;stroke-opacity:1"
     d="m 380.39869,470.56932 c 0,0 -7.69803,-2.24179 -11.66662,-2.56708 -3.99376,-0.32735 -8.05828,-0.0587 -12.00457,0.63705 -4.96924,0.8761 -9.66621,2.90067 -14.47929,4.41565 -5.71443,1.79869 -12.74439,1.42994 -17.09434,5.54915 -1.05384,0.99794 -1.33998,2.62866 -1.56787,4.06203 -0.34659,2.17999 -0.0366,4.43973 0.35099,6.6128 0.3198,1.79287 0.52381,3.76111 1.61461,5.21947"
     id="path4190"
     inkscape:connector-curvature="0"
     sodipodi:nodetypes="cssssssc" />
  <path
     style="fill:none;fill-rule:evenodd;stroke:#000000;stroke-width:1;stroke-linecap:butt;stroke-linejoin:miter;stroke-miterlimit:4;stroke-dasharray:none;stroke-opacity:1"
     d="m 375.79259,463.50058 c 0,0 -3.4166,2.27278 -5.3698,2.75407 -2.4521,0.60422 -5.05202,0.15647 -7.576,0.0704 -2.54318,-0.0867 -5.10537,-0.14725 -7.61107,-0.59082 -1.69691,-0.3004 -3.25732,-1.47917 -4.97849,-1.39366 -2.8101,0.13961 -5.28627,1.93921 -7.86267,3.06984 -2.06731,0.90722 -3.95275,2.23145 -6.08425,2.97542 -2.55643,0.89229 -5.23626,1.50282 -7.93287,1.74727 -3.70986,0.3363 -7.6762,0.89544 -11.16799,-0.40209 -2.79688,-1.0393 -5.09777,-3.28656 -6.98506,-5.59758 -1.60657,-1.96727 -3.23977,-4.24983 -3.48074,-6.7783 -0.25522,-2.67799 0.76084,-5.51537 2.26412,-7.74627 2.13421,-3.16723 5.83353,-4.9523 8.98598,-7.10828 3.17229,-2.16955 6.33962,-4.5029 9.94537,-5.83293 4.20924,-1.55264 8.77583,-2.03876 13.25071,-2.36099 2.77451,-0.19979 5.57272,-0.005 8.34065,0.27166 3.02618,0.30217 6.01099,0.93787 8.99755,1.51196 2.7685,0.53218 5.60728,0.85259 8.26584,1.79062 2.52876,0.89223 7.19026,3.60786 7.19026,3.60786"
     id="path4192"
     inkscape:connector-curvature="0"
     sodipodi:nodetypes="csssssssssssssssssc" />
  <path
     style="fill:none;fill-rule:evenodd;stroke:#000000;stroke-width:1;stroke-linecap:butt;stroke-linejoin:miter;stroke-miterlimit:4;stroke-dasharray:none;stroke-opacity:1"
     d="m 244.21573,437.80556 c 0,0 3.02463,4.31456 4.65222,6.38456 1.97077,2.50647 4.48617,4.59887 6.18356,7.29798 1.32179,2.10185 3.03615,6.80189 3.03615,6.80189 0,0 -6.2534,1.56696 -9.21407,2.80994 -2.12347,0.8915 -4.27413,1.86021 -6.06669,3.30611 -1.66758,1.3451 -3.50703,2.83775 -4.20049,4.86487 -0.42869,1.25313 0.21054,3.96769 0.21054,3.96769"
     id="path4194"
     inkscape:connector-curvature="0"
     sodipodi:nodetypes="csscsssc" />
  <path
     style="fill:none;fill-rule:evenodd;stroke:#000000;stroke-width:1;stroke-linecap:butt;stroke-linejoin:miter;stroke-miterlimit:4;stroke-dasharray:none;stroke-opacity:1"
     d="m 209.18606,452.59578 c 4.28353,5.55902 7.48485,11.9422 12.06281,17.26471 5.35057,6.22078 10.57173,13.1557 17.84287,16.95795 4.62304,2.4175 10.12106,2.83336 15.32744,3.16548 4.74087,0.30242 9.59236,0.0296 14.2101,-1.08567 4.44515,-1.07355 8.79816,-2.84559 12.6482,-5.3132 5.99068,-3.83961 11.47478,-8.72725 15.73134,-14.42923 3.47407,-4.65378 7.85397,-9.85415 7.64052,-15.65771 -0.19609,-5.33163 -4.76704,-9.54933 -8.05691,-13.83001"
     id="path4196"
     inkscape:connector-curvature="0"
     sodipodi:nodetypes="caaaaaaac" />
  <path
     style="fill:none;fill-rule:evenodd;stroke:#000000;stroke-width:1;stroke-linecap:butt;stroke-linejoin:miter;stroke-miterlimit:4;stroke-dasharray:none;stroke-opacity:1"
     d="m 275.97527,486.42176 c 0,0 5.70623,3.28403 7.57196,6.32681 1.04999,1.71241 0.51433,4.01816 1.20506,5.90435 1.17886,3.21916 2.84484,6.30649 4.93739,9.02199 1.57903,2.0491 3.509,3.86192 5.63366,5.33771 2.23314,1.55113 4.79872,2.58329 7.3244,3.5902 3.23582,1.29003 6.52261,2.64992 9.97452,3.11794 5.58964,0.75786 16.91289,-0.56587 16.91289,-0.56587"
     id="path4198"
     inkscape:connector-curvature="0"
     sodipodi:nodetypes="cssssssc" />
  <path
     style="fill:none;fill-rule:evenodd;stroke:#000000;stroke-width:1;stroke-linecap:butt;stroke-linejoin:miter;stroke-miterlimit:4;stroke-dasharray:none;stroke-opacity:1"
     d="m 312.5675,519.80926 -13.01406,8.53273 -1.47701,-13.86155"
     id="path4200"
     inkscape:connector-curvature="0"
     sodipodi:nodetypes="ccc" />
  <path
     style="fill:none;fill-rule:evenodd;stroke:#000000;stroke-width:1;stroke-linecap:butt;stroke-linejoin:miter;stroke-miterlimit:4;stroke-dasharray:none;stroke-opacity:1"
     d="m 234.22944,546.42769 c 0,0 5.51239,4.16455 8.74593,5.17258 2.56991,0.80115 5.36458,0.50395 8.05572,0.56722 3.71095,0.0872 7.44019,0.11836 11.1329,-0.25928 4.3167,-0.44145 8.64326,-1.11277 12.80607,-2.33744 2.86816,-0.84379 8.28978,-3.42407 8.28978,-3.42407 0,0 0.71989,5.0668 1.2928,7.55753 0.58439,2.54062 1.17191,5.10702 2.18199,7.51035 0.90674,2.15744 1.72783,4.52776 3.44568,6.11702 2.59051,2.39659 6.28301,3.25932 9.60007,4.46411 2.34712,0.8525 7.23669,1.93693 7.23669,1.93693"
     id="path4202"
     inkscape:connector-curvature="0"
     sodipodi:nodetypes="csssscssssc" />
  <path
     style="fill:none;fill-rule:evenodd;stroke:#000000;stroke-width:1;stroke-linecap:butt;stroke-linejoin:miter;stroke-miterlimit:4;stroke-dasharray:none;stroke-opacity:1"
     d="m 290.17437,575.62123 0.16014,-8.16822"
     id="path4204"
     inkscape:connector-curvature="0"
     sodipodi:nodetypes="cc" />
  <path
     style="fill:none;fill-rule:evenodd;stroke:#000000;stroke-width:1;stroke-linecap:butt;stroke-linejoin:miter;stroke-miterlimit:4;stroke-dasharray:none;stroke-opacity:1"
     d="m 242.91373,551.66058 c 0,0 -2.28414,2.87852 -3.26717,4.42676 -0.76269,1.20121 -2.03006,3.75503 -2.03006,3.75503"
     id="path4206"
     inkscape:connector-curvature="0"
     sodipodi:nodetypes="csc" />
  <path
     style="fill:none;fill-rule:evenodd;stroke:#000000;stroke-width:1;stroke-linecap:butt;stroke-linejoin:miter;stroke-miterlimit:4;stroke-dasharray:none;stroke-opacity:1"
     d="m 297.84539,468.11671 c 0,0 6.66236,-0.36991 9.83414,0.47285 2.98262,0.7925 5.58425,2.64709 8.2487,4.20426 3.03397,1.77313 8.78105,5.83387 8.78105,5.83387"
     id="path4210"
     inkscape:connector-curvature="0"
     sodipodi:nodetypes="cssc" />
  <path
     style="fill:none;fill-rule:evenodd;stroke:#000000;stroke-width:1;stroke-linecap:butt;stroke-linejoin:miter;stroke-miterlimit:4;stroke-dasharray:none;stroke-opacity:1"
     d="m 382.03504,519.48248 c 0,0 8.82261,3.05992 12.47802,5.83971 2.32664,1.76931 4.88003,3.85583 5.70385,6.66029 0.88692,3.01924 -1.28707,9.3523 -1.28707,9.3523"
     id="path4212"
     inkscape:connector-curvature="0"
     sodipodi:nodetypes="cssc" />
  <path
     style="fill:none;fill-rule:evenodd;stroke:#000000;stroke-width:1;stroke-linecap:butt;stroke-linejoin:miter;stroke-miterlimit:4;stroke-dasharray:none;stroke-opacity:1"
     d="m 330.16374,549.75555 c 0,0 -10.44775,0.42101 -15.07179,-2.51667 -2.45013,-1.55658 -5.65279,-6.71598 -5.65279,-6.71598"
     id="path4214"
     inkscape:connector-curvature="0"
     sodipodi:nodetypes="csc" />
  <path
     style="fill:none;fill-rule:evenodd;stroke:#000000;stroke-width:1;stroke-linecap:butt;stroke-linejoin:miter;stroke-miterlimit:4;stroke-dasharray:none;stroke-opacity:1"
     d="m 352.75982,125.01068 c 0.82237,12.00406 11.3381,25.75051 15.73661,27.68001 12.70246,3.07116 34.96815,-4.09192 52.09603,-9.72757 15.67102,-5.1563 32.78737,-6.81507 49.21183,-5.2641 15.05424,1.42158 30.95102,4.60822 43.4058,13.18316 10.76616,7.41235 20.66932,18.35374 24.03451,30.9842 4.0078,15.04234 0.23607,32.20219 -6.46955,46.251 -6.20871,13.00776 -21.98709,26.62374 -29.52767,31.58903 -6.67705,4.39668 -30.20101,16.15846 -38.64073,19.62382 -11.62758,4.77429 -44.92356,15.15263 -68.03792,20.18913 -18.48727,4.02828 -37.28461,8.28432 -56.20281,7.95609 -14.62515,-0.25374 -29.06446,-3.9284 -43.20936,-7.65414 -10.87443,-2.8643 -23.10609,-4.14806 -31.8073,-11.24335 -2.94237,-2.74561 -6.94189,-16.32415 -6.99067,-22.50742 -0.1314,-16.65634 10.40127,-17.29473 19.11278,-17.92439 12.7902,-0.92447 28.0804,-0.12592 41.75866,-2.87916 15.1193,-3.0433 33.31467,-3.60899 43.79471,-14.92375 7.30973,-7.89194 9.9768,-20.67137 8.04229,-31.25307 -3.35169,-18.33369 -23.69665,-29.12684 -32.19083,-45.7162 -4.55706,-8.90007 -7.74914,-19.23533 -9.80364,-28.34944 z"
     id="path4216"
     inkscape:connector-curvature="0"
     sodipodi:nodetypes="cssaaaassaaasssaaaacc" />
  <path
     style="fill:none;fill-rule:evenodd;stroke:#000000;stroke-width:1;stroke-linecap:butt;stroke-linejoin:miter;stroke-miterlimit:4;stroke-dasharray:none;stroke-opacity:1"
     d="m 529.83713,259.84708 c 0,0 11.03955,-2.1547 15.99449,-0.18563 3.64345,1.44789 7.45977,4.38089 8.45929,8.17194 1.13419,4.30185 -3.7794,12.80026 -3.7794,12.80026 0,0 5.43802,6.98986 5.04272,11.00581 -0.41675,4.23391 -7.47671,10.3439 -7.47671,10.3439 0,0 7.24335,7.39726 7.78061,12.18681 0.42705,3.80707 -2.30989,7.32411 -3.88465,10.81643 -1.38829,3.07879 -4.87921,8.87976 -4.87921,8.87976 0,0 4.38895,9.30244 5.21818,14.31221 0.65064,3.93085 0.42541,8.06867 -1.47204,11.57218 -1.82013,3.36074 -8.25119,6.84864 -8.25119,6.84864 0,0 4.33677,5.7341 5.82663,8.9748 1.61098,3.50416 1.5197,6.54141 0.68702,10.30718 -0.73326,3.31615 -4.15057,8.4446 -4.15057,8.4446 0,0 2.81776,7.7182 3.29935,11.76144 0.39318,3.30101 0.39613,6.72989 -0.36285,9.96643 -0.73759,3.14532 -3.98994,8.83256 -3.98994,8.83256 0,0 3.69124,5.35725 4.79433,8.74916 1.29707,3.98838 1.38886,8.72245 -0.36556,12.53186 -1.9579,4.25123 -9.07422,8.80691 -9.07422,8.80691 0,0 4.59945,6.53537 5.00758,10.34451 0.44178,4.12327 -0.60489,8.65486 -2.92522,12.09181 -2.7574,4.08435 -12.0281,8.59601 -12.0281,8.59601 0,0 5.46759,7.44362 5.0778,11.66706 -0.40697,4.40959 -4.46718,7.72445 -7.44155,11.00519 -2.733,3.01451 -5.76882,5.94827 -9.39552,7.79316 -3.23653,1.64642 -10.55848,2.6816 -10.55848,2.6816 0,0 -4.31309,11.86985 -8.02198,16.87236 -2.28395,3.08057 -5.17319,5.84943 -8.50625,7.74601 -5.58166,3.17608 -18.42818,5.6199 -18.42818,5.6199 0,0 -4.38086,9.98434 -8.19045,13.6975 -4.98225,4.85613 -11.42776,8.58208 -18.18251,10.24887 -5.20496,1.28437 -16.0763,-0.47317 -16.0763,-0.47317 0,0 -5.29332,6.39118 -8.43606,9.06853 -3.94369,3.35969 -8.09892,6.73973 -12.91733,8.64319 -7.49889,2.96235 -16.06153,1.90538 -23.86878,3.91924 -4.49798,1.16024 -10.95891,0.56776 -13.12791,4.67549 -1.36827,2.59128 0.4512,5.26098 -0.71519,7.94918 -1.43781,3.31375 -5.24612,2.34656 -6.58602,5.7011 -1.69577,4.24547 3.0171,8.6371 4.25876,13.03686 1.34095,4.75158 3.27455,9.47217 3.43971,14.40658 0.18161,5.42606 -2.40423,10.63926 -2.71468,16.05948 -0.12622,2.20375 0.234,4.40853 0.35099,6.61279 0.21057,3.96768 1.06442,7.95341 0.63166,11.90303 -0.71021,6.48174 -2.50643,12.92719 -5.24199,18.84615 -1.85782,4.01979 -4.0028,8.21505 -7.44158,11.0052 -3.65976,2.96945 -8.40854,4.81808 -13.09281,5.33678 -3.02275,0.33472 -6.39874,0.0677 -8.99754,-1.51194 -2.27295,-1.3816 -2.97342,-4.44051 -4.79706,-6.37687 -3.08223,-3.27274 -5.77352,-5.96786 -7.59104,-10.07975 -2.77683,-6.2822 -3.07176,-12.47014 -1.99118,-19.25315 0.99297,-6.23309 5.73228,-11.88959 5.27713,-18.18484 -0.41036,-5.67576 -5.85264,-9.98086 -7.06682,-15.5404 -1.27322,-5.82988 0.10966,-11.93685 -0.0582,-17.90178 -0.1304,-4.63363 0.98506,-9.58311 -0.73694,-13.88686 -2.17167,-5.42759 -11.5051,-7.47548 -11.4077,-13.3206 0.0718,-4.30806 8.69036,-9.66713 8.69036,-9.66713"
     id="path4220"
     inkscape:connector-curvature="0"
     sodipodi:nodetypes="csscscsscsscsscsscsscsscssscsscsscsssssssssssssssssssssssc" />
  <path
     style="fill:none;fill-rule:evenodd;stroke:#000000;stroke-width:1;stroke-linecap:butt;stroke-linejoin:miter;stroke-miterlimit:4;stroke-dasharray:none;stroke-opacity:1"
     d="m 338.26184,572.424 22.78764,-10.61206"
     id="path4222"
     inkscape:connector-curvature="0"
     sodipodi:nodetypes="cc" />
  <path
     style="fill:none;fill-rule:evenodd;stroke:#000000;stroke-width:1;stroke-linecap:butt;stroke-linejoin:miter;stroke-miterlimit:4;stroke-dasharray:none;stroke-opacity:1"
     d="m 481.6597,491.96972 c 0,0 6.82547,-6.23071 7.28179,-10.45239 0.47809,-4.42309 -5.66243,-7.91358 -5.11293,-12.32837 0.41615,-3.34344 6.04276,-8.10252 6.04276,-8.10252"
     id="path4224"
     inkscape:connector-curvature="0"
     sodipodi:nodetypes="cssc" />
  <path
     style="fill:none;fill-rule:evenodd;stroke:#000000;stroke-width:1;stroke-linecap:butt;stroke-linejoin:miter;stroke-miterlimit:4;stroke-dasharray:none;stroke-opacity:1"
     d="m 487.77032,341.28333 c 0,0 8.32027,-7.33051 8.25191,-12.00127 -0.0518,-3.54245 -3.17551,-7.75183 -6.68078,-8.2663 -3.78147,-0.555 -5.88549,5.13278 -9.46569,6.47057 -2.59493,0.96963 -8.25508,0.95834 -8.25508,0.95834"
     id="path4226"
     inkscape:connector-curvature="0"
     sodipodi:nodetypes="csssc" />
  <path
     style="fill:none;fill-rule:evenodd;stroke:#000000;stroke-width:1;stroke-linecap:butt;stroke-linejoin:miter;stroke-miterlimit:4;stroke-dasharray:none;stroke-opacity:1"
     d="m 489.4684,321.06603 c 0,0 2.47542,-7.63552 5.60633,-9.63855 4.50449,-2.88178 11.4492,1.34379 15.97103,-1.5107 3.14893,-1.98782 3.73405,-6.44655 5.73334,-9.58821 2.3775,-3.73598 4.22799,-7.95837 7.44157,-11.00518 1.70734,-1.61874 3.87385,-2.74037 6.04914,-3.63673 6.47823,-2.66944 20.41539,-5.00518 20.41539,-5.00518"
     id="path4228"
     inkscape:connector-curvature="0"
     sodipodi:nodetypes="csssssc" />
  <path
     style="fill:none;fill-rule:evenodd;stroke:#000000;stroke-width:1;stroke-linecap:butt;stroke-linejoin:miter;stroke-miterlimit:4;stroke-dasharray:none;stroke-opacity:1"
     d="m 525.74155,301.17922 c 0,0 -6.27522,9.97162 -7.19593,15.63416 -0.85155,5.23721 1.73145,15.82352 1.73145,15.82352 0,0 -2.91302,8.87881 -3.74431,13.46156 -0.75602,4.16778 -1.63134,8.45487 -1.11171,12.65867 0.39453,3.19177 3.15896,9.11638 3.15896,9.11638 0,0 -5.46661,4.97343 -6.69272,8.31286 -1.2974,3.53359 -0.83622,7.56414 -0.29264,11.28893 0.49512,3.39277 3.19406,9.77765 3.19406,9.77765 0.71524,6.76048 -2.71719,13.51095 -1.60356,20.16507 l 2.60935,15.59122 c 0,0 -3.35001,6.57169 -3.91976,10.15513 -0.72788,4.57797 0.73694,13.88689 0.73694,13.88689 0,0 -4.44597,6.99809 -5.66308,10.9108 -0.99915,3.21203 -1.38148,6.6522 -1.25211,10.01355 0.0772,2.0072 1.20506,5.90433 1.20506,5.90433 0,0 -7.59411,3.03012 -10.39003,5.85652 -2.37514,2.40103 -3.72677,5.70513 -4.87913,8.87976 -1.24279,3.42373 -2.10623,10.72203 -2.10623,10.72203 0,0 -9.90454,0.98368 -14.08729,3.40015 -3.89273,2.24892 -6.28882,6.43002 -9.29023,9.77703 -2.02387,2.25691 -3.56381,4.97993 -5.8737,6.94312 -2.57664,2.1899 -8.69988,5.21775 -8.69988,5.21775"
     id="path4230"
     inkscape:connector-curvature="0"
     sodipodi:nodetypes="cscsscsscscscsscsscsssc" />
  <path
     style="fill:none;fill-rule:evenodd;stroke:#000000;stroke-width:1;stroke-linecap:butt;stroke-linejoin:miter;stroke-miterlimit:4;stroke-dasharray:none;stroke-opacity:1"
     d="m 530.40577,260.10687 c 0,0 -5.67751,-6.21958 -9.53399,-6.73158 -6.87522,-0.91278 -13.47164,3.79117 -19.53949,7.15019 -3.80967,2.10895 -6.42515,6.06002 -10.31699,8.01319 -3.46677,1.73984 -7.77617,1.30888 -11.21528,3.10276 -4.01153,2.09246 -7.50815,5.22336 -10.45398,8.65743 -1.03911,1.21133 -2.45714,4.10925 -2.45714,4.10925 0,0 -11.77166,-2.05426 -16.93042,0.23531 -3.7736,1.67481 -4.6025,7.53597 -8.43608,9.06852 -3.60641,1.44173 -7.76349,-0.34333 -11.63014,-0.70911 -2.18561,-0.20675 -6.53245,-0.83901 -6.53245,-0.83901"
     id="path4232"
     inkscape:connector-curvature="0"
     sodipodi:nodetypes="cssssscsssc" />
  <path
     style="fill:none;fill-rule:evenodd;stroke:#000000;stroke-width:1;stroke-linecap:butt;stroke-linejoin:miter;stroke-miterlimit:4;stroke-dasharray:none;stroke-opacity:1"
     d="m 400.07604,303.69794 6.77708,-6.99841"
     id="path4234"
     inkscape:connector-curvature="0"
     sodipodi:nodetypes="cc" />
  <path
     style="fill:none;fill-rule:evenodd;stroke:#000000;stroke-width:1;stroke-linecap:butt;stroke-linejoin:miter;stroke-miterlimit:4;stroke-dasharray:none;stroke-opacity:1"
     d="m 238.37078,293.05978 c 0,0 12.65643,-1.36699 18.55492,0.50105 7.05288,2.23363 12.68609,7.63364 18.48641,12.28182 0,0 9.99475,-2.49266 15.0467,-2.12478 5.96359,0.43427 11.69719,2.74217 17.21118,5.05494 4.20428,1.76343 7.39539,6.38204 11.946,6.66062 4.70294,0.2879 8.42819,-4.66534 13.09335,-5.32624 3.74968,-0.53121 11.29892,1.18943 11.29892,1.18943"
     id="path4236"
     inkscape:connector-curvature="0"
     sodipodi:nodetypes="cacasaac" />
  <path
     style="fill:none;fill-rule:evenodd;stroke:#000000;stroke-width:1;stroke-linecap:butt;stroke-linejoin:miter;stroke-miterlimit:4;stroke-dasharray:none;stroke-opacity:1"
     d="m 234.81725,306.64458 c 0,0 11.71759,7.44431 18.00131,10.34417 4.67426,2.15711 9.5051,4.13983 14.54348,5.19652 5.26913,1.10509 10.77922,0.39098 16.11141,1.1344 7.59435,1.05881 22.51345,4.72243 22.51345,4.72243"
     id="path4238"
     inkscape:connector-curvature="0"
     sodipodi:nodetypes="csssc" />
  <path
     style="fill:none;fill-rule:evenodd;stroke:#000000;stroke-width:1;stroke-linecap:butt;stroke-linejoin:miter;stroke-miterlimit:4;stroke-dasharray:none;stroke-opacity:1"
     d="m 448.12009,310.48396 c 0,0 6.46747,-0.91121 9.3263,-2.36479 3.29733,-1.67653 5.12332,-5.67051 8.54139,-7.08469 5.21528,-2.15774 11.91138,1.15575 16.86024,-1.55787 3.58179,-1.96401 4.43615,-6.99426 7.51176,-9.6826 4.01602,-3.51034 9.17074,-5.45356 13.84165,-8.02911 3.71613,-2.04908 7.74675,-3.55215 11.27926,-5.90369 2.77127,-1.8448 5.00684,-4.40164 7.68719,-6.37621 2.48469,-1.83043 6.57936,-2.20125 7.75744,-5.05367 0.60453,-1.46371 -0.86933,-4.69555 -0.86933,-4.69555"
     id="path4240"
     inkscape:connector-curvature="0"
     sodipodi:nodetypes="cssssssssc" />
  <path
     style="fill:none;fill-rule:evenodd;stroke:#000000;stroke-width:1;stroke-linecap:butt;stroke-linejoin:miter;stroke-miterlimit:4;stroke-dasharray:none;stroke-opacity:1"
     d="m 197.84449,280.59726 c 0,0 -9.26501,-6.05317 -14.27982,-8.34277 -3.78115,-1.72636 -7.66352,-4.36252 -11.80562,-4.0155 -7.19927,0.60314 -16.11196,6.15605 -19.07173,10.29606 -2.05402,2.87308 0.0824,3.62548 -1.97724,6.49452 -1.77357,2.47054 -3.86732,4.26018 -4.82201,6.89825 -1.16385,3.21603 -0.86482,10.22392 -0.86482,10.22392 0,0 -6.34154,3.95854 -8.01601,7.11444 -1.86856,3.52171 -0.37376,8.05165 -1.55893,11.85814 -1.60525,5.1557 -6.57692,9.08124 -7.37934,14.42111 -0.72701,4.83804 0.82436,9.87604 2.55049,14.45377 0.88432,2.34523 3.90782,6.42403 3.90782,6.42403 0,0 -5.65415,6.04453 -7.51175,9.68266 -2.44664,4.79176 -5.28926,10.16637 -4.52825,15.49252 0.68171,4.77114 7.78059,12.18682 7.78059,12.18682 0,0 -8.36028,2.43807 -10.39002,5.85653 -2.25901,3.80458 -1.26007,8.98007 -0.18738,13.27277 1.48636,5.94813 8.88037,16.10729 8.88037,16.10729 -1.28263,1.30361 -9.51848,13.88953 -8.63873,21.5912 0.82926,7.25958 12.52273,17.99122 12.52273,17.99122 0,0 -8.28949,6.38061 -9.22006,11.09955 -0.92579,4.6947 1.7341,9.65523 4.29386,13.69811 4.77966,7.54898 19.69148,18.18615 19.69148,18.18615 0,0 -2.6702,9.16032 -1.07662,13.31999 1.85093,4.83144 6.71406,8.21855 11.26731,10.67551 7.61998,4.11178 25.28442,5.95277 25.28442,5.95277 0,0 2.8054,7.44664 5.86176,9.63606 6.01222,4.30686 14.41538,3.31902 21.65733,4.81901 2.93855,0.60865 8.84156,1.69609 8.84156,1.69609"
     id="path4242"
     inkscape:connector-curvature="0"
     sodipodi:nodetypes="cssssacaaaacaacaacacaacaacaac" />
  <path
     style="fill:none;fill-rule:evenodd;stroke:#000000;stroke-width:1;stroke-linecap:butt;stroke-linejoin:miter;stroke-miterlimit:4;stroke-dasharray:none;stroke-opacity:1"
     d="m 175.34467,311.77212 c 0,0 -4.35696,7.43528 -5.11911,11.58903 -0.71706,3.90803 0.95971,7.94336 0.63166,11.90306 -0.5486,6.62181 -1.53502,13.42651 -4.3177,19.46024 -0.96605,2.0947 -4.16539,5.52618 -4.16539,5.52618 0,0 2.29321,5.56761 3.12387,8.45507 1.16385,4.04567 3.29349,8.21133 2.58719,12.36141 -0.81258,4.77457 -7.51336,12.43625 -7.51336,12.43625 0,0 2.5506,7.79376 2.4101,11.80867 -0.2932,8.37842 -6.73975,24.23077 -6.73975,24.23077 0,0 7.91988,7.15938 9.30829,12.65934 1.52248,6.0311 -2.32356,18.13769 -2.32356,18.13769 0,0 1.41667,9.02581 3.36952,13.08404 1.15337,2.39684 3.88753,3.87727 4.79706,6.37684 1.50958,4.14862 0.70185,13.2256 0.70185,13.2256 0,0 8.72817,2.34992 11.8758,5.33807 3.68411,3.49744 3.7664,9.60739 6.96155,13.55654 2.27066,2.80649 8.38906,6.84939 8.38906,6.84939 0,0 15.03759,-3.00333 22.23068,-1.17973 3.80003,0.96339 9.94676,5.7533 9.94676,5.7533"
     id="path4244"
     inkscape:connector-curvature="0"
     sodipodi:nodetypes="cssscsscscscsscsscsc" />
  <path
     style="fill:none;fill-rule:evenodd;stroke:#000000;stroke-width:1;stroke-linecap:butt;stroke-linejoin:miter;stroke-miterlimit:4;stroke-dasharray:none;stroke-opacity:1"
     d="m 147.22012,511.58805 c 0,0 8.54183,-9.08069 13.59598,-12.65804 3.46376,-2.45167 11.27924,-5.9037 11.27924,-5.9037"
     id="path4246"
     inkscape:connector-curvature="0"
     sodipodi:nodetypes="csc" />
  <path
     style="fill:none;fill-rule:evenodd;stroke:#000000;stroke-width:1;stroke-linecap:butt;stroke-linejoin:miter;stroke-miterlimit:4;stroke-dasharray:none;stroke-opacity:1"
     d="m 182.80403,541.81593 c 0,0 0.078,-9.81322 2.59271,-13.91099 0.4468,-0.72806 4.55903,-7.2136 13.92501,-9.13463"
     id="path4248"
     inkscape:connector-curvature="0"
     sodipodi:nodetypes="csc" />
  <path
     style="fill:none;fill-rule:evenodd;stroke:#000000;stroke-width:1;stroke-linecap:butt;stroke-linejoin:miter;stroke-miterlimit:4;stroke-dasharray:none;stroke-opacity:1"
     d="m 131.83862,468.67819 c 0,0 11.07601,-3.5382 16.41176,-4.89105 4.87571,-1.23621 14.97653,-3.44731 14.97653,-3.44731"
     id="path4250"
     inkscape:connector-curvature="0"
     sodipodi:nodetypes="csc" />
  <path
     style="fill:none;fill-rule:evenodd;stroke:#000000;stroke-width:1;stroke-linecap:butt;stroke-linejoin:miter;stroke-miterlimit:4;stroke-dasharray:none;stroke-opacity:1"
     d="m 128.24765,428.99038 c 0,0 9.13155,-0.077 13.6967,-0.0151 4.79217,0.065 14.37211,0.40555 14.37211,0.40555"
     id="path4252"
     inkscape:connector-curvature="0"
     sodipodi:nodetypes="csc" />
  <path
     style="fill:none;fill-rule:evenodd;stroke:#000000;stroke-width:1;stroke-linecap:butt;stroke-linejoin:miter;stroke-miterlimit:4;stroke-dasharray:none;stroke-opacity:1"
     d="m 130.0552,393.78343 c 0,0 11.99005,-0.90743 17.99724,-0.94201 4.24492,-0.0244 12.72439,0.51919 12.72439,0.51919"
     id="path4254"
     inkscape:connector-curvature="0"
     sodipodi:nodetypes="csc" />
  <path
     style="fill:none;fill-rule:evenodd;stroke:#000000;stroke-width:1;stroke-linecap:butt;stroke-linejoin:miter;stroke-miterlimit:4;stroke-dasharray:none;stroke-opacity:1"
     d="m 134.52728,356.42323 c 0,0 7.78135,1.47404 11.70036,2.03169 5.36134,0.76288 16.14649,1.79571 16.14649,1.79571"
     id="path4256"
     inkscape:connector-curvature="0"
     sodipodi:nodetypes="csc" />
  <path
     style="fill:none;fill-rule:evenodd;stroke:#000000;stroke-width:1;stroke-linecap:butt;stroke-linejoin:miter;stroke-miterlimit:4;stroke-dasharray:none;stroke-opacity:1"
     d="m 191.3803,296.0497 c 0,0 -14.92775,-5.7699 -22.19557,-9.10613 -5.60945,-2.57497 -17.42265,-6.39334 -17.42265,-6.39334"
     id="path4266"
     inkscape:connector-curvature="0"
     sodipodi:nodetypes="csc" />
  <path
     style="fill:none;fill-rule:evenodd;stroke:#000000;stroke-width:1;stroke-linecap:butt;stroke-linejoin:miter;stroke-miterlimit:4;stroke-dasharray:none;stroke-opacity:1"
     d="m 145.06155,302.09266 c 0,0 7.47047,5.67901 11.90769,6.71971 3.7568,0.88112 7.79033,-1.43793 11.55997,-0.61346 5.06112,1.10693 9.34219,4.52064 13.75954,7.22752 2.10444,1.28957 6.04398,4.27728 6.04398,4.27728"
     id="path4268"
     inkscape:connector-curvature="0"
     sodipodi:nodetypes="csssc" />
  <path
     style="fill:none;fill-rule:evenodd;stroke:#000000;stroke-width:1;stroke-linecap:butt;stroke-linejoin:miter;stroke-miterlimit:4;stroke-dasharray:none;stroke-opacity:1"
     d="m 413.94398,547.44161 c 0,0 -2.49123,8.26579 -1.99197,12.43326 0.4184,3.49252 1.4074,7.44739 4.08331,9.73042 3.50897,2.99379 13.44366,3.27854 13.44366,3.27854"
     id="path4270"
     inkscape:connector-curvature="0"
     sodipodi:nodetypes="cssc" />
  <path
     style="fill:none;fill-rule:evenodd;stroke:#000000;stroke-width:1;stroke-linecap:butt;stroke-linejoin:miter;stroke-miterlimit:4;stroke-dasharray:none;stroke-opacity:1"
     d="m 451.91685,534.42998 c 0,0 2.47324,5.23995 4.5436,7.16754 2.79727,2.60437 6.63707,3.80941 10.09731,5.43244 1.78709,0.83824 5.49142,2.21614 5.49142,2.21614"
     id="path4272"
     inkscape:connector-curvature="0"
     sodipodi:nodetypes="cssc" />
  <path
     style="fill:none;fill-rule:evenodd;stroke:#000000;stroke-width:1;stroke-linecap:butt;stroke-linejoin:miter;stroke-miterlimit:4;stroke-dasharray:none;stroke-opacity:1"
     d="m 489.42084,509.35696 c 0,0 8.14365,7.20958 13.08088,9.23987 1.3986,0.57513 4.47486,0.74651 4.47486,0.74651"
     id="path4274"
     inkscape:connector-curvature="0"
     sodipodi:nodetypes="csc" />
  <path
     style="fill:none;fill-rule:evenodd;stroke:#000000;stroke-width:1;stroke-linecap:butt;stroke-linejoin:miter;stroke-miterlimit:4;stroke-dasharray:none;stroke-opacity:1"
     d="m 506.77216,483.88681 c 0,0 10.22168,2.21754 15.42169,2.49738 2.45562,0.13215 7.36715,-0.39097 7.36715,-0.39097"
     id="path4276"
     inkscape:connector-curvature="0"
     sodipodi:nodetypes="csc" />
  <path
     style="fill:none;fill-rule:evenodd;stroke:#000000;stroke-width:1;stroke-linecap:butt;stroke-linejoin:miter;stroke-miterlimit:4;stroke-dasharray:none;stroke-opacity:1"
     d="m 512.61168,457.05126 c 0,0 10.67614,-0.4778 16.00607,-0.8494 3.60433,-0.25129 11.08755,-1.52741 11.08755,-1.52741"
     id="path4278"
     inkscape:connector-curvature="0"
     sodipodi:nodetypes="csc" />
  <path
     style="fill:none;fill-rule:evenodd;stroke:#000000;stroke-width:1;stroke-linecap:butt;stroke-linejoin:miter;stroke-miterlimit:4;stroke-dasharray:none;stroke-opacity:1"
     d="m 515.66744,433.05993 c 0,0 7.82747,-5.20495 12.26806,-6.51828 5.20006,-1.53794 16.20702,-1.40911 16.20702,-1.40911"
     id="path4280"
     inkscape:connector-curvature="0"
     sodipodi:nodetypes="csc" />
  <path
     style="fill:none;fill-rule:evenodd;stroke:#000000;stroke-width:1;stroke-linecap:butt;stroke-linejoin:miter;stroke-miterlimit:4;stroke-dasharray:none;stroke-opacity:1"
     d="m 514.78871,397.25295 c 0,0 9.5442,0.95867 14.29783,0.56755 5.50695,-0.4531 16.2334,-3.35597 16.2334,-3.35597"
     id="path4282"
     inkscape:connector-curvature="0"
     sodipodi:nodetypes="csc" />
  <path
     style="fill:none;fill-rule:evenodd;stroke:#000000;stroke-width:1;stroke-linecap:butt;stroke-linejoin:miter;stroke-miterlimit:4;stroke-dasharray:none;stroke-opacity:1"
     d="m 520.00878,332.80924 c 0,0 10.91518,2.16792 16.44987,2.28467 3.58598,0.0756 10.71096,-1.0295 10.71096,-1.0295"
     id="path4284"
     inkscape:connector-curvature="0"
     sodipodi:nodetypes="csc" />
  <path
     style="fill:none;fill-rule:evenodd;stroke:#000000;stroke-width:1;stroke-linecap:butt;stroke-linejoin:miter;stroke-miterlimit:4;stroke-dasharray:none;stroke-opacity:1"
     d="m 524.22067,289.32339 1.38818,12.13977 c 0,0 6.06167,1.11058 9.13025,1.22803 4.54745,0.17405 13.63001,-0.78031 13.63001,-0.78031"
     id="path4286"
     inkscape:connector-curvature="0"
     sodipodi:nodetypes="ccsc" />
  <path
     style="fill:none;fill-rule:evenodd;stroke:#000000;stroke-width:1;stroke-linecap:butt;stroke-linejoin:miter;stroke-miterlimit:4;stroke-dasharray:none;stroke-opacity:1"
     d="m 518.70829,367.50658 c 0,0 9.95667,-0.99533 14.95354,-1.09656 2.99825,0.0462 5.37243,-0.8504 8.92739,0.18937"
     id="path4288"
     inkscape:connector-curvature="0"
     sodipodi:nodetypes="csc" />
  <path
     style="fill:none;fill-rule:evenodd;stroke:#000000;stroke-width:1;stroke-linecap:butt;stroke-linejoin:miter;stroke-miterlimit:4;stroke-dasharray:none;stroke-opacity:1"
     d="m 274.10466,516.45964 c 1.04116,0.16463 7.38315,2.49037 8.23116,3.87361 0.63454,1.03503 -0.25376,2.50816 0.19295,3.63704 0.8147,2.05884 3.03085,3.25131 4.28229,5.07791 0.9688,1.41407 1.40195,3.16926 2.46867,4.511 1.17059,1.47239 2.90043,2.40704 4.21208,3.7553 1.54396,1.58706 2.25039,4.19818 4.2823,5.0779 1.36196,0.58967 3.10565,0.40103 4.44614,-0.23594 1.13265,-0.53821 2.17353,-1.58363 2.52732,-2.78671 0.37599,-1.27857 -0.20779,-2.68871 -0.65517,-3.94408 -0.6639,-1.86295 -1.63083,-3.67379 -2.94842,-5.14868 -1.27743,-1.42994 -3.27499,-2.05363 -4.63916,-3.40108 -2.08165,-2.05613 -3.88901,-4.43871 -5.27678,-7.01457 -0.98343,-1.82537 -0.66682,-4.35332 -2.09429,-5.85713 -1.92763,-2.03071 -5.0395,-2.53951 -7.75142,-3.23592 -3.34917,-0.86005 -6.85641,-1.15929 -10.3139,-1.11053 -3.25217,-0.26152 -5.95932,1.06489 -6.90326,4.34519 -0.1996,5.71865 6.68554,2.25652 9.93949,2.45669 z"
     id="C17.3"
     inkscape:connector-curvature="0"
     inkscape:label="C17.3 Meckel Divertikel"
     sodipodi:nodetypes="aaaaaaaaaaaaaaaaaa" />
  <path
     style="fill:none;fill-rule:evenodd;stroke:#000000;stroke-width:1;stroke-linecap:butt;stroke-linejoin:miter;stroke-miterlimit:4;stroke-dasharray:none;stroke-opacity:1"
     d="m 283.25984,546.14677 c 0,0 3.76822,-3.20628 5.53433,-4.93568 1.47492,-1.44426 4.21804,-4.53427 4.21804,-4.53427"
     id="path4296"
     inkscape:connector-curvature="0"
     sodipodi:nodetypes="csc" />
  <path
     style="fill:none;fill-rule:evenodd;stroke:#000000;stroke-width:1;stroke-linecap:butt;stroke-linejoin:miter;stroke-miterlimit:4;stroke-dasharray:none;stroke-opacity:1"
     d="m 342.33653,385.45557 c 0,0 -6.59342,4.24645 -9.20168,7.11526 -2.17615,2.39353 -5.1809,8.2061 -5.1809,8.2061"
     id="path4298"
     inkscape:connector-curvature="0"
     sodipodi:nodetypes="csc" />
  <path
     style="fill:none;fill-rule:evenodd;stroke:#000000;stroke-width:1;stroke-linecap:butt;stroke-linejoin:miter;stroke-miterlimit:4;stroke-dasharray:none;stroke-opacity:1"
     d="m 328.4574,406.42435 c 0.56148,1.20367 4.00402,5.8378 3.98219,8.69116 l -0.0402,5.25369"
     id="path4300"
     inkscape:connector-curvature="0"
     sodipodi:nodetypes="csc" />
  <path
     style="fill:none;fill-rule:evenodd;stroke:#000000;stroke-width:1;stroke-linecap:butt;stroke-linejoin:miter;stroke-miterlimit:4;stroke-dasharray:none;stroke-opacity:1"
     d="m 254.77712,413.14096 v 0 c 0,0 0.0444,-4.56937 -0.97618,-6.51295 -1.40861,-2.68257 -6.63521,-6.21266 -6.63521,-6.21266 0,0 -6.68024,2.39414 -8.55476,5.1431 -1.0814,1.58586 -0.95979,5.67788 -0.95979,5.67788"
     id="path4302"
     inkscape:connector-curvature="0"
     sodipodi:nodetypes="csscsc" />
  <path
     style="fill:none;fill-rule:evenodd;stroke:#000000;stroke-width:1;stroke-linecap:butt;stroke-linejoin:miter;stroke-miterlimit:4;stroke-dasharray:none;stroke-opacity:1"
     d="m 368.9647,413.36968 -5.34273,7.12475"
     id="path4304"
     inkscape:connector-curvature="0"
     sodipodi:nodetypes="cc" />
  <path
     style="fill:none;fill-rule:evenodd;stroke:#000000;stroke-width:1;stroke-linecap:butt;stroke-linejoin:miter;stroke-miterlimit:4;stroke-dasharray:none;stroke-opacity:1"
     d="m 336.63505,351.5897 8.24014,12.6923 c 0,0 -0.50421,-6.24808 0.78611,-8.95107 1.43648,-3.00918 4.89545,-4.53486 7.19794,-6.94674 1.65827,-1.73705 4.75727,-5.41047 4.75727,-5.41047"
     id="path4308"
     inkscape:connector-curvature="0"
     sodipodi:nodetypes="ccssc" />
  <path
     style="fill:none;fill-rule:evenodd;stroke:#000000;stroke-width:1;stroke-linecap:butt;stroke-linejoin:miter;stroke-miterlimit:4;stroke-dasharray:none;stroke-opacity:1"
     d="m 275.28287,305.6011 -6.43735,6.15125 c -2.56741,2.4533 -1.37237,6.93411 -1.85968,10.44281"
     id="path4219"
     inkscape:connector-curvature="0"
     sodipodi:nodetypes="csc" />
  <path
     style="fill:none;fill-rule:evenodd;stroke:#000000;stroke-width:1;stroke-linecap:butt;stroke-linejoin:miter;stroke-miterlimit:4;stroke-dasharray:none;stroke-opacity:1"
     d="m 307.04043,309.03436 c 0,0 -2.83477,3.79863 -3.57629,6.00819 -0.6869,2.0468 0.0109,4.40415 -0.71528,6.43735 -0.70734,1.98043 -3.2953,3.12718 -3.43323,5.29291"
     id="path4221"
     inkscape:connector-curvature="0"
     sodipodi:nodetypes="cssc" />
  <path
     style="fill:none;fill-rule:evenodd;stroke:#000000;stroke-width:1;stroke-linecap:butt;stroke-linejoin:miter;stroke-miterlimit:4;stroke-dasharray:none;stroke-opacity:1"
     d="m 466.82967,284.57245 c 0,0 1.48284,4.80785 3.14714,6.58039 1.60732,1.71185 4.15637,2.19455 6.15124,3.43326 2.35967,1.46523 6.86652,4.72072 6.86652,4.72072"
     id="path4225"
     inkscape:connector-curvature="0"
     sodipodi:nodetypes="cssc" />
  <path
     style="fill:none;fill-rule:evenodd;stroke:#000000;stroke-width:1;stroke-linecap:butt;stroke-linejoin:miter;stroke-miterlimit:4;stroke-dasharray:none;stroke-opacity:1"
     d="m 501.16218,260.68274 c 0,0 5.45271,2.704 7.29566,5.00682 1.12315,1.40341 0.80746,3.66431 2.00273,5.00683 1.73092,1.94416 6.8665,3.71936 6.8665,3.71936"
     id="path4227"
     inkscape:connector-curvature="0"
     sodipodi:nodetypes="cssc" />
  <path
     id="C16.9"
     style="font-size:33.2768px;font-family:'.Arial Hebrew Desk Interface';-inkscape-font-specification:'.Arial Hebrew Desk Interface, Normal';display:inline;fill:none;fill-rule:evenodd;stroke:#000000;stroke-width:1;stroke-dasharray:none;image-rendering:optimizeQuality;shape-rendering:geometricPrecision;text-rendering:geometricPrecision"
     d="m 618.93383,143.71544 q -2.7719,3.62043 -7.41057,3.62043 -4.18613,0 -6.84489,-2.65875 -2.60219,-2.71532 -2.60219,-6.78832 0,-4.35583 2.99817,-7.354 3.05474,-2.99817 7.24087,-2.99817 5.31751,0 8.42882,3.95985 3.16787,3.95985 3.16787,10.63501 0,7.24086 -3.28101,11.70984 -3.22446,4.46898 -8.99452,4.46898 -3.05473,0 -5.54378,-1.69709 -2.43247,-1.75366 -2.99817,-4.01642 l 4.80839,-0.7354 q 1.13138,2.14964 4.12955,2.14964 3.22446,0 5.03468,-2.7719 1.86678,-2.82846 1.86678,-7.5237 z m -0.90511,-5.93977 q 0,-2.88504 -1.47081,-4.52555 -1.41423,-1.64049 -3.95985,-1.64049 -2.20619,0 -3.79014,1.75363 -1.58393,1.69709 -1.58393,4.41241 0,2.37592 1.4708,3.95985 1.47081,1.52736 3.8467,1.52736 2.26278,0 3.84672,-1.52736 1.64051,-1.58393 1.64051,-3.95985 z m 15.97264,4.47502 A 21.750674,21.750674 0 0 1 612.25068,164.00135 21.750674,21.750674 0 0 1 590.5,142.25069 21.750674,21.750674 0 0 1 612.25068,120.5 a 21.750674,21.750674 0 0 1 21.75068,21.75069 z"
     inkscape:label="C16.9" />
  <path
     id="C17.8"
     style="font-size:33.2768px;font-family:'.Arial Hebrew Desk Interface';-inkscape-font-specification:'.Arial Hebrew Desk Interface, Normal';display:inline;fill:none;fill-rule:evenodd;stroke:#000000;stroke-width:1;stroke-dasharray:none;image-rendering:optimizeQuality;shape-rendering:geometricPrecision;text-rendering:geometricPrecision"
     d="m 606.21,80.95843 q -3.28102,-2.26276 -3.28102,-6.10946 0,-3.84672 2.77191,-5.88321 2.82845,-2.03649 6.50545,-2.03649 3.62044,0 6.44891,2.03649 2.82846,2.03649 2.82846,5.88321 0,3.8467 -3.28102,6.10946 v 0.0567 q 2.2062,1.01825 3.5073,3.05474 1.35765,1.97992 1.35765,4.35583 0,3.84672 -2.99816,6.61861 -2.99817,2.7719 -7.86314,2.7719 -5.03466,0 -7.97626,-2.7719 -2.88504,-2.82846 -2.88504,-6.61861 0,-2.37591 1.30111,-4.35583 1.35766,-2.03649 3.56385,-3.05474 z m 5.99634,-1.58393 q 1.69709,0 3.05474,-1.01824 1.41423,-1.01825 1.41423,-2.94161 0,-2.09306 -1.35766,-3.1113 -1.30108,-1.07483 -3.11131,-1.07483 -1.97992,0 -3.22444,1.13139 -1.24453,1.13138 -1.24453,3.05474 0,1.86678 1.35767,2.94161 1.41423,1.01824 3.1113,1.01824 z m 0,14.14232 q 2.14963,0 3.79014,-1.24453 1.64051,-1.24452 1.64051,-3.84671 0,-2.09306 -1.58393,-3.5073 -1.58394,-1.41423 -3.84672,-1.41423 -2.20619,0 -3.8467,1.41423 -1.58394,1.41424 -1.58394,3.5073 0,2.60219 1.64051,3.84671 1.64051,1.24453 3.79013,1.24453 z M 634.00133,82.25068 A 21.750674,21.750674 0 0 1 612.25068,104.00136 21.750674,21.750674 0 0 1 590.5,82.25068 21.750674,21.750674 0 0 1 612.25068,60.5 21.750674,21.750674 0 0 1 634.00133,82.25068 Z"
     inkscape:label="C17.8" />
</svg>
