<?xml version="1.0" encoding="UTF-8" standalone="no"?>
<!-- Created with Inkscape (http://www.inkscape.org/) -->

<svg
   width="700"
   height="750"
   viewBox="0 0 700 750.00002"
   id="svg4732"
   version="1.1"
   inkscape:version="1.3 (0e150ed, 2023-07-21)"
   sodipodi:docname="level3_C53.svg"
   xmlns:inkscape="http://www.inkscape.org/namespaces/inkscape"
   xmlns:sodipodi="http://sodipodi.sourceforge.net/DTD/sodipodi-0.dtd"
   xmlns="http://www.w3.org/2000/svg"
   xmlns:svg="http://www.w3.org/2000/svg"
   xmlns:rdf="http://www.w3.org/1999/02/22-rdf-syntax-ns#"
   xmlns:cc="http://creativecommons.org/ns#"
   xmlns:dc="http://purl.org/dc/elements/1.1/">
  <defs
     id="defs4734" />
  <sodipodi:namedview
     id="base"
     pagecolor="#ffffff"
     bordercolor="#666666"
     borderopacity="1.0"
     inkscape:pageopacity="0.0"
     inkscape:pageshadow="2"
     inkscape:zoom="0.46332195"
     inkscape:cx="14.029122"
     inkscape:cy="372.31131"
     inkscape:document-units="px"
     inkscape:current-layer="layer1"
     showgrid="false"
     inkscape:window-width="1344"
     inkscape:window-height="742"
     inkscape:window-x="0"
     inkscape:window-y="25"
     inkscape:window-maximized="0"
     inkscape:showpageshadow="2"
     inkscape:pagecheckerboard="0"
     inkscape:deskcolor="#d1d1d1" />
  <metadata
     id="metadata4737">
    <rdf:RDF>
      <cc:Work
         rdf:about="">
        <dc:format>image/svg+xml</dc:format>
        <dc:type
           rdf:resource="http://purl.org/dc/dcmitype/StillImage" />
      </cc:Work>
    </rdf:RDF>
  </metadata>
  <g
     inkscape:label="Laag 1"
     inkscape:groupmode="layer"
     id="layer1"
     transform="translate(0,10.629921)">
    <path
       id="C53.1"
       style="fill:none;fill-rule:evenodd;stroke:#ffffff;stroke-width:0.654604;stroke-linecap:butt;stroke-linejoin:miter;stroke-dasharray:none;stroke-opacity:1"
       d="m 341.04442,418.27658 6.59805,0.58188 c 0.22123,1.10447 1.15247,2.56627 1.94483,3.95817 0.9702,1.5494 2.18546,2.6119 3.46076,3.55507 3.6721,2.12944 4.869,2.01616 6.46184,2.26165 1.97458,0.25486 4.04871,-0.40764 6.10513,-0.90687 1.39394,-0.27224 3.47277,-1.46579 5.40934,-2.46798 2.9384,-1.88111 5.73781,-4.00457 8.56231,-6.08427 l 7.87671,-6.33105 c 2.43456,-1.87037 4.85437,-3.83253 7.35862,-5.26896 1.18171,-0.62434 2.42914,-0.98732 3.69362,-1.28249 1.1937,-0.19967 2.43117,-0.37374 4.00541,-0.35071 l 2.23674,0.14959 1.27748,0.57244 0.18057,0.60925 -0.14764,2.70854 -1.13195,1.59929 c -1.49341,1.52081 -3.96088,-0.06 -6.15415,-0.76756 -2.4459,0.82278 -4.14249,2.33889 -6.1223,3.59293 l -8.69086,6.4939 c -2.87813,2.35797 -6.12053,4.43503 -9.42695,6.46271 l -5.47083,3.1493 c -1.61885,0.87968 -2.94108,1.1116 -4.3146,1.45555 -2.02387,0.4666 -4.03402,0.40246 -6.04356,0.31483 -1.58802,-0.12252 -3.24644,-0.46016 -4.91153,-0.81819 -1.91119,-0.25951 -3.76677,-1.17086 -5.6025,-2.31471 -2.01636,-1.40241 -3.16667,-2.66751 -4.20619,-3.91505 -1.19506,-1.52426 -1.80865,-2.82811 -2.22681,-4.05788 z m -75.70735,-5.53129 c 0.41046,-1.13371 0.94858,-2.20553 2.1261,-2.96724 l 3.07947,-1.72451 c 1.61162,-0.55931 3.41546,-1.24239 3.87343,-1.05895 1.5772,-0.0656 3.18696,0.0655 4.83874,0.45046 1.59378,0.51914 3.02909,0.62331 5.22501,2.7191 l 5.72671,4.41467 12.83993,9.63681 c 2.95709,1.89113 5.96829,3.45922 9.15558,3.97623 1.97066,0.33673 4.04743,0.42092 6.78242,-1.06123 1.55488,-0.96928 3.16245,-1.85046 4.50061,-3.18212 0.91603,-1.47615 2.32036,-3.05246 2.73197,-4.42515 l 6.83803,-1.57351 c -0.043,1.39515 -0.20106,2.79318 -0.81607,4.20266 -0.64468,1.27787 -1.36207,2.47247 -2.28939,3.42665 -0.96563,1.08148 -2.14284,2.12462 -3.5533,3.12549 -1.67737,1.20547 -3.47932,2.09004 -5.32868,2.85246 -2.23774,0.65812 -4.47474,1.49757 -6.71552,1.41904 -2.578,-0.0361 -5.16522,-0.16939 -7.82941,-1.11186 -2.04405,-0.73721 -4.09209,-1.44537 -6.07943,-2.59576 l -6.08934,-3.8864 -5.81541,-4.56145 -4.47075,-3.6571 -3.57148,-2.63163 c -1.4242,-0.83177 -2.85813,-1.27256 -4.30674,-1.12348 l -3.25967,1.19927 -1.9971,0.44633 c -1.22957,-0.004 -2.69609,0.36947 -3.54578,-0.24034 -0.72183,-0.689 -2.44506,-1.36546 -2.04993,-2.06844 z"
       inkscape:label="C53.1"
       inkscape:connector-curvature="0"
       sodipodi:nodetypes="cccccccccccccccccccccccccccccccccccccccccccccccccccccccccc" />
    <path
       id="C53.9"
       style="font-size:33.2768px;font-family:'.Arial Hebrew Desk Interface';-inkscape-font-specification:'.Arial Hebrew Desk Interface, Normal';display:inline;fill:none;fill-rule:evenodd;stroke:#000000;stroke-width:1;stroke-dasharray:none;image-rendering:optimizeQuality;shape-rendering:geometricPrecision;text-rendering:geometricPrecision"
       d="m 618.93383,133.08552 q -2.7719,3.62043 -7.41057,3.62043 -4.18613,0 -6.84489,-2.65875 -2.60219,-2.71532 -2.60219,-6.78832 0,-4.35583 2.99817,-7.354 3.05474,-2.99817 7.24087,-2.99817 5.31751,0 8.42882,3.95985 3.16787,3.95985 3.16787,10.63501 0,7.24086 -3.28101,11.70984 -3.22446,4.46898 -8.99452,4.46898 -3.05473,0 -5.54378,-1.69709 -2.43247,-1.75366 -2.99817,-4.01642 l 4.80839,-0.7354 q 1.13138,2.14964 4.12955,2.14964 3.22446,0 5.03468,-2.7719 1.86678,-2.82846 1.86678,-7.5237 z m -0.90511,-5.93977 q 0,-2.88504 -1.47081,-4.52555 -1.41423,-1.64049 -3.95985,-1.64049 -2.20619,0 -3.79014,1.75363 -1.58393,1.69709 -1.58393,4.41241 0,2.37592 1.4708,3.95985 1.47081,1.52736 3.8467,1.52736 2.26278,0 3.84672,-1.52736 1.64051,-1.58393 1.64051,-3.95985 z m 15.97264,4.47502 A 21.750674,21.750674 0 0 1 612.25068,153.37143 21.750674,21.750674 0 0 1 590.5,131.62077 a 21.750674,21.750674 0 0 1 21.75068,-21.75069 21.750674,21.750674 0 0 1 21.75068,21.75069 z"
       inkscape:label="C53.9" />
    <path
       id="C53.0"
       style="fill:none;fill-rule:evenodd;stroke:#000000;stroke-width:0.654604;stroke-linecap:butt;stroke-linejoin:miter;stroke-dasharray:none;stroke-opacity:1"
       d="m 315.93325,309.56062 11.85133,-0.46436 c 0,0 0.60571,0.75797 0.72291,1.25832 0.0871,0.37212 0.0311,0.80196 -0.13266,1.14339 -0.17868,0.37247 -0.64989,0.8215 -0.90433,0.95404 -0.47409,0.24698 -1.23226,0.46046 -1.28792,1.06834 -0.0569,0.6217 0.0118,1.2904 0.22026,1.88913 0.2364,0.67903 0.52164,1.37796 0.97331,1.94507 0.41909,0.52622 0.7192,1.16074 1.14259,1.6944 0.52464,0.66126 0.87876,1.3381 1.3037,2.01634 0.29167,0.46552 0.34958,0.95918 0.5334,1.43535 0.24459,0.63357 0.34057,1.2587 0.46542,1.89807 0.12901,0.66066 0.0471,1.34795 0.2129,1.99631 0.14826,0.57999 0.0697,1.18323 0.26814,1.7331 0.26595,0.737 0.38669,1.46422 0.63614,2.17835 0.34317,0.9824 0.49935,1.95006 0.75933,2.92237 0.44857,1.67765 0.5408,3.348 0.78678,5.0257 0.71039,4.8451 0.96829,9.69172 1.3514,14.54626 0.22429,2.84209 -0.11524,5.67104 -0.4478,8.53974 -0.0808,0.69687 -0.0823,1.43481 -0.30304,2.1103 -0.19357,0.59229 -0.1974,1.38683 -0.63937,1.87926 -0.2639,0.29403 -0.6073,0.52289 -0.74924,0.88143 -0.24909,0.62919 -0.66617,1.29025 -0.74226,1.99602 -0.0773,0.71697 -0.0133,1.57959 0.1711,2.2305 0.13665,0.4825 0.57168,0.86777 0.91386,1.25653 0.26194,0.2976 0.34303,0.7487 0.51688,1.12198 0.34564,0.74211 0.28746,1.47794 0.30902,2.21093 0.0228,0.77521 -0.015,1.5046 -0.0394,2.25649 -0.0219,0.67572 -0.12118,1.33015 -0.3081,1.98532 -0.20666,0.72435 -0.99062,1.34309 -1.1638,2.13487 -0.16166,0.73909 -0.43083,1.59594 -0.3427,2.39885 0.0693,0.63148 -0.0242,1.38889 0.0341,1.95847 0.0649,0.63306 0.56873,1.15241 1.0266,1.58393 0.37813,0.35636 0.51174,0.70145 0.77136,1.0494 0.36579,0.49026 0.39148,1.00678 0.5327,1.52706 0.14169,0.522 -0.037,1.0376 -0.12356,1.54794 -0.15316,0.90346 -0.60102,1.66049 -0.95695,2.46778 -0.26431,0.59945 -0.74584,1.08964 -1.12641,1.55224 -0.56355,0.68504 -0.85772,1.742 -0.73111,2.64933 0.16453,1.17893 0.11587,2.58543 0.61551,3.74914 0.46009,1.07158 0.54498,2.11224 1.07851,3.04901 0.35611,0.62524 0.53269,1.32451 0.51554,2.01883 -0.0165,0.66752 -0.10891,1.41939 -0.1465,2.13011 -0.0389,0.73504 -0.0957,1.47076 -0.0816,2.20669 0.0189,0.99354 -0.13587,1.97507 -0.12309,2.96377 0.0167,1.28431 -0.24116,3.69313 -0.24116,3.69313 l -6.83803,1.57351 c 0,0 0.52748,-1.44832 0.62276,-2.20664 0.13872,-1.1041 0.41908,-2.27204 0.37392,-3.48595 -0.0486,-1.30762 0.0209,-2.6066 -0.33618,-3.93679 0.0473,9.4e-4 -0.83406,-2.23242 -1.24944,-3.4955 -0.32749,-0.99578 -1.00478,-2.00285 -1.49683,-3.1279 -0.34621,-0.79159 -0.38911,-1.70671 -0.34152,-2.56939 0.0732,-1.32674 0.23579,-2.66597 0.56749,-3.95628 0.31709,-1.23345 0.55144,-2.42615 0.95965,-3.59856 0.29919,-0.85933 0.291,-1.64942 0.45241,-2.4711 0.11662,-0.5937 -0.0979,-1.0839 -0.18412,-1.62075 -0.14955,-0.93148 -1.04799,-1.7633 -1.21732,-2.75197 -0.21262,-1.24142 -0.0388,-2.58672 0.0865,-3.87142 0.0882,-0.90423 -0.10457,-1.81211 0.0728,-2.69212 0.13502,-0.66993 0.52042,-1.2363 0.85252,-1.81711 0.24143,-0.42227 0.5965,-0.77437 0.8241,-1.20425 0.38353,-0.7244 0.52796,-1.50314 0.67985,-2.28226 0.14567,-0.74723 -0.11686,-1.52803 -0.41188,-2.22067 -0.45352,-1.0648 -0.86086,-2.08799 -0.88654,-3.19195 -0.0194,-0.83396 -0.22627,-1.71801 -0.12695,-2.56993 0.13139,-1.12688 0.10125,-2.27321 0.50777,-3.31433 0.77876,-1.99447 1.27963,-4.99972 1.57156,-6.2316 0.25762,-1.08716 0.12839,-2.23326 0.28218,-3.33989 0.12097,-0.87035 0.0529,-1.7574 0.0771,-2.63617 0.0274,-1.00081 -0.30031,-1.99053 -0.56606,-2.95893 -0.8901,-3.24351 -2.59298,-9.59918 -2.59298,-9.59918 l -5.71014,-18.93785 z m 31.29631,0.1124 11.79417,-0.15537 c 0,0 -1.20399,3.98826 -1.77253,5.99208 -1.08659,3.82971 -2.29152,7.6335 -3.13154,11.52474 -0.53726,2.48879 -1.32509,4.93271 -2.00575,7.39412 -1.15239,4.16735 -2.45011,8.32196 -3.51838,12.48495 -0.5507,2.14608 -0.9372,4.38093 -1.11477,6.60748 -0.17536,2.19898 -0.6965,4.42916 0.0852,6.42233 0.83094,2.11877 1.60116,3.928 1.74196,5.83274 0.0855,1.15608 0.13232,2.12221 -0.0498,3.15971 -0.15292,0.87111 -0.44425,1.64442 -0.86426,2.50858 -0.43931,0.90391 -0.52,1.9775 -0.45542,2.98042 0.0704,1.09379 0.57132,2.21159 0.90944,3.15991 0.43933,1.23222 1.35125,2.27851 2.00094,3.27881 0.48864,0.75233 0.70944,2.63394 0.55957,2.98481 -0.26347,1.25299 -0.72051,2.51413 -1.16446,3.77472 -0.31619,0.94059 -0.31484,1.92568 -0.24489,2.92038 l 0.23436,3.42462 c 0.23501,1.25785 0.43011,2.51117 1.30191,3.84159 0.29074,1.2124 0.58501,2.42455 0.2204,3.68393 -0.16446,1.01672 -0.17643,2.01122 -0.56009,3.0599 l -0.75904,2.01691 c -0.60708,1.06319 -1.7595,2.09685 -2.32886,3.39757 -0.43939,1.14821 -0.75609,2.28933 -0.87258,3.41887 -0.0617,0.93439 -0.18236,1.87001 -0.0835,2.80104 l 0.49089,2.6706 -6.59805,-0.58188 -0.35184,-3.1744 -0.56432,-5.48684 c 0.0805,-1.70513 0.13454,-3.40756 0.45009,-5.13659 0.54451,-1.80163 1.56598,-3.19409 1.42926,-5.58015 -0.0992,-0.81393 -0.15368,-1.62032 -0.56918,-2.48762 l -1.70176,-3.782 c -0.0659,-0.71181 -0.58355,-0.79947 -0.0912,-2.28263 l 0.81859,-1.63142 0.851,-1.02761 c 0.16907,-0.16691 0.34139,-0.38217 0.57263,-1.47399 0.0241,-0.46408 0.14949,-0.49505 -0.0427,-1.88411 l -0.4093,-2.15687 -0.47107,-2.43281 -0.52486,-1.82194 c -0.14334,-0.90572 -0.94696,-0.71798 -0.29535,-2.94022 l 0.98814,-2.44782 0.47387,-1.17767 0.35452,-1.92087 c -0.10167,-0.65108 0.0154,-1.21354 -0.35462,-1.97334 l -0.76292,-1.54996 -0.88513,-1.73405 -0.4621,-2.03458 0.005,-3.37463 1.87684,-22.59556 c 0.2172,-1.83755 0.0782,-3.69286 1.19706,-5.48548 0.44866,-1.0302 1.08066,-2.11417 1.31602,-3.08181 l 0.0993,-2.14694 0.88757,-2.15575 0.61171,-1.25422 0.91453,-2.09654 c 0.53389,-0.60993 1.16712,-1.22163 1.485,-1.82769 0.1552,-0.52041 0.32058,-1.03936 0.30039,-1.58494 l 0.12337,-1.48232 -0.0811,-0.9308 c -0.83374,-0.78828 -1.02808,-0.91384 -1.47999,-1.15877 -0.64292,-0.33555 -1.10367,-0.6908 -0.96483,-1.11095 -0.0743,-1.24047 0.78103,-1.62033 1.44255,-2.17967 z"
       inkscape:label="C53.0"
       inkscape:connector-curvature="0"
       sodipodi:nodetypes="ccsssssssssssssssssssssssssssssssssssssssssssccsscssssssssssssssssssssscccccsssssssssssscccccccccccccccccccccccccccccccccccccccccccccccccc" />
    <path
       id="C53.8"
       style="font-size:33.2768px;font-family:'.Arial Hebrew Desk Interface';-inkscape-font-specification:'.Arial Hebrew Desk Interface, Normal';display:inline;fill:none;fill-rule:evenodd;stroke:#000000;stroke-width:1;stroke-dasharray:none;image-rendering:optimizeQuality;shape-rendering:geometricPrecision;text-rendering:geometricPrecision"
       d="m 606.21,70.328509 q -3.28102,-2.26276 -3.28102,-6.10946 0,-3.84672 2.77191,-5.88321 2.82845,-2.03649 6.50545,-2.03649 3.62044,0 6.44891,2.03649 2.82846,2.03649 2.82846,5.88321 0,3.8467 -3.28102,6.10946 v 0.0567 q 2.2062,1.01825 3.5073,3.05474 1.35765,1.97992 1.35765,4.35583 0,3.84672 -2.99816,6.61861 -2.99817,2.7719 -7.86314,2.7719 -5.03466,0 -7.97626,-2.7719 -2.88504,-2.82846 -2.88504,-6.61861 0,-2.37591 1.30111,-4.35583 1.35766,-2.03649 3.56385,-3.05474 z m 5.99634,-1.58393 q 1.69709,0 3.05474,-1.01824 1.41423,-1.01825 1.41423,-2.94161 0,-2.09306 -1.35766,-3.1113 -1.30108,-1.07483 -3.11131,-1.07483 -1.97992,0 -3.22444,1.13139 -1.24453,1.13138 -1.24453,3.05474 0,1.86678 1.35767,2.94161 1.41423,1.01824 3.1113,1.01824 z m 0,14.14232 q 2.14963,0 3.79014,-1.24453 1.64051,-1.24452 1.64051,-3.84671 0,-2.09306 -1.58393,-3.5073 -1.58394,-1.41423 -3.84672,-1.41423 -2.20619,0 -3.8467,1.41423 -1.58394,1.41424 -1.58394,3.5073 0,2.60219 1.64051,3.84671 1.64051,1.24453 3.79013,1.24453 z m 21.79499,-11.26614 A 21.750674,21.750674 0 0 1 612.25068,93.371439 21.750674,21.750674 0 0 1 590.5,71.620759 a 21.750674,21.750674 0 0 1 21.75068,-21.75068 21.750674,21.750674 0 0 1 21.75065,21.75068 z"
       inkscape:label="C53.8" />
    <path
       style="fill:none;fill-rule:evenodd;stroke:#000000;stroke-width:0.935149;stroke-linecap:butt;stroke-linejoin:miter;stroke-dasharray:none;stroke-opacity:1"
       d="m 220.86478,614.20594 c 3.22535,8.5909 4.3411,12.16569 13.18756,19.74241 7.38531,6.3253 15.05934,9.39575 27.02157,13.6129 11.55245,4.07267 15.37353,4.07637 30.15687,2.28461 7.26253,-0.67372 14.13416,-2.81775 20.78446,-5.7097"
       id="path4712-4"
       inkscape:connector-curvature="0"
       sodipodi:nodetypes="csssc" />
    <path
       style="fill:none;fill-rule:evenodd;stroke:#000000;stroke-width:0.935149;stroke-linecap:butt;stroke-linejoin:miter;stroke-dasharray:none;stroke-opacity:1"
       d="m 402.1581,412.15562 c 0.64782,0.0974 1.60624,-0.0183 2.21543,-0.2592 0.7222,-0.28559 1.13368,-0.83308 1.50013,-1.51781 0.25409,-0.47476 0.46437,-0.9962 0.46437,-1.53469 0,-0.75388 -0.11172,-1.92346 -0.30277,-2.18087 -0.63907,-0.86097 -3.65286,-0.76398 -5.49258,-0.6462 -1.77256,0.11348 -3.54949,0.56405 -5.16948,1.29239 -0.5111,0.22978 -1.00251,0.4955 -1.48014,0.78606 -1.63564,0.99501 -3.10959,2.2814 -4.65863,3.41413 -4.52142,3.30627 -8.6467,7.14307 -13.2468,10.33897 -2.70016,1.87594 -5.34045,3.96669 -8.40041,5.16949 -2.55542,1.00448 -5.33821,1.80652 -8.07732,1.61546 -2.27653,-0.1588 -4.55426,-1.00907 -6.46184,-2.26165 -1.59269,-1.04582 -2.8778,-2.57792 -3.87711,-4.2002 -0.96521,-1.56692 -1.70081,-3.34457 -1.93856,-5.16948 -0.27966,-2.14656 -0.0349,-4.40709 0.64618,-6.46186 0.59271,-1.78828 2.20274,-3.09937 2.90784,-4.84638 0.53777,-1.33244 0.90829,-2.76464 0.96927,-4.20021 0.0646,-1.5217 0.58134,-2.4003 -0.64619,-4.52331 -1.2267,-2.12159 -1.07878,-6.58734 -1.13082,-7.26958 -0.1879,-2.46403 1.81413,-4.82479 1.45393,-7.26958 -0.26687,-1.81131 -1.95605,-3.12686 -2.58475,-4.84639 -0.52951,-1.44823 -1.07534,-2.98496 -0.96928,-4.5233 0.0867,-1.25758 1.07367,-2.31257 1.29238,-3.55402 0.28029,-1.59097 0.24984,-3.25037 0,-4.8464 -0.29332,-1.87375 -1.49477,-3.53673 -1.73872,-5.41755 -0.37275,-2.87378 0.01,-5.81841 0.45692,-8.68153 0.92365,-5.91302 2.98553,-11.59163 4.56922,-17.36302 2.64075,-9.62359 4.99651,-19.3433 8.2246,-28.7861 2.12254,-6.20882 4.73402,-12.2424 7.31076,-18.27687 2.89081,-6.76998 5.80104,-13.54323 9.13843,-20.10458 3.64862,-7.17322 7.80112,-14.0808 11.87998,-21.01841 3.25679,-5.53939 6.04269,-11.42776 10.05228,-16.44919 4.90612,-6.14422 11.26613,-10.97088 16.90613,-16.4492 5.02202,-4.87806 9.25876,-10.72946 15.07842,-14.6215 4.13938,-2.76832 8.97475,-4.39152 13.70766,-5.93999 3.26586,-1.06849 6.6669,-1.69573 10.05228,-2.28461 7.7091,-1.34098 15.56034,-1.59823 23.30302,-2.83286 1.68161,-0.26815 3.4764,-0.57375 5.02615,-1.27943 0.88756,-0.40415 1.93892,-0.95217 2.59797,-1.67101 0.74222,-0.80956 1.44608,-1.80204 1.51432,-2.89822 0.0635,-1.01973 -0.6483,-2.01908 -1.37076,-2.74153 -1.92655,-1.92656 -4.65908,-3.0294 -7.31075,-3.65537 -6.96695,-1.64466 -14.3195,-0.19326 -21.47533,0 -11.28309,0.30473 -22.58756,0.64132 -33.81224,1.82768 -8.74038,0.9238 -17.30232,3.20618 -26.04456,4.1123 -12.13479,1.25776 -24.35775,1.52298 -36.55376,1.82769 -10.35366,0.25868 -20.71506,0.16199 -31.0707,0 -6.94519,-0.10864 -13.88938,-0.32912 -20.82792,-0.65177 -8.73067,-0.40598 -17.4674,-0.81203 -26.17051,-1.61547 -3.51164,-0.32419 -6.99267,-0.92919 -10.5005,-1.29237 -12.14782,-1.25773 -24.30853,-2.53225 -36.50947,-3.06938 -13.0727,-0.5755 -26.27123,-2.00797 -39.25577,-0.38669 -1.71071,0.21361 -3.62664,0.48592 -5.00793,1.51751 -1.0063,0.75154 -1.86476,1.97714 -1.93855,3.23093 -0.0694,1.17896 0.73033,2.29756 1.45391,3.23093 0.63376,0.81752 1.4836,1.50595 2.42319,1.93855 1.04565,0.48144 2.25401,0.47578 3.39249,0.64619 3.42867,0.51322 6.90739,0.63735 10.33896,1.13083 3.03204,0.43602 6.03191,1.07223 9.04659,1.61546 3.55503,0.6406 7.17848,0.98289 10.66206,1.93854 3.87776,1.06379 7.66745,2.49337 11.30825,4.20021 3.03586,1.42325 5.88377,3.22523 8.7235,5.00795 4.19977,2.63652 8.47601,5.2164 12.27752,8.4004 3.2403,2.71395 6.08039,5.8845 8.88505,9.0466 2.97433,3.3534 5.77711,6.86592 8.40041,10.5005 3.53149,4.89286 6.75247,10.00946 9.85432,15.18536 5.5009,9.17904 10.67839,18.55997 15.50845,28.10908 2.78396,5.50394 5.60824,11.01819 7.75422,16.80081 1.50033,4.04286 2.32947,8.30432 3.55402,12.43907 3.59872,12.15119 7.63764,24.17054 11.14671,36.34792 0.97296,3.37643 1.86241,6.77659 2.74627,10.17743 0.33509,1.28931 0.82934,2.55234 0.96929,3.8771 0.16417,1.5539 -0.006,3.13008 -0.16156,4.68485 -0.19582,1.95551 -0.53181,3.89968 -0.96927,5.81567 -0.29966,1.31244 -0.94043,2.54441 -1.13082,3.8771 -0.20561,1.43931 -0.13056,2.91371 0,4.36175 0.0541,0.59962 0.16857,1.19514 0.3231,1.77702 0.24916,0.93825 0.86909,1.7807 0.96926,2.74629 0.0841,0.81053 -0.0623,1.65119 -0.32308,2.42319 -0.41693,1.2339 -1.5713,2.1429 -1.93857,3.39248 -0.2889,0.98296 -0.11135,2.04606 -0.16153,3.06938 -0.0581,1.18447 -0.36984,2.38655 -0.16155,3.55401 0.19498,1.09286 1.03103,1.99046 1.29237,3.06938 0.16529,0.68237 0.22053,1.40049 0.16155,2.10011 -0.11191,1.32744 -0.67702,2.57742 -0.96928,3.87711 -0.36144,1.60732 -0.88494,3.2011 -0.96929,4.84639 -0.0582,1.13446 0.01,2.30055 0.32311,3.39247 0.19917,0.69446 0.67924,1.27687 0.96926,1.93855 0.67049,1.52969 1.41309,3.0548 1.77701,4.68485 0.30597,1.37047 0.40399,2.79834 0.3231,4.20021 -0.11376,1.97158 -0.39706,3.98218 -1.13083,5.81567 -0.59385,1.48389 -2.58474,4.03865 -2.58474,4.03865 0,0 -2.15362,1.88738 -3.39247,2.58475 -1.41166,0.79464 -2.91897,1.55268 -4.52331,1.77701 -1.66094,0.23226 -3.38657,-0.0558 -5.00792,-0.48465 -2.16717,-0.5732 -4.19784,-1.62469 -6.13877,-2.74629 -2.30352,-1.33112 -4.32061,-3.10584 -6.46185,-4.68484 -2.60034,-1.91757 -5.17481,-3.87002 -7.75422,-5.81567 -1.56486,-1.18037 -3.12446,-2.36771 -4.68484,-3.55401 -1.13173,-0.8604 -2.12157,-1.94764 -3.39248,-2.58475 -1.40182,-0.70274 -2.97036,-1.07487 -4.5233,-1.29237 -1.43987,-0.20165 -2.93495,-0.27949 -4.36175,0 -1.54067,0.3018 -3.00436,0.9882 -4.36175,1.77701 -0.82894,0.48172 -1.70908,0.92811 -2.33548,1.65395 -0.56729,0.65734 -1.21293,1.49958 -1.20986,2.16664 0.003,0.57243 0.66915,1.16047 1.12215,1.51044 0.57171,0.44169 1.25965,0.7552 1.96905,0.89196 1.64484,0.0176 2.93749,-0.0218 4.50161,-0.53995 1.07907,-0.31601 2.42436,-1.07048 3.54521,-1.15972 0.81231,-0.0647 1.6596,0.0385 2.4232,0.32309 1.93138,0.7196 5.16948,3.39247 5.16948,3.39247 0,0 4.04604,3.39727 6.13876,5.00794 2.68874,2.0694 5.31039,4.26379 8.23887,5.97721 2.55796,1.49664 5.24278,2.85035 8.0773,3.71556 2.24379,0.68489 4.60053,1.13526 6.94651,1.13083 2.29285,-0.005 4.62749,-0.35461 6.78494,-1.13083 2.92874,-1.05373 5.74558,-2.62309 8.07731,-4.68484 1.67012,-1.47674 3.18835,-3.27019 4.03867,-5.33103 0.76684,-1.85852 0.62511,-3.975 0.80772,-5.97721 0.20565,-2.25485 0.22076,-4.52305 0.3231,-6.78495 0.0384,-0.85036 0.23205,-1.70902 0.10939,-2.55137 -0.16832,-1.15584 -0.80572,-2.1942 -1.1423,-3.31269 -0.35129,-1.16734 -0.78118,-2.32932 -0.91385,-3.54114 -0.12024,-1.09832 -0.23047,-2.26294 0.11422,-3.31269 0.27346,-0.83285 1.06284,-1.40213 1.48501,-2.17037 0.41896,-0.76243 0.83292,-1.55106 1.02807,-2.39885 0.17957,-0.78011 0.29861,-1.61984 0.11424,-2.39884 -0.16099,-0.68021 -0.62045,-1.25984 -1.02808,-1.82768 -0.29873,-0.41615 -0.82397,-0.67245 -1.02807,-1.1423 -0.35023,-0.8063 -0.25271,-1.74857 -0.22847,-2.62731 0.0223,-0.80743 0.0946,-1.63016 0.3427,-2.39885 0.27726,-0.85902 1.00462,-1.53202 1.25653,-2.39883 0.25591,-0.88058 0.20868,-1.82474 0.22846,-2.74154 0.0206,-0.95246 0.0846,-1.92405 -0.11423,-2.85575 -0.12838,-0.60161 -0.38795,-1.175 -0.68537,-1.71347 -0.25041,-0.45334 -0.72341,-0.77492 -0.91386,-1.25653 -0.22578,-0.57094 -0.28896,-1.21671 -0.22846,-1.82769 0.083,-0.83876 0.39683,-1.65844 0.79962,-2.39883 0.23303,-0.42834 0.70319,-0.70254 0.91384,-1.14232 0.45496,-0.94981 0.53038,-2.04254 0.68539,-3.08422 0.36535,-2.45527 0.58625,-4.94273 0.57115,-7.42498 -0.0365,-6.00168 -0.80175,-11.98564 -1.59923,-17.9342 -0.20046,-1.49535 -0.46117,-2.98471 -0.79961,-4.45499 -0.34613,-1.50361 -0.95055,-2.94269 -1.25654,-4.45497 -0.24351,-1.20356 -0.19173,-2.45642 -0.45692,-3.6554 -0.24185,-1.09344 -0.53733,-2.19183 -1.02807,-3.19845 -0.5646,-1.15814 -1.5289,-2.08105 -2.17039,-3.19844 -0.48333,-0.8419 -1.04179,-1.68058 -1.25653,-2.62731 -0.13476,-0.59414 -0.28746,-1.29054 0,-1.82768 0.25912,-0.48417 0.98245,-0.52555 1.37076,-0.91386 0.38831,-0.38831 0.86569,-0.82372 0.91385,-1.37076 0.0583,-0.66242 -0.44727,-1.26373 -0.79962,-1.82769 -0.5296,-0.84763 -1.41232,-1.43697 -1.94191,-2.2846 -0.35236,-0.56396 -0.53679,-1.21686 -0.79961,-1.82769 -0.42487,-0.98744 -0.95307,-1.93876 -1.25655,-2.96999 -0.25096,-0.85275 0.13744,-1.9663 -0.4569,-2.62731 -0.37069,-0.41227 -1.22061,-0.052 -1.59924,-0.45692 -0.37233,-0.39823 -0.45573,-1.06589 -0.34269,-1.59923 0.10738,-0.50664 0.70269,-0.78363 0.91384,-1.25654 0.22228,-0.49781 0.34475,-1.05405 0.34269,-1.59922 -0.009,-2.45734 -0.48049,-5.00859 -1.59922,-7.19652 -0.20873,-0.40824 -0.51112,-0.8089 -0.91385,-1.02807 -0.4399,-0.2394 -1.06039,0.0371 -1.48499,-0.22846 -0.51043,-0.31927 -0.99612,-0.88381 -1.02808,-1.48501 -0.0253,-0.47643 0.68538,-1.25653 0.68538,-1.25653 l 0.57115,-1.02808 c 0,0 -1.09735,-0.90209 -1.48499,-1.48499 -0.50119,-0.75364 -0.97288,-1.60967 -1.02808,-2.51307 -0.0265,-0.43333 0.3427,-1.25655 0.3427,-1.25655 0,0 -0.40037,-0.80179 -0.68539,-1.14229 -1.52438,-1.82104 -5.36884,-4.68346 -5.36884,-4.68346 l 1.59924,-0.91383 c 0,0 1.12918,-0.45427 1.48499,-0.91385 0.31706,-0.40951 0.55154,-0.97582 0.45692,-1.48501 -0.12386,-0.66652 -0.78411,-1.11299 -1.25653,-1.59921 -0.41448,-0.42658 -1.37076,-1.14231 -1.37076,-1.14231 v -1.94192 l -1.71348,-0.91384 -2.51305,-0.68539 -1.25654,0.11423 3.65537,-0.34269 1.14231,-1.25654 c 0,0 -0.0576,-0.76384 -0.11423,-1.1423 -0.0862,-0.57605 -0.26467,-1.13624 -0.34269,-1.71345 -0.0715,-0.52962 -0.11423,-1.59923 -0.11423,-1.59923 l -1.02808,-0.79961 h -0.91384 l 1.02808,-1.02808 c 0,0 0.73056,-0.84632 0.79961,-1.37077 0.11334,-0.86086 -0.22106,-1.77936 -0.68538,-2.51307 -0.18772,-0.29664 -0.49566,-0.50975 -0.79962,-0.68538 -0.59435,-0.34343 -1.94192,-0.68538 -1.94192,-0.68538 l 0.56428,-0.44877 v -0.64619 l -0.0808,-1.29235 -0.88851,-0.24233 -0.72696,-0.48465 1.21161,-1.21159 c 0,0 0.54813,-0.29944 0.5654,-0.56541 0.0286,-0.44067 -0.48509,-0.74854 -0.80773,-1.05005 -0.35463,-0.3314 -0.75946,-0.63116 -1.21159,-0.80772 -0.48243,-0.1884 -1.02077,-0.30646 -1.53469,-0.24233 -0.61041,0.0762 -1.69623,0.72696 -1.69623,0.72696 l -0.99209,-0.13248 -0.68539,-1.02808 1.02809,-0.68538 h 1.48499 l 1.48499,-0.3427 c 0,0 0.0855,-1.10351 -0.11423,-1.59922 -0.22229,-0.55168 -0.83964,-0.85875 -1.1423,-1.37077 -0.47856,-0.80956 -0.51334,-1.84026 -1.02808,-2.6273 -0.14737,-0.22534 -0.4296,-0.34213 -0.57115,-0.57116 -0.18991,-0.30728 -0.18115,-0.70497 -0.34269,-1.02806 -0.26925,-0.53849 -0.59865,-1.06304 -1.02808,-1.48501 -0.29377,-0.28866 -1.02806,-0.68538 -1.02806,-0.68538 0,0 -1.09714,0.39509 -1.59923,0.68538 -0.65929,0.38117 -1.10523,1.12996 -1.82769,1.37078 -0.36123,0.12041 -0.79557,0.15734 -1.14231,0 -0.36859,-0.16726 -0.61202,-0.55519 -0.79961,-0.91385 -0.14552,-0.27823 -0.3504,-0.62451 -0.22846,-0.91384 0.20544,-0.48746 0.90768,-0.54393 1.37076,-0.79962 0.86474,-0.47746 2.62731,-1.37077 2.62731,-1.37077 l -0.11424,-0.68539 -1.25654,-0.45691 -1.82769,-0.57115 -1.82769,-1.25654 c 0,0 -0.77097,0.0218 -1.14229,0.11423 -0.87828,0.21864 -1.6765,0.68268 -2.51308,1.02808 -0.91507,0.37781 -2.74154,1.14229 -2.74154,1.14229 0,0 -0.5672,-0.29825 -0.68537,-0.57115 -0.25766,-0.59503 -0.14292,-1.34666 0.11423,-1.94191 0.37389,-0.86543 1.94192,-2.05615 1.94192,-2.05615 l 1.37076,-1.48499 c 0,0 -0.0891,-0.63248 -0.22845,-0.91385 -0.21642,-0.43697 -0.54506,-0.8233 -0.91386,-1.1423 -0.96806,-0.83736 -3.31268,-1.94192 -3.31268,-1.94192 l -2.96998,-1.94192 -9.93807,-9.48113 -6.51113,-5.02614 -10.39499,-6.96807 c 0,0 -6.78296,-2.86434 -10.28073,-3.99807 -5.57884,-1.80828 -11.28788,-3.21725 -17.02035,-4.45498 -4.4178,-0.95388 -8.87976,-1.72803 -13.36497,-2.28461 -3.4111,-0.42329 -6.84358,-0.77349 -10.28075,-0.79962 -1.2208,-0.009 -2.44755,0.40625 -3.65537,0.22847 -1.08464,-0.15965 -2.16126,-0.55065 -3.08423,-1.14231 -0.63467,-0.40686 -1.45138,-0.85998 -1.59922,-1.59923 -0.13729,-0.68644 0.30026,-1.4513 0.79961,-1.94192 0.67082,-0.6591 1.70928,-0.82402 2.6273,-1.02806 1.15466,-0.25664 2.35832,-0.23304 3.54114,-0.22847 9.50581,0.0368 18.98591,1.09832 28.4434,2.05615 5.27215,0.53395 10.57702,0.97091 15.76382,2.05615 9.0819,1.90022 17.71753,5.56123 26.72993,7.76768 0.75434,0.18468 1.55229,0.71541 2.28462,0.45691 0.56086,-0.19798 0.93982,-0.81151 1.1423,-1.37077 0.16851,-0.46543 0,-1.48499 0,-1.48499 0,0 0.6267,0.10144 0.91385,0.22846 0.75331,0.33324 1.40264,0.86933 2.05615,1.37077 1.32711,1.01831 2.35493,2.41998 3.7696,3.31269 0.73572,0.46426 1.55763,0.80628 2.39884,1.02806 0.66682,0.1758 1.41905,0.49237 2.05616,0.22847 0.67576,-0.27991 0.99245,-1.08746 1.37075,-1.71346 0.34393,-0.56913 0.64994,-1.17977 0.79961,-1.82769 0.20587,-0.89116 -0.20642,-1.88495 0.11424,-2.74153 0.0855,-0.22834 0.45692,-0.57115 0.45692,-0.57115 0,0 0.77279,1.00168 0.91384,1.59923 0.15772,0.66807 -0.17532,1.37242 -0.11422,2.05614 0.0731,0.8187 0.17019,1.6813 0.57115,2.39884 0.28894,0.51708 0.72985,0.9855 1.25654,1.25654 0.61782,0.31794 1.36563,0.42007 2.05615,0.3427 0.89944,-0.10078 1.69823,-0.63412 2.51307,-1.02809 0.6293,-0.30426 1.82769,-1.02806 1.82769,-1.02806 0,0 1.01898,0.2229 1.37076,0.57114 0.41217,0.40803 0.30798,1.15885 0.68539,1.59923 0.46751,0.54551 1.13709,0.94424 1.82768,1.14231 1.31764,0.3779 2.74661,0.11787 4.1123,0 0.88562,-0.0764 2.6273,-0.45693 2.6273,-0.45693 l -0.11423,-3.08422 0.45691,-1.71346 0.45693,2.17038 0.45693,2.39884 c 0,0 1.13709,0.94425 1.82768,1.14231 0.54903,0.15746 1.14968,-0.0915 1.71346,0 1.06969,0.17358 2.1395,0.49715 3.08422,1.02807 0.56528,0.31768 0.87613,1.0335 1.48499,1.25654 0.4648,0.17026 1.04654,0.22973 1.485,0 0.53328,-0.27942 1.02808,-1.485 1.02808,-1.485 l 0.68538,-2.39884 0.45694,1.37078 0.7996,1.25652 3.65537,0.22846 c 0,0 3.58008,0.18152 5.36884,0.11423 1.18505,-0.0446 3.54115,-0.34269 3.54115,-0.34269 0,0 -0.14327,-0.76346 -0.22846,-1.14231 -0.2411,-1.07218 -0.68139,-2.10587 -0.79962,-3.19845 -0.13934,-1.28765 -0.26899,-2.64665 0.11423,-3.88384 0.1875,-0.60535 1.02808,-1.59922 1.02808,-1.59922 0,0 0.72725,0.31979 1.02807,0.57116 0.41527,0.347 0.84615,0.74684 1.02808,1.25652 0.51204,1.43442 0.13097,3.05179 0,4.56922 -0.0764,0.88562 -0.586,1.74782 -0.45692,2.62731 0.0495,0.33696 0.45692,0.91384 0.45692,0.91384 h 1.25653 c 0,0 5.56918,0.47562 8.33883,0.22846 0.92977,-0.0829 2.74153,-0.57115 2.74153,-0.57115 l 0.79962,-2.6273 0.57115,2.05615 0.68538,1.71346 c 0,0 1.14883,0.2084 1.71345,0.11423 1.26254,-0.21057 2.31407,-1.12088 3.54116,-1.48501 1.22437,-0.36332 2.57854,-0.22447 3.76961,-0.68538 0.67001,-0.25928 1.82768,-1.1423 1.82768,-1.1423 l -0.22845,-3.99807 0.34268,-2.74153 0.22846,2.39885 0.11424,4.56921 1.1423,1.02808 c 0,0 1.75055,-0.16457 2.6273,-0.22845 1.29342,-0.0943 2.65421,0.18364 3.88384,-0.22847 0.65086,-0.21813 1.23631,-0.64882 1.71345,-1.14231 0.65369,-0.6761 1.485,-2.39884 1.485,-2.39884 l 1.02807,1.59922 c 0,0 1.36949,0.23644 2.05616,0.3427 0.79823,0.12353 1.62393,0.57065 2.39883,0.3427 0.72508,-0.2133 1.71346,-1.48501 1.71346,-1.48501 l 1.25654,-2.28461 0.22847,-4.11229 0.68537,2.62729 0.45692,2.74154 0.45693,1.48499 2.05614,0.11423 h 1.71347 l 2.96998,-1.59922 4.455,-3.54114 1.1423,-0.79962 0.68538,1.485 0.79962,1.485 c 0,0 1.45027,-0.28952 2.17038,-0.45693 8.2666,-1.92174 16.38031,-4.48043 24.67379,-6.28267 5.44465,-1.18317 10.93859,-2.14701 16.4492,-2.97 5.76419,-0.86087 11.55401,-1.58471 17.36302,-2.05615 5.1665,-0.4193 10.35532,-0.87457 15.53535,-0.68537 0.65134,0.0238 1.32285,0.0246 1.94192,0.22845 1.31453,0.33883 1.96795,0.69325 2.1202,1.9637 0.20788,1.53855 -0.4729,2.21127 -1.7775,2.83398 -0.92625,0.41755 -1.96358,0.54598 -2.96999,0.68539 -3.88939,0.5388 -7.85351,0.23642 -11.76575,0.57115 -4.35744,0.37282 -8.71262,0.85544 -13.02227,1.59923 -4.30589,0.74314 -8.64914,1.47201 -12.79381,2.85574 -4.99476,1.66754 -9.60904,4.31081 -14.39305,6.51115 -2.94044,1.35241 -5.91627,2.63457 -8.79576,4.1123 -2.56321,1.31542 -5.26785,2.45417 -7.53921,4.22654 -3.67376,2.86668 -6.21677,6.95724 -9.59536,10.16651 -1.70384,1.61845 -3.3687,3.33554 -5.36883,4.56921 -0.91492,0.56432 -2.00459,0.78379 -2.97001,1.25654 -0.97983,0.47982 -2.08859,0.82347 -2.85575,1.59923 -0.33548,0.33923 -0.65389,0.78047 -0.68539,1.25653 -0.035,0.52919 0.24224,1.06896 0.57115,1.485 0.54364,0.68767 1.55857,0.85723 2.17039,1.485 0.53811,0.55215 1.25653,1.94192 1.25653,1.94192 l -0.68539,1.02807 c 0,0 -1.56457,-0.25852 -2.2846,-0.57115 -0.7072,-0.30708 -1.18417,-1.11423 -1.94192,-1.25654 -1.29906,-0.24395 -2.63483,0.36713 -3.88384,0.79962 -1.28729,0.44575 -3.65538,1.82769 -3.65538,1.82769 0,0 0.52479,0.78547 0.91385,1.02807 0.6036,0.37637 1.49476,0.1343 2.05614,0.57116 0.48454,0.37706 0.91385,1.59922 0.91385,1.59922 l -0.34269,0.68538 c 0,0 -0.68719,0.16606 -1.02807,0.11423 -0.65743,-0.1 -1.21924,-0.53131 -1.82769,-0.79961 -0.68627,-0.30263 -2.05615,-0.91384 -2.05615,-0.91384 0,0 -0.94608,0.56568 -1.37076,0.91384 -0.33316,0.27312 -0.65739,0.56772 -0.91386,0.91385 -0.38535,0.52009 -0.66893,1.11426 -0.91383,1.71345 -0.25528,0.62457 -0.3535,1.30327 -0.57116,1.94193 -0.23724,0.69606 -0.66402,1.33337 -0.79962,2.05614 -0.11233,0.59879 0,1.82769 0,1.82769 l 1.71347,1.25653 h 1.14231 c 0,0 -1.44733,-0.024 -2.17039,0 -0.57211,0.0191 -1.17991,-0.0931 -1.71346,0.11423 -0.45451,0.17663 -0.77895,0.58864 -1.14229,0.91385 -0.44137,0.39504 -1.02987,0.70928 -1.25655,1.25653 -0.13114,0.31661 0,1.02809 0,1.02809 l 1.71346,0.11421 0.3427,0.79961 -1.37078,0.57117 -1.02807,0.45692 c 0,0 0.0165,0.69738 0.11423,1.02807 0.12057,0.40829 0.57115,1.14231 0.57115,1.14231 l -0.91384,0.11422 c 0,0 -0.36775,0.39476 -0.57115,0.57116 -0.43148,0.37422 -0.99536,0.59763 -1.37077,1.02808 -0.25767,0.29545 -0.47281,0.64858 -0.57115,1.02807 -0.15282,0.58975 -0.24786,1.27116 0,1.82769 0.20841,0.46796 1.1423,1.02808 1.1423,1.02808 0,0 1.14231,0.57114 1.59923,0.57114 0.45692,0 2.51307,0.34268 2.51307,0.34268 l -4.1123,-0.11422 c 0,0 -0.87417,0.33143 -1.1423,0.68538 -0.26215,0.34606 -0.32513,0.82275 -0.3427,1.25654 -0.0251,0.61934 0.20029,1.22442 0.3427,1.82769 0.12738,0.53958 0.45692,1.59923 0.45692,1.59923 l 1.37077,0.91384 -1.94192,0.91385 c 0,0 -1.16266,1.1774 -1.37077,1.94191 -0.12043,0.44241 0.11422,1.37077 0.11422,1.37077 0,0 -0.81432,0.63457 -1.14229,1.02808 -0.37213,0.44648 -0.75556,0.92576 -0.91385,1.485 -0.11407,0.40302 -0.16028,0.86957 0,1.25653 0.20607,0.4975 0.68001,0.86618 1.14231,1.14231 0.34129,0.20384 0.85697,0.0658 1.1423,0.34268 0.25927,0.25153 0.3427,1.02808 0.3427,1.02808 0,0 -1.30007,0.98294 -1.94192,1.48499 -0.76816,0.60086 -1.6305,1.10434 -2.28461,1.82769 -0.51713,0.57186 -0.92256,1.24702 -1.25654,1.94193 -0.31296,0.65115 -0.6205,1.3366 -0.68538,2.05615 -0.0484,0.5363 0.22845,1.59921 0.22845,1.59921 0,0 -1.14922,0.933 -1.37076,1.59923 -0.18062,0.54318 -0.0894,1.17851 0.11424,1.71347 0.15449,0.40572 0.79961,1.02807 0.79961,1.02807 0,0 -1.32037,0.27799 -1.82769,0.68539 -0.70819,0.56871 -1.1196,1.45307 -1.485,2.2846 -0.55359,1.25978 -0.80501,2.64022 -1.02806,3.99807 -0.16711,1.01725 -0.25868,2.05377 -0.22847,3.08422 0.0169,0.57596 -0.0465,1.20706 0.22847,1.71346 0.16748,0.30852 0.71588,0.34447 0.7996,0.68538 0.0978,0.39826 -0.20747,0.8168 -0.45693,1.14231 -0.23162,0.30222 -0.62033,0.44283 -0.91384,0.68539 -0.43632,0.36061 -0.95794,0.66141 -1.25653,1.1423 -0.29244,0.471 -0.38002,1.05017 -0.45692,1.59921 -0.0634,0.45251 0.0651,0.91853 0,1.37079 -0.0962,0.66783 -0.31587,1.31735 -0.57115,1.94191 -0.24491,0.59919 -0.57424,1.16239 -0.91385,1.71346 -0.4157,0.67452 -0.83904,1.3545 -1.37077,1.94192 -0.50721,0.56033 -1.39952,0.79747 -1.71346,1.48499 -0.20561,0.45028 -0.2382,1.05108 0,1.485 0.2389,0.4352 0.86032,0.50047 1.25654,0.79962 0.36593,0.27627 0.84024,0.49557 1.02808,0.91384 0.21837,0.48629 0.0378,1.0675 0,1.59923 -0.0572,0.8057 -0.0192,1.65873 -0.34269,2.39883 -0.31442,0.71925 -1.07723,1.15693 -1.485,1.82769 -0.49606,0.81601 -0.73825,1.76203 -1.14232,2.62731 -0.36025,0.77145 -0.89556,1.46972 -1.14229,2.28461 -0.17791,0.58763 -0.1903,1.2149 -0.22846,1.82768 -0.0189,0.30403 0.0612,0.61545 0,0.91385 -0.17492,0.85219 -0.70239,1.59215 -1.02807,2.39884 -0.44213,1.09512 -0.99744,2.16047 -1.25654,3.31269 -0.20951,0.9317 -0.15766,1.90343 -0.22847,2.85576 -0.37071,4.98606 -0.68388,9.97624 -1.02807,14.9642 -0.26539,3.84583 -1.25477,7.70925 -0.79962,11.53727 0.0896,0.75338 0.38359,1.47433 0.6854,2.17039 0.27807,0.6413 0.74491,1.18861 1.02806,1.82769 0.29266,0.66053 0.61612,1.33702 0.68538,2.05615 0.0847,0.87911 -0.11551,1.77383 -0.34268,2.62729 -0.18007,0.67648 -0.5666,1.28181 -0.79961,1.94192 -0.35691,1.01111 -0.94866,2.01254 -0.91386,3.08423 0.0251,0.77059 0.58638,1.42946 0.79963,2.17038 0.20449,0.71048 0.31159,1.44548 0.45691,2.17037 0.16001,0.79812 0.32038,1.5964 0.45693,2.39885 0.12918,0.75914 0.35672,1.51469 0.34268,2.28461 -0.0113,0.61974 -0.0897,1.26185 -0.34268,1.82768 -0.25495,0.5701 -0.83507,0.9413 -1.14231,1.485 -0.46265,0.81875 -0.9872,1.68776 -1.02807,2.6273 -0.0294,0.67409 0.33016,1.31171 0.57115,1.94192 0.31632,0.82723 0.8169,1.57515 1.1423,2.39885 0.323,0.81758 0.68286,1.64178 0.79961,2.51307 0.12148,0.90653 0.0597,1.84357 -0.11423,2.74152 -0.23815,1.22964 -1.25653,3.54116 -1.25653,3.54116 0,0 -0.45263,3.03855 -0.45692,4.56921 -0.006,2.02703 0.32339,4.04239 0.57116,6.05422 0.21656,1.75841 0.27235,3.56319 0.79961,5.25461 0.49159,1.577 1.16994,3.14054 2.17038,4.45498 1.56849,2.06078 3.56996,3.86822 5.82576,5.14038 1.77276,0.99975 3.83034,1.42701 5.82575,1.82768 2.02453,0.40653 4.1054,0.65967 6.16845,0.57115 1.93266,-0.0829 3.8788,-0.40905 5.71152,-1.02806 1.66179,-0.56128 3.15831,-1.53253 4.68345,-2.39885 2.93042,-1.66456 5.78753,-3.46331 8.56729,-5.36883 4.35291,-2.98391 8.29337,-6.54641 12.67959,-9.48114 1.73133,-1.15839 3.36363,-2.63403 5.36884,-3.19845 1.63838,-0.46118 2.20662,1.06071 3.66484,1.27997 z"
       id="path4726-8"
       inkscape:connector-curvature="0"
       sodipodi:nodetypes="ssssssssssssssssssssssssssssssssssssssssssssssssssssssssssssssssssssssssssssssssssssssssssssssssssssssssssssssscsssssssssssssssssssssssssssssssssssssssssssssssssssssccsscsccssscccccccssccccssscccccccssssccccccsssssscsssssscccccsscssccsscccccssssssssssssssscsssssssscsssssscsssscccccssssscccccscssscssssccsccccsssccccccsssccsscccccccccccccssssssssssssssssssssssccssscssccsscssssscccsssscccccsccsssscsccssscccscssssscsssscsscssssssssssssssssssssssssssssssssssssssssssssssscsssssssssssss" />
    <path
       style="fill:none;fill-rule:evenodd;stroke:#000000;stroke-width:0.935149;stroke-linecap:butt;stroke-linejoin:miter;stroke-dasharray:none;stroke-opacity:1"
       d="m 370.74235,644.1379 c 0,0 3.72088,1.81023 5.93285,2.50951 5.63945,1.78283 11.4803,3.04285 17.36304,3.65537 5.30209,0.55207 10.69885,0.62983 15.99227,0 4.51194,-0.53684 8.95292,-1.72385 13.25074,-3.19847 4.90027,-1.68132 9.71477,-3.74383 14.16458,-6.3969 3.45375,-2.05919 6.54283,-4.69335 9.59536,-7.31075 4.33393,-3.71613 8.64479,-7.52557 12.3369,-11.87997 1.91253,-2.2556 5.02614,-7.31075 5.02614,-7.31075"
       id="path4714-1"
       inkscape:connector-curvature="0"
       sodipodi:nodetypes="csssssssc" />
    <path
       style="fill:none;fill-rule:evenodd;stroke:#000000;stroke-width:0.935149;stroke-linecap:butt;stroke-linejoin:miter;stroke-dasharray:none;stroke-opacity:1"
       d="m 108.46197,173.27617 c 11.04291,1.47208 18.61363,3.16707 29.69992,5.02615 8.75385,1.46795 13.98145,2.43653 21.70641,5.73567 4.26767,1.82261 6.85715,3.73864 12.80769,8.39174"
       id="path4716-3"
       inkscape:connector-curvature="0"
       sodipodi:nodetypes="cssc" />
    <path
       style="fill:none;fill-rule:evenodd;stroke:#000000;stroke-width:0.935149;stroke-linecap:butt;stroke-linejoin:miter;stroke-dasharray:none;stroke-opacity:1"
       d="m 176.4107,164.19388 c 0,0 -5.48818,0.79507 -8.54888,0.85769 -5.18631,0.10611 -10.37892,-0.3478 -15.53535,-0.91384 -4.75399,-0.52186 -9.53949,-1.06755 -14.16458,-2.28461 -4.24092,-1.11597 -8.2096,-3.08728 -12.3369,-4.56922 -3.49073,-1.25337 -6.80155,-3.55834 -10.50921,-3.65537 -1.82622,-0.0478 -3.92856,0.47001 -5.26344,1.52726 -1.86502,1.47712 -3.35529,3.33126 -4.38889,5.41095 -0.91385,1.83872 -1.20334,4.09218 -1.47029,5.98183 -0.37878,2.68128 0.85371,6.69002 4.2015,6.73279 3.06926,0.0392 5.09345,-1.85085 6.97766,-4.27399 1.45515,-1.87134 3.06022,-4.5493 3.67508,-6.83869 1.16282,-3.9876 -0.75068,-7.54579 -3.49743,-8.54015"
       id="path4718-7"
       inkscape:connector-curvature="0"
       sodipodi:nodetypes="cssssssassssc" />
    <path
       style="fill:none;fill-rule:evenodd;stroke:#000000;stroke-width:0.935149;stroke-linecap:butt;stroke-linejoin:miter;stroke-dasharray:none;stroke-opacity:1"
       d="m 496.19074,162.52608 c 10.17968,3.13467 21.4519,2.68627 31.72565,0.69781 l 14.16459,-2.74153 c 6.60497,-1.27838 15.7275,-7.62263 18.73381,-7.31076 1.81949,0.18875 3.59064,2.72483 5.02612,4.47584 1.12609,1.3736 2.15521,3.02161 2.83493,4.6626 1.27645,2.94001 2.49834,7.75202 -0.55031,10.05229 -1.92515,0.81074 -7.93878,2.0724 -11.87997,3.19846 -7.5794,2.16555 -16.75047,1.43838 -25.13071,2.74153 -6.42615,0.99928 -12.17323,2.93696 -17.81997,5.93998 l -10.54346,5.60715"
       id="path4720-8"
       inkscape:connector-curvature="0"
       sodipodi:nodetypes="csssssssssc" />
    <path
       style="fill:none;fill-rule:evenodd;stroke:#000000;stroke-width:0.935149;stroke-linecap:butt;stroke-linejoin:miter;stroke-dasharray:none;stroke-opacity:1"
       d="m 560.58632,153.19937 c -2.45558,2.54975 -1.68897,6.11244 -0.78875,8.99427 0.69305,2.21862 1.89718,4.01737 3.14243,5.93998 1.03691,1.60095 2.86498,3.57958 5.17308,4.23237"
       id="path4722-8"
       inkscape:connector-curvature="0"
       sodipodi:nodetypes="cssc" />
    <path
       style="fill:none;fill-rule:evenodd;stroke:#000000;stroke-width:0.935149;stroke-linecap:butt;stroke-linejoin:miter;stroke-dasharray:none;stroke-opacity:1"
       d="m 370.8181,644.13616 c 0.76099,-0.57518 1.03635,-1.60381 1.61135,-2.36493 0.86285,-1.14215 2.04002,-2.05454 2.75292,-3.29582 1.56722,-2.72876 2.21547,-5.89243 3.20853,-8.87842 1.34996,-4.05915 2.63559,-8.14359 3.73545,-12.27752 1.9883,-7.47328 3.83619,-14.99904 5.16948,-22.61649 1.83328,-10.47396 3.0958,-21.05863 3.87711,-31.66309 1.56737,-21.27325 0.90218,-42.65336 1.61546,-63.97234 0.34602,-10.34215 0.14116,-20.7332 1.29238,-31.0169 0.73086,-6.52876 1.99299,-13.00415 3.55402,-19.38555 0.69613,-2.84578 1.18382,-5.82737 2.58474,-8.40041 1.68142,-3.08823 4.35735,-5.53348 6.78494,-8.07732 2.63086,-2.75685 6.34678,-4.5442 8.40041,-7.75422 2.07403,-3.24192 2.95436,-7.18357 3.55403,-10.98516 0.50341,-3.19146 0.32901,-6.47865 0,-9.69278 -0.32479,-3.17279 -0.70829,-6.42715 -1.93857,-9.36969 -0.89871,-2.14954 -2.62018,-3.85394 -3.8771,-5.81566 -1.77377,-2.76836 -3.95656,-5.34447 -5.16949,-8.40042 -1.17659,-2.96441 -1.82935,-6.18218 -1.93855,-9.36968 -0.16374,-4.77974 0.85458,-9.558 1.93855,-14.21608 1.46662,-6.30243 3.32519,-12.58916 6.13876,-18.41628 2.57169,-5.32618 6.24369,-10.05751 9.69278,-14.86227 5.27705,-7.35119 11.83244,-13.76088 16.80082,-21.3241 3.36006,-5.11493 6.24761,-10.558 8.7235,-16.15464 3.41748,-7.72506 5.27289,-16.06193 8.40041,-23.90886 3.31989,-8.32953 7.07554,-16.4855 10.98516,-24.55505 2.33138,-4.81203 4.35247,-9.84425 7.43113,-14.21608 3.29113,-4.67355 7.73802,-8.41543 11.63134,-12.60061 3.21757,-3.45879 6.99276,-6.46262 9.69278,-10.33895 2.20226,-3.16172 3.84736,-6.7198 5.16948,-10.33898 1.10245,-3.01785 2.05277,-6.16354 2.26165,-9.36967 0.19716,-3.02638 0.2371,-6.26408 -0.96929,-9.0466 -1.64028,-3.7833 -4.90413,-6.73631 -8.07731,-9.3697 -5.94169,-4.93093 -13.1227,-8.1842 -20.03175,-11.63133 -9.4146,-4.69722 -19.1249,-8.86757 -29.07833,-12.27752 -11.0717,-3.79307 -22.49326,-6.53838 -33.92474,-9.04659 -11.10294,-2.43614 -22.33124,-4.33633 -33.60163,-5.81567 -9.54189,-1.25247 -19.139,-2.20578 -28.75526,-2.58475 -9.90107,-0.39019 -19.83031,-0.21362 -29.72452,0.3231 -9.94086,0.53924 -19.87174,1.48164 -29.72453,2.90783 -11.28813,1.63397 -22.49285,3.87604 -33.60164,6.46185 -7.93939,1.84807 -15.8304,3.95114 -23.58575,6.46186 -8.75436,2.83413 -17.36389,6.12898 -25.84742,9.69278 -6.57432,2.76175 -13.17023,5.55108 -19.38556,9.04659 -4.06146,2.28417 -8.24628,4.552 -11.63134,7.75422 -2.34712,2.22034 -4.42711,4.8369 -5.81567,7.75422 -1.14503,2.40569 -1.71474,5.09935 -1.93855,7.75423 -0.23592,2.79849 -0.15816,5.70965 0.64617,8.40042 1.02162,3.41762 3.28812,6.33913 5.1695,9.36967 2.48964,4.01035 5.1372,7.93852 8.07731,11.63134 3.98894,5.01016 8.78311,9.33053 12.92371,14.21608 1.68561,1.98887 3.42076,3.95599 4.84639,6.13876 3.13514,4.80019 5.68942,9.97298 8.07732,15.18535 4.08998,8.92773 7.3616,18.21415 10.66206,27.46288 1.75133,4.9077 2.78231,10.07768 4.84638,14.86226 1.60361,3.71719 3.60549,7.27029 5.81567,10.66206 5.7861,8.87939 13.38711,16.46389 19.38555,25.20123 2.92713,4.26365 5.75568,8.62547 8.07733,13.24681 2.97164,5.91519 5.38496,12.12078 7.43114,18.41627 1.37258,4.22303 3.05372,8.48676 3.23092,12.92372 0.18299,4.58203 -0.79821,9.22398 -2.26165,13.56988 -1.4759,4.3829 -4.56126,8.06137 -6.46186,12.27752 -1.37277,3.04525 -2.79896,6.11579 -3.55401,9.36969 -0.78242,3.37185 -1.26792,6.89044 -0.96927,10.33897 0.31783,3.67008 1.21211,7.39172 2.90782,10.66206 1.47896,2.85229 4.02942,5.00759 6.13876,7.43113 2.30201,2.64489 4.85616,5.06653 7.10804,7.75422 1.48022,1.76669 3.15546,3.43814 4.20022,5.49259 1.37473,2.70331 1.95481,5.75685 2.58473,8.72349 1.37622,6.48131 2.06939,13.10292 2.58473,19.70865 0.66196,8.48505 0.42034,17.01649 0.64619,25.52433 0.41172,15.50896 0.57971,31.02729 1.29237,46.52534 0.54035,11.7508 0.80901,23.54393 2.26165,35.21711 1.31208,10.54368 3.3842,20.99693 5.81568,31.33998 1.07655,4.57947 2.17169,9.18561 3.87711,13.5699 1.57144,4.03987 3.148,8.21465 5.81565,11.63132 1.83317,2.34789 4.32528,4.13548 6.78495,5.81568 1.51181,1.03271 3.16156,1.86824 4.8464,2.58474 4.16844,1.77269 8.47737,3.33518 12.92371,4.2002 6.0406,1.17518 12.26588,1.49851 18.41627,1.29238 6.30206,-0.21121 12.59899,-1.15084 18.73939,-2.58474 2.98482,-0.69702 6.27826,-1.05965 8.72349,-2.90784 z"
       id="path4724-3"
       inkscape:connector-curvature="0"
       sodipodi:nodetypes="ssssssssssssssssssssssssssssssssssssssssssssssssssssssssssssssssssssssssssssssssss" />
    <path
       style="display:inline;fill:none;fill-rule:evenodd;stroke:#000000;stroke-width:0.935149;stroke-linecap:butt;stroke-linejoin:miter;stroke-dasharray:none;stroke-opacity:1"
       d="m 367.53675,642.76357 c -0.24509,-1.04872 -0.82735,-2.18719 -0.45692,-3.19846 0.31542,-0.86106 1.36339,-1.22686 2.05615,-1.82768 0.97972,-0.8497 2.00068,-1.65154 2.97,-2.51307 1.16791,-1.03804 2.89441,-1.72945 3.42691,-3.19846 0.41847,-1.15444 -0.56822,-2.43249 -0.45691,-3.65538 0.13753,-1.51111 0.71494,-2.97245 1.37076,-4.34076 0.4747,-0.99042 1.47867,-1.70015 1.82769,-2.74152 0.41211,-1.22964 0.34904,-2.59262 0.22846,-3.88385 -0.0583,-0.62526 -0.20767,-1.25129 -0.45693,-1.82769 -0.50308,-1.16333 -1.55308,-2.03511 -2.05615,-3.19844 -0.49852,-1.15279 -0.67816,-2.42174 -0.91383,-3.65539 -0.21625,-1.13194 -0.70773,-2.30213 -0.45693,-3.42692 0.27584,-1.23707 1.34783,-2.1474 2.05615,-3.19845 0.88559,-1.3141 2.26214,-2.37343 2.74153,-3.88384 0.32252,-1.01619 0.22733,-2.15681 0,-3.19845 -0.4287,-1.96428 -1.81606,-3.59723 -2.51307,-5.48306 -0.3844,-1.04006 -0.95845,-2.09055 -0.91385,-3.19846 0.0524,-1.30026 0.76737,-2.50242 1.37077,-3.65537 0.55833,-1.06682 1.54118,-1.88156 2.05615,-2.96998 0.47421,-1.0023 0.76005,-2.10038 0.91385,-3.19847 0.12675,-0.90501 0.24393,-1.86085 0,-2.74153 -0.35559,-1.28381 -1.75009,-2.13042 -2.05615,-3.42693 -0.22812,-0.96635 -0.25942,-2.10519 0.22846,-2.96997 0.3219,-0.57057 1.29946,-0.55982 1.59922,-1.14232 0.73177,-1.42198 0.44285,-3.26099 0,-4.79768 -0.17436,-0.60502 -0.91233,-0.97648 -1.00522,-1.59923 -0.0814,-0.54631 0.28048,-1.06864 0.43407,-1.59921 0.144,-0.49749 0.34204,-0.98001 0.45693,-1.48501 0.17082,-0.75087 0.44608,-1.52153 0.34269,-2.28462 -0.0503,-0.37161 -0.29688,-0.68893 -0.45693,-1.02807 -0.14535,-0.30799 -0.3464,-0.59171 -0.45692,-0.91384 -0.12602,-0.36729 -0.17272,-0.75801 -0.22846,-1.1423 -0.0603,-0.41622 -0.15639,-0.83808 -0.11423,-1.25654 0.0398,-0.39553 0.13884,-0.80101 0.34269,-1.1423 0.16568,-0.27738 0.42328,-0.49646 0.68538,-0.68538 0.34536,-0.24892 0.88032,-0.2356 1.14231,-0.57115 0.21604,-0.2767 0.31208,-0.68714 0.22846,-1.02809 -0.19828,-0.80847 -1.32287,-1.12853 -1.60819,-1.91054 -0.16611,-0.45529 -0.0776,-0.97554 0,-1.45392 0.0273,-0.16808 0.0656,-0.34398 0.16155,-0.48463 0.2371,-0.34738 0.74571,-0.45152 0.96929,-0.80773 0.23607,-0.3761 0.30021,-0.84891 0.32309,-1.29237 0.0196,-0.38027 -0.0884,-0.75716 -0.16155,-1.13083 -0.0854,-0.43576 -0.23772,-0.8566 -0.32309,-1.29236 -0.0732,-0.37368 -0.2618,-0.7635 -0.16155,-1.13084 0.0908,-0.33263 0.45237,-0.52256 0.64619,-0.80773 0.24403,-0.35905 0.50052,-0.72185 0.64618,-1.13082 0.1099,-0.30857 0.22688,-0.6483 0.16155,-0.96928 -0.14003,-0.68799 -0.71284,-1.21288 -1.13082,-1.77701 -0.29556,-0.3989 -0.90863,-0.63807 -0.96929,-1.13081 -0.0441,-0.35853 0.31082,-0.65263 0.48464,-0.96929 0.15109,-0.27524 0.31249,-0.54515 0.48465,-0.80773 0.25399,-0.38738 0.72132,-0.67574 0.80773,-1.13083 0.0829,-0.43625 -0.15755,-0.88033 -0.32311,-1.29236 -0.16186,-0.40285 -0.50051,-0.72185 -0.64617,-1.13083 -0.10989,-0.30856 -0.13454,-0.64285 -0.16155,-0.96928 -0.0267,-0.32199 -0.12365,-0.67078 0,-0.96928 0.11657,-0.28143 0.5068,-0.37532 0.64619,-0.64618 0.29976,-0.5825 0.40143,-1.28816 0.32309,-1.93856 -0.0981,-0.81431 -0.726,-1.47835 -0.96928,-2.26164 -0.0815,-0.26223 -0.18368,-0.53406 -0.16155,-0.80774 0.0371,-0.45858 0.42772,-0.83581 0.48465,-1.29236 0.0603,-0.48388 0.0251,-1.00342 -0.16155,-1.45393 -0.13194,-0.31855 -0.53205,-0.48236 -0.64618,-0.80773 -0.21389,-0.60975 -0.10351,-1.30072 0,-1.93855 0.0545,-0.33618 0.21538,-0.64619 0.32308,-0.96928 0.21539,-0.64619 0.48483,-1.27681 0.64619,-1.93856 0.24538,-1.00631 0.31873,-2.04695 0.48464,-3.06938 0.26234,-1.6166 1.0114,-3.22135 0.80773,-4.84639 -0.18289,-1.45935 -1.19115,-2.6896 -1.77701,-4.03865 -0.65343,-1.50465 -1.84114,-2.8858 -1.93856,-4.5233 -0.0567,-0.95252 0.45002,-1.86168 0.80774,-2.7463 0.47858,-1.18345 1.40392,-2.17164 1.77701,-3.39246 0.42753,-1.399 0.51535,-2.89922 0.48464,-4.36176 -0.0446,-2.12434 -0.96928,-6.3003 -0.96928,-6.3003 0,0 -1.43925,-3.59816 -1.77701,-5.49259 -0.23649,-1.32637 -0.47145,-2.72748 -0.16155,-4.03864 0.41024,-1.7357 2.32693,-2.92006 2.58473,-4.68485 0.18321,-1.25414 -0.78276,-2.44836 -0.80772,-3.71556 -0.0367,-1.85879 0.36931,-3.7329 0.96928,-5.49258 0.41196,-1.20827 1.41352,-2.16875 1.77701,-3.39248 0.32345,-1.08892 -3.6e-4,-2.30355 0.32309,-3.39247 0.36349,-1.22373 0.98128,-2.39426 1.77702,-3.39248 2.73784,-3.4345 6.72931,-5.64815 10.01586,-8.56195 3.39349,-3.0086 7.19785,-5.6548 10.01588,-9.20814 1.49826,-1.88921 2.6878,-4.05007 3.55402,-6.3003 0.79315,-2.06042 1.66205,-4.26389 1.45392,-6.46186 -0.12731,-1.34451 -0.7269,-2.69853 -1.61547,-3.71556 -0.69934,-0.80044 -2.71122,-2.7611 -2.72721,-1.6524 -0.008,0.59386 0.16751,1.71638 -0.14764,2.70854 -0.0439,0.13794 -0.53014,1.12257 -1.13195,1.59929 -0.49748,0.39407 -1.55868,0.53192 -2.0729,0.60603 -1.50088,0.21629 -3.01985,-1.68543 -4.08125,-1.37359 -2.40775,0.7074 -6.06404,3.63636 -6.96148,4.1599 l -10.1789,7.68366 c 0,0 -7.28556,7.03321 -11.63133,9.53124 -2.93971,1.68979 -6.27532,2.60729 -9.53123,3.55401 -3.48861,1.01439 -7.06041,1.78471 -10.66206,2.26165 -4.91846,0.65132 -9.90229,0.92657 -14.86227,0.80774 -4.22103,-0.10114 -8.45018,-0.51706 -12.60062,-1.29237 -5.21358,-0.97391 -10.43725,-2.19391 -15.3469,-4.20021 -2.96791,-1.21282 -5.89866,-3.38439 -8.5619,-5.16946 -5.60258,-3.75521 -10.48122,-7.76394 -15.71425,-12.02686 -1.00824,-0.82132 -2.17347,-1.66364 -3.28953,-2.11557 -0.99447,-0.40271 -1.79063,-0.57861 -2.96653,-0.55828 -1.57314,0.0272 -3.16741,1.32282 -4.81414,1.45279 -1.23133,0.0972 -2.6151,0.43785 -3.74786,0.16265 -0.53873,-0.13087 -0.9964,-0.49458 -1.45387,-0.80773 -0.33374,-0.22845 -1.04862,-0.9572 -1.04862,-0.9572 0,0 0.092,4.19464 0.91792,6.25862 0.69068,1.72609 2.06571,3.09501 3.19845,4.56922 6.12505,7.97144 13.53223,14.92571 19.4192,23.07456 1.36144,1.88454 3.13442,3.67423 3.65536,5.93999 0.34299,1.49175 -0.71601,3.06063 -0.45691,4.56922 0.24219,1.41014 1.16761,2.61439 1.82769,3.88384 0.56648,1.08946 1.41168,2.04313 1.82769,3.19845 0.46605,1.29429 0.78271,2.69241 0.70679,4.06596 -0.0959,1.73559 -0.862,3.37358 -1.45392,5.00793 -0.64049,1.76844 -1.93803,3.31668 -2.26164,5.16949 -0.27858,1.5949 0.0719,3.24694 0.32309,4.84639 0.34446,2.19336 0.87336,4.3693 1.61546,6.46185 0.29793,0.84009 1.07533,1.53357 1.13082,2.4232 0.10919,1.7506 -1.20646,3.30226 -1.61546,5.00792 -0.31791,1.32576 -0.73144,2.678 -0.64619,4.03868 0.0842,1.34358 0.67162,2.61162 1.13083,3.87709 0.32079,0.88403 0.93827,1.66424 1.13082,2.58475 0.20948,1.00146 0.25664,2.07897 0,3.06939 -0.27813,1.07336 -1.15027,1.90131 -1.61546,2.90782 -0.38604,0.83528 -0.9632,1.6646 -0.96927,2.58474 -0.009,1.43077 1.14431,2.64177 1.45391,4.03867 0.12869,0.58069 0.11484,1.18406 0.16155,1.777 0.0636,0.80703 -0.0114,1.63236 0.16154,2.4232 0.2585,1.18217 0.93504,2.23633 1.29238,3.39247 0.40882,1.32272 0.8066,2.6638 0.96927,4.03866 0.14553,1.22994 0.24516,2.50155 0,3.71557 -0.21974,1.08816 -1.14681,1.96884 -1.29237,3.06938 -0.15676,1.18531 0.13178,2.41164 0.48464,3.55401 0.17767,0.57524 0.624,1.04214 0.80773,1.61547 0.31611,0.9864 0.36077,2.04101 0.48464,3.06938 0.0775,0.64378 0.3666,1.32341 0.16155,1.93856 -0.20505,0.61515 -0.9801,0.88563 -1.29238,1.45391 -0.37759,0.68714 -0.53743,1.48519 -0.64618,2.26166 -0.0896,0.63994 -0.0555,1.29476 0,1.93855 0.1081,1.25246 0.14757,2.56156 0.64618,3.71556 0.32038,0.74148 1.02132,1.25644 1.45393,1.93856 0.55475,0.87471 1.22359,1.73642 1.45391,2.74629 0.31153,1.36603 0.11749,2.82717 -0.16155,4.20021 -0.33262,1.63672 -1.45179,3.04663 -1.77701,4.68484 -0.35665,1.79658 -0.5034,3.69311 -0.16153,5.49257 0.30616,1.61157 1.03732,3.15264 1.93854,4.5233 0.77429,1.17761 2.19913,1.85118 2.90785,3.06938 0.65101,1.11902 0.84997,2.45178 1.13081,3.71557 0.41299,1.8585 0.91551,3.75333 0.80773,5.65411 -0.0725,1.27792 -0.42997,2.55476 -0.96927,3.71557 -0.47212,1.01621 -1.40373,1.76164 -1.93856,2.74629 -0.69205,1.2741 -1.44899,2.59832 -1.61546,4.03865 -0.20635,1.78541 0.21973,3.63265 0.80774,5.33103 0.74951,2.16487 2.54142,3.85022 3.39247,5.97722 0.49486,1.23682 0.93758,2.54534 0.96927,3.87712 0.0261,1.09799 -0.41677,2.15685 -0.64619,3.23093 -0.25377,1.18807 -0.87646,2.34108 -0.80773,3.55401 0.0645,1.13921 0.59673,2.2226 1.13082,3.23093 0.84691,1.5989 2.04951,2.99134 3.23092,4.36175 1.34257,1.55733 3.46508,2.51142 4.36176,4.36175 0.40196,0.82948 0.4381,1.83175 0.32309,2.74629 -0.0883,0.70194 -0.76215,1.98084 -0.76215,1.98084 0,0 8.49045,3.38388 12.87813,4.23869 2.9147,0.56786 5.92825,0.97433 8.88892,1.20332 3.28597,0.25415 6.55667,0.36558 9.85045,0.2506 6.30068,-0.21995 12.58496,-1.40982 18.73939,-2.66551 2.13571,-0.43575 6.32366,-1.5959 6.32366,-1.5959 0,0 -0.66717,-1.76739 -0.88152,-2.68453 z"
       id="C52-1"
       inkscape:connector-curvature="0"
       inkscape:label="C52"
       sodipodi:nodetypes="ssssssssssssssssssssssssssssssssssssssssssssssssssssssssssssssssssssssssssscssssssssssssssssssccssssssssssssscsssssssssssssssssssssssssssssssssssssssssssssssssssssssscsssscs" />
    <path
       style="fill:none;fill-rule:evenodd;stroke:#000000;stroke-width:0.935149;stroke-linecap:butt;stroke-linejoin:miter;stroke-dasharray:none;stroke-opacity:1"
       d="M 380.83398,536.86939 Z"
       id="path4730-5"
       inkscape:connector-curvature="0" />
  </g>
</svg>
