<?xml version="1.0" encoding="UTF-8" standalone="no"?>
<!-- Created with Inkscape (http://www.inkscape.org/) -->

<svg
   id="svg4136"
   version="1.1"
   inkscape:version="1.3 (0e150ed, 2023-07-21)"
   width="700"
   height="750"
   viewBox="0 0 700 750"
   sodipodi:docname="level3_C26_neu.svg"
   xmlns:inkscape="http://www.inkscape.org/namespaces/inkscape"
   xmlns:sodipodi="http://sodipodi.sourceforge.net/DTD/sodipodi-0.dtd"
   xmlns="http://www.w3.org/2000/svg"
   xmlns:svg="http://www.w3.org/2000/svg"
   xmlns:rdf="http://www.w3.org/1999/02/22-rdf-syntax-ns#"
   xmlns:cc="http://creativecommons.org/ns#"
   xmlns:dc="http://purl.org/dc/elements/1.1/">
  <metadata
     id="metadata4142">
    <rdf:RDF>
      <cc:Work
         rdf:about="">
        <dc:format>image/svg+xml</dc:format>
        <dc:type
           rdf:resource="http://purl.org/dc/dcmitype/StillImage" />
      </cc:Work>
    </rdf:RDF>
  </metadata>
  <defs
     id="defs4140" />
  <sodipodi:namedview
     pagecolor="#ffffff"
     bordercolor="#666666"
     borderopacity="1"
     objecttolerance="10"
     gridtolerance="10"
     guidetolerance="10"
     inkscape:pageopacity="0"
     inkscape:pageshadow="2"
     inkscape:window-width="1344"
     inkscape:window-height="773"
     id="namedview4138"
     showgrid="false"
     inkscape:zoom="0.71737237"
     inkscape:cx="283.67415"
     inkscape:cy="408.43502"
     inkscape:window-x="0"
     inkscape:window-y="25"
     inkscape:window-maximized="0"
     inkscape:current-layer="svg4136"
     inkscape:showpageshadow="2"
     inkscape:pagecheckerboard="0"
     inkscape:deskcolor="#d1d1d1" />
  <path
     style="fill:none;fill-rule:evenodd;stroke:#000000;stroke-width:1;stroke-linecap:butt;stroke-linejoin:miter;stroke-miterlimit:4;stroke-dasharray:none;stroke-dashoffset:0;stroke-opacity:1"
     d="m 346.66801,427.37666 c -5.55887,-0.26094 -6.80089,-0.14155 -16.64294,-1.31713 -14.65981,-1.75104 -22.11695,-1.22458 -29.0417,-0.47941 -13.70968,1.54215 -26.8457,5.42389 -37.24854,14.81793 -6.30204,5.99623 -10.23019,10.20298 -13.47289,18.76941 -3.00514,7.93885 -3.05033,17.03814 -2.619,25.4426 0.39268,7.65114 0.38721,10.00635 0.90872,25.2879 0.12737,3.73208 -0.0817,7.45592 0.12525,11.1756 0.14707,2.64343 0.79252,7.90292 0.79252,7.90292 5.749,-1.19707 9.70941,-2.27739 14.2654,-4.93931 4.86589,-2.84298 13.47289,-9.87867 13.47289,-9.87867 0,0 6.9798,-6.12146 10.69904,-8.89074 2.54438,-1.8945 5.35603,-3.40788 7.92522,-5.26859 2.58686,-1.87351 4.72612,-4.39555 7.52897,-5.9272 2.94385,-1.6087 6.21809,-2.64795 9.51024,-3.29286 4.0241,-0.7883 8.18444,-0.7448 12.28412,-0.65863 3.44925,0.0725 7.04994,-0.16166 10.30279,0.98793 1.39199,0.49194 3.69545,2.44138 3.69545,2.44138 0,0 5.11195,-5.97072 8.19237,-8.36858 2.41164,-1.87727 5.09908,-3.4468 7.92522,-4.61003 2.01915,-0.83107 4.71688,-0.18617 6.34019,-1.64648 1.3949,-1.25484 1.28147,-3.52771 1.98129,-5.26858 1.35043,-3.35934 2.00984,-7.15018 4.16076,-10.0021 1.85135,-1.84159 4.81318,-2.0298 7.25317,-2.96008 1.72818,-0.65889 3.66254,-0.87249 5.22906,-1.85574 3.30475,-2.07429 5.5198,-5.51659 8.32147,-8.23223 1.8312,-1.77497 3.42156,-3.86018 5.54764,-5.26859 2.52204,-1.67071 5.49348,-2.54784 8.32152,-3.62217 3.63694,-1.38162 7.2531,-3.01087 11.0953,-3.62216 2.86982,-0.45658 6.04372,1.13751 8.71775,0 1.40203,-0.59641 3.17006,-3.2929 3.17006,-3.2929 -8.59698,-3.54493 -16.15359,-4.39806 -24.56817,-5.26859 -5.54024,-0.61923 -11.07671,-1.3392 -16.64297,-1.64645 -5.10577,-0.28183 -10.45117,-0.19779 -15.33959,-0.17917 -7.39763,0.0282 -14.80106,0.0176 -22.19061,-0.32928 z"
     id="C22"
     inkscape:connector-curvature="0"
     inkscape:label="C22"
     sodipodi:nodetypes="sssssssscscsssssscsssssssssssscssss" />
  <path
     style="fill:none;fill-rule:evenodd;stroke:#000000;stroke-width:1;stroke-linecap:butt;stroke-linejoin:miter;stroke-miterlimit:4;stroke-dasharray:none;stroke-opacity:1"
     d="m 380.4259,458.64091 c 0,0 2.78779,-1.47428 7.51587,-7.39686 1.77647,-2.22527 3.32756,-3.46024 6.13329,-5.94573 2.22377,-1.65363 5.31877,-2.46129 8.05923,-3.49139 3.73739,-1.40484 7.46423,-3.02216 11.40609,-3.65731 1.33831,-0.21564 4.36815,0.33025 6.10991,0.35684 2.01382,0.0308 2.65835,-0.43774 2.65835,-0.43774 0,0 4.51655,1.18585 6.55916,2.27311 2.16616,1.15302 4.08996,2.74995 5.88419,4.424 1.87718,1.75144 3.82059,3.56369 5.04356,5.82105 1.61529,2.98149 2.71041,6.37996 3.47956,9.68252 0.71557,3.07251 0.77488,6.26404 1.00365,9.41047 0.20274,2.7883 -0.2958,5.58668 -0.28025,8.38229 0.0233,4.19526 1.40232,8.4635 0.56045,12.57349 -0.77783,3.79734 -2.84313,7.28681 -5.04361,10.47784 -2.00365,2.9056 -4.70918,5.27102 -7.28517,7.68377 -3.36804,3.15461 -6.80128,6.29819 -10.64753,8.84801 -4.64544,3.07963 -9.69505,5.56589 -14.85053,7.68375 -4.3436,1.78434 -8.88364,3.0943 -13.44955,4.19117 -3.13261,0.75255 -6.31082,1.43727 -9.5268,1.62986 -4.66742,0.2795 -9.40545,0.1149 -14.00994,-0.6985 -4.13969,-0.73129 -8.27141,-1.88021 -12.04854,-3.72551 -2.86479,-1.39958 -5.35445,-3.4817 -7.84556,-5.47173 -3.06078,-2.44511 -5.35184,-5.86013 -8.68618,-7.91663 -1.10684,-0.68266 -3.64259,-1.39704 -3.64259,-1.39704 l 1.40099,-18.48179 c 0,0 2.53892,2.63627 4.20301,3.23063 2.37597,0.84862 5.11632,-0.37354 7.56535,0.23283 1.71554,0.42476 3.13989,1.63004 4.76338,2.32844 1.832,0.7881 3.64642,1.71438 5.60398,2.09557 2.84303,0.55362 5.98199,1.2705 8.68616,0.23283 2.52541,-0.96908 5.03209,-3.02093 5.88419,-5.58818 0.86828,-2.616 -0.18367,-5.46142 -0.79349,-8.14945 -0.91018,-4.01198 -1.68769,-8.45209 -3.9699,-11.87495 -1.45496,-2.18215 -6.16436,-4.88969 -6.16436,-4.88969 0,0 1.54978,-5.28384 3.08215,-7.45091 1.14622,-1.62098 5.78631,-2.46579 7.005,-2.79412 0.74719,1.70751 1.22397,3.56102 2.24158,5.12254 0.36442,0.55921 1.93942,-0.25032 2.52181,-0.93137 0.61736,-0.72195 0.56037,-2.79411 0.56037,-2.79411 z"
     id="C16"
     inkscape:connector-curvature="0"
     sodipodi:nodetypes="cscssscsssssssssssssssssccsssssssscscsscc" />
  <path
     style="fill:none;fill-rule:evenodd;stroke:#000000;stroke-width:1;stroke-linecap:butt;stroke-linejoin:miter;stroke-miterlimit:4;stroke-dasharray:none;stroke-opacity:1"
     d="m 279.24156,474.56936 c -2.22141,0.95662 -4.07314,2.56707 -5.94072,4.14102 -1.67562,1.41216 -2.40391,3.33293 -1.62463,5.17265 0.71377,1.68506 2.72903,2.49882 4.61123,2.95109 3.19319,0.76728 6.34052,2.02644 9.63725,2.09101 3.81649,0.0747 7.64447,0.24841 11.44463,-0.32465 3.9678,-0.59834 8.06152,-0.59212 11.93973,-1.59369 3.95592,-1.02164 7.53297,-3.12078 11.28115,-4.73199 1.22127,-0.52498 2.59732,-0.24534 2.34102,-2.08346 -0.21598,-1.54895 -2.58653,-1.69887 -3.84542,-1.68835 -3.52128,0.0294 -6.96229,-0.69361 -10.33203,-1.567 -3.64946,-0.94589 -7.14583,-2.63351 -10.88254,-3.09756 -3.60871,-0.44815 -7.25293,-0.93407 -10.87522,-0.86375 -2.64165,0.0513 -5.3251,0.54851 -7.75445,1.59468 z"
     id="C23"
     inkscape:connector-curvature="0"
     inkscape:label="#path4160"
     sodipodi:nodetypes="ssssssssssssss" />
  <path
     style="fill:none;fill-rule:evenodd;stroke:#000000;stroke-width:1;stroke-linecap:butt;stroke-linejoin:miter;stroke-miterlimit:4;stroke-dasharray:none;stroke-opacity:1"
     d="m 249.46943,528.97648 c 4.02495,-7.20406 9.07371,-13.7399 13.44955,-20.72289 3.83531,-6.12042 8.48774,-16.20527 13.24043,-21.57645"
     id="path4162"
     inkscape:connector-curvature="0"
     sodipodi:nodetypes="csc" />
  <path
     style="fill:none;fill-rule:evenodd;stroke:#000000;stroke-width:1;stroke-linecap:butt;stroke-linejoin:miter;stroke-miterlimit:4;stroke-dasharray:none;stroke-opacity:1"
     d="m 298.29512,473.87085 c 9.63398,-7.3877 12.20407,-10.65867 23.8169,-13.50484 8.73784,-2.14155 17.11949,-4.98467 25.49808,-8.14943 8.3473,-3.15294 11.82019,-3.73008 17.65256,-5.82103 7.07248,-2.53554 13.76026,-6.19522 21.0149,-8.14946 12.9314,-3.48343 25.71821,-4.31579 38.89812,-3.19162"
     id="path4164"
     inkscape:connector-curvature="0"
     sodipodi:nodetypes="cssssc" />
  <path
     style="fill:none;fill-rule:evenodd;stroke:#000000;stroke-width:1;stroke-linecap:butt;stroke-linejoin:miter;stroke-miterlimit:4;stroke-dasharray:none;stroke-opacity:1"
     d="m 332.0591,474.91858 c 0.39541,2.50998 0.90541,4.1847 1.35353,6.64668 0.29602,1.62634 0.88805,4.87902 0.88805,4.87902 0,0 -0.86394,-0.0693 -1.13411,-0.36608 -0.81522,-0.89547 -0.90335,-2.64576 -1.57536,-3.63775 -1.03627,-1.52971 -2.78814,-2.6304 -4.57571,-3.09784 -1.17938,-0.3084 -2.61552,0.0176 -3.9228,0.11619 l -0.22242,2.20493 c 0,0 2.41901,-0.24236 3.63043,0.0322 1.07558,0.24377 2.38423,0.56213 2.94212,1.51348 0.97015,1.54069 1.39287,2.79751 1.63546,4.28239 0.15093,0.92384 1.58199,1.08409 2.10151,1.86277 0.6377,0.95582 1.03741,2.11377 1.12082,3.25976 0.18345,2.52051 -0.74585,5.01018 -1.40104,7.45095 -1.04904,2.84504 -1.90037,5.76714 -2.94208,8.61511 -0.57376,1.46968 -1.23349,2.90784 -1.96139,4.30759 -0.93478,1.79758 -1.82504,3.51441 -2.82713,5.27535 -1.34824,2.7482 -3.3488,5.14306 -5.31349,7.4924 -2.59577,3.30545 -5.96345,5.72428 -9.23173,8.30439 l 2.10151,2.91054 3.2223,-2.91054 c 2.60043,-2.34883 5.2292,-4.65696 7.59512,-7.24423 2.46622,-2.86916 3.44904,-4.56803 5.57425,-8.47251 0.98639,-1.81221 1.82686,-3.70147 2.66191,-5.5882 0.79773,-1.80239 1.58329,-3.6139 2.24158,-5.47176 0.64966,-1.83352 1.15251,-3.71624 1.68122,-5.58822 0.4582,-1.62234 1.00772,-3.18969 1.29181,-4.88964 0.25585,-1.53105 0.38937,-4.65685 0.38937,-4.65685 0,0 -0.0223,-4.74668 -0.2802,-7.10167 -0.1725,-1.57528 -0.52874,-3.10791 -0.84506,-4.67839 -0.3981,-1.97654 -0.70627,-3.93528 -1.39651,-5.79947 z"
     id="C24"
     inkscape:connector-curvature="0"
     inkscape:label="#path4166"
     sodipodi:nodetypes="cscsssccssssssssssccssssssscsscc" />
  <path
     style="fill:none;fill-rule:evenodd;stroke:#000000;stroke-width:1;stroke-linecap:butt;stroke-linejoin:miter;stroke-miterlimit:4;stroke-dasharray:none;stroke-opacity:1"
     d="m 337.66303,512.05686 h -3.36235 -2.10151 v 0"
     id="path4168"
     inkscape:connector-curvature="0" />
  <path
     style="fill:none;fill-rule:evenodd;stroke:#000000;stroke-width:1;stroke-linecap:butt;stroke-linejoin:miter;stroke-miterlimit:4;stroke-dasharray:none;stroke-opacity:1"
     d="m 328.13629,512.05686 c 0,0 -2.7091,-0.16995 -4.06288,-0.11619 -2.15907,0.0857 -4.41446,-0.0415 -6.44457,0.6985 -1.3739,0.5008 -2.55021,1.47266 -3.64257,2.44484 -1.44936,1.2899 -2.89587,2.69828 -3.78272,4.42397 -0.71255,1.38652 -0.79343,3.01628 -1.12078,4.54042 -0.38109,1.77435 -1.23549,3.55853 -0.98072,5.35537 0.24963,1.76054 1.45356,3.25654 2.3817,4.77323 0.78027,1.27505 1.82424,2.37096 2.66192,3.60904 0.8951,1.32296 1.48746,2.85751 2.52177,4.07473 0.84195,0.99085 2.94208,2.56126 2.94208,2.56126"
     id="path4170"
     inkscape:connector-curvature="0"
     sodipodi:nodetypes="csssssssssc" />
  <path
     style="fill:none;fill-rule:evenodd;stroke:#000000;stroke-width:1;stroke-linecap:butt;stroke-linejoin:miter;stroke-miterlimit:4;stroke-dasharray:none;stroke-opacity:1"
     d="m 296.36874,499.57074 c -3.63246,4.43234 -6.44735,7.68711 -8.5811,12.98612 -1.8504,4.47919 -1.72847,8.88807 -1.3666,13.61282"
     id="path4172"
     inkscape:connector-curvature="0"
     sodipodi:nodetypes="csc" />
  <path
     style="fill:none;fill-rule:evenodd;stroke:#000000;stroke-width:1;stroke-linecap:butt;stroke-linejoin:miter;stroke-miterlimit:4;stroke-dasharray:1.99997, 1;stroke-dashoffset:0;stroke-opacity:1"
     d="m 433.13648,481.72368 c -2.3409,-0.37492 -4.35888,1.86594 -6.53832,2.79891 -4.24053,1.81528 -7.9624,4.55121 -12.08599,6.58582 -6.77256,3.34163 -14.83567,1.7649 -22.19061,3.29283 -11.73223,2.43727 -23.78905,3.01121 -35.46537,5.76257 -9.96904,2.77673 -19.55765,4.74627 -29.71959,8.23218 -3.33331,1.14344 -6.57062,2.6024 -9.65447,4.30777 -1.21572,0.6723 -2.42851,1.39214 -3.4617,2.32084 -1.47947,1.32985 -2.93178,2.80149 -3.83102,4.57595 -0.73663,1.45357 -0.83439,3.1521 -1.16717,4.74732 -0.35726,1.71258 -1.1562,3.44352 -0.88918,5.17247 0.25397,1.64449 1.42131,3.01652 2.29054,4.43542 0.86398,1.41033 1.99847,2.63994 2.89339,4.03084 0.40359,0.62727 0.72034,1.30711 1.11355,1.94094 0.45715,0.7369 0.87113,1.51355 1.44664,2.16223 0.89262,1.00611 1.79475,1.7344 3.06249,2.18368 0.54785,0.19415 1.17209,0.28598 1.74302,0.39495 0.82354,0.15718 1.59109,0.42513 2.50107,0.85055 0.52414,0.24504 1.8055,0.9655 2.19398,1.39428 0.85124,0.93955 2.23722,2.1797 2.23722,2.1797 0,0 1.802,-1.43827 2.88988,-1.67636 1.666,-0.36461 3.39778,0.30089 5.09336,0.48393 1.57934,0.17049 3.36646,-0.241 4.73109,0.57212 0.80893,0.482 1.63311,2.30502 1.63311,2.30502 0,0 1.23689,-2.27096 2.15336,-3.15479 0.9444,-0.91076 1.6243,-1.24954 3.32923,-2.09966 1.37382,-0.68502 2.87876,-0.84034 3.02297,-1.95167 0.15993,-1.23245 -2.11033,-1.57012 -2.52764,-2.74075 -0.36923,-1.03576 -0.36419,-2.34791 0.19812,-3.29287 0.95508,-1.60501 3.03907,-2.22646 4.75515,-2.96357 2.00624,-0.86174 4.3247,-0.8065 6.34016,-1.64647 1.48871,-0.62044 2.94811,-1.40628 4.16074,-2.46964 1.36513,-1.19708 2.08124,-2.99997 3.36819,-4.28073 0.94947,-0.9449 1.96067,-1.89386 3.17012,-2.46967 2.20314,-1.04891 4.7083,-1.37023 7.13271,-1.64641 2.4279,-0.27657 7.33081,0 7.33081,0 4.32513,0 8.29266,-2.40257 12.48222,-3.45754 9.17045,-2.56597 16.95477,-7.05046 25.95511,-10.20789 5.92516,-2.09714 10.53154,-6.22642 14.85979,-10.70188 3.5618,-4.13413 2.55097,-7.4617 1.24173,-10.863 -0.92528,-2.40382 -3.25535,-4.70008 -5.79869,-5.10742 z"
     id="C25"
     inkscape:connector-curvature="0"
     inkscape:label="#path4174"
     sodipodi:nodetypes="asssssssssssssssssscssscsssssssssssssssaa" />
  <path
     style="fill:none;fill-rule:evenodd;stroke:#000000;stroke-width:1;stroke-linecap:butt;stroke-linejoin:miter;stroke-miterlimit:4;stroke-dasharray:none;stroke-opacity:1"
     d="m 427.39068,495.05981 c 0,0 -4.88696,1.97645 -7.33085,2.96364 -2.31126,0.93362 -4.5787,1.98437 -6.93456,2.79891 -2.79447,0.96619 -5.70012,1.57919 -8.51963,2.46968 -3.39465,1.07213 -6.65451,2.58014 -10.10463,3.45751 -2.85668,0.72646 -5.90105,0.6132 -8.71776,1.48179 -2.0134,0.62087 -3.76024,1.92936 -5.74578,2.63426 -1.86395,0.66173 -3.87982,0.82579 -5.74578,1.48183 -2.39228,0.84109 -4.48635,2.4674 -6.93456,3.12823 -1.53852,0.41528 -3.29298,-0.1397 -4.75517,0.49395 -1.84475,0.79943 -2.69806,3.18553 -4.55699,3.95142 -2.26448,0.93298 -4.88306,0.41159 -7.33082,0.49396 -0.46204,0.0155 -0.9521,-0.15708 -1.3869,0 -1.696,0.6127 -2.81028,2.26253 -4.16077,3.45752 -2.03825,1.80357 -3.88773,3.81476 -5.9439,5.59788 -1.59567,1.38377 -3.25433,2.69664 -4.95327,3.95146 -1.80098,1.33019 -3.41349,3.10986 -5.54765,3.78683 -3.39983,1.07845 -7.15632,0.57797 -10.69906,0.16457 -1.55627,-0.1816 -4.55701,-1.15249 -4.55701,-1.15249"
     id="path4176"
     inkscape:connector-curvature="0"
     sodipodi:nodetypes="csssssssssssssssssc" />
  <path
     style="fill:none;fill-rule:evenodd;stroke:#000000;stroke-width:1;stroke-linecap:butt;stroke-linejoin:miter;stroke-miterlimit:4;stroke-dasharray:none;stroke-opacity:1"
     d="m 362.2057,508.39599 c 0,0 -1.9236,2.13047 -1.98128,3.45754 -0.0683,1.57085 1.98128,4.28071 1.98128,4.28071"
     id="path4178"
     inkscape:connector-curvature="0"
     sodipodi:nodetypes="csc" />
  <path
     style="fill:none;fill-rule:evenodd;stroke:#000000;stroke-width:1;stroke-linecap:butt;stroke-linejoin:miter;stroke-miterlimit:4;stroke-dasharray:none;stroke-opacity:1"
     d="m 379.83936,502.63346 -1.78318,3.7868 c -0.73217,1.55485 0.67288,3.24928 0.79251,4.93934"
     id="path4180"
     inkscape:connector-curvature="0"
     sodipodi:nodetypes="csc" />
  <path
     style="fill:none;fill-rule:evenodd;stroke:#000000;stroke-width:1;stroke-linecap:butt;stroke-linejoin:miter;stroke-miterlimit:4;stroke-dasharray:none;stroke-opacity:1"
     d="m 396.68043,496.87094 c 0,0 -1.31694,2.89522 -1.58504,4.44537 -0.28993,1.67643 0,5.10395 0,5.10395"
     id="path4182"
     inkscape:connector-curvature="0"
     sodipodi:nodetypes="csc" />
  <path
     style="fill:none;fill-rule:evenodd;stroke:#000000;stroke-width:1;stroke-linecap:butt;stroke-linejoin:miter;stroke-miterlimit:4;stroke-dasharray:none;stroke-opacity:1"
     d="m 422.57337,490.61444 c 0,0 -2.67573,2.32833 -3.68137,3.7677 -1.09863,1.57246 -2.48158,5.19213 -2.48158,5.19213"
     id="path4184"
     inkscape:connector-curvature="0"
     sodipodi:nodetypes="csc" />
  <path
     style="fill:none;fill-rule:evenodd;stroke:#000000;stroke-width:1;stroke-linecap:butt;stroke-linejoin:miter;stroke-miterlimit:4;stroke-dasharray:none;stroke-opacity:1"
     d="m 427.78694,501.48095 c 0,0 -3.8024,-1.40545 -5.74577,-1.97576 -1.10903,-0.32546 -3.36827,-0.82322 -3.36827,-0.82322"
     id="path4186"
     inkscape:connector-curvature="0"
     sodipodi:nodetypes="csc" />
  <path
     style="fill:none;fill-rule:evenodd;stroke:#000000;stroke-width:1;stroke-linecap:butt;stroke-linejoin:miter;stroke-miterlimit:4;stroke-dasharray:none;stroke-opacity:1"
     d="m 408.96451,501.97487 c 0,0 1.7189,2.59758 2.97197,3.45753 1.93927,0.89713 4.0796,1.39461 6.14205,1.97569"
     id="path4188"
     inkscape:connector-curvature="0"
     sodipodi:nodetypes="csc" />
  <path
     style="fill:none;fill-rule:evenodd;stroke:#000000;stroke-width:1;stroke-linecap:butt;stroke-linejoin:miter;stroke-miterlimit:4;stroke-dasharray:none;stroke-opacity:1"
     d="m 388.99833,507.73572 c 0,0 0.27395,3.90468 1.14379,5.59958 0.8878,1.7299 3.9626,4.28072 3.9626,4.28072"
     id="path4192"
     inkscape:connector-curvature="0"
     sodipodi:nodetypes="csc" />
  <path
     style="fill:none;fill-rule:evenodd;stroke:#000000;stroke-width:1;stroke-linecap:butt;stroke-linejoin:miter;stroke-miterlimit:4;stroke-dasharray:none;stroke-opacity:1"
     d="m 373.24196,512.71496 c 0,0 -2.67116,3.01605 -2.91289,4.90106 -0.18165,1.41652 1.1888,4.11612 1.1888,4.11612"
     id="path4194"
     inkscape:connector-curvature="0"
     sodipodi:nodetypes="csc" />
  <path
     style="fill:none;fill-rule:evenodd;stroke:#000000;stroke-width:1;stroke-linecap:butt;stroke-linejoin:miter;stroke-miterlimit:4;stroke-dasharray:none;stroke-opacity:1"
     d="m 357.84686,519.75639 c 0,0 -0.68652,3.23524 0,4.61003 0.36686,0.73466 1.96929,1.4801 1.96929,1.4801"
     id="path4196"
     inkscape:connector-curvature="0"
     sodipodi:nodetypes="csc" />
  <path
     style="fill:none;fill-rule:evenodd;stroke:#000000;stroke-width:1;stroke-linecap:butt;stroke-linejoin:miter;stroke-miterlimit:4;stroke-dasharray:none;stroke-opacity:1"
     d="m 333.9771,533.79934 c 0,0 3.85401,2.22579 5.24548,3.90325 1.44249,1.73897 2.97194,6.09185 2.97194,6.09185"
     id="path4198"
     inkscape:connector-curvature="0"
     sodipodi:nodetypes="csc" />
  <path
     style="fill:none;fill-rule:evenodd;stroke:#000000;stroke-width:1;stroke-linecap:butt;stroke-linejoin:miter;stroke-miterlimit:4;stroke-dasharray:none;stroke-opacity:1"
     d="m 345.58679,523.54324 c 0,0 -4.73199,-1.25068 -7.15672,-1.31719 -1.73046,-0.0475 -3.42379,0.54863 -5.15141,0.65862 -1.45002,0.0923 -4.35887,0 -4.35887,0"
     id="path4200"
     inkscape:connector-curvature="0"
     sodipodi:nodetypes="cssc" />
  <path
     style="fill:none;fill-rule:evenodd;stroke:#000000;stroke-width:1;stroke-linecap:butt;stroke-linejoin:miter;stroke-miterlimit:4;stroke-dasharray:none;stroke-opacity:1"
     d="m 328.52353,537.20868 c 0,0 -0.72823,2.74387 -0.19811,3.95142 0.93198,2.12292 5.3495,4.44537 5.3495,4.44537"
     id="path4202"
     inkscape:connector-curvature="0"
     sodipodi:nodetypes="csc" />
  <path
     style="fill:none;fill-rule:evenodd;stroke:#000000;stroke-width:1;stroke-linecap:butt;stroke-linejoin:miter;stroke-miterlimit:4;stroke-dasharray:none;stroke-opacity:1"
     d="m 303.36095,654.76441 c -2.31103,2.34899 -1.42374,6.71646 -3.56635,9.22003 -2.28166,2.66604 -5.74486,4.28751 -9.114,5.26862 -4.95044,1.44159 -10.40645,1.71001 -15.45419,0.65861 -4.17132,-0.86885 -8.14958,-2.95485 -11.49158,-5.59793 -2.78108,-2.19946 -5.10432,-5.08444 -6.73644,-8.23218 -2.04503,-3.94409 -3.56636,-12.84224 -3.56636,-12.84224 0,0 -5.23156,-2.46364 -5.94388,-4.9393 -0.70275,-2.44241 2.37757,-7.24433 2.37757,-7.24433 0,0 -6.14324,0.76076 -8.32152,-0.98788 -2.81071,-2.25633 -3.36676,-6.60912 -3.56632,-10.20791 -0.13093,-2.36117 0.7002,-4.72203 1.58503,-6.91505 0.28759,-0.71277 1.18881,-1.97573 1.18881,-1.97573 0,0 -4.76776,-1.88335 -5.94393,-3.95147 -1.30392,-2.29275 -1.20846,-5.39343 -0.39629,-7.90287 0.77995,-2.4099 4.75516,-5.92721 4.75516,-5.92721 0,0 -0.7968,-4.82885 -1.18878,-7.24433 -0.2671,-1.64597 -1.05579,-3.29272 -0.79255,-4.93931 0.27295,-1.70732 2.37758,-4.61001 2.37758,-4.61001 0,0 -1.86905,-5.11041 -1.18876,-7.57365 0.49441,-1.79019 2.99282,-2.51425 3.56632,-4.28069 0.61146,-1.88337 -1.14597,-4.09447 -0.39627,-5.92721 0.93743,-2.29165 4.59369,-2.65452 5.54769,-4.93932 0.97404,-2.33281 -1.53193,-5.31507 -0.39627,-7.57361 1.0688,-2.12559 5.9439,-3.9515 5.9439,-3.9515 0,0 -0.80157,-5.96782 0.39626,-8.56145 1.21301,-2.6265 3.72846,-4.68265 6.34018,-5.92717 3.61138,-1.72087 7.94554,-2.32601 11.88783,-1.64644 2.34682,0.40454 6.34016,3.2929 6.34016,3.2929 0,0 2.38769,-3.13483 4.16078,-3.6222 0.90777,-0.24952 5.0053,-0.62227 9.11399,3.12824 1.87075,1.70764 3.38493,3.77355 4.95326,5.76255 1.46695,1.86043 3.36103,3.53236 4.16074,5.76253 0.35267,0.98352 0.19811,3.12824 0.19811,3.12824 0,0 3.91804,-1.73732 5.94394,-1.4818 1.48943,0.18786 2.74112,1.26762 3.96259,2.14038 1.31649,0.94065 3.56632,3.29286 3.56632,3.29286 0,0 1.52435,-1.83371 2.57571,-2.305 1.33433,-0.59814 2.91445,-0.72165 4.35887,-0.49394 1.57579,0.24842 3.03777,1.08161 4.3589,1.97573 0.98507,0.66668 2.57569,2.46964 2.57569,2.46964 0,0 1.89677,-1.42156 3.02149,-1.64643 2.19766,-0.43938 4.45641,0.48172 6.68693,0.69978 1.05601,0.10324 2.26505,-0.26574 3.17008,0.2881 0.84423,0.51663 1.58504,2.51084 1.58504,2.51084 0,0 1.23258,-2.40329 2.17943,-3.33408 0.91828,-0.9027 2.03952,-1.67584 3.26917,-2.05803 1.92516,-0.59837 4.05321,-0.57122 6.04297,-0.24699 1.67403,0.27278 4.75511,1.8111 4.75511,1.8111 0,0 0.74135,-1.98199 1.38693,-2.79894 0.63888,-0.80849 1.44503,-1.53736 2.37758,-1.97573 1.88518,-0.88617 4.05922,-1.18534 6.14204,-1.15253 3.31343,0.0522 9.70839,2.14036 9.70839,2.14036 0,0 0.98986,-2.22752 1.78318,-3.12821 1.14689,-1.30211 2.56967,-2.43587 4.16073,-3.12824 1.7223,-0.74949 3.68173,-1.20312 5.54766,-0.98784 2.07095,0.23893 5.74579,2.46965 5.74579,2.46965 0,0 1.89255,-2.28241 2.97196,-3.29288 1.22855,-1.15008 2.62824,-2.10282 3.96261,-3.12823 1.30785,-1.00503 2.37897,-2.50242 3.9626,-2.96359 1.39898,-0.4074 4.35887,0.32927 4.35887,0.32927 0,0 0.49594,-2.50251 1.38692,-3.29286 1.49046,-1.32211 3.75639,-1.53813 5.74579,-1.64647 1.9405,-0.10567 5.74581,0.98789 5.74581,0.98789 1.02093,-3.9608 3.15774,-6.6354 6.17473,-9.09671 1.73977,-1.47953 3.98087,-2.68966 5.91122,-3.91014 2.54511,-1.60917 5.41927,-2.62674 8.12335,-3.9515 2.1163,-1.0368 3.95939,-2.77911 6.2943,-3.09826 2.93005,-0.40049 6.38513,-0.17136 8.71776,1.64645 1.86032,1.44974 1.95351,4.28932 3.01781,6.39116 0.56389,1.11361 1.78316,3.2929 1.78316,3.2929 0,0 3.74413,2.97293 4.55702,5.1039 0.89978,2.35876 0.47862,5.09488 0,7.57364 -0.40358,2.09015 -2.37757,5.92719 -2.37757,5.92719 0,0 3.26497,1.9742 3.9626,3.62216 0.87757,2.07301 -0.1253,4.5005 -0.19813,6.75043 -0.0604,1.86614 0.48901,3.86177 -0.19811,5.59786 -0.71088,1.79613 -3.81402,4.36304 -3.81402,4.36304 0,0 2.0732,3.21531 2.62523,5.02167 0.69402,2.27095 1.65854,4.8686 0.79251,7.07968 -0.79587,2.03193 -4.95326,4.28072 -4.95326,4.28072 0,0 1.1488,2.15551 1.58503,3.29289 0.67559,1.76147 1.51855,3.54785 1.58508,5.43326 0.099,2.80595 -1.4843,5.44044 -1.7832,8.23218 -0.0935,0.87312 0,2.63432 0,2.63432 0,0 2.68732,2.24076 3.36825,3.78679 0.77835,1.76722 1.10219,3.89947 0.59438,5.76254 -0.87839,3.22269 -5.94393,8.06754 -5.94393,8.06754 0,0 0.95636,4.14644 1.1888,6.25649 0.22846,2.07399 0.95845,4.31339 0.19812,6.25646 -0.92616,2.36685 -5.34954,5.43326 -5.34954,5.43326 0,0 1.05517,4.14598 0.99066,6.25646 -0.0653,2.13512 -0.20905,4.47443 -1.38691,6.25647 -0.69781,1.05575 -3.08803,2.20859 -3.08803,2.20859 0,0 -0.93668,3.61002 -1.86522,5.20039 -1.42618,2.4427 -3.84329,4.16369 -5.54766,6.4211 -0.87025,1.15263 -1.61361,2.39651 -2.37756,3.62219 -1.92218,3.08394 -3.59837,6.31783 -5.54767,9.3847 -1.06897,1.68184 -2.06787,3.42921 -3.36822,4.93929 -1.52774,1.77414 -3.25863,3.3966 -5.15137,4.77467 -2.44867,1.78284 -5.15883,3.21186 -7.92522,4.44539 -2.80319,1.24994 -5.73564,2.23752 -8.71777,2.96358 -5.71096,1.39045 -11.5941,1.98116 -17.43548,2.63435 -3.75109,0.41945 -7.51924,0.86825 -11.29344,0.82317 -3.9809,-0.0476 -8.07325,-0.0128 -11.88781,-1.1525 -2.59899,-0.77653 -7.20278,-3.78679 -7.20278,-3.78679 l 3.42766,-4.28598 c 0,0 2.56139,-5.5114 4.85778,-7.33555 2.04862,-1.62732 5.39031,-0.91321 7.35484,-2.74071 1.46097,-1.35907 0.47627,-5.96715 0.47627,-5.96715 0,0 4.05759,2.10962 6.14412,3.04177 1.75357,0.7834 3.45236,2.43948 5.34953,2.14036 1.44198,-0.22735 2.82831,-1.44265 3.36821,-2.79893 0.40888,-1.02715 -0.73057,-2.2391 -0.39624,-3.29288 0.26829,-0.8456 0.93342,-1.72083 1.78315,-1.97573 1.55147,-0.4654 3.85111,-0.48155 5.34953,-1.81106 0.98458,-0.87359 2.17945,-3.29286 2.17945,-3.29286 0,0 4.44218,0.49797 5.94391,-0.82328 1.32363,-1.16455 2.21555,-3.54781 1.3869,-5.10393 -0.36658,-0.6884 -2.21591,-0.75118 -2.21591,-0.75118 0,0 0.60611,-1.85469 0.77099,-2.81278 0.10317,-0.59951 -0.0661,-1.24547 0.13366,-1.82008 0.33301,-0.95812 1.05314,-1.74374 1.70742,-2.51886 0.76724,-0.90894 1.68115,-1.68568 2.57569,-2.46966 1.71754,-1.50527 5.34953,-4.28072 5.34953,-4.28072 0,0 -1.30639,-3.05442 -1.25067,-4.82968 0.0284,-0.90361 0.64426,-2.80218 0.64426,-2.80218 0,0 3.75667,0.32323 5.55965,-0.10681 3.64556,-0.86952 6.94451,-2.90447 10.12869,-4.88114 2.22188,-1.37929 4.58291,-2.75828 6.18809,-4.82288 1.09885,-1.41335 1.32541,-2.73263 2.15542,-4.9193 0.73635,-1.93993 3.52031,-5.13392 3.52031,-5.13392 0,0 -1.01085,-5.20642 -1.78317,-7.73826 -0.37722,-1.23662 -1.41411,-2.32959 -1.3869,-3.62218 0.0491,-2.33103 2.23267,-4.15326 2.77383,-6.42114 1.26339,-5.29462 2.10422,-10.97158 0.99066,-16.29973 -0.50442,-2.41355 -1.66371,-4.8041 -3.36824,-6.58573 -0.99788,-1.04301 -2.38181,-1.72588 -3.7645,-2.14037 -2.40913,-0.7222 -7.52897,-0.49396 -7.52897,-0.49396 0,0 3.34496,-2.46661 4.55702,-4.11608 1.21627,-1.65519 2.31564,-3.56041 2.57569,-5.59789 0.33178,-2.59944 -0.48384,-5.27827 -1.38689,-7.73829 -0.6343,-1.72789 -0.93595,-4.87489 -2.77385,-4.77464 -1.13893,0.0621 -0.51496,2.39288 -1.38692,3.12821 -1.19778,1.01009 -3.38725,0.1101 -4.55701,1.15251 -1.4243,1.26923 -0.88605,3.82475 -2.0308,5.35091 -1.07979,1.43956 -2.68894,2.46913 -4.30939,3.25171 -3.21285,1.5516 -9.36165,4.32197 -9.36165,4.32197 -0.9239,0.42654 -1.58586,1.14211 -2.34205,1.77908 -1.18405,0.99737 -2.41675,1.97838 -3.84952,2.70742 -0.0695,0.0354 -1.34316,0.42945 -2.86412,0.49473 -1.03914,0.0446 -2.14837,8.1e-4 -2.98073,-0.1243 -0.57145,-0.0859 -1.53028,-0.31209 -2.08915,-0.59039 -1.26705,-0.63094 -2.28943,-0.85458 -3.24191,-0.36819 -1.23562,0.63097 -1.3176,3.23221 -2.7922,4.08677 -2.57837,1.49422 -6.71934,-0.74187 -8.91585,0.65857 -1.36633,0.87114 -2.16986,2.47571 -3.56638,3.29286 -2.5241,1.47694 -5.4627,2.20453 -8.34632,2.70387 -2.92887,0.50716 -6.04392,-0.59442 -8.89103,0.25967 -1.5723,0.47166 -2.62064,2.06624 -4.16074,2.6343 -1.81527,0.66956 -3.81399,0.93129 -5.74579,0.82322 -1.09004,-0.061 -2.10045,-1.0418 -3.17009,-0.82322 -1.14423,0.23382 -1.71432,1.64907 -2.77381,2.1404 -1.89958,0.88092 -4.04818,1.32135 -6.14208,1.31711 -1.28447,-0.003 -2.49578,-1.02394 -3.76447,-0.8232 -2.04029,0.32283 -3.34154,2.6434 -5.34951,3.1282 -1.92893,0.46571 -4.02468,0.17482 -5.94394,-0.32926 -2.27933,-0.59866 -4.02432,-2.69171 -6.34018,-3.12822 -1.88906,-0.35606 -3.83993,0.7451 -5.74577,0.49392 -2.70944,-0.35709 -5.12051,-1.95064 -7.70762,-2.79456 -1.05224,-0.34324 -2.08696,-0.73128 -3.18957,-0.82759 -1.82417,-0.15934 -3.62594,0.87676 -5.44853,0.70025 -2.42453,-0.2348 -4.66949,-1.40897 -6.93456,-2.30503 -1.82631,-0.72249 -3.74609,-1.24876 -5.25051,-2.51134 -1.33059,-1.11669 -2.3602,-3.97248 -3.38953,-5.37176 -0.70068,-0.95251 -0.82977,-0.98033 -1.76188,-1.70793 -1.53626,-1.1992 -4.01903,-0.23753 -4.95327,-0.32925 -0.99067,-0.0973 0.84885,-2.46636 0,-2.9863 -0.63221,-0.38724 -1.62151,0.36232 -1.9813,1.01054 -0.7485,1.34855 -0.31456,3.15971 -0.184,4.69652 0.20047,2.3597 1.56778,4.65786 1.17465,6.9932 -0.18935,1.1248 -1.17165,2.00809 -1.38692,3.12822 -0.33168,1.72586 0.70719,3.5865 0.19811,5.26859 -0.29413,0.97186 -1.3805,1.53757 -1.78318,2.4697 -0.5541,1.28266 -0.91492,2.72423 -0.7925,4.11608 0.11328,1.2879 1.57002,2.34235 1.3869,3.62219 -0.1855,1.29653 -2.39474,1.8186 -2.37757,3.12822 0.0166,1.26637 2.66309,1.72972 2.37757,2.9636 -0.40555,1.75261 0.55001,3.18726 0.39625,5.10395 0,0 -0.45397,1.68442 -0.19812,2.46965 0.31388,0.96333 1.13222,1.75223 1.9813,2.30503 1.27201,0.82815 3.10087,0.54598 4.37046,1.37784 1.02394,0.67091 1.70277,1.71992 2.37758,2.79899 0.69879,1.11741 1.42265,2.33448 1.58504,3.62214 0.16512,1.30933 0.38466,4.05537 0.38466,4.05537 0,0 3.5758,-0.20831 5.15141,0.49391 0.79357,0.35368 1.13362,0.93696 1.70801,1.64289 0.54567,0.67063 0.65883,1.1375 1.6687,1.52114 1.89926,0.7215 0.19013,4.25125 0.18962,6.38532 -3.5e-4,1.45921 -1.10661,3.23712 0,3.9515 0.55478,0.35814 1.79753,0.60978 2.87602,0.20285 1.39353,-0.5258 2.13769,-0.73421 2.80926,-0.57773 1.43008,0.33322 3.56722,2.30224 5.04358,4.80026 1.02545,1.73507 1.59787,3.71706 1.95152,5.61789 0.92666,4.98068 -1.71663,8.56516 -4.95318,11.85487 z"
     id="C18"
     inkscape:connector-curvature="0"
     inkscape:label="C18"
     sodipodi:nodetypes="sssssscscssscsscsscssssscssscsssscsscssscssscssscssscssscssscsscsssssscsscssscsscssscsscsscsscsssssssssssccsscsssssscsscsssscscsssscsssssscssssssssssssssssssssssssssssssssssssssssssssssssssssssscssssssssss" />
  <path
     style="opacity:1;fill:none;fill-rule:evenodd;stroke:#000000;stroke-width:1;stroke-linecap:butt;stroke-linejoin:miter;stroke-miterlimit:4;stroke-dasharray:none;stroke-opacity:1"
     d="m 274.63194,587.42453 c -0.14317,-1.39294 0.28788,-2.82964 0.84212,-4.11557 0.3981,-0.92367 1.44844,-1.50515 1.73366,-2.46967 0.50614,-1.71159 -0.51968,-3.59525 -0.19813,-5.3509 0.20658,-1.12792 1.15578,-2.03722 1.33738,-3.16943 0.45128,-2.81354 -2.05976,-6.01974 -0.69347,-8.52032 0.34983,-0.64025 1.21891,-0.87375 1.93178,-1.02903 1.55158,-0.33796 3.36177,-0.47352 4.75515,0.28813 2.57915,1.40982 2.91835,5.26899 5.20093,7.12086 1.62952,1.32203 3.78829,1.81385 5.73966,2.58537 2.09554,0.82852 4.15379,1.96333 6.39581,2.18932 1.80559,0.182 3.59268,-0.87371 5.39906,-0.69975 3.81017,0.36694 7.09742,3.15963 10.89717,3.62217 1.90712,0.23215 3.85732,-0.80596 5.74578,-0.45278 2.39535,0.44798 4.22895,2.55804 6.5879,3.16939 1.80918,0.46887 3.78163,0.7729 5.59716,0.32928 2.05459,-0.50203 3.35974,-2.91977 5.44857,-3.25171 1.28742,-0.20459 2.51048,0.85369 3.81401,0.86439 2.07484,0.017 4.20042,-0.42446 6.09254,-1.27601 1.06942,-0.4813 1.6747,-1.86263 2.82333,-2.0992 1.16347,-0.23963 2.2803,0.77714 3.4673,0.82321 1.7702,0.0687 3.5913,-0.20232 5.25046,-0.82321 1.64329,-0.61495 2.77427,-2.30506 4.45791,-2.79893 2.63014,-0.77151 5.51718,0.35847 8.22247,-0.0823 3.25436,-0.53023 6.59311,-1.33406 9.41119,-3.04592 1.26881,-0.77074 1.81575,-2.52018 3.17007,-3.12825 2.68681,-1.20634 6.23534,0.84163 8.8168,-0.57622 1.51977,-0.83472 1.44801,-3.58832 3.07104,-4.19845 1.64705,-0.61916 3.39569,1.03572 5.15139,1.15252 1.88526,0.12542 3.87144,0.15283 5.64673,-0.49394 2.42518,-0.88354 4.10644,-3.15209 6.34016,-4.44539 2.96652,-1.71759 6.3659,-2.61099 9.31217,-4.36309 1.551,-0.92236 3.26191,-1.77768 4.35884,-3.21054 1.1633,-1.51955 0.64713,-4.08286 2.0804,-5.35094 1.14824,-1.0159 3.28997,-0.13877 4.45795,-1.13191 0.88332,-0.75109 0.22912,-3.12695 1.38688,-3.18999 1.86167,-0.10137 2.13701,3.10473 2.77384,4.85702 0.89048,2.45022 1.73824,5.11385 1.38692,7.69708 -0.28728,2.11235 -1.49576,4.05635 -2.77383,5.76255 -1.1737,1.56686 -4.36237,3.93234 -4.36237,3.93234 0,0 5.22461,-0.22018 7.67256,0.54212 1.36717,0.42574 2.72164,1.13748 3.69939,2.18362 1.65408,1.76978 2.77669,4.12037 3.26316,6.49344 1.0949,5.34102 0.26278,11.02213 -1.00164,16.32558 -0.54525,2.28697 -2.76471,4.12664 -2.79086,6.47756 -0.0145,1.29886 1.07304,2.37284 1.46195,3.6122 0.79506,2.53369 1.76617,7.76827 1.76617,7.76827 0,0 -2.49341,3.17913 -3.46724,4.93928 -0.86487,1.56322 -0.98852,3.5253 -2.0804,4.93931 -1.65334,2.14111 -4.13547,3.5214 -6.43923,4.93934 -3.12179,1.92142 -6.34512,3.90642 -9.90652,4.77467 -1.82946,0.44601 -4.09527,0.15872 -5.64672,0.16459 -0.49049,1.2931 -1.22628,4.34285 -2.47664,6.17417 -0.58758,0.86058 -1.39485,1.58807 -2.27851,2.14035 -1.04843,0.65526 -2.25283,1.0856 -3.4673,1.31715 -1.29204,0.24634 -3.94557,0.0543 -3.94557,0.0543 l 0.37916,0.24534 c 2.45654,1.1077 2.35195,2.75267 2.57569,5.13389 0.17477,1.86007 0.10239,4.43863 -0.69362,6.50346 -1.2464,2.53637 -2.71307,3.09412 -4.34172,5.4037 -0.75003,1.06361 -1.95844,3.76205 -2.98889,4.55702 -1.45768,1.12457 -3.4079,1.41307 -5.22165,1.72898 -2.5158,0.43819 -5.11073,0.44075 -7.65704,0.24698 -1.94258,-0.14782 -3.84283,-0.65276 -5.74579,-1.07018 -1.53045,-0.33571 -4.55701,-1.15253 -4.55701,-1.15253 0,0 1.27444,3.06537 1.48598,4.69235 0.26567,2.04324 0.91706,4.50953 -0.29718,6.17417 -1.383,1.89599 -4.1825,1.23933 -6.13027,2.22537 -0.94035,0.47604 -6.43472,2.02898 -8.53429,2.40547 -4.07692,0.52291 -8.21883,-0.17612 -12.32876,-0.23282 -4.11015,-0.0567 -8.23182,-0.39741 -12.33116,-0.1074 -5.16524,0.36541 -10.57961,1.01015 -15.41093,0.69851 -2.80513,-0.18095 -5.1155,-2.23549 -7.56297,-3.61803 -2.12617,-1.20104 -4.17021,-2.54895 -6.16438,-3.95835 -1.44786,-1.0233 -2.65309,-2.39877 -4.20297,-3.25977 -1.26081,-0.70041 -2.24196,-0.85004 -4.05788,-1.50186 -1.81592,-0.65182 -3.30605,-1.26516 -4.6855,-1.61666 -0.22381,0.0515 0.61452,-2.81767 1.73687,-4.18172 0.78903,-0.95894 1.8437,-1.6932 2.55582,-2.71057 0.87762,-1.2538 1.64466,-2.63013 2.06044,-4.10301 0.45808,-1.62271 0.65027,-3.36866 0.42881,-5.04018 -0.25903,-1.95507 -0.93992,-3.91069 -2.01942,-5.56117 -1.2704,-1.94236 -2.86367,-4.00359 -5.04358,-4.80026 -1.77053,-0.64706 -2.27558,1.62892 -5.64503,0.33865 -1.15672,-0.44294 -0.0374,-3.92041 0.0241,-5.28304 0.0834,-1.84607 3.75431,-0.71316 5.53893,-0.23353 1.60422,0.43115 2.69742,1.97569 4.20296,2.67767 1.28696,0.60006 2.68493,1.62355 4.06288,1.28063 0.58133,-0.14467 1.29869,-0.68276 1.2609,-1.28063 -0.14246,-2.25404 -3.94403,-2.40311 -5.32378,-4.1912 -1.21522,-1.57486 -0.58622,-4.61546 -2.38169,-5.47176 -1.57458,-0.75096 -3.59553,0.42418 -5.04355,1.39705 -0.77603,0.52139 -1.42232,1.03031 -2.20661,0.90236 -1.61282,-0.26312 -2.2187,-2.53934 -3.71263,-3.20161 -1.59165,-0.70559 -5.18368,-0.64043 -5.18368,-0.64043 0,0 -0.10081,-2.81218 -0.45531,-4.16203 -0.31635,-1.20456 -0.81068,-2.37852 -1.47106,-3.43443 -0.65296,-1.04404 -1.38737,-2.1182 -2.41673,-2.79408 -1.29911,-0.853 -3.15146,-0.54034 -4.44814,-1.39703 -0.80942,-0.53477 -1.58949,-1.29005 -1.89135,-2.21201 -0.25105,-0.76679 0.18047,-1.60694 0.1804,-2.41378 -1.5e-4,-1.74213 -0.84468,-3.52992 -0.3904,-5.21178 0.34387,-1.27308 2.23909,-1.94108 2.24158,-3.25978 0.003,-1.34766 -1.62896,-2.15902 -2.27819,-3.33999 -0.54832,-0.99742 -1.23431,-2.00387 -1.35069,-3.13611 z"
     id="C17"
     inkscape:connector-curvature="0"
     sodipodi:nodetypes="ssssssssssssssssssssssssssssssssssssssscsssssscsssscsssccssssssscsssssssssszcssssssssssssssssscssssssssss"
     inkscape:label="C17" />
  <path
     style="fill:none;fill-rule:evenodd;stroke:#000000;stroke-width:1;stroke-linecap:butt;stroke-linejoin:miter;stroke-miterlimit:4;stroke-dasharray:none;stroke-opacity:1"
     d="m 375.57248,670.6384 c 0,0 -4.36767,1.71527 -6.72941,1.82519 -8.72909,0.40625 -17.37546,-0.96353 -25.9551,-0.32924 -1.91708,0.14173 -5.74575,0.49391 -5.74575,0.49391 0,0 -1.09511,2.5796 -1.28785,3.95148 -0.25595,1.8218 0.19813,5.51553 0.19813,5.51553 l 22.97053,-0.47138 c -0.18727,-1.47296 -0.33301,-2.93631 -0.18557,-4.46793 0,0 2.71818,2.00667 4.16075,2.88128 1.38139,0.83752 4.28883,2.25679 4.28883,2.25679 l 3.14109,-3.98557 c 1.31121,-2.94068 3.16948,-5.36084 5.14435,-7.67006 z"
     id="C19"
     inkscape:connector-curvature="0"
     inkscape:label="C19"
     sodipodi:nodetypes="csscscccsccc" />
  <path
     style="fill:none;fill-rule:evenodd;stroke:#000000;stroke-width:1;stroke-linecap:butt;stroke-linejoin:miter;stroke-miterlimit:4;stroke-dasharray:none;stroke-opacity:1"
     d="m 336.06393,682.13768 c -0.37343,2.80269 -0.58326,6.09105 1.08862,8.3081 0,0 1.75542,1.77615 2.1935,2.90875 0.36944,0.95516 0.28228,3.05936 0.28228,3.05936 l 17.47637,-0.0681 -0.68351,-2.19202 c -0.65404,-2.0975 0.84382,-2.99864 1.74625,-4.87209 1.13375,-2.35368 1.33764,-5.14784 0.85559,-7.65779 z"
     id="C20"
     inkscape:connector-curvature="0"
     inkscape:label="C20"
     sodipodi:nodetypes="cssccsscc" />
  <path
     style="fill:none;fill-rule:evenodd;stroke:#000000;stroke-width:1;stroke-linecap:butt;stroke-linejoin:miter;stroke-miterlimit:4;stroke-dasharray:none;stroke-opacity:1"
     d="m 339.66669,696.32098 c -1.71115,3.05428 -2.41032,6.98919 -2.41032,10.3836 0.019,4.32827 2.59374,7.74595 5.06252,11.13097 l 12.91954,-6.1e-4 c 2.37251,-3.55006 4.94554,-7.37463 5.04577,-11.65948 -0.12339,-3.64442 -1.09231,-6.83439 -3.07952,-9.89564 z"
     id="C21"
     inkscape:connector-curvature="0"
     inkscape:label="C21"
     sodipodi:nodetypes="ccccccc" />
  <path
     style="opacity:0.99;fill:none;fill-rule:evenodd;stroke:#000000;stroke-width:1;stroke-linecap:butt;stroke-linejoin:miter;stroke-miterlimit:4;stroke-dasharray:none;stroke-opacity:1"
     d="m 444.79177,486.46019 c -0.0141,-1.46452 -0.31156,-3.09144 -0.47328,-4.36912 -0.28646,-2.2632 3.07566,-3.4965 5.15852,-4.427 2.42501,-1.08336 5.28621,-1.66067 7.88796,-1.12657 2.32629,0.47755 4.55074,1.89224 6.08559,3.70439 1.83444,2.16587 3.18882,5.06464 3.17006,7.90291 -0.0204,3.09146 -1.97219,5.91266 -3.56633,8.56148 -1.39299,2.31459 -3.26256,4.3251 -5.15138,6.25645 -1.17587,1.20235 -2.10615,2.79074 -3.75625,2.466 -1.37374,-0.27035 -2.95277,-0.15799 -4.41313,0.0336 -2.11087,0.27695 -4.75279,2.33769 -5.26952,2.60436 -1.33483,0.68888 -3.25533,-0.47435 -4.19475,-1.64644 -1.10598,-1.37991 -1.75326,-3.84778 -0.75391,-5.30677 0,0 1.08333,-1.93886 1.72549,-2.91981 1.18319,-1.80741 2.2232,-3.49435 2.7467,-5.43727 0.57142,-2.12076 0.82439,-4.19943 0.80423,-6.29622 z"
     id="C26.1"
     inkscape:connector-curvature="0"
     sodipodi:nodetypes="ssssssssssssssss"
     inkscape:label="C26.1" />
  <path
     style="fill:none;fill-rule:evenodd;stroke:#000000;stroke-width:1;stroke-linecap:butt;stroke-linejoin:miter;stroke-miterlimit:4;stroke-dasharray:none;stroke-opacity:1"
     d="m 296.82265,573.26568 c 0,0 -1.89045,3.82238 -2.77384,5.76253 -1.03964,2.28333 -2.34208,4.48651 -2.97195,6.91503 -0.81714,3.15055 -1.32159,6.47606 -0.99068,9.71399 0.24571,2.40427 1.10379,4.75083 2.17945,6.91505 1.16815,2.35031 4.55702,6.42109 4.55702,6.42109 v 0"
     id="path4218"
     inkscape:connector-curvature="0"
     sodipodi:nodetypes="csssssc" />
  <path
     style="fill:none;fill-rule:evenodd;stroke:#000000;stroke-width:1;stroke-linecap:butt;stroke-linejoin:miter;stroke-miterlimit:4;stroke-dasharray:none;stroke-opacity:1"
     d="m 309.10672,574.91211 c -1.16967,3.10305 -4.21401,11.62619 -3.56635,14.65333 0.38076,1.77971 1.51901,3.67974 3.17011,4.44538 2.78905,1.29333 6.70182,-1.69473 16.04855,-0.494 3.50277,0.44998 6.89562,1.54069 10.3028,2.46966 2.53221,0.69041 5.16338,1.16807 7.52899,2.30502 2.01799,0.96988 4.73594,1.70017 5.54765,3.78681 0.73563,1.89105 -0.19279,4.28667 -1.38693,5.92717 -1.81504,2.49349 -5.16394,3.40093 -7.92522,4.77468 -3.56715,1.77468 -7.36393,3.04857 -11.09529,4.44537 -2.0305,0.7601 -3.9805,2.30858 -6.14208,2.14037 -3.13533,-0.24398 -8.32148,-4.44538 -8.32148,-4.44538"
     id="path4220"
     inkscape:connector-curvature="0"
     sodipodi:nodetypes="cssssssssssc" />
  <path
     style="fill:none;fill-rule:evenodd;stroke:#000000;stroke-width:1;stroke-linecap:butt;stroke-linejoin:miter;stroke-miterlimit:4;stroke-dasharray:none;stroke-opacity:1"
     d="m 321.58895,619.53061 0.79252,8.89076"
     id="path4222"
     inkscape:connector-curvature="0" />
  <path
     style="fill:none;fill-rule:evenodd;stroke:#000000;stroke-width:1;stroke-linecap:butt;stroke-linejoin:miter;stroke-miterlimit:4;stroke-dasharray:none;stroke-opacity:1"
     d="m 332.68429,602.73693 c 0,0 -1.53143,2.57448 -2.77385,3.29289 -2.1493,1.24279 -4.85982,1.07622 -7.33085,1.31714 -3.28704,0.32049 -6.79263,-0.93592 -9.90651,0.16457 -2.60684,0.92129 -4.8531,2.91203 -6.53829,5.10395 -1.74537,2.2702 -3.36824,7.9029 -3.36824,7.9029"
     id="path4224"
     inkscape:connector-curvature="0"
     sodipodi:nodetypes="cssssc" />
  <path
     style="fill:none;fill-rule:evenodd;stroke:#000000;stroke-width:1;stroke-linecap:butt;stroke-linejoin:miter;stroke-miterlimit:4;stroke-dasharray:none;stroke-opacity:1"
     d="m 337.43941,606.02982 -7.59904,-0.0481"
     id="path4226"
     inkscape:connector-curvature="0"
     sodipodi:nodetypes="cc" />
  <path
     style="fill:none;fill-rule:evenodd;stroke:#000000;stroke-width:1;stroke-linecap:butt;stroke-linejoin:miter;stroke-miterlimit:4;stroke-dasharray:none;stroke-opacity:1"
     d="m 325.35342,583.96754 2.972,-4.28075 0.39624,0.16457 v 0"
     id="path4228"
     inkscape:connector-curvature="0"
     sodipodi:nodetypes="cccc" />
  <path
     style="fill:none;fill-rule:evenodd;stroke:#000000;stroke-width:1;stroke-linecap:butt;stroke-linejoin:miter;stroke-miterlimit:4;stroke-dasharray:none;stroke-opacity:1"
     d="m 339.61882,578.86357 c 0,0 3.5877,1.14768 5.34954,1.81107 2.27562,0.85685 4.53874,1.75838 6.73643,2.79896 2.8423,1.3458 5.517,3.02248 8.3215,4.44539 1.2418,0.63005 2.78227,0.82401 3.76447,1.81108 1.62853,1.63661 2.97193,6.25646 2.97193,6.25646"
     id="path4230"
     inkscape:connector-curvature="0"
     sodipodi:nodetypes="cssssc" />
  <path
     style="fill:none;fill-rule:evenodd;stroke:#000000;stroke-width:1;stroke-linecap:butt;stroke-linejoin:miter;stroke-miterlimit:4;stroke-dasharray:none;stroke-opacity:1"
     d="m 369.33841,582.81504 -5.34953,7.24432"
     id="path4232"
     inkscape:connector-curvature="0" />
  <path
     style="fill:none;fill-rule:evenodd;stroke:#000000;stroke-width:1;stroke-linecap:butt;stroke-linejoin:miter;stroke-miterlimit:4;stroke-dasharray:none;stroke-opacity:1"
     d="m 375.20971,572.30465 c 0,0 5.20337,2.09434 7.14508,4.0165 1.46375,1.44901 2.76117,3.32087 3.08217,5.35536 0.42044,2.66476 -1.27275,5.25 -1.68119,7.91663 -0.44854,2.92845 0.063,6.02651 -0.8406,8.84796 -0.73867,2.30653 -1.88204,4.62354 -3.64258,6.28674 -1.74995,1.65319 -4.07213,2.85113 -6.44455,3.25976 -3.61895,0.62333 -6.25061,-0.28187 -10.92779,-1.39705 -4.76033,-1.135 -9.41466,-2.14208 -13.72971,-4.42398"
     id="path4234"
     inkscape:connector-curvature="0"
     sodipodi:nodetypes="csssssssc" />
  <path
     style="fill:none;fill-rule:evenodd;stroke:#000000;stroke-width:1;stroke-linecap:butt;stroke-linejoin:miter;stroke-miterlimit:4;stroke-dasharray:none;stroke-opacity:1"
     d="m 411.13466,561.85553 c 0,0 -5.33283,2.13201 -6.64417,4.45345 -0.95543,1.69138 0.0488,3.90648 -0.28019,5.821 -0.27451,1.5976 -1.89298,3.11231 -1.40101,4.65686 0.57493,1.80501 2.78731,2.64848 4.48318,3.49265 2.68352,1.3358 6.44366,0.3392 8.68616,2.32837 1.31376,1.16535 1.12722,3.34432 1.96143,4.88967 0.85376,1.58155 3.234,2.63316 3.08219,4.42401 -0.2024,2.38769 -3.3305,3.44703 -5.04362,5.12252 -1.37585,1.34563 -3.34486,2.2357 -4.20297,3.95829 -0.7659,1.5375 -0.36088,3.41647 -0.56038,5.12255 -0.26344,2.25282 0.31185,4.79882 -0.84061,6.75239 -1.40821,2.3871 -6.72479,4.88966 -6.72479,4.88966"
     id="path4236"
     inkscape:connector-curvature="0"
     sodipodi:nodetypes="csssssssssssc" />
  <path
     style="fill:none;fill-rule:evenodd;stroke:#000000;stroke-width:1;stroke-linecap:butt;stroke-linejoin:miter;stroke-miterlimit:4;stroke-dasharray:none;stroke-opacity:1"
     d="m 435.87279,562.5835 c 0,0 -3.71671,1.42314 -5.32381,2.56127 -1.61462,1.14346 -2.40987,3.35487 -4.20296,4.19113 -2.37948,1.10975 -7.84558,0.69852 -7.84558,0.69852"
     id="path4238"
     inkscape:connector-curvature="0"
     sodipodi:nodetypes="cssc" />
  <path
     style="fill:none;fill-rule:evenodd;stroke:#000000;stroke-width:1;stroke-linecap:butt;stroke-linejoin:miter;stroke-miterlimit:4;stroke-dasharray:none;stroke-opacity:1"
     d="m 439.51535,571.19865 c 0,0 -4.31312,2.34975 -5.32378,4.42396 -1.39446,2.8619 -0.27423,6.36298 -0.28019,9.54652 -0.007,3.64903 1.4211,7.47742 0.28019,10.94351 -0.52285,1.58843 -1.9995,2.68388 -3.08217,3.95836 -0.89016,1.04786 -2.19897,1.79132 -2.80198,3.02694 -1.27602,2.61469 -1.40101,8.61514 -1.40101,8.61514"
     id="path4240"
     inkscape:connector-curvature="0"
     sodipodi:nodetypes="csssssc" />
  <path
     style="fill:none;fill-rule:evenodd;stroke:#000000;stroke-width:1;stroke-linecap:butt;stroke-linejoin:miter;stroke-miterlimit:4;stroke-dasharray:none;stroke-opacity:1"
     d="m 416.78524,596.16675 c 0,0 3.85423,1.93258 5.9182,2.50716 2.63601,0.73383 5.40606,0.86381 8.12576,1.16424 0.17493,0.0193 0.5264,0.041 0.5264,0.041"
     id="path4242"
     inkscape:connector-curvature="0"
     sodipodi:nodetypes="cssc" />
  <path
     style="fill:none;fill-rule:evenodd;stroke:#000000;stroke-width:1;stroke-linecap:butt;stroke-linejoin:miter;stroke-miterlimit:4;stroke-dasharray:none;stroke-opacity:1"
     d="m 410.29112,612.87729 7.92911,6.75241"
     id="path4244"
     inkscape:connector-curvature="0"
     sodipodi:nodetypes="cc" />
  <path
     style="fill:none;fill-rule:evenodd;stroke:#000000;stroke-width:1;stroke-linecap:butt;stroke-linejoin:miter;stroke-miterlimit:4;stroke-dasharray:none;stroke-opacity:1"
     d="m 407.29247,580.33354 c 0,0 -3.97311,4.42231 -5.88415,6.69833 -2.87928,3.42919 -8.29234,6.00165 -8.40597,10.47788 -0.0607,2.39249 4.20297,5.82104 4.20297,5.82104"
     id="path4246"
     inkscape:connector-curvature="0"
     sodipodi:nodetypes="cssc" />
  <path
     style="fill:none;fill-rule:evenodd;stroke:#000000;stroke-width:1;stroke-linecap:butt;stroke-linejoin:miter;stroke-miterlimit:4;stroke-dasharray:none;stroke-opacity:1"
     d="m 410.65487,635.57934 c 0,0 -9.38263,-0.78912 -13.44955,-2.91051 -1.92129,-1.00219 -3.54888,-2.62937 -4.7634,-4.424 -1.16535,-1.72198 -2.4064,-3.74835 -2.24157,-5.82105 0.20636,-2.59486 3.7896,-4.15273 3.9228,-6.75237 0.10457,-2.04095 -1.04644,-4.17412 -2.52181,-5.58822 -2.10691,-2.01942 -5.4634,-2.06438 -8.12577,-3.25976 -1.42813,-0.64122 -4.20298,-2.09559 -4.20298,-2.09559"
     id="path4248"
     inkscape:connector-curvature="0"
     sodipodi:nodetypes="cssssssc" />
  <path
     style="fill:none;fill-rule:evenodd;stroke:#000000;stroke-width:1;stroke-linecap:butt;stroke-linejoin:miter;stroke-miterlimit:4;stroke-dasharray:none;stroke-opacity:1"
     d="m 309.36297,631.21357 c 0,0 4.66308,0.46077 6.30447,1.92093 1.39256,1.2388 2.14919,3.26097 2.24157,5.12251 0.10514,2.11861 -1.47507,3.98913 -1.96137,6.05386 -0.43185,1.83352 -1.52966,3.83506 -0.84062,5.58821 1.0482,2.66697 4.24083,3.92663 6.7248,5.3554 2.78039,1.59927 5.83718,2.788 8.96636,3.49261 5.2984,1.19306 10.84256,0.67498 16.25154,1.16425 3.55582,0.32164 7.08486,0.93088 10.64757,1.16415 3.54244,0.23195 10.64754,0.23284 10.64754,0.23284"
     id="path4250"
     inkscape:connector-curvature="0"
     sodipodi:nodetypes="cssssssssc" />
  <path
     style="fill:none;fill-rule:evenodd;stroke:#000000;stroke-width:1;stroke-linecap:butt;stroke-linejoin:miter;stroke-miterlimit:4;stroke-dasharray:none;stroke-opacity:1"
     d="m 381.93448,657.00075 c 0,0 -5.85144,-2.03248 -7.14506,-4.54038 -0.81946,-1.58867 0.66565,-3.60987 0.28018,-5.35538 -0.47345,-2.1439 -1.65317,-4.15417 -3.08218,-5.82102 -2.1984,-2.5643 -5.18065,-4.40012 -8.12575,-6.0539 -2.89739,-1.627 -5.96905,-3.17783 -9.24657,-3.72546 -2.9519,-0.49322 -8.96638,0.46568 -8.96638,0.46568"
     id="path4252"
     inkscape:connector-curvature="0"
     sodipodi:nodetypes="csssssc" />
  <path
     style="fill:none;fill-rule:evenodd;stroke:#000000;stroke-width:1;stroke-linecap:butt;stroke-linejoin:miter;stroke-miterlimit:4;stroke-dasharray:none;stroke-opacity:1"
     d="m 317.90901,638.02416 c 0,0 2.78167,-2.78733 4.48322,-3.72545 1.97818,-1.09063 4.54951,-0.86618 6.44457,-2.09557 2.4559,-1.59322 3.7236,-4.54428 5.88416,-6.51956 1.8111,-1.65579 3.50497,-3.82315 5.88419,-4.42399 3.02229,-0.76324 6.17117,0.88848 9.24658,1.397 3.46408,0.57278 7.47634,-0.12972 10.36732,1.8628 0.89498,0.61683 0.735,2.25911 1.6812,2.79406 2.03263,1.14918 4.8713,-0.94847 7.00499,0 1.52859,0.67949 1.86181,2.98616 3.36239,3.72547 1.76494,0.86956 4.06801,-0.29109 5.88416,0.46569 3.18497,1.32716 5.16968,4.57413 7.84559,6.7524 2.46765,2.00875 6.69326,2.76102 7.56536,5.82106 0.72727,2.55185 -2.80201,7.45093 -2.80201,7.45093"
     id="path4254"
     inkscape:connector-curvature="0"
     sodipodi:nodetypes="cssssssssssssc" />
  <path
     style="fill:none;fill-rule:evenodd;stroke:#000000;stroke-width:1;stroke-linecap:butt;stroke-linejoin:miter;stroke-miterlimit:4;stroke-dasharray:none;stroke-opacity:1"
     d="m 382.0746,616.36988 c 0,0 -6.13133,-0.51735 -8.40597,1.16424 -3.02838,2.23882 -4.76339,10.24503 -4.76339,10.24503 v 0"
     id="path4256"
     inkscape:connector-curvature="0"
     sodipodi:nodetypes="cssc" />
  <path
     style="fill:none;fill-rule:evenodd;stroke:#000000;stroke-width:1;stroke-linecap:butt;stroke-linejoin:miter;stroke-miterlimit:4;stroke-dasharray:none;stroke-opacity:1"
     d="m 358.25766,613.11015 c 0,0 -3.98763,1.06538 -5.88416,1.8627 -4.09708,1.72246 -11.76833,6.26762 -11.76833,6.26762"
     id="path4258"
     inkscape:connector-curvature="0"
     sodipodi:nodetypes="csc" />
  <path
     style="fill:none;fill-rule:evenodd;stroke:#000000;stroke-width:1;stroke-linecap:butt;stroke-linejoin:miter;stroke-miterlimit:4;stroke-dasharray:none;stroke-opacity:1"
     d="m 399.72713,640.58543 -6.44456,3.72544"
     id="path4260"
     inkscape:connector-curvature="0" />
  <path
     style="fill:none;fill-rule:evenodd;stroke:#000000;stroke-width:1;stroke-linecap:butt;stroke-linejoin:miter;stroke-miterlimit:4;stroke-dasharray:none;stroke-opacity:1"
     d="m 328.73773,632.23016 c 0,0 -1.82163,2.65245 -1.30193,3.93132 0.63396,1.56003 2.87685,1.82313 4.48318,2.32838 3.41467,1.07404 7.07283,1.21009 10.64754,1.39704 2.98572,0.15615 6.11253,-1.12415 8.96638,-0.23283 2.76117,0.86237 7.00496,5.1225 7.00496,5.1225"
     id="path4262"
     inkscape:connector-curvature="0"
     sodipodi:nodetypes="cssssc" />
  <path
     style="fill:none;fill-rule:evenodd;stroke:#000000;stroke-width:1;stroke-linecap:butt;stroke-linejoin:miter;stroke-miterlimit:4;stroke-dasharray:none;stroke-opacity:1"
     d="m 374.78942,652.46034 c 0,0 -6.99715,2.54945 -10.64756,2.56127 -3.06931,0.01 -5.96755,-1.44136 -8.96635,-2.09554 -3.81748,-0.83277 -7.72357,-1.28228 -11.48817,-2.32843 -2.67473,-0.74329 -5.17265,-2.04435 -7.84557,-2.79412 -1.83698,-0.51529 -4.00307,-0.12637 -5.604,-1.16416 -0.80331,-0.52074 -1.68118,-2.32849 -1.68118,-2.32849"
     id="path4264"
     inkscape:connector-curvature="0"
     sodipodi:nodetypes="csssssc" />
  <path
     style="fill:none;fill-rule:evenodd;stroke:#000000;stroke-width:1;stroke-linecap:butt;stroke-linejoin:miter;stroke-miterlimit:4;stroke-dasharray:none;stroke-opacity:1"
     d="m 297.16838,666.31586 c 0,0 -2.65267,-9.24891 -5.31784,-13.15699 -2.60833,-3.82472 -6.46109,-6.66842 -10.08718,-9.54649 -3.63895,-2.88828 -8.36584,-4.37612 -11.62823,-7.68382 -3.94923,-4.00408 -6.92274,-9.02061 -9.10647,-14.20331 -1.60852,-3.81754 -2.16545,-8.01435 -2.80201,-12.10772 -0.88547,-5.69395 -1.35957,-11.46807 -1.40098,-17.23031 -0.0302,-4.2004 0.13072,-8.43337 0.84061,-12.57346 1.17139,-6.83155 3.10512,-13.55924 5.60398,-20.02437 1.12686,-2.91546 4.20296,-8.38228 4.20296,-8.38228"
     id="path4266"
     inkscape:connector-curvature="0"
     sodipodi:nodetypes="cssssssssc" />
  <path
     style="fill:none;fill-rule:evenodd;stroke:#000000;stroke-width:1;stroke-linecap:butt;stroke-linejoin:miter;stroke-miterlimit:4;stroke-dasharray:none;stroke-opacity:1"
     d="m 252.69273,542.26806 6.35327,5.43715 8.70743,3.93472 9.24656,3.2598 1.98123,4.73595"
     id="path4268"
     inkscape:connector-curvature="0"
     sodipodi:nodetypes="ccccc" />
  <path
     style="fill:none;fill-rule:evenodd;stroke:#000000;stroke-width:1;stroke-linecap:butt;stroke-linejoin:miter;stroke-miterlimit:4;stroke-dasharray:none;stroke-opacity:1"
     d="m 277.63046,529.31627 c 0,0 3.73548,5.29954 5.91917,7.68375 4.16958,4.55247 8.47505,9.13972 13.62468,12.54437 3.93246,2.59992 8.36786,4.48618 12.88915,5.82101 5.9792,1.76526 12.27322,2.37016 18.49313,2.7941 3.91188,0.26663 7.84401,0.25976 11.76667,0.0822 1.68428,-0.0762 3.36682,-0.18397 5.04527,-0.31503 8.74785,-0.68306 17.47584,-1.9007 26.05849,-3.72545 7.2183,-1.53468 14.33898,-3.58991 21.29512,-6.05388 6.70198,-2.37394 13.24269,-5.22643 19.61392,-8.3823 6.06185,-3.00262 12.47925,-5.65341 17.65252,-10.0122 3.60643,-3.03864 6.64644,-6.83774 8.96638,-10.94354 0.87914,-1.55588 1.50683,-3.28734 1.7991,-5.05035 0.21013,-1.26754 -0.0526,-3.85416 -0.0526,-3.85416"
     id="path4270"
     inkscape:connector-curvature="0"
     sodipodi:nodetypes="cssssssssssssc" />
  <path
     style="fill:none;fill-rule:evenodd;stroke:#000000;stroke-width:1;stroke-linecap:butt;stroke-linejoin:miter;stroke-miterlimit:4;stroke-dasharray:none;stroke-opacity:1"
     d="m 450.57616,528.62496 -0.48148,7.70303 -1.33276,9.9566 -1.33095,6.28671 -0.35873,12.87156"
     id="path4272"
     inkscape:connector-curvature="0"
     sodipodi:nodetypes="ccccc" />
  <path
     style="fill:none;fill-rule:evenodd;stroke:#000000;stroke-width:1;stroke-linecap:butt;stroke-linejoin:miter;stroke-miterlimit:4;stroke-dasharray:none;stroke-opacity:1"
     d="m 444.2087,615.7296 c 0,0 0.29545,5.71343 0.0701,8.55692 -0.26736,3.37354 -0.66824,6.78323 -1.6812,10.01219 -0.71953,2.29358 -2.05756,4.34505 -3.08215,6.51955 -1.49849,3.18026 -2.77348,6.47467 -4.48321,9.54653 -1.66605,2.99338 -5.60397,8.61512 -5.60397,8.61512"
     id="path4274"
     inkscape:connector-curvature="0"
     sodipodi:nodetypes="cssssc" />
  <path
     style="fill:none;fill-rule:evenodd;stroke:#000000;stroke-width:1;stroke-linecap:butt;stroke-linejoin:miter;stroke-miterlimit:4;stroke-dasharray:none;stroke-opacity:1"
     d="m 438.7609,540.05404 c 0,0 8.87465,-6.5595 11.74525,-11.12432 0.81778,-1.30043 0.34123,-3.282 1.40671,-4.38864 2.35031,-2.44109 7.14189,-1.08978 9.55627,-3.46752 1.13669,-1.11944 1.70111,-4.47361 1.70111,-4.47361"
     id="path4276"
     inkscape:connector-curvature="0"
     sodipodi:nodetypes="csssc" />
  <path
     style="fill:none;fill-rule:evenodd;stroke:#000000;stroke-width:1;stroke-linecap:butt;stroke-linejoin:miter;stroke-miterlimit:4;stroke-dasharray:none;stroke-opacity:1"
     d="m 465.82801,535.23294 c 0,0 -5.88127,5.59784 -9.51029,7.24431 -2.31698,1.05121 -7.4794,1.52299 -7.4794,1.52299"
     id="path4278"
     inkscape:connector-curvature="0"
     sodipodi:nodetypes="csc" />
  <path
     style="fill:none;fill-rule:evenodd;stroke:#000000;stroke-width:1;stroke-linecap:butt;stroke-linejoin:miter;stroke-miterlimit:4;stroke-dasharray:none;stroke-opacity:1"
     d="m 465.43173,555.64881 c 0,0 -5.52592,3.73969 -8.71774,4.2807 -3.091,0.52392 -9.3369,-1.13193 -9.3369,-1.13193"
     id="path4280"
     inkscape:connector-curvature="0"
     sodipodi:nodetypes="csc" />
  <path
     style="fill:none;fill-rule:evenodd;stroke:#000000;stroke-width:1;stroke-linecap:butt;stroke-linejoin:miter;stroke-miterlimit:4;stroke-dasharray:none;stroke-opacity:1"
     d="m 463.64853,572.11314 c -0.92064,0.29771 -4.08745,2.95637 -6.26679,2.8686 -2.55863,-0.10305 -5.11864,-1.84398 -7.00804,-3.19824"
     id="path4282"
     inkscape:connector-curvature="0"
     sodipodi:nodetypes="csc" />
  <path
     style="fill:none;fill-rule:evenodd;stroke:#000000;stroke-width:1;stroke-linecap:butt;stroke-linejoin:miter;stroke-miterlimit:4;stroke-dasharray:none;stroke-opacity:1"
     d="m 465.03546,591.61934 c 0,0 -5.209,0.4217 -7.71505,-0.15798 -2.81192,-0.65043 -7.8552,-3.64216 -7.8552,-3.64216"
     id="path4284"
     inkscape:connector-curvature="0"
     sodipodi:nodetypes="csc" />
  <path
     style="fill:none;fill-rule:evenodd;stroke:#000000;stroke-width:1;stroke-linecap:butt;stroke-linejoin:miter;stroke-miterlimit:4;stroke-dasharray:none;stroke-opacity:1"
     d="m 449.74338,605.87517 c 0,0 4.58147,1.85713 6.97061,2.45965 2.02822,0.5115 6.20007,0.96791 6.20007,0.96791"
     id="path4286"
     inkscape:connector-curvature="0"
     sodipodi:nodetypes="csc" />
  <path
     style="fill:none;fill-rule:evenodd;stroke:#000000;stroke-width:1;stroke-linecap:butt;stroke-linejoin:miter;stroke-miterlimit:4;stroke-dasharray:none;stroke-opacity:1"
     d="m 443.93954,626.77493 c 0,0 6.10768,1.28439 9.20812,1.31716 1.98432,0.0209 5.0301,-1.07086 6.10804,-0.65829"
     id="path4288"
     inkscape:connector-curvature="0"
     sodipodi:nodetypes="csc" />
  <path
     style="fill:none;fill-rule:evenodd;stroke:#000000;stroke-width:1;stroke-linecap:butt;stroke-linejoin:miter;stroke-miterlimit:4;stroke-dasharray:none;stroke-opacity:1"
     d="m 455.92146,641.92216 c 0,0 -6.02689,1.62549 -9.11399,1.64646 -2.67069,0.0181 -5.2416,-1.09687 -7.90325,-1.31715 -0.0465,-0.004 -0.14003,0 -0.14003,0"
     id="path4290"
     inkscape:connector-curvature="0"
     sodipodi:nodetypes="cssc" />
  <path
     style="fill:none;fill-rule:evenodd;stroke:#000000;stroke-width:1;stroke-linecap:butt;stroke-linejoin:miter;stroke-miterlimit:4;stroke-dasharray:none;stroke-opacity:1"
     d="m 253.3825,643.28048 c 0,0 5.15034,1.71158 7.57853,0.94669 3.90466,-1.22999 9.11399,-8.23217 9.11399,-8.23217 0,0 7.99871,2.58365 11.8878,1.64644 2.97787,-0.71762 4.57093,-4.47333 7.529,-5.26862 1.94434,-0.52275 6.01821,0.51452 6.01821,0.51452"
     id="path4292"
     inkscape:connector-curvature="0"
     sodipodi:nodetypes="cscssc" />
  <path
     style="fill:none;fill-rule:evenodd;stroke:#000000;stroke-width:1;stroke-linecap:butt;stroke-linejoin:miter;stroke-miterlimit:4;stroke-dasharray:none;stroke-opacity:1"
     d="m 249.71712,631.13801 13.60352,-4.61427 c 0,0 9.17966,-3.60653 13.49081,-5.0174 3.35119,-1.09671 10.21969,-2.73075 10.21969,-2.73075"
     id="path4294"
     inkscape:connector-curvature="0"
     sodipodi:nodetypes="ccsc" />
  <path
     style="fill:none;fill-rule:evenodd;stroke:#000000;stroke-width:1;stroke-linecap:butt;stroke-linejoin:miter;stroke-miterlimit:4;stroke-dasharray:none;stroke-opacity:1"
     d="m 240.55359,611.01028 c 0,0 7.49901,1.85039 11.29341,1.60527 2.46196,-0.15904 7.1327,-1.9757 7.1327,-1.9757 0,0 5.61452,-1.08122 8.32149,-1.97576 3.11842,-1.03051 9.05494,-3.8841 9.05494,-3.8841"
     id="path4296"
     inkscape:connector-curvature="0"
     sodipodi:nodetypes="cscsc" />
  <path
     style="fill:none;fill-rule:evenodd;stroke:#000000;stroke-width:1;stroke-linecap:butt;stroke-linejoin:miter;stroke-miterlimit:4;stroke-dasharray:none;stroke-opacity:1"
     d="m 239.16666,593.18757 c 0,0 4.08419,2.24958 6.34017,2.63432 2.90165,0.49485 6.04884,0.5075 8.81679,-0.49394 1.08264,-0.3917 2.77383,-2.05806 2.77383,-2.05806 0,0 6.25028,1.91275 9.41122,1.56414 3.3459,-0.36901 9.36167,-3.78682 9.36167,-3.78682"
     id="path4298"
     inkscape:connector-curvature="0"
     sodipodi:nodetypes="csscsc" />
  <path
     style="fill:none;fill-rule:evenodd;stroke:#000000;stroke-width:1;stroke-linecap:butt;stroke-linejoin:miter;stroke-miterlimit:4;stroke-dasharray:none;stroke-opacity:1"
     d="m 239.46384,576.43508 c 0,0 5.25756,2.0013 8.02431,2.26385 3.82745,0.3632 10.55697,-0.95583 10.55697,-0.95583 0,0 7.68148,3.01559 11.63364,2.60227 2.72604,-0.28509 7.47942,-3.41637 7.47942,-3.41637"
     id="path4300"
     inkscape:connector-curvature="0"
     sodipodi:nodetypes="cscsc" />
  <path
     style="fill:none;fill-rule:evenodd;stroke:#000000;stroke-width:1;stroke-linecap:butt;stroke-linejoin:miter;stroke-miterlimit:4;stroke-dasharray:none;stroke-opacity:1"
     d="m 241.64327,558.61237 c 0,0 4.54016,2.76355 7.03364,3.62217 4.4493,1.53211 12.83845,2.41997 12.83845,2.41997 0,0 6.4594,2.53716 9.35218,2.84863 2.37396,0.25561 7.13271,-0.65855 7.13271,-0.65855"
     id="path4302"
     inkscape:connector-curvature="0"
     sodipodi:nodetypes="cscsc" />
  <path
     style="fill:none;fill-rule:evenodd;stroke:#000000;stroke-width:1;stroke-linecap:butt;stroke-linejoin:miter;stroke-miterlimit:4;stroke-dasharray:none;stroke-opacity:1"
     d="m 300.42505,543.25227 c 0,0 -7.6832,6.31239 -12.12203,8.44504 -3.49162,1.67756 -11.14484,3.29289 -11.14484,3.29289"
     id="path4304"
     inkscape:connector-curvature="0"
     sodipodi:nodetypes="csc" />
  <path
     style="fill:none;fill-rule:evenodd;stroke:#000000;stroke-width:1;stroke-linecap:butt;stroke-linejoin:miter;stroke-miterlimit:4;stroke-dasharray:none;stroke-opacity:1"
     d="m 313.76278,547.25195 c 0,0 -2.70119,5.7594 -4.45792,8.39686 -1.73157,2.59968 -1.64722,4.22521 -5.94391,7.24431 -4.33929,3.04903 -9.17097,5.0954 -13.96819,7.28548"
     id="path4306"
     inkscape:connector-curvature="0"
     sodipodi:nodetypes="cssc" />
  <path
     style="fill:none;fill-rule:evenodd;stroke:#000000;stroke-width:1;stroke-linecap:butt;stroke-linejoin:miter;stroke-miterlimit:4;stroke-dasharray:none;stroke-opacity:1"
     d="m 327.43381,548.98066 -0.29721,7.3267 c -0.11499,2.83467 -4.39102,3.9004 -5.15139,6.58576 0,0 -0.596,3.92972 -1.58505,5.59787 -1.0386,1.75171 -2.78403,2.98961 -4.35887,4.28076 -1.35871,1.11395 -4.35887,2.9636 -4.35887,2.9636"
     id="path4308"
     inkscape:connector-curvature="0"
     sodipodi:nodetypes="cssssc" />
  <path
     style="fill:none;fill-rule:evenodd;stroke:#000000;stroke-width:1;stroke-linecap:butt;stroke-linejoin:miter;stroke-miterlimit:4;stroke-dasharray:none;stroke-opacity:1"
     d="m 341.94689,550.62714 c 0,0 0.0464,6.47081 -0.54486,9.63168 -0.55156,2.94872 -2.30581,5.59832 -2.77385,8.56145 -0.25688,1.62629 0.33548,3.32745 0,4.93937 -0.52365,2.51604 -3.07601,7.06968 -3.07601,7.06968"
     id="path4310"
     inkscape:connector-curvature="0"
     sodipodi:nodetypes="csssc" />
  <path
     style="fill:none;fill-rule:evenodd;stroke:#000000;stroke-width:1;stroke-linecap:butt;stroke-linejoin:miter;stroke-miterlimit:4;stroke-dasharray:none;stroke-opacity:1"
     d="m 358.44124,547.0873 c 0,0 3.65038,4.51664 4.35887,7.24433 0.99394,3.82668 1.1131,8.20014 -0.39626,11.85435 -1.54944,3.75124 -8.29952,8.90904 -8.29952,8.90904"
     id="path4312"
     inkscape:connector-curvature="0"
     sodipodi:nodetypes="cssc" />
  <path
     style="fill:none;fill-rule:evenodd;stroke:#000000;stroke-width:1;stroke-linecap:butt;stroke-linejoin:miter;stroke-miterlimit:4;stroke-dasharray:none;stroke-opacity:1"
     d="m 377.88001,543.21229 c 0,0 2.25367,3.13763 2.44761,4.97584 0.12657,1.19966 -0.92057,2.3034 -0.88453,3.50918 0.0654,2.1866 1.24336,4.19715 1.9813,6.2565 0.59842,1.66998 1.86238,3.16934 1.98131,4.93931 0.1723,2.56421 -1.97236,7.95071 -1.97236,7.95071"
     id="path4314"
     inkscape:connector-curvature="0"
     sodipodi:nodetypes="cssssc" />
  <path
     style="fill:none;fill-rule:evenodd;stroke:#000000;stroke-width:1;stroke-linecap:butt;stroke-linejoin:miter;stroke-miterlimit:4;stroke-dasharray:none;stroke-opacity:1"
     d="m 394.89725,538.52582 c 0,0 3.83529,4.73821 4.75514,7.57362 0.61104,1.8835 0.37124,3.94721 0.39627,5.92719 0.0403,3.18559 -0.39627,9.54931 -0.39627,9.54931"
     id="path4316"
     inkscape:connector-curvature="0"
     sodipodi:nodetypes="cssc" />
  <path
     style="fill:none;fill-rule:evenodd;stroke:#000000;stroke-width:1;stroke-linecap:butt;stroke-linejoin:miter;stroke-miterlimit:4;stroke-dasharray:none;stroke-opacity:1"
     d="m 410.44347,529.40219 c 2.24256,2.69322 6.10653,4.67183 6.6444,8.13578 0,0 1.61414,6.76461 1.58503,10.20789 -0.0279,3.2997 -1.68409,9.75516 -1.68409,9.75516"
     id="path4318"
     inkscape:connector-curvature="0"
     sodipodi:nodetypes="cssc" />
  <path
     style="fill:none;fill-rule:evenodd;stroke:#000000;stroke-width:1;stroke-linecap:butt;stroke-linejoin:miter;stroke-miterlimit:4;stroke-dasharray:none;stroke-opacity:1"
     d="m 423.18042,525.47776 c 0,0 3.74971,3.45995 5.54763,5.26863 1.44588,1.45453 3.47103,2.57352 4.21031,4.48655 1.10798,2.8671 -0.14855,9.22003 -0.14855,9.22003"
     id="path4320"
     inkscape:connector-curvature="0"
     sodipodi:nodetypes="cssc" />
  <path
     style="fill:none;fill-rule:evenodd;stroke:#000000;stroke-width:1;stroke-linecap:butt;stroke-linejoin:miter;stroke-miterlimit:4;stroke-dasharray:none;stroke-opacity:1"
     d="m 439.16038,518.42101 c 0,0 5.5462,0.26264 8.04334,1.33538 1.67311,0.71874 3.36093,1.76974 4.35887,3.29289 0.30936,0.47217 0.39628,1.64645 0.39628,1.64645"
     id="path4322"
     inkscape:connector-curvature="0"
     sodipodi:nodetypes="cssc" />
  <path
     style="fill:none;fill-rule:evenodd;stroke:#000000;stroke-width:1;stroke-linecap:butt;stroke-linejoin:miter;stroke-miterlimit:4;stroke-dasharray:none;stroke-opacity:1"
     d="m 364.24889,427.82258 c -0.85123,-6.46432 2.79566,-19.22791 3.96236,-28.80313 0.79424,-6.51847 0.88417,-12.31133 1.18781,-19.66419 0.27094,-6.56109 1.82373,-16.11537 2.70145,-24.17682 1.55695,-14.2997 3.59695,-28.55949 4.54969,-42.91212 0.9728,-14.65504 1.64749,-29.36583 1.18679,-44.04589 -0.20257,-6.45492 -0.19552,-11.08897 -1.73522,-19.29642 -1.85,-9.86149 -5.67216,-14.42715 -7.10493,-24.02327 -0.99955,-6.69462 -1.64564,-13.83463 -1.65015,-20.23771 l -19.52015,0.0843 c 0,0 1.34725,14.89286 2.7655,22.22104 1.43922,7.43659 4.4614,14.4726 5.80937,21.96858 1.4198,7.89544 2.02921,15.96415 2.33177,23.9942 0.47714,12.66314 0.041,25.36467 -0.81934,38.00756 -1.06639,15.67036 -3.89423,31.17558 -5.37593,46.81214 -0.69199,7.30264 -1.16007,14.6028 -1.64044,21.94481 -0.35712,5.45817 -0.72431,11.17036 -1.11013,16.40524 -0.69127,9.38054 -4.5985,21.72601 -3.11933,31.27575 z"
     id="C15"
     inkscape:connector-curvature="0"
     sodipodi:nodetypes="cssaaassccasaaasscc"
     inkscape:label="C15" />
  <g
     id="g3"
     transform="matrix(0.75495076,0,0,0.75497151,470.1758,-67.10574)"
     style="fill:none;stroke:#000000;stroke-width:1.32457;stroke-dasharray:none;stroke-opacity:1">
    <path
       style="fill:none;fill-rule:evenodd;stroke:#000000;stroke-width:1.32457;stroke-linecap:butt;stroke-linejoin:miter;stroke-miterlimit:4;stroke-dasharray:none;stroke-opacity:1"
       d="m -263.11154,316.15265 c 0,0 6.9127,-4.14574 9.27081,-6.17794 2.35809,-2.03221 4.23876,-3.29549 5.05982,-5.58619 0.82107,-2.2907 1.92862,-4.61393 3.31474,-4.065 1.89859,0.75187 0.26531,2.65273 -0.15234,4.065 -0.41767,1.41227 -1.40876,2.75132 -0.63248,4.18964 0.77628,1.43832 2.57383,2.58121 5.05983,2.32758 2.48599,-0.25364 5.21735,-4.30992 7.58974,-5.58619 2.37237,-1.27627 4.21513,-1.47457 6.32479,-2.32758 2.10966,-0.85303 3.55944,-2.14295 6.32478,-2.7931 11.19695,-1.35326 18.87411,0.5838 30.10616,1.15554 14.45449,0.70016 15.67982,0.88003 20.56046,2.17958 4.88065,1.29956 7.88788,2.91772 10.75213,5.12067 2.86424,2.20295 4.43173,5.03675 6.32478,7.44825 1.89305,2.41149 3.16523,4.64713 5.05985,6.98274 1.89462,2.33561 5.36374,5.00396 6.32476,6.98274 0.96102,1.97878 -0.46027,2.89529 0.6325,3.72413 1.09276,0.82883 2.84357,1.40651 4.42734,-0.46552 1.58377,-1.87203 0.24032,-6.9981 -0.63248,-10.24135 -0.87282,-3.24326 -2.54997,-5.49263 -4.42736,-8.8448 -1.87739,-3.35217 -4.15043,-8.04282 -6.95725,-11.17238 -2.80683,-3.12955 -5.58076,-5.78543 -9.48717,-7.44825 -3.90642,-1.66283 -8.85317,-1.35792 -13.28206,-1.86207 -4.42888,-0.50414 -9.03915,-0.7954 -13.28205,-1.16379 -4.24289,-0.36838 -5.64073,-0.52728 -12.17522,-1.0474 -6.53448,-0.52013 -8.68482,-0.3275 -17.61961,-1.12391 -8.93479,-0.79642 -19.88646,-2.7931 -26.56409,-2.7931 -6.67763,0 -9.01236,0.36691 -13.28205,1.39655 -4.26969,1.02964 -17.1006,3.51103 -17.1006,3.51103"
       id="path4158-2"
       inkscape:connector-curvature="0"
       sodipodi:nodetypes="czzszzzzzzzzzzzzzzzzzzzzzzzzc" />
    <path
       style="fill:none;fill-rule:evenodd;stroke:#000000;stroke-width:1.32457;stroke-linecap:butt;stroke-linejoin:miter;stroke-miterlimit:4;stroke-dasharray:none;stroke-opacity:1"
       d="m -263.28448,318.53183 c 0,0 10.02184,-1.11516 13.74718,1.60638 2.06323,1.50729 2.10827,4.65516 3.1624,6.98274 1.05413,2.32758 1.39488,4.81203 2.50223,7.11476 0.60379,1.25558 1.16926,3.70857 2.5576,3.5921 2.10666,-0.17673 1.63399,-3.89064 1.89743,-6.0517 0.19459,-1.59618 0.0243,-3.63228 1.26496,-4.65516 1.6311,-1.34475 4.31682,-1.12653 6.32479,-0.46552 1.58371,0.52136 2.42534,2.30763 3.79487,3.25861 2.37363,1.64823 5.00051,2.90641 7.58975,4.18964 2.06499,1.02341 4.11048,2.15395 6.32477,2.79309 1.02369,0.29549 2.10256,0.57533 3.16239,0.46553 1.78762,-0.18521 4.97575,-0.0669 5.05983,-1.86207 0.21868,-4.6691 -9.74793,-4.48406 -12.42244,-6.50596 -2.6745,-2.02189 -8.83423,-4.65624 -9.08183,-6.52848 -0.24759,-1.87225 3.45288,-4.42245 5.69231,-6.05171 2.64043,-1.921 5.753,-3.16908 8.8547,-4.18964 8.01678,-2.84144 12.63625,-1.41264 20.94012,-0.85454 5.87062,0.39457 12.43986,0.69136 23.78246,9.81925 2.79821,2.3037 4.54146,5.68936 6.32479,8.8448 1.82988,3.23781 4.06212,6.54021 4.42734,10.24135 0.29611,3.00077 -0.85054,6.01702 -1.89742,8.8448 -0.61315,1.65622 -3.20472,7.58066 -2.78632,10.96379"
       id="path4160-7"
       inkscape:connector-curvature="0"
       sodipodi:nodetypes="csssssssssssszzsssssssc"
       inkscape:label="path4160" />
    <path
       style="fill:none;fill-opacity:1;stroke:#000000;stroke-width:1.32457;stroke-dasharray:none;stroke-opacity:1"
       d="m -136.21009,331.99355 c 0.60996,7.38146 0.81767,10.58337 0.79568,16.44703 -0.022,5.86366 -0.58137,8.27291 -0.79197,11.53165"
       id="path1-1"
       sodipodi:nodetypes="czc" />
  </g>
  <path
     id="C26.9"
     style="font-size:33.2768px;font-family:'.Arial Hebrew Desk Interface';-inkscape-font-specification:'.Arial Hebrew Desk Interface, Normal';display:inline;fill:none;stroke:#000000;stroke-width:1;stroke-dasharray:none"
     d="m 618.93383,203.71544 q -2.7719,3.62043 -7.41057,3.62043 -4.18613,0 -6.84489,-2.65875 -2.60219,-2.71532 -2.60219,-6.78832 0,-4.35583 2.99817,-7.354 3.05474,-2.99817 7.24087,-2.99817 5.31751,0 8.42882,3.95985 3.16787,3.95985 3.16787,10.63501 0,7.24086 -3.28101,11.70984 -3.22446,4.46898 -8.99452,4.46898 -3.05473,0 -5.54378,-1.69709 -2.43247,-1.75366 -2.99817,-4.01642 l 4.80839,-0.7354 q 1.13138,2.14964 4.12955,2.14964 3.22446,0 5.03468,-2.7719 1.86678,-2.82846 1.86678,-7.5237 z m -0.90511,-5.93977 q 0,-2.88504 -1.47081,-4.52555 -1.41423,-1.64049 -3.95985,-1.64049 -2.20619,0 -3.79014,1.75363 -1.58393,1.69709 -1.58393,4.41241 0,2.37592 1.4708,3.95985 1.47081,1.52736 3.8467,1.52736 2.26278,0 3.84672,-1.52736 1.64051,-1.58393 1.64051,-3.95985 z m 15.97264,4.47502 A 21.750674,21.750674 0 0 1 612.25068,224.00135 21.750674,21.750674 0 0 1 590.5,202.25069 21.750674,21.750674 0 0 1 612.25068,180.5 a 21.750674,21.750674 0 0 1 21.75068,21.75069 z"
     inkscape:label="C26.9" />
  <path
     id="C26.8"
     style="font-size:33.2768px;font-family:'.Arial Hebrew Desk Interface';-inkscape-font-specification:'.Arial Hebrew Desk Interface, Normal';display:inline;fill:none;stroke:#000000;stroke-width:1;stroke-dasharray:none"
     d="m 606.21,140.95843 q -3.28102,-2.26276 -3.28102,-6.10946 0,-3.84672 2.77191,-5.88321 2.82845,-2.03649 6.50545,-2.03649 3.62044,0 6.44891,2.03649 2.82846,2.03649 2.82846,5.88321 0,3.8467 -3.28102,6.10946 v 0.0567 q 2.2062,1.01825 3.5073,3.05474 1.35765,1.97992 1.35765,4.35583 0,3.84672 -2.99816,6.61861 -2.99817,2.7719 -7.86314,2.7719 -5.03466,0 -7.97626,-2.7719 -2.88504,-2.82846 -2.88504,-6.61861 0,-2.37591 1.30111,-4.35583 1.35766,-2.03649 3.56385,-3.05474 z m 5.99634,-1.58393 q 1.69709,0 3.05474,-1.01824 1.41423,-1.01825 1.41423,-2.94161 0,-2.09306 -1.35766,-3.1113 -1.30108,-1.07483 -3.11131,-1.07483 -1.97992,0 -3.22444,1.13139 -1.24453,1.13138 -1.24453,3.05474 0,1.86678 1.35767,2.94161 1.41423,1.01824 3.1113,1.01824 z m 0,14.14232 q 2.14963,0 3.79014,-1.24453 1.64051,-1.24452 1.64051,-3.84671 0,-2.09306 -1.58393,-3.5073 -1.58394,-1.41423 -3.84672,-1.41423 -2.20619,0 -3.8467,1.41423 -1.58394,1.41424 -1.58394,3.5073 0,2.60219 1.64051,3.84671 1.64051,1.24453 3.79013,1.24453 z m 21.79499,-11.26614 A 21.750674,21.750674 0 0 1 612.25068,164.00136 21.750674,21.750674 0 0 1 590.5,142.25068 21.750674,21.750674 0 0 1 612.25068,120.5 a 21.750674,21.750674 0 0 1 21.75065,21.75068 z"
     inkscape:label="C26.8" />
  <path
     id="C26.0"
     style="font-size:42.8387px;font-family:Arial;-inkscape-font-specification:'Arial, Normal';fill:none;stroke:#000000"
     d="m 602.25216,82.26114 q 0,-5.43851 1.10861,-8.74345 1.12954,-3.32585 3.32586,-5.12475 2.21724,-1.79889 5.56401,-1.79889 2.46825,0 4.32989,1.00404 1.86164,0.98311 3.07485,2.86567 1.2132,1.86164 1.90347,4.55998 0.69028,2.67742 0.69028,7.2374 0,5.39667 -1.10862,8.72252 -1.10862,3.30494 -3.32586,5.12475 -2.19632,1.79889 -5.56401,1.79889 -4.43447,0 -6.96547,-3.17943 Q 602.25216,90.9 602.25216,82.26114 Z m 3.8697,0 q 0,7.55115 1.75706,10.06123 1.77797,2.48917 4.37172,2.48917 2.59375,0 4.35081,-2.51008 1.77797,-2.51008 1.77797,-10.04032 0,-7.57208 -1.77797,-10.06124 -1.75706,-2.48916 -4.39264,-2.48916 -2.59375,0 -4.14164,2.19632 -1.94531,2.80292 -1.94531,10.35408 z m 27.87947,-0.0105 A 21.750674,21.750674 0 0 1 612.25068,104.00136 21.750674,21.750674 0 0 1 590.5,82.25068 21.750674,21.750674 0 0 1 612.25068,60.5 21.750674,21.750674 0 0 1 634.00133,82.25068 Z"
     inkscape:label="C26.0" />
  <g
     id="g2"
     inkscape:label="Umriss Kopf nach links"
     style="display:inline;fill:none;stroke:#000000;stroke-width:1.5421637;stroke-dasharray:none;stroke-opacity:1"
     transform="matrix(0.64843959,0,0,0.64843959,1.403235,-2.4566855)">
    <path
       style="fill:none;stroke:#000000;stroke-width:1.5421637;stroke-dasharray:none;stroke-opacity:1"
       d="m 750.88884,647.09259 c 5.62682,16.02283 10.36517,22.27594 19.30424,44.55903 8.93907,22.28309 12.6173,31.46631 22.85382,62.20891 10.23652,30.7426 23.29814,43.82034 32.96984,63.16374 9.6717,19.3434 1.16271,63.39575 5.71845,95.48822 4.55573,32.09247 13.35992,54.24387 16.97525,73.61738 4.01209,21.49963 7.47782,57.16523 6.79797,79.61693"
       id="path8-5"
       sodipodi:nodetypes="czzzzsc"
       inkscape:label="path8" />
    <path
       style="fill:none;stroke:#000000;stroke-width:1.5421637;stroke-dasharray:none;stroke-opacity:1"
       d="m 937.97726,1062.2592 c 0,-68.46153 5.2943,-119.566 7.36743,-188.05242 1.2327,-45.40737 0.99212,-58.88229 -4.34053,-90.83784 -5.33266,-31.95555 -23.4479,-69.06536 -33.934,-96.76789 -10.4861,-27.70253 -18.76198,-46.64877 -23.71421,-76.28426 -1.72644,-10.33144 -0.96122,-46.99371 -2.7878,-56.677 -9.05234,-47.98938 -34.72805,-85.62212 -80.21011,-105.12641 -36.70716,-15.74131 -74.76677,-32.10414 -98.43057,-42.81771 -23.6638,-10.71357 -40.40805,-16.58105 -47.64299,-26.07404 -7.23494,-9.49299 -17.73556,-17.57183 -23.65565,-39.3586 -2.81136,-10.34619 -4.96409,-33.08161 2.69333,-51.22374 7.60167,-18.01003 18.08783,-33.71789 25.11092,-45.07655 14.04619,-22.71733 21.82296,-37.82301 26.5888,-55.50397 5.78398,-21.45819 2.77253,-37.76419 -6.59686,-66.83785 C 669.05563,92.547251 662.79736,86.159959 639.31109,66.3036 615.82482,46.447242 586.88233,41.963759 556.6028,41.564445 c -33.8681,-0.446639 -62.72803,10.444714 -88.55917,22.896652 -13.62422,6.567574 -25.88772,16.460232 -36.17104,38.271013 -12.38736,26.2734 -4.44072,41.57789 -10.49599,53.01295 -3.84742,7.26565 -10.28344,13.31166 -15.92564,18.95386 -7.68125,7.68126 -17.60937,19.94759 -22.42125,29.895 -14.25488,29.46852 21.30526,12.4209 23.7506,36.81838 0.41419,4.13241 -1.18134,9.01012 -3.05993,12.46554 -1.87858,3.45542 -2.39812,7.11499 0.26277,9.77588 4.84294,4.84294 13.14363,2.99808 13.22982,6.27225 0.0977,3.71203 -8.40455,0.58932 -12.02343,4.2082 -2.66074,2.66074 1.76166,8.62596 2.40469,14.72126 0.64303,6.0953 -10.66309,26.92717 -3.88529,37.48617 6.7778,10.559 14.4219,14.04028 34.32042,17.76139 19.89852,3.72111 29.25906,0.82242 34.49138,6.37995 5.98916,6.36141 14.22653,20.72648 10.7135,27.39693 -5.55142,10.54087 -37.97568,16.15675 -88.18007,33.2471 -50.2044,17.09036 -101.65032,31.47454 -128.08494,44.69185 -26.43462,13.21731 -53.01698,57.77135 -60.61423,72.96586 -10.31027,20.62054 -5.40735,47.12296 -15.24213,82.07301 -9.83478,34.95005 -14.05848,41.55384 -26.85379,82.18607 -12.7953,40.63224 -25.31665,61.6617 -30.59732,93.68467 -5.4961,33.32935 -6.83804,66.26287 -7.37558,79.57469 -2.77087,68.61874 19.23079,155.68088 2.68569,198.30108"
       id="path4-7"
       sodipodi:nodetypes="cczzssszzsssszzssssssszssszzzssszszzssc"
       inkscape:label="path4" />
    <path
       style="fill:none;stroke:#000000;stroke-width:1.5421637;stroke-dasharray:none;stroke-opacity:1"
       d="m 311.88629,665.11626 c -8.94656,19.99283 -21.55722,49.44806 -27.98409,70.81029 -6.70523,22.28751 -8.74629,26.65313 -23.95502,54.217 -8.30546,15.05257 -20.27339,30.3856 -20.56074,46.87998 -1.10556,63.4617 -3.95176,86.63565 -11.48236,118.54167 -5.48499,23.23905 -8.98727,45.0228 -20.37661,106.694"
       id="path5-8"
       sodipodi:nodetypes="cssssc" />
    <path
       style="fill:none;stroke:#000000;stroke-width:1.5421637;stroke-dasharray:none;stroke-opacity:1"
       d="m 303.3107,577.56786 c 1.02602,15.57129 4.38617,23.0055 14.68383,33.59691 -7.68752,28.10667 -6.16932,59.4255 -5.6385,88.80076 0.19555,16.89089 1.25378,27.66222 7.86927,54.22371 4.46488,17.92671 13.1268,27.35339 22.38943,57.80301 6.2356,20.49864 5.12183,44.1945 5.12183,69.64055 0,11.43595 -5.09052,27.26671 -6.20039,41.91895 -1.10988,14.65224 -1.4991,8.44843 -6.76262,43.59674 -5.26352,35.14831 -7.30814,62.77051 -6.2093,96.83661"
       id="path6-0"
       sodipodi:nodetypes="cszssszzc"
       inkscape:label="path6" />
    <path
       style="fill:none;stroke:#000000;stroke-width:1.5421637;stroke-dasharray:none;stroke-opacity:1"
       d="m 766.29125,591.76676 c -1.182,-1.83769 -10.54742,23.35541 -13.4318,35.96091 -4.79382,20.95028 -2.32859,90.31038 -8.62933,114.61222 -6.30074,24.30184 -15.19579,64.53983 -16.48195,92.14469 -1.1988,25.72995 5.62096,43.12244 6.82779,63.52067 1.10916,18.74741 7.44574,34.31579 10.96161,52.91903 7.64552,40.45412 12.87401,80.10902 14.55497,118.05692"
       id="path7-4"
       sodipodi:nodetypes="cszsssc"
       inkscape:label="path7" />
  </g>
</svg>
