<?xml version="1.0" encoding="UTF-8" standalone="no"?>
<!-- Created with Inkscape (http://www.inkscape.org/) -->

<svg
   version="1.1"
   id="svg4485"
   width="700"
   height="750"
   viewBox="0 0 700 750"
   sodipodi:docname="level3_C44_neu.svg"
   inkscape:version="1.3 (0e150ed, 2023-07-21)"
   xmlns:inkscape="http://www.inkscape.org/namespaces/inkscape"
   xmlns:sodipodi="http://sodipodi.sourceforge.net/DTD/sodipodi-0.dtd"
   xmlns="http://www.w3.org/2000/svg"
   xmlns:svg="http://www.w3.org/2000/svg"
   xmlns:rdf="http://www.w3.org/1999/02/22-rdf-syntax-ns#"
   xmlns:cc="http://creativecommons.org/ns#"
   xmlns:dc="http://purl.org/dc/elements/1.1/">
  <metadata
     id="metadata4491">
    <rdf:RDF>
      <cc:Work
         rdf:about="">
        <dc:format>image/svg+xml</dc:format>
        <dc:type
           rdf:resource="http://purl.org/dc/dcmitype/StillImage" />
      </cc:Work>
    </rdf:RDF>
  </metadata>
  <defs
     id="defs4489" />
  <sodipodi:namedview
     pagecolor="#ffffff"
     bordercolor="#666666"
     borderopacity="1"
     objecttolerance="10"
     gridtolerance="10"
     guidetolerance="10"
     inkscape:pageopacity="0"
     inkscape:pageshadow="2"
     inkscape:window-width="1352"
     inkscape:window-height="730"
     id="namedview4487"
     showgrid="false"
     inkscape:zoom="1.1379377"
     inkscape:cx="319.87692"
     inkscape:cy="430.16415"
     inkscape:window-x="0"
     inkscape:window-y="25"
     inkscape:window-maximized="0"
     inkscape:current-layer="layer2"
     inkscape:showpageshadow="2"
     inkscape:pagecheckerboard="0"
     inkscape:deskcolor="#d1d1d1" />
  <g
     inkscape:groupmode="layer"
     id="layer2"
     inkscape:label="Layer 2">
    <path
       style="display:inline;opacity:1;fill:none;stroke:#ff0000;stroke-width:0.5;stroke-linecap:butt;stroke-linejoin:miter;stroke-miterlimit:4;stroke-dasharray:none;stroke-opacity:1"
       d="m 494.86458,336.50951 c 2.26366,0.0991 3.6553,-0.0604 5.3923,-0.55533 1.86735,-0.53209 3.89753,-1.50628 5.47385,-2.28349 3.05924,-1.50837 5.61561,-2.92404 8.4261,-4.27561 2.89054,-1.39007 5.8761,-2.84915 9.05922,-3.24316 1.46865,-0.18179 3.02855,-0.34653 4.58363,-0.3079 2.39919,0.0596 4.77069,0.51023 6.65176,1.40647 3.06898,1.46223 4.52657,2.36785 6.16753,3.57659 1.25773,0.92645 2.66973,2.37762 3.71576,3.70862 1.52915,1.94576 2.45562,3.69767 2.45562,3.69767 0.64443,1.55014 1.1552,2.36635 1.62299,3.91925 0.61245,2.03311 0.75053,4.80509 0.63228,6.85413 0,0 -1.13258,6.73893 -2.13897,9.99349 -1.08835,3.51962 -2.47292,6.96782 -4.19108,10.22667 -2.16218,4.101 -4.58924,8.13083 -7.63884,11.6227 -2.42021,2.77121 -3.66873,4.53026 -7.10359,7.92148 -1.41493,1.39695 -2.97041,2.89217 -5.01542,4.50429 -2.62368,2.0683 -5.85305,4.27245 -8.4976,6.10685 -1.48332,1.02891 -3.75133,2.50894 -5.27197,3.59389 -3.42022,2.44025 -6.25411,4.31538 -10.55393,4.74078 -1.67695,0.16591 -3.4977,0.34452 -5.31853,-0.16254 -1.52218,-0.42389 -3.13654,-1.42474 -3.7332,-1.89043 -2.38557,-1.86195 -3.59512,-3.51661 -3.83474,-6.83604 -0.19591,-2.71385 0.77674,-6.4007 3.9858,-13.37637"
       id="C44.2"
       inkscape:connector-curvature="0"
       inkscape:label="C44.2 Haut des Ohres und des äußeren Gehörgangs"
       sodipodi:nodetypes="csssssssscscaasssssssssc" />
    <path
       style="display:inline;fill:none;fill-opacity:1;stroke:none;stroke-width:1;stroke-linecap:butt;stroke-linejoin:miter;stroke-miterlimit:4;stroke-dasharray:none;stroke-opacity:1"
       d="m 449.95707,578.79201 c 0.84355,-1.82558 2.97325,-6.92804 3.55141,-8.37203 0.6707,-1.67514 1.31516,-3.84673 1.64382,-4.90663 0.44929,-1.44895 0.9665,-4.58237 1.13039,-5.35481 0.32431,-1.52859 -0.12342,-4.99626 -0.60589,-6.91105 -0.82606,-3.27847 -2.58256,-7.30938 -3.35008,-9.58595 -1.13349,-3.36207 -2.3116,-5.88345 -3.53674,-9.00872 -0.89749,-2.28947 -2.18956,-4.25487 -3.15693,-6.48646 -1.10418,-2.54723 -2.53908,-3.85084 -4.26466,-6.02528 -1.1524,-1.45217 -2.52749,-3.17025 -3.10728,-4.78783 -0.77861,-2.17227 -1.05884,-4.28837 -1.10237,-6.47899 -0.0582,-2.92654 -0.48983,-4.22994 -0.95232,-6.50507 -0.36383,-1.78972 -0.67031,-3.171 -1.11711,-4.7273 -0.53196,-1.85297 -1.03603,-3.95629 -1.72353,-5.54737 -0.5865,-1.32483 -1.56982,-3.11889 -2.42698,-4.36201 0,0 5.21536,-1.34027 7.73742,-2.26951 7.15592,-2.63655 14.28474,-5.52083 20.88354,-9.34373 10.32566,-5.982 21.44044,-11.38492 28.93865,-21.07577 3.78291,-5.13888 7.59097,-10.88625 8.36156,-17.22066 1.40589,-11.55664 -8.04895,-31.78243 -7.27748,-34.15891 1.15573,-0.003 2.22758,3.30668 9.05173,2.05297 7.52284,-1.38208 16.42972,-9.38329 17.62767,-9.5478 2.13133,-0.78356 5.86235,-5.07939 7.96667,-5.94431 2.10432,-0.86491 5.97502,-5.51501 8.56456,-8.63383 3.71741,-4.47722 8.44521,-10.02505 9.92245,-14.36405 1.24396,-3.6538 3.21931,-6.60948 3.85455,-9.16047 2.04226,-8.20141 3.18636,-11.46044 1.84322,-17.91382 -1.15272,-5.53847 -4.11344,-8.08402 -7.79437,-11.32554 -3.68093,-3.24151 -3.90277,-2.85639 -6.16753,-3.57659 -1.70537,-0.54231 -2.92103,-0.7762 -4.71476,-1.22846 -1.33604,-0.33687 -1.937,-0.17801 -4.42088,-0.094 -2.19934,0.0743 -4.85911,0.81894 -6.98649,1.642 -2.08081,0.80505 -4.08196,1.80307 -6.09071,2.7733 -2.19389,1.05965 -4.23757,2.44324 -6.50787,3.32739 -1.71636,0.66842 -4.40688,2.00911 -6.61183,2.56836 -2.06909,0.5248 -3.71088,0.28967 -3.71088,0.28967 l 0.3552,-4.02961 c 0,0 0.67753,-4.01707 0.86719,-6.04327 0.41657,-4.45029 1.30553,-8.98379 0.59172,-13.39617 -0.68845,-4.25561 -2.96483,-8.09876 -4.61528,-12.08124 -1.75427,-4.233 -3.62902,-8.41792 -5.61589,-12.54686 -2.72628,-5.66556 -4.89294,-11.7194 -8.64559,-16.76408 -5.15621,-6.93147 -11.30914,-13.4393 -18.64582,-18.00053 -7.43156,-4.6202 -16.19903,-6.82816 -24.7082,-8.86982 -12.22109,-2.9323 -24.83569,-4.82028 -37.40344,-4.74996 -14.29665,0.08 -42.3301,5.91404 -42.48575,5.87916 0,0 3.8973,-6.41319 5.97803,-9.53438 2.41489,-3.62244 4.90175,-7.20169 7.5456,-10.66056 2.50357,-3.27534 5.16633,-6.42829 7.86607,-9.54391 2.49174,-2.8756 5.01545,-5.7292 7.68586,-8.43969 3.60144,-3.65548 6.64868,-6.88765 11.22647,-10.53389 4.63226,-3.68962 10.13506,-7.9445 15.07105,-10.59911 4.91617,-2.64395 14.06133,-6.74745 18.95963,-8.67529 4.0162,-1.58066 27.94757,-7.06946 32.5945,-7.54365 5.27121,-0.53789 16.68246,-1.53608 22.07223,-1.41846 6.38792,0.1394 14.32704,-0.10513 20.63491,0.68102 15.3094,1.908 20.28205,2.81547 36.83591,6.99336 4.63035,1.16862 12.05906,4.4806 17.0091,6.73094 4.47327,2.03361 9.77463,5.28501 13.9194,7.98129 4.06287,2.64302 9.1105,6.26369 13.42056,9.71734 6.21822,4.98265 13.64276,11.73757 17.90269,15.84083 3.9305,3.78598 14.19304,16.19145 16.56599,21.137 2.03644,4.24422 4.97131,10.81111 7.25716,16.60354 1.49981,3.80059 3.63186,10.61578 4.1257,14.70493 0.55309,4.57979 1.06247,7.79255 1.31682,14.92433 0.18011,5.05017 -0.7112,10.17002 -1.35245,15.22424 -0.73843,5.82011 -1.23088,11.79954 -2.87001,17.36473 -1.0386,3.52626 -2.58171,10.84815 -5.38783,18.42222 -2.61119,7.04794 -4.7188,11.36078 -9.27248,20.89938 -1.99418,4.17722 -3.26866,6.52835 -5.71489,10.44828 -0.11563,0.18529 -7.78697,11.14537 -10.90743,15.62657 -1.08438,1.55725 -5.034,7.9312 -5.70807,9.71113 -1.35218,3.5704 -2.88909,11.60943 -2.99138,15.43083 -0.10424,3.89465 0.3411,8.60934 0.83172,12.88534 0.3389,2.95369 1.24253,6.89383 1.45636,8.79951 0.42917,3.82487 0.79884,8.58104 1.14804,12.87584 0.20741,2.55101 0.34228,5.10772 0.56255,7.65765 0.22011,2.54807 0.4556,5.09554 0.75841,7.63511 0.31736,2.66158 0.6746,5.33736 1.10892,7.96448 0.54226,3.28001 1.10853,5.37095 1.53962,8.59315 0.4451,3.327 1.83109,7.4371 2.29739,10.75481 0.66574,4.73667 2.92169,9.45085 6.50539,17.92824 1.27418,3.01413 4.69082,8.49301 7.97158,12.18965 2.22505,2.50712 3.62709,3.99693 6.6368,7.04316 1.88751,1.91042 3.01527,2.84848 3.01527,2.84848 l 3.33371,2.71222 c 0,0 3.15527,2.46073 4.67096,3.76545 2.11995,1.82487 6.17993,5.67691 6.17993,5.67691 z"
       id="C44.4"
       inkscape:connector-curvature="0"
       sodipodi:nodetypes="csssssssssssscsaaaacsczassssssssassccaaaaaaaacaaaasssssssssasssssasssssssasaaassssssccacc"
       inkscape:label="C44.4 Behaarte Kopfhaut und Haut des Halses" />
    <path
       style="display:inline;fill:none;fill-opacity:1;stroke:none;stroke-width:1.2045;stroke-linecap:butt;stroke-linejoin:miter;stroke-miterlimit:4;stroke-dasharray:none;stroke-opacity:1"
       d="m 421.80946,483.57186 c 3.06086,1.32738 6.6816,3.64264 9.12934,6.16065 2.03856,0.2312 11.4006,-3.50636 14.69714,-4.94583 11.08472,-5.09504 14.3421,-5.98733 26.49012,-13.92772 11.36671,-7.4297 12.55168,-9.42911 16.37235,-13.81546 3.14016,-3.60509 5.60968,-8.14373 7.62108,-14.40589 1.7025,-5.30042 0.44845,-10.51629 0,-13.65929 -0.97826,-6.8563 -1.94322,-7.14231 -2.97675,-10.69585 -1.01121,-3.47677 -1.70658,-7.07565 -3.15438,-10.39444 -0.98729,-2.26318 -1.9767,-4.051 -3.7324,-6.39843 -1.05085,-1.40501 -0.17973,-6.65653 0.0273,-6.84041 0,0 1.41974,-4.47922 2.33712,-6.68925 2.97898,-7.17652 3.30778,-17.38461 4.30793,-25.27358 1.00014,-7.88896 2.28705,-25.37381 2.65733,-28.17241 0.79939,-6.04184 1.43407,-7.88192 1.49751,-12.13528 0.139,-9.31897 -0.36114,-11.53462 -2.33698,-16.65279 -2.19411,-5.68358 -5.97196,-13.5079 -8.62297,-19.14469 -0.94926,-2.01838 -5.66139,-12.52581 -10.9686,-18.98056 -2.9847,-3.63006 -11.32166,-11.69599 -15.45503,-13.93364 -4.70601,-2.54765 -12.29314,-5.74694 -17.48389,-7.05262 -7.22431,-1.8172 -15.82103,-3.91055 -23.87522,-5.05136 -6.86739,-0.9727 -14.37177,-1.7473 -20.75253,-1.5158 -6.38077,0.2315 -9.98978,0.65571 -16.42256,1.44197 -3.34209,0.40849 -7.38487,1.09514 -10.56763,1.61475 -2.01176,0.32843 -15.49556,2.82244 -15.49556,2.82244 0,0 -2.3756,3.40163 -3.21487,5.57772 -1.92344,4.98719 -4.6954,7.77259 -5.8884,11.95927 -0.91086,3.19656 -2.16663,7.18326 -3.70261,12.41084 -0.58346,1.98576 -0.23129,4.33803 -0.70708,6.36094 -0.45325,1.92702 1.48039,4.14398 1.47245,6.12911 -0.008,2.10671 1.86803,3.62274 2.45979,5.63535 0.59119,2.01072 1.04722,2.84585 1.80627,4.79317 0.66743,1.71227 1.29647,3.47443 1.68224,5.28129 0.32591,1.52653 0.64629,3.09708 0.52486,4.65328 -0.16976,2.17556 -1.23676,4.99991 -1.73393,6.31273 -1.36458,3.60328 -4.63809,8.1237 -6.88991,12.02971 -1.8585,3.22377 -5.84909,8.03774 -8.32293,10.85483 -4.89083,5.56942 -6.63425,7.46315 -9.95073,10.20369 -2.13023,1.76029 -3.98498,4.12819 -5.49061,6.54543 -1.17893,1.89274 -2.59969,3.89125 -2.70422,6.11867 -0.15861,3.37964 -0.77794,5.04725 3.21558,9.62725 1.27506,1.46231 2.74015,3.55739 4.35606,5.10387 1.26008,1.20592 2.31732,2.21544 4.12521,3.21885 1.91917,1.06518 4.88817,-0.0877 7.06279,0.94616 1.79376,0.85275 2.25454,3.30316 2.90363,5.21308 0.35704,1.05057 0.50142,2.62292 0.54151,3.73914 0.0862,2.40156 -0.0826,4.24621 -0.78364,6.73522 -0.33697,1.19638 -0.76921,2.14145 -1.33723,3.23554 -0.73079,1.40758 -1.39078,2.43009 -2.20712,3.7846 -0.32801,0.54423 0.10945,2.02075 0.35591,2.61555 0.54922,1.32546 1.23496,2.54817 1.4971,3.12049 0.56738,1.23875 1.25156,1.75153 2.11981,2.7793 0.60324,0.71409 2.09841,0.51961 2.87186,1.02012 0.88149,0.57043 2.91883,1.11303 2.91883,1.11303 0,0 -0.57009,0.71828 -0.93515,0.97412 -0.42084,0.29493 -1.01473,1.28781 -1.44251,1.57147 -0.83894,0.5563 -1.57385,0.65783 -2.20085,1.46618 -0.68331,0.88095 -1.195,1.55659 -1.60755,2.60994 -0.41254,1.05336 -0.32854,2.28439 -0.25612,3.33192 0.0724,1.04753 0.22102,1.78562 0.50147,2.63438 0.37117,1.12333 0.79732,2.27816 1.54424,3.19562 1.44731,1.77778 4.19439,3.15603 5.45665,4.1859 1.13375,0.92502 1.89973,2.46138 2.15394,3.7414 0.26301,1.32437 -0.0983,4.11024 -0.18619,5.46006 -0.10848,1.66549 -0.71804,4.49426 -0.87299,6.06875 -0.13788,1.40109 -0.27164,4.37087 -0.65791,5.7247 -0.51321,1.79877 -0.42321,3.6597 -0.62682,5.52552 -0.37496,3.43592 -0.004,3.8594 0.0594,5.39343 0.0857,2.07005 0.95711,7.00202 2.31784,8.53332 1.29728,1.45992 3.10981,3.29437 4.66977,4.43476 1.61427,1.18009 4.05184,1.95097 5.86774,2.7428 2.6817,1.16935 5.4104,0.76802 8.27426,1.02584 3.23963,0.29166 6.74572,0.9345 9.96179,1.36807 3.13355,0.42242 6.27119,0.69824 9.42071,0.73217 2.78252,0.03 5.5626,-0.22795 8.33496,-0.46742 2.0007,-0.17281 3.98692,-0.4863 5.98377,-0.69909 2.10807,-0.22463 4.34592,-0.56879 6.33073,-0.60972 1.4507,-0.0299 1.38952,0.25988 6.29359,-0.23553 l 4.08667,0.037 z"
       id="C44.3"
       inkscape:connector-curvature="0"
       inkscape:label="C44.3 Haut sonstiger Teile des Gesichtes"
       sodipodi:nodetypes="cccssssaascszzssssssassscsssssssaassssaasassssssssssscssszzaassssssssssssaaasccc" />
    <g
       id="C44.6"
       inkscape:label="C44.6 Haut der oberen Extremität, einschließlich Schulter"
       transform="matrix(1.2026092,0,0,1.2026092,-512.27392,-411.23832)"
       style="stroke-width:0.83152532;stroke-dasharray:none">
      <path
         sodipodi:nodetypes="caaaacsasssssccassssazssssssacsssscccaaccccccccsssscssssccccccssscassssaacccsssssssssssssscssssssasssssaascsssssssasssssssscsssc"
         inkscape:connector-curvature="0"
         id="path5877-3"
         d="m 586.94466,533.46428 c 0,0 1.14404,2.04211 1.96712,2.85234 1.0109,0.99511 2.2783,1.71385 3.54081,2.36055 1.74519,0.89395 3.65159,1.43395 5.50794,2.06548 1.59055,0.5411 3.20744,1.00199 4.81945,1.47534 1.04568,0.30705 3.14739,0.88518 3.14739,0.88518 0,0 0.90158,2.12445 0.88521,3.24577 -0.0115,0.78813 -0.47265,1.50411 -0.6885,2.26219 -0.45514,1.59853 -0.96945,3.1864 -1.27862,4.81945 -0.31923,1.6862 -0.50501,3.40048 -0.59014,5.11451 -0.10409,2.09594 0.082,4.19633 0.0984,6.29479 0.0164,2.0982 -0.0244,4.19667 0,6.29479 0.0164,1.41005 -0.0695,2.6282 -0.19677,4.03259 -0.0876,0.96695 -0.29506,3.04904 -0.29506,3.04904 v 1.18027 c 0,0 2.6074,7.15291 3.93424,10.72081 0.84263,2.26585 1.72447,4.51708 2.55725,6.78657 0.6716,1.83023 1.27713,3.68457 1.96713,5.50794 0.43741,1.15589 1.01671,2.26025 1.37698,3.44246 0.27367,0.89806 0.46215,1.82391 0.59014,2.75397 0.21496,1.56205 -0.0135,3.17482 0.29506,4.72109 0.41396,2.0742 1.36591,4.24776 2.06548,5.99972 0.69957,1.75196 1.36283,3.02279 2.06548,4.52437 1.12493,2.40402 2.40605,4.73651 3.44246,7.18 0.84658,1.99593 1.48527,4.07401 2.26219,6.09807 0.79631,2.07458 1.64637,4.12815 2.4589,6.19643 0.9261,2.35738 1.88057,4.70423 2.75397,7.08164 0.93318,2.54014 1.66258,5.15442 2.65561,7.67177 0.94792,2.40298 2.16267,4.6935 3.1474,7.08163 0.28086,0.68113 0.78685,2.06548 0.78685,2.06548 0,0 -0.12506,3.34436 -0.19672,5.01616 -0.0604,1.41 -0.19457,2.81802 -0.19671,4.22931 -0.002,1.50955 0.001,3.02757 0.19671,4.52438 0.21759,1.66431 0.59321,3.31205 1.08192,4.9178 0.28717,0.94356 1.08192,2.75397 1.08192,2.75397 v 4.42602 c 0,0 0.0227,3.08199 0,4.62274 -0.22895,1.93937 -0.0889,4.01767 1.37694,4.81945 0.6006,0.32851 1.52514,-0.0674 1.96712,-0.59014 0.68262,-0.80741 0.39343,-3.1474 0.39343,-3.1474 l 0.29506,-4.62273 0.29507,-3.83589 0.49178,-0.59013 h 0.59014 l 0.19671,2.95068 1.08192,5.11451 0.78685,3.63918 c 0,0 0.48367,2.4863 0.98356,3.63917 0.32213,0.74291 0.59174,1.63668 1.27862,2.06548 0.559,0.34897 1.34651,0.41825 1.96713,0.19671 0.43667,-0.15587 0.79493,-0.56001 0.98356,-0.98356 0.25377,-0.56983 0.0983,-1.86877 0.0983,-1.86877 0,0 -0.28751,-1.51804 -0.49178,-2.26219 -0.16467,-0.59986 -0.43047,-1.16918 -0.59013,-1.7704 -0.21454,-0.80787 -0.37982,-1.63057 -0.49178,-2.45891 -0.12328,-0.91203 -0.1149,-1.83728 -0.19672,-2.75396 -0.0821,-0.91959 -0.29506,-2.75397 -0.29506,-2.75397 l -0.0984,-1.86877 0.39342,-0.68849 0.6885,0.29507 0.59013,2.75397 1.08192,2.95068 c 0,0 0.86883,2.09174 1.27863,3.14739 0.34161,0.87999 0.65647,1.77013 0.98356,2.65561 0.23003,0.62273 0.4249,1.25949 0.68849,1.86877 0.23287,0.53827 0.78685,1.5737 0.78685,1.5737 0,0 0.51344,0.74619 0.8852,0.98356 0.37585,0.23998 0.83327,0.37089 1.27863,0.39342 0.50088,0.0253 1.09936,0.0368 1.47534,-0.29507 0.3109,-0.27445 0.59967,-0.73355 0.6885,-1.18027 0.14196,-0.71397 -0.13552,-1.46042 -0.29507,-2.16383 -0.1849,-0.81516 -0.49239,-1.84579 -0.78685,-2.75397 -0.71014,-2.19021 -1.69596,-4.28704 -2.36055,-6.4915 -0.28232,-0.93645 -0.68849,-2.85233 -0.68849,-2.85233 l -0.68849,-2.26219 0.39342,-0.39342 c 0,0 1.27814,2.01359 1.86877,3.04904 0.62493,1.09558 1.1601,2.24032 1.77041,3.3441 0.4762,0.86122 0.92405,1.74207 1.47534,2.55726 0.654,0.96707 1.28215,1.98873 2.16383,2.75397 0.54359,0.4718 1.14931,1.05992 1.86876,1.08192 0.43966,0.0134 0.89937,-0.25166 1.18028,-0.59014 0.30486,-0.36733 0.39882,-0.89965 0.39342,-1.37698 -0.0113,-0.99545 -0.50859,-1.93081 -0.8852,-2.85233 -0.48814,-1.19445 -1.21896,-2.27589 -1.77041,-3.44246 -0.56482,-1.19485 -1.02463,-2.43701 -1.5737,-3.63918 -0.40816,-0.89367 -0.8123,-1.79087 -1.27863,-2.65561 -0.27222,-0.50479 -0.68394,-0.93831 -0.8852,-1.47534 -0.32725,-0.87321 -0.3306,-1.83549 -0.49178,-2.75397 -0.16677,-0.95028 -0.44952,-1.88844 -0.49178,-2.85232 -0.0173,-0.39441 0.0983,-1.18028 0.0983,-1.18028 0,0 0.75412,0.7591 1.08192,1.18028 0.77072,0.9903 1.19879,2.2399 2.06548,3.14739 0.81075,0.84892 1.7767,1.59533 2.85232,2.06548 0.7659,0.33477 1.62618,0.5642 2.4589,0.49178 0.63081,-0.0549 1.34388,-0.22053 1.77041,-0.6885 0.32156,-0.3528 0.50724,-0.91338 0.39343,-1.37698 -0.21563,-0.87835 -1.24837,-1.30902 -1.86877,-1.96712 -0.95467,-1.01268 -2.00899,-1.94191 -2.85232,-3.04904 -0.72233,-0.94828 -1.18364,-2.07355 -1.86877,-3.04904 -0.72394,-1.03074 -1.45139,-2.07892 -2.36054,-2.95068 -1.32055,-1.26623 -2.83344,-2.34529 -4.42603,-3.24575 -1.33038,-0.7522 -3.01324,-0.84473 -4.22931,-1.77041 -0.46447,-0.35356 -0.77346,-0.88141 -1.08191,-1.37698 -0.48042,-0.77186 -0.81453,-1.62655 -1.18027,-2.4589 -0.99436,-2.26294 -1.9819,-4.53684 -2.75397,-6.88493 -1.25932,-3.82994 -3.04904,-11.70437 -3.04904,-11.70437 0,0 -0.87275,-4.5111 -1.18027,-6.78656 -0.54702,-4.04758 -0.54865,-8.16091 -1.18028,-12.19615 -0.35801,-2.28718 -0.91117,-4.54134 -1.47534,-6.78657 -0.63983,-2.54633 -1.27987,-5.10121 -2.16383,-7.57342 -0.80587,-2.25381 -1.77838,-4.45075 -2.85233,-6.58985 -1.23889,-2.46764 -2.97938,-4.67041 -4.13095,-7.17999 -0.78274,-1.70579 -1.30228,-3.52196 -1.86876,-5.31123 -0.80198,-2.53311 -1.48973,-5.10168 -2.16384,-7.67177 -0.88162,-3.36124 -1.71177,-6.737 -2.4589,-10.13067 -0.65389,-2.97015 -1.49835,-5.92132 -1.77041,-8.9504 -0.36373,-4.04961 0.32619,-8.1323 0.19671,-12.19615 -0.10474,-3.28734 0.0493,-6.65465 -0.78684,-9.83561 -0.63392,-2.4117 -1.85238,-4.65557 -3.1474,-6.78656 -0.94677,-1.55794 -2.02983,-3.06426 -3.3441,-4.32767 -1.50843,-1.45005 -3.19895,-2.7974 -5.11452,-3.63917 -1.44229,-0.6338 -3.05597,-0.81873 -4.62273,-0.98356 -1.53246,-0.16123 -4.62274,0 -4.62274,0 0,0 -2.07623,1.711 -3.24575,2.36054 -1.14431,0.63555 -2.38935,1.08636 -3.63917,1.47534 -1.39202,0.43324 -2.6367,0.4881 -4.26983,0.94717 -0.81527,0.22934 -1.6928,0.59862 -2.81161,1.11829 z"
         style="fill:none;stroke:#000000;stroke-width:0.83152532;stroke-linecap:butt;stroke-linejoin:miter;stroke-dasharray:none;stroke-opacity:1" />
      <path
         sodipodi:nodetypes="caacaaaacaaasassssssacsssscccsaccccccccsssscssssccccccssscassssaacccsssssssssssssscssssssasssssaascsssssssaaaaaaaaacssssc"
         inkscape:connector-curvature="0"
         id="path5877-8-5"
         d="m 541.4058,533.66098 c -1.57886,2.78661 -3.36393,3.8737 -5.50793,5.21289 -1.66306,1.03879 -3.64877,1.44232 -5.50794,2.06548 -2.62614,0.88023 -6.16747,1.86498 -7.96684,2.36053 0,0 -0.88784,2.12433 -0.88521,3.24577 0.006,2.44991 1.49743,4.67715 1.96712,7.08163 0.83451,3.76022 0.40976,7.60355 0.49174,11.4093 0.11997,5.56953 -0.002,6.89004 0.19677,10.32739 0.14186,2.45325 0.29506,1.63317 0.29506,4.22931 0,0 -2.6074,7.15291 -3.93424,10.72081 -0.84263,2.26585 -1.72447,4.51708 -2.55725,6.78657 -0.6716,1.83023 -1.34423,3.66057 -1.96713,5.50794 -0.6924,2.05347 -1.62372,4.02654 -1.96712,6.19643 -0.21496,1.56205 0.0135,3.17482 -0.29506,4.72109 -0.56358,2.82389 -2.09572,6.17473 -4.13096,10.52409 -1.12493,2.40402 -2.40605,4.73651 -3.44246,7.18 -0.84658,1.99593 -1.48527,4.07401 -2.26219,6.09807 -0.79631,2.07458 -1.64637,4.12815 -2.4589,6.19643 -0.9261,2.35738 -1.88057,4.70423 -2.75397,7.08164 -0.93318,2.54014 -1.66258,5.15442 -2.65561,7.67177 -0.94792,2.40298 -2.16267,4.6935 -3.1474,7.08163 -0.28086,0.68113 -0.78685,2.06548 -0.78685,2.06548 0,0 0.12506,3.34436 0.19672,5.01616 0.0604,1.41 0.19457,2.81802 0.19671,4.22931 0.002,1.50955 -10e-4,3.02757 -0.19671,4.52438 -0.21759,1.66431 -0.59321,3.31205 -1.08192,4.9178 -0.28717,0.94356 -1.08192,2.75397 -1.08192,2.75397 v 4.42602 c 0,0 -0.0227,3.08199 0,4.62274 0.22895,1.93937 0.12218,3.6925 -1.18023,4.81945 -0.78077,0.67557 -1.67399,-0.0254 -2.16383,-0.59014 -0.69274,-0.79874 -0.39343,-3.1474 -0.39343,-3.1474 l -0.29506,-4.62273 -0.29507,-3.83589 -0.49178,-0.59013 h -0.59014 l -0.19671,2.95068 -1.08192,5.11451 -0.78685,3.63918 c 0,0 -0.48367,2.4863 -0.98356,3.63917 -0.32213,0.74291 -0.59174,1.63668 -1.27862,2.06548 -0.559,0.34897 -1.34651,0.41825 -1.96713,0.19671 -0.43667,-0.15587 -0.79493,-0.56001 -0.98356,-0.98356 -0.25377,-0.56983 -0.0983,-1.86877 -0.0983,-1.86877 0,0 0.28751,-1.51804 0.49178,-2.26219 0.16467,-0.59986 0.43047,-1.16918 0.59013,-1.7704 0.21454,-0.80787 0.37982,-1.63057 0.49178,-2.45891 0.12328,-0.91203 0.1149,-1.83728 0.19672,-2.75396 0.0821,-0.91959 0.29506,-2.75397 0.29506,-2.75397 l 0.0984,-1.86877 -0.39342,-0.68849 -0.6885,0.29507 -0.59013,2.75397 -1.08192,2.95068 c 0,0 -0.86883,2.09174 -1.27863,3.14739 -0.34161,0.87999 -0.65647,1.77013 -0.98356,2.65561 -0.23003,0.62273 -0.4249,1.25949 -0.68849,1.86877 -0.23287,0.53827 -0.78685,1.5737 -0.78685,1.5737 0,0 -0.51344,0.74619 -0.8852,0.98356 -0.37585,0.23998 -0.83327,0.37089 -1.27863,0.39342 -0.50088,0.0253 -1.09936,0.0368 -1.47534,-0.29507 -0.3109,-0.27445 -0.59967,-0.73355 -0.6885,-1.18027 -0.14196,-0.71397 0.13552,-1.46042 0.29507,-2.16383 0.1849,-0.81516 0.49239,-1.84579 0.78685,-2.75397 0.71014,-2.19021 1.69596,-4.28704 2.36055,-6.4915 0.28232,-0.93645 0.68849,-2.85233 0.68849,-2.85233 l 0.68849,-2.26219 -0.39342,-0.39342 c 0,0 -1.27814,2.01359 -1.86877,3.04904 -0.62493,1.09558 -1.1601,2.24032 -1.77041,3.3441 -0.4762,0.86122 -0.92405,1.74207 -1.47534,2.55726 -0.654,0.96707 -1.28215,1.98873 -2.16383,2.75397 -0.54359,0.4718 -1.14931,1.05992 -1.86876,1.08192 -0.43966,0.0134 -0.89937,-0.25166 -1.18028,-0.59014 -0.30486,-0.36733 -0.39882,-0.89965 -0.39342,-1.37698 0.0113,-0.99545 0.50859,-1.93081 0.8852,-2.85233 0.48814,-1.19445 1.21896,-2.27589 1.77041,-3.44246 0.56482,-1.19485 1.02463,-2.43701 1.5737,-3.63918 0.40816,-0.89367 0.8123,-1.79087 1.27863,-2.65561 0.27222,-0.50479 0.68394,-0.93831 0.8852,-1.47534 0.32725,-0.87321 0.3306,-1.83549 0.49178,-2.75397 0.16677,-0.95028 0.44952,-1.88844 0.49178,-2.85232 0.0173,-0.39441 -0.0983,-1.18028 -0.0983,-1.18028 0,0 -0.75412,0.7591 -1.08192,1.18028 -0.77072,0.9903 -1.19879,2.2399 -2.06548,3.14739 -0.81075,0.84892 -1.7767,1.59533 -2.85232,2.06548 -0.7659,0.33477 -1.62618,0.5642 -2.4589,0.49178 -0.63081,-0.0549 -1.34388,-0.22053 -1.77041,-0.6885 -0.32156,-0.3528 -0.50724,-0.91338 -0.39343,-1.37698 0.21563,-0.87835 1.24837,-1.30902 1.86877,-1.96712 0.95467,-1.01268 2.00899,-1.94191 2.85232,-3.04904 0.72233,-0.94828 1.18364,-2.07355 1.86877,-3.04904 0.72394,-1.03074 1.45139,-2.07892 2.36054,-2.95068 1.32055,-1.26623 2.83344,-2.34529 4.42603,-3.24575 1.33038,-0.7522 3.01324,-0.84473 4.22931,-1.77041 0.46447,-0.35356 0.77346,-0.88141 1.08191,-1.37698 0.48042,-0.77186 0.81453,-1.62655 1.18027,-2.4589 0.99436,-2.26294 1.9819,-4.53684 2.75397,-6.88493 1.25932,-3.82994 3.04904,-11.70437 3.04904,-11.70437 0,0 0.87275,-4.5111 1.18027,-6.78656 0.54702,-4.04758 0.54865,-8.16091 1.18028,-12.19615 0.35801,-2.28718 0.91117,-4.54134 1.47534,-6.78657 0.63983,-2.54633 1.27987,-5.10121 2.16383,-7.57342 0.80587,-2.25381 1.77838,-4.45075 2.85233,-6.58985 1.23889,-2.46764 2.97938,-4.67041 4.13095,-7.17999 0.78274,-1.70579 1.30228,-3.52196 1.86876,-5.31123 0.80198,-2.53311 1.48973,-5.10168 2.16384,-7.67177 0.88162,-3.36124 1.71177,-6.73701 2.4589,-10.13068 0.65389,-2.97015 1.49835,-5.92132 1.77041,-8.9504 0.36373,-4.04961 -0.32619,-8.1323 -0.19671,-12.19615 0.10474,-3.28734 -0.0493,-6.65464 0.78684,-9.8356 0.63392,-2.41171 1.85239,-4.65558 3.1474,-6.78657 0.94677,-1.55793 2.02982,-3.06426 3.3441,-4.32767 1.50843,-1.45005 3.19895,-2.7974 5.11452,-3.63917 1.44229,-0.63379 3.05597,-0.81873 4.62273,-0.98356 1.53246,-0.16122 4.62274,0 4.62274,0 0,0 2.07623,1.711 3.24575,2.36055 1.14431,0.63554 2.38935,1.08636 3.63917,1.47534 1.39202,0.43323 2.6367,0.48809 4.26983,0.94716 0.16139,0.0454 0.31298,0.0905 0.45126,0.13475 0.81172,0.26006 2.36035,0.98354 2.36035,0.98354 z"
         style="fill:none;stroke:#000000;stroke-width:0.83152532;stroke-linecap:butt;stroke-linejoin:miter;stroke-dasharray:none;stroke-opacity:1" />
    </g>
    <path
       id="path4152"
       style="fill:none;fill-rule:evenodd;stroke:#000000;stroke-width:1;stroke-linecap:butt;stroke-linejoin:miter;stroke-miterlimit:4;stroke-dasharray:none;stroke-opacity:1"
       d="m 636.90199,536.74931 c 0,0 -4.07207,-3.8381 -6.17993,-5.67691 -3.16725,-2.76294 -6.70268,-5.10741 -9.71134,-8.04225 -4.49062,-4.38045 -8.94029,-8.93293 -12.35988,-14.19224 -3.41472,-5.25184 -5.86448,-11.12217 -7.94563,-17.0307 -2.04992,-5.81982 -3.19021,-11.92917 -4.41425,-17.97682 -1.1088,-5.47829 -1.97045,-11.00955 -2.64854,-16.55763 -1.056,-8.63988 -1.30179,-17.36213 -2.20712,-26.0191 -0.74377,-7.11204 -2.81459,-14.13946 -2.64855,-21.28835 0.14119,-6.07852 0.92903,-12.29365 3.08997,-17.97683 1.98013,-5.20762 5.78322,-9.52679 8.82849,-14.19225 8.27106,-10.51155 14.21078,-22.29494 19.5362,-34.5018 7.93558,-18.13704 10.36764,-32.44614 12.44602,-52.07087 1.92054,-18.59965 -3.17829,-33.83886 -10.26083,-48.92013 -5.68636,-12.10829 -15.02788,-22.46481 -24.96357,-31.42178 -15.06004,-13.57655 -32.1274,-26.06579 -51.28258,-32.71459 -25.56677,-8.87427 -53.84358,-10.73825 -80.781,-8.13283 -19.03528,1.84112 -38.31235,7.10548 -54.92421,16.5806 -15.74739,8.98204 -28.61751,22.73057 -40.03307,36.81397 -10.42391,12.86 -23.6245,35.56512 -25.32158,42.72181 -1.26654,5.3411 -3.85371,10.6048 -3.53139,16.08453 0.34297,5.83122 4.14604,10.93761 5.73851,16.55763 0.92482,3.26375 2.55745,6.56045 2.20712,9.93457 -0.62579,6.02719 -4.37201,11.37031 -7.50421,16.5576 -3.71709,6.15596 -8.52236,11.60567 -13.24272,17.03069 -3.46439,3.98155 -8.28081,6.85203 -11.03561,11.35379 -1.91221,3.12482 -3.95062,6.76823 -3.5314,10.40764 0.38252,3.32087 3.17084,5.93591 5.29709,8.51534 1.91601,2.32439 3.89708,4.86465 6.62137,6.14997 2.1482,1.01354 5.24791,-0.58625 7.06279,0.94616 3.02831,2.55697 3.49608,7.39051 3.53139,11.35378 0.0234,2.62805 -1.16955,5.15454 -2.20712,7.5692 -0.57655,1.34176 -2.14038,2.32574 -2.20712,3.7846 -0.14314,3.12888 1.91238,6.1563 3.97282,8.51534 1.15078,1.31756 4.19741,1.10258 4.41424,2.83844 0.26733,2.14016 -3.67294,2.70537 -4.41424,4.73075 -1.03106,2.817 -0.85104,6.2814 0.44142,8.98844 1.02,2.13634 3.53139,3.15381 5.29709,4.73072 0.88285,0.78846 2.18236,1.27738 2.64855,2.36538 1.80207,4.20559 -0.15519,9.15271 -0.44143,13.71916 -0.29724,4.74199 -1.52104,9.44502 -1.32426,14.19224 0.1393,3.36055 0.1271,6.99729 1.76569,9.93458 1.72998,3.10112 4.75257,5.54237 7.94564,7.09611 4.03208,1.96198 8.80359,1.73185 13.24271,2.36537 5.85999,0.83631 11.73812,1.8152 17.65698,1.89231 7.82329,0.10192 15.57291,-1.74418 23.39547,-1.89231 3.68126,-0.0697 7.48452,-0.4997 11.03562,0.47307 4.50808,1.23494 9.28464,3.10299 12.35987,6.62306 3.87589,4.43652 4.70698,10.85362 6.17995,16.55761 0.99663,3.85937 0.28942,8.12435 1.7657,11.82687 1.42568,3.57566 4.71751,6.11583 6.62134,9.46148 2.65274,4.66168 4.79557,9.62204 6.62138,14.66531 2.06114,5.69332 4.99589,11.45046 4.85566,17.50378 -0.16593,7.16291 -6.69867,20.42404 -6.69867,20.42404"
       inkscape:label="Kopfform"
       sodipodi:nodetypes="cssssssssssssaaaaaassssssssssssssssssssssssssssssssssc" />
    <path
       id="path4"
       style="opacity:1;fill:none;stroke:#000000;stroke-width:1;stroke-dasharray:none"
       d="m 529.38556,374.05536 c 0.28821,3.88601 -3.1044,6.65329 -4.44471,9.33392 m -14.06981,-34.96 c 5.81868,-0.41176 10.25964,6.8368 11.6252,12.95863 1.02476,4.59394 -1.27109,8.99013 -5.37944,12.38179 -4.10835,3.39164 -10.02922,5.77874 -12.26882,7.27431 -3.5212,2.35141 -7.12459,5.95185 -7.99323,4.12316 -3.66158,-7.70856 5.79898,-6.09075 6.49882,-11.18075 1.07059,-7.7866 2.51175,-13.76867 9.66318,-5.6398 m 14.36869,-34.0715 c -27.83096,-0.50896 -25.41784,25.25861 -14.44534,28.00174 m -18.07552,-25.76735 c 7.19761,1.39989 18.40511,-8.57743 28.35147,-10.35759 14.82512,-2.65333 27.30683,11.31437 25.82957,22.85483 -2.11599,16.53028 -10.35139,28.96541 -21.07248,39.76434 -6.88712,6.93712 -14.37761,10.82633 -20.37867,15.37644 -6.34448,4.81051 -14.37858,4.10446 -16.67278,2.50111 -5.52313,-3.85993 -7.66069,-7.15157 -1.18814,-21.19712"
       inkscape:label="Ohr"
       sodipodi:nodetypes="cccsssssccccsssssc" />
  </g>
  <g
     inkscape:groupmode="layer"
     id="layer1"
     inkscape:label="Layer 1">
    <path
       style="fill:none;stroke:#000000;stroke-width:1.2045;stroke-linecap:butt;stroke-linejoin:miter;stroke-miterlimit:4;stroke-dasharray:none;stroke-opacity:1"
       d="m 366.50571,304.87425 c 0,0 0.0906,1.56215 0.0825,2.34398 -0.005,0.49276 0.0229,0.99567 -0.0825,1.47584 -0.0803,0.36657 -0.46983,0.67043 -0.41255,1.04176 0.18111,1.17428 1.43321,1.84489 2.22777,2.69125 0.7255,0.7728 1.43591,1.59281 2.31027,2.17035 0.73106,0.48288 1.56898,0.7706 2.39279,1.04176 1.23564,0.40673 2.53552,0.55461 3.79546,0.86815 1.18795,0.29563 2.40637,0.49991 3.54792,0.95496 1.12726,0.44934 2.17677,1.09696 3.21788,1.73628 1.25176,0.76867 2.43422,1.65659 3.63044,2.5176 0.8629,0.62109 2.55781,1.90991 2.55781,1.90991 0,0 -3.51215,-3.83259 -5.19813,-5.81654 -0.9624,-1.1325 -1.73061,-2.45806 -2.80533,-3.47257 -1.38545,-1.30782 -3.00609,-2.32433 -4.62056,-3.29892 -1.77128,-1.06928 -3.70597,-1.80809 -5.52816,-2.77806 -1.19675,-0.63704 -2.43762,-1.20514 -3.54792,-1.99672 -0.56556,-0.40322 -1.5677,-1.38903 -1.56769,-1.38903 z"
       id="C43.11"
       inkscape:connector-curvature="0"
       sodipodi:nodetypes="caasaaaaasscsssssc"
       inkscape:label="C43.11" />
    <path
       style="fill:none;stroke:#000000;stroke-width:1.2045;stroke-linecap:butt;stroke-linejoin:miter;stroke-miterlimit:4;stroke-dasharray:none;stroke-opacity:1"
       d="m 367.41331,311.73256 c 0,0 -0.78726,1.09598 -0.99011,1.73628 -0.25357,0.8004 -0.24098,1.67395 -0.24753,2.5176 -0.005,0.66806 -0.004,1.35261 0.16502,1.99673 0.25145,0.96083 0.6823,1.88394 1.23764,2.69124 0.67285,0.97814 1.49886,1.88325 2.47531,2.51761 0.91775,0.59624 1.99184,0.92446 3.05286,1.12858 1.13662,0.21867 2.31221,0.16283 3.46541,0.0868 0.12759,-0.008 0.26944,-0.0218 0.42059,-0.0388 1.16412,-0.13134 1.9367,-0.23458 2.87982,-0.48208 0.90298,-0.23697 1.78819,-0.56125 2.64031,-0.95495 0.68734,-0.31755 1.33721,-0.72099 1.98023,-1.12858 0.42472,-0.26921 1.23764,-0.86814 1.23764,-0.86814 0,0 -1.99654,-1.51115 -3.05286,-2.17035 -0.82523,-0.51499 -1.66122,-1.02955 -2.5578,-1.38903 -0.66277,-0.26575 -1.35784,-0.42667 -2.05296,-0.58512 -0.27898,-0.0635 -0.55797,-0.12679 -0.83489,-0.19621 -1.12304,-0.28152 -2.2649,-0.47836 -3.3829,-0.78132 -0.75002,-0.20325 -1.52394,-0.35443 -2.22777,-0.69452 -0.92206,-0.44553 -1.76022,-1.07637 -2.55781,-1.73628 -0.5964,-0.49345 -1.6502,-1.6495 -1.6502,-1.6495 z"
       id="path4503"
       inkscape:connector-curvature="0"
       sodipodi:nodetypes="csaasssssssscsssssssc" />
    <path
       style="fill:none;stroke:#000000;stroke-width:1.2045;stroke-linecap:butt;stroke-linejoin:miter;stroke-miterlimit:4;stroke-dasharray:none;stroke-opacity:1"
       d="m 369.7236,322.67113 c 1.0201,-0.71732 1.84802,-2.13541 2.06338,-3.46123 0.2476,-1.52431 0.22108,-2.21028 -0.99075,-4.52567"
       id="path4505"
       inkscape:connector-curvature="0"
       sodipodi:nodetypes="cac" />
    <path
       style="fill:#000000;fill-opacity:1;stroke:#000000;stroke-width:1.2045;stroke-linecap:butt;stroke-linejoin:miter;stroke-miterlimit:4;stroke-dasharray:none;stroke-opacity:1"
       d="m 367.00077,319.02494 c 0,0 0.80704,-1.1502 0.99012,-1.82309 0.19692,-0.72388 0.32003,-1.54273 0.0825,-2.25717 -0.23283,-0.70031 -0.75446,-1.4847 -1.38953,-1.72366 0,0 -0.27515,1.08355 -0.34318,1.63687 -0.0883,0.71857 -0.16696,1.4518 -0.0825,2.17036 0.0598,0.50891 0.20627,1.01124 0.41256,1.47583 0.0839,0.18906 0.33003,0.52088 0.33003,0.52088 z"
       id="path4507"
       inkscape:connector-curvature="0"
       sodipodi:nodetypes="csacasscc" />
    <path
       style="fill:none;stroke:#a7a7a7;stroke-width:1.2045;stroke-linecap:butt;stroke-linejoin:miter;stroke-miterlimit:4;stroke-dasharray:none;stroke-opacity:1"
       d="m 947.02717,534.55519 c 0,0 -0.4028,-10.44283 -0.9901,-15.62654 -0.3833,-3.38238 -0.8377,-6.77313 -1.6502,-10.07043 -0.5851,-2.37423 -1.343,-4.71354 -2.3103,-6.94513 -1.1042,-2.54723 -2.8486,-4.74884 -3.9605,-7.29238 -0.6834,-1.56335 -1.3711,-3.16606 -1.6502,-4.86159 -0.3567,-2.16702 0.1042,-4.4013 0,-6.59787 -0.1101,-2.32369 -0.1976,-4.67 -0.6601,-6.94513 -0.3638,-1.78972 -0.9845,-3.51796 -1.6502,-5.20884 -0.6589,-1.6739 -1.1452,-3.59807 -2.3102,-4.86159 -1.1651,-1.26352 -2.7504,-1.88785 -4.2906,-2.4308 -2.744,-0.96735 -5.3856,-0.51142 -8.0859,-0.52087 -3.0299,-0.0108 -6.0487,0.39421 -9.0761,0.52087 -4.3984,0.18402 -8.8061,0.59622 -13.2016,0.34727 -3.3248,-0.18832 -6.6351,-0.70793 -9.9012,-1.38903 -3.7954,-0.7915 -7.6019,-1.68606 -11.2213,-3.12532 -2.6564,-1.05628 -5.3667,-2.19083 -7.6189,-4.01075 -2.8846,-2.33088 -5.4537,-5.25746 -7.2346,-8.59414 -1.0361,-1.94138 -1.7069,-4.16407 -1.867,-6.38423 -0.1606,-2.22765 0.3897,-4.47024 0.9335,-6.62979 0.3848,-1.52804 1.2731,-2.88526 1.6336,-4.41984 0.6577,-2.79912 1.1963,-5.72408 0.9335,-8.59417 -0.1486,-1.6233 -0.7117,-3.20428 -1.4002,-4.66539 -0.719,-1.52593 -1.7576,-2.87167 -2.8005,-4.1743 -0.9214,-1.15089 -2.0614,-2.08875 -3.0338,-3.19212 -0.4045,-0.45887 -0.938,-0.84449 -1.1632,-1.42371 -0.3131,-0.80529 -0.3195,-1.74968 -0.165,-2.60442 0.216,-1.19536 0.6228,-2.26952 1.1551,-3.29894 0.3943,-0.7626 1.4852,-2.08353 1.4852,-2.08353 0.5606,-0.68017 1.1042,-1.40894 1.8152,-1.90993 0.5941,-0.41865 1.4158,-0.40621 1.9802,-0.86814 0.2171,-0.17766 0.4951,-0.6945 0.4951,-0.6945 0,0 -2.1685,-0.89521 -3.1354,-1.56265 -0.9778,-0.67495 -1.9335,-1.45053 -2.6403,-2.4308 -0.026,-0.0359 -0.052,-0.0734 -0.078,-0.1122 -0.8279,-1.23285 -1.769,-2.45162 -1.7372,-3.88126 0.025,-1.11297 0.9683,-1.98026 1.4851,-2.95169 0.6866,-1.29053 1.5515,-2.47929 2.1453,-3.81982 0.5767,-1.30218 1.2035,-2.63821 1.3602,-4.06536 0.1307,-1.19057 -0.1579,-2.39678 -0.3701,-3.57428 -0.165,-0.91559 -0.3847,-1.82137 -0.645,-2.71342 -0.1084,-0.37127 -0.2237,-0.74017 -0.3451,-1.1064 -0.138,-0.41619 -0.2471,-0.86016 -0.4951,-1.21539 -0.6004,-0.86009 -1.4719,-1.48294 -2.3102,-2.08354 -0.8746,-0.62654 -1.8436,-1.09862 -2.8054,-1.56266 -1.2349,-0.59582 -2.5083,-1.10535 -3.7954,-1.56265 -1.1383,-0.40439 -2.3555,-0.55805 -3.4654,-1.04176 -1.0465,-0.45607 -2.0416,-1.05428 -2.9704,-1.7363 -1.7271,-1.26813 -3.3658,-2.70394 -4.7856,-4.34069 -0.957,-1.10319 -1.8311,-2.31522 -2.4753,-3.64619 -0.3946,-0.81547 -0.6858,-1.70114 -0.8251,-2.60444 -0.2203,-1.42821 -0.2978,-2.92813 0,-4.34069 0.3944,-1.87057 1.4331,-3.52975 2.3103,-5.20885 1.1319,-2.16673 2.4951,-4.19122 3.7955,-6.25061 1.5536,-2.46043 3.2597,-4.8128 4.7855,-7.29238 1.1536,-1.87468 2.1793,-3.8334 3.3004,-5.72974 1.6201,-2.74017 3.1685,-5.53414 4.9506,-8.16052 1.797,-2.64825 3.7527,-5.17847 5.7757,-7.63964 1.6292,-1.98202 3.4864,-3.74772 5.1156,-5.72973 2.0231,-2.46117 4.4369,-4.7064 5.7757,-7.63964 0.5373,-1.17704 0.7578,-2.516 0.8251,-3.81982 0.078,-1.51253 -0.1366,-3.04726 -0.495,-4.51433 -0.3255,-1.33238 -0.9888,-2.54715 -1.4852,-3.81983 -0.768,-1.9687 -1.9399,-3.81127 -2.3103,-5.90335 -0.4535,-2.56099 -0.2357,-5.24255 0.165,-7.81327 0.2985,-1.91477 1.0235,-3.73123 1.6502,-5.5561 0.6874,-2.00142 1.5179,-3.9454 2.3103,-5.90336 0.5886,-1.4544 1.1801,-2.90812 1.8152,-4.34069 1.9967,-4.50369 4.3002,-8.85297 6.2708,-13.36938 1.1722,-2.68663 2.1745,-5.45202 3.3004,-8.16052 1.6673,-4.01113 3.0376,-8.1874 5.1156,-11.98035 1.9288,-3.52068 4.2645,-6.80046 6.7658,-9.8968 2.7709,-3.43007 5.8851,-6.55074 9.0761,-9.54955 3.0946,-2.90822 6.3117,-5.69535 9.7361,-8.16053 4.7809,-3.44157 9.8155,-6.51955 15.0168,-9.20229 5.0079,-2.58291 10.1976,-4.81766 15.5119,-6.59787 5.0091,-1.67795 10.1579,-2.93373 15.3468,-3.81982 4.2522,-0.72612 8.5692,-0.98953 12.8716,-1.21539 5.3842,-0.28267 10.7822,-0.29125 16.1719,-0.17363 6.3879,0.1394 12.7612,0.70303 19.14233,1.04176 3.3552,0.17811 6.7113,0.33817 10.0662,0.52089 5.0613,0.27566 10.1569,0.17378 15.1819,0.86814 4.5138,0.62374 8.972,1.70029 13.3666,2.95168 5.205,1.48221 10.3968,3.13213 15.3468,5.38247 4.4733,2.03361 8.7268,4.59611 12.8715,7.29239 4.0629,2.64301 7.94,5.60382 11.7164,8.6814 4.566,3.72106 8.9417,7.70345 13.2016,11.80672 3.9305,3.78597 7.8392,7.62258 11.3864,11.80672 4.2776,5.04572 8.2792,10.3746 11.8814,15.97379 2.2106,3.43615 4.4059,6.94276 5.9407,10.76495 1.8233,4.54034 2.685,9.44901 3.7955,14.23751 1.2003,5.17579 2.3086,10.38464 3.0953,15.64759 0.9015,6.03061 1.6115,12.11055 1.8553,18.2099 0.1017,2.54496 0.1095,5.10888 -0.165,7.63963 -0.3378,3.11259 -1.0406,6.17739 -1.8153,9.2023 -1.1766,4.59466 -2.7968,9.0515 -4.2905,13.54299 -1.161,3.49109 -2.4829,6.92168 -3.6304,10.4177 -0.6985,2.12789 -1.1695,4.3409 -1.9802,6.42424 -0.7458,1.91621 -1.6265,3.78141 -2.6404,5.55609 -2.2961,4.01917 -5.3097,7.53954 -7.7559,11.45947 -1.8691,2.99522 -3.605,6.08282 -5.2806,9.20228 -1.1017,2.05103 -2.1391,4.14077 -3.1354,6.25063 -0.8103,1.7159 -1.6362,3.42891 -2.3103,5.20885 -1.3521,3.5704 -2.2491,7.31445 -3.4654,10.93857 -1.3097,3.90268 -2.7279,7.76428 -4.1255,11.63308 -0.6497,1.79836 -1.5063,3.52432 -1.9802,5.38248 -0.9235,3.62091 -1.0564,7.41561 -1.6502,11.11219 -0.41,2.55211 -1.016,5.07121 -1.3202,7.63965 -0.2999,2.53288 -0.3861,5.08976 -0.495,7.63964 -0.1137,2.66024 -0.2502,5.32547 -0.1651,7.9869 0.1041,3.25211 0.3941,6.50098 0.8251,9.72318 0.4451,3.32699 1.0443,6.63639 1.8153,9.8968 0.6805,2.87808 1.5262,5.7151 2.4752,8.50777 1.1212,3.29923 2.529,6.48273 3.7955,9.72318 0.7693,1.96816 1.1838,3.61932 2.3103,5.90336 1.1265,2.28404 2.6923,5.3033 4.1538,7.88518 1.4555,2.57139 2.9724,5.12402 4.5922,7.56773 1.4949,2.25525 3.5901,4.01817 5.1157,6.25061 1.195,1.74879 2.2591,3.60947 3.1353,5.55611 1.1023,2.44894 1.8062,4.50093 2.6404,6.78021 0.4971,1.35835 0.8336,2.7836 1.4085,4.10751 1.0559,2.43157 2.2795,4.79893 3.7271,6.99598 1.3538,2.05476 4.6005,5.72973 4.6005,5.72973 z"
       id="path4495"
       inkscape:connector-curvature="0"
       sodipodi:nodetypes="csssssssacsaaasssssssssssssassacssssaaasssssssaaaaaaaaaaaaaaaaaaaaaaaaaaaasssssaasassassssaassssssssssssasaaasssaszasssaaacc" />
    <path
       style="fill:none;stroke:#000000;stroke-width:1.2045;stroke-linecap:butt;stroke-linejoin:miter;stroke-miterlimit:4;stroke-dasharray:none;stroke-opacity:1"
       d="m 366.50571,304.87425 c 0,0 0.0906,1.56215 0.0825,2.34398 -0.005,0.49276 0.0229,0.99567 -0.0825,1.47584 -0.0803,0.36657 -0.46983,0.67043 -0.41255,1.04176 0.18111,1.17428 1.43321,1.84489 2.22777,2.69125 0.7255,0.7728 1.43591,1.59281 2.31027,2.17035 0.73106,0.48288 1.56898,0.7706 2.39279,1.04176 1.23564,0.40673 2.53552,0.55461 3.79546,0.86815 1.18795,0.29563 2.40637,0.49991 3.54792,0.95496 1.12727,0.44934 2.17679,1.09696 3.21788,1.73628 1.25176,0.76867 2.43422,1.65659 3.63044,2.5176 0.8629,0.62109 2.55781,1.90991 2.55781,1.90991 0,0 -3.51215,-3.83259 -5.19813,-5.81654 -0.9624,-1.1325 -1.73061,-2.45806 -2.80532,-3.47257 -1.38544,-1.30782 -3.0061,-2.32433 -4.62056,-3.29892 -1.77129,-1.06928 -3.70598,-1.80809 -5.52817,-2.77806 -1.19675,-0.63704 -2.43762,-1.20514 -3.54792,-1.99672 -0.56556,-0.40322 -1.5677,-1.38903 -1.56769,-1.38903 z"
       id="C44.1"
       inkscape:connector-curvature="0"
       sodipodi:nodetypes="caasaaaaasscsssssc"
       inkscape:label="C44.1 Haut des Augenlids" />
    <path
       style="stroke:#000000;stroke-opacity:1;fill:none;stroke-width:1.2045;stroke-linecap:butt;stroke-linejoin:miter;stroke-miterlimit:4;stroke-dasharray:none"
       d="m 335.68612,423.61826 c -0.20222,-1.43146 -0.24152,-2.95906 0.20841,-4.32305 0.51645,-1.56564 1.60205,-2.34426 2.75729,-2.99496 0.79773,-0.44933 1.28195,-1.04144 1.87902,-1.61072 0.54559,-0.52019 1.55195,-1.64493 1.55195,-1.64493 0,0 -1.9585,-0.71052 -2.91884,-1.11303 -1.11154,-0.46588 -2.35064,-0.74712 -3.2873,-1.50555 -0.74032,-0.59945 -1.35453,-1.5496 -1.70435,-2.29387 -0.18873,-0.40154 -1.04778,-1.77327 -1.4971,-3.12049 -0.38352,-1.14988 -0.93121,-2.47737 -0.005,-3.74303 0.88611,-1.21063 4.60929,-0.21668 6.84075,0.26046 2.41342,0.51604 4.63904,1.70652 6.86681,2.76855 2.40193,1.14505 4.54281,2.80577 6.98062,3.87231 2.84986,1.24679 7.04337,2.28304 8.86308,2.92091 2.51132,0.88029 7.10369,1.0441 8.9511,1.89134 -2.69714,1.51491 -4.28567,1.5207 -6.33141,3.19527 -1.59207,1.30321 -3.50116,2.47366 -4.71411,3.38455 -2.13011,1.59967 -3.95411,2.90252 -6.56065,4.03713 -3.1664,1.37831 -5.99662,2.53942 -9.16137,3.21821 -2.50931,0.53821 -7.67149,0.65172 -7.67149,0.65172 -0.62321,-1.42066 -0.76069,-2.33171 -1.04741,-3.85082 z"
       id="C44.0"
       inkscape:connector-curvature="0"
       sodipodi:nodetypes="sssacaasssaaascsssacs"
       inkscape:label="C44.0 Lippenhaut" />
    <path
       style="fill:none;stroke:#000000;stroke-width:1.2045;stroke-linecap:butt;stroke-linejoin:miter;stroke-miterlimit:4;stroke-dasharray:none;stroke-opacity:1"
       d="m 342.08278,413.0446 c 0,0 3.14686,0.11677 4.70306,0.34725 1.30868,0.19384 2.73291,0.42459 4.043,0.6077 1.50172,0.2099 2.85813,0.5333 4.37302,0.52089 1.57149,-0.0129 3.14431,-0.13666 4.70306,-0.34727 1.33222,-0.17998 2.6367,-0.54199 3.96046,-0.78132 0.87792,-0.15872 1.75084,-0.38376 2.64032,-0.43407 0.5774,-0.0327 4.66686,0.0244 4.66686,0.0244"
       id="path4497"
       inkscape:connector-curvature="0"
       sodipodi:nodetypes="cssssssc" />
    <g
       id="C44.7"
       inkscape:label="C44.7 Haut der unteren Extremität"
       transform="matrix(1.2026092,0,0,1.2026092,-479.08935,165.49551)"
       style="stroke-width:0.83152532;stroke-dasharray:none;stroke:#000000;stroke-opacity:1">
      <path
         sodipodi:nodetypes="zaaacccccaaaaaaaaaaaaasssssassaaaacaacaacaccsaaaaaaassaasascaaassscsssassssacscczacz"
         inkscape:connector-curvature="0"
         id="path5834"
         d="m 541.08522,214.76493 c 0.15721,2.01616 1.45678,10.76057 2.22554,16.13519 0.71677,5.01112 1.69626,9.98804 2.22554,15.02242 0.31087,2.95688 0.50271,5.92947 0.55639,8.90217 0.0636,3.52442 -0.27819,10.57133 -0.27819,10.57133 l -0.2782,10.29314 -0.27819,9.45856 v 7.7894 l 1.39097,7.23301 c 0,0 1.42645,2.8852 1.66915,4.45109 0.55464,3.57853 -0.24774,7.24144 -0.55638,10.84952 -0.39801,4.65282 -1.29735,9.25466 -1.66916,13.90965 -0.36946,4.62553 -0.68926,9.27129 -0.55639,13.90965 0.10938,3.81845 0.62401,7.61728 1.11278,11.4059 0.67297,5.21634 1.8582,10.359 2.50373,15.57881 0.52551,4.24935 1.01623,8.51624 1.11277,12.79687 0.0502,2.22691 -0.0483,4.46105 -0.27819,6.67663 -0.17465,1.68314 -0.56352,3.33714 -0.83458,5.00747 -0.28572,1.76069 -0.76327,3.50338 -0.83458,5.28567 -0.0372,0.9293 0.27933,1.85422 0.21359,2.78193 -0.11413,1.61064 -1.05865,3.11463 -1.04817,4.72928 0.0105,1.61944 0.56147,3.20653 1.11278,4.72928 0.14118,0.38993 0.43338,0.71673 0.55638,1.11277 0.47049,1.51494 0.58721,3.12855 0.6575,4.71331 0.11636,2.62353 -0.32784,5.2432 -0.39343,7.86849 -0.0344,1.37655 0.16824,2.76428 0,4.13095 -0.13213,1.07332 -0.74369,2.06683 -0.78684,3.14739 -0.0478,1.1956 0.3017,2.37955 0.59013,3.54082 0.14995,0.60372 0.51413,1.15301 0.59014,1.77041 0.10446,0.84853 -0.44495,1.73915 -0.19671,2.55726 0.33898,1.11716 1.34785,1.91904 2.16383,2.75397 0.50465,0.51637 1.00271,1.10624 1.67205,1.37699 0.76226,0.30832 1.6601,0.39166 2.4589,0.1967 0.60095,-0.14667 1.14028,-0.54219 1.5737,-0.98356 0.26789,-0.2728 0.59014,-0.98356 0.59014,-0.98356 0,0 0.70767,1.37909 1.37698,1.5737 0.55785,0.1622 1.19655,-0.15799 1.67205,-0.49178 0.49914,-0.35038 1.08192,-1.47534 1.08192,-1.47534 0,0 0.63076,0.4081 0.98356,0.39342 0.58598,-0.0244 1.19915,-0.33555 1.5737,-0.78685 0.30486,-0.36733 0.39342,-1.37698 0.39342,-1.37698 0,0 0.92026,0.53226 1.37699,0.39342 0.53417,-0.16239 0.77939,-0.81842 1.08191,-1.27862 0.1373,-0.33987 0.19672,-1.08192 0.19672,-1.08192 0,0 0.67711,0.21934 0.98356,0.0983 0.64828,-0.25606 1.09477,-0.93635 1.37698,-1.57369 0.34742,-0.7846 0.26059,-1.69988 0.29507,-2.55726 0.0382,-0.95057 0.006,-1.90672 -0.0984,-2.85232 -0.11709,-1.06097 -0.37083,-2.10275 -0.59013,-3.1474 -0.29736,-1.41651 -0.67536,-2.81511 -0.98356,-4.22931 -0.42032,-1.92867 -0.73828,-3.87919 -1.18027,-5.80301 -0.29557,-1.28647 -0.6342,-2.56296 -0.98357,-3.83588 -0.3707,-1.35064 -0.82832,-2.32563 -1.18027,-4.0326 -0.22008,-1.06738 -0.32773,-2.1579 -0.39342,-3.24575 -0.11264,-1.86537 -0.28469,-3.75934 0,-5.60629 0.0995,-0.64562 0.49061,-1.22315 0.59013,-1.86877 0.12986,-0.84247 0.10736,-1.71163 0,-2.55726 -0.10997,-0.86625 -0.43243,-1.68554 -0.65077,-2.52776 -0.0451,-0.17383 -0.0946,-0.34537 -0.13608,-0.52127 -0.61928,-2.62455 0.14715,-5.09117 0.0983,-7.57342 0.30567,-2.89424 1.50454,-5.62394 2.16383,-8.45862 1.26725,-5.44868 2.38182,-10.93282 3.44246,-16.42546 1.46448,-7.58396 2.65725,-15.21797 4.0326,-22.8186 0.4809,-2.65761 1.15995,-5.28455 1.47534,-7.96684 0.37569,-3.19513 0.4842,-6.42176 0.49178,-9.63889 0.008,-3.5446 -0.35559,-7.08046 -0.49178,-10.62246 -0.12351,-3.21209 -0.29506,-9.63889 -0.29506,-9.63889 0,0 -0.009,-3.74032 0.0983,-5.6063 0.15494,-2.69671 0.58005,-5.37196 0.78685,-8.06519 0.269,-3.50323 0.26818,-7.02534 0.59014,-10.5241 0.59063,-6.41835 1.63864,-12.78637 2.4589,-19.17943 1.08109,-8.42594 2.07848,-16.86307 3.24575,-25.2775 0.7333,-5.28615 1.89319,-10.51907 2.36054,-15.83533 0.41934,-4.77006 0.528,-9.57342 0.39343,-14.35998 -0.1655,-5.88682 -0.77982,-11.7578 -1.47534,-17.60573 -0.58376,-4.90828 -1.02218,-8.08183 -1.66187,-12.1037 -0.4079,-2.56455 -1.38715,-7.66587 -1.38715,-7.66587 -2.59816,3.55884 -5.44725,5.7908 -9.63891,9.34383 -2.81188,2.38346 -5.21227,5.21434 -7.86849,7.77013 -3.07257,2.79845 -4.22658,3.99421 -6.34114,6.0151 -3.63537,3.14614 -7.33694,10.01236 -8.75972,12.47357 -1.42279,2.46121 -2.59766,5.06673 -4.33186,7.30391 -0.81671,1.05358 -2.8225,2.83316 -2.8225,2.83316 0,0 -0.49513,1.28276 -0.33792,3.29892 z"
         style="fill:none;stroke:#000000;stroke-width:0.831525;stroke-linecap:butt;stroke-linejoin:miter;stroke-dasharray:none;stroke-opacity:1" />
      <path
         sodipodi:nodetypes="caaaacccccaaaaaaaaaaaaasssssassaaaacaacaacaccsaaaaaaassaasascaaassscsssassssacsaccassac"
         inkscape:connector-curvature="0"
         id="path5834-5"
         d="m 536.36968,211.17412 c 0,0 -0.62265,2.3818 -0.84832,3.59081 -0.9962,5.33714 -1.45678,10.76057 -2.22554,16.13519 -0.71677,5.01112 -1.69626,9.98804 -2.22554,15.02242 -0.31087,2.95688 -0.50271,5.92947 -0.55639,8.90217 -0.0636,3.52442 0.27819,10.57134 0.27819,10.57134 l 0.2782,10.29314 0.27819,9.45856 v 7.7894 l -1.39097,7.23301 c 0,0 -1.42645,2.8852 -1.66915,4.45109 -0.55464,3.57853 0.24774,7.24144 0.55638,10.84952 0.39801,4.65282 1.29735,9.25466 1.66916,13.90965 0.36946,4.62553 0.68926,9.27129 0.55639,13.90965 -0.10938,3.81845 -0.62401,7.61728 -1.11278,11.4059 -0.67297,5.21634 -1.8582,10.359 -2.50373,15.57881 -0.52551,4.24935 -1.01623,8.51624 -1.11277,12.79687 -0.0502,2.22691 0.0483,4.46105 0.27819,6.67663 0.17465,1.68314 0.56352,3.33714 0.83458,5.00747 0.28572,1.76069 0.76327,3.50338 0.83458,5.28567 0.0372,0.9293 -0.27933,1.85422 -0.21359,2.78193 0.11413,1.61064 1.05865,3.11463 1.04817,4.72928 -0.0105,1.61944 -0.56147,3.20653 -1.11278,4.72928 -0.14118,0.38993 -0.43338,0.71673 -0.55638,1.11277 -0.47049,1.51494 -0.58721,3.12855 -0.6575,4.71331 -0.11636,2.62353 0.32784,5.2432 0.39343,7.86849 0.0344,1.37655 -0.16824,2.76428 0,4.13095 0.13213,1.07332 0.74369,2.06683 0.78684,3.14739 0.0478,1.1956 -0.3017,2.37955 -0.59013,3.54082 -0.14995,0.60372 -0.51413,1.15301 -0.59014,1.77041 -0.10446,0.84853 0.44495,1.73915 0.19671,2.55726 -0.33898,1.11716 -1.34785,1.91904 -2.16383,2.75397 -0.50465,0.51637 -1.00271,1.10624 -1.67205,1.37699 -0.76226,0.30832 -1.6601,0.39166 -2.4589,0.1967 -0.60095,-0.14667 -1.14028,-0.54219 -1.5737,-0.98356 -0.26789,-0.2728 -0.59014,-0.98356 -0.59014,-0.98356 0,0 -0.70767,1.37909 -1.37698,1.5737 -0.55785,0.1622 -1.19655,-0.15799 -1.67205,-0.49178 -0.49914,-0.35038 -1.08192,-1.47534 -1.08192,-1.47534 0,0 -0.63076,0.4081 -0.98356,0.39342 -0.58598,-0.0244 -1.19915,-0.33555 -1.5737,-0.78685 -0.30486,-0.36733 -0.39342,-1.37698 -0.39342,-1.37698 0,0 -0.92026,0.53226 -1.37699,0.39342 -0.53417,-0.16239 -0.77939,-0.81842 -1.08191,-1.27862 -0.1373,-0.33987 -0.19672,-1.08192 -0.19672,-1.08192 0,0 -0.67711,0.21934 -0.98356,0.0983 -0.64828,-0.25606 -1.09477,-0.93635 -1.37698,-1.57369 -0.34742,-0.7846 -0.26059,-1.69988 -0.29507,-2.55726 -0.0382,-0.95057 -0.006,-1.90672 0.0984,-2.85232 0.11709,-1.06097 0.37083,-2.10275 0.59013,-3.1474 0.29736,-1.41651 0.67536,-2.81511 0.98356,-4.22931 0.42032,-1.92867 0.73828,-3.87919 1.18027,-5.80301 0.29557,-1.28647 0.6342,-2.56296 0.98357,-3.83588 0.3707,-1.35064 0.82832,-2.32563 1.18027,-4.0326 0.22008,-1.06738 0.32773,-2.1579 0.39342,-3.24575 0.11264,-1.86537 0.28469,-3.75934 0,-5.60629 -0.0995,-0.64562 -0.49061,-1.22315 -0.59013,-1.86877 -0.12986,-0.84247 -0.10736,-1.71163 0,-2.55726 0.10997,-0.86625 0.43243,-1.68554 0.65077,-2.52776 0.0451,-0.17383 0.0946,-0.34537 0.13608,-0.52127 0.61928,-2.62455 -0.14715,-5.09117 -0.0983,-7.57342 -0.30567,-2.89424 -1.50454,-5.62394 -2.16383,-8.45862 -1.26725,-5.44868 -2.38182,-10.93282 -3.44246,-16.42546 -1.46448,-7.58396 -2.65725,-15.21797 -4.0326,-22.8186 -0.4809,-2.65761 -1.15995,-5.28455 -1.47534,-7.96684 -0.37569,-3.19513 -0.4842,-6.42176 -0.49178,-9.63889 -0.008,-3.5446 0.35559,-7.08046 0.49178,-10.62246 0.12351,-3.21209 0.29506,-9.63889 0.29506,-9.63889 0,0 0.009,-3.74032 -0.0983,-5.6063 -0.15494,-2.69671 -0.58005,-5.37196 -0.78685,-8.06519 -0.269,-3.50323 -0.26818,-7.02534 -0.59014,-10.5241 -0.59063,-6.41835 -1.63864,-12.78637 -2.4589,-19.17944 -1.08109,-8.42594 -2.07848,-16.86307 -3.24575,-25.2775 -0.7333,-5.28615 -1.89319,-10.51907 -2.36054,-15.83533 -0.41934,-4.77006 -0.528,-9.57342 -0.39343,-14.35998 0.1655,-5.88682 0.77982,-11.7578 1.47534,-17.60573 0.58376,-4.90828 1.50936,-9.76984 2.26219,-14.65505 0.26271,-1.70477 0.78685,-5.11452 0.78685,-5.11452 0,0 1.97327,2.54078 3.60721,4.12205 1.58689,1.53574 4.54772,3.72679 6.70026,5.72631 2.4981,2.32052 4.54369,4.70981 7.19991,7.2656 3.07257,2.79845 4.42211,4.27378 6.3052,6.18989 0.48982,0.5616 2.77675,2.94112 4.02218,4.53092 1.01665,1.29776 1.75703,2.2733 2.80507,4.07325 1.26779,2.17737 2.10349,3.81802 3.47917,5.92888 1.12205,1.72168 2.11196,3.88952 3.64972,5.43976 0.90392,0.91126 2.08622,1.75955 3.18012,2.17115 z"
         style="fill:none;stroke:#000000;stroke-width:0.831525;stroke-linecap:butt;stroke-linejoin:miter;stroke-dasharray:none;stroke-opacity:1" />
    </g>
    <path
       style="display:inline;opacity:1;fill:none;stroke:#000000;stroke-width:1;stroke-linecap:butt;stroke-linejoin:miter;stroke-dasharray:none;stroke-opacity:1"
       d="m 116.70833,364.7995 c 3.66372,5.23107 8.92227,8.73023 13.60093,12.893 5.39728,6.44658 10.77328,10.38025 16.38775,16.59053 5.04803,5.82065 6.19659,7.52457 10.69926,15.34613 1.43258,2.88927 3.25872,5.46349 5.32278,7.92502 1.9616,1.83786 3.38828,2.10456 5.91497,2.22522 l 3.3971,0.0271 c 0,0 2.06598,-2.02662 2.83058,-2.83534 1.89216,-1.7524 2.81426,-4.19422 4.06224,-6.39574 1.47,-2.56045 4.17994,-7.2808 6.6239,-10.88211 3.26946,-5.70442 8.58307,-9.70549 13.2478,-14.19408 3.10224,-3.04829 6.04621,-6.25898 9.22614,-9.22614 2.06374,-1.92565 4.36416,-3.59111 6.38733,-5.55934 1.92006,-1.86791 5.44088,-5.91426 5.44088,-5.91426 0,0 -0.93754,-5.3236 -1.6558,-7.92495 -0.89934,-3.25722 -1.93993,-6.49299 -3.31195,-9.581 -1.26107,-2.83828 -3.09045,-5.3914 -4.49479,-8.16159 -0.5869,-1.15774 -1.01432,-1.93211 -1.6409,-3.53141 -0.15341,-0.3916 -0.28357,-0.76323 -0.36992,-1.08167 -0.43641,-1.60955 -0.49267,-3.30318 -0.59142,-4.96792 -0.11906,-2.0073 -0.11605,-4.02501 0,-6.03248 0.25671,-4.43815 0.92791,-8.84424 1.5377,-13.2478 0.64639,-4.66788 1.42862,-9.31674 2.24738,-13.95749 0.69057,-3.91416 2.82073,-6.81539 2.36565,-10.76385 -0.14286,-1.23961 0.32502,-4.68904 0.48155,-6.61818 0.30937,-3.8128 0.0631,-7.6181 0.10252,-11.44323 0.0342,-3.31177 -0.21759,-6.66975 0.12283,-9.96415 0.78551,-7.60168 2.92255,-9.79432 2.84163,-11.71783 -0.0567,-1.34744 -1.06453,-3.90335 -1.06453,-3.90335 0,0 -3.08596,-0.83152 -4.61307,-1.30112 -2.97937,-0.91618 -6.1389,-1.6155 -8.98087,-2.89582 -2.36768,-1.06665 -4.92252,-2.2459 -6.8692,-3.96467 -1.07586,-0.9499 -2.36565,-3.43021 -2.36565,-3.43021 0,0 -4.24395,0.70479 -6.38733,0.82799 -2.79506,0.16065 -5.59874,-0.0813 -8.39816,-0.11829 -3.19362,-0.0422 -6.38714,-0.0986 -9.58099,-0.11829 -3.82445,-0.0236 -7.65016,0.0932 -11.47355,0 -4.85396,-0.11832 -9.69413,-0.78778 -14.54891,-0.7097 -1.46343,0.0235 -4.37653,0.3548 -4.37653,0.3548 0.10597,0.0537 -1.4274,2.2699 -2.31439,3.0963 -1.48894,1.38723 -3.42704,2.6764 -5.20237,3.67117 -2.46599,1.38177 -5.12343,1.58176 -7.60402,2.59003 -2.51301,1.02144 -7.45507,2.04686 -7.61636,2.20915 -0.63534,1.13385 -0.89368,2.27013 -1.15621,3.92858 -0.25529,1.61275 2.01368,6.88398 2.36568,8.51643 0.17979,0.8338 0.56546,4.04276 0.63741,6.04615 0.0908,2.52705 -0.0491,5.22508 -0.0594,6.23304 -0.0388,3.80251 0.18524,6.26955 0.0813,9.39692 -0.082,2.46804 0.46687,6.85773 0.4581,7.36709 -0.0426,2.48879 1.73097,5.40424 2.4549,8.14636 0.83924,3.17892 1.55657,6.51333 2.18651,9.61809 0.62994,3.10477 1.29706,5.28982 1.88414,7.9488 0.42095,1.90657 0.73278,3.83663 1.17442,5.73851 0.56937,2.45195 1.44866,4.52978 1.90095,7.30838 0.45228,2.77862 1.11057,6.24085 0.63693,9.31777 -0.32863,2.13478 -1.44957,4.07648 -2.36568,6.03248 -1.35467,2.89239 -3.24515,5.51202 -4.61307,8.39816 -0.97489,2.05692 -1.95151,4.13202 -2.71944,6.27518 -0.26457,0.73833 -0.50437,1.48473 -0.71079,2.24125 -0.90272,3.30829 -1.53598,10.17239 -1.53598,10.17239 z"
       id="C44.5"
       inkscape:connector-curvature="0"
       sodipodi:nodetypes="cssccccszsssscsssssssssssssscssscssssscssscssssssazaazasssscc"
       inkscape:label="C44.5 Haut des Rumpfes" />
    <path
       id="C44.9"
       style="font-size:33.2768px;font-family:'.Arial Hebrew Desk Interface';-inkscape-font-specification:'.Arial Hebrew Desk Interface, Normal';display:inline;fill:none;stroke:#000000;stroke-width:1;stroke-dasharray:none"
       d="m 618.93383,143.71544 q -2.7719,3.62043 -7.41057,3.62043 -4.18613,0 -6.84489,-2.65875 -2.60219,-2.71532 -2.60219,-6.78832 0,-4.35583 2.99817,-7.354 3.05474,-2.99817 7.24087,-2.99817 5.31751,0 8.42882,3.95985 3.16787,3.95985 3.16787,10.63501 0,7.24086 -3.28101,11.70984 -3.22446,4.46898 -8.99452,4.46898 -3.05473,0 -5.54378,-1.69709 -2.43247,-1.75366 -2.99817,-4.01642 l 4.80839,-0.7354 q 1.13138,2.14964 4.12955,2.14964 3.22446,0 5.03468,-2.7719 1.86678,-2.82846 1.86678,-7.5237 z m -0.90511,-5.93977 q 0,-2.88504 -1.47081,-4.52555 -1.41423,-1.64049 -3.95985,-1.64049 -2.20619,0 -3.79014,1.75363 -1.58393,1.69709 -1.58393,4.41241 0,2.37592 1.4708,3.95985 1.47081,1.52736 3.8467,1.52736 2.26278,0 3.84672,-1.52736 1.64051,-1.58393 1.64051,-3.95985 z m 15.97264,4.47502 A 21.750674,21.750674 0 0 1 612.25068,164.00135 21.750674,21.750674 0 0 1 590.5,142.25069 21.750674,21.750674 0 0 1 612.25068,120.5 a 21.750674,21.750674 0 0 1 21.75068,21.75069 z"
       inkscape:label="C44.9" />
    <path
       id="C44.8"
       style="font-size:33.2768px;font-family:'.Arial Hebrew Desk Interface';-inkscape-font-specification:'.Arial Hebrew Desk Interface, Normal';display:inline;fill:none;stroke:#000000;stroke-width:1;stroke-dasharray:none"
       d="m 606.21,80.95843 q -3.28102,-2.26276 -3.28102,-6.10946 0,-3.84672 2.77191,-5.88321 2.82845,-2.03649 6.50545,-2.03649 3.62044,0 6.44891,2.03649 2.82846,2.03649 2.82846,5.88321 0,3.8467 -3.28102,6.10946 v 0.0567 q 2.2062,1.01825 3.5073,3.05474 1.35765,1.97992 1.35765,4.35583 0,3.84672 -2.99816,6.61861 -2.99817,2.7719 -7.86314,2.7719 -5.03466,0 -7.97626,-2.7719 -2.88504,-2.82846 -2.88504,-6.61861 0,-2.37591 1.30111,-4.35583 1.35766,-2.03649 3.56385,-3.05474 z m 5.99634,-1.58393 q 1.69709,0 3.05474,-1.01824 1.41423,-1.01825 1.41423,-2.94161 0,-2.09306 -1.35766,-3.1113 -1.30108,-1.07483 -3.11131,-1.07483 -1.97992,0 -3.22444,1.13139 -1.24453,1.13138 -1.24453,3.05474 0,1.86678 1.35767,2.94161 1.41423,1.01824 3.1113,1.01824 z m 0,14.14232 q 2.14963,0 3.79014,-1.24453 1.64051,-1.24452 1.64051,-3.84671 0,-2.09306 -1.58393,-3.5073 -1.58394,-1.41423 -3.84672,-1.41423 -2.20619,0 -3.8467,1.41423 -1.58394,1.41424 -1.58394,3.5073 0,2.60219 1.64051,3.84671 1.64051,1.24453 3.79013,1.24453 z M 634.00133,82.25068 A 21.750674,21.750674 0 0 1 612.25068,104.00136 21.750674,21.750674 0 0 1 590.5,82.25068 21.750674,21.750674 0 0 1 612.25068,60.5 21.750674,21.750674 0 0 1 634.00133,82.25068 Z"
       inkscape:label="C44.8" />
  </g>
</svg>
