<?xml version="1.0" encoding="UTF-8" standalone="no"?>
<!-- Created with Inkscape (http://www.inkscape.org/) -->

<svg
   id="svg4136"
   version="1.1"
   inkscape:version="1.3 (0e150ed, 2023-07-21)"
   width="700"
   height="750"
   viewBox="0 0 700 750"
   sodipodi:docname="level3_C38_17-02.svg"
   xmlns:inkscape="http://www.inkscape.org/namespaces/inkscape"
   xmlns:sodipodi="http://sodipodi.sourceforge.net/DTD/sodipodi-0.dtd"
   xmlns:xlink="http://www.w3.org/1999/xlink"
   xmlns="http://www.w3.org/2000/svg"
   xmlns:svg="http://www.w3.org/2000/svg"
   xmlns:rdf="http://www.w3.org/1999/02/22-rdf-syntax-ns#"
   xmlns:cc="http://creativecommons.org/ns#"
   xmlns:dc="http://purl.org/dc/elements/1.1/">
  <metadata
     id="metadata4142">
    <rdf:RDF>
      <cc:Work
         rdf:about="">
        <dc:format>image/svg+xml</dc:format>
        <dc:type
           rdf:resource="http://purl.org/dc/dcmitype/StillImage" />
      </cc:Work>
    </rdf:RDF>
  </metadata>
  <defs
     id="defs4140">
    <linearGradient
       id="linearGradient5730"
       inkscape:swatch="solid">
      <stop
         style="stop-color:#000000;stop-opacity:1;"
         offset="0"
         id="stop5732" />
    </linearGradient>
    <linearGradient
       id="linearGradient5718"
       inkscape:swatch="gradient">
      <stop
         style="stop-color:#000000;stop-opacity:1;"
         offset="0"
         id="stop5720" />
      <stop
         style="stop-color:#000000;stop-opacity:0;"
         offset="1"
         id="stop5722" />
    </linearGradient>
    <linearGradient
       id="linearGradient4278"
       inkscape:swatch="solid">
      <stop
         style="stop-color:#000000;stop-opacity:1;"
         offset="0"
         id="stop4280" />
    </linearGradient>
    <linearGradient
       id="linearGradient4268"
       inkscape:swatch="solid">
      <stop
         style="stop-color:#000000;stop-opacity:1;"
         offset="0"
         id="stop4270" />
    </linearGradient>
    <marker
       inkscape:stockid="Arrow1Sstart"
       orient="auto"
       refY="0"
       refX="0"
       id="Arrow1Sstart"
       style="overflow:visible"
       inkscape:isstock="true">
      <path
         id="path4262"
         d="M 0,0 5,-5 -12.5,0 5,5 Z"
         style="fill:#000000;fill-opacity:1;fill-rule:evenodd;stroke:#000000;stroke-width:1pt;stroke-opacity:1"
         transform="matrix(0.2,0,0,0.2,1.2,0)"
         inkscape:connector-curvature="0" />
    </marker>
    <marker
       inkscape:stockid="Arrow1Mend"
       orient="auto"
       refY="0"
       refX="0"
       id="Arrow1Mend"
       style="overflow:visible"
       inkscape:isstock="true">
      <path
         id="path4562"
         d="M 0,0 5,-5 -12.5,0 5,5 Z"
         style="fill:#000000;fill-opacity:1;fill-rule:evenodd;stroke:#000000;stroke-width:1pt;stroke-opacity:1"
         transform="matrix(-0.4,0,0,-0.4,-4,0)"
         inkscape:connector-curvature="0" />
    </marker>
    <marker
       inkscape:stockid="Arrow1Mstart"
       orient="auto"
       refY="0"
       refX="0"
       id="Arrow1Mstart"
       style="overflow:visible"
       inkscape:isstock="true">
      <path
         id="path4256"
         d="M 0,0 5,-5 -12.5,0 5,5 Z"
         style="fill:#000000;fill-opacity:1;fill-rule:evenodd;stroke:#000000;stroke-width:1pt;stroke-opacity:1"
         transform="matrix(0.4,0,0,0.4,4,0)"
         inkscape:connector-curvature="0" />
    </marker>
    <marker
       inkscape:stockid="Arrow1Lend"
       orient="auto"
       refY="0"
       refX="0"
       id="Arrow1Lend"
       style="overflow:visible"
       inkscape:isstock="true">
      <path
         id="path4515"
         d="M 0,0 5,-5 -12.5,0 5,5 Z"
         style="fill:#000000;fill-opacity:1;fill-rule:evenodd;stroke:#000000;stroke-width:1pt;stroke-opacity:1"
         transform="matrix(-0.8,0,0,-0.8,-10,0)"
         inkscape:connector-curvature="0" />
    </marker>
    <marker
       inkscape:stockid="Arrow1Lstart"
       orient="auto"
       refY="0"
       refX="0"
       id="Arrow1Lstart"
       style="overflow:visible"
       inkscape:isstock="true">
      <path
         id="path4250"
         d="M 0,0 5,-5 -12.5,0 5,5 Z"
         style="fill:#000000;fill-opacity:1;fill-rule:evenodd;stroke:#000000;stroke-width:1pt;stroke-opacity:1"
         transform="matrix(0.8,0,0,0.8,10,0)"
         inkscape:connector-curvature="0" />
    </marker>
    <linearGradient
       inkscape:collect="always"
       xlink:href="#linearGradient5691"
       id="linearGradient5711"
       gradientUnits="userSpaceOnUse"
       gradientTransform="matrix(0.89977742,0,0,0.89977742,6.4346888,19.098741)"
       x1="49.907101"
       y1="197.56871"
       x2="63.640804"
       y2="197.56871" />
    <linearGradient
       id="linearGradient5691"
       inkscape:swatch="solid">
      <stop
         style="stop-color:#000000;stop-opacity:1;"
         offset="0"
         id="stop5693" />
    </linearGradient>
    <linearGradient
       inkscape:collect="always"
       xlink:href="#linearGradient5730"
       id="linearGradient4197"
       gradientUnits="userSpaceOnUse"
       gradientTransform="matrix(0.76456668,0,0,0.76456668,18.694232,38.263554)"
       x1="49.907101"
       y1="197.56871"
       x2="63.640804"
       y2="197.56871" />
    <linearGradient
       inkscape:collect="always"
       xlink:href="#linearGradient5730"
       id="linearGradient4216"
       gradientUnits="userSpaceOnUse"
       gradientTransform="matrix(0.76456668,0,0,0.76456668,18.694232,38.263554)"
       x1="49.907101"
       y1="197.56871"
       x2="63.640804"
       y2="197.56871" />
    <linearGradient
       y2="197.56871"
       x2="63.640804"
       y1="197.56871"
       x1="49.907101"
       gradientTransform="matrix(0.76456668,0,0,0.76456668,18.694232,38.263554)"
       gradientUnits="userSpaceOnUse"
       id="linearGradient4230"
       xlink:href="#linearGradient5730"
       inkscape:collect="always" />
    <linearGradient
       inkscape:collect="always"
       xlink:href="#linearGradient5730"
       id="linearGradient5796"
       gradientUnits="userSpaceOnUse"
       gradientTransform="matrix(0.76456668,0,0,0.76456668,18.694232,38.263554)"
       x1="49.907101"
       y1="197.56871"
       x2="63.640804"
       y2="197.56871" />
    <linearGradient
       y2="197.56871"
       x2="63.640804"
       y1="197.56871"
       x1="49.907101"
       gradientTransform="matrix(0.76456668,0,0,0.76456668,18.694232,38.263554)"
       gradientUnits="userSpaceOnUse"
       id="linearGradient5799"
       xlink:href="#linearGradient5730"
       inkscape:collect="always" />
  </defs>
  <sodipodi:namedview
     pagecolor="#ffffff"
     bordercolor="#666666"
     borderopacity="1"
     objecttolerance="10"
     gridtolerance="10"
     guidetolerance="10"
     inkscape:pageopacity="0"
     inkscape:pageshadow="2"
     inkscape:window-width="1440"
     inkscape:window-height="900"
     id="namedview4138"
     showgrid="false"
     inkscape:zoom="0.743972"
     inkscape:cx="260.09044"
     inkscape:cy="350.14759"
     inkscape:window-x="0"
     inkscape:window-y="0"
     inkscape:window-maximized="0"
     inkscape:current-layer="svg4136"
     inkscape:showpageshadow="2"
     inkscape:pagecheckerboard="0"
     inkscape:deskcolor="#d1d1d1" />
  <path
     id="C38.8"
     style="font-size:33.2768px;font-family:'.Arial Hebrew Desk Interface';-inkscape-font-specification:'.Arial Hebrew Desk Interface, Normal';display:inline;fill:none;stroke:#000000;stroke-width:1;stroke-dasharray:none"
     d="m 606.21,80.95843 q -3.28102,-2.26276 -3.28102,-6.10946 0,-3.84672 2.77191,-5.88321 2.82845,-2.03649 6.50545,-2.03649 3.62044,0 6.44891,2.03649 2.82846,2.03649 2.82846,5.88321 0,3.8467 -3.28102,6.10946 v 0.0567 q 2.2062,1.01825 3.5073,3.05474 1.35765,1.97992 1.35765,4.35583 0,3.84672 -2.99816,6.61861 -2.99817,2.7719 -7.86314,2.7719 -5.03466,0 -7.97626,-2.7719 -2.88504,-2.82846 -2.88504,-6.61861 0,-2.37591 1.30111,-4.35583 1.35766,-2.03649 3.56385,-3.05474 z m 5.99634,-1.58393 q 1.69709,0 3.05474,-1.01824 1.41423,-1.01825 1.41423,-2.94161 0,-2.09306 -1.35766,-3.1113 -1.30108,-1.07483 -3.11131,-1.07483 -1.97992,0 -3.22444,1.13139 -1.24453,1.13138 -1.24453,3.05474 0,1.86678 1.35767,2.94161 1.41423,1.01824 3.1113,1.01824 z m 0,14.14232 q 2.14963,0 3.79014,-1.24453 1.64051,-1.24452 1.64051,-3.84671 0,-2.09306 -1.58393,-3.5073 -1.58394,-1.41423 -3.84672,-1.41423 -2.20619,0 -3.8467,1.41423 -1.58394,1.41424 -1.58394,3.5073 0,2.60219 1.64051,3.84671 1.64051,1.24453 3.79013,1.24453 z M 634.00133,82.25068 A 21.750674,21.750674 0 0 1 612.25068,104.00136 21.750674,21.750674 0 0 1 590.5,82.25068 21.750674,21.750674 0 0 1 612.25068,60.5 21.750674,21.750674 0 0 1 634.00133,82.25068 Z"
     inkscape:label="C38.8" />
  <path
     style="opacity:0.99;fill:none;fill-rule:evenodd;stroke:#000000;stroke-width:1.30923;stroke-linecap:butt;stroke-linejoin:miter;stroke-miterlimit:4;stroke-dasharray:none;stroke-dashoffset:0;stroke-opacity:1"
     d="m 360.12832,116.99122 c 0,0 -8.10899,2.06715 -11.12455,4.74217 -1.50536,1.33537 -1.79042,3.63285 -3.01267,5.23142 -1.60447,2.09847 -5.59045,5.61676 -5.59045,5.61676 0,0 -1.69891,-2.08804 -2.88463,-2.61658 -0.76831,-0.34248 -2.51045,-0.25678 -2.51045,-0.25678 l -9.60099,7.2835 -8.22281,3.59962 -13.87013,5.11943 -15.06333,5.66738 -14.56121,4.35952 -11.04647,3.05166 -11.54856,2.61571 -11.04642,1.30785 -4.51902,0.43596 2.00847,12.64261 2.00842,9.155 c 0,0 -8.4678,4.43943 -11.04645,8.28309 -2.57865,3.84366 -2.48967,8.97409 -3.51476,13.5145 -0.58657,2.59808 -0.0757,5.60054 -1.50639,7.84714 -1.99741,3.13653 -6.18645,4.15259 -9.03797,6.53928 -3.21003,2.68676 -6.00275,5.83629 -9.038,8.71904 -2.15988,2.05136 -3.96232,4.589 -6.52745,6.10334 -2.42521,1.43174 -5.68822,1.05691 -8.03378,2.6157 -3.19861,2.1257 -5.1953,5.67091 -7.53165,8.71906 -1.81527,2.36832 -3.77297,4.70078 -5.02113,7.41117 -1.3236,2.87421 -2.50579,5.99067 -2.51054,9.155 -0.004,2.5595 1.43206,4.91743 2.00845,7.41119 0.19993,0.86502 0.50209,2.61571 0.50209,2.61571 0,0 -5.25142,2.25226 -7.02954,4.35951 -1.71975,2.03808 -2.33101,4.83307 -3.01267,7.41118 -1.31132,4.95955 -0.84518,10.26197 -2.00845,15.25832 -0.59145,2.54034 -1.40646,5.0481 -2.51056,7.41118 -1.2248,2.62141 -2.95392,4.9776 -4.51899,7.41121 -1.61405,2.50977 -3.18456,5.05932 -5.02111,7.41117 -2.16139,2.76783 -5.36093,4.75714 -7.02956,7.84715 -2.78637,5.15987 -2.12284,11.64986 -4.519,17.00211 -1.49278,3.33439 -4.43629,5.8654 -6.02533,9.155 -1.39738,2.89282 -1.70208,6.22182 -3.01267,9.15498 -1.23137,2.75586 -3.48702,5.01061 -4.51902,7.84716 -1.31189,3.60587 -2.00844,11.33474 -2.00844,11.33474 l 0.50211,16.56618 v 11.33475 l -1.50632,13.51453 c 0,0 -3.0231,8.59121 -3.51478,13.07855 -0.41193,3.75945 0.4184,7.55372 0.5021,11.33475 0.0386,1.74338 -0.14159,3.49338 0,5.23143 0.35666,4.37801 2.13289,13.00378 2.13289,13.00378 l 1.14698,-2.19447 2.92845,-5.70481 2.59648,-2.84542 7.65772,-9.54886 7.9658,-7.62798 9.03039,-6.63052 7.71442,-3.62796 26.09087,-8.18227 c 6.19215,-2.0227 12.89864,-4.3521 18.59705,-5.00528 5.69841,-0.65318 12.74789,-0.65517 15.18853,-0.38563 2.44063,0.26955 13.03558,0.52156 17.95074,0.626 4.91516,0.10444 11.52803,0.15822 11.52803,0.15822 0,0 4.86603,0.16504 9.10785,0.80933 4.24181,0.64429 16.1845,3.8069 16.1845,3.8069 l 4.13987,2.45064 8.24671,4.19637 6.15087,3.16064 10.0036,6.91653 4.68312,3.76431 4.50105,3.71442 3.15618,3.91471 6.65297,8.71906 6.52744,13.95048 2.13751,3.64131 1.49417,6.82099 1.40003,4.35845 1.62129,5.34202 2.23219,8.87671 1.5336,7.03553 0.62766,6.10333 1.38081,10.46287 1.25526,8.71903 1.50632,11.87972 0.91886,6.61849 -0.0404,8.85776 1.00421,11.11681 0.50212,13.07856 1.00424,14.38642 1.50632,12.64261 5.52323,-12.31567 4.51902,-11.22575 4.01687,-9.59093 5.52324,-15.25834 8.53587,-21.79759 7.53167,-21.79761 5.04679,-14.88772 3.75539,-9.37146 6.28902,-13.91496 7.01455,-31.00944 4.21203,-20.18661 2.91771,-12.69496 1.47209,-7.08506 1.78465,-7.85904 4.664,-26.41899 3.01268,-24.4133 -1.88293,-23.10549 0.72633,-13.82265 -1.25199,-14.1019 -0.22702,-9.48885 0.12524,-14.0289 v -20.46333 l -0.30277,-4.19893 0.0364,-3.84986 0.26629,-19.00668 -8.5359,-15.69426 -0.81094,-3.20165 -3.70805,-12.49264 -11.04645,-25.72117 -8.5359,-15.25831 -7.93591,-20.10122 -9.10541,0.79388 c 0,0 -1.44829,-8.26972 -3.98903,-11.38763 -3.02425,-3.71126 -12.31696,-7.38702 -12.31696,-7.38702 z"
     id="C38.4"
     inkscape:connector-curvature="0"
     inkscape:label="C38.4 Pleura"
     sodipodi:nodetypes="caacacccccccccccczaaaaaaaaaacaaaaaaaaaaaccccaaaccccccccczzzczccccccccccccccccccccccccccccccccccccccccccccccccccccccccccacc" />
  <path
     id="C38.3"
     style="font-size:33.2768px;font-family:'.Arial Hebrew Desk Interface';-inkscape-font-specification:'.Arial Hebrew Desk Interface, Normal';display:inline;fill:none;stroke:#000000;stroke-width:1;stroke-dasharray:none"
     inkscape:label="C38.3 Mediastinum"
     d="M 634.00136,142.25069 A 21.750674,21.750674 0 0 1 612.25068,164.00135 21.750674,21.750674 0 0 1 590.5,142.25069 21.750674,21.750674 0 0 1 612.25068,120.5 a 21.750674,21.750674 0 0 1 21.75068,21.75069 z m -17.43601,10.28078 c 0,0 1.74232,0.96725 2.55719,1.23362 0.81483,0.26637 1.57115,0.49968 2.26627,0.418 0.69512,-0.0817 1.13764,-0.42128 1.73304,-0.76633 0.5954,-0.34506 1.28822,-0.95274 1.79972,-1.32369 0.51147,-0.37096 1.61534,-1.10921 1.61534,-1.10921 m -12.48021,-2.65283 c 0,0 1.85382,1.45513 2.53293,1.88103 0.67907,0.42589 0.75436,0.54397 1.46641,0.76633 0.71202,0.22236 1.95137,0.4669 2.79953,0.34833 0.84815,-0.1185 1.36998,-0.49366 2.13297,-0.90568 0.76298,-0.41202 1.90194,-1.18475 2.39961,-1.60233 0.49764,-0.41756 0.87433,-0.90596 0.87433,-0.90596 m -1.06091,-2.85113 c 0,0 1.4121,3.2735 1.38834,4.79015 -0.0238,1.51666 -0.65409,2.98691 -1.26843,3.91332 -0.61434,0.92641 -1.15332,1.17042 -1.933,1.67202 -0.7797,0.50159 -1.79008,1.31113 -2.73288,1.25399 -0.94281,-0.0571 -1.5378,-0.67679 -2.26628,-1.39333 -0.7285,-0.71653 -1.33625,-2.16434 -1.86636,-2.92602 -0.53012,-0.7617 -0.83502,-0.98941 -1.26646,-1.67203 -0.43144,-0.68262 -1.26645,-2.43836 -1.26645,-2.43836 m 11.01698,-7.07462 c 0,0 1.06011,0.26311 1.38095,0.87426 0.32082,0.61112 0.1086,1.28761 -0.24849,2.02034 -0.35719,0.73275 -1.17745,1.53513 -2.01779,2.02035 -0.84037,0.48524 -1.9715,0.70107 -2.8662,0.76633 -0.89472,0.0653 -1.54229,-0.13095 -2.39959,-0.27867 -0.85732,-0.14766 -1.80972,-0.27073 -2.73288,-0.62702 -0.92318,-0.35627 -2.73288,-1.53268 -2.73288,-1.53268 m 8.79853,-6.61838 c 0.33329,0 1.71624,0.0788 2.33295,0.55734 0.6167,0.47841 1.27463,1.12878 1.06648,2.02035 -0.20816,0.89158 -1.65069,1.56063 -2.59957,1.88103 -0.9489,0.32039 -1.79643,-0.0297 -2.79953,0.0697 -1.00311,0.0993 -2.33924,0.75216 -3.19945,0.55734 -0.86023,-0.19481 -1.1131,-0.99317 -1.66641,-1.18435 -0.81048,-0.28006 -1.36557,0.0315 -2.22161,-0.69672 m 8.15396,-6.82739 c 0,0 0.74221,0.6541 0.99984,1.045 0.25761,0.39091 0.53788,0.81046 0.53323,1.25402 -0.004,0.44355 -0.12667,0.7533 -0.53323,1.18435 -0.40654,0.43105 -1.20821,0.87301 -1.99968,1.04501 -0.79145,0.172 -1.78563,-0.0187 -2.59956,-0.13941 -0.81394,-0.1208 -1.44405,-0.34883 -2.26628,-0.55735 -0.82226,-0.20851 -2.66623,-0.69665 -2.66623,-0.69665 m 0.13326,-4.45865 c 0,0 1.77064,1.61487 2.3996,1.95068 0.62894,0.33581 0.73797,0.34838 1.13314,0.34838 0.39516,0 0.65449,-0.25665 1.13315,-0.34833 0.47865,-0.0917 1.26654,-0.0752 1.73304,-0.13942 0.46649,-0.0644 0.70201,-0.0608 1.06649,-0.20901 0.36446,-0.14816 0.86805,-0.16396 1.06648,-0.69667 0.19844,-0.53268 -0.0999,-1.72539 -0.58847,-2.05416 -0.48852,-0.32877 -0.95777,0.27991 -1.38832,0.14924 -0.43054,-0.13067 -0.99983,-0.83601 -0.99983,-0.83601 m -5.02204,0.44195 c 1.08662,0.39194 2.24634,0.50514 3.33279,0.41804 1.08643,-0.087 1.70172,-1.06645 1.99965,-1.39334 0.29793,-0.32691 0.25703,-0.94123 0,-1.18435 -0.25702,-0.2431 -0.7115,-1.23538 -1.59973,-1.39332 -0.88821,-0.15795 -2.67048,-0.31048 -3.19945,-0.41799 -0.52901,-0.10756 -0.89335,0.51283 -0.89335,0.51283 m -2.21388,0.0435 v 0 c 0,0 -0.3567,-0.57809 -0.84839,-0.68967 -0.49172,-0.11155 -1.32797,0.18541 -1.87818,0.45224 -0.55019,0.26682 -1.22062,0.34595 -1.36501,1.07431 -0.14438,0.72835 0.73476,1.91625 1.33312,2.36869 0.59831,0.45242 1.20899,0.40999 1.73304,0.418 0.52404,0.008 1.33311,-0.27868 1.33311,-0.27868 m -11.43711,20.83055 c 0,0 3.24661,1.59474 4.37162,1.74166 1.12501,0.14693 1.9604,-0.26894 2.53292,-0.418 1.51435,-0.51883 2.11166,-0.5477 3.31833,-1.58652 m -10.35952,-3.24861 c 1.55911,1.02845 3.36435,2.32349 5.04152,3.02378 1.67716,0.70028 2.95094,-0.36947 3.99933,-1.25408 1.04837,-0.88463 1.39784,-1.60037 2.13297,-2.36871 m -10.17069,-2.7627 c 0,0 -1.32568,3.35681 -1.13116,5.17229 0.19449,1.81546 1.13771,4.07483 2.35343,5.14816 1.2157,1.07335 2.51486,1.52357 3.88261,1.22042 1.36772,-0.30315 2.49602,-2.02315 3.19946,-2.92603 1.36774,-1.67489 1.35922,-3.72841 1.99961,-5.71272 m -10.71291,-8.05716 c 0,0 -1.75601,1.6356 -1.74495,2.54002 0.32508,1.1426 1.4264,2.18222 2.11787,2.80513 0.69144,0.6229 2.34733,0.11808 3.11699,0.44044 0.76967,0.3223 0.60807,0.95033 1.47649,1.12889 0.8684,0.17857 2.43272,-0.41609 3.35568,-0.84665 0.92296,-0.43057 2.44838,-1.68592 2.44838,-1.68592 m -9.12264,-9.0042 c 0,0 -1.55558,0.74213 -1.99966,1.39337 -0.44411,0.65122 -0.82128,1.37936 -0.53324,2.22933 0.28801,0.84997 1.46496,1.49577 2.39958,1.9507 0.93463,0.45492 1.93305,0.44103 3.06617,0.69666 1.13309,0.25561 2.8414,0.86157 3.73269,0.83601 0.8913,-0.0257 1.04431,-0.0264 1.46643,-0.418 0.42212,-0.39163 0.66653,-1.81137 0.66653,-1.81137 m -6.13228,-8.49939 c 0,0 -1.27818,-0.1044 -1.86637,0.418 -0.58819,0.52227 -1.04773,1.84467 -0.93317,2.64737 0.11451,0.80269 0.44012,1.07595 1.1998,1.672 0.75967,0.59606 2.16824,0.73486 3.46609,1.39335 1.29783,0.65849 3.1286,0.98452 4.73352,-0.19619 m -4.33359,-8.44256 c 0,0 -1.92909,-0.14155 -2.39959,0.418 -0.47052,0.55955 -0.17761,1.29903 0,1.9507 0.17759,0.65167 0.56414,1.30584 1.06648,1.81133 0.50233,0.50549 1.15297,0.91787 1.86637,1.11469 0.71338,0.19682 1.63159,0.2516 2.26627,0 0.63471,-0.25161 1.17313,-1.19403 1.17313,-1.19403 m 0.42661,-3.12535 c 0,0 -0.39582,2.97302 -0.53325,3.90136 -0.1374,0.92835 -0.32962,0.99802 -0.26663,1.67202 0.063,0.67399 0.75729,1.45375 0.79988,2.22937 0.0426,0.77563 -0.47415,1.3828 -0.53325,2.22933 -0.0591,0.84656 0.21117,1.62479 0.26662,2.7867 0.0553,1.16193 0,3.29759 0,4.18005 0,0.88245 0,1.11467 0,1.11467 h 3.19947 c 0,0 -0.10838,-2.27574 -0.26662,-3.06536 -0.15821,-0.78962 -0.45259,-1.15351 -0.53325,-1.672 -0.0807,-0.51849 0.0333,-0.69536 0,-1.39337 -0.0333,-0.698 -0.17666,-1.95074 -0.26662,-2.78669 -0.09,-0.83595 -0.31915,-1.52003 -0.26662,-2.22933 0.0525,-0.70933 0.51131,-1.18663 0.53324,-1.95069 0.0219,-0.76408 -0.55518,-1.74397 -0.53324,-2.50804 0.0219,-0.76407 0.54335,-1.46749 0.53324,-1.95068 -0.0106,-0.48317 -0.26662,-0.83601 -0.26662,-0.83601 z" />
  <path
     style="fill:none;fill-rule:evenodd;stroke:#000000;stroke-width:1.30923;stroke-linecap:butt;stroke-linejoin:miter;stroke-miterlimit:4;stroke-dasharray:none;stroke-opacity:1"
     d="m 413.05209,200.01814 -15.87463,14.97546 c 0.38465,-0.17063 -12.19296,6.25937 -17.12107,9.32376 -4.92811,3.06439 -13.6982,8.65403 -22.73535,12.40816 l 8.72421,12.48179 c 8.98065,11.68722 13.54609,17.94731 14.03322,33.14941 l 0.11981,12.616 c 1.22097,1.62329 2.72446,4.47172 3.11017,5.40054 0.38572,0.92882 3.75953,9.52343 4.72174,12.80058 0.96222,3.27715 1.74169,8.70881 2.27574,13.73001 0.53406,5.02119 1.17711,13.29768 1.85415,17.7255 0.67704,4.42782 1.5748,8.02019 1.92499,10.99083 0.35019,2.97064 0.28449,9.33667 -0.62079,14.01223 -0.90529,4.67557 -2.44472,8.79685 -4.82159,13.72613 -2.37687,4.92928 -7.52408,10.54459 -10.52826,13.9907 -3.04405,3.67334 -10.43827,9.31976 -15.06353,11.76771 -4.62526,2.44794 -21.41786,9.49178 -26.21403,10.92171 -4.79618,1.42993 -14.62454,3.80904 -14.62454,3.80904 l -10.25593,1.39744 c 0,0 -10.23515,-0.37418 -16.44229,-1.33477 -6.20714,-0.96059 -19.37736,-1.36654 -19.37736,-1.36654 l -6.85139,-1.76601 3.68279,1.12788 5.44664,1.35646 12.98832,6.62884 7.93072,4.09956 7.27163,5.50955 8.76926,6.68092 2.38427,2.676 8.94698,11.54266 1.78682,4.30651 5.97488,11.85727 6.05734,21.39795 2.2068,7.85915 0.46206,4.99515 1.54863,10.47444 1.83614,11.74506 34.07551,11.54573 6.56837,-17.57107 6.39083,-19.72895 10.29635,-24.19875 7.36719,-32.90728 5.76949,-26.12541 4.97065,-22.8116 3.55047,-20.96199 3.1345,-27.74383 -1.54572,-25.38347 0.44831,-9.38074 -0.13421,-1.45342 -1.19289,-14.33778 -0.0333,-9.48212 0.0333,-19.41769 0.0131,-0.69806 -0.26092,-21.11189 0.42568,-16.1066 0.0717,-2.32265 -0.25312,-1.25273 -8.45154,-15.01446 -0.59831,-2.52629 z"
     id="C38.2"
     inkscape:connector-curvature="0"
     inkscape:label="C38.2 Hinteres Mediastinum"
     sodipodi:nodetypes="cczcccczzzzzzzzzzcczcccccccccccccccccccccccccccccccccccccccc" />
  <path
     style="fill:none;fill-rule:evenodd;stroke:#000000;stroke-width:1.30923;stroke-linecap:butt;stroke-linejoin:miter;stroke-miterlimit:4;stroke-dasharray:none;stroke-opacity:1"
     d="m 194.35424,242.00131 c -2.63447,1.35047 -10.15291,10.30686 -12.0506,15.33467 -1.89769,5.02781 -1.87097,9.34996 -1.00423,11.9726 0.86674,2.62264 3.01267,3.42075 3.01267,3.42075 0,0 -8.61068,5.46163 -11.04641,10.2622 -2.43573,4.80057 -0.9213,12.249 -2.00842,17.10373 -1.08712,4.85473 -1.66554,7.27991 -4.01687,11.97263 -2.35133,4.69272 -7.50412,9.75089 -10.7339,15.51305 -3.22979,5.76216 -6.42144,13.02916 -8.34624,18.69438 -1.9248,5.66522 -2.18245,9.8702 -4.63551,15.12065 -2.45306,5.25045 -7.42404,10.04264 -9.42354,16.52123 -1.9995,6.47859 -1.16014,16.28666 -1.81564,26.73544 -0.65551,10.44879 -2.7284,26.2841 -3.20545,33.9828 -0.47705,7.6987 0.0291,15.38755 0.11667,23.08123 4.89375,-6.85909 10.42872,-13.38793 16.86257,-18.81431 4.27905,-3.92522 6.25154,-5.74965 10.45308,-7.90607 2.04669,-1.05045 5.2591,-2.74665 8.0201,-3.97299 -5.69921,-4.52789 -11.96261,-8.92874 -16.3721,-16.33309 -0.11011,0.0853 -2.62048,-5.56163 -3.34903,-8.67719 -0.81689,-3.49333 -1.45464,-7.01339 -1.72697,-10.64206 -0.1738,-2.31589 -0.113,-4.69322 -0.1338,-7.08015 -0.0534,-6.12691 3.09773,-16.2109 4.3722,-19.15393 1.27447,-2.94303 2.0177,-5.17504 3.35271,-8.18331 1.33502,-3.00826 2.84405,-5.82533 5.04581,-9.62724 2.20176,-3.80191 4.0254,-6.689 7.15453,-11.57592 3.12912,-4.88692 7.52753,-11.71671 12.19372,-17.58492 4.6662,-5.8682 13.80563,-14.22406 17.07525,-16.66794 3.26961,-2.44388 9.06811,-6.10911 13.67813,-10.73115 4.61001,-4.62205 7.55623,-8.34798 10.62426,-13.4852 0,0 -2.28928,-11.08354 -0.71384,-14.62952 1.57544,-3.54598 3.46274,-11.45732 6.67276,-16.33633 1.35395,-1.62225 5.47432,-6.43939 8.22549,-9.64712 0,0 -22.14378,-3.08586 -26.70124,-3.11091 -1.47127,0.33744 -6.94169,3.09353 -9.57616,4.44399 z"
     id="C38.1"
     inkscape:connector-curvature="0"
     sodipodi:nodetypes="zzzczzzzzzzzzccsccssszzzzzzzczzczz"
     inkscape:label="C38.1 Vorderes Mediastinum" />
  <path
     id="C38.0"
     style="fill:none;fill-rule:evenodd;stroke:#000000;stroke-width:1.30923;stroke-linecap:butt;stroke-linejoin:miter;stroke-miterlimit:4;stroke-dasharray:none;stroke-opacity:1"
     d="m 187.17089,309.32206 c -12.24969,10.66091 -20.90646,25.2727 -22.91746,28.41331 -4.3235,6.75206 -10.65407,16.15319 -14.20186,24.66118 -3.54779,8.50799 -6.77168,16.91565 -7.10092,25.89424 -0.32924,8.97859 1.26462,19.16293 5.2254,26.54814 3.96078,7.38521 16.50073,16.34285 16.50073,16.34285 0,0 12.96125,-4.113 20.33794,-6.29461 7.37669,-2.18161 15.24235,-5.58349 23.93145,-6.75081 8.6891,-1.16732 19.08958,0.0474 27.73669,0.21799 8.64711,0.17058 17.49975,-0.0643 24.14316,0.76293 6.64341,0.82725 11.11314,2.89007 15.64037,3.43477 4.52723,0.5447 5.4189,-0.10666 11.34312,0.26437 5.92422,0.37103 14.76708,3.07982 24.14316,2.46614 9.37608,-0.61368 21.46496,-3.84849 31.24408,-7.39836 9.77912,-3.54987 19.43912,-7.63541 27.10905,-13.56363 7.66993,-5.92822 14.43665,-13.6792 18.33687,-20.96201 3.90022,-7.28281 5.17639,-13.63029 5.68074,-20.96199 0.50435,-7.3317 -1.89101,-14.38582 -2.84037,-22.19504 -0.94936,-7.80922 -1.06754,-17.43614 -2.84037,-24.66121 -1.77283,-7.22507 -4.13539,-13.34696 -7.10091,-18.49587 -2.96552,-5.14891 -6.13802,-7.40915 -9.94131,-12.33059 -3.80329,-4.92144 -8.49211,-12.13406 -12.78168,-17.2628 -4.28957,-5.12874 -8.07122,-10.51329 -12.78165,-13.56364 -4.71043,-3.05035 -3.4863,-4.18948 -14.20185,-4.93224 -10.71555,-0.74276 -14.01846,-0.053 -22.95291,4.06344 -3.30194,1.35531 -8.80414,2.41294 -12.55172,3.51228 -3.74758,1.09934 -9.94128,3.05167 -9.94128,3.05167 0,0 1.01684,7.65574 0,12.80071 -1.01684,5.14497 -1.53883,12.66253 -7.10093,17.26281 -5.5621,4.60028 -17.77116,4.46883 -24.14314,4.93225 -5.29391,0.38501 -17.88368,-0.60325 -21.40277,-2.21402 -2.61839,-1.19848 -12.09095,-6.99891 -17.25161,-10.94947 -6.88877,13.14476 -18.96606,19.32824 -29.32002,27.90721 z"
     inkscape:label="C38.0 Herz"
     inkscape:connector-curvature="0"
     sodipodi:nodetypes="zzzzzczzzzzzzzzzzzzzzzzzzzczzzzcz" />
  <path
     style="fill:none;fill-rule:evenodd;stroke:#000000;stroke-width:1.30923;stroke-linecap:butt;stroke-linejoin:miter;stroke-miterlimit:4;stroke-dasharray:none;stroke-opacity:1"
     d="m 230.29206,240.94028 -7.81106,9.24794 -2.84037,6.16529 -2.13024,5.54876 -1.58105,4.85673 c 17.90464,0.24857 29.22121,0.0651 34.24528,-0.54102 13.24032,-3.58953 28.87389,-4.40235 36.17063,-6.57504 7.21367,-2.14786 14.52194,-4.00042 21.64099,-6.44367 3.74525,-1.28537 7.30986,-3.06661 11.06736,-4.31571 7.22483,-2.40175 14.78727,-3.69426 22.01287,-6.09369 6.99046,-2.32134 13.93081,-4.87248 20.59267,-8.01489 5.23882,-2.47116 10.24093,-5.43456 15.16301,-8.48824 10.7705,-6.68205 19.37864,-10.63188 20.35531,-11.29314 1.23818,-0.83832 2.26384,-1.95456 3.37187,-2.95862 5.82085,-5.27466 11.47836,-10.72683 17.20714,-16.10135 5.68763,-5.33591 11.69592,-10.35187 17.0422,-16.02976 8.61861,-9.15319 17.08936,-18.56989 24.14316,-28.97687 4.45913,-6.57887 8.35073,-13.60668 11.36146,-20.96201 1.29623,-3.16673 3.64606,-6.53891 2.8404,-9.86447 -0.73136,-3.01887 -3.58536,-5.44852 -6.39085,-6.78182 -2.57209,-1.22238 -5.67336,-0.637 -8.52107,-0.61653 -2.37583,0.0171 -5.09744,-0.66048 -7.10096,0.61653 -1.59987,1.01972 -1.63398,3.46799 -2.84038,4.93223 -0.79731,0.96771 -1.61582,2.19662 -2.84038,2.46613 -4.33172,0.95337 -12.78164,-3.69919 -12.78164,-3.69919 l -6.26896,11.77721 c 0,0 6.30024,0.91098 8.39922,3.0195 1.9997,2.00878 3.09785,5.19216 2.84039,8.01488 -0.30157,3.30639 -2.9208,6.01965 -4.97065,8.63141 -4.04159,5.14948 -9.45069,9.0605 -14.20183,13.56364 -5.66034,5.36487 -11.13552,10.93744 -17.04225,16.02977 -5.02454,4.33177 -10.26576,8.41646 -15.62204,12.33059 -6.22628,4.54988 -12.47601,9.12282 -19.17249,12.94711 -9.55883,5.45894 -19.56337,10.19355 -29.82388,14.18018 -7.8457,3.04838 -16.00575,5.24664 -24.14318,7.39835 -8.20633,2.16993 -16.60042,3.56295 -24.85323,5.54877 -8.79385,2.11601 -17.32086,5.49283 -26.2734,6.78181 -6.09473,0.87751 -12.3609,-0.21233 -18.46243,0.61654 -4.34281,0.58996 -12.78162,3.08265 -12.78162,3.08265 z"
     id="path4149"
     inkscape:connector-curvature="0"
     sodipodi:nodetypes="cccccaaaaaasaaaaaaaaaaaaccaaaaaaaaaaaac" />
  <path
     style="fill:none;fill-rule:evenodd;stroke:#000000;stroke-width:1.30923;stroke-linecap:butt;stroke-linejoin:miter;stroke-miterlimit:4;stroke-dasharray:none;stroke-opacity:1"
     d="m 230.48694,240.87227 16.84731,-15.34523 7.81104,-9.86448 8.40623,-5.5759 8.81351,-5.67575 6.74589,-1.07894 16.50962,-3.08264 12.24911,-2.15784 16.83783,-2.8671 4.99748,-1.90326 15.2455,-5.04122 7.4775,-2.82727 15.62202,7.39834 7.5169,4.27831 0.12547,0.10899"
     id="path4151"
     inkscape:connector-curvature="0"
     sodipodi:nodetypes="ccccccccccccccc" />
  <path
     style="fill:none;fill-rule:evenodd;stroke:#000000;stroke-width:1.30923;stroke-linecap:butt;stroke-linejoin:miter;stroke-miterlimit:4;stroke-dasharray:none;stroke-opacity:1"
     d="m 397.17746,214.9936 11.3478,19.78138 7.10092,18.49588 4.97064,16.02976 2.84041,16.64628 3.37029,22.21053 0.72025,10.6299 -0.28905,13.62688 1.10285,7.64222 -0.26353,16.03803 -1.12608,13.91839 -3.04833,20.12751 c -1.40453,7.89133 -4.13269,22.06123 -5.99783,29.73197 -2.12851,11.26364 -4.40991,20.0014 -7.25028,33.15403 l -4.97062,22.19505 -1.91317,8.38666 -7.31805,16.89104 -20.59268,56.72071 -11.36147,30.20993 -11.36149,26.51077 c 0,0 -1.5574,-13.55067 -2.13027,-20.34545 -0.62283,-7.38728 -1.03635,-14.79153 -1.42018,-22.19507 -0.30881,-5.95648 -0.22284,-11.9348 -0.71011,-17.87934 -0.62599,-7.63697 -1.8465,-15.21374 -2.84036,-22.8116 -1.13,-8.63858 -1.77395,-17.36511 -3.55045,-25.89424 -1.95906,-9.40561 -7.81102,-27.74382 -7.81102,-27.74382 L 326.57049,460.24413 314.79305,445.62799 299.171,433.91394 c 0,0 -11.5416,-7.06097 -18.22666,-9.49302 -6.68506,-2.43205 -14.32904,-4.74636 -21.06531,-5.25915 -6.73627,-0.51279 -15.48952,-0.61053 -23.19617,-0.66107 -7.70665,-0.0505 -22.43004,-0.80148 -27.73669,-0.36434 -5.30665,0.43714 -13.66233,3.45061 -21.38069,5.95954 -11.62567,3.80779 -17.65758,4.41614 -23.12677,7.05472 -5.46919,2.63858 -3.11354,1.54607 -7.92629,3.84567 -4.81275,2.2996 -12.66759,9.81698 -17.11225,14.33088 -4.44466,4.5139 -7.65318,8.86518 -9.94128,12.33059 -2.2881,3.46541 -4.26055,8.01489 -4.26055,8.01489 l 0.71008,9.24793 c 0,0 0.8484,6.57071 0.71011,9.86447 -0.19199,4.57262 -2.01255,8.98853 -2.13029,13.56366 -0.0585,2.27221 0.7101,6.78182 0.7101,6.78182 0,0 4.25661,-12.62053 5.68074,-19.11242 1.06775,-4.86735 0.36305,-10.13751 2.13028,-14.7967 1.83228,-4.83071 5.28812,-8.91712 8.5211,-12.94711 3.40386,-4.24299 7.32801,-8.06439 11.36149,-11.71408 5.15134,-4.66118 10.08084,-9.91655 16.33213,-12.9471 7.22299,-3.50161 15.58077,-3.883 23.43304,-5.54876 8.71681,-1.84916 17.38514,-4.29926 26.27342,-4.93221 9.45288,-0.67315 18.97014,0.32871 28.40371,1.23303 8.33746,0.79924 16.70611,1.75596 24.85325,3.69918 8.24821,1.96733 16.94855,3.52701 24.14314,8.01489 6.59545,4.11415 11.36213,10.66918 16.3321,16.64627 3.69074,4.43863 7.14586,9.12959 9.94131,14.18018 3.24093,5.85545 5.90482,12.08055 7.81102,18.49587 1.90319,6.40519 2.27382,13.17009 3.55047,19.72896 1.32384,6.80128 3.39991,13.47019 4.26054,20.34546 0.68983,5.5108 0.71011,16.64629 0.71011,16.64629 l -8.52112,19.11242 -9.23118,20.34548 -9.23122,19.72894 c 0,0 -4.49903,9.76816 -6.39083,14.79668 -1.90085,5.05257 -4.97062,15.41323 -4.97062,15.41323 0,0 7.11729,8.51819 12.07152,10.48101 4.84501,1.91954 15.62205,0.61653 15.62205,0.61653 0,0 10.54864,-3.98974 14.20188,-8.01489 1.96381,-2.16372 3.16496,-5.1184 3.55045,-8.01489 0.8229,-6.18305 -2.47415,-12.26907 -2.84037,-18.49588 -0.39841,-6.77425 0.8517,-13.561 0.71007,-20.34547 -0.12906,-6.18208 -0.95435,-12.32999 -1.42015,-18.49585 -0.48124,-6.37022 -0.41459,-12.80369 -1.4202,-19.11242 -0.46649,-2.92652 -2.13028,-8.6314 -2.13028,-8.6314"
     id="path4153"
     inkscape:connector-curvature="0"
     sodipodi:nodetypes="ccccccccccccccccccccaaaaacccczzzzzzzzzccaacaaaaaaaaaaaaaaaccccacacaaaaaac" />
  <path
     style="fill:none;fill-rule:evenodd;stroke:#000000;stroke-width:1.30923;stroke-linecap:butt;stroke-linejoin:miter;stroke-miterlimit:4;stroke-dasharray:none;stroke-opacity:1"
     d="m 272.1875,204.56503 7.10093,-19.72893 35.50462,-11.09752 c 0,0 36.3454,-10.37172 52.54685,-19.72895 10.08511,-5.8247 26.98351,-22.19505 26.98351,-22.19505 0,0 8.95491,-11.67226 11.36149,-18.49589 1.24039,-3.51702 1.42017,-11.09753 1.42017,-11.09753 l -8.5211,-8.631409 9.94129,-4.932233 9.94132,6.165294 c 0,0 6.02012,-6.099402 9.94128,-7.398358 3.59503,-1.190921 8.68354,-2.677922 11.36146,0 2.90635,2.906349 0.74912,8.289239 0,12.330593 -1.06775,5.760293 -8.10823,18.997433 -8.52113,19.728943 -4.31743,7.6489 -8.15314,15.82645 -14.20183,22.19506 -6.81312,7.17348 -24.14315,17.26281 -24.14315,17.26281 l -38.34499,25.89424 -28.40369,9.86447 z"
     id="path4155"
     inkscape:connector-curvature="0"
     sodipodi:nodetypes="cccacaccccaaaaacccc" />
  <path
     style="display:inline;fill:none;fill-rule:evenodd;stroke:#000000;stroke-width:1.30923;stroke-linecap:butt;stroke-linejoin:miter;stroke-miterlimit:4;stroke-dasharray:none;stroke-opacity:1"
     d="m 384.52845,389.77684 c 0,0 -7.04328,22.23675 -9.41488,33.63537 -1.49411,7.18115 -1.55589,14.60879 -3.01269,21.79761 -1.79314,8.84855 -4.60876,17.45931 -7.02952,26.15713 -2.27061,8.15833 -4.45464,16.34588 -7.02959,24.41332 -2.73212,8.55987 -6.54998,16.76961 -8.92736,25.43471 -1.10466,4.02627 -1.96385,9.87597 -2.46368,12.28049"
     id="path4163"
     inkscape:connector-curvature="0"
     sodipodi:nodetypes="caaaaac" />
  <path
     style="fill:none;fill-rule:evenodd;stroke:#000000;stroke-width:1.30923;stroke-linecap:butt;stroke-linejoin:miter;stroke-miterlimit:4;stroke-dasharray:none;stroke-opacity:1"
     d="m 353.18112,613.50456 c 0,0 0.23494,12.02787 -1.46327,17.69877 -1.27601,4.26103 -4.52445,7.67656 -6.39081,11.71405 -0.83131,1.79837 -2.13029,5.54878 -2.13029,5.54878 0,0 8.92327,2.76394 13.49176,3.69916 4.44709,0.91037 9.01049,1.12598 13.49176,1.8496 6.65505,1.07464 13.3124,2.19007 19.88257,3.69918 4.54488,1.04392 8.92016,2.77932 13.49177,3.69916 4.68014,0.94167 9.95939,4.03863 14.20186,1.8496 2.68881,-1.38737 1.79696,-6.25839 4.26054,-8.01489 2.14625,-1.53024 5.54588,-2.58108 7.81102,-1.23305 2.43573,1.44956 2.47506,5.2041 2.84038,8.01489 0.37208,2.86277 0.29954,5.92685 -0.71009,8.6314 -0.98023,2.62579 -5.82416,4.11215 -4.97065,6.78182 1.59432,4.98683 10.26714,2.51644 14.91194,4.93225 3.66467,1.90603 6.24133,5.56175 9.94129,7.39834 1.32429,0.65735 3.01451,2.02883 4.26054,1.23306 2.62848,-1.67866 2.30921,-6.25854 1.4202,-9.24794 -0.70783,-2.38017 -5.33458,-3.0924 -4.97063,-5.54877 0.40596,-2.73993 4.33713,-4.49896 7.1009,-4.31571 4.24727,0.2816 6.63378,5.33552 9.94128,8.01489 3.79437,3.07378 6.66211,7.92089 11.3615,9.24793 6.77517,1.91321 16.21687,2.42986 20.93452,-2.79576 2.6819,-2.97069 2.25186,-8.46971 0.36825,-12.00094 -2.36682,-4.43712 -8.35269,-5.63284 -12.78165,-8.01489 -4.80912,-2.58651 -10.80074,-3.18796 -14.91194,-6.78179 -2.01,-1.75705 -2.84039,-4.52122 -4.26058,-6.78183 -1.42019,-2.26061 -4.65277,-4.1411 -4.26056,-6.78183 0.32236,-2.17044 4.27065,-2.23611 4.97065,-4.31571 0.73681,-2.18896 -2.92165,-5.02681 -1.42019,-6.78181 2.61927,-3.06156 8.50433,-1.25655 12.07159,0.61651 3.44105,1.80679 4.61151,6.26332 7.10095,9.24795 2.48546,2.97985 4.62649,6.41424 7.81101,8.6314 2.7205,1.8941 6.24029,5.12862 9.23118,3.69918 2.90955,-1.39056 2.89631,-6.02366 2.84037,-9.24794 -0.0754,-4.34798 -2.4078,-8.39638 -4.26054,-12.33059 -1.74336,-3.70196 -3.85989,-7.26571 -6.39084,-10.481 -4.13774,-5.25655 -9.32517,-9.60085 -14.20185,-14.18017 -4.79665,-4.50418 -14.79758,-13.06488 -14.79758,-13.06488 0,0 6.78556,-0.47469 8.40675,-2.96489 1.66706,-2.56066 0.97294,-5.89463 -0.71009,-9.13894 l 3.59285,2.17861 c 0,0 5.29341,2.33451 7.05853,4.49424 2.08959,2.55674 1.14574,6.98504 3.55046,9.24793 1.9884,1.87113 5.11253,2.05023 7.81103,2.4661 4.91265,0.75709 10.6086,2.4877 14.91194,0 1.6425,-0.9495 2.6926,-3.04077 2.84036,-4.9322 0.41149,-5.26719 -3.75562,-9.87669 -5.68074,-14.7967 -2.09602,-5.35679 -4.14951,-10.73214 -6.39082,-16.02978 -1.57932,-3.73295 -2.1616,-8.17546 -4.97063,-11.09753 -1.28182,-1.3334 -4.22501,-0.77347 -4.97066,-2.46611 -1.03458,-2.34853 3.25928,-5.09372 2.13028,-7.39835 -1.34396,-2.74341 -5.68782,-2.23206 -8.51304,-3.39424 -1.51852,-0.62465 -4.53492,-1.92334 -4.53492,-1.92334 0,0 4.77017,-5.93531 8.07729,-5.77996 3.75744,0.1765 5.61798,5.00645 8.52113,7.39835 2.3184,1.91013 4.59494,3.89241 7.10094,5.54877 2.48159,1.64022 5.33344,2.66945 7.81101,4.31572 2.76271,1.83574 4.97752,4.44082 7.81102,6.16529 6.68127,4.06621 11.43347,6.04075 16.33212,2.4661 3.45509,-2.52125 -1.47009,-8.59342 -3.55046,-12.33059 -1.88735,-3.39042 -5.44324,-5.55722 -7.81101,-8.63141 -3.44155,-4.46834 -5.62928,-9.8401 -9.23124,-14.18017 -2.0903,-2.51864 -6.27469,-3.61477 -7.10092,-6.78183 -0.81404,-3.12034 2.64281,-6.02924 2.8404,-9.24795 0.16624,-2.70814 0.32675,-5.93884 -1.42018,-8.01487 -1.94478,-2.31115 -5.93827,-1.51662 -8.52113,-3.08264 -2.81213,-1.70503 -6.93071,-3.40264 -7.26584,-6.67418 -0.1335,-1.30322 1.08945,-2.67807 2.29521,-3.1903 2.64147,-1.12215 6.19869,-0.45309 8.52108,1.23306 1.2982,0.94255 1.02493,3.153 2.13029,4.31571 2.61479,2.75044 7.75983,2.44342 9.94131,5.54877 1.6761,2.38594 0.34061,5.9228 1.42017,8.6314 1.56242,3.92009 4.088,7.52625 7.10092,10.481 2.55748,2.5081 5.53799,4.98154 9.01246,5.85295 3.52711,0.88463 8.18998,1.53691 10.87013,-0.9207 3.07428,-2.81901 2.74944,-8.20572 2.13029,-12.3306 -0.85497,-5.69602 -5.20736,-10.27549 -7.81103,-15.41324 -2.60367,-5.13774 -5.04312,-10.36205 -7.811,-15.41322 -1.11831,-2.04082 -3.55048,-6.01118 -3.55048,-6.01118 l 3.59342,-9.79267 c 0,0 5.65274,9.42846 9.89835,12.72119 2.51391,1.94969 5.78555,4.94672 8.75394,3.80231 4.70108,-1.81243 6.45804,-8.73657 6.2334,-13.76992 -0.34555,-7.74223 -7.88866,-13.35235 -11.43689,-20.24231 -3.84216,-7.46072 -7.08417,-15.21557 -10.65137,-22.8116 -1.6786,-3.57444 -5.05942,-10.7122 -5.05942,-10.7122 3.35666,-2.39633 4.48577,-4.43622 5.14555,-6.40101 0,0 5.02874,7.3872 7.7249,10.9479 2.53633,3.34962 4.06158,8.17744 7.9424,9.78746 3.47588,1.44202 8.70904,1.63783 11.23006,-1.15603 2.47817,-2.74637 1.13085,-7.57544 0,-11.09752 -2.85888,-8.9041 -13.18795,-14.00417 -16.33212,-22.81158 -2.14212,-6.00049 -0.003,-12.82244 -1.23055,-19.07451 -0.57659,-2.93737 -2.8525,-8.5152 -2.8525,-8.5152 0,0 6.75469,7.67133 9.05369,12.17648 1.07704,2.11058 0.52367,5.04016 2.1303,6.7818 2.59746,2.81574 7.25294,6.08374 10.65137,4.31571 3.74176,-1.94664 3.23432,-8.1312 2.84038,-12.3306 -0.44017,-4.69224 -4.04754,-8.52629 -5.68074,-12.9471 -1.41392,-3.82727 -2.22665,-7.85468 -3.55044,-11.71405 -1.07134,-3.1234 -1.74664,-6.48217 -3.55049,-9.24794 -2.55023,-3.91016 -7.56194,-5.84805 -9.9413,-9.86448 -1.30801,-2.20796 -1.98331,-4.83624 -2.13028,-7.39834 -0.15422,-2.68853 1.333,-7.96813 1.333,-7.96813 2.14609,1.44134 5.04184,7.0868 8.2354,9.85212 2.09393,1.81315 4.17618,4.21532 6.83307,4.11481 3.19148,-0.12074 6.98826,-2.46279 7.81104,-5.54876 1.03366,-3.87689 -2.98356,-7.48577 -5.04,-10.93103 -3.02991,-5.07617 -7.43826,-9.21798 -10.65139,-14.1802 -3.19082,-4.92776 -4.57365,-11.06793 -8.52112,-15.41322 -3.66622,-4.03569 -8.63964,-6.76097 -13.49175,-9.24793 -2.96325,-1.51882 -6.08132,-3.07562 -9.39612,-3.39141 -3.28421,-0.31289 -9.77639,1.54182 -9.77639,1.54182 0,0 6.84889,-4.8875 8.12543,-8.62554 1.13508,-3.32379 -1.02451,-10.48687 -1.02451,-10.48687 0,0 9.0453,4.71849 12.07159,8.63141 1.6161,2.08958 1.08161,5.42733 2.84037,7.39835 2.66538,2.98705 7.21174,3.50045 10.65138,5.54877 2.20857,1.31521 4.27524,2.85564 6.39085,4.31569 2.93024,2.02226 5.25857,5.35987 8.72886,6.15545 3.67286,0.84203 8.40675,0.7396 11.15374,-1.83974 3.0748,-2.88715 4.22458,-8.34637 2.84034,-12.33058 -2.58833,-7.44989 -13.23832,-8.8883 -18.46239,-14.79671 -4.47872,-5.06542 -6.1344,-12.2315 -10.6514,-17.26282 -3.80442,-4.23761 -8.69839,-7.40615 -13.49175,-10.48099 -5.61606,-3.60258 -17.75229,-9.24795 -17.75229,-9.24795 l 1.42018,-13.56365 c 0,0 8.60997,1.73905 12.78165,3.08266 7.78383,2.507 15.35732,5.69541 22.72295,9.24794 3.45439,1.66609 6.19756,5.46108 10.02859,5.63962 4.10973,0.19153 10.49604,-0.98317 11.27418,-5.0231 1.73439,-9.00458 -11.35422,-15.89347 -19.17247,-19.72893 -9.51103,-5.05746 -19.45392,-9.41835 -28.40372,-15.41324 -4.05709,-2.71758 -6.99282,-7.06616 -11.36147,-9.24794 -4.5817,-2.28818 -14.91194,-3.69918 -14.91194,-3.69918 l 5.68074,-5.54876 c 0,0 9.48974,0.62051 14.20185,1.23306 4.76471,0.61938 9.46173,1.68045 14.20186,2.4661 2.60044,0.43101 5.59867,2.66612 7.81101,1.23308 3.03802,-1.96787 3.89476,-7.01828 2.84036,-10.48099 -1.00442,-3.29858 -4.62132,-5.47215 -7.81102,-6.78183 -5.9241,-2.43241 -12.95684,0.30885 -19.17248,-1.23306 -7.30329,-1.81172 -13.9573,-5.69942 -20.59269,-9.24794 -4.4346,-2.37156 -8.54902,-5.29928 -12.78168,-8.01489 -3.78292,-2.42707 -12.38643,-4.98351 -11.27274,-7.39835 0.92943,-2.01531 2.81688,-5.70521 2.79422,-7.15008 -0.0426,-2.71439 9.51023,6.47143 14.86937,8.38314 5.65684,2.01791 11.84861,1.97881 17.75229,3.08264 3.08478,0.57677 6.31481,3.00847 9.23123,1.84959 3.04318,-1.20925 5.34874,-4.75713 5.68074,-8.01489 0.47781,-4.68856 -1.83971,-10.21628 -5.68074,-12.94711 -4.25725,-3.02675 -10.55343,0.0297 -15.62203,-1.23306 -9.01388,-2.24571 -17.04223,-7.39835 -25.56335,-11.09753 -6.15414,-2.67163 -12.7863,-4.438193 -18.46242,-8.014878 -3.97806,-2.506688 -6.57383,-6.906536 -10.65136,-9.247943 -4.98609,-2.863123 -10.61966,-6.201685 -16.33213,-5.548761 -3.87406,0.442798 -9.94128,6.165285 -9.94128,6.165285 0,0 -5.74538,-8.118614 -9.94132,-10.480994 -2.53269,-1.425941 -5.92017,-3.146869 -8.52111,-1.849586 -1.01241,0.504964 -1.61563,1.968304 -1.42018,3.082647 0.69844,3.982183 8.5211,8.631409 8.5211,8.631409 l -8.48539,4.060331 c 0,0 -6.52394,-3.811013 -9.26692,-2.210746 -2.95555,1.724278 -2.84037,9.86447 -2.84037,9.86447 0,0 -5.59084,3.454306 -8.52109,4.932236 -4.14709,2.09167 -8.95007,2.9235 -12.78169,5.54878 -1.6676,1.14258 -3.4219,2.47638 -4.26055,4.31569 -1.28266,2.8131 -0.71008,9.24795 -0.71008,9.24795 0,0 9.69765,4.04263 12.78167,8.01488 2.38182,3.06781 3.55043,11.09753 3.55043,11.09753 l 8.25845,-0.80515"
     id="path4165"
     inkscape:connector-curvature="0"
     sodipodi:nodetypes="caacaaaaaaaaaaaaaaaaaaaaaaaaaaaaaaaaaacaccaaaaaaaaaaacaaaassaaaaaaaaaaaaaaaaaaaccaaaaaccaaaaaacaaaaaaaaacsaaaaaaacacaaaaaaaaaaccaaaaaaaccaaaaaaaassaaaaaaaaaacaaaccacaaacacc" />
  <path
     style="fill:none;fill-rule:evenodd;stroke:#000000;stroke-width:1.30923;stroke-linecap:butt;stroke-linejoin:miter;stroke-miterlimit:4;stroke-dasharray:none;stroke-opacity:1"
     d="m 395.34914,95.356801 c 0,0 -0.57266,4.131421 0.57199,5.631299 1.03895,1.36137 3.52836,0.69496 4.7931,1.84959 0.84866,0.77477 1.94427,2.01908 1.52811,3.0902 -1.02551,2.63946 -5.2647,4.06176 -7.91893,3.0751 -2.83604,-1.05425 -3.00593,-5.26163 -4.26057,-8.01489 -0.27385,-0.60095 -0.71008,-1.849588 -0.71008,-1.849588"
     id="path4167"
     inkscape:connector-curvature="0"
     sodipodi:nodetypes="caaaaac" />
  <path
     style="fill:none;fill-rule:evenodd;stroke:#000000;stroke-width:1.30923;stroke-linecap:butt;stroke-linejoin:miter;stroke-miterlimit:4;stroke-dasharray:none;stroke-opacity:1"
     d="m 393.6133,159.5584 6.26902,11.07722 3.1505,5.91312"
     id="path4169"
     inkscape:connector-curvature="0"
     sodipodi:nodetypes="ccc" />
  <path
     style="fill:none;fill-rule:evenodd;stroke:#000000;stroke-width:1.30923;stroke-linecap:butt;stroke-linejoin:miter;stroke-miterlimit:4;stroke-dasharray:none;stroke-opacity:1"
     d="m 414.02847,203.10079 3.90551,13.33244 4.79314,9.01674 3.86265,6.61175 -0.31219,6.41243 -0.2663,13.56365 0.2663,10.48101 v 9.24793 11.09751 19.72895 l 1.42018,16.64629 -0.71009,10.48099 1.42019,15.41324 v 12.94711 l -2.84039,20.96202 -3.55046,20.34544 c 0,0 -1.49238,7.95308 -2.63912,13.39898 -1.14674,5.4459 -4.2286,19.27709 -4.2286,19.27709"
     id="path4171"
     inkscape:connector-curvature="0"
     sodipodi:nodetypes="cccccccccccccccczc" />
  <path
     style="fill:none;fill-rule:evenodd;stroke:#000000;stroke-width:1.30923;stroke-linecap:butt;stroke-linejoin:miter;stroke-miterlimit:4;stroke-dasharray:none;stroke-opacity:1"
     d="m 476.69414,170.65592 c 0,0 -1.28254,-10.51436 2.13031,-13.56364 3.53347,-3.15706 9.69278,-2.07285 14.20183,-0.61652 3.15645,1.01947 5.75855,3.55954 7.81098,6.1653 1.22507,1.55534 2.48535,5.39462 2.48535,5.39462"
     id="path4173"
     inkscape:connector-curvature="0"
     sodipodi:nodetypes="caaac" />
  <path
     style="fill:none;fill-rule:evenodd;stroke:#000000;stroke-width:1.30923;stroke-linecap:butt;stroke-linejoin:miter;stroke-miterlimit:4;stroke-dasharray:none;stroke-opacity:1"
     d="m 456.63404,153.62431 c 6.78043,3.25068 13.77661,3.0939 20.24883,6.8141"
     id="path4175"
     inkscape:connector-curvature="0"
     sodipodi:nodetypes="cc" />
  <path
     style="fill:none;fill-rule:evenodd;stroke:#000000;stroke-width:1.30923;stroke-linecap:butt;stroke-linejoin:miter;stroke-miterlimit:4;stroke-dasharray:none;stroke-opacity:1"
     d="m 467.46295,182.98651 c -2.10588,2.25122 -0.48794,6.20416 0,9.24794 0.71916,4.4861 0.14702,11.01809 4.26054,12.94712 2.53428,1.18845 6.32623,-0.70981 7.81103,-3.08264 1.64002,-2.62089 -1.75314,-6.33749 -0.71007,-9.24795 0.57661,-1.60891 3.49268,-1.99104 3.55044,-3.69918 0.0997,-2.94721 -2.96858,-5.62419 -5.68075,-6.78181 -2.83636,-1.21063 -7.12444,-1.63563 -9.23119,0.61652 z"
     id="path4177"
     inkscape:connector-curvature="0"
     sodipodi:nodetypes="aaaaaaaa" />
  <path
     style="fill:none;fill-rule:evenodd;stroke:#000000;stroke-width:1.30923;stroke-linecap:butt;stroke-linejoin:miter;stroke-miterlimit:4;stroke-dasharray:none;stroke-opacity:1"
     d="m 485.21523,227.99316 c -3.01029,1.24816 -5.95834,4.16837 -6.39078,7.39834 -0.47486,3.54678 3.75805,6.21419 4.63341,9.6839 0.49998,1.98182 -0.95317,4.50548 0.29412,6.12469 1.56838,2.03604 5.09311,3.54884 7.35197,2.32294 2.88812,-1.56739 2.05641,-6.26495 2.63241,-9.5001 0.50603,-2.84217 0.7422,-5.74475 0.7101,-8.63143 -0.0253,-2.27282 0.92271,-5.20058 -0.7101,-6.78181 -2.04576,-1.98112 -5.89049,-1.70727 -8.52113,-0.61653 z"
     id="path4179"
     inkscape:connector-curvature="0"
     sodipodi:nodetypes="aaaaaaaaa" />
  <path
     style="fill:none;fill-rule:evenodd;stroke:#000000;stroke-width:1.30923;stroke-linecap:butt;stroke-linejoin:miter;stroke-miterlimit:4;stroke-dasharray:none;stroke-opacity:1"
     d="m 494.44646,275.46592 c -3.15438,-1.76079 -8.08801,1.21475 -9.94129,4.31569 -1.7062,2.85484 -0.0608,6.73971 0.83562,9.94247 0.6022,2.15158 1.55334,4.28696 2.98744,6.00023 0.69487,0.83014 1.53519,2.08795 2.60714,1.93665 3.07083,-0.43344 4.86138,-4.39678 5.64137,-7.39836 1.25328,-4.8229 2.22081,-12.36788 -2.13028,-14.79668 z"
     id="path4181"
     inkscape:connector-curvature="0"
     sodipodi:nodetypes="aaaaaaa" />
  <path
     style="fill:none;fill-rule:evenodd;stroke:#000000;stroke-width:1.30923;stroke-linecap:butt;stroke-linejoin:miter;stroke-miterlimit:4;stroke-dasharray:none;stroke-opacity:1"
     d="m 494.44646,318.62296 c -2.67031,0.33244 -5.4285,2.41927 -6.39083,4.93223 -1.04356,2.72508 0.47647,5.91022 1.58508,8.60949 1.18943,2.89604 2.32216,6.74746 5.28265,7.76594 2.89822,0.99705 6.64303,-0.59 8.7543,-2.81178 1.90424,-2.00392 1.39272,-5.3507 2.13026,-8.01488 0.45646,-1.64886 2.14962,-3.38463 1.42022,-4.93223 -1.98018,-4.20146 -8.17255,-6.12259 -12.78168,-5.54877 z"
     id="path4183"
     inkscape:connector-curvature="0"
     sodipodi:nodetypes="aaaaaaaa" />
  <path
     style="fill:none;fill-rule:evenodd;stroke:#000000;stroke-width:1.30923;stroke-linecap:butt;stroke-linejoin:miter;stroke-miterlimit:4;stroke-dasharray:none;stroke-opacity:1"
     d="m 502.96757,365.4792 c 1.01289,-2.26723 -2.60311,-4.79979 -4.97066,-5.54877 -3.47466,-1.09921 -7.85301,0.13146 -10.65139,2.46612 -1.37514,1.14726 -1.99795,3.14625 -2.13029,4.93222 -0.20428,2.75683 1.49171,5.32526 2.13029,8.01488 0.53354,2.24718 -0.37254,5.32563 1.42021,6.78184 1.28606,1.04464 3.5819,0.9037 4.97063,0 2.44913,-1.59375 2.94563,-5.15615 3.55047,-8.01489 0.68394,-3.2326 -0.66598,-7.96542 0,-8.6314 1.33896,-1.33896 4.90835,1.72889 5.68074,0 z"
     id="path4185"
     inkscape:connector-curvature="0"
     sodipodi:nodetypes="aaaaaaaaaa" />
  <path
     style="fill:none;fill-rule:evenodd;stroke:#000000;stroke-width:1.30923;stroke-linecap:butt;stroke-linejoin:miter;stroke-miterlimit:4;stroke-dasharray:none;stroke-opacity:1"
     d="m 499.41712,412.95193 c -1.46509,-2.83789 -4.61739,-5.57424 -7.81105,-5.54875 -3.81808,0.0305 -7.50677,3.3752 -9.23118,6.78182 -0.92815,1.83357 0.15643,4.11617 0,6.16531 -0.23739,3.10973 -2.08513,6.20085 -1.4202,9.24792 0.36717,1.68258 1.16171,3.931 2.84037,4.31571 4.29908,0.98524 8.41303,-3.50161 11.36146,-6.78179 2.26893,-2.52423 3.53363,-5.93267 4.2606,-9.24798 0.35214,-1.60592 0.7542,-3.47136 0,-4.93224 z"
     id="path4187"
     inkscape:connector-curvature="0"
     sodipodi:nodetypes="aaaaaaaaa" />
  <path
     style="fill:none;fill-rule:evenodd;stroke:#000000;stroke-width:1.30923;stroke-linecap:butt;stroke-linejoin:miter;stroke-miterlimit:4;stroke-dasharray:none;stroke-opacity:1"
     d="m 493.02628,461.04125 c -1.18678,-3.82339 -6.66174,-5.21788 -10.65139,-5.54878 -1.98461,-0.1646 -3.748,1.36974 -5.68075,1.84958 -3.49743,0.8683 -8.65781,-1.15232 -10.65141,1.8496 -2.33341,3.5136 2.63144,8.11793 2.8404,12.33059 0.0924,1.86238 -2.05089,4.25291 -0.71008,5.54876 2.75904,2.66653 7.79125,-0.44381 11.36147,-1.84959 3.44296,-1.35567 6.74912,-3.42103 9.23121,-6.1653 2.02957,-2.24395 5.15749,-5.12523 4.26055,-8.01486 z"
     id="path4189"
     inkscape:connector-curvature="0"
     sodipodi:nodetypes="aaaaaaaaa" />
  <path
     style="fill:none;fill-rule:evenodd;stroke:#000000;stroke-width:1.30923;stroke-linecap:butt;stroke-linejoin:miter;stroke-miterlimit:4;stroke-dasharray:none;stroke-opacity:1"
     d="m 471.01338,499.88259 c -3.49599,1.21234 -7.25793,3.03512 -9.23118,6.16529 -1.77158,2.81026 -0.8702,6.58826 -1.42018,9.86448 -0.41573,2.47649 -2.49428,5.1285 -1.42019,7.39834 0.92151,1.94739 3.56306,3.47884 5.68073,3.08266 5.03395,-0.94177 6.16758,-8.25188 9.94131,-11.71405 2.35339,-2.15909 6.85553,-2.5013 7.81102,-5.54878 1.04551,-3.33459 -0.61447,-7.96903 -3.55044,-9.86447 -2.19424,-1.41659 -5.34344,-0.23919 -7.81107,0.61653 z"
     id="path4191"
     inkscape:connector-curvature="0"
     sodipodi:nodetypes="aaaaaaaaa" />
  <path
     style="fill:none;fill-rule:evenodd;stroke:#000000;stroke-width:1.30923;stroke-linecap:butt;stroke-linejoin:miter;stroke-miterlimit:4;stroke-dasharray:none;stroke-opacity:1"
     d="m 458.94183,545.50577 c -4.46505,1.16835 -8.79069,3.53564 -12.07157,6.7818 -2.02297,2.00157 -3.64768,4.61934 -4.26056,7.39838 -0.57762,2.61915 -0.73097,5.75281 0.7101,8.01486 0.88167,1.38396 2.62383,2.58375 4.26055,2.46613 3.30848,-0.23776 5.31248,-3.9836 7.811,-6.16532 2.2296,-1.94689 4.61646,-3.79608 6.39085,-6.16527 1.52962,-2.04236 2.94107,-4.304 3.55044,-6.78183 0.44171,-1.79607 1.30785,-4.2409 0,-5.54875 -1.50633,-1.50633 -4.32993,-0.53926 -6.39081,0 z"
     id="path4193"
     inkscape:connector-curvature="0"
     sodipodi:nodetypes="aaaaaaaaaa" />
  <path
     style="fill:none;fill-rule:evenodd;stroke:#000000;stroke-width:1.30923;stroke-linecap:butt;stroke-linejoin:miter;stroke-miterlimit:4;stroke-dasharray:none;stroke-opacity:1"
     d="m 440.47941,600.37688 c -5.1236,0.2359 -10.36494,3.33261 -13.49174,7.39833 -1.80662,2.34911 -1.77263,5.68962 -2.13029,8.63144 -0.32244,2.65209 -0.48693,5.38799 0,8.01486 0.60183,3.24671 0.49052,8.00696 3.55048,9.24793 3.62581,1.47045 7.91501,-2.1356 10.65137,-4.93221 4.54847,-4.64861 5.53138,-11.78827 7.81103,-17.87937 0.83055,-2.21918 3.11469,-4.62648 2.13028,-6.78183 -1.28643,-2.8166 -5.42793,-3.84156 -8.52113,-3.69915 z"
     id="path4195"
     inkscape:connector-curvature="0"
     sodipodi:nodetypes="aaaaaaaaa" />
  <path
     style="fill:none;fill-rule:evenodd;stroke:#000000;stroke-width:1.30923;stroke-linecap:butt;stroke-linejoin:miter;stroke-miterlimit:4;stroke-dasharray:none;stroke-opacity:1"
     d="m 440.47941,633.66944 c 0,0 -1.77523,7.47197 0,10.481 1.51151,2.56202 5.0871,3.12036 7.81102,4.31572 2.97065,1.30363 7.02101,0.70792 9.23121,3.08262 1.30075,1.39755 1.89409,3.69932 1.42019,5.54878 -1.11782,4.36243 -4.72787,9.88188 -9.2312,9.86447 -5.5889,-0.0216 -6.66478,-9.3012 -11.36149,-12.33059 -4.39967,-2.8378 -9.68374,-4.65568 -14.91191,-4.93222 -1.93498,-0.10235 -5.68076,1.23305 -5.68076,1.23305"
     id="path4197"
     inkscape:connector-curvature="0"
     sodipodi:nodetypes="caaaaaaac" />
  <path
     style="fill:none;fill-rule:evenodd;stroke:#000000;stroke-width:1.30923;stroke-linecap:butt;stroke-linejoin:miter;stroke-miterlimit:4;stroke-dasharray:none;stroke-opacity:1"
     d="m 468.17305,640.45127 c 0,0 -4.23224,-10.72665 -8.84592,-13.48696 -3.51078,-2.10046 -7.79122,-1.7458 -12.22595,-1.07899"
     id="path4199"
     inkscape:connector-curvature="0"
     sodipodi:nodetypes="cac" />
  <path
     style="fill:none;fill-rule:evenodd;stroke:#000000;stroke-width:1.30923;stroke-linecap:butt;stroke-linejoin:miter;stroke-miterlimit:4;stroke-dasharray:none;stroke-opacity:1"
     d="m 457.52164,564.61816 c 0,0 0.75264,6.00763 2.13027,8.63143 1.65928,3.16022 4.20894,5.92287 7.10093,8.01489 2.82532,2.04379 7.01297,1.80887 9.60781,4.13832 0.1219,0.10944 3.09987,6.23608 1.00419,9.31312 -2.75966,4.05196 -13.95047,2.88917 -17.00282,3.81137 -2.84753,0.86032 -4.86197,4.70524 -7.81101,4.31569 -2.9345,-0.38763 -6.39086,-6.16531 -6.39086,-6.16531"
     id="path4203"
     inkscape:connector-curvature="0"
     sodipodi:nodetypes="caaaaaac" />
  <path
     style="fill:none;fill-rule:evenodd;stroke:#000000;stroke-width:1.30923;stroke-linecap:butt;stroke-linejoin:miter;stroke-miterlimit:4;stroke-dasharray:none;stroke-opacity:1"
     d="m 453.97119,582.49753 13.19764,-0.90611"
     id="path4205"
     inkscape:connector-curvature="0"
     sodipodi:nodetypes="cc" />
  <path
     style="fill:none;fill-rule:evenodd;stroke:#000000;stroke-width:1.30923;stroke-linecap:butt;stroke-linejoin:miter;stroke-miterlimit:4;stroke-dasharray:none;stroke-opacity:1"
     d="m 419.17664,583.11404 c 0,0 3.77639,6.94977 7.10094,8.6314 3.3844,1.71191 7.88256,2.12717 11.36148,0.61656 2.7049,-1.17452 4.90242,-3.93749 5.68074,-6.78182 0.38479,-1.40621 -0.7101,-4.3157 -0.7101,-4.3157"
     id="path4207"
     inkscape:connector-curvature="0"
     sodipodi:nodetypes="caaac" />
  <path
     style="fill:none;fill-rule:evenodd;stroke:#000000;stroke-width:1.30923;stroke-linecap:butt;stroke-linejoin:miter;stroke-miterlimit:4;stroke-dasharray:none;stroke-opacity:1"
     d="m 431.24819,532.55864 c 0,0 3.50518,5.88421 6.39087,7.39836 3.37324,1.76997 7.55735,1.43339 11.36148,1.23305 10.95978,-0.57719 7.37432,-5.99915 7.89351,-9.35703"
     id="path4209"
     inkscape:connector-curvature="0"
     sodipodi:nodetypes="casc" />
  <path
     style="fill:none;fill-rule:evenodd;stroke:#000000;stroke-width:1.30923;stroke-linecap:butt;stroke-linejoin:miter;stroke-miterlimit:4;stroke-dasharray:none;stroke-opacity:1"
     d="m 445.45005,481.3867 c 0,0 -3.29358,5.50719 -2.13025,8.01487 1.21237,2.61337 5.02734,2.9571 7.81101,3.6992 2.52363,0.67278 5.21859,0.93376 7.81102,0.61652 3.22009,-0.39404 7.33507,-0.45039 9.23122,-3.08266 1.44142,-2.00101 0,-7.39834 0,-7.39834"
     id="path4211"
     inkscape:connector-curvature="0"
     sodipodi:nodetypes="caaaac" />
  <path
     style="fill:none;fill-rule:evenodd;stroke:#000000;stroke-width:1.30923;stroke-linecap:butt;stroke-linejoin:miter;stroke-miterlimit:4;stroke-dasharray:none;stroke-opacity:1"
     d="m 452.55101,439.46272 c 0,0 7.05691,6.35681 11.36147,6.16527 4.82524,-0.21471 10.20176,-3.56147 12.07158,-8.01487 0.48607,-1.15767 -0.7101,-3.69918 -0.7101,-3.69918"
     id="path4213"
     inkscape:connector-curvature="0"
     sodipodi:nodetypes="caac" />
  <path
     style="fill:none;fill-rule:evenodd;stroke:#000000;stroke-width:1.30923;stroke-linecap:butt;stroke-linejoin:miter;stroke-miterlimit:4;stroke-dasharray:none;stroke-opacity:1"
     d="m 468.17305,395.07262 c 0,0 4.13944,7.35437 7.81101,8.01487 2.83538,0.51007 5.69387,-1.74541 7.811,-3.6992 2.09135,-1.93 3.99089,-4.56533 4.26057,-7.39833 0.20605,-2.16454 -2.13029,-6.16531 -2.13029,-6.16531"
     id="path4215"
     inkscape:connector-curvature="0"
     sodipodi:nodetypes="caaac" />
  <path
     style="fill:none;fill-rule:evenodd;stroke:#000000;stroke-width:1.30923;stroke-linecap:butt;stroke-linejoin:miter;stroke-miterlimit:4;stroke-dasharray:none;stroke-opacity:1"
     d="m 469.59319,350.06596 c 0,0 2.12834,6.67175 4.97068,8.01487 2.8068,1.32633 7.00307,0.92859 9.23119,-1.23306 2.09278,-2.03034 1.42017,-8.6314 1.42017,-8.6314"
     id="path4217"
     inkscape:connector-curvature="0"
     sodipodi:nodetypes="caac" />
  <path
     style="fill:none;fill-rule:evenodd;stroke:#000000;stroke-width:1.30923;stroke-linecap:butt;stroke-linejoin:miter;stroke-miterlimit:4;stroke-dasharray:none;stroke-opacity:1"
     d="m 471.01338,308.14197 c 0,0 6.58079,6.67461 10.6514,6.1653 2.62653,-0.32863 5.19978,-2.94584 5.68074,-5.54879 0.41113,-2.22503 -2.84035,-6.16528 -2.84035,-6.16528"
     id="path4219"
     inkscape:connector-curvature="0"
     sodipodi:nodetypes="caac" />
  <path
     style="fill:none;fill-rule:evenodd;stroke:#000000;stroke-width:1.30923;stroke-linecap:butt;stroke-linejoin:miter;stroke-miterlimit:4;stroke-dasharray:none;stroke-opacity:1"
     d="m 465.33264,265.60144 c 0,0 5.94613,4.14297 9.23123,3.69918 2.35663,-0.31836 4.83024,-2.09494 5.68071,-4.3157 0.89807,-2.34506 -1.42013,-7.39836 -1.42013,-7.39836"
     id="path4221"
     inkscape:connector-curvature="0"
     sodipodi:nodetypes="caac" />
  <path
     style="fill:none;fill-rule:evenodd;stroke:#000000;stroke-width:1.30923;stroke-linecap:butt;stroke-linejoin:miter;stroke-miterlimit:4;stroke-dasharray:none;stroke-opacity:1"
     d="m 458.94183,219.36175 c 0,0 3.03539,5.76448 5.68073,7.39835 1.84587,1.14008 4.38232,2.05338 6.39082,1.23306 2.31263,-0.94453 3.6228,-3.75001 4.26058,-6.1653 0.68476,-2.59321 -0.71009,-8.01489 -0.71009,-8.01489"
     id="path4223"
     inkscape:connector-curvature="0"
     sodipodi:nodetypes="caaac" />
  <path
     style="fill:none;fill-rule:evenodd;stroke:#000000;stroke-width:1.30923;stroke-linecap:butt;stroke-linejoin:miter;stroke-miterlimit:4;stroke-dasharray:none;stroke-opacity:1"
     d="m 441.89961,174.97164 c 0,0 7.79479,0.67328 11.36147,-0.61653 1.94227,-0.70238 4.36978,-1.72317 4.97069,-3.69919 0.82467,-2.71181 -2.84042,-8.01486 -2.84042,-8.01486"
     id="path4225"
     inkscape:connector-curvature="0"
     sodipodi:nodetypes="caac" />
  <path
     style="fill:none;fill-rule:evenodd;stroke:#000000;stroke-width:1.30923;stroke-linecap:butt;stroke-linejoin:miter;stroke-miterlimit:4;stroke-dasharray:none;stroke-opacity:1"
     d="m 467.54724,551.34406 c 0,0 2.86006,5.84106 5.59645,7.10882 5.15779,2.3896 11.68476,1.28366 17.04221,-0.61653 1.72357,-0.61132 4.38239,-3.30063 4.38239,-3.30063"
     id="path4227"
     inkscape:connector-curvature="0"
     sodipodi:nodetypes="caac" />
  <path
     style="fill:none;fill-rule:evenodd;stroke:#000000;stroke-width:1.30923;stroke-linecap:butt;stroke-linejoin:miter;stroke-miterlimit:4;stroke-dasharray:none;stroke-opacity:1"
     d="m 475.27396,514.67931 c 0,0 3.91051,7.15057 4.26056,11.0975 0.22184,2.50133 -0.77178,4.97238 -1.42018,7.39837 -0.56143,2.10058 -3.07908,4.20891 -2.13028,6.16529 1.25899,2.59599 8.17438,2.84566 8.17438,2.84566"
     id="path4229"
     inkscape:connector-curvature="0"
     sodipodi:nodetypes="caaac" />
  <path
     style="fill:none;fill-rule:evenodd;stroke:#000000;stroke-width:1.30923;stroke-linecap:butt;stroke-linejoin:miter;stroke-miterlimit:4;stroke-dasharray:none;stroke-opacity:1"
     d="m 485.21523,509.74705 c 0,0 2.30036,6.35587 4.97067,8.01489 1.81789,1.12943 4.31001,0.11606 6.39084,0.61653 2.72149,0.65455 5.07913,3.69236 7.81101,3.08263 3.03159,-0.67662 5.52334,-3.7992 6.39082,-6.78179 0.7013,-2.41124 -0.051,-5.29334 -1.42017,-7.39838 -1.57136,-2.41586 -7.10094,-4.93222 -7.10094,-4.93222"
     id="path4231"
     inkscape:connector-curvature="0"
     sodipodi:nodetypes="caaaaac" />
  <path
     style="fill:none;fill-rule:evenodd;stroke:#000000;stroke-width:1.30923;stroke-linecap:butt;stroke-linejoin:miter;stroke-miterlimit:4;stroke-dasharray:none;stroke-opacity:1"
     d="m 486.63543,471.52224 c 0,0 1.68064,9.36161 4.97064,12.33059 1.82882,1.65037 4.65625,1.74427 7.10094,2.04729 1.77413,0.2199 3.63023,0.26879 5.36,-0.18263 2.17831,-0.56848 5.44155,-0.91723 6.00148,-3.09776 0.73894,-2.87766 -4.97065,-7.39834 -4.97065,-7.39834"
     id="path4233"
     inkscape:connector-curvature="0"
     sodipodi:nodetypes="caaaac" />
  <path
     style="fill:none;fill-rule:evenodd;stroke:#000000;stroke-width:1.30923;stroke-linecap:butt;stroke-linejoin:miter;stroke-miterlimit:4;stroke-dasharray:none;stroke-opacity:1"
     d="m 497.28683,454.25942 c 0,0 2.40709,9.91531 5.68074,13.56362 1.98664,2.21401 5.005,3.32833 7.811,4.31572 2.26619,0.79744 4.74749,0.75054 7.10094,1.23305 2.62114,0.5374 5.20166,1.25753 7.811,1.8496 1.88965,0.42877 5.68077,1.23305 5.68077,1.23305 l 3.5934,-10.25507 c 0,0 -3.59507,-8.61728 -7.14386,-11.32346 -3.93431,-3.00017 -9.25516,-4.21626 -14.20187,-4.31571 -2.44546,-0.0492 -4.71943,2.40743 -7.10092,1.8496 -2.44164,-0.57192 -5.68077,-4.93223 -5.68077,-4.93223"
     id="path4235"
     inkscape:connector-curvature="0"
     sodipodi:nodetypes="caaaaccaaac" />
  <path
     style="fill:none;fill-rule:evenodd;stroke:#000000;stroke-width:1.30923;stroke-linecap:butt;stroke-linejoin:miter;stroke-miterlimit:4;stroke-dasharray:none;stroke-opacity:1"
     d="m 497.28683,422.8164 c 0,0 6.27777,7.86643 8.52109,12.33062 1.65625,3.29592 0.44108,8.49655 3.55048,10.48097 3.21117,2.04937 7.90372,-2.83162 11.36149,-1.23306 3.89192,1.79927 7.22698,10.64099 7.22698,10.64099"
     id="path4237"
     inkscape:connector-curvature="0"
     sodipodi:nodetypes="caaac" />
  <path
     style="fill:none;fill-rule:evenodd;stroke:#000000;stroke-width:1.30923;stroke-linecap:butt;stroke-linejoin:miter;stroke-miterlimit:4;stroke-dasharray:none;stroke-opacity:1"
     d="m 512.90888,423.43294 c 0,0 -2.25321,-6.95126 -0.71011,-9.86448 0.76808,-1.45007 2.61971,-2.48365 4.26054,-2.46609 2.76969,0.0297 4.46854,3.45398 7.10093,4.3157 2.25798,0.73916 4.75298,0.97978 7.10093,0.61654 0.72818,-0.11265 1.45211,-0.40556 2.04152,-0.84775 2.18984,-1.64287 4.47991,-3.74558 5.14555,-6.40101 1.28346,-5.12012 -0.54035,-10.85442 -2.9265,-15.56283 -2.03575,-4.01698 -5.18571,-7.88605 -9.23123,-9.86448 -4.05685,-1.98397 -9.16973,0.0763 -13.49174,-1.23305 -2.06187,-0.62464 -4.16872,-1.54794 -5.68074,-3.08264 -1.79082,-1.81768 -2.04586,-4.72096 -3.55046,-6.78183 -1.19198,-1.63267 -4.26056,-4.31571 -4.26056,-4.31571"
     id="path4239"
     inkscape:connector-curvature="0"
     sodipodi:nodetypes="caaaaaaaaaaac" />
  <path
     style="fill:none;fill-rule:evenodd;stroke:#000000;stroke-width:1.30923;stroke-linecap:butt;stroke-linejoin:miter;stroke-miterlimit:4;stroke-dasharray:none;stroke-opacity:1"
     d="m 515.74921,375.9602 c 0,0 -2.28612,-10.39733 1.42021,-11.71405 2.78919,-0.99089 3.55311,5.32334 6.39082,6.16527 4.1599,1.23421 10.28201,1.0807 12.78165,-2.46611 1.79663,-2.5493 -0.65178,-6.22529 -1.42015,-9.24794 -0.86097,-3.38694 -0.84305,-7.65482 -3.55046,-9.86447 -2.22344,-1.81465 -5.65609,-1.40136 -8.52111,-1.23307 -3.17951,0.18676 -6.60969,0.65734 -9.23122,2.46613 -1.66737,1.15044 -3.55046,4.93225 -3.55046,4.93225"
     id="path4241"
     inkscape:connector-curvature="0"
     sodipodi:nodetypes="caaaaaaac" />
  <path
     style="fill:none;fill-rule:evenodd;stroke:#000000;stroke-width:1.30923;stroke-linecap:butt;stroke-linejoin:miter;stroke-miterlimit:4;stroke-dasharray:none;stroke-opacity:1"
     d="m 508.64829,329.10396 c 0,0 1.44491,7.97209 4.26059,10.48099 4.58535,4.08577 12.2283,2.2481 17.75229,4.93223 3.43425,1.66872 7.22962,3.53031 9.2312,6.78183 1.3109,2.12953 0.57655,4.98805 1.24268,7.39836 0.77888,2.81826 3.19538,8.169 3.19538,8.169"
     id="path4243"
     inkscape:connector-curvature="0"
     sodipodi:nodetypes="caaaac" />
  <path
     style="fill:none;fill-rule:evenodd;stroke:#000000;stroke-width:1.30923;stroke-linecap:butt;stroke-linejoin:miter;stroke-miterlimit:4;stroke-dasharray:none;stroke-opacity:1"
     d="m 541.4344,324.85663 c 0,0 -2.21676,-6.28037 -4.3824,-8.69977 -1.50709,-1.68368 -3.4945,-4.27062 -5.68072,-3.69921 -2.46874,0.64525 -1.32464,5.53415 -3.55046,6.78184 -2.69012,1.50795 -6.37515,-1.77989 -9.23124,-0.61653 -2.29973,0.93674 -4.94824,3.06568 -4.97063,5.54877 -0.0196,2.17245 4.26056,4.93223 4.26056,4.93223"
     id="path4245"
     inkscape:connector-curvature="0"
     sodipodi:nodetypes="caaaaac" />
  <path
     style="fill:none;fill-rule:evenodd;stroke:#000000;stroke-width:1.30923;stroke-linecap:butt;stroke-linejoin:miter;stroke-miterlimit:4;stroke-dasharray:none;stroke-opacity:1"
     d="m 509.3584,307.52543 c 0,0 -1.40577,-6.12109 0,-8.63142 2.30591,-4.11776 7.35406,-7.53344 12.07157,-7.39835 2.88075,0.0825 5.26567,2.7102 7.10092,4.93223 1.86079,2.25294 2.7148,5.21491 3.55047,8.01489 0.41695,1.39702 -9.2e-4,3.04292 0.71009,4.3157 0.76436,1.3683 2.32961,2.09977 3.55044,3.08265 2.97251,2.39314 9.17805,6.84323 9.17805,6.84323"
     id="path4247"
     inkscape:connector-curvature="0"
     sodipodi:nodetypes="caaaaaac" />
  <path
     style="fill:none;fill-rule:evenodd;stroke:#000000;stroke-width:1.30923;stroke-linecap:butt;stroke-linejoin:miter;stroke-miterlimit:4;stroke-dasharray:none;stroke-opacity:1"
     d="m 498.70701,263.75187 c 0,0 -0.8001,-9.36226 2.13025,-12.33059 2.36801,-2.39869 6.62183,-2.43462 9.94131,-1.8496 1.96911,0.34703 3.72324,1.66361 5.1668,3.04707 1.22185,1.17096 2.2181,2.69129 2.76262,4.25963"
     id="path4249"
     inkscape:connector-curvature="0"
     sodipodi:nodetypes="caaac" />
  <path
     style="fill:none;fill-rule:evenodd;stroke:#000000;stroke-width:1.30923;stroke-linecap:butt;stroke-linejoin:miter;stroke-miterlimit:4;stroke-dasharray:none;stroke-opacity:1"
     d="m 494.44646,224.91051 c 0,0 -3.65805,-8.19277 -2.84039,-12.33059 0.63482,-3.21252 2.85729,-6.35619 5.68076,-8.01489 3.28454,-1.92957 7.60668,-1.8758 11.36146,-1.23305 1.73409,0.29684 3.61672,0.94424 4.75896,2.28232 0.72846,0.85336 0.9612,3.22584 0.9612,3.22584"
     id="path4251"
     inkscape:connector-curvature="0"
     sodipodi:nodetypes="caaaac" />
  <path
     style="fill:none;fill-rule:evenodd;stroke:#000000;stroke-width:1.30923;stroke-linecap:butt;stroke-linejoin:miter;stroke-miterlimit:4;stroke-dasharray:none;stroke-opacity:1"
     d="m 504.38775,240.32374 c 0,0 -0.5879,-9.16681 2.13028,-12.33058 2.11409,-2.46065 9.23118,-3.08265 9.23118,-3.08265"
     id="path4253"
     inkscape:connector-curvature="0"
     sodipodi:nodetypes="cac" />
  <path
     style="fill:none;fill-rule:evenodd;stroke:#000000;stroke-width:1.30923;stroke-linecap:butt;stroke-linejoin:miter;stroke-miterlimit:4;stroke-dasharray:none;stroke-opacity:1"
     d="m 480.4132,191.25677 c 0,0 4.752,5.94079 7.64243,8.37603 2.60525,2.19497 8.60908,5.5073 8.60908,5.5073"
     id="path4255"
     inkscape:connector-curvature="0"
     sodipodi:nodetypes="cac" />
  <path
     style="fill:none;fill-rule:evenodd;stroke:#000000;stroke-width:1.30923;stroke-linecap:butt;stroke-linejoin:miter;stroke-miterlimit:4;stroke-dasharray:none;stroke-opacity:1"
     d="m 355.26833,609.00826 c 12.63205,-2.50094 23.68408,1.09542 35.50461,4.31574 6.31778,1.56488 12.80891,2.33246 19.1725,3.69915 4.81921,1.65635 9.61883,2.09159 14.6728,1.86094 l 0.94929,-7.93317 c 0,0 -10.44861,-2.82401 -15.62209,-4.40875 -5.0059,-1.53341 -9.80688,-3.77092 -14.91194,-4.93224 -6.28297,-1.42928 -12.79204,-1.56708 -19.1725,-2.4661 -5.20813,-0.89721 -10.35928,-2.08285 -15.66511,-1.7405"
     id="path4257"
     inkscape:connector-curvature="0"
     sodipodi:nodetypes="caaccaaac" />
  <path
     style="fill:none;fill-rule:evenodd;stroke:#000000;stroke-width:1.30923;stroke-linecap:butt;stroke-linejoin:miter;stroke-miterlimit:4;stroke-dasharray:none;stroke-opacity:1"
     d="m 376.21606,556.60328 c 0,0 13.40495,4.05132 20.23762,5.54877 4.92136,1.07857 10.00994,1.30274 14.91194,2.46611 9.40787,2.23272 19.96903,8.58421 27.69361,8.63143 2.25127,0.0138 4.26057,-5.24052 4.26057,-5.24052 -1.14099,-2.13646 -1.23141,-4.2941 -1.02633,-6.45769 0,0 -13.4764,-3.86716 -20.27646,-5.56462 -6.35571,-1.58654 -12.80289,-2.78586 -19.17248,-4.3157 -4.03815,-0.96988 -8.12616,-1.78615 -12.07159,-3.08265 -3.63937,-1.19593 -10.65139,-4.31572 -10.65139,-4.31572"
     id="path4259"
     inkscape:connector-curvature="0"
     sodipodi:nodetypes="caasccaaac" />
  <path
     style="fill:none;fill-rule:evenodd;stroke:#000000;stroke-width:1.30923;stroke-linecap:butt;stroke-linejoin:miter;stroke-miterlimit:4;stroke-dasharray:none;stroke-opacity:1"
     d="m 393.39504,507.47522 c 0,0 14.34927,7.8869 22.23114,9.67019 5.77505,1.30662 11.86886,-0.0491 17.75234,0.61653 4.31161,0.4878 8.54082,1.54767 12.78163,2.46611 4.29588,0.93037 7.57987,4.58563 12.82103,3.08265 -0.54511,-1.27016 0.31969,-3.50346 0.89668,-5.69035 0.37838,-1.43411 0.52923,-3.55786 0.68721,-4.16558 0.15797,-0.60773 -15.91712,-0.69377 -23.63611,-2.47467 -7.60897,-1.75552 -14.62972,-5.47176 -22.01287,-8.01487 -5.73589,-1.97572 -17.30852,-5.62582 -17.30852,-5.62582"
     id="path4261"
     inkscape:connector-curvature="0"
     sodipodi:nodetypes="caaacszaac" />
  <path
     style="fill:none;fill-rule:evenodd;stroke:#000000;stroke-width:1.30923;stroke-linecap:butt;stroke-linejoin:miter;stroke-miterlimit:4;stroke-dasharray:none;stroke-opacity:1"
     d="m 408.35133,462.34783 c 0,0 11.85325,2.88915 17.86647,3.87998 5.40594,0.89076 10.8766,1.34464 16.33212,1.84961 8.67293,0.80277 26.06265,1.87521 26.06265,1.87521 -0.60059,-2.60352 -1.3421,-3.18384 -2.16471,-4.99251 0,0 -16.7359,-4.7162 -25.25834,-6.38501 -7.27114,-1.42379 -14.90063,-1.00598 -22.01288,-3.08264 -2.90457,-0.84809 -8.25481,-3.77624 -8.25481,-3.77624"
     id="path4263"
     inkscape:connector-curvature="0"
     sodipodi:nodetypes="caaccaac" />
  <path
     style="fill:none;fill-rule:evenodd;stroke:#000000;stroke-width:1.30923;stroke-linecap:butt;stroke-linejoin:miter;stroke-miterlimit:4;stroke-dasharray:none;stroke-opacity:1"
     d="m 417.9058,419.87233 30.38463,6.02673 32.66426,3.69917 c -0.42459,-2.33148 0.18191,-3.55256 1.03888,-7.05627 l -30.86276,-6.50735 -31.24406,-4.93224 v 0"
     id="path4265"
     inkscape:connector-curvature="0"
     sodipodi:nodetypes="ccccccc" />
  <path
     style="fill:none;fill-rule:evenodd;stroke:#000000;stroke-width:1.30923;stroke-linecap:butt;stroke-linejoin:miter;stroke-miterlimit:4;stroke-dasharray:none;stroke-opacity:1"
     d="m 425.74501,378.88868 c 0,0 16.36275,3.59294 24.67572,4.46986 6.59412,0.6956 13.26466,1.0284 19.88256,0.61654 3.64656,-0.22694 7.32546,-0.65878 10.82891,-1.69546 2.26667,-0.67071 6.4749,-2.89213 6.4749,-2.89213 0.0395,-2.43002 -0.005,-4.86806 -1.63426,-7.45664 0,0 -11.794,2.74287 -17.79979,2.79629 -5.97403,0.0531 -11.79228,-2.05412 -17.75232,-2.46612 -4.95882,-0.34279 -10.05716,1.06691 -14.91197,0 -2.99207,-0.65755 -5.49014,-2.72721 -8.34358,-3.85333"
     id="path4267"
     inkscape:connector-curvature="0"
     sodipodi:nodetypes="caaaccaaac" />
  <path
     style="fill:none;fill-rule:evenodd;stroke:#000000;stroke-width:1.30923;stroke-linecap:butt;stroke-linejoin:miter;stroke-miterlimit:4;stroke-dasharray:none;stroke-opacity:1"
     d="m 428.23925,342.05107 c 0,0 17.62618,0.51673 26.44202,0.61653 7.30516,0.0827 14.63217,0.5377 21.91688,-0.0147 6.19219,-0.46958 18.41873,-2.79703 18.41873,-2.79703 -1.30857,0.56096 -3.14271,-2.18266 -5.384,-7.48637 0,0 -15.24551,0.99782 -22.88004,1.0502 -6.39398,0.0439 -12.77907,-0.71177 -19.17249,-0.61653 -6.63953,0.0989 -19.88259,1.23306 -19.88259,1.23306"
     id="path4269"
     inkscape:connector-curvature="0"
     sodipodi:nodetypes="caaccaac" />
  <path
     style="fill:none;fill-rule:evenodd;stroke:#000000;stroke-width:1.30923;stroke-linecap:butt;stroke-linejoin:miter;stroke-miterlimit:4;stroke-dasharray:none;stroke-opacity:1"
     d="m 426.45562,303.97017 c 0,0 18.83828,0.48884 28.22565,-0.14391 4.76312,-0.32106 9.53895,-0.82605 14.20186,-1.8496 6.69727,-1.47011 19.63522,-6.13109 19.63522,-6.13109 -1.55829,-2.08666 -2.82984,-4.14655 -3.26002,-6.12788 0,0 -19.07661,2.26355 -28.65321,2.9603 -10.09156,0.73422 -20.3014,0.82563 -30.32754,1.28379"
     id="path4271"
     inkscape:connector-curvature="0"
     sodipodi:nodetypes="caaccac" />
  <path
     style="fill:none;fill-rule:evenodd;stroke:#000000;stroke-width:1.30923;stroke-linecap:butt;stroke-linejoin:miter;stroke-miterlimit:4;stroke-dasharray:none;stroke-opacity:1"
     d="m 483.11385,245.92408 c 0,0 -9.48037,1.25537 -14.23078,1.79801 -8.03732,0.9181 -16.10478,1.55718 -24.14314,2.46613 -3.31802,0.37519 -6.6085,1.02716 -9.94131,1.23306 -2.83496,0.17514 -8.52111,0 -8.52111,0"
     id="path1" />
  <path
     style="fill:none;fill-rule:evenodd;stroke:#000000;stroke-width:1.30923;stroke-linecap:butt;stroke-linejoin:miter;stroke-miterlimit:4;stroke-dasharray:none;stroke-opacity:1"
     d="m 426.32972,261.28576 c 0,0 18.01173,0.41838 26.93136,-0.61655 8.89134,-1.03165 18.41034,-1.27185 26.27344,-5.54877 1.68446,-0.91622 4.05627,-4.07903 4.05627,-4.07903"
     id="path4273" />
  <path
     style="fill:none;fill-rule:evenodd;stroke:#000000;stroke-width:1.30923;stroke-linecap:butt;stroke-linejoin:miter;stroke-miterlimit:4;stroke-dasharray:none;stroke-opacity:1"
     d="m 421.30691,223.06092 c 0,0 9.50963,-6.13187 14.91196,-7.39836 2.99584,-0.70233 6.20467,0.55545 9.23118,0 3.98463,-0.7313 7.70261,-2.57655 11.3615,-4.31569 4.5659,-2.17027 16.7922,-4.11036 13.12834,-7.59371 -1.10532,-1.05086 -1.95901,-4.80341 -2.03024,-7.25035 -0.16933,-5.81745 -10.46404,5.26118 -16.06875,6.82917 -4.14575,1.15983 -8.67173,0.56863 -12.78167,1.84959 -3.53163,1.10071 -6.50454,3.56374 -9.94128,4.93224 -3.90997,1.55694 -12.07159,3.69916 -12.07159,3.69916"
     id="path4275"
     inkscape:connector-curvature="0"
     sodipodi:nodetypes="caaassaaac" />
  <path
     style="fill:none;fill-rule:evenodd;stroke:#000000;stroke-width:1.30923;stroke-linecap:butt;stroke-linejoin:miter;stroke-miterlimit:4;stroke-dasharray:none;stroke-opacity:1"
     d="m 323.6046,171.24484 c -0.639,-0.86451 -1.17544,-2.74203 -1.71062,-3.67157 l -2.1303,-3.08264 c 0,0 -2.82428,-0.21215 -3.55044,-1.23306 -0.95295,-1.33974 0,-4.93224 0,-4.93224 0,0 -2.60711,0.12707 -3.5505,-0.61652 -1.40648,-1.10861 -2.13024,-4.93224 -2.13024,-4.93224 0,0 -1.96714,-0.68279 -2.84039,-1.23305 -0.79561,-0.50134 -1.57491,-1.09071 -2.13027,-1.8496 -1.05762,-1.44522 -1.60331,-3.22065 -2.13029,-4.93223 -0.36947,-1.19999 -0.71009,-3.69919 -0.71009,-3.69919 0,0 -3.94823,-0.36526 -5.68071,-1.23305 -1.40136,-0.70194 -2.75664,-1.73124 -3.55049,-3.08266 -1.16983,-1.99146 -1.42018,-6.78181 -1.42018,-6.78181 0,0 -3.52146,-1.00957 -4.39365,-2.43321 -2.14768,-3.50557 -1.01788,-5.6692 -2.70726,-8.66432 0,0 -5.76539,-2.37844 -7.10095,-4.93224 -0.66667,-1.27477 0,-4.3157 0,-4.3157 0,0 -3.52184,-2.22722 -4.97064,-3.69918 -2.84202,-2.88746 -7.10091,-9.864475 -7.10091,-9.864475 0,0 4.32662,-5.045098 7.10091,-6.781821 4.49542,-2.814159 9.7817,-4.203773 14.91193,-5.54876 2.54975,-0.668465 5.18217,-1.040262 7.81103,-1.233061 1.79736,-0.131818 5.40629,0.05489 5.40629,0.05489 0,0 -2.31152,3.610679 -3.98608,4.877339 -2.88115,2.179338 -6.52994,3.126953 -9.9413,4.315709 -3.00761,1.048061 -6.09691,1.900249 -9.23123,2.466112 -2.10611,0.380232 -4.27629,0.286228 -6.3908,0.616538 -1.91446,0.299059 -5.68075,1.23305 -5.68075,1.23305"
     id="path4327"
     inkscape:connector-curvature="0"
     sodipodi:nodetypes="cccacacaaacaacscacacaaacaaaac" />
  <path
     style="fill:none;fill-rule:evenodd;stroke:#000000;stroke-width:1.30923;stroke-linecap:butt;stroke-linejoin:miter;stroke-miterlimit:4;stroke-dasharray:none;stroke-opacity:1"
     d="m 301.62577,82.29881 c 0,0 4.11569,4.672689 4.64618,7.591767 0.2245,1.235338 -1.12062,2.512607 -0.71011,3.699174 0.30746,0.888709 1.39398,1.2646 2.13027,1.849588 1.38227,1.098222 3.37759,1.597271 4.28649,3.11076 0.84976,1.414988 0.68414,4.904121 0.68414,4.904121 l 4.26061,4.31572 c 0,0 2.66908,1.15415 3.44276,2.29617 0.73934,1.09133 0.81778,3.86911 0.81778,3.86911 l 3.74106,4.37473 c 0,0 2.40965,1.2806 3.39916,2.1979 1.17186,1.08634 2.12916,2.41744 2.89996,3.81719 0.65229,1.18455 0.4634,2.84302 1.41781,3.80101 1.22559,1.23019 3.38284,0.9493 4.87414,1.83894 1.0768,0.64237 2.32004,1.32532 2.84034,2.46612 0.42639,0.9349 -0.30597,2.1017 0,3.08264 0.37192,1.19238 2.13031,3.08264 2.13031,3.08264 0,0 4.08369,3.22939 4.97064,5.54878 0.66064,1.72758 0,5.54876 0,5.54876 0,0 5.12801,2.37156 7.10091,4.3157 1.29371,1.27486 2.89804,4.61431 2.89804,4.61431"
     id="path4329"
     inkscape:connector-curvature="0"
     sodipodi:nodetypes="caaaaccaccaaaaaacacac" />
  <path
     style="fill:none;fill-rule:evenodd;stroke:#000000;stroke-width:1.30923;stroke-linecap:butt;stroke-linejoin:miter;stroke-miterlimit:4;stroke-dasharray:none;stroke-opacity:1"
     d="m 272.4538,105.38087 c 19.32637,-5.693789 23.70824,-8.165644 33.46311,-13.871905"
     id="path4331"
     inkscape:connector-curvature="0"
     sodipodi:nodetypes="cc" />
  <path
     style="fill:none;fill-rule:evenodd;stroke:#000000;stroke-width:1.30923;stroke-linecap:butt;stroke-linejoin:miter;stroke-miterlimit:4;stroke-dasharray:none;stroke-opacity:1"
     d="m 277.86822,109.77365 c 11.09085,-3.00215 21.56414,-6.11233 29.82389,-14.180176 l -0.0888,-0.15414 0.0888,0.07702"
     id="path4333"
     inkscape:connector-curvature="0"
     sodipodi:nodetypes="cccc" />
  <path
     style="fill:none;fill-rule:evenodd;stroke:#000000;stroke-width:1.30923;stroke-linecap:butt;stroke-linejoin:miter;stroke-miterlimit:4;stroke-dasharray:none;stroke-opacity:1"
     d="m 284.67873,118.69009 c 9.29393,-5.44934 19.53874,-8.93598 28.16154,-15.39"
     id="path4335"
     inkscape:connector-curvature="0"
     sodipodi:nodetypes="cc" />
  <path
     style="fill:none;fill-rule:evenodd;stroke:#000000;stroke-width:1.30923;stroke-linecap:butt;stroke-linejoin:miter;stroke-miterlimit:4;stroke-dasharray:none;stroke-opacity:1"
     d="m 285.84788,123.80611 c 0,0 11.57703,-3.63245 16.90927,-6.45486 5.02759,-2.66116 13.99756,-9.7619 13.99756,-9.7619 v -0.0715"
     id="path4337"
     inkscape:connector-curvature="0"
     sodipodi:nodetypes="cacc" />
  <path
     style="fill:none;fill-rule:evenodd;stroke:#000000;stroke-width:1.30923;stroke-linecap:butt;stroke-linejoin:miter;stroke-miterlimit:4;stroke-dasharray:none;stroke-opacity:1"
     d="m 291.97737,130.15002 c 4.04379,-2.92076 9.78446,-3.28112 14.29458,-5.7338 5.36379,-2.91691 10.18326,-6.33086 14.96392,-10.56354"
     id="path4339"
     inkscape:connector-curvature="0"
     sodipodi:nodetypes="cac" />
  <path
     style="fill:none;fill-rule:evenodd;stroke:#000000;stroke-width:1.30923;stroke-linecap:butt;stroke-linejoin:miter;stroke-miterlimit:4;stroke-dasharray:none;stroke-opacity:1"
     d="m 293.13522,134.43482 c 0,0 12.31313,-4.52011 18.10738,-7.55249 4.73022,-2.47553 9.49849,-4.58646 13.49176,-8.6314"
     id="path4341"
     inkscape:connector-curvature="0"
     sodipodi:nodetypes="cac" />
  <path
     style="fill:none;fill-rule:evenodd;stroke:#000000;stroke-width:1.30923;stroke-linecap:butt;stroke-linejoin:miter;stroke-miterlimit:4;stroke-dasharray:none;stroke-opacity:1"
     d="m 302.72146,141.21665 c 0,0 13.86066,-4.75606 19.88259,-8.78554 3.33525,-2.23173 8.69862,-8.32315 8.69862,-8.32315"
     id="path4343"
     inkscape:connector-curvature="0"
     sodipodi:nodetypes="cac" />
  <path
     style="fill:none;fill-rule:evenodd;stroke:#000000;stroke-width:1.30923;stroke-linecap:butt;stroke-linejoin:miter;stroke-miterlimit:4;stroke-dasharray:none;stroke-opacity:1"
     d="m 304.14165,145.37823 c 0,0 14.61122,-4.89994 21.30279,-8.63143 3.49202,-1.94729 9.67501,-7.09007 9.67501,-7.09007"
     id="path4345"
     inkscape:connector-curvature="0"
     sodipodi:nodetypes="cac" />
  <path
     style="fill:none;fill-rule:evenodd;stroke:#000000;stroke-width:1.30923;stroke-linecap:butt;stroke-linejoin:miter;stroke-miterlimit:4;stroke-dasharray:none;stroke-opacity:1"
     d="m 311.2426,152.16004 26.27342,-13.56365 3.54676,-1.95857"
     id="path4347"
     inkscape:connector-curvature="0"
     sodipodi:nodetypes="ccc" />
  <path
     style="fill:none;fill-rule:evenodd;stroke:#000000;stroke-width:1.30923;stroke-linecap:butt;stroke-linejoin:miter;stroke-miterlimit:4;stroke-dasharray:none;stroke-opacity:1"
     d="m 316.42123,158.36275 -0.17719,-0.11351 c 6.02463,-5.53004 24.26653,-11.56596 27.95348,-17.69428"
     id="path4349"
     inkscape:connector-curvature="0"
     sodipodi:nodetypes="ccc" />
  <path
     style="fill:none;fill-rule:evenodd;stroke:#000000;stroke-width:1.30923;stroke-linecap:butt;stroke-linejoin:miter;stroke-miterlimit:4;stroke-dasharray:none;stroke-opacity:1"
     d="m 319.76368,164.49063 c 0,0 11.55478,-4.9659 17.04224,-8.01487 3.75919,-2.0887 6.9268,-5.11975 10.8289,-7.01303"
     id="path4351"
     inkscape:connector-curvature="0"
     sodipodi:nodetypes="cac" />
  <path
     style="fill:none;fill-rule:evenodd;stroke:#000000;stroke-width:1.30923;stroke-linecap:butt;stroke-linejoin:miter;stroke-miterlimit:4;stroke-dasharray:none;stroke-opacity:1"
     d="m 360.41651,121.17944 c 0,0 -5.65075,1.07483 -7.98855,2.62025 -4.80827,3.17855 -11.39564,13.00549 -11.39564,13.00549 l -3.61562,1.75413 -26.1741,13.60073 c -13.83323,3.50231 -27.22212,8.7262 -41.18537,11.71406 -9.58455,1.83619 -29.11381,3.08265 -29.11381,3.08265 l 2.13026,18.49589 c 0,0 -5.96266,5.21956 -7.811,8.6314 -3.54293,6.53989 -4.5348,14.11648 -5.68073,21.57852 0,0 -5.81763,3.9332 -8.52112,6.1653 -5.93505,4.90019 -11.67292,10.03496 -16.83112,15.80644"
     id="path4353"
     inkscape:connector-curvature="0"
     sodipodi:nodetypes="cacccaccacac" />
  <path
     style="fill:none;fill-rule:evenodd;stroke:#000000;stroke-width:1.30923;stroke-linecap:butt;stroke-linejoin:miter;stroke-miterlimit:4;stroke-dasharray:none;stroke-opacity:1"
     d="m 229.58195,215.66256 25.74085,-0.15411"
     id="path4355"
     inkscape:connector-curvature="0"
     sodipodi:nodetypes="cc" />
  <path
     style="fill:none;fill-rule:evenodd;stroke:#000000;stroke-width:1.52744;stroke-linecap:butt;stroke-linejoin:miter;stroke-miterlimit:4;stroke-dasharray:none;stroke-opacity:1"
     d="m 242.89617,185.76089 15.79957,0.9248 h 12.07157 l 8.52112,-1.84958"
     id="path4357"
     inkscape:connector-curvature="0"
     sodipodi:nodetypes="cccc" />
  <path
     style="fill:none;fill-rule:evenodd;stroke:#000000;stroke-width:1.30923;stroke-linecap:butt;stroke-linejoin:miter;stroke-miterlimit:4;stroke-dasharray:none;stroke-opacity:1"
     d="m 184.65066,433.43235 c 0,0 19.10531,4.26019 28.78309,3.93033 7.17403,-0.24452 14.142,-2.5512 21.08868,-4.35953 4.81543,-1.25353 14.85599,-4.24825 14.23663,-4.48947"
     id="path4359"
     inkscape:connector-curvature="0"
     sodipodi:nodetypes="caac" />
  <path
     style="fill:none;fill-rule:evenodd;stroke:#000000;stroke-width:1.30923;stroke-linecap:butt;stroke-linejoin:miter;stroke-miterlimit:4;stroke-dasharray:none;stroke-opacity:1"
     d="m 146.15083,457.41648 c 0,0 9.3932,11.30553 16.06755,13.07858 6.88621,1.82933 14.01411,-2.64112 21.08869,-3.48763 11.66511,-1.3958 23.48836,-1.17304 35.14777,-2.61571 10.11537,-1.25162 20.18442,-2.98681 30.1267,-5.23143 9.492,-2.14296 19.43142,-3.46199 28.11823,-7.84715 5.97745,-3.01746 15.83433,-12.36079 15.83433,-12.36079"
     id="path4361"
     inkscape:connector-curvature="0"
     sodipodi:nodetypes="caaaaac" />
  <path
     style="fill:none;fill-rule:evenodd;stroke:#000000;stroke-width:1.30923;stroke-linecap:butt;stroke-linejoin:miter;stroke-miterlimit:4;stroke-dasharray:none;stroke-opacity:1"
     d="m 135.22099,471.77644 c 0,0 9.9849,7.83903 14.94672,11.79715 4.70587,3.75395 8.41208,9.24954 14.05913,11.33477 9.42443,3.48006 20.10591,1.58962 30.12667,0.87191 11.86087,-0.8495 23.60688,-3.2381 35.14778,-6.10335 10.93327,-2.71439 21.75899,-6.07653 32.13515,-10.46283 9.75911,-4.12546 19.12891,-9.21417 28.11823,-14.82237 6.22569,-3.88405 17.78186,-12.97733 17.78186,-12.97733"
     id="path4363"
     inkscape:connector-curvature="0"
     sodipodi:nodetypes="caaaaaac" />
  <path
     style="fill:none;fill-rule:evenodd;stroke:#000000;stroke-width:1.30923;stroke-linecap:butt;stroke-linejoin:miter;stroke-miterlimit:4;stroke-dasharray:none;stroke-opacity:1"
     d="m 130.78813,490.65008 c 0,0 7.94751,13.43775 14.35849,17.33683 5.85318,3.55983 13.2555,3.81366 20.08442,4.35954 16.04004,1.28218 32.24811,-0.52339 48.20271,-2.61572 9.83417,-1.28968 19.49821,-3.70575 29.12244,-6.10333 9.12987,-2.27443 18.55954,-3.92945 27.11403,-7.84713 8.71636,-3.9918 15.95473,-10.64033 24.10132,-15.69429 8.25813,-5.12316 25.10554,-14.82238 25.10554,-14.82238"
     id="path4365"
     inkscape:connector-curvature="0"
     sodipodi:nodetypes="caaaaaac" />
  <path
     style="fill:none;fill-rule:evenodd;stroke:#000000;stroke-width:1.30923;stroke-linecap:butt;stroke-linejoin:miter;stroke-miterlimit:4;stroke-dasharray:none;stroke-opacity:1"
     d="m 328.15355,484.29137 c 0,0 -14.20597,8.84136 -21.32711,13.2327 -5.68098,3.50325 -11.32169,7.0742 -17.07177,10.46284 -7.62247,4.49208 -14.84009,9.90024 -23.09715,13.07858 -11.20307,4.31234 -23.25147,6.24017 -35.1478,7.84713 -23.58085,3.1853 -47.66584,6.25158 -71.29978,3.48762 -6.23014,-0.72861 -13.08566,-1.43118 -18.07601,-5.23143 -4.07044,-3.09972 -8.03377,-13.07856 -8.03377,-13.07856 0,0 6.94574,18.56525 13.0549,26.15712 3.77392,4.68986 8.9085,8.21891 14.05911,11.33474 5.62024,3.39993 11.63086,6.57957 18.076,7.84718 13.46941,2.64913 27.47212,-0.0202 41.17313,-0.87193 14.10678,-0.87694 28.87686,0.42252 42.17733,-4.35951 11.35215,-4.08153 20.57749,-12.68201 30.12669,-20.05379 13.83734,-10.68213 39.16468,-34.87618 39.16468,-34.87618"
     id="path4367"
     inkscape:connector-curvature="0"
     sodipodi:nodetypes="caaaaaacaaaaaac" />
  <path
     style="fill:none;fill-rule:evenodd;stroke:#000000;stroke-width:1.30923;stroke-linecap:butt;stroke-linejoin:miter;stroke-miterlimit:4;stroke-dasharray:none;stroke-opacity:1"
     d="m 336.8365,522.91054 c 0,0 -14.28179,12.61443 -21.9763,18.20875 -8.33673,6.06125 -17.40051,11.05356 -26.10975,16.56618 -7.35926,4.65813 -14.21545,10.23531 -22.09293,13.95044 -9.24391,4.35956 -19.08211,7.68102 -29.12242,9.59096 -9.88183,1.8798 -20.07185,1.45304 -30.12668,1.74379 -9.03423,0.26124 -18.43203,2.51169 -27.11402,0 -8.3665,-2.42042 -15.10233,-8.75538 -22.0929,-13.95044 -2.49068,-1.85095 -7.02956,-6.10334 -7.02956,-6.10334 0,0 12.15343,17.47483 20.08446,24.41333 6.22549,5.4464 13.30884,10.26885 21.08866,13.07856 7.94652,2.86992 16.67679,2.90495 25.10556,3.48761 13.69171,0.94647 28.08544,4.13166 41.17314,0 10.13689,-3.20012 17.99115,-11.44811 26.10976,-18.30999 6.5502,-5.53625 11.49634,-12.80878 18.07602,-18.30997 5.91556,-4.94592 13.1075,-8.20184 19.08023,-13.07857 5.9819,-4.88422 16.65583,-16.10377 16.65583,-16.10377"
     id="path4369"
     inkscape:connector-curvature="0"
     sodipodi:nodetypes="caaaaaaacaaaaaaac" />
  <path
     style="fill:none;fill-rule:evenodd;stroke:#000000;stroke-width:1.30923;stroke-linecap:butt;stroke-linejoin:miter;stroke-miterlimit:4;stroke-dasharray:none;stroke-opacity:1"
     d="m 324.90762,577.431 c 0,0 -15.70409,10.25607 -23.10231,16.00252 -4.90142,3.8071 -9.04122,8.55445 -14.05911,12.20668 -7.27212,5.29295 -14.87828,10.2967 -23.09711,13.95044 -7.34899,3.26704 -15.07887,6.35156 -23.09711,6.97524 -8.42344,0.6552 -16.69441,-2.69012 -25.10557,-3.48762 -5.67257,-0.53784 -11.56765,0.60181 -17.07179,-0.8719 -6.1724,-1.65264 -17.07178,-8.71903 -17.07178,-8.71903 0,0 10.20775,12.1338 16.06754,17.43808 4.65869,4.21704 9.53706,8.34363 15.06337,11.33474 7.5134,4.06662 15.58553,8.03392 24.10135,8.71906 7.80974,0.62834 15.76583,-1.5956 23.0971,-4.35953 8.00775,-3.01897 15.02697,-8.2504 22.09289,-13.07856 8.95163,-6.11667 25.60768,-20.05379 25.60768,-20.05379"
     id="path4371"
     inkscape:connector-curvature="0"
     sodipodi:nodetypes="caaaaaacaaaaac" />
  <path
     style="fill:none;fill-rule:evenodd;stroke:#000000;stroke-width:1.30923;stroke-linecap:butt;stroke-linejoin:miter;stroke-miterlimit:4;stroke-dasharray:none;stroke-opacity:1"
     d="m 300.67558,635.3939 c 0,0 -14.45698,15.49182 -22.97158,21.68862 -5.86478,4.2683 -12.18851,8.20051 -19.08024,10.46286 -8.34256,2.73861 -17.35018,4.09393 -26.10978,3.48762 -8.66478,-0.59974 -17.62708,-2.55818 -25.10556,-6.97524 -7.00406,-4.13685 -11.54816,-11.46651 -17.07181,-17.43808 -7.6001,-8.2164 -14.77843,-16.81352 -22.09288,-25.28522 -6.74099,-7.80751 -14.03298,-15.18809 -20.08446,-23.5414 -6.78995,-9.37268 -13.90582,-18.84847 -18.076,-29.64477 -3.83876,-9.93826 -4.68664,-20.81911 -6.02532,-31.38854 -0.71788,-5.66792 -1.50822,-11.30074 -1.06743,-17.10635 0.27061,-3.56411 2.04544,-9.20452 2.20469,-10.50115"
     id="path4373"
     inkscape:connector-curvature="0"
     sodipodi:nodetypes="caaaaaaaaasc" />
  <path
     style="fill:none;fill-rule:evenodd;stroke:#000000;stroke-width:1.30923;stroke-linecap:butt;stroke-linejoin:miter;stroke-miterlimit:4;stroke-dasharray:none;stroke-opacity:1"
     d="m 343.1838,648.44511 c 0,0 -8.56153,1.32523 -12.25603,3.40601 -4.80492,2.70618 -7.52333,8.18614 -12.05069,11.33474 -4.2949,2.98693 -9.31497,4.77036 -14.05907,6.97523 -2.64743,1.23042 -8.0338,3.48762 -8.0338,3.48762 0,0 4.43834,-8.41599 8.0338,-11.33475 2.83319,-2.29996 7.10204,-2.19799 10.04219,-4.35954 2.47543,-1.8199 3.66345,-5.01019 6.02534,-6.97521 2.28971,-1.90497 7.71182,-4.51364 7.71182,-4.51364"
     id="path4375"
     inkscape:connector-curvature="0"
     sodipodi:nodetypes="caaacaaac" />
  <path
     style="fill:none;fill-rule:evenodd;stroke:#000000;stroke-width:1.30923;stroke-linecap:butt;stroke-linejoin:miter;stroke-miterlimit:4;stroke-dasharray:none;stroke-opacity:1"
     d="m 235.78603,163.14734 c -1.24777,0.0145 -1.43688,0.11974 -4.00998,1.23677 -2.5731,1.11703 -12.56468,3.20248 -17.33806,7.91965 -4.77338,4.71717 -6.33412,13.81587 -9.038,19.18189 -2.70388,5.36602 -2.4434,6.70088 -7.02956,13.07857 -4.58616,6.37769 -16.86863,17.00875 -22.09291,23.54142 -5.22428,6.53267 -6.46102,8.7418 -10.04221,14.82236 -3.58119,6.08056 -7.03973,12.2435 -11.04645,21.79759 -4.00672,9.55409 -7.52309,24.11188 -12.05067,35.74806 -4.52758,11.63618 -10.27255,20.93197 -15.06332,34.00428 -4.79077,13.07231 -9.58009,27.87338 -13.05489,44.4671 -3.4748,16.59372 -5.8446,39.64054 -7.02958,54.92997 -1.18498,15.28943 -2.35793,25.61845 -1.00421,36.61999 1.35372,11.00154 5.2906,19.39979 8.03379,28.77281 2.74319,9.37302 7.95075,26.54582 7.95075,26.54582"
     id="path4234"
     inkscape:connector-curvature="0"
     sodipodi:nodetypes="czzzzzzzzzzzzzc" />
  <path
     style="fill:none;fill-rule:evenodd;stroke:#000000;stroke-width:1.30923;stroke-linecap:butt;stroke-linejoin:miter;stroke-miterlimit:4;stroke-dasharray:none;stroke-opacity:1"
     d="m 167.00627,294.03796 c 0,0 -12.5236,-1.08878 -15.83433,2.07624 -3.31073,3.16502 -2.62935,7.79332 -2.00844,11.33477 0.62091,3.54145 3.06963,7.33411 5.02112,8.71903 1.95149,1.38492 4.22223,0.79485 4.22223,0.79485"
     id="path4236"
     inkscape:connector-curvature="0"
     sodipodi:nodetypes="czzzc" />
  <path
     style="fill:none;fill-rule:evenodd;stroke:#000000;stroke-width:1.30923;stroke-linecap:butt;stroke-linejoin:miter;stroke-miterlimit:4;stroke-dasharray:none;stroke-opacity:1"
     d="m 144.77002,339.60045 c 0,0 -2.59577,-0.6614 -5.66292,0.63428 -3.06715,1.29568 -8.8624,5.3551 -11.03227,9.06564 -2.16987,3.71054 -2.68761,7.93061 -2.00846,11.33475 1.0479,2.93836 2.77059,7.31451 6.02535,7.84713"
     id="path4238"
     inkscape:connector-curvature="0"
     sodipodi:nodetypes="czzzc" />
  <path
     style="fill:none;fill-rule:evenodd;stroke:#000000;stroke-width:1.30923;stroke-linecap:butt;stroke-linejoin:miter;stroke-miterlimit:4;stroke-dasharray:none;stroke-opacity:1"
     d="m 127.19244,388.58896 c 0,0 -4.00615,1.60809 -5.75068,3.06745 -1.74453,1.45936 -3.42421,2.46502 -4.4134,5.5987 -0.98919,3.13368 0.0694,9.36478 0.70489,12.56779 0.63552,3.20301 0.59592,5.03772 2.30779,6.61408 1.71187,1.57636 6.73543,1.7438 6.73543,1.7438"
     id="path4240"
     inkscape:connector-curvature="0"
     sodipodi:nodetypes="czzzzc" />
  <path
     style="fill:none;fill-rule:evenodd;stroke:#000000;stroke-width:1.30923;stroke-linecap:butt;stroke-linejoin:miter;stroke-miterlimit:4;stroke-dasharray:none;stroke-opacity:1"
     d="m 122.7648,445.67222 c 0,0 -4.11167,1.75082 -5.56374,3.78238 -1.45207,2.03156 -1.66842,4.14994 -2.18111,7.96188 -0.51269,3.81194 -2.25056,10.86005 0,14.82237 2.25056,3.96232 10.75231,6.41159 10.75231,6.41159"
     id="path4242"
     inkscape:connector-curvature="0"
     sodipodi:nodetypes="czzzc" />
  <path
     style="fill:none;fill-rule:evenodd;stroke:#000000;stroke-width:1.30923;stroke-linecap:butt;stroke-linejoin:miter;stroke-miterlimit:4;stroke-dasharray:none;stroke-opacity:1"
     d="m 162.84602,249.68533 12.42725,2.8337 4.26795,0.43595"
     id="path4244"
     inkscape:connector-curvature="0"
     sodipodi:nodetypes="ccc" />
</svg>
