<?xml version="1.0" encoding="UTF-8" standalone="no"?>
<!-- Created with Inkscape (http://www.inkscape.org/) -->

<svg
   xmlns:dc="http://purl.org/dc/elements/1.1/"
   xmlns:cc="http://creativecommons.org/ns#"
   xmlns:rdf="http://www.w3.org/1999/02/22-rdf-syntax-ns#"
   xmlns:svg="http://www.w3.org/2000/svg"
   xmlns="http://www.w3.org/2000/svg"
   xmlns:sodipodi="http://sodipodi.sourceforge.net/DTD/sodipodi-0.dtd"
   xmlns:inkscape="http://www.inkscape.org/namespaces/inkscape"
   width="270mm"
   height="270mm"
   viewBox="0 0 956.69289 956.69289"
   id="svg4871"
   version="1.1"
   inkscape:version="0.92.3 (2405546, 2018-03-11)"
   sodipodi:docname="Level3_C63.svg">
  <defs
     id="defs4873" />
  <sodipodi:namedview
     id="base"
     pagecolor="#ffffff"
     bordercolor="#666666"
     borderopacity="1.0"
     inkscape:pageopacity="0.0"
     inkscape:pageshadow="2"
     inkscape:zoom="0.35"
     inkscape:cx="140.67922"
     inkscape:cy="459.727"
     inkscape:document-units="px"
     inkscape:current-layer="layer1"
     showgrid="false"
     inkscape:window-width="1680"
     inkscape:window-height="987"
     inkscape:window-x="-8"
     inkscape:window-y="-8"
     inkscape:window-maximized="1" />
  <metadata
     id="metadata4876">
    <rdf:RDF>
      <cc:Work
         rdf:about="">
        <dc:format>image/svg+xml</dc:format>
        <dc:type
           rdf:resource="http://purl.org/dc/dcmitype/StillImage" />
        <dc:title></dc:title>
      </cc:Work>
    </rdf:RDF>
  </metadata>
  <g
     inkscape:label="Laag 1"
     inkscape:groupmode="layer"
     id="layer1"
     transform="translate(0,-95.66929)">
    <path
       inkscape:connector-curvature="0"
       id="0"
       style="fill:none;fill-rule:evenodd;stroke:#000000;stroke-width:1.25;stroke-linecap:butt;stroke-linejoin:miter;stroke-miterlimit:4;stroke-dasharray:none;stroke-opacity:1"
       d="m 297.48667,797.01692 2.70971,14.59487 -0.90323,15.4534 -5.41943,15.45338 v 5.15114 l 5.41943,3.43409 4.51618,-6.00966 4.51618,-18.88747 0.90323,-22.32158 z m -95.74307,-45.50167 11.74207,12.87783 -2.7097,17.17044 -1.80648,16.31192 3.61295,18.02896 8.12912,18.02896 12.64532,20.60452 -3.61295,3.43409 -11.74207,-6.00965 -17.16149,-24.89713 -3.61295,-20.60453 0.90324,-27.4727 z"
       inkscape:label="#path4149" />
    <path
       id="1"
       style="fill:none;fill-rule:evenodd;stroke:#000000;stroke-width:1.25;stroke-linecap:butt;stroke-linejoin:miter;stroke-miterlimit:4;stroke-dasharray:none;stroke-opacity:1"
       d="m 275.35737,786.71466 0.90325,10.30226 1.35484,9.873 3.61295,9.873 -0.90324,10.30227 -0.90323,12.44856 -3.61295,9.873 -4.9678,7.29744 -0.45162,3.00482 h 5.87105 l 7.22589,-3.00482 4.9678,-3.00483 2.7097,-4.29261 3.16133,-7.29743 4.96781,-15.23877 0.67742,-16.74118 -2.70971,-13.52172 -1.35486,-4.72187 -2.25809,-5.58039 -2.70971,-2.36093 -4.06456,-3.86335 -2.70971,-0.64389 h -3.16132 l -2.03229,1.28778 -2.69155,3.21946 z m -61.8717,-21.46306 4.51619,-1.71704 7.22589,3.86336 3.61295,5.58039 5.87103,6.00964 h 7.2259 4.51618 l 2.09371,-0.14729 2.07103,1.9685 -1.00341,4.18845 -1.80648,13.73635 -1.35485,14.16561 2.25809,13.30709 3.61294,14.59488 4.06457,7.72669 3.61294,5.58039 -0.45162,2.57557 -0.90323,0.42926 h -9.03236 l -5.87105,-2.1463 -5.41941,-1.28779 -4.9678,-3.00483 -4.06457,-2.57556 -9.70979,-15.45339 -6.32265,-15.4534 -4.742,-19.53137 z"
       inkscape:label="#path4154"
       inkscape:connector-curvature="0"
       sodipodi:nodetypes="ccccccccccccccccccccccccccccccccccccccccccccccccccccc" />
    <path
       style="fill:none;fill-rule:evenodd;stroke:#000000;stroke-width:1.25;stroke-linecap:butt;stroke-linejoin:miter;stroke-miterlimit:4;stroke-dasharray:none;stroke-opacity:1"
       d="m 398.67136,523.50404 -47.74622,-13.88906 -50.72876,-0.20289 -29.80681,13.73635 -24.38738,28.33122 -16.25826,35.19939 -10.83883,34.34088 -9.03237,36.05792 2.70971,45.50166 0.90323,39.49201 9.03237,11.16078 10.83884,9.44374 11.74207,3.43409 4.51619,-9.44374 -0.90324,-30.04827 3.61294,-54.08688 2.70971,-44.64313 11.74207,-36.91644 17.1615,-24.03862 19.87121,-21.46305 25.29062,-2.57556 25.29062,2.57556 53.33155,16.46463 m 10.32266,3.58465 18.5403,3.13081 23.48415,3.43409 9.03236,-5.15113 v -7.7267 l -9.93559,-8.58521 -48.22179,-21.76632"
       id="2"
       inkscape:connector-curvature="0"
       inkscape:label="#path4157"
       sodipodi:nodetypes="cccccccccccccccccccccccccccccc" />
    <path
       style="fill:none;fill-rule:evenodd;stroke:#000000;stroke-width:1.25;stroke-linecap:butt;stroke-linejoin:miter;stroke-miterlimit:4;stroke-dasharray:none;stroke-opacity:1"
       d="m 200.12993,751.19793 1.27737,-52.8148 1.27737,-58.88547 8.3029,-37.03106 14.68975,-34.6028 13.41238,-30.35334 19.79922,-28.53212 6.38684,-21.24734 -2.55473,-35.81693 -8.94159,-23.06854 -18.52186,-45.53 -13.64277,-43.03226 -16.25826,-42.92609 -7.22589,-36.91644 -6.32266,-42.92609"
       id="path4159"
       inkscape:connector-curvature="0" />
    <path
       style="fill:none;fill-rule:evenodd;stroke:#000000;stroke-width:1.25;stroke-linecap:butt;stroke-linejoin:miter;stroke-miterlimit:4;stroke-dasharray:none;stroke-opacity:1"
       d="m 309.34501,806.44099 -2.55475,-19.42613 -8.30289,-19.42613 -3.19343,-36.424 1.27737,-47.3512 5.10948,-39.45933 10.21895,-15.17667 13.41238,-5.4636 h 15.32843 l 8.3029,7.2848 7.02553,16.99786 -3.19342,30.35334 -3.19342,28.53213 -9.58027,32.17453 -12.77369,38.85227 -3.83212,35.20987 1.27737,44.92292 8.30291,26.10387 18.52185,24.88973 15.96712,16.39081 22.99264,12.7484 30.01818,5.46364 21.71528,-6.07071 23.63133,-25.4968 18.52185,-33.38866 1.27738,-34.60281 -2.06858,-47.0622 -4.51619,-56.66245 v -32.62383 l 14.45178,-18.88748 28.90357,1.71704 25.29063,9.44374 28.00033,6.00966 39.7424,0.85852 31.61328,0.85852 19.33052,-12.98992 10.21896,-12.14133 5.10948,-18.21199 v -24.88974 l -12.13501,-15.78373 -10.85764,-9.71307 -8.3029,-18.81906 -2.55474,-25.4968 8.3029,-21.8544 18.52186,-30.35333 14.68974,-21.24733 15.32844,-12.14134 12.77369,-7.2848 7.66421,1.8212 0.63868,-13.96253 v -12.14134 l 9.58028,-10.9272 14.68976,-13.35546 10.21895,-3.6424 -3.19343,-13.35546 -2.55473,-10.32014 v -9.71306 l 3.19342,-12.7484 3.19343,-5.4636 6.38685,-15.17668 4.47079,-8.49893 3.54608,-2.16836"
       id="path4161"
       inkscape:connector-curvature="0" />
    <path
       style="fill:none;fill-rule:evenodd;stroke:#000000;stroke-width:1.25;stroke-linecap:butt;stroke-linejoin:miter;stroke-miterlimit:4;stroke-dasharray:none;stroke-opacity:1"
       d="m 236.06659,852.82084 2.70971,40.35053 3.61295,46.36018 3.61294,20.60455"
       id="path4163"
       inkscape:connector-curvature="0" />
    <path
       style="fill:none;fill-rule:evenodd;stroke:#000000;stroke-width:1.25;stroke-linecap:butt;stroke-linejoin:miter;stroke-miterlimit:4;stroke-dasharray:none;stroke-opacity:1"
       d="m 260.16629,856.22046 3.19342,-2.42827 -2.55474,-17.60493 -5.10947,-26.10387 2.55473,-14.5696 1.91606,-17.60493 4.47079,-6.07067 -2.55474,-64.95613 5.74817,-52.20773 7.02553,-28.53213 8.94158,-26.10387 14.68975,-20.64026 15.32843,-10.32014 22.35396,-3.6424 26.82476,3.03534 47.99242,21.13558 m 14.34462,4.2641 55.81962,14.66671 37.68238,-3.03533 11.49633,-4.85653 12.135,-12.14134 10.21897,-23.06853 0.63867,-39.45933 -1.27736,-68.59853 -15.96712,-3.6424 -16.6058,-6.07067 -26.82475,-24.88974 -28.10213,-27.31799 -14.68975,-20.0332 m -6.38684,-13.46234 7.02553,-12.64153 28.10212,-16.99786 32.57292,-4.85653 26.18607,4.24946 51.73345,9.106 20.43791,12.14134 21.07659,20.0332 8.94159,17.60492 m 0.63869,33.99574 -13.41238,6.67773 -32.57291,16.3908 -24.27002,4.24947 -6.38685,0.60706 5.10948,38.85227 0.23786,45.91846 m -1.41098,10.75247 -0.74294,29.53253 -9.58026,15.78374 -5.74817,12.7484 -9.58027,9.71306 -5.10948,1.21413"
       id="path4167"
       inkscape:connector-curvature="0"
       sodipodi:nodetypes="ccccccccccccccccccccccccccccccccccccccccccccccccccc" />
    <path
       style="fill:none;fill-rule:evenodd;stroke:#000000;stroke-width:1.25;stroke-linecap:butt;stroke-linejoin:miter;stroke-miterlimit:4;stroke-dasharray:none;stroke-opacity:1"
       d="m 269.10787,857.43459 1.91605,-9.106 3.19343,-16.99787 v -35.81693 l -1.27737,-16.99787 1.91606,-58.88546 1.91605,-60.0996 9.58027,-31.56746 10.21895,-29.74627 23.63133,-16.3908 30.65687,0.60707 64.07996,28.51263 m 14.47824,4.87603 46.62399,10.32014 38.95976,-3.03534 22.99264,-6.67773"
       id="path4169"
       inkscape:connector-curvature="0"
       sodipodi:nodetypes="cccccccccccccccc" />
    <path
       style="fill:none;fill-rule:evenodd;stroke:#000000;stroke-width:1.25;stroke-linecap:butt;stroke-linejoin:miter;stroke-miterlimit:4;stroke-dasharray:none;stroke-opacity:1"
       d="m 232.45364,383.20937 9.03236,94.4374 -5.41941,61.81358"
       id="path4171"
       inkscape:connector-curvature="0" />
    <path
       style="fill:none;fill-rule:evenodd;stroke:#000000;stroke-width:1.25;stroke-linecap:butt;stroke-linejoin:miter;stroke-miterlimit:4;stroke-dasharray:none;stroke-opacity:1"
       d="m 566.09623,732.98593 39.59845,14.56959 56.20424,15.78374 62.5911,2.42826 61.31373,-19.42613 44.70793,-24.28266 40.87582,-43.7088 37.0437,-63.13493 20.43791,-89.84587 7.66421,-38.85226 2.55474,-59.49253 -15.32842,-98.3448 -22.99265,-116.55679 -17.88317,-60.70667"
       id="path4173"
       inkscape:connector-curvature="0" />
    <path
       style="fill:none;fill-rule:evenodd;stroke:#000000;stroke-width:1.25;stroke-linecap:butt;stroke-linejoin:miter;stroke-miterlimit:4;stroke-dasharray:none;stroke-opacity:1"
       d="m 788.35849,747.55552 -10.21895,16.99787 -19.16054,18.212"
       id="path4175"
       inkscape:connector-curvature="0" />
    <path
       style="fill:none;fill-rule:evenodd;stroke:#000000;stroke-width:1.25;stroke-linecap:butt;stroke-linejoin:miter;stroke-miterlimit:4;stroke-dasharray:none;stroke-opacity:1"
       d="m 760.25637,786.40779 -1.27737,24.28267 -1.27737,29.1392 -2.55473,31.56746 1.27736,32.78161 1.27737,41.28057 -3.8321,12.1413"
       id="path4177"
       inkscape:connector-curvature="0" />
    <path
       style="fill:none;fill-rule:evenodd;stroke:#000000;stroke-width:1.25;stroke-linecap:butt;stroke-linejoin:miter;stroke-miterlimit:4;stroke-dasharray:none;stroke-opacity:1"
       d="m 353.48733,779.84648 -7.22589,16.31192 -1.80648,18.02896 0.90325,30.90678 6.32264,26.61418 11.74208,17.17044 16.25826,13.73635 20.77444,5.15113 11.74207,1.71704 16.25826,-4.2926 13.54855,-24.03862 3.61294,-24.89714 -2.70971,-33.48235 -8.12913,-30.90679 -16.25826,-18.88747 -18.96796,-10.30227 -18.96796,2.57556 -12.64532,8.58523 z"
       id="path4179"
       inkscape:connector-curvature="0" />
    <path
       style="fill:none;fill-rule:evenodd;stroke:#000000;stroke-width:1.25;stroke-linecap:butt;stroke-linejoin:miter;stroke-miterlimit:4;stroke-dasharray:none;stroke-opacity:1"
       d="m 355.3303,779.73006 -8.30291,-6.07067 1.91606,-6.07066 8.30291,-15.17667 21.07658,-14.5696 23.63134,-2.42826 17.24448,8.49893 11.49632,8.49893 15.96712,18.212 5.74817,16.3908 0.63867,27.92507 2.55475,28.53213 -1.91606,24.88973 -1.91605,14.5696 -7.66422,17.60493 -3.8321,6.07067 1.27736,7.2848 -7.02552,3.6424 -5.10949,-0.60707 -7.02552,-3.6424 v -6.67773 l 6.51539,-2.27483 13.09693,-21.89231 4.06455,-26.61418 -2.7097,-33.0531 -7.67751,-30.90679 -18.06473,-20.17526 -17.16149,-8.58522 -20.32282,2.1463 -13.54855,9.87301 z"
       id="C63.0"
       inkscape:connector-curvature="0"
       inkscape:label="#path4181" />
    <path
       style="fill:none;fill-rule:evenodd;stroke:#000000;stroke-width:1.25;stroke-linecap:butt;stroke-linejoin:miter;stroke-miterlimit:4;stroke-dasharray:none;stroke-opacity:1"
       d="m 439.74642,761.38826 7.23512,9.53933 5.74816,16.69434 0.63869,32.47807 2.55474,22.76499 -3.51276,35.5134 -0.63869,4.24946 -8.62225,19.42614 -3.19341,5.76713 1.91604,5.16007 1.4873,-2.21012 m 7.07846,-153.73748 1.9539,-83.21456 -3.61294,-11.59005 -16.25826,-42.49683 -3.79727,-11.23661 -5.23509,-24.39205 -7.67752,-31.33605 -9.48398,-42.06758 -4.06456,-29.619 -5.87104,-43.78462 4.9678,-19.746 14.00017,-21.46304 13.54855,-12.44857 24.839,-11.16079 29.35519,-6.86818 h 34.32298 l 54.6458,6.00966 36.12947,11.16079 21.67767,13.30709 8.12913,12.44856 2.70971,10.73153 -1.35486,12.0193 -5.87103,9.01449 -2.70971,9.01447 v 11.16079 l 0.45162,15.88265 3.61294,4.72187 8.12913,-9.01448 9.48398,-12.87783 -0.90323,-21.46304 0.45161,-19.74601 -4.96779,-18.90473 -11.29046,-11.14353 -21.67768,-11.16079 -22.58091,-9.01447 -37.03269,-8.15596 -31.61328,-3.86335 -42.45212,0.42926 -31.16165,4.29261 -24.83901,11.16078 -19.8712,15.02413 -14.00017,17.17044 -6.32265,19.746 0.90324,36.48718 4.51618,26.61418 12.64531,54.51614 15.80664,75.97919 2.7097,13.73635 14.90341,36.91644 2.25809,6.43891 v 72.41918"
       id="C63.1"
       inkscape:connector-curvature="0"
       inkscape:label="#path4183"
       sodipodi:nodetypes="cccccccccccccccccccccccccccccccccccccccccccccccccccccccccccccc" />
    <path
       style="fill:none;fill-rule:evenodd;stroke:#000000;stroke-width:1.25;stroke-linecap:butt;stroke-linejoin:miter;stroke-miterlimit:4;stroke-dasharray:none;stroke-opacity:1"
       d="m 418.44294,375.05449 -8.05171,-33.48344 4.9678,-8.15596 20.32282,-6.43891 23.48415,-12.44856 32.06489,-6.00966 37.93594,-1.28778 37.48431,3.86335 29.35519,10.30226 27.09708,14.16561 26.19387,21.03379 12.19369,22.75082 11.29045,26.18493 1.80648,18.88747 -9.03237,18.02897 -11.74207,14.1656 m -23.69243,13.5591 -30.05015,12.19656 -21.36205,3.79469 m -52.79993,-0.21637 -8.93577,-2.29053 -28.45195,-18.88749 -32.06489,-36.91644 -31.03079,-39.16419"
       id="path4185"
       inkscape:connector-curvature="0"
       sodipodi:nodetypes="cccccccccccccccccccccccc" />
    <path
       style="fill:none;fill-rule:evenodd;stroke:#000000;stroke-width:1.25;stroke-linecap:butt;stroke-linejoin:miter;stroke-miterlimit:4;stroke-dasharray:none;stroke-opacity:1"
       d="m 566.6751,578.37147 29.33123,-1.56542 15.35501,-11.16078 14.00016,-15.02413 9.48399,-13.3071 8.12913,-15.45339 v -19.746 l -5.66506,-7.70592 m -5.16819,-3.55259 -15.26971,-10.10641 -7.34488,-1.8212 -11.81566,4.85654 -28.40846,3.58879 m -17.56382,-0.60707 -9.59329,0.35714 -17.4949,-0.89193 -9.93561,11.16078 -3.16133,12.01931 0.90324,16.31191 3.61295,20.17527 17.16149,17.5997 16.25825,8.15596"
       id="path4187"
       inkscape:connector-curvature="0"
       sodipodi:nodetypes="cccccccccccccccccccccc" />
    <path
       style="fill:none;fill-rule:evenodd;stroke:#000000;stroke-width:1.25;stroke-linecap:butt;stroke-linejoin:miter;stroke-miterlimit:4;stroke-dasharray:none;stroke-opacity:1"
       d="m 568.45761,539.46035 19.8712,-7.7267 21.67768,-19.746 16.25826,-15.45339 11.74207,-6.86818 5.41942,-1.71704"
       id="path4189"
       inkscape:connector-curvature="0" />
    <path
       style="fill:none;fill-rule:evenodd;stroke:#000000;stroke-width:1.25;stroke-linecap:butt;stroke-linejoin:miter;stroke-miterlimit:4;stroke-dasharray:none;stroke-opacity:1"
       d="m 566.65114,548.04557 19.8712,-4.29261 16.25826,-12.87783 14.00017,-15.88265 12.19369,-12.44857 14.00016,-8.58522 7.22589,-3.00482"
       id="path4191"
       inkscape:connector-curvature="0" />
    <path
       style="fill:none;fill-rule:evenodd;stroke:#000000;stroke-width:1.25;stroke-linecap:butt;stroke-linejoin:miter;stroke-miterlimit:4;stroke-dasharray:none;stroke-opacity:1"
       d="m 928.84897,360.02927 -4.51618,48.07724 -9.9356,73.83287 -33.41974,75.54993 -34.32299,60.09654 -23.48416,30.04826 -34.32297,24.03861 -22.58092,12.87783 -18.06473,6.00965 -19.87121,-3.43409 -13.54855,-16.31191 -8.12913,-29.18974 1.80648,-34.34088 10.83883,-24.89714 26.19387,-13.73635 11.74208,-10.30226 v -11.16078 l -0.90324,-10.30226 17.16149,-4.29262 20.77444,-25.75565 12.64531,-26.61418 9.03236,-24.03861 V 435.5792 l -0.90323,-6.00965 6.32266,-22.32157 9.9356,-19.74601 1.80647,-27.4727 -16.25826,-16.31191"
       id="path4195"
       inkscape:connector-curvature="0" />
    <path
       style="fill:none;fill-rule:evenodd;stroke:#000000;stroke-width:1.25;stroke-linecap:butt;stroke-linejoin:miter;stroke-miterlimit:4;stroke-dasharray:none;stroke-opacity:1"
       d="m 681.36217,677.68237 10.83884,-8.58521 11.74208,-2.57557 7.22589,2.57557 5.41941,4.2926"
       id="path4197"
       inkscape:connector-curvature="0" />
    <path
       style="fill:none;fill-rule:evenodd;stroke:#000000;stroke-width:1.25;stroke-linecap:butt;stroke-linejoin:miter;stroke-miterlimit:4;stroke-dasharray:none;stroke-opacity:1"
       d="m 349.85108,707.4235 0.35715,9.64286 -4.28572,13.92857 -8.21428,27.14286 -6.78572,23.21428 -4.64285,35 2.5,42.5 8.21428,23.92857 30.35714,38.21429 24.28572,12.85714 28.92857,5 20,-5 24.28572,-24.64285 15.35714,-31.42858 1.07143,-64.28571 -3.92857,-56.78572 -3.21429,-22.85714 -0.71429,-27.14286 -0.64285,1.07143 10.28571,-7.85714 6.07143,-5.35714 -10.71429,13.57143 0.35715,32.5 3.57143,47.14285 2.22836,25.05033 0.50508,25.50635 -0.50508,40.4061 -18.68782,32.32488 -23.48605,25.75889 -21.2132,7.07111 -31.56727,-6.31349 -22.47589,-12.12183 -14.64721,-15.15229 -19.69798,-25.75889 -8.58629,-26.76904 -0.75762,-43.6891 3.53554,-35.86042 10.10152,-30.30457 z"
       id="C63.2"
       inkscape:connector-curvature="0"
       inkscape:label="#path6093" />
    <path
       id="C63.7"
       style="fill:none;fill-rule:evenodd;stroke:#000000;stroke-width:1.25;stroke-linecap:butt;stroke-linejoin:miter;stroke-miterlimit:4;stroke-dasharray:none;stroke-opacity:1"
       d="m 349.85108,779.9235 -6.78571,15.35714 -1.78571,22.5 1.07142,28.21429 5,25.35714 13.21429,21.07143 13.21429,12.85714 33.21428,8.92858 h 11.07143 l 6.78571,5.71428 13.92858,1.78572 16.78571,-12.85715 12.85714,-22.5 2.85715,-41.07143 -1.78572,-62.5 -9.92821,-18.16352 -25.78607,-19.33648 -26.78572,-12.85714 -13.92857,-3.21429 -16.42857,2.85715 -13.92857,9.64285 -12.14286,10.35715 -7.5,19.28571 1.78571,5.35714 z m 293.57516,-294.55003 3.61295,-9.01448 5.64522,-6.86818 3.38714,-8.58521 7.00008,-9.44374 5.64523,-6.86818 8.35494,-9.22911 5.87103,-5.36577 1.12905,-8.37058 3.16132,-4.72187 5.19362,-3.21945 4.9678,-0.85853 3.61294,-0.42926 1.35486,1.50241 v 2.36094 6.00965 l -0.22581,5.36577 -1.35486,4.50724 -1.80647,1.07315 2.03228,1.50241 1.35486,1.71704 0.22581,2.57557 0.22581,4.29261 -0.45162,6.43891 -3.38714,3.86335 -1.80647,0.21463 -1.80647,2.14631 v 2.57556 l -0.90324,4.50724 -2.93552,3.86335 -2.4839,0.21463 -5.41942,1.28778 -2.01412,3.00483 -1.59883,4.72187 -2.93551,1.50241 -1.80648,2.57557 -3.83876,3.64872 -1.58065,4.07798 -3.16134,0.64389 h -3.61294 l -1.12905,1.93167 -1.12904,1.71704 h -4.74199 l -5.87104,-0.42925"
       inkscape:connector-curvature="0" />
    <path
       style="fill:none;fill-rule:evenodd;stroke:#000000;stroke-width:1.25;stroke-linecap:butt;stroke-linejoin:miter;stroke-miterlimit:4;stroke-dasharray:none;stroke-opacity:1"
       d="m 25.210538,767.98368 -0.51373,8.2411 v 7.7565 l 2.05495,7.2712 4.6236,8.726 5.13738,7.2716 6.678552,6.7865 7.19228,5.3326 9.24723,4.8476 9.24723,2.4239 9.24724,0.9696 h 10.27471 l 6.67855,-0.485 11.30216,-2.9085 8.21977,-3.8781 6.16482,-3.8781 6.16481,-4.848 4.10988,-4.8475 5.65109,-10.1802 3.08244,-7.2714 1.54118,-6.3017 v -9.2106 l -4.62362,-16.4821 -3.59615,-6.787 -4.10989,-5.8171 -6.67852,-5.8172 -6.16484,-3.8781 -5.13733,-2.9086 -5.6511,-2.9086 -6.67854,-1.9391 -8.21976,-1.4543 -7.19233,-0.4848 -9.24721,0.9696 -9.24725,1.9391 -7.19228,2.9086 -7.19229,2.9086 -8.21977,6.7867 -5.137332,4.8476 -4.62362,5.3325 -3.59615,6.7866 -2.56867,4.8476 z"
       id="C63.8"
       inkscape:connector-curvature="0"
       inkscape:label="#path4217" />
    <path
       style="fill:none;fill-rule:evenodd;stroke:#000000;stroke-width:1.25;stroke-linecap:butt;stroke-linejoin:miter;stroke-miterlimit:4;stroke-dasharray:none;stroke-opacity:1"
       d="m 72.44609,760.40118 -0.36308,3.4279 0.36308,5.1417 3.81432,4.1132 5.08571,2.7423 4.35917,2.2283 4.54083,2.7419 3.81427,2.7424 2.90613,4.285 1.45307,5.3128 -0.90817,5.8273 -3.08776,4.7992 -5.08571,2.7422 -5.63062,0.1722 -4.54082,-0.8571 -5.08573,-3.085 -2.72448,-4.1134 -0.7265,-5.6558 0.54489,-5.1417 2.90613,-4.4562 3.9959,-3.0853 3.99592,-1.7137 6.17552,-2.0565 4.35919,-2.9138 3.26938,-4.1135 1.63473,-5.4843 -0.90817,-4.9702 -3.63265,-4.285 -5.08573,-2.3994 -5.449,-0.1722 -5.44898,1.5427 -3.08776,3.4276 z"
       id="path4230"
       inkscape:connector-curvature="0"
       sodipodi:nodetypes="ccccccccccccccccccccccccccccccccc" />
    <path
       style="fill:none;fill-rule:evenodd;stroke:#000000;stroke-width:1.25;stroke-linecap:butt;stroke-linejoin:miter;stroke-miterlimit:4;stroke-dasharray:none;stroke-opacity:1"
       d="m 28.513526,883.13976 -0.5049,8.2425 v 7.7577 l 2.01966,7.2729 4.54424,8.7273 5.04919,7.2729 6.563904,6.788 7.06882,5.3334 9.08852,4.8486 9.08848,2.42414 9.08851,0.9698 h 10.09834 l 6.56391,-0.4849 11.10815,-2.90904 8.07867,-3.8789 6.059,-3.8789 6.05901,-4.8485 4.03934,-4.8486 5.55409,-10.1819 3.02951,-7.2728 1.51473,-6.3032 v -9.2122 l -4.54424,-16.4851 -3.53443,-6.788 -4.03932,-5.8183 -6.56392,-5.8182 -6.05901,-3.8789 -5.04915,-2.9091 -5.5541,-2.9091 -6.5639,-1.9395 -8.07867,-1.4545 -7.06886,-0.4849 -9.08848,0.9697 -9.08852,1.9395 -7.06882,2.9091 -7.06884,2.9091 -8.07867,6.788 -5.049145,4.8486 -4.544249,5.3333 -3.53442,6.788 -2.52458,4.8486 z"
       id="C63.9"
       inkscape:connector-curvature="0"
       inkscape:label="#path4217-8" />
    <path
       id="path4223"
       style="fill:none;fill-rule:evenodd;stroke:#000000;stroke-width:1.25;stroke-linecap:butt;stroke-linejoin:miter;stroke-miterlimit:4;stroke-dasharray:none;stroke-opacity:1"
       d="m 99.56643,891.20236 c 0.72466,2.8702 0.51373,2.0737 0.50052,3.1466 -0.0842,6.8413 0.1453,3.459 -0.0688,5.7163 l -0.0835,4.3733 -0.65576,4.3486 -2.51056,4.0221 -4.57989,3.1245 -5.891,2.2286 c -2.26121,0.4571 -4.15665,1.2822 -7.14059,0.8571 l -7.6545,-2.1138 c 0,0 1.07107,0.2573 1.40644,-0.458 m 2.10492,-49.712 -3.31255,4.2855 -1.66486,5.6569 -0.34003,5.3141 1.21525,5.657 4.00274,4.9712 4.93636,2.4 4.75783,0.5142 6.22631,-0.8951 c 1.72891,-0.4578 5.11184,-1.3298 5.11184,-1.3298 -0.15994,-0.3989 4.13106,-0.2717 4.09753,-1.5341 -0.12407,-4.669 -0.12736,-7.8191 0.0531,-11.4976 0.17971,3.7905 -0.0147,-8.1711 -2.96602,-10.4568 l -4.95354,-4.457 -5.29339,-1.7142 -6.88285,0.5141 z"
       inkscape:connector-curvature="0"
       sodipodi:nodetypes="csccccccccccccccccccsscccccc" />
  </g>
</svg>
