<?xml version="1.0" encoding="UTF-8" standalone="no"?>
<!-- Created with Inkscape (http://www.inkscape.org/) -->

<svg
   width="700"
   height="750"
   viewBox="0 0 700 750.00001"
   id="svg5393"
   version="1.1"
   inkscape:version="1.3 (0e150ed, 2023-07-21)"
   sodipodi:docname="level3_C54.svg"
   xmlns:inkscape="http://www.inkscape.org/namespaces/inkscape"
   xmlns:sodipodi="http://sodipodi.sourceforge.net/DTD/sodipodi-0.dtd"
   xmlns="http://www.w3.org/2000/svg"
   xmlns:svg="http://www.w3.org/2000/svg"
   xmlns:rdf="http://www.w3.org/1999/02/22-rdf-syntax-ns#"
   xmlns:cc="http://creativecommons.org/ns#"
   xmlns:dc="http://purl.org/dc/elements/1.1/">
  <defs
     id="defs5395" />
  <sodipodi:namedview
     id="base"
     pagecolor="#ffffff"
     bordercolor="#666666"
     borderopacity="1.0"
     inkscape:pageopacity="0.0"
     inkscape:pageshadow="2"
     inkscape:zoom="0.92400581"
     inkscape:cx="278.6779"
     inkscape:cy="322.50879"
     inkscape:document-units="px"
     inkscape:current-layer="layer1"
     showgrid="false"
     inkscape:window-width="1384"
     inkscape:window-height="773"
     inkscape:window-x="0"
     inkscape:window-y="25"
     inkscape:window-maximized="0"
     inkscape:showpageshadow="2"
     inkscape:pagecheckerboard="0"
     inkscape:deskcolor="#d1d1d1" />
  <metadata
     id="metadata5398">
    <rdf:RDF>
      <cc:Work
         rdf:about="">
        <dc:format>image/svg+xml</dc:format>
        <dc:type
           rdf:resource="http://purl.org/dc/dcmitype/StillImage" />
      </cc:Work>
    </rdf:RDF>
  </metadata>
  <g
     inkscape:label="Laag 1"
     inkscape:groupmode="layer"
     id="layer1"
     transform="translate(0,10.629921)">
    <path
       style="fill:none;fill-rule:evenodd;stroke:#000000;stroke-width:1;stroke-linecap:butt;stroke-linejoin:miter;stroke-miterlimit:4;stroke-dasharray:none;stroke-opacity:1"
       d="m 182.71301,211.49225 c 7.23541,-17.79561 22.2335,-29.35919 38.09292,-39.24759 15.44804,-9.44789 32.48756,-16.26066 49.63624,-22.07678 18.59401,-6.30631 46.36201,-11.72058 76.76301,-12.26487 41.23914,-0.73833 55.13219,3.32533 84.26616,13.49136 29.26731,10.21256 42.63508,17.16646 60.60238,30.66218 10.55201,8.19532 21.88274,16.81652 25.97245,30.04895 0,0 -25.4919,1.19833 -38.09292,3.06622 -8.56907,1.27022 -16.79762,4.45962 -25.39528,5.5192 -12.99053,1.60095 -26.16777,0.73261 -39.24726,1.22648 -18.47422,0.69757 -36.92059,2.51131 -55.40789,2.45298 -20.22653,-0.0638 -40.42535,-1.65048 -60.60237,-3.06622 -13.6809,-0.95993 -27.27797,-3.0656 -40.97876,-3.67946 -12.87711,-0.57695 -25.82365,1.05912 -38.67009,0 -12.43919,-1.02554 -36.93859,-6.13245 -36.93859,-6.13245 z"
       id="C54.3"
       inkscape:connector-curvature="0"
       inkscape:label="C54.3 Fundus uteri"
       sodipodi:nodetypes="cssssscsssssssc" />
    <path
       id="C54.2"
       style="fill:none;fill-rule:evenodd;stroke:#000000;stroke-width:1;stroke-linecap:butt;stroke-linejoin:miter;stroke-miterlimit:4;stroke-dasharray:none;stroke-opacity:1;opacity:1"
       d="m 519.93661,223.97082 0.40812,8.67257 -6.52989,7.80532 c 0,0 -7.35391,12.71529 -11.01917,19.07968 -4.90785,8.52203 -10.58328,16.64942 -14.69223,25.5841 -4.42142,9.61413 -7.39155,19.83995 -10.61106,29.92039 -3.4751,10.8807 -6.11243,22.01297 -9.38671,32.95578 -4.03861,13.49723 -6.70642,27.55487 -12.65164,40.3275 -4.63274,9.95291 -15.60125,24.29521 -17.69731,27.77606 0,0 -11.04398,14.87994 -14.13587,23.47486 -2.17681,6.05116 -2.01245,12.70456 -2.85683,19.07968 -0.93612,7.06776 -3.05436,14.1441 -2.44871,21.24781 0.57576,6.75303 3.35366,13.15992 5.71365,19.5133 1.6032,4.316 4.3014,8.19305 5.71365,12.57524 1.49198,4.62957 3.62458,9.50668 2.85683,14.30975 -0.26201,1.63916 -0.98218,3.55859 -2.44871,4.33629 -1.56762,0.83131 -3.70671,0.33598 -5.30553,-0.43363 -1.78851,-0.86091 -2.36236,-3.34351 -4.08118,-4.33629 -2.17872,-1.25842 -4.84149,-1.97392 -7.34611,-1.73452 -3.86035,0.36899 -7.55409,2.3838 -10.61105,4.76991 -5.3689,4.19069 -7.81765,11.24642 -12.65165,16.04428 -3.1783,3.15454 -6.57116,6.30713 -10.61107,8.23894 -2.26987,1.08541 -4.87641,2.21517 -7.34611,1.73452 -2.94552,-0.57326 -5.64122,-2.73413 -7.34612,-5.20355 -2.46051,-3.56385 -3.21528,-8.2448 -3.26494,-12.57524 -0.0477,-4.15745 2.28053,-8.02401 2.85683,-12.1416 0.40114,-2.86612 0.62783,-5.78687 0.40811,-8.67257 -0.31345,-4.11678 -2.44871,-12.14161 -2.44871,-12.14161 0,0 2.9403,-5.60076 3.26495,-8.67258 0.38408,-3.63408 -0.97224,-7.24655 -1.63247,-10.84073 -0.34741,-1.89122 -1.2603,-3.71464 -1.22436,-5.63717 0.0307,-1.64123 1.15214,-3.12999 1.22436,-4.76991 0.2578,-5.85395 -2.61281,-11.49063 -2.85682,-17.34517 -0.28381,-6.80936 0.14939,-13.72859 1.63246,-20.38054 1.68607,-7.56246 5.9805,-14.32957 8.16235,-21.76417 4.91304,-16.74106 6.03069,-34.44948 11.01918,-51.16821 5.62488,-18.85154 13.31054,-37.05902 21.22212,-55.07087 3.69758,-8.41808 7.59857,-16.78207 12.24353,-24.71684 5.48289,-9.36617 11.56467,-18.42691 18.36529,-26.88498 6.71641,-8.35334 13.51856,-16.91201 22.03836,-23.41597 1.71422,-1.30862 3.68227,-2.31114 5.71364,-3.03541 4.181,-1.49071 8.66849,-1.95393 13.05976,-2.60176 5.9492,-0.87766 11.96381,-1.24193 17.95719,-1.73452 6.38699,-0.52494 12.79711,-0.74543 19.18152,-1.30089 2.7258,-0.23715 8.16235,-0.86725 8.16235,-0.86725 z m -338.95509,1.0128 -2.30867,7.97216 c 0,0 5.41385,4.11014 7.50315,6.74569 5.21516,6.57867 7.80584,14.87535 12.12048,22.07678 3.26022,5.44152 7.24419,10.4353 10.38897,15.94434 2.14873,3.76415 4.15611,7.62971 5.77166,11.65163 5.03087,12.52434 8.39727,25.66106 12.12048,38.63436 3.78771,13.19805 6.10332,26.81599 10.38898,39.86085 2.26709,6.90066 4.61956,13.85097 8.08031,20.23705 6.07647,11.21284 15.85802,20.12213 22.02312,31.28649 4.30472,7.79539 7.95467,16.05919 10.29815,24.65028 2.2264,8.16191 3.13265,16.68933 3.463,25.143 0.25586,6.54758 0.0734,13.18728 -1.15434,19.6238 -0.80652,4.22815 -2.34088,8.3101 -4.04015,12.26487 -1.9242,4.47825 -5.73561,8.15158 -6.92599,12.87813 -1.24807,4.95562 -2.63281,10.95112 0,15.33109 1.5713,2.61403 5.07115,4.7897 8.08032,4.29271 3.60047,-0.59464 4.00148,-6.94492 7.50315,-7.97218 3.23493,-0.94901 6.85607,0.83157 9.81181,2.45299 3.67197,2.01431 6.10173,5.7389 9.1202,8.64229 5.07002,4.87673 9.37869,10.65069 15.10035,14.74338 2.60406,1.86268 5.38086,4.05862 8.57047,4.33629 1.98288,0.17262 4.18753,-0.4568 5.71365,-1.73452 2.98557,-2.49963 4.17611,-6.68067 5.30552,-10.40709 1.01314,-3.34279 1.44913,-6.92138 1.22436,-10.40709 -0.2877,-4.46151 -2.91236,-8.55201 -3.26494,-13.00886 -0.36619,-4.62888 1.16001,-9.24301 0.85185,-13.87612 -0.26791,-4.02794 -2.25264,-7.82939 -2.28027,-11.8164 -0.0296,-4.27037 2.24276,-8.21607 2.65277,-12.46682 0.26368,-2.73363 -0.10317,-5.49457 0,-8.23895 0.27227,-7.24249 1.7845,-14.43544 1.63247,-21.68145 -0.12212,-5.82031 -1.26339,-6.54209 -1.53044,-11.70799 -0.1696,-3.28067 0.0132,-5.45268 -0.93005,-7.69481 -1.32177,-3.14175 -4.13109,-5.48244 -4.88563,-8.54057 -1.43206,-5.80412 -0.69551,-16.50649 -2.33531,-21.95619 -2.76244,-9.18068 -5.8859,-19.06307 -8.68386,-28.23635 -5.39305,-17.68144 -11.23007,-35.25095 -17.95718,-52.4691 -4.54125,-11.62342 -9.31157,-23.20152 -15.10036,-34.25668 -4.9536,-9.46015 -10.07137,-18.97249 -16.73282,-27.31861 -5.80991,-7.27923 -12.54845,-13.92314 -19.99776,-19.51331 -5.87426,-4.4082 -12.162,-8.68079 -19.18153,-10.84072 -10.04603,-3.09118 -20.96095,-1.6115 -31.42506,-2.60177 -6.33777,-0.59978 -18.99086,-2.0226 -18.99086,-2.0226 z"
       inkscape:label="C54.2 Myometrium"
       inkscape:connector-curvature="0"
       sodipodi:nodetypes="cccsssssssssssssssssssssssscsssssssssssssssscccssssssssssssssssssssssssssssssssssssssssc" />
    <path
       id="C54.1"
       style="opacity:1;fill:none;fill-rule:evenodd;stroke:#000000;stroke-width:1;stroke-linecap:butt;stroke-linejoin:miter;stroke-miterlimit:4;stroke-dasharray:none;stroke-opacity:1"
       d="m 461.57579,230.47524 c 0,0 -9.94078,1.41978 -13.65523,3.09379 -5.50023,2.47881 -10.13069,6.56529 -15.00629,10.11853 -4.9446,3.60352 -10.2234,6.90136 -14.42915,11.34501 -4.03236,4.26044 -6.13385,10.08945 -10.1004,14.41123 -2.7993,3.05 -7.99397,4.1251 -9.52322,7.97217 -0.30412,0.76507 0.0262,1.67262 0.28858,2.45297 0.30238,0.89915 1.25534,1.52308 1.44291,2.45298 0.14273,0.70764 0.21114,1.62539 -0.28858,2.14635 -0.81151,0.846 -2.31091,0.39651 -3.46299,0.61325 -1.5423,0.29016 -3.43137,-0.10793 -4.61733,0.91987 -0.65526,0.56787 -0.60869,1.62486 -0.86575,2.45297 -0.21964,0.70756 -0.48013,1.41187 -0.57716,2.14635 -0.13386,1.01327 0.69011,2.31231 0,3.06622 -0.78246,0.8548 -2.39858,-0.15159 -3.46299,0.30662 -0.70807,0.30481 -1.31222,0.8862 -1.73149,1.53311 -0.34956,0.53934 -0.41829,1.21696 -0.57718,1.83973 -0.24471,0.95912 -0.67626,1.92804 -0.57716,2.91291 0.0499,0.49604 0.49999,0.88726 0.57716,1.3798 0.0873,0.55739 0.0347,1.15138 -0.14429,1.68642 -0.17227,0.51492 -0.49625,0.98195 -0.86575,1.3798 -0.52822,0.56875 -1.47659,0.71411 -1.87579,1.37979 -0.34524,0.57569 -0.24036,1.32351 -0.28858,1.99305 -0.0367,0.50972 0.0141,1.02227 0,1.53311 -0.0241,0.86976 0.0914,1.76873 -0.1443,2.60628 -0.11005,0.39099 -0.3218,0.75731 -0.57716,1.07318 -0.19843,0.24545 -0.57244,0.33501 -0.72145,0.61324 -0.3887,0.72576 -0.43287,1.83973 -0.28859,2.45298 0.1443,0.61324 0.33731,1.01539 0.28859,1.53311 -0.0617,0.65581 -0.29227,1.34003 -0.72146,1.83973 -0.39843,0.46388 -1.2819,0.39004 -1.58721,0.91987 -0.3317,0.57561 0,1.32869 0,1.99304 0,0.76655 -0.19042,1.55714 0,2.29966 0.17379,0.67766 0.91554,1.14656 1.01004,1.83974 0.0851,0.62421 -0.19003,1.25842 -0.43287,1.83972 -0.2093,0.50101 -0.7156,0.85801 -0.86575,1.37981 -0.12718,0.442 -0.05,0.92259 0,1.37979 0.0968,0.88453 0.35711,1.74412 0.57717,2.60629 0.17105,0.67016 0.6676,1.30733 0.57717,1.99304 -0.10933,0.82903 -0.66064,1.60578 -1.29863,2.14635 -0.31601,0.26776 -0.83615,0.19477 -1.15433,0.45995 -0.4171,0.34763 -0.63833,0.88674 -0.86575,1.37979 -0.3365,0.72952 -0.43925,1.54746 -0.72145,2.29966 -0.29409,0.78388 -0.83803,1.48029 -1.01004,2.29966 -0.0945,0.45012 -0.10805,0.93274 0,1.3798 0.14844,0.6142 0.60972,1.10872 0.86574,1.68642 0.22125,0.49922 0.47939,0.99588 0.57717,1.53311 0.11896,0.65361 0.23149,1.37033 0,1.99304 -0.28222,0.75917 -1.02225,1.25939 -1.58721,1.83974 -0.6353,0.6526 -1.38366,1.18824 -2.02008,1.83974 -0.61495,0.62953 -1.42341,1.16868 -1.73149,1.99303 -0.25046,0.67018 -0.0665,1.434 0,2.14636 0.0966,1.03552 0.52115,2.0277 0.57717,3.06621 0.0331,0.61423 0.15057,1.29989 -0.1443,1.83973 -0.40522,0.74187 -1.6091,0.79443 -2.02008,1.53312 -0.49911,0.89709 -0.32489,2.04027 -0.28858,3.06621 0.0311,0.88012 0.43288,1.99304 0.43288,2.6063 0,0.61323 -0.81709,0.98952 -1.15433,1.5331 -0.45218,0.72883 -0.95662,1.46505 -1.15433,2.29966 -0.1178,0.49728 0.0252,1.0227 0,1.53312 -0.0482,0.97453 -0.28859,2.29966 -0.28859,2.91291 0,1.17538 0.0394,2.35143 0,3.52615 -0.0241,0.71666 -0.12023,1.42969 -0.14429,2.14635 -0.024,0.71505 0.0394,1.43199 0,2.14635 -0.0482,0.87274 0.0339,1.79386 -0.28858,2.60628 -0.23599,0.59458 -0.86196,0.96415 -1.15434,1.53312 -0.44064,0.85748 -0.63188,1.82432 -0.86575,2.75959 -0.25229,1.00896 -0.48055,2.03069 -0.57716,3.06622 -0.0522,0.55971 0.1477,1.14404 0,1.68643 -0.24924,0.9153 -1.00861,1.6096 -1.44291,2.45297 -0.48671,0.94513 -1.05167,1.8789 -1.29862,2.91291 -0.22583,0.94556 -0.12025,1.94104 -0.14431,2.9129 -0.0152,0.61306 -0.0609,1.22953 0,1.83974 0.0725,0.72625 0.31522,1.42604 0.43289,2.14635 0.12455,0.76246 0.24039,1.5286 0.28858,2.29966 0.0255,0.40803 0.0464,0.8203 0,1.22649 -0.30231,2.64891 -0.82555,3.67317 -1.80214,7.79263 -1.24564,5.25439 -2.737,11.23485 -3.07437,11.24521 -0.70535,0.0216 -1.86272,-6.13985 -2.4905,-6.0848 -0.56526,0.0496 -0.11596,7.56436 -0.28043,10.94176 -0.35806,7.35272 -1.21267,14.74281 -0.57717,22.07676 0.18902,2.1814 0.53439,4.3872 1.29862,6.43907 0.40968,1.09996 1.18402,2.02794 1.73151,3.06621 0.61078,1.15828 1.43523,2.25067 1.73149,3.52616 0.20812,0.89601 -0.0282,1.84016 0,2.75959 0.0722,2.35408 -0.86108,4.77679 0.43286,7.0523 1.31318,2.30935 1.97852,4.83667 2.74155,7.35893 0.57906,1.91414 0.87527,3.58959 1.01004,5.5192 0.19069,2.65357 0.15422,5.29302 0.91317,7.8555 0.74862,2.5276 2.75811,-5.29623 3.12699,-8.00881 0.77819,-5.72238 -1.49451,-11.5045 -2.71887,-17.14167 -0.31516,-1.45107 1.17039,-2.85237 1.22436,-4.33629 0.21947,-6.03397 -2.61752,-11.85397 -2.85682,-17.88719 -0.27296,-6.88191 0.216,-13.85727 1.63246,-20.59736 0.58803,-2.7981 1.04084,-3.6346 2.82162,-8.1003 1.6157,-4.05174 3.92981,-8.78907 4.95313,-12.08954 1.6061,-5.18006 2.03198,-6.94284 3.87481,-15.92581 2.1068,-10.26975 4.44433,-23.2792 6.24882,-31.85881 0.34193,-1.62573 0.93016,-3.79378 1.38518,-5.39155 3.14423,-11.04081 7.52782,-21.69838 11.76712,-32.36674 3.02983,-7.62471 6.49463,-15.15758 9.76109,-22.59571 3.55045,-8.08481 7.08545,-16.21927 11.52932,-23.8496 5.48132,-9.41169 11.83622,-18.32404 18.56935,-26.88498 5.61094,-7.13412 11.53839,-14.07534 18.12652,-20.31832 1.24925,-1.1838 3.16551,-3.00232 5.21056,-4.15368 2.08281,-1.17261 4.51695,-2.19619 4.51695,-2.19619 z m -230.17835,-0.86725 c 0,0 8.80805,0.73332 13.07228,1.81469 5.07876,1.28793 9.99693,3.24616 14.71772,5.5192 3.23105,1.55574 6.52539,3.16974 9.23465,5.51919 4.27258,3.70515 7.09424,8.80948 10.67755,13.18474 4.20437,5.13358 8.15503,10.49427 12.69765,15.3311 2.34979,2.50197 5.38459,4.35173 7.50316,7.0523 1.08673,1.38527 1.95634,2.95945 2.59724,4.59932 0.30577,0.78236 -0.001,1.84408 0.57716,2.45299 0.7589,0.79859 2.1932,0.41899 3.17442,0.91987 1.62922,0.83165 3.4098,1.7912 4.32874,3.37283 0.67446,1.16084 0.1566,2.7111 0.57716,3.98608 0.25447,0.77147 0.58912,1.56287 1.15434,2.14636 0.85092,0.87843 2.34732,0.93881 3.1744,1.83973 1.06948,1.16495 1.81996,2.724 2.02009,4.29271 0.13162,1.03166 -0.40037,2.04133 -0.57717,3.06622 -0.21105,1.22341 -0.99732,2.51123 -0.57717,3.67945 0.26089,0.72541 1.19408,0.98042 1.73149,1.53312 0.83607,0.85986 1.79636,1.6752 2.30867,2.75959 0.44426,0.94036 0.56854,2.02623 0.57716,3.06622 0.009,1.14059 -0.65849,2.23513 -0.57716,3.37285 0.0605,0.84575 0.25155,1.75873 0.78133,2.42076 0.44416,0.55504 1.30185,0.61561 1.83653,1.08407 0.4145,0.36316 0.79277,0.79896 1.02029,1.30089 0.30361,0.66981 0.3398,1.43591 0.40812,2.16814 0.0537,0.57567 0.21314,1.19707 0,1.73452 -0.25611,0.64579 -1.07747,0.91813 -1.42841,1.5177 -0.45914,0.78444 -0.67861,1.70332 -0.81624,2.60177 -0.10943,0.71438 -0.18988,1.47082 0,2.16814 0.17624,0.64722 0.81059,1.09736 1.0203,1.73453 0.20445,0.62121 0.11935,1.30284 0.20406,1.95132 0.0568,0.43523 0.0307,0.89762 0.20405,1.30089 0.39618,0.92185 1.51319,1.43511 1.83653,2.38496 0.27947,0.821 0.0313,1.73509 0,2.60178 -0.034,0.94137 0.0345,1.9073 -0.20406,2.81857 -0.32367,1.23631 -1.67988,2.19193 -1.63247,3.46903 0.0308,0.82942 0.69149,1.5318 1.22435,2.16815 0.50986,0.60889 1.33657,0.90066 1.83654,1.5177 0.46208,0.57028 0.75083,1.26859 1.02029,1.95133 0.46801,1.1858 0.59281,2.48484 1.02029,3.68585 0.39703,1.11548 0.9816,2.15574 1.42841,3.25222 0.29142,0.71514 0.80454,1.396 0.81624,2.16814 0.0127,0.84016 -0.74693,1.54757 -0.81624,2.38496 -0.10273,1.2412 -0.15805,2.70714 0.61218,3.68585 0.22854,0.2904 0.67078,0.31362 1.02029,0.43363 0.53251,0.18285 1.2217,0.0486 1.63248,0.43363 0.77878,0.73 0.82197,1.98656 1.02029,3.0354 0.25544,1.3509 0.17003,2.74505 0.20405,4.11947 0.0268,1.08374 0.0508,2.16934 0,3.25222 -0.034,0.72511 -0.11375,1.44787 -0.20405,2.16814 -0.1092,0.87105 -0.48864,1.72762 -0.40812,2.60178 0.0562,0.61054 0.37931,1.16733 0.61217,1.73451 0.24268,0.59112 0.39416,1.25477 0.81625,1.73452 0.53284,0.60562 1.58867,0.63269 2.04058,1.30088 0.206,0.30458 0.1699,0.71796 0.20406,1.08407 0.0604,0.64763 0,1.30089 0,1.95134 v 1.5177 c 0,0.86726 0.10045,2.78283 0.81623,3.90265 0.45655,0.71426 1.56405,0.81663 2.0406,1.51771 0.589,0.86651 0.67901,1.99668 0.81623,3.0354 0.25325,1.91574 0.06,1.99998 -0.40812,3.03541 -0.3573,0.79023 -1.40509,2.51099 -1.63247,3.90264 -0.15189,0.92967 -0.40811,1.95134 0.20406,2.8186 0.61218,0.86726 0.91651,1.39736 1.22435,2.16814 0.41455,1.03797 0.58293,2.15914 0.81624,3.25221 0.2451,1.14835 0.61218,3.46904 0.61218,3.46904 0,0 1.37215,10.06306 1.75341,10.24274 0.23493,0.11072 2.22077,-6.20687 2.73588,-6.04055 0.1668,0.0539 0.11899,2.31883 0,3.46903 -0.13676,1.32198 -0.73867,2.57589 -0.81623,3.90266 -0.17785,3.04238 0.60273,6.06612 0.81623,9.10621 0.37515,5.34185 1.26984,10.70851 0.81624,16.04427 -0.26349,3.0995 -0.99493,6.17655 -2.04059,9.10621 -0.81549,2.28479 -2.53327,4.19144 -3.26494,6.50444 -0.83738,2.64719 -1.01974,5.47002 -1.22436,8.23895 -0.17044,2.30639 0.33745,4.65012 0,6.93805 -0.42499,2.88145 -1.70641,6.6313 -2.52265,8.36581 -0.81623,1.73451 -1.22435,11.27435 -1.22435,11.27435 0,0 0.32098,-3.31861 0.0739,-5.11359 -0.51761,-3.76099 -2.27744,-7.36965 -2.24465,-11.16595 0.0371,-4.29098 2.3153,-8.30665 2.7548,-12.57523 0.33311,-3.23529 -0.23643,-6.50703 -0.10203,-9.75665 0.19647,-4.75032 0.98762,-9.45905 1.32638,-14.20135 0.14694,-2.05702 0.39284,-4.11877 0.30609,-6.1792 -0.16104,-3.82501 -1.20438,-7.56829 -1.53044,-11.38278 -0.15706,-1.83747 0.26973,-3.74649 -0.20406,-5.52876 -1.0352,-3.89412 -4.68277,-6.78578 -5.61162,-10.70662 -1.47331,-6.21911 -0.35021,-12.77574 -1.78071,-19.04698 -1.16713,-5.11665 -2.71796,-10.1943 -4.34376,-15.29158 -1.68779,-5.29162 -3.41199,-10.61146 -4.8947,-15.85398 -2.00856,-7.10182 -4.21743,-13.92945 -6.63213,-20.90364 -1.52182,-4.39537 -3.07649,-8.75316 -4.4543,-13.04095 -1.98649,-6.18203 -4.41238,-12.28487 -6.87075,-18.52451 -1.81319,-4.60208 -3.90722,-10.12282 -6.0634,-14.96725 -2.88471,-6.48127 -5.75308,-13.10274 -9.03696,-19.28943 -4.94302,-9.31245 -10.17215,-19.06555 -16.73282,-27.31861 -3.46652,-4.36074 -6.71523,-7.85352 -10.62845,-11.58866 -2.7655,-2.63966 -5.81582,-5.09799 -9.36931,-7.92465 -2.52533,-2.0088 -7.11119,-5.27345 -11.11931,-7.37777 -3.74006,-1.96359 -7.12469,-3.44026 -8.06222,-3.46295 z m 13.83406,-11.99894 c 0,0 11.31936,3.60239 16.77477,5.92814 5.3237,2.2696 10.1501,5.61884 15.50847,7.80532 2.64401,1.07888 5.31382,2.80343 8.16235,2.60177 1.65766,-0.11735 4.48929,-2.16814 4.48929,-2.16814 0,0 3.08665,1.58983 4.4893,2.60177 1.76827,1.27571 2.71751,4.38355 4.89741,4.33628 2.08003,-0.0451 4.4893,-4.33628 4.4893,-4.33628 0,0 1.06187,4.53453 2.85682,5.63717 1.15915,0.71207 2.72374,0.0897 4.08117,0 1.09548,-0.0724 3.26494,-0.43363 3.26494,-0.43363 0,0 1.24497,2.5445 2.44871,3.03541 1.14157,0.46556 2.50333,-0.0442 3.67306,-0.43363 1.64102,-0.54633 4.48929,-2.60178 4.48929,-2.60178 0,0 1.99472,3.45794 3.67305,4.3363 1.33201,0.69711 3.01469,0.72645 4.4893,0.43363 1.20876,-0.24003 2.41492,-0.84224 3.26494,-1.73452 0.66112,-0.69399 1.22436,-2.60178 1.22436,-2.60178 0,0 2.16971,0.6056 3.26494,0.86726 1.3527,0.32317 2.83936,0.24106 4.08118,0.86726 0.97345,0.49087 1.42928,1.7817 2.4487,2.16815 1.14485,0.434 2.44938,0.0406 3.67306,0 2.18022,-0.0723 4.35566,-0.25647 6.52988,-0.43363 1.49843,-0.12209 3.06796,0.0563 4.4893,-0.43363 0.76263,-0.26286 1.44843,-0.75312 2.04059,-1.30089 0.6641,-0.61432 1.63247,-2.16815 1.63247,-2.16815 0,0 2.48274,0.4601 3.67305,0.86726 0.99004,0.33865 1.88661,0.90904 2.85683,1.30089 1.60581,0.64855 3.16699,1.66461 4.89741,1.73452 1.12513,0.0455 2.23809,-0.4051 3.26493,-0.86726 1.19133,-0.53619 2.22564,-1.37658 3.26495,-2.16815 1.57741,-1.20141 4.4893,-3.90266 4.4893,-3.90266 0,0 2.08345,1.3841 3.26494,1.73452 1.57121,0.466 3.32258,0.88722 4.89741,0.43362 1.14876,-0.33088 1.77769,-1.65373 2.85682,-2.16814 1.6437,-0.78353 3.48472,-1.31835 5.30553,-1.30089 1.68901,0.0162 3.21427,1.44233 4.89742,1.30089 2.08536,-0.17524 3.80027,-1.75415 5.71364,-2.60177 5.01088,-2.21981 9.9927,-4.51737 15.10035,-6.50443 5.77082,-2.24506 17.54187,-6.11282 17.54187,-6.11282 -0.8749,-0.17638 -42.3667,0.29386 -67.29917,2.49144 -9.71447,0.85625 -34.58534,0.43034 -44.13836,-0.1169 -13.07604,-0.74907 -26.21573,-1.52673 -39.27447,-2.57075 -12.30993,-0.98415 -24.52955,-2.77481 -36.86204,-3.41725 -4.95576,-0.25816 -14.88706,-0.10452 -14.88706,-0.10452 z"
       inkscape:label="C54.1 Endometrium"
       inkscape:connector-curvature="0"
       sodipodi:nodetypes="cssssssssssssssssssssssssssssssssssssssssssssssssssssssssssssssssssssssssssssssssssssssssssssssssssssssssccsssssssssssssssssssssssssssssssssssssssssssssssssssssssssssssssscssssssssssscsssssssssssssssssssssccssscsscsscsscssscssssssscssssscssssssscsssscs" />
    <path
       style="opacity:1;fill:none;fill-rule:evenodd;stroke:#000000;stroke-width:1;stroke-linecap:butt;stroke-linejoin:miter;stroke-miterlimit:4;stroke-dasharray:none;stroke-opacity:1"
       d="m 334.03902,382.46217 c 0.0239,-2.1228 3.00344,-2.06654 16.64287,-1.93078 13.62711,0.13564 15.28117,-1.16363 15.28117,2.36252 0,0.66123 -0.15289,3.34336 -0.14429,4.2927 0.0258,2.8511 -1.00046,3.04172 -1.44292,4.1394 -0.41147,1.02079 -0.36816,1.57054 -0.86575,2.75959 -0.35968,0.8595 -0.61755,2.13538 -0.57716,3.06622 0.0568,1.30821 0,1.68643 -0.77871,3.11867 -0.41752,0.7679 -1.1752,1.93879 -1.53907,2.73351 -0.55837,1.2195 -0.57078,2.58243 -0.56806,4.11303 0.13396,1.77435 -0.0192,2.18611 0.43289,3.98609 0.21432,0.75936 0.14428,2.9129 0.18689,3.53891 0.1656,2.43263 -0.51114,2.84867 -11.19166,2.74912 -9.46029,-0.0882 -9.78174,-0.50942 -9.93827,-1.71815 -0.0972,-0.75036 -1.20788,-0.95969 -0.98339,-2.04552 0.15169,-0.73371 0.0982,-1.90437 0.49127,-2.79594 0.53133,-1.2052 1.0938,-2.13183 1.32002,-2.78526 0.51188,-1.47854 0.40812,-3.03541 0.26317,-4.11199 -0.0769,-0.57117 -0.008,-1.35755 -0.67128,-1.95882 -0.59892,-0.54293 -1.80486,-0.93114 -2.0406,-1.51771 -0.53063,-1.32034 -0.71871,-2.34225 -0.81623,-3.90265 -0.20847,-3.33583 0.13678,-3.71544 -0.20406,-4.55311 -0.43581,-1.07107 -1.45779,-0.30215 -2.04058,-1.30088 -0.4423,-0.75797 -1.06471,-2.78516 -1.42842,-3.46903 -0.5462,-1.02709 0.36876,-1.53942 0.40812,-2.60178 0.015,-0.4059 0.20405,-2.16814 0.20405,-2.16814 z"
       id="C54.0"
       inkscape:connector-curvature="0"
       inkscape:label="C54.0 Unteres Uterinsegment"
       sodipodi:nodetypes="ssssssssssssssssssssssssss" />
    <path
       style="fill:none;fill-rule:evenodd;stroke:#000000;stroke-width:1;stroke-linecap:butt;stroke-linejoin:miter;stroke-miterlimit:4;stroke-dasharray:none;stroke-opacity:1"
       d="m 268.71067,529.28414 c 0,0 -0.18743,9.0601 0.57717,13.18474 0.66743,3.60042 1.80651,7.15949 3.46299,10.42515 2.55303,5.03316 6.77462,9.0413 9.81182,13.79799 2.08967,3.27271 4.33892,6.50955 5.77165,10.11852 1.35804,3.42082 2.00951,7.09847 2.59724,10.73177 2.03086,12.5546 2.47606,25.3225 3.17441,38.02111 0.99374,18.06978 1.44292,54.27208 1.44292,54.27208 v 0"
       id="path5968"
       inkscape:connector-curvature="0"
       sodipodi:nodetypes="csssssssc" />
    <path
       style="fill:none;fill-rule:evenodd;stroke:#000000;stroke-width:1;stroke-linecap:butt;stroke-linejoin:miter;stroke-miterlimit:4;stroke-dasharray:none;stroke-opacity:1"
       d="m 432.30146,527.58902 c 0,0 -0.0567,7.94257 -0.83012,11.81365 -0.59155,2.96063 -1.77667,5.77738 -2.88582,8.58541 -1.362,3.44817 -2.61139,7.00065 -4.61732,10.11853 -1.90462,2.96041 -4.96415,5.04935 -6.92599,7.97216 -1.78618,2.66111 -3.12361,5.61564 -4.32875,8.58541 -1.69172,4.16882 -3.21996,8.45452 -4.04015,12.87813 -1.12017,6.04153 -0.72499,12.26783 -1.15434,18.39731 -0.52291,7.46513 -1.48509,14.90403 -1.73149,22.3834 -0.55867,16.9583 0.57716,50.89924 0.57716,50.89924 v 0"
       id="path5970"
       inkscape:connector-curvature="0"
       sodipodi:nodetypes="csssssssssc" />
    <path
       style="fill:none;fill-rule:evenodd;stroke:#000000;stroke-width:1;stroke-linecap:butt;stroke-linejoin:miter;stroke-miterlimit:4;stroke-dasharray:none;stroke-opacity:1"
       d="m 514.04353,202.96662 c 0,0 16.33664,-3.33637 24.25838,-5.88079 6.98404,-2.24324 13.83894,-4.97027 20.40587,-8.23895 5.53748,-2.75627 15.9166,-9.53983 15.9166,-9.53983"
       id="path5972"
       inkscape:connector-curvature="0"
       sodipodi:nodetypes="cssc" />
    <path
       style="fill:none;fill-rule:evenodd;stroke:#000000;stroke-width:1;stroke-linecap:butt;stroke-linejoin:miter;stroke-miterlimit:4;stroke-dasharray:none;stroke-opacity:1"
       d="m 518.04617,212.1055 c 3.01895,-0.053 13.68906,-3.46462 20.25574,-5.91347 6.86281,-2.55928 13.59013,-5.5579 19.99776,-9.1062 6.42002,-3.55516 18.3653,-12.14161 18.3653,-12.14161"
       id="path5974"
       inkscape:connector-curvature="0"
       sodipodi:nodetypes="cssc" />
    <path
       style="fill:none;fill-rule:evenodd;stroke:#000000;stroke-width:1;stroke-linecap:butt;stroke-linejoin:miter;stroke-miterlimit:4;stroke-dasharray:none;stroke-opacity:1"
       d="m 519.93661,223.97082 c 0,0 12.97831,-2.87766 19.18154,-5.20355 14.01029,-5.25313 20.58863,-9.77321 27.75199,-14.30975 5.1275,-3.24723 15.50848,-9.53983 15.50848,-9.53983"
       id="path5976"
       inkscape:connector-curvature="0"
       sodipodi:nodetypes="cssc" />
    <path
       style="fill:none;fill-rule:evenodd;stroke:#000000;stroke-width:1;stroke-linecap:butt;stroke-linejoin:miter;stroke-miterlimit:4;stroke-dasharray:none;stroke-opacity:1"
       d="m 520.34473,232.64339 c 14.14204,-4.03813 21.89019,-5.37214 37.80254,-13.67143 9.47416,-4.94137 26.68005,-17.11621 26.68005,-17.11621"
       id="path5978"
       inkscape:connector-curvature="0"
       sodipodi:nodetypes="csc" />
    <path
       style="fill:none;fill-rule:evenodd;stroke:#000000;stroke-width:1;stroke-linecap:butt;stroke-linejoin:miter;stroke-miterlimit:4;stroke-dasharray:none;stroke-opacity:1"
       d="m 186.78003,203.51986 c -8.08901,-1.5795 -16.38894,-2.73219 -23.94635,-6.0004 -7.79942,-3.37287 -14.22428,-6.77205 -21.68057,-9.87211"
       id="path5980"
       inkscape:connector-curvature="0"
       sodipodi:nodetypes="csc" />
    <path
       style="fill:none;fill-rule:evenodd;stroke:#000000;stroke-width:1;stroke-linecap:butt;stroke-linejoin:miter;stroke-miterlimit:4;stroke-dasharray:none;stroke-opacity:1"
       d="m 178.67285,232.95578 c -9.124,-2.07884 -18.25574,-4.36235 -26.52765,-8.67257 -7.17786,-3.74015 -14.02346,-7.60965 -20.73659,-12.454"
       id="path5982"
       inkscape:connector-curvature="0"
       sodipodi:nodetypes="csc" />
    <path
       style="fill:none;fill-rule:evenodd;stroke:#000000;stroke-width:1;stroke-linecap:butt;stroke-linejoin:miter;stroke-miterlimit:4;stroke-dasharray:none;stroke-opacity:1"
       d="m 137.82006,194.58072 c 7.65783,4.37552 15.65661,8.05129 23.67083,11.70798 6.78916,3.09772 13.93571,4.05661 21.22212,5.20355"
       id="path5984"
       inkscape:connector-curvature="0"
       sodipodi:nodetypes="csc" />
    <path
       style="fill:none;fill-rule:evenodd;stroke:#000000;stroke-width:1;stroke-linecap:butt;stroke-linejoin:miter;stroke-miterlimit:4;stroke-dasharray:none;stroke-opacity:1"
       d="m 136.49669,206.33758 c 7.11591,4.08435 14.42281,7.81808 22.03836,10.84073 7.36356,2.92264 14.58161,6.23928 22.44647,7.80531"
       id="path5986"
       inkscape:connector-curvature="0"
       sodipodi:nodetypes="csc" />
    <path
       id="C54.9"
       style="font-size:33.2768px;font-family:'.Arial Hebrew Desk Interface';-inkscape-font-specification:'.Arial Hebrew Desk Interface, Normal';display:inline;fill:none;fill-rule:evenodd;stroke:#000000;stroke-width:1;stroke-dasharray:none;image-rendering:optimizeQuality;shape-rendering:geometricPrecision;text-rendering:geometricPrecision"
       d="m 618.93383,133.08552 q -2.7719,3.62043 -7.41057,3.62043 -4.18613,0 -6.84489,-2.65875 -2.60219,-2.71532 -2.60219,-6.78832 0,-4.35583 2.99817,-7.354 3.05474,-2.99817 7.24087,-2.99817 5.31751,0 8.42882,3.95985 3.16787,3.95985 3.16787,10.63501 0,7.24086 -3.28101,11.70984 -3.22446,4.46898 -8.99452,4.46898 -3.05473,0 -5.54378,-1.69709 -2.43247,-1.75366 -2.99817,-4.01642 l 4.80839,-0.7354 q 1.13138,2.14964 4.12955,2.14964 3.22446,0 5.03468,-2.7719 1.86678,-2.82846 1.86678,-7.5237 z m -0.90511,-5.93977 q 0,-2.88504 -1.47081,-4.52555 -1.41423,-1.64049 -3.95985,-1.64049 -2.20619,0 -3.79014,1.75363 -1.58393,1.69709 -1.58393,4.41241 0,2.37592 1.4708,3.95985 1.47081,1.52736 3.8467,1.52736 2.26278,0 3.84672,-1.52736 1.64051,-1.58393 1.64051,-3.95985 z m 15.97264,4.47502 A 21.750674,21.750674 0 0 1 612.25068,153.37143 21.750674,21.750674 0 0 1 590.5,131.62077 a 21.750674,21.750674 0 0 1 21.75068,-21.75069 21.750674,21.750674 0 0 1 21.75068,21.75069 z"
       inkscape:label="C54.9" />
    <path
       id="C54.8"
       style="font-size:33.2768px;font-family:'.Arial Hebrew Desk Interface';-inkscape-font-specification:'.Arial Hebrew Desk Interface, Normal';display:inline;fill:none;fill-rule:evenodd;stroke:#000000;stroke-width:1;stroke-dasharray:none;image-rendering:optimizeQuality;shape-rendering:geometricPrecision;text-rendering:geometricPrecision"
       d="m 606.21,70.328509 q -3.28102,-2.26276 -3.28102,-6.10946 0,-3.84672 2.77191,-5.88321 2.82845,-2.03649 6.50545,-2.03649 3.62044,0 6.44891,2.03649 2.82846,2.03649 2.82846,5.88321 0,3.8467 -3.28102,6.10946 v 0.0567 q 2.2062,1.01825 3.5073,3.05474 1.35765,1.97992 1.35765,4.35583 0,3.84672 -2.99816,6.61861 -2.99817,2.7719 -7.86314,2.7719 -5.03466,0 -7.97626,-2.7719 -2.88504,-2.82846 -2.88504,-6.61861 0,-2.37591 1.30111,-4.35583 1.35766,-2.03649 3.56385,-3.05474 z m 5.99634,-1.58393 q 1.69709,0 3.05474,-1.01824 1.41423,-1.01825 1.41423,-2.94161 0,-2.09306 -1.35766,-3.1113 -1.30108,-1.07483 -3.11131,-1.07483 -1.97992,0 -3.22444,1.13139 -1.24453,1.13138 -1.24453,3.05474 0,1.86678 1.35767,2.94161 1.41423,1.01824 3.1113,1.01824 z m 0,14.14232 q 2.14963,0 3.79014,-1.24453 1.64051,-1.24452 1.64051,-3.84671 0,-2.09306 -1.58393,-3.5073 -1.58394,-1.41423 -3.84672,-1.41423 -2.20619,0 -3.8467,1.41423 -1.58394,1.41424 -1.58394,3.5073 0,2.60219 1.64051,3.84671 1.64051,1.24453 3.79013,1.24453 z m 21.79499,-11.26614 A 21.750674,21.750674 0 0 1 612.25068,93.371439 21.750674,21.750674 0 0 1 590.5,71.620759 a 21.750674,21.750674 0 0 1 21.75068,-21.75068 21.750674,21.750674 0 0 1 21.75065,21.75068 z"
       inkscape:label="C54.8" />
  </g>
</svg>
