<?xml version="1.0" encoding="UTF-8" standalone="no"?>
<!-- Created with Inkscape (http://www.inkscape.org/) -->

<svg
   id="svg4136"
   version="1.1"
   inkscape:version="1.3 (0e150ed, 2023-07-21)"
   width="700"
   height="750"
   viewBox="0 0 700 750"
   sodipodi:docname="level3_C31_24-01.svg"
   xmlns:inkscape="http://www.inkscape.org/namespaces/inkscape"
   xmlns:sodipodi="http://sodipodi.sourceforge.net/DTD/sodipodi-0.dtd"
   xmlns="http://www.w3.org/2000/svg"
   xmlns:svg="http://www.w3.org/2000/svg"
   xmlns:rdf="http://www.w3.org/1999/02/22-rdf-syntax-ns#"
   xmlns:cc="http://creativecommons.org/ns#"
   xmlns:dc="http://purl.org/dc/elements/1.1/">
  <metadata
     id="metadata4142">
    <rdf:RDF>
      <cc:Work
         rdf:about="">
        <dc:format>image/svg+xml</dc:format>
        <dc:type
           rdf:resource="http://purl.org/dc/dcmitype/StillImage" />
      </cc:Work>
    </rdf:RDF>
  </metadata>
  <defs
     id="defs4140" />
  <sodipodi:namedview
     pagecolor="#ffffff"
     bordercolor="#666666"
     borderopacity="1"
     objecttolerance="10"
     gridtolerance="10"
     guidetolerance="10"
     inkscape:pageopacity="0"
     inkscape:pageshadow="2"
     inkscape:window-width="1072"
     inkscape:window-height="738"
     id="namedview4138"
     showgrid="false"
     inkscape:zoom="0.66970064"
     inkscape:cx="188.14377"
     inkscape:cy="383.00695"
     inkscape:window-x="0"
     inkscape:window-y="25"
     inkscape:window-maximized="0"
     inkscape:current-layer="svg4136"
     inkscape:showpageshadow="2"
     inkscape:pagecheckerboard="0"
     inkscape:deskcolor="#d1d1d1" />
  <path
     style="fill:none;fill-rule:evenodd;stroke:#000000;stroke-width:1;stroke-linecap:butt;stroke-linejoin:miter;stroke-miterlimit:4;stroke-dasharray:none;stroke-opacity:1"
     d="m 319.73951,289.18899 c 6.07717,3.50692 14.19871,15.70528 16.86031,22.61664 2.6616,6.91136 -0.8804,11.84095 1.53276,16.15471 2.41316,4.31376 5.42496,4.71363 10.72925,8.0774 5.30429,3.36377 16.94743,6.39185 21.45856,11.30835 4.51113,4.9165 5.32208,9.26659 6.13101,14.53929 0.80893,5.2727 0.9032,11.24074 -1.53275,16.15471 -2.43595,4.91397 -6.71822,9.41765 -12.26205,11.30835 -5.54383,1.8907 -10.51801,0.50337 -18.39299,-1.61551 -7.87498,-2.11888 -21.10602,-13.3418 -27.58959,-12.92376 -6.48357,0.41804 -2.61278,5.47396 -7.18382,4.57274 -4.57104,-0.90122 -6.02052,-10.8921 -11.2092,-15.88109 -5.18868,-4.98899 -16.47166,-7.22615 -19.92584,-12.92376 -3.45418,-5.69761 -1.46518,-9.94111 -1.53273,-16.1548 -0.0676,-6.21369 1.27744,-13.99609 1.53273,-21.00114 0.25529,-7.00505 -3.46845,-15.77486 0,-21.00119 3.46845,-5.22633 10.53721,-5.81617 15.32755,-6.4619 4.79034,-0.64573 7.91934,1.07519 12.26203,1.61551 4.34269,0.54032 7.7176,-1.89147 13.79477,1.61545 z"
     id="C31.3"
     inkscape:connector-curvature="0"
     sodipodi:nodetypes="zzzzzzzzzzzzzzzzzzz"
     inkscape:label="C31.3 Sinus sphenoidalis [Keilbeinhöhle]" />
  <path
     style="fill:none;fill-rule:evenodd;stroke:#000000;stroke-width:1;stroke-linecap:butt;stroke-linejoin:miter;stroke-miterlimit:4;stroke-dasharray:none;stroke-opacity:1"
     d="m 231.19576,244.27062 c 5.48021,5.00683 12.57721,9.26005 15.32755,16.15473 1.59615,4.0013 0.40334,8.63475 0,12.92374 -0.51317,5.45695 -4.01365,10.75641 -3.0655,16.15481 0.8664,4.9329 6.62655,8.02396 7.66376,12.92379 0.89839,4.24407 1.71036,10.04256 -1.53276,12.92378 -3.43761,3.054 -9.61901,1.92531 -13.7948,0 -6.43047,-2.96486 -7.72565,-12.50689 -13.79479,-16.15476 -8.52255,-5.12249 -19.17981,-6.31765 -29.1223,-6.46189 -5.72176,-0.083 -11.50612,5.25044 -16.8603,3.23099 -7.01624,-2.64633 -11.36445,-10.67627 -13.79475,-17.77024 -2.09428,-6.11313 -2.52418,-13.43723 0,-19.38574 3.33009,-7.84771 16.6309,-9.42928 18.39306,-17.7702 0.84111,-3.98127 -5.99282,-7.48556 -4.59831,-11.3083 1.58335,-4.3404 7.77706,-5.35247 12.26206,-6.46192 4.95969,-1.22687 10.71377,-2.19474 15.32754,0 4.38748,2.0871 5.27696,8.43724 9.1965,11.30833 3.54555,2.59714 8.45375,2.6525 12.26201,4.8464 2.2573,1.3004 4.20777,3.08935 6.13103,4.84648 z"
     id="C31.1"
     inkscape:connector-curvature="0"
     inkscape:label="C31.1 Sinus ethmoidalis [Siebbeinzellen]"
     sodipodi:nodetypes="sssssssssssssssssss" />
  <path
     style="fill:none;fill-rule:evenodd;stroke:#000000;stroke-width:1;stroke-linecap:butt;stroke-linejoin:miter;stroke-miterlimit:4;stroke-dasharray:none;stroke-opacity:1"
     d="m 138.10319,156.48051 c 4.06576,-0.34095 7.64077,4.30559 9.19653,8.07736 2.88126,6.98528 -0.92039,15.08534 -1.53277,22.61666 -0.43837,5.39131 -1.59617,10.74602 -1.53275,16.15475 0.0509,4.33783 0.33179,8.75524 1.53275,12.92382 1.64999,5.72719 4.96511,10.84056 7.66376,16.15474 1.94145,3.8231 6.17544,7.02073 6.13104,11.30831 -0.0321,3.098 -1.99064,6.40435 -4.59825,8.07737 -5.18012,3.32351 -12.51679,-0.2145 -18.39306,1.61549 -7.2916,2.27076 -12.7412,13.89786 -19.92577,11.30832 -5.41847,-1.95298 -4.65154,-10.58833 -6.13101,-16.15475 -1.68048,-6.32268 -3.38063,-12.85111 -3.06551,-19.38571 0.29471,-6.11139 2.24812,-12.12105 4.59822,-17.77021 1.92372,-4.62424 5.68449,-8.32309 7.66379,-12.92381 2.21262,-5.14305 2.98758,-10.79263 4.59827,-16.15475 1.46231,-4.86815 2.18571,-10.06526 4.59825,-14.53928 2.30602,-4.27647 4.35491,-10.90229 9.19651,-11.30831 z"
     id="C31.2"
     inkscape:connector-curvature="0"
     inkscape:label="C31.2 Sinus frontalis [Stirnhöhle]"
     sodipodi:nodetypes="sssssssssssssssss" />
  <path
     style="fill:none;fill-rule:evenodd;stroke:#000000;stroke-width:1;stroke-linecap:butt;stroke-linejoin:miter;stroke-miterlimit:4;stroke-dasharray:none;stroke-opacity:1"
     d="m 140.45659,331.65446 c 7.14598,0.31321 14.42511,-1.30165 21.45852,0 5.91823,1.09527 11.48046,3.76327 16.86028,6.46189 2.70168,1.35521 6.20553,2.19892 7.66376,4.84641 2.85777,5.18845 0.55459,11.87285 0,17.77024 -0.51317,5.45693 -1.48088,10.9078 -3.06548,16.15475 -1.52062,5.0351 -2.48509,10.74828 -6.13101,14.53929 -3.5198,3.65987 -8.7978,5.55988 -13.7948,6.4619 -6.55774,1.18375 -13.26751,-1.346 -19.92578,-1.61547 -6.6365,-0.26858 -13.41558,1.31622 -19.92579,0 -5.43471,-1.09878 -11.65251,-2.31013 -15.32755,-6.46193 -3.71092,-4.19233 -3.82444,-10.60967 -4.59824,-16.15474 -0.96751,-6.93321 -0.30107,-14.00726 0,-21.00118 0.25569,-5.9399 -2.24469,-13.17907 1.53275,-17.77022 3.71535,-4.51568 11.03962,-4.28503 16.86027,-4.8464 6.1262,-0.59084 12.24435,1.34596 18.39307,1.61546 z"
     id="C31.0"
     inkscape:connector-curvature="0"
     inkscape:label="C31.0 Sinus maxillaris [Kieferhöhle]"
     sodipodi:nodetypes="ssssssssssssssss" />
  <path
     id="C31.9"
     style="font-size:33.2768px;font-family:'.Arial Hebrew Desk Interface';-inkscape-font-specification:'.Arial Hebrew Desk Interface, Normal';display:inline;fill:none;stroke:#000000;stroke-width:1;stroke-dasharray:none"
     d="m 618.93383,143.71544 q -2.7719,3.62043 -7.41057,3.62043 -4.18613,0 -6.84489,-2.65875 -2.60219,-2.71532 -2.60219,-6.78832 0,-4.35583 2.99817,-7.354 3.05474,-2.99817 7.24087,-2.99817 5.31751,0 8.42882,3.95985 3.16787,3.95985 3.16787,10.63501 0,7.24086 -3.28101,11.70984 -3.22446,4.46898 -8.99452,4.46898 -3.05473,0 -5.54378,-1.69709 -2.43247,-1.75366 -2.99817,-4.01642 l 4.80839,-0.7354 q 1.13138,2.14964 4.12955,2.14964 3.22446,0 5.03468,-2.7719 1.86678,-2.82846 1.86678,-7.5237 z m -0.90511,-5.93977 q 0,-2.88504 -1.47081,-4.52555 -1.41423,-1.64049 -3.95985,-1.64049 -2.20619,0 -3.79014,1.75363 -1.58393,1.69709 -1.58393,4.41241 0,2.37592 1.4708,3.95985 1.47081,1.52736 3.8467,1.52736 2.26278,0 3.84672,-1.52736 1.64051,-1.58393 1.64051,-3.95985 z m 15.97264,4.47502 A 21.750674,21.750674 0 0 1 612.25068,164.00135 21.750674,21.750674 0 0 1 590.5,142.25069 21.750674,21.750674 0 0 1 612.25068,120.5 a 21.750674,21.750674 0 0 1 21.75068,21.75069 z"
     inkscape:label="C31.9" />
  <path
     id="C31.8"
     style="font-size:33.2768px;font-family:'.Arial Hebrew Desk Interface';-inkscape-font-specification:'.Arial Hebrew Desk Interface, Normal';display:inline;fill:none;stroke:#000000;stroke-width:1;stroke-dasharray:none"
     d="m 606.21,80.958431 q -3.28102,-2.26276 -3.28102,-6.109462 0,-3.846722 2.77191,-5.883209 2.82845,-2.036487 6.50545,-2.036487 3.62044,0 6.44891,2.036487 2.82846,2.036487 2.82846,5.883209 0,3.846702 -3.28102,6.109462 v 0.05667 q 2.2062,1.018249 3.5073,3.054736 1.35765,1.97992 1.35765,4.355838 0,3.846712 -2.99816,6.618607 -2.99817,2.771895 -7.86314,2.771895 -5.03466,0 -7.97626,-2.771895 -2.88504,-2.828463 -2.88504,-6.618607 0,-2.375918 1.30111,-4.355838 1.35766,-2.036487 3.56385,-3.054736 z m 5.99634,-1.583931 q 1.69709,0 3.05474,-1.018239 1.41423,-1.018249 1.41423,-2.941609 0,-2.093066 -1.35766,-3.111305 -1.30108,-1.074827 -3.11131,-1.074827 -1.97992,0 -3.22444,1.131386 -1.24453,1.131385 -1.24453,3.054746 0,1.866782 1.35767,2.941609 1.41423,1.018239 3.1113,1.018239 z m 0,14.142317 q 2.14963,0 3.79014,-1.244522 1.64051,-1.244521 1.64051,-3.846711 0,-2.093068 -1.58393,-3.507305 -1.58394,-1.414226 -3.84672,-1.414226 -2.20619,0 -3.8467,1.414226 -1.58394,1.414237 -1.58394,3.507305 0,2.60219 1.64051,3.846711 1.64051,1.244522 3.79013,1.244522 z m 21.79499,-11.26614 A 21.750674,21.750674 0 0 1 612.25068,104.00136 21.750674,21.750674 0 0 1 590.5,82.250677 21.750674,21.750674 0 0 1 612.25068,60.5 21.750674,21.750674 0 0 1 634.00133,82.250677 Z"
     inkscape:label="C31.8" />
  <path
     id="path4152"
     style="fill:none;fill-rule:evenodd;stroke:#000000;stroke-width:1;stroke-linecap:butt;stroke-linejoin:miter;stroke-miterlimit:4;stroke-dasharray:none;stroke-opacity:1"
     d="m 563.32669,157.26269 c 0,0 7.84903,14.35637 10.83783,21.94887 2.8222,7.16928 5.69123,14.49384 6.64029,22.13993 1.36492,10.9965 -0.39927,22.1814 -1.47562,33.20989 -0.95806,9.81649 -2.18717,19.65089 -4.42687,29.25636 -2.76348,11.85179 -7.16657,23.26362 -11.06714,34.7913 -3.5004,10.34502 -6.73714,20.81165 -11.06717,30.83777 -3.86948,8.95972 -8.30105,17.69984 -13.28059,26.0935 -4.88847,8.24015 -10.99489,15.69815 -16.23183,23.72134 -5.08995,7.79801 -11.44655,15.0172 -14.7562,23.72138 -3.61188,9.49904 -4.92869,19.88721 -5.16467,30.04703 -0.27754,11.94889 3.1837,23.69474 4.42686,35.58203 1.51321,14.46953 1.92403,29.04816 3.68905,43.48914 1.1334,9.27324 2.57357,18.51835 4.42686,27.67493 2.0459,10.10824 3.95182,20.31961 7.3781,30.04704 3.47851,9.8757 7.57312,19.68756 13.28059,28.46562 5.71562,8.79059 13.15292,16.39975 20.65869,23.72138 5.02876,4.90539 10.938,8.82399 16.23183,13.44207 3.52316,3.07344 10.32935,9.48855 10.32935,9.48855 M 105.1714,156.91512 c 0,0 -6.271425,23.77663 -9.107965,35.73854 -2.11693,8.92728 -6.4412,17.72519 -5.90248,26.8842 0.57327,9.74646 6.92983,18.28144 9.59154,27.67492 1.545765,5.45516 4.274595,10.96534 3.689045,16.60496 -1.04596,10.07403 -7.307535,19.0047 -12.542775,27.6749 -6.21287,10.28927 -14.24454,19.39808 -22.1343,28.46562 -5.7905,6.6549 -13.8408,11.45271 -18.44527,18.97709 -3.19613,5.22293 -6.60319,11.31263 -5.90249,17.39566 0.63937,5.5506 5.29984,9.92145 8.85373,14.23281 3.20248,3.88505 6.51369,8.13092 11.06716,10.27926 3.59057,1.69405 8.77153,-0.97988 11.80497,1.58143 5.06161,4.27381 5.84345,12.35273 5.90248,18.97707 0.0391,4.39258 -1.95482,8.61546 -3.68906,12.65139 -0.96367,2.24265 -3.57749,3.88731 -3.68904,6.32569 -0.23925,5.22974 3.1964,10.28985 6.64028,14.23282 1.92346,2.20221 7.01569,1.84288 7.37811,4.74427 0.44683,3.57712 -6.13906,4.52182 -7.37811,7.90711 -1.72333,4.70842 -1.42245,10.49892 0.73782,15.02355 1.70485,3.57075 5.90248,5.2714 8.85372,7.9071 1.47562,1.31785 3.64765,2.13504 4.42687,3.95356 3.01203,7.02936 -0.25938,15.29812 -0.73782,22.93064 -0.49683,7.92591 -2.54232,15.7867 -2.21342,23.72135 0.23283,5.61691 0.21245,11.69549 2.95124,16.60496 2.89155,5.18331 7.943605,9.2637 13.280595,11.86066 6.73936,3.27934 14.71459,2.89467 22.13428,3.95357 9.79456,1.39783 19.61945,3.03396 29.51242,3.16285 13.0761,0.17036 26.02907,-2.91527 39.10394,-3.16285 6.15297,-0.11651 12.50987,-0.83523 18.44527,0.7907 7.53496,2.06411 15.51865,5.18643 20.65869,11.06998 6.47826,7.41534 7.86739,18.14108 10.32935,27.67491 1.66579,6.45068 0.48375,13.57928 2.95124,19.76779 2.38295,5.97648 7.88499,10.22221 11.06714,15.81423 4.43387,7.79167 8.01545,16.08258 11.06717,24.51207 3.44506,9.51598 8.35028,19.13867 8.1159,29.25635 -0.27734,11.97232 -11.19636,34.1374 -11.19636,34.1374"
     inkscape:label="Kopfform"
     sodipodi:nodetypes="csssssssssssssssssccssssssssssssssssssssssssssssssssssc" />
</svg>
