<?xml version="1.0" encoding="UTF-8" standalone="no"?>
<!-- Created with Inkscape (http://www.inkscape.org/) -->

<svg
   width="700"
   height="750"
   viewBox="0 0 700 750"
   id="svg6871"
   version="1.1"
   inkscape:version="1.4.3 (0d15f75, 2025-12-25)"
   sodipodi:docname="level2_C69-C72.svg"
   xmlns:inkscape="http://www.inkscape.org/namespaces/inkscape"
   xmlns:sodipodi="http://sodipodi.sourceforge.net/DTD/sodipodi-0.dtd"
   xmlns="http://www.w3.org/2000/svg"
   xmlns:svg="http://www.w3.org/2000/svg"
   xmlns:rdf="http://www.w3.org/1999/02/22-rdf-syntax-ns#"
   xmlns:cc="http://creativecommons.org/ns#"
   xmlns:dc="http://purl.org/dc/elements/1.1/">
  <defs
     id="defs6873" />
  <sodipodi:namedview
     id="base"
     pagecolor="#ffffff"
     bordercolor="#666666"
     borderopacity="1.0"
     inkscape:pageopacity="0.0"
     inkscape:pageshadow="2"
     inkscape:zoom="0.65230168"
     inkscape:cx="426.18317"
     inkscape:cy="268.28077"
     inkscape:document-units="px"
     inkscape:current-layer="layer11"
     showgrid="false"
     inkscape:window-width="1444"
     inkscape:window-height="837"
     inkscape:window-x="0"
     inkscape:window-y="34"
     inkscape:window-maximized="0"
     inkscape:showpageshadow="2"
     inkscape:pagecheckerboard="0"
     inkscape:deskcolor="#d1d1d1" />
  <metadata
     id="metadata6876">
    <rdf:RDF>
      <cc:Work
         rdf:about="">
        <dc:format>image/svg+xml</dc:format>
        <dc:type
           rdf:resource="http://purl.org/dc/dcmitype/StillImage" />
      </cc:Work>
    </rdf:RDF>
  </metadata>
  <g
     inkscape:label="Ebene 1"
     inkscape:groupmode="layer"
     id="layer1"
     transform="translate(0,10.629921)">
    <g
       inkscape:groupmode="layer"
       id="layer11"
       inkscape:label="Hirn"
       style="stroke-width:0.9375;stroke-dasharray:none"
       transform="matrix(2.5747567,0,0,2.5747567,-1989.5463,289.80819)">
      <path
         id="C69"
         style="fill:none;stroke:#000000;stroke-width:0.38838621;stroke-dasharray:none"
         d="m 837.39483,45.659459 c 0,9.982048 -8.09206,18.074094 -18.07411,18.074094 -9.98204,6e-6 -18.07411,-8.092041 -18.07411,-18.074094 0,-9.982056 8.09205,-18.074111 18.07411,-18.074104 9.98205,0 18.07411,8.092052 18.07411,18.074104 z m 45.17118,-14.756983 c -4.38799,4.194751 -8.73228,4.730882 -14.18671,7.15509 -2.76625,1.229436 -7.7687,3.19115 -11.77909,4.415645 -6.41008,1.957181 -11.45861,3.928672 -19.17923,4.674127 l -0.0929,-3.039557 c 7.93726,-0.559741 20.67701,-5.096778 28.2771,-7.889657 4.85222,-1.783111 8.52488,-2.416695 12.54683,-4.737811"
         inkscape:label="C69 Auge"
         sodipodi:nodetypes="ssssscssccsc" />
      <path
         style="display:inline;fill:none;stroke:#000000;stroke-width:0.388386;stroke-dasharray:none;stroke-opacity:1"
         d="m 911.30139,134.04873 c 0.0408,-0.98498 -1.76157,-24.05814 -1.9204,-27.14501 -0.15884,-3.08687 -0.9723,-9.538501 -1.70802,-12.971711 -0.73571,-3.43321 -1.90057,-9.468829 -1.49335,-11.63008 0.20584,-1.092892 1.2942,-5.241187 0.34633,-5.281917 -1.49583,-0.05257 -2.27456,-1.423913 -4.215,-3.645433 -2.79942,-2.857966 -5.83943,-6.823137 -6.93303,-12.29675 -1.02513,-5.424802 0.10321,-12.240344 1.4376,-15.407508 2.79837,-5.300992 6.41516,-4.463403 8.5332,-7.013281 1.02731,-1.236758 1.67391,-6.056159 2.20502,-6.022033 0.65172,-0.488774 1.03322,-1.176655 -0.22283,-1.612998 -0.79869,-0.277459 -4.40042,0.915211 -6.34288,2.005992 -1.94247,1.090781 -7.98347,2.267763 -12.77302,5.901945 -1.21206,0.91968 1.09529,3.933134 1.20155,6.986259 0.11369,3.266536 -1.05523,6.518042 -6.24785,8.86901 -7.63395,3.456289 -20.93144,-3.933571 -13.65341,-11.204527 5.552,-6.001074 7.83471,-2.882888 12.74579,-10.916372 0.53333,-0.872413 0.73686,-1.424043 0.4743,-1.845579 -0.66437,-1.066437 -4.94998,3.918187 -4.91046,0.525284 -1.64412,1.776232 -8.3813,3.714088 -10.6326,3.998485 -1.33038,0.16806 -8.05156,0.672667 -9.37313,-0.161607 -1.89256,1.419438 -4.47563,2.561635 -6.7506,2.859621 -5.4697,0.716448 -17.5246,-2.792979 -19.3571,-8.547305 -4.33356,0 -10.45217,-2.655345 -13.49519,-5.103074 -7.10948,-5.718685 -7.84403,-12.443272 -8.75929,-16.8842525 -0.55605,-2.6978672 -0.0609,-7.51623911 0.52992,-8.9331153 -2.62173,-7.6213211 1.59425,-15.7475922 5.13516,-20.7074482 -2.73619,-8.4342 5.16267,-12.743145 9.03756,-16.599287 0.77042,-0.766691 0.2947,-2.746097 0.439,-3.658215 0.30646,-1.937181 2.34145,-3.895421 3.62408,-5.178077 4.30837,-2.755454 7.89366,-3.613835 11.88675,-3.45531 -2.6181,-5.501505 1.24393,-8.95308 5.85312,-10.681989 6.43323,-2.551294 8.55356,-0.455805 8.92606,-1.170628 4.06635,-4.385373 9.94694,-5.539109 14.13824,-4.997614 0.52102,0.0673 0.61939,-1.050539 0.94437,-1.463287 2.07789,-2.638984 5.10948,-2.975002 7.89098,-3.489445 5.35013,-1.279755 10.31374,-0.472829 13.75489,0.731642 0.53094,-0.111269 11.11697,-0.779488 12.58426,-0.877971 2.30374,-0.154611 9.89855,-0.06504 11.76216,0.435435 6.04374,1.299718 6.33997,3.277642 6.78966,3.089753 4.53488,-1.62163 10.27683,-0.666477 14.07946,1.303655 1.37072,0.123411 3.8228,0.24273 8.28266,0.960451 2.27181,0.365601 7.18373,2.837874 12.03124,5.17012 4.80233,2.310495 9.21094,4.056145 11.31334,4.979036 2.10247,0.922892 6.51664,3.464589 8.37581,4.486231 3.16037,1.736669 6.51893,2.818356 9.5865,4.921788 4.30678,2.4427 5.44392,5.079873 6.56755,6.925962 0.62577,0.625466 3.45632,2.353376 4.31864,3.481392 0.8441,1.104326 3.89737,4.536534 5.14317,5.134265 1.9248,0.923629 5.3501,3.704019 5.7894,5.205416 0.6638,0.976832 0.5907,3.32622 0.224,4.279158 2.5632,1.192516 6.7576,5.965625 5.6292,9.684407 -0.1841,0.804327 -1.1055,1.762601 -1.5409,2.520669 0,0.161833 2.1513,2.8640041 2.359,3.0805471 2.2489,2.343827 0.1821,8.06780219 -0.3791,9.8472729 2.2245,1.4655835 2.5175,3.3024062 3.0983,4.6481548 1.2726,2.9487492 0.137,7.4366472 -0.7405,9.2466632 -0.1238,0.255574 -1.1652,1.612551 -1.0676,2.12497 0.3188,1.671975 2.2472,7.38463 1.3246,10.94029 -0.6803,2.622388 -3.8156,5.360302 -4.7766,6.575885 -0.6154,1.842159 0.5641,9.609099 -4.4675,10.837211 0.9613,8.033993 -5.3655,14.062857 -11.80808,11.867281 4.02308,9.848517 -4.64179,13.876478 -9.95035,18.826126 -3.14901,1.91161 -5.55909,3.064812 -9.0557,4.801706 -1.57287,0.781318 -5.35244,1.418162 -5.88258,1.595989 -0.71823,1.079977 -6.21347,5.323574 -8.77142,4.943363 -3.11792,-0.640286 -9.08502,-3.131234 -10.7027,-2.372896 -1.61767,0.758337 -5.53332,1.289984 -6.66587,0.723703 -6.55342,4.213582 -13.42225,1.4478 -15.18712,-3.465921 -0.47323,7.487647 -3.29011,15.1369 -3.24088,20.028113 0.0492,4.89123 1.68132,24.08712 1.64169,29.87216 z"
         id="C70"
         sodipodi:nodetypes="czzsccccscszssscsscscscssccssccccscccscccsszsccssccccscsssaccccscczcczcc"
         inkscape:label="C70 Meningen" />
      <path
         style="fill:none;stroke:#ffffff;stroke-width:0.116516;stroke-dasharray:none;stroke-opacity:1"
         d="m 925.71754,78.018617 c 0.09,-0.845915 0.26174,-1.192102 0.19978,-2.064528 -2.61641,-0.337272 -3.82989,-0.715769 -7.98352,-0.375483 -4.15362,0.340286 -5.80985,0.520869 -7.96557,0.913187 -0.50838,0.230874 -0.64701,0.856098 -1.0582,1.617723 -0.60811,1.126337 -0.75068,2.335195 -0.80592,3.546117 -0.07,1.533647 0.24111,3.246719 0.60757,4.565474 0.23207,1.065599 0.6579,2.005379 1.00294,3.002596 0.36281,1.048562 0.76147,2.02495 1.12216,3.133814 0.44299,1.361852 0.5574,2.756497 0.78739,4.143411 0.14441,0.870822 0.20909,1.377264 0.37181,2.621912 0.29892,2.28619 0.37921,3.14563 0.58915,5.06678 0.23083,2.11241 0.33264,3.96367 0.47514,6.09741 0.0954,1.42844 0.17391,2.92368 0.26957,4.43949 0.11765,1.86416 0.12655,3.7288 0.18679,5.56094 0.0657,1.99882 0.14393,3.11521 0.15542,4.9438 0.0115,1.82859 0.0929,3.18756 0.10203,4.76217 0.005,0.91028 -0.003,2.78208 -0.065,3.74808 1.62722,-0.0216 3.83379,-0.0346 5.7506,-0.0596 1.8827,-0.0245 3.08421,-0.0271 5.64788,-0.0885 -0.0661,-2.22705 -0.0875,-4.79547 -0.20036,-6.72179 -0.17642,-3.01278 -0.20929,-4.72381 -0.45851,-8.78672 -0.24922,-4.06292 -0.43979,-6.87929 -0.61908,-9.6694 -0.17929,-2.79011 -0.38041,-5.72159 -0.43745,-7.36548 -0.006,-1.648461 -0.25979,-3.032598 -0.2634,-4.935135 -0.003,-1.902537 0.60503,-3.935553 0.88111,-5.891478 0.27609,-1.955927 0.74536,-4.785915 1.12113,-6.953534 0.11479,-1.1259 0.19182,-1.710019 0.24983,-2.195797 0.0532,-0.445777 0.23358,-2.086105 0.33671,-3.055459 z"
         id="C72"
         sodipodi:nodetypes="sczcsasasassssszscacszzczzcss"
         inkscape:label="C72 Rückenmark" />
      <path
         style="display:inline;fill:none;fill-opacity:1;stroke:#ffffff;stroke-width:0.11651586;stroke-dasharray:none;stroke-opacity:1"
         d="m 878.636,28.910656 c -1.17444,0.697036 -4.3124,2.10221 -7.15004,3.090725 -1.92906,0.672004 -3.74183,1.056938 -4.61713,1.263289 -0.6028,0.14211 -2.51073,0.382696 -4.47068,0.3481 -2.117,-0.03737 -4.29469,-0.370574 -4.95393,-0.78668 -1.81824,1.363703 -3.89043,1.904079 -6.07608,2.221815 -1.35819,0.189578 -3.03556,0.226193 -4.88174,-0.03461 -5.24936,-0.741557 -11.55773,-3.679652 -12.86019,-7.76954 -2.19552,0 -4.54554,-0.668392 -6.76802,-1.47173 -1.992,-0.720033 -3.85209,-1.585048 -5.23389,-2.696542 -6.8302,-5.494079 -7.80054,-9.7909 -8.67987,-14.0574204 -0.5342,-2.5918959 -0.50598,-7.5641266 0.0615,-8.92532874 -0.44419,-1.29123296 -0.51845,-2.58531456 -0.58943,-3.87015116 -0.15101,-2.733341 0.26393,-5.4651499 1.19212,-7.9483487 1.1096,-2.968489 2.8387,-5.416316 4.36438,-7.553356 -0.31199,-0.373056 -0.36676,-0.999874 -0.44979,-1.395767 -0.47914,-2.284587 0.15729,-4.223548 1.00343,-5.936231 0.94225,-1.907202 2.30479,-3.657649 3.83387,-5.098916 0.94883,-0.894337 2.06821,-1.535876 2.94364,-2.30514 0.50007,-0.439422 0.80747,-1.025723 1.24315,-1.459305 0.34036,-0.338699 0.35308,-0.85929 0.36146,-1.477714 0.01,-0.726471 0.14187,-1.501348 0.2168,-1.974694 0.29457,-1.861085 2.24949,-3.742411 3.48172,-4.97468 4.13917,-2.647217 7.58362,-3.471879 11.41984,-3.319589 -2.51525,-5.285403 1.19507,-8.601401 5.62322,-10.2624 6.18053,-2.451079 8.21756,-0.4379 8.57545,-1.124646 3.90658,-4.21311 9.55623,-5.321531 13.58289,-4.801304 0.50054,0.06466 0.59504,-1.009273 0.90726,-1.405809 1.99628,-2.535328 4.90877,-2.858144 7.581,-3.352381 5.13999,-1.229487 9.90865,-0.454255 13.21463,0.702901 0.51008,-0.106915 10.68027,-0.748874 12.08996,-0.843481 2.21321,-0.148555 9.50971,-0.06251 11.30014,0.418325 5.80633,1.248669 6.09093,3.148899 6.52296,2.968391 4.35671,-1.557932 9.87315,-0.640295 13.52641,1.252447 1.31688,0.118554 3.67263,0.233205 7.95732,0.922727 2.18257,0.351238 6.90152,2.726404 11.55862,4.967037 4.61368,2.219737 8.84915,3.89682 10.86898,4.783457 2.01985,0.886638 6.26067,3.328502 8.04683,4.310013 3.0362,1.668449 6.26282,2.707649 9.20993,4.728463 1.45666,0.826184 2.3507,1.795566 3.16812,2.635345 1.50445,1.54558 2.33802,2.922891 3.03745,4.072059 0.74854,0.476475 3.23963,2.402531 4.06807,3.486243 0.81102,1.060938 3.9293,4.163231 5.126,4.737503 1.76722,1.312015 4.87804,3.40992 5.30014,4.852363 0.6377,0.938462 0.5703,3.345298 0.218,4.260801 2.1931,1.020389 5.5629,4.767021 5.5223,8.098877 0,0.409126 -0.063,0.789493 -0.1813,1.180214 -0.177,0.7727588 -1.1173,1.6713201 -1.5356,2.3996021 0,0.030496 -0.01,-0.020229 0.3158,0.4296101 0.5566,0.7710344 1.9857,2.4651968 2.1462,2.6324451 2.1605,2.2517671 0.1626,7.6423241 -0.3765,9.3518893 2.1372,1.4080223 2.4307,3.2513314 2.9888,4.5442271 0.084,0.6753842 0.3056,1.4735803 0.3434,2.2019613 0.1361,2.621201 -0.4616,5.267654 -1.1213,6.62846 -0.1189,0.245442 -1.1502,1.331699 -1.0564,1.824011 0.099,0.521368 0.1569,1.541287 0.4329,2.744769 0.3101,1.352049 0.6372,2.854066 0.879,4.334608 0.2061,1.261792 0.3936,2.506214 -0.014,3.648102 -0.366,1.02589 -1.1604,1.973908 -1.8573,2.949711 -0.684,0.957714 -1.3256,1.912529 -1.9403,2.587066 -0.2741,0.300782 -0.6791,0.480983 -0.8461,0.692257 -0.4995,1.495336 0.302,7.018882 -2.3057,9.444282 -0.4786,0.445168 -1.2093,0.894199 -1.959,1.077178 0.069,0.573567 -0.039,1.122961 -0.042,1.647929 -0.01,1.364781 -0.044,2.564449 -0.4631,3.589695 -0.5555,1.359855 -1.5888,2.204573 -2.723,2.934249 -2.10807,1.356195 -5.20502,1.711028 -8.15286,0.706444 0.53399,1.307217 0.99382,2.553742 1.1137,3.747748 0.26423,2.631626 -0.57784,4.964816 -1.7436,7.105168 -1.20328,2.209258 -2.77541,4.187813 -4.59942,5.92483 -1.41031,1.34305 -2.90268,2.703873 -4.2899,3.677149 -1.76126,1.235696 -3.18822,2.226943 -4.85224,3.069981 -1.07321,0.543716 -2.29052,0.937005 -3.60762,1.591258 -1.51108,0.750609 -4.78261,0.774327 -5.29195,0.945206 -0.15643,0.235224 -0.71654,0.369095 -1.1384,0.727465 -0.61456,0.522079 -1.23486,1.322209 -2.08624,1.857745 -0.90697,0.570507 -2.05406,0.86264 -2.98902,0.937936 -0.24236,0.01952 -0.48596,0.07202 -0.71009,0.03871 -1.03312,0.01122 -2.19046,-0.128958 -3.34003,-0.412287 -2.08731,-0.51445 -4.13008,-1.086735 -5.25167,-1.388019 -0.1171,-0.29501 -1.46599,0.973922 -3.06522,1.149187 -0.15111,0.01656 -0.33422,0.03566 -0.48829,0.02828 -2.21879,-0.31187 -3.22182,-0.41118 -4.3099,-0.955188 -0.35126,0.225845 -0.79871,0.180345 -1.1619,0.350128 -2.24917,1.051455 -4.70524,1.235076 -6.96879,0.646511 -3.92225,-1.019859 -7.30636,-4.073564 -8.32146,-6.899831 -0.0915,1.448492 -0.46836,2.869371 -0.66132,4.241494 -0.60842,4.32634 -1.40808,8.278056 -2.30151,11.988865 -0.3785,1.572062 -0.40476,3.134857 -0.34194,4.651568 l -1.86907,0.783663 c -0.55448,-2.841895 0.18233,-6.123024 0.3724,-7.628258 0.19007,-1.505234 0.30868,-2.111555 0.71805,-4.433079 0.25467,-1.444254 0.71761,-4.057645 1.05505,-6.852414 0.20496,-1.6976 0.2927,-3.06027 0.48326,-4.67421 0,0 -5.21778,-0.27063 -8.01409,-0.05582 -2.75241,0.21144 -8.16338,0.386576 -8.1659,0.459763 -1.38427,-0.529095 -3.11832,-1.091976 -4.98249,-3.226232 -1.10971,-1.132902 -2.24276,-2.851608 -3.4117,-4.724121 -0.95338,-1.5272 -1.97758,-3.125271 -2.64683,-4.849537 -0.4989,-1.285373 -0.79633,-2.635723 -1.0599,-3.954921 -0.98485,-5.211739 0.25822,-10.497367 1.54034,-13.540152 0.26672,-0.505245 0.35017,-1.051703 0.62439,-1.451966 0.78263,-1.142344 1.68074,-1.721013 2.51716,-2.255651 1.1778,-0.752847 2.29067,-1.267131 3.28685,-1.826608 0.54706,-0.307241 1.14836,-0.491463 1.5939,-1.027831 0.5394,-0.649364 0.79217,-2.32298 1.10408,-3.76655 0.2588,-1.197767 0.61454,-2.235473 0.69762,-2.413659 0.18322,-0.392938 0.47768,-0.478281 0.77482,-0.772827 0.60714,-0.601824 1.4358,-1.348975 1.40299,-2.201718 -0.0126,-0.327301 0.0335,-0.650588 -0.26682,-0.950893 -0.29312,-0.293125 -0.6308,-0.591843 -1.05681,-0.697856 -1.45739,-0.362674 -3.65416,0.343494 -6.08553,0.959716 -0.6788,0.17204 -1.75346,0.571776 -3.04446,0.989323 -2.44332,0.790246 -5.7062,2.061782 -8.69857,3.39034 -1.70426,0.756661 -3.44131,1.404807 -4.68754,2.406125 -0.78429,0.630153 -1.30927,1.271237 -1.77858,1.996063 -0.25532,0.394341 -0.5334,1.199399 -0.41449,1.855318 0.19343,1.067038 1.04013,2.398987 1.3902,3.854884 0.39199,1.630215 0.4561,3.349086 -0.0893,4.948409 -0.40401,1.184583 -1.08416,2.319469 -2.51792,3.221064 -0.68315,0.429588 -1.61606,0.863136 -2.65452,1.062935 -1.69789,0.326673 -3.59883,0.275282 -5.32373,-0.184953 -2.77231,-0.739701 -5.15452,-2.405184 -5.78049,-4.566463 -0.43936,-1.516981 0.1187,-3.208254 1.79489,-4.785597 1.17911,-1.274501 2.30526,-1.973329 3.33447,-2.575667 1.3272,-0.776745 2.51806,-1.301795 3.71427,-1.737186 0.71786,-0.261287 1.42413,-0.340368 2.13321,-0.799577 0.78662,-0.509429 2.22375,-2.945465 3.20725,-6.24407 0.26219,-0.879385 0.96473,-2.420741 0.13563,-3.249854 l -0.99222,-0.02051 -4.04367,0.765244 -0.82374,-0.361859 z"
         id="C71"
         inkscape:label="C71 Gehirn"
         sodipodi:nodetypes="csssccscssscsscsssscscccccscccscccsssscscscccsccscccsscssssscscssscsssssscssscscsccsscsscczsscsccssccsssssssssssssssssssssscssssccccc" />
      <path
         style="fill:none;stroke:#000000;stroke-width:0.38838621;stroke-dasharray:none"
         d="m 822.26268,-24.116349 c -12.39071,12.448188 -10.5585,20.6227143 -8.10826,28.246705 3.68381,11.462463 12.88371,7.965073 13.50822,4.9630858"
         id="path29" />
      <path
         style="fill:none;stroke:#000000;stroke-width:0.388386;stroke-dasharray:none"
         d="M 812.86608,-0.52675761 C 810.51102,16.609215 820.99339,27.654293 837.40385,27.432653"
         id="path28"
         sodipodi:nodetypes="cc" />
      <path
         style="fill:none;stroke:#000000;stroke-width:0.38838621;stroke-dasharray:none"
         d="m 833.62621,27.243755 c 4.02969,8.819882 21.32537,10.054091 24.40967,4.686064"
         id="path27"
         sodipodi:nodetypes="cc" />
      <path
         style="fill:none;stroke:#000000;stroke-width:0.38838621;stroke-dasharray:none"
         d="m 1003.3083,-10.128562 c 0.9065,3.0408151 1.9752,3.8076842 -0.5163,6.2991555"
         id="path26" />
      <path
         style="fill:none;stroke:#000000;stroke-width:0.38838621;stroke-dasharray:none"
         d="m 857.29066,32.834077 c 7.36247,2.253102 15.2099,-0.791221 21.45681,-3.914661"
         id="path25" />
      <path
         style="fill:none;stroke:#000000;stroke-width:0.388386;stroke-dasharray:none"
         d="m 826.91921,-36.663928 c -0.30103,2.301635 -2.50504,3.1367 -4.06175,4.502948 -3.84,3.370082 -6.78309,8.524398 -4.82442,13.261613"
         id="path24"
         sodipodi:nodetypes="ccc" />
      <path
         style="fill:none;stroke:#000000;stroke-width:0.38838621;stroke-dasharray:none"
         d="m 833.37092,-26.723001 c -4.47506,-1.360253 -7.60022,-8.467898 -6.07241,-13.051207 1.49971,-4.499256 9.94283,-8.354638 14.86359,-7.124453"
         id="path23" />
      <path
         style="fill:none;stroke:#000000;stroke-width:0.38838621;stroke-dasharray:none"
         d="m 861.10474,-55.453781 c -4.96255,-7.244998 -23.75716,-0.941771 -19.41657,7.739419 0.51437,1.02874 1.43824,2.077841 2.46812,2.59279"
         id="path21" />
      <path
         style="fill:none;stroke:#000000;stroke-width:0.38838621;stroke-dasharray:none"
         d="m 855.9522,-58.505423 c 1.47421,-1.628636 4.83265,-3.671845 6.80681,-4.165391 3.807,-0.951739 9.77304,-1.921953 11.85013,2.232197 0.92746,1.854968 4.06014,10.277707 4.71289,10.604109"
         id="path20" />
      <path
         style="fill:none;stroke:#000000;stroke-width:0.38838621;stroke-dasharray:none"
         d="m 869.89621,-63.429521 c 1.34706,-3.53666 5.70798,-4.166065 9.06329,-4.894203 4.10527,-0.890879 8.2303,-0.343218 12.57355,0.853057 8.2583,-0.381149 24.25205,-2.850023 29.64101,2.53892 5.55514,-1.605026 9.26998,-0.395913 13.66954,1.18482 9.3185,0.52412 12.48047,2.60762 18.11331,5.494164 5.63281,2.886548 9.10188,3.813051 12.5925,5.500133 4.07592,1.969939 9.21004,5.1398 13.1438,6.752779 3.58077,1.142693 12.60391,7.683912 10.0934,13.061372 -2.5105,5.377462 -4.42996,5.941453 -8.58477,6.916688 -4.15481,0.975267 -5.61158,0.769491 -9.50264,0.321841 -3.89102,-0.447617 -6.46182,-0.902284 -11.5412,-2.172114"
         id="path19" />
      <path
         style="fill:none;stroke:#000000;stroke-width:0.38838621;stroke-dasharray:none"
         d="m 988.52814,-37.400679 c 3.32308,1.783552 5.64189,5.601082 8.73519,7.921003 1.8285,1.371355 4.95877,3.164853 6.02917,5.305771 2.8723,5.744666 -5.49257,10.037739 -8.35831,11.555473 -2.86576,1.517735 -3.58131,4.4988481 -3.58131,7.5496086"
         id="path18" />
      <path
         style="fill:none;stroke:#000000;stroke-width:0.38838621;stroke-dasharray:none"
         d="m 1003.6543,-19.71225 c 5.5541,3.141115 8.3258,10.7608481 0.7235,12.6614571"
         id="path17" />
      <path
         style="fill:none;stroke:#000000;stroke-width:0.388386;stroke-dasharray:none"
         d="m 1007.3159,-8.2344109 c 0.3403,0.526525 0.8403,1.063121 1.1618,1.5453743 0.6322,0.9482948 1.3168,1.3072259 1.8088,2.2911103 1.9439,3.88782299 -2.7636,16.0428113 -7.5969,13.6261314 -1.2888,-0.6444342 -2.1229,-1.863484 -3.01457,-2.5322696"
         id="path16"
         sodipodi:nodetypes="cscsc" />
      <path
         style="fill:none;stroke:#000000;stroke-width:0.38838621;stroke-dasharray:none"
         d="m 1009.4014,4.1795336 c 0.7454,0.5822818 1.7434,1.2474556 2.6939,3.6016411 0.9504,2.3542173 1.722,10.1725733 -3.497,12.7820523"
         id="path15" />
      <path
         style="fill:none;stroke:#000000;stroke-width:0.388386;stroke-dasharray:none"
         d="m 1010.5321,19.106371 c 0.3375,4.269913 2.5316,9.328989 0.9791,11.747439 -1.5524,2.418418 -2.6998,3.679223 -3.2746,4.541419 -2.7597,4.13954 -8.57307,-4.35836 -10.00857,-6.511607 -0.6655,-0.998187 -2.24105,-1.758723 -3.01462,-2.532304"
         id="path14"
         sodipodi:nodetypes="ccssc" />
      <path
         style="fill:none;stroke:#000000;stroke-width:0.38838621;stroke-dasharray:none"
         d="m 1007.0307,36.480504 c 0.5368,6.642421 -1.5349,12.602232 -7.95857,9.405626 -4.06102,-2.020856 -4.33029,-3.330704 -6.63221,-4.943967"
         id="path13" />
      <path
         style="fill:none;stroke:#000000;stroke-width:0.38838621;stroke-dasharray:none"
         d="m 1002.9837,46.362869 c -0.3232,3.453089 0.6991,5.834826 -2.7835,8.333892 -2.29377,1.64593 -4.29281,2.125111 -8.96617,0.956803"
         id="path12" />
      <path
         style="fill:none;stroke:#000000;stroke-width:0.388386;stroke-dasharray:none"
         d="m 879.27372,47.551578 c -0.98089,1.797826 -2.30712,3.865128 -3.14669,5.54426"
         id="path10"
         sodipodi:nodetypes="cc" />
      <path
         style="fill:none;stroke:#000000;stroke-width:0.388386;stroke-dasharray:none"
         d="m 925.10728,133.78429 c -0.0264,-0.78205 -0.39551,-12.21863 -0.86729,-19.27042 -0.58168,-8.69465 -1.20047,-18.268984 -1.11319,-19.140477 0.32848,-3.280155 1.03685,-6.478999 1.75495,-10.766318 1.06361,-6.350233 1.5695,-16.421869 2.368,-23.0881 0.7985,-6.666233 -0.51846,-12.172945 -1.48002,-17.760068 -0.56068,-3.257617 -1.06695,-5.407461 -2.22,-9.176049 -1.15304,-3.768589 -7.07038,-10.060525 -10.97422,-10.608169 -3.90383,-0.547676 -7.77435,1.350172 -10.31352,2.823087 -2.53917,1.472882 -9.65983,4.754346 -13.71268,6.870672 -4.05288,2.11633 -0.7089,-4.80366 -2.77054,-6.556118 -0.44143,-0.375175 -2.06085,1.062148 -2.39992,0.383999 -1.46286,-2.925772 1.55375,-10.121012 2.81002,-13.326018 1.25628,-3.205007 4.10739,-3.646902 3.45381,-5.7472572 -0.74744,-2.4021019 -3.42827,-2.169456 -3.9796,-2.445117 -1.74981,-0.8749002 -2.75869,-2.7403282 -4.6057,-3.5678891 -6.09722,-2.73187991 -9.90702,-4.3830188 -10.6017,-7.1678578 -0.58132,-2.3304148 -0.30037,-5.3340709 3.12356,-8.2690379 3.42385,-2.934966 24.39629,-5.776614 31.35438,-2.996404 6.95809,2.780173 11.40322,6.3072931 17.62132,8.1698951 16.13099,3.9503182 13.08286,9.6001693 20.02421,18.1018879 3.60932,4.420651 11.92029,-4.603574 11.20048,-10.03743301 -0.71979,-5.43382729 -1.7385,-12.24036999 -9.9189,-14.95280499 -19.41803,-6.438517 24.58914,8.036187 -25.95142,-8.810653 -7.72226,-2.574091 -16.20916,-5.623762 -24.47192,-6.567971 -10.83297,0 -20.54914,2.204673 -26.35781,5.106094 -5.80862,2.901418 -14.36776,6.916616 -14.45545,15.1004751 -0.1463,13.6461582 10.91226,15.6608227 15.94118,16.0648106 5.02887,0.4039911 11.12798,-0.1512199 13.09956,1.0122224 4.66029,2.7497595 1.55241,9.1277259 0.60697,11.9876969 -0.94543,2.859938 -4.07328,10.038797 -3.64182,10.470235 1.16863,1.168646 5.1635,-1.057925 5.91798,-0.30345 1.22872,1.228723 -2.4392,9.03434 -3.49009,9.559811 -0.81501,0.4075 -1.76466,0.427083 -2.42789,0.758698 -15.91537,7.09045 -6.2237,14.505668 1.38542,13.910055 7.60913,-0.59556 8.00052,-8.078142 5.36575,-12.468957 -0.94725,-1.578522 0.81436,-4.490872 3.87083,-5.841622 3.05647,-1.350786 19.12114,-8.344305 21.24397,-6.221471 2.12287,2.122867 -1.34774,3.601637 -1.69692,4.649144 -0.34913,1.047469 -0.8202,4.178638 -1.48969,5.51764 -0.76901,1.538097 -6.23083,2.75017 -7.89058,6.069712 -3.35207,7.499437 -2.57717,16.349512 1.06217,21.850936 3.63936,5.501472 5.02937,7.889467 9.25633,9.256338 -3.72257,5.591285 -0.15638,11.750919 1.06218,15.629478 0.45043,1.433927 1.15685,6.302286 1.64488,10.600815 0.20259,1.78427 0.88821,10.42697 0.96539,14.22437 0.057,2.80327 0.566,14.64379 0.27798,17.14864"
         id="path11"
         sodipodi:nodetypes="csssssssssssssssscscsscscscscscsscsssssscsccssc" />
      <path
         style="fill:none;stroke:#000000;stroke-width:0.38838621;stroke-dasharray:none"
         d="m 908.55262,-14.375761 c -1.11856,0.177773 -2.5109,0.122275 -4.09719,0.298685 -7.63978,0.848846 -13.9045,2.847438 -18.6643,8.7971637 -1.72772,2.1596828 -2.49066,5.94601549 0.7133,7.0139884 2.12868,0.7095518 6.11167,-8.3775447 9.51045,-9.510463 8.16487,-2.7216291 19.50425,0.243171 27.69101,0.243171"
         id="path9" />
      <path
         style="fill:none;stroke:#000000;stroke-width:0.38838621;stroke-dasharray:none"
         d="m 908.49741,3.3983246 c -2.64046,-1.1390145 -6.95848,-2.0764792 -8.44056,-0.594436 -0.45939,0.4594333 -0.59435,1.5201514 -0.59435,2.2587555 0,4.3698377 3.82068,3.3082003 6.89506,3.923072 0.83344,0.1665359 2.09846,0.606223 2.97202,0.3566156 3.61279,-1.0322103 1.80827,-4.8050236 -0.83217,-5.9440071 z"
         id="path8" />
      <path
         style="fill:none;stroke:#000000;stroke-width:0.38838621;stroke-dasharray:none"
         d="m 937.32771,8.8470693 c -0.47063,1.7594407 2.05775,4.3663297 0.14993,5.3202767 -1.69974,0.84987 -3.15215,-1.050295 -4.64586,-1.423736 -0.72533,-0.181192 -1.74323,0.0378 -2.3979,0.299706 -1.14626,0.458515 -1.41951,1.683901 -2.39782,2.173067 -1.58616,0.793061 -4.722,2.11718 -5.84482,3.671729 -1.12284,1.554585 -1.75988,5.23517 -0.33477,8.495486 1.42524,3.260316 2.09084,3.723226 2.58267,4.542919 0.9923,1.653861 1.70021,3.726017 2.39788,5.470128 0.39514,0.987938 1.08172,4.477427 1.0284,6.670344 -0.07,5.609085 1.89649,9.221834 6.29993,11.784617"
         id="path7" />
      <path
         style="fill:none;stroke:#000000;stroke-width:0.38838621;stroke-dasharray:none"
         d="m 938.3468,11.997414 c 3.29819,1.787196 7.63531,6.980882 2.17649,8.800503 -2.5758,0.858587 -3.55474,-2.392466 -5.39383,-3.312014 -1.46486,-0.73244 -3.09766,1.442603 -4.16372,1.797958 -0.9975,0.3324 -2.37041,-0.281656 -3.31201,0.189358 -0.428,0.213881 -0.47313,1.35089 -0.47313,1.797925 0,3.654802 4.11778,4.120708 4.9207,6.52942 0.37193,1.115754 0.3907,2.297273 0.4255,4.329785 0.0347,2.032478 0.0479,4.846642 -0.52012,7.688085 -0.53691,2.68451 0.751,11.47445 1.51407,14.572862 0.76306,3.098404 3.23044,2.959624 4.06903,4.636846 1.44053,2.880989 -4.60733,6.026783 -5.96161,7.381073 -1.08685,1.086786 -1.45933,2.998453 -1.79796,4.352917 -1.86889,7.295198 -2.21823,15.169783 -3.45565,19.700834 -1.23739,4.531075 -1.31424,6.297968 -1.31424,8.403638"
         id="path6" />
      <path
         style="fill:none;stroke:#000000;stroke-width:0.38838621;stroke-dasharray:none"
         d="m 931.7689,27.208986 c 1.86842,-0.44731 3.91314,0.910831 5.7484,0.299023 2.31143,-0.770446 4.03238,-3.22064 6.47254,-3.830675 4.7908,-1.19773 9.20722,-0.924657 14.13394,-0.924657 4.37904,-0.967675 11.84127,2.887284 14.53021,6.472542 1.18061,1.574099 1.68293,3.382958 2.77396,5.019551 1.89448,2.841681 6.76422,4.441561 7.9256,7.925561 0.66888,2.006668 2.10791,3.228546 3.3023,6.208365 1.19439,2.979819 4.82888,5.974086 5.81211,9.906972 2.42291,9.691723 -12.79996,21.502125 -20.87071,23.116271"
         id="path5" />
      <path
         style="fill:none;stroke:#000000;stroke-width:0.38838621;stroke-dasharray:none"
         d="m 928.45378,77.754292 c 1.74936,4.880656 8.63424,8.766263 14.08305,6.949975 0.55885,-0.186266 1.95152,-1.06667 2.37769,-0.924612 2.9405,0.980168 5.11824,1.643124 7.66138,-0.264286 3.85723,0.77883 8.22012,3.022936 12.15252,1.056738 1.40696,-0.703488 2.1896,-2.15155 3.43444,-2.773958 1.10113,-0.550582 2.92357,-0.01103 4.22695,-0.660481"
         id="path4" />
      <path
         style="fill:none;stroke:#000000;stroke-width:0.38838621;stroke-dasharray:none"
         d="m 993.99079,-11.997634 c -1.8425,0.17165 -4.45461,-0.166204 -6.04382,-0.484192"
         id="path3" />
    </g>
  </g>
</svg>
