<?xml version="1.0" encoding="UTF-8" standalone="no"?>
<!-- Created with Inkscape (http://www.inkscape.org/) -->

<svg
   id="svg4136"
   version="1.1"
   inkscape:version="1.3 (0e150ed, 2023-07-21)"
   width="300"
   height="300"
   viewBox="0 0 300 300"
   sodipodi:docname="level3_C25_neu.svg"
   xmlns:inkscape="http://www.inkscape.org/namespaces/inkscape"
   xmlns:sodipodi="http://sodipodi.sourceforge.net/DTD/sodipodi-0.dtd"
   xmlns="http://www.w3.org/2000/svg"
   xmlns:svg="http://www.w3.org/2000/svg"
   xmlns:rdf="http://www.w3.org/1999/02/22-rdf-syntax-ns#"
   xmlns:cc="http://creativecommons.org/ns#"
   xmlns:dc="http://purl.org/dc/elements/1.1/">
  <metadata
     id="metadata4142">
    <rdf:RDF>
      <cc:Work
         rdf:about="">
        <dc:format>image/svg+xml</dc:format>
        <dc:type
           rdf:resource="http://purl.org/dc/dcmitype/StillImage" />
      </cc:Work>
    </rdf:RDF>
  </metadata>
  <defs
     id="defs4140" />
  <sodipodi:namedview
     pagecolor="#ffffff"
     bordercolor="#666666"
     borderopacity="1"
     objecttolerance="10"
     gridtolerance="10"
     guidetolerance="10"
     inkscape:pageopacity="0"
     inkscape:pageshadow="2"
     inkscape:window-width="784"
     inkscape:window-height="609"
     id="namedview4138"
     showgrid="false"
     inkscape:zoom="3.5099541"
     inkscape:cx="98.006979"
     inkscape:cy="64.67321"
     inkscape:window-x="561"
     inkscape:window-y="25"
     inkscape:window-maximized="0"
     inkscape:current-layer="svg4136"
     inkscape:showpageshadow="2"
     inkscape:pagecheckerboard="0"
     inkscape:deskcolor="#d1d1d1"
     showguides="false" />
  <path
     style="fill:none;fill-rule:evenodd;stroke:#000000;stroke-width:0.60000002;stroke-linecap:butt;stroke-linejoin:miter;stroke-miterlimit:4;stroke-dasharray:none;stroke-opacity:1"
     d="m 87.946872,57.662918 -0.158114,2.649042 0,2.493219 0.632469,2.337395 1.423053,2.804866 1.581184,2.337395 2.055512,2.181574 2.213636,1.714079 2.846117,1.558267 2.846101,0.779129 2.84612,0.311646 3.16235,0 2.05553,-0.155823 3.47857,-0.934952 2.52988,-1.246609 1.89741,-1.246609 1.89741,-1.558268 1.26493,-1.558257 1.73929,-3.272347 0.94871,-2.337395 0.47435,-2.025738 0,-2.9607 -1.42306,-5.298096 -1.10681,-2.181562 -1.26495,-1.869914 -2.05552,-1.869914 -1.89741,-1.246609 -1.58116,-0.934952 -1.7393,-0.934963 -2.05552,-0.623304 -2.52988,-0.467482 -2.21365,-0.155823 -2.8461,0.311658 -2.84612,0.623305 -2.21364,0.934951 -2.213648,0.934963 -2.529877,2.181561 -1.581156,1.558267 -1.423059,1.71408 -1.106824,2.181573 -0.790584,1.558256 z"
     id="C25.7"
     inkscape:connector-curvature="0"
     inkscape:label="#path4217" />
  <path
     style="fill:none;fill-rule:evenodd;stroke:#000000;stroke-width:0.60000002;stroke-linecap:butt;stroke-linejoin:miter;stroke-miterlimit:4;stroke-dasharray:none;stroke-opacity:1"
     d="m 250.98277,116.41259 8.54992,-2.61913 8.54992,1.12249 5.2928,0 4.47853,3.36744 2.44283,6.73489 0,5.98656 -1.22141,3.36745 -2.44283,5.98656 -2.84998,5.23824 -5.69994,1.49664 -2.44284,0 -1.62856,4.86409 -6.10708,4.11576 -8.34635,0.21047 -1.98513,-5.50787 -1.45011,-4.00984 -1.9848,-6.45426 0.76339,-4.34962 1.73034,-8.79276 3.53703,-6.64135 z"
     id="C25.2"
     inkscape:connector-curvature="0"
     inkscape:label="#path4146 C25.2"
     sodipodi:nodetypes="cccccccccccccccccccccc" />
  <path
     style="fill:none;fill-rule:evenodd;stroke:#000000;stroke-width:0.60000002;stroke-linecap:butt;stroke-linejoin:miter;stroke-miterlimit:4;stroke-dasharray:none;stroke-opacity:1"
     d="m 145.89003,197.09091 5.34369,5.00439 2.0357,4.86408 2.44284,7.10905 -1.62856,4.86409 -2.44284,3.36743 -2.44283,1.49666 -0.81427,5.6124 -1.22143,2.61911 -1.62855,5.61241 -4.47853,3.7416 -6.51422,0 -6.51423,5.23825 -6.51421,0.74832 -9.3642,1.12249 -4.0714,-1.87081 -11.807019,1.87081 -6.10709,-2.24498 -8.14278,-8.97984 -4.885667,-8.23152 -2.188374,-7.31951 -4.071388,-6.05673 14.300759,0.98217 5.72539,-5.82286 4.99799,-0.64607 5.443799,-0.77103 7.51267,-2.50758 6.14307,-5.54626 9.77134,0 5.69994,0.74832 10.17848,-1.49664 5.24192,-3.46098 z"
     id="C25.0"
     inkscape:connector-curvature="0"
     inkscape:label="#path4148 C25.0"
     sodipodi:nodetypes="ccccccccccccccccccccccccccccccccc" />
  <path
     style="opacity:0.98000004;fill:none;fill-rule:evenodd;stroke:#000000;stroke-width:0.60000002;stroke-linecap:butt;stroke-linejoin:miter;stroke-miterlimit:4;stroke-dasharray:none;stroke-opacity:1"
     d="m 251.02616,116.38992 -7.21474,-1.067 -3.45469,-1.05828 -3.45468,1.05828 -4.03047,1.32285 -5.46992,0 -4.60626,1.852 -2.8789,4.23315 -4.60626,-1.58743 -5.46992,0 -8.92462,1.852 -5.46991,3.43942 -6.3336,-1.32285 -4.60625,2.38114 -3.45469,2.91028 -3.45469,2.11658 -4.31836,-0.79372 -3.45469,-0.26457 -4.89414,3.704 -5.18203,1.852 -3.45469,2.11657 -5.46993,-0.26457 -4.89414,-0.79371 -4.03047,1.05828 -6.04571,2.64572 -7.48515,1.58742 -8.63673,2.11657 -2.8789,3.43943 -6.62148,0.26456 -4.31837,2.11658 -2.59101,1.32286 -8.060949,3.43942 -4.89414,1.58743 -3.1668,5.82057 -3.16679,2.91028 -5.75782,3.17486 -3.166789,5.02685 -0.287896,2.91029 0.575774,3.17485 -3.166793,5.556 0.287887,6.08513 1.727349,5.02686 -1.439453,3.704 -2.878906,2.91029 -1.439453,4.23314 2.250731,7.36856 10.992239,0.79371 3.45469,0.30401 5.75781,-5.82057 10.096509,-1.3389 7.63137,-2.54481 2.5402,-2.1106 3.75409,-3.43672 7.93371,-0.0395 1.84752,-0.0306 5.92552,0.78631 6.67238,-1.02023 3.48997,-0.56468 1.87817,-1.27265 3.21769,-2.18535 -1.15156,-2.11657 5.46992,-1.32285 4.89414,-1.852 5.46993,-4.49771 2.8789,-1.58743 8.92462,-0.52915 4.60624,-1.05829 5.18204,0.26458 4.31836,-2.91029 6.90938,-2.38114 3.1668,-3.17485 8.06094,-1.58743 4.31836,-3.43943 2.30313,-2.38114 5.75781,0 5.75781,0.26458 5.46993,-2.38115 1.43945,-1.05829 10.36407,-1.85199 4.60625,-1.852 4.89413,-5.29142 -3.74257,-10.58286 -1.72734,-5.556 2.59101,-13.22856 3.47066,-6.43591 z"
     id="C25.1"
     inkscape:connector-curvature="0"
     inkscape:label="#path4150 C25.1"
     sodipodi:nodetypes="cccccccccccccccccccccccccccccccccccccccccccccccccccccccccccccccccccccccccccccccccccccc" />
  <path
     style="fill:none;fill-rule:evenodd;stroke:#000000;stroke-width:0.60000002;stroke-linecap:butt;stroke-linejoin:miter;stroke-miterlimit:4;stroke-dasharray:none;stroke-opacity:1"
     d="m 95.252121,210.28006 2.44283,1.35633 4.071389,2.99328 3.25711,3.36744 2.23927,2.05789 0.81428,2.05788 1.62855,3.7416 2.44284,1.12249 1.83212,0.37415 2.44284,1.30957 1.83212,1.68371 2.03569,2.61913 1.01786,0.74832 0.6107,-0.37416 -0.40713,-2.43205 -2.64641,-3.18036 -2.23926,-2.05788 -3.25712,-0.74832 -1.22141,-1.30956 -1.42499,-1.49664 -3.25711,-4.86408 -2.0357,-2.24497 -0.81428,-1.8708 2.44284,-2.61912 3.25711,-0.18708 1.62856,1.12248 0.40714,3.36745 2.23926,2.8062 1.42499,0.93539 2.6464,-1.12248 1.83212,2.05789 3.25712,0.37415 3.05354,0 0.40714,2.61913 1.01785,2.61912 0,2.43204 0.6107,1.49665 2.0357,1.30955 2.23927,1.12249 0.40713,-1.68372 -2.23927,-2.61913 -1.01784,-4.11577 -1.01785,-2.24495 -0.40714,-2.43204 0,-1.49664 2.6464,-0.56125 1.425,1.30957 3.05353,1.12247 3.05355,-0.18708 -1.01785,-1.12248 -1.01785,-0.56123 -3.46068,-0.74833 -2.84997,-0.93539 -2.23926,-0.18709 -2.23927,0.18709 -1.01785,2.05788 -3.46068,0 -0.81428,-1.49665 -1.83212,-0.74832 -3.05354,0.37416 -0.61072,-1.12248 -0.81427,-2.61912 -0.20357,-2.05788 2.23927,-0.56124 3.86781,1.49664 3.66425,0 1.83213,-0.37416 2.23927,-0.37416 1.01784,-1.68373 2.84998,-0.37416 2.23926,2.24497 1.83212,1.8708 2.0357,1.49664 2.03569,1.30956 1.42499,0 -1.22142,-2.61912 -2.84997,-1.8708 -2.44284,-2.8062 -2.03568,-0.74832 -3.66426,-1.12248 -3.86782,0.93539 -2.84997,1.30956 -2.44284,-0.74832 -3.25711,-1.49663 -2.84997,0 -3.05354,0.74832 -4.73299,1.47325 -3.00265,1.14586 -2.03569,0.56125 -2.035709,-0.74832 -0.6107,-2.43204 2.442839,-2.05788 1.83212,-1.8708 2.03569,-2.80622 3.25712,0.93541 3.66425,-2.61912 3.86782,-2.24496 4.68209,0.37415 6.10709,0.37417 3.66425,0 1.2298,-1.2694 -1.02624,-1.16265 -5.90351,-0.37416 -4.07139,-0.74832 -4.68209,-0.74831 -2.84997,1.12247 -2.64641,3.55452 -3.25711,0 0,-3.36743 0.40714,-4.67701 2.03569,-3.36745 4.47853,-5.23824 3.86782,-2.61912 3.05354,-2.43204 2.23927,0.37416 2.44283,2.43204 5.08924,0 5.69994,-2.99328 3.05355,-1.8708 0.81427,-1.12248 -4.88566,1.12248 -5.08924,1.8708 -2.6464,-2.05789 -0.20357,-1.30955 4.88567,-1.49665 4.88566,-1.30956 2.23927,0.74833 2.23926,2.24496 4.27496,0.9354 6.31065,0 4.47853,0 1.22142,-2.05788 -1.62856,-0.56125 -5.90351,0 -4.27496,-0.37416 -2.23926,-0.9354 -0.40714,-1.68372 3.2571,-0.74832 3.66426,-1.49664 3.25711,-0.37416 2.0357,2.24496 3.46068,1.8708 2.84997,0.74833 2.44283,0 2.44283,-1.30957 3.66426,-0.18708 1.22141,-1.49664 -2.23926,-0.9354 -3.66425,0.56123 -5.29281,-0.18707 -2.44284,-1.68372 1.83213,-1.49664 5.49638,0 c 1.01785,0 4.27496,-0.56124 4.27496,-0.56124 l 3.46068,-0.93541 2.0357,-1.49663 4.07138,1.87079 1.22142,0.74833 2.44283,-1.12249 2.84998,1.30957 4.27495,0.74832 -1.42498,-2.61912 -3.66425,-1.12249 -4.27496,-1.30955 -2.23927,-1.12249 2.0357,-1.12248 2.44283,-1.30956 2.64641,0 3.46068,0 3.25711,2.43204 5.69995,1.12249 4.88567,0.18707 0.40713,-1.12248 -0.6107,-1.12248 -4.47853,-0.18708 -2.84998,-0.18707 -1.42499,-1.49665 1.22142,-0.56124 2.84998,-1.87081 4.27496,-1.12248 2.44282,-0.9354 3.66426,2.80621 5.29281,0.74832 3.2571,0.37416 4.27496,0.9354 2.0357,0 -1.83213,-2.80621 -3.46068,0 -4.07138,-1.12248 -3.25712,-0.74831 -2.84997,-2.05788 0,-2.43205 2.44283,-0.18708 3.86782,0.74833 6.7178,-0.18709 4.47853,-2.05788 4.88566,-2.24496 2.6464,-2.05788 2.23927,-1.12248 1.62855,-1.30956 3.46069,0 1.22141,-2.43204 1.22142,-3.36745 0.81427,-1.49664 -0.40713,-1.68372 -1.62856,0.18708 -2.23926,2.24496 -0.40714,2.61912 -0.40714,1.87081 -3.46068,-0.18709 -1.62856,0 -1.62855,1.68372 -1.62855,0.56125 -2.0357,-2.24497 1.83212,-2.8062 1.62856,-3.18036 -1.62856,-1.30956 -2.23926,2.24496 -1.42499,2.43204 -1.42498,2.24496 0.20356,2.43205 0.20358,2.05787 -3.25712,0.93541 -4.88567,0.9354 -4.07138,0.18708 -2.44284,-2.05789 1.42499,-1.87079 2.64641,-0.56125 1.22141,0 2.44284,-1.68372 1.62855,-2.05788 -0.40714,-1.30955 -2.64641,0.74831 -1.83212,1.68373 -2.44283,0.74832 -1.22142,0.18707 -1.62856,2.05789 -1.62855,2.05787 -1.01784,1.30957 -3.66426,1.87079 -2.44284,1.68373 -2.64639,2.43204 -3.86782,1.30956 -2.44284,0.37417 -2.44284,0 0.40714,-2.43205 2.44284,-2.05788 c 0,0 1.42499,-0.74832 2.84997,-1.12248 1.42499,-0.37416 6.7178,-2.8062 6.7178,-2.8062 l 0.6107,-2.24497 -2.44283,-0.37415 -3.05354,1.8708 -4.6821,1.49664 -2.44284,1.30956 -2.44282,2.61912 -0.81428,2.24496 -0.61071,3.18037 -3.05355,0 -3.05354,0 -2.84997,1.49664 -2.64641,1.49664 -2.23926,1.12248 -2.23926,-2.24496 2.23926,-2.24496 4.88567,-2.99329 2.84997,-2.05788 1.22142,-1.49664 -1.22142,-1.12248 -3.25711,0.9354 -1.83212,1.68372 -2.44284,1.30956 -2.23926,2.43205 -2.84998,1.12247 0,3.55453 0.40714,2.61912 0.20357,0.74832 -1.22142,1.30956 -5.49637,0.37416 -5.49637,0.74832 -6.51423,0.9354 -6.92136,2.05789 -5.90352,1.30956 -4.27495,1.12248 -0.81429,-3.74161 1.83214,-0.18707 5.2928,-0.37417 3.46067,-1.12248 2.64641,0 0.20357,-2.05788 -1.22141,-0.37416 -5.90352,0.37416 -4.27496,0.56124 -3.66425,0.56125 -1.01785,2.8062 -0.61071,3.18036 -1.22141,1.8708 -3.86782,1.68372 -4.47853,2.24497 -5.29281,3.74159 -3.66425,3.36745 -1.62856,2.43204 -1.83211,2.43204 -1.22143,1.30957 -0.81428,-3.55453 1.01785,-2.8062 1.62856,-2.24496 1.22141,-2.24496 1.62856,-2.43204 2.23927,-2.24497 1.62855,-1.87079 1.22142,-2.43205 -0.61071,-1.30956 -2.44283,2.24495 -2.44284,2.43204 -2.84997,2.80621 -2.0357,2.99329 -2.03569,2.99328 -2.03569,3.55452 1.01785,3.92868 0.81427,2.99329 0.40714,4.11576 -0.61071,3.74161 -0.81428,3.36744 -1.832119,2.43204 -4.47853,-2.24496 1.83213,-3.74161 0,-4.11576 0,-3.18036 -1.83213,-4.67701 -1.42499,0.37417 0.40714,4.11575 0.61071,4.48992 0,3.36745 -1.62856,2.05788 -4.27496,1.30957 -4.27495,-1.68372 -3.86782,0 -1.26658,-1.11309 -0.96845,-1.70641 -1.172024,-0.75773 -1.198832,1.26807 1.918563,2.21092 0.425476,1.24147 2.872547,0.72756 2.84997,0 2.44284,0.74833 3.05354,1.12248 2.64641,0.37416 2.23926,0.56123 2.0357,1.49665 -0.61071,1.30957 -3.25711,2.24495 -3.25712,1.30957 -2.84997,1.12247 -1.83212,-2.24495 -2.44284,0.93539 -2.23926,2.24497 4.61013,1.62698 2.43048,0.32876 4.64717,-0.92405 4.02305,1.38665"
     id="C25.3"
     inkscape:connector-curvature="0"
     inkscape:label="#path4152 C25.3"
     sodipodi:nodetypes="ccccccccccccccccccccccccccccccccccccccccccccccccccccccccccccccccccccccccccccccccccccccccccccccccccccccccccccccccccccccccccccccccccccccccccccccccccccccccsccccccccccccccccccccccccccccccccccccccccccccccccccccccccccccccccccccccccccccccccccccccccccccccsccccccccccccccccccccccccccccccccccccccccccccccccccccccccccccccccccccccccccccccccccccccccccccccccccccccccccccccccc" />
  <path
     style="fill:none;fill-rule:evenodd;stroke:#000000;stroke-width:0.60000002;stroke-linecap:butt;stroke-linejoin:miter;stroke-miterlimit:4;stroke-dasharray:none;stroke-opacity:1"
     d="m 29.906315,133.99813 -1.424983,4.30284 -0.40714,4.30284 -0.814281,3.92869 1.017851,4.30284 1.017851,3.92868 2.035694,2.99328 4.071388,3.55452 5.08923,1.12249 6.921363,-2.8062 3.867818,-4.11576 2.646413,-3.9287 3.460677,-5.42532 2.035694,-5.23823 2.849975,-4.67702 1.832124,-4.48992 2.035694,-3.7416 1.628553,-3.7416 1.017852,-1.49665 4.071387,-0.37416 6.107086,-0.37416 3.05354,0.37416 2.74819,1.77726 2.34105,2.24497 2.13748,2.8062 3.9696,1.96435 2.84998,-0.18709 4.274959,-2.43204 3.46067,-2.24496 2.32148,-1.51934 -3.42365,-3.69621 -6.837029,-3.39014 -4.6821,-1.12248 -3.66425,-0.74833 -3.86783,-2.24496 -3.46067,-2.05787 -4.885671,-2.24497 -4.885669,-1.12248 -5.089239,-0.18708 -5.089231,0 -5.292809,2.24496 -5.29281,2.24496 -4.274958,2.80621 -3.053536,2.99328 -4.071397,3.36744 -5.496371,5.42533 -1.832123,3.55452 z"
     id="path4154"
     inkscape:connector-curvature="0"
     sodipodi:nodetypes="cccccccccccccccccccccccccccccccccccccccccccccccc" />
  <path
     style="fill:none;fill-rule:evenodd;stroke:#000000;stroke-width:0.60000002;stroke-linecap:butt;stroke-linejoin:miter;stroke-miterlimit:4;stroke-dasharray:none;stroke-opacity:1"
     d="m 98.345111,135.63707 -2.22163,6.9367 -1.72734,5.55599 0,6.08514 -0.28789,7.40799 -0.28789,4.76229 -1.72734,5.82057 -2.59102,8.20171 -3.74258,9.78914 -1.79932,4.62999"
     id="path4156"
     inkscape:connector-curvature="0"
     sodipodi:nodetypes="cccccccccc" />
  <path
     style="fill:none;fill-rule:evenodd;stroke:#000000;stroke-width:0.60000002;stroke-linecap:butt;stroke-linejoin:miter;stroke-miterlimit:4;stroke-dasharray:none;stroke-opacity:1"
     d="m 83.384311,196.67859 -2.80692,3.57172 -7.197268,3.704 -4.030472,1.58743 0,0"
     id="path4158"
     inkscape:connector-curvature="0"
     sodipodi:nodetypes="ccccc" />
  <path
     style="fill:none;fill-rule:evenodd;stroke:#000000;stroke-width:0.60000002;stroke-linecap:butt;stroke-linejoin:miter;stroke-miterlimit:4;stroke-dasharray:none;stroke-opacity:1"
     d="m 69.637538,211.62687 8.636723,-1.852 1.29551,-1.78586"
     id="path4160"
     inkscape:connector-curvature="0"
     sodipodi:nodetypes="ccc" />
  <path
     style="fill:none;fill-rule:evenodd;stroke:#000000;stroke-width:0.60000002;stroke-linecap:butt;stroke-linejoin:miter;stroke-miterlimit:4;stroke-dasharray:none;stroke-opacity:1"
     d="m 84.216691,204.74802 4.99592,-6.21674"
     id="path4162"
     inkscape:connector-curvature="0"
     sodipodi:nodetypes="cc" />
  <path
     style="fill:none;fill-rule:evenodd;stroke:#000000;stroke-width:0.60000002;stroke-linecap:butt;stroke-linejoin:miter;stroke-miterlimit:4;stroke-dasharray:none;stroke-opacity:1"
     d="m 91.517241,195.22345 2.59101,-6.34971"
     id="path4164"
     inkscape:connector-curvature="0" />
  <path
     style="fill:none;fill-rule:evenodd;stroke:#000000;stroke-width:0.60000002;stroke-linecap:butt;stroke-linejoin:miter;stroke-miterlimit:4;stroke-dasharray:none;stroke-opacity:1"
     d="m 95.871581,183.71461 2.84292,-7.01115 1.15157,-4.23313 1.727339,-5.02686 0.86367,-4.49772 0.57578,-3.17485 0.2879,-4.49771 0,-3.17486 0,-2.38114 7.19726,-2.91028 6.04571,-4.76229 4.03046,-4.76229 2.59102,-6.08513 1.72735,-3.96857 0.86367,-3.96857 3.45469,-2.91029 6.62148,-2.91028 3.45469,-2.38114 -4.89414,-6.08514 -8.92461,5.82056 -3.45468,2.38115 -1.15157,-6.08514 -1.15157,-3.96857 -7.48516,1.32286 2.01524,7.40799 1.15156,3.704 1.72734,4.23314 0.2879,4.23315 -2.30312,5.82056 -3.45469,4.49771 -7.19727,2.91029 2.87891,-5.82057 1.72734,-4.23314 -0.86367,-4.76229 -2.15918,-1.71971"
     id="path4166"
     inkscape:connector-curvature="0"
     sodipodi:nodetypes="ccccccccccccccccccccccccccccccccccc" />
  <path
     style="fill:none;fill-rule:evenodd;stroke:#000000;stroke-width:0.60000002;stroke-linecap:butt;stroke-linejoin:miter;stroke-miterlimit:4;stroke-dasharray:none;stroke-opacity:1"
     d="m 155.42898,213.2143 6.90937,-5.82056 10.36407,-3.17487 12.95508,-2.38113 10.19603,0.96973 7.6532,2.73427 -4.94551,9.14192 -1.83008,8.55484 -1.6931,9.87768 -11.39577,2.58668 -8.34884,5.82057 -7.48516,6.61428 -10.36406,9.26 -9.78829,8.46628 -9.50039,5.556 -16.12187,2.64571 -13.53087,0.79371 -16.121879,-0.79371 -16.697665,-3.43942 -12.379303,-6.34972 -9.212501,-8.20171 -8.636718,-10.31828 -8.060944,-13.75771 -5.182029,-11.64113 -2.303123,-13.75771 -0.575783,-13.22857 4.606246,-21.95941 5.469925,-9.52457"
     id="path4168"
     inkscape:connector-curvature="0"
     sodipodi:nodetypes="cccccccccccccccccccccccccccc" />
  <path
     style="fill:none;fill-rule:evenodd;stroke:#000000;stroke-width:0.60000002;stroke-linecap:butt;stroke-linejoin:miter;stroke-miterlimit:4;stroke-dasharray:none;stroke-opacity:1"
     d="m 66.182849,128.02235 7.629109,-2.38114 6.477543,2.11657 4.75019,4.4977 5.32598,3.704 1.43945,5.556 -0.28788,6.08514 0.28788,4.76228 -1.50781,5.38359"
     id="path4170"
     inkscape:connector-curvature="0"
     sodipodi:nodetypes="ccccccccc" />
  <path
     style="fill:none;fill-rule:evenodd;stroke:#000000;stroke-width:0.60000002;stroke-linecap:butt;stroke-linejoin:miter;stroke-miterlimit:4;stroke-dasharray:none;stroke-opacity:1"
     d="m 195.44579,126.43491 0.86367,6.08515 -0.28789,5.29142 -1.04361,1.32286"
     id="path4172"
     inkscape:connector-curvature="0"
     sodipodi:nodetypes="cccc" />
  <path
     style="fill:none;fill-rule:evenodd;stroke:#000000;stroke-width:0.60000002;stroke-linecap:butt;stroke-linejoin:miter;stroke-miterlimit:4;stroke-dasharray:none;stroke-opacity:1"
     d="m 219.9165,122.69785 -0.86368,4.79535 -2.12319,2.44728 -0.35986,2.14965"
     id="path4174"
     inkscape:connector-curvature="0"
     sodipodi:nodetypes="cccc" />
  <path
     style="fill:none;fill-rule:evenodd;stroke:#000000;stroke-width:0.60000002;stroke-linecap:butt;stroke-linejoin:miter;stroke-miterlimit:4;stroke-dasharray:none;stroke-opacity:1"
     d="m 273.35621,114.92607 -1.04361,4.10085 -3.45468,3.96857 -2.59101,3.96857 -2.59103,1.852 0,2.64571 -3.1668,1.852 -4.89414,1.32285 -7.19727,1.58744 -3.48811,-0.41222"
     id="path4176"
     inkscape:connector-curvature="0"
     sodipodi:nodetypes="cccccccccc" />
  <path
     style="fill:none;fill-rule:evenodd;stroke:#000000;stroke-width:0.60000002;stroke-linecap:butt;stroke-linejoin:miter;stroke-miterlimit:4;stroke-dasharray:none;stroke-opacity:1"
     d="m 263.6399,131.46177 3.49067,6.87885 -0.57578,3.17486 -0.86367,5.52293"
     id="path4178"
     inkscape:connector-curvature="0"
     sodipodi:nodetypes="cccc" />
  <path
     style="fill:none;fill-rule:evenodd;stroke:#000000;stroke-width:0.60000002;stroke-linecap:butt;stroke-linejoin:miter;stroke-miterlimit:4;stroke-dasharray:none;stroke-opacity:1"
     d="m 229.99267,165.32689 -1.72734,-6.61427 -0.2879,-6.87886 0.86368,-6.08514 -0.76189,-3.42888"
     id="path4180"
     inkscape:connector-curvature="0"
     sodipodi:nodetypes="ccccc" />
  <path
     style="fill:none;fill-rule:evenodd;stroke:#000000;stroke-width:0.60000002;stroke-linecap:butt;stroke-linejoin:miter;stroke-miterlimit:4;stroke-dasharray:none;stroke-opacity:1"
     d="m 212.14345,168.50175 -3.1668,-6.34971 -2.30313,-4.49771 1.43946,-5.29143 0.28788,0"
     id="path4182"
     inkscape:connector-curvature="0" />
  <path
     style="fill:none;fill-rule:evenodd;stroke:#000000;stroke-width:0.60000002;stroke-linecap:butt;stroke-linejoin:miter;stroke-miterlimit:4;stroke-dasharray:none;stroke-opacity:1"
     d="m 177.56058,132.55313 -1.40348,6.84578 0.39585,2.94336"
     id="path4184"
     inkscape:connector-curvature="0"
     sodipodi:nodetypes="ccc" />
  <path
     style="fill:none;fill-rule:evenodd;stroke:#000000;stroke-width:0.60000002;stroke-linecap:butt;stroke-linejoin:miter;stroke-miterlimit:4;stroke-dasharray:none;stroke-opacity:1"
     d="m 156.31065,139.13434 -0.59378,5.82057 0.28789,6.08513 3.52665,6.56468"
     id="path4186"
     inkscape:connector-curvature="0"
     sodipodi:nodetypes="cccc" />
  <path
     style="fill:none;fill-rule:evenodd;stroke:#000000;stroke-width:0.60000002;stroke-linecap:butt;stroke-linejoin:miter;stroke-miterlimit:4;stroke-dasharray:none;stroke-opacity:1"
     d="m 133.61614,142.32387 -1.79421,7.39332 -1.43944,4.49771 1.72734,2.64572"
     id="path4188"
     inkscape:connector-curvature="0"
     sodipodi:nodetypes="cccc" />
  <path
     style="fill:none;fill-rule:evenodd;stroke:#000000;stroke-width:0.60000002;stroke-linecap:butt;stroke-linejoin:miter;stroke-miterlimit:4;stroke-dasharray:none;stroke-opacity:1"
     d="m 196.64973,175.81621 -2.93129,-8.37274 -2.74069,-2.70578 -0.88414,-1.69702"
     id="path4190"
     inkscape:connector-curvature="0"
     sodipodi:nodetypes="cccc" />
  <path
     style="fill:none;fill-rule:evenodd;stroke:#000000;stroke-width:0.60000002;stroke-linecap:butt;stroke-linejoin:miter;stroke-miterlimit:4;stroke-dasharray:none;stroke-opacity:1"
     d="m 170.48511,167.70666 0.20208,6.88023 3.74257,3.43943 2.5067,6.07047"
     id="path4192"
     inkscape:connector-curvature="0"
     sodipodi:nodetypes="cccc" />
  <path
     style="fill:none;fill-rule:evenodd;stroke:#000000;stroke-width:0.60000002;stroke-linecap:butt;stroke-linejoin:miter;stroke-miterlimit:4;stroke-dasharray:none;stroke-opacity:1"
     d="m 149.24956,223.73571 -2.89298,-1.17349 -1.50759,-3.26277 -3.42049,-1.62649 -3.34345,-0.12728"
     id="path4194"
     inkscape:connector-curvature="0"
     sodipodi:nodetypes="ccccc" />
  <path
     style="fill:none;fill-rule:evenodd;stroke:#000000;stroke-width:0.60000002;stroke-linecap:butt;stroke-linejoin:miter;stroke-miterlimit:4;stroke-dasharray:none;stroke-opacity:1"
     d="m 83.201831,238.53566 6.30017,-6.27223 3.30202,-3.99929 4.75892,-1.82127 4.030469,-3.43943 7.05332,0.59528"
     id="path4196"
     inkscape:connector-curvature="0"
     sodipodi:nodetypes="cccccc" />
  <path
     style="fill:none;fill-rule:evenodd;stroke:#000000;stroke-width:0.60000002;stroke-linecap:butt;stroke-linejoin:miter;stroke-miterlimit:4;stroke-dasharray:none;stroke-opacity:1"
     d="m 118.47268,230.51552 -1.73598,3.38269 3.75272,3.88912 5.64455,3.01988 4.07837,4.04606"
     id="path4198"
     inkscape:connector-curvature="0"
     sodipodi:nodetypes="ccccc" />
  <path
     style="fill:none;fill-rule:evenodd;stroke:#000000;stroke-width:0.60000002;stroke-linecap:butt;stroke-linejoin:miter;stroke-miterlimit:4;stroke-dasharray:none;stroke-opacity:1"
     d="m 120.30631,229.35315 4.89414,-3.96857 2.9283,-0.12427"
     id="path4200"
     inkscape:connector-curvature="0"
     sodipodi:nodetypes="ccc" />
  <path
     style="fill:none;fill-rule:evenodd;stroke:#000000;stroke-width:0.60000002;stroke-linecap:butt;stroke-linejoin:miter;stroke-miterlimit:4;stroke-dasharray:none;stroke-opacity:1"
     d="m 111.38169,222.73887 4.60626,-0.79371 0.016,-3.43944"
     id="path4202"
     inkscape:connector-curvature="0"
     sodipodi:nodetypes="ccc" />
  <path
     style="fill:none;fill-rule:evenodd;stroke:#000000;stroke-width:0.60000002;stroke-linecap:butt;stroke-linejoin:miter;stroke-miterlimit:4;stroke-dasharray:none;stroke-opacity:1"
     d="m 134.07417,201.60388 -0.57578,5.04291"
     id="path4204"
     inkscape:connector-curvature="0"
     sodipodi:nodetypes="cc" />
  <path
     style="fill:none;fill-rule:evenodd;stroke:#000000;stroke-width:0.60000002;stroke-linecap:butt;stroke-linejoin:miter;stroke-miterlimit:4;stroke-dasharray:none;stroke-opacity:1"
     d="m 89.077401,212.65306 5.03085,4.00067 -1.43945,2.64572 -2.8789,4.23313 3.16679,4.76228"
     id="path4206"
     inkscape:connector-curvature="0"
     sodipodi:nodetypes="ccccc" />
  <path
     style="fill:none;fill-rule:evenodd;stroke:#000000;stroke-width:0.60000002;stroke-linecap:butt;stroke-linejoin:miter;stroke-miterlimit:4;stroke-dasharray:none;stroke-opacity:1"
     d="m 146.0427,172.58341 -3.35889,9.30724 4.07138,5.98656 -2.0244,7.09868"
     id="path4208"
     inkscape:connector-curvature="0"
     sodipodi:nodetypes="cccc" />
  <path
     style="fill:none;fill-rule:evenodd;stroke:#000000;stroke-width:0.60000002;stroke-linecap:butt;stroke-linejoin:miter;stroke-miterlimit:4;stroke-dasharray:none;stroke-opacity:1"
     d="m 114.38765,171.74154 -5.85262,-1.21601"
     id="path4210"
     inkscape:connector-curvature="0"
     sodipodi:nodetypes="cc" />
  <path
     style="fill:none;fill-rule:evenodd;stroke:#000000;stroke-width:0.60000002;stroke-linecap:butt;stroke-linejoin:miter;stroke-miterlimit:4;stroke-dasharray:none;stroke-opacity:1"
     d="m 105.22702,169.91751 -4.07138,-1.49664"
     id="path4212"
     inkscape:connector-curvature="0" />
  <path
     style="fill:none;fill-rule:evenodd;stroke:#000000;stroke-width:0.60000002;stroke-linecap:butt;stroke-linejoin:miter;stroke-miterlimit:4;stroke-dasharray:none;stroke-opacity:1"
     d="m 74.895169,178.14904 11.196322,0 5.59816,-4.77055"
     id="path4214"
     inkscape:connector-curvature="0"
     sodipodi:nodetypes="ccc" />
  <path
     style="fill:none;fill-rule:evenodd;stroke:#000000;stroke-width:0.60000002;stroke-linecap:butt;stroke-linejoin:miter;stroke-miterlimit:4;stroke-dasharray:none;stroke-opacity:1"
     d="m 119.06975,176.6524 -4.47853,8.23152 -1.22142,4.11577 2.03569,2.99329"
     id="path4216"
     inkscape:connector-curvature="0" />
  <path
     style="fill:none;fill-rule:evenodd;stroke:#000000;stroke-width:0.60000002;stroke-linecap:butt;stroke-linejoin:miter;stroke-miterlimit:4;stroke-dasharray:none;stroke-opacity:1"
     d="m 115.76175,195.5475 -0.7634,5.79949"
     id="path4218"
     inkscape:connector-curvature="0"
     sodipodi:nodetypes="cc" />
  <path
     style="fill:none;fill-rule:evenodd;stroke:#000000;stroke-width:0.60000002;stroke-linecap:butt;stroke-linejoin:miter;stroke-miterlimit:4;stroke-dasharray:none;stroke-opacity:1"
     d="m 93.043001,131.12704 4.80584,4.20681 0.54593,0.45059"
     id="path4222"
     inkscape:connector-curvature="0"
     sodipodi:nodetypes="ccc" />
  <path
     id="C25.4"
     style="fill:none;fill-rule:evenodd;stroke:#000000;stroke-width:0.60000002;stroke-linecap:butt;stroke-linejoin:miter;stroke-miterlimit:4;stroke-dasharray:none;stroke-opacity:1"
     d="m 177.29062,54.726126 -0.81428,7.516452 1.62855,7.433305 7.73565,8.771968 11.60346,2.606646 12.41773,-1.71282 5.29281,-6.72656 1.62856,-10.472314 -0.81428,-10.081527 -5.90352,-5.687235 -7.53207,-2.70642 -12.82487,0.345056 -8.14278,3.874631 -4.27496,6.913639"
     inkscape:connector-curvature="0"
     sodipodi:nodetypes="cccccccccccccc"
     inkscape:label="#path4224" />
  <path
     style="fill:none;fill-rule:evenodd;stroke:#000000;stroke-width:0.60000002;stroke-linecap:butt;stroke-linejoin:miter;stroke-miterlimit:4;stroke-dasharray:none;stroke-opacity:1"
     d="m 181.43835,48.22187 2.06114,1.590182 1.73034,0.84186 2.0357,-0.18708 2.23925,-0.841859 1.22143,-1.216023 0,-1.30956 -0.20358,-1.496644 -1.01785,-1.403098 0,-0.187084"
     id="path4227"
     inkscape:connector-curvature="0"
     sodipodi:nodetypes="cccccccccc" />
  <path
     style="fill:none;fill-rule:evenodd;stroke:#000000;stroke-width:0.60000002;stroke-linecap:butt;stroke-linejoin:miter;stroke-miterlimit:4;stroke-dasharray:none;stroke-opacity:1"
     d="m 190.75165,48.385564 2.72274,0.771708 2.44284,0.467696 1.52677,0 1.73034,5e-6 1.22141,-0.748323 0.81428,-1.496644 -0.20357,-1.77726 0.7125,-1.870798"
     id="path4229"
     inkscape:connector-curvature="0"
     sodipodi:nodetypes="ccccccccc" />
  <path
     style="fill:none;fill-rule:evenodd;stroke:#000000;stroke-width:0.60000002;stroke-linecap:butt;stroke-linejoin:miter;stroke-miterlimit:4;stroke-dasharray:none;stroke-opacity:1"
     d="m 188.0798,50.16283 2.26471,2.876356 2.31561,0.140308 3.15532,0.09354 1.52678,0 0.30535,-1.590182 0.10178,-2.057877 0,0 0,-0.0234"
     id="path4231"
     inkscape:connector-curvature="0"
     sodipodi:nodetypes="ccccccccc" />
  <path
     style="fill:none;fill-rule:evenodd;stroke:#000000;stroke-width:0.60000002;stroke-linecap:butt;stroke-linejoin:miter;stroke-miterlimit:4;stroke-dasharray:none;stroke-opacity:1"
     d="m 190.42085,53.085953 -0.71249,4.115764 -3.25711,0.09354 -2.34106,-0.654785 -1.67944,-0.631394 -0.35625,-0.07015"
     id="path4233"
     inkscape:connector-curvature="0"
     sodipodi:nodetypes="cccccc" />
  <path
     style="fill:none;fill-rule:evenodd;stroke:#000000;stroke-width:0.60000002;stroke-linecap:butt;stroke-linejoin:miter;stroke-miterlimit:4;stroke-dasharray:none;stroke-opacity:1"
     d="m 185.1026,50.653912 -2.21382,2.806204 -0.71249,2.338499 -0.91606,1.216023 c 0,0 -0.81428,0.280621 -1.22142,0.280621 -0.40714,0 -1.93391,-0.4677 -1.93391,-0.4677 l -0.91607,-0.374164"
     id="path4235"
     inkscape:connector-curvature="0"
     sodipodi:nodetypes="ccccscc" />
  <path
     style="fill:none;fill-rule:evenodd;stroke:#000000;stroke-width:0.60000002;stroke-linecap:butt;stroke-linejoin:miter;stroke-miterlimit:4;stroke-dasharray:none;stroke-opacity:1"
     d="m 181.26023,56.991939 0.6107,3.2966 -0.50892,2.151423 -1.01784,1.683719 -1.16798,0.373189 -1.47844,-0.279646 -0.93352,-0.770046"
     id="path4237"
     inkscape:connector-curvature="0"
     sodipodi:nodetypes="ccccccc" />
  <path
     style="fill:none;fill-rule:evenodd;stroke:#000000;stroke-width:0.60000002;stroke-linecap:butt;stroke-linejoin:miter;stroke-miterlimit:4;stroke-dasharray:none;stroke-opacity:1"
     d="m 200.54843,48.572644 1.78124,2.361889 3.05353,0.09354 2.03571,-1.122482 1.62855,-0.935401 0.81428,-2.689276"
     id="path4239"
     inkscape:connector-curvature="0"
     sodipodi:nodetypes="cccccc" />
  <path
     style="fill:none;fill-rule:evenodd;stroke:#000000;stroke-width:0.60000002;stroke-linecap:butt;stroke-linejoin:miter;stroke-miterlimit:4;stroke-dasharray:none;stroke-opacity:1"
     d="m 205.43409,50.981299 0.86517,1.917574 2.13749,1.122481 1.62855,0.467701 2.54462,0 1.62856,-1.309561 1.52677,-1.309559"
     id="path4241"
     inkscape:connector-curvature="0"
     sodipodi:nodetypes="ccccccc" />
  <path
     style="fill:none;fill-rule:evenodd;stroke:#000000;stroke-width:0.60000002;stroke-linecap:butt;stroke-linejoin:miter;stroke-miterlimit:4;stroke-dasharray:none;stroke-opacity:1"
     d="m 197.24043,53.226261 0.76338,1.730495 3.10443,0.748321 3.05355,0 1.83212,-0.09354 0.91607,-2.244962"
     id="path4243"
     inkscape:connector-curvature="0"
     sodipodi:nodetypes="cccccc" />
  <path
     style="fill:none;fill-rule:evenodd;stroke:#000000;stroke-width:0.60000002;stroke-linecap:butt;stroke-linejoin:miter;stroke-miterlimit:4;stroke-dasharray:none;stroke-opacity:1"
     d="m 189.7847,57.482338 c -0.51645,-0.992956 0.73793,1.621363 1.14508,2.432042 l 1.83212,0.280621 2.84997,-0.467701 1.93392,-1.122481 c 0,0 0.40713,-0.280621 0.50892,-0.841864 0.10178,-0.561238 0.10178,-1.30956 0.10178,-1.30956 l -0.20357,-1.30956 0,-0.280622"
     id="path4245"
     inkscape:connector-curvature="0"
     sodipodi:nodetypes="cccccsccc" />
  <path
     style="fill:none;fill-rule:evenodd;stroke:#000000;stroke-width:0.60000002;stroke-linecap:butt;stroke-linejoin:miter;stroke-miterlimit:4;stroke-dasharray:none;stroke-opacity:1"
     d="m 190.93595,59.930429 -3.36507,3.912636 c 0,0 -1.52677,-0.280622 -1.93391,-0.280622 -0.40714,0 -1.52678,-0.187079 -1.52678,-0.187079 l -1.22141,-0.187084 -1.22142,-1.683719 0,0"
     id="path4247"
     inkscape:connector-curvature="0"
     sodipodi:nodetypes="ccscccc" />
  <path
     style="fill:none;fill-rule:evenodd;stroke:#000000;stroke-width:0.60000002;stroke-linecap:butt;stroke-linejoin:miter;stroke-miterlimit:4;stroke-dasharray:none;stroke-opacity:1"
     d="m 182.91241,63.210008 2.42027,2.724005 -0.61178,1.650653 -1.9339,1.77726 -1.93391,1.496645 -1.01785,0.935396"
     id="path4249"
     inkscape:connector-curvature="0"
     sodipodi:nodetypes="cccccc" />
  <path
     style="fill:none;fill-rule:evenodd;stroke:#000000;stroke-width:0.5;stroke-linecap:butt;stroke-linejoin:miter;stroke-miterlimit:4;stroke-dasharray:none;stroke-opacity:1"
     d="m 183.22395,69.009491 3.43087,2.036159 2.13747,-0.09354 1.73034,-1.77726 1.62856,-1.683725 -0.30535,-1.496639 -1.62856,-1.496639 -2.74818,-0.676508"
     id="path4251"
     inkscape:connector-curvature="0"
     sodipodi:nodetypes="cccccccc" />
  <path
     style="fill:none;fill-rule:evenodd;stroke:#000000;stroke-width:0.60000002;stroke-linecap:butt;stroke-linejoin:miter;stroke-miterlimit:4;stroke-dasharray:none;stroke-opacity:1"
     d="m 196.4796,59.314393 1.68307,2.244962 -1.73652,2.564326 -3.40618,1.704476 -1.18649,0.231497"
     id="path4253"
     inkscape:connector-curvature="0"
     sodipodi:nodetypes="ccccc" />
  <path
     style="fill:none;fill-rule:evenodd;stroke:#000000;stroke-width:0.60000002;stroke-linecap:butt;stroke-linejoin:miter;stroke-miterlimit:4;stroke-dasharray:none;stroke-opacity:1"
     d="m 188.87768,70.902013 0.0164,1.640277 -0.50892,1.77726 -0.91606,1.870803 -1.83213,1.870804"
     id="path4255"
     inkscape:connector-curvature="0"
     sodipodi:nodetypes="ccccc" />
  <path
     style="fill:none;fill-rule:evenodd;stroke:#000000;stroke-width:0.60000002;stroke-linecap:butt;stroke-linejoin:miter;stroke-miterlimit:4;stroke-dasharray:none;stroke-opacity:1"
     d="m 188.99586,72.635831 2.0357,0.18708 2.44283,0.841859 1.93391,0.467702 0,1.964339 -0.50893,2.244962 -1.01784,1.964345"
     id="path4257"
     inkscape:connector-curvature="0" />
  <path
     style="fill:none;fill-rule:evenodd;stroke:#000000;stroke-width:0.60000002;stroke-linecap:butt;stroke-linejoin:miter;stroke-miterlimit:4;stroke-dasharray:none;stroke-opacity:1"
     d="m 192.10285,67.546893 2.69474,0.03779 1.62856,0.280622 2.34105,0.65478 c 0,0 0.10178,1.216023 -0.30536,1.683719 -0.40713,0.4677 -1.9339,2.057882 -1.9339,2.057882 l -0.40714,1.309565 -1.01785,0.561238"
     id="path4259"
     inkscape:connector-curvature="0"
     sodipodi:nodetypes="ccccsccc" />
  <path
     style="fill:none;fill-rule:evenodd;stroke:#000000;stroke-width:0.60000002;stroke-linecap:butt;stroke-linejoin:miter;stroke-miterlimit:4;stroke-dasharray:none;stroke-opacity:1"
     d="m 198.15649,61.598103 4.47853,0.374159 c 0,0 0.71249,1.590181 0.61071,1.96434 -0.10179,0.374163 -0.20357,2.244961 -0.20357,2.244961 0,0 -1.62856,1.683724 -2.0357,1.777262 -0.40714,0.09354 -2.23926,0.565945 -2.23926,0.565945"
     id="path4261"
     inkscape:connector-curvature="0"
     sodipodi:nodetypes="ccscsc" />
  <path
     style="fill:none;fill-rule:evenodd;stroke:#000000;stroke-width:0.60000002;stroke-linecap:butt;stroke-linejoin:miter;stroke-miterlimit:4;stroke-dasharray:none;stroke-opacity:1"
     d="m 205.96847,55.564764 -0.3817,4.256073 c 0,0 -0.50892,1.590182 -0.91606,1.777266 -0.40714,0.187079 -1.9848,0.42093 -1.9848,0.42093"
     id="path4263"
     inkscape:connector-curvature="0"
     sodipodi:nodetypes="cccc" />
  <path
     style="fill:none;fill-rule:evenodd;stroke:#000000;stroke-width:0.60000002;stroke-linecap:butt;stroke-linejoin:miter;stroke-miterlimit:4;stroke-dasharray:none;stroke-opacity:1"
     d="m 205.72711,58.21696 2.40429,0.574938 2.6464,0.748323 2.84997,0 2.84997,-1.777266"
     id="path4265"
     inkscape:connector-curvature="0"
     sodipodi:nodetypes="ccccc" />
  <path
     style="fill:none;fill-rule:evenodd;stroke:#000000;stroke-width:0.60000002;stroke-linecap:butt;stroke-linejoin:miter;stroke-miterlimit:4;stroke-dasharray:none;stroke-opacity:1"
     d="m 210.7269,59.586987 -1.27231,3.414214 -0.71249,2.244962 1.83213,1.12248 2.34105,0.654784 1.9339,0 1.17053,0"
     id="path4267"
     inkscape:connector-curvature="0"
     sodipodi:nodetypes="ccccccc" />
  <path
     style="fill:none;fill-rule:evenodd;stroke:#000000;stroke-width:0.60000002;stroke-linecap:butt;stroke-linejoin:miter;stroke-miterlimit:4;stroke-dasharray:none;stroke-opacity:1"
     d="m 202.99382,66.137142 2.18582,0.605664 2.13748,0 1.47588,-1.636953"
     id="path4269"
     inkscape:connector-curvature="0"
     sodipodi:nodetypes="cccc" />
  <path
     style="fill:none;fill-rule:evenodd;stroke:#000000;stroke-width:0.60000002;stroke-linecap:butt;stroke-linejoin:miter;stroke-miterlimit:4;stroke-dasharray:none;stroke-opacity:1"
     d="m 198.58727,69.983636 4.04775,1.810331 2.03569,0.841864 1.73034,-0.187079 1.11964,-1.216022 0.50892,-1.403102 -0.10178,-1.403103 -0.42567,-1.793305"
     id="path4271"
     inkscape:connector-curvature="0"
     sodipodi:nodetypes="cccccccc" />
  <path
     style="fill:none;fill-rule:evenodd;stroke:#000000;stroke-width:0.60000002;stroke-linecap:butt;stroke-linejoin:miter;stroke-miterlimit:4;stroke-dasharray:none;stroke-opacity:1"
     d="m 207.57158,70.998884 3.40978,1.075705 2.23927,0.467701 1.93391,0.04679"
     id="path4273"
     inkscape:connector-curvature="0"
     sodipodi:nodetypes="cccc" />
  <path
     style="fill:none;fill-rule:evenodd;stroke:#000000;stroke-width:0.60000002;stroke-linecap:butt;stroke-linejoin:miter;stroke-miterlimit:4;stroke-dasharray:none;stroke-opacity:1"
     d="m 206.03608,72.497867 -1.36537,2.195847 1.22142,2.057877 1.11964,1.309566 2.74818,1.30956"
     id="path4275"
     inkscape:connector-curvature="0"
     sodipodi:nodetypes="ccccc" />
  <path
     style="fill:none;fill-rule:evenodd;stroke:#000000;stroke-width:0.60000002;stroke-linecap:butt;stroke-linejoin:miter;stroke-miterlimit:4;stroke-dasharray:none;stroke-opacity:1"
     d="m 195.51008,74.974331 3.05355,1.12248 1.52677,0 2.84998,0 1.83211,-1.403097"
     id="path4279"
     inkscape:connector-curvature="0" />
  <path
     style="fill:none;fill-rule:evenodd;stroke:#000000;stroke-width:0.60000002;stroke-linecap:butt;stroke-linejoin:miter;stroke-miterlimit:4;stroke-dasharray:none;stroke-opacity:1"
     d="m 185.28072,59.446679 c 0.0508,0.795088 0.40714,1.122481 0.40714,1.122481 l 0.50893,-0.09354 0.10178,-0.280616 0,-0.327393 -0.15268,-0.327387 z"
     id="path4281"
     inkscape:connector-curvature="0" />
  <path
     style="fill:none;fill-rule:evenodd;stroke:#000000;stroke-width:1px;stroke-linecap:butt;stroke-linejoin:miter;stroke-opacity:1"
     d="m 180.39505,66.368643 -0.20356,0.420935 0.50892,0.327387 0.6616,0.09354 0.25446,-0.374164 0,-0.561237 -0.40714,-0.140314 z"
     id="path4283"
     inkscape:connector-curvature="0" />
  <path
     style="fill:none;fill-rule:evenodd;stroke:#000000;stroke-width:1px;stroke-linecap:butt;stroke-linejoin:miter;stroke-opacity:1"
     d="m 178.86828,60.101459 -0.61071,0.467701 0.40714,0.561243 0.96696,0.140308 0.10178,-0.280622 0.10179,-0.327388 z"
     id="path4285"
     inkscape:connector-curvature="0" />
  <path
     style="fill:none;fill-rule:evenodd;stroke:#000000;stroke-width:1px;stroke-linecap:butt;stroke-linejoin:miter;stroke-opacity:1"
     d="m 180.39505,52.665023 -0.61071,0.608009 0.25447,0.514472 0.45803,0.04679 0.55982,-0.09354 0.15267,-0.374158 -0.0509,-0.280622 z"
     id="path4287"
     inkscape:connector-curvature="0" />
  <path
     style="fill:none;fill-rule:evenodd;stroke:#000000;stroke-width:1px;stroke-linecap:butt;stroke-linejoin:miter;stroke-opacity:1"
     d="m 186.85838,47.239698 c -0.20356,-0.04679 -0.86516,0.748323 -0.86516,0.748323 l 0.45803,0.4677 0.55982,0.04679 0.55981,-0.467701 -0.10178,-0.23385 z"
     id="path4289"
     inkscape:connector-curvature="0" />
  <path
     style="fill:none;fill-rule:evenodd;stroke:#000000;stroke-width:1px;stroke-linecap:butt;stroke-linejoin:miter;stroke-opacity:1"
     d="m 186.7566,53.273032 -0.96695,0.701551 0.45803,0.467701 0.35624,0.140313 0.61071,-0.04679 0.30536,-0.561243 z"
     id="path4291"
     inkscape:connector-curvature="0" />
  <path
     style="fill:none;fill-rule:evenodd;stroke:#000000;stroke-width:1px;stroke-linecap:butt;stroke-linejoin:miter;stroke-opacity:1"
     d="m 192.20208,50.79422 0.7125,0.514472 0.81427,0 0.25446,-0.374159 c 0,0 -0.0509,-0.280621 -0.30535,-0.327393 -0.25446,-0.04679 -0.86517,-0.233849 -0.86517,-0.233849 z"
     id="path4293"
     inkscape:connector-curvature="0" />
  <path
     style="fill:none;fill-rule:evenodd;stroke:#000000;stroke-width:1px;stroke-linecap:butt;stroke-linejoin:miter;stroke-opacity:1"
     d="m 195.28544,46.101168 0.36859,0.813491 0.66789,0.01212 0.29801,-0.42737 0.01,-0.75635 -0.64067,-0.06083 z"
     id="path4295"
     inkscape:connector-curvature="0"
     sodipodi:nodetypes="ccccccc" />
  <path
     style="fill:none;fill-rule:evenodd;stroke:#000000;stroke-width:1px;stroke-linecap:butt;stroke-linejoin:miter;stroke-opacity:1"
     d="m 203.85644,46.959077 0.40713,1.169252 0.76339,0.09354 0.55981,-0.280621 0.0509,-0.608008 c 0,0 -0.15268,-0.280622 -0.35625,-0.374164 -0.20357,-0.09354 -0.20357,-0.140309 -0.40713,-0.140309 -0.20357,0 -1.01785,0.140309 -1.01785,0.140309 z"
     id="path4297"
     inkscape:connector-curvature="0" />
  <path
     style="fill:none;fill-rule:evenodd;stroke:#000000;stroke-width:1px;stroke-linecap:butt;stroke-linejoin:miter;stroke-opacity:1"
     d="m 200.14129,53.179494 0.76338,0.467702 c 0,0 1.3741,0.09354 1.32321,-0.09354 -0.0509,-0.187079 0.0509,-0.561238 -0.0509,-0.748322 -0.10179,-0.18708 -0.55982,-0.795088 -0.55982,-0.795088 l -0.96695,0.140308 -0.45803,0.42093 z"
     id="path4299"
     inkscape:connector-curvature="0" />
  <path
     style="fill:none;fill-rule:evenodd;stroke:#000000;stroke-width:1px;stroke-linecap:butt;stroke-linejoin:miter;stroke-opacity:1"
     d="m 193.27082,56.032465 -0.40713,0.514472 0.6107,0.467701 0.81428,0.187079 0.25446,-0.561243 0,-0.701546 z"
     id="path4301"
     inkscape:connector-curvature="0" />
  <path
     style="fill:none;fill-rule:evenodd;stroke:#000000;stroke-width:1px;stroke-linecap:butt;stroke-linejoin:miter;stroke-opacity:1"
     d="m 200.44664,58.277427 -0.10178,0.561243 0.55981,0.4677 1.32321,-0.09354 c 0,0 0.10179,-0.654779 0,-0.841859 -0.10178,-0.187079 -1.06874,-0.514472 -1.06874,-0.514472 z"
     id="path4303"
     inkscape:connector-curvature="0" />
  <path
     style="fill:none;fill-rule:evenodd;stroke:#000000;stroke-width:1px;stroke-linecap:butt;stroke-linejoin:miter;stroke-opacity:1"
     d="m 209.91262,51.121612 c -0.20356,0 -0.35624,0.701551 -0.35624,0.701551 l 0.61071,0.280622 c 0,0 0.45803,0.09354 0.6616,0 0.20357,-0.09354 0.6616,-0.23385 0.55981,-0.420935 -0.10178,-0.187079 -0.20357,-0.4677 -0.20357,-0.4677 z"
     id="path4305"
     inkscape:connector-curvature="0" />
  <path
     style="fill:none;fill-rule:evenodd;stroke:#000000;stroke-width:1px;stroke-linecap:butt;stroke-linejoin:miter;stroke-opacity:1"
     d="m 210.57423,56.453395 -0.55982,0.4677 c 0,0 0.40714,0.467702 0.61071,0.467702 0.20357,0 1.17052,0 1.17052,0 0,0 0.35625,0.04679 0.40715,-0.233851 0.0509,-0.280621 0,-0.65478 0,-0.65478 0,0 -0.7125,-0.187079 -0.96696,-0.187079 -0.25447,0 -0.6616,0.140308 -0.6616,0.140308 z"
     id="path4307"
     inkscape:connector-curvature="0" />
  <path
     style="fill:none;fill-rule:evenodd;stroke:#000000;stroke-width:0.60000002;stroke-linecap:butt;stroke-linejoin:miter;stroke-miterlimit:4;stroke-dasharray:none;stroke-opacity:1"
     d="m 212.50814,62.720583 -0.40714,0.935398 0.6616,0.514471 c 0,0 0.55982,-0.09354 0.55982,-0.280622 0,-0.187078 0.45803,-0.561237 0.25446,-0.748316 -0.20357,-0.187084 -1.06874,-0.420931 -1.06874,-0.420931 z"
     id="path4309"
     inkscape:connector-curvature="0" />
  <path
     style="fill:none;fill-rule:evenodd;stroke:#000000;stroke-width:1px;stroke-linecap:butt;stroke-linejoin:miter;stroke-opacity:1"
     d="m 205.89213,62.393191 0.15267,1.356331 1.01786,-0.4677 0.20357,-0.608009 -0.50893,-0.514472 z"
     id="path4311"
     inkscape:connector-curvature="0" />
  <path
     style="fill:none;fill-rule:evenodd;stroke:#000000;stroke-width:0.60000002;stroke-linecap:butt;stroke-linejoin:miter;stroke-miterlimit:4;stroke-dasharray:none;stroke-opacity:1"
     d="m 197.444,65.339704 0.81428,0.608009 0.96695,-0.04679 0,-0.701546 -0.25446,-0.280621 -0.71249,-0.140313 -0.40715,0.140313 z"
     id="path4313"
     inkscape:connector-curvature="0" />
  <path
     style="fill:none;fill-rule:evenodd;stroke:#000000;stroke-width:1px;stroke-linecap:butt;stroke-linejoin:miter;stroke-opacity:1"
     d="m 193.72885,69.923169 c -0.25446,0.04679 -0.50892,0.60801 -0.50892,0.60801 l 0.40714,0.514471 c 0,0 0.6107,0.23385 0.86517,0 0.25446,-0.23385 0.61071,-0.748322 0.61071,-0.748322 0,0 -0.10179,-0.514472 -0.45803,-0.514472 -0.35625,0 -0.91607,0.140313 -0.91607,0.140313 z"
     id="path4315"
     inkscape:connector-curvature="0" />
  <path
     style="fill:none;fill-rule:evenodd;stroke:#000000;stroke-width:1px;stroke-linecap:butt;stroke-linejoin:miter;stroke-opacity:1"
     d="m 186.96017,66.696035 -0.55981,0.888631 0.76338,0.420929 1.01785,0 c 0,0 0.55981,-0.4677 0.45803,-0.65478 -0.10179,-0.187079 -0.25447,-0.701551 -0.25447,-0.701551 0,0 -0.0509,-0.140308 -0.35624,-0.140308 -0.30535,0 -1.06874,0.187079 -1.06874,0.187079 z"
     id="path4317"
     inkscape:connector-curvature="0" />
  <path
     style="fill:none;fill-rule:evenodd;stroke:#000000;stroke-width:1px;stroke-linecap:butt;stroke-linejoin:miter;stroke-opacity:1"
     d="m 184.56823,72.729369 -0.15268,0.748322 c 0,0 0.55981,0.140308 0.76338,0.140308 0.20358,0 0.55983,-0.140308 0.61072,-0.374158 0.0508,-0.233851 0.25446,-0.60801 0.0508,-0.701551 -0.20357,-0.09354 -0.71249,-0.327388 -0.71249,-0.327388 l -0.7634,0.608009 z"
     id="path4319"
     inkscape:connector-curvature="0" />
  <path
     style="fill:none;fill-rule:evenodd;stroke:#000000;stroke-width:1px;stroke-linecap:butt;stroke-linejoin:miter;stroke-opacity:1"
     d="m 190.62442,75.909732 -0.35625,0.65478 c 0,0 0.7125,0.795094 0.96696,0.795094 0.25446,0 0.86517,0 0.86517,-0.233851 0,-0.233851 0.40714,-0.65478 0.15268,-0.84186 -0.25447,-0.187084 -0.50893,-0.561243 -0.81428,-0.561243 -0.30535,0 -0.81428,0.18708 -0.81428,0.18708 z"
     id="path4321"
     inkscape:connector-curvature="0" />
  <path
     style="fill:none;fill-rule:evenodd;stroke:#000000;stroke-width:1px;stroke-linecap:butt;stroke-linejoin:miter;stroke-opacity:1"
     d="m 198.71631,78.248235 c 0,0 0.25446,0.233851 0.45803,0.280622 0.20356,0.04674 2.23926,-0.327392 2.23926,-0.327392 0,0 -0.20357,-0.514472 -0.45803,-0.561238 -0.25446,-0.04679 -1.3232,-0.04679 -1.52677,-0.04679 -0.20357,0 -0.71249,0.65478 -0.71249,0.65478 z"
     id="path4323"
     inkscape:connector-curvature="0" />
  <path
     style="fill:none;fill-rule:evenodd;stroke:#000000;stroke-width:1px;stroke-linecap:butt;stroke-linejoin:miter;stroke-opacity:1"
     d="m 199.02166,73.617999 1.11963,0.795094 0.40714,-0.561243 c 0,0 0.20357,-0.608009 0,-0.608009 -0.20357,0 -0.76338,-0.09354 -0.96696,0.04679 -0.20357,0.140308 -0.76338,0.514467 -0.76338,0.514467 z"
     id="path4325"
     inkscape:connector-curvature="0" />
  <path
     style="fill:none;fill-rule:evenodd;stroke:#000000;stroke-width:1px;stroke-linecap:butt;stroke-linejoin:miter;stroke-opacity:1"
     d="m 202.94038,69.128076 0.20356,0.935401 c 0,0 1.11963,0.140309 1.17052,-0.04679 0.0509,-0.18708 0.25447,-0.84186 0.25447,-0.84186 0,0 -0.15268,-0.280621 -0.35625,-0.280621 -0.20357,0 -1.2723,0.23385 -1.2723,0.23385 z"
     id="path4327"
     inkscape:connector-curvature="0" />
  <path
     style="fill:none;fill-rule:evenodd;stroke:#000000;stroke-width:1px;stroke-linecap:butt;stroke-linejoin:miter;stroke-opacity:1"
     d="m 210.67601,69.034539 0.25446,0.748317 1.3741,0.140313 0,-0.701551 c 0,0 -0.10178,-0.374164 -0.30536,-0.374164 -0.20357,0 -1.3232,0.187085 -1.3232,0.187085 z"
     id="path4329"
     inkscape:connector-curvature="0" />
  <path
     style="fill:none;fill-rule:evenodd;stroke:#000000;stroke-width:1px;stroke-linecap:butt;stroke-linejoin:miter;stroke-opacity:1"
     d="m 208.69121,74.366321 -0.45803,1.122482 0.86517,0.187078 c 0,0 0.50892,-0.04679 0.55981,-0.23385 0.0509,-0.187079 0.0509,-0.795088 0.0509,-0.795088 z"
     id="path4331"
     inkscape:connector-curvature="0" />
  <path
     style="fill:none;fill-rule:evenodd;stroke:#000000;stroke-width:0.60000002;stroke-linecap:butt;stroke-linejoin:miter;stroke-miterlimit:4;stroke-dasharray:none;stroke-opacity:1"
     d="m 192.04941,62.439962 0.91606,0.748318 1.11963,-0.374159 c 0,0 0.20357,-0.935402 -0.30535,-0.935402 -0.50893,0 -1.52677,0 -1.52677,0 z"
     id="path4333"
     inkscape:connector-curvature="0" />
  <path
     style="opacity:0.98000004;fill:#000000;fill-opacity:1;fill-rule:evenodd;stroke:#000000;stroke-width:0.60000002;stroke-linecap:square;stroke-miterlimit:4;stroke-dasharray:none;stroke-dashoffset:0;stroke-opacity:1"
     d="m 193.80673,56.807692 c -0.26725,-0.06037 -0.45803,-0.207297 -0.45803,-0.352744 0,-0.111779 0.79049,-0.287388 0.88845,-0.19737 0.0681,0.06255 -0.0776,0.619835 -0.15859,0.606949 -0.0375,-0.006 -0.15986,-0.03155 -0.27183,-0.05684 z"
     id="path4335"
     inkscape:connector-curvature="0" />
  <path
     style="opacity:0.98000004;fill:#000000;fill-opacity:1;fill-rule:evenodd;stroke:#000000;stroke-width:0.60000002;stroke-linecap:square;stroke-miterlimit:4;stroke-dasharray:none;stroke-dashoffset:0;stroke-opacity:1"
     d="m 200.75354,53.216548 c -0.47722,-0.327208 -0.28355,-0.743179 0.40115,-0.861584 0.28746,-0.04972 0.34892,-0.02031 0.53438,0.255436 0.11525,0.171384 0.20956,0.422393 0.20956,0.5578 0,0.227746 -0.0325,0.245974 -0.43259,0.243232 -0.27334,-0.0019 -0.53564,-0.07362 -0.7125,-0.194884 z"
     id="path4337"
     inkscape:connector-curvature="0" />
  <path
     style="opacity:0.98000004;fill:#000000;fill-opacity:1;fill-rule:evenodd;stroke:#000000;stroke-width:0.60000002;stroke-linecap:square;stroke-miterlimit:4;stroke-dasharray:none;stroke-dashoffset:0;stroke-opacity:1"
     d="m 204.57236,48.363008 c -0.23688,-0.03225 -0.44964,-0.07698 -0.47279,-0.09938 -0.071,-0.06868 -0.48743,-1.41276 -0.44872,-1.448335 0.02,-0.01837 0.30948,-0.07316 0.64337,-0.121777 1.05049,-0.152986 1.66286,0.254806 1.52322,1.014362 -0.0582,0.317002 -0.13133,0.407343 -0.4421,0.54677 -0.26839,0.120408 -0.49247,0.150647 -0.80298,0.108356 z m 0.64404,-0.445523 c 0.0614,-0.03779 0.14077,-0.178574 0.17648,-0.312829 0.0962,-0.36187 -0.20128,-0.570389 -0.76112,-0.533449 -0.40405,0.02666 -0.43991,0.04922 -0.40802,0.256611 0.0793,0.515419 0.20038,0.66131 0.54779,0.659819 0.18332,-9.2e-4 0.38351,-0.03235 0.44487,-0.07015 z"
     id="path4339"
     inkscape:connector-curvature="0" />
  <path
     style="opacity:0.98000004;fill:#000000;fill-opacity:1;fill-rule:evenodd;stroke:#000000;stroke-width:0.60000002;stroke-linecap:square;stroke-miterlimit:4;stroke-dasharray:none;stroke-dashoffset:0;stroke-opacity:1"
     d="m 204.50713,47.659088 c -0.13936,-0.333771 -0.0745,-0.431135 0.26692,-0.400882 0.27648,0.02448 0.65467,0.03462 0.65467,0.230095 0,0.182755 -0.3822,0.273134 -0.59078,0.295364 -0.17392,0.01852 -0.28917,-0.02487 -0.33081,-0.124577 z"
     id="path4341"
     inkscape:connector-curvature="0"
     sodipodi:nodetypes="csssc" />
  <path
     style="opacity:0.98000004;fill:#000000;fill-opacity:1;fill-rule:evenodd;stroke:#000000;stroke-width:0.60000002;stroke-linecap:square;stroke-miterlimit:4;stroke-dasharray:none;stroke-dashoffset:0;stroke-opacity:1"
     d="m 209.7106,52.098467 c -0.20993,-0.101854 -0.38169,-0.225417 -0.38169,-0.274593 0,-0.189391 0.32703,-0.82876 0.44049,-0.861215 0.0657,-0.01875 0.42936,-0.01837 0.80829,9.2e-4 0.63846,0.03239 0.70003,0.05461 0.83973,0.302884 0.23442,0.416616 0.18796,0.63327 -0.18004,0.839473 -0.42024,0.235465 -1.03231,0.2325 -1.52678,-0.0074 z m 1.28384,-0.300105 c 0.11135,-0.07482 0.15254,-0.179587 0.11035,-0.280621 -0.0951,-0.22786 -1.14113,-0.234116 -1.23579,-0.0074 -0.13953,0.33415 0.72685,0.555863 1.12544,0.288014 z"
     id="path4343"
     inkscape:connector-curvature="0" />
  <path
     style="opacity:0.98000004;fill:#000000;fill-opacity:1;fill-rule:evenodd;stroke:#000000;stroke-width:0.60000002;stroke-linecap:square;stroke-miterlimit:4;stroke-dasharray:none;stroke-dashoffset:0;stroke-opacity:1"
     d="m 210.14319,51.637135 c -0.11163,-0.0663 -0.0348,-0.09106 0.28591,-0.09211 0.26682,-9.2e-4 0.41396,0.03519 0.37568,0.09211 -0.0798,0.118652 -0.4618,0.118652 -0.66159,0 z"
     id="path4345"
     inkscape:connector-curvature="0" />
  <path
     style="opacity:0.98000004;fill:#000000;fill-opacity:1;fill-rule:evenodd;stroke:#000000;stroke-width:0.60000002;stroke-linecap:square;stroke-miterlimit:4;stroke-dasharray:none;stroke-dashoffset:0;stroke-opacity:1"
     d="m 210.49943,57.53395 c -0.11196,-0.04286 -0.33138,-0.202107 -0.4876,-0.353923 l -0.28403,-0.276032 0.40519,-0.336414 c 0.48747,-0.404729 0.96317,-0.504569 1.69092,-0.354899 0.50117,0.103075 0.54005,0.131173 0.57631,0.416644 0.0583,0.459163 -0.0489,0.74575 -0.32752,0.875318 -0.28039,0.130396 -1.26132,0.148667 -1.57327,0.02932 z m 1.47588,-0.652839 c 0,-0.251728 -0.0364,-0.279892 -0.43258,-0.334254 -0.46766,-0.06417 -0.8723,0.03604 -1.08169,0.26791 -0.22669,0.251027 -0.0266,0.341231 0.75689,0.341231 l 0.75738,0 0,-0.274887 z"
     id="path4347"
     inkscape:connector-curvature="0" />
  <path
     style="opacity:0.98000004;fill:#000000;fill-opacity:1;fill-rule:evenodd;stroke:#000000;stroke-width:0.60000002;stroke-linecap:square;stroke-miterlimit:4;stroke-dasharray:none;stroke-dashoffset:0;stroke-opacity:1"
     d=""
     id="path4349"
     inkscape:connector-curvature="0" />
  <path
     style="opacity:0.98000004;fill:#000000;fill-opacity:1;fill-rule:evenodd;stroke:#000000;stroke-width:0.60000002;stroke-linecap:square;stroke-miterlimit:4;stroke-dasharray:none;stroke-dashoffset:0;stroke-opacity:1"
     d=""
     id="path4351"
     inkscape:connector-curvature="0" />
  <path
     style="opacity:0.98000004;fill:#000000;fill-opacity:1;fill-rule:evenodd;stroke:#000000;stroke-width:0.60000002;stroke-linecap:square;stroke-miterlimit:4;stroke-dasharray:none;stroke-dashoffset:0;stroke-opacity:1"
     d=""
     id="path4353"
     inkscape:connector-curvature="0" />
  <path
     style="opacity:0.98000004;fill:#000000;fill-opacity:1;fill-rule:evenodd;stroke:#000000;stroke-width:0.60000002;stroke-linecap:square;stroke-miterlimit:4;stroke-dasharray:none;stroke-dashoffset:0;stroke-opacity:1"
     d="m 210.69816,56.882575 c 0.0843,-0.125357 0.62778,-0.218161 0.86773,-0.148175 0.38997,0.113745 0.20459,0.234518 -0.35997,0.234518 -0.31986,0 -0.54058,-0.03755 -0.50776,-0.08634 z"
     id="path4355"
     inkscape:connector-curvature="0" />
  <path
     style="opacity:0.98000004;fill:#000000;fill-opacity:1;fill-rule:evenodd;stroke:#000000;stroke-width:0.60000002;stroke-linecap:square;stroke-miterlimit:4;stroke-dasharray:none;stroke-dashoffset:0;stroke-opacity:1"
     d="m 212.59954,63.788593 c -0.21318,-0.158635 -0.22363,-0.204053 -0.11602,-0.503735 0.13656,-0.380245 0.10584,-0.369684 0.56381,-0.193838 0.40341,0.154905 0.40419,0.156879 0.20406,0.512554 -0.19615,0.348585 -0.36692,0.397057 -0.65185,0.185019 z"
     id="path4357"
     inkscape:connector-curvature="0" />
  <path
     style="opacity:0.98000004;fill:#000000;fill-opacity:1;fill-rule:evenodd;stroke:#000000;stroke-width:0.60000002;stroke-linecap:square;stroke-miterlimit:4;stroke-dasharray:none;stroke-dashoffset:0;stroke-opacity:1"
     d="m 212.34494,63.961039 -0.3768,-0.304007 0.23261,-0.536678 c 0.25731,-0.593707 0.24355,-0.590681 1.07231,-0.235906 0.48614,0.208097 0.52954,0.354121 0.25447,0.856119 -0.15672,0.285992 -0.48672,0.524479 -0.72577,0.524479 -0.044,0 -0.24959,-0.136805 -0.45682,-0.304007 z"
     id="path4359"
     inkscape:connector-curvature="0" />
  <path
     style="opacity:0.98000004;fill:#000000;fill-opacity:1;fill-rule:evenodd;stroke:#000000;stroke-width:0.60000002;stroke-linecap:square;stroke-miterlimit:4;stroke-dasharray:none;stroke-dashoffset:0;stroke-opacity:1"
     d="m 211.64451,69.160721 c 0.07,-0.02595 0.18449,-0.02595 0.25446,0 0.07,0.02595 0.0128,0.04717 -0.12723,0.04717 -0.13995,0 -0.19721,-0.02121 -0.12723,-0.04717 z"
     id="path4361"
     inkscape:connector-curvature="0" />
  <path
     style="opacity:0.98000004;fill:#000000;fill-opacity:1;fill-rule:evenodd;stroke:#000000;stroke-width:0.60000002;stroke-linecap:square;stroke-miterlimit:4;stroke-dasharray:none;stroke-dashoffset:0;stroke-opacity:1"
     d="m 211.46639,69.503286 c 0,-0.05145 0.1145,-0.09354 0.25446,-0.09354 0.13996,0 0.25446,0.0421 0.25446,0.09354 0,0.05145 -0.1145,0.09354 -0.25446,0.09354 -0.13996,0 -0.25446,-0.0421 -0.25446,-0.09354 z"
     id="path4363"
     inkscape:connector-curvature="0" />
  <path
     style="opacity:0.98000004;fill:#000000;fill-opacity:1;fill-rule:evenodd;stroke:#000000;stroke-width:0.60000002;stroke-linecap:square;stroke-miterlimit:4;stroke-dasharray:none;stroke-dashoffset:0;stroke-opacity:1"
     d="m 211.57408,70.053144 c -0.41662,-0.04437 -0.78928,-0.112565 -0.82814,-0.15156 -0.0388,-0.03898 -0.13808,-0.287281 -0.2205,-0.551739 l -0.14985,-0.480833 0.56237,-0.10379 c 0.86535,-0.159711 1.31706,-0.135525 1.44091,0.07714 0.1202,0.206401 0.14504,1.322015 0.029,1.303574 -0.042,-0.0067 -0.41721,-0.04843 -0.83383,-0.09279 z m -0.14759,-0.620009 c 0.19686,-0.238341 0.0638,-0.155587 -0.19529,-0.121773 -0.14718,0.01923 -0.13268,-0.06025 -0.15359,0.07501 -0.0388,0.251383 0.15806,0.27778 0.34888,0.04679 z m 0.61835,-0.228007 c -0.0324,-0.07462 -0.0566,-0.05246 -0.0615,0.05651 -0.004,0.0986 0.0197,0.153852 0.0535,0.122766 0.0338,-0.03107 0.0374,-0.11176 0.008,-0.179283 z"
     id="path4365"
     inkscape:connector-curvature="0"
     sodipodi:nodetypes="ccscsscccccsccscss" />
  <path
     style="opacity:0.98000004;fill:#000000;fill-opacity:1;fill-rule:evenodd;stroke:#000000;stroke-width:0.60000002;stroke-linecap:square;stroke-miterlimit:4;stroke-dasharray:none;stroke-dashoffset:0;stroke-opacity:1"
     d=""
     id="path4367"
     inkscape:connector-curvature="0" />
  <path
     style="opacity:0.98000004;fill:#000000;fill-opacity:1;fill-rule:evenodd;stroke:#000000;stroke-width:0.60000002;stroke-linecap:square;stroke-miterlimit:4;stroke-dasharray:none;stroke-dashoffset:0;stroke-opacity:1"
     d="m 208.80541,75.333756 c -0.1418,-0.03462 -0.14974,-0.08351 -0.0521,-0.321098 0.0975,-0.23735 0.15422,-0.271226 0.37062,-0.221315 0.33468,0.0772 0.34239,0.08783 0.26621,0.366766 -0.0634,0.232079 -0.19355,0.271187 -0.58468,0.175647 z"
     id="path4369"
     inkscape:connector-curvature="0" />
  <path
     style="opacity:0.98000004;fill:#000000;fill-opacity:1;fill-rule:evenodd;stroke:#000000;stroke-width:0.60000002;stroke-linecap:square;stroke-miterlimit:4;stroke-dasharray:none;stroke-dashoffset:0;stroke-opacity:1"
     d=""
     id="path4371"
     inkscape:connector-curvature="0" />
  <path
     style="opacity:0.98000004;fill:#000000;fill-opacity:1;fill-rule:evenodd;stroke:#000000;stroke-width:0.60000002;stroke-linecap:square;stroke-miterlimit:4;stroke-dasharray:none;stroke-dashoffset:0;stroke-opacity:1"
     d="m 199.20183,78.203264 c -0.0256,-0.03812 0.0324,-0.127526 0.12913,-0.19871 0.12828,-0.09449 0.36807,-0.11617 0.88821,-0.08032 0.62971,0.04338 0.6711,0.05725 0.35625,0.119163 -0.86397,0.169898 -1.33034,0.22418 -1.37359,0.159868 z"
     id="path4373"
     inkscape:connector-curvature="0" />
  <path
     style="opacity:0.98000004;fill:#000000;fill-opacity:1;fill-rule:evenodd;stroke:#000000;stroke-width:0.60000002;stroke-linecap:square;stroke-miterlimit:4;stroke-dasharray:none;stroke-dashoffset:0;stroke-opacity:1"
     d=""
     id="path4375"
     inkscape:connector-curvature="0" />
  <path
     style="opacity:0.98000004;fill:#000000;fill-opacity:1;fill-rule:evenodd;stroke:#000000;stroke-width:0.60000002;stroke-linecap:square;stroke-miterlimit:4;stroke-dasharray:none;stroke-dashoffset:0;stroke-opacity:1"
     d="m 198.87751,78.581122 c -0.17356,-0.097 -0.34078,-0.213851 -0.3716,-0.25967 -0.0308,-0.0458 0.11946,-0.270217 0.33394,-0.498664 l 0.38996,-0.415365 0.76627,0.01131 c 1.09571,0.0162 1.25542,0.07085 1.50126,0.51371 0.11656,0.209953 0.19727,0.393689 0.17936,0.408304 -0.0179,0.01464 -0.49057,0.09726 -1.05039,0.183646 -0.55981,0.08639 -1.11131,0.174179 -1.22554,0.195078 -0.11423,0.02088 -0.3497,-0.04134 -0.52326,-0.138362 z m 2.18143,-0.589071 c -0.0233,-0.0643 -0.11855,-0.130505 -0.21169,-0.147104 -0.11808,-0.02103 -0.15074,0.01435 -0.1079,0.116923 0.0722,0.172924 0.38191,0.202168 0.31959,0.03017 z"
     id="path4377"
     inkscape:connector-curvature="0" />
  <path
     style="opacity:0.98000004;fill:#000000;fill-opacity:1;fill-rule:evenodd;stroke:#000000;stroke-width:0.60000002;stroke-linecap:square;stroke-miterlimit:4;stroke-dasharray:none;stroke-dashoffset:0;stroke-opacity:1"
     d="m 199.45579,74.178494 c -0.36388,-0.254485 -0.6616,-0.51226 -0.6616,-0.572836 0,-0.217048 0.79248,-0.539562 1.33618,-0.543792 0.61266,-0.0048 0.80846,0.143529 0.70323,0.532587 -0.0713,0.26387 -0.5732,1.055824 -0.66532,1.049971 -0.028,-0.0019 -0.34861,-0.211451 -0.71249,-0.46593 z m 0.81069,-0.272674 c 0.19777,-0.339602 0.13023,-0.473849 -0.23841,-0.473849 -0.18908,0 -0.39672,0.05861 -0.46141,0.13025 -0.0931,0.103142 -0.0587,0.17066 0.16566,0.324427 0.35308,0.242016 0.40334,0.24382 0.53416,0.01918 z"
     id="path4379"
     inkscape:connector-curvature="0" />
  <path
     style="opacity:0.98000004;fill:#000000;fill-opacity:1;fill-rule:evenodd;stroke:#000000;stroke-width:0.60000002;stroke-linecap:square;stroke-miterlimit:4;stroke-dasharray:none;stroke-dashoffset:0;stroke-opacity:1"
     d="m 199.42486,74.261712 c -0.83389,-0.575598 -0.86511,-0.767867 -0.17651,-1.086976 0.88783,-0.411445 1.83498,-0.18592 1.69229,0.402947 -0.0736,0.303642 -0.62652,1.164374 -0.7471,1.162949 -0.0418,-4.74e-4 -0.38779,-0.216006 -0.76868,-0.47892 z m 0.78342,-0.416459 c 0.10596,-0.25375 0.0697,-0.319739 -0.17571,-0.319739 -0.33408,0 -0.40123,0.09712 -0.20498,0.29641 0.20688,0.210091 0.30032,0.215817 0.38069,0.02335 z"
     id="path4381"
     inkscape:connector-curvature="0" />
  <path
     style="opacity:0.98000004;fill:#000000;fill-opacity:1;fill-rule:evenodd;stroke:#000000;stroke-width:0.60000002;stroke-linecap:square;stroke-miterlimit:4;stroke-dasharray:none;stroke-dashoffset:0;stroke-opacity:1"
     d="m 199.4395,74.37262 c -0.75111,-0.509281 -0.91029,-0.765106 -0.6442,-1.035322 0.21325,-0.216551 0.98845,-0.466564 1.44663,-0.466564 0.35911,0 0.84241,0.338393 0.84241,0.589823 0,0.272622 -0.72916,1.377235 -0.90639,1.373105 -0.0333,-9.2e-4 -0.36561,-0.208248 -0.73845,-0.461042 z m 0.72878,-0.660027 c 0,-0.05145 -0.0687,-0.09354 -0.15268,-0.09354 -0.084,0 -0.15267,0.0421 -0.15267,0.09354 0,0.05145 0.0687,0.09354 0.15267,0.09354 0.084,0 0.15268,-0.0421 0.15268,-0.09354 z"
     id="path4383"
     inkscape:connector-curvature="0" />
  <path
     style="opacity:0.98000004;fill:#000000;fill-opacity:1;fill-rule:evenodd;stroke:#000000;stroke-width:0.60000002;stroke-linecap:square;stroke-miterlimit:4;stroke-dasharray:none;stroke-dashoffset:0;stroke-opacity:1"
     d="m 203.55262,69.780995 c -0.12595,-0.04655 -0.22901,-0.165233 -0.22901,-0.263781 0,-0.183679 0.25367,-0.290884 0.6939,-0.29327 0.19776,-9.2e-4 0.22453,0.03272 0.16567,0.209191 -0.0789,0.236422 -0.24131,0.447326 -0.33766,0.438385 -0.0351,-0.0033 -0.16694,-0.04399 -0.2929,-0.09052 z"
     id="path4385"
     inkscape:connector-curvature="0" />
  <path
     style="opacity:0.98000004;fill:#000000;fill-opacity:1;fill-rule:evenodd;stroke:#000000;stroke-width:0.60000002;stroke-linecap:square;stroke-miterlimit:4;stroke-dasharray:none;stroke-dashoffset:0;stroke-opacity:1"
     d="m 206.20339,62.571036 c -0.0373,-0.395124 0.28911,-0.17345 0.5429,0.02013 0.23314,0.177807 0.15954,0.443666 -0.16557,0.598168 l -0.30536,0.145116 z"
     id="path4387"
     inkscape:connector-curvature="0"
     sodipodi:nodetypes="scscs" />
  <path
     style="opacity:0.98000004;fill:#000000;fill-opacity:1;fill-rule:evenodd;stroke:#000000;stroke-width:0.60000002;stroke-linecap:square;stroke-miterlimit:4;stroke-dasharray:none;stroke-dashoffset:0;stroke-opacity:1"
     d="m 200.84566,58.855738 c -0.23188,-0.23547 -0.21211,-0.342377 0.0979,-0.529025 0.25183,-0.151641 0.28782,-0.151452 0.6616,0.0033 0.51624,0.213936 0.5569,0.550009 0.0772,0.638176 -0.49999,0.0919 -0.65596,0.0709 -0.83668,-0.112598 z"
     id="path4389"
     inkscape:connector-curvature="0" />
  <path
     style="opacity:0.98000004;fill:#000000;fill-opacity:1;fill-rule:evenodd;stroke:#000000;stroke-width:0.60000002;stroke-linecap:square;stroke-miterlimit:4;stroke-dasharray:none;stroke-dashoffset:0;stroke-opacity:1"
     d="m 195.73738,46.478798 c -0.0811,-0.339446 -0.35517,-0.453394 0.1099,-0.522755 0.29434,-0.0439 0.65984,0.07502 0.67202,0.196755 0.009,0.0839 0.0198,0.200931 0.0255,0.260063 0.006,0.05914 -0.15868,0.16124 -0.36508,0.226908 -0.37272,0.118589 -0.59164,0.382072 -0.65819,0.1036 z"
     id="path4391"
     inkscape:connector-curvature="0"
     sodipodi:nodetypes="cscsscc" />
  <path
     style="opacity:0.98000004;fill:#000000;fill-opacity:1;fill-rule:evenodd;stroke:#000000;stroke-width:0.60000002;stroke-linecap:square;stroke-miterlimit:4;stroke-dasharray:none;stroke-dashoffset:0;stroke-opacity:1"
     d="m 193.17252,51.011069 c 0.099,-0.02373 0.23644,-0.02216 0.30536,0.0033 0.0689,0.02562 -0.0121,0.04503 -0.18006,0.0431 -0.16795,-0.0019 -0.22434,-0.02287 -0.1253,-0.04661 z"
     id="path4393"
     inkscape:connector-curvature="0" />
  <path
     style="opacity:0.98000004;fill:#000000;fill-opacity:1;fill-rule:evenodd;stroke:#000000;stroke-width:0.60000002;stroke-linecap:square;stroke-miterlimit:4;stroke-dasharray:none;stroke-dashoffset:0;stroke-opacity:1"
     d="m 192.738,50.795271 c 0,-0.05144 0.0916,-0.09354 0.20357,-0.09354 0.11196,0 0.20356,0.0421 0.20356,0.09354 0,0.05145 -0.0916,0.09354 -0.20356,0.09354 -0.11197,0 -0.20357,-0.0421 -0.20357,-0.09354 z"
     id="path4395"
     inkscape:connector-curvature="0" />
  <path
     style="opacity:0.98000004;fill:#000000;fill-opacity:1;fill-rule:evenodd;stroke:#000000;stroke-width:0.60000002;stroke-linecap:square;stroke-miterlimit:4;stroke-dasharray:none;stroke-dashoffset:0;stroke-opacity:1"
     d="m 192.43264,51.207208 c -0.25192,-0.184015 -0.45803,-0.370768 -0.45803,-0.41501 0,-0.04423 0.17829,-0.202609 0.39619,-0.351924 0.39408,-0.270033 0.39897,-0.270747 0.91607,-0.134133 0.86247,0.227869 1.0287,0.456728 0.70149,0.965787 -0.15209,0.236616 -0.23417,0.271547 -0.63616,0.270756 -0.37529,-9.2e-4 -0.54712,-0.06342 -0.91956,-0.335476 z m 1.31642,-0.351986 c -0.12661,-0.105381 -0.50214,-0.154927 -0.50214,-0.06626 0,0.05491 0.0687,0.09985 0.15268,0.09985 0.084,0 0.15268,0.05052 0.15268,0.112249 0,0.08642 0.0277,0.08678 0.12043,0.0014 0.0663,-0.06087 0.1006,-0.127209 0.0764,-0.147397 z"
     id="path4397"
     inkscape:connector-curvature="0" />
  <path
     style="opacity:0.98000004;fill:#000000;fill-opacity:1;fill-rule:evenodd;stroke:#000000;stroke-width:0.60000002;stroke-linecap:square;stroke-miterlimit:4;stroke-dasharray:none;stroke-dashoffset:0;stroke-opacity:1"
     d="m 186.47427,48.076718 c -0.0368,-0.05469 0.0149,-0.182458 0.11481,-0.283922 0.17962,-0.182405 0.18389,-0.182444 0.37857,-0.0038 0.10829,0.09952 0.16573,0.227282 0.12764,0.283923 -0.0885,0.131632 -0.53317,0.134165 -0.62102,0.0033 z"
     id="path4399"
     inkscape:connector-curvature="0" />
  <path
     style="opacity:0.98000004;fill:#000000;fill-opacity:1;fill-rule:evenodd;stroke:#000000;stroke-width:0.60000002;stroke-linecap:square;stroke-miterlimit:4;stroke-dasharray:none;stroke-dashoffset:0;stroke-opacity:1"
     d="m 186.33624,54.127773 c -0.0911,-0.100868 -0.0583,-0.163225 0.15246,-0.29015 0.25736,-0.154971 0.27693,-0.153915 0.47217,0.02553 0.11202,0.102948 0.17251,0.233514 0.13442,0.290149 -0.0979,0.145594 -0.62038,0.128039 -0.75905,-0.02553 z"
     id="path4401"
     inkscape:connector-curvature="0" />
  <path
     style="opacity:0.98000004;fill:#000000;fill-opacity:1;fill-rule:evenodd;stroke:#000000;stroke-width:0.60000002;stroke-linecap:square;stroke-miterlimit:4;stroke-dasharray:none;stroke-dashoffset:0;stroke-opacity:1"
     d=""
     id="path4403"
     inkscape:connector-curvature="0" />
  <path
     style="opacity:0.98000004;fill:#000000;fill-opacity:1;fill-rule:evenodd;stroke:#000000;stroke-width:0.60000002;stroke-linecap:square;stroke-miterlimit:4;stroke-dasharray:none;stroke-dashoffset:0;stroke-opacity:1"
     d="m 180.21847,53.392261 c 0,-0.242048 0.20882,-0.345819 0.47315,-0.235134 0.32396,0.135644 0.25131,0.296913 -0.15018,0.33335 -0.22043,0.01998 -0.32297,-0.01118 -0.32297,-0.09822 z"
     id="path4405"
     inkscape:connector-curvature="0" />
  <path
     style="opacity:0.98000004;fill:#000000;fill-opacity:1;fill-rule:evenodd;stroke:#000000;stroke-width:0.60000002;stroke-linecap:square;stroke-miterlimit:4;stroke-dasharray:none;stroke-dashoffset:0;stroke-opacity:1"
     d="m 185.62302,60.041783 c -0.14415,-0.380036 -0.15191,-0.360203 0.14078,-0.360203 0.18291,0 0.26974,0.06301 0.31494,0.228533 0.13099,0.47963 -0.27881,0.598035 -0.45572,0.13167 z"
     id="path4407"
     inkscape:connector-curvature="0" />
  <path
     style="opacity:0.98000004;fill:#000000;fill-opacity:1;fill-rule:evenodd;stroke:#000000;stroke-width:0.60000002;stroke-linecap:square;stroke-miterlimit:4;stroke-dasharray:none;stroke-dashoffset:0;stroke-opacity:1"
     d="m 192.65224,62.680405 c -0.53259,-0.418699 -0.41828,-0.607085 0.38951,-0.641946 0.53205,-0.02297 0.68281,0.0029 0.78781,0.134805 0.23533,0.295767 0.1512,0.468691 -0.30613,0.629202 -0.2398,0.08416 -0.45736,0.151305 -0.48348,0.149217 -0.0261,-0.0019 -0.20059,-0.124169 -0.38771,-0.271278 z"
     id="path4409"
     inkscape:connector-curvature="0" />
  <path
     style="opacity:0.98000004;fill:#000000;fill-opacity:1;fill-rule:evenodd;stroke:#000000;stroke-width:0.60000002;stroke-linecap:square;stroke-miterlimit:4;stroke-dasharray:none;stroke-dashoffset:0;stroke-opacity:1"
     d="m 198.01153,65.534243 c -0.25989,-0.210324 -0.26464,-0.229101 -0.0938,-0.371204 0.39822,-0.331191 1.13089,-0.123018 1.13089,0.321316 0,0.258638 -0.0257,0.277131 -0.38169,0.274375 -0.25321,-0.0019 -0.47383,-0.07753 -0.65543,-0.224487 z"
     id="path4411"
     inkscape:connector-curvature="0" />
  <path
     style="opacity:0.98000004;fill:#000000;fill-opacity:1;fill-rule:evenodd;stroke:#000000;stroke-width:0.60000002;stroke-linecap:square;stroke-miterlimit:4;stroke-dasharray:none;stroke-dashoffset:0;stroke-opacity:1"
     d="m 193.9565,70.845898 c -0.25579,-0.06377 -0.39948,-0.345777 -0.26336,-0.516859 0.14526,-0.182552 0.93013,-0.318967 1.02486,-0.178119 0.0664,0.09882 -0.41844,0.765423 -0.54165,0.744619 -0.0354,-0.006 -0.13427,-0.02832 -0.21985,-0.04964 z"
     id="path4413"
     inkscape:connector-curvature="0" />
  <path
     style="opacity:0.98000004;fill:#000000;fill-opacity:1;fill-rule:evenodd;stroke:#000000;stroke-width:0.60000002;stroke-linecap:square;stroke-miterlimit:4;stroke-dasharray:none;stroke-dashoffset:0;stroke-opacity:1"
     d="m 190.97581,76.81768 c -0.31522,-0.302359 -0.33591,-0.415257 -0.11356,-0.619593 0.23354,-0.214623 0.68501,-0.181842 0.94072,0.06831 0.19575,0.191492 0.20651,0.24838 0.0972,0.514472 -0.16035,0.390412 -0.53998,0.405533 -0.92437,0.0368 z"
     id="path4415"
     inkscape:connector-curvature="0" />
  <path
     style="opacity:0.98000004;fill:#000000;fill-opacity:1;fill-rule:evenodd;stroke:#000000;stroke-width:0.60000002;stroke-linecap:square;stroke-miterlimit:4;stroke-dasharray:none;stroke-dashoffset:0;stroke-opacity:1"
     d="m 184.86665,73.276073 c -0.12852,-0.118112 -0.0674,-0.376707 0.12724,-0.538611 0.27207,-0.226282 0.6625,-0.0477 0.55946,0.255892 -0.10281,0.302879 -0.49091,0.462661 -0.6867,0.282719 z"
     id="path4417"
     inkscape:connector-curvature="0" />
  <path
     style="opacity:0.98000004;fill:#000000;fill-opacity:1;fill-rule:evenodd;stroke:#000000;stroke-width:0.60000002;stroke-linecap:square;stroke-miterlimit:4;stroke-dasharray:none;stroke-dashoffset:0;stroke-opacity:1"
     d="m 187.00139,67.588274 c -0.18378,-0.127924 -0.18311,-0.139853 0.023,-0.405803 0.18859,-0.243398 0.55845,-0.391847 0.97629,-0.391847 0.0676,0 0.17131,0.145011 0.2305,0.322249 0.0898,0.268867 0.0787,0.346336 -0.0673,0.467701 -0.21714,0.180592 -0.90755,0.185166 -1.16249,0.0077 z"
     id="path4419"
     inkscape:connector-curvature="0" />
  <path
     style="opacity:0.98000004;fill:#000000;fill-opacity:1;fill-rule:evenodd;stroke:#000000;stroke-width:0.60000002;stroke-linecap:square;stroke-miterlimit:4;stroke-dasharray:none;stroke-dashoffset:0;stroke-opacity:1"
     d="m 180.72825,66.795057 c -0.18879,-0.112135 -0.0579,-0.237474 0.33754,-0.323277 0.25685,-0.05573 0.28396,-0.0396 0.25446,0.151622 -0.0361,0.233813 -0.33932,0.321738 -0.592,0.171655 z"
     id="path4421"
     inkscape:connector-curvature="0" />
  <path
     style="opacity:0.98000004;fill:#000000;fill-opacity:1;fill-rule:evenodd;stroke:#000000;stroke-width:0.60000002;stroke-linecap:square;stroke-miterlimit:4;stroke-dasharray:none;stroke-dashoffset:0;stroke-opacity:1"
     d="m 179.09884,60.916352 c -0.23975,-0.03543 -0.40206,-0.164602 -0.40558,-0.322755 -0.003,-0.133646 0.38407,-0.06938 0.6144,0.102019 0.25762,0.191715 0.17631,0.277661 -0.20882,0.220736 z"
     id="path4423"
     inkscape:connector-curvature="0" />
  <path
     style="opacity:0.98000004;fill:#000000;fill-opacity:1;fill-rule:evenodd;stroke:#000000;stroke-width:0.60000002;stroke-linecap:square;stroke-miterlimit:4;stroke-dasharray:none;stroke-dashoffset:0;stroke-opacity:1"
     d="m 185.4019,60.303011 c -0.24561,-0.497091 -0.26542,-1.040097 -0.035,-0.95883 0.0885,0.0312 0.31201,0.05678 0.49657,0.05678 0.27772,0 0.35763,0.04892 0.46346,0.283737 0.20174,0.447578 0.0274,0.862873 -0.39571,0.942392 -0.32062,0.06027 -0.34762,0.04371 -0.52935,-0.324078 z"
     id="path4425"
     inkscape:connector-curvature="0" />
  <path
     style="opacity:0.98000004;fill:#000000;fill-opacity:1;fill-rule:evenodd;stroke:#000000;stroke-width:0.60000002;stroke-linecap:square;stroke-miterlimit:4;stroke-dasharray:none;stroke-dashoffset:0;stroke-opacity:1"
     d="m 185.30497,60.312975 c -0.22468,-0.454866 -0.26423,-1.000619 -0.0736,-1.015465 0.68748,-0.05356 1.05158,0.06371 1.19655,0.385363 0.23169,0.514032 -0.08,1.027646 -0.62354,1.027646 -0.25788,0 -0.33232,-0.05926 -0.49941,-0.397544 z"
     id="path4427"
     inkscape:connector-curvature="0" />
  <path
     style="opacity:0.98000004;fill:#000000;fill-opacity:1;fill-rule:evenodd;stroke:#000000;stroke-width:0.60000002;stroke-linecap:square;stroke-miterlimit:4;stroke-dasharray:none;stroke-dashoffset:0;stroke-opacity:1"
     d="m 185.30913,60.503104 c -0.21561,-0.325825 -0.36918,-1.02721 -0.26035,-1.189043 0.12019,-0.178715 1.01217,-0.119579 1.24851,0.08277 0.57857,0.495357 0.25293,1.396211 -0.5076,1.404253 -0.2096,0.0024 -0.33221,-0.07382 -0.48056,-0.297984 z"
     id="path4429"
     inkscape:connector-curvature="0" />
  <path
     style="fill:none;fill-rule:evenodd;stroke:#000000;stroke-width:0.60000002;stroke-linecap:butt;stroke-linejoin:miter;stroke-miterlimit:4;stroke-dasharray:none;stroke-opacity:1"
     d="m 233.87394,121.79657 0.009,2.66046 2.84997,0 -0.0179,-2.64934 z"
     id="path4431"
     inkscape:connector-curvature="0"
     sodipodi:nodetypes="ccccc" />
  <path
     style="fill:none;fill-rule:evenodd;stroke:#000000;stroke-width:0.60000002;stroke-linecap:butt;stroke-linejoin:miter;stroke-miterlimit:4;stroke-dasharray:none;stroke-opacity:1"
     d="m 233.83421,124.4837 -47.96898,-46.025686 0.14395,0.09921"
     id="path4433"
     inkscape:connector-curvature="0"
     sodipodi:nodetypes="ccc" />
  <path
     style="fill:none;fill-rule:evenodd;stroke:#000000;stroke-width:0.60000002;stroke-linecap:butt;stroke-linejoin:miter;stroke-miterlimit:4;stroke-dasharray:none;stroke-opacity:1"
     d="m 236.71363,121.72075 -20.67284,-69.255532 -0.036,-0.165356 0,0.231502"
     id="path4435"
     inkscape:connector-curvature="0"
     sodipodi:nodetypes="cccc" />
  <path
     style="fill:none;fill-rule:evenodd;stroke:#000000;stroke-width:0.60000002;stroke-linecap:butt;stroke-linejoin:miter;stroke-miterlimit:4;stroke-dasharray:none;stroke-opacity:1"
     d="m 133.26139,208.98116 -1.15156,2.778 0.64775,1.71971 0.14395,2.38114"
     id="path4438"
     inkscape:connector-curvature="0" />
  <path
     style="fill:none;fill-rule:evenodd;stroke:#000000;stroke-width:0.60000002;stroke-linecap:butt;stroke-linejoin:miter;stroke-miterlimit:4;stroke-dasharray:none;stroke-opacity:1"
     d="m 36.298461,78.81809 -0.158114,2.649042 0,2.493219 0.632469,2.337395 1.423053,2.804866 1.581179,2.337395 2.055522,2.181572 2.213637,1.71408 2.846117,1.558268 2.846107,0.779128 2.846117,0.311647 3.162347,0 2.055522,-0.155823 3.478576,-0.934952 2.529878,-1.24661 1.897408,-1.246609 1.897408,-1.558268 1.264938,-1.558256 1.739293,-3.272347 0.94871,-2.337395 0.474344,-2.025738 0,-2.9607 -1.423054,-5.298097 -1.106824,-2.181561 -1.264938,-1.869914 -2.055522,-1.869914 -1.897408,-1.24661 -1.581168,-0.934951 -1.739294,-0.934963 -2.055522,-0.623304 -2.529878,-0.467482 -2.213647,-0.155823 -2.846107,0.311658 -2.846117,0.623305 -2.213638,0.934951 -2.213648,0.934963 -2.529877,2.181561 -1.581168,1.558267 -1.423053,1.71408 -1.106823,2.181572 -0.790585,1.558256 z"
     id="C25.9"
     inkscape:connector-curvature="0"
     inkscape:label="#path4217-8" />
  <path
     style="fill:none;fill-rule:evenodd;stroke:#000000;stroke-width:0.60000002;stroke-linecap:butt;stroke-linejoin:miter;stroke-miterlimit:4;stroke-dasharray:none;stroke-opacity:1"
     d="m 36.227151,33.770067 -0.158115,2.649042 0,2.493219 0.63247,2.337395 1.423053,2.804866 1.581179,2.337396 2.055522,2.181572 2.213637,1.71408 2.846118,1.558268 2.846106,0.779128 2.846118,0.311646 3.162346,0 2.055523,-0.155823 3.478575,-0.934951 2.529877,-1.24661 1.897408,-1.24661 1.897408,-1.558268 1.264939,-1.558256 1.739293,-3.272347 0.94871,-2.337395 0.474343,-2.025738 0,-2.9607 -1.423053,-5.298097 -1.106824,-2.181561 -1.264939,-1.869914 -2.055522,-1.869914 -1.897408,-1.246609 -1.581168,-0.934952 -1.739293,-0.934962 -2.055523,-0.623305 -2.529876,-0.467482 -2.213649,-0.155823 -2.846106,0.311658 -2.846118,0.623305 -2.213636,0.934951 -2.213649,0.934963 -2.529877,2.181561 -1.581168,1.558267 -1.423052,1.71408 -1.106825,2.181572 -0.790583,1.558257 z"
     id="C25.8"
     inkscape:connector-curvature="0"
     inkscape:label="#path4217" />
  <path
     id="path4223"
     style="fill:none;fill-rule:evenodd;stroke:#000000;stroke-width:0.60000002;stroke-linecap:butt;stroke-linejoin:miter;stroke-miterlimit:4;stroke-dasharray:none;stroke-opacity:1"
     d="m 59.227228,82.058616 c 0.226931,0.922448 0.160877,0.666431 0.156739,1.011265 -0.02636,2.198708 0.0455,1.111661 -0.02155,1.837146 l -0.02614,1.405505 -0.205359,1.397576 -0.786194,1.292684 -1.434217,1.004183 -1.844799,0.716211 c -0.708106,0.146912 -1.301674,0.412077 -2.236113,0.275467 l -2.397048,-0.679354 c 0,0 0.335417,0.08268 0.44044,-0.147182 m 0.659164,-15.976803 -1.037343,1.377312 -0.52136,1.818067 -0.10648,1.707879 0.380564,1.818066 1.253477,1.597701 1.545842,0.7713 1.489944,0.165278 1.9498,-0.287688 c 0.541417,-0.147126 1.600802,-0.427372 1.600802,-0.427372 -0.05009,-0.128205 1.293661,-0.08731 1.283162,-0.49302 -0.03886,-1.500558 -0.03988,-2.512963 0.01662,-3.6952 0.05628,1.218213 -0.0046,-2.626089 -0.928824,-3.360656 l -1.551222,-1.432423 -1.657653,-0.550922 -2.155399,0.165222 z"
     inkscape:connector-curvature="0"
     sodipodi:nodetypes="csccccccccccccccccccsscccccc" />
  <path
     style="fill:none;fill-rule:evenodd;stroke:#000000;stroke-width:0.60000002;stroke-linecap:butt;stroke-linejoin:miter;stroke-miterlimit:4;stroke-dasharray:none;stroke-opacity:1"
     d="m 51.218078,31.778862 -0.111753,1.101856 0.111753,1.652778 1.173967,1.322234 1.565281,0.881489 1.341663,0.7162 1.397574,0.881489 1.173956,0.881489 0.894449,1.377323 0.447225,1.707867 -0.279516,1.873168 -0.950349,1.5426 -1.565281,0.881478 -1.73299,0.05512 -1.397574,-0.275468 -1.565282,-0.991666 -0.838539,-1.322223 -0.223607,-1.818078 0.167708,-1.65279 0.89445,-1.432411 1.229854,-0.991678 1.229866,-0.550922 1.900698,-0.661067 1.341674,-0.936578 1.006247,-1.322234 0.503136,-1.762966 -0.279517,-1.59769 -1.118057,-1.377323 -1.565281,-0.7713 -1.677091,-0.05512 -1.67709,0.495845 -0.950349,1.101855 z"
     id="path4230"
     inkscape:connector-curvature="0"
     sodipodi:nodetypes="ccccccccccccccccccccccccccccccccc" />
  <path
     style="fill:none;fill-rule:evenodd;stroke:#000000;stroke-width:0.60000008;stroke-linecap:butt;stroke-linejoin:miter;stroke-miterlimit:4;stroke-dasharray:none;stroke-opacity:1"
     d="m 109.12265,57.921867 -2.11138,-0.454924 -2.27811,-0.09099 -1.83358,0.318448 -1.88916,0.636893 -2.611484,1.137311 -0.111064,0.909847 -0.38895,1.182802 0.166694,1.319282 0.444523,1.228295 0.833448,1.046326 0.944563,0.818863 2.05586,0.682386 1.88913,0 1.5002,-0.409431 0.66677,-0.591402 1.88915,-0.181968 1.83359,-0.636895 2.05583,-0.500417 1.88918,-0.864354 1.11126,-0.773373 2.11143,-1.68322 2.77814,-2.09265 0.0983,-1.130312 -0.0428,-1.053324 -0.22224,-0.773371 -1.19461,0.136476 -2.1392,0.545909 -2.61148,1.182804 -3.16712,0.181969 z"
     id="path4146"
     inkscape:connector-curvature="0"
     sodipodi:nodetypes="ccccccccccccccccccccccccccccccc" />
  <path
     style="fill:none;fill-rule:evenodd;stroke:#000000;stroke-width:0.60000008;stroke-linecap:butt;stroke-linejoin:miter;stroke-miterlimit:4;stroke-dasharray:none;stroke-opacity:1"
     d="m 100.46769,52.683145 0.85953,1.147638 -0.0945,0.770138 -0.16669,1.410265 0.0556,2.092651 0.009,0.184966"
     id="path4148"
     inkscape:connector-curvature="0"
     sodipodi:nodetypes="cccccc" />
  <path
     style="fill:none;fill-rule:evenodd;stroke:#000000;stroke-width:0.60000008;stroke-linecap:butt;stroke-linejoin:miter;stroke-miterlimit:4;stroke-dasharray:none;stroke-opacity:1"
     d="m 102.26059,52.724358 -0.93673,1.106937"
     id="path4150"
     inkscape:connector-curvature="0"
     sodipodi:nodetypes="cc" />
  <path
     style="fill:none;fill-rule:evenodd;stroke:#000000;stroke-width:0.60000008;stroke-linecap:butt;stroke-linejoin:miter;stroke-miterlimit:4;stroke-dasharray:none;stroke-opacity:1"
     d="m 101.06945,56.139133 -0.83693,-0.53738 -0.500049,-1.182801 -0.11108,-1.046326 -0.888993,-0.18197 -1.166836,0 -0.833473,0.227461 -1.166811,0.272955 -1.166809,0.272955 -0.555645,0.409432 0.166695,1.137309 1.277944,0.591401 1.555773,-0.636892 1.000155,-0.727879 0.732131,-1.527898 -0.01963,0"
     id="path4152"
     inkscape:connector-curvature="0"
     sodipodi:nodetypes="cccccccccccccccc" />
  <path
     style="fill:none;fill-rule:evenodd;stroke:#000000;stroke-width:0.60000008;stroke-linecap:butt;stroke-linejoin:miter;stroke-miterlimit:4;stroke-dasharray:none;stroke-opacity:1"
     d="m 98.402032,59.471367 -0.05553,-0.909846 -0.836529,-0.594161 -1.500226,-0.363939 -1.055702,0.409431 -0.722326,0.864354 -0.111064,1.319281 -0.333389,1.546745 -0.222256,1.637726 0.333389,1.774203 0.777888,1.410265 1.0557,1.319278 1.277957,1.046327 2.000284,0.909849 3.000402,0.227461 1.94471,-0.318445 2.94488,-1.364773 0.61118,-0.181971 0.22226,0.955343 3.16713,-0.227464 -0.27783,-1.364773 -0.66676,-1.319279 -1.22241,-0.727879 -0.43776,-0.04676"
     id="path4154-2"
     inkscape:connector-curvature="0"
     sodipodi:nodetypes="cccccccccccccccccccccccc" />
  <path
     style="fill:none;fill-rule:evenodd;stroke:#000000;stroke-width:0.60000008;stroke-linecap:butt;stroke-linejoin:miter;stroke-miterlimit:4;stroke-dasharray:none;stroke-opacity:1"
     d="m 98.899007,64.609252 1.389093,-0.90985 0.94458,-0.727877 1.6669,-0.955341 1.72245,-0.363939 1.8336,0.09099 1.33352,0.04548 1.72244,-0.500416 1.61137,-0.773372 1.44463,-0.363938 1.88917,0 1.50021,-0.682387 2.00027,-1.455757 0.44449,-0.318448"
     id="path4156-3"
     inkscape:connector-curvature="0"
     sodipodi:nodetypes="cccccccccccccc" />
  <path
     style="fill:none;fill-rule:evenodd;stroke:#000000;stroke-width:0.60000008;stroke-linecap:butt;stroke-linejoin:miter;stroke-miterlimit:4;stroke-dasharray:none;stroke-opacity:1"
     d="m 115.29018,58.695238 0.39388,0.895027"
     id="path4158-7"
     inkscape:connector-curvature="0"
     sodipodi:nodetypes="cc" />
  <path
     style="fill:none;fill-rule:evenodd;stroke:#000000;stroke-width:0.60000008;stroke-linecap:butt;stroke-linejoin:miter;stroke-miterlimit:4;stroke-dasharray:none;stroke-opacity:1"
     d="m 111.23408,59.514102 -0.0997,0.994288"
     id="path4160-5"
     inkscape:connector-curvature="0"
     sodipodi:nodetypes="cc" />
  <path
     style="fill:none;fill-rule:evenodd;stroke:#000000;stroke-width:0.60000008;stroke-linecap:butt;stroke-linejoin:miter;stroke-miterlimit:4;stroke-dasharray:none;stroke-opacity:1"
     d="m 107.51134,60.924365 -0.50007,0.833451"
     id="path4162-9"
     inkscape:connector-curvature="0"
     sodipodi:nodetypes="cc" />
  <path
     style="fill:none;fill-rule:evenodd;stroke:#000000;stroke-width:0.60000008;stroke-linecap:butt;stroke-linejoin:miter;stroke-miterlimit:4;stroke-dasharray:none;stroke-opacity:1"
     d="m 102.62176,61.151828 0.25325,0.873661"
     id="path4164-7"
     inkscape:connector-curvature="0"
     sodipodi:nodetypes="cc" />
  <path
     style="fill:none;fill-rule:evenodd;stroke:#000000;stroke-width:0.60000008;stroke-linecap:butt;stroke-linejoin:miter;stroke-miterlimit:4;stroke-dasharray:none;stroke-opacity:1"
     d="m 102.84401,62.971525 -1.56069,-0.02815"
     id="path4166-0"
     inkscape:connector-curvature="0"
     sodipodi:nodetypes="cc" />
  <path
     style="fill:none;fill-rule:evenodd;stroke:#000000;stroke-width:0.60000008;stroke-linecap:butt;stroke-linejoin:miter;stroke-miterlimit:4;stroke-dasharray:none;stroke-opacity:1"
     d="M 105.51104,62.289139 104.3083,61.723125"
     id="path4168-4"
     inkscape:connector-curvature="0"
     sodipodi:nodetypes="cc" />
  <path
     style="fill:none;fill-rule:evenodd;stroke:#000000;stroke-width:0.60000008;stroke-linecap:butt;stroke-linejoin:miter;stroke-miterlimit:4;stroke-dasharray:none;stroke-opacity:1"
     d="M 110.52493,61.431563 109.5168,61.287045"
     id="path4170-0"
     inkscape:connector-curvature="0"
     sodipodi:nodetypes="cc" />
  <path
     style="fill:none;fill-rule:evenodd;stroke:#000000;stroke-width:0.60000008;stroke-linecap:butt;stroke-linejoin:miter;stroke-miterlimit:4;stroke-dasharray:none;stroke-opacity:1"
     d="m 113.95668,62.88054 0.89238,0.04021"
     id="path4172-5"
     inkscape:connector-curvature="0"
     sodipodi:nodetypes="cc" />
  <path
     style="fill:none;fill-rule:evenodd;stroke:#000000;stroke-width:0.60000008;stroke-linecap:butt;stroke-linejoin:miter;stroke-miterlimit:4;stroke-dasharray:none;stroke-opacity:1"
     d="m 113.51216,58.695238 -0.33337,-0.81634"
     id="path4174-4"
     inkscape:connector-curvature="0"
     sodipodi:nodetypes="cc" />
  <path
     style="fill:none;fill-rule:evenodd;stroke:#000000;stroke-width:0.60000008;stroke-linecap:butt;stroke-linejoin:miter;stroke-miterlimit:4;stroke-dasharray:none;stroke-opacity:1"
     d="m 105.28881,58.376791 -0.61122,-0.636894 -0.72233,-0.227463"
     id="path4176-2"
     inkscape:connector-curvature="0" />
  <path
     style="fill:none;fill-rule:evenodd;stroke:#000000;stroke-width:0.60000008;stroke-linecap:butt;stroke-linejoin:miter;stroke-miterlimit:4;stroke-dasharray:none;stroke-opacity:1"
     d="m 109.93367,64.901051 -2.03339,-0.564753 0.005,0.0028"
     id="path4178-2"
     inkscape:connector-curvature="0"
     sodipodi:nodetypes="ccc" />
</svg>
