<?xml version="1.0" encoding="UTF-8" standalone="no"?>
<!-- Created with Inkscape (http://www.inkscape.org/) -->

<svg
   id="svg4136"
   version="1.1"
   inkscape:version="1.3.2 (091e20e, 2023-11-25, custom)"
   width="700"
   height="750"
   viewBox="0 0 700 750"
   sodipodi:docname="level2_C15-C26.svg"
   xmlns:inkscape="http://www.inkscape.org/namespaces/inkscape"
   xmlns:sodipodi="http://sodipodi.sourceforge.net/DTD/sodipodi-0.dtd"
   xmlns="http://www.w3.org/2000/svg"
   xmlns:svg="http://www.w3.org/2000/svg"
   xmlns:rdf="http://www.w3.org/1999/02/22-rdf-syntax-ns#"
   xmlns:cc="http://creativecommons.org/ns#"
   xmlns:dc="http://purl.org/dc/elements/1.1/">
  <metadata
     id="metadata4142">
    <rdf:RDF>
      <cc:Work
         rdf:about="">
        <dc:format>image/svg+xml</dc:format>
        <dc:type
           rdf:resource="http://purl.org/dc/dcmitype/StillImage" />
      </cc:Work>
    </rdf:RDF>
  </metadata>
  <defs
     id="defs4140" />
  <sodipodi:namedview
     pagecolor="#ffffff"
     bordercolor="#666666"
     borderopacity="1"
     objecttolerance="10"
     gridtolerance="10"
     guidetolerance="10"
     inkscape:pageopacity="0"
     inkscape:pageshadow="2"
     inkscape:window-width="1920"
     inkscape:window-height="1017"
     id="namedview4138"
     showgrid="false"
     inkscape:zoom="0.895"
     inkscape:cx="184.35754"
     inkscape:cy="330.1676"
     inkscape:window-x="-8"
     inkscape:window-y="-8"
     inkscape:window-maximized="1"
     inkscape:current-layer="svg4136"
     inkscape:showpageshadow="2"
     inkscape:pagecheckerboard="0"
     inkscape:deskcolor="#d1d1d1" />
  <path
     style="fill:none;fill-rule:evenodd;stroke:#000000;stroke-width:1.5588;stroke-linecap:butt;stroke-linejoin:miter;stroke-miterlimit:4;stroke-dasharray:none;stroke-opacity:1"
     d="m 253.22413,146.03834 -2.46623,7.17281 -0.92481,8.96601 5.16407,-1.14239 4.70071,3.19176 4.00757,-17.1635 2.46618,16.90732 6.16549,-10.7592 6.78202,-6.66046 16.6468,-1.0247 20.3461,-0.51233 17.87989,3.07405 8.01514,9.73453 7.39858,12.80859 3.08276,-7.17281 0.6165,-7.17281"
     id="path4146"
     inkscape:connector-curvature="0"
     sodipodi:nodetypes="cccccccccccccccc" />
  <path
     style="fill:none;fill-rule:evenodd;stroke:#000000;stroke-width:1.5588;stroke-linecap:butt;stroke-linejoin:miter;stroke-miterlimit:4;stroke-dasharray:none;stroke-opacity:1"
     d="m 253.84063,180.10918 -1.84962,-7.42898 1.84962,-4.61109 6.4738,-0.25616 3.39101,7.42898 0.92481,5.89196 0.92483,-0.25617 1.54135,-9.47835 6.16549,-0.76851 2.77448,-6.4043 4.93238,-4.35492 14.48888,-5.12344 12.33095,-1.02468 15.722,2.30555 10.78959,6.66046 6.78202,13.06476 0.61656,7.17281 -9.2482,13.5771 -0.61658,3.07407 7.70686,-4.86727 3.69929,-2.30555 -10.78957,16.13882 -8.63172,7.68516"
     id="path4148"
     inkscape:connector-curvature="0" />
  <path
     style="fill:none;fill-rule:evenodd;stroke:#000000;stroke-width:1.5588;stroke-linecap:butt;stroke-linejoin:miter;stroke-miterlimit:4;stroke-dasharray:none;stroke-opacity:1"
     d="m 341.3905,233.7037 -0.61653,5.06879 -0.61656,12.29626 -0.92481,10.24686 -2.15792,8.96603 v 7.94133 l -0.30828,8.96601 3.08273,14.34562 -0.30827,7.94131 -2.46618,19.46908 -1.54137,11.7839 1.54137,15.11412 0.92481,19.72519 0.61653,10.2469 2.15795,12.80857 4.19829,13.69743 18.45849,0.25902 -0.76935,-12.93164 -1.23308,-13.06476 -1.23312,-10.75922 -1.54134,-13.57712 -1.84964,-14.34562 -2.15793,-20.74988 -0.92481,-12.80862 -1.84964,-14.08944 2.1579,-10.24687 1.54139,-19.7252 0.92481,-9.22222 0.30828,-9.73452 0.61653,-13.06476 -1.97731,-9.73453 z"
     id="C15"
     inkscape:connector-curvature="0"
     inkscape:label="#path4150"
     sodipodi:nodetypes="cccccccccccccccccccccccccccccccc" />
  <path
     style="fill:none;fill-rule:evenodd;stroke:#000000;stroke-width:1.5588;stroke-linecap:butt;stroke-linejoin:miter;stroke-miterlimit:4;stroke-dasharray:none;stroke-opacity:1"
     d="m 333.37536,227.24477 4.31588,-7.42897 4.93237,-4.35492 0.0543,6.82607 -1.28372,11.37011"
     id="path4152"
     inkscape:connector-curvature="0"
     sodipodi:nodetypes="ccccc" />
  <path
     style="fill:none;fill-rule:evenodd;stroke:#000000;stroke-width:1.5588;stroke-linecap:butt;stroke-linejoin:miter;stroke-miterlimit:4;stroke-dasharray:none;stroke-opacity:1"
     d="m 361.42832,157.30989 -1.23312,8.19751 -1.23306,9.22217 -3.08276,9.99071 -1.84964,8.19749 -0.92484,12.29624 1.23312,11.52772 1.13267,12.05429 -0.35426,-0.47549"
     id="path4154"
     inkscape:connector-curvature="0"
     sodipodi:nodetypes="ccccccccc" />
  <path
     style="fill:none;fill-rule:evenodd;stroke:#000000;stroke-width:1.5588;stroke-linecap:butt;stroke-linejoin:miter;stroke-miterlimit:4;stroke-dasharray:none;stroke-dashoffset:0;stroke-opacity:1"
     d="m 343.87432,412.32941 -18.31054,-1.44908 -15.69479,-1.44914 -17.00263,0.36229 -14.82283,2.89822 -16.13071,5.43424 -10.02721,7.97019 -8.28335,9.41933 -6.53948,11.23073 -1.74385,11.2307 v 16.3027 l -0.43597,14.12896 0.87194,14.129 -0.43597,12.31756 0.87191,8.69477 5.66756,-0.36232 10.02721,-5.07189 14.82283,-10.86849 11.77106,-9.78157 8.7193,-5.7965 8.28336,-6.52108 10.46315,-3.6228 13.51494,-0.72461 11.33509,1.0869 4.06574,2.68602 9.01324,-9.2071 8.7193,-5.07194 6.97544,-1.81146 2.17982,-5.79647 2.28881,-5.47954 2.28884,-5.52475 7.97993,-3.25667 5.75299,-2.04169 9.15526,-9.05706 6.10351,-5.7965 9.15529,-3.98509 12.20704,-3.9851 h 9.59123 l 3.48771,-3.62283 -9.59124,-3.62283 -17.43859,-2.17367 -18.31056,-1.81143 -16.13074,0.36229 z"
     id="C22"
     inkscape:connector-curvature="0"
     inkscape:label="#path4156"
     sodipodi:nodetypes="cccccccccccccccccccccccccccccccccccccccccccc" />
  <path
     style="fill:none;fill-rule:evenodd;stroke:#000000;stroke-width:1.5588;stroke-linecap:butt;stroke-linejoin:miter;stroke-miterlimit:4;stroke-dasharray:none;stroke-opacity:1"
     d="m 380.26882,446.16686 8.26893,-8.13799 6.74784,-6.54148 8.86673,-3.84122 12.54896,-4.02375 9.64681,-0.0891 7.21638,2.50088 6.47377,4.86727 5.54891,6.4043 3.08276,10.75917 1.84964,10.2469 -0.3083,9.22217 0.61658,13.83332 -5.54896,11.52769 -8.01511,8.45367 -11.7144,9.73455 -16.33853,8.45365 -14.79716,4.61111 -10.48134,1.79317 -15.41371,-0.76849 -13.25577,-4.09879 -8.63167,-6.02 -9.5565,-8.70984 -4.00757,-1.53703 1.54137,-20.33362 4.62412,3.55434 8.32339,0.25617 5.24066,2.56173 6.16549,2.30554 9.55648,0.25616 6.47377,-6.14811 -1.54139,-8.966 -3.69927,-13.06479 -6.78202,-5.37963 3.39098,-8.19746 7.70689,-3.07408 v 0 l 2.46617,5.63578 2.77449,-1.02467 0.61653,-3.07406 z"
     id="C16"
     inkscape:connector-curvature="0"
     sodipodi:nodetypes="ccccccccccccccccccccccccccccccccccccccccc" />
  <path
     style="fill:none;fill-rule:evenodd;stroke:#000000;stroke-width:1.5588;stroke-linecap:butt;stroke-linejoin:miter;stroke-miterlimit:4;stroke-dasharray:none;stroke-opacity:1"
     d="m 268.94607,463.69132 -4.46996,2.68979 -3.54515,3.20219 -0.30828,4.35489 3.2369,2.68981 5.54893,1.66511 5.54894,1.15279 10.17303,0.12782 7.55272,-0.8966 8.93995,-1.15278 5.85719,-2.17744 7.55274,-3.45832 1.84965,-0.25616 0.15406,-2.62578 -3.08274,-0.96063 h -4.31587 l -5.54893,-1.02468 -4.62408,-1.28089 -4.62415,-1.40892 -4.77821,-1.40895 -6.01135,-0.38424 -6.31963,-0.64046 -4.77824,0.76852 z"
     id="C23"
     inkscape:connector-curvature="0"
     inkscape:label="#path4160"
     sodipodi:nodetypes="cccccccccccccccccccccccc" />
  <path
     style="fill:none;fill-rule:evenodd;stroke:#000000;stroke-width:1.5588;stroke-linecap:butt;stroke-linejoin:miter;stroke-miterlimit:4;stroke-dasharray:none;stroke-opacity:1"
     d="m 235.65249,517.9997 5.85721,-9.73449 8.93995,-13.06479 7.39855,-9.47833 7.70688,-8.70982"
     id="path4162"
     inkscape:connector-curvature="0" />
  <path
     style="fill:none;fill-rule:evenodd;stroke:#000000;stroke-width:1.5588;stroke-linecap:butt;stroke-linejoin:miter;stroke-miterlimit:4;stroke-dasharray:none;stroke-opacity:1"
     d="m 289.90875,462.92281 7.39855,-5.12344 7.70686,-6.66046 11.09787,-3.07408 14.48888,-3.84257 13.56405,-5.12343 19.42128,-6.40428 23.12055,-8.966 14.48888,-2.56176 15.41372,-2.04935 12.893,1.0997 0.10912,-0.0904"
     id="path4164"
     inkscape:connector-curvature="0"
     sodipodi:nodetypes="cccccccccccc" />
  <path
     style="fill:none;fill-rule:evenodd;stroke:#000000;stroke-width:1.5588;stroke-linecap:butt;stroke-linejoin:miter;stroke-miterlimit:4;stroke-dasharray:none;stroke-opacity:1"
     d="m 327.05579,464.07554 0.6165,4.483 0.92484,3.58646 0.92483,4.61106 -1.07895,-0.76849 -2.00381,-3.45833 -4.93238,-3.5864 h -2.62031 l -1.69553,0.12782 -0.19277,2.5297 4.04609,-0.22421 3.23693,1.66513 0.92478,1.92128 1.07895,1.28089 -0.30825,1.66508 2.31206,2.04941 1.23311,3.5864 -1.54139,8.19749 -1.84964,5.25152 -1.38723,4.22681 -2.15792,4.73919 -3.39102,5.76384 -2.4662,4.48306 -2.92859,3.97065 -4.16171,4.0987 -6.16549,4.86728 2.31206,3.20216 3.54518,-3.20216 4.16173,-3.71441 3.85343,-4.48301 3.23687,-3.84259 3.23688,-5.25152 2.92861,-6.14811 2.46618,-6.02003 1.84967,-6.14814 1.84965,-5.37957 v -5.12346 l -0.30828,-7.81322 -0.61656,-5.25154 -1.23309,-4.61108 -0.61653,-1.66511 z"
     id="C24"
     inkscape:connector-curvature="0"
     inkscape:label="#path4166"
     sodipodi:nodetypes="cccccccccccccccccccccccccccccccccccccccccc" />
  <path
     style="fill:none;fill-rule:evenodd;stroke:#000000;stroke-width:1.5588;stroke-linecap:butt;stroke-linejoin:miter;stroke-miterlimit:4;stroke-dasharray:none;stroke-opacity:1"
     d="m 333.22122,504.93496 h -3.69926 -2.31206 v 0"
     id="path4168"
     inkscape:connector-curvature="0" />
  <path
     style="fill:none;fill-rule:evenodd;stroke:#000000;stroke-width:1.5588;stroke-linecap:butt;stroke-linejoin:miter;stroke-miterlimit:4;stroke-dasharray:none;stroke-opacity:1"
     d="m 322.73991,504.93496 -4.46996,-0.12782 -7.0903,0.76849 -4.00754,2.68981 -4.16173,4.86725 -1.23309,4.99535 -1.07898,5.89195 2.62034,5.25151 2.92862,3.97065 2.77446,4.48301 3.23687,2.81789"
     id="path4170"
     inkscape:connector-curvature="0" />
  <path
     style="fill:none;fill-rule:evenodd;stroke:#000000;stroke-width:1.5588;stroke-linecap:butt;stroke-linejoin:miter;stroke-miterlimit:4;stroke-dasharray:none;stroke-opacity:1"
     d="m 287.78935,491.19776 -3.2754,4.51501 -3.39104,5.12343 -2.77448,6.4043 -1.07892,4.09876 -0.61656,4.3549 0.15407,4.9954 0.15406,0.25616"
     id="path4172"
     inkscape:connector-curvature="0"
     sodipodi:nodetypes="cccccccc" />
  <path
     style="fill:none;fill-rule:evenodd;stroke:#000000;stroke-width:1.5588;stroke-linecap:butt;stroke-linejoin:miter;stroke-miterlimit:4;stroke-dasharray:3.1176, 1.5588;stroke-dashoffset:0;stroke-opacity:1"
     d="m 438.26084,471.56248 -7.19344,3.07935 -6.3215,3.80397 -6.97547,3.44172 -13.07895,1.26798 -11.33509,2.3548 -11.33509,1.8114 -7.84739,1.08685 -19.83644,3.44172 -9.59121,3.07936 -10.46318,1.99256 -4.57762,1.44911 -8.06538,2.53598 -10.62184,4.7394 -3.80856,2.55339 -4.21487,5.03443 -1.28411,5.22299 -0.97828,5.69076 2.52004,4.87982 3.1833,4.43473 1.22511,2.1354 1.59161,2.37888 3.36935,2.89048 1.91766,-0.0535 3.03599,1.33241 1.71029,0.84965 2.88058,2.68578 3.17943,-1.84432 5.6037,0.53241 5.20514,0.62944 1.79675,2.53599 2.36912,-3.4709 6.98867,-4.45726 -2.7809,-3.01537 0.21797,-3.6228 5.23159,-3.26052 6.97544,-1.81142 4.57763,-2.71712 3.70568,-4.70963 3.48776,-2.71714 7.84738,-1.81137 h 8.06536 l 6.53947,-1.99259 7.19342,-1.81138 7.41141,-3.07943 9.37327,-3.98505 11.77106,-4.16622 6.5395,-3.07941 5.44956,-4.52852 4.35965,-4.16625 2.17982,-5.07197 -1.52585,-5.79647 -1.96188,-4.89081 z"
     id="C25"
     inkscape:connector-curvature="0"
     inkscape:label="#path4174"
     sodipodi:nodetypes="cccccccccccccccccccccccccccccccccccccccccccccccccccccc" />
  <path
     style="fill:none;fill-rule:evenodd;stroke:#000000;stroke-width:1.5588;stroke-linecap:butt;stroke-linejoin:miter;stroke-miterlimit:4;stroke-dasharray:none;stroke-opacity:1"
     d="m 431.93934,486.23485 -8.06538,3.2606 -7.62938,3.07935 -9.37327,2.71712 -11.1171,3.80396 -9.59126,1.63025 -6.32148,2.89822 -6.3215,1.6303 -7.62938,3.44167 -5.23162,0.54345 -5.01359,4.34733 -8.06536,0.54345 h -1.52585 l -4.57768,3.80396 -6.53947,6.15877 -5.44956,4.34738 -6.10353,4.16626 -11.77106,0.18108 -5.01362,-1.26798"
     id="path4176"
     inkscape:connector-curvature="0" />
  <path
     style="fill:none;fill-rule:evenodd;stroke:#000000;stroke-width:1.5588;stroke-linecap:butt;stroke-linejoin:miter;stroke-miterlimit:4;stroke-dasharray:none;stroke-opacity:1"
     d="m 360.223,500.90728 -2.1798,3.80397 2.1798,4.70962"
     id="path4178"
     inkscape:connector-curvature="0" />
  <path
     style="fill:none;fill-rule:evenodd;stroke:#000000;stroke-width:1.5588;stroke-linecap:butt;stroke-linejoin:miter;stroke-miterlimit:4;stroke-dasharray:none;stroke-opacity:1"
     d="m 379.6235,494.56736 -1.96185,4.16623 0.65394,2.3548 0.21797,3.07943"
     id="path4180"
     inkscape:connector-curvature="0" />
  <path
     style="fill:none;fill-rule:evenodd;stroke:#000000;stroke-width:1.5588;stroke-linecap:butt;stroke-linejoin:miter;stroke-miterlimit:4;stroke-dasharray:none;stroke-opacity:1"
     d="m 398.15201,488.22744 -1.74385,4.89079 v 5.61536"
     id="path4182"
     inkscape:connector-curvature="0" />
  <path
     style="fill:none;fill-rule:evenodd;stroke:#000000;stroke-width:1.5588;stroke-linecap:butt;stroke-linejoin:miter;stroke-miterlimit:4;stroke-dasharray:none;stroke-opacity:1"
     d="m 426.63935,481.34407 -4.05023,4.14521 -2.73024,5.71238"
     id="path4184"
     inkscape:connector-curvature="0"
     sodipodi:nodetypes="ccc" />
  <path
     style="fill:none;fill-rule:evenodd;stroke:#000000;stroke-width:1.5588;stroke-linecap:butt;stroke-linejoin:miter;stroke-miterlimit:4;stroke-dasharray:none;stroke-opacity:1"
     d="m 432.37531,493.29936 -6.3215,-2.17372 -3.70573,-0.90569"
     id="path4186"
     inkscape:connector-curvature="0" />
  <path
     style="fill:none;fill-rule:evenodd;stroke:#000000;stroke-width:1.5588;stroke-linecap:butt;stroke-linejoin:miter;stroke-miterlimit:4;stroke-dasharray:none;stroke-opacity:1"
     d="m 411.66693,493.84278 3.26973,3.80396 3.05177,1.08685 3.70571,1.08682 v 0"
     id="path4188"
     inkscape:connector-curvature="0" />
  <path
     style="fill:none;fill-rule:evenodd;stroke:#000000;stroke-width:1.5588;stroke-linecap:butt;stroke-linejoin:miter;stroke-miterlimit:4;stroke-dasharray:none;stroke-opacity:1"
     d="m 389.70018,500.18086 1.25839,6.16063 4.35965,4.70965"
     id="path4192"
     inkscape:connector-curvature="0"
     sodipodi:nodetypes="ccc" />
  <path
     style="fill:none;fill-rule:evenodd;stroke:#000000;stroke-width:1.5588;stroke-linecap:butt;stroke-linejoin:miter;stroke-miterlimit:4;stroke-dasharray:none;stroke-opacity:1"
     d="m 372.36506,505.659 -3.20476,5.39214 1.30791,4.52855"
     id="path4194"
     inkscape:connector-curvature="0"
     sodipodi:nodetypes="ccc" />
  <path
     style="fill:none;fill-rule:evenodd;stroke:#000000;stroke-width:1.5588;stroke-linecap:butt;stroke-linejoin:miter;stroke-miterlimit:4;stroke-dasharray:none;stroke-opacity:1"
     d="m 355.42741,513.40597 v 5.07194 l 2.1666,1.6284"
     id="path4196"
     inkscape:connector-curvature="0"
     sodipodi:nodetypes="ccc" />
  <path
     style="fill:none;fill-rule:evenodd;stroke:#000000;stroke-width:1.5588;stroke-linecap:butt;stroke-linejoin:miter;stroke-miterlimit:4;stroke-dasharray:none;stroke-opacity:1"
     d="m 329.16596,528.85598 5.77106,4.29433 3.26974,6.70224"
     id="path4198"
     inkscape:connector-curvature="0"
     sodipodi:nodetypes="ccc" />
  <path
     style="fill:none;fill-rule:evenodd;stroke:#000000;stroke-width:1.5588;stroke-linecap:butt;stroke-linejoin:miter;stroke-miterlimit:4;stroke-dasharray:none;stroke-opacity:1"
     d="m 341.93891,517.57225 -7.8738,-1.44916 -5.66756,0.7246 h -4.79562"
     id="path4200"
     inkscape:connector-curvature="0"
     sodipodi:nodetypes="cccc" />
  <path
     style="fill:none;fill-rule:evenodd;stroke:#000000;stroke-width:1.5588;stroke-linecap:butt;stroke-linejoin:miter;stroke-miterlimit:4;stroke-dasharray:none;stroke-opacity:1"
     d="m 323.16596,532.60692 -0.21797,4.34736 5.88553,4.89078"
     id="path4202"
     inkscape:connector-curvature="0" />
  <path
     style="fill:none;fill-rule:evenodd;stroke:#000000;stroke-width:1.5588;stroke-linecap:butt;stroke-linejoin:miter;stroke-miterlimit:4;stroke-dasharray:none;stroke-opacity:1"
     d="m 295.48216,661.94143 -3.92368,10.14386 -10.02721,5.79653 -17.00265,0.72458 -12.64301,-6.15882 -7.41141,-9.05701 -3.92371,-14.12901 -6.53944,-5.4342 2.61579,-7.97019 -9.15529,-1.08688 -3.92368,-11.2307 1.74385,-7.60793 1.30791,-2.17369 -6.53947,-4.34739 -0.436,-8.69472 5.23162,-6.52111 -1.30791,-7.97019 -0.87194,-5.4342 2.61579,-5.07195 -1.30788,-8.33248 3.92368,-4.70962 -0.43597,-6.52111 6.10353,-5.43421 -0.43597,-8.33248 6.53947,-4.34741 0.43597,-9.4193 6.97544,-6.52106 13.07895,-1.8114 6.97544,3.62283 4.57768,-3.98512 6.97544,1.26798 3.05174,2.17369 5.44956,6.33995 4.57762,6.33992 0.21797,3.44167 6.5395,-1.63027 4.35965,2.35485 3.92366,3.62281 2.83379,-2.53599 4.79562,-0.54342 4.79564,2.17369 2.83377,2.7171 3.32424,-1.81138 7.35694,0.76986 3.48771,0.31699 1.74385,2.76242 2.3978,-3.66814 3.59674,-2.26426 6.64846,-0.27172 5.23157,1.99256 1.52588,-3.07938 2.61582,-2.1737 6.75744,-1.268 10.68116,2.35482 1.96185,-3.44167 4.57762,-3.44167 6.10353,-1.08682 6.3215,2.71711 3.26974,-3.62283 4.35965,-3.44167 4.35965,-3.26054 4.79561,0.36227 1.52589,-3.62278 6.3215,-1.81146 6.32153,1.08688 2.39777,-5.07195 5.01361,-4.52849 5.88554,-4.70968 8.93729,-4.34741 6.97542,-3.44165 9.59126,1.81143 3.26974,7.06448 1.96183,3.62283 5.01361,5.61531 v 8.33249 l -2.61579,6.52108 4.35965,3.98509 -0.21797,7.4268 -0.21798,6.15876 -4.19618,4.80019 2.88827,5.52483 0.87192,7.78906 -5.44956,4.70965 1.74385,3.62283 1.74388,5.97763 -1.96185,9.05704 v 2.89827 l 3.70573,4.1662 0.65394,6.33995 -6.53949,8.87588 1.30791,6.88337 0.21797,6.88335 -5.88553,5.97765 1.08991,6.88335 -1.52588,6.88334 -3.39743,2.42988 -2.05214,5.72147 -6.1035,7.06448 -2.61579,3.98512 -6.10353,10.32502 -3.70571,5.43418 -5.66753,5.2531 -8.7193,4.89081 -9.59127,3.26051 -19.18247,2.8983 -12.42501,0.90567 -13.07895,-1.26798 -7.92446,-4.16623 3.7711,-4.71542 5.34449,-8.07055 8.09181,-3.01532 0.52399,-6.56504 6.75973,3.34654 5.88553,2.35482 3.70571,-3.07938 -0.43594,-3.62283 1.96182,-2.17369 5.88553,-1.99251 2.39783,-3.62281 6.53947,-0.90576 1.52586,-5.61534 -2.43794,-0.82645 0.84825,-3.09461 0.14704,-2.00246 1.87851,-2.77123 2.83377,-2.71711 5.88553,-4.70963 -1.71967,-5.6044 1.0525,-2.79215 6.11673,-0.11743 11.14354,-5.37022 6.80814,-5.30612 2.37137,-5.4122 3.87302,-5.64834 -1.96183,-8.51361 -1.52585,-3.9851 3.05176,-7.06453 1.08991,-17.93292 -3.70573,-7.24561 -4.14168,-2.35482 -8.28335,-0.54345 5.01362,-4.52849 2.83376,-6.15879 -1.52585,-8.51364 -3.05177,-5.25305 -1.52591,3.44164 -5.01359,1.26798 -2.2343,5.88707 -4.74117,3.57752 -10.29966,4.75501 -6.81195,4.93604 -6.43049,0.40755 -5.61305,-1.1321 -0.16341,0.18108 -3.16073,4.39267 -9.80921,0.72453 -3.9237,3.6228 -9.1553,3.07941 -9.80921,0.18108 -4.57762,2.89825 -6.3215,0.90569 -3.48774,-0.90569 -3.05174,2.35485 -6.75747,1.44909 -4.14167,-0.90569 -5.88554,3.44164 -6.5395,-0.36226 -6.97544,-3.44165 -6.32147,0.5434 -8.50136,-2.89827 -3.48771,-1.0868 -5.88553,0.72456 -7.62938,-2.53599 -5.88553,-2.71711 -3.26977,-4.70966 -2.39779,-3.0794 -5.44959,-0.36224 v -3.39642 l -2.17983,1.2227 0.43595,5.07194 0.65397,7.78906 -1.52589,3.44165 0.21798,5.79649 -1.96186,2.71715 -0.87191,4.52852 1.52586,3.98512 -2.6158,3.44164 2.6158,3.26054 0.43597,5.61537 -0.21798,2.71709 2.17983,2.53598 4.79562,1.44912 2.61579,3.07943 1.74386,3.98507 0.43597,4.52852 5.66756,0.5434 4.14165,3.80396 -0.21797,6.70221 v 4.34741 l 6.3215,-0.36229 5.44956,5.25308 2.17982,6.15879 -0.43597,5.61534 -2.1798,4.34738 z"
     id="C18"
     inkscape:connector-curvature="0"
     inkscape:label="#path4204"
     sodipodi:nodetypes="ccccccccccccccccccccccccccccccccccccccccccccccccccccccccccccccccccccccccccccccccccccccccccccccccccccccccccccccccccccccccccccccccccccccccccccccccccccccccccccccccccccccccccccccccccccccccccccccccccccccccccccc" />
  <path
     style="fill:none;fill-rule:evenodd;stroke:#000000;stroke-width:1.5588;stroke-linecap:butt;stroke-linejoin:miter;stroke-miterlimit:4;stroke-dasharray:none;stroke-opacity:1"
     d="m 263.77701,587.91129 1.02406,-4.58495 1.90737,-2.71714 -0.21797,-5.88704 1.47137,-3.48701 -0.76295,-9.37402 2.12534,-1.13213 5.23159,0.31698 5.72207,7.83437 6.31475,2.84442 7.03665,2.40868 5.94004,-0.76986 11.98903,3.98509 6.3215,-0.49814 7.24798,3.48696 6.15798,0.36226 5.99452,-3.57752 4.19615,0.951 6.703,-1.40385 3.10622,-2.30955 3.81471,0.90572 5.77655,-0.90572 4.90458,-3.07938 9.04633,-0.0904 10.35417,-3.35111 3.48771,-3.44169 9.70022,-0.63397 3.37875,-4.61911 5.66754,1.26801 6.21251,-0.54345 6.97544,-4.89081 10.24521,-4.80025 4.79559,-3.53223 2.28884,-5.88709 4.90463,-1.24533 1.52586,-3.50961 3.05176,5.34367 1.52589,8.4683 -3.05177,6.33995 -4.79946,4.32634 8.44133,0.59645 4.07005,2.40242 3.59013,7.14406 -1.102,17.96136 -3.07049,7.1266 1.60842,3.97413 1.94315,8.54661 -3.81467,5.43421 -2.28884,5.4342 -7.08443,5.43426 -10.89912,5.25308 -6.21252,0.18108 -2.72478,6.7928 -2.50681,2.3548 -3.81471,1.44914 -4.34092,0.0598 0.41716,0.26991 2.50681,2.0255 0.32696,3.62281 0.21797,2.62655 -0.15978,1.36953 -0.8213,3.15901 -5.71272,7.37369 -2.31526,3.61826 -5.782,1.86903 -8.42424,0.27172 -6.3215,-1.17741 -5.01362,-1.26801 1.63487,5.16251 -0.32696,6.79281 -7.30243,2.6265 0.32699,0.18108 -0.57167,-0.12627 -8.5868,2.4136 -13.56407,-0.25617 H 339.8489 l -16.95506,0.76849 -8.32341,-4.0987 -6.78202,-4.35495 -4.6241,-3.58641 c 0,0 -5.67834,-2.0526 -4.46448,-1.65233 0.85266,0.35105 -1.25782,-0.47234 -2.82008,-1.05169 -0.69387,-0.2572 -1.40499,-0.5296 -1.9929,-0.77672 -0.16861,-0.0709 -0.19978,0.15068 -0.19978,0.15068 l 1.76869,-4.70165 2.81189,-2.98214 2.26691,-4.51412 0.47177,-5.5452 -2.22176,-6.11839 -5.54893,-5.28124 -6.21064,0.37258 0.0265,-5.81237 6.09392,-0.25694 4.6241,2.94597 4.46996,1.40895 1.38723,-1.40895 -5.85719,-4.61113 -2.62034,-6.02003 -5.54891,1.53703 -2.4277,0.99277 -4.08462,-3.52239 -5.70308,-0.70461 -0.50092,-4.57905 -1.61847,-3.77855 -2.65887,-3.07406 -4.89383,-1.537 -2.08086,-2.43365 0.19848,-2.65562 -0.42952,-5.73399 2.46617,-3.58641 -2.77445,-3.45832"
     id="C17"
     inkscape:connector-curvature="0"
     sodipodi:nodetypes="cccccccccccccccccccccccccccccccccccccccccccccccccccccccccccccccccccccccccccccccccsscccccccccccccccccccccccccccc"
     inkscape:label="#path4208" />
  <path
     style="fill:none;fill-rule:evenodd;stroke:#000000;stroke-width:1.5588;stroke-linecap:butt;stroke-linejoin:miter;stroke-miterlimit:4;stroke-dasharray:none;stroke-opacity:1"
     d="m 375.04583,679.33093 -7.5204,2.0831 -28.55574,-0.36224 -6.32148,0.5434 -1.41687,4.34741 0.21797,6.06817 25.28598,-0.54342 -0.43599,-2.62655 0.21797,-2.26424 4.57765,3.16998 4.71856,2.4829 3.4558,-4.3849 z"
     id="C19"
     inkscape:connector-curvature="0"
     inkscape:label="#path4210"
     sodipodi:nodetypes="ccccccccccccc" />
  <path
     style="fill:none;fill-rule:evenodd;stroke:#000000;stroke-width:1.5588;stroke-linecap:butt;stroke-linejoin:miter;stroke-miterlimit:4;stroke-dasharray:none;stroke-opacity:1"
     d="m 331.46189,692.05743 0.21797,2.06034 0.92483,3.01004 1.07895,3.8426 2.41328,3.20021 0.31057,3.36589 19.22745,-0.0748 -0.75199,-2.41164 0.1751,-2.92857 1.74612,-2.4317 0.53947,-2.56176 -0.0772,-2.81784 -0.54496,-2.81792 z"
     id="C20"
     inkscape:connector-curvature="0"
     inkscape:label="#path4212"
     sodipodi:nodetypes="cccccccccccccc" />
  <path
     style="fill:none;fill-rule:evenodd;stroke:#000000;stroke-width:1.5588;stroke-linecap:butt;stroke-linejoin:miter;stroke-miterlimit:4;stroke-dasharray:none;stroke-opacity:1"
     d="m 336.44968,707.43431 -1.29466,2.78113 v 3.80394 4.61908 l 1.30788,4.80027 2.28881,4.61906 2.17985,2.98887 14.16886,-0.27175 1.85287,-3.35111 2.07081,-4.25682 0.10886,-4.89081 -0.43594,-3.8945 -1.08994,-4.16623 -1.8622,-2.82642 z"
     id="C21"
     inkscape:connector-curvature="0"
     inkscape:label="#path4214"
     sodipodi:nodetypes="ccccccccccccccc" />
  <path
     style="opacity:0.99;fill:none;fill-rule:evenodd;stroke:#000000;stroke-width:1.5588;stroke-linecap:butt;stroke-linejoin:miter;stroke-miterlimit:4;stroke-dasharray:none;stroke-opacity:1"
     d="m 450.60879,476.76972 -0.13665,-4.83207 5.76652,-4.84155 8.6783,-1.23945 6.69535,4.07556 3.48768,8.69474 -3.92365,9.41933 -5.66756,6.88335 -4.20553,3.6228 -4.78237,-0.87274 -4.73179,2.23586 -1.06573,0.62944 -4.61505,-1.8114 -0.89837,-5.76732 1.64262,-3.50384 2.96148,-5.94469 0.98641,-2.15172 v -1.47296 z"
     id="C26"
     inkscape:connector-curvature="0"
     sodipodi:nodetypes="ccccccccccccccccccc"
     inkscape:label="#path4216" />
  <path
     style="fill:none;fill-rule:evenodd;stroke:#000000;stroke-width:1.5588;stroke-linecap:butt;stroke-linejoin:miter;stroke-miterlimit:4;stroke-dasharray:none;stroke-opacity:1"
     d="m 288.28874,572.27674 -3.05177,6.33992 -3.26973,7.6079 -1.08994,10.68731 2.39782,7.60793 5.01362,7.06447 v 0"
     id="path4218"
     inkscape:connector-curvature="0" />
  <path
     style="fill:none;fill-rule:evenodd;stroke:#000000;stroke-width:1.5588;stroke-linecap:butt;stroke-linejoin:miter;stroke-miterlimit:4;stroke-dasharray:none;stroke-opacity:1"
     d="m 301.80363,574.08814 -1.74385,5.61537 -1.30789,6.15879 -0.87194,4.34741 3.48774,4.89078 8.71929,-0.72458 8.9373,0.18108 11.33509,2.71712 8.28338,2.53598 6.10351,4.16623 -1.52588,6.52106 -8.71933,5.2531 -12.20701,4.89078 -6.75749,2.35483 -9.15527,-4.89079"
     id="path4220"
     inkscape:connector-curvature="0" />
  <path
     style="fill:none;fill-rule:evenodd;stroke:#000000;stroke-width:1.5588;stroke-linecap:butt;stroke-linejoin:miter;stroke-miterlimit:4;stroke-dasharray:none;stroke-opacity:1"
     d="m 315.53655,623.1773 0.87194,9.78159"
     id="path4222"
     inkscape:connector-curvature="0" />
  <path
     style="fill:none;fill-rule:evenodd;stroke:#000000;stroke-width:1.8186;stroke-linecap:butt;stroke-linejoin:miter;stroke-miterlimit:4;stroke-dasharray:none;stroke-opacity:1"
     d="m 327.74361,604.70093 -3.05177,3.62283 -8.06538,1.44911 -10.89912,0.18108 -7.19342,5.61534 -3.70573,8.69475"
     id="path4224"
     inkscape:connector-curvature="0" />
  <path
     style="fill:none;fill-rule:evenodd;stroke:#000000;stroke-width:1.8186;stroke-linecap:butt;stroke-linejoin:miter;stroke-miterlimit:4;stroke-dasharray:none;stroke-opacity:1"
     d="m 332.97519,608.32376 -8.36043,-0.053"
     id="path4226"
     inkscape:connector-curvature="0"
     sodipodi:nodetypes="cc" />
  <path
     style="fill:none;fill-rule:evenodd;stroke:#000000;stroke-width:1.5588;stroke-linecap:butt;stroke-linejoin:miter;stroke-miterlimit:4;stroke-dasharray:none;stroke-opacity:1"
     d="m 319.67822,584.0509 3.26977,-4.70968 0.43594,0.18108 v 0"
     id="path4228"
     inkscape:connector-curvature="0"
     sodipodi:nodetypes="cccc" />
  <path
     style="fill:none;fill-rule:evenodd;stroke:#000000;stroke-width:1.5588;stroke-linecap:butt;stroke-linejoin:miter;stroke-miterlimit:4;stroke-dasharray:none;stroke-opacity:1"
     d="m 335.37297,578.43553 5.88555,1.99254 7.41142,3.0794 9.15526,4.89081 4.14168,1.99254 3.26971,6.88334"
     id="path4230"
     inkscape:connector-curvature="0" />
  <path
     style="fill:none;fill-rule:evenodd;stroke:#000000;stroke-width:1.5588;stroke-linecap:butt;stroke-linejoin:miter;stroke-miterlimit:4;stroke-dasharray:none;stroke-opacity:1"
     d="m 368.07039,582.78292 -5.88554,7.97019"
     id="path4232"
     inkscape:connector-curvature="0" />
  <path
     style="fill:none;fill-rule:evenodd;stroke:#000000;stroke-width:1.5588;stroke-linecap:butt;stroke-linejoin:miter;stroke-miterlimit:4;stroke-dasharray:none;stroke-opacity:1"
     d="m 374.52997,571.21941 7.861,4.41896 3.39101,5.89195 -1.84965,8.70984 -0.92483,9.73452 -4.00757,6.91665 -7.09027,3.58638 -12.02271,-1.53703 -11.71443,-3.07403 -3.39098,-1.79321"
     id="path4234"
     inkscape:connector-curvature="0"
     sodipodi:nodetypes="cccccccccc" />
  <path
     style="fill:none;fill-rule:evenodd;stroke:#000000;stroke-width:1.5588;stroke-linecap:butt;stroke-linejoin:miter;stroke-miterlimit:4;stroke-dasharray:none;stroke-opacity:1"
     d="m 414.05451,559.72332 -7.30991,4.89967 -0.30825,6.40427 -1.54139,5.12346 4.93238,3.8426 9.5565,2.56167 2.15795,5.3796 3.39101,4.86727 -5.54896,5.63579 -4.6241,4.35492 -0.61653,5.63579 -0.92484,7.42897 -7.3986,5.3796"
     id="path4236"
     inkscape:connector-curvature="0"
     sodipodi:nodetypes="ccccccccccccc" />
  <path
     style="fill:none;fill-rule:evenodd;stroke:#000000;stroke-width:1.8186;stroke-linecap:butt;stroke-linejoin:miter;stroke-miterlimit:4;stroke-dasharray:none;stroke-opacity:1"
     d="m 441.27133,560.52423 -5.85724,2.81789 -4.62408,4.61108 -8.63169,0.76852"
     id="path4238"
     inkscape:connector-curvature="0" />
  <path
     style="fill:none;fill-rule:evenodd;stroke:#000000;stroke-width:1.5588;stroke-linecap:butt;stroke-linejoin:miter;stroke-miterlimit:4;stroke-dasharray:none;stroke-opacity:1"
     d="m 445.27887,570.00258 -5.85721,4.86725 -0.30826,10.50306 0.30826,12.04003 -3.39099,4.35495 -3.08273,3.33024 -1.54139,9.47836"
     id="path4240"
     inkscape:connector-curvature="0" />
  <path
     style="fill:none;fill-rule:evenodd;stroke:#000000;stroke-width:1.5588;stroke-linecap:butt;stroke-linejoin:miter;stroke-miterlimit:4;stroke-dasharray:none;stroke-opacity:1"
     d="m 420.27126,597.47244 6.51119,2.75837 8.93994,1.2809 0.57915,0.0452"
     id="path4242"
     inkscape:connector-curvature="0"
     sodipodi:nodetypes="cccc" />
  <path
     style="fill:none;fill-rule:evenodd;stroke:#000000;stroke-width:1.5588;stroke-linecap:butt;stroke-linejoin:miter;stroke-miterlimit:4;stroke-dasharray:none;stroke-opacity:1"
     d="m 413.12646,615.85733 8.72358,7.42898"
     id="path4244"
     inkscape:connector-curvature="0"
     sodipodi:nodetypes="cc" />
  <path
     style="fill:none;fill-rule:evenodd;stroke:#000000;stroke-width:1.5588;stroke-linecap:butt;stroke-linejoin:miter;stroke-miterlimit:4;stroke-dasharray:none;stroke-opacity:1"
     d="m 409.82734,580.05278 -6.47372,7.36949 -9.24823,11.52773 4.6241,6.4043"
     id="path4246"
     inkscape:connector-curvature="0"
     sodipodi:nodetypes="cccc" />
  <path
     style="fill:none;fill-rule:evenodd;stroke:#000000;stroke-width:1.5588;stroke-linecap:butt;stroke-linejoin:miter;stroke-miterlimit:4;stroke-dasharray:none;stroke-opacity:1"
     d="m 413.52665,640.83407 -14.79716,-3.20213 -5.24068,-4.86728 -2.46617,-6.4043 4.31584,-7.42895 -2.77448,-6.14813 -8.93994,-3.58638 -4.62413,-2.30557"
     id="path4248"
     inkscape:connector-curvature="0"
     sodipodi:nodetypes="cccccccc" />
  <path
     style="fill:none;fill-rule:evenodd;stroke:#000000;stroke-width:1.5588;stroke-linecap:butt;stroke-linejoin:miter;stroke-miterlimit:4;stroke-dasharray:none;stroke-opacity:1"
     d="m 302.08557,636.03087 6.93616,2.11339 2.46617,5.63579 -2.15789,6.66043 -0.92484,6.14814 7.39858,5.89198 9.86478,3.84257 17.87989,1.28089 11.71443,1.28081 11.7144,0.25616"
     id="path4250"
     inkscape:connector-curvature="0"
     sodipodi:nodetypes="cccccccccc" />
  <path
     style="fill:none;fill-rule:evenodd;stroke:#000000;stroke-width:1.5588;stroke-linecap:butt;stroke-linejoin:miter;stroke-miterlimit:4;stroke-dasharray:none;stroke-opacity:1"
     d="m 381.92855,664.40184 -7.86097,-4.9953 0.30825,-5.89197 -3.39101,-6.40428 -8.93995,-6.66049 -10.17303,-4.09873 -9.86478,0.51233"
     id="path4252"
     inkscape:connector-curvature="0"
     sodipodi:nodetypes="ccccccc" />
  <path
     style="fill:none;fill-rule:evenodd;stroke:#000000;stroke-width:1.5588;stroke-linecap:butt;stroke-linejoin:miter;stroke-miterlimit:4;stroke-dasharray:none;stroke-opacity:1"
     d="m 311.4879,643.52386 4.93241,-4.09873 7.0903,-2.30554 6.47374,-7.17282 6.47377,-4.86724 10.17306,1.53697 11.40613,2.04943 1.84964,3.07403 h 7.70686 l 3.69929,4.09876 6.47374,0.51235 8.6317,7.42898 8.32339,6.4043 -3.08276,8.19749"
     id="path4254"
     inkscape:connector-curvature="0" />
  <path
     style="fill:none;fill-rule:evenodd;stroke:#000000;stroke-width:1.5588;stroke-linecap:butt;stroke-linejoin:miter;stroke-miterlimit:4;stroke-dasharray:none;stroke-opacity:1"
     d="m 382.08272,619.69988 -9.24823,1.28089 -5.24068,11.27154 v 0"
     id="path4256"
     inkscape:connector-curvature="0" />
  <path
     style="fill:none;fill-rule:evenodd;stroke:#000000;stroke-width:1.5588;stroke-linecap:butt;stroke-linejoin:miter;stroke-miterlimit:4;stroke-dasharray:none;stroke-opacity:1"
     d="m 355.87938,616.11352 -6.47374,2.04935 -12.94749,6.89561 2.57721,-1.34207"
     id="path4258"
     inkscape:connector-curvature="0"
     sodipodi:nodetypes="cccc" />
  <path
     style="fill:none;fill-rule:evenodd;stroke:#000000;stroke-width:1.5588;stroke-linecap:butt;stroke-linejoin:miter;stroke-miterlimit:4;stroke-dasharray:none;stroke-opacity:1"
     d="m 401.50397,646.34175 -7.0903,4.09873"
     id="path4260"
     inkscape:connector-curvature="0" />
  <path
     style="fill:none;fill-rule:evenodd;stroke:#000000;stroke-width:1.5588;stroke-linecap:butt;stroke-linejoin:miter;stroke-miterlimit:4;stroke-dasharray:none;stroke-opacity:1"
     d="m 323.40162,637.14931 -1.43238,4.32522 4.93238,2.56168 11.7144,1.53703 9.86481,-0.25616 7.70683,5.63576"
     id="path4262"
     inkscape:connector-curvature="0"
     sodipodi:nodetypes="cccccc" />
  <path
     style="fill:none;fill-rule:evenodd;stroke:#000000;stroke-width:1.5588;stroke-linecap:butt;stroke-linejoin:miter;stroke-miterlimit:4;stroke-dasharray:none;stroke-opacity:1"
     d="m 374.06758,659.40651 -11.71443,2.8179 -9.86475,-2.30552 -12.63927,-2.56173 -8.63166,-3.07408 -6.16549,-1.28081 -1.84965,-2.56179"
     id="path4264"
     inkscape:connector-curvature="0"
     sodipodi:nodetypes="ccccccc" />
  <path
     style="fill:none;fill-rule:evenodd;stroke:#000000;stroke-width:1.5588;stroke-linecap:butt;stroke-linejoin:miter;stroke-miterlimit:4;stroke-dasharray:none;stroke-opacity:1"
     d="m 288.36735,673.75214 -5.54893,-13.57711 -11.09787,-10.50303 -12.79335,-8.45371 -10.01892,-15.62647 -3.08276,-13.32087 -1.54137,-18.95673 0.92484,-13.83331 6.16549,-22.03074 4.6241,-9.22216"
     id="path4266"
     inkscape:connector-curvature="0"
     sodipodi:nodetypes="cccccccccc" />
  <path
     style="fill:none;fill-rule:evenodd;stroke:#000000;stroke-width:1.5588;stroke-linecap:butt;stroke-linejoin:miter;stroke-miterlimit:4;stroke-dasharray:none;stroke-opacity:1"
     d="m 239.73711,538.17323 6.98986,5.98195 9.57989,4.32899 10.17303,3.58641 2.7013,4.79089 0.10886,-0.0452"
     id="path4268"
     inkscape:connector-curvature="0"
     sodipodi:nodetypes="cccccc" />
  <path
     style="fill:none;fill-rule:evenodd;stroke:#000000;stroke-width:1.5588;stroke-linecap:butt;stroke-linejoin:miter;stroke-miterlimit:4;stroke-dasharray:none;stroke-opacity:1"
     d="m 267.17353,523.92371 6.51225,8.45365 14.98985,13.80127 14.18061,6.40427 20.34609,3.07406 18.49645,-0.25617 28.66948,-4.09873 23.42883,-6.66046 21.57921,-9.22219 19.42126,-11.01539 9.86478,-12.04006 1.97936,-5.55639 -0.0579,-4.24032"
     id="path4270"
     inkscape:connector-curvature="0"
     sodipodi:nodetypes="ccccccccccccc" />
  <path
     style="fill:none;fill-rule:evenodd;stroke:#000000;stroke-width:1.5588;stroke-linecap:butt;stroke-linejoin:miter;stroke-miterlimit:4;stroke-dasharray:none;stroke-opacity:1"
     d="m 457.44795,523.16314 -0.52971,8.47485 -1.46631,10.95423 -1.46431,6.91663 -0.39469,14.16124"
     id="path4272"
     inkscape:connector-curvature="0"
     sodipodi:nodetypes="ccccc" />
  <path
     style="fill:none;fill-rule:evenodd;stroke:#000000;stroke-width:1.5588;stroke-linecap:butt;stroke-linejoin:miter;stroke-miterlimit:4;stroke-dasharray:none;stroke-opacity:1"
     d="m 450.44247,618.99543 0.0772,9.41431 -1.84964,11.01539 -3.39099,7.17278 -4.9324,10.50306 -6.1655,9.47833"
     id="path4274"
     inkscape:connector-curvature="0"
     sodipodi:nodetypes="cccccc" />
  <path
     style="fill:none;fill-rule:evenodd;stroke:#000000;stroke-width:1.5588;stroke-linecap:butt;stroke-linejoin:miter;stroke-miterlimit:4;stroke-dasharray:none;stroke-opacity:1"
     d="m 444.44884,535.73738 12.92208,-12.23894 1.54765,-4.82838 10.51379,-3.81495 1.87157,-4.92186"
     id="path4276"
     inkscape:connector-curvature="0"
     sodipodi:nodetypes="ccccc" />
  <path
     style="fill:none;fill-rule:evenodd;stroke:#000000;stroke-width:1.5588;stroke-linecap:butt;stroke-linejoin:miter;stroke-miterlimit:4;stroke-dasharray:none;stroke-opacity:1"
     d="m 474.22798,530.43322 -10.46318,7.97017 -8.22882,1.67558"
     id="path4278"
     inkscape:connector-curvature="0"
     sodipodi:nodetypes="ccc" />
  <path
     style="fill:none;fill-rule:evenodd;stroke:#000000;stroke-width:1.5588;stroke-linecap:butt;stroke-linejoin:miter;stroke-miterlimit:4;stroke-dasharray:none;stroke-opacity:1"
     d="m 473.79201,552.89471 -9.59124,4.70963 -10.27244,-1.24535"
     id="path4280"
     inkscape:connector-curvature="0"
     sodipodi:nodetypes="ccc" />
  <path
     style="fill:none;fill-rule:evenodd;stroke:#000000;stroke-width:1.5588;stroke-linecap:butt;stroke-linejoin:miter;stroke-miterlimit:4;stroke-dasharray:none;stroke-opacity:1"
     d="m 471.83015,571.09933 -6.75744,3.53224 -7.46592,-3.93982 -0.38147,0.45289"
     id="path4282"
     inkscape:connector-curvature="0"
     sodipodi:nodetypes="cccc" />
  <path
     style="fill:none;fill-rule:evenodd;stroke:#000000;stroke-width:1.5588;stroke-linecap:butt;stroke-linejoin:miter;stroke-miterlimit:4;stroke-dasharray:none;stroke-opacity:1"
     d="m 473.35604,592.4694 -8.48808,-0.17381 -8.64227,-4.0071"
     id="path4284"
     inkscape:connector-curvature="0"
     sodipodi:nodetypes="ccc" />
  <path
     style="fill:none;fill-rule:evenodd;stroke:#000000;stroke-width:1.5588;stroke-linecap:butt;stroke-linejoin:miter;stroke-miterlimit:4;stroke-dasharray:none;stroke-opacity:1"
     d="m 456.53171,608.15362 7.66906,2.7061 6.8213,1.06489"
     id="path4286"
     inkscape:connector-curvature="0"
     sodipodi:nodetypes="ccc" />
  <path
     style="fill:none;fill-rule:evenodd;stroke:#000000;stroke-width:1.5588;stroke-linecap:butt;stroke-linejoin:miter;stroke-miterlimit:4;stroke-dasharray:none;stroke-opacity:1"
     d="m 450.14635,631.14749 10.13074,1.44914 6.48884,-0.78863 0.23122,0.0642"
     id="path4288"
     inkscape:connector-curvature="0"
     sodipodi:nodetypes="cccc" />
  <path
     style="fill:none;fill-rule:evenodd;stroke:#000000;stroke-width:1.5588;stroke-linecap:butt;stroke-linejoin:miter;stroke-miterlimit:4;stroke-dasharray:none;stroke-opacity:1"
     d="m 463.32883,647.81243 -10.02719,1.81143 -8.69513,-1.44914 h -0.15406"
     id="path4290"
     inkscape:connector-curvature="0"
     sodipodi:nodetypes="cccc" />
  <path
     style="fill:none;fill-rule:evenodd;stroke:#000000;stroke-width:1.5588;stroke-linecap:butt;stroke-linejoin:miter;stroke-miterlimit:4;stroke-dasharray:none;stroke-opacity:1"
     d="m 240.49599,649.30685 8.33788,1.04154 10.02719,-9.05702 13.07894,1.81141 8.28338,-5.7965 6.62121,0.56605"
     id="path4292"
     inkscape:connector-curvature="0"
     sodipodi:nodetypes="cccccc" />
  <path
     style="fill:none;fill-rule:evenodd;stroke:#000000;stroke-width:1.5588;stroke-linecap:butt;stroke-linejoin:miter;stroke-miterlimit:4;stroke-dasharray:none;stroke-opacity:1"
     d="m 236.46335,635.94773 15.85821,-5.16251 13.95091,-5.43423 11.24367,-3.00435 -0.11561,-0.16004"
     id="path4294"
     inkscape:connector-curvature="0"
     sodipodi:nodetypes="ccccc" />
  <path
     style="fill:none;fill-rule:evenodd;stroke:#000000;stroke-width:1.5588;stroke-linecap:butt;stroke-linejoin:miter;stroke-miterlimit:4;stroke-dasharray:none;stroke-opacity:1"
     d="m 226.38166,613.80325 12.42498,1.76612 7.84738,-2.17367 9.15527,-2.17372 9.96223,-4.27326"
     id="path4296"
     inkscape:connector-curvature="0"
     sodipodi:nodetypes="ccccc" />
  <path
     style="fill:none;fill-rule:evenodd;stroke:#000000;stroke-width:1.5588;stroke-linecap:butt;stroke-linejoin:miter;stroke-miterlimit:4;stroke-dasharray:none;stroke-opacity:1"
     d="m 224.85578,594.19475 6.97542,2.89828 9.70022,-0.54345 3.05176,-2.26426 10.3542,1.72086 10.29968,-4.16625"
     id="path4298"
     inkscape:connector-curvature="0"
     sodipodi:nodetypes="cccccc" />
  <path
     style="fill:none;fill-rule:evenodd;stroke:#000000;stroke-width:1.5588;stroke-linecap:butt;stroke-linejoin:miter;stroke-miterlimit:4;stroke-dasharray:none;stroke-opacity:1"
     d="m 225.18274,575.7637 8.82831,2.4907 12.64297,-1.08687 11.77107,2.89827 8.22884,-3.75868"
     id="path4300"
     inkscape:connector-curvature="0"
     sodipodi:nodetypes="ccccc" />
  <path
     style="fill:none;fill-rule:evenodd;stroke:#000000;stroke-width:1.5588;stroke-linecap:butt;stroke-linejoin:miter;stroke-miterlimit:4;stroke-dasharray:none;stroke-opacity:1"
     d="m 227.58053,556.1552 7.7384,3.98512 15.25877,2.89823 9.1553,2.89827 7.84738,-0.72456"
     id="path4302"
     inkscape:connector-curvature="0"
     sodipodi:nodetypes="ccccc" />
  <path
     style="fill:none;fill-rule:evenodd;stroke:#000000;stroke-width:1.5588;stroke-linecap:butt;stroke-linejoin:miter;stroke-miterlimit:4;stroke-dasharray:none;stroke-opacity:1"
     d="m 292.25209,539.25608 -13.33662,9.29119 -12.26154,3.62283"
     id="path4304"
     inkscape:connector-curvature="0"
     sodipodi:nodetypes="ccc" />
  <path
     style="fill:none;fill-rule:evenodd;stroke:#000000;stroke-width:1.5588;stroke-linecap:butt;stroke-linejoin:miter;stroke-miterlimit:4;stroke-dasharray:none;stroke-opacity:1"
     d="m 306.92623,543.65652 -4.9046,9.23819 -6.53947,7.97017 -6.5395,3.98509 -8.82826,4.03038"
     id="path4306"
     inkscape:connector-curvature="0"
     sodipodi:nodetypes="ccccc" />
  <path
     style="fill:none;fill-rule:evenodd;stroke:#000000;stroke-width:1.5588;stroke-linecap:butt;stroke-linejoin:miter;stroke-miterlimit:4;stroke-dasharray:none;stroke-opacity:1"
     d="m 321.96706,545.55843 -0.32698,8.06081 -1.74386,1.44914 -3.9237,5.7965 -1.74386,6.15876 -4.79562,4.70968 -4.79562,3.26054"
     id="path4308"
     inkscape:connector-curvature="0"
     sodipodi:nodetypes="ccccccc" />
  <path
     style="fill:none;fill-rule:evenodd;stroke:#000000;stroke-width:1.8186;stroke-linecap:butt;stroke-linejoin:miter;stroke-miterlimit:4;stroke-dasharray:none;stroke-opacity:1"
     d="m 337.93431,547.36989 -0.59947,10.59674 -3.05176,9.4193 v 5.43426 l -3.38423,7.77804"
     id="path4310"
     inkscape:connector-curvature="0"
     sodipodi:nodetypes="ccccc" />
  <path
     style="fill:none;fill-rule:evenodd;stroke:#000000;stroke-width:1.5588;stroke-linecap:butt;stroke-linejoin:miter;stroke-miterlimit:4;stroke-dasharray:none;stroke-opacity:1"
     d="m 356.08135,543.47536 4.79562,7.97019 -0.43597,13.04213 -9.13111,9.8017 0.53948,-0.0642"
     id="path4312"
     inkscape:connector-curvature="0"
     sodipodi:nodetypes="ccccc" />
  <path
     style="fill:none;fill-rule:evenodd;stroke:#000000;stroke-width:1.5588;stroke-linecap:butt;stroke-linejoin:miter;stroke-miterlimit:4;stroke-dasharray:none;stroke-opacity:1"
     d="m 377.46784,539.21209 2.69285,5.4744 -0.97316,3.86078 2.17983,6.8834 2.17982,5.43421 -2.07632,8.22446"
     id="path4314"
     inkscape:connector-curvature="0"
     sodipodi:nodetypes="cccccc" />
  <path
     style="fill:none;fill-rule:evenodd;stroke:#000000;stroke-width:1.5588;stroke-linecap:butt;stroke-linejoin:miter;stroke-miterlimit:4;stroke-dasharray:none;stroke-opacity:1"
     d="m 396.19016,534.05605 5.23159,8.33246 0.43597,6.52108 -0.43597,10.50612"
     id="path4316"
     inkscape:connector-curvature="0" />
  <path
     style="fill:none;fill-rule:evenodd;stroke:#000000;stroke-width:1.299;stroke-linecap:butt;stroke-linejoin:miter;stroke-miterlimit:4;stroke-dasharray:none;stroke-opacity:1"
     d="m 413.29405,524.01825 6.00226,7.1395 1.30791,1.81146 1.74386,11.2307 -1.85284,10.73259"
     id="path4318"
     inkscape:connector-curvature="0"
     sodipodi:nodetypes="ccccc" />
  <path
     style="fill:none;fill-rule:evenodd;stroke:#000000;stroke-width:1.5588;stroke-linecap:butt;stroke-linejoin:miter;stroke-miterlimit:4;stroke-dasharray:none;stroke-opacity:1"
     d="m 427.30722,519.70061 6.1035,5.79652 4.63215,4.93609 -0.16341,10.14386"
     id="path4320"
     inkscape:connector-curvature="0"
     sodipodi:nodetypes="cccc" />
  <path
     style="fill:none;fill-rule:evenodd;stroke:#000000;stroke-width:1.5588;stroke-linecap:butt;stroke-linejoin:miter;stroke-miterlimit:4;stroke-dasharray:none;stroke-opacity:1"
     d="m 444.88834,511.93677 8.84925,1.4692 4.79562,3.62283 0.43599,1.8114"
     id="path4322"
     inkscape:connector-curvature="0"
     sodipodi:nodetypes="cccc" />
  <path
     style="fill:none;fill-rule:evenodd;stroke:#000000;stroke-width:1.5588;stroke-linecap:butt;stroke-linejoin:miter;stroke-miterlimit:4;stroke-dasharray:none;stroke-opacity:1"
     d="m 285.45495,47.874182 -15.69475,13.766708 -4.35967,14.853539 -1.30791,16.664946 -13.51492,14.491265 -17.00262,20.65005 -0.43597,6.88335 7.84738,5.43421 9.15524,1.44913 3.48774,1.44913 -0.87194,4.70965"
     id="path4326"
     inkscape:connector-curvature="0" />
  <path
     style="fill:none;fill-rule:evenodd;stroke:#000000;stroke-width:1.5588;stroke-linecap:butt;stroke-linejoin:miter;stroke-miterlimit:4;stroke-dasharray:none;stroke-opacity:1"
     d="m 254.06541,179.74466 -1.30788,6.88335 -3.05177,8.69476 2.6158,9.05704 7.84738,5.43423 14.38688,4.34737 13.95089,1.44913 11.33509,1.08683 5.23159,6.1588 v 7.24564 l -8.28335,3.98509 -12.643,3.62281 -15.69475,4.34737 -18.74653,5.79651 -20.92633,4.70968 -17.00265,3.26054 -22.23423,5.79652 -22.23424,5.07192 -14.82282,7.97022 -12.64301,7.97019 -6.97544,7.24563 -2.61578,7.60791 h 0.43596"
     id="path4328"
     inkscape:connector-curvature="0" />
  <path
     style="fill:none;fill-rule:evenodd;stroke:#000000;stroke-width:1.5588;stroke-linecap:butt;stroke-linejoin:miter;stroke-miterlimit:4;stroke-dasharray:none;stroke-opacity:1"
     d="m 425.83581,46.425058 14.82283,10.868448 10.46318,11.593012 6.17975,12.596553 6.16547,18.444365 -1.84964,13.833274 -6.78203,15.88264 -12.94749,18.9567 -12.33098,17.93202 -12.33096,22.03078 v 16.90733 l 7.39858,13.83329 14.79714,12.80855 20.34612,10.24689 25.27844,10.75927 26.51159,9.22216 34.52672,10.7592 19.11298,7.68514 8.63167,8.19749 1.84967,5.12346"
     id="path4330"
     inkscape:connector-curvature="0" />
  <path
     style="fill:none;fill-rule:evenodd;stroke:#000000;stroke-width:1.5588;stroke-linecap:butt;stroke-linejoin:miter;stroke-miterlimit:4;stroke-dasharray:none;stroke-opacity:1"
     d="m 284.97634,48.180736 8.32339,-5.123422 14.1149,-7.128866 26.81077,-5.478168 18.01665,-2.642081 24.83344,1.643138 18.57127,4.7354 24.37554,7.209225 8.60979,6.784774 v 0"
     id="path4332"
     inkscape:connector-curvature="0"
     sodipodi:nodetypes="cccccccccc" />
  <path
     style="fill:none;fill-rule:evenodd;stroke:#000000;stroke-width:1.5588;stroke-linecap:butt;stroke-linejoin:miter;stroke-miterlimit:4;stroke-dasharray:none;stroke-opacity:1"
     d="m 520.87626,372.47843 -7.41139,13.04219 -3.92371,23.54828 -1.74385,36.59042 -0.87194,13.40442 -4.35962,21.37462 -6.5395,24.99744 -3.48771,23.54829 1.74385,20.28774 4.79562,30.06939 7.41142,31.88076 4.35964,21.37465 4.35965,26.80882 1.30791,31.88079"
     id="path4334"
     inkscape:connector-curvature="0" />
  <path
     style="fill:none;fill-rule:evenodd;stroke:#000000;stroke-width:1.5588;stroke-linecap:butt;stroke-linejoin:miter;stroke-miterlimit:4;stroke-dasharray:none;stroke-opacity:1"
     d="m 176.4636,365.23282 3.48772,12.31758 7.84736,11.59302 -4.86108,36.63448 0.61657,29.20358 6.16548,25.10482 11.71442,22.03077 8.01511,25.6172 0.61655,23.56779 -4.31584,29.71593 -4.31582,26.64183 -6.78203,39.45047 0.61653,44.06153"
     id="path4336"
     inkscape:connector-curvature="0"
     sodipodi:nodetypes="ccccccccccccc" />
</svg>
