<?xml version="1.0" encoding="UTF-8" standalone="no"?>
<!-- Created with Inkscape (http://www.inkscape.org/) -->

<svg
   id="svg4136"
   version="1.1"
   inkscape:version="1.3 (0e150ed, 2023-07-21)"
   width="700"
   height="750"
   viewBox="0 0 700 750"
   sodipodi:docname="level3_C09_18.01.svg"
   xmlns:inkscape="http://www.inkscape.org/namespaces/inkscape"
   xmlns:sodipodi="http://sodipodi.sourceforge.net/DTD/sodipodi-0.dtd"
   xmlns="http://www.w3.org/2000/svg"
   xmlns:svg="http://www.w3.org/2000/svg"
   xmlns:rdf="http://www.w3.org/1999/02/22-rdf-syntax-ns#"
   xmlns:cc="http://creativecommons.org/ns#"
   xmlns:dc="http://purl.org/dc/elements/1.1/">
  <metadata
     id="metadata4142">
    <rdf:RDF>
      <cc:Work
         rdf:about="">
        <dc:format>image/svg+xml</dc:format>
        <dc:type
           rdf:resource="http://purl.org/dc/dcmitype/StillImage" />
      </cc:Work>
    </rdf:RDF>
  </metadata>
  <defs
     id="defs4140">
    <marker
       inkscape:stockid="Arrow1Lstart"
       orient="auto"
       refY="0"
       refX="0"
       id="Arrow1Lstart"
       style="overflow:visible"
       inkscape:isstock="true">
      <path
         id="path4153"
         d="M 0,0 5,-5 -12.5,0 5,5 Z"
         style="fill:#000000;fill-opacity:1;fill-rule:evenodd;stroke:#000000;stroke-width:1pt;stroke-opacity:1"
         transform="matrix(0.8,0,0,0.8,10,0)"
         inkscape:connector-curvature="0" />
    </marker>
  </defs>
  <sodipodi:namedview
     pagecolor="#ffffff"
     bordercolor="#666666"
     borderopacity="1"
     objecttolerance="10"
     gridtolerance="10"
     guidetolerance="10"
     inkscape:pageopacity="0"
     inkscape:pageshadow="2"
     inkscape:window-width="1344"
     inkscape:window-height="759"
     id="namedview4138"
     showgrid="false"
     inkscape:zoom="0.50349675"
     inkscape:cx="165.8402"
     inkscape:cy="347.56927"
     inkscape:window-x="0"
     inkscape:window-y="25"
     inkscape:window-maximized="0"
     inkscape:current-layer="svg4136"
     inkscape:showpageshadow="2"
     inkscape:pagecheckerboard="0"
     inkscape:deskcolor="#d1d1d1" />
  <path
     style="fill:none;fill-rule:evenodd;stroke:#000000;stroke-width:1.49486;stroke-linecap:butt;stroke-linejoin:miter;stroke-miterlimit:4;stroke-dasharray:none;stroke-opacity:1"
     d="m 199.29918,455.28945 c 0,0 -5.14951,-41.94076 -3.72907,-64.13737 1.23299,-19.2675 4.26497,-38.72466 10.72278,-56.91953 2.67379,-7.53341 6.06948,-15.14551 11.41114,-21.09262 7.26316,-8.08641 16.66371,-14.71811 26.85596,-18.49454 13.6623,-5.06215 29.25111,-7.86649 43.46176,-4.65072 6.60929,1.49564 12.15504,6.2604 17.31315,10.65511 4.19564,3.57468 8.15435,7.68835 10.79344,12.52745 3.33097,6.10775 4.1943,13.27442 5.91569,20.0151 1.37579,5.38737 1.98908,10.95987 3.52096,16.30495 1.19967,4.18591 1.70328,8.89189 4.42475,12.29111 2.02067,2.52389 4.95546,5.32633 8.18621,5.20232 2.86822,-0.11009 5.34372,-2.74524 6.89221,-5.16206 2.32318,-3.62592 2.04713,-8.3763 2.71439,-12.63062 0.84625,-5.39557 0.77465,-10.90899 1.62697,-16.3036 0.83044,-5.25614 1.52836,-10.61474 3.38929,-15.60007 2.257,-6.04639 4.69581,-12.45576 9.29248,-16.98605 5.65071,-5.5691 13.27269,-9.52559 21.04498,-11.11835 8.25391,-1.69146 16.99319,0.12314 25.19185,2.06482 9.14539,2.1659 18.40225,5.2234 26.14905,10.54472 8.00134,5.49616 14.1493,13.44974 19.85755,21.30118 4.89525,6.73318 9.07686,14.08647 12.12493,21.83298 4.16769,10.59197 6.52174,21.88911 8.20972,33.14567 1.8381,12.25762 2.011,24.73336 2.04013,37.128 0.0322,13.70578 -2.06295,41.06568 -2.06295,41.06568"
     id="path4231"
     inkscape:connector-curvature="0"
     sodipodi:nodetypes="csssssssssssssssssssssssc" />
  <path
     style="fill:none;fill-rule:evenodd;stroke:#000000;stroke-width:1.49486;stroke-linecap:butt;stroke-linejoin:miter;stroke-miterlimit:4;stroke-dasharray:none;stroke-opacity:1"
     d="m 453.78797,545.20665 c 1.73922,-2.31985 6.72589,-5.51557 6.72589,-5.51557 0,0 2.68577,-8.6707 3.92342,-13.03679 0.99056,-3.49441 0.65925,-7.59736 2.80246,-10.52972 0.91581,-1.25301 3.92342,-2.50708 3.92342,-2.50708 0,0 0.44464,-9.16223 1.68147,-13.53821 1.34869,-4.77174 6.16541,-13.53822 6.16541,-13.53822 l 1.12099,-16.62261 c 0,0 5.04245,-7.03579 8.91468,-7.75162 4.1258,-0.7627 7.62986,4.45121 11.82344,4.31762 4.18591,-0.13334 7.33859,-5.49075 11.50359,-5.05212 5.14459,0.54179 12.59751,9.06344 12.59751,9.06344 l -4.48393,29.08208 -4.48392,19.05379 -7.28635,5.51557 c 0,0 2.15943,14.52996 -1.12099,20.55804 -3.53289,6.49201 -17.93571,13.03679 -17.93571,13.03679 0,0 -2.38518,8.90008 -5.0444,12.53537 -1.85969,2.5423 -4.35128,4.87378 -7.28638,6.017 -2.96364,1.15434 -9.52834,0.50142 -9.52834,0.50142 0,0 -0.90509,10.94666 -4.48392,14.54102 -2.76266,2.77465 -7.32508,3.02007 -11.2098,3.50992 -3.15552,0.3979 -9.52834,-0.50142 -9.52834,-0.50142 0,0 -1.45718,9.00684 -4.48392,12.03396 -3.3835,3.38393 -8.68047,5.37993 -13.45177,5.01415 -5.12219,-0.39268 -13.45179,-7.52122 -13.45179,-7.52122 0,0 -2.79087,6.87539 -5.60489,9.02547 -3.25323,2.48567 -7.69171,3.86693 -11.77027,3.50992 -5.20421,-0.45554 -14.01229,-7.01982 -14.01229,-7.01982 0,0 -6.66954,5.30046 -10.6493,6.5184 -3.5766,1.09456 -7.73391,1.88281 -11.20981,0.50142 -3.24385,-1.28916 -7.28638,-7.52124 -7.28638,-7.52124 0,0 -5.825,5.66031 -9.52834,7.01982 -4.57081,1.67796 -9.85498,2.20721 -14.57275,1.00282 -3.00757,-0.76779 -7.84685,-5.01414 -7.84685,-5.01414 0,0 -6.91743,3.33177 -10.64931,4.01132 -4.59519,0.83675 -9.62125,1.59215 -14.01226,0 -3.43224,-1.24451 -8.40737,-7.01982 -8.40737,-7.01982 0,0 -5.91993,4.97303 -9.52832,6.01699 -2.87153,0.83077 -6.23231,1.20523 -8.96787,0 -4.56001,-2.00905 -10.08881,-11.03114 -10.08881,-11.03114 0,0 -13.37405,-0.39021 -19.61717,-2.50707 -4.0935,-1.38798 -8.38588,-3.24599 -11.20981,-6.5184 -3.29211,-3.81494 -5.60489,-14.03962 -5.60489,-14.03962 0,0 -10.27177,-1.79973 -14.57275,-4.51274 -4.42557,-2.79159 -7.57667,-7.2973 -10.64931,-11.53257 -2.24875,-3.09964 -5.60489,-10.0283 -5.60489,-10.0283 l -15.69375,-3.50992 c 0,0 -4.03486,-6.07829 -5.04442,-9.52687 -1.27221,-4.34579 -0.0332,-9.14263 -1.12097,-13.53822 -0.91642,-3.70318 -2.62013,-7.2011 -4.48392,-10.52971 -2.20459,-3.93725 -5.34893,-3.34179 -7.84687,-11.03115 -2.49669,-7.68551 -6.12098,-15.02788 -7.97535,-22.90606 0,0 1.56938,-6.46151 4.04481,-8.28043 4.47947,-3.29146 11.199,-0.79292 16.48646,-2.50819 4.21218,-1.36645 7.40752,-5.57561 11.80555,-6.09229 3.51919,-0.41344 7.55412,0.33684 10.3191,2.55281 1.85202,1.48429 3.17425,6.37355 3.17425,6.37355 0,0 0.66722,10.88425 2.13617,16.09215 0.82067,2.90956 2.43389,5.53477 3.68039,8.28891 1.06516,2.35346 2.02467,4.76096 3.24583,7.03738 0.98029,1.8274 2.40678,3.40769 3.26549,5.29528 1.12356,2.46978 2.41556,7.77336 2.41556,7.77336 0,0 6.17155,10.11315 8.32287,15.60039 0.75829,1.93413 1.58532,6.02741 1.58532,6.02741 0,0 6.77699,1.83526 9.51184,3.90008 3.24012,2.4463 5.73634,5.93086 7.53019,9.57296 1.18532,2.4066 1.98163,7.80022 1.98163,7.80022 0,0 8.82764,-0.28574 13.07878,0.70911 3.49978,0.81902 7.08633,2.02831 9.90815,4.25466 2.08284,1.64331 4.75594,6.38196 4.75594,6.38196 0,0 8.06438,0.87172 11.88979,2.12733 2.79783,0.91833 7.92653,3.90008 7.92653,3.90008 0,0 9.4583,-2.06668 14.26775,-2.48186 3.15886,-0.27269 6.36038,-0.34811 9.51182,0 3.2293,0.35671 9.51185,2.12731 9.51185,2.12731 0,0 11.86136,-2.53229 17.83468,-2.12731 4.22156,0.28621 13.87467,3.24061 13.87467,3.24061 0,0 18.74804,-3.3014 27.73962,-1.1133 1.62477,0.39539 4.3596,2.48188 4.3596,2.48188 0,0 16.86063,-4.29423 25.3649,-3.54552 1.52227,0.13402 4.3596,1.41819 4.3596,1.41819 0,0 10.76884,-9.71972 17.43834,-12.05482 1.62477,-0.56886 5.15225,-0.35455 5.15225,-0.35455 0,0 7.34967,-4.14218 10.70083,-6.68288 1.13957,-0.86397 3.32021,-2.92253 3.32021,-2.92253 0,0 2.7699,-9.42805 5.65543,-13.27691 z"
     id="path4455"
     inkscape:connector-curvature="0"
     sodipodi:nodetypes="scsscsccsssccccscsscsscsscsscsscsscsscsscsscssccsssscsssscsssscscsscsscscsscscscscscscs" />
  <path
     style="fill:none;fill-rule:evenodd;stroke:#000000;stroke-width:1.49486;stroke-linecap:butt;stroke-linejoin:miter;stroke-miterlimit:4;stroke-dasharray:none;stroke-opacity:1"
     d="m 479.02454,486.71977 c 0,0 9.28692,3.74332 13.94145,2.65815 4.2444,-0.98955 6.75769,-6.50974 11.09714,-6.91378 4.37626,-0.40747 8.78966,2.12332 12.28613,4.78648 2.28644,1.74152 5.15225,6.91378 5.15225,6.91378"
     id="path4457"
     inkscape:connector-curvature="0"
     sodipodi:nodetypes="csssc" />
  <path
     style="fill:none;fill-rule:evenodd;stroke:#000000;stroke-width:1.49486;stroke-linecap:butt;stroke-linejoin:miter;stroke-miterlimit:4;stroke-dasharray:none;stroke-opacity:1"
     d="m 470.96988,513.66491 c 0,0 5.88459,1.30344 8.7192,2.30457 2.18338,0.77113 4.02599,2.79662 6.3412,2.83644 3.92129,0.0674 6.978,-4.51555 10.89898,-4.43193 3.26769,0.0697 6.54489,1.82925 8.91734,4.0774 1.54959,1.4684 2.97247,5.67285 2.97247,5.67285"
     id="path4459"
     inkscape:connector-curvature="0"
     sodipodi:nodetypes="cssssc" />
  <path
     style="fill:none;fill-rule:evenodd;stroke:#000000;stroke-width:1.49486;stroke-linecap:butt;stroke-linejoin:miter;stroke-miterlimit:4;stroke-dasharray:none;stroke-opacity:1"
     d="m 460.10356,539.76413 c 0,0 8.3759,-0.19051 12.45161,0.31594 3.37878,0.41985 7.26598,0.33452 9.90819,2.48188 4.31893,3.51004 7.28249,15.02421 7.28249,15.02421"
     id="path4461"
     inkscape:connector-curvature="0"
     sodipodi:nodetypes="cssc" />
  <path
     style="fill:none;fill-rule:evenodd;stroke:#000000;stroke-width:1.49486;stroke-linecap:butt;stroke-linejoin:miter;stroke-miterlimit:4;stroke-dasharray:none;stroke-opacity:1"
     d="m 447.88384,558.5603 c 0,0 5.81429,-2.23565 8.81828,-1.99436 2.8391,0.22804 6.12203,0.9873 7.92653,3.19099 3.65589,4.46463 3.17061,17.0186 3.17061,17.0186"
     id="path4463"
     inkscape:connector-curvature="0"
     sodipodi:nodetypes="cssc" />
  <path
     style="fill:none;fill-rule:evenodd;stroke:#000000;stroke-width:1.49486;stroke-linecap:butt;stroke-linejoin:miter;stroke-miterlimit:4;stroke-dasharray:none;stroke-opacity:1"
     d="m 434.3193,568.03425 c 0,0 2.54934,3.15895 3.75546,4.8412 1.18335,1.65049 2.46053,3.35301 2.97248,5.3183 0.74481,2.8592 -0.27817,5.92236 0,8.86385 0.23222,2.45556 1.7016,7.40813 1.7016,7.40813"
     id="path4465"
     inkscape:connector-curvature="0"
     sodipodi:nodetypes="csssc" />
  <path
     style="fill:none;fill-rule:evenodd;stroke:#000000;stroke-width:1.49486;stroke-linecap:butt;stroke-linejoin:miter;stroke-miterlimit:4;stroke-dasharray:none;stroke-opacity:1"
     d="m 411.51414,580.49834 c 0,0 0.0813,5.67077 0.007,8.5093 -0.0701,2.67133 -0.73496,5.30584 -0.79268,7.97747 -0.0511,2.36684 0.39634,7.0911 0.39634,7.0911"
     id="path4467"
     inkscape:connector-curvature="0"
     sodipodi:nodetypes="cssc" />
  <path
     style="fill:none;fill-rule:evenodd;stroke:#000000;stroke-width:1.49486;stroke-linecap:butt;stroke-linejoin:miter;stroke-miterlimit:4;stroke-dasharray:none;stroke-opacity:1"
     d="m 381.59824,582.80294 c 0,0 -1.4856,9.18979 -1.78346,13.82762 -0.27268,4.2459 0,12.76395 0,12.76395"
     id="path4469"
     inkscape:connector-curvature="0"
     sodipodi:nodetypes="csc" />
  <path
     style="fill:none;fill-rule:evenodd;stroke:#000000;stroke-width:1.49486;stroke-linecap:butt;stroke-linejoin:miter;stroke-miterlimit:4;stroke-dasharray:none;stroke-opacity:1"
     d="m 349.69519,581.3351 0.79143,27.88212"
     id="path4471"
     inkscape:connector-curvature="0"
     sodipodi:nodetypes="cc" />
  <path
     style="fill:none;fill-rule:evenodd;stroke:#000000;stroke-width:1.49486;stroke-linecap:butt;stroke-linejoin:miter;stroke-miterlimit:4;stroke-dasharray:none;stroke-opacity:1"
     d="m 318.15426,580.14379 0.42808,31.73261"
     id="path4473"
     inkscape:connector-curvature="0"
     sodipodi:nodetypes="cc" />
  <path
     style="fill:none;fill-rule:evenodd;stroke:#000000;stroke-width:1.49486;stroke-linecap:butt;stroke-linejoin:miter;stroke-miterlimit:4;stroke-dasharray:none;stroke-opacity:1"
     d="m 284.49825,580.32108 c 0,0 -0.83243,10.75642 -0.59451,16.13221 0.18697,4.22457 1.58532,12.58667 1.58532,12.58667"
     id="path4475"
     inkscape:connector-curvature="0"
     sodipodi:nodetypes="csc" />
  <path
     style="fill:none;fill-rule:evenodd;stroke:#000000;stroke-width:1.49486;stroke-linecap:butt;stroke-linejoin:miter;stroke-miterlimit:4;stroke-dasharray:none;stroke-opacity:1"
     d="m 265.07824,574.47093 c 0,0 -7.13826,1.39965 -9.11551,4.07737 -2.58158,3.49614 -1.73873,8.59794 -1.58529,12.94122 0.15045,4.25858 2.44595,12.54752 2.44595,12.54752"
     id="path4477"
     inkscape:connector-curvature="0"
     sodipodi:nodetypes="cssc" />
  <path
     style="fill:none;fill-rule:evenodd;stroke:#000000;stroke-width:1.49486;stroke-linecap:butt;stroke-linejoin:miter;stroke-miterlimit:4;stroke-dasharray:none;stroke-opacity:1"
     d="m 237.45448,562.98619 c 0,0 -6.66094,0.59532 -9.43276,2.26634 -2.22726,1.34273 -3.7741,3.70981 -4.95408,6.02741 -1.55115,3.04662 -2.57613,9.92751 -2.57613,9.92751"
     id="path4479"
     inkscape:connector-curvature="0"
     sodipodi:nodetypes="cssc" />
  <path
     style="fill:none;fill-rule:evenodd;stroke:#000000;stroke-width:1.49486;stroke-linecap:butt;stroke-linejoin:miter;stroke-miterlimit:4;stroke-dasharray:none;stroke-opacity:1"
     d="m 189.97439,554.6159 c 0,0 1.33403,-5.01792 2.57611,-7.26837 1.23667,-2.24065 2.36655,-5.11049 4.75591,-6.02743 4.56763,-1.75288 9.58229,2.77498 14.46593,2.48188 2.27056,-0.13627 6.53937,-1.95004 6.53937,-1.95004"
     id="path4481"
     inkscape:connector-curvature="0"
     sodipodi:nodetypes="csssc" />
  <path
     style="fill:none;fill-rule:evenodd;stroke:#000000;stroke-width:1.49486;stroke-linecap:butt;stroke-linejoin:miter;stroke-miterlimit:4;stroke-dasharray:none;stroke-opacity:1"
     d="m 164.78609,520.3312 c 0,0 3.8681,-4.83533 6.36277,-5.60265 4.91657,-1.51225 10.11565,2.2055 15.25858,2.30462 5.3163,0.10246 10.77574,-3.35218 15.85305,-1.77278 2.31803,0.72107 5.92619,4.73944 5.92619,4.73944"
     id="path4483"
     inkscape:connector-curvature="0"
     sodipodi:nodetypes="csssc" />
  <path
     style="fill:none;fill-rule:evenodd;stroke:#000000;stroke-width:1.49486;stroke-linecap:butt;stroke-linejoin:miter;stroke-miterlimit:4;stroke-dasharray:none;stroke-opacity:1"
     d="m 154.64065,503.74207 c 0,0 3.65907,-6.73155 6.87112,-8.38963 3.57368,-1.84475 8.11582,0.0685 12.03691,-0.82558 3.79199,-0.86465 6.9641,-3.95977 10.83607,-4.32674 3.70706,-0.35134 11.54775,1.96713 11.54775,1.96713"
     id="path4485"
     inkscape:connector-curvature="0"
     sodipodi:nodetypes="csssc" />
  <path
     style="fill:none;fill-rule:evenodd;stroke:#000000;stroke-width:1.49486;stroke-linecap:butt;stroke-linejoin:miter;stroke-miterlimit:4;stroke-dasharray:none;stroke-opacity:1"
     d="m 335.52273,292.36035 -1.68411,-61.50191 v 0"
     id="path4487"
     inkscape:connector-curvature="0"
     sodipodi:nodetypes="ccc" />
  <path
     style="fill:none;fill-rule:evenodd;stroke:#000000;stroke-width:1.49486;stroke-linecap:butt;stroke-linejoin:miter;stroke-miterlimit:4;stroke-dasharray:none;stroke-opacity:1"
     d="m 288.65968,185.87958 c 3.96326,0 91.94775,-0.70911 91.94775,-0.70911"
     id="path4489"
     inkscape:connector-curvature="0" />
  <path
     style="fill:none;fill-rule:evenodd;stroke:#000000;stroke-width:1.49486;stroke-linecap:butt;stroke-linejoin:miter;stroke-miterlimit:4;stroke-dasharray:none;stroke-opacity:1"
     d="m 264.68021,231.2625 c 0,0 22.81591,-18.07297 36.46204,-21.95184 19.82511,-5.63523 41.78672,-5.55422 61.82694,-0.73962 13.34789,3.20679 36.46204,19.14593 36.46204,19.14593"
     id="path4491"
     inkscape:connector-curvature="0"
     sodipodi:nodetypes="cssc" />
  <path
     style="fill:none;fill-rule:evenodd;stroke:#000000;stroke-width:1.49486;stroke-linecap:butt;stroke-linejoin:miter;stroke-miterlimit:4;stroke-dasharray:none;stroke-opacity:1"
     d="m 174.07178,551.07035 c 0,0 7.91812,20.72904 13.1283,30.49166 15.35373,28.76918 29.60475,45.98839 53.10777,64.88342 14.15712,11.38148 30.53512,19.98758 47.16284,27.30066 9.75897,4.29212 19.93749,8.25749 30.51715,9.57296 20.74687,2.57966 42.12018,0.5607 62.61959,-3.54555 13.59709,-2.72364 27.30204,-6.7656 39.23631,-13.82762 14.49228,-8.5757 26.30387,-21.24033 37.65103,-33.68263 9.11964,-9.99979 16.75024,-21.30426 24.17591,-32.61899 8.98594,-13.69215 18.40237,-27.37563 24.57225,-42.54648 5.05318,-12.42504 9.90816,-39.00097 9.90816,-39.00097 v 0"
     id="path4493"
     inkscape:connector-curvature="0"
     sodipodi:nodetypes="cssssssssssc" />
  <path
     style="fill:none;fill-rule:evenodd;stroke:#000000;stroke-width:1.49486;stroke-linecap:butt;stroke-linejoin:miter;stroke-miterlimit:4;stroke-dasharray:none;stroke-opacity:1"
     d="m 344.14539,640.41799 0.79264,28.36433"
     id="path4495"
     inkscape:connector-curvature="0" />
  <path
     style="fill:none;fill-rule:evenodd;stroke:#000000;stroke-width:1.49486;stroke-linecap:butt;stroke-linejoin:miter;stroke-miterlimit:4;stroke-dasharray:none;stroke-opacity:1"
     d="m 181.65153,643.25443 c 15.29634,22.06657 57.42363,54.66333 80.8506,64.52884 19.67726,8.28644 41.33418,11.8025 62.61959,13.47307 25.58963,2.00838 53.27264,5.80561 76.88734,-4.25463 59.33384,-25.27716 71.84187,-38.13756 104.63021,-92.18409 12.26289,-20.21348 16.90501,-44.32213 22.19428,-67.36528 7.59872,-33.10444 9.69209,-67.24632 13.51191,-100.99619 3.64332,-32.1904 8.98955,-64.37722 8.96782,-96.77314 -0.012,-17.96269 -1.7267,-35.99781 -5.04439,-53.65145 -6.29176,-33.47892 -16.82281,-66.10682 -28.02453,-98.27739 C 505.8724,172.22277 496.10931,134.66221 475.08661,103.45978 463.36958,86.069061 447.72947,70.915477 430.24737,59.33523 413.13519,48.000018 393.38647,40.258576 373.35762,35.768711 c -10.12979,-2.270795 -20.79211,-2.673614 -31.10724,-1.504244 -6.74936,0.765139 -19.61715,5.515567 -19.61715,5.515567 0,0 -14.38752,-4.769213 -21.85911,-5.014147 -11.53779,-0.378232 -23.3236,1.618568 -34.18993,5.515567 -9.98014,3.579186 -18.77438,9.970436 -27.46403,16.045285 -13.31849,9.310828 -26.05697,19.602157 -37.55284,31.08775 -9.52379,9.515282 -18.02016,20.088281 -25.78256,31.087751 -6.95248,9.8518 -13.12243,20.29339 -18.49615,31.08775 -6.83725,13.73421 -12.42601,28.09853 -17.37521,42.6203 -5.42634,15.92178 -10.2755,32.11882 -13.45177,48.63728 -2.88948,15.02698 -4.0182,30.36097 -5.04442,45.62878 -1.55849,23.18669 -1.72788,46.45777 -1.68149,69.69673 0.0531,26.58546 0.0552,53.2296 2.24197,79.72503 1.69301,20.51282 5.18396,40.84407 8.40737,61.17267 9.26491,58.42967 21.66619,103.48215 51.26647,146.18365 z"
     id="path4497"
     inkscape:connector-curvature="0"
     sodipodi:nodetypes="sssssssssssssscsssssssssssss" />
  <path
     style="fill:none;fill-rule:evenodd;stroke:#000000;stroke-width:1.49486;stroke-linecap:butt;stroke-linejoin:miter;stroke-miterlimit:4;stroke-dasharray:none;stroke-opacity:1"
     d="m 155.67718,506.78573 c 0,0 -9.80795,-26.16984 -13.80206,-39.54917 -2.98116,-9.9862 -5.59964,-20.10124 -7.56661,-30.33562 -2.48325,-12.92059 -4.65173,-25.97054 -5.32468,-39.11038 -1.30439,-25.4691 -0.12395,-51.10102 2.52222,-76.46584 2.22782,-21.35476 5.49917,-42.73174 11.2098,-63.42903 4.5422,-16.4625 10.76132,-32.52046 18.21592,-47.88517 9.99434,-20.59937 21.59116,-40.58627 35.3109,-58.91629 11.30979,-15.11025 23.71234,-29.75608 38.39357,-41.61747 12.91133,-10.431443 27.40994,-19.298867 42.87751,-25.321472 10.50068,-4.088649 21.85164,-5.945759 33.06894,-7.019816 13.67177,-1.309072 27.53761,-0.689622 41.19603,0.752125 13.06025,1.378606 26.26742,3.214154 38.67386,7.521231 11.02188,3.826408 21.62402,9.248784 31.10721,16.045292 10.76144,7.71262 19.64953,17.80795 28.58499,27.57784 9.34408,10.21666 18.07547,21.03224 26.0628,32.34129 7.30198,10.33868 14.09429,21.09268 19.89741,32.34128 7.24128,14.03631 13.25285,28.72476 18.49618,43.62313 4.55559,12.94422 7.94429,26.28355 11.20983,39.6118 3.71698,15.17079 7.01996,30.46274 9.52832,45.87951 2.29741,14.12025 4.71522,28.31816 5.04442,42.6203 0.32969,14.32344 -1.38018,28.64529 -3.0827,42.87101 -1.74207,14.55619 -4.21085,29.03858 -7.28638,43.37241 -1.41897,6.61327 -5.1435,19.62864 -5.1435,19.62864"
     id="path4499"
     inkscape:connector-curvature="0"
     sodipodi:nodetypes="cssssssssssssssssssssssc" />
  <path
     style="fill:none;fill-rule:evenodd;stroke:#000000;stroke-width:1.49486;stroke-linecap:butt;stroke-linejoin:miter;stroke-miterlimit:4;stroke-dasharray:none;stroke-opacity:1"
     d="M 327.10335,114.25963 325.91439,77.031448"
     id="path4501"
     inkscape:connector-curvature="0" />
  <path
     style="fill:none;fill-rule:evenodd;stroke:#000000;stroke-width:1.49486;stroke-linecap:butt;stroke-linejoin:miter;stroke-miterlimit:4;stroke-dasharray:none;stroke-opacity:1"
     d="m 190.35752,311.29642 c 0,0 1.2407,10.917 -1.12097,15.54387 -1.83065,3.58653 -5.39286,6.60936 -9.2481,7.77193 -5.67077,1.71006 -11.7464,-1.59939 -17.65545,-2.00565 -6.89845,-0.47428 -14.59611,2.6749 -20.73814,-0.50142 -3.05498,-1.57987 -5.35401,-4.93109 -6.16539,-8.27333 -1.61867,-6.66764 1.04786,-13.84842 3.36296,-20.30736 0.94457,-2.63526 4.20368,-7.2705 4.20368,-7.2705 0,0 1.97085,-11.25365 4.4839,-16.29598 2.11719,-4.24804 8.6876,-11.28186 8.6876,-11.28186 0,0 -2.82007,-7.60879 -2.52219,-11.53254 0.43373,-5.71324 3.63611,-10.90408 6.16538,-16.0453 1.90108,-3.86432 6.72588,-11.03114 6.72588,-11.03114 0,0 1.34464,-8.27555 3.0827,-12.03397 2.10514,-4.5522 4.81291,-9.10017 8.6876,-12.28466 1.89743,-1.55944 6.72589,-3.00851 6.72589,-3.00851 0,0 1.47948,-12.94427 4.48392,-18.55236 3.11814,-5.82033 7.70811,-11.28381 13.45176,-14.54104 2.82332,-1.60111 9.52834,-2.00566 9.52834,-2.00566 0,0 1.4538,-9.94699 3.36293,-14.54105 2.15809,-5.19315 4.46208,-10.92517 8.96784,-14.29033 3.73031,-2.786 8.95177,-4.95511 13.45179,-3.76062 4.88207,1.2959 10.64931,10.78043 10.64931,10.78043 0,0 3.39467,-13.5656 8.40735,-17.80024 4.96552,-4.19479 12.36696,-6.34704 18.77644,-5.26486 3.02979,0.51155 7.56659,5.26486 7.56659,5.26486 0,0 6.86291,-9.0651 11.77033,-11.53256 5.74551,-2.88885 12.75581,-4.29524 19.05665,-3.00849 6.47947,1.32323 16.81472,10.52973 16.81472,10.52973 0,0 5.86788,-7.3436 10.08881,-8.77478 6.38198,-2.16392 13.99638,-1.43047 20.17767,1.25354 6.24907,2.71344 14.85299,14.03964 14.85299,14.03964 0,0 8.29864,-5.97996 13.17153,-6.76911 4.85224,-0.78581 10.44777,-0.41691 14.57274,2.25637 6.34861,4.11436 12.33079,19.05378 12.33079,19.05378 0,0 9.1917,-5.17924 14.2925,-6.01698 4.52886,-0.74381 9.80662,-1.37519 13.73202,1.00283 5.46426,3.31026 8.24276,10.17978 10.08882,16.29599 0.84561,2.80158 0.28026,8.77477 0.28026,8.77477 0,0 12.69273,-2.17807 17.65545,1.00283 6.21164,3.9814 6.93062,13.02734 10.36907,19.5552 2.0659,3.9221 4.51514,7.66895 6.16538,11.78326 1.00374,2.50249 2.24196,7.77194 2.24196,7.77194 0,0 5.05308,4.70787 6.44565,7.77193 0.0492,0.10825 0.0381,0.23473 0.0571,0.3521 1.10386,6.81858 3.30603,20.45664 3.30603,20.45664 0,0 8.56346,9.6197 10.64933,15.54388 2.03198,5.77112 1.40121,18.30163 1.40121,18.30163 0,0 5.70815,10.73038 7.28637,16.54672 1.91665,7.06356 2.52223,21.81157 2.52223,21.81157 0,0 4.30569,8.98485 4.20368,13.78891 -0.10156,4.78293 -0.90759,10.70741 -4.76418,13.53821 -5.95259,4.36929 -14.8812,-0.60558 -22.13935,0.75212 -3.98755,0.7459 -7.43399,3.93915 -11.49006,4.01132 -5.08436,0.0905 -11.75278,-0.2811 -14.57276,-4.51272 -2.18797,-3.28324 2.01099,-7.93947 1.12097,-11.78326 -0.68545,-2.96032 -4.67687,-4.73454 -4.76416,-7.77193 -0.0681,-2.36999 3.36295,-6.26771 3.36295,-6.26771 0,0 -8.109,-11.59483 -8.40734,-18.30165 -0.17343,-3.89883 3.92342,-11.03112 3.92342,-11.03112 0,0 -6.03443,-2.10043 -7.84687,-4.51275 -1.65367,-2.201 -0.7685,-5.54166 -1.9617,-8.02264 -1.32629,-2.75771 -4.86421,-4.30148 -5.60492,-7.27054 -1.3541,-5.42775 2.80246,-16.54668 2.80246,-16.54668 0,0 -4.39378,-8.12141 -5.60491,-12.5354 -1.29109,-4.7054 -1.68147,-14.54103 -1.68147,-14.54103 0,0 -2.43191,-9.33533 -5.04442,-13.28751 -1.92885,-2.91795 -6.13618,-4.07853 -7.56661,-7.27052 -1.02597,-2.28944 -0.28026,-7.52123 -0.28026,-7.52123 0,0 -10.8039,-7.84051 -14.85299,-13.0368 -2.77032,-3.55522 -6.16539,-12.03397 -6.16539,-12.03397 0,0 -5.08064,3.9859 -8.12711,4.26203 -6.43169,0.58297 -12.51976,-3.31905 -18.49618,-5.76627 -3.8886,-1.5923 -11.20981,-5.76628 -11.20981,-5.76628 0,0 -2.98109,6.31378 -5.88515,7.77194 -9.35032,4.6949 -21.20235,2.64536 -31.38745,0.25071 -3.77348,-0.8872 -10.36907,-5.26487 -10.36907,-5.26487 0,0 -4.93461,3.72349 -7.84688,4.51274 -10.90998,2.95669 -22.74125,1.99333 -33.90964,0.25071 -2.91411,-0.45469 -8.40737,-2.75778 -8.40737,-2.75778 0,0 -2.78431,3.7036 -4.76416,4.76344 -5.62753,3.01248 -12.42064,4.35039 -18.77645,3.76062 -2.00539,-0.18608 -5.60488,-2.25637 -5.60488,-2.25637 0,0 -4.92003,6.30446 -7.28638,9.52689 -2.78355,3.79057 -8.12711,11.53255 -8.12711,11.53255 0,0 1.83346,3.05105 1.96172,4.76344 0.32141,4.29094 -1.70627,8.45851 -3.08269,12.53539 -1.04934,3.1081 -1.41897,6.90675 -3.92345,9.02547 -2.64554,2.23805 -10.08881,2.50709 -10.08881,2.50709 0,0 3.05544,8.34987 1.40123,12.03395 -1.07434,2.39266 -4.80411,2.46718 -6.44565,4.51275 -1.52845,1.90465 -1.10005,5.01821 -2.80246,6.76911 -1.71211,1.76089 -6.72588,3.00849 -6.72588,3.00849 0,0 5.28326,8.61096 4.76418,13.2875 -0.40397,3.6395 -3.36252,6.62185 -5.88515,9.27618 -1.89259,1.99139 -6.72588,4.76343 -6.72588,4.76343 0,0 4.20279,8.95852 4.76416,13.78893 0.74665,6.42473 1.01312,13.56124 -1.96173,19.30448 -2.10759,4.06891 -10.36927,9.02549 -10.36927,9.02549 z"
     id="path4503"
     inkscape:connector-curvature="0"
     sodipodi:nodetypes="csssssscscsscsscsscssscsscsscsscsscssscssscsscscscssssssscscssscscsscscsscsscsscsscscssscssscsscssc" />
  <path
     style="fill:none;fill-rule:evenodd;stroke:#000000;stroke-width:1.49486;stroke-linecap:butt;stroke-linejoin:miter;stroke-miterlimit:4;stroke-dasharray:none;stroke-opacity:1"
     d="m 473.6846,307.69477 c 0,0 6.38108,3.64184 9.76957,4.05153 5.3401,0.64566 10.52314,-2.28879 15.85305,-3.01373 7.81535,-1.063 23.60828,-2.45999 23.60828,-2.45999"
     id="path4505"
     inkscape:connector-curvature="0"
     sodipodi:nodetypes="cssc" />
  <path
     style="fill:none;fill-rule:evenodd;stroke:#000000;stroke-width:1.49486;stroke-linecap:butt;stroke-linejoin:miter;stroke-miterlimit:4;stroke-dasharray:none;stroke-opacity:1"
     d="m 469.18641,278.4182 c 0,0 14.26364,-4.03446 21.59978,-4.78648 4.27156,-0.43787 8.75298,1.36086 12.88061,0.17739 3.7764,-1.08276 9.90818,-6.38199 9.90818,-6.38199"
     id="path4507"
     inkscape:connector-curvature="0"
     sodipodi:nodetypes="cssc" />
  <path
     style="fill:none;fill-rule:evenodd;stroke:#000000;stroke-width:1.49486;stroke-linecap:butt;stroke-linejoin:miter;stroke-miterlimit:4;stroke-dasharray:none;stroke-opacity:1"
     d="m 456.90029,242.07642 c 0,0 10.68884,1.98861 16.05122,1.59548 5.09347,-0.37342 10.04035,-2.03991 14.86224,-3.72282 4.58889,-1.60159 9.69048,-6.5552 13.77631,-5.81339"
     id="path4509"
     inkscape:connector-curvature="0"
     sodipodi:nodetypes="cssc" />
  <path
     style="fill:none;fill-rule:evenodd;stroke:#000000;stroke-width:1.49486;stroke-linecap:butt;stroke-linejoin:miter;stroke-miterlimit:4;stroke-dasharray:none;stroke-opacity:1"
     d="m 449.76641,215.48484 c 0,0 7.93603,-0.34699 11.88979,-0.7091 6.23038,-0.57062 12.70558,-0.28575 18.62736,-2.30461 4.28543,-1.46099 11.10836,-6.91379 11.10836,-6.91379"
     id="path4511"
     inkscape:connector-curvature="0"
     sodipodi:nodetypes="cssc" />
  <path
     style="fill:none;fill-rule:evenodd;stroke:#000000;stroke-width:1.49486;stroke-linecap:butt;stroke-linejoin:miter;stroke-miterlimit:4;stroke-dasharray:none;stroke-opacity:1"
     d="m 436.83625,187.07619 c 0,0 8.30796,-2.26839 11.54301,-4.91943 3.43504,-2.81492 5.82952,-6.6326 6.68166,-10.99118 0.22633,-1.15765 -0.62044,-4.38772 -0.14229,-6.2047"
     id="path4513"
     inkscape:connector-curvature="0"
     sodipodi:nodetypes="cssc" />
  <path
     style="fill:none;fill-rule:evenodd;stroke:#000000;stroke-width:1.49486;stroke-linecap:butt;stroke-linejoin:miter;stroke-miterlimit:4;stroke-dasharray:none;stroke-opacity:1"
     d="m 416.67313,145.1948 c 0,0 1.27647,4.66761 1.18901,7.17941 -0.11188,3.21313 -2.1798,9.39568 -2.1798,9.39568"
     id="path4515"
     inkscape:connector-curvature="0"
     sodipodi:nodetypes="csc" />
  <path
     style="fill:none;fill-rule:evenodd;stroke:#000000;stroke-width:1.49486;stroke-linecap:butt;stroke-linejoin:miter;stroke-miterlimit:4;stroke-dasharray:none;stroke-opacity:1"
     d="m 376.44602,130.56913 c 0,0 0.93585,7.19639 1.18896,10.8139 0.30535,4.36416 0.39633,13.1185 0.39633,13.1185"
     id="path4517"
     inkscape:connector-curvature="0"
     sodipodi:nodetypes="csc" />
  <path
     style="fill:none;fill-rule:evenodd;stroke:#000000;stroke-width:1.49486;stroke-linecap:butt;stroke-linejoin:miter;stroke-miterlimit:4;stroke-dasharray:none;stroke-opacity:1"
     d="m 331.26478,124.18715 c 0,0 -0.99064,9.44234 -1.18898,14.18217 -0.26188,6.25831 0,18.79137 0,18.79137"
     id="path4519"
     inkscape:connector-curvature="0"
     sodipodi:nodetypes="csc" />
  <path
     style="fill:none;fill-rule:evenodd;stroke:#000000;stroke-width:1.49486;stroke-linecap:butt;stroke-linejoin:miter;stroke-miterlimit:4;stroke-dasharray:none;stroke-opacity:1"
     d="m 283.50743,127.90997 c 0,0 -2.96767,9.1054 -3.56693,13.82761 -0.75136,5.92085 0,17.90499 0,17.90499"
     id="path4521"
     inkscape:connector-curvature="0"
     sodipodi:nodetypes="csc" />
  <path
     style="fill:none;fill-rule:evenodd;stroke:#000000;stroke-width:1.49486;stroke-linecap:butt;stroke-linejoin:miter;stroke-miterlimit:4;stroke-dasharray:none;stroke-opacity:1"
     d="m 248.82885,145.99223 c 0,0 -0.88658,6.27116 -0.59447,9.39569 0.32356,3.46091 2.57613,10.10479 2.57613,10.10479"
     id="path4523"
     inkscape:connector-curvature="0"
     sodipodi:nodetypes="csc" />
  <path
     style="fill:none;fill-rule:evenodd;stroke:#000000;stroke-width:1.49486;stroke-linecap:butt;stroke-linejoin:miter;stroke-miterlimit:4;stroke-dasharray:none;stroke-opacity:1"
     d="m 212.16867,167.62004 c 0,0 2.20878,6.91721 4.16143,9.92751 2.2056,3.40025 4.6519,7.14613 8.32284,8.86386 3.2063,1.50032 7.23888,-0.48519 10.60175,0.62046 0.20586,0.0677 0.54492,0.35456 0.54492,0.35456"
     id="path4525"
     inkscape:connector-curvature="0"
     sodipodi:nodetypes="csssc" />
  <path
     style="fill:none;fill-rule:evenodd;stroke:#000000;stroke-width:1.49486;stroke-linecap:butt;stroke-linejoin:miter;stroke-miterlimit:4;stroke-dasharray:none;stroke-opacity:1"
     d="m 185.05782,202.81032 c 0,0 3.41958,4.95936 5.90736,6.46984 2.89684,1.75884 6.32125,3.05222 9.71001,3.0137 3.34405,-0.038 6.19054,-3.58235 9.51183,-3.19099 4.09919,0.48302 10.50266,6.55926 10.50266,6.55926"
     id="path4527"
     inkscape:connector-curvature="0"
     sodipodi:nodetypes="csssc" />
  <path
     style="fill:none;fill-rule:evenodd;stroke:#000000;stroke-width:1.49486;stroke-linecap:butt;stroke-linejoin:miter;stroke-miterlimit:4;stroke-dasharray:none;stroke-opacity:1"
     d="m 166.47402,230.12186 c 0,0 1.45552,6.27271 3.68403,8.05446 2.57136,2.05586 6.23995,2.29407 9.51182,2.65915 4.66686,0.52074 9.38239,-0.99324 14.06961,-0.7091 4.14869,0.25149 12.53439,1.77262 12.53439,1.77262"
     id="path4529"
     inkscape:connector-curvature="0"
     sodipodi:nodetypes="csssc" />
  <path
     style="fill:none;fill-rule:evenodd;stroke:#000000;stroke-width:1.49486;stroke-linecap:butt;stroke-linejoin:miter;stroke-miterlimit:4;stroke-dasharray:none;stroke-opacity:1"
     d="m 156.08846,268.57933 c 0,0 3.0858,3.98751 5.35039,4.69786 5.51827,1.73097 11.73972,-0.16345 17.24023,-1.95006 2.16619,-0.7036 3.71548,-2.90224 5.94489,-3.36826 4.48526,-0.93757 13.67326,1.41822 13.67326,1.41822"
     id="path4531"
     inkscape:connector-curvature="0"
     sodipodi:nodetypes="csssc" />
  <path
     style="fill:none;fill-rule:evenodd;stroke:#000000;stroke-width:1.49486;stroke-linecap:butt;stroke-linejoin:miter;stroke-miterlimit:4;stroke-dasharray:none;stroke-opacity:1"
     d="m 142.97804,296.29422 c 0,0 0.36892,6.28627 2.21145,8.361 2.86719,3.22852 7.61983,4.49949 11.88979,5.14104 4.79737,0.72079 9.61652,-1.72807 14.46592,-1.59551 6.49254,0.17748 18.8177,3.05628 18.8177,3.05628"
     id="path4533"
     inkscape:connector-curvature="0"
     sodipodi:nodetypes="csssc" />
  <path
     style="fill:none;fill-rule:evenodd;stroke:#000000;stroke-width:1.49486;stroke-linecap:butt;stroke-linejoin:miter;stroke-miterlimit:4;stroke-dasharray:none;stroke-opacity:1"
     d="m 193.41054,476.03693 c 0,0 5.54252,-23.36833 11.1089,-33.86306 3.53748,-6.66949 7.99567,-13.15663 13.8567,-17.91523 7.25467,-5.89011 16.11063,-10.17043 25.22535,-12.23089 11.34874,-2.56548 23.42391,-1.65169 34.9045,0.23818 11.28858,1.85826 22.49105,5.39416 32.58481,10.77943 8.65212,4.61612 23.22797,18.05468 23.22797,18.05468 0,0 9.08382,-10.80842 14.80312,-14.80907 5.29494,-3.70381 11.49217,-6.00183 17.57849,-8.17236 7.42886,-2.64931 15.16008,-4.47601 22.92614,-5.85268 9.03957,-1.60242 18.3413,-4.25796 27.40131,-2.77543 7.64933,1.2517 14.118,6.40297 21.1813,9.59494 4.75046,2.14677 10.18859,3.16834 14.25717,6.42751 4.75272,3.8072 8.03352,9.30187 11.7762,14.10556 2.40686,3.08917 4.5943,6.26424 6.57513,9.64245 2.51353,4.2867 4.63936,8.92994 7.27028,14.07983 1.12633,2.20472 2.07496,7.13156 2.07496,7.13156"
     id="path4218"
     inkscape:connector-curvature="0"
     sodipodi:nodetypes="cssssscsssssssssc" />
  <path
     style="fill:none;fill-rule:evenodd;stroke:#000000;stroke-width:1.49486;stroke-linecap:butt;stroke-linejoin:miter;stroke-miterlimit:4;stroke-dasharray:none;stroke-opacity:1"
     d="m 334.1366,440.86477 1.3877,63.1409 v 0"
     id="path4220"
     inkscape:connector-curvature="0" />
  <path
     id="C09.1"
     style="fill:none;fill-rule:evenodd;stroke:#000000;stroke-width:1.49486;stroke-linecap:butt;stroke-linejoin:miter;stroke-miterlimit:4;stroke-dasharray:none;stroke-dashoffset:0;stroke-opacity:1"
     d="m 353.5856,316.17391 c 0,0 10.29748,-6.60346 15.93764,-8.8764 7.98713,-3.21876 16.37327,-6.90627 24.97883,-6.59165 7.82097,0.28594 15.17241,4.19514 22.20337,7.63242 8.9329,4.3671 17.91395,9.30878 24.97883,16.30562 5.33259,5.28124 9.25194,11.96308 12.4894,18.73411 5.33267,11.15311 8.75316,23.24938 11.1017,35.38667 2.24773,11.6163 1.94112,23.58432 2.77543,35.38664 0.54347,7.68804 1.27967,15.37071 1.45282,23.07599 0.0368,1.63864 -0.11335,3.2775 -0.0882,4.91636 0.0189,1.22826 -0.028,2.47004 0.17913,3.68086 0.15675,0.91645 0.44954,1.81069 0.79805,2.67266 1.11259,2.75178 4.0983,7.9054 4.0983,7.9054 0,0 0.47079,-6.54988 0.66409,-9.82749 0.62183,-10.54361 1.63997,-21.08382 1.59454,-31.64566 -0.0537,-12.49177 -0.33316,-25.06014 -2.20783,-37.41055 -1.68757,-11.11775 -3.95744,-22.29349 -8.09539,-32.74957 -3.10531,-7.84673 -7.40756,-15.26623 -12.38843,-22.07835 -5.51486,-7.54244 -11.46248,-15.15081 -19.13458,-20.48382 -7.9307,-5.51277 -17.34502,-8.91838 -26.73935,-11.16185 -8.13449,-1.9426 -16.83455,-3.54484 -25.02215,-1.83987 -7.91375,1.64795 -15.76841,5.5494 -21.46507,11.2845 -4.14783,4.17582 -8.11113,15.68398 -8.11113,15.68398 z m -38.35368,-4.20581 c 0,0 -13.64945,-3.69957 -20.50626,-4.73201 -7.61633,-1.1468 -15.36555,-1.82549 -23.05961,-1.47188 -8.43381,0.3876 -17.52057,0.0513 -25.02215,3.92504 -8.32352,4.29814 -14.72927,12.12929 -19.6252,20.11584 -5.32481,8.68616 -6.90448,19.18267 -9.81261,28.94719 -3.18152,10.68248 -6.44725,21.39743 -8.34073,32.38161 -1.86886,10.84136 -1.87344,21.92315 -2.94377,32.87222 -0.21332,2.18224 -0.61645,4.34999 -0.69319,6.54129 -0.10181,2.90726 0.7436,5.84502 0.31031,8.72161 -0.18228,1.21013 -0.58267,2.41436 -1.20553,3.46777 l -5.12878,12.85293 c 0,0 -0.9611,-7.227 -1.22689,-11.33389 -1.14092,-17.62931 -3.36796,-35.37001 -2.26519,-53.00174 1.20417,-19.25296 4.15487,-38.70751 10.58129,-56.89618 2.71491,-7.68402 6.16885,-15.4534 11.62211,-21.50954 7.1259,-7.91369 16.37466,-14.35684 26.36653,-18.04025 13.80379,-5.08864 29.52886,-7.89302 43.88637,-4.68354 6.73561,1.50568 12.53276,6.61568 17.9091,10.94356 3.8682,3.11385 9.69449,10.79191 9.1542,10.89997 z"
     inkscape:label="C09.1"
     inkscape:connector-curvature="0"
     sodipodi:nodetypes="cssssssssssscsssssssssccsssssssssccsssssssc" />
  <path
     id="C09.0"
     style="fill:none;fill-rule:evenodd;stroke:#000000;stroke-width:1.49486;stroke-linecap:butt;stroke-linejoin:miter;stroke-miterlimit:4;stroke-dasharray:none;stroke-opacity:1"
     d="m 464.79353,376.54055 c 0,0 -11.317,1.18688 -15.51933,4.78073 -4.20233,3.59385 -6.26872,10.04784 -7.35945,15.70015 -1.09073,5.65231 -0.40503,12.69896 0.98125,17.17207 1.38628,4.47311 1.75743,7.08489 1.75743,7.08489 0.0755,0.45316 4.31991,1.1403 8.47945,4.49501 4.21535,3.39973 16.4791,21.85647 16.4791,21.85647 0,0 0.045,-4.79353 -0.17341,-11.27515 -0.2336,-6.93151 -2.46946,-53.62529 -4.64504,-59.81417 z M 213.88705,370.1345 c 5.41307,-2.33853 8.93812,3.41856 12.00799,6.89552 3.06987,3.47696 4.35869,8.36243 5.89778,13.18326 1.53909,4.82083 3.36222,10.84725 3.12236,15.61176 -0.23986,4.76451 -2.08197,9.95384 -3.14423,10.09415 -1.11929,0.14784 -8.33988,4.79694 -12.98791,8.11958 -4.84246,3.46162 -12.28356,14.48161 -13.35621,15.69524 -0.0654,-1.84195 -0.36525,-5.37409 -0.28647,-9.88827 0.7845,-4.16133 0.90468,-9.8262 1.16249,-12.76254 0.76341,-8.08284 0.63704,-15.99607 2.59276,-26.00258 1.94801,-9.96703 4.00255,-17.40099 4.99142,-20.94612 z"
     inkscape:label="C09.0"
     inkscape:connector-curvature="0"
     sodipodi:nodetypes="cssscscsccssscscccscc" />
  <path
     style="fill:none;fill-rule:evenodd;stroke:#000000;stroke-width:1.49486;stroke-linecap:butt;stroke-linejoin:miter;stroke-miterlimit:4;stroke-dasharray:none;stroke-opacity:1"
     d="m 449.69392,380.85466 c 0,0 0.82432,6.24436 2.74512,7.79744 2.13655,1.72753 5.4394,1.64632 8.1528,1.21428 2.04295,-0.32528 5.55085,-2.77543 5.55085,-2.77543"
     id="path4221"
     inkscape:connector-curvature="0"
     sodipodi:nodetypes="cssc" />
  <path
     style="fill:none;fill-rule:evenodd;stroke:#000000;stroke-width:1.49486;stroke-linecap:butt;stroke-linejoin:miter;stroke-miterlimit:4;stroke-dasharray:none;stroke-opacity:1"
     d="m 442.0312,397.15191 c 0,0 6.01341,1.38767 9.02011,2.08151 3.29193,0.75966 6.65914,-3.05057 9.88746,-2.08159 1.98286,0.59515 5.94858,1.78546 5.94858,1.78546"
     id="path4224"
     inkscape:connector-curvature="0"
     sodipodi:nodetypes="cssc" />
  <path
     style="fill:none;fill-rule:evenodd;stroke:#000000;stroke-width:1.49486;stroke-linecap:butt;stroke-linejoin:miter;stroke-miterlimit:4;stroke-dasharray:none;stroke-opacity:1"
     d="m 441.51562,405.68393 c 0,0 5.90144,2.3195 8.32897,2.32948 2.29516,0.009 4.73719,-0.65236 6.58412,-2.01497 1.25907,-0.9289 2.36474,-2.34247 2.63693,-3.88326 0.25531,-1.44528 -1.07577,-4.26953 -1.07577,-4.26953"
     id="path4228"
     inkscape:connector-curvature="0"
     sodipodi:nodetypes="csssc" />
  <path
     style="fill:none;fill-rule:evenodd;stroke:#000000;stroke-width:1.49486;stroke-linecap:butt;stroke-linejoin:miter;stroke-miterlimit:4;stroke-dasharray:none;stroke-opacity:1"
     d="m 456.35686,405.85481 c 0,0 -1.03827,7.58953 1.2861,10.03116 1.13396,1.19116 3.21381,0.7989 4.85699,0.86732 1.85679,0.0773 5.55085,-0.52039 5.55085,-0.52039"
     id="path4232"
     inkscape:connector-curvature="0"
     sodipodi:nodetypes="cssc" />
  <path
     style="fill:none;fill-rule:evenodd;stroke:#000000;stroke-width:1.49486;stroke-linecap:butt;stroke-linejoin:miter;stroke-miterlimit:4;stroke-dasharray:none;stroke-opacity:1"
     d="m 457.62188,415.64067 c 0,0 0.65723,6.28955 0.54139,9.43889 -0.0815,2.21465 -0.78215,5.41344 -0.78215,5.41344"
     id="path4234"
     inkscape:connector-curvature="0"
     sodipodi:nodetypes="csc" />
  <path
     style="fill:none;fill-rule:evenodd;stroke:#000000;stroke-width:1.49486;stroke-linecap:butt;stroke-linejoin:miter;stroke-miterlimit:4;stroke-dasharray:none;stroke-opacity:1"
     d="m 225.51927,376.44203 c 0,0 -0.46501,7.03498 -2.18031,9.41758 -1.14713,1.5934 -3.09962,2.70249 -5.02897,3.06643 -2.77427,0.52332 -8.3407,-1.47189 -8.3407,-1.47189"
     id="path4236"
     inkscape:connector-curvature="0"
     sodipodi:nodetypes="cssc" />
  <path
     style="fill:none;fill-rule:evenodd;stroke:#000000;stroke-width:1.49486;stroke-linecap:butt;stroke-linejoin:miter;stroke-miterlimit:4;stroke-dasharray:none;stroke-opacity:1"
     d="m 218.80063,389.04869 c 0,0 0.35316,6.94505 2.20785,9.68996 1.72713,2.55612 4.5687,4.72743 7.60476,5.27427 1.95187,0.35156 5.76491,-1.47188 5.76491,-1.47188"
     id="path4238"
     inkscape:connector-curvature="0"
     sodipodi:nodetypes="cssc" />
  <path
     style="fill:none;fill-rule:evenodd;stroke:#000000;stroke-width:1.49486;stroke-linecap:butt;stroke-linejoin:miter;stroke-miterlimit:4;stroke-dasharray:none;stroke-opacity:1"
     d="m 221.03569,398.72773 c 0,0 0.62475,7.50426 -1.62177,10.19149 -1.0981,1.31352 -3.12884,1.7485 -4.84062,1.71721 -2.66202,-0.0487 -7.42513,-2.94379 -7.42513,-2.94379"
     id="path4240"
     inkscape:connector-curvature="0"
     sodipodi:nodetypes="cssc" />
  <path
     style="fill:none;fill-rule:evenodd;stroke:#000000;stroke-width:1.49486;stroke-linecap:butt;stroke-linejoin:miter;stroke-miterlimit:4;stroke-dasharray:none;stroke-opacity:1"
     d="m 214.50762,410.88174 c 0,0 -1.89786,5.12639 -1.22658,7.60478 0.7062,2.60731 5.15163,6.25553 5.15163,6.25553"
     id="path4242"
     inkscape:connector-curvature="0"
     sodipodi:nodetypes="csc" />
  <path
     id="C09.9"
     style="font-size:33.2768px;font-family:'.Arial Hebrew Desk Interface';-inkscape-font-specification:'.Arial Hebrew Desk Interface, Normal';display:inline;fill:none;stroke:#000000;stroke-width:1;stroke-dasharray:none"
     d="m 618.93383,143.71544 q -2.7719,3.62043 -7.41057,3.62043 -4.18613,0 -6.84489,-2.65875 -2.60219,-2.71532 -2.60219,-6.78832 0,-4.35583 2.99817,-7.354 3.05474,-2.99817 7.24087,-2.99817 5.31751,0 8.42882,3.95985 3.16787,3.95985 3.16787,10.63501 0,7.24086 -3.28101,11.70984 -3.22446,4.46898 -8.99452,4.46898 -3.05473,0 -5.54378,-1.69709 -2.43247,-1.75366 -2.99817,-4.01642 l 4.80839,-0.7354 q 1.13138,2.14964 4.12955,2.14964 3.22446,0 5.03468,-2.7719 1.86678,-2.82846 1.86678,-7.5237 z m -0.90511,-5.93977 q 0,-2.88504 -1.47081,-4.52555 -1.41423,-1.64049 -3.95985,-1.64049 -2.20619,0 -3.79014,1.75363 -1.58393,1.69709 -1.58393,4.41241 0,2.37592 1.4708,3.95985 1.47081,1.52736 3.8467,1.52736 2.26278,0 3.84672,-1.52736 1.64051,-1.58393 1.64051,-3.95985 z m 15.97264,4.47502 A 21.750674,21.750674 0 0 1 612.25068,164.00135 21.750674,21.750674 0 0 1 590.5,142.25069 21.750674,21.750674 0 0 1 612.25068,120.5 a 21.750674,21.750674 0 0 1 21.75068,21.75069 z"
     inkscape:label="C09.9" />
  <path
     id="C09.8"
     style="font-size:33.2768px;font-family:'.Arial Hebrew Desk Interface';-inkscape-font-specification:'.Arial Hebrew Desk Interface, Normal';display:inline;fill:none;stroke:#000000;stroke-width:1;stroke-dasharray:none"
     d="m 606.21,80.958431 q -3.28102,-2.26276 -3.28102,-6.109462 0,-3.846722 2.77191,-5.883209 2.82845,-2.036487 6.50545,-2.036487 3.62044,0 6.44891,2.036487 2.82846,2.036487 2.82846,5.883209 0,3.846702 -3.28102,6.109462 v 0.05667 q 2.2062,1.018249 3.5073,3.054736 1.35765,1.97992 1.35765,4.355838 0,3.846712 -2.99816,6.618607 -2.99817,2.771895 -7.86314,2.771895 -5.03466,0 -7.97626,-2.771895 -2.88504,-2.828463 -2.88504,-6.618607 0,-2.375918 1.30111,-4.355838 1.35766,-2.036487 3.56385,-3.054736 z m 5.99634,-1.583931 q 1.69709,0 3.05474,-1.018239 1.41423,-1.018249 1.41423,-2.941609 0,-2.093066 -1.35766,-3.111305 -1.30108,-1.074827 -3.11131,-1.074827 -1.97992,0 -3.22444,1.131386 -1.24453,1.131385 -1.24453,3.054746 0,1.866782 1.35767,2.941609 1.41423,1.018239 3.1113,1.018239 z m 0,14.142317 q 2.14963,0 3.79014,-1.244522 1.64051,-1.244521 1.64051,-3.846711 0,-2.093068 -1.58393,-3.507305 -1.58394,-1.414226 -3.84672,-1.414226 -2.20619,0 -3.8467,1.414226 -1.58394,1.414237 -1.58394,3.507305 0,2.60219 1.64051,3.846711 1.64051,1.244522 3.79013,1.244522 z m 21.79499,-11.26614 A 21.750674,21.750674 0 0 1 612.25068,104.00136 21.750674,21.750674 0 0 1 590.5,82.250677 21.750674,21.750674 0 0 1 612.25068,60.5 21.750674,21.750674 0 0 1 634.00133,82.250677 Z"
     inkscape:label="C09.8" />
</svg>
