<?xml version="1.0" encoding="UTF-8" standalone="no"?>
<!-- Created with Inkscape (http://www.inkscape.org/) -->

<svg
   width="700"
   height="750"
   viewBox="0 0 700 750"
   id="svg2"
   version="1.1"
   inkscape:version="1.3 (0e150ed, 2023-07-21)"
   sodipodi:docname="level3_C73_05.01.svg"
   xmlns:inkscape="http://www.inkscape.org/namespaces/inkscape"
   xmlns:sodipodi="http://sodipodi.sourceforge.net/DTD/sodipodi-0.dtd"
   xmlns="http://www.w3.org/2000/svg"
   xmlns:svg="http://www.w3.org/2000/svg"
   xmlns:rdf="http://www.w3.org/1999/02/22-rdf-syntax-ns#"
   xmlns:cc="http://creativecommons.org/ns#"
   xmlns:dc="http://purl.org/dc/elements/1.1/">
  <defs
     id="defs4">
    <inkscape:path-effect
       effect="spiro"
       id="path-effect4169"
       is_visible="true"
       lpeversion="0" />
    <inkscape:path-effect
       effect="spiro"
       id="path-effect4165"
       is_visible="true"
       lpeversion="0" />
    <inkscape:path-effect
       effect="spiro"
       id="path-effect4161"
       is_visible="true"
       lpeversion="0" />
    <inkscape:path-effect
       effect="spiro"
       id="path-effect4157"
       is_visible="true"
       lpeversion="0" />
    <inkscape:path-effect
       effect="spiro"
       id="path-effect4153"
       is_visible="true"
       lpeversion="0" />
    <inkscape:path-effect
       effect="spiro"
       id="path-effect4149"
       is_visible="true"
       lpeversion="0" />
  </defs>
  <sodipodi:namedview
     id="base"
     pagecolor="#ffffff"
     bordercolor="#666666"
     borderopacity="1.0"
     inkscape:pageopacity="0.0"
     inkscape:pageshadow="2"
     inkscape:zoom="0.64033632"
     inkscape:cx="220.97763"
     inkscape:cy="359.96709"
     inkscape:document-units="px"
     inkscape:current-layer="layer8"
     showgrid="false"
     inkscape:window-width="1344"
     inkscape:window-height="668"
     inkscape:window-x="0"
     inkscape:window-y="25"
     inkscape:window-maximized="0"
     inkscape:showpageshadow="2"
     inkscape:pagecheckerboard="0"
     inkscape:deskcolor="#d1d1d1" />
  <metadata
     id="metadata7">
    <rdf:RDF>
      <cc:Work
         rdf:about="">
        <dc:format>image/svg+xml</dc:format>
        <dc:type
           rdf:resource="http://purl.org/dc/dcmitype/StillImage" />
      </cc:Work>
    </rdf:RDF>
  </metadata>
  <g
     inkscape:groupmode="layer"
     id="layer8"
     inkscape:label="Schilddrüse"
     transform="matrix(4.0177124,0,0,4.0177124,-1875.754,-1144.2683)"
     style="stroke-width:0.24889786;stroke-dasharray:none">
    <path
       style="fill:none;stroke:#000000;stroke-width:0.24889786;stroke-dasharray:none"
       d="m 497.33723,307.66228 c -3.89869,1.38802 -4.23585,3.17691 -6.35859,7.42241 -0.55956,1.11912 -0.90917,3.61332 -1.4024,4.59978 -0.96458,1.92915 -2.8412,4.42052 -3.15813,6.50196 -0.53779,3.53191 -0.63971,7.48847 -1.50451,9.96372 -0.8648,2.47525 2.27836,3.42099 0.34018,6.99909 -2.60531,5.02159 -2.90385,12.41659 -0.76663,16.13599 2.13721,3.71941 -1.31201,8.63856 -0.7771,10.41626 0.68006,2.26007 2.44901,2.13213 2.44901,4.81178 -0.0132,0.83132 -1.74875,3.31959 -0.73004,4.83477 1.01872,1.51517 1.52178,1.91458 1.86664,2.60431 0.34426,0.68849 -0.39769,2.45897 -0.39769,3.24582 -0.60024,3.26667 0.93117,3.18377 2.05911,5.43966 0.52833,1.05664 -0.35541,4.23278 0.0658,6.24471 0.0387,2.16341 1.6039,3.18191 2.0094,5.14924 0.35559,1.72515 0.32812,2.71 1.12047,4.01956 0.79235,1.30957 1.80421,1.33522 1.74369,1.6623 -0.482,2.60519 -0.46643,2.89984 -0.14384,4.23775 0.32258,1.33792 1.37781,2.81583 2.56576,3.67242 1.18795,0.8566 0.86844,1.67168 1.06618,3.20342 0.19772,1.53175 0.35514,3.17745 1.67306,4.21083 1.31794,1.03337 1.7547,1.09625 2.95625,1.67795 0.53988,0.26137 1.31995,1.18679 1.94308,2.12258 0.61222,0.9194 0.81396,2.29532 1.72854,3.7646 0.78084,1.25445 1.97695,1.97207 3.28088,3.276 1.17295,1.17295 1.82466,3.32886 2.76453,4.6293 2.01835,2.79264 7.82762,5.71645 9.65913,6.06092 1.83151,0.34448 5.7653,0.52217 8.7651,-0.79455 2.58329,-1.13389 3.95672,-2.836 6.19129,-5.74868 0.72513,-0.94516 0.73063,-1.76637 1.52915,-2.41814 0.67501,-0.55094 1.99917,-0.63019 3.15576,-1.78677 1.43272,-1.43273 1.45671,-3.38462 2.68132,-5.22153 1.22644,-1.83966 3.67189,-3.10604 5.36265,-3.95142 4.83128,-3.46729 3.1903,-5.3904 9.73745,-2.11684 1.22039,0.61021 2.80639,0.2662 3.81029,1.2701 0.9974,0.9974 2.20109,2.42646 2.96357,3.95144 0.33428,0.66854 0.57234,1.56018 0.98786,1.97571 1.13356,1.13355 3.60219,1.06198 4.65704,2.11683 0.68006,0.68006 1.34515,2.21174 1.74924,3.01989 2.68312,4.92953 10.38028,12.90946 15.6953,8.66482 0.72814,-0.58151 3.78095,-0.0707 4.71167,-0.53604 1.09008,-0.54504 1.76236,-1.76236 2.68132,-2.68133 0.66236,-0.66235 1.54012,-1.41784 2.2318,-1.76367 0.62359,-0.30888 2.26222,-0.65175 2.58286,-0.75863 1.81521,-0.60507 2.64876,-0.95753 3.37045,-3.12259 0.28683,-0.86052 0.33978,-2.08252 0.73176,-2.86652 1.18427,-2.36855 3.80768,-4.84301 5.27453,-5.6986 1.46685,-0.85559 0.34044,-2.27092 1.35822,-3.32496 1.42146,-1.47213 3.10487,-1.88252 3.78415,-2.22216 2.14641,-1.07321 2.57509,-5.11804 3.62327,-6.20985 1.04818,-1.09181 0.91261,-2.21509 1.77194,-5.4404 0.85933,-3.22533 2.73291,-4.43701 3.21452,-9.27113 0.17874,-1.79409 -0.84414,-3.69152 -1.13025,-4.1984 -0.2861,-0.50688 -0.33939,-1.89721 0.0172,-2.61041 1.98885,-3.97775 2.23301,-6.43349 2.66412,-8.39714 0.41882,-1.90768 -0.13689,-3.78084 0.22029,-6.16531 0.35717,-2.3845 1.66498,-4.6644 2.4872,-7.22411 0.63324,-1.9714 -2.20911,-3.65095 -1.23501,-5.47691 0.70214,-1.31615 1.08739,-3.10943 0.50323,-4.27773 -0.3153,-0.6306 -0.99351,-1.51628 -0.15078,-3.20175 0.84274,-1.68547 0.51312,-6.71073 0.57416,-8.93478 0.061,-2.22404 -0.35641,-2.04557 -0.76687,-2.8665 -0.57276,-1.14551 -1.34038,-1.91248 -1.91446,-3.06063 -0.57409,-1.14816 1.67812,-8.83317 0.961,-10.62895 -0.71713,-1.79577 -0.0178,-2.9552 -0.3614,-3.38693 -0.35497,-0.446 -1.31797,-0.54763 -1.86971,-1.36646 -0.74709,-1.10874 0.72525,-3.96572 -0.21132,-4.88627 -2.1076,-2.07152 -0.33145,-1.86515 -0.75038,-3.52947 -0.53596,-2.12927 -1.74291,-3.53523 -2.2655,-5.01493 -0.5226,-1.4797 -0.8327,-2.9506 -2.92584,-5.01511 -2.09313,-2.06452 -5.63498,-3.04477 -7.44771,-1.77877 -2.40839,1.68202 -0.82778,4.17219 -1.78158,6.39456 -0.98138,2.28664 -2.03439,4.6835 -2.4827,5.58009 -2.04188,4.08383 -1.07387,4.384 -1.60985,5.99194 -0.45252,1.35755 -1.09078,2.75259 -2.95937,4.17617 -1.86861,1.4236 -0.29022,5.56505 -2.40328,7.67811 -2.19908,2.1991 -4.39776,4.48587 -4.78367,7.44782 -0.38593,2.96194 0.45524,5.6302 -1.00234,7.08778 -0.99419,0.99418 -1.678,1.64704 -2.11683,2.96357 -0.30842,0.92521 -0.13116,2.00938 -0.28225,2.96357 -0.55804,3.5241 -2.39296,4.88484 -4.84561,8.42808 -2.45264,3.54326 -0.52371,6.81031 -5.32582,12.28948 -3.03177,3.45923 -7.22776,10.45927 -8.37532,10.50444 -1.14755,0.0452 -1.19956,-0.59731 -2.34345,0.3976 -1.14389,0.9949 -2.46642,2.23951 -4.3707,2.24977 -1.90429,0.01 -7.52193,0.95307 -12.13653,1.97571 -5.83104,1.29223 -9.10411,-2.32541 -13.68887,-5.22152 -0.71459,-0.4514 -3.012,-1.25977 -5.42646,-1.94586 -2.41445,-0.6861 -4.58096,-12.71861 -7.13342,-15.27107 -1.58964,-1.58964 -4.02461,-3.64189 -6.07645,-5.84574 -2.05183,-2.20384 -2.81427,-4.16332 -2.81427,-8.83099 0,-1.00485 0.25187,-1.95608 0,-2.96357 -0.32398,-1.29592 -1.21756,-2.15289 -1.69346,-3.10469 -0.43836,-0.87671 -0.58721,-1.44311 -0.11122,-4.27171 0.47595,-2.82861 1.51668,-3.78388 0.39351,-6.03022 -1.502,-3.00398 -4.56599,-4.48581 -5.91485,-6.45358 -1.89143,-2.75926 -3.07017,-4.6662 -4.47258,-6.66261 -1.59743,-2.5061 -1.06602,-5.61772 -0.90236,-8.47553 0,-1.54476 -0.93496,-2.77195 -0.84674,-4.93929 0.0882,-2.16734 -0.37739,-4.10742 -1.86731,-5.22699 -1.61106,-1.29245 -3.77715,-1.12164 -5.69943,-0.83687 z"
       id="C73"
       inkscape:label="C73" />
    <path
       style="fill:none;stroke:#000000;stroke-width:0.24889786;stroke-dasharray:none"
       d="m 504.873,314.2351 c 0.59883,4.55486 -0.36621,8.60737 -1.07756,11.22438 -0.71136,2.617 -1.55152,3.79655 -1.87526,4.69962 -0.39102,1.09076 -0.47973,1.44591 -2.2146,3.26916 -1.78628,1.87729 -6.72282,0.57991 -8.3311,3.79646"
       id="path38" />
    <path
       style="fill:none;stroke:#000000;stroke-width:0.24889786;stroke-dasharray:none"
       d="m 493.86489,407.7854 c 1.2162,0.17034 2.66224,0.70799 4.56952,0.69633 1.90728,-0.0112 4.12196,-1.54697 5.08669,-2.59509 0.96471,-1.04813 1.13065,-1.90837 1.20743,-2.76921"
       id="path35" />
    <path
       style="fill:none;stroke:#000000;stroke-width:0.24889786;stroke-dasharray:none"
       d="m 552.18522,393.84124 c -0.13073,2.77359 -0.31661,4.75979 -1.21515,8.13223 -0.89855,3.37245 -3.49754,6.91708 -8.13224,6.91708"
       id="path34" />
    <path
       style="fill:none;stroke:#000000;stroke-width:0.24889786;stroke-dasharray:none"
       d="m 538.42635,435.3437 c -2.36801,-0.19138 -3.52365,-0.30059 -4.53006,-1.70137 -1.00642,-1.40077 -2.20795,-3.58529 -2.74272,-4.65486"
       id="path32" />
    <path
       style="fill:none;stroke:#000000;stroke-width:0.24889786;stroke-dasharray:none"
       d="m 573.29602,388.46117 c 0.41105,1.28045 2.20375,3.42543 3.10637,5.42383 0.87371,1.93441 1.38066,3.36827 2.55212,3.71188 2.78158,0.81588 4.43832,1.28312 6.19407,3.53558"
       id="path31" />
    <path
       style="fill:none;stroke:#000000;stroke-width:0.24889786;stroke-dasharray:none"
       d="m 571.26523,431.73335 c 0.14946,-0.91468 1.06907,-2.87139 1.98968,-3.77532 1.5987,-1.56973 3.13849,-2.20532 4.10606,-5.10802 0.96756,-2.90269 -4.93581,-8.18909 -4.93581,-12.28467"
       id="path30" />
    <path
       style="fill:none;stroke:#000000;stroke-width:0.24889786;stroke-dasharray:none"
       d="m 577.36097,382.92482 c 2.72473,0.51853 4.71681,0.82186 6.31745,1.35542 1.60066,0.53355 2.45861,0.40405 4.21227,0.61893 1.75365,0.21488 2.92984,0.62157 4.30551,1.99725 1.37569,1.37567 0.0259,3.68708 -0.57956,5.296 -0.6055,1.60891 -0.17571,3.27812 -1.02477,6.78889"
       id="path29" />
    <path
       style="fill:none;stroke:#000000;stroke-width:0.24889786;stroke-dasharray:none"
       d="m 586.23501,384.74767 c 2.65769,-0.15325 7.85303,-0.66854 7.85303,-3.76533"
       id="path28" />
    <path
       style="fill:none;stroke:#000000;stroke-width:0.24889786;stroke-dasharray:none"
       d="m 588.87786,443.4498 c 0.90446,-1.78727 2.17657,-4.32404 1.93258,-6.87349 -0.21151,-2.20999 -2.31555,-2.9146 -3.81296,-3.76073 -1.4974,-0.84612 -2.24374,-2.31907 -2.83606,-3.16511 -0.59233,-0.84605 -0.73094,-1.35751 -0.87749,-2.63243"
       id="path27" />
    <path
       style="fill:none;stroke:#000000;stroke-width:0.24889786;stroke-dasharray:none"
       d="m 627.1413,373.90869 c -2.12934,2.27638 -2.90464,3.75644 -4.19446,4.18171 -1.2898,0.42527 -3.79856,0.51698 -4.84165,-0.28177"
       id="path25" />
    <path
       style="fill:none;stroke:#000000;stroke-width:0.24889786;stroke-dasharray:none"
       d="m 618.61998,358.37992 c 0.49575,2.42981 2.97915,3.47655 5.05331,3.89004 2.34448,0.46737 3.32835,1.60281 3.15602,4.3178"
       id="path24" />
    <path
       style="fill:none;stroke:#000000;stroke-width:0.24889786;stroke-dasharray:none"
       d="m 604.31093,326.18665 c -0.5086,2.38363 1.87022,5.494 1.11213,7.7683 -0.75605,2.26814 -2.74791,4.53781 -3.18042,6.06266 -0.4325,1.52485 -0.62,6.41834 -1.19263,9.0443 -0.57264,2.62595 -1.9457,6.03902 -2.28583,7.67322 -0.22022,1.05797 -0.19192,1.8618 0.3776,3.15986"
       id="path23" />
    <path
       style="fill:none;stroke:#000000;stroke-width:0.24889786;stroke-dasharray:none"
       d="m 622.08279,316.87958 c -0.5961,1.65815 -0.98185,2.653 -2.01357,3.26949 -1.03172,0.6165 -3.58065,1.05042 -5.06232,0.34979 -1.48168,-0.70063 -2.00244,-0.89873 -2.53387,-1.43014 -0.53143,-0.53141 -1.04541,-2.02784 -1.06476,-2.56668"
       id="path21" />
    <path
       style="fill:none;stroke:#000000;stroke-width:0.24889786;stroke-dasharray:none"
       d="m 605.4524,331.60479 c 1.59226,1.17201 2.72016,1.40678 3.94618,1.45564 1.22603,0.0488 2.66759,-1.06638 4.31166,-2.44965 1.68826,-1.42045 2.09,-3.62148 2.09,-5.37861"
       id="path20" />
    <path
       style="fill:none;stroke:#000000;stroke-width:0.24889786;stroke-dasharray:none"
       d="m 619.25716,333.53161 c 0.0607,-2.49658 2.38084,-5.59388 4.66722,-6.02418"
       id="path19" />
  </g>
</svg>
