<?xml version="1.0" encoding="UTF-8" standalone="no"?>
<!-- Created with Inkscape (http://www.inkscape.org/) -->

<svg
   xmlns:dc="http://purl.org/dc/elements/1.1/"
   xmlns:cc="http://creativecommons.org/ns#"
   xmlns:rdf="http://www.w3.org/1999/02/22-rdf-syntax-ns#"
   xmlns:svg="http://www.w3.org/2000/svg"
   xmlns="http://www.w3.org/2000/svg"
   xmlns:sodipodi="http://sodipodi.sourceforge.net/DTD/sodipodi-0.dtd"
   xmlns:inkscape="http://www.inkscape.org/namespaces/inkscape"
   id="svg4136"
   version="1.1"
   inkscape:version="0.91 r13725"
   width="300"
   height="300"
   viewBox="0 0 300 300"
   sodipodi:docname="piriform sinus_C12.svg">
  <metadata
     id="metadata4142">
    <rdf:RDF>
      <cc:Work
         rdf:about="">
        <dc:format>image/svg+xml</dc:format>
        <dc:type
           rdf:resource="http://purl.org/dc/dcmitype/StillImage" />
        <dc:title></dc:title>
      </cc:Work>
    </rdf:RDF>
  </metadata>
  <defs
     id="defs4140" />
  <sodipodi:namedview
     pagecolor="#ffffff"
     bordercolor="#666666"
     borderopacity="1"
     objecttolerance="10"
     gridtolerance="10"
     guidetolerance="10"
     inkscape:pageopacity="0"
     inkscape:pageshadow="2"
     inkscape:window-width="1366"
     inkscape:window-height="706"
     id="namedview4138"
     showgrid="false"
     inkscape:zoom="1.9985071"
     inkscape:cx="135.02879"
     inkscape:cy="174.83564"
     inkscape:window-x="-8"
     inkscape:window-y="-8"
     inkscape:window-maximized="1"
     inkscape:current-layer="svg4136" />
  <path
     id="C12"
     style="opacity:0.98000004;fill:none;fill-rule:evenodd;stroke:#000000;stroke-width:0.60000002;stroke-linecap:butt;stroke-linejoin:miter;stroke-miterlimit:4;stroke-dasharray:none;stroke-opacity:1"
     d="m 130.22582,125.14638 -2.96574,2.91178 -1.54917,3.32932 -1.16645,7.07661 0.76693,5.96803 3.08389,7.77411 1.53148,4.09847 2.45564,2.14988 -0.50902,-6.24538 2.58597,-9.57338 0.26708,-9.43658 -2.31264,-6.10812 z m 34.5247,-1.21959 -2.70992,4.71609 -2.84318,9.15682 0.24846,9.15947 2.82818,5.83102 0.50805,7.2168 2.57916,-2.77333 0.26181,-4.16306 2.58304,-6.65907 1.29707,-8.88061 -0.76263,-10.2701 z"
     inkscape:connector-curvature="0"
     sodipodi:nodetypes="cccccccccccccacccccccccca"
     inkscape:label="#path4148" />
  <path
     style="fill:none;fill-rule:evenodd;stroke:#000000;stroke-width:0.60000002;stroke-linecap:butt;stroke-linejoin:miter;stroke-miterlimit:4;stroke-dasharray:none;stroke-opacity:1"
     d="m 134.6222,108.63573 -0.26236,4.71816 2.5725,3.88795 2.06235,-1.24723 2.70088,4.30436 -0.002,1.94287 5.92163,4.02956 0.63883,5.27405 1.54429,1.52786 1.54735,-1.52523 0.52056,-5.27306 5.54352,-4.29736 1.22034,-6.42778 2.94497,-2.27702 1.51563,-4.19657 -1.92978,-2.49962 -2.05486,-6.24669 0.7846,-11.656565 -1.28138,-6.801129 -3.2159,-4.58236 -11.72238,-0.148759 -3.09456,2.911669 -0.78277,9.852455 -0.7818,8.881038 -2.19521,5.271631 z"
     id="path4151"
     inkscape:connector-curvature="0"
     sodipodi:nodetypes="cccccccccccccccccccccccccc" />
  <path
     style="fill:none;fill-rule:evenodd;stroke:#000000;stroke-width:0.60000002;stroke-linecap:butt;stroke-linejoin:miter;stroke-miterlimit:4;stroke-dasharray:none;stroke-opacity:1"
     d="m 148.01587,56.772276 -3.27114,-8.04943 -6.37227,-3.930615 -6.56074,2.349529 -6.56507,6.667237 -3.47059,9.221246 -0.91896,8.045861 0.53573,10.794727 1.62702,12.562009 4.54502,9.42433 3.64136,2.16195 3.4657,-4.31476 0.37417,-9.812659 1.46646,-9.026692 2.1928,-6.670958 2.73583,-3.137825 5.6467,0.789848 2.73167,0.98362 3.8271,-1.370562 6.19344,0.594052 2.72558,7.06767 1.26405,11.187872 -0.55419,7.65364 3.09366,3.339054 6.37936,-3.13472 5.11059,-9.612368 2.56817,-17.661178 -0.17058,-11.579459 -3.27017,-9.030727 -5.40633,-5.82777 -9.6746,-1.577985 -6.23066,4.247459 -3.10488,7.847739 c 0,0 -1.02257,2.938265 -2.18906,2.942031 -1.25189,0.0041 -2.36517,-3.142166 -2.36517,-3.142166 z"
     id="path4153"
     inkscape:connector-curvature="0"
     sodipodi:nodetypes="cccccccccccccccccccccccccccccccccsc" />
  <path
     style="fill:none;fill-rule:evenodd;stroke:#000000;stroke-width:0.60000002;stroke-linecap:butt;stroke-linejoin:miter;stroke-miterlimit:4;stroke-dasharray:none;stroke-opacity:1"
     d="m 113.16656,24.649232 -1.57279,18.746382 -0.93721,26.297985 -1.66043,20.802104 -0.56186,15.307767 3.08209,14.91835 4.54107,13.34953 2.90619,8.63789 5.81807,11.58428 8.36975,10.40887 7.27805,9.03414 6.18303,10.9958 2.17315,12.955 2.56346,-12.95097 7.30085,-13.73196 8.75432,-9.80553 8.75847,-13.92696 5.59288,-15.46609 4.33984,-11.75792 1.99924,-26.527012 0.99793,-24.509483 0.0951,-19.572478 -0.60343,-18.591777 -0.42949,-10.301106"
     id="path4155"
     inkscape:connector-curvature="0"
     sodipodi:nodetypes="cccccccccccccccccccccccc" />
  <path
     style="fill:none;fill-rule:evenodd;stroke:#000000;stroke-width:0.60000002;stroke-linecap:butt;stroke-linejoin:miter;stroke-miterlimit:4;stroke-dasharray:none;stroke-opacity:1"
     d="m 100.14352,16.498302 5.82967,0.0049 7.27884,8.249099 5.46433,0.98595 1.09012,2.944823 2.19045,-4.315847 13.1148,1.973761 9.83896,-1.365441 11.65973,-0.382591 11.29381,1.187172 4.92077,-1.958406 4.91741,1.378004 4.00691,0.984709 2.37204,-3.726914 9.8421,-4.505591 6.55798,0.398103 -0.57896,32.382339 0.14073,41.410889 -2.0344,30.418499 -3.48438,22.9594 -8.04074,24.91813 -7.85779,24.13325 -5.48379,18.44374 -2.1928,6.67095 -0.0206,20.60724 -5.28858,5.03445 -6.82233,-1.35848 -9.93095,-1.17243 -9.78971,0.83941 -7.33166,0.96851 -4.01378,-3.36692 -2.89951,-15.31073 -3.26287,-16.2923 -5.45354,-11.78022 -8.36523,-14.92285 -5.08642,-14.52755 -3.989037,-18.84432 -2.88202,-32.77781 1.312377,-37.091937 -0.707101,-21.58916 2.756838,-24.137583 z"
     id="path4157"
     inkscape:connector-curvature="0"
     sodipodi:nodetypes="cccccccccccccccccccccccccccccccccccccccccc" />
  <path
     style="fill:none;fill-rule:evenodd;stroke:#000000;stroke-width:0.60000002;stroke-linecap:butt;stroke-linejoin:miter;stroke-miterlimit:4;stroke-dasharray:none;stroke-opacity:1"
     d="m 112.2912,191.01637 1.88911,10.14097 4.89026,16.66624 2.01299,16.13658 -1.72478,15.94041 0.33301,14.58202 0.40879,8.88103 6.87487,5.568 13.79519,5.82653 19.00445,-2.48814 11.2513,-8.50743 2.46839,-10.65932 0.27208,-15.71318 1.08927,-14.51471 0.39563,-16.09148 2.30183,-10.86703 1.90586,-13.93124"
     id="path4159"
     inkscape:connector-curvature="0"
     sodipodi:nodetypes="ccccccccccccccccc" />
  <path
     style="fill:none;fill-rule:evenodd;stroke:#000000;stroke-width:0.60000002;stroke-linecap:butt;stroke-linejoin:miter;stroke-miterlimit:4;stroke-dasharray:none;stroke-opacity:1"
     d="m 127.31454,238.56602 2.84524,-4.45694 8.07912,-2.97091 11.25163,-1.1086 12.12213,1.58115 7.00378,2.68064 2.30542,3.00588"
     id="path4161"
     inkscape:connector-curvature="0"
     sodipodi:nodetypes="ccccccc" />
  <path
     style="fill:none;fill-rule:evenodd;stroke:#000000;stroke-width:0.60000002;stroke-linecap:butt;stroke-linejoin:miter;stroke-miterlimit:4;stroke-dasharray:none;stroke-opacity:1"
     d="m 133.59887,238.35329 4.8155,-3.22486 10.80953,-1.27637 8.0735,1.01471 6.14827,2.49872 -1.26325,1.96958 -7.10166,0.72506 -7.49032,-0.94774 -7.01973,0.18678 -5.47323,1.32713 z"
     id="path4163"
     inkscape:connector-curvature="0"
     sodipodi:nodetypes="ccccccccccc" />
  <path
     style="fill:none;fill-rule:evenodd;stroke:#000000;stroke-width:0.60000002;stroke-linecap:butt;stroke-linejoin:miter;stroke-miterlimit:4;stroke-dasharray:none;stroke-opacity:1"
     d="m 119.66276,262.6403 5.13231,-7.46312 11.91759,-7.67658 11.3118,-2.20717 12.94723,2.62259 8.23772,4.47711 2.99825,8.46113 1.08379,3.07723"
     id="path4165"
     inkscape:connector-curvature="0"
     sodipodi:nodetypes="cccccccc" />
  <path
     style="fill:none;fill-rule:evenodd;stroke:#000000;stroke-width:0.60000002;stroke-linecap:butt;stroke-linejoin:miter;stroke-miterlimit:4;stroke-dasharray:none;stroke-opacity:1"
     d="m 135.56174,252.93413 -7.55638,5.60238 -3.75552,6.0492 1.7414,5.82055 9.07059,5.51569 14.09808,1.91129 13.31072,-4.43677 3.69494,-7.62725 -3.40708,-10.25882 -8.2226,-4.67289 -8.49518,-1.14916 -7.29894,2.27444 z"
     id="path4167"
     inkscape:connector-curvature="0" />
  <path
     style="fill:none;fill-rule:evenodd;stroke:#000000;stroke-width:0.60000002;stroke-linecap:butt;stroke-linejoin:miter;stroke-miterlimit:4;stroke-dasharray:none;stroke-opacity:1"
     d="m 138.05807,150.8267 -1.03916,8.60326 5.65941,8.60895 3.60442,2.50105 0.78041,-7.49327 -1.02136,-9.16011 -3.08778,-3.88838 z"
     id="path4169"
     inkscape:connector-curvature="0" />
  <path
     style="fill:none;fill-rule:evenodd;stroke:#000000;stroke-width:0.60000002;stroke-linecap:butt;stroke-linejoin:miter;stroke-miterlimit:4;stroke-dasharray:none;stroke-opacity:1"
     d="m 152.74341,150.83921 -2.8379,3.88332 -1.04001,9.43592 1.02417,6.38458 5.67082,-2.77071 1.81317,-9.71281 -0.76818,-4.71904 z"
     id="path4171"
     inkscape:connector-curvature="0" />
  <path
     style="fill:none;fill-rule:evenodd;stroke:#000000;stroke-width:0.60000002;stroke-linecap:butt;stroke-linejoin:miter;stroke-miterlimit:4;stroke-dasharray:none;stroke-opacity:1"
     d="m 119.82394,28.410315 -1.50004,18.594773 -1.05418,23.591109 2.8468,-12.765018 5.9365,-10.819512 7.66973,-4.989424 5.86156,-0.956582 3.47696,1.797192 1.73306,5.997606"
     id="path4173"
     inkscape:connector-curvature="0"
     sodipodi:nodetypes="ccccccccc" />
  <path
     style="fill:none;fill-rule:evenodd;stroke:#000000;stroke-width:0.60000002;stroke-linecap:butt;stroke-linejoin:miter;stroke-miterlimit:4;stroke-dasharray:none;stroke-opacity:1"
     d="m 155.42094,49.8122 2.00027,-6.937941 5.21857,-1.975505 7.53739,0.924979 5.9882,3.797885 4.50211,6.154946 2.81817,15.822917 0.0136,-13.600082 0.26763,-9.991679 -1.01999,-10.547882 -0.99102,-7.321304"
     id="path4175"
     inkscape:connector-curvature="0"
     sodipodi:nodetypes="ccccccccccc" />
  <path
     style="fill:none;fill-rule:evenodd;stroke:#000000;stroke-width:0.60000002;stroke-linecap:butt;stroke-linejoin:miter;stroke-miterlimit:4;stroke-dasharray:none;stroke-opacity:1"
     d="m 105.98775,16.567839 -1.05211,21.544154 -2.34902,30.251278 -0.0303,30.253244 1.26457,23.593085 6.42065,20.26683 8.74191,17.77083 11.83382,17.49591 11.31993,16.10773 2.04554,15.5447 -0.51888,3.60775"
     id="path4177"
     inkscape:connector-curvature="0"
     sodipodi:nodetypes="ccccccccccc" />
  <path
     style="fill:none;fill-rule:evenodd;stroke:#000000;stroke-width:0.60000002;stroke-linecap:butt;stroke-linejoin:miter;stroke-miterlimit:4;stroke-dasharray:none;stroke-opacity:1"
     d="m 193.87295,18.06512 0.71418,26.506919 -0.55111,35.803865 -1.84681,43.296696 -13.43274,35.51535 -11.61452,20.80658 -11.86856,17.19818 -2.84597,11.93235 1.02611,4.44171"
     id="path4179"
     inkscape:connector-curvature="0"
     sodipodi:nodetypes="ccccccccc" />
  <path
     style="fill:none;fill-rule:evenodd;stroke:#000000;stroke-width:0.60000002;stroke-linecap:butt;stroke-linejoin:miter;stroke-miterlimit:4;stroke-dasharray:none;stroke-opacity:1"
     d="m 116.48488,82.530301 0.50302,12.212756 -2.58025,3.883557 -2.7654,-1.225542 -1.00482,-4.136561"
     id="path4181"
     inkscape:connector-curvature="0"
     sodipodi:nodetypes="ccccc" />
  <path
     style="fill:none;fill-rule:evenodd;stroke:#000000;stroke-width:0.60000002;stroke-linecap:butt;stroke-linejoin:miter;stroke-miterlimit:4;stroke-dasharray:none;stroke-opacity:1"
     d="m 119.81609,100.57408 3.33623,13.04783 -0.78458,11.65656 -2.83901,4.99353 -4.63332,-4.16723"
     id="path4183"
     inkscape:connector-curvature="0" />
  <path
     style="fill:none;fill-rule:evenodd;stroke:#000000;stroke-width:0.60000002;stroke-linecap:butt;stroke-linejoin:miter;stroke-miterlimit:4;stroke-dasharray:none;stroke-opacity:1"
     d="m 176.75205,102.56543 -0.78373,10.8239 1.27706,11.10319 4.89678,-1.66113 2.32487,-6.10419"
     id="path4185"
     inkscape:connector-curvature="0" />
  <path
     style="fill:none;fill-rule:evenodd;stroke:#000000;stroke-width:0.60000002;stroke-linecap:butt;stroke-linejoin:miter;stroke-miterlimit:4;stroke-dasharray:none;stroke-opacity:1"
     d="m 181.40955,82.585577 -1.81263,9.157699 1.53944,6.385029 4.51571,-1.225452 1.01976,-3.382407"
     id="path4187"
     inkscape:connector-curvature="0"
     sodipodi:nodetypes="ccccc" />
  <path
     style="fill:none;fill-rule:evenodd;stroke:#000000;stroke-width:0.60000002;stroke-linecap:butt;stroke-linejoin:miter;stroke-miterlimit:4;stroke-dasharray:none;stroke-opacity:1"
     d="m 104.81143,162.17806 6.42705,13.88312 11.06034,18.05037 5.66052,7.49874 5.91373,11.93981"
     id="path4189"
     inkscape:connector-curvature="0" />
  <path
     style="fill:none;fill-rule:evenodd;stroke:#000000;stroke-width:0.60000002;stroke-linecap:butt;stroke-linejoin:miter;stroke-miterlimit:4;stroke-dasharray:none;stroke-opacity:1"
     d="m 187.51837,156.97497 -7.74719,18.03435 -10.06343,15.5344 -6.97038,14.14927 -1.04054,9.99102"
     id="path4191"
     inkscape:connector-curvature="0" />
  <path
     style="fill:none;fill-rule:evenodd;stroke:#000000;stroke-width:0.60000002;stroke-linecap:butt;stroke-linejoin:miter;stroke-miterlimit:4;stroke-dasharray:none;stroke-opacity:1"
     d="m 143.96124,173.31351 3.34317,6.10901 4.63831,-0.8287 3.09942,-7.76884 -5.41456,4.15868 -3.09026,-1.3904 z"
     id="path4193"
     inkscape:connector-curvature="0" />
  <path
     style="fill:none;fill-rule:evenodd;stroke:#000000;stroke-width:0.60000002;stroke-linecap:butt;stroke-linejoin:miter;stroke-miterlimit:4;stroke-dasharray:none;stroke-opacity:1"
     d="m 132.93865,117.51598 5.59819,9.8522 5.30096,5.16067 6.11806,5.13894 5.68994,-5.07721 4.76672,-5.50721 6.27833,-11.20396"
     id="path4195"
     inkscape:connector-curvature="0"
     sodipodi:nodetypes="ccccccc" />
</svg>
