<?xml version="1.0" encoding="UTF-8" standalone="no"?>
<!-- Created with Inkscape (http://www.inkscape.org/) -->

<svg
   width="700"
   height="750"
   viewBox="0 0 700 750"
   id="svg6614"
   version="1.1"
   inkscape:version="1.3 (0e150ed, 2023-07-21)"
   sodipodi:docname="level3_C56.svg"
   xmlns:inkscape="http://www.inkscape.org/namespaces/inkscape"
   xmlns:sodipodi="http://sodipodi.sourceforge.net/DTD/sodipodi-0.dtd"
   xmlns="http://www.w3.org/2000/svg"
   xmlns:svg="http://www.w3.org/2000/svg"
   xmlns:rdf="http://www.w3.org/1999/02/22-rdf-syntax-ns#"
   xmlns:cc="http://creativecommons.org/ns#"
   xmlns:dc="http://purl.org/dc/elements/1.1/">
  <defs
     id="defs6616" />
  <sodipodi:namedview
     id="base"
     pagecolor="#ffffff"
     bordercolor="#666666"
     borderopacity="1.0"
     inkscape:pageopacity="0.0"
     inkscape:pageshadow="2"
     inkscape:zoom="0.6529652"
     inkscape:cx="351.47356"
     inkscape:cy="268.7739"
     inkscape:document-units="px"
     inkscape:current-layer="layer1"
     showgrid="false"
     inkscape:window-width="1440"
     inkscape:window-height="900"
     inkscape:window-x="0"
     inkscape:window-y="0"
     inkscape:window-maximized="0"
     inkscape:showpageshadow="2"
     inkscape:pagecheckerboard="0"
     inkscape:deskcolor="#d1d1d1" />
  <metadata
     id="metadata6619">
    <rdf:RDF>
      <cc:Work
         rdf:about="">
        <dc:format>image/svg+xml</dc:format>
        <dc:type
           rdf:resource="http://purl.org/dc/dcmitype/StillImage" />
      </cc:Work>
    </rdf:RDF>
  </metadata>
  <g
     inkscape:label="Laag 1"
     inkscape:groupmode="layer"
     id="layer1"
     transform="translate(0,10.629921)">
    <path
       style="fill:none;fill-rule:evenodd;stroke:#000000;stroke-width:1;stroke-linecap:butt;stroke-linejoin:miter;stroke-miterlimit:4;stroke-dasharray:none;stroke-opacity:1"
       d="m 225.14412,283.37377 c 7.46969,-17.51943 25.09894,-27.38472 41.49479,-35.17167 30.6717,-14.56705 47.96783,-18.86335 81.7753,-18.53317 25.99759,0.2539 57.10316,3.03722 79.77139,12.92808 15.52688,6.77487 44.08215,24.12153 51.90988,40.46646 -13.05124,4.01941 -42.39751,6.29493 -54.0163,6.96017 -27.31025,1.56367 -49.80842,0.31043 -76.95852,0.71277 -19.96198,0.29582 -50.06771,-0.80835 -70.01658,-0.27036 -17.59005,0.47437 -36.8297,-3.71641 -53.95996,-7.09228 z"
       id="3"
       inkscape:connector-curvature="0"
       inkscape:label="#path5952"
       sodipodi:nodetypes="cssscsssc" />
    <path
       id="2"
       style="fill:none;fill-rule:evenodd;stroke:#000000;stroke-width:1;stroke-linecap:butt;stroke-linejoin:miter;stroke-miterlimit:4;stroke-dasharray:none;stroke-opacity:1"
       d="m 481.59507,292.48935 0.31037,6.33529 c 0,0 -3.48317,3.66365 -4.96583,5.70176 -3.18901,4.38371 -5.59237,9.28829 -8.37984,13.93767 -3.73215,6.22506 -8.04061,12.14181 -11.17312,18.68915 -3.35183,7.00573 -5.61934,14.48713 -8.06947,21.85679 -2.64061,7.94261 -4.64913,16.08281 -7.13837,24.07415 -3.07218,9.86276 -5.53129,19.97315 -9.62129,29.45915 -3.85539,8.94188 -9.54627,16.98135 -13.9664,25.65797 -3.60884,7.08408 -7.89831,13.94299 -10.24202,21.54003 -1.38611,4.49304 -1.53031,9.27974 -2.17255,13.93766 -0.71176,5.16209 -2.32139,10.33083 -1.86219,15.52149 0.43773,4.948 2.55418,9.62119 4.3451,14.25442 1.22127,3.15951 3.26875,5.97442 4.34511,9.18619 1.13087,3.37442 2.75102,6.9417 2.17254,10.45325 -0.19909,1.20854 -0.77605,2.60152 -1.86218,3.16766 -1.19629,0.62356 -2.81245,0.25415 -4.03474,-0.31677 -1.33933,-0.62559 -1.81303,-2.4469 -3.10364,-3.16766 -1.66712,-0.93103 -3.6852,-1.44304 -5.58656,-1.26706 -2.9174,0.27002 -5.72913,1.72175 -8.06946,3.48442 -4.03748,3.04091 -5.96503,8.23032 -9.6213,11.72031 -2.4273,2.31692 -5.02207,4.61381 -8.06947,6.01854 -1.73411,0.79936 -3.71044,1.62245 -5.58655,1.26705 -2.21302,-0.41922 -4.28032,-1.96626 -5.58657,-3.80117 -1.83955,-2.58405 -2.44523,-6.01448 -2.48291,-9.1862 -0.0362,-3.04366 1.73399,-5.8573 2.17255,-8.86942 0.30463,-2.09224 0.47722,-4.22759 0.31036,-6.3353 -0.2384,-3.01151 -2.11349,-5.85896 -1.86218,-8.86942 0.18869,-2.2603 2.23616,-4.0806 2.48292,-6.3353 0.29069,-2.65609 -0.73963,-5.29473 -1.24146,-7.91913 -0.26431,-1.38225 -0.95836,-2.71091 -0.9311,-4.11794 0.0233,-1.202 0.87623,-2.28345 0.9311,-3.48442 0.19556,-4.28071 -1.98702,-8.38946 -2.17255,-12.67061 -0.21561,-4.9752 0.44669,-9.9719 1.24145,-14.88795 1.40433,-8.6866 4.2102,-17.08822 6.2073,-25.65798 2.89797,-12.43549 4.59385,-25.18376 8.37983,-37.37827 4.28407,-13.79884 10.1313,-27.08878 16.13893,-40.22916 2.81562,-6.15855 5.788,-12.2725 9.31093,-18.05561 4.17916,-6.86036 8.81181,-13.47828 13.9664,-19.63945 5.12213,-6.12238 10.32723,-12.37842 16.75967,-17.1053 1.31031,-0.96288 2.80703,-1.68973 4.3451,-2.21737 3.18823,-1.09373 6.59438,-1.42755 9.93165,-1.90057 4.52632,-0.64155 9.09865,-0.90726 13.65603,-1.26707 4.85756,-0.38351 9.73137,-0.54448 14.58712,-0.9503 2.07262,-0.17322 6.20729,-0.63352 6.20729,-0.63352 z m -257.76772,0.73984 -1.75568,5.82365 c 0,0 4.10854,2.98766 5.70598,4.92771 3.93577,4.77991 5.94081,10.87326 9.21734,16.12704 2.48255,3.98067 5.50442,7.61405 7.90058,11.64732 1.63045,2.7444 3.15819,5.56622 4.38921,8.51151 3.81641,9.13099 6.38447,18.73999 9.21735,28.22232 2.87884,9.63618 4.64696,19.6021 7.90059,29.11828 1.72644,5.04948 3.78511,9.99676 6.1449,14.78312 4.79955,9.73493 11.62401,18.39908 16.24009,28.22233 3.38831,7.2105 6.37296,14.67826 8.33951,22.39866 1.52668,5.99354 2.38233,12.1871 2.63353,18.36692 0.19444,4.78338 0.0534,9.63925 -0.87784,14.33515 -0.61412,3.09691 -1.78398,6.07714 -3.07246,8.95947 -1.46668,3.28095 -4.35983,5.92999 -5.26705,9.40745 -0.94238,3.61221 -1.94955,8.01572 0,11.19933 1.20092,1.9611 3.87536,3.50642 6.14489,3.13581 2.68218,-0.438 3.09409,-5.07271 5.70599,-5.82366 2.45834,-0.7068 5.20118,0.59471 7.46165,1.79191 2.76269,1.46319 4.63955,4.19161 6.93571,6.31317 3.85447,3.56138 7.16073,7.79441 11.48348,10.77002 1.98971,1.36964 4.11069,2.96419 6.51765,3.16765 1.50333,0.12707 3.17513,-0.31453 4.3451,-1.26706 2.2248,-1.81131 3.17352,-4.86578 4.03474,-7.60236 0.76641,-2.43531 1.10163,-5.05501 0.93109,-7.60237 -0.2187,-3.26667 -2.2148,-6.23996 -2.48291,-9.50295 -0.27786,-3.38166 1.13926,-6.74983 0.93108,-10.13649 -0.17902,-2.91218 -1.84121,-5.63505 -1.86219,-8.55265 -0.0225,-3.12427 1.55027,-6.07745 1.86219,-9.18619 0.20029,-1.99616 -0.0785,-4.01389 0,-6.01854 0.20707,-5.29156 1.35701,-10.54389 1.24146,-15.83824 -0.0928,-4.25408 -0.81691,-8.47946 -1.55182,-12.67061 -3.1993,-18.24539 -7.22811,-36.38396 -12.41457,-54.16683 -3.79746,-13.02041 -8.54673,-25.76486 -13.65603,-38.32857 -3.4574,-8.5017 -7.092,-16.96545 -11.48348,-25.02445 -3.77494,-6.92758 -7.68672,-13.88512 -12.72494,-19.95619 -4.43705,-5.34666 -9.57414,-10.18805 -15.20784,-14.25445 -4.48614,-3.23809 -9.28286,-6.34571 -14.58712,-7.91912 -7.66122,-2.27255 -15.9397,-1.17713 -23.89806,-1.90059 -4.8193,-0.4381 -14.44212,-1.4775 -14.44212,-1.4775 z"
       inkscape:label="#path5956"
       inkscape:connector-curvature="0"
       sodipodi:nodetypes="ccsssssssssssssssssssssssssssssssssssssssssscccsssssssssssssssssssssssssssssssssssssc" />
    <path
       id="1"
       style="display:inline;opacity:1;fill:none;fill-rule:evenodd;stroke:#000000;stroke-width:1;stroke-linecap:butt;stroke-linejoin:miter;stroke-miterlimit:4;stroke-dasharray:none;stroke-opacity:1"
       d="m 435.96295,297.71932 c 0,0 -6.29903,0.55126 -9.13447,1.7815 -4.15772,1.80394 -7.69923,4.7922 -11.41194,7.39156 -3.75487,2.62888 -7.75879,5.0197 -10.97305,8.28751 -3.04612,3.09687 -4.68241,7.38457 -7.68112,10.52737 -2.13846,2.24122 -6.07641,2.95365 -7.2422,5.82367 -0.22646,0.55752 0.0212,1.22371 0.21946,1.79189 0.23071,0.66131 0.95459,1.1062 1.0973,1.7919 0.10753,0.51666 0.14816,1.18929 -0.21947,1.5679 -0.62031,0.63883 -1.75726,0.28963 -2.63351,0.44798 -1.1727,0.21193 -2.60291,-0.0993 -3.51138,0.67196 -0.4851,0.41183 -0.46272,1.18639 -0.65838,1.7919 -0.16687,0.51643 -0.36509,1.03021 -0.43893,1.56789 -0.10158,0.73968 0.50508,1.69001 0,2.23987 -0.59599,0.64883 -1.82029,-0.11489 -2.63352,0.22399 -0.53187,0.22163 -0.99578,0.64141 -1.31676,1.11993 -0.26252,0.39137 -0.31797,0.88844 -0.43892,1.34392 -0.18587,0.69997 -0.51384,1.40754 -0.43892,2.12788 0.0379,0.36449 0.3802,0.64622 0.43892,1.00794 0.0661,0.40694 0.0253,0.8424 -0.10973,1.23192 -0.13146,0.37917 -0.37985,0.71905 -0.65839,1.00795 -0.40411,0.41914 -1.12087,0.51238 -1.4265,1.00793 -0.25763,0.41773 -0.18277,0.9665 -0.21945,1.45591 -0.0279,0.37227 0.0107,0.74679 0,1.11995 -0.0183,0.63542 0.0684,1.29366 -0.10974,1.90388 -0.0839,0.28749 -0.24639,0.55454 -0.43892,0.78394 -0.15178,0.18085 -0.43464,0.24124 -0.54865,0.44799 -0.29059,0.52695 -0.32919,1.34391 -0.21946,1.79189 0.10973,0.44797 0.25632,0.74132 0.21946,1.11994 -0.0469,0.48159 -0.22771,0.98181 -0.54865,1.34392 -0.30544,0.34461 -0.97368,0.27497 -1.20703,0.67195 -0.24593,0.41838 0,0.97061 0,1.45591 0,0.55997 -0.14375,1.13871 0,1.67992 0.13246,0.49868 0.69635,0.83294 0.7681,1.3439 0.0641,0.45674 -0.14558,0.92083 -0.32918,1.34393 -0.15975,0.36814 -0.54389,0.62331 -0.65838,1.00794 -0.0959,0.32202 -0.038,0.67412 0,1.00795 0.0736,0.6471 0.27167,1.27445 0.43891,1.90388 0.13016,0.48988 0.50698,0.95362 0.43894,1.45591 -0.0829,0.61208 -0.51007,1.17611 -0.98758,1.56791 -0.24222,0.19874 -0.63399,0.13925 -0.87784,0.33598 -0.31233,0.25198 -0.48487,0.64609 -0.65839,1.00794 -0.25472,0.53116 -0.3344,1.13117 -0.54866,1.6799 -0.22396,0.57355 -0.63709,1.07828 -0.76811,1.6799 -0.0715,0.32829 -0.0816,0.68203 0,1.00794 0.11312,0.45166 0.46337,0.80913 0.65839,1.23193 0.16794,0.36409 0.36448,0.72594 0.43893,1.11993 0.0901,0.47686 0.17363,1.00273 0,1.45591 -0.21544,0.56228 -0.7785,0.92094 -1.20705,1.34393 -0.48422,0.47794 -1.05116,0.86681 -1.53621,1.34391 -0.4665,0.45886 -1.08159,0.84529 -1.31677,1.45592 -0.18784,0.48772 -0.0505,1.04772 0,1.56791 0.0735,0.75726 0.39632,1.48023 0.43892,2.23986 0.0252,0.44876 0.11014,0.95191 -0.10973,1.34392 -0.31,0.5527 -1.22175,0.56977 -1.53622,1.11994 -0.37228,0.65131 -0.24705,1.49017 -0.21947,2.23986 0.0237,0.64361 0.32919,1.45592 0.32919,1.9039 0,0.44796 -0.62062,0.7214 -0.87784,1.11992 -0.34263,0.53084 -0.72719,1.06631 -0.87784,1.6799 -0.089,0.36255 0.0192,0.74713 0,1.11995 -0.0366,0.71211 -0.21947,1.67989 -0.21947,2.12786 0,0.85862 0.03,1.71776 0,2.57585 -0.0183,0.5236 -0.0914,1.04431 -0.10972,1.56791 -0.0183,0.52232 0.03,1.04613 0,1.56791 -0.0366,0.63778 0.0233,1.31297 -0.21946,1.90388 -0.18024,0.43875 -0.65451,0.70147 -0.87784,1.11993 -0.33283,0.62363 -0.48035,1.33178 -0.65838,2.01589 -0.19161,0.7363 -0.36542,1.4826 -0.43892,2.23986 -0.0397,0.40872 0.1114,0.83668 0,1.23192 -0.19001,0.67413 -0.76645,1.17458 -1.09731,1.79191 -0.36939,0.68921 -0.7994,1.3689 -0.98757,2.12788 -0.17091,0.68936 -0.0914,1.41787 -0.10974,2.12786 -0.0115,0.44783 -0.0463,0.89835 0,1.34393 0.0552,0.53117 0.23967,1.04142 0.32919,1.56789 0.0947,0.55674 0.18281,1.11637 0.21947,1.67991 0.0194,0.29802 0.0406,0.60007 0,0.89594 -0.62764,4.5703 -2.57793,8.86042 -3.73084,13.32722 -0.55605,2.15433 -1.19677,4.29673 -1.53622,6.49562 -0.37693,2.44171 -0.42357,4.9241 -0.54865,7.39156 -0.27226,5.37077 -0.92156,10.77107 -0.43892,16.12704 0.14379,1.59563 0.40942,3.20959 0.98757,4.70373 0.31254,0.80772 0.90001,1.48063 1.31676,2.23985 0.46401,0.84532 1.09104,1.63834 1.31677,2.57585 0.1573,0.65329 -0.0214,1.34426 0,2.01588 0.0549,1.71986 -0.11264,3.48866 0.32919,5.15171 0.21348,0.80353 0.78868,1.46786 1.09731,2.23986 0.48791,1.69692 1.32332,3.30218 1.64596,5.0397 0.12967,0.6983 0.0666,1.41895 0.10972,2.12788 0.14698,1.80294 0.1228,3.61374 0.54865,5.37568 0,0 0.46195,-1.08573 1.11028,-2.34341 0.54781,-1.06267 1.31843,-2.27399 1.44688,-3.1871 0.3481,-2.47465 -0.46771,-5.35205 -1.07027,-7.8699 -0.31845,-1.33067 -0.6987,-2.37304 -0.9298,-3.54509 -0.0679,-0.34461 -0.17025,-0.68415 -0.10093,-1.06413 0.0898,-0.4923 0.20909,-1.10319 0.41885,-1.65321 0.2139,-0.56087 0.5174,-1.06043 0.51225,-1.51445 -0.0203,-1.78776 -0.0975,-3.15265 -0.47861,-4.75211 -0.65446,-2.74635 -1.57896,-5.52655 -1.69394,-8.31445 -0.20737,-5.02821 0.42228,-10.08097 1.24145,-15.04634 1.37291,-8.32184 4.07229,-16.3361 6.00091,-24.54697 1.67891,-7.14779 2.89157,-13.92673 4.28607,-20.75476 0.88994,-4.35754 2.07346,-8.70578 3.07569,-13.2831 0.26002,-1.18756 1.0401,-3.6101 1.3986,-4.77174 2.50225,-8.10791 5.70011,-15.92065 8.90874,-23.77585 2.25676,-5.52489 4.57487,-10.4676 7.05605,-15.89541 2.70289,-5.91282 5.94153,-12.49556 9.31093,-18.05561 4.17883,-6.89575 8.71305,-13.29838 13.8888,-19.48107 3.57179,-4.26669 7.26158,-8.74355 11.28819,-12.58425 1.75044,-1.66961 3.59653,-3.16975 5.39389,-4.60024 1.05834,-0.84231 3.25026,-1.81805 3.25026,-1.81805 z m -173.30971,-0.96327 c 0,0 6.37001,0.37191 9.45546,1.17686 3.83707,1.00104 7.59371,2.36622 11.19249,4.03176 2.44963,1.13371 4.95086,2.30165 7.02275,4.03176 3.2232,2.69151 5.39561,6.436 8.12004,9.63143 3.19802,3.7509 6.21087,7.67432 9.65627,11.19935 1.79115,1.83255 4.08687,3.16549 5.70598,5.15168 0.82084,1.00694 1.48625,2.15618 1.97515,3.3598 0.23143,0.56975 0.0109,1.35032 0.43892,1.79191 0.58133,0.59979 1.6645,0.30339 2.41407,0.67196 1.22997,0.60479 2.58847,1.28753 3.29191,2.46386 0.50377,0.84243 0.12085,1.98321 0.43892,2.91181 0.1941,0.56666 0.45379,1.14488 0.87784,1.56791 0.65202,0.65044 1.78014,0.67584 2.41407,1.34392 0.80119,0.84434 1.38417,1.98183 1.53623,3.13582 0.0994,0.7543 -0.30445,1.49103 -0.43893,2.23987 -0.16046,0.89352 -0.75197,1.83571 -0.43892,2.68784 0.1987,0.54086 0.90694,0.71489 1.31676,1.11993 0.63377,0.62638 1.36408,1.21546 1.75569,2.01588 0.33436,0.68341 0.43237,1.47907 0.43892,2.23986 0.007,0.83419 -0.50054,1.63192 -0.43892,2.46386 0.0459,0.62014 0.19856,1.28861 0.59418,1.76837 0.34048,0.4129 0.98764,0.44674 1.39664,0.7919 0.31253,0.26375 0.60205,0.58016 0.77591,0.95031 0.22871,0.48694 0.2584,1.04835 0.31037,1.58382 0.0408,0.42037 0.15963,0.87603 0,1.26705 -0.19555,0.479 -0.81787,0.66637 -1.08628,1.10868 -0.34576,0.56976 -0.51597,1.24242 -0.62073,1.9006 -0.083,0.52138 -0.14323,1.07568 0,1.58382 0.13436,0.47668 0.61593,0.79836 0.77592,1.26706 0.15441,0.45233 0.0908,0.95186 0.15518,1.42546 0.0432,0.31803 0.0247,0.65706 0.15517,0.95028 0.30269,0.67998 1.14993,1.03999 1.39665,1.74221 0.21,0.59771 0.0238,1.26751 0,1.90059 -0.0259,0.68778 0.0253,1.39479 -0.15519,2.05897 -0.24671,0.90769 -1.27716,1.59417 -1.24146,2.53411 0.0232,0.61198 0.52929,1.12167 0.9311,1.58384 0.38999,0.44857 1.01411,0.65373 1.39665,1.10867 0.34816,0.41405 0.57047,0.92499 0.7759,1.42544 0.35469,0.86406 0.4515,1.81664 0.77591,2.69252 0.30244,0.81655 0.74624,1.5741 1.08628,2.37572 0.22144,0.52202 0.61186,1.01687 0.62072,1.58384 0.01,0.61642 -0.56806,1.12797 -0.62072,1.74221 -0.0778,0.90748 -0.10519,1.98267 0.46554,2.69249 0.17505,0.21772 0.51063,0.22923 0.77592,0.31677 0.40557,0.13382 0.92665,0.0282 1.24145,0.31677 0.57721,0.52917 0.6249,1.44899 0.77591,2.21735 0.1937,0.98557 0.12931,2.00518 0.15518,3.00927 0.0204,0.79165 0.0387,1.58477 0,2.37574 -0.0259,0.52984 -0.0865,1.05781 -0.15518,1.58382 -0.0831,0.63652 -0.37133,1.26157 -0.31036,1.90059 0.0427,0.44793 0.28873,0.8533 0.46554,1.26707 0.1848,0.43248 0.30416,0.91925 0.62074,1.26706 0.40829,0.44856 1.20562,0.45223 1.55181,0.95028 0.15353,0.22088 0.1292,0.52418 0.15518,0.79192 0.0459,0.47293 0,0.9503 0,1.42545 v 1.10868 c 0,0.63353 0.0858,2.03866 0.62074,2.85088 0.34967,0.53091 1.18674,0.58823 1.55181,1.10868 0.44076,0.62836 0.5163,1.45696 0.62073,2.21735 0.0503,0.36612 0.0503,0.74256 0,1.10868 -0.0522,0.3802 -0.31035,0.47515 -0.31035,1.10868 0,0.63352 -1.06843,1.82895 -1.24147,2.85089 -0.11491,0.67861 -0.31035,1.42544 0.15519,2.05896 0.46554,0.63354 0.69626,1.01823 0.93108,1.58383 0.31384,0.75594 0.44321,1.57672 0.62073,2.37573 0.18628,0.8384 0.28366,1.69477 0.46556,2.53413 0.54172,2.49976 1.19758,4.97404 1.86218,7.44398 0.48538,1.80389 1.29062,3.53531 1.55182,5.38501 0.11811,0.83641 0.0904,1.69426 0,2.53412 -0.10405,0.96698 -0.56176,1.88012 -0.62073,2.85089 -0.13503,2.22289 0.45835,4.431 0.62073,6.65206 0.28525,3.90183 0.96508,7.82324 0.62072,11.7203 -0.20042,2.26805 -0.75963,4.51743 -1.55181,6.65207 -0.62175,1.67539 -1.925,3.05378 -2.48291,4.75149 -0.63378,1.92857 -0.77545,3.99446 -0.93109,6.01853 -0.12952,1.68444 0.20243,3.391 0,5.06824 -0.26052,2.15853 -1.05651,4.21828 -1.55184,6.3353 -0.33721,1.44123 -0.96671,4.33396 -0.96671,4.33396 -0.17762,-1.24013 -0.54015,-2.52498 -0.91693,-3.73595 -0.45867,-1.47412 -0.9233,-2.87424 -0.90964,-4.39919 0.0281,-3.14056 1.52781,-6.06336 1.86219,-9.18619 0.14749,-1.37747 0.0412,-2.78996 0.004,-4.19788 -0.0268,-1.00667 0.0146,-2.01043 0.0572,-3.00004 0.0644,-1.49706 0.26602,-2.99437 0.42194,-4.48574 0.20559,-1.96656 0.47084,-3.90175 0.61737,-5.8722 0.11173,-1.50249 0.20717,-3.03331 0.14125,-4.5385 -0.0551,-1.25907 -0.14112,-2.50053 -0.25338,-3.7454 -0.13842,-1.53497 -0.25883,-2.36089 -0.4972,-3.88075 -0.2135,-1.36129 -0.61555,-3.47249 -0.80124,-4.80688 -0.16331,-1.17354 -0.39253,-2.33402 -0.6219,-3.48718 -0.4022,-2.02202 -0.74163,-4.01069 -1.12406,-6.01993 -0.23755,-1.24807 -0.47396,-2.45403 -0.7277,-3.71964 -0.28402,-1.41665 -0.53537,-2.85075 -0.87361,-4.29639 -0.4161,-1.77838 -0.72488,-3.43761 -1.11122,-5.22505 -0.31918,-1.47673 -0.65454,-2.96122 -0.98642,-4.43175 -0.32227,-1.42793 -0.63974,-2.7392 -0.9494,-4.09801 -0.48553,-2.13054 -1.0273,-4.29352 -1.5602,-6.43401 -1.37636,-5.52829 -2.86645,-11.04084 -4.46006,-16.45487 -0.91385,-3.10466 -1.85787,-6.11534 -2.84741,-9.19576 -0.66696,-2.07627 -1.32065,-4.03782 -2.05478,-6.08955 -0.82552,-2.30718 -1.54351,-4.60684 -2.47752,-6.91175 -0.82142,-2.02705 -1.53512,-4.0234 -2.29697,-6.09152 -0.72317,-1.96309 -1.42926,-3.59009 -2.20293,-5.62484 -0.57148,-1.50298 -1.42122,-3.47162 -2.00291,-4.97067 -1.21761,-3.13783 -2.60323,-6.22809 -3.91959,-9.31899 -0.98059,-2.30247 -2.07924,-4.57336 -3.11647,-6.84242 -1.29423,-2.83129 -2.70864,-5.569 -4.22123,-8.30752 -1.95536,-3.54016 -3.86164,-7.08062 -6.01812,-10.50812 -1.99863,-3.1766 -4.30119,-6.57368 -6.70682,-9.44807 -2.13193,-2.54735 -4.35805,-4.9914 -6.74763,-7.22221 -2.72784,-2.54659 -5.42421,-4.76027 -8.46021,-7.03224 -1.52931,-1.14445 -3.70923,-2.71314 -5.95898,-3.98354 -5.87801,-3.3192 -6.6718,-3.17896 -8.14243,-3.78681 z m 10.30359,-6.30366 c 0,0 8.46586,0.50412 12.48802,1.72019 4.17974,1.26371 7.72865,4.10759 11.79384,5.70177 2.01455,0.79001 4.04847,2.04897 6.20729,1.90059 1.25155,-0.086 2.16035,-1.62999 3.414,-1.58383 1.30158,0.0479 2.34376,1.15832 3.41401,1.90059 1.33919,0.9288 2.095,3.20284 3.72438,3.16765 1.55203,-0.0335 1.88363,-3.42825 3.414,-3.16765 1.52995,0.26053 0.84355,3.31648 2.17256,4.11795 0.88592,0.53426 2.07117,0.0656 3.10363,0 0.83266,-0.0529 1.70583,-0.62056 2.4829,-0.31677 0.89895,0.35143 0.96573,1.85965 1.8622,2.21736 0.87033,0.34728 1.90101,-0.0305 2.79328,-0.31677 1.2402,-0.39788 2.13034,-2.12104 3.41401,-1.90059 1.38746,0.23827 1.53835,2.5297 2.79327,3.16766 1.0188,0.51792 2.29162,0.53223 3.41401,0.31675 0.91251,-0.17518 1.83128,-0.60468 2.48292,-1.26705 0.49475,-0.5029 0.29064,-1.60476 0.93108,-1.90059 0.77543,-0.35819 1.65041,0.44246 2.48292,0.63352 1.02913,0.23618 2.1543,0.17134 3.10365,0.63354 0.73266,0.3567 1.09738,1.30257 1.86218,1.58383 0.87388,0.32137 1.86266,0.0297 2.79328,0 1.6578,-0.0528 3.31225,-0.18734 4.96583,-0.31677 1.13941,-0.0892 2.32949,0.0438 3.41401,-0.31677 0.57558,-0.19137 1.09891,-0.54682 1.55182,-0.95029 0.50088,-0.4462 0.60939,-1.35919 1.24146,-1.58383 0.89961,-0.31972 1.88631,0.33529 2.79327,0.63352 0.75088,0.24691 1.43565,0.66438 2.17256,0.95031 1.22253,0.47436 2.41404,1.21587 3.72437,1.26706 0.8535,0.0334 1.69914,-0.29398 2.4829,-0.63353 0.90079,-0.39025 1.69072,-1.00407 2.48292,-1.58384 1.19642,-0.8756 1.94068,-2.68524 3.414,-2.85087 0.92336,-0.1038 1.58951,1.01174 2.48292,1.26705 1.19798,0.34235 2.52443,0.65215 3.72438,0.31677 0.86311,-0.24124 1.35817,-1.20971 2.17255,-1.58382 1.25557,-0.57678 2.65308,-0.96309 4.03473,-0.9503 1.28118,0.0119 2.44737,1.05429 3.72438,0.9503 1.57564,-0.12831 2.89046,-1.28159 4.34509,-1.90059 3.81178,-1.62206 7.64079,-3.20405 11.48348,-4.75147 4.23874,-1.70691 12.76425,-4.99983 12.76425,-4.99983 -28.29067,1.11151 -42.04559,0.92775 -70.35364,0.64464 -23.08692,-0.2309 -59.73056,-0.34395 -82.76871,-0.21589 z"
       inkscape:label="#path5963"
       inkscape:connector-curvature="0"
       sodipodi:nodetypes="csssssssssssssssssssssssssssssssssssssssssssssssssssssssssssssssssssssssssssssssssssssascssssssssssssssssssssccssssssssssssssssssssssssssssssssssssssssssssssssssssssssssssssssssssssssssssacsssssssssssssssssssssssssssssssssscsssssssssssssssssssssssssssssssssssssscscs" />
    <path
       style="fill:none;fill-rule:evenodd;stroke:#000000;stroke-width:1;stroke-linecap:butt;stroke-linejoin:miter;stroke-miterlimit:4;stroke-dasharray:none;stroke-opacity:1"
       d="m 476.62278,277.40083 c 6.7123,-1.87853 14.00768,-2.30031 20.2738,-5.28052 9.35898,-4.4512 19.24684,-8.87572 26.62485,-16.11324 15.75822,-15.45817 28.67298,-33.60151 43.65096,-49.80056 4.47319,-4.83787 9.53089,-9.08784 15.53681,-12.02373 5.17083,-2.52767 10.66463,-5.14758 16.33087,-5.84811 5.70718,-0.70559 11.44975,0.13909 16.96999,2.30293 16.09931,6.31065 24.45484,16.54853 25.96052,18.52741 5.05257,6.64045 12.56386,18.00156 13.48055,27.88303 0.77465,8.35032 0.67897,16.71289 -0.46674,25.08184 -2.36857,17.3015 -2.67374,34.94074 -6.11645,52.04326 -1.85297,9.2051 -6.82052,17.55901 -7.921,26.99012 -2.29327,9.14324 1.57897,16.8557 4.50892,25.33269"
       id="path5972"
       inkscape:connector-curvature="0"
       sodipodi:nodetypes="csssssssssssc" />
    <path
       style="fill:none;fill-rule:evenodd;stroke:#000000;stroke-width:1;stroke-linecap:butt;stroke-linejoin:miter;stroke-miterlimit:4;stroke-dasharray:none;stroke-opacity:1"
       d="m 480.09548,283.06347 c 9.38997,-1.14917 18.72989,-3.80676 26.19843,-9.85279 9.12479,-5.86381 18.99571,-10.9953 25.87637,-19.66694 11.66301,-13.13122 21.87643,-27.53523 34.12145,-40.12982 8.85875,-7.62748 18.22977,-15.46516 29.40711,-19.31562 11.32163,-2.81438 24.28622,-1.33106 32.99493,7.01552 12.60062,9.10846 23.05611,23.04928 22.86432,39.19439 0.40315,9.32182 0.95042,19.79323 -5.53452,27.32899 -6.77954,7.98781 5.38378,15.21923 1.38947,23.98417 -2.63973,8.59965 -0.71793,17.78764 -3.39155,26.30396 -4.73629,11.02243 -8.74062,22.9956 -8.00353,35.13793 1.36597,5.72263 6.16621,9.83329 9.96723,14.02112"
       id="path5974"
       inkscape:connector-curvature="0"
       sodipodi:nodetypes="cccccccccccc" />
    <path
       style="fill:none;fill-rule:evenodd;stroke:#000000;stroke-width:1;stroke-linecap:butt;stroke-linejoin:miter;stroke-miterlimit:4;stroke-dasharray:none;stroke-opacity:1"
       d="m 481.59507,292.48935 c 7.30177,-3.03948 14.60281,-5.719 21.47915,-9.68669 6.95103,-4.01079 13.94224,-7.87405 20.5979,-12.39578 6.16372,-4.18751 11.04947,-9.81229 16.52725,-14.77311 4.88757,-4.42631 9.21014,-9.36082 13.35203,-14.49358 6.38802,-7.91623 12.34632,-16.26662 19.45912,-23.51998 4.56118,-4.65131 9.12367,-9.76014 14.84691,-12.76413 10.21498,-5.3616 20.9971,-3.47375 26.72873,-2.04789 4.61219,1.14737 9.11456,3.5333 12.62158,6.68986 4.38946,3.95081 8.44231,8.49953 11.45115,13.54959 2.55775,4.29295 5.67554,8.73568 6.34842,13.62907 0.73525,5.34695 0.90992,11.15044 -0.90745,16.19688 l -4.76253,13.22448 c -3.64765,10.12872 -19.79647,8.61394 -29.01023,14.18378 -3.9666,2.39786 -7.28881,6.01894 -11.52302,7.84636 -3.98709,1.72076 -8.17554,2.82742 -12.56439,2.88905 -3.95821,0.0556 -8.04159,1.51567 -11.90038,0.62022 -3.89628,-0.90415 -7.72889,-2.45055 -11.59333,-3.48235"
       id="path5976"
       inkscape:connector-curvature="0"
       sodipodi:nodetypes="cssssssssssssssssc" />
    <path
       style="fill:none;fill-rule:evenodd;stroke:#000000;stroke-width:1;stroke-linecap:butt;stroke-linejoin:miter;stroke-miterlimit:4;stroke-dasharray:none;stroke-opacity:1"
       d="m 481.90544,298.82464 c 7.30801,-2.36518 14.74891,-4.81925 21.75529,-7.99585 4.08004,-1.84984 7.99046,-3.85071 11.55467,-6.5708 5.16421,-3.94117 11.21536,-6.86707 15.80379,-11.43763 10.03388,-9.9948 19.30762,-20.72292 28.33106,-31.64901 7.01767,-8.4974 13.98962,-17.15874 22.04652,-24.65025 2.92911,-2.72355 6.04901,-5.74629 9.80399,-6.98348 4.92359,-1.62222 10.26197,-3.0073 15.37696,-2.54602 4.70469,0.42428 9.70716,1.48124 13.6283,4.01982 4.0501,2.62207 7.80938,6.07312 10.44246,10.07138 2.81324,4.27184 5.70676,8.74587 7.06547,13.64646 1.17144,4.22515 1.91621,8.76408 1.45796,13.10503 -0.43631,4.13313 -0.21846,8.71201 -2.08048,12.34899 -1.44566,2.82372 -3.98745,4.81087 -7.08593,6.15718 -6.4711,2.81175 -13.21541,5.05705 -19.35471,8.47164 -5.17341,2.87738 -9.45618,7.01157 -14.45881,10.2473 -3.45201,2.23278 -7.70286,3.69921 -11.76755,3.83125 -7.23012,0.23486 -14.43936,-0.91034 -21.67845,-0.73552"
       id="path5978"
       inkscape:connector-curvature="0"
       sodipodi:nodetypes="cssssssssssssssssc" />
    <path
       style="fill:none;fill-rule:evenodd;stroke:#000000;stroke-width:1;stroke-linecap:butt;stroke-linejoin:miter;stroke-miterlimit:4;stroke-dasharray:none;stroke-opacity:1"
       d="m 228.64818,277.60138 c -6.51209,-1.46852 -13.65194,-1.76863 -19.4609,-4.99474 -5.69862,-3.16483 -11.56687,-5.84236 -16.89991,-9.57474 -8.61316,-6.02799 -15.65377,-13.98189 -22.55821,-21.97496 -10.22366,-11.83562 -19.91817,-24.15598 -30.65888,-35.50072 -4.37946,-4.62574 -9.23042,-8.66476 -15.04045,-11.67331 -5.69291,-2.9479 -11.56339,-5.17497 -17.80012,-5.42925 -7.508398,-0.30613 -14.780888,2.2248 -21.988582,4.44474 -3.309278,1.01924 -6.253476,2.11227 -8.863944,4.56172 -4.861103,4.56126 -9.666483,8.99129 -13.832044,14.23457 -3.591685,4.52093 -6.458821,9.60919 -8.150763,15.01455 -2.164895,6.91633 -2.605799,14.17044 -2.645228,21.48607 -0.06005,11.1407 3.187113,21.88759 3.691011,32.99039 0.511517,11.27067 0.978337,22.64276 3.019041,33.72443 1.567742,8.51334 6.435223,15.79821 7.708964,24.49349 0.84914,5.79671 2.525861,11.90191 1.094154,17.50256 -0.878051,3.43482 -3.311601,6.26969 -4.967402,9.40454"
       id="path5980"
       inkscape:connector-curvature="0"
       sodipodi:nodetypes="csssssssssssssssc" />
    <path
       style="fill:none;fill-rule:evenodd;stroke:#000000;stroke-width:1;stroke-linecap:butt;stroke-linejoin:miter;stroke-miterlimit:4;stroke-dasharray:none;stroke-opacity:1"
       d="m 222.07167,299.05284 c -5.47656,-1.4433 -11.25332,-2.52166 -15.69481,-6.40727 -6.50546,-5.28212 -13.98407,-8.98772 -21.22894,-13.08962 -7.85667,-5.05345 -15.59508,-10.5552 -21.22354,-18.14003 -13.34036,-15.41013 -25.9894,-31.425 -39.62667,-46.57103 -8.79998,-8.0443 -22.26891,-9.13832 -33.15446,-5.13079 -11.726578,3.01918 -17.383034,14.87123 -21.957517,24.95049 -3.156794,6.61494 -4.796691,14.88885 -0.382845,21.35723 2.524187,6.35858 7.891855,10.36728 14.332142,12.26427 11.429596,4.26795 19.8203,13.73757 31.00146,18.39937 7.93424,3.28343 16.60477,0.53385 24.87581,1.28993 1.94372,-0.23294 3.4813,0.30561 4.82074,1.71998"
       id="path5982"
       inkscape:connector-curvature="0"
       sodipodi:nodetypes="cccccccccccc" />
    <path
       style="fill:none;fill-rule:evenodd;stroke:#000000;stroke-width:1;stroke-linecap:butt;stroke-linejoin:miter;stroke-miterlimit:4;stroke-dasharray:none;stroke-opacity:1"
       d="m 225.85491,283.30315 c -23.01502,-1.80818 -41.52837,-17.61851 -55.90165,-34.46362 -14.71567,-16.29863 -27.35854,-34.80194 -44.77984,-48.427 -10.81185,-6.22962 -24.46174,-9.58144 -36.569132,-5.18615 -12.956956,4.93856 -23.283905,15.43895 -29.72453,27.54331 -4.376545,10.59415 -4.533269,22.29586 -2.762862,33.46655 1.87334,8.26485 9.266814,16.20016 4.636064,24.98829 -3.067944,9.27976 -0.402616,19.2912 0.0886,28.82847 0.891648,8.49126 7.026691,15.39654 7.491225,24.03305 1.463921,8.99779 5.172847,20.55233 -2.871003,27.57141 -1.749875,1.54526 -3.093226,3.46755 -4.639866,5.20051"
       id="path5984"
       inkscape:connector-curvature="0" />
    <path
       style="fill:none;fill-rule:evenodd;stroke:#000000;stroke-width:1;stroke-linecap:butt;stroke-linejoin:miter;stroke-miterlimit:4;stroke-dasharray:none;stroke-opacity:1"
       d="m 223.82735,293.22919 c -9.24107,-2.43811 -16.10741,-8.47851 -24.95277,-11.87638 -7.69915,-3.19143 -13.79769,-9.01657 -20.73411,-13.47661 -10.94795,-10.2731 -20.08464,-22.3248 -30.11609,-33.4781 -8.37032,-9.29092 -16.5627,-18.90998 -26.24781,-26.86165 -6.32499,-4.1744 -13.69627,-7.70262 -21.49045,-6.36872 -8.382659,0.99593 -16.762758,4.16752 -22.814205,10.2133 -5.667787,3.70053 -9.267582,9.54566 -12.599163,15.25726 -1.348101,5.96056 -3.279383,12.01261 -3.215592,18.19166 0.59319,5.44642 1.282252,10.57257 2.997747,16.07577 2.386304,7.65511 9.790668,9.39038 15.685875,12.45234 8.815747,3.62544 17.939372,7.15279 24.996198,13.78331 6.68504,3.82446 14.78503,5.20649 22.4363,4.83875 5.27698,-0.44602 10.37689,-1.9715 15.58676,-2.832"
       id="path5986"
       inkscape:connector-curvature="0"
       sodipodi:nodetypes="cccccccccscccc" />
    <path
       style="fill:none;fill-rule:evenodd;stroke:#000000;stroke-width:1;stroke-linecap:butt;stroke-linejoin:miter;stroke-dasharray:none;stroke-opacity:1"
       d="m 563.11743,288.1473 c -1.28874,-0.27836 -2.0672,1.84169 -1.5126,2.58086 0.43965,0.58597 1.54495,0.95828 2.25027,1.15622 1.50747,0.42306 2.98601,0.94506 4.49348,1.36813 0.70532,0.19795 2.04352,-0.18037 2.12849,0.54726 0.11364,0.97316 -1.6898,1.00929 -2.60149,1.36813 -1.29243,0.50869 -2.73176,0.5765 -4.02048,1.0945 -1.41583,0.56909 -2.75878,1.33077 -4.02048,2.18901 -1.52898,1.04004 -3.33344,1.9551 -4.25698,3.55714 -0.46228,0.80191 -0.7698,1.85952 -0.47299,2.73626 0.17222,0.50873 0.67476,0.91936 1.18249,1.0945 1.04689,0.36112 2.21131,-0.40443 3.31098,-0.27361 0.57713,0.0687 1.5008,-0.013 1.65549,0.54725 0.19251,0.69724 -0.93016,1.1086 -1.41899,1.64175 -0.6878,0.75016 -1.43068,1.44816 -2.12849,2.18902 -1.52373,1.61774 -3.28722,3.05878 -4.49348,4.92527 -0.86291,1.33521 -1.40647,2.86419 -1.89199,4.37801 -0.34198,1.06627 -1.16279,2.2596 -0.7095,3.28352 0.29494,0.66622 1.21086,0.83585 1.89199,1.09451 1.27871,0.4856 2.67698,0.5642 4.02049,0.82088 1.02244,0.19534 2.20716,-0.0284 3.07448,0.54724 0.36227,0.24042 0.78277,0.66594 0.7095,1.09451 -0.151,0.88322 -1.65003,0.88417 -2.12849,1.64176 -0.19931,0.31559 -0.42176,0.77047 -0.2365,1.0945 0.28846,0.50456 1.08313,0.44627 1.65549,0.54726 5.98049,1.05526 12.19768,-0.30531 18.21042,0.54724 0.72532,0.10284 1.67959,-0.0317 2.12849,0.54726 0.27945,0.36039 0.1754,0.94717 0,1.36813 -0.29891,0.7174 -1.04593,1.15964 -1.65549,1.64176 -0.94702,0.74904 -2.08657,1.22117 -3.07449,1.91538 -1.80739,1.27004 -5.91251,4.65165 -5.91251,4.65165"
       id="path7216"
       inkscape:connector-curvature="0"
       sodipodi:nodetypes="csssssssssssssssssssssssssssssc" />
    <path
       style="fill:none;fill-rule:evenodd;stroke:#000000;stroke-width:1;stroke-linecap:butt;stroke-linejoin:miter;stroke-dasharray:none;stroke-opacity:1"
       d="m 591.88927,375.51965 c 0,0 2.73815,-0.0563 3.65669,-0.72652 1.21225,-0.88455 1.59612,-2.54203 2.36498,-3.83077 0.6472,-1.08481 1.19955,-2.22701 1.892,-3.28351 0.43557,-0.66456 0.63234,-2.02739 1.41899,-1.91538 0.67406,0.096 0.63388,1.23874 0.70949,1.91538 0.13283,1.18875 -0.51167,2.36162 -0.47299,3.55714 0.0391,1.20844 -0.36834,3.00931 0.70949,3.55714 0.38719,0.1968 0.81649,-0.31341 1.1825,-0.54725 1.30683,-0.83491 2.53172,-1.83809 3.54748,-3.00989 0.77621,-0.89545 0.85476,-2.43675 1.89199,-3.00989 0.552,-0.30502 1.40121,-0.39607 1.892,0 0.58094,0.46882 0.44698,1.44296 0.473,2.18902 0.0193,0.55256 -0.13864,1.09758 -0.2365,1.64175 -0.1982,1.10209 -0.70058,2.16379 -0.7095,3.28352 -0.01,1.20903 -0.39214,3.05891 0.7095,3.55714 0.82982,0.37529 1.66332,-0.78754 2.36499,-1.36814 0.83593,-0.69169 1.50005,-1.57815 2.12848,-2.46263 0.91455,-1.28718 1.69422,-2.67495 2.36499,-4.1044 0.28923,-0.61637 0.19019,-1.47506 0.7095,-1.91538 0.36742,-0.31153 0.94867,-0.37771 1.419,-0.27362 0.75989,0.16817 1.34458,0.81491 1.89199,1.36813 0.86431,0.87347 0.90433,2.90308 2.12849,3.00988 0.77423,0.0676 1.30607,-0.94755 1.65549,-1.64175 0.24858,-0.49387 -0.0542,-1.17142 0.2365,-1.64176 0.25224,-0.40818 0.23649,-0.82088 1.18249,-0.82088 0.946,0 1.93725,0.33846 2.36499,1.09451 0.36139,0.63877 -0.29986,1.45783 -0.2365,2.18901 0.0738,0.85108 0.27773,1.72551 0.7095,2.46263 0.45359,0.77436 0.99839,1.83262 1.89199,1.91539 0.95557,0.0885 1.82492,-0.84849 2.36499,-1.64176 0.5801,-0.85207 0.59045,-1.98599 0.7095,-3.00989 0.13694,-1.17778 0,-2.37143 0,-3.55714 0,-1.27692 -0.30254,-2.5902 0,-3.83077 0.12172,-0.49909 0.1993,-1.30808 0.7095,-1.36813 0.59864,-0.0705 0.7272,0.97309 1.18249,1.36813 0.63705,0.55275 1.40851,0.92882 2.12849,1.36813 1.2439,0.759 2.4007,1.73088 3.78399,2.18901 0.75335,0.2495 1.57197,0.3035 2.365,0.27363 0.48137,-0.0181 1.11232,0.0978 1.419,-0.27363 0.29034,-0.35168 -0.60469,-1.39059 -0.60469,-1.39059"
       id="path7218"
       inkscape:connector-curvature="0"
       sodipodi:nodetypes="csssssssssssssssssssssssssssssssssssssssc" />
    <path
       style="fill:none;fill-rule:evenodd;stroke:#000000;stroke-width:1;stroke-linecap:butt;stroke-linejoin:miter;stroke-dasharray:none;stroke-opacity:1"
       d="m 469.72853,317.33162 c 7.50982,6.27086 32.95345,25.89666 50.37427,39.40218 0.42525,-0.65014 0.59431,-1.88413 0.27506,-3.16958 -0.30628,-1.23329 -0.50502,-2.62047 -0.50268,-3.36276 0.003,-0.98848 0.0611,-1.55608 0.89608,-2.06661 -18.9075,-8.11962 -32.87603,-23.7784 -47.02225,-38.19113"
       id="path7220"
       inkscape:connector-curvature="0"
       sodipodi:nodetypes="ccsscc" />
    <path
       style="fill:none;fill-rule:evenodd;stroke:#000000;stroke-width:1;stroke-linecap:butt;stroke-linejoin:miter;stroke-dasharray:none;stroke-opacity:1"
       d="m 137.14567,340.78249 c 0,0 -7.69258,-6.57842 -8.3615,-7.15886 -0.66892,-0.58046 -1.8731,-1.01258 -2.17399,-1.93483 -0.16372,-0.50183 -0.0763,-1.21637 0.33446,-1.54787 0.60732,-0.4901 1.56085,-0.008 2.34122,0 3.34507,0.0322 6.6942,0.3874 10.0338,0.19348 1.90953,-0.11088 3.77744,-0.64464 5.68582,-0.77392 0.66739,-0.0452 1.33921,0.0427 2.00676,0 0.50479,-0.0323 1.23852,0.2364 1.50507,-0.19349 0.1798,-0.28998 -0.20214,-0.65291 -0.33446,-0.96741 v 0 c -0.43567,-0.69125 -1.23987,-1.16197 -1.50507,-1.93483 -0.1884,-0.54903 -0.37549,-1.29871 0,-1.74135 0.51168,-0.6032 1.55288,-0.32226 2.34122,-0.38697 1.05557,-0.0866 2.11929,0.047 3.17737,0 0.72681,-0.0323 1.65086,0.31212 2.17399,-0.19348 0.65418,-0.63225 0.44184,-1.80534 0.33446,-2.70876 -0.18704,-1.57357 -1.17061,-3.28921 -1.6723,-4.45011 -0.50169,-1.16089 -1.38568,-2.82608 -2.34122,-4.06314 -1.2918,-1.67239 -3.18005,-2.81213 -4.51521,-4.45011 -0.38849,-0.4766 -0.90147,-0.94149 -1.00338,-1.54786 -0.0771,-0.45859 -0.0126,-1.04487 0.33446,-1.35438 1.51002,-1.34665 4.68393,0.74521 6.02028,-0.77393 0.29819,-0.33897 0.15751,-0.93129 0,-1.35439 -0.2974,-0.7989 -1.06554,-1.33605 -1.6723,-1.93483 -1.14079,-1.12578 -2.31095,-2.26084 -3.67906,-3.09573 -2.42433,-1.47945 -4.86354,-2.00441 -7.54205,-2.94874 -0.43781,-0.15435 -1.3571,-0.37186 -1.6556,-0.72743 -0.3337,-0.39745 -0.48268,-1.13579 -0.16723,-1.54787 0.75466,-0.98583 2.44134,-0.4834 3.67906,-0.58044 0.50016,-0.0392 1.0478,0.2064 1.50507,0 0.73542,-0.33195 2.23505,-1.00986 2.28212,-1.81536 0.0518,-0.88719 -1.09939,-1.70331 -1.09939,-1.70331"
       id="path7224"
       inkscape:connector-curvature="0"
       sodipodi:nodetypes="cssssssssssssssssssssaasssssssssc" />
    <path
       style="fill:none;fill-rule:evenodd;stroke:#000000;stroke-width:1;stroke-linecap:butt;stroke-linejoin:miter;stroke-dasharray:none;stroke-opacity:1"
       d="m 112.89733,376.96381 c 0,0 -2.28031,-1.92019 -3.17737,-3.09572 -1.11781,-1.46481 -1.76973,-3.23258 -2.67568,-4.83708 -0.54896,-0.97225 -0.58285,-2.65791 -1.67231,-2.90224 -0.33106,-0.0742 -0.66816,0.28565 -0.83614,0.58044 -0.38416,0.67417 -0.12539,1.54699 -0.16723,2.3218 -0.0835,1.54661 0.29872,3.16647 -0.16723,4.64359 -0.18497,0.5864 -0.39251,1.47777 -1.00338,1.54787 -0.92314,0.10594 -1.44203,-1.19694 -2.00677,-1.93483 -0.98419,-1.28593 -1.14901,-3.16078 -2.341213,-4.25663 -0.583961,-0.53677 -1.381931,-1.00934 -2.173998,-0.96741 -0.257233,0.0136 -0.523234,0.17452 -0.668918,0.38696 -0.406152,0.59226 -0.278547,1.41235 -0.33446,2.12831 -0.0703,0.90018 -0.07718,1.80915 0,2.70877 0.08392,0.97817 0.417772,1.92408 0.501695,2.90225 0.04962,0.57832 0.256072,1.22043 0,1.74134 -0.186345,0.37907 -0.603577,0.63765 -1.003384,0.77393 -0.316575,0.10791 -0.687806,0.1108 -1.003378,0 -0.876039,-0.3076 -1.548112,-1.05554 -2.173991,-1.74135 -0.885927,-0.97076 -1.476945,-2.17504 -2.173986,-3.28921 -0.755057,-1.2069 -1.204623,-2.63356 -2.173998,-3.67617 -0.462059,-0.49697 -1.003483,-1.27563 -1.672296,-1.1609 -0.470026,0.0806 -0.517726,0.80589 -0.836149,1.1609 -0.450642,0.50242 -1.044025,0.86148 -1.505067,1.35438 -0.616329,0.65892 -0.770063,2.13051 -1.672297,2.12831 -0.817094,-0.002 -1.088827,-1.23171 -1.505074,-1.93483 -0.286332,-0.48367 -0.370196,-1.07174 -0.668918,-1.54786 -0.271832,-0.43326 -0.494211,-1.20942 -1.00338,-1.1609 -0.666891,0.0635 -0.795714,1.10443 -1.00338,1.74134 -0.160872,0.4934 -0.04338,1.04391 -0.16723,1.54787 -0.18191,0.7402 -0.499962,1.44423 -0.83615,2.12831 -0.430946,0.87689 -0.655119,2.03337 -1.50507,2.51528 -0.387931,0.21995 -0.932309,0.18551 -1.33784,0 -0.387601,-0.17731 -0.623329,-0.59812 -0.83615,-0.96742 -0.511093,-0.88687 -0.769915,-1.90562 -1.00338,-2.90224 -0.400414,-1.70929 -0.601738,-3.46976 -0.66892,-5.22404 -0.04201,-1.09702 0.339945,-2.20506 0.167231,-3.28921 -0.09783,-0.61406 -0.08267,-1.5341 -0.668921,-1.74134 -0.607166,-0.21463 -1.159925,0.57729 -1.672299,0.96741 -1.244092,0.94724 -2.058707,2.39954 -3.3446,3.28921 -0.757685,0.52422 -1.60865,0.96278 -2.50845,1.1609 -0.979909,0.21576 -2.521317,0.87626 -3.01014,0 -0.25848,-0.46335 0.654006,-1.45393 0.654006,-1.45393"
       id="path7226"
       inkscape:connector-curvature="0"
       sodipodi:nodetypes="csssssssssssssssssssssssssssssssssssssssssc" />
    <path
       style="fill:none;fill-rule:evenodd;stroke:#000000;stroke-width:1;stroke-linecap:butt;stroke-linejoin:miter;stroke-dasharray:none;stroke-opacity:1"
       d="m 187.4819,358.96989 c 0,0 20.49978,-16.52768 30.77032,-24.76582 6.12357,-4.9118 18.39529,-14.7047 18.39529,-14.7047"
       id="path7228"
       inkscape:connector-curvature="0"
       sodipodi:nodetypes="csc" />
    <path
       style="fill:none;fill-rule:evenodd;stroke:#000000;stroke-width:1;stroke-linecap:butt;stroke-linejoin:miter;stroke-dasharray:none;stroke-opacity:1"
       d="m 184.51085,349.07226 c 0,0 15.37794,-10.3751 23.0669,-15.56265 9.57582,-6.46056 17.39808,-12.95023 24.72178,-21.74956"
       id="path7230"
       inkscape:connector-curvature="0"
       sodipodi:nodetypes="csc" />
    <path
       id="C56"
       style="fill:none;fill-rule:evenodd;stroke:#000000;stroke-width:1;stroke-linecap:butt;stroke-linejoin:miter;stroke-dasharray:none;stroke-opacity:1"
       d="m 184.63899,349.8762 c 0.75545,3.10233 2.50197,5.94141 3.01014,9.09369 0.0616,0.38203 -0.0541,0.77773 0,1.1609 0.16889,1.19626 0.94459,2.27601 1.00338,3.4827 0.0447,0.91719 -0.14468,1.86273 -0.5017,2.70876 -0.33783,0.80054 -0.90353,1.50129 -1.50506,2.12831 -0.58483,0.60962 -1.50936,0.86504 -2.00676,1.54787 -1.17127,1.60793 -1.23239,3.7889 -2.02013,5.61558 -0.58709,1.3614 -1.23302,2.70504 -2.01024,3.96758 -0.80158,1.30211 -1.72823,2.52993 -2.71973,3.69396 -0.91189,1.07056 -1.79267,2.22011 -2.95624,3.00988 -1.16762,0.79252 -2.51894,1.36262 -3.90224,1.64176 -0.27046,0.0546 -0.56812,-0.0934 -0.82775,0 -1.34725,0.48466 -2.20105,1.83182 -3.31098,2.73627 -1.41109,1.14987 -2.69481,2.48596 -4.25698,3.42032 -1.10237,0.65934 -2.28875,1.24899 -3.54749,1.50495 -0.92702,0.1885 -2.00017,0.43928 -2.83798,0 -0.24552,-0.12873 -0.19696,-0.65852 -0.473,-0.68407 -1.1608,-0.10745 -1.53207,1.78863 -2.48324,2.46264 -1.10813,0.78523 -2.36421,1.39048 -3.66572,1.77857 -1.71378,0.51102 -3.53333,0.72339 -5.32124,0.68406 -1.59984,-0.0352 -3.16739,-0.47581 -4.72997,-0.82087 -1.7139,-0.37848 -3.56051,-0.49783 -5.08473,-1.36814 -1.24545,-0.71114 -1.69147,-2.6302 -3.07448,-3.00988 -0.74331,-0.20406 -1.48143,0.45539 -2.24675,0.54725 -1.64369,0.1973 -3.41783,0.58513 -4.96647,0 -1.03222,-0.39001 -1.685,-1.42717 -2.48324,-2.18901 -1.1479,-1.09556 -2.4895,-2.06273 -3.31099,-3.42033 -0.84542,-1.39715 -1.22225,-3.04928 -1.53724,-4.65164 -0.22044,-1.12137 0.25703,-2.38956 -0.23649,-3.42034 -0.57984,-1.21108 -2.26517,-1.58501 -2.95624,-2.73626 -0.5582,-0.92991 -0.68864,-2.07107 -0.82775,-3.1467 -0.15793,-1.22115 -0.17213,-2.47472 0,-3.69395 0.11942,-0.84588 0.63069,-1.61201 0.7095,-2.46263 0.11412,-1.23171 -0.46139,-2.46158 -0.35475,-3.69396 0.17941,-2.07334 0.78929,-4.12752 1.65549,-6.01978 0.91386,-1.99638 2.26204,-3.78423 3.66573,-5.47252 1.58537,-1.90681 3.23473,-3.8588 5.32123,-5.19891 1.06638,-0.68491 2.28078,-1.40953 3.54749,-1.36812 0.21705,0.007 0.38983,0.35482 0.59124,0.27362 0.90767,-0.36592 0.44491,-1.97853 1.06425,-2.73627 1.06752,-1.30608 2.785,-1.91242 4.25698,-2.73625 1.37463,-0.76934 2.70362,-1.79033 4.25698,-2.0522 0.78255,-0.13192 1.58658,0.42809 2.36499,0.27363 1.10562,-0.21938 1.87655,-1.318 2.95623,-1.64176 2.30971,-0.69261 4.80363,-0.45598 7.21322,-0.54726 2.04819,-0.0776 4.10618,-0.16768 6.14897,0 1.67233,0.13727 3.37338,0.29404 4.96648,0.82088 0.37873,0.12525 0.667,0.58352 1.06425,0.54726 0.59488,-0.0543 0.84736,-0.9211 1.41899,-1.0945 0.64271,-0.19497 1.35764,-0.022 2.01023,0.13681 1.33596,0.32503 2.56158,1.01235 3.78399,1.64176 1.02244,0.52644 1.80735,1.7278 2.95624,1.77856 0.83224,0.0368 1.41572,-1.03622 2.24673,-1.0945 1.03329,-0.0725 2.02677,0.50048 2.95624,0.95769 1.15786,0.56956 2.19029,1.37651 3.19273,2.18901 0.71903,0.58279 1.43055,1.19386 2.01025,1.91539 0.66768,0.83103 1.28887,1.73525 1.65549,2.73625 0.0933,0.25481 0.0639,0.54028 0.12814,0.80394 z m 336.13227,-1.74135 c -2.11462,1.59153 0.25608,5.35291 -0.33447,7.9328 -0.18813,0.82185 -0.69317,1.53783 -1.00338,2.3218 -0.30266,0.76489 -0.70983,1.50897 -0.83614,2.3218 -0.11863,0.76336 -0.19648,1.59713 0.0865,2.31596 0.30912,0.78523 1.13006,1.25502 1.65549,1.91538 0.45732,0.57475 0.74238,1.3014 1.30075,1.77857 0.30325,0.25915 0.80122,0.24735 1.06424,0.54725 1.30965,1.49328 1.24263,3.77744 2.01024,5.60934 0.84143,2.00808 1.57161,4.1119 2.83799,5.88296 1.09515,1.53159 2.52342,2.8257 4.02048,3.96759 0.94137,0.71804 1.93908,1.443 3.07449,1.77856 0.8705,0.25727 1.91201,-0.27736 2.71973,0.13682 1.34974,0.69212 1.75666,2.4934 2.838,3.55714 1.06461,1.04728 2.28443,1.93946 3.54748,2.73626 1.19567,0.75429 2.38174,1.73565 3.78398,1.91538 0.6401,0.082 1.25979,-0.28092 1.89199,-0.41043 0.70787,-0.14501 1.42614,-0.58018 2.12849,-0.41044 1.50905,0.36471 2.28188,2.16937 3.66573,2.87307 1.78938,0.90992 3.79454,1.4655 5.79423,1.64176 1.81527,0.16001 3.6447,-0.23162 5.43947,-0.54725 1.28144,-0.22535 2.57549,-0.47563 3.78399,-0.9577 1.38528,-0.55258 2.77456,-1.21294 3.90223,-2.18901 0.39134,-0.33873 0.46509,-1.03994 0.94599,-1.23131 1.07552,-0.42799 2.2717,0.55046 3.42924,0.54725 1.39829,-0.004 2.86239,-0.11293 4.13873,-0.68406 1.06225,-0.47533 1.95869,-1.30861 2.71973,-2.18902 0.76157,-0.88102 1.27141,-1.95925 1.77374,-3.00989 0.48334,-1.01091 0.86624,-2.07173 1.1825,-3.14669 0.26338,-0.8952 0.49215,-1.80841 0.59125,-2.73627 0.0533,-0.49881 -0.2024,-1.04594 0,-1.50494 0.40925,-0.92808 1.65091,-1.23134 2.24674,-2.0522 0.61754,-0.85077 0.93245,-1.88843 1.30074,-2.87308 0.43358,-1.15921 1.10678,-2.32022 1.06425,-3.55713 -0.0385,-1.11986 -0.66286,-2.15396 -1.18249,-3.14671 -0.12856,-0.24561 -0.43035,-0.41014 -0.473,-0.68406 -0.12469,-0.8009 0.69232,-1.51547 0.70949,-2.32583 0.0399,-1.88408 -0.68174,-3.73822 -1.41899,-5.47252 -0.64883,-1.52631 -1.65994,-2.87589 -2.60149,-4.24121 -0.91569,-1.32781 -1.84895,-2.65796 -2.95624,-3.83077 -1.14646,-1.21429 -2.29934,-2.51884 -3.78398,-3.28351 -0.86509,-0.44556 -1.8717,-0.56926 -2.83799,-0.68407 -0.27399,-0.0326 -0.58773,0.13609 -0.82775,0 -0.601,-0.34076 -0.64221,-1.23157 -1.06424,-1.77857 -0.58494,-0.75815 -1.28232,-1.43004 -2.01024,-2.0522 -0.95633,-0.81739 -1.93232,-1.66162 -3.07449,-2.189 -0.84871,-0.39188 -1.80989,-0.46944 -2.71973,-0.68407 -0.82497,-0.19461 -1.64061,-0.4555 -2.48324,-0.54725 -0.19593,-0.0213 -0.4053,0.0653 -0.59125,0 -0.61945,-0.2175 -0.95444,-0.92905 -1.53724,-1.23132 -1.01989,-0.52896 -2.17345,-0.79648 -3.31099,-0.95769 -2.10743,-0.29866 -4.25711,0.0237 -6.38547,0 -2.05004,-0.0228 -4.11382,-0.38447 -6.14897,-0.13681 -1.90524,0.23186 -3.7941,2.26212 -5.55772,1.50494 -0.38103,-0.16359 -0.22181,-0.9062 -0.59125,-1.09451 -0.92116,-0.46954 -2.09209,0.0881 -3.07449,0.41044 -0.81145,0.26623 -1.49866,0.81936 -2.24674,1.23132 -0.90759,0.49981 -2.00854,0.75146 -2.71973,1.50495 -0.31252,0.33111 -0.14219,1.15617 -0.59125,1.23131 -0.44256,0.074 -0.5446,-0.75711 -0.94599,-0.95769 -0.60494,-0.30229 -1.33531,-0.31607 -2.01024,-0.27362 -1.05864,0.0666 -2.10505,0.39038 -3.07449,0.82088 -1.07312,0.47654 -2.11897,1.09218 -2.95624,1.91538 -0.70531,0.69346 -1.26195,1.55517 -1.65549,2.46263 -0.2793,0.64405 -0.39365,1.3547 -0.47299,2.0522 -0.0258,0.22656 0.17926,0.54314 0,0.68407 -0.58504,0.45995 -1.5749,-0.9745 -2.1695,-0.52698 z"
       inkscape:label="C56"
       inkscape:connector-curvature="0"
       sodipodi:nodetypes="ssssssssssssssssssssssssssssssssssssssssssssssssssssssssssssssssssssssssssssssssssssssssssssssssssssssssssssssssssssssssssssss" />
  </g>
</svg>
