<?xml version="1.0" encoding="UTF-8" standalone="no"?>
<!-- Created with Inkscape (http://www.inkscape.org/) -->

<svg
   id="svg4136"
   version="1.1"
   inkscape:version="1.3 (0e150ed, 2023-07-21)"
   width="700"
   height="750"
   viewBox="0 0 700 750"
   sodipodi:docname="level3_C13_20.01.svg"
   xmlns:inkscape="http://www.inkscape.org/namespaces/inkscape"
   xmlns:sodipodi="http://sodipodi.sourceforge.net/DTD/sodipodi-0.dtd"
   xmlns="http://www.w3.org/2000/svg"
   xmlns:svg="http://www.w3.org/2000/svg"
   xmlns:rdf="http://www.w3.org/1999/02/22-rdf-syntax-ns#"
   xmlns:cc="http://creativecommons.org/ns#"
   xmlns:dc="http://purl.org/dc/elements/1.1/">
  <metadata
     id="metadata4142">
    <rdf:RDF>
      <cc:Work
         rdf:about="">
        <dc:format>image/svg+xml</dc:format>
        <dc:type
           rdf:resource="http://purl.org/dc/dcmitype/StillImage" />
      </cc:Work>
    </rdf:RDF>
  </metadata>
  <defs
     id="defs4140" />
  <sodipodi:namedview
     pagecolor="#ffffff"
     bordercolor="#666666"
     borderopacity="1"
     objecttolerance="10"
     gridtolerance="10"
     guidetolerance="10"
     inkscape:pageopacity="0"
     inkscape:pageshadow="2"
     inkscape:window-width="1344"
     inkscape:window-height="762"
     id="namedview4138"
     showgrid="false"
     inkscape:zoom="1.7257216"
     inkscape:cx="217.30041"
     inkscape:cy="517.75444"
     inkscape:window-x="0"
     inkscape:window-y="25"
     inkscape:window-maximized="0"
     inkscape:current-layer="svg4136"
     inkscape:showpageshadow="2"
     inkscape:pagecheckerboard="0"
     inkscape:deskcolor="#d1d1d1" />
  <path
     style="fill:none;fill-rule:evenodd;stroke:#000000;stroke-width:1;stroke-linecap:butt;stroke-linejoin:miter;stroke-miterlimit:4;stroke-dasharray:none;stroke-opacity:1"
     d="m 316.21914,522.82376 c 0,0 5.15917,-6.36063 7.62264,-9.6519 2.63712,-3.52326 5.2234,-7.23342 7.39588,-11.0607 1.7293,-3.04652 3.45786,-6.07782 4.82068,-9.30496 0.91093,-2.15707 1.68402,-4.51337 2.04538,-6.82685 0.54022,-3.45854 1.9747,-8.32734 -0.79223,-10.47151 -1.27226,-0.98591 -3.56102,-0.23208 -4.75343,0.84904 -3.84825,3.48909 -2.09466,10.26231 -4.22528,14.99974 -2.36414,5.25665 -5.34999,10.39282 -9.34124,14.55112 -1.52953,1.59355 -3.55647,2.62722 -5.42492,3.80525 -3.59744,2.26813 -7.11201,4.82605 -11.11362,6.26586 -8.71358,3.1352 -27.34538,4.9024 -27.34538,4.9024"
     id="path4169"
     inkscape:connector-curvature="0"
     sodipodi:nodetypes="cssssssssssc" />
  <path
     style="fill:none;fill-rule:evenodd;stroke:#000000;stroke-width:1;stroke-linecap:butt;stroke-linejoin:miter;stroke-miterlimit:4;stroke-dasharray:none;stroke-opacity:1"
     d="m 102.80604,148.65213 c 0,0 -6.348941,24.07051 -9.220541,36.18027 -2.1431,9.03762 -6.520811,17.94427 -5.975436,27.21648 0.580354,9.86692 7.015487,18.50739 9.710094,28.01696 1.564865,5.52258 4.327413,11.10086 3.734633,16.81018 -1.058882,10.19855 -7.397837,19.23961 -12.697786,28.01698 -6.289653,10.41644 -14.420602,19.63782 -22.407884,28.81743 -5.862067,6.73715 -14.011865,11.59425 -18.673248,19.21163 -3.235628,5.28749 -6.684797,11.45245 -5.975436,17.61067 0.647272,5.6192 5.365341,10.04408 8.963154,14.40872 3.242063,3.93307 6.594199,8.23142 11.203953,10.40632 3.634952,1.71498 8.879943,-0.992 11.950871,1.60096 5.124176,4.32664 5.91568,12.50541 5.975436,19.21163 0.03962,4.44687 -1.978983,8.72195 -3.734658,12.80776 -0.975579,2.27037 -3.621705,3.93535 -3.734637,6.40387 -0.242212,5.29437 3.235903,10.41702 6.722355,14.40873 1.94723,2.22942 7.469294,4.8029 7.469294,4.8029 0,0 -6.214931,4.57772 -7.469294,8.00486 -1.744622,4.76661 -1.440034,10.62867 0.74694,15.20922 1.725919,3.61488 5.975439,5.33655 8.963154,8.00483 1.49386,1.33414 3.692724,2.16143 4.481576,4.00243 3.049256,7.11625 -0.262587,15.4872 -0.74694,23.21406 -0.502971,8.02387 -2.573747,15.98181 -2.240777,24.01453 0.235708,5.68633 0.215082,11.84004 2.987717,16.81019 2.927285,5.24737 8.04177,9.3782 13.44473,12.00726 6.82265,3.31987 14.89647,2.93043 22.40786,4.00242 9.91562,1.41511 19.86194,3.07147 29.87718,3.20195 13.23772,0.17247 26.35078,-2.95132 39.58725,-3.20195 6.22902,-0.11795 12.6645,-0.84554 18.67326,0.80049 7.62809,2.08962 15.71045,5.25052 20.91402,11.20679 6.55833,7.50699 7.96462,18.36531 10.45701,28.01697 1.68637,6.53041 0.48973,13.74711 2.98772,20.01211 2.41241,6.05035 7.98245,10.34854 11.20393,16.00968 4.48867,7.88797 8.11452,16.28136 11.20396,24.81504 3.48764,9.6336 8.45349,19.37522 8.21621,29.61795 -0.28077,12.1203 -11.33475,34.55933 -11.33475,34.55933"
     id="path4150"
     inkscape:connector-curvature="0"
     sodipodi:nodetypes="cssssssssssssssscssssssssssssssssssc" />
  <path
     style="fill:none;fill-rule:evenodd;stroke:#000000;stroke-width:1;stroke-linecap:butt;stroke-linejoin:miter;stroke-miterlimit:4;stroke-dasharray:none;stroke-opacity:1"
     d="m 566.62396,149.00401 c 0,0 7.94605,14.5338 10.97179,22.22015 2.85708,7.25789 5.76158,14.67298 6.72236,22.41357 1.38179,11.13242 -0.40421,22.45556 -1.49386,33.62036 -0.9699,9.93781 -2.2142,19.89375 -4.48158,29.61793 -2.79763,11.99828 -7.25515,23.55116 -11.20393,35.22132 -3.54367,10.47288 -6.82041,21.06887 -11.20395,31.21891 -3.9173,9.07046 -8.40365,17.91859 -13.44473,26.416 -4.94889,8.342 -11.13079,15.89218 -16.43245,24.01454 -5.15286,7.89439 -11.58803,15.2028 -14.93859,24.01456 -3.65653,9.61645 -4.98959,20.13301 -5.22849,30.4184 -0.28097,12.09658 3.22304,23.98761 4.48157,36.02182 1.53191,14.64837 1.9478,29.40719 3.73464,44.02665 1.14741,9.38786 2.60539,18.74723 4.48158,28.01698 2.07119,10.23318 4.00066,20.57075 7.46929,30.41841 3.5215,9.99776 7.66672,19.9309 13.44473,28.81745 5.78626,8.89924 13.31549,16.60244 20.91403,24.01456 5.09091,4.96602 11.07319,8.93305 16.43244,13.60821 3.5667,3.11142 10.45702,9.60582 10.45702,9.60582"
     id="path4152"
     inkscape:connector-curvature="0"
     sodipodi:nodetypes="csssssssssssssssssc" />
  <path
     style="fill:none;fill-rule:evenodd;stroke:#000000;stroke-width:1;stroke-linecap:butt;stroke-linejoin:miter;stroke-miterlimit:4;stroke-dasharray:none;stroke-opacity:1"
     d="m 55.615408,371.00608 c 0,0 13.22629,-8.5131 16.309147,-14.86996 2.918919,-6.01882 -0.714741,-13.69797 1.493859,-20.01211 2.772402,-7.92598 9.582427,-13.79387 14.191649,-20.81259 5.371526,-8.17953 10.650323,-16.42429 15.685527,-24.81504 6.47653,-10.79261 11.97229,-22.16514 18.67323,-32.81987 5.356,-8.51623 9.19593,-18.69314 17.17937,-24.81503 6.29408,-4.82645 14.59272,-6.65083 22.40788,-8.00485 16.19124,-2.80522 32.86826,-0.33207 49.29735,0 13.20384,0.26688 27.88623,-4.52265 39.58725,1.60097 6.22179,3.25611 8.74323,11.00723 12.69781,16.81018 5.63829,8.27363 9.83562,17.49011 15.68551,25.61551 4.07169,5.65551 8.20117,11.41966 13.44473,16.00971 5.99202,5.24523 12.98843,9.36051 20.16709,12.80775 11.14864,5.35365 23.40818,7.99205 35.10569,12.00726 6.97396,2.39384 15.62114,2.07096 20.91403,7.20437 6.55486,6.35736 8.51377,16.56282 9.71007,25.6155 0.60105,4.5483 -1.10631,9.11499 -1.36803,13.69536 -0.1802,3.15357 -0.0636,6.3173 -0.13832,9.47513 -0.12729,5.37864 -0.13353,10.76615 -0.52814,16.13181 -0.39698,5.39788 -1.38656,10.7391 -1.84857,16.13181 -0.66139,7.71995 -0.79917,15.47647 -1.3204,23.20715 -0.31678,4.69838 -0.7605,9.38748 -1.0981,14.08441 -0.53026,7.37752 -1.26204,14.7478 -1.45673,22.14179 -0.2415,9.17187 0.29972,18.34794 0.35912,27.52279 0.0436,6.72967 -0.10047,13.46035 -0.002,20.18944 0.11287,7.71342 0.25502,15.4302 0.67943,23.13276 0.94601,17.16885 2.01292,34.35634 4.15976,51.41668 0.64289,5.10883 1.64361,10.16761 2.60784,15.22564 1.67281,8.77503 3.11509,17.62064 5.51085,26.22644 2.23856,8.04112 5.47294,15.77127 8.25424,23.64116 4.00621,11.33585 12.14763,33.96169 12.14763,33.96169"
     id="path4154"
     inkscape:connector-curvature="0"
     sodipodi:nodetypes="cssssssssssssssssssssssssssssssc" />
  <path
     style="fill:none;fill-rule:evenodd;stroke:#000000;stroke-width:1;stroke-linecap:butt;stroke-linejoin:miter;stroke-miterlimit:4;stroke-dasharray:none;stroke-opacity:1"
     d="m 74.979084,332.58571 c 0,0 8.77428,-1.8424 12.249203,-0.56602 4.651866,1.70868 8.536332,5.79407 10.827251,10.18851 2.247812,4.31176 3.179822,9.68977 2.112632,14.43372 -0.522524,2.32275 -2.063178,4.50603 -3.961199,5.94329 -3.172029,2.40199 -8.070883,1.43349 -11.355419,3.67918 -3.21713,2.19961 -5.912356,5.45197 -7.394223,9.05645 -1.405359,3.41838 -1.363033,4.93386 -1.363033,4.93386"
     id="path4164"
     inkscape:connector-curvature="0"
     sodipodi:nodetypes="cssssssc" />
  <path
     style="fill:none;fill-rule:evenodd;stroke:#000000;stroke-width:1;stroke-linecap:butt;stroke-linejoin:miter;stroke-miterlimit:4;stroke-dasharray:none;stroke-opacity:1"
     d="m 96.206971,362.58521 19.145759,-3.11315 29.70895,-0.28303 42.78085,0.28303 52.5518,1.13207 c 0,0 31.41179,-1.52459 47.00616,0 6.78677,0.66351 13.69711,1.53597 20.07002,3.96217 7.63953,2.90841 14.84309,7.2237 21.12636,12.45263 5.57118,4.63632 10.38255,10.29136 14.26028,16.41482 3.74836,5.91916 6.69411,12.46251 8.45053,19.24496 1.42517,5.50332 3.36541,11.58213 1.58449,16.98083 -0.66218,2.00734 -2.4295,3.61712 -4.23027,4.72397 -0.87838,0.5399 -1.96082,0.89256 -2.98774,0.80048 -1.71355,-0.15365 -3.3577,-1.08678 -4.66829,-2.20133 -5.61041,-4.7712 -8.32992,-12.14812 -12.51108,-18.21104 -3.47806,-5.04338 -6.05594,-10.85394 -10.46109,-15.11156 -4.89133,-4.72752 -10.91478,-8.35294 -17.16518,-11.03755 -7.66052,-3.29027 -16.01345,-4.98392 -24.2953,-5.9433 -9.76635,-1.13135 -19.67076,-0.14034 -29.49373,0.27315 -12.47276,0.52504 -24.93351,1.47361 -37.34647,2.80169 -9.62307,1.02959 -19.36318,1.67351 -28.75678,4.00242 -8.7396,2.16676 -17.15948,5.56665 -25.3956,9.20558 -7.07666,3.12665 -13.9378,6.77435 -20.54055,10.80656 -3.76472,2.29906 -6.65398,6.18489 -10.83049,7.60459 -2.92295,0.99358 -6.27504,1.21379 -9.25299,0.39975 -2.8365,-0.77537 -5.81727,-2.32925 -7.39422,-4.81122 -2.40063,-3.77836 -1.65875,-8.82919 -1.84854,-13.30167 -0.14018,-3.30354 0.52814,-9.90548 0.52814,-9.90548 l -5.28159,-1.13207 c 0,0 0.60564,11.31835 0.52817,16.98084 -0.0922,6.73586 2.25928,14.38298 -1.18069,20.17494 -2.888257,4.86303 -14.399991,8.97553 -14.399991,8.97553 0,0 5.866867,-2.15743 8.714622,-1.41508 2.936442,0.76547 5.523439,3.08595 7.130139,5.66028 2.60805,4.17874 2.63768,9.53662 3.16894,14.43372 0.41715,3.8453 0,11.60357 0,11.60357 v 3.39619 l 3.9612,-0.28304 c 0,0 0.34695,-11.30381 2.90488,-16.13181 1.32613,-2.50303 3.37735,-5.07565 6.07383,-5.94329 2.96701,-0.95469 6.74855,-0.454 9.24277,1.41508 3.16561,2.37219 3.83504,6.9796 5.01751,10.75454 1.85996,5.9378 1.9335,12.29751 3.16896,18.39591 1.53873,7.59537 5.49886,14.89451 5.28157,22.64113 -0.19296,6.87906 -2.64471,13.70023 -5.80974,19.81098 -2.2151,4.27671 -4.58175,9.35493 -8.9787,11.32057 -2.89815,1.29561 -6.78601,1.06946 -9.50686,-0.56603 -4.92519,-2.96052 -6.80196,-9.39847 -8.9787,-14.71673 -2.34843,-5.73773 -4.79662,-11.93956 -4.22526,-18.11291 0.32284,-3.48818 3.08068,-6.31164 4.22526,-9.62247 0.92302,-2.66994 1.75773,-5.40481 2.11265,-8.20741 0.2489,-1.9654 0,-5.9433 0,-5.9433 l -0.48478,-5.13246"
     id="path4166"
     inkscape:connector-curvature="0"
     sodipodi:nodetypes="cccccssssssssssssssssssssssccsscssscccssssssssssssscc" />
  <path
     style="fill:none;fill-rule:evenodd;stroke:#000000;stroke-width:1;stroke-linecap:butt;stroke-linejoin:miter;stroke-miterlimit:4;stroke-dasharray:none;stroke-opacity:1"
     d="m 115.23296,447.67745 c 0,0 -1.00794,-4.20612 -1.06858,-6.69735 -0.0833,-3.42355 -1.25204,-7.92792 1.3204,-10.18849 0.8596,-0.75539 2.5029,-0.66662 3.43303,0 1.78139,1.27671 1.346,4.1731 2.11263,6.2263 0.57028,1.52734 0.87407,3.22119 1.84857,4.52822 0.54005,0.72433 1.64382,0.92574 2.11263,1.69809 0.69888,1.15137 0.79223,3.553 0.79223,3.553"
     id="path4168"
     inkscape:connector-curvature="0"
     sodipodi:nodetypes="cssssssc" />
  <path
     style="fill:none;fill-rule:evenodd;stroke:#000000;stroke-width:1;stroke-linecap:butt;stroke-linejoin:miter;stroke-miterlimit:4;stroke-dasharray:none;stroke-opacity:1"
     d="m 109.21135,414.64269 c 0,0 -2.18536,2.70559 -2.96936,4.54534 -0.83957,1.97016 -1.25247,4.11062 -1.58448,6.22631 -0.43961,2.80133 -1.54317,5.8427 -0.52815,8.49042 0.53005,1.38265 1.68823,3.1242 3.16895,3.11315 2.25439,-0.0168 3.56344,-2.89641 4.75342,-4.81122 1.42249,-2.28895 1.15606,-5.39232 2.6408,-7.64139 0.85108,-1.28921 2.85453,-1.68078 3.43303,-3.11317 0.49568,-1.22734 -0.21416,-3.16375 -0.21416,-3.16375"
     id="path4170"
     inkscape:connector-curvature="0"
     sodipodi:nodetypes="csssssssc" />
  <path
     style="fill:none;fill-rule:evenodd;stroke:#000000;stroke-width:1;stroke-linecap:butt;stroke-linejoin:miter;stroke-miterlimit:4;stroke-dasharray:none;stroke-opacity:1"
     d="m 127.19732,447.79162 c 0,0 2.32013,-1.2931 3.36119,-0.80048 3.0849,1.45974 3.10704,6.08178 4.48158,9.20558 1.50198,3.41343 1.56299,7.68051 4.1081,10.40629 1.69388,1.81413 4.25713,3.48986 6.72237,3.20195 1.90367,-0.22232 3.78183,-1.81789 4.48158,-3.60219 0.93547,-2.38535 0.39302,-5.53709 -1.1204,-7.60459 -1.79941,-2.45819 -5.9863,-1.92683 -8.21621,-4.00242 -3.27273,-3.04625 -4.77382,-7.58292 -6.72238,-11.60704 -2.06362,-4.26174 -5.2458,-8.47296 -5.22849,-13.208 0.0158,-4.31719 2.11494,-8.67104 4.85503,-12.00726 3.40014,-4.13987 8.62023,-6.47647 13.44473,-8.80534 8.03016,-3.87629 16.77964,-6.10851 25.3956,-8.40509 12.89075,-3.43602 25.97097,-6.39082 39.2138,-8.00485 12.86259,-1.56769 25.893,-2.12105 38.84033,-1.60096 9.89961,0.39766 20.10322,0.47304 29.5037,3.60218 7.62714,2.53885 15.27729,6.27609 20.91402,12.00726 5.23655,5.32429 8.41465,12.54554 10.83048,19.61189 2.35859,6.89892 2.88204,14.33787 3.36117,21.61307 0.35956,5.45957 -2.38014,11.31982 -0.37346,16.40995 0.36948,0.93722 1.55555,1.322 2.11213,2.16171 0.64671,0.97568 1.10544,2.09559 1.35739,3.2387 0.87664,3.97741 0.48206,8.1375 0.45193,12.21026 -0.0178,2.40461 0.31199,4.89944 -0.37346,7.20435 -1.16552,3.91922 -3.59245,7.42599 -6.16218,10.60643 -1.74482,2.15949 -5.22485,2.9901 -6.16215,5.60338 -0.89455,2.49409 -1.22809,6.68098 1.14151,7.86658 1.33283,0.66686 2.63725,-1.39082 3.92616,-2.13905 0.78201,-0.45397 1.54454,-0.9409 2.30826,-1.42501 1.75619,-1.11323 3.76339,-1.92662 5.2285,-3.40206 4.18677,-4.21627 7.19738,-9.58204 9.61671,-15.00909"
     id="path4172"
     inkscape:connector-curvature="0"
     sodipodi:nodetypes="csssssssssssssssssssssssssssssc" />
  <path
     style="fill:none;fill-rule:evenodd;stroke:#000000;stroke-width:1;stroke-linecap:butt;stroke-linejoin:miter;stroke-miterlimit:4;stroke-dasharray:none;stroke-opacity:1"
     d="m 267.2466,519.83526 c -2.14339,1.21782 -3.65464,3.36872 -5.78872,4.60277 -3.76668,2.17812 -8.71579,2.11527 -12.13759,4.80291 -1.86391,1.46401 -3.46894,3.52121 -4.10811,5.80352 -0.72134,2.57571 0.0922,5.3713 0.5602,8.00485 0.35238,1.98292 0.26426,4.37169 1.68059,5.80352 1.46298,1.47899 3.93926,2.22744 5.97542,1.80108 3.12122,-0.65356 5.42612,-3.61092 7.28257,-6.20374 1.67105,-2.33388 1.6191,-5.59232 3.17444,-8.00486 1.45688,-2.25981 3.82127,-3.789 5.60198,-5.80352 1.70453,-1.92833 3.77686,-3.66665 4.85503,-6.00362 0.56855,-1.23235 1.38643,-2.80537 0.74692,-4.00243 -0.79778,-1.49331 -2.97564,-1.96449 -4.66829,-2.0012 -1.13105,-0.0245 -2.19081,0.64185 -3.17444,1.20072 z"
     id="path4174"
     inkscape:connector-curvature="0"
     sodipodi:nodetypes="ssssssssssssss" />
  <path
     style="fill:none;fill-rule:evenodd;stroke:#000000;stroke-width:1;stroke-linecap:butt;stroke-linejoin:miter;stroke-miterlimit:4;stroke-dasharray:none;stroke-opacity:1"
     d="m 140.8364,499.56403 c 0,0 10.87425,2.02626 16.37293,2.54713 10.87312,1.02997 21.84394,0.47293 32.74583,1.13204 10.93601,0.66117 21.91569,1.1746 32.74587,2.83014 9.08908,1.38939 18.28873,2.81841 26.93609,5.9433 5.03056,1.81789 10.3817,3.67491 14.26028,7.35837 0.63351,0.60164 1.3204,2.26412 1.3204,2.26412"
     id="path4176"
     inkscape:connector-curvature="0"
     sodipodi:nodetypes="csssssc" />
  <path
     style="fill:none;fill-rule:evenodd;stroke:#000000;stroke-width:1;stroke-linecap:butt;stroke-linejoin:miter;stroke-miterlimit:4;stroke-dasharray:none;stroke-opacity:1"
     d="m 125.51978,530.41257 c 0,0 8.80287,-0.0433 13.20399,0 9.59627,0.0943 19.20542,-0.0135 28.78464,0.56602 8.39017,0.50757 16.75951,1.40855 25.08755,2.54713 9.91193,1.35512 19.79437,3.00025 29.5769,5.09426 6.30943,1.35057 12.95144,1.98033 18.74964,4.81122 2.49784,1.21953 5.87029,4.42356 5.87029,4.42356"
     id="path4178"
     inkscape:connector-curvature="0"
     sodipodi:nodetypes="csssssc" />
  <path
     style="fill:none;fill-rule:evenodd;stroke:#000000;stroke-width:1;stroke-linecap:butt;stroke-linejoin:miter;stroke-miterlimit:4;stroke-dasharray:none;stroke-opacity:1"
     d="m 316.98129,521.8802 c 0,0 -7.80255,9.3623 -11.26784,14.365 -6.73222,9.71904 -14.04699,19.11285 -20.16711,29.21769 -2.80842,4.63693 -5.6792,9.48917 -6.72235,14.80896 -0.6166,3.14448 -0.3639,6.48745 0.37346,9.60582 1.17971,4.9891 4.1764,9.36486 6.34889,14.00848 1.82051,3.89127 4.01321,7.61556 5.602,11.60704 2.27814,5.72332 3.39305,11.86025 5.60196,17.61064 1.83836,4.78575 3.73579,9.59777 6.34889,14.00851 3.48682,5.88551 8.48183,10.7502 12.32433,16.40992 2.54715,3.75177 4.83365,7.67685 7.09584,11.60702 5.2211,9.07075 14.93859,27.61672 14.93859,27.61672"
     id="path4180"
     inkscape:connector-curvature="0"
     sodipodi:nodetypes="cssssssssssc" />
  <path
     style="fill:none;fill-rule:evenodd;stroke:#000000;stroke-width:1;stroke-linecap:butt;stroke-linejoin:miter;stroke-miterlimit:4;stroke-dasharray:none;stroke-opacity:1"
     d="m 285.73309,565.06263 c 0,0 -0.84068,-6.80113 -2.61426,-9.6058 -2.19104,-3.46481 -5.82256,-5.89371 -9.33662,-8.00487 -2.97962,-1.79008 -6.27583,-3.26516 -9.71007,-3.80227 -1.04752,-0.16383 -3.17446,0.20008 -3.17446,0.20008"
     id="path4182"
     inkscape:connector-curvature="0"
     sodipodi:nodetypes="csssc" />
  <path
     style="fill:none;fill-rule:evenodd;stroke:#000000;stroke-width:1;stroke-linecap:butt;stroke-linejoin:miter;stroke-miterlimit:4;stroke-dasharray:none;stroke-opacity:1"
     d="m 253.24167,550.65391 2.61424,13.208 3.54791,19.21163 1.1204,15.20922 2.42752,9.00544 6.53564,12.40752 9.33661,18.61126 5.22852,15.60947 5.97543,14.20859 5.60196,12.40752 1.1204,11.60704 -0.18685,14.40872"
     id="path4184"
     inkscape:connector-curvature="0" />
  <path
     style="fill:none;fill-rule:evenodd;stroke:#000000;stroke-width:1;stroke-linecap:butt;stroke-linejoin:miter;stroke-miterlimit:4;stroke-dasharray:none;stroke-opacity:1"
     d="m 377.97972,688.61743 c 0,0 -6.35006,-15.3547 -9.77094,-22.92412 -2.80177,-6.1995 -6.04894,-12.19272 -8.80412,-18.41307 -2.80197,-6.326 -5.48431,-12.71281 -7.85109,-19.21417 -1.8734,-5.14607 -3.50941,-10.37975 -5.01751,-15.64447 -1.5855,-5.53491 -3.44089,-11.04304 -4.23331,-16.74577 -0.73049,-5.25706 -0.36979,-10.60934 -0.45418,-15.91624 -0.077,-4.84485 1.56348,-9.96652 -0.0476,-14.5363 -0.56231,-1.59497 -1.60255,-3.32458 -3.16894,-3.96219 -1.06798,-0.43472 -2.39324,-0.0738 -3.43305,0.42453 -1.77053,0.84855 -3.43442,2.30666 -4.22526,4.10371 -2.43298,5.52853 -0.24276,12.07944 -0.52817,18.11289 -0.25463,5.38277 -1.57188,10.76774 -1.05631,16.13181 0.6626,6.89374 3.11144,13.51729 5.28159,20.094 3.12007,9.45548 7.05119,18.63492 11.09134,27.73536 2.59974,5.85591 5.59844,11.52664 8.45053,17.26388 2.86953,5.77233 6.13122,11.35794 8.71463,17.26386 0.60532,1.38382 1.58448,4.2452 1.58448,4.2452"
     id="path4188"
     inkscape:connector-curvature="0"
     sodipodi:nodetypes="cssssssssssssssssc" />
  <path
     style="fill:none;fill-rule:evenodd;stroke:#000000;stroke-width:1;stroke-linecap:butt;stroke-linejoin:miter;stroke-miterlimit:4;stroke-dasharray:none;stroke-opacity:1"
     d="m 286.34416,598.05294 c 1.43469,4.0688 8.62787,0.42405 12.9399,0.28301 4.32745,-0.14155 8.88217,0.37853 12.93988,-1.13205 4.68104,-1.74262 12.01897,-3.78024 12.14767,-8.77346 0.0233,-0.9032 -1.21632,-1.58448 -2.11265,-1.69807 -4.31336,-0.5466 -7.73099,4.0889 -11.88357,5.37727 -3.58695,1.11288 -7.36946,1.4787 -11.09133,1.98111 -3.06609,0.41389 -6.388,-0.34362 -9.24279,0.84903 -1.48657,0.62105 -4.23286,1.59376 -3.69711,3.11316 z"
     id="path4190"
     inkscape:connector-curvature="0"
     sodipodi:nodetypes="sssssssss" />
  <path
     style="fill:none;fill-rule:evenodd;stroke:#000000;stroke-width:1;stroke-linecap:butt;stroke-linejoin:miter;stroke-miterlimit:4;stroke-dasharray:none;stroke-opacity:1"
     d="m 367.93047,316.42518 c 0,0 6.36084,0.94549 8.5133,3.05692 5.61755,5.51047 7.25185,14.27637 8.40412,22.06061 0.62481,4.22093 -0.72441,8.50589 -0.89613,12.76935 -0.54761,13.59631 0.12467,27.22359 -0.42639,40.81976 -0.50555,12.47346 -1.79418,24.90292 -2.64077,37.35788 -0.564,8.2976 -1.5715,16.58071 -1.6247,24.89728 -0.0412,6.44216 0.69865,12.8657 1.01171,19.30038 0.41223,8.47311 0.65627,16.95454 1.14114,25.4238 0.72429,12.65119 1.76697,25.28214 2.64079,37.92388 0.8868,12.82952 0.84678,25.75553 2.6408,38.48992 1.25373,8.89925 3.50367,17.63592 5.65768,26.3611 1.48827,6.02848 3.24692,11.98827 5.01638,17.94029 2.02621,6.81566 4.24048,13.57413 6.4114,20.34509 2.10793,6.5745 4.3453,13.10732 6.42206,19.69173 1.54259,4.89081 4.48489,14.71673 4.48489,14.71673"
     id="path4194"
     inkscape:connector-curvature="0"
     sodipodi:nodetypes="cssssssssssssssc" />
  <path
     style="fill:none;fill-rule:evenodd;stroke:#000000;stroke-width:1;stroke-linecap:butt;stroke-linejoin:miter;stroke-miterlimit:4;stroke-dasharray:none;stroke-opacity:1"
     d="m 143.74128,280.22812 c 0,0 22.17622,-9.35279 33.97162,-10.71438 12.22126,-1.41075 24.50181,2.5381 36.80165,2.78998 10.75926,0.22033 21.86562,-3.88843 32.2651,-1.12056 8.98978,2.39268 23.71974,14.70523 23.71974,14.70523"
     id="path4198"
     inkscape:connector-curvature="0"
     sodipodi:nodetypes="csssc" />
  <path
     style="fill:none;fill-rule:evenodd;stroke:#000000;stroke-width:1;stroke-linecap:butt;stroke-linejoin:miter;stroke-miterlimit:4;stroke-dasharray:none;stroke-opacity:1"
     d="m 151.1355,316.4539 c 0,0 18.66121,3.68668 28.1212,3.85831 12.87123,0.23351 25.55473,-4.03827 38.42682,-3.85829 9.29396,0.12995 18.42926,2.44018 27.65638,3.56041 9.43479,1.14544 28.32844,3.23192 28.32844,3.23192"
     id="path4200"
     inkscape:connector-curvature="0"
     sodipodi:nodetypes="csssc" />
  <path
     style="fill:none;fill-rule:evenodd;stroke:#000000;stroke-width:1;stroke-linecap:butt;stroke-linejoin:miter;stroke-miterlimit:4;stroke-dasharray:none;stroke-opacity:1"
     d="m 347.44576,309.8981 c 0,0 0.0854,10.28928 2.00945,14.92624 1.6831,4.05624 5.14376,7.13213 8.00269,10.46566 2.34836,2.7382 4.39016,5.96947 7.49451,7.80675 2.41195,1.42749 5.34052,1.8184 8.11904,2.18589 1.54787,0.20472 4.68405,0 4.68405,0"
     id="path4163"
     inkscape:connector-curvature="0"
     sodipodi:nodetypes="cssssc" />
  <path
     style="fill:none;fill-rule:evenodd;stroke:#000000;stroke-width:1;stroke-linecap:butt;stroke-linejoin:miter;stroke-miterlimit:4;stroke-dasharray:none;stroke-opacity:1"
     d="m 344.68674,364.3552 c 2.55326,-1.58785 -0.53377,-5.99522 -1.02091,-8.96223 -0.61999,-3.77615 -0.48545,-7.919 -2.41607,-11.22299 -1.62271,-2.77703 -4.13229,-5.50325 -7.22109,-6.40014 -3.36018,-0.97569 -8.48521,-1.2801 -10.36281,1.67242 -1.64111,2.58065 0.92088,6.21421 2.51741,8.82267 1.16739,1.90733 3.12179,3.22804 4.90743,4.57421 1.91166,1.44117 4.40808,2.06489 6.1539,3.70304 1.61223,1.5128 2.18451,3.91746 3.77402,5.45411 1.04516,1.01041 2.43365,3.12662 3.66812,2.35891 z"
     id="path4171"
     inkscape:connector-curvature="0"
     sodipodi:nodetypes="ssssssssss" />
  <path
     style="fill:none;fill-rule:evenodd;stroke:#000000;stroke-width:1;stroke-linecap:butt;stroke-linejoin:miter;stroke-miterlimit:4;stroke-dasharray:none;stroke-opacity:1"
     d="m 358.94533,312.2767 c 0,0 3.27459,7.64383 2.65016,10.75667 -0.32859,1.63809 -1.67706,3.02173 -3.04463,3.98145 -1.69766,1.19137 -6.5576,2.03795 -6.5576,2.03795"
     id="path4175"
     inkscape:connector-curvature="0"
     sodipodi:nodetypes="cssc" />
  <path
     style="fill:none;fill-rule:evenodd;stroke:#000000;stroke-width:1;stroke-linecap:butt;stroke-linejoin:miter;stroke-miterlimit:4;stroke-dasharray:none;stroke-opacity:1"
     d="m 359.09734,326.46834 c 0,0 3.91679,6.19069 7.14155,7.22289 1.40985,0.45127 3.07665,0.0374 4.33438,-0.74327 1.26471,-0.785 4.07551,-6.32132 4.07551,-6.32132"
     id="path4177"
     inkscape:connector-curvature="0"
     sodipodi:nodetypes="cssc" />
  <path
     style="fill:none;fill-rule:evenodd;stroke:#000000;stroke-width:1;stroke-linecap:butt;stroke-linejoin:miter;stroke-miterlimit:4;stroke-dasharray:none;stroke-opacity:1"
     d="m 366.12342,333.61154 c 0,0 4.21054,3.39296 5.38667,5.73795 0.53323,1.06316 0.47788,2.33276 0.62455,3.51307 0.0901,0.72491 0.15618,2.18589 0.15618,2.18589"
     id="path4179"
     inkscape:connector-curvature="0"
     sodipodi:nodetypes="cssc" />
  <path
     style="fill:none;fill-rule:evenodd;stroke:#000000;stroke-width:1;stroke-linecap:butt;stroke-linejoin:miter;stroke-miterlimit:4;stroke-dasharray:none;stroke-opacity:1"
     d="m 370.72942,480.49581 c 0,0 -0.0978,9.83649 -0.0781,14.75478 0.013,3.25215 0.0578,6.50429 0.12972,9.75567 0.0622,2.81202 0.1671,5.62294 0.26075,8.43409 0.14566,4.37215 0.066,8.66346 0.3011,13.03172 0.38972,7.24249 0.7319,14.62728 1.33278,21.85531 0.22953,2.76111 0.4016,5.48712 0.62388,8.24882 0.25109,3.11955 0.84907,9.3449 0.84907,9.3449 l 11.26276,-0.15618 c 0,0 -0.62967,-17.82222 -1.25422,-26.71843 -0.67259,-9.5804 -1.61546,-19.14187 -2.18589,-28.72889 -0.50433,-8.47618 -0.83545,-16.97337 -1.33129,-25.45005 -0.0823,-1.40667 -0.23178,-4.21566 -0.23178,-4.21566 z"
     id="C13.2"
     inkscape:connector-curvature="0"
     sodipodi:nodetypes="cssssssccssscc"
     inkscape:label="#path4167" />
  <path
     style="fill:none;fill-rule:evenodd;stroke:#000000;stroke-width:1;stroke-linecap:butt;stroke-linejoin:miter;stroke-miterlimit:4;stroke-dasharray:none;stroke-dashoffset:0;stroke-opacity:1"
     d="m 341.45404,479.48093 c -0.8447,-1.39902 -2.46539,-1.45485 -2.46539,-1.45485 0,0 -0.35774,4.78673 -0.88719,7.8976 -1.00155,5.88476 -3.99685,11.32276 -6.95235,16.50914 -4.55348,7.99054 -10.51015,14.72545 -16.09745,22.03058 -2.861,3.74062 -6.22546,7.47925 -9.02645,11.26502 -7.08523,9.57628 -20.20399,29.47795 -20.20399,29.47795 l 45.37616,0.44161 c 0,0 2.27716,-2.91341 3.86415,-3.75374 1.12899,-0.59781 3.75377,-0.77284 3.75377,-0.77284 0,0 -3.69797,-5.42984 -4.74741,-8.50113 -1.84106,-5.38802 -2.5585,-11.198 -2.53929,-16.89185 0.02,-5.92329 1.22839,-11.83245 2.76012,-17.5543 1.45806,-5.44665 4.63626,-10.3353 6.07223,-15.78781 1.33609,-5.07326 2.36469,-10.32098 2.3185,-15.56702 -0.0218,-2.47989 0.0564,-5.21533 -1.22541,-7.33836 z"
     id="C13.1"
     inkscape:connector-curvature="0"
     sodipodi:nodetypes="scssssccscssssss"
     inkscape:label="#path4173" />
  <path
     style="fill:none;fill-rule:evenodd;stroke:#000000;stroke-width:1;stroke-linecap:butt;stroke-linejoin:miter;stroke-miterlimit:4;stroke-dasharray:1, 1;stroke-dashoffset:0;stroke-opacity:1"
     d="m 341.7978,584.3475 c -0.12512,4.09915 0.26129,8.0278 0.51499,12.00068 1.04523,5.76382 2.755,11.52765 4.56748,17.29147 l 4.29411,13.56182 34.36497,-0.0241 -1.8999,-5.99606 c -1.19185,-5.79518 -2.82735,-11.27786 -3.78588,-17.4259 l -1.32162,-7.19091 -2.21962,-11.92703 z"
     id="C13.0"
     inkscape:connector-curvature="0"
     sodipodi:nodetypes="cccccccccc"
     inkscape:label="#path4181" />
  <path
     id="C13.9"
     style="font-size:33.2768px;font-family:'.Arial Hebrew Desk Interface';-inkscape-font-specification:'.Arial Hebrew Desk Interface, Normal';display:inline;fill:none;stroke:#000000;stroke-width:1;stroke-dasharray:none"
     d="m 618.93383,143.71544 q -2.7719,3.62043 -7.41057,3.62043 -4.18613,0 -6.84489,-2.65875 -2.60219,-2.71532 -2.60219,-6.78832 0,-4.35583 2.99817,-7.354 3.05474,-2.99817 7.24087,-2.99817 5.31751,0 8.42882,3.95985 3.16787,3.95985 3.16787,10.63501 0,7.24086 -3.28101,11.70984 -3.22446,4.46898 -8.99452,4.46898 -3.05473,0 -5.54378,-1.69709 -2.43247,-1.75366 -2.99817,-4.01642 l 4.80839,-0.7354 q 1.13138,2.14964 4.12955,2.14964 3.22446,0 5.03468,-2.7719 1.86678,-2.82846 1.86678,-7.5237 z m -0.90511,-5.93977 q 0,-2.88504 -1.47081,-4.52555 -1.41423,-1.64049 -3.95985,-1.64049 -2.20619,0 -3.79014,1.75363 -1.58393,1.69709 -1.58393,4.41241 0,2.37592 1.4708,3.95985 1.47081,1.52736 3.8467,1.52736 2.26278,0 3.84672,-1.52736 1.64051,-1.58393 1.64051,-3.95985 z m 15.97264,4.47502 A 21.750674,21.750674 0 0 1 612.25068,164.00135 21.750674,21.750674 0 0 1 590.5,142.25069 21.750674,21.750674 0 0 1 612.25068,120.5 a 21.750674,21.750674 0 0 1 21.75068,21.75069 z"
     inkscape:label="C13.9" />
  <path
     id="C13.8"
     style="font-size:33.2768px;font-family:'.Arial Hebrew Desk Interface';-inkscape-font-specification:'.Arial Hebrew Desk Interface, Normal';display:inline;fill:none;stroke:#000000;stroke-width:1;stroke-dasharray:none"
     d="m 606.21,80.95843 q -3.28102,-2.26276 -3.28102,-6.10946 0,-3.84672 2.77191,-5.88321 2.82845,-2.03649 6.50545,-2.03649 3.62044,0 6.44891,2.03649 2.82846,2.03649 2.82846,5.88321 0,3.8467 -3.28102,6.10946 v 0.0567 q 2.2062,1.01825 3.5073,3.05474 1.35765,1.97992 1.35765,4.35583 0,3.84672 -2.99816,6.61861 -2.99817,2.7719 -7.86314,2.7719 -5.03466,0 -7.97626,-2.7719 -2.88504,-2.82846 -2.88504,-6.61861 0,-2.37591 1.30111,-4.35583 1.35766,-2.03649 3.56385,-3.05474 z m 5.99634,-1.58393 q 1.69709,0 3.05474,-1.01824 1.41423,-1.01825 1.41423,-2.94161 0,-2.09306 -1.35766,-3.1113 -1.30108,-1.07483 -3.11131,-1.07483 -1.97992,0 -3.22444,1.13139 -1.24453,1.13138 -1.24453,3.05474 0,1.86678 1.35767,2.94161 1.41423,1.01824 3.1113,1.01824 z m 0,14.14232 q 2.14963,0 3.79014,-1.24453 1.64051,-1.24452 1.64051,-3.84671 0,-2.09306 -1.58393,-3.5073 -1.58394,-1.41423 -3.84672,-1.41423 -2.20619,0 -3.8467,1.41423 -1.58394,1.41424 -1.58394,3.5073 0,2.60219 1.64051,3.84671 1.64051,1.24453 3.79013,1.24453 z M 634.00133,82.25068 A 21.750674,21.750674 0 0 1 612.25068,104.00136 21.750674,21.750674 0 0 1 590.5,82.25068 21.750674,21.750674 0 0 1 612.25068,60.5 21.750674,21.750674 0 0 1 634.00133,82.25068 Z"
     inkscape:label="C13.8" />
</svg>
