<?xml version="1.0" encoding="UTF-8" standalone="no"?>
<!-- Created with Inkscape (http://www.inkscape.org/) -->

<svg
   id="svg4136"
   version="1.1"
   inkscape:version="1.3 (0e150ed, 2023-07-21)"
   width="700"
   height="750"
   viewBox="0 0 700 750"
   sodipodi:docname="level3_C25_neu Kopie.svg"
   xmlns:inkscape="http://www.inkscape.org/namespaces/inkscape"
   xmlns:sodipodi="http://sodipodi.sourceforge.net/DTD/sodipodi-0.dtd"
   xmlns="http://www.w3.org/2000/svg"
   xmlns:svg="http://www.w3.org/2000/svg"
   xmlns:rdf="http://www.w3.org/1999/02/22-rdf-syntax-ns#"
   xmlns:cc="http://creativecommons.org/ns#"
   xmlns:dc="http://purl.org/dc/elements/1.1/">
  <metadata
     id="metadata4142">
    <rdf:RDF>
      <cc:Work
         rdf:about="">
        <dc:format>image/svg+xml</dc:format>
        <dc:type
           rdf:resource="http://purl.org/dc/dcmitype/StillImage" />
      </cc:Work>
    </rdf:RDF>
  </metadata>
  <defs
     id="defs4140" />
  <sodipodi:namedview
     pagecolor="#ffffff"
     bordercolor="#666666"
     borderopacity="1"
     objecttolerance="10"
     gridtolerance="10"
     guidetolerance="10"
     inkscape:pageopacity="0"
     inkscape:pageshadow="2"
     inkscape:window-width="1360"
     inkscape:window-height="702"
     id="namedview4138"
     showgrid="false"
     inkscape:zoom="0.69996469"
     inkscape:cx="143.57867"
     inkscape:cy="342.16012"
     inkscape:window-x="0"
     inkscape:window-y="25"
     inkscape:window-maximized="0"
     inkscape:current-layer="svg4136"
     inkscape:showpageshadow="2"
     inkscape:pagecheckerboard="0"
     inkscape:deskcolor="#d1d1d1" />
  <g
     id="C24.0"
     inkscape:label="C24.0"
     transform="matrix(2.1082097,0,0,2.1082097,-115.84431,-567.91098)"
     style="stroke:#000000;stroke-width:0.47433612;stroke-dasharray:none;stroke-opacity:1">
    <path
       sodipodi:nodetypes="csssccsc"
       inkscape:connector-curvature="0"
       id="path4162-0"
       d="m 139.51685,507.39115 c 0,0 1.25098,-1.89921 2.14152,-2.57055 0.67747,-0.51071 1.67404,-0.48793 2.32843,-1.0279 1.59202,-1.31363 2.35215,-3.39235 3.53075,-5.08677 0.39626,-0.56969 1.2319,-1.95709 1.2319,-1.95709 -1.96936,-0.4785 -3.96823,-1.04525 -5.68868,-1.32716 0,0 -1.42929,2.38149 -2.5835,3.46539 -1.45369,1.36514 -5.14511,3.05275 -5.14511,3.05275"
       style="fill:none;fill-rule:evenodd;stroke:#000000;stroke-width:0.47433612;stroke-linecap:butt;stroke-linejoin:miter;stroke-miterlimit:4;stroke-dasharray:none;stroke-opacity:1" />
    <path
       inkscape:connector-curvature="0"
       id="path4164-7"
       d="m 151.15756,493.6747 c 1.04824,-3.40902 2.87402,-7.07041 1.8701,-10.75458 -0.59758,-1.79884 -0.63713,-7.85172 1.4341,-3.90017 0.26406,0.64481 0.0891,0.57947 0.34364,1.34425 1.00439,-0.59117 2.63523,-6.61742 3.07361,-8.00918 2.4244,-7.69691 2.9018,-15.3216 4.26711,-23.80799 0.65641,-4.08007 1.16168,-5.26456 4.69539,-7.34183 4.11685,-2.42007 6.6271,-4.9813 9.31349,-8.05831 3.21139,-3.67836 4.66712,-7.57163 6.22898,-12.07236 1.23164,-3.54917 1.98723,-7.44325 5.05912,-10.29708 3.49738,-3.24912 8.24819,-6.71613 8.24819,-6.71613 l -3.90005,-5.47874 c 0,0 -7.95652,5.89198 -11.79946,9.01287 -1.0485,-3.31857 -3.08708,-10.86632 -3.08708,-10.86632 l -5.61767,3.93565 c 0,0 2.74933,9.3057 3.37177,14.1991 0.54447,4.28047 -0.18779,7.4584 -1.81113,11.0944 -1.64234,3.67859 -4.5537,6.26316 -8.28655,7.48447 1.0353,-2.63784 2.20166,-5.99479 2.7196,-8.39721 0.84121,-3.90182 1.64309,-7.78217 -2.04059,-10.22965 -2.21814,2.18993 -3.66247,3.25234 -6.43723,5.43855 -1.26825,0.99923 -5.85599,3.19152 -6.02057,3.02212 0,0 4.45564,5.56769 3.38061,9.1421 -1.35944,4.52008 -2.62482,9.15786 -2.52382,14.03118 0.14524,7.00779 0.21764,14.19299 -2.00761,20.93977 -2.1645,8.65637 -5.3243,17.88933 -8.19551,26.32924 2.62742,0.54187 4.8733,1.33791 7.72156,-0.0442 z"
       style="fill:none;fill-rule:evenodd;stroke:#000000;stroke-width:0.47433612;stroke-linecap:butt;stroke-linejoin:miter;stroke-miterlimit:4;stroke-dasharray:none;stroke-opacity:1"
       sodipodi:nodetypes="ccccsssssscccccsscscscsscccc" />
  </g>
  <path
     style="fill:none;fill-rule:evenodd;stroke:#000000;stroke-width:1;stroke-linecap:butt;stroke-linejoin:miter;stroke-miterlimit:4;stroke-dasharray:none;stroke-opacity:1"
     d="m 522.59847,289.40344 c 0,0 11.13434,-5.49383 17.18075,-6.06777 5.76623,-0.54734 11.40493,2.16586 17.18075,2.6005 3.53523,0.26603 7.31412,-1.23928 10.63569,0 3.71959,1.38778 6.82145,4.48211 8.99944,7.80139 2.99114,4.55853 4.08107,10.21376 4.9088,15.60282 1.38567,7.66858 -0.19863,14.5005 -2.4544,21.67054 -2.1817,6.9346 -3.0418,9.33436 -4.90878,13.86915 -1.70286,4.13616 -2.34037,9.21338 -5.72693,12.13549 -3.02017,2.60596 -7.50778,2.88312 -11.45382,3.4673 -1.61862,0.23963 -4.90879,0 -4.90879,0 0,0 -1.07548,8.03263 -3.27254,11.2687 -2.90978,4.28584 -7.39658,7.78403 -12.27195,9.53503 -5.26373,1.89048 -16.77169,0.48761 -16.77169,0.48761 l -4.22095,-12.58998 -3.29609,-8.80164 c -0.34664,-0.0763 -3.46772,-10.60473 -3.37433,-15.61087 0.0767,-4.11042 0.21064,-8.19262 0.85958,-12.30341 0.95581,-6.05471 1.57194,-11.75662 4.15146,-18.14372 1.98328,-4.91076 4.54789,-9.82119 6.62488,-15.4035 1.21183,-3.25703 2.34904,-9.55309 2.11892,-9.51764 z"
     id="C25.2"
     inkscape:connector-curvature="0"
     inkscape:label="#path4146 C25.2"
     sodipodi:nodetypes="cssssssssscsscccssssc" />
  <path
     style="fill:none;fill-rule:evenodd;stroke:#000000;stroke-width:1;stroke-linecap:butt;stroke-linejoin:miter;stroke-miterlimit:4;stroke-dasharray:none;stroke-opacity:1"
     d="m 311.4184,476.31199 c 0,0 7.99523,7.09665 10.73795,11.59376 2.0807,3.41163 2.83765,7.47415 4.09067,11.26868 1.79626,5.43963 4.88865,10.74114 4.90879,16.46965 0.0138,3.9114 -1.66999,7.70063 -3.27253,11.2687 -1.25879,2.8027 -2.795,5.57165 -4.9088,7.80134 -1.37826,1.45382 -4.90877,3.46735 -4.90877,3.46735 -0.26244,6.79296 -2.4589,12.58668 -4.09067,19.07005 0,0 -1.03107,9.13577 -3.27251,13.00236 -2.08885,3.60336 -5.13668,7.11045 -8.99944,8.6682 -4.0467,1.63193 -9.02802,-1.59326 -13.0901,0 -5.53916,2.1726 -8.13054,8.41421 -13.51476,10.94652 -3.98293,1.87325 -8.30371,2.33243 -12.66541,2.92265 -6.27477,0.84909 -12.58169,3.70247 -18.81702,2.60052 -3.03907,-0.53708 -5.13136,-3.86308 -8.18135,-4.33416 -7.94525,-1.22718 -15.73497,5.21743 -23.72577,4.33416 -4.41597,-0.48812 -8.74205,-2.50307 -12.27195,-5.201 -7.00958,-5.35747 -11.59468,-13.38055 -16.36264,-20.8037 -3.86388,-6.0156 -7.2683,-12.3904 -9.81757,-19.07009 -2.08209,-5.45557 -2.17305,-11.55811 -4.39745,-16.95721 -2.06244,-5.006 -8.18131,-14.03172 -8.18131,-14.03172 0,0 19.85979,5.95362 28.73686,2.27541 5.45977,-2.26225 6.62397,-9.63938 11.79245,-12.50532 2.96011,-1.64139 9.75579,-2.48135 9.75579,-2.48135 l 10.93912,-1.78624 15.09643,-5.80934 c 0,0 3.94688,-4.93332 7.61672,-8.7408 1.82214,-1.89048 3.5686,-3.99877 4.72756,-4.1083 4.05204,-0.38295 12.50617,0.69553 19.08781,1.04289 3.85606,0.20351 8.13989,0.72494 12.00116,0.69075 6.91477,-0.0612 13.82359,-0.21531 20.4533,-3.46728 3.96171,-1.94328 10.53344,-8.01809 10.53344,-8.01809 z"
     id="C25.0"
     inkscape:connector-curvature="0"
     inkscape:label="#path4148 C25.0"
     sodipodi:nodetypes="cssssscssssssssssssscsscccssssscc" />
  <path
     style="opacity:0.98;fill:none;fill-rule:evenodd;stroke:#000000;stroke-width:1;stroke-linecap:butt;stroke-linejoin:miter;stroke-miterlimit:4;stroke-dasharray:none;stroke-opacity:1"
     d="m 522.68565,289.35092 c -7.22364,-1.34475 -14.01722,-4.68329 -21.43984,-4.92366 -8.23819,-0.26678 -15.1908,5.91892 -23.80755,5.51639 -4.82965,-0.22562 -11.27337,3.73641 -13.06496,8.59754 -2.545,6.90536 -5.79525,5.73233 -12.15034,3.54983 -9.94092,-3.41396 -21.31224,-0.40928 -30.94223,3.07765 -5.03096,1.82166 -8.55555,9.19065 -14.54323,6.42749 -5.41427,-2.49855 -10.23355,-1.63911 -15.24316,2.00066 -5.75779,4.18337 -10.36679,10.99855 -17.22041,12.94129 -6.20363,-0.74655 -14.21413,-5.03247 -18.72532,1.18809 -5.99434,7.18505 -16.03998,7.65767 -22.72874,13.96544 -7.24442,1.01626 -14.98355,-2.62012 -22.16304,-1.84615 -10.59834,1.14253 -18.94184,8.92286 -29.62738,10.82562 -7.70485,1.37199 -16.85516,1.90744 -22.69267,6.79195 -4.3403,3.63173 -5.94021,8.51571 -12.27572,7.58152 -9.53273,-1.40563 -16.56992,7.00602 -24.90378,10.58009 -7.14269,3.06322 -13.92453,6.87436 -21.31305,9.32407 -3.84271,8.91119 -7.96755,18.51062 -17.16599,23.04869 -5.07364,2.50309 -7.93204,6.56411 -10.91449,11.45699 -3.83161,6.28597 -1.01067,13.40066 -2.39035,19.60561 -1.46981,6.61032 -6.19659,11.72224 -5.68752,19.09304 0.47434,6.86792 3.79616,13.12501 3.48199,19.56677 -0.28615,5.86718 -5.30457,9.57113 -8.39758,14.49271 -3.09054,4.91765 -3.67535,10.88904 -1.09642,16.58621 1.352,2.98673 1.04565,8.52198 3.00389,10.52929 9.47132,2.41751 19.36724,4.90029 28.75336,2.30543 5.85726,-1.61928 7.22119,-11.19657 12.81377,-12.97602 10.43188,-3.31923 21.38238,-3.39626 31.31871,-8.32917 7.0823,-2.28974 9.74375,-10.78283 15.77909,-14.15618 10.27907,-0.0719 21.13104,1.48399 31.49235,1.7873 7.37812,0.21598 15.15118,-0.57287 21.45657,-4.24624 1.30805,-0.76204 4.83702,-3.4573 6.85635,-5.21443 2.17354,-1.89132 2.75136,-2.92485 1.426,-6.01284 -1.33019,-3.09925 7.83436,-3.76844 12.01,-5.22926 10.20251,-3.56928 14.86301,-15.30331 25.07537,-17.39624 9.00532,-1.84556 18.37922,-1.06315 27.1903,-3.56633 5.63884,0.73005 11.19418,1.191 15.07596,-3.74147 6.39784,-5.89123 17.16192,-4.93448 21.61239,-13.25949 3.83437,-4.45318 11.05876,-3.25613 16.308,-5.35113 5.96082,-2.94472 10.59156,-8.76687 14.97076,-13.86264 7.94909,-0.45624 16.28914,1.79534 23.92371,0.21974 5.53048,-1.14137 9.98907,-5.51546 14.81789,-7.92875 10.13181,-2.65528 22.25646,-2.54603 30.01081,-10.27868 2.26463,-4.54332 9.85494,-8.0666 7.16053,-13.55974 -3.30955,-11.5913 -9.99003,-22.92605 -9.81642,-34.90098 0.16202,-11.1754 2.17952,-22.69531 6.5454,-32.95879 3.00661,-7.06806 6.61317,-13.54753 7.22699,-21.32122 z"
     id="C25.1"
     inkscape:connector-curvature="0"
     inkscape:label="#path4150 C25.1"
     sodipodi:nodetypes="cssssssscccssssscssssssscssccsssssscccccscccssc" />
  <path
     style="fill:none;fill-rule:evenodd;stroke:#000000;stroke-width:1;stroke-linecap:butt;stroke-linejoin:miter;stroke-miterlimit:4;stroke-dasharray:none;stroke-opacity:1"
     d="m 209.66336,506.8675 c 0,0 3.34615,1.98784 4.90878,3.14222 2.87543,2.12418 5.65983,4.40033 8.1813,6.93458 2.39415,2.40629 3.33057,5.01761 5.60474,8.03647 2.48292,3.29596 4.89263,5.79945 7.07629,9.29999 1.63463,2.62041 2.0454,5.82724 4.08724,8.14446 2.18028,2.47434 6.83677,3.60245 7.77566,3.99103 1.77736,0.7356 3.41786,1.81851 4.9088,3.03392 1.38578,1.12968 2.56455,2.50467 3.68158,3.90067 1.524,1.90461 2.46318,4.25076 4.09065,6.06775 0.97522,1.35986 2.04675,2.37237 3.27253,0.86685 0.7492,-1.74367 -0.10592,-3.87524 -0.81811,-5.63436 -1.13664,-2.80753 -3.38791,-5.03362 -5.31788,-7.36802 -1.39239,-1.68417 -2.62162,-3.65038 -4.4997,-4.76751 -1.93971,-1.15379 -4.85453,0.49807 -6.54506,-1.73362 -1.69209,-2.23375 -3.63403,-4.26322 -5.31785,-6.50117 -2.48222,-3.56477 -4.10549,-7.67459 -6.54505,-11.2687 -1.23871,-1.82494 -3.00675,-3.28001 -4.09066,-5.20093 -0.75888,-1.3449 -1.88169,-2.8095 -1.63627,-4.3341 0.41347,-2.56852 2.59923,-4.87022 4.9088,-6.06779 1.94103,-1.00647 4.45797,-1.08509 6.54504,-0.43338 1.32997,0.4153 2.60221,1.37897 3.27254,2.60043 1.25796,2.29224 -0.0906,5.34969 0.81813,7.80143 0.91597,2.4712 2.67607,4.5985 4.49972,6.50117 0.82828,0.86417 1.67201,2.05171 2.86345,2.16705 1.96403,0.19014 3.39625,-3.04882 5.31786,-2.60049 1.95535,0.4562 1.94155,3.76564 3.68156,4.76757 3.72571,2.14533 9.95983,-0.56765 11.65606,1.23286 1.60571,1.70442 1.88926,4.68651 3.88847,11.76943 0.884,3.1319 1.9462,6.13811 3.04745,8.66229 1.11014,2.54454 3.92491,6.35358 6.77012,6.0737 1.21304,-0.54174 1.10242,-2.60294 0.81811,-3.90067 -0.53888,-2.45972 -3.46219,-3.77342 -4.49974,-6.06779 -1.33941,-2.96187 -1.10645,-6.42293 -2.0453,-9.53505 -1.46684,-3.42249 -3.94318,-10.76192 -2.86347,-14.30256 0.43868,-1.43856 5.92134,0.0637 8.18133,1.73366 1.82387,1.26815 4.01624,1.66345 6.20743,2.0287 2.02253,0.33714 5.67421,0.95124 6.06454,0.13835 1.56964,-3.26891 -8.25646,-4.86607 -11.04479,-5.63435 -4.38908,-1.63573 -10.04733,-4.30421 -14.72635,-2.16703 -1.39648,1.01986 -0.60152,3.81584 -2.04534,4.7675 -1.93544,1.2757 -4.99625,1.24099 -6.95412,0 -1.07942,-0.68419 -0.73221,-2.56399 -1.63626,-3.46729 -0.95955,-0.95875 -2.34033,-1.5311 -3.68157,-1.73364 -2.04248,-0.30844 -4.31806,1.84762 -6.13599,0.86681 -0.84355,-0.45511 -0.8966,-1.70078 -1.22721,-2.60045 -0.72257,-1.96627 -1.27255,-4.00474 -1.63624,-6.06777 -0.27691,-1.57079 -1.40674,-3.52303 -0.40908,-4.76752 0.7146,-0.8914 2.9422,-1.40811 4.49974,-1.30022 2.83006,0.19604 4.99758,2.87643 7.77221,3.46726 2.40058,0.51118 4.90998,0.0758 7.3632,0 3.00282,-0.0928 5.73716,-0.47574 8.18133,-1.73362 1.17839,-0.87569 0.8496,-3.04881 2.0453,-3.90071 1.57244,-1.12031 3.91571,-1.53553 5.72693,-0.86684 2.15056,0.79397 3.00769,3.46052 4.49972,5.20096 1.23373,1.43913 2.34049,2.99446 3.68157,4.33412 3.51695,3.51321 9.82246,9.05079 11.04478,6.50115 0.57768,-1.20499 -5.22845,-7.72951 -8.18131,-10.40187 -1.91903,-1.92115 -2.76774,-4.83103 -4.90879,-6.50117 -1.1677,-0.91087 -2.71,-1.19786 -4.09063,-1.73364 -2.42665,-0.9417 -4.76171,-2.51249 -7.36319,-2.60044 -2.68803,-0.0909 -5.27409,1.17055 -7.77226,2.16701 -2.00656,0.80037 -3.5725,2.87452 -5.72691,3.03388 -1.73058,0.12801 -3.31961,-1.03663 -4.90879,-1.73364 -2.261,-0.99167 -4.14902,-2.8718 -6.54505,-3.46725 -1.85261,-0.46041 -3.836,-0.26199 -5.7269,0 -2.10529,0.2917 -4.11187,1.08535 -6.13599,1.73363 -3.20771,1.02736 -6.38222,2.16525 -9.51077,3.41308 -2.04094,0.81403 -3.97814,1.8783 -6.03371,2.65466 -1.33849,0.50553 -2.66142,1.36683 -4.09065,1.30026 -1.47936,-0.0689 -3.14549,-0.59353 -4.09068,-1.73364 -1.22678,-1.47976 -1.78193,-3.794 -1.22719,-5.63436 0.6583,-2.18392 0.73888,-2.48993 5.19526,-6.96373 5.40862,-5.42976 3.74766,-7.06113 7.48577,-8.63909 1.67446,-0.70683 4.28601,2.58925 6.54506,2.16707 3.12627,-0.58425 4.81123,-4.16975 7.36318,-6.06776 2.50132,-1.86035 4.75104,-4.43294 7.77225,-5.20094 3.05236,-0.77592 6.26941,0.61135 9.40847,0.86679 4.08735,0.3326 8.17369,0.72229 12.272,0.86686 2.45286,0.0865 4.86621,0.31072 7.09101,-0.72576 1.16065,-0.54073 2.7143,-0.93499 2.74338,-2.21509 0.0257,-1.13047 -0.93144,-2.70019 -2.06218,-2.69351 -3.57935,0.0211 -7.93732,-0.31011 -11.86288,-0.86681 -2.76005,-0.39142 -5.44678,-1.19206 -8.18133,-1.73363 -3.1282,-0.61953 -6.78536,-2.05528 -9.40847,-1.73364 -2.62311,0.32164 -3.69612,0.84852 -5.72691,2.60046 -2.03079,1.75194 -2.92511,6.93166 -5.31788,8.23479 -2.39277,1.30313 -5.72953,0.74257 -6.54504,0 -0.81551,-0.74257 -0.11721,-4.69235 0,-7.80139 0.11721,-3.10904 -0.17988,-7.35344 0.81813,-10.83527 0.80906,-2.82262 2.52966,-5.31445 4.09065,-7.80143 2.67729,-4.26548 5.48276,-8.53061 8.99944,-12.13549 2.29514,-2.3527 5.2644,-3.94326 7.77225,-6.06776 2.11874,-1.79488 4.41096,-4.71921 6.13597,-5.63434 1.34936,-0.71584 3.17583,0.10491 4.49974,0.86681 2.15893,1.24246 2.64156,4.60264 4.90877,5.63436 3.10273,1.41194 6.94329,0.9165 10.22666,0 4.29883,-1.19995 7.71978,-4.48983 11.45381,-6.93459 2.09502,-1.37166 4.41319,-2.51684 6.13601,-4.3341 0.7046,-0.74323 2.44411,-1.971 1.63625,-2.60046 -1.37454,-1.07099 -6.85138,0.95166 -9.81758,2.60046 -3.23604,1.79879 -6.57454,4.94227 -10.22663,4.3341 -2.34834,-0.39106 -4.20382,-2.66357 -5.31785,-4.76751 -0.47751,-0.90182 -0.99994,-2.2019 -0.40906,-3.03386 0.98629,-1.3887 6.52271,-2.37688 9.81758,-3.46733 3.25175,-1.07618 6.39432,-3.15035 9.81755,-3.03386 1.60645,0.0547 3.1847,0.80933 4.49974,1.73364 1.87549,1.31824 2.54815,3.99816 4.4997,5.20095 2.51404,1.54946 5.65973,1.8031 8.59039,2.16705 4.19478,0.52094 8.45401,0 12.68102,0 2.99982,0 6.21376,0.0644 8.7748,-0.89861 1.67304,-0.62907 3.30633,-2.1952 2.67904,-3.86891 -0.41194,-1.09913 -2.11966,-1.07962 -3.27253,-1.30026 -3.88381,-0.74331 -7.91359,0.19875 -11.86289,0 -2.87437,-0.14465 -5.82029,-0.0861 -8.59039,-0.86681 -1.60236,-0.45157 -3.47327,-0.85635 -4.4997,-2.16705 -0.81911,-1.04597 -1.22847,-3.43947 -0.81813,-3.90072 1.50011,-1.68621 4.42456,-0.96078 6.54502,-1.73364 2.54888,-0.92901 4.7604,-2.70224 7.3632,-3.46729 2.11141,-0.62061 4.50651,-1.69602 6.54504,-0.86681 2.04307,0.83106 2.4483,3.7287 4.09066,5.20093 2.03385,1.82317 4.46645,3.20629 6.95412,4.3341 1.81656,0.82356 3.75389,1.44159 5.72691,1.73369 1.61862,0.23963 3.3348,0.44715 4.90878,0 1.85034,-0.52566 3.07469,-2.45411 4.90878,-3.03393 2.34429,-0.74111 5.21359,0.76 7.36319,-0.43338 1.23804,-0.68732 2.80882,-2.09636 2.45438,-3.46731 -0.41671,-1.61178 -2.85052,-1.93966 -4.4997,-2.16705 -2.46901,-0.34043 -4.87101,1.26966 -7.3632,1.30022 -3.52087,0.0432 -7.80217,-0.59848 -10.44439,-1.58125 -2.64222,-0.98277 -5.02088,-1.72753 -5.10011,-2.75285 -0.0792,-1.02532 1.95233,-2.86016 3.68161,-3.46727 1.72928,-0.60711 11.04476,0 11.04476,0 1.02267,0 5.99615,-0.70331 8.59039,-1.30022 2.59424,-0.59691 5.10703,-1.15179 6.95411,-2.16709 1.84708,-1.0153 2.51003,-3.39179 4.09067,-3.46727 1.58064,-0.0755 5.14782,3.76642 8.18129,4.33408 2.42917,0.45458 5.20286,-0.86681 7.36317,-0.86681 2.16031,0 3.69257,2.30705 5.72693,3.0339 2.75088,0.98286 7.5731,3.26209 8.59037,1.73363 0.9627,-1.44648 -1.20389,-4.56851 -2.86346,-6.06775 -1.93151,-1.74491 -4.90878,-1.73367 -7.36317,-2.60049 -2.86345,-1.01129 -5.83227,-1.76305 -8.59037,-3.03385 -1.5734,-0.72494 -5.28311,-0.93533 -4.49974,-2.60047 0.80148,-1.70363 6.04885,-4.47224 8.99944,-5.63436 1.70515,-0.48441 3.54525,0 5.31788,0 2.31803,0 4.78091,-0.80656 6.95409,0 2.69885,1.00165 3.97458,4.33831 6.54505,5.63436 3.49588,1.76266 7.57367,2.07864 11.45386,2.60047 3.24648,0.43661 7.06431,2.20816 9.81757,0.43339 1.57519,-1.01538 -0.97902,-2.86384 -7.82717,-4.75583 -1.84531,-0.50982 -5.60843,-0.43122 -7.30828,-1.31189 -1.33093,-0.68954 -3.15634,-1.99726 -2.86345,-3.46731 0.18091,-0.908 1.67369,-0.80257 2.4544,-1.30024 2.01875,-1.28686 3.59346,-3.24799 5.72693,-4.33412 2.66616,-1.35732 5.78496,-1.56101 8.59036,-2.60048 1.67718,-0.62144 3.14126,-2.44103 4.90876,-2.16705 3.23554,0.50154 4.40429,5.09936 7.36319,6.50119 3.24615,1.53792 7.08224,1.20885 10.63573,1.73365 2.17711,0.32153 4.38365,0.4525 6.54502,0.86681 2.90036,0.55596 5.65972,1.8031 8.59037,2.16705 1.35317,0.16805 3.40399,1.17803 4.09068,0 1.25418,-2.15156 -1.53005,-5.24699 -3.68161,-6.50117 -2.00264,-1.16737 -4.66347,0.35529 -6.95412,0 -2.82773,-0.4386 -5.43384,-1.80049 -8.18128,-2.60048 -2.16693,-0.63096 -4.53964,-0.69827 -6.54507,-1.73362 -2.20709,-1.13946 -4.67279,-2.51841 -5.72691,-4.76751 -0.79705,-1.70061 -1.26829,-4.24917 0,-5.63438 1.10926,-1.21151 3.2697,-0.54127 4.90878,-0.43342 2.64869,0.17427 5.12947,1.48538 7.77225,1.7337 4.4823,0.42116 9.14801,0.72233 13.49916,-0.43346 3.28098,-0.87152 5.99965,-3.17834 8.99947,-4.76751 3.27252,-1.73363 6.78004,-3.08232 9.81755,-5.20091 1.95264,-1.36192 3.39061,-3.36988 5.31783,-4.76755 1.4024,-1.01705 3.10588,-1.57173 4.49974,-2.60045 1.19683,-0.8833 1.88773,-2.49072 3.27251,-3.03387 2.15799,-0.84642 5.01516,1.27032 6.95414,0 1.71357,-1.12264 1.73691,-3.71552 2.45438,-5.63435 0.95477,-2.55346 1.65334,-5.19562 2.4544,-7.80139 0.58979,-2.14543 2.44174,-5.58622 0.81813,-7.368 -1.66782,-0.38355 -3.45557,2.36239 -5.03823,4.95854 -1.01556,1.66588 -2.19715,4.37083 -2.7914,6.43031 -0.40759,1.41259 -1.2827,3.21935 -2.65288,3.75237 -1.73789,0.67605 -5.88483,-0.27013 -9.15265,0.46155 -1.42197,0.66315 -3.61744,5.98938 -6.54503,5.20097 -2.12976,-0.57356 -4.48928,-3.03165 -4.09066,-5.20097 0.346,-1.88297 1.76219,-4.536 2.39673,-6.9442 0.88345,-3.35285 3.46442,-9.21712 1.28486,-9.95881 -1.33462,-0.45416 -3.22103,3.29825 -4.49972,5.20093 -1.17512,1.74856 -1.87804,3.77228 -2.86346,5.63436 -0.92568,1.74919 -1.90897,3.46727 -2.86345,5.20091 -1.68827,3.06641 1.77824,7.11822 0.81813,10.40184 -4.53404,2.60899 -11.04747,3.55203 -16.36264,4.33414 -3.65236,0.66672 -10.62628,2.15949 -11.80522,-2.82775 -0.0926,-1.8055 1.24438,-4.21854 2.19887,-5.66323 1.49754,-2.26666 5.03715,-1.87108 7.39607,-3.15313 3.5405,-1.55518 4.17616,-2.9809 6.8201,-6.22596 0.66159,-0.81201 1.2201,-3.30185 0.29898,-3.80044 -1.63965,-0.88752 -3.7429,0.73582 -5.31787,1.73362 -1.51032,0.95684 -2.14189,2.99186 -3.68157,3.90069 -2.07197,1.22302 -4.9861,1.33917 -7.36318,2.16703 -1.62072,1.04343 -2.24549,2.85936 -3.27253,4.76757 -1.48736,2.76346 -3.22275,5.4847 -5.31783,7.80137 -2.07449,1.95135 -5.01542,2.72191 -7.3632,4.3341 -1.72288,1.18308 -3.36947,2.48704 -4.90879,3.90071 -1.9021,1.74685 -3.17655,4.19061 -5.31784,5.63434 -2.30596,1.55476 -5.1815,2.0226 -7.77225,3.0339 -2.8131,1.0981 -7.40717,2.39941 -9.81759,0.86683 -0.7554,-0.48029 0.0983,-3.87836 0.81813,-5.63438 0.85989,-2.09778 2.25749,-4.04249 4.02812,-5.48043 2.19315,-1.78108 5.0442,-3.15954 7.90766,-4.02635 2.00664,-0.60743 14.33299,-8.03082 13.4263,-9.5633 -1.01325,-1.71259 -8.08635,1.91194 -11.04477,3.46729 -2.95842,1.55535 -6.40376,2.00345 -9.40851,3.46729 -1.72927,0.84246 -3.46531,1.76251 -4.9088,3.0339 -1.95228,1.71951 -3.67866,3.77533 -4.90876,6.0677 -0.85934,1.60143 -1.21322,3.43346 -1.63626,5.20097 -0.57955,2.42144 0.0537,6.85695 -1.22719,7.36799 -0.78355,0.31261 -3.96564,-0.50013 -6.01098,-0.50013 -2.04532,0 -4.53399,-0.59567 -6.26101,0.50013 -3.94112,2.50065 -5.7084,3.47565 -10.48212,6.93459 -1.40283,1.01646 -3.98217,3.1226 -5.06237,2.60046 -1.42076,-0.68677 -3.53925,-4.13952 -3.64504,-6.42951 -0.12778,-2.76622 2.11227,-4.19697 3.97847,-5.52833 3.66061,-2.61152 5.98518,-4.2092 9.01913,-6.88523 3.06373,-2.7023 7.45986,-8.06354 6.19193,-9.32864 -1.51722,-1.51383 -7.02294,3.17703 -10.22661,6.0677 -4.21485,3.05515 -6.95218,4.59246 -10.22209,7.18906 -1.77536,1.38234 -4.35997,3.17555 -4.91336,4.07966 -1.22964,2.00893 -0.33735,5.6241 0,8.23483 0.33826,2.61777 2.88703,5.74966 1.22721,7.80137 0,0 -1.30329,2.42808 -2.4544,3.0339 -3.26795,1.7199 -7.3771,0.4357 -11.04476,0.86682 -3.70119,0.43506 -7.36563,1.14036 -11.04477,1.73364 -4.36635,0.70409 -8.80173,1.08507 -13.0901,2.16705 -4.75197,1.19895 -9.21241,3.36469 -13.90822,4.76755 -3.91079,1.16833 -7.93158,1.93669 -11.86292,3.03388 -2.88166,0.80424 -7.87992,3.3138 -8.59036,2.60045 -0.89638,-0.90006 -1.69375,-5.20638 -0.22269,-7.75239 0.81554,-1.41146 1.99334,-2.27644 3.20274,-2.52994 3.22493,-0.67595 6.84448,-1.56179 10.38971,-1.85073 3.96631,-0.3967 13.50884,-1.5625 13.5981,-3.03014 0.15173,-2.4948 -11.6415,-2.59759 -15.9231,-2.17326 -4.77852,0.34917 -10.64173,0.77755 -15.02965,3.24004 -1.98112,1.1118 -2.31192,3.77233 -2.96923,5.86163 -1.35864,4.31851 -0.265,8.9824 -3.68159,11.70206 -5.82542,4.63713 -13.20527,6.64114 -16.77169,9.10167 -3.76455,2.59722 -7.28636,5.55387 -10.63571,8.66822 -4.68028,3.65241 -6.57784,7.84368 -9.8924,12.60986 -3.19091,4.58838 -4.78061,6.28969 -6.87929,9.49413 0,0 -1.78825,-5.44037 -1.63627,-8.23486 0.297,-4.50515 3.0852,-8.00694 5.31788,-11.70206 0.91465,-1.66918 3.01156,-7.02953 5.72691,-10.83529 1.55882,-2.18481 5.87662,-6.29063 7.77225,-9.53503 4.18115,-7.15606 2.35079,-8.45673 1.22719,-8.66824 -2.34273,-0.441 -3.30736,3.43504 -4.90878,5.20091 -3.34246,4.21007 -7.40188,7.84403 -10.6357,12.13553 -2.74454,4.60056 -5.59199,9.17229 -8.18131,13.86917 -1.46134,2.69414 -3.72374,5.19188 -4.09065,8.23479 -0.4251,3.52556 2.59821,9.03371 3.68157,16.03621 1.6073,10.38906 2.22712,19.51033 -5.72691,31.63902 l -8.99944,-5.20094 c 0,0 2.95481,-5.61428 3.68161,-8.6682 0.73745,-3.09867 0.62686,-6.3567 0.62686,-9.53505 0,-2.45599 -0.60235,-5.49023 -1.14451,-7.88563 -0.82582,-3.64868 -2.86318,-10.33501 -4.31505,-9.61144 -1.40992,0.70267 -1.4812,5.90587 -1.06577,8.20579 0.19926,1.10321 0.76194,2.95798 1.03502,5.27155 0.63167,5.35157 0.93788,12.57056 0.36371,14.4216 -0.57105,1.841 -1.74315,3.59429 -3.27251,4.7675 -2.40949,1.84837 -5.56289,2.75089 -8.59683,2.61922 -3.14188,-0.13635 -6.11831,-0.85072 -9.19982,-1.53687 -2.14609,-0.47787 -4.65664,-0.15906 -6.46665,-2.01264 -3.68582,-3.77453 -9.00236,-9.49374 -9.91777,-7.95163 -0.92063,1.55089 1.97327,5.92615 3.82799,7.78753 2.49587,2.50483 3.45178,3.43908 6.62726,4.56168 1.79981,0.63627 3.39371,0.85545 5.13809,1.205 2.03839,0.40847 4.31665,0.568 6.04974,1.17721 2.09572,0.73668 3.88739,1.358 6.86786,1.75759 4.26477,0.57177 6.91948,1.49586 8.53358,2.36137 1.5753,0.8447 3.6629,1.73175 4.09067,3.46729 -0.37974,3.89918 -4.76346,6.42883 -7.77224,8.23483 -3.85952,2.31664 -10.44217,6.23831 -12.27199,5.63432 -1.53021,-0.50509 -3.54535,-4.98475 -3.54535,-4.98475 0,0 -3.43436,1.1293 -4.90882,2.16703 -1.87468,1.3194 -4.22779,5.1027 -4.22779,5.1027 8.28534,3.9685 11.51753,4.49152 13.73973,4.41299 3.19153,-0.11279 6.15413,-2.38468 9.33832,-2.14078 2.89122,0.22146 8.08416,3.21249 8.08416,3.21249"
     id="C25.3"
     inkscape:connector-curvature="0"
     inkscape:label="#path4152 C25.3"
     sodipodi:nodetypes="cssssssssssssssssssssssssssssssssssssssssssssssssssssssssssssssssssssssssssssssssssszzzzssssssssssssssssssssssssssssssssssssssssszzzzzzzssssssssssssssssssssssssssssssssssssssssssssssssssssssssssssssssssssssssssssssssssssssssssssssssssssssssssssssssscssssssssssccssssssssssssssssssssscscssc" />
  <path
     style="fill:none;fill-rule:evenodd;stroke:#000000;stroke-width:1;stroke-linecap:butt;stroke-linejoin:miter;stroke-miterlimit:4;stroke-dasharray:none;stroke-opacity:1"
     d="m 70.054884,357.03097 c 0.0331,8.46249 0.49665,18.06074 5.69101,24.74157 5.93629,7.63509 16.16072,14.05922 25.799986,13.27279 7.70777,-0.62885 13.55356,-7.98909 18.63707,-13.81687 6.55275,-7.51212 10.03842,-17.24761 14.3831,-26.21946 4.60316,-9.50561 7.30634,-19.89851 12.34457,-29.18085 3.97027,-7.31475 5.55147,-17.87089 13.98159,-20.68654 7.85585,-2.62384 15.13234,-3.88297 23.21077,-1.10012 8.25496,3.88981 22.14989,20.40329 22.14989,20.40329 0,0 7.89694,-2.32093 13.81091,-7.16745 5.91397,-4.84652 8.19222,-6.37075 12.45274,-10.66942 -6.92227,-5.40908 -20.24541,-14.00954 -28.74073,-16.14801 -8.9021,-0.81803 -15.74581,-6.45803 -22.84227,-11.24679 -8.48074,-5.58896 -19.88888,-10.22871 -30.73691,-10.86079 -8.49213,-0.49482 -17.17978,2.04852 -24.88628,5.65005 -9.73314,4.54865 -18.12885,11.84915 -25.636776,19.53389 -8.87266,9.08161 -17.16095,19.24868 -22.37328,30.82588 -4.57919,10.17092 -7.28909,21.5147 -7.24539,32.66883 z"
     id="C23"
     inkscape:connector-curvature="0"
     inkscape:label="C23 Gallenblase"
     sodipodi:nodetypes="aaaaaascczcccaaaaa" />
  <path
     style="fill:none;fill-rule:evenodd;stroke:#000000;stroke-width:1;stroke-linecap:butt;stroke-linejoin:miter;stroke-miterlimit:4;stroke-dasharray:none;stroke-opacity:1"
     d="m 169.82209,490.11671 c -1.32473,0.75606 -3.07429,1.59765 -4.4514,2.25099 -2.56579,1.21728 -5.7232,2.16417 -8.309,3.33832 -0.57851,2.04311 -1.05055,4.91589 -0.96349,7.03754 0.1134,2.76346 1.02827,4.71394 2.01515,7.29187 l 17.43361,-4.3383 c 1.58118,-0.39347 1.80401,-3.36534 3.02648,-4.23772"
     id="C24.1"
     inkscape:connector-curvature="0"
     inkscape:label="C24.1 Ampulla hepatopancreatica"
     sodipodi:nodetypes="cscscsc" />
  <path
     style="fill:none;fill-rule:evenodd;stroke:#000000;stroke-width:1;stroke-linecap:butt;stroke-linejoin:miter;stroke-miterlimit:4;stroke-dasharray:none;stroke-opacity:1"
     d="m 330.96377,513.15814 c 14.02812,-18.49375 38.32144,-23.21257 59.96355,-25.26056 13.24312,-1.2532 43.33503,0.55686 30.56584,20.68728 -9.26569,14.6072 -3.06408,34.29329 -11.77005,48.4401 -8.05179,13.08379 -28.17661,10.08278 -40.27879,23.52559 -22.34683,24.82233 -42.14404,55.93501 -74.00956,67.72331 -41.69243,15.42366 -91.40684,13.84939 -132.18783,-5.4927 -35.6459,-16.90655 -55.28516,-54.43961 -71.171736,-89.11245 -11.80865,-25.77267 -15.26892,-54.43063 -14.49237,-82.38426 0.50839,-18.30062 4.94549,-36.35064 9.52438,-54.03135 2.09322,-8.08266 6.36939,-15.239 10.34145,-22.49739"
     id="path4168"
     inkscape:connector-curvature="0"
     sodipodi:nodetypes="csssssssssc" />
  <path
     style="fill:none;fill-rule:evenodd;stroke:#000000;stroke-width:1;stroke-linecap:butt;stroke-linejoin:miter;stroke-miterlimit:4;stroke-dasharray:none;stroke-opacity:1"
     d="m 151.24972,316.29993 c 9.97469,-5.04748 18.70152,-7.86963 28.3468,-0.61294 6.68877,5.33643 14.15554,11.42016 18.71226,17.57873 7.15007,9.66357 3.47578,24.20373 4.22823,35.33177 0.45157,5.67842 -1.55685,11.11418 -2.83017,16.56475"
     id="path4170"
     inkscape:connector-curvature="0"
     sodipodi:nodetypes="csssc" />
  <path
     style="fill:none;fill-rule:evenodd;stroke:#000000;stroke-width:1;stroke-linecap:butt;stroke-linejoin:miter;stroke-miterlimit:4;stroke-dasharray:none;stroke-opacity:1"
     d="m 409.74685,312.19542 2.98757,14.52442 c 1.1355,5.52037 0.50128,10.68073 -2.67559,15.3234"
     id="path4172"
     inkscape:connector-curvature="0"
     sodipodi:nodetypes="csc" />
  <path
     style="fill:none;fill-rule:evenodd;stroke:#000000;stroke-width:1;stroke-linecap:butt;stroke-linejoin:miter;stroke-miterlimit:4;stroke-dasharray:none;stroke-opacity:1"
     d="m 460.17192,303.96459 -1.73554,11.10946 c -0.73649,4.71439 -4.34119,6.1842 -4.98961,10.64977"
     id="path4174"
     inkscape:connector-curvature="0"
     sodipodi:nodetypes="csc" />
  <path
     style="fill:none;fill-rule:evenodd;stroke:#000000;stroke-width:1;stroke-linecap:butt;stroke-linejoin:miter;stroke-miterlimit:4;stroke-dasharray:none;stroke-opacity:1"
     d="m 567.55708,285.95959 c -0.74954,3.19828 -0.71942,6.70684 -2.18906,9.62229 -1.79587,3.56264 -5.34071,6.05342 -7.15089,9.60344 -4.49639,8.81805 -10.10896,9.50367 -10.11231,19.08276 0,2.65201 -4.1979,3.42145 -6.65497,4.38136 -4.95141,1.93437 -10.17687,3.04534 -15.31147,4.44065 -5.90191,1.60382 -10.80583,2.12941 -16.698,1.25911"
     id="path4176"
     inkscape:connector-curvature="0"
     sodipodi:nodetypes="csssssc" />
  <path
     style="fill:none;fill-rule:evenodd;stroke:#000000;stroke-width:1;stroke-linecap:butt;stroke-linejoin:miter;stroke-miterlimit:4;stroke-dasharray:none;stroke-opacity:1"
     d="m 548.03251,324.26808 7.01437,15.93634 c 2.73421,6.212 -2.08361,13.55404 -2.9957,20.27844"
     id="path4178"
     inkscape:connector-curvature="0"
     sodipodi:nodetypes="csc" />
  <path
     style="fill:none;fill-rule:evenodd;stroke:#000000;stroke-width:1;stroke-linecap:butt;stroke-linejoin:miter;stroke-miterlimit:4;stroke-dasharray:none;stroke-opacity:1"
     d="m 481.55834,402.37033 c -1.15165,-5.14446 -3.97094,-9.84773 -4.61365,-15.07725 -0.65257,-5.30974 -1.16574,-10.73234 -0.54835,-16.04229 0.88596,-7.61989 1.60653,-14.41725 0.17827,-21.82791"
     id="path4180"
     inkscape:connector-curvature="0"
     sodipodi:nodetypes="cssc" />
  <path
     style="fill:none;fill-rule:evenodd;stroke:#000000;stroke-width:1;stroke-linecap:butt;stroke-linejoin:miter;stroke-miterlimit:4;stroke-dasharray:none;stroke-opacity:1"
     d="m 442.81674,410.07934 c 0,0 -2.48309,-9.81755 -4.62805,-14.71069 -1.52582,-3.48075 -4.27463,-6.63589 -4.62807,-10.41991 -0.39045,-4.18026 -0.39949,-9.65307 2.89255,-12.25873 0.1512,-0.11967 0.57849,0 0.57849,0"
     id="path4182"
     inkscape:connector-curvature="0"
     sodipodi:nodetypes="csssc" />
  <path
     style="fill:none;fill-rule:evenodd;stroke:#000000;stroke-width:1;stroke-linecap:butt;stroke-linejoin:miter;stroke-miterlimit:4;stroke-dasharray:none;stroke-opacity:1"
     d="m 374.27393,326.53811 c 0,0 -1.89,10.75052 -2.03495,16.11807 -0.0673,2.49144 0.90986,7.42148 0.90986,7.42148"
     id="path4184"
     inkscape:connector-curvature="0"
     sodipodi:nodetypes="csc" />
  <path
     style="fill:none;fill-rule:evenodd;stroke:#000000;stroke-width:1;stroke-linecap:butt;stroke-linejoin:miter;stroke-miterlimit:4;stroke-dasharray:none;stroke-opacity:1"
     d="m 332.81987,341.69164 c 0,0 -1.47363,9.19478 -1.65478,13.83617 -0.18342,4.69955 -0.53275,9.52756 0.57849,14.09752 1.32146,5.43448 7.08669,15.20847 7.08669,15.20847"
     id="path4186"
     inkscape:connector-curvature="0"
     sodipodi:nodetypes="cssc" />
  <path
     style="fill:none;fill-rule:evenodd;stroke:#000000;stroke-width:1;stroke-linecap:butt;stroke-linejoin:miter;stroke-miterlimit:4;stroke-dasharray:none;stroke-opacity:1"
     d="m 286.75445,349.43245 c 0,0 -2.2235,11.4597 -3.6054,17.12821 -0.85376,3.50208 -3.33206,6.84217 -2.8925,10.41991 0.28632,2.33046 3.47104,6.12937 3.47104,6.12937"
     id="path4188"
     inkscape:connector-curvature="0"
     sodipodi:nodetypes="cssc" />
  <path
     style="fill:none;fill-rule:evenodd;stroke:#000000;stroke-width:1;stroke-linecap:butt;stroke-linejoin:miter;stroke-miterlimit:4;stroke-dasharray:none;stroke-opacity:1"
     d="m 413.15524,427.84925 -5.62738,-20.22188 c -1.18985,-4.27572 -5.49621,-6.24394 -7.28397,-10.20001"
     id="path4190"
     inkscape:connector-curvature="0"
     sodipodi:nodetypes="csc" />
  <path
     style="fill:none;fill-rule:evenodd;stroke:#000000;stroke-width:1;stroke-linecap:butt;stroke-linejoin:miter;stroke-miterlimit:4;stroke-dasharray:none;stroke-opacity:1"
     d="m 360.84132,408.23712 c 0,0 -1.61945,11.02572 0.40607,15.93952 1.39188,3.37663 5.6109,4.85497 7.52057,7.96819 2.60364,4.24454 6.08167,14.14924 6.08167,14.14924"
     id="path4192"
     inkscape:connector-curvature="0"
     sodipodi:nodetypes="cssc" />
  <path
     style="fill:none;fill-rule:evenodd;stroke:#000000;stroke-width:1;stroke-linecap:butt;stroke-linejoin:miter;stroke-miterlimit:4;stroke-dasharray:none;stroke-opacity:1"
     d="m 318.16926,538.04039 c 0,0 -4.34383,-1.16406 -5.81334,-2.71866 -1.86466,-1.97264 0.74163,-4.70587 -3.02946,-7.55888 -4.5,-3.40446 -7.28791,-3.7115 -12.64948,-3.94681"
     id="path4194"
     inkscape:connector-curvature="0"
     sodipodi:nodetypes="cssc" />
  <path
     style="fill:none;fill-rule:evenodd;stroke:#000000;stroke-width:1;stroke-linecap:butt;stroke-linejoin:miter;stroke-miterlimit:4;stroke-dasharray:none;stroke-opacity:1"
     d="m 185.44874,572.32762 c 0,0 8.67527,-9.49195 12.65997,-14.53094 2.35623,-2.97965 3.6873,-6.86948 6.63527,-9.26522 2.70384,-2.19734 6.68023,-2.26246 9.56288,-4.21935 3.13343,-2.12713 4.55971,-6.62067 8.09909,-7.96819 4.4813,-1.70613 14.36753,0.71461 14.36753,0.71461"
     id="path4196"
     inkscape:connector-curvature="0"
     sodipodi:nodetypes="cssssc" />
  <path
     style="fill:none;fill-rule:evenodd;stroke:#000000;stroke-width:1;stroke-linecap:butt;stroke-linejoin:miter;stroke-miterlimit:4;stroke-dasharray:none;stroke-opacity:1"
     d="m 256.32422,553.74727 c 0,0 -3.88465,5.00496 -3.48837,7.83672 0.54277,3.87863 4.57933,6.44731 7.54094,9.00998 3.35921,2.90671 7.95216,4.12587 11.34252,6.9962 3.16759,2.68173 7.56625,8.98095 7.56625,8.98095"
     id="path4198"
     inkscape:connector-curvature="0"
     sodipodi:nodetypes="csssc" />
  <path
     style="fill:none;fill-rule:evenodd;stroke:#000000;stroke-width:1;stroke-linecap:butt;stroke-linejoin:miter;stroke-miterlimit:4;stroke-dasharray:none;stroke-opacity:1"
     d="m 259.55848,550.15529 c 0,0 6.15212,-6.54607 10.28495,-8.29495 1.80853,-0.76531 5.88433,-0.28789 5.88433,-0.28789"
     id="path4200"
     inkscape:connector-curvature="0"
     sodipodi:nodetypes="csc" />
  <path
     style="fill:none;fill-rule:evenodd;stroke:#000000;stroke-width:1;stroke-linecap:butt;stroke-linejoin:miter;stroke-miterlimit:4;stroke-dasharray:none;stroke-opacity:1"
     d="m 242.07514,535.731 c 0,0 7.25535,0.58858 9.25612,-1.8388 1.68937,-2.04959 0.032,-7.96819 0.032,-7.96819"
     id="path4202"
     inkscape:connector-curvature="0"
     sodipodi:nodetypes="csc" />
  <path
     style="fill:none;fill-rule:evenodd;stroke:#000000;stroke-width:1;stroke-linecap:butt;stroke-linejoin:miter;stroke-miterlimit:4;stroke-dasharray:none;stroke-opacity:1"
     d="m 287.60189,487.68395 -1.08404,10.76629"
     id="path4204"
     inkscape:connector-curvature="0"
     sodipodi:nodetypes="cc" />
  <path
     style="fill:none;fill-rule:evenodd;stroke:#000000;stroke-width:1;stroke-linecap:butt;stroke-linejoin:miter;stroke-miterlimit:4;stroke-dasharray:none;stroke-opacity:1"
     d="m 197.68007,512.94772 9.68473,8.68576 c 4.52295,4.05641 -11.70372,10.68968 -8.67756,15.93632 l 6.36353,11.03283"
     id="path4206"
     inkscape:connector-curvature="0"
     sodipodi:nodetypes="cssc" />
  <path
     style="fill:none;fill-rule:evenodd;stroke:#000000;stroke-width:1;stroke-linecap:butt;stroke-linejoin:miter;stroke-miterlimit:4;stroke-dasharray:none;stroke-opacity:1"
     d="m 311.72518,419.53515 c 0,0 -7.61222,14.08049 -6.74956,21.56224 0.6148,5.33213 7.4045,8.55818 8.18129,13.86913 0.81725,5.58762 -2.43738,16.1635 -2.43738,16.1635"
     id="path4208"
     inkscape:connector-curvature="0"
     sodipodi:nodetypes="cssc" />
  <path
     style="fill:none;fill-rule:evenodd;stroke:#000000;stroke-width:1;stroke-linecap:butt;stroke-linejoin:miter;stroke-miterlimit:4;stroke-dasharray:none;stroke-opacity:1"
     d="m 248.1155,417.58478 -11.76062,-2.81714"
     id="path4210"
     inkscape:connector-curvature="0"
     sodipodi:nodetypes="cc" />
  <path
     style="fill:none;fill-rule:evenodd;stroke:#000000;stroke-width:1;stroke-linecap:butt;stroke-linejoin:miter;stroke-miterlimit:4;stroke-dasharray:none;stroke-opacity:1"
     d="m 229.70754,413.35902 -8.18128,-3.46729"
     id="path4212"
     inkscape:connector-curvature="0"
     sodipodi:nodetypes="cc" />
  <path
     style="fill:none;fill-rule:evenodd;stroke:#000000;stroke-width:1;stroke-linecap:butt;stroke-linejoin:miter;stroke-miterlimit:4;stroke-dasharray:none;stroke-opacity:1"
     d="m 169.48307,432.37476 c 0,0 14.83104,2.89363 21.77233,0.0544 4.86538,-1.99014 11.37557,-10.35071 11.37557,-10.35071"
     id="path4214"
     inkscape:connector-curvature="0"
     sodipodi:nodetypes="csc" />
  <path
     style="fill:none;fill-rule:evenodd;stroke:#000000;stroke-width:1;stroke-linecap:butt;stroke-linejoin:miter;stroke-miterlimit:4;stroke-dasharray:none;stroke-opacity:1"
     d="m 256.82218,429.04326 c 0,0 -5.91095,12.37728 -8.2976,18.98866 -1.11437,3.08698 -2.91402,6.28543 -2.4544,9.53505 0.37584,2.65729 4.09064,6.9346 4.09064,6.9346"
     id="path4216"
     inkscape:connector-curvature="0"
     sodipodi:nodetypes="cssc" />
  <path
     style="fill:none;fill-rule:evenodd;stroke:#000000;stroke-width:1;stroke-linecap:butt;stroke-linejoin:miter;stroke-miterlimit:4;stroke-dasharray:none;stroke-opacity:1"
     d="m 250.87671,472.73636 -1.53402,13.43575"
     id="path4218"
     inkscape:connector-curvature="0"
     sodipodi:nodetypes="cc" />
  <path
     style="opacity:0.98;fill:#000000;fill-opacity:1;fill-rule:evenodd;stroke:#000000;stroke-width:0.6;stroke-linecap:square;stroke-miterlimit:4;stroke-dasharray:none;stroke-dashoffset:0;stroke-opacity:1"
     d=""
     id="path4349"
     inkscape:connector-curvature="0" />
  <path
     style="opacity:0.98;fill:#000000;fill-opacity:1;fill-rule:evenodd;stroke:#000000;stroke-width:0.6;stroke-linecap:square;stroke-miterlimit:4;stroke-dasharray:none;stroke-dashoffset:0;stroke-opacity:1"
     d=""
     id="path4351"
     inkscape:connector-curvature="0" />
  <path
     style="opacity:0.98;fill:#000000;fill-opacity:1;fill-rule:evenodd;stroke:#000000;stroke-width:0.6;stroke-linecap:square;stroke-miterlimit:4;stroke-dasharray:none;stroke-dashoffset:0;stroke-opacity:1"
     d=""
     id="path4353"
     inkscape:connector-curvature="0" />
  <path
     style="opacity:0.98;fill:#000000;fill-opacity:1;fill-rule:evenodd;stroke:#000000;stroke-width:0.6;stroke-linecap:square;stroke-miterlimit:4;stroke-dasharray:none;stroke-dashoffset:0;stroke-opacity:1"
     d=""
     id="path4367"
     inkscape:connector-curvature="0" />
  <path
     style="opacity:0.98;fill:#000000;fill-opacity:1;fill-rule:evenodd;stroke:#000000;stroke-width:0.6;stroke-linecap:square;stroke-miterlimit:4;stroke-dasharray:none;stroke-dashoffset:0;stroke-opacity:1"
     d=""
     id="path4371"
     inkscape:connector-curvature="0" />
  <path
     style="opacity:0.98;fill:#000000;fill-opacity:1;fill-rule:evenodd;stroke:#000000;stroke-width:0.6;stroke-linecap:square;stroke-miterlimit:4;stroke-dasharray:none;stroke-dashoffset:0;stroke-opacity:1"
     d=""
     id="path4375"
     inkscape:connector-curvature="0" />
  <path
     style="opacity:0.98;fill:#000000;fill-opacity:1;fill-rule:evenodd;stroke:#000000;stroke-width:0.6;stroke-linecap:square;stroke-miterlimit:4;stroke-dasharray:none;stroke-dashoffset:0;stroke-opacity:1"
     d=""
     id="path4403"
     inkscape:connector-curvature="0" />
  <path
     style="fill:none;fill-rule:evenodd;stroke:#000000;stroke-width:1;stroke-linecap:butt;stroke-linejoin:miter;stroke-miterlimit:4;stroke-dasharray:none;stroke-opacity:1"
     d="m 286.59201,503.75065 c 0,0 -2.83093,4.26401 -2.86442,6.54349 -0.0403,2.74672 1.67592,0.53139 1.5909,9.5005"
     id="path4438"
     inkscape:connector-curvature="0"
     sodipodi:nodetypes="csc" />
  <path
     id="C25.9"
     style="font-size:33.2768px;font-family:'.Arial Hebrew Desk Interface';-inkscape-font-specification:'.Arial Hebrew Desk Interface, Normal';display:inline;fill:none;fill-rule:evenodd;stroke:#000000;stroke-width:1;stroke-dasharray:none;image-rendering:optimizeQuality;shape-rendering:geometricPrecision;text-rendering:geometricPrecision"
     d="m 618.93383,143.71544 q -2.7719,3.62043 -7.41057,3.62043 -4.18613,0 -6.84489,-2.65875 -2.60219,-2.71532 -2.60219,-6.78832 0,-4.35583 2.99817,-7.354 3.05474,-2.99817 7.24087,-2.99817 5.31751,0 8.42882,3.95985 3.16787,3.95985 3.16787,10.63501 0,7.24086 -3.28101,11.70984 -3.22446,4.46898 -8.99452,4.46898 -3.05473,0 -5.54378,-1.69709 -2.43247,-1.75366 -2.99817,-4.01642 l 4.80839,-0.7354 q 1.13138,2.14964 4.12955,2.14964 3.22446,0 5.03468,-2.7719 1.86678,-2.82846 1.86678,-7.5237 z m -0.90511,-5.93977 q 0,-2.88504 -1.47081,-4.52555 -1.41423,-1.64049 -3.95985,-1.64049 -2.20619,0 -3.79014,1.75363 -1.58393,1.69709 -1.58393,4.41241 0,2.37592 1.4708,3.95985 1.47081,1.52736 3.8467,1.52736 2.26278,0 3.84672,-1.52736 1.64051,-1.58393 1.64051,-3.95985 z m 15.97264,4.47502 A 21.750674,21.750674 0 0 1 612.25068,164.00135 21.750674,21.750674 0 0 1 590.5,142.25069 21.750674,21.750674 0 0 1 612.25068,120.5 a 21.750674,21.750674 0 0 1 21.75068,21.75069 z"
     inkscape:label="C25.9" />
  <path
     id="C25.8"
     style="font-size:33.2768px;font-family:'.Arial Hebrew Desk Interface';-inkscape-font-specification:'.Arial Hebrew Desk Interface, Normal';display:inline;fill:none;fill-rule:evenodd;stroke:#000000;stroke-width:1;stroke-dasharray:none;image-rendering:optimizeQuality;shape-rendering:geometricPrecision;text-rendering:geometricPrecision"
     d="m 606.21,80.95843 q -3.28102,-2.26276 -3.28102,-6.10946 0,-3.84672 2.77191,-5.88321 2.82845,-2.03649 6.50545,-2.03649 3.62044,0 6.44891,2.03649 2.82846,2.03649 2.82846,5.88321 0,3.8467 -3.28102,6.10946 v 0.0567 q 2.2062,1.01825 3.5073,3.05474 1.35765,1.97992 1.35765,4.35583 0,3.84672 -2.99816,6.61861 -2.99817,2.7719 -7.86314,2.7719 -5.03466,0 -7.97626,-2.7719 -2.88504,-2.82846 -2.88504,-6.61861 0,-2.37591 1.30111,-4.35583 1.35766,-2.03649 3.56385,-3.05474 z m 5.99634,-1.58393 q 1.69709,0 3.05474,-1.01824 1.41423,-1.01825 1.41423,-2.94161 0,-2.09306 -1.35766,-3.1113 -1.30108,-1.07483 -3.11131,-1.07483 -1.97992,0 -3.22444,1.13139 -1.24453,1.13138 -1.24453,3.05474 0,1.86678 1.35767,2.94161 1.41423,1.01824 3.1113,1.01824 z m 0,14.14232 q 2.14963,0 3.79014,-1.24453 1.64051,-1.24452 1.64051,-3.84671 0,-2.09306 -1.58393,-3.5073 -1.58394,-1.41423 -3.84672,-1.41423 -2.20619,0 -3.8467,1.41423 -1.58394,1.41424 -1.58394,3.5073 0,2.60219 1.64051,3.84671 1.64051,1.24453 3.79013,1.24453 z M 634.00133,82.25068 A 21.750674,21.750674 0 0 1 612.25068,104.00136 21.750674,21.750674 0 0 1 590.5,82.25068 21.750674,21.750674 0 0 1 612.25068,60.5 21.750674,21.750674 0 0 1 634.00133,82.25068 Z"
     inkscape:label="C25.8" />
  <circle
     style="fill:none;stroke:#000000;stroke-width:1;stroke-dasharray:none"
     id="C25.4"
     cx="433.53891"
     cy="218.85316"
     r="33.615486"
     inkscape:label="C25.4" />
  <path
     style="fill:none;fill-rule:evenodd;stroke:#000000;stroke-width:1;stroke-linecap:butt;stroke-linejoin:miter;stroke-miterlimit:4;stroke-dasharray:none;stroke-opacity:1"
     d="m 407.95892,197.36298 c 1.92572,1.41787 3.81408,3.01284 6.15268,3.65977 2.0003,0.30563 5.52392,-0.74823 6.96742,-1.57622 1.89625,-1.08768 2.03851,-2.31521 1.31985,-5.27983 -0.19684,-0.81199 -0.95747,-2.25982 -1.47865,-3.06661 -0.49806,-0.771 -0.95811,-1.56589 -1.43716,-2.34883"
     id="path4227"
     inkscape:connector-curvature="0"
     sodipodi:nodetypes="cssssc" />
  <path
     style="fill:none;fill-rule:evenodd;stroke:#000000;stroke-width:1;stroke-linecap:butt;stroke-linejoin:miter;stroke-miterlimit:4;stroke-dasharray:none;stroke-opacity:1"
     d="m 422.57801,194.98999 c 2.13505,0.54372 4.26159,1.13853 6.43103,1.52017 0.97713,0.17189 1.96588,0.28734 2.95634,0.34492 1.42448,0.0828 2.92014,0.4301 4.28066,0 0.87306,-0.276 1.70205,-0.84374 2.24778,-1.57899 0.58961,-0.79437 0.73492,-1.84854 0.92967,-2.81845 0.19425,-0.96739 0.0333,-1.98422 0.22978,-2.95115 0.22442,-1.10442 0.71597,-2.13725 1.07396,-3.20588"
     id="path4229"
     inkscape:connector-curvature="0"
     sodipodi:nodetypes="caaaaaac" />
  <path
     style="fill:none;fill-rule:evenodd;stroke:#000000;stroke-width:1;stroke-linecap:butt;stroke-linejoin:miter;stroke-miterlimit:4;stroke-dasharray:none;stroke-opacity:1"
     d="m 418.73643,200.28377 3.67509,4.32838 3.75768,0.21112 5.12034,0.14071 h 2.47762 l 0.4955,-2.39293 0.16517,-3.09672 v 0 -2.45683"
     id="path4231"
     inkscape:connector-curvature="0"
     sodipodi:nodetypes="ccccccccc" />
  <path
     style="fill:none;fill-rule:evenodd;stroke:#000000;stroke-width:1;stroke-linecap:butt;stroke-linejoin:miter;stroke-miterlimit:4;stroke-dasharray:none;stroke-opacity:1"
     d="m 422.5354,204.68251 c 0,0 0.44136,4.83022 -1.1562,6.19347 -1.34068,1.14405 -3.53441,0.34045 -5.28552,0.1407 -1.2998,-0.14827 -2.7156,-0.58211 -3.79899,-0.98534 -1.08923,-0.4054 -2.17739,-0.78858 -3.30344,-1.05561"
     id="path4233"
     inkscape:connector-curvature="0"
     sodipodi:nodetypes="csssc" />
  <path
     style="fill:none;fill-rule:evenodd;stroke:#000000;stroke-width:1;stroke-linecap:butt;stroke-linejoin:miter;stroke-miterlimit:4;stroke-dasharray:none;stroke-opacity:1"
     d="m 413.90513,201.02275 c 0,0 -2.68841,2.61099 -3.59251,4.22282 -0.60402,1.07685 -0.56442,2.43537 -1.15619,3.519 -0.37666,0.68973 -0.81627,1.41964 -1.48656,1.82989 -0.57617,0.35264 -1.32139,0.42228 -1.98207,0.42228 -0.66069,0 -2.11138,-0.39586 -3.13828,-0.7038 -0.50755,-0.1522 -1.48657,-0.56306 -1.48657,-0.56306"
     id="path4235"
     inkscape:connector-curvature="0"
     sodipodi:nodetypes="csssssc" />
  <path
     style="fill:none;fill-rule:evenodd;stroke:#000000;stroke-width:1;stroke-linecap:butt;stroke-linejoin:miter;stroke-miterlimit:4;stroke-dasharray:none;stroke-opacity:1"
     d="m 407.66987,210.5603 c 0,0 1.2664,3.29714 0.99102,4.96076 -0.30595,1.8483 -1.26164,3.82021 -2.81825,4.86268 -1.61144,1.07919 -3.67296,1.09343 -5.76561,0.78116"
     id="path4237"
     inkscape:connector-curvature="0"
     sodipodi:nodetypes="caac" />
  <path
     style="fill:none;fill-rule:evenodd;stroke:#000000;stroke-width:1;stroke-linecap:butt;stroke-linejoin:miter;stroke-miterlimit:4;stroke-dasharray:none;stroke-opacity:1"
     d="m 438.27818,195.91398 c 0,0 1.83049,2.93531 3.7452,4.0119 1.44032,0.80985 3.1806,1.21006 4.79238,0.84602 2.53924,-0.72909 4.31009,-1.63987 5.83773,-3.69354 1.26696,-1.65406 1.50854,-4.68114 1.50854,-4.68114"
     id="path4239"
     inkscape:connector-curvature="0"
     sodipodi:nodetypes="csssc" />
  <path
     style="fill:none;fill-rule:evenodd;stroke:#000000;stroke-width:1;stroke-linecap:butt;stroke-linejoin:miter;stroke-miterlimit:4;stroke-dasharray:none;stroke-opacity:1"
     d="m 446.62707,200.97286 c 1.00452,3.1263 2.32157,3.85846 5.14389,5.11726 2.16874,0.96729 4.54783,1.38876 6.77206,0.7038 2.05997,-0.63437 3.4342,-2.60013 5.12037,-3.94129"
     id="path4241"
     inkscape:connector-curvature="0"
     sodipodi:nodetypes="cssc" />
  <path
     style="fill:none;fill-rule:evenodd;stroke:#000000;stroke-width:1;stroke-linecap:butt;stroke-linejoin:miter;stroke-miterlimit:4;stroke-dasharray:none;stroke-opacity:1"
     d="m 433.60198,204.89365 c 0,0 0.48733,2.00466 1.23877,2.60409 1.34514,1.07303 3.32746,0.93725 5.03776,1.12607 1.64176,0.18125 3.30392,0.0391 4.95519,0 0.99187,-0.0234 2.15525,0.42097 2.97311,-0.14069 1.01417,-0.69647 1.48657,-3.37827 1.48657,-3.37827"
     id="path4243"
     inkscape:connector-curvature="0"
     sodipodi:nodetypes="caaaac" />
  <path
     style="fill:none;fill-rule:evenodd;stroke:#000000;stroke-width:1;stroke-linecap:butt;stroke-linejoin:miter;stroke-miterlimit:4;stroke-dasharray:none;stroke-opacity:1"
     d="m 421.13999,211.25847 c 0.33672,1.00671 0.98839,2.73211 1.77519,3.47925 0.47599,0.35314 1.12087,0.30605 1.67458,0.45318 1.75871,0.34217 3.5772,0.17282 5.31355,-0.21392 1.61965,-0.40046 3.23453,-1.04215 4.45657,-2.2127 0.62872,-0.4948 0.60519,-1.38015 0.7182,-2.09879 0.11833,-0.93768 -0.15202,-1.84835 -0.30738,-2.76206 -0.0248,-0.1811 -0.0182,-0.36441 -0.0125,-0.54648"
     id="path4245"
     inkscape:connector-curvature="0"
     sodipodi:nodetypes="cccccccc" />
  <path
     style="fill:none;fill-rule:evenodd;stroke:#000000;stroke-width:1;stroke-linecap:butt;stroke-linejoin:miter;stroke-miterlimit:4;stroke-dasharray:none;stroke-opacity:1"
     d="m 423.37129,214.98218 c 0,0 -2.18773,5.37079 -5.24185,5.80818 -0.94348,0.13513 -2.97772,0.20283 -4.83992,-0.12679 -1.03997,-0.18409 -2.39912,-0.44502 -2.9769,-0.77894 -0.9284,-0.53653 -1.98207,-2.53368 -1.98207,-2.53368 v 0"
     id="path4247"
     inkscape:connector-curvature="0"
     sodipodi:nodetypes="cssssc" />
  <path
     style="fill:none;fill-rule:evenodd;stroke:#000000;stroke-width:1;stroke-linecap:butt;stroke-linejoin:miter;stroke-miterlimit:4;stroke-dasharray:none;stroke-opacity:1"
     d="m 410.35097,219.91733 c 1.30917,1.36637 2.40619,2.77168 2.42332,4.465 0.0204,2.01971 -1.18832,3.82066 -2.7821,5.383 -1.97701,2.00935 -4.10417,2.98037 -5.89762,5.08987"
     id="path4249"
     inkscape:connector-curvature="0"
     sodipodi:nodetypes="casc" />
  <path
     style="fill:none;fill-rule:evenodd;stroke:#000000;stroke-width:1;stroke-linecap:butt;stroke-linejoin:miter;stroke-miterlimit:4;stroke-dasharray:none;stroke-opacity:1"
     d="m 410.10202,229.62087 c 0,0 3.50559,2.57847 5.5675,3.06404 1.12634,0.26525 2.4116,0.33019 3.46861,-0.1407 1.55317,-0.69192 2.35485,-2.45385 3.56244,-3.65085 0.86673,-0.85913 2.28802,-1.36602 2.64277,-2.5337 0.22345,-0.73548 -0.0998,-1.59316 -0.49551,-2.25214 -0.59586,-0.99225 -1.60831,-1.73306 -2.64278,-2.25217 -1.36282,-0.68388 -4.45964,-1.01802 -4.45964,-1.01802"
     id="path4251"
     inkscape:connector-curvature="0"
     sodipodi:nodetypes="cssssssc" />
  <path
     style="fill:none;fill-rule:evenodd;stroke:#000000;stroke-width:1;stroke-linecap:butt;stroke-linejoin:miter;stroke-miterlimit:4;stroke-dasharray:none;stroke-opacity:1"
     d="m 432.36732,214.05516 c 0,0 2.69566,1.93062 2.73123,3.37825 0.0391,1.59226 -0.42872,2.67301 -2.81796,3.85882 -2.44314,1.21256 -4.77807,2.42936 -7.45283,2.91327"
     id="path4253"
     inkscape:connector-curvature="0"
     sodipodi:nodetypes="cssc" />
  <path
     style="fill:none;fill-rule:evenodd;stroke:#000000;stroke-width:1;stroke-linecap:butt;stroke-linejoin:miter;stroke-miterlimit:4;stroke-dasharray:none;stroke-opacity:1"
     d="m 419.18792,232.69068 c 0.3464,2.93514 0.15747,4.46672 -1.46402,6.78308 -1.40342,2.00484 -3.31476,3.60115 -4.97214,5.40172"
     id="path4255"
     inkscape:connector-curvature="0"
     sodipodi:nodetypes="csc" />
  <path
     style="fill:none;fill-rule:evenodd;stroke:#000000;stroke-width:1;stroke-linecap:butt;stroke-linejoin:miter;stroke-miterlimit:4;stroke-dasharray:none;stroke-opacity:1"
     d="m 419.28658,235.40198 c 0,0 2.21575,0.086 3.30347,0.28152 2.41816,0.43462 5.10367,0.76789 7.10241,1.97064 0.83853,1.04741 1.52325,4.21497 1.24215,6.44599 -0.35937,2.85224 -2.86677,7.99074 -2.86677,7.99074"
     id="path4257"
     inkscape:connector-curvature="0"
     sodipodi:nodetypes="cassc" />
  <path
     style="fill:none;fill-rule:evenodd;stroke:#000000;stroke-width:1;stroke-linecap:butt;stroke-linejoin:miter;stroke-miterlimit:4;stroke-dasharray:none;stroke-opacity:1"
     d="m 425.26489,226.44353 4.37293,0.0569 c 2.2098,0.0288 4.70933,0.048 6.44174,1.4076 0.574,0.45049 0.16517,1.8299 -0.49553,2.53369 -0.66068,0.7038 -1.21582,2.03835 -2.39527,3.502 -1.18661,1.47253 -2.25002,2.52037 -3.46075,3.88654"
     id="path4259"
     inkscape:connector-curvature="0"
     sodipodi:nodetypes="cssssc" />
  <path
     style="fill:none;fill-rule:evenodd;stroke:#000000;stroke-width:1;stroke-linecap:butt;stroke-linejoin:miter;stroke-miterlimit:4;stroke-dasharray:none;stroke-opacity:1"
     d="m 435.08852,217.49171 c 0,0 5.35152,-0.93114 7.26759,0.56304 1.62411,1.26651 1.70315,4.53641 0.6607,6.3342 -0.71069,1.22565 -2.64276,2.53371 -3.30346,2.67445 -0.66069,0.14071 -3.63379,0.85165 -3.63379,0.85165"
     id="path4261"
     inkscape:connector-curvature="0"
     sodipodi:nodetypes="csssc" />
  <path
     style="fill:none;fill-rule:evenodd;stroke:#000000;stroke-width:1;stroke-linecap:butt;stroke-linejoin:miter;stroke-miterlimit:4;stroke-dasharray:none;stroke-opacity:1"
     d="m 447.76552,208.41266 c 0,0 0.0182,4.35675 -0.61941,6.4046 -0.30323,0.97382 -0.6617,2.07452 -1.48654,2.67445 -0.88488,0.64361 -3.22087,0.63342 -3.22087,0.63342"
     id="path4263"
     inkscape:connector-curvature="0"
     sodipodi:nodetypes="caac" />
  <path
     style="fill:none;fill-rule:evenodd;stroke:#000000;stroke-width:1;stroke-linecap:butt;stroke-linejoin:miter;stroke-miterlimit:4;stroke-dasharray:none;stroke-opacity:1"
     d="m 447.37385,212.40372 c 0,0 2.60681,0.55199 3.90159,0.86518 1.43841,0.34794 2.82675,0.93685 4.29449,1.12608 1.52895,0.19713 3.11947,0.33233 4.62483,0 2.14194,-0.47286 5.96892,-2.77046 5.96892,-2.77046"
     id="path4265"
     inkscape:connector-curvature="0"
     sodipodi:nodetypes="csssc" />
  <path
     style="fill:none;fill-rule:evenodd;stroke:#000000;stroke-width:1;stroke-linecap:butt;stroke-linejoin:miter;stroke-miterlimit:4;stroke-dasharray:none;stroke-opacity:1"
     d="m 456.50846,214.59855 c 0,0 -1.28832,2.20903 -1.93148,3.93904 -0.41474,1.11561 -1.71111,3.46397 -1.28939,4.57696 1.32749,1.48783 3.77959,2.13767 5.75097,2.54126 2.44068,0.0656 4.89477,0 7.34191,0"
     id="path4267"
     inkscape:connector-curvature="0"
     sodipodi:nodetypes="csssc" />
  <path
     style="fill:none;fill-rule:evenodd;stroke:#000000;stroke-width:1;stroke-linecap:butt;stroke-linejoin:miter;stroke-miterlimit:4;stroke-dasharray:none;stroke-opacity:1"
     d="m 442.93837,224.32212 c 0,0 2.33594,0.7583 3.54706,0.91141 1.14708,0.14502 2.35426,0.30818 3.46864,0 1.26266,-0.34919 3.37172,-2.01934 3.37172,-2.01934"
     id="path4269"
     inkscape:connector-curvature="0"
     sodipodi:nodetypes="caac" />
  <path
     style="fill:none;fill-rule:evenodd;stroke:#000000;stroke-width:1;stroke-linecap:butt;stroke-linejoin:miter;stroke-miterlimit:4;stroke-dasharray:none;stroke-opacity:1"
     d="m 435.78758,230.11038 c 0,0 4.36698,1.84573 6.56853,2.72421 1.09536,0.43708 2.13455,1.11029 3.30346,1.26684 0.93234,0.12486 1.95865,0.12292 2.80793,-0.28152 0.77606,-0.36957 1.34776,-1.10965 1.81691,-1.82989 0.41247,-0.63323 0.71487,-1.36387 0.82585,-2.1114 0.10367,-0.6983 -0.0497,-1.41497 -0.16516,-2.11141 -0.1519,-0.91602 -0.69076,-2.69858 -0.69076,-2.69858"
     id="path4271"
     inkscape:connector-curvature="0"
     sodipodi:nodetypes="caaaaaac" />
  <path
     style="fill:none;fill-rule:evenodd;stroke:#000000;stroke-width:1;stroke-linecap:butt;stroke-linejoin:miter;stroke-miterlimit:4;stroke-dasharray:none;stroke-opacity:1"
     d="m 450.367,231.63812 5.53326,1.61875 3.63381,0.7038 4.19434,0.0704"
     id="path4273"
     inkscape:connector-curvature="0"
     sodipodi:nodetypes="cccc" />
  <path
     style="fill:none;fill-rule:evenodd;stroke:#000000;stroke-width:1;stroke-linecap:butt;stroke-linejoin:miter;stroke-miterlimit:4;stroke-dasharray:none;stroke-opacity:1"
     d="m 447.87524,233.89382 c 0,0 -2.20153,1.97827 -2.21567,3.30433 -0.0131,1.22551 1.23347,2.12635 1.98207,3.09673 0.54575,0.70743 1.0742,1.47399 1.81692,1.97065 1.65704,1.10807 5.61172,2.06666 5.61172,2.06666"
     id="path4275"
     inkscape:connector-curvature="0"
     sodipodi:nodetypes="caaac" />
  <path
     style="fill:none;fill-rule:evenodd;stroke:#000000;stroke-width:1;stroke-linecap:butt;stroke-linejoin:miter;stroke-miterlimit:4;stroke-dasharray:none;stroke-opacity:1"
     d="m 431.0772,243.53467 c 1.65173,0.56304 4.63547,0.72424 6.32852,0.30134 l 4.92263,-1.22963 c 1.76402,-0.44064 3.2031,-1.72159 4.80465,-2.58238"
     id="path4279"
     inkscape:connector-curvature="0"
     sodipodi:nodetypes="cssc" />
  <path
     style="fill:none;fill-rule:evenodd;stroke:#000000;stroke-width:1;stroke-linecap:butt;stroke-linejoin:miter;stroke-miterlimit:4;stroke-dasharray:none;stroke-opacity:1"
     d="m 414.19418,214.25422 c 0.0825,1.19646 0.6607,1.68913 0.6607,1.68913 l 0.82587,-0.14071 0.16516,-0.42228 v -0.49266 l -0.24777,-0.49266 z"
     id="path4281"
     inkscape:connector-curvature="0" />
  <path
     style="fill:#000000;fill-opacity:1;fill-rule:evenodd;stroke:#000000;stroke-width:1;stroke-linecap:butt;stroke-linejoin:miter;stroke-opacity:1;stroke-dasharray:none"
     d="m 405.2976,225.15463 c -0.18588,0.14885 -0.39525,0.40432 -0.33033,0.63343 0.0874,0.30841 0.52304,0.38755 0.82586,0.49266 0.34098,0.11836 0.74172,0.28254 1.07362,0.14071 0.21402,-0.0915 0.34051,-0.34186 0.41293,-0.56306 0.0876,-0.26755 0.16602,-0.61721 0,-0.84456 -0.13635,-0.18672 -0.42956,-0.20548 -0.6607,-0.21114 -0.45568,-0.0112 -0.96558,0.067 -1.32138,0.35196 z"
     id="path4283"
     inkscape:connector-curvature="0"
     sodipodi:nodetypes="aaaaaaaa" />
  <path
     style="fill:#000000;fill-opacity:1;fill-rule:evenodd;stroke:#000000;stroke-width:1;stroke-linecap:butt;stroke-linejoin:miter;stroke-opacity:1;stroke-dasharray:none"
     d="m 403.78831,215.23954 c -0.4044,0.025 -0.93262,0.30287 -0.99105,0.70381 -0.0515,0.35369 0.35058,0.66685 0.6607,0.84456 0.45791,0.26239 1.11792,0.48487 1.56915,0.21114 0.27723,-0.16817 0.44616,-0.61208 0.33034,-0.91494 -0.21218,-0.55481 -0.97628,-0.8813 -1.56914,-0.84457 z"
     id="path4285"
     inkscape:connector-curvature="0"
     sodipodi:nodetypes="aaaaaa" />
  <path
     style="fill:#000000;fill-rule:evenodd;stroke:#000000;stroke-width:1;stroke-linecap:butt;stroke-linejoin:miter;stroke-opacity:1;fill-opacity:1;stroke-dasharray:none"
     d="m 406.26589,204.04909 c -0.44543,0.0611 -0.91602,0.47164 -0.99104,0.91494 -0.0488,0.28838 0.18588,0.58985 0.41295,0.77419 0.20032,0.16263 0.48526,0.21908 0.74327,0.21618 0.3175,-0.004 0.70012,-0.0469 0.90846,-0.28648 0.21851,-0.25131 0.33692,-0.75728 0.16514,-0.98532 -0.27906,-0.37044 -0.7793,-0.69657 -1.23878,-0.63351 z"
     id="path4287"
     inkscape:connector-curvature="0"
     sodipodi:nodetypes="aaaaaaa" />
  <path
     style="fill:#000000;fill-rule:evenodd;stroke:#000000;stroke-width:1;stroke-linecap:butt;stroke-linejoin:miter;stroke-dasharray:none;stroke-opacity:1;fill-opacity:1"
     d="m 416.75435,195.885 c -0.59985,-0.009 -1.37933,0.52667 -1.40395,1.12608 -0.014,0.34092 0.43141,0.56538 0.74328,0.7038 0.27761,0.12322 0.61749,0.15751 0.90845,0.0704 0.36696,-0.10987 0.81873,-0.33139 0.90845,-0.70379 0.0303,-0.12597 -0.0865,-0.2489 -0.16517,-0.3519 -0.26334,-0.34503 -0.55707,-0.83813 -0.99106,-0.84459 z"
     id="path4289"
     inkscape:connector-curvature="0"
     sodipodi:nodetypes="aaaaaaa" />
  <path
     style="fill:#000000;fill-rule:evenodd;stroke:#000000;stroke-width:1;stroke-linecap:butt;stroke-linejoin:miter;stroke-dasharray:none;stroke-opacity:1;fill-opacity:1"
     d="m 416.58919,204.96403 c -0.62939,-0.0358 -1.5169,0.42747 -1.56913,1.05571 -0.0283,0.34003 0.45313,0.52424 0.74327,0.7038 0.17445,0.10796 0.37494,0.1826 0.57809,0.21116 0.32796,0.0461 0.70967,0.10427 0.99104,-0.0704 0.27732,-0.17215 0.54986,-0.52273 0.49553,-0.84458 -0.0903,-0.53497 -0.69714,-1.02491 -1.2388,-1.05569 z"
     id="path4291"
     inkscape:connector-curvature="0"
     sodipodi:nodetypes="aaaaaaa" />
  <path
     style="fill:none;fill-rule:evenodd;stroke:#000000;stroke-width:1;stroke-linecap:butt;stroke-linejoin:miter;stroke-opacity:1;stroke-dasharray:none"
     d="m 425.42591,201.23389 1.15623,0.77417 h 1.32136 l 0.41293,-0.56303 c 0,0 -0.0826,-0.42228 -0.49551,-0.49266 -0.41293,-0.0704 -1.40396,-0.3519 -1.40396,-0.3519 z"
     id="path4293"
     inkscape:connector-curvature="0" />
  <path
     style="fill:#000000;fill-opacity:1;fill-rule:evenodd;stroke:#000000;stroke-width:1;stroke-linecap:butt;stroke-linejoin:miter;stroke-dasharray:none;stroke-opacity:1"
     d="m 429.57885,192.1869 c -0.13681,0.43306 0.21493,0.9804 0.59813,1.22416 0.30487,0.19393 0.7592,0.17687 1.08382,0.0182 0.24097,-0.11778 0.3968,-0.38933 0.4836,-0.64311 0.12279,-0.35901 0.27055,-0.85652 0.0163,-1.13816 -0.23312,-0.25823 -0.69929,-0.16343 -1.03966,-0.0915 -0.42547,0.0899 -1.01119,0.21574 -1.14219,0.63041 z"
     id="path4295"
     inkscape:connector-curvature="0"
     sodipodi:nodetypes="sssssss" />
  <path
     style="fill:#000000;fill-opacity:1;fill-rule:evenodd;stroke:#000000;stroke-width:1;stroke-linecap:butt;stroke-linejoin:miter;stroke-dasharray:none;stroke-opacity:1"
     d="m 444.33819,193.54428 c -0.32328,0.53663 0.16667,1.37423 0.66069,1.7595 0.32771,0.25557 0.82859,0.20733 1.2388,0.1407 0.32961,-0.0535 0.71635,-0.14912 0.90843,-0.42228 0.17614,-0.25049 0.18883,-0.62774 0.0826,-0.91494 -0.0933,-0.25229 -0.34749,-0.42457 -0.57811,-0.56305 -0.19821,-0.11902 -0.43044,-0.19011 -0.66068,-0.21114 -0.64191,-0.18677 -1.36531,-0.26424 -1.65173,0.21121 z"
     id="path4297"
     inkscape:connector-curvature="0"
     sodipodi:nodetypes="aaaaaaaa" />
  <path
     style="fill:#000000;fill-rule:evenodd;stroke:#000000;stroke-width:1;stroke-linecap:butt;stroke-linejoin:miter;stroke-dasharray:none;stroke-opacity:1;fill-opacity:1"
     d="m 438.30938,204.82327 c 0.22017,0.4208 0.7759,0.59757 1.23879,0.70382 0.69911,0.16047 1.67641,0.40041 2.14726,-0.1407 0.24706,-0.28393 0.0505,-0.77403 -0.0826,-1.1261 -0.17702,-0.46842 -0.44603,-1.0043 -0.90845,-1.19644 -0.48736,-0.20251 -1.08719,-0.004 -1.56913,0.21112 -0.29726,0.13266 -0.59367,0.34431 -0.74328,0.63342 -0.14073,0.27195 -0.22454,0.64357 -0.0826,0.91488 z"
     id="path4299"
     inkscape:connector-curvature="0"
     sodipodi:nodetypes="aaaaaaaa" />
  <path
     style="fill:#000000;fill-opacity:1;fill-rule:evenodd;stroke:#000000;stroke-width:1;stroke-linecap:butt;stroke-linejoin:miter;stroke-dasharray:none;stroke-opacity:1"
     d="m 427.16023,209.11646 c -0.30306,0.1525 -0.67287,0.43516 -0.66068,0.7742 0.016,0.44428 0.52851,0.77284 0.93638,0.94971 0.42096,0.18254 0.95404,0.21574 1.37603,0.0356 0.34999,-0.1494 0.69002,-0.47214 0.76814,-0.84458 0.0762,-0.36338 -0.0465,-0.84941 -0.35521,-1.05569 -0.57355,-0.38326 -1.44846,-0.16932 -2.06466,0.14075 z"
     id="path4301"
     inkscape:connector-curvature="0"
     sodipodi:nodetypes="aaaaaaa" />
  <path
     style="fill:#000000;fill-rule:evenodd;stroke:#000000;stroke-width:1;stroke-linecap:butt;stroke-linejoin:miter;stroke-dasharray:none;stroke-opacity:1;fill-opacity:1"
     d="m 438.80489,212.49472 c -0.16932,0.23155 -0.26601,0.57602 -0.16516,0.84456 0.13468,0.3586 0.54214,0.59175 0.90844,0.7038 0.68591,0.20982 1.65692,0.38283 2.14726,-0.14069 0.28867,-0.30821 0.22982,-0.91258 0,-1.26685 -0.34455,-0.53112 -1.10175,-0.7999 -1.73431,-0.77418 -0.43908,0.0179 -0.89684,0.27864 -1.15623,0.63336 z"
     id="path4303"
     inkscape:connector-curvature="0"
     sodipodi:nodetypes="aaaaaaa" />
  <path
     style="fill:#000000;fill-rule:evenodd;stroke:#000000;stroke-width:1;stroke-linecap:butt;stroke-linejoin:miter;stroke-dasharray:none;stroke-opacity:1;fill-opacity:1"
     d="m 454.16595,201.72654 c -0.35193,0.19265 -0.70944,0.67661 -0.5781,1.05571 0.11755,0.3393 0.63921,0.35045 0.99104,0.42228 0.35064,0.0716 0.73221,0.10728 1.07363,0 0.35218,-0.11066 0.81299,-0.27682 0.90844,-0.63342 0.067,-0.25035 -0.11646,-0.55748 -0.33036,-0.70381 -0.56933,-0.3895 -1.45957,-0.472 -2.06465,-0.14076 z"
     id="path4305"
     inkscape:connector-curvature="0"
     sodipodi:nodetypes="aaaaaaa" />
  <path
     style="fill:#000000;fill-rule:evenodd;stroke:#000000;stroke-width:1;stroke-linecap:butt;stroke-linejoin:miter;stroke-dasharray:none;stroke-opacity:1;fill-opacity:1"
     d="m 455.23958,209.74988 c -0.34872,0.15853 -0.91642,0.32084 -0.90845,0.70382 0.008,0.40509 0.60503,0.58068 0.99104,0.7038 0.60322,0.1924 1.28518,0.15339 1.89948,0 0.24209,-0.0605 0.53226,-0.13797 0.6607,-0.3519 0.16906,-0.28159 0.21074,-0.7334 0,-0.98532 -0.34097,-0.40759 -1.03777,-0.28595 -1.56915,-0.28153 -0.36471,0.003 -0.74159,0.0602 -1.07362,0.21113 z"
     id="path4307"
     inkscape:connector-curvature="0"
     sodipodi:nodetypes="aaaaaaaa" />
  <path
     style="fill:#000000;fill-rule:evenodd;stroke:#000000;stroke-width:1;stroke-linecap:butt;stroke-linejoin:miter;stroke-dasharray:none;stroke-opacity:1;fill-opacity:1"
     d="m 447.64164,218.68817 c -0.38821,0.56478 -0.34577,1.69835 0.24775,2.04102 0.5183,0.29924 1.24063,-0.26887 1.65174,-0.7038 0.22274,-0.23564 0.40604,-0.59965 0.33035,-0.91494 -0.0881,-0.36691 -0.46062,-0.67946 -0.82587,-0.77419 -0.46702,-0.12112 -1.13067,-0.0457 -1.40397,0.35191 z"
     id="path4311"
     inkscape:connector-curvature="0"
     sodipodi:nodetypes="aaaaaa" />
  <path
     style="fill:#000000;fill-rule:evenodd;stroke:#000000;stroke-width:1;stroke-linecap:butt;stroke-linejoin:miter;stroke-miterlimit:4;stroke-dasharray:none;stroke-opacity:1;fill-opacity:1"
     d="m 433.93232,223.12212 c 0.0425,0.53405 0.80656,0.76668 1.32138,0.91493 0.50312,0.14489 1.2073,0.30803 1.56913,-0.0704 0.24319,-0.25434 0.13284,-0.72983 0,-1.05569 -0.0743,-0.1823 -0.23909,-0.32986 -0.41292,-0.42227 -0.34593,-0.1839 -0.76524,-0.23635 -1.15621,-0.21116 -0.23073,0.0149 -0.46202,0.0929 -0.66071,0.21116 -0.26217,0.15603 -0.68486,0.3293 -0.66067,0.63343 z"
     id="path4313"
     inkscape:connector-curvature="0"
     sodipodi:nodetypes="ssssssss" />
  <path
     style="fill:#000000;fill-opacity:1;fill-rule:evenodd;stroke:#000000;stroke-width:1;stroke-linecap:butt;stroke-linejoin:miter;stroke-opacity:1;stroke-dasharray:none"
     d="m 426.99907,230.66253 c -0.36273,0.19292 -0.82014,0.50413 -0.82585,0.91494 -0.005,0.33923 0.35262,0.63209 0.66069,0.77418 0.42496,0.19601 0.97753,0.19277 1.40397,0 0.45563,-0.20596 1.00187,-0.62617 0.99104,-1.12608 -0.008,-0.35766 -0.40511,-0.65747 -0.74328,-0.77418 -0.47311,-0.16329 -1.04469,-0.0239 -1.48657,0.21114 z"
     id="path4315"
     inkscape:connector-curvature="0"
     sodipodi:nodetypes="aaaaaaa" />
  <path
     style="fill:#000000;fill-opacity:1;fill-rule:evenodd;stroke:#000000;stroke-width:1;stroke-linecap:butt;stroke-linejoin:miter;stroke-opacity:1;stroke-dasharray:none"
     d="m 416.91953,225.16314 c -0.36449,0.27869 -0.64631,0.82435 -0.53317,1.26901 0.0923,0.36282 0.52375,0.57771 0.87703,0.70163 0.51529,0.18076 1.13897,0.22124 1.63822,0 0.3401,-0.15071 0.6767,-0.46195 0.74963,-0.82672 0.0575,-0.28754 -0.15045,-0.5736 -0.2949,-0.82878 -0.12263,-0.21663 -0.24472,-0.48079 -0.47442,-0.57674 -0.41411,-0.17298 -1.43816,-0.13923 -1.96239,0.2616 z"
     id="path4317"
     inkscape:connector-curvature="0"
     sodipodi:nodetypes="aaaaaaaa" />
  <path
     style="fill:#000000;fill-opacity:1;fill-rule:evenodd;stroke:#000000;stroke-width:1;stroke-linecap:butt;stroke-linejoin:miter;stroke-opacity:1;stroke-dasharray:none"
     d="m 411.05153,234.88779 c -0.13839,0.35856 -0.46246,0.8073 -0.24777,1.12608 0.23399,0.34744 0.82622,0.28363 1.23879,0.21114 0.37421,-0.0658 0.78729,-0.24237 0.99106,-0.56305 0.1893,-0.29791 0.26549,-0.75386 0.0825,-1.05569 -0.21718,-0.35824 -0.73789,-0.51535 -1.1562,-0.49266 -0.26143,0.0142 -0.49909,0.19994 -0.68505,0.38424 -0.10639,0.10544 -0.16939,0.2502 -0.22333,0.38994 z"
     id="path4319"
     inkscape:connector-curvature="0"
     sodipodi:nodetypes="aaaaaaaa" />
  <path
     style="fill:#000000;fill-opacity:1;fill-rule:evenodd;stroke:#000000;stroke-width:1;stroke-linecap:butt;stroke-linejoin:miter;stroke-opacity:1;stroke-dasharray:none"
     d="m 422.03358,240.80723 c -0.25396,0.22014 -0.53593,0.60435 -0.47544,0.97349 0.10448,0.63763 0.76062,1.05114 1.29046,1.18211 0.38865,0.096 0.88152,-0.002 1.15463,-0.3477 0.24358,-0.30838 0.34303,-0.86081 0.20377,-1.25162 -0.16918,-0.47479 -0.66371,-0.74226 -1.08671,-0.83442 -0.36443,-0.0794 -0.78637,0.0178 -1.08671,0.27814 z"
     id="path4321"
     inkscape:connector-curvature="0"
     sodipodi:nodetypes="aaaaaaa" />
  <path
     style="fill:#000000;fill-opacity:1;fill-rule:evenodd;stroke:#000000;stroke-width:1;stroke-linecap:butt;stroke-linejoin:miter;stroke-dasharray:none;stroke-opacity:1"
     d="m 437.62753,247.44329 c 0.0278,0.29406 0.32362,0.41551 0.51895,0.47653 0.83791,0.2618 2.2387,0.73634 2.53708,-0.55594 0.0915,-0.39648 -0.28191,-0.77325 -0.51895,-0.95302 -0.52221,-0.39604 -1.18576,-0.38921 -1.72983,-0.0794 -0.60606,0.34506 -0.84813,0.67921 -0.80725,1.11187 z"
     id="path4323"
     inkscape:connector-curvature="0"
     sodipodi:nodetypes="saaass" />
  <path
     style="fill:#000000;fill-opacity:1;fill-rule:evenodd;stroke:#000000;stroke-width:1;stroke-linecap:butt;stroke-linejoin:miter;stroke-opacity:1;stroke-dasharray:none"
     d="m 436.66058,236.9578 c 0.24688,0.68183 1.10128,1.31364 1.8169,1.19646 0.35273,-0.0578 0.54422,-0.50664 0.66069,-0.84456 0.0994,-0.28834 0.16621,-0.65924 0,-0.91495 -0.29576,-0.45503 -0.94668,-0.70147 -1.48787,-0.66102 -0.30248,0.0226 -0.58421,0.24724 -0.76743,0.48898 -0.15463,0.204 -0.30944,0.49439 -0.22229,0.73509 z"
     id="path4325"
     inkscape:connector-curvature="0"
     sodipodi:nodetypes="aaaaaaa" />
  <path
     style="fill:#000000;fill-opacity:1;fill-rule:evenodd;stroke:#000000;stroke-width:1;stroke-linecap:butt;stroke-linejoin:miter;stroke-dasharray:none;stroke-opacity:1"
     d="m 442.85165,228.82292 c -0.32729,0.35377 -0.0529,1.11531 0.33033,1.4076 0.50377,0.38426 1.39369,0.31121 1.89947,-0.0704 0.35455,-0.26751 0.54946,-0.84419 0.41295,-1.26684 -0.0734,-0.22709 -0.34581,-0.36764 -0.57811,-0.42228 -1.49301,-0.3512 -1.61182,-0.13755 -2.06464,0.35192 z"
     id="path4327"
     inkscape:connector-curvature="0"
     sodipodi:nodetypes="saaaas" />
  <path
     style="fill:#000000;fill-rule:evenodd;stroke:#000000;stroke-width:1;stroke-linecap:butt;stroke-linejoin:miter;stroke-dasharray:none;stroke-opacity:1;fill-opacity:1"
     d="m 455.40475,228.68216 c -0.20709,0.34199 0.0963,0.88195 0.41293,1.12608 0.59124,0.45591 1.67759,0.71357 2.22984,0.21114 0.2603,-0.23681 0.12425,-0.72646 0,-1.0557 -0.0883,-0.23391 -0.26148,-0.47512 -0.49553,-0.56305 -0.67576,-0.25387 -1.77333,-0.33596 -2.14724,0.28153 z"
     id="path4329"
     inkscape:connector-curvature="0"
     sodipodi:nodetypes="aaaaaa" />
  <path
     style="fill:#000000;fill-opacity:1;fill-rule:evenodd;stroke:#000000;stroke-width:1;stroke-linecap:butt;stroke-linejoin:miter;stroke-dasharray:none;stroke-opacity:1"
     d="m 452.18389,236.70549 c -0.55311,0.26922 -1.02689,1.14327 -0.74328,1.68913 0.22006,0.42355 0.92842,0.32244 1.40397,0.28152 0.32354,-0.0278 0.71579,-0.0905 0.90844,-0.3519 0.23716,-0.32183 0.31676,-0.87245 0.0826,-1.19647 -0.33286,-0.4606 -1.14076,-0.67099 -1.65173,-0.42228 z"
     id="path4331"
     inkscape:connector-curvature="0"
     sodipodi:nodetypes="aaaaaa" />
  <path
     style="fill:#000000;fill-rule:evenodd;stroke:#000000;stroke-width:1;stroke-linecap:butt;stroke-linejoin:miter;stroke-miterlimit:4;stroke-dasharray:none;stroke-opacity:1;fill-opacity:1"
     d="m 425.17817,218.75855 c 0.1687,0.59831 0.87428,1.01853 1.48654,1.12608 0.62448,0.1097 1.53207,0.003 1.8169,-0.56304 0.22346,-0.44441 -0.0896,-1.12014 -0.49551,-1.4076 -0.67399,-0.47727 -1.79549,-0.46561 -2.47758,0 -0.24967,0.17043 -0.41238,0.55361 -0.33035,0.84456 z"
     id="path4333"
     inkscape:connector-curvature="0"
     sodipodi:nodetypes="aaaaaa" />
  <path
     style="opacity:0.98;fill:#000000;fill-opacity:1;fill-rule:evenodd;stroke:#000000;stroke-width:1;stroke-linecap:square;stroke-miterlimit:4;stroke-dasharray:none;stroke-dashoffset:0;stroke-opacity:1"
     d="m 458.52619,220.78799 c -0.34594,-0.23871 -0.36291,-0.30706 -0.18828,-0.75803 0.22161,-0.5722 0.17176,-0.5563 0.91494,-0.29169 0.65463,0.2331 0.6559,0.23608 0.33113,0.77129 -0.3183,0.52457 -0.59543,0.5975 -1.05779,0.27843 z"
     id="path4357"
     inkscape:connector-curvature="0" />
  <path
     style="opacity:0.98;fill:#000000;fill-opacity:1;fill-rule:evenodd;stroke:#000000;stroke-width:1;stroke-linecap:square;stroke-miterlimit:4;stroke-dasharray:none;stroke-dashoffset:0;stroke-opacity:1"
     d="m 458.04804,221.37246 c -0.2692,-0.16953 -0.51908,-0.4655 -0.54647,-0.78245 -0.0256,-0.29605 0.14408,-0.62368 0.37748,-0.8076 0.46496,-0.3664 1.22924,-0.65409 1.7401,-0.35499 0.38916,0.22785 0.56125,0.86244 0.41294,1.28831 -0.15542,0.44629 -0.71592,0.68899 -1.17775,0.78924 -0.26617,0.0578 -0.57583,0.0126 -0.8063,-0.13251 z"
     id="path4359"
     inkscape:connector-curvature="0"
     sodipodi:nodetypes="aaaaaaa" />
  <path
     style="opacity:0.98;fill:#000000;fill-opacity:1;fill-rule:evenodd;stroke:#000000;stroke-width:1;stroke-linecap:square;stroke-miterlimit:4;stroke-dasharray:none;stroke-dashoffset:0;stroke-opacity:1"
     d="m 427.00071,201.56021 c 0.16066,-0.0356 0.38369,-0.0335 0.49553,0.004 0.11181,0.0385 -0.0196,0.0677 -0.2922,0.0648 -0.27253,-0.003 -0.36405,-0.0345 -0.20333,-0.0701 z"
     id="path4393"
     inkscape:connector-curvature="0" />
  <path
     style="opacity:0.98;fill:#000000;fill-opacity:1;fill-rule:evenodd;stroke:#000000;stroke-width:1;stroke-linecap:square;stroke-miterlimit:4;stroke-dasharray:none;stroke-dashoffset:0;stroke-opacity:1"
     d="m 426.29558,201.23547 c 0,-0.0773 0.14865,-0.1407 0.33036,-0.1407 0.18168,0 0.33033,0.0634 0.33033,0.1407 0,0.0775 -0.14865,0.1407 -0.33033,0.1407 -0.18171,0 -0.33036,-0.0634 -0.33036,-0.1407 z"
     id="path4395"
     inkscape:connector-curvature="0" />
  <path
     style="opacity:0.98;fill:#000000;fill-opacity:1;fill-rule:evenodd;stroke:#000000;stroke-width:1;stroke-linecap:square;stroke-miterlimit:4;stroke-dasharray:none;stroke-dashoffset:0;stroke-opacity:1"
     d="m 425.80006,201.85536 c -0.4088,-0.27691 -0.74328,-0.55794 -0.74328,-0.62451 0,-0.0665 0.28933,-0.30489 0.64293,-0.52959 0.6395,-0.40634 0.64744,-0.40741 1.48657,-0.20184 1.39959,0.3429 1.66934,0.6873 1.13835,1.45333 -0.24681,0.35605 -0.38001,0.40862 -1.03234,0.40743 -0.60901,-0.001 -0.88785,-0.0954 -1.49223,-0.50482 z m 2.13624,-0.52968 c -0.20546,-0.15858 -0.81485,-0.23313 -0.81485,-0.0997 0,0.0826 0.11148,0.15033 0.24777,0.15033 0.1363,0 0.24775,0.076 0.24775,0.16891 0,0.13002 0.0449,0.13062 0.19543,0.001 0.10756,-0.0916 0.16326,-0.19143 0.12398,-0.22181 z"
     id="path4397"
     inkscape:connector-curvature="0" />
  <path
     style="opacity:0.98;fill:#000000;fill-opacity:1;fill-rule:evenodd;stroke:#000000;stroke-width:1;stroke-linecap:square;stroke-miterlimit:4;stroke-dasharray:none;stroke-dashoffset:0;stroke-opacity:1"
     d="m 414.74965,215.14974 c -0.23392,-0.57188 -0.24651,-0.54204 0.22846,-0.54204 0.29682,0 0.43772,0.0949 0.51107,0.3439 0.21257,0.72175 -0.45244,0.89994 -0.73953,0.19814 z"
     id="path4407"
     inkscape:connector-curvature="0" />
  <path
     style="opacity:0.98;fill:#000000;fill-opacity:1;fill-rule:evenodd;stroke:#000000;stroke-width:1;stroke-linecap:square;stroke-miterlimit:4;stroke-dasharray:none;stroke-dashoffset:0;stroke-opacity:1"
     d="m 414.39083,215.54284 c -0.39857,-0.74803 -0.43072,-1.56516 -0.0568,-1.44286 0.14362,0.047 0.50631,0.0855 0.80581,0.0855 0.45068,0 0.58036,0.0736 0.7521,0.42698 0.32737,0.67352 0.0445,1.29845 -0.64215,1.41812 -0.52029,0.0907 -0.56411,0.0658 -0.85901,-0.48768 z"
     id="path4425"
     inkscape:connector-curvature="0" />
  <path
     style="opacity:0.98;fill:#000000;fill-opacity:1;fill-rule:evenodd;stroke:#000000;stroke-width:1;stroke-linecap:square;stroke-miterlimit:4;stroke-dasharray:none;stroke-dashoffset:0;stroke-opacity:1"
     d="m 414.23353,215.55783 c -0.3646,-0.68448 -0.42878,-1.50573 -0.11943,-1.52808 1.11562,-0.0806 1.70647,0.0959 1.94172,0.57989 0.37598,0.77353 -0.12982,1.54643 -1.01186,1.54643 -0.41847,0 -0.53928,-0.0892 -0.81043,-0.59824 z"
     id="path4427"
     inkscape:connector-curvature="0" />
  <path
     style="opacity:0.98;fill:#000000;fill-opacity:1;fill-rule:evenodd;stroke:#000000;stroke-width:1;stroke-linecap:square;stroke-miterlimit:4;stroke-dasharray:none;stroke-dashoffset:0;stroke-opacity:1"
     d="m 414.24029,215.84394 c -0.34989,-0.4903 -0.59909,-1.54576 -0.4225,-1.78928 0.19504,-0.26893 1.64252,-0.17995 2.02605,0.12459 0.93888,0.74543 0.41044,2.10104 -0.82372,2.11314 -0.34013,0.003 -0.5391,-0.11105 -0.77983,-0.44841 z"
     id="path4429"
     inkscape:connector-curvature="0" />
  <path
     style="fill:none;fill-rule:evenodd;stroke:#000000;stroke-width:1;stroke-linecap:butt;stroke-linejoin:miter;stroke-miterlimit:4;stroke-dasharray:none;stroke-opacity:1"
     d="m 492.8757,308.33989 c -0.83747,0.92686 -0.71681,2.88196 0.18842,3.74276 1.11715,1.06232 3.53872,1.09404 4.62483,0 0.93629,-0.94312 0.93767,-3.0748 -0.029,-3.98676 -1.16152,-1.09578 -3.71372,-0.94082 -4.78425,0.244 z"
     id="path4431"
     inkscape:connector-curvature="0"
     sodipodi:nodetypes="aaaaa" />
  <path
     style="fill:none;fill-rule:evenodd;stroke:#000000;stroke-width:1;stroke-linecap:butt;stroke-linejoin:miter;stroke-miterlimit:4;stroke-dasharray:none;stroke-opacity:1"
     d="M 492.65512,311.36865 417.03967,248.15221"
     id="path4433"
     inkscape:connector-curvature="0"
     sodipodi:nodetypes="cc" />
  <path
     style="fill:none;fill-rule:evenodd;stroke:#000000;stroke-width:1;stroke-linecap:butt;stroke-linejoin:miter;stroke-miterlimit:4;stroke-dasharray:none;stroke-opacity:1"
     d="m 496.99781,307.68226 c -10.8609,-34.76473 -19.46032,-59.50424 -30.24398,-94.29175"
     id="path4435"
     inkscape:connector-curvature="0"
     sodipodi:nodetypes="cc" />
  <path
     style="fill:none;fill-rule:evenodd;stroke:#000000;stroke-width:1;stroke-linecap:butt;stroke-linejoin:miter;stroke-miterlimit:4;stroke-dasharray:none;stroke-opacity:1"
     d="m 616.16528,198.95789 c -2.9186,-0.76609 -6.04878,-1.00768 -8.96728,-0.0542 -1.61856,0.52879 -3.26376,1.02324 -4.72728,1.87597 -1.0599,0.61755 -1.02217,2.36999 -1.06738,3.57407 -0.0801,2.13374 1.36613,4.27417 3.27956,5.23768 1.27627,0.64267 2.70357,0.91231 4.16715,0.88871 1.48311,-0.0239 2.68373,-0.68288 4.05184,-1.12051 1.34337,-0.42971 2.76483,-0.39153 4.09492,-0.86481 1.73197,-0.61629 3.56426,-1.08399 5.19323,-1.9941 2.43494,-1.3604 4.37241,-3.42095 6.69808,-4.93668 1.13254,-0.73812 1.89815,-1.48815 1.83473,-2.99521 -0.0534,-1.26956 -0.24075,-2.53375 -1.76637,-2.02507 -1.5793,0.52658 -3.29315,0.69799 -4.74318,1.55157 -1.67466,0.98581 -3.65222,0.85893 -5.51483,0.94667 -0.84423,0.0398 -1.69159,-0.004 -2.53319,-0.0841 z"
     id="path4146"
     inkscape:connector-curvature="0"
     sodipodi:nodetypes="ssssssssssssssss" />
  <path
     style="fill:none;fill-rule:evenodd;stroke:#000000;stroke-width:1;stroke-linecap:butt;stroke-linejoin:miter;stroke-miterlimit:4;stroke-dasharray:none;stroke-opacity:1"
     d="m 604.7519,192.04953 1.13348,1.5134 c -0.11962,0.95786 -0.30101,1.911 -0.34444,2.87532 -0.0451,1.00056 0.0521,2.00256 0.0852,3.00351"
     id="path4148"
     inkscape:connector-curvature="0"
     sodipodi:nodetypes="ccsc" />
  <path
     style="fill:none;fill-rule:evenodd;stroke:#000000;stroke-width:1;stroke-linecap:butt;stroke-linejoin:miter;stroke-miterlimit:4;stroke-dasharray:none;stroke-opacity:1"
     d="m 607.11623,192.10389 -1.2353,1.45971"
     id="path4150"
     inkscape:connector-curvature="0"
     sodipodi:nodetypes="cc" />
  <path
     style="fill:none;fill-rule:evenodd;stroke:#000000;stroke-width:1;stroke-linecap:butt;stroke-linejoin:miter;stroke-miterlimit:4;stroke-dasharray:none;stroke-opacity:1"
     d="m 605.54546,196.60698 c -1.11605,-0.49545 -1.64065,-1.11514 -1.76309,-2.26842 -0.0488,-0.45993 0.16446,-1.0374 -0.14649,-1.37978 -0.26817,-0.29528 -0.73108,-0.25949 -1.17232,-0.23998 -1.45055,0.0642 -2.7534,-0.11825 -4.15649,0.13941 -1.95003,0.27771 -2.37964,1.42275 -2.21578,2.63178 0.0837,0.61744 1.21058,1.05435 1.8294,1.06824 0.73877,0.0166 1.6607,-0.41448 2.27589,-0.82386 1.16494,-0.77521 1.57213,-1.71833 2.06011,-2.99073"
     id="path4152"
     inkscape:connector-curvature="0"
     sodipodi:nodetypes="csssssssc" />
  <path
     style="fill:none;fill-rule:evenodd;stroke:#000000;stroke-width:1;stroke-linecap:butt;stroke-linejoin:miter;stroke-miterlimit:4;stroke-dasharray:none;stroke-opacity:1"
     d="m 602.02789,201.00122 c -0.0577,-0.40187 -0.21581,-1.31941 -0.67634,-1.73611 -0.65008,-0.58822 -1.67198,-0.86738 -2.53365,-0.70572 -0.93894,0.17615 -1.76296,0.92356 -2.29439,1.71742 -0.566,0.8455 -0.61474,1.94923 -0.75987,2.95628 -0.14186,0.98444 -0.18603,1.99087 -0.1034,2.98204 0.17483,2.09747 0.5947,3.03271 2.12159,4.97472 0.8279,1.09929 1.96085,1.89481 3.11224,2.60518 1.80369,1.13042 3.9824,1.39172 6.00962,1.16134 2.26373,-0.25725 4.1667,-1.79767 6.24862,-2.76955 0.91406,-0.4267 1.35418,0.33781 1.41797,1.57189 0,0 2.62659,-0.18863 3.93988,-0.28295 -0.20649,-0.84028 -0.48428,-1.69333 -0.7142,-2.48793 -0.46344,-1.24712 -1.17408,-1.86532 -2.72079,-2.07284"
     id="path4154-2"
     inkscape:connector-curvature="0"
     sodipodi:nodetypes="caaaaaaaasccsc" />
  <path
     style="fill:none;fill-rule:evenodd;stroke:#000000;stroke-width:1;stroke-linecap:butt;stroke-linejoin:miter;stroke-miterlimit:4;stroke-dasharray:none;stroke-opacity:1"
     d="m 602.68327,207.77658 c 1.90592,-1.12726 3.51585,-2.77855 5.63722,-3.50044 1.1444,-0.38944 2.37179,-0.43036 3.57873,-0.31925 1.32182,0.12169 2.65779,0.12187 3.95024,-0.3046 1.48366,-0.48956 2.81281,-1.32932 4.3629,-1.64397 1.29963,-0.26381 2.63903,0.12228 3.88786,-0.51079 1.55353,-0.78753 2.86746,-1.88755 4.30147,-2.83962"
     id="path4156-3"
     inkscape:connector-curvature="0"
     sodipodi:nodetypes="csssssc" />
  <path
     style="fill:none;fill-rule:evenodd;stroke:#000000;stroke-width:1;stroke-linecap:butt;stroke-linejoin:miter;stroke-miterlimit:4;stroke-dasharray:none;stroke-opacity:1"
     d="m 624.29844,199.97772 0.51943,1.18029"
     id="path4158-7"
     inkscape:connector-curvature="0"
     sodipodi:nodetypes="cc" />
  <path
     style="fill:none;fill-rule:evenodd;stroke:#000000;stroke-width:1;stroke-linecap:butt;stroke-linejoin:miter;stroke-miterlimit:4;stroke-dasharray:none;stroke-opacity:1"
     d="m 618.94964,201.05757 -0.13146,1.31118"
     id="path4160-5"
     inkscape:connector-curvature="0"
     sodipodi:nodetypes="cc" />
  <path
     style="fill:none;fill-rule:evenodd;stroke:#000000;stroke-width:1;stroke-linecap:butt;stroke-linejoin:miter;stroke-miterlimit:4;stroke-dasharray:none;stroke-opacity:1"
     d="m 614.04043,202.91731 -0.65945,1.09907"
     id="path4162-9"
     inkscape:connector-curvature="0"
     sodipodi:nodetypes="cc" />
  <path
     style="fill:none;fill-rule:evenodd;stroke:#000000;stroke-width:1;stroke-linecap:butt;stroke-linejoin:miter;stroke-miterlimit:4;stroke-dasharray:none;stroke-opacity:1"
     d="m 607.59249,203.21727 0.33397,1.15209"
     id="path4164-7-6"
     inkscape:connector-curvature="0"
     sodipodi:nodetypes="cc" />
  <path
     style="fill:none;fill-rule:evenodd;stroke:#000000;stroke-width:1;stroke-linecap:butt;stroke-linejoin:miter;stroke-miterlimit:4;stroke-dasharray:none;stroke-opacity:1"
     d="m 607.88557,205.61691 -2.05808,-0.0371"
     id="path4166-0"
     inkscape:connector-curvature="0"
     sodipodi:nodetypes="cc" />
  <path
     style="fill:none;fill-rule:evenodd;stroke:#000000;stroke-width:1;stroke-linecap:butt;stroke-linejoin:miter;stroke-miterlimit:4;stroke-dasharray:none;stroke-opacity:1"
     d="m 611.40261,204.71704 -1.58606,-0.7464"
     id="path4168-4"
     inkscape:connector-curvature="0"
     sodipodi:nodetypes="cc" />
  <path
     style="fill:none;fill-rule:evenodd;stroke:#000000;stroke-width:1;stroke-linecap:butt;stroke-linejoin:miter;stroke-miterlimit:4;stroke-dasharray:none;stroke-opacity:1"
     d="m 618.01447,203.58615 -1.32942,-0.19059"
     id="path4170-0"
     inkscape:connector-curvature="0"
     sodipodi:nodetypes="cc" />
  <path
     style="fill:none;fill-rule:evenodd;stroke:#000000;stroke-width:1;stroke-linecap:butt;stroke-linejoin:miter;stroke-miterlimit:4;stroke-dasharray:none;stroke-opacity:1"
     d="m 622.53996,205.49693 1.17679,0.053"
     id="path4172-5"
     inkscape:connector-curvature="0"
     sodipodi:nodetypes="cc" />
  <path
     style="fill:none;fill-rule:evenodd;stroke:#000000;stroke-width:1;stroke-linecap:butt;stroke-linejoin:miter;stroke-miterlimit:4;stroke-dasharray:none;stroke-opacity:1"
     d="m 621.95376,199.97772 -0.43961,-1.0765"
     id="path4174-4"
     inkscape:connector-curvature="0"
     sodipodi:nodetypes="cc" />
  <path
     style="fill:none;fill-rule:evenodd;stroke:#000000;stroke-width:1;stroke-linecap:butt;stroke-linejoin:miter;stroke-miterlimit:4;stroke-dasharray:none;stroke-opacity:1"
     d="m 611.10956,199.55779 c 0,0 -0.47635,-0.63523 -0.80603,-0.83987 -0.28283,-0.17556 -0.95253,-0.29997 -0.95253,-0.29997"
     id="path4176-2"
     inkscape:connector-curvature="0"
     sodipodi:nodetypes="csc" />
  <path
     style="fill:none;fill-rule:evenodd;stroke:#000000;stroke-width:1;stroke-linecap:butt;stroke-linejoin:miter;stroke-miterlimit:4;stroke-dasharray:none;stroke-opacity:1"
     d="m 617.24506,208.37726 -2.69173,-0.96061"
     id="path4178-2"
     inkscape:connector-curvature="0"
     sodipodi:nodetypes="cc" />
  <path
     style="font-size:33.2768px;font-family:'.Arial Hebrew Desk Interface';-inkscape-font-specification:'.Arial Hebrew Desk Interface, Normal';display:inline;fill:none;fill-rule:evenodd;stroke:#000000;stroke-width:1;stroke-dasharray:none;image-rendering:optimizeQuality;shape-rendering:geometricPrecision;text-rendering:geometricPrecision"
     d="M 634.00136,202.25069 A 21.750674,21.750674 0 0 1 612.25068,224.00135 21.750674,21.750674 0 0 1 590.5,202.25069 21.750674,21.750674 0 0 1 612.25068,180.5 a 21.750674,21.750674 0 0 1 21.75068,21.75069 z"
     id="C25.7"
     inkscape:label="C25.7" />
</svg>
