<?xml version="1.0" encoding="UTF-8" standalone="no"?>
<!-- Created with Inkscape (http://www.inkscape.org/) -->

<svg
   width="700"
   height="750"
   viewBox="0 0 700 750"
   id="svg6024"
   version="1.1"
   inkscape:version="1.3 (0e150ed, 2023-07-21)"
   sodipodi:docname="level3_C55.svg"
   xmlns:inkscape="http://www.inkscape.org/namespaces/inkscape"
   xmlns:sodipodi="http://sodipodi.sourceforge.net/DTD/sodipodi-0.dtd"
   xmlns="http://www.w3.org/2000/svg"
   xmlns:svg="http://www.w3.org/2000/svg"
   xmlns:rdf="http://www.w3.org/1999/02/22-rdf-syntax-ns#"
   xmlns:cc="http://creativecommons.org/ns#"
   xmlns:dc="http://purl.org/dc/elements/1.1/">
  <defs
     id="defs6026" />
  <sodipodi:namedview
     id="base"
     pagecolor="#ffffff"
     bordercolor="#666666"
     borderopacity="1.0"
     inkscape:pageopacity="0.0"
     inkscape:pageshadow="2"
     inkscape:zoom="0.63009584"
     inkscape:cx="196.00193"
     inkscape:cy="399.14563"
     inkscape:document-units="px"
     inkscape:current-layer="layer1"
     showgrid="false"
     inkscape:window-width="1440"
     inkscape:window-height="900"
     inkscape:window-x="0"
     inkscape:window-y="0"
     inkscape:window-maximized="0"
     inkscape:showpageshadow="2"
     inkscape:pagecheckerboard="0"
     inkscape:deskcolor="#d1d1d1"
     showguides="false" />
  <metadata
     id="metadata6029">
    <rdf:RDF>
      <cc:Work
         rdf:about="">
        <dc:format>image/svg+xml</dc:format>
        <dc:type
           rdf:resource="http://purl.org/dc/dcmitype/StillImage" />
      </cc:Work>
    </rdf:RDF>
  </metadata>
  <g
     inkscape:label="Laag 1"
     inkscape:groupmode="layer"
     id="layer1"
     transform="translate(0,10.629921)">
    <path
       style="fill:none;fill-rule:evenodd;stroke:#000000;stroke-width:0.840256;stroke-linecap:butt;stroke-linejoin:miter;stroke-miterlimit:4;stroke-dasharray:none;stroke-opacity:1"
       d="m 166.25822,184.41399 c 0,0 5.99836,-11.04902 10.33724,-15.48724 9.19143,-9.40186 20.70128,-16.45006 32.30393,-22.63519 17.51866,-9.33883 36.52119,-15.8281 55.56274,-21.44385 13.08153,-3.85801 26.55461,-6.41579 40.05687,-8.33928 15.18357,-2.16301 30.53656,-3.33544 45.87157,-3.57398 17.02987,-0.2649 34.18634,-0.0737 51.0402,2.38266 14.70971,2.14388 29.06102,6.41079 43.28727,10.72192 14.01999,4.24863 28.02638,8.79906 41.34901,14.89157 9.21184,4.21263 18.00648,9.35558 26.48921,14.89159 6.09043,3.97474 12.00448,8.27733 17.44413,13.10456 5.7932,4.60661 9.4238,9.30454 11.62942,16.0829 0,0 -28.50951,1.1586 -42.64119,2.97831 -9.56388,1.23153 -18.8395,4.33352 -28.42745,5.36096 -14.56643,1.56094 -29.29137,0.71159 -43.93334,1.19133 -20.67866,0.67754 -41.33385,2.43933 -62.02353,2.38265 -22.63444,-0.062 -45.24555,-1.60264 -67.83824,-2.97832 -15.30851,-0.93214 -30.54629,-2.97786 -45.87156,-3.57397 -14.41819,-0.56083 -28.89509,1.03133 -43.28728,0 -13.88967,-0.99532 -41.349,-5.95662 -41.349,-5.95662 z"
       id="3"
       inkscape:connector-curvature="0"
       inkscape:label="#path5952"
       sodipodi:nodetypes="csssssssssscsssssssc" />
    <path
       id="2"
       style="fill:none;fill-rule:evenodd;stroke:#000000;stroke-width:0.840256;stroke-linecap:butt;stroke-linejoin:miter;stroke-miterlimit:4;stroke-dasharray:none;stroke-opacity:1"
       d="m 543.74597,196.53481 0.45685,8.42392 c 0,0 -5.10989,4.84572 -7.30956,7.58155 -4.64989,5.78327 -8.23129,12.34977 -12.33484,18.53269 -5.49296,8.27638 -11.80396,16.06894 -16.44648,24.85063 -4.8912,9.25208 -8.26413,19.24098 -11.87801,29.06262 -3.87806,10.53963 -6.8466,21.39394 -10.50746,32.01097 -4.52595,13.12591 -8.19042,26.63694 -14.16223,39.17134 -5.71078,11.9865 -14.03684,22.5514 -20.55811,34.11697 -5.29905,9.39795 -11.60337,18.42657 -15.07593,28.6414 -2.01771,5.93527 -2.25208,12.3356 -3.19792,18.53269 -1.04709,6.86051 -3.41115,13.73111 -2.74109,20.63865 0.6438,6.63682 3.77527,12.82246 6.39586,18.95388 1.80626,4.22614 4.80155,7.90413 6.39584,12.21471 1.64918,4.45901 4.02751,9.21823 3.19793,13.89951 -0.2923,1.64942 -1.24122,3.46601 -2.74107,4.21198 -1.77699,0.88381 -4.11713,0.3659 -5.93902,-0.42121 -1.90141,-0.82147 -2.72502,-3.26755 -4.56845,-4.21197 -2.49023,-1.27579 -5.4353,-1.92208 -8.22324,-1.68478 -4.23457,0.36044 -8.37654,2.2246 -11.87801,4.63316 -5.78323,3.97811 -8.85292,10.99277 -14.16224,15.5843 -3.61109,3.12289 -7.47609,6.15467 -11.87802,8.00274 -2.57987,1.08311 -5.46771,2.17061 -8.22322,1.68479 -3.16859,-0.55865 -6.26277,-2.50317 -8.22324,-5.05437 -2.58957,-3.36986 -3.59965,-7.96515 -3.65477,-12.21471 -0.0528,-4.07279 2.55108,-7.77208 3.19793,-11.79352 0.44659,-2.77642 0.70145,-5.6225 0.45684,-8.42395 -0.35107,-4.02066 -3.1058,-7.77407 -2.74109,-11.79351 0.2766,-3.04835 3.29214,-5.38464 3.65479,-8.42395 0.42208,-3.53735 -1.08983,-7.04469 -1.82739,-10.52994 -0.38954,-1.84073 -1.41039,-3.59449 -1.37055,-5.47556 0.0341,-1.61018 1.29003,-3.02463 1.37055,-4.63315 0.28578,-5.70909 -2.92499,-11.13818 -3.19793,-16.8479 -0.31642,-6.61925 0.66146,-13.27282 1.82738,-19.79626 2.07135,-11.58945 6.19608,-22.71711 9.13694,-34.11698 4.26391,-16.52855 6.79382,-33.55596 12.33485,-49.70126 6.33318,-18.45344 14.9493,-36.08284 23.75602,-53.49204 4.15958,-8.22269 8.55704,-16.36564 13.70539,-24.00824 6.1895,-9.18815 13.03547,-17.98145 20.55809,-26.11423 7.59489,-8.21091 15.36571,-16.53682 24.66971,-22.74464 1.9528,-1.30295 4.15421,-2.25113 6.39584,-2.94839 4.72214,-1.46883 9.71387,-1.89885 14.6191,-2.52717 6.66942,-0.8543 13.39437,-1.20646 20.10124,-1.6848 7.15148,-0.51005 14.32249,-0.72381 21.47179,-1.26359 3.04988,-0.23027 9.13693,-0.84238 9.13693,-0.84238 z m -379.42599,0.98376 -2.58432,7.7436 c 0,0 6.0147,3.92104 8.39902,6.55229 5.67975,6.26795 8.76303,14.48237 13.56765,21.44386 3.66704,5.31322 8.08391,10.09215 11.6294,15.48724 2.38567,3.63022 4.63879,7.37421 6.46079,11.31759 5.57905,12.0748 9.39162,24.89794 13.56765,37.52677 4.23074,12.79427 6.86306,26.11353 11.62941,38.71807 2.55114,6.74645 5.59205,13.32446 9.0451,19.65687 7.10041,13.02117 17.0684,24.3651 23.90491,37.52675 4.94966,9.52908 9.36812,19.44633 12.27549,29.78314 2.23176,7.93475 3.50679,16.18783 3.87646,24.42217 0.28561,6.36191 0.0681,12.83986 -1.29215,19.06121 -0.90726,4.14958 -2.64128,8.10498 -4.52255,11.91325 -2.17268,4.39818 -6.4094,7.79092 -7.75293,12.50891 -1.35949,4.77406 -2.67625,10.71096 0,14.89158 1.78995,2.79612 5.76566,4.68688 9.04509,4.16964 3.76149,-0.59328 4.72455,-6.74408 8.39902,-7.74363 3.6149,-0.98334 7.61147,0.75015 10.98332,2.38266 3.96542,1.9199 6.82677,5.57141 10.20915,8.39454 5.66939,4.732 10.63988,10.40878 16.90333,14.32069 2.96226,1.85012 6.11186,3.93961 9.59377,4.21198 2.19796,0.17193 4.63886,-0.35303 6.39585,-1.68479 3.11449,-2.36073 4.66162,-6.4153 5.93899,-10.10873 1.11144,-3.21364 1.61991,-6.71749 1.37056,-10.10874 -0.32153,-4.37281 -3.26021,-8.26908 -3.65477,-12.63591 -0.40637,-4.49762 1.67554,-8.97268 1.37053,-13.47831 -0.26336,-3.89043 -2.71035,-7.47311 -2.74109,-11.37232 -0.0329,-4.17271 2.28144,-8.06728 2.74109,-12.21473 0.29384,-2.65135 -0.11541,-5.33766 0,-8.00274 0.30485,-7.03973 1.99719,-14.01558 1.82738,-21.05986 -0.13658,-5.6657 -1.20491,-11.28427 -2.28423,-16.84789 -4.71712,-24.31559 -10.6689,-48.45219 -18.27386,-72.02471 -5.60707,-17.37982 -12.60723,-34.31141 -20.10125,-50.96485 -5.10517,-11.34487 -10.48219,-22.61916 -16.90332,-33.27458 -5.58815,-9.27315 -11.41886,-18.55072 -18.73071,-26.53543 -6.60309,-7.21073 -14.20317,-13.60174 -22.38546,-18.95388 -6.67117,-4.3637 -13.77603,-8.45109 -21.47179,-10.52993 -11.34917,-3.06573 -23.46067,-1.56501 -35.17718,-2.52717 -7.09244,-0.58243 -21.25835,-1.96461 -21.25835,-1.96461 z"
       inkscape:label="#path5956"
       inkscape:connector-curvature="0"
       sodipodi:nodetypes="ccsssssssssssssssssssssssssssssssssssssssssscccsssssssssssssssssssssssssssssssssssssc" />
    <path
       id="1"
       style="fill:none;fill-rule:evenodd;stroke:#000000;stroke-width:0.840256;stroke-linecap:butt;stroke-linejoin:miter;stroke-miterlimit:4;stroke-dasharray:none;stroke-opacity:1"
       d="m 476.70413,203.44031 c 0,0 -9.3627,0.75888 -13.57287,2.41752 -6.03585,2.37788 -11.31559,6.36021 -16.79802,9.82845 -5.50806,3.48445 -11.36111,6.60074 -16.15198,11.01976 -4.40885,4.06664 -6.95799,9.86682 -11.30636,13.99807 -3.18408,3.02509 -8.93419,3.70505 -10.6603,7.74362 -0.31499,0.73699 0.0368,1.63404 0.32304,2.38265 0.34272,0.89622 1.40487,1.44649 1.6152,2.38266 0.15415,0.68613 0.17452,1.58787 -0.32305,2.08482 -0.925,0.92383 -2.58622,0.38504 -3.87646,0.59567 -1.72559,0.2817 -3.80673,-0.20297 -5.16864,0.89349 -0.66785,0.53768 -0.68043,1.5753 -0.96911,2.38264 -0.24496,0.68507 -0.53717,1.36547 -0.64608,2.08482 -0.14861,0.98158 0.67457,2.24992 0,2.97831 -0.88059,0.95084 -2.66629,-0.16584 -3.87647,0.29784 -0.76081,0.2915 -1.45737,0.83143 -1.93823,1.48914 -0.37383,0.51132 -0.46756,1.17928 -0.64608,1.78701 -0.27265,0.92819 -0.75453,1.86808 -0.64607,2.82939 0.0556,0.49282 0.5595,0.85191 0.64607,1.34024 0.0958,0.54025 0.0329,1.12499 -0.16152,1.63807 -0.19533,0.51555 -0.56816,0.96188 -0.96913,1.34025 -0.60391,0.56988 -1.64191,0.64752 -2.09975,1.34023 -0.36073,0.54579 -0.26902,1.28392 -0.32304,1.93591 -0.041,0.49469 0.0158,0.99303 0,1.48917 -0.0269,0.84514 0.0958,1.7261 -0.16152,2.53155 -0.12443,0.3894 -0.36891,0.74193 -0.64608,1.04241 -0.2268,0.24587 -0.63705,0.30791 -0.8076,0.59567 -0.40865,0.68948 -0.48455,1.78699 -0.32304,2.38265 0.16152,0.59566 0.37649,0.98405 0.32304,1.48916 -0.0688,0.65003 -0.35506,1.31528 -0.80758,1.78698 -0.45892,0.47838 -1.42887,0.32919 -1.77673,0.8935 -0.33862,0.54932 0,1.29061 0,1.93591 0,0.74458 -0.20724,1.51858 0,2.23373 0.19619,0.67702 1.02553,1.08999 1.13063,1.78699 0.092,0.61027 -0.21864,1.23003 -0.48454,1.78698 -0.23752,0.49752 -0.79935,0.81573 -0.96912,1.34025 -0.13757,0.42503 -0.0557,0.89697 0,1.34023 0.10853,0.86412 0.40039,1.69604 0.64608,2.53157 0.19192,0.65266 0.74329,1.26259 0.64608,1.9359 -0.12106,0.8385 -0.7779,1.57387 -1.45368,2.08482 -0.36353,0.27486 -0.9263,0.17502 -1.29217,0.44675 -0.44259,0.32871 -0.71137,0.8529 -0.96912,1.34024 -0.37016,0.69989 -0.49363,1.5069 -0.80759,2.23374 -0.33092,0.76611 -0.9369,1.422 -1.13063,2.23373 -0.10371,0.43454 -0.11792,0.90934 0,1.34024 0.16746,0.61193 0.68078,1.07295 0.96912,1.63807 0.24592,0.48198 0.5361,0.95936 0.64608,1.48916 0.13116,0.63183 0.24609,1.33937 0,1.9359 -0.32033,0.77651 -1.14997,1.22777 -1.77673,1.787 -0.71684,0.63961 -1.54333,1.14862 -2.26128,1.78698 -0.6824,0.60675 -1.58852,1.09237 -1.93822,1.9359 -0.26614,0.64196 -0.0741,1.39385 0,2.08483 0.1083,1.01007 0.5834,1.96438 0.64608,2.9783 0.0369,0.59695 0.14561,1.27378 -0.16153,1.78699 -0.46347,0.77443 -1.79088,0.71892 -2.26126,1.48917 -0.52045,0.85224 -0.36352,1.98054 -0.32305,2.97831 0.0348,0.85847 0.48456,1.9359 0.48456,2.53157 0,0.59566 -0.91053,0.9541 -1.29215,1.48915 -0.49949,0.7003 -1.06918,1.40296 -1.29216,2.23374 -0.12868,0.47942 0.0282,0.99358 0,1.48916 -0.0539,0.94772 -0.32305,2.23373 -0.32305,2.82939 0,1.14169 0.0441,2.28423 0,3.42506 -0.0269,0.6965 -0.13457,1.38833 -0.16151,2.08483 -0.0269,0.69442 0.0441,1.39128 0,2.08482 -0.0539,0.84898 0.0245,1.75508 -0.32304,2.53156 -0.26846,0.59987 -0.95946,0.92239 -1.29216,1.48916 -0.48097,0.81936 -0.70631,1.76745 -0.96912,2.68048 -0.281,0.97622 -0.53777,1.96824 -0.64607,2.97831 -0.0582,0.54292 0.16025,1.1161 0,1.63808 -0.2816,0.91725 -1.12585,1.5573 -1.61519,2.38265 -0.54076,0.91207 -1.17514,1.8063 -1.45369,2.82939 -0.24817,0.91149 -0.1346,1.88511 -0.16153,2.8294 -0.017,0.59542 -0.0679,1.19521 0,1.78699 0.0813,0.70882 0.35264,1.38366 0.48458,2.08482 0.13913,0.73935 0.26905,1.48335 0.32303,2.23373 0.0285,0.39609 0.0594,0.79869 0,1.19133 -0.92571,6.11445 -5.49167,17.72097 -5.49167,17.72097 0,0 -1.76064,5.70346 -2.26127,8.63712 -0.55297,3.24034 -0.62344,6.5464 -0.8076,9.82842 -0.40063,7.13997 -1.35378,14.32777 -0.64608,21.44386 0.21182,2.12989 0.61496,4.28525 1.45368,6.25447 0.46415,1.08976 1.32321,1.96601 1.93823,2.97831 0.68113,1.12113 1.60419,2.15649 1.93824,3.42506 0.22753,0.86403 -0.0315,1.78754 0,2.68047 0.0808,2.28765 -0.15634,4.65259 0.48456,6.85012 0.3162,1.0842 1.15862,1.94536 1.6152,2.97832 0.59507,1.34627 0.94823,2.78722 1.45368,4.16964 0.31028,0.84863 0.96911,1.9359 0.96911,2.53156 0,0.59567 0.0981,1.88687 0.16153,2.82941 0.0936,1.3909 0.21124,2.78008 0.32303,4.16964 0.0519,0.64546 0.038,1.30025 0.16151,1.93591 0.0694,0.3571 0.32304,1.04241 0.32304,1.04241 0,0 0.88623,-1.70599 1.91702,-3.58333 0.70867,-1.29068 1.62988,-2.61435 1.79794,-3.71355 0.60749,-3.97335 -0.89626,-8.06775 -1.89563,-12.03297 -0.40013,-1.58758 -1.22614,-3.00985 -1.14787,-4.61727 0.0707,-1.45297 1.31036,-2.75852 1.37055,-4.21197 0.24364,-5.8837 -2.93027,-11.49171 -3.19793,-17.37437 -0.30439,-6.6898 0.62597,-13.41881 1.82738,-20.00688 2.02527,-11.10578 6.56853,-21.62383 9.02272,-32.64277 3.47728,-15.61245 6.51557,-31.33848 11.42118,-46.85819 0.48968,-1.54917 3.00515,-9.40974 3.52967,-10.94747 3.69971,-10.84645 6.11971,-14.9193 10.84145,-25.36145 3.32277,-7.34832 7.22917,-14.62006 10.86963,-21.81628 3.9902,-7.88757 7.98589,-15.82223 12.90591,-23.16586 6.19256,-9.24303 12.8039,-18.36444 20.78652,-26.11422 4.49706,-4.36589 8.46986,-9.21126 13.06536,-13.5233 4.90807,-4.60533 10.61455,-9.3777 16.40162,-11.79277 z m -255.94862,-1.42996 c 0,0 9.8356,0.70377 14.63309,1.76267 5.63936,1.24472 11.14796,3.13062 16.475,5.36096 3.58042,1.49906 7.24523,3.01451 10.33726,5.36097 4.65153,3.52992 7.94445,8.56022 11.95245,12.80675 4.71002,4.99033 9.17617,10.23211 14.21373,14.89158 2.65219,2.45313 5.98501,4.16227 8.39902,6.85012 1.18719,1.32187 2.18148,2.84577 2.90735,4.46746 0.33619,0.7511 0.0589,1.80618 0.64608,2.38267 0.87156,0.85562 2.43845,0.395 3.55344,0.89349 1.77993,0.79577 3.79212,1.63551 4.84559,3.27613 0.70698,1.10101 0.18502,2.64728 0.64607,3.87181 0.28809,0.76516 0.68893,1.53294 1.29217,2.08481 0.97822,0.89492 2.60152,0.86414 3.55342,1.78701 1.13519,1.10057 2.03806,2.60436 2.26128,4.16963 0.14342,1.00569 -0.44801,1.98195 -0.64608,2.97832 -0.23604,1.1874 -1.08208,2.44457 -0.64608,3.57397 0.29342,0.76007 1.33077,0.94619 1.93823,1.48915 0.92537,0.82711 1.9998,1.58562 2.58432,2.68049 0.47843,0.89615 0.63648,1.9625 0.64608,2.97832 0.0105,1.11303 -0.7358,2.16668 -0.64608,3.27613 0.0674,0.83354 0.31896,1.72642 0.87462,2.35138 0.51158,0.57538 1.44503,0.58421 2.0558,1.05298 0.4504,0.34568 0.88283,0.75851 1.14213,1.2636 0.32806,0.63903 0.38026,1.39175 0.45684,2.10598 0.0599,0.5584 0.2254,1.17041 0,1.68479 -0.29096,0.664 -1.19778,0.87037 -1.59897,1.47419 -0.49572,0.74609 -0.75909,1.64487 -0.91369,2.52719 -0.12116,0.69146 -0.20602,1.4349 0,2.10598 0.19912,0.6486 0.90448,1.0493 1.14212,1.6848 0.22289,0.59606 0.13372,1.26611 0.22843,1.89539 0.0637,0.42325 0.0413,0.8786 0.22841,1.26357 0.45123,0.92859 1.6893,1.35142 2.05581,2.31659 0.29905,0.78753 0.035,1.68552 0,2.52719 -0.0381,0.91497 0.0335,1.86028 -0.22842,2.73778 -0.36547,1.22435 -1.87848,2.09286 -1.82739,3.36957 0.0335,0.83689 0.79182,1.50052 1.37054,2.10599 0.58265,0.60958 1.48381,0.85462 2.05582,1.47419 0.50037,0.54197 0.83759,1.22354 1.14211,1.89538 0.51713,1.14092 0.6674,2.42098 1.14212,3.58019 0.44726,1.09216 1.09737,2.09066 1.59895,3.15897 0.32522,0.69267 0.90083,1.34088 0.91371,2.10599 0.014,0.82997 -0.83639,1.4901 -0.91371,2.31658 -0.11318,1.20978 -0.10055,2.65344 0.68528,3.58018 0.26243,0.30948 0.75328,0.30519 1.14211,0.42119 0.59901,0.1787 1.35492,0.0119 1.82739,0.42121 0.7966,0.6901 0.919,1.91831 1.14211,2.94838 0.2828,1.30568 0.19034,2.66594 0.22843,4.00136 0.03,1.05257 0.0569,2.10753 0,3.15899 -0.0381,0.70508 -0.12749,1.40712 -0.22843,2.10598 -0.12237,0.84726 -0.54548,1.67574 -0.45684,2.52719 0.0628,0.60301 0.42615,1.13667 0.68527,1.68478 0.27305,0.57758 0.46384,1.23116 0.9137,1.68479 0.61271,0.61785 1.76489,0.56542 2.28423,1.26358 0.21437,0.28818 0.19013,0.69588 0.22842,1.053 0.0673,0.6282 0,1.26359 0,1.89539 v 1.4742 c 0,0.84239 0.16154,2.73072 0.91368,3.79077 0.5244,0.73907 1.73647,0.75227 2.28425,1.47419 0.62193,0.81965 0.75966,1.93106 0.91368,2.94837 0.0736,0.48586 0.0736,0.98833 0,1.47419 -0.077,0.50866 -0.45684,0.63181 -0.45684,1.4742 0,0.84239 -1.57215,2.41144 -1.82739,3.79077 -0.16663,0.90048 -0.45683,1.89539 0.22843,2.73778 0.68526,0.84239 1.02195,1.34441 1.37053,2.10599 0.4562,0.99672 0.65199,2.09453 0.91371,3.15898 0.27367,1.11303 0.41794,2.255 0.68526,3.36958 0.79846,3.32914 1.76381,6.61702 2.74108,9.89813 0.71515,2.40105 1.89894,4.68486 2.28423,7.16035 0.17274,1.10983 0.13252,2.25423 0,3.36958 -0.15335,1.2907 -0.82695,2.49389 -0.9137,3.79077 -0.19783,2.95746 0.67462,5.89073 0.9137,8.84514 0.41973,5.18673 1.41809,10.40512 0.9137,15.5843 -0.29516,3.03078 -1.13052,6.02706 -2.28425,8.84515 -0.9218,2.25158 -2.8273,4.03003 -3.65476,6.31796 -0.92046,2.54508 -1.14129,5.30605 -1.37054,8.00274 -0.19028,2.23831 0.29655,4.51243 0,6.73915 -0.38407,2.88392 -1.37053,6.73915 -2.28424,8.42394 -0.91369,1.68479 -1.7016,10.9409 -1.7016,10.9409 0,0 0.27673,-4.96739 10e-4,-6.70728 -0.58062,-3.66532 -2.44757,-5.57714 -2.41113,-9.28798 0.0412,-4.19912 2.36251,-8.14971 2.8553,-12.32001 0.37073,-3.13738 -0.26449,-6.32131 -0.11421,-9.47694 0.21998,-4.61939 1.10537,-9.18517 1.48474,-13.79421 0.16439,-1.99719 0.43949,-4.00045 0.34264,-6.00205 -0.18025,-3.7251 -0.69144,-6.1397 -1.05678,-9.85123 -0.17552,-1.78308 -0.46565,-4.83349 -0.88482,-6.57547 -1.88713,-7.84255 -3.21922,-15.47496 -5.24228,-23.2858 -1.5782,-6.09328 -3.0038,-12.41723 -4.54346,-18.52037 -2.56081,-10.15093 -8.83075,-30.32385 -8.83075,-30.32385 l -7.30012,-20.54911 -8.64545,-21.02162 c 0,0 -3.41773,-8.1459 -4.26989,-10.13122 -4.81249,-11.21193 -16.56068,-32.64278 -16.56068,-32.64278 0,0 -11.57983,-18.14509 -18.84493,-26.00894 -4.11743,-4.45676 -8.43788,-8.84404 -13.19712,-12.6364 -3.08991,-2.46217 -6.53859,-4.42165 -9.64519,-6.84397 -5.56945,-4.34269 -18.74458,-10.48259 -21.12915,-10.42463 z M 236.65407,190.346 c 0,0 12.35536,3.5191 18.36493,5.7676 5.91409,2.21278 11.40883,5.471 17.36016,7.58156 2.97826,1.0562 5.9833,2.72769 9.13693,2.52717 1.81259,-0.11525 3.21015,-2.16873 5.02532,-2.10598 1.87387,0.0648 3.43724,1.53035 5.0253,2.52717 1.95181,1.22514 3.17822,4.2609 5.48216,4.21198 2.18518,-0.0464 2.872,-4.58674 5.02531,-4.21198 2.08238,0.36241 1.36479,4.42332 3.19793,5.47558 1.3207,0.75811 3.04815,0.0873 4.56847,0 1.2243,-0.0703 2.50429,-0.84578 3.65476,-0.42121 1.25892,0.4646 1.48513,2.47584 2.74108,2.94839 1.28946,0.48516 2.7891,-0.0351 4.11162,-0.42121 1.79987,-0.52541 3.17601,-2.83654 5.02531,-2.52718 1.93514,0.32372 2.33692,3.37532 4.11162,4.21198 1.52048,0.71681 3.36976,0.71248 5.02531,0.42119 1.32117,-0.23246 2.6759,-0.76753 3.65477,-1.68478 0.69927,-0.65525 0.30396,-2.38196 1.17753,-2.77592 1.13966,-0.51397 2.58775,-0.24974 3.81191,0.004 1.51625,0.31437 3.26673,1.25258 4.51775,2.16515 1.13634,0.82892 1.81178,1.68432 2.90275,2.05503 1.29767,0.44095 2.90443,0.7812 4.2744,0.7418 2.43955,-0.0702 4.63853,-0.22447 7.07301,-0.39661 1.67679,-0.11856 3.41535,-0.88453 5.02398,-1.37233 0.8327,-0.25253 1.4483,-0.99764 2.12452,-1.54525 0.72229,-0.58492 1.10693,-1.52578 1.98711,-1.82433 1.32486,-0.44938 2.9126,0.80103 4.25351,1.2 1.09858,0.32687 1.97441,0.52675 3.05603,0.90599 1.80405,0.63254 3.74174,1.42309 5.65225,1.49154 1.24939,0.0448 2.32118,-0.19164 3.48466,-0.64914 1.30852,-0.51453 1.90548,-0.97254 3.07809,-1.74839 1.7499,-1.1578 3.71931,-4.114 5.80552,-4.33842 1.33377,-0.14348 1.73063,1.48921 3.02895,1.8267 1.77382,0.46109 4.40963,1.02932 6.18413,0.57084 1.23578,-0.31929 1.09414,-1.44853 2.27173,-1.94086 1.86734,-0.78071 4.56163,-1.54733 6.58553,-1.53023 1.87524,0.0158 3.61212,1.40389 5.48217,1.26359 2.28592,-0.1715 4.25615,-1.70466 6.39584,-2.52718 5.61461,-2.15832 16.90333,-6.31796 16.90333,-6.31796 l 19.63792,-5.93606 c 0,0 -24.47863,0.30432 -51.075,1.204 -14.46543,0.48932 -30.52042,1.47558 -41.38152,1.72099 -10.71426,0.2421 -21.19187,-0.22969 -32.00812,-0.8169 -14.63131,-0.79433 -27.02376,-1.20018 -41.64697,-2.13182 -13.81529,-0.88017 -28.282,-2.87091 -42.11518,-3.40014 -5.38971,-0.20619 -17.99681,-0.19844 -17.99681,-0.19844 z"
       inkscape:label="#path5963"
       inkscape:connector-curvature="0"
       sodipodi:nodetypes="cssssssssssssssssssssssssssssssssssssssssssssssssssssssssssssssssssssssssssscsssssssssssssscsssssssssssssssccssssssssssssssssssssssssssssssssssssssssssssssssssssssssssssssssssssssssssssscsssssssssscccscsssccsssssssssssssssssssssssssssssssssssssccsssssccs" />
    <path
       style="fill:none;fill-rule:evenodd;stroke:#000000;stroke-width:0.840256;stroke-linecap:butt;stroke-linejoin:miter;stroke-miterlimit:4;stroke-dasharray:none;stroke-opacity:1"
       d="m 262.9739,506.69966 c 0,0 -0.65056,8.19179 0.19607,12.17895 0.75072,3.53548 2.06163,7.00066 3.87649,10.12627 2.90031,4.99502 7.56168,8.74899 10.98333,13.40242 2.32253,3.15863 4.83794,6.25948 6.46077,9.82844 1.49316,3.28378 2.2475,6.87764 2.90736,10.42409 2.26225,12.15854 2.77139,24.58862 3.55342,36.93108 1.11167,17.54512 1.61522,52.71617 1.61522,52.71617 v 0"
       id="path5968"
       inkscape:connector-curvature="0"
       sodipodi:nodetypes="csssssssc" />
    <path
       style="fill:none;fill-rule:evenodd;stroke:#000000;stroke-width:0.840256;stroke-linecap:butt;stroke-linejoin:miter;stroke-miterlimit:4;stroke-dasharray:none;stroke-opacity:1"
       d="m 445.69403,504.26507 c 0,0 -0.36545,7.83156 -1.29215,11.61544 -0.70913,2.89546 -1.99622,5.62572 -3.2304,8.33927 -1.53248,3.36941 -2.97273,6.84858 -5.16861,9.82844 -2.16684,2.94043 -5.52452,4.84958 -7.75296,7.74361 -1.96145,2.54728 -3.48597,5.42597 -4.84559,8.33928 -1.87507,4.01778 -3.60021,8.17212 -4.52254,12.50892 -1.24235,5.84153 -0.81164,11.91706 -1.29217,17.86988 -0.58544,7.25237 -1.66236,14.47094 -1.93822,21.74168 -0.62487,16.46956 0.64607,49.44003 0.64607,49.44003 v 0"
       id="path5970"
       inkscape:connector-curvature="0"
       sodipodi:nodetypes="csssssssssc" />
    <path
       style="fill:none;fill-rule:evenodd;stroke:#000000;stroke-width:0.840256;stroke-linecap:butt;stroke-linejoin:miter;stroke-miterlimit:4;stroke-dasharray:none;stroke-opacity:1"
       d="m 537.10771,176.0822 c 0,0 18.80947,-3.3764 27.19634,-5.66162 7.78409,-2.12098 15.43761,-4.79951 22.84233,-8.00275 6.14396,-2.65784 17.81701,-9.26634 17.81701,-9.26634"
       id="path5972"
       inkscape:connector-curvature="0"
       sodipodi:nodetypes="cssc" />
    <path
       style="fill:none;fill-rule:evenodd;stroke:#000000;stroke-width:0.840256;stroke-linecap:butt;stroke-linejoin:miter;stroke-miterlimit:4;stroke-dasharray:none;stroke-opacity:1"
       d="m 541.62981,185.00965 c 1.47774,0.19703 15.66129,-3.47757 22.67424,-5.74394 7.63444,-2.46722 15.15601,-5.36568 22.38548,-8.84513 7.11866,-3.42612 20.5581,-11.79352 20.5581,-11.79352"
       id="path5974"
       inkscape:connector-curvature="0"
       sodipodi:nodetypes="cssc" />
    <path
       style="fill:none;fill-rule:evenodd;stroke:#000000;stroke-width:0.840256;stroke-linecap:butt;stroke-linejoin:miter;stroke-miterlimit:4;stroke-dasharray:none;stroke-opacity:1"
       d="m 543.74597,196.53481 21.47177,-5.05439 31.06557,-13.8995 17.36017,-9.26633"
       id="path5976"
       inkscape:connector-curvature="0"
       sodipodi:nodetypes="cccc" />
    <path
       style="fill:none;fill-rule:evenodd;stroke:#000000;stroke-width:0.840256;stroke-linecap:butt;stroke-linejoin:miter;stroke-miterlimit:4;stroke-dasharray:none;stroke-opacity:1"
       d="m 544.20282,204.95873 18.27385,-5.05436 22.84233,-9.26634 31.06555,-15.58428"
       id="path5978"
       inkscape:connector-curvature="0"
       sodipodi:nodetypes="cccc" />
    <path
       style="fill:none;fill-rule:evenodd;stroke:#000000;stroke-width:0.840256;stroke-linecap:butt;stroke-linejoin:miter;stroke-miterlimit:4;stroke-dasharray:none;stroke-opacity:1"
       d="m 170.75488,176.80754 c 0,0 -8.40509,-1.66757 -12.58733,-2.59618 -4.73716,-1.05183 -9.50305,-2.01352 -14.16224,-3.36959 -4.95063,-1.4409 -9.75742,-3.33706 -14.61908,-5.05437 -3.51086,-1.24016 -10.50748,-3.79078 -10.50748,-3.79078"
       id="path5980"
       inkscape:connector-curvature="0"
       sodipodi:nodetypes="csssc" />
    <path
       style="fill:none;fill-rule:evenodd;stroke:#000000;stroke-width:0.840256;stroke-linecap:butt;stroke-linejoin:miter;stroke-miterlimit:4;stroke-dasharray:none;stroke-opacity:1"
       d="m 161.73566,205.26217 c 0,0 -10.32086,-2.63276 -15.44612,-4.0942 -4.77656,-1.36201 -9.60839,-2.64997 -14.16224,-4.63316 -4.78666,-2.08458 -9.02603,-5.26616 -13.70539,-7.58156 -3.13031,-1.54891 -9.59379,-4.21197 -9.59379,-4.21197"
       id="path5982"
       inkscape:connector-curvature="0"
       sodipodi:nodetypes="csssc" />
    <path
       style="fill:none;fill-rule:evenodd;stroke:#000000;stroke-width:0.840256;stroke-linecap:butt;stroke-linejoin:miter;stroke-miterlimit:4;stroke-dasharray:none;stroke-opacity:1"
       d="m 117.05136,167.8934 c 0,0 7.87555,3.74701 11.87802,5.47555 4.82388,2.08329 9.65691,4.16852 14.61908,5.89676 3.74844,1.30552 7.54017,2.53702 11.42116,3.36958 4.05748,0.87042 11.2886,1.7787 11.2886,1.7787"
       id="path5984"
       inkscape:connector-curvature="0"
       sodipodi:nodetypes="csssc" />
    <path
       style="fill:none;fill-rule:evenodd;stroke:#000000;stroke-width:0.840256;stroke-linecap:butt;stroke-linejoin:miter;stroke-miterlimit:4;stroke-dasharray:none;stroke-opacity:1"
       d="m 115.68082,179.26571 c 0,0 7.26709,3.4649 10.96432,5.05437 4.51961,1.94302 9.05784,3.86236 13.7054,5.47556 4.20129,1.4583 8.5342,2.50574 12.79169,3.79076 4.11792,1.2429 11.17775,3.93217 11.17775,3.93217"
       id="path5986"
       inkscape:connector-curvature="0"
       sodipodi:nodetypes="csssc" />
    <path
       style="opacity:1;fill:none;fill-rule:evenodd;stroke:#000000;stroke-width:0.672208px;stroke-linecap:butt;stroke-linejoin:miter;stroke-opacity:1"
       d="m 283.55913,216.43712 c -2.93211,1.18809 -6.14805,1.56869 -9.08688,2.74005 -1.57452,0.62757 -4.97508,2.73042 -4.97508,2.73042 0,0 10.79695,12.17572 16.61054,17.92947 1.72198,1.70426 3.52877,3.38472 5.40898,4.92503 1.49656,1.22602 3.20744,2.08243 4.5054,3.50862 1.40896,1.54815 2.68261,3.39119 3.65132,5.24015 0.38693,0.73854 0.0195,1.83264 0.64608,2.38267 0.7239,0.63546 1.79917,0.5155 2.8424,0.69178 0.85276,0.1441 1.66956,0.59102 2.37654,0.93765 1.03504,0.50748 2.14885,1.0734 2.79832,2.02578 0.89968,1.31929 0.81226,3.07559 1.12831,4.59404 0.15037,0.72244 0.65349,1.37215 1.1917,1.87699 1.1036,1.03519 2.89181,1.05656 3.9206,2.16613 1.01868,1.09867 1.59911,2.61337 1.8941,3.79051 0.50734,2.02452 -1.99653,4.58761 -1.29216,6.55229 0.24308,0.67803 0.89286,0.80026 1.49032,1.17441 1.24516,0.77976 2.30187,1.68371 3.03223,2.99523 0.68632,1.23244 0.73098,2.60815 0.48579,3.99733 -0.15789,0.89456 -0.48579,1.34874 -0.48579,2.25712 0,0.90838 0.61237,2.17504 0.87462,2.35138 0.64371,0.43286 2.27943,1.01572 2.97799,1.96095 0.8384,1.13446 0.67678,2.46161 0.67678,4.1464 0,0.79824 -1.11754,0.83746 -1.59897,1.47419 -0.75504,0.99859 -1.18331,3.65381 -1.03035,4.00727 0,0 5.66579,2.89791 8.65373,3.96588 2.53939,0.90765 5.1449,1.75452 7.82483,2.05504 2.25883,0.2533 4.54248,-0.19028 6.81515,-0.22834 2.35554,-0.0394 4.71292,0.0747 7.0676,0 4.8031,-0.1523 9.62624,-0.26319 14.38757,-0.91335 2.55603,-0.34902 5.05842,-1.01956 7.5724,-1.59836 2.45071,-0.56424 4.98987,-0.88074 7.32,-1.82671 1.26255,-0.51256 3.70963,-2.03404 3.70963,-2.03404 0,0 -0.65838,-1.88806 -0.32009,-2.78728 0.2748,-0.73047 0.99388,-1.13001 1.2175,-1.87774 0.15042,-0.50295 0.40053,-0.75093 0.23616,-1.24949 -0.21114,-0.64044 -0.98546,-1.12846 -1.13063,-1.78699 -0.24918,-1.13037 0,-2.23373 0.008,-3.6666 0.002,-0.2835 -0.19752,-0.29237 -0.008,-0.50304 0.43697,-0.48522 1.61165,-0.63717 2.06036,-1.11155 0.39655,-0.41924 0.48551,-0.99314 0.52395,-1.56893 0.0424,-0.63513 -0.33708,-1.26595 -0.34547,-1.90244 -0.009,-0.71523 -0.15097,-1.70522 0.44621,-2.09897 0.70686,-0.46607 1.18691,-0.9486 1.35294,-1.50848 0.746,-2.5157 -0.43458,-4.00141 0.48456,-5.95663 0.42189,-0.89745 1.68015,-0.8517 2.35686,-1.5766 0.54552,-0.58437 0.88564,-1.29997 0.91493,-2.09885 0.026,-0.71057 -0.58968,-1.22891 -0.64721,-1.93763 -0.12651,-1.55831 0.60582,-2.8751 1.2519,-4.66211 0.31212,-0.86331 1.37569,-1.13366 2.22853,-1.47334 1.14295,-0.45523 2.75009,0.58889 3.58617,-0.31364 0.73261,-0.79084 -0.39624,-1.97575 0,-2.97831 0.3054,-0.77272 0.65233,-2.58548 1.61519,-4.46746 0.4773,-0.93293 1.56532,-0.70444 2.7063,-0.7643 2.46234,-0.12919 5.45542,-0.25411 6.3388,-0.72486 0.73887,-0.39374 0.6627,-1.31957 0.32305,-2.08482 -0.46026,-1.03701 -1.15494,-1.34565 -1.6152,-2.38266 -0.27789,-0.62611 -0.63629,-1.77346 -0.32304,-2.38265 2.0341,-3.95584 7.41715,-4.69924 10.6603,-7.74362 2.17786,-2.04438 4.67271,-5.91825 6.95748,-8.89814 2.29764,-2.99667 4.3791,-5.09365 4.3791,-5.09365 0,0 -1.17841,-3.40482 -2.27172,-4.79509 -1.27133,-1.61664 -3.97909,-1.99424 -4.79586,-3.88175 -0.45464,-1.05064 0.49741,-2.30681 0.25241,-3.42507 -0.22334,-1.0194 -1.10287,-1.78107 -1.51447,-2.74005 -0.44074,-1.02687 -0.13903,-2.49622 -1.00966,-3.19673 -0.3291,-0.2648 -1.23994,0.12245 -1.65756,0.0591 -1.61639,-0.24534 -2.76582,-1.1668 -4.40037,-1.20077 -1.57884,-0.0328 -3.13248,0.43733 -4.66965,0.79917 -0.76988,0.18123 -1.5776,0.30588 -2.27172,0.68503 -0.87408,0.47745 -1.32247,1.63942 -2.27173,1.94086 -1.97305,0.62655 -4.21737,0.0752 -6.18413,-0.57084 -1.12017,-0.36794 -1.85135,-1.88509 -3.02895,-1.8267 -2.41286,0.11964 -3.77687,3.02663 -5.80552,4.33842 -1.25219,0.80971 -2.48613,1.7341 -3.91241,2.1692 -0.84813,0.25873 -1.76732,0.30923 -2.65034,0.22833 -2.99821,-0.27468 -5.80827,-1.58842 -8.70828,-2.39753 -1.3475,-0.37595 -2.66863,-1.42497 -4.03861,-1.14169 -1.59374,0.32955 -2.27408,2.48083 -3.78621,3.08255 -5.2522,2.08999 -11.4652,2.76887 -16.91171,1.25586 -1.14226,-0.31731 -1.82784,-1.555 -2.90275,-2.05503 -2.60147,-1.21015 -5.79664,-3.51676 -8.32966,-2.16922 -0.78354,0.41684 -0.21707,1.50409 -0.79739,2.1756 -0.9632,1.11457 -2.54771,2.13556 -3.99846,2.39116 -1.67242,0.29465 -3.52181,0.18857 -5.06176,-0.52725 -1.69759,-0.78909 -2.26068,-3.93178 -4.11162,-4.21198 -1.69696,-0.2569 -2.69131,1.89934 -4.70938,2.45584 -1.39738,0.38534 -2.99947,1.03147 -4.42755,0.49255 -1.18828,-0.44843 -1.57295,-2.44982 -2.74108,-2.94839 -0.95881,-0.40923 -1.70211,0.12601 -2.75749,0.27297 -1.84458,0.25686 -3.88761,1.05579 -5.46574,0.14824 -1.79195,-1.03052 -1.16206,-5.11738 -3.19793,-5.47558 -2.06719,-0.36371 -2.94123,3.9627 -5.02531,4.21198 -0.71291,0.0853 -1.87697,-0.69126 -1.87697,-0.69126 -2.26467,1.81246 -7.16403,4.47025 -11.61277,6.27288 z"
       id="C55"
       inkscape:connector-curvature="0"
       inkscape:label="C55"
       sodipodi:nodetypes="sscssssssssssssssssssssscssssssscssssssssssssssssssssssssssscsssssssssssssssssssssssssssssssscss" />
  </g>
</svg>
