<?xml version="1.0" encoding="UTF-8" standalone="no"?>
<!-- Created with Inkscape (http://www.inkscape.org/) -->

<svg
   id="svg4136"
   version="1.1"
   inkscape:version="1.2.2 (732a01da63, 2022-12-09)"
   width="700"
   height="750"
   viewBox="0 0 700 750"
   sodipodi:docname="level3_C18.svg"
   xmlns:inkscape="http://www.inkscape.org/namespaces/inkscape"
   xmlns:sodipodi="http://sodipodi.sourceforge.net/DTD/sodipodi-0.dtd"
   xmlns:xlink="http://www.w3.org/1999/xlink"
   xmlns="http://www.w3.org/2000/svg"
   xmlns:svg="http://www.w3.org/2000/svg"
   xmlns:rdf="http://www.w3.org/1999/02/22-rdf-syntax-ns#"
   xmlns:cc="http://creativecommons.org/ns#"
   xmlns:dc="http://purl.org/dc/elements/1.1/">
  <metadata
     id="metadata4142">
    <rdf:RDF>
      <cc:Work
         rdf:about="">
        <dc:format>image/svg+xml</dc:format>
        <dc:type
           rdf:resource="http://purl.org/dc/dcmitype/StillImage" />
      </cc:Work>
    </rdf:RDF>
  </metadata>
  <defs
     id="defs4140">
    <marker
       inkscape:stockid="Arrow1Lend"
       orient="auto"
       refY="0"
       refX="0"
       id="Arrow1Lend"
       style="overflow:visible"
       inkscape:isstock="true">
      <path
         id="path4157"
         d="M 0,0 5,-5 -12.5,0 5,5 Z"
         style="fill:#000000;fill-opacity:1;fill-rule:evenodd;stroke:#000000;stroke-width:1pt;stroke-opacity:1"
         transform="matrix(-0.8,0,0,-0.8,-10,0)"
         inkscape:connector-curvature="0" />
    </marker>
    <marker
       inkscape:stockid="Arrow1Lstart"
       orient="auto"
       refY="0"
       refX="0"
       id="Arrow1Lstart"
       style="overflow:visible"
       inkscape:isstock="true">
      <path
         id="path4154"
         d="M 0,0 5,-5 -12.5,0 5,5 Z"
         style="fill:#000000;fill-opacity:1;fill-rule:evenodd;stroke:#000000;stroke-width:1pt;stroke-opacity:1"
         transform="matrix(0.8,0,0,0.8,10,0)"
         inkscape:connector-curvature="0" />
    </marker>
    <linearGradient
       inkscape:collect="always"
       xlink:href="#linearGradient5691"
       id="linearGradient4197"
       gradientUnits="userSpaceOnUse"
       gradientTransform="matrix(0.76456668,0,0,0.76456668,18.694232,38.263554)"
       x1="49.907101"
       y1="197.56871"
       x2="63.640804"
       y2="197.56871" />
    <linearGradient
       id="linearGradient5691"
       inkscape:swatch="solid">
      <stop
         style="stop-color:#000000;stop-opacity:1;"
         offset="0"
         id="stop5693" />
    </linearGradient>
    <linearGradient
       inkscape:collect="always"
       xlink:href="#linearGradient5691"
       id="linearGradient4606"
       gradientUnits="userSpaceOnUse"
       gradientTransform="matrix(0.7645667,0,0,0.7645667,8.9480411,43.007038)"
       x1="49.907101"
       y1="197.56871"
       x2="63.640804"
       y2="197.56871" />
  </defs>
  <sodipodi:namedview
     pagecolor="#ffffff"
     bordercolor="#666666"
     borderopacity="1"
     objecttolerance="10"
     gridtolerance="10"
     guidetolerance="10"
     inkscape:pageopacity="0"
     inkscape:pageshadow="2"
     inkscape:window-width="1440"
     inkscape:window-height="900"
     id="namedview4138"
     showgrid="false"
     inkscape:zoom="0.90849201"
     inkscape:cx="252.61642"
     inkscape:cy="383.60271"
     inkscape:window-x="0"
     inkscape:window-y="0"
     inkscape:window-maximized="0"
     inkscape:current-layer="svg4136"
     inkscape:showpageshadow="2"
     inkscape:pagecheckerboard="0"
     inkscape:deskcolor="#d1d1d1" />
  <path
     style="opacity:0.95;fill:none;fill-rule:evenodd;stroke:#000000;stroke-width:1.21606;stroke-linecap:butt;stroke-linejoin:miter;stroke-miterlimit:4;stroke-dasharray:none;stroke-opacity:1"
     d="m 230.94678,561.86064 c 6.49911,2.66766 14.85156,7.97403 18.78504,14.22584 4.32097,7.67159 2.2409,20.19377 2.34567,23.97223 0.10476,3.77845 0.66901,12.68547 3.29851,18.29744 2.80966,5.99648 7.07033,11.33324 12.76766,15.22019 -1.46347,-9.00906 -1.2063,-13.32854 -3.49339,-18.08892 -2.2871,-4.76038 -4.50772,-11.79897 -3.98074,-23.20443 0.52698,-11.40546 0.53708,-14.40268 -2.3926,-22.61727 -3.14169,-6.92925 -7.25811,-11.20525 -13.02366,-15.87127 -2.99352,-2.43779 -8.45949,-6.45292 -8.45949,-6.45292 z"
     id="C18.1"
     inkscape:connector-curvature="0"
     inkscape:label="C18.1 Appendix vermiformis"
     sodipodi:nodetypes="czzaczzzzcc" />
  <path
     style="fill:none;fill-rule:evenodd;stroke:#000000;stroke-width:1.21606;stroke-linecap:butt;stroke-linejoin:miter;stroke-miterlimit:4;stroke-dasharray:none;stroke-opacity:1"
     d="m 236.79378,547.92815 c 0.41884,-1.51634 0.49761,-4.69307 0.49761,-4.69307 0,0 7.44066,-1.88127 10.44997,-4.1064 3.21419,-2.37662 6.00234,-5.66561 7.46424,-9.38612 1.57795,-4.01585 1.06693,-8.59175 0.99524,-12.90589 -0.0752,-4.52433 -0.49161,-9.07974 -1.49285,-13.49254 -0.77913,-3.43391 -2.48689,-6.59549 -3.48334,-9.97275 -1.1957,-4.05259 -0.98888,-8.59557 -2.98568,-12.31927 -1.38497,-2.58274 -4.36967,-7.56461 -5.32433,-10.3354 -3.29808,-9.57223 -2.15584,-12.17233 -3.64508,-18.0664 -0.5988,-2.36989 -3.96863,-8.55598 -3.96863,-8.55598 0,0 -6.18175,4.86557 -9.45472,7.03957 -3.84927,2.5568 -7.96188,4.69305 -11.94282,7.03958 -3.98094,2.34653 -7.74005,5.11845 -11.94282,7.03959 -4.4572,2.03745 -9.20506,3.40388 -13.93326,4.69305 -8.02098,1.43987 -15.88274,3.77063 -23.88563,5.27969 -7.74914,1.3657 -10.56195,1.46248 -17.91423,0.58663 0,0 -4.07511,12.77154 -3.98092,19.35884 0.0517,3.61581 1.45385,7.09424 2.48807,10.55937 0.83308,2.79124 1.65077,5.62384 2.98572,8.21285 1.74141,3.37729 4.11099,6.40646 6.469,9.38611 2.4547,3.10183 7.96187,8.79948 7.96187,8.79948 0,0 1.7829,7.40511 2.4881,11.14599 0.80636,4.2775 0.72585,8.74083 1.99046,12.90592 1.25378,4.12942 3.14496,8.09936 5.4738,11.73262 2.0756,3.23819 4.639,6.18951 7.46426,8.79947 2.70298,2.49701 5.47463,5.26405 8.95711,6.45295 5.4973,1.87674 11.81944,2.14043 17.4166,0.58664 3.80969,-1.05758 6.64603,-4.28491 9.95235,-6.45296 2.66299,-1.7462 5.65631,-3.08307 7.96187,-5.27968 2.63575,-2.51119 4.70635,-5.61416 6.46902,-8.79947 1.52741,-2.76018 2.23991,-5.90024 3.4833,-8.79947 0.93416,-2.1782 2.3547,-4.16843 2.98572,-6.45295 z"
     id="C18.0"
     inkscape:connector-curvature="0"
     inkscape:label="C18.0 Zäkum"
     sodipodi:nodetypes="scsssssssscssssscsssscsssssssssss" />
  <path
     style="fill:none;fill-rule:evenodd;stroke:#000000;stroke-width:1.21606;stroke-linecap:butt;stroke-linejoin:miter;stroke-miterlimit:4;stroke-dasharray:none;stroke-opacity:1"
     d="m 146.22745,475.62578 c 0,0 -2.60529,-6.85963 -3.48331,-10.41271 -1.23581,-5.00092 -2.3278,-10.10359 -2.48808,-15.25244 -0.10394,-3.33914 -0.23393,-4.8051 0.99522,-9.97274 1.35262,-5.68671 3.80981,-9.77098 7.46427,-14.07915 -3.15064,-5.68509 -6.10051,-11.88961 -4.97617,-18.18559 l 1.99046,-11.14599 c 1.04751,-5.86576 4.86114,-7.81351 9.45472,-11.146 -7.45381,-7.47964 -9.60388,-13.5282 -10.66975,-23.18439 -1.06586,-9.65619 7.33298,-14.24633 12.66022,-21.54629 0,0 -3.16165,-4.8891 -4.47856,-7.47952 -1.73263,-3.40816 -4.16663,-6.74883 -4.47856,-10.55937 -0.34473,-4.21122 1.25436,-7.44101 2.98573,-12.31927 2.05896,-5.80128 4.68197,-8.94339 9.4547,-12.31927 0,0 -4.30954,-5.95646 -5.47378,-9.3861 -1.26728,-3.73318 -1.8709,-7.8084 -1.49285,-11.73264 0.35541,-3.68928 1.74632,-7.28524 3.48332,-10.55937 1.27299,-2.39949 4.97616,-6.45295 4.97616,-6.45295 0,0 -3.43634,-8.45024 -3.48331,-12.90589 -0.051,-4.83429 1.51469,-9.66357 3.48331,-14.07917 1.44342,-3.23758 3.18193,-5.70921 5.97143,-8.79947 2.86606,-3.17508 5.04976,-6.60089 6.93386,-10.38754 -0.39448,0.36296 6.07024,4.7229 9.04765,7.17887 1.02965,0.84932 2.24283,1.5826 2.93508,2.72379 1.00844,1.66245 0.6671,3.88959 1.5435,5.62528 1.30008,2.57476 3.23533,4.84109 5.35563,6.79658 2.50661,2.31177 5.14821,3.69063 8.46509,4.4816 1.04136,0.24833 2.94525,0.74981 2.94525,0.74981 0,0 0.33614,5.6613 1.58806,8.05677 1.17415,2.24673 3.36988,3.86552 5.4738,5.2797 2.40826,1.61874 5.25343,2.47844 7.96187,3.51978 2.64567,1.01721 8.07746,2.65765 8.07746,2.65765 0,0 0.4856,7.95229 0.87967,12.00814 0.39407,4.05585 1.44178,8.48368 1.49283,12.31927 0.0511,3.83559 -0.0617,7.58696 -0.99522,10.55937 -0.93357,2.97241 -3.98094,7.03957 -3.98094,7.03957 3.20057,6.52045 4.04894,16.98689 4.47855,20.53211 0.42961,3.54522 0.47947,6.51481 0,9.97275 -0.47947,3.45794 -2.08492,7.95668 -2.9857,10.55937 -0.90078,2.60269 -2.11489,5.13301 -2.11489,5.13301 0,0 3.50881,4.15086 4.60298,6.59961 1.47524,3.30158 2.07061,6.96737 2.48808,10.55937 0.33862,2.91355 0.14582,5.86994 0,8.79947 -0.16608,3.33663 -0.14266,6.74261 -0.99524,9.97274 -0.62759,2.37772 -2.98569,6.74628 -2.98569,6.74628 0,0 3.07405,3.88937 3.98093,6.15964 1.32869,3.32622 1.42674,7.02223 1.99046,10.55937 0.80695,5.06334 2.17111,10.69343 1.99048,15.2524 -0.18063,4.55897 -2.44064,8.24289 -2.48811,11.73264 -0.0475,3.48975 1.61729,8.79947 1.61729,8.79947 l -8.08629,5.76565 -8.7937,5.53134 -7.71671,4.5924 -9.28764,5.33002 -13.5137,4.59238 -9.45472,1.7599 -12.19164,3.0798 -11.56959,1.61325 z"
     id="C18.2"
     inkscape:connector-curvature="0"
     inkscape:label="C18.2 Colon ascendens"
     sodipodi:nodetypes="cssscssczcssscssscssscssssscsssczzzczzzcsssscsszzcccccccccc" />
  <path
     style="fill:none;fill-rule:evenodd;stroke:#000000;stroke-width:1.21606;stroke-linecap:butt;stroke-linejoin:miter;stroke-miterlimit:4;stroke-dasharray:none;stroke-opacity:1"
     d="m 175.08925,213.54809 c -1.94269,-3.23572 -2.4956,-7.40584 -1.99048,-11.14599 0.46396,-3.43543 2.70539,-6.40732 4.47858,-9.38612 1.73131,-2.90844 3.9529,-5.49583 5.97139,-8.21285 2.78151,-3.74411 5.17167,-7.83762 8.4595,-11.14599 3.39219,-3.41338 7.02852,-6.88867 11.44519,-8.79948 4.47283,-1.93511 9.57688,-2.78149 14.43091,-2.34652 3.50476,0.31406 6.93107,1.71592 9.95233,3.5198 2.49934,1.49226 4.65747,3.23474 6.86315,5.13435 4.00768,2.8812 8.24678,5.06297 12.54393,7.18489 0,0 -4.72135,6.43967 -6.96665,9.38612 -2.11222,2.77181 -4.26336,5.51482 -6.46904,8.21285 -2.59672,3.17636 -5.47942,6.11964 -7.96185,9.3861 -2.14483,2.82224 -4.13668,5.76646 -5.97141,8.79947 -2.1816,3.60643 -3.67432,7.61202 -5.97141,11.14601 -1.61993,2.49222 -3.17792,3.28493 -4.69876,5.83883 -1.22771,2.06165 -2.11245,3.53222 -3.12604,5.71075 -0.36373,0.78178 -1.06076,4.35884 -1.06076,4.35884 -4.83396,-1.65953 -8.22222,-1.5987 -10.81308,-4.79493 0,0 -4.33116,-4.31987 -5.6799,-7.00704 -0.90514,-1.80336 -0.44166,-4.14402 -1.49287,-5.86632 -1.38419,-2.26786 -3.93083,-3.57813 -5.97139,-5.27968 -1.94434,-1.62131 -4.66821,-2.52261 -5.97134,-4.69309 z"
     id="C18.3"
     inkscape:connector-curvature="0"
     inkscape:label="C18.3 Flexura coli dextra "
     sodipodi:nodetypes="ssssssssscssssssscsssss" />
  <path
     style="fill:none;fill-rule:evenodd;stroke:#000000;stroke-width:1.21606;stroke-linecap:butt;stroke-linejoin:miter;stroke-miterlimit:3.5;stroke-dasharray:none;stroke-opacity:1"
     d="m 247.24375,178.35018 c 0,0 7.33437,2.64523 10.94755,4.10643 3.18538,1.28819 6.46051,2.42099 9.45475,4.10642 2.65576,1.4949 5.32984,3.10435 7.46424,5.2797 2.15218,2.19347 5.17971,7.62621 5.17971,7.62621 0,0 6.99364,-3.89003 10.74405,-3.51979 4.35848,0.43027 7.87735,3.91288 11.44519,6.45295 2.16442,1.54093 4.26022,3.24718 5.97141,5.27967 1.62776,1.93339 3.98092,6.45295 3.98092,6.45295 0,0 7.24983,-2.85156 10.94758,-2.34653 3.3397,0.45613 5.92116,3.22864 8.95713,4.69307 2.61356,1.26067 5.74608,1.64618 7.96185,3.51978 1.61,1.36137 3.48334,5.27969 3.48334,5.27969 0,0 4.91291,-4.36063 7.96185,-5.27969 3.01747,-0.90957 6.32899,-0.40264 9.45474,0 3.06117,0.39432 6.25098,0.86225 8.95712,2.34652 2.7753,1.5222 6.96663,6.45295 6.96663,6.45295 0,0 3.63881,-4.7021 5.92474,-6.69983 2.19187,-1.91553 4.64472,-4.10144 7.51093,-5.03279 4.89388,-1.59023 10.38807,-1.0001 15.42613,-0.58663 2.01898,0.19647 5.97139,1.17325 5.97139,1.17325 0,0 4.39507,-5.3367 6.96665,-7.6262 2.7484,-2.44692 5.57375,-5.00583 8.95709,-6.45294 2.94743,-1.26066 6.28286,-1.29543 9.45475,-1.7599 1.81568,-0.26587 5.47377,-0.58663 5.47377,-0.58663 2.24833,-6.1735 6.46034,-10.33489 11.23365,-13.89875 4.23134,-3.15922 8.50908,-4.88658 14.64245,-6.04673 2.1692,-0.48326 6.46902,-1.61325 6.46902,-1.61325 0,0 4.6295,9.58001 7.21544,14.22583 1.47487,2.64971 3.05141,5.24556 4.72738,7.77287 1.99848,3.01366 4.481,5.70059 6.34461,8.79947 2.41587,4.0172 4.06343,8.45056 6.22022,12.61259 0.9985,1.92683 3.35891,6.30629 3.35891,6.30629 l -0.3011,2.52585 c 0,0 -0.54377,7.1481 -1.93787,10.38004 -1.53351,3.55513 -4.44797,6.3434 -6.84225,9.3861 -2.29924,2.92193 -5.12441,5.43179 -7.21544,8.50616 -1.43417,2.10861 -1.78366,4.96416 -3.60771,6.74628 -1.86099,1.81822 -4.36771,3.39831 -6.96665,3.51977 -2.67037,0.1248 -7.46424,-2.93315 -7.46424,-2.93315 0,0 -3.82301,5.59734 -5.97143,8.21283 -1.86019,2.2646 -3.71066,4.58809 -5.97141,6.45295 -2.86113,2.36011 -6.18676,4.11231 -9.45473,5.86632 -2.89401,1.5533 -5.85913,3.01525 -8.95709,4.10642 -2.25912,0.79571 -4.57268,1.83609 -6.96663,1.7599 -1.91562,-0.061 -5.47382,-1.7599 -5.47382,-1.7599 0,0 -5.38806,6.29688 -8.95709,8.21284 -2.861,1.53587 -6.25858,1.77305 -9.45472,2.34653 -3.45011,0.61905 -6.95233,1.40351 -10.44997,1.17327 -3.24017,-0.21329 -6.22671,-2.69892 -9.45472,-2.34654 -3.4977,0.38182 -6.05732,3.77808 -9.45475,4.69305 -2.88915,0.77808 -5.98275,0.26119 -8.95709,0.58664 -3.837,0.41985 -7.73703,2.83152 -11.44519,1.7599 -4.01046,-1.15898 -6.8132,-4.98032 -9.45474,-8.21285 -0.42645,-0.52186 -0.99524,-1.75989 -0.99524,-1.75989 0,0 -5.28514,4.12538 -8.45946,4.69305 -3.79962,0.6795 -7.6431,-1.09436 -11.44519,-1.7599 -2.99722,-0.52465 -6.03639,-0.90667 -8.95711,-1.75988 -3.59247,-1.04944 -7.5147,-1.78449 -10.44997,-4.10642 -2.05347,-1.62438 -3.54727,-4.00592 -4.47856,-6.45297 -0.49043,-1.28865 -0.49763,-4.1064 -0.49763,-4.1064 0,0 -4.85759,6.42619 -8.45946,7.62622 -4.10837,1.36879 -8.78424,0.0506 -12.93808,-1.17328 -3.23327,-0.95265 -6.45157,-2.43831 -8.95709,-4.69307 -2.44549,-2.20073 -3.49408,-5.58519 -5.47378,-8.21282 -1.0801,-1.4336 -3.48333,-4.10642 -3.48333,-4.10642 0,0 -5.41202,3.31757 -8.45949,3.51977 -3.76961,0.25012 -7.42835,-1.55926 -10.94757,-2.93315 -3.13991,-1.22581 -6.32551,-2.5868 -8.95711,-4.69305 -2.00194,-1.60229 -3.60627,-3.69871 -4.97617,-5.8663 -0.7478,-1.18324 -1.72658,-3.82784 -1.72658,-3.82784 0,0 -6.22893,-1.50234 -9.221,-2.62512 -2.57548,-0.96645 -5.23796,-1.90402 -7.46426,-3.51978 -1.95725,-1.4205 -3.91948,-3.10438 -4.97619,-5.2797 -1.4687,-3.02343 -1.88739,-6.94968 -1.39853,-10.41984 0.33473,-2.3761 1.61039,-4.38892 2.89141,-6.59247 1.54555,-2.65858 3.9337,-4.74711 5.59818,-7.33289 1.71104,-2.65811 2.89277,-5.62482 4.47855,-8.3595 1.76465,-3.04316 3.55788,-6.0805 5.59818,-8.94615 1.45657,-2.04579 3.1271,-3.93086 4.72739,-5.8663 2.28756,-2.76664 4.70881,-5.42189 6.96663,-8.21285 2.13547,-2.63971 4.18501,-5.34844 6.22023,-8.06619 1.77523,-2.37057 5.22468,-7.18625 5.22468,-7.18625 z"
     id="C18.4"
     inkscape:connector-curvature="0"
     inkscape:label="C18.4 Colon transversum"
     sodipodi:nodetypes="cssscssscssscssscsascssscascssssccssssscssssscsssssssscssssscsssscsssscsssssssssssc" />
  <path
     style="fill:none;fill-rule:evenodd;stroke:#000000;stroke-width:1.21606;stroke-linecap:butt;stroke-linejoin:miter;stroke-miterlimit:4;stroke-dasharray:none;stroke-opacity:1"
     d="m 475.15238,179.52346 c 0,0 5.25879,-6.68833 7.96189,-9.97275 2.1183,-2.57385 3.83483,-5.58342 6.46902,-7.6262 2.47696,-1.92085 5.4228,-3.32942 8.45946,-4.10642 3.86135,-0.98802 7.9571,-0.58271 11.94284,-0.58662 4.15142,-0.004 8.47594,-0.64507 12.44043,0.58662 3.54192,1.1004 6.82778,3.24804 9.4547,5.86632 3.10319,3.09299 5.0465,7.2078 6.96665,11.146 1.91489,3.9274 3.36215,8.09494 4.47854,12.31927 1.01352,3.83509 1.88861,7.76717 1.99048,11.73262 0.12492,4.8628 -1.69897,14.49398 -1.69897,14.49398 0,0 -5.63251,1.77422 -8.25338,3.10498 -3.18232,1.61584 -6.09406,3.73531 -8.9571,5.8663 -2.43532,1.81263 -4.28964,4.4345 -6.96663,5.86632 -2.47486,1.32371 -5.28187,2.23515 -8.08629,2.34653 -2.80886,0.11156 -6.13787,-0.42415 -8.33508,-1.17325 -1.35165,-2.46607 -3.29446,-6.24808 -4.97619,-9.38612 -1.63749,-3.05549 -2.66349,-6.43263 -4.47853,-9.3861 -1.42218,-2.31419 -3.42749,-4.22143 -4.97617,-6.45295 -1.9695,-2.83789 -3.76101,-5.79966 -5.47378,-8.79949 -1.42183,-2.49026 -2.69192,-5.06468 -3.98094,-7.6262 -1.36755,-2.71757 -3.98095,-8.21284 -3.98095,-8.21284 z"
     id="C18.5"
     inkscape:connector-curvature="0"
     inkscape:label="C18.5 Flexura coli sinistra"
     sodipodi:nodetypes="cssssssssscsssscsssssc" />
  <path
     style="fill:none;fill-rule:evenodd;stroke:#000000;stroke-width:1.21606;stroke-linecap:butt;stroke-linejoin:miter;stroke-miterlimit:4;stroke-dasharray:none;stroke-opacity:1"
     d="m 543.50185,213.13327 c 0,0 -6.85671,2.79899 -10.12828,4.52124 -2.23718,1.17772 -4.44235,2.44827 -6.46901,3.95977 -2.63745,1.96703 -4.49103,4.95351 -7.33984,6.5996 -2.45506,1.41857 -5.25846,2.43257 -8.0863,2.63984 -2.89499,0.2122 -8.45948,-1.46656 -8.45948,-1.46656 0,0 -0.4759,8.452 -1.99048,12.31926 -1.29268,3.30067 -3.82657,5.97723 -5.97141,8.79948 -2.48243,3.26646 -7.96185,9.38609 -7.96185,9.38609 0,0 -0.0942,4.33363 -0.49761,6.45295 -0.42088,2.21129 -1.59962,4.23616 -1.99049,6.45295 -0.57795,3.27782 -0.67704,6.6492 -0.49761,9.97274 0.17079,3.16342 0.40994,6.40891 1.49286,9.3861 0.51797,1.424 2.33716,3.89902 2.33716,3.89902 0,0 -2.76386,4.64967 -3.33241,7.24698 -0.79448,3.6294 -0.29726,7.44258 0,11.14601 0.33282,4.14634 0.89431,8.30661 1.99049,12.31925 0.71941,2.63345 2.33838,4.97413 2.9857,7.62622 0.37302,1.52825 0.49761,4.69305 0.49761,4.69305 0,0 -1.72934,6.98712 -1.99048,10.55937 -0.29963,4.09883 0.41467,8.21034 0.49763,12.31927 0.0789,3.91008 -0.96612,7.94297 0,11.73264 0.7703,3.02154 4.47854,8.21282 4.47854,8.21282 0,0 -0.7557,5.85736 -0.99525,8.79949 -0.2701,3.3174 -0.61531,6.64643 -0.49761,9.97273 0.0975,2.75592 0.42747,5.51428 0.99525,8.21284 0.58896,2.7992 1.25625,5.63118 2.48807,8.21285 0.50883,1.06642 1.99048,2.93317 1.99048,2.93317 0,0 -5.00044,3.78465 -6.46902,6.45295 -1.83553,3.33503 -1.87171,7.38946 -2.48809,11.14601 -0.50942,3.10472 -1.61401,6.3013 -0.99522,9.38608 0.26317,1.31195 1.93008,3.51982 1.93008,3.51982 0,0 -3.42957,2.98325 -4.91579,4.69303 -2.05282,2.36161 -4.21,4.76367 -5.47379,7.6262 -1.61467,3.65728 -2.48808,11.73266 -2.48808,11.73266 0,0 -7.57383,2.15501 -10.94759,4.10642 -1.8616,1.07677 -3.4808,2.56082 -4.97617,4.10642 -1.8887,1.95214 -3.53947,4.14772 -4.97615,6.45293 -1.3556,2.1751 -3.39799,6.89725 -3.39799,6.89725 0,0 4.67179,8.84839 7.3789,13.04824 2.15275,3.33981 4.66095,6.43683 7.027,9.62908 1.81655,2.45088 3.93044,4.69853 5.50398,7.31208 2.22817,3.70084 3.71057,7.80267 5.504,11.73262 1.45783,3.19454 2.68336,6.49777 4.27243,9.6291 1.77118,3.49018 5.85066,10.18017 5.85066,10.18017 0,0 6.52854,-2.3997 9.66084,-3.89905 3.25588,-1.5585 6.91517,-2.71447 9.45473,-5.27967 2.19379,-2.21594 3.08349,-5.42413 4.47855,-8.21285 1.25032,-2.4994 2.67389,-4.9513 3.48334,-7.6262 0.85696,-2.8319 1.40746,-8.76388 1.40746,-8.76388 0,0 5.32211,-0.48045 7.54963,-1.79549 3.18563,-1.88066 5.24415,-5.25376 7.46426,-8.21286 2.47724,-3.30182 4.70021,-6.82976 6.46902,-10.55937 1.50887,-3.18152 2.89446,-6.50114 3.4833,-9.97275 0.65401,-3.8558 0,-11.73262 0,-11.73262 0,0 5.9765,-4.10565 7.96191,-7.03957 2.21106,-3.26738 3.11879,-7.29617 3.98092,-11.14602 1.11633,-4.98498 1.77728,-10.15192 1.49288,-15.25244 -0.22257,-3.99165 -2.4881,-11.73262 -2.4881,-11.73262 0,0 6.06363,-6.89952 7.46422,-11.14599 1.10371,-3.34638 0.60879,-7.03743 0.49763,-10.55937 -0.14274,-4.5227 -0.27865,-9.13352 -1.49285,-13.49253 -0.86013,-3.08789 -4.03613,-8.72831 -4.03613,-8.72831 0,0 2.78647,-6.9537 3.04089,-10.63055 0.32718,-4.72841 -1.99044,-14.07914 -1.99044,-14.07914 -0.67363,-4.76485 -4.28625,-8.61718 -6.46902,-12.90588 0,0 3.59853,-5.62813 4.47855,-8.79951 1.25798,-4.53345 0.98252,-9.37439 0.99525,-14.07913 0.007,-2.54748 0.45749,-5.26459 -0.49764,-7.62624 -0.86526,-2.13943 -4.47855,-5.27967 -4.47855,-5.27967 0,0 2.05242,-7.76635 1.99048,-11.73262 -0.0654,-4.18883 -1.35827,-8.28517 -2.48809,-12.31929 -0.89721,-3.20356 -3.39278,-9.3861 -3.39278,-9.3861 0,0 2.51276,-4.93415 2.89517,-7.62622 0.57941,-4.07885 -0.67783,-8.2117 -0.99524,-12.31925 -0.34745,-4.49632 -0.39513,-9.0229 -0.99525,-13.49252 -0.3447,-2.56728 -1.06259,-5.07188 -1.49285,-7.62622 -0.39364,-2.33694 -0.63114,-4.69785 -0.99524,-7.03957 -0.45709,-2.93975 -1.55373,-5.82504 -1.49287,-8.79949 0.0491,-2.39821 1.28719,-4.6497 1.49287,-7.03957 0.24677,-2.86729 -0.32169,-8.62767 -0.32169,-8.62767 z"
     id="C18.6"
     inkscape:connector-curvature="0"
     inkscape:label="C18.6 Colon descendens"
     sodipodi:nodetypes="csssscsscsssscsssscssscsssscssscsscssscssssscsssscsssscssscssscsscssscsscsssssssc" />
  <path
     style="fill:none;fill-rule:evenodd;stroke:#000000;stroke-width:1.21606;stroke-linecap:butt;stroke-linejoin:miter;stroke-miterlimit:4;stroke-dasharray:none;stroke-opacity:1"
     d="m 452.26201,496.30453 c 0,0 -4.60266,-3.10306 -7.25816,-3.413 -3.60516,-0.42078 -7.578,0.31627 -10.65607,2.23975 -2.52074,1.5752 -5.4738,7.0396 -5.4738,7.0396 0,0 -4.56365,-1.86679 -6.96663,-2.34655 -2.7719,-0.55342 -5.6422,-0.81578 -8.4595,-0.58663 -2.54789,0.20723 -5.06265,0.8841 -7.46424,1.7599 -2.44431,0.89138 -6.96665,3.51978 -6.96665,3.51978 0,0 -4.99395,-4.4315 -7.96187,-5.8663 -4.02388,-1.9453 -8.46928,-3.44366 -12.93806,-3.5198 -3.40791,-0.0581 -6.83355,0.97161 -9.95234,2.34653 -3.49142,1.53919 -6.70374,3.80884 -9.45472,6.45294 -1.40458,1.35001 -3.48331,4.69307 -3.48331,4.69307 0,0 1.05509,6.64009 1.49285,9.97275 0.38443,2.92672 0.9539,5.8479 0.99522,8.79947 0.0275,1.96227 -0.0644,3.95227 -0.49761,5.86632 -0.41517,1.83441 -1.08332,3.63209 -1.99046,5.27967 -1.06308,1.9308 -2.84828,3.38888 -3.98095,5.2797 -1.21794,2.03318 -2.63983,4.10824 -2.9857,6.45293 -0.34584,2.34449 0.63114,4.69786 0.99524,7.03959 0.45709,2.93975 0.60715,5.95931 1.49285,8.79949 1.28477,4.11989 2.94668,8.23437 5.4738,11.73262 2.00272,2.77234 4.28571,5.77717 7.46424,7.03958 2.31238,0.91841 4.9666,0.76935 7.17612,-0.37458 1.27594,-0.66059 2.77625,-3.1452 2.77625,-3.1452 0,0 3.63352,5.39944 5.97137,7.6262 2.20677,2.10191 4.72156,3.95103 7.46428,5.27969 2.49002,1.20624 5.19998,2.18093 7.96183,2.34651 4.7014,0.28186 9.69286,-0.29686 13.93332,-2.34651 3.41817,-1.65219 8.45949,-7.62624 8.45949,-7.62624 0,0 5.22842,4.49937 8.45948,5.27972 4.53061,1.09422 9.5415,0.38744 13.9333,-1.17327 3.59537,-1.27768 6.56485,-3.96141 9.45472,-6.45295 2.2196,-1.91366 4.96099,-3.702 5.97141,-6.45295 0.55552,-1.51244 -0.20612,-4.82931 -0.20612,-4.82931 0,0 6.56234,3.51746 10.15844,3.65604 5.15718,0.19874 10.63279,-1.24589 14.92854,-4.1064 2.68734,-1.78949 4.61022,-4.69854 5.97139,-7.62622 1.02512,-2.20489 1.49285,-7.14026 1.49285,-7.14026 l -7.38519,-13.0996 c -1.99696,-3.54214 -4.32223,-10.14933 -4.84553,-11.18527 0,0 -2.60931,-5.47788 -5.59295,-10.22573 -2.49149,-3.9647 -5.8852,-7.29571 -8.55006,-11.14601 -1.96588,-2.84039 -3.7935,-5.78132 -5.47376,-8.79947 -1.27349,-2.28749 -3.48331,-7.0396 -3.48331,-7.0396 z"
     id="C18.7"
     inkscape:connector-curvature="0"
     inkscape:label="C18.7 Colon sigmoideum"
     sodipodi:nodetypes="csscssscsssscssssssssssscsssscsssscssscsssssc" />
  <path
     style="fill:none;fill-rule:evenodd;stroke:#000000;stroke-width:1.21606;stroke-linecap:butt;stroke-linejoin:miter;stroke-miterlimit:4;stroke-dasharray:none;stroke-opacity:1"
     d="m 355.4328,508.65941 c 0,0 -6.02569,-8.6848 -10.65611,-10.59498 -3.98677,-1.64466 -8.85226,-1.38044 -12.93804,0 -3.35998,1.13522 -5.84616,4.05531 -8.4595,6.45295 -2.7259,2.50091 -5.15414,5.32347 -7.46426,8.21284 -10.18228,10.87909 -16.81867,20.19774 -17.33264,31.62937 -0.51397,11.43163 0.10643,21.93686 0.41365,32.90013 0.27962,9.97825 0.23944,19.99267 1.30104,29.91823 1.50309,14.05324 3.32742,23.51978 7.15849,41.79153 0,0 14.3531,-0.1282 18.86988,-0.14072 11.31435,-0.0313 13.75479,0.53496 26.91088,0 0,0 0.41465,-9.38389 0.49759,-14.07913 0.0587,-3.32373 -0.1871,-6.65376 0,-9.97274 0.16614,-2.94718 -0.31002,-6.15188 0.99525,-8.79947 1.12096,-2.27373 4.11589,-3.13902 5.47379,-5.2797 1.65913,-2.61557 2.40955,-5.75613 2.98571,-8.79947 0.65545,-3.46219 0.73126,-7.04342 0.49761,-10.55935 -0.1845,-2.77635 -0.558,-6.6964 -0.558,-6.6964"
     id="path4444"
     inkscape:connector-curvature="0"
     sodipodi:nodetypes="csssszaacscssssssc" />
  <path
     style="fill:none;fill-rule:evenodd;stroke:#000000;stroke-width:1.21606;stroke-linecap:butt;stroke-linejoin:miter;stroke-miterlimit:4;stroke-dasharray:none;stroke-opacity:1"
     d="m 237.29139,543.52842 c 0,0 -7.40889,-6.03312 -10.44994,-9.67944 -2.37506,-2.84777 -4.1885,-6.13463 -5.97141,-9.38609 -2.07494,-3.78403 -3.90416,-7.71266 -5.4738,-11.73267 -1.19414,-3.05831 -1.89702,-6.28867 -2.9857,-9.38609 -0.76444,-2.17491 -1.50337,-4.36851 -2.4881,-6.45295 -1.43937,-3.04681 -3.6344,-5.70846 -4.97616,-8.79949 -2.2036,-5.07647 -4.03186,-10.3861 -4.97617,-15.83905 -0.73461,-4.24203 -0.24914,-8.60792 -0.49763,-12.90591 -0.24904,-4.30754 -0.82923,-8.59434 -0.99522,-12.90588 -0.18807,-4.88498 -0.0901,-9.77802 0,-14.66579 0.083,-4.49979 0.16699,-9.0041 0.49761,-13.4925 0.33242,-4.51273 1.17275,-8.9789 1.49285,-13.49252 0.37368,-5.26906 0.85823,-10.56911 0.49761,-15.83908 -0.27081,-3.95751 -1.73376,-7.7742 -1.99046,-11.73265 -0.27859,-4.29614 0.15543,-8.61435 0.49761,-12.90589 0.32877,-4.12338 1.49285,-8.18281 1.49285,-12.31927 0,-4.13646 -1.31095,-8.18679 -1.49285,-12.31925 -0.22369,-5.08193 0.41468,-10.16626 0.49763,-15.25244 0.0701,-4.30139 -0.51025,-8.63429 0,-12.90589 0.3341,-2.79698 1.57189,-5.42724 1.99046,-8.21284 0.40754,-2.71219 0.51142,-5.47025 0.49763,-8.21285 -0.0355,-7.05706 -1.07793,-14.0738 -1.49287,-21.11874 -0.20718,-3.51759 -0.61305,-7.03755 -0.49761,-10.55935 0.0967,-2.95027 0.4259,-5.90304 0.99524,-8.79947 0.82308,-4.18729 2.45048,-9.30113 3.55487,-13.42317"
     id="path4446"
     inkscape:connector-curvature="0"
     sodipodi:nodetypes="cssssssssssssssssssssssssc" />
  <path
     style="fill:none;fill-rule:evenodd;stroke:#000000;stroke-width:1.21606;stroke-linecap:butt;stroke-linejoin:miter;stroke-miterlimit:4;stroke-dasharray:none;stroke-opacity:1"
     d="m 195.96158,237.63253 c 0,0 -2.25428,8.13333 -2.9581,12.28672 -0.55816,3.2938 -0.68081,6.64681 -0.99524,9.97274 -0.35108,3.71356 -0.82919,7.41958 -0.99522,11.146 -0.16538,3.71165 -0.0926,7.43182 0,11.146 0.083,3.32735 0.57103,6.64517 0.49761,9.97274 -0.078,3.53453 -0.73573,7.03352 -0.99524,10.55937 -0.22998,3.12464 -0.28851,6.25999 -0.49761,9.3861 -0.27495,4.11061 -0.82922,8.20281 -0.99523,12.31926 -0.17335,4.29848 -0.18197,8.6078 0,12.90592 0.16602,3.92141 0.97365,7.80776 0.99523,11.73262 0.0248,4.50966 -0.82925,8.98585 -0.99523,13.49252 -0.20152,5.47152 0,10.95046 0,16.42569 0,4.10642 0,8.21285 0,12.31927 0,3.71533 0,7.43067 0,11.146 0,4.49751 0,8.99501 0,13.49252 0,3.32425 0.31608,6.66355 0,9.97274 -0.41657,4.36133 -1.99764,8.55226 -2.48811,12.9059 -0.54759,4.86067 -0.58039,9.77509 -0.49763,14.66581 0.0829,4.89914 0.59944,9.78196 0.99524,14.66579 0.42837,5.28575 0.5186,10.62623 1.49287,15.83905 0.896,4.79403 1.8986,9.66899 3.98093,14.07914 2.23583,4.73524 7.02621,8.03837 8.95711,12.90592 1.23942,3.12442 0.49133,6.76411 1.49283,9.97272 1.23328,3.9512 3.36022,7.58714 5.47382,11.14602 2.20102,3.70608 4.29294,7.64008 7.46426,10.55937 2.83323,2.60807 6.78519,3.67581 9.95234,5.86632 2.75783,1.90742 7.83745,6.30629 7.83745,6.30629"
     id="path4448"
     inkscape:connector-curvature="0"
     sodipodi:nodetypes="cssssssssssssssssssssssssssc" />
  <path
     style="fill:none;fill-rule:evenodd;stroke:#000000;stroke-width:1.21606;stroke-linecap:butt;stroke-linejoin:miter;stroke-miterlimit:4;stroke-dasharray:none;stroke-opacity:1"
     d="m 197.49396,168.35924 c 0,0 10.71669,3.99364 14.78328,7.37926 4.12983,3.43827 6.07282,8.86749 9.14858,13.27395 2.32603,3.33237 4.08717,7.16058 7.03736,9.95548 3.01735,2.85852 6.92643,4.6118 10.55605,6.63698 2.73874,1.5281 6.02736,2.15021 8.44483,4.14811 2.40273,1.98572 2.90096,5.96024 5.6299,7.46659 3.24601,1.79177 7.67138,-0.51649 11.08385,0.93335 2.65523,1.12812 4.43292,3.70105 6.50958,5.70365 2.46189,2.37409 3.85228,6.22066 7.03738,7.46659 3.72273,1.45623 8.00266,-1.36901 11.96351,-0.82961 2.46542,0.33575 4.82032,1.3594 7.03737,2.48886 3.04407,1.55077 5.18235,4.79384 8.44487,5.80736 3.58428,1.11348 7.54081,-0.50623 11.25977,0 4.10059,0.55818 7.91884,2.44266 11.96351,3.31848 3.48121,0.75381 7.37431,0.0581 10.55607,1.65925 1.76247,0.88689 2.37604,3.45265 4.22244,4.14811 4.61725,1.73911 9.85464,-1.14505 14.77846,-0.82961 4.52428,0.28985 8.90563,1.70556 13.37101,2.48886 3.24989,0.57008 6.47306,1.80218 9.76691,1.60893 3.92876,-0.2305 7.47118,-2.57519 11.3452,-3.26818 3.70462,-0.66269 7.49888,-0.69125 11.25976,-0.82961 4.21958,-0.15524 8.728,1.52016 12.66729,0 3.84064,-1.48209 6.00351,-5.63998 9.14858,-8.29623 2.73525,-2.31013 5.19891,-5.12624 8.44483,-6.63697 3.69285,-1.71874 8.08531,-1.24368 11.96353,-2.48889 1.9536,-0.62726 4.01537,-1.22264 5.6299,-2.48886 3.02267,-2.37057 4.15766,-6.5835 7.03736,-9.12584 2.8578,-2.52301 6.68582,-3.68464 9.85231,-5.80737 3.42273,-2.2945 6.26586,-5.43753 9.85232,-7.46659 2.74948,-1.55554 6.30435,-1.5849 8.79671,-3.5259 4.24867,-3.30879 5.8481,-9.10933 9.50045,-13.06655 2.30526,-2.49769 4.88818,-4.7894 7.7411,-6.63698 4.35378,-2.81956 9.06142,-5.30584 14.07474,-6.63698 3.41133,-0.90578 7.03963,-0.52565 10.55605,-0.82963 2.93431,-0.25366 8.79674,-0.82961 8.79674,-0.82961 v 0"
     id="path4450"
     inkscape:connector-curvature="0"
     sodipodi:nodetypes="csssssssssssssssssssssssssssssssssssc" />
  <path
     style="fill:none;fill-rule:evenodd;stroke:#000000;stroke-width:1.21606;stroke-linecap:butt;stroke-linejoin:miter;stroke-miterlimit:4;stroke-dasharray:none;stroke-opacity:1"
     d="m 192.44087,173.49262 c 0,0 10.80272,4.17558 14.9102,8.05324 2.59903,2.45362 3.45463,6.28975 5.6299,9.12584 2.08147,2.7138 4.97894,4.73529 7.03736,7.46661 1.93568,2.56845 2.21996,6.55832 4.92617,8.29621 2.18365,1.40231 5.33734,-0.14844 7.74112,0.82964 4.14531,1.68669 7.69732,4.85292 10.55602,8.29622 2.59045,3.12019 2.33596,8.41954 5.62992,10.78509 2.89313,2.0777 7.22344,0.40197 10.55605,1.65925 3.37953,1.27498 6.35635,3.51598 9.14856,5.80734 2.36396,1.93993 3.56839,5.33124 6.33365,6.637 3.4031,1.60696 7.50593,0.56117 11.25978,0.82962 3.98724,0.28514 8.21139,-0.54905 11.96355,0.82961 4.37598,1.60787 6.83076,6.84078 11.25976,8.29623 3.78853,1.24498 7.98635,-0.29147 11.96353,0 3.78365,0.27728 7.56201,0.81118 11.2598,1.65925 3.59513,0.82453 7.24044,1.70253 10.55607,3.3185 3.07099,1.49673 5.12028,5.02087 8.44482,5.80736 3.91787,0.92685 7.94015,-1.51351 11.96352,-1.65925 4.2287,-0.15318 8.50118,0.0887 12.66728,0.82961 3.85243,0.68513 7.45425,4.22868 11.2598,3.3185 3.136,-0.75004 4.10837,-5.28857 7.03734,-6.63698 4.71467,-2.1705 10.29211,-1.61687 15.48223,-1.65924 3.06194,-0.025 6.24496,1.80175 9.14859,0.82961 3.90371,-1.30697 6.06088,-5.57351 9.14858,-8.29623 2.54934,-2.248 4.93649,-4.71685 7.74109,-6.63697 2.4156,-1.6538 4.93185,-3.32454 7.7411,-4.14812 3.38699,-0.99295 7.51615,0.96383 10.55607,-0.82963 2.56811,-1.51511 3.03105,-5.16455 4.92614,-7.46659 2.50798,-3.04655 5.23822,-5.99645 8.44485,-8.29623 2.98998,-2.1444 6.65322,-3.15998 9.85232,-4.97773 3.14048,-1.78445 5.88869,-4.25172 9.14858,-5.80736 1.56377,-0.74624 3.57394,-0.57586 4.92616,-1.65925 3.53276,-2.83043 4.22804,-8.06514 7.03737,-11.6147 2.44894,-3.09421 5.13434,-6.14866 8.44483,-8.29623 3.17169,-2.05753 6.93306,-3.06788 10.55606,-4.14811 3.90341,-1.16384 7.987,-1.60661 11.96353,-2.48887 3.52934,-0.78305 10.55605,-2.48888 10.55605,-2.48888"
     id="path4452"
     inkscape:connector-curvature="0"
     sodipodi:nodetypes="cssssssssssssssssssssssssssssssssssssc" />
  <path
     style="fill:none;fill-rule:evenodd;stroke:#000000;stroke-width:1.21606;stroke-linecap:butt;stroke-linejoin:miter;stroke-miterlimit:4;stroke-dasharray:none;stroke-opacity:1"
     d="m 511.36539,230.49359 c 0,0 -1.44517,13.2575 -1.40746,19.91093 0.0488,8.60145 1.24179,17.16073 2.11121,25.71827 1.18256,11.63977 3.5174,23.16573 4.22242,34.84416 0.19997,3.31246 -0.3461,6.65508 0,9.95547 0.47173,4.49838 2.66001,8.75355 2.81495,13.27394 0.17221,5.02429 -1.85978,9.91227 -2.11122,14.93322 -0.2907,5.80482 0.14261,11.63714 0.70375,17.42209 0.29716,3.06353 1.1722,6.05693 1.40747,9.12584 0.46504,6.0661 -0.53687,12.19153 0,18.2517 0.471,5.31657 2.15888,10.46588 2.81495,15.7628 0.7241,5.84615 1.96485,11.78449 1.23154,17.62949 -0.53481,4.26279 -2.98532,8.07385 -4.04649,12.23694 -0.97195,3.81308 -1.25454,7.77408 -2.11122,11.6147 -0.99655,4.46769 -1.5528,9.14015 -3.51866,13.274 -1.02786,2.16142 -2.92753,3.7945 -4.22244,5.80732 -2.06264,3.20619 -3.86965,6.57381 -5.6299,9.95547 -2.2636,4.34866 -3.33532,9.39517 -6.33363,13.27394 -2.62576,3.39681 -6.4374,5.6941 -9.85231,8.29627 -2.71732,2.0706 -5.82967,3.60915 -8.44485,5.80734 -4.29753,3.61229 -6.67056,9.7201 -11.78759,12.02952 -2.40868,1.08709 -5.34661,-0.19869 -7.91704,0.41482 -3.99154,0.9527 -7.29099,3.9343 -11.25978,4.97771 -5.47108,1.43837 -11.28529,0.88962 -16.88969,1.65926 -4.72006,0.6482 -9.41394,3.47691 -14.07473,2.48887 -3.87368,-0.82118 -7.07297,-3.81652 -9.85232,-6.63698 -3.01301,-3.05757 -5.47268,-6.78775 -7.03736,-10.78509 -0.69214,-2.3439 -0.84874,-6.17445 -1.05837,-7.46001"
     id="path4454"
     inkscape:connector-curvature="0"
     sodipodi:nodetypes="cssssssssssssssssssssssssssc" />
  <path
     style="fill:none;fill-rule:evenodd;stroke:#000000;stroke-width:1.21606;stroke-linecap:butt;stroke-linejoin:miter;stroke-miterlimit:4;stroke-dasharray:none;stroke-opacity:1"
     d="m 519.64315,228.10105 c 0,0 -0.55369,11.54775 -0.53664,17.32574 0.0188,6.36474 -0.005,12.75614 0.70375,19.08132 0.56408,5.03389 1.14051,10.15255 2.81495,14.93318 0.82774,2.36324 3.13498,4.16254 3.51868,6.63698 0.60297,3.88854 -1.84543,7.68869 -2.11122,11.61472 -0.35525,5.2475 0.17253,10.53021 0.70374,15.76282 0.4525,4.45736 2.02803,8.79447 2.11121,13.27397 0.0724,3.89922 -1.54924,7.71739 -1.40748,11.61471 0.13316,3.66084 1.45294,7.18146 2.11122,10.78509 0.50404,2.75927 1.5298,5.49399 1.40746,8.29625 -0.16205,3.71192 -2.34193,7.09984 -2.81493,10.78507 -0.49288,3.84007 -0.83233,7.83366 0,11.6147 0.72059,3.27342 2.86413,6.06164 4.22242,9.12588 0.97383,2.19692 2.76616,4.23439 2.81495,6.63698 0.054,2.65932 -2.24605,4.86828 -2.81495,7.46659 -0.71155,3.24979 -0.69474,6.62872 -0.70374,9.95548 -0.01,3.60266 0.26358,7.2094 0.70374,10.78509 0.48076,3.90552 2.98693,7.77837 2.11119,11.61468 -0.53265,2.33336 -3.11221,3.68708 -4.22241,5.80739 -2.30991,4.41155 -3.5859,9.30759 -4.92615,14.10354 -1.52169,5.4452 -0.29333,11.9489 -3.51868,16.59248 -2.06057,2.96663 -6.74447,3.1116 -9.14858,5.80736 -2.86361,3.21101 -3.60638,7.81785 -5.6299,11.61471 -2.40904,4.52023 -4.41354,9.37999 -7.74112,13.27399 -2.55718,2.99246 -6.03839,5.05396 -9.14858,7.46657 -3.68366,2.85746 -8.08448,4.88274 -11.25978,8.29623 -2.17123,2.3341 -2.39681,6.40249 -5.10209,8.08883 -2.75289,1.71602 -6.44945,0.70558 -9.67641,1.03701 -2.81369,0.28898 -5.75575,-0.0474 -8.44483,0.82967 -3.10651,1.0132 -5.22098,4.44502 -8.44483,4.97771 -4.01874,0.66403 -7.89043,-2.52098 -11.96353,-2.48886 -5.04866,0.0398 -9.90569,1.99686 -14.77846,3.31848 -2.06671,0.56055 -4.00543,2.289 -6.12021,1.95254 -4.36969,-0.69522 -7.73247,-4.54211 -10.7695,-7.75987 -2.69967,-2.86032 -4.97193,-6.2656 -6.33362,-9.95551 -1.74047,-4.71633 -0.89394,-10.05556 -2.11121,-14.93319 -0.37405,-1.49884 -1.58341,-4.35553 -1.58341,-4.35553"
     id="path4456"
     inkscape:connector-curvature="0"
     sodipodi:nodetypes="cssssssssssssssssssssssssssssssssssssc" />
  <path
     style="fill:none;fill-rule:evenodd;stroke:#000000;stroke-width:1.21606;stroke-linecap:butt;stroke-linejoin:miter;stroke-miterlimit:4;stroke-dasharray:none;stroke-opacity:1"
     d="m 162.3119,532.06134 c 0,0 13.34933,-4.17486 19.70464,-7.05181 7.57599,-3.42953 16.4282,-8.6379 19.44642,-14.03918"
     id="path4458"
     inkscape:connector-curvature="0"
     sodipodi:nodetypes="csc" />
  <path
     style="fill:none;fill-rule:evenodd;stroke:#000000;stroke-width:1.21606;stroke-linecap:butt;stroke-linejoin:miter;stroke-miterlimit:4;stroke-dasharray:none;stroke-opacity:1"
     d="m 211.77963,501.1475 c 0,0 7.21185,-7.67253 11.75739,-10.15248 4.29365,-2.34252 9.41632,-2.6575 14.07474,-4.14811 3.79531,-1.21443 11.29882,-3.9051 11.29882,-3.9051"
     id="path4460"
     inkscape:connector-curvature="0"
     sodipodi:nodetypes="cssc" />
  <path
     style="fill:none;fill-rule:evenodd;stroke:#000000;stroke-width:1.21606;stroke-linecap:butt;stroke-linejoin:miter;stroke-miterlimit:4;stroke-dasharray:none;stroke-opacity:1"
     d="m 148.64941,425.79419 c 0,0 10.84371,3.60796 16.47744,3.80875 3.55963,0.12687 7.04045,-1.08693 10.55606,-1.65923 1.64354,-0.26755 3.30359,-0.45528 4.92615,-0.82959 2.85956,-0.65967 8.44487,-2.48889 8.44487,-2.48889"
     id="path4462"
     inkscape:connector-curvature="0"
     sodipodi:nodetypes="csssc" />
  <path
     style="fill:none;fill-rule:evenodd;stroke:#000000;stroke-width:1.21606;stroke-linecap:butt;stroke-linejoin:miter;stroke-miterlimit:4;stroke-dasharray:none;stroke-opacity:1"
     d="m 200.81132,392.12326 c 5.86437,0.11744 9.67355,-0.44832 15.68833,-0.68289 6.01478,-0.23457 14.38276,-0.33762 11.7611,0.82965"
     id="path4464"
     inkscape:connector-curvature="0"
     sodipodi:nodetypes="czc" />
  <path
     style="fill:none;fill-rule:evenodd;stroke:#000000;stroke-width:1.21606;stroke-linecap:butt;stroke-linejoin:miter;stroke-miterlimit:4;stroke-dasharray:none;stroke-opacity:1"
     d="m 154.90132,385.4403 c 0,0 8.21832,-0.36431 12.32576,-0.23867 8.41124,0.25729 15.32342,0.0588 21.78414,2.86989"
     id="path4466"
     inkscape:connector-curvature="0"
     sodipodi:nodetypes="csc" />
  <path
     style="fill:none;fill-rule:evenodd;stroke:#000000;stroke-width:1.21606;stroke-linecap:butt;stroke-linejoin:miter;stroke-miterlimit:4;stroke-dasharray:none;stroke-opacity:1"
     d="m 200.7296,349.03325 c 0,0 8.01201,3.44415 12.25137,3.41483 4.27227,-0.0296 12.2977,-3.61181 12.2977,-3.61181"
     id="path4468"
     inkscape:connector-curvature="0"
     sodipodi:nodetypes="csc" />
  <path
     style="fill:none;fill-rule:evenodd;stroke:#000000;stroke-width:1.21606;stroke-linecap:butt;stroke-linejoin:miter;stroke-miterlimit:4;stroke-dasharray:none;stroke-opacity:1"
     d="m 156.97718,340.59034 c 0,0 5.09768,4.17505 8.14967,5.22074 5.79346,1.98499 12.23278,0.80628 18.29716,1.65927 2.14167,0.30124 6.37267,1.21926 6.37267,1.21926"
     id="path4470"
     inkscape:connector-curvature="0"
     sodipodi:nodetypes="cssc" />
  <path
     style="fill:none;fill-rule:evenodd;stroke:#000000;stroke-width:1.21606;stroke-linecap:butt;stroke-linejoin:miter;stroke-miterlimit:4;stroke-dasharray:none;stroke-opacity:1"
     d="m 198.94526,425.16155 c 0,0 12.75029,0.64622 18.96188,-0.53632 3.18671,-0.60668 6.03856,-2.39596 9.14856,-3.3185 2.89336,-0.85828 8.81806,-2.05321 8.81806,-2.05321"
     id="path4472"
     inkscape:connector-curvature="0"
     sodipodi:nodetypes="cssc" />
  <path
     style="fill:none;fill-rule:evenodd;stroke:#000000;stroke-width:1.21606;stroke-linecap:butt;stroke-linejoin:miter;stroke-miterlimit:4;stroke-dasharray:none;stroke-opacity:1"
     d="m 160.61292,298.00714 c 0,0 9.82055,1.10638 14.71813,1.75992 2.82035,0.37635 5.60711,1.03647 8.44485,1.24443 2.10556,0.1543 4.29692,-0.55591 6.33363,0 0.0929,0.0254 0.24878,0.14674 0.24878,0.14674"
     id="path4474"
     inkscape:connector-curvature="0"
     sodipodi:nodetypes="csssc" />
  <path
     style="fill:none;fill-rule:evenodd;stroke:#000000;stroke-width:1.21606;stroke-linecap:butt;stroke-linejoin:miter;stroke-miterlimit:4;stroke-dasharray:none;stroke-opacity:1"
     d="m 202.07304,303.08554 c 0,0 6.82675,0.34089 10.2042,0.82963 8.1846,1.18437 9.27535,0.67071 13.65883,-1.09771"
     id="path4476"
     inkscape:connector-curvature="0"
     sodipodi:nodetypes="csc" />
  <path
     style="fill:none;fill-rule:evenodd;stroke:#000000;stroke-width:1.21606;stroke-linecap:butt;stroke-linejoin:miter;stroke-miterlimit:4;stroke-dasharray:none;stroke-opacity:1"
     d="m 162.13597,259.94518 c 0,0 7.38687,2.22028 11.08386,3.31849 1.87544,0.55711 3.69352,1.37983 5.6299,1.65923 2.90217,0.41876 5.86446,0 8.79669,0 1.29019,0 3.87057,0 3.87057,0"
     id="path4478"
     inkscape:connector-curvature="0"
     sodipodi:nodetypes="csssc" />
  <path
     style="fill:none;fill-rule:evenodd;stroke:#000000;stroke-width:1.21606;stroke-linecap:butt;stroke-linejoin:miter;stroke-miterlimit:4;stroke-dasharray:none;stroke-opacity:1"
     d="m 228.63913,261.08592 c 0,0 6.64756,-8.78917 9.32448,-13.58508 1.69501,-3.03673 2.49561,-6.52191 4.22244,-9.54066 1.09864,-1.92058 2.74187,-3.48946 3.87054,-5.39255 1.17387,-1.97931 2.99088,-6.22216 2.99088,-6.22216"
     id="path4480"
     inkscape:connector-curvature="0"
     sodipodi:nodetypes="csssc" />
  <path
     style="fill:none;fill-rule:evenodd;stroke:#000000;stroke-width:1.21606;stroke-linecap:butt;stroke-linejoin:miter;stroke-miterlimit:4;stroke-dasharray:none;stroke-opacity:1"
     d="m 264.00187,218.25664 c 0,0 5.23342,-3.08596 7.38925,-5.18512 1.97395,-1.92206 3.51928,-4.26815 4.92617,-6.637 0.85578,-1.44091 1.20906,-3.15055 2.11119,-4.56291 0.63442,-0.99323 2.28716,-2.69628 2.28716,-2.69628"
     id="path4482"
     inkscape:connector-curvature="0"
     sodipodi:nodetypes="csssc" />
  <path
     style="fill:none;fill-rule:evenodd;stroke:#000000;stroke-width:1.21606;stroke-linecap:butt;stroke-linejoin:miter;stroke-miterlimit:4;stroke-dasharray:none;stroke-opacity:1"
     d="m 264.00187,274.46356 c 1.75937,-2.90368 6.21807,-6.58753 7.38925,-10.78507 0.5583,-2.00095 -0.64285,-4.16529 -0.35185,-6.22218 0.59529,-4.20778 3.50854,-7.84023 4.22242,-12.02952 0.2555,-1.49936 0,-4.56293 0,-4.56293"
     id="path4484"
     inkscape:connector-curvature="0"
     sodipodi:nodetypes="csssc" />
  <path
     style="fill:none;fill-rule:evenodd;stroke:#000000;stroke-width:1.21606;stroke-linecap:butt;stroke-linejoin:miter;stroke-miterlimit:4;stroke-dasharray:none;stroke-opacity:1"
     d="m 304.99455,238.37499 c 0,0 3.16683,-8.8493 4.75025,-13.27395 1.28812,-3.59948 1.38578,-7.40453 2.639,-10.99251"
     id="path4486"
     inkscape:connector-curvature="0"
     sodipodi:nodetypes="csc" />
  <path
     style="fill:none;fill-rule:evenodd;stroke:#000000;stroke-width:1.21606;stroke-linecap:butt;stroke-linejoin:miter;stroke-miterlimit:4;stroke-dasharray:none;stroke-opacity:1"
     d="m 303.00778,285.12715 c 0,0 0.50829,-7.41583 1.10712,-11.07839 0.59502,-3.63927 1.61949,-7.19529 2.46308,-10.78509 0.98775,-4.20329 3.04239,-12.59101 3.04239,-12.59101"
     id="path4488"
     inkscape:connector-curvature="0"
     sodipodi:nodetypes="cssc" />
  <path
     style="fill:none;fill-rule:evenodd;stroke:#000000;stroke-width:1.21606;stroke-linecap:butt;stroke-linejoin:miter;stroke-miterlimit:4;stroke-dasharray:none;stroke-opacity:1"
     d="m 347.30674,298.52261 c 0,0 -0.33555,-10.52556 0.088,-15.76282 0.30463,-3.76679 1.04499,-7.48896 1.75933,-11.19991 0.69705,-3.62111 2.46308,-10.78509 2.46308,-10.78509"
     id="path4490"
     inkscape:connector-curvature="0"
     sodipodi:nodetypes="cssc" />
  <path
     style="fill:none;fill-rule:evenodd;stroke:#000000;stroke-width:1.21606;stroke-linecap:butt;stroke-linejoin:miter;stroke-miterlimit:4;stroke-dasharray:none;stroke-opacity:1"
     d="m 387.56808,301.38028 c 0,-1.65923 -0.85536,-11.57796 -1.11597,-17.37606 -0.20496,-4.55983 -1.0556,-12.02952 -0.35187,-13.68877 0.70373,-1.65923 1.28306,-6.43998 1.28306,-6.43998"
     id="path4492"
     inkscape:connector-curvature="0"
     sodipodi:nodetypes="cssc" />
  <path
     style="fill:none;fill-rule:evenodd;stroke:#000000;stroke-width:1.21606;stroke-linecap:butt;stroke-linejoin:miter;stroke-miterlimit:4;stroke-dasharray:none;stroke-opacity:1"
     d="m 425.61256,292.0366 c 0,0 -1.55675,-4.97114 -1.9268,-7.53809 -0.37887,-2.62819 0.0279,-5.32431 -0.28746,-7.96088 -0.48604,-4.06407 -1.59891,-8.02876 -2.4631,-12.02952 -0.58456,-2.70621 -1.84105,-8.09925 -1.84105,-8.09925"
     id="path4494"
     inkscape:connector-curvature="0"
     sodipodi:nodetypes="csssc" />
  <path
     style="fill:none;fill-rule:evenodd;stroke:#000000;stroke-width:1.21606;stroke-linecap:butt;stroke-linejoin:miter;stroke-miterlimit:4;stroke-dasharray:none;stroke-opacity:1"
     d="m 468.6259,267.56276 c 0,0 -4.41484,-6.68349 -6.27325,-10.22362 -2.31555,-4.41095 -4.40932,-8.9626 -6.04579,-13.66793 -0.83355,-2.39669 -1.90512,-7.37028 -1.90512,-7.37028"
     id="path4496"
     inkscape:connector-curvature="0"
     sodipodi:nodetypes="cssc" />
  <path
     style="fill:none;fill-rule:evenodd;stroke:#000000;stroke-width:1.21606;stroke-linecap:butt;stroke-linejoin:miter;stroke-miterlimit:4;stroke-dasharray:none;stroke-opacity:1"
     d="m 451.46608,227.0076 c 0,0 -2.77324,-10.74072 -4.4926,-16.01015 -1.14452,-3.50768 -3.87055,-10.37027 -3.87055,-10.37027"
     id="path4498"
     inkscape:connector-curvature="0"
     sodipodi:nodetypes="csc" />
  <path
     style="fill:none;fill-rule:evenodd;stroke:#000000;stroke-width:1.21606;stroke-linecap:butt;stroke-linejoin:miter;stroke-miterlimit:4;stroke-dasharray:none;stroke-opacity:1"
     d="m 416.36094,246.77187 c 0,0 -1.19952,-11.98651 -2.11122,-17.93753 -0.5842,-3.81325 -2.15023,-11.37172 -2.15023,-11.37172"
     id="path4500"
     inkscape:connector-curvature="0"
     sodipodi:nodetypes="csc" />
  <path
     style="fill:none;fill-rule:evenodd;stroke:#000000;stroke-width:1.21606;stroke-linecap:butt;stroke-linejoin:miter;stroke-miterlimit:4;stroke-dasharray:none;stroke-opacity:1"
     d="m 381.34118,251.23415 c 0,0 -2.59326,-7.63653 -2.98203,-11.61472 -0.20205,-2.06752 0.62233,-4.16248 0.35184,-6.22216 -0.21288,-1.62096 -1.53187,-4.65927 -1.53187,-4.65927"
     id="path4502"
     inkscape:connector-curvature="0"
     sodipodi:nodetypes="cssc" />
  <path
     style="fill:none;fill-rule:evenodd;stroke:#000000;stroke-width:1.21606;stroke-linecap:butt;stroke-linejoin:miter;stroke-miterlimit:4;stroke-dasharray:none;stroke-opacity:1"
     d="m 339.30174,243.97494 c 0,0 1.72566,-6.20129 2.46308,-9.33324 0.72818,-3.0927 1.9353,-9.33326 1.9353,-9.33326"
     id="path4504"
     inkscape:connector-curvature="0"
     sodipodi:nodetypes="csc" />
  <path
     style="fill:none;fill-rule:evenodd;stroke:#000000;stroke-width:1.21606;stroke-linecap:butt;stroke-linejoin:miter;stroke-miterlimit:4;stroke-dasharray:none;stroke-opacity:1"
     d="m 526.31979,286.07827 c 1.40751,0 6.61546,2.14309 10.02826,2.07406 3.14229,-0.0636 9.1486,-2.28148 9.1486,-2.28148"
     id="path4506"
     inkscape:connector-curvature="0"
     sodipodi:nodetypes="csc" />
  <path
     style="fill:none;fill-rule:evenodd;stroke:#000000;stroke-width:1.21606;stroke-linecap:butt;stroke-linejoin:miter;stroke-miterlimit:4;stroke-dasharray:none;stroke-opacity:1"
     d="m 487.96616,295.82634 c 0,0 8.35577,-0.0958 12.49134,-0.62223 4.75204,-0.60489 14.07475,-2.90366 14.07475,-2.90366"
     id="path4508"
     inkscape:connector-curvature="0"
     sodipodi:nodetypes="csc" />
  <path
     style="fill:none;fill-rule:evenodd;stroke:#000000;stroke-width:1.21606;stroke-linecap:butt;stroke-linejoin:miter;stroke-miterlimit:4;stroke-dasharray:none;stroke-opacity:1"
     d="m 490.07738,337.51488 c 0,0 5.19068,1.97692 7.91701,2.07406 3.75636,0.13384 7.44921,-1.11618 11.08386,-2.07406 3.2973,-0.86897 9.67641,-3.31852 9.67641,-3.31852"
     id="path4510"
     inkscape:connector-curvature="0"
     sodipodi:nodetypes="cssc" />
  <path
     style="fill:none;fill-rule:evenodd;stroke:#000000;stroke-width:1.21606;stroke-linecap:butt;stroke-linejoin:miter;stroke-miterlimit:4;stroke-dasharray:none;stroke-opacity:1"
     d="m 526.84762,326.31497 c 2.46307,-1.24441 9.80681,-3.46027 14.77848,-4.97771 2.50087,-0.76331 7.56514,-2.07407 7.56514,-2.07407"
     id="path4512"
     inkscape:connector-curvature="0"
     sodipodi:nodetypes="csc" />
  <path
     style="fill:none;fill-rule:evenodd;stroke:#000000;stroke-width:1.21606;stroke-linecap:butt;stroke-linejoin:miter;stroke-miterlimit:4;stroke-dasharray:none;stroke-opacity:1"
     d="m 528.95882,357.63323 c 0,0 5.99558,0.50275 8.97264,0.20739 3.76812,-0.37384 11.08385,-2.48886 11.08385,-2.48886"
     id="path4514"
     inkscape:connector-curvature="0"
     sodipodi:nodetypes="csc" />
  <path
     style="fill:none;fill-rule:evenodd;stroke:#000000;stroke-width:1.21606;stroke-linecap:butt;stroke-linejoin:miter;stroke-miterlimit:4;stroke-dasharray:none;stroke-opacity:1"
     d="m 492.8923,381.69225 c 0,0 6.22105,1.1547 9.32453,0.82963 3.46141,-0.36256 6.86915,-1.50463 9.98249,-3.06024 2.5476,-1.27294 6.90719,-5.02858 6.90719,-5.02858"
     id="path4516"
     inkscape:connector-curvature="0"
     sodipodi:nodetypes="cssc" />
  <path
     style="fill:none;fill-rule:evenodd;stroke:#000000;stroke-width:1.21606;stroke-linecap:butt;stroke-linejoin:miter;stroke-miterlimit:4;stroke-dasharray:none;stroke-opacity:1"
     d="m 533.00531,395.79586 c 0,0 5.27192,-0.51844 7.91704,-0.62222 2.34399,-0.092 4.73257,0.4366 7.03737,0 2.22873,-0.42219 6.33363,-2.48886 6.33363,-2.48886"
     id="path4518"
     inkscape:connector-curvature="0"
     sodipodi:nodetypes="cssc" />
  <path
     style="fill:none;fill-rule:evenodd;stroke:#000000;stroke-width:1.21606;stroke-linecap:butt;stroke-linejoin:miter;stroke-miterlimit:4;stroke-dasharray:none;stroke-opacity:1"
     d="m 496.9388,420.06226 c 0,0 7.53508,-0.89703 11.2598,-0.41477 4.2541,0.5508 8.87719,1.16825 12.31539,3.73331 1.19496,0.8915 2.46307,3.73332 2.46307,3.73332"
     id="path4520"
     inkscape:connector-curvature="0"
     sodipodi:nodetypes="cssc" />
  <path
     style="fill:none;fill-rule:evenodd;stroke:#000000;stroke-width:1.21606;stroke-linecap:butt;stroke-linejoin:miter;stroke-miterlimit:4;stroke-dasharray:none;stroke-opacity:1"
     d="m 532.30158,435.4103 c 0,0 7.89119,2.40319 11.96351,2.48889 2.55505,0.0538 7.56517,-1.24441 7.56517,-1.24441"
     id="path4522"
     inkscape:connector-curvature="0"
     sodipodi:nodetypes="csc" />
  <path
     style="fill:none;fill-rule:evenodd;stroke:#000000;stroke-width:1.21606;stroke-linecap:butt;stroke-linejoin:miter;stroke-miterlimit:4;stroke-dasharray:none;stroke-opacity:1"
     d="m 519.98618,471.70631 c 0,0 5.27534,4.26366 8.26891,5.80736 3.87005,1.99567 12.3154,4.35551 12.3154,4.35551"
     id="path4524"
     inkscape:connector-curvature="0"
     sodipodi:nodetypes="csc" />
  <path
     style="fill:none;fill-rule:evenodd;stroke:#000000;stroke-width:1.21606;stroke-linecap:butt;stroke-linejoin:miter;stroke-miterlimit:4;stroke-dasharray:none;stroke-opacity:1"
     d="m 488.66989,450.55091 c 0,0 7.59481,6.00406 12.13945,7.25923 2.3742,0.65572 5.06152,-0.80525 7.38926,0 2.32617,0.8047 5.80582,4.56291 5.80582,4.56291"
     id="path4526"
     inkscape:connector-curvature="0"
     sodipodi:nodetypes="cssc" />
  <path
     style="fill:none;fill-rule:evenodd;stroke:#000000;stroke-width:1.21606;stroke-linecap:butt;stroke-linejoin:miter;stroke-miterlimit:4;stroke-dasharray:none;stroke-opacity:1"
     d="m 476.17857,474.81739 c 0,0 8.99133,3.91463 12.66724,7.05179 3.61092,3.0817 8.79674,11.19991 8.79674,11.19991"
     id="path4528"
     inkscape:connector-curvature="0"
     sodipodi:nodetypes="csc" />
  <path
     style="fill:none;fill-rule:evenodd;stroke:#000000;stroke-width:1.21606;stroke-linecap:butt;stroke-linejoin:miter;stroke-miterlimit:4;stroke-dasharray:none;stroke-opacity:1"
     d="m 497.99439,501.78012 c 0,0 2.65384,7.03224 4.92617,9.95547 2.086,2.68353 5.26539,4.30814 7.74112,6.63698 1.9638,1.84729 5.62988,5.80736 5.62988,5.80736"
     id="path4530"
     inkscape:connector-curvature="0"
     sodipodi:nodetypes="cssc" />
  <path
     style="fill:none;fill-rule:evenodd;stroke:#000000;stroke-width:1.21606;stroke-linecap:butt;stroke-linejoin:miter;stroke-miterlimit:4;stroke-dasharray:none;stroke-opacity:1"
     d="m 428.85224,502.19495 c 0,0 -1.92029,11.08936 -1.23153,16.59246 0.34407,2.74904 2.63903,7.88138 2.63903,7.88138"
     id="path4532"
     inkscape:connector-curvature="0"
     sodipodi:nodetypes="csc" />
  <path
     style="fill:none;fill-rule:evenodd;stroke:#000000;stroke-width:1.21606;stroke-linecap:butt;stroke-linejoin:miter;stroke-miterlimit:4;stroke-dasharray:none;stroke-opacity:1"
     d="m 445.0382,533.09837 c 0,0 2.66686,14.18697 3.34276,21.36279 0.33731,3.58109 -0.89512,7.41121 0.35185,10.78509 1.10557,2.9913 3.78214,5.15751 5.98176,7.46659 0.21597,0.22672 0.70375,0.62221 0.70375,0.62221"
     id="path4534"
     inkscape:connector-curvature="0"
     sodipodi:nodetypes="csssc" />
  <path
     style="fill:none;fill-rule:evenodd;stroke:#000000;stroke-width:1.21606;stroke-linecap:butt;stroke-linejoin:miter;stroke-miterlimit:4;stroke-dasharray:none;stroke-opacity:1"
     d="m 417.44152,586.57344 c 0,0 -1.81307,-7.82827 -2.48807,-11.78656 -0.91419,-5.36088 -2.09829,-10.73938 -2.11122,-16.17763 -0.009,-3.76265 1.45641,-7.43755 1.40749,-11.19989 -0.049,-3.76398 -1.69898,-11.16436 -1.69898,-11.16436"
     id="path4536"
     inkscape:connector-curvature="0"
     sodipodi:nodetypes="csssc" />
  <path
     style="fill:none;fill-rule:evenodd;stroke:#000000;stroke-width:1.21606;stroke-linecap:butt;stroke-linejoin:miter;stroke-miterlimit:4;stroke-dasharray:none;stroke-opacity:1"
     d="m 373.63851,581.36616 c 0,0 3.74699,-7.83338 4.41196,-12.06532 0.76811,-4.88833 -0.17959,-9.89606 -0.3951,-14.83968 -0.16892,-3.875 -0.63619,-7.73664 -0.70371,-11.61473 -0.0397,-2.28187 1.76883,-5.21003 0.17592,-6.8444 -0.0409,-0.042 -0.17592,0 -0.17592,0"
     id="path4538"
     inkscape:connector-curvature="0"
     sodipodi:nodetypes="cssssc" />
  <path
     style="fill:none;fill-rule:evenodd;stroke:#000000;stroke-width:1.21606;stroke-linecap:butt;stroke-linejoin:miter;stroke-miterlimit:4;stroke-dasharray:none;stroke-opacity:1"
     d="m 357.42296,532.47616 c 7.34714,1.91065 14.80036,3.05871 22.34365,3.73331 5.51643,1.24353 9.81444,1.65321 14.42662,-1.65925 2.58669,-1.76721 7.38921,-5.80738 7.38921,-5.80738"
     id="path4540"
     inkscape:connector-curvature="0"
     sodipodi:nodetypes="cssc" />
  <path
     style="fill:none;fill-rule:evenodd;stroke:#000000;stroke-width:1.21606;stroke-linecap:butt;stroke-linejoin:miter;stroke-miterlimit:4;stroke-dasharray:none;stroke-opacity:1"
     d="m 316.25435,512.77262 c 0,0 5.61019,10.25031 8.79672,15.14059 2.61325,4.01048 6.38971,8.7881 8.44485,11.61472 2.05514,2.82662 6.83539,5.36973 10.38012,7.88143 1.43343,1.01569 4.39836,2.9037 4.39836,2.9037"
     id="path4542"
     inkscape:connector-curvature="0"
     sodipodi:nodetypes="cszsc" />
  <path
     id="C18.9"
     style="font-size:33.2768px;font-family:'.Arial Hebrew Desk Interface';-inkscape-font-specification:'.Arial Hebrew Desk Interface, Normal';display:inline;fill:none;fill-rule:evenodd;stroke:#000000;stroke-width:1;stroke-dasharray:none;image-rendering:optimizeQuality;shape-rendering:geometricPrecision;text-rendering:geometricPrecision"
     d="m 618.93383,143.71544 q -2.7719,3.62043 -7.41057,3.62043 -4.18613,0 -6.84489,-2.65875 -2.60219,-2.71532 -2.60219,-6.78832 0,-4.35583 2.99817,-7.354 3.05474,-2.99817 7.24087,-2.99817 5.31751,0 8.42882,3.95985 3.16787,3.95985 3.16787,10.63501 0,7.24086 -3.28101,11.70984 -3.22446,4.46898 -8.99452,4.46898 -3.05473,0 -5.54378,-1.69709 -2.43247,-1.75366 -2.99817,-4.01642 l 4.80839,-0.7354 q 1.13138,2.14964 4.12955,2.14964 3.22446,0 5.03468,-2.7719 1.86678,-2.82846 1.86678,-7.5237 z m -0.90511,-5.93977 q 0,-2.88504 -1.47081,-4.52555 -1.41423,-1.64049 -3.95985,-1.64049 -2.20619,0 -3.79014,1.75363 -1.58393,1.69709 -1.58393,4.41241 0,2.37592 1.4708,3.95985 1.47081,1.52736 3.8467,1.52736 2.26278,0 3.84672,-1.52736 1.64051,-1.58393 1.64051,-3.95985 z m 15.97264,4.47502 A 21.750674,21.750674 0 0 1 612.25068,164.00135 21.750674,21.750674 0 0 1 590.5,142.25069 21.750674,21.750674 0 0 1 612.25068,120.5 a 21.750674,21.750674 0 0 1 21.75068,21.75069 z"
     inkscape:label="C18.9" />
  <path
     id="C18.8"
     style="font-size:33.2768px;font-family:'.Arial Hebrew Desk Interface';-inkscape-font-specification:'.Arial Hebrew Desk Interface, Normal';display:inline;fill:none;fill-rule:evenodd;stroke:#000000;stroke-width:1;stroke-dasharray:none;image-rendering:optimizeQuality;shape-rendering:geometricPrecision;text-rendering:geometricPrecision"
     d="m 606.21,80.95843 q -3.28102,-2.26276 -3.28102,-6.10946 0,-3.84672 2.77191,-5.88321 2.82845,-2.03649 6.50545,-2.03649 3.62044,0 6.44891,2.03649 2.82846,2.03649 2.82846,5.88321 0,3.8467 -3.28102,6.10946 v 0.0567 q 2.2062,1.01825 3.5073,3.05474 1.35765,1.97992 1.35765,4.35583 0,3.84672 -2.99816,6.61861 -2.99817,2.7719 -7.86314,2.7719 -5.03466,0 -7.97626,-2.7719 -2.88504,-2.82846 -2.88504,-6.61861 0,-2.37591 1.30111,-4.35583 1.35766,-2.03649 3.56385,-3.05474 z m 5.99634,-1.58393 q 1.69709,0 3.05474,-1.01824 1.41423,-1.01825 1.41423,-2.94161 0,-2.09306 -1.35766,-3.1113 -1.30108,-1.07483 -3.11131,-1.07483 -1.97992,0 -3.22444,1.13139 -1.24453,1.13138 -1.24453,3.05474 0,1.86678 1.35767,2.94161 1.41423,1.01824 3.1113,1.01824 z m 0,14.14232 q 2.14963,0 3.79014,-1.24453 1.64051,-1.24452 1.64051,-3.84671 0,-2.09306 -1.58393,-3.5073 -1.58394,-1.41423 -3.84672,-1.41423 -2.20619,0 -3.8467,1.41423 -1.58394,1.41424 -1.58394,3.5073 0,2.60219 1.64051,3.84671 1.64051,1.24453 3.79013,1.24453 z M 634.00133,82.25068 A 21.750674,21.750674 0 0 1 612.25068,104.00136 21.750674,21.750674 0 0 1 590.5,82.25068 21.750674,21.750674 0 0 1 612.25068,60.5 21.750674,21.750674 0 0 1 634.00133,82.25068 Z"
     inkscape:label="C18.8" />
</svg>
