<?xml version="1.0" encoding="UTF-8" standalone="no"?>
<!-- Created with Inkscape (http://www.inkscape.org/) -->

<svg
   id="svg4136"
   version="1.1"
   inkscape:version="1.3 (0e150ed, 2023-07-21)"
   width="700"
   height="750"
   viewBox="0 0 700 750"
   sodipodi:docname="level3_C15_neu.svg"
   xmlns:inkscape="http://www.inkscape.org/namespaces/inkscape"
   xmlns:sodipodi="http://sodipodi.sourceforge.net/DTD/sodipodi-0.dtd"
   xmlns="http://www.w3.org/2000/svg"
   xmlns:svg="http://www.w3.org/2000/svg"
   xmlns:rdf="http://www.w3.org/1999/02/22-rdf-syntax-ns#"
   xmlns:cc="http://creativecommons.org/ns#"
   xmlns:dc="http://purl.org/dc/elements/1.1/">
  <metadata
     id="metadata4142">
    <rdf:RDF>
      <cc:Work
         rdf:about="">
        <dc:format>image/svg+xml</dc:format>
        <dc:type
           rdf:resource="http://purl.org/dc/dcmitype/StillImage" />
      </cc:Work>
    </rdf:RDF>
  </metadata>
  <defs
     id="defs4140" />
  <sodipodi:namedview
     pagecolor="#ffffff"
     bordercolor="#666666"
     borderopacity="1"
     objecttolerance="10"
     gridtolerance="10"
     guidetolerance="10"
     inkscape:pageopacity="0"
     inkscape:pageshadow="2"
     inkscape:window-width="1344"
     inkscape:window-height="726"
     id="namedview4138"
     showgrid="false"
     inkscape:zoom="0.52413789"
     inkscape:cx="20.032896"
     inkscape:cy="363.45397"
     inkscape:window-x="0"
     inkscape:window-y="25"
     inkscape:window-maximized="0"
     inkscape:current-layer="svg4136"
     inkscape:showpageshadow="2"
     inkscape:pagecheckerboard="0"
     inkscape:deskcolor="#d1d1d1" />
  <path
     style="fill:none;fill-rule:evenodd;stroke:#000000;stroke-width:1.40471;stroke-linecap:butt;stroke-linejoin:miter;stroke-miterlimit:4;stroke-dasharray:1.40471, 1.40471;stroke-dashoffset:0;stroke-opacity:1"
     d="m 338.27331,280.20414 0.24327,11.78374 0.15545,6.30413 0.04,4.66502 -0.17206,3.95875 0.16832,10.5925 0.0274,13.76622 -0.10976,13.14095 0.0418,9.70676 0.0953,0.52729 -0.54334,20.31115 32.07814,-0.37272 19.08196,0.12806 -0.38422,-19.21004 V 343.7238 l -0.12792,-13.70315 V 319.0069 l -0.25612,-16.64867 v -9.73311 -12.67862 l -25.61336,0.25615 z"
     id="C15.3"
     inkscape:connector-curvature="0"
     sodipodi:nodetypes="cccccccccccccccccccccc"
     inkscape:label="C15.3 Ösophagus, oberes Drittel" />
  <path
     style="fill:none;fill-rule:evenodd;stroke:#000000;stroke-width:1.40471;stroke-linecap:butt;stroke-linejoin:miter;stroke-miterlimit:4;stroke-dasharray:1.40471, 1.40471;stroke-dashoffset:0;stroke-opacity:1"
     d="m 360.83443,374.68256 -22.59292,0.2539 0.0749,7.13092 0.30013,8.94961 -0.28729,7.15666 -0.0308,8.6624 -0.36222,8.17586 0.0569,8.42447 0.38796,9.82944 -0.3561,22.38835 -0.93661,19.69499 53.02353,0.72993 -0.25992,-10.39253 -0.0878,-17.16942 -0.28189,-15.90161 -0.15007,-13.79039 0.16832,-14.54059 0.0934,-29.70801 z"
     id="C15.4"
     inkscape:connector-curvature="0"
     sodipodi:nodetypes="ccccccccccccccccccc"
     inkscape:label="C15.4 Ösophagus, mittleres Drittel" />
  <path
     style="fill:none;fill-rule:evenodd;stroke:#000000;stroke-width:1.40471;stroke-linecap:butt;stroke-linejoin:miter;stroke-miterlimit:4;stroke-dasharray:1.40471, 1.40471;stroke-dashoffset:0;stroke-opacity:1"
     d="m 345.70496,475.87218 -8.46834,-0.0682 -0.18098,19.5603 v 11.22905 14.308 l 0.18098,13.94577 0.18121,18.65474 0.18119,9.78015 -0.41527,8.45553 19.18145,0.27811 13.70248,-0.15007 5.63874,0.0819 4.75444,0.3772 10.04539,-0.12806 0.1592,-24.30946 -0.36223,-16.48137 V 517.46 l -0.18097,-17.56807 -0.066,-24.07301 z"
     id="C15.5"
     inkscape:connector-curvature="0"
     sodipodi:nodetypes="cccccccccccccccccccc"
     inkscape:label="C15.5 Ösophagus, unteres Drittel" />
  <path
     style="opacity:1;fill:none;fill-rule:evenodd;stroke:#000000;stroke-width:1;stroke-linecap:butt;stroke-linejoin:miter;stroke-miterlimit:4;stroke-dasharray:none;stroke-opacity:1"
     d="m 343.51156,280.25802 c 0,0 1.6034,18.75672 3.47969,27.95892 1.91453,9.38969 7.90222,27.64127 7.90222,27.64127 l 24.19547,-0.0163 c -2.32777,-12.4079 -7.13701,-18.1525 -8.93979,-30.22651 -1.25769,-8.4233 -2.07063,-17.40699 -2.07631,-25.46345 z"
     id="C15.0"
     inkscape:connector-curvature="0"
     sodipodi:nodetypes="caccscc"
     inkscape:label="C15.0 Zervikaler Ösophagus" />
  <path
     style="fill:none;fill-rule:evenodd;stroke:#000000;stroke-width:1;stroke-linecap:butt;stroke-linejoin:miter;stroke-miterlimit:4;stroke-dasharray:none;stroke-opacity:1"
     d="m 354.89347,335.85821 c 0,0 2.05959,20.10034 2.3414,30.18993 0.44516,15.93809 0.0516,31.91429 -1.03094,47.8218 -1.34179,19.71674 -4.57395,39.2593 -6.76428,58.89989 -1.01571,9.10787 -2.95747,27.33347 -2.95747,27.33347 l 24.17304,-0.15043 c 0,0 2.29473,-20.27665 3.39913,-30.41971 1.95903,-17.99214 4.52587,-35.93407 5.72465,-53.9928 1.22404,-18.43924 2.07297,-36.94862 1.49329,-55.41934 -0.25489,-8.1217 -2.18335,-24.27911 -2.18335,-24.27911 z"
     id="C15.1"
     inkscape:connector-curvature="0"
     sodipodi:nodetypes="caaaccaaacc"
     inkscape:label="C15.1 Thorakaler Ösophagus" />
  <path
     style="fill:none;fill-rule:evenodd;stroke:#000000;stroke-width:1;stroke-linecap:butt;stroke-linejoin:miter;stroke-miterlimit:4;stroke-dasharray:none;stroke-opacity:1"
     d="m 346.44346,500.35943 c 0,0 -0.78035,14.3969 -0.46472,20.66313 0.59536,11.81978 4.59267,21.93828 11.5045,33.42364 6.94788,11.54527 18.22318,17.50126 33.02301,17.7504 -0.51294,-9.14145 -0.31366,-18.54764 0.0902,-27.44918 -8.66702,-3.42079 -13.90274,-12.39335 -17.43067,-20.69351 -3.15957,-7.43353 -2.8926,-14.84953 -2.51053,-24.10104 z"
     id="C15.2"
     inkscape:connector-curvature="0"
     sodipodi:nodetypes="cssccacc"
     inkscape:label="C15.2 Abdominaler Ösophagus" />
  <path
     style="fill:none;fill-rule:evenodd;stroke:#000000;stroke-width:1;stroke-linecap:butt;stroke-linejoin:miter;stroke-miterlimit:4;stroke-dasharray:none;stroke-opacity:1"
     d="m 390.66545,547.88714 c 0.55692,-4.87763 -0.97273,-10.82986 2.2193,-14.55978 9.98287,-11.6651 29.3476,-18.73913 43.91592,-13.89182 15.51383,5.16191 23.88207,24.20287 28.5802,39.86339 3.41585,11.38622 2.30021,24.33649 -1.39416,35.63541 -4.93458,15.09201 -13.76948,30.17416 -26.61741,39.5042 -18.73556,13.60559 -43.64186,18.58424 -66.79105,19.08287 -11.22753,0.24184 -24.93525,0.20093 -32.76266,-7.85187 -3.15443,-3.24527 -4.08994,-8.95329 -2.78829,-13.28779 1.97507,-6.57697 7.97526,-12.83537 14.63863,-14.49575 6.70281,-1.67021 13.44397,8.56258 19.84562,5.96717 11.29448,-4.57911 14.28546,-20.26803 17.79657,-31.93875 4.24026,-14.09434 1.68767,-29.40392 3.35733,-44.02728 z"
     id="path4152"
     inkscape:connector-curvature="0"
     sodipodi:nodetypes="aaaaaaaaaaaaa" />
  <g
     id="g2"
     inkscape:label="Umriss Kopf nach links"
     style="display:inline;fill:none;stroke:#000000;stroke-width:1.22937;stroke-dasharray:none;stroke-opacity:1"
     transform="matrix(0.81342404,0,0,0.81342404,-91.427795,20.052322)">
    <path
       style="fill:none;stroke:#000000;stroke-width:1.22937;stroke-dasharray:none;stroke-opacity:1"
       d="m 750.88884,647.09259 c 5.62682,16.02283 10.36517,22.27594 19.30424,44.55903 8.93907,22.28309 12.6173,31.46631 22.85382,62.20891 10.23652,30.7426 23.29814,43.82034 32.96984,63.16374 9.6717,19.3434 1.16271,63.39575 5.71845,95.48822 4.55573,32.09247 13.35992,54.24387 16.97525,73.61738 4.01209,21.49963 7.47782,57.16523 6.79797,79.61693"
       id="path8-5"
       sodipodi:nodetypes="czzzzsc"
       inkscape:label="path8" />
    <path
       style="fill:none;stroke:#000000;stroke-width:1.22937;stroke-dasharray:none;stroke-opacity:1"
       d="m 937.97726,1062.2592 c 0,-68.46153 5.2943,-119.566 7.36743,-188.05242 1.2327,-45.40737 0.99212,-58.88229 -4.34053,-90.83784 -5.33266,-31.95555 -23.4479,-69.06536 -33.934,-96.76789 -10.4861,-27.70253 -18.76198,-46.64877 -23.71421,-76.28426 -1.72644,-10.33144 -0.96122,-46.99371 -2.7878,-56.677 -9.05234,-47.98938 -34.72805,-85.62212 -80.21011,-105.12641 -36.70716,-15.74131 -74.76677,-32.10414 -98.43057,-42.81771 -23.6638,-10.71357 -40.40805,-16.58105 -47.64299,-26.07404 -7.23494,-9.49299 -17.73556,-17.57183 -23.65565,-39.3586 -2.81136,-10.34619 -4.96409,-33.08161 2.69333,-51.22374 7.60167,-18.01003 18.08783,-33.71789 25.11092,-45.07655 14.04619,-22.71733 21.82296,-37.82301 26.5888,-55.50397 5.78398,-21.45819 2.77253,-37.76419 -6.59686,-66.83785 C 669.05563,92.547251 662.79736,86.159959 639.31109,66.3036 615.82482,46.447242 586.88233,41.963759 556.6028,41.564445 c -33.8681,-0.446639 -62.72803,10.444714 -88.55917,22.896652 -13.62422,6.567574 -25.88772,16.460232 -36.17104,38.271013 -12.38736,26.2734 -4.44072,41.57789 -10.49599,53.01295 -3.84742,7.26565 -10.28344,13.31166 -15.92564,18.95386 -7.68125,7.68126 -17.60937,19.94759 -22.42125,29.895 -14.25488,29.46852 21.30526,12.4209 23.7506,36.81838 0.41419,4.13241 -1.18134,9.01012 -3.05993,12.46554 -1.87858,3.45542 -2.39812,7.11499 0.26277,9.77588 4.84294,4.84294 13.14363,2.99808 13.22982,6.27225 0.0977,3.71203 -8.40455,0.58932 -12.02343,4.2082 -2.66074,2.66074 1.76166,8.62596 2.40469,14.72126 0.64303,6.0953 -10.66309,26.92717 -3.88529,37.48617 6.7778,10.559 14.4219,14.04028 34.32042,17.76139 19.89852,3.72111 29.25906,0.82242 34.49138,6.37995 5.98916,6.36141 14.22653,20.72648 10.7135,27.39693 -5.55142,10.54087 -37.97568,16.15675 -88.18007,33.2471 -50.2044,17.09036 -101.65032,31.47454 -128.08494,44.69185 -26.43462,13.21731 -53.01698,57.77135 -60.61423,72.96586 -10.31027,20.62054 -5.40735,47.12296 -15.24213,82.07301 -9.83478,34.95005 -14.05848,41.55384 -26.85379,82.18607 -12.7953,40.63224 -25.31665,61.6617 -30.59732,93.68467 -5.4961,33.32935 -6.83804,66.26287 -7.37558,79.57469 -2.77087,68.61874 19.23079,155.68088 2.68569,198.30108"
       id="path4"
       sodipodi:nodetypes="cczzssszzsssszzssssssszssszzzssszszzssc"
       inkscape:label="path4" />
    <path
       style="fill:none;stroke:#000000;stroke-width:1.22937;stroke-dasharray:none;stroke-opacity:1"
       d="m 311.88629,665.11626 c -8.94656,19.99283 -21.55722,49.44806 -27.98409,70.81029 -6.70523,22.28751 -8.74629,26.65313 -23.95502,54.217 -8.30546,15.05257 -20.27339,30.3856 -20.56074,46.87998 -1.10556,63.4617 -3.95176,86.63565 -11.48236,118.54167 -5.48499,23.23905 -8.98727,45.0228 -20.37661,106.694"
       id="path5"
       sodipodi:nodetypes="cssssc" />
    <path
       style="fill:none;stroke:#000000;stroke-width:1.22937;stroke-dasharray:none;stroke-opacity:1"
       d="m 303.3107,577.56786 c 1.02602,15.57129 4.38617,23.0055 14.68383,33.59691 -7.68752,28.10667 -6.16932,59.4255 -5.6385,88.80076 0.19555,16.89089 1.25378,27.66222 7.86927,54.22371 4.46488,17.92671 13.1268,27.35339 22.38943,57.80301 6.2356,20.49864 5.12183,44.1945 5.12183,69.64055 0,11.43595 -5.09052,27.26671 -6.20039,41.91895 -1.10988,14.65224 -1.4991,8.44843 -6.76262,43.59674 -5.26352,35.14831 -7.30814,62.77051 -6.2093,96.83661"
       id="path6"
       sodipodi:nodetypes="cszssszzc"
       inkscape:label="path6" />
    <path
       style="fill:none;stroke:#000000;stroke-width:1.22937;stroke-dasharray:none;stroke-opacity:1"
       d="m 766.29125,591.76676 c -1.182,-1.83769 -10.54742,23.35541 -13.4318,35.96091 -4.79382,20.95028 -2.32859,90.31038 -8.62933,114.61222 -6.30074,24.30184 -15.19579,64.53983 -16.48195,92.14469 -1.1988,25.72995 5.62096,43.12244 6.82779,63.52067 1.10916,18.74741 7.44574,34.31579 10.96161,52.91903 7.64552,40.45412 12.87401,80.10902 14.55497,118.05692"
       id="path7"
       sodipodi:nodetypes="cszsssc"
       inkscape:label="path7" />
  </g>
  <path
     id="C15.9"
     style="font-size:33.2768px;font-family:'.Arial Hebrew Desk Interface';-inkscape-font-specification:'.Arial Hebrew Desk Interface, Normal';display:inline;fill:none;stroke:#000000;stroke-width:1;stroke-dasharray:none"
     d="m 618.93383,143.71544 q -2.7719,3.62043 -7.41057,3.62043 -4.18613,0 -6.84489,-2.65875 -2.60219,-2.71532 -2.60219,-6.78832 0,-4.35583 2.99817,-7.354 3.05474,-2.99817 7.24087,-2.99817 5.31751,0 8.42882,3.95985 3.16787,3.95985 3.16787,10.63501 0,7.24086 -3.28101,11.70984 -3.22446,4.46898 -8.99452,4.46898 -3.05473,0 -5.54378,-1.69709 -2.43247,-1.75366 -2.99817,-4.01642 l 4.80839,-0.7354 q 1.13138,2.14964 4.12955,2.14964 3.22446,0 5.03468,-2.7719 1.86678,-2.82846 1.86678,-7.5237 z m -0.90511,-5.93977 q 0,-2.88504 -1.47081,-4.52555 -1.41423,-1.64049 -3.95985,-1.64049 -2.20619,0 -3.79014,1.75363 -1.58393,1.69709 -1.58393,4.41241 0,2.37592 1.4708,3.95985 1.47081,1.52736 3.8467,1.52736 2.26278,0 3.84672,-1.52736 1.64051,-1.58393 1.64051,-3.95985 z m 15.97264,4.47502 A 21.750674,21.750674 0 0 1 612.25068,164.00135 21.750674,21.750674 0 0 1 590.5,142.25069 21.750674,21.750674 0 0 1 612.25068,120.5 a 21.750674,21.750674 0 0 1 21.75068,21.75069 z"
     inkscape:label="C15.9" />
  <path
     id="C15.8"
     style="font-size:33.2768px;font-family:'.Arial Hebrew Desk Interface';-inkscape-font-specification:'.Arial Hebrew Desk Interface, Normal';display:inline;fill:none;stroke:#000000;stroke-width:1;stroke-dasharray:none"
     d="m 606.21,80.95843 q -3.28102,-2.26276 -3.28102,-6.10946 0,-3.84672 2.77191,-5.88321 2.82845,-2.03649 6.50545,-2.03649 3.62044,0 6.44891,2.03649 2.82846,2.03649 2.82846,5.88321 0,3.8467 -3.28102,6.10946 v 0.0567 q 2.2062,1.01825 3.5073,3.05474 1.35765,1.97992 1.35765,4.35583 0,3.84672 -2.99816,6.61861 -2.99817,2.7719 -7.86314,2.7719 -5.03466,0 -7.97626,-2.7719 -2.88504,-2.82846 -2.88504,-6.61861 0,-2.37591 1.30111,-4.35583 1.35766,-2.03649 3.56385,-3.05474 z m 5.99634,-1.58393 q 1.69709,0 3.05474,-1.01824 1.41423,-1.01825 1.41423,-2.94161 0,-2.09306 -1.35766,-3.1113 -1.30108,-1.07483 -3.11131,-1.07483 -1.97992,0 -3.22444,1.13139 -1.24453,1.13138 -1.24453,3.05474 0,1.86678 1.35767,2.94161 1.41423,1.01824 3.1113,1.01824 z m 0,14.14232 q 2.14963,0 3.79014,-1.24453 1.64051,-1.24452 1.64051,-3.84671 0,-2.09306 -1.58393,-3.5073 -1.58394,-1.41423 -3.84672,-1.41423 -2.20619,0 -3.8467,1.41423 -1.58394,1.41424 -1.58394,3.5073 0,2.60219 1.64051,3.84671 1.64051,1.24453 3.79013,1.24453 z M 634.00133,82.25068 A 21.750674,21.750674 0 0 1 612.25068,104.00136 21.750674,21.750674 0 0 1 590.5,82.25068 21.750674,21.750674 0 0 1 612.25068,60.5 21.750674,21.750674 0 0 1 634.00133,82.25068 Z"
     inkscape:label="C15.8" />
  <g
     id="g3"
     transform="matrix(0.94991884,0,0,0.94991884,497.45785,-61.792451)">
    <path
       style="fill:none;fill-rule:evenodd;stroke:#000000;stroke-width:1;stroke-linecap:butt;stroke-linejoin:miter;stroke-miterlimit:4;stroke-dasharray:none;stroke-opacity:1"
       d="m -263.11154,316.15265 c 0,0 6.9127,-4.14574 9.27081,-6.17794 2.35809,-2.03221 4.23876,-3.29549 5.05982,-5.58619 0.82107,-2.2907 1.92862,-4.61393 3.31474,-4.065 1.89859,0.75187 0.26531,2.65273 -0.15234,4.065 -0.41767,1.41227 -1.40876,2.75132 -0.63248,4.18964 0.77628,1.43832 2.57383,2.58121 5.05983,2.32758 2.48599,-0.25364 5.21735,-4.30992 7.58974,-5.58619 2.37237,-1.27627 4.21513,-1.47457 6.32479,-2.32758 2.10966,-0.85303 3.55944,-2.14295 6.32478,-2.7931 11.19695,-1.35326 18.87411,0.5838 30.10616,1.15554 14.45449,0.70016 15.67982,0.88003 20.56046,2.17958 4.88065,1.29956 7.88788,2.91772 10.75213,5.12067 2.86424,2.20295 4.43173,5.03675 6.32478,7.44825 1.89305,2.41149 3.16523,4.64713 5.05985,6.98274 1.89462,2.33561 5.36374,5.00396 6.32476,6.98274 0.96102,1.97878 -0.46027,2.89529 0.6325,3.72413 1.09276,0.82883 2.84357,1.40651 4.42734,-0.46552 1.58377,-1.87203 0.24032,-6.9981 -0.63248,-10.24135 -0.87282,-3.24326 -2.54997,-5.49263 -4.42736,-8.8448 -1.87739,-3.35217 -4.15043,-8.04282 -6.95725,-11.17238 -2.80683,-3.12955 -5.58076,-5.78543 -9.48717,-7.44825 -3.90642,-1.66283 -8.85317,-1.35792 -13.28206,-1.86207 -4.42888,-0.50414 -9.03915,-0.7954 -13.28205,-1.16379 -4.24289,-0.36838 -5.64073,-0.52728 -12.17522,-1.0474 -6.53448,-0.52013 -8.68482,-0.3275 -17.61961,-1.12391 -8.93479,-0.79642 -19.88646,-2.7931 -26.56409,-2.7931 -6.67763,0 -9.01236,0.36691 -13.28205,1.39655 -4.26969,1.02964 -17.1006,3.51103 -17.1006,3.51103"
       id="path4158-2"
       inkscape:connector-curvature="0"
       sodipodi:nodetypes="czzszzzzzzzzzzzzzzzzzzzzzzzzc" />
    <path
       style="fill:none;fill-rule:evenodd;stroke:#000000;stroke-width:1;stroke-linecap:butt;stroke-linejoin:miter;stroke-miterlimit:4;stroke-dasharray:none;stroke-opacity:1"
       d="m -263.28448,318.53183 c 0,0 10.02184,-1.11516 13.74718,1.60638 2.06323,1.50729 2.10827,4.65516 3.1624,6.98274 1.05413,2.32758 1.39488,4.81203 2.50223,7.11476 0.60379,1.25558 1.16926,3.70857 2.5576,3.5921 2.10666,-0.17673 1.63399,-3.89064 1.89743,-6.0517 0.19459,-1.59618 0.0243,-3.63228 1.26496,-4.65516 1.6311,-1.34475 4.31682,-1.12653 6.32479,-0.46552 1.58371,0.52136 2.42534,2.30763 3.79487,3.25861 2.37363,1.64823 5.00051,2.90641 7.58975,4.18964 2.06499,1.02341 4.11048,2.15395 6.32477,2.79309 1.02369,0.29549 2.10256,0.57533 3.16239,0.46553 1.78762,-0.18521 4.97575,-0.0669 5.05983,-1.86207 0.21868,-4.6691 -9.74793,-4.48406 -12.42244,-6.50596 -2.6745,-2.02189 -8.83423,-4.65624 -9.08183,-6.52848 -0.24759,-1.87225 3.45288,-4.42245 5.69231,-6.05171 2.64043,-1.921 5.753,-3.16908 8.8547,-4.18964 8.01678,-2.84144 12.63625,-1.41264 20.94012,-0.85454 5.87062,0.39457 12.43986,0.69136 23.78246,9.81925 2.79821,2.3037 4.54146,5.68936 6.32479,8.8448 1.82988,3.23781 4.06212,6.54021 4.42734,10.24135 0.29611,3.00077 -0.85054,6.01702 -1.89742,8.8448 -0.61315,1.65622 -3.20472,7.58066 -2.78632,10.96379"
       id="path4160-7"
       inkscape:connector-curvature="0"
       sodipodi:nodetypes="csssssssssssszzsssssssc"
       inkscape:label="path4160" />
    <path
       style="fill:none;fill-opacity:1;stroke:#000000;stroke-width:1;stroke-dasharray:none;stroke-opacity:1"
       d="m -136.21009,331.99355 c 0.60996,7.38146 0.81767,10.58337 0.79568,16.44703 -0.022,5.86366 -0.58137,8.27291 -0.79197,11.53165"
       id="path1-1"
       sodipodi:nodetypes="czc" />
  </g>
</svg>
