<?xml version="1.0" encoding="UTF-8" standalone="no"?>
<!-- Created with Inkscape (http://www.inkscape.org/) -->

<svg
   xmlns:dc="http://purl.org/dc/elements/1.1/"
   xmlns:cc="http://creativecommons.org/ns#"
   xmlns:rdf="http://www.w3.org/1999/02/22-rdf-syntax-ns#"
   xmlns:svg="http://www.w3.org/2000/svg"
   xmlns="http://www.w3.org/2000/svg"
   xmlns:sodipodi="http://sodipodi.sourceforge.net/DTD/sodipodi-0.dtd"
   xmlns:inkscape="http://www.inkscape.org/namespaces/inkscape"
   width="300mm"
   height="300mm"
   viewBox="0 0 1062.9921 1062.9921"
   id="svg5497"
   version="1.1"
   inkscape:version="0.91 r13725"
   sodipodi:docname="Level_2_C60-63.svg">
  <defs
     id="defs5499" />
  <sodipodi:namedview
     id="base"
     pagecolor="#ffffff"
     bordercolor="#666666"
     borderopacity="1.0"
     inkscape:pageopacity="0.0"
     inkscape:pageshadow="2"
     inkscape:zoom="0.7"
     inkscape:cx="852.27503"
     inkscape:cy="590.92362"
     inkscape:document-units="px"
     inkscape:current-layer="layer1"
     showgrid="false"
     inkscape:window-width="1680"
     inkscape:window-height="1028"
     inkscape:window-x="1912"
     inkscape:window-y="142"
     inkscape:window-maximized="1" />
  <metadata
     id="metadata5502">
    <rdf:RDF>
      <cc:Work
         rdf:about="">
        <dc:format>image/svg+xml</dc:format>
        <dc:type
           rdf:resource="http://purl.org/dc/dcmitype/StillImage" />
        <dc:title />
      </cc:Work>
    </rdf:RDF>
  </metadata>
  <g
     inkscape:label="Laag 1"
     inkscape:groupmode="layer"
     id="layer1"
     transform="translate(0,10.629921)">
    <path
       inkscape:connector-curvature="0"
       id="C60.0"
       style="fill:none;fill-rule:evenodd;stroke:#000000;stroke-width:1.01283395px;stroke-linecap:butt;stroke-linejoin:miter;stroke-opacity:1"
       d="m 240.50801,785.36166 3.07185,17.37879 -1.02394,18.40105 -6.14374,18.40103 0,6.1337 m -91.13187,-99.16125 -3.07184,20.44563 -2.04791,19.42333 4.09581,21.4679 9.21558,21.46789 14.33536,24.53474"
       inkscape:label="#path4149"
       sodipodi:nodetypes="ccccccccccc" />
    <path
       style="fill:none;fill-rule:evenodd;stroke:#000000;stroke-width:1.01283395px;stroke-linecap:butt;stroke-linejoin:miter;stroke-opacity:1"
       d="m 196.75169,442.38113 7.24043,-25.30015 -2.89615,-42.64883 -10.13664,-27.46875 -20.9973,-54.21464 -15.46611,-51.24045 -18.43118,-51.11402 -8.19161,-43.95809 -7.16769,-51.114017"
       id="path4159"
       inkscape:connector-curvature="0"
       sodipodi:nodetypes="ccccccccc" />
    <path
       style="fill:none;fill-rule:evenodd;stroke:#000000;stroke-width:1.01283395px;stroke-linecap:butt;stroke-linejoin:miter;stroke-opacity:1"
       d="m 272.0523,579.00198 17.37707,0 9.41257,8.67434 7.9645,20.24012 -3.62022,36.14309 -3.62023,33.97449 -10.86066,38.31168 -14.48089,46.26313 -4.34427,41.92599 1.44808,53.49175 9.41259,31.08305 20.99729,29.63732 18.1011,19.51728 26.0656,15.1801 34.03008,6.50574 24.61752,-7.22861 26.78965,-30.36018 20.99728,-39.75739 1.4481,-41.20313 -2.34505,-56.03909 -5.11977,-67.47052 0,-38.84667 16.38325,-22.49018 32.76651,2.04456 28.6707,11.2451 31.74257,7.15597 45.05395,1.02228 35.83836,1.02227 21.91404,-15.46769 11.58472,-14.45722 5.79235,-21.68584 0,-29.63734 -13.75685,-18.7944 -12.30875,-11.56579 -9.41258,-22.40869 -2.89618,-30.36019 9.41259,-26.02304 20.99729,-36.14306 16.65302,-25.30017 17.37707,-14.45724 14.48089,-8.67433 8.68852,2.16858 0.72404,-16.62581 0,-14.45724 10.86068,-13.01151 16.65303,-15.90295 11.5847,-4.33718 -3.62023,-15.90294 -2.89617,-12.28865 0,-11.5658 3.62022,-15.18009 3.62024,-6.50575 7.24043,-18.07155 5.06833,-10.12006 4.01999,-2.58197"
       id="path4161"
       inkscape:connector-curvature="0"
       sodipodi:nodetypes="ccccccccccccccccccccccccccccccccccccccccccccccccccccccc" />
    <path
       style="fill:none;fill-rule:evenodd;stroke:#000000;stroke-width:1.01283395px;stroke-linecap:butt;stroke-linejoin:miter;stroke-opacity:1"
       d="m 170.87917,851.80991 3.07185,48.04719 4.09583,55.20316 4.0958,24.53474"
       id="path4163"
       inkscape:connector-curvature="0" />
    <path
       style="fill:none;fill-rule:evenodd;stroke:#000000;stroke-width:1.01283395px;stroke-linecap:butt;stroke-linejoin:miter;stroke-opacity:1"
       d="m 266.25995,529.12453 34.75414,0.72287 43.44265,19.51726 45.6148,20.24012 52.85526,12.28865 44.1667,-3.6143 26.06559,-7.95149"
       id="path4169"
       inkscape:connector-curvature="0"
       sodipodi:nodetypes="ccccccc" />
    <path
       style="fill:none;fill-rule:evenodd;stroke:#000000;stroke-width:1.01283395px;stroke-linecap:butt;stroke-linejoin:miter;stroke-opacity:1"
       d="m 166.78334,292.62236 10.23954,112.45086 -6.14371,73.60422"
       id="path4171"
       inkscape:connector-curvature="0" />
    <path
       style="fill:none;fill-rule:evenodd;stroke:#000000;stroke-width:1.01283395px;stroke-linecap:butt;stroke-linejoin:miter;stroke-opacity:1"
       d="m 545.01705,709.11708 44.89077,17.34867 63.7159,18.79442 70.95635,2.89142 69.50826,-23.13156 50.68312,-28.91445 46.33884,-52.04605 41.99457,-75.17761 23.16943,-106.98353 8.68853,-46.26314 2.89616,-70.84043 L 950.48194,227.69123 924.41633,88.901803 904.14309,16.61563"
       id="path4173"
       inkscape:connector-curvature="0" />
    <path
       style="fill:none;fill-rule:evenodd;stroke:#000000;stroke-width:1.01283395px;stroke-linecap:butt;stroke-linejoin:miter;stroke-opacity:1"
       d="m 796.98451,726.46575 -11.58471,20.24014 -21.72134,21.68584"
       id="path4175"
       inkscape:connector-curvature="0" />
    <path
       style="fill:none;fill-rule:evenodd;stroke:#000000;stroke-width:1.01283395px;stroke-linecap:butt;stroke-linejoin:miter;stroke-opacity:1"
       d="m 765.12656,772.7289 -1.4481,28.91447 -1.44808,34.69737 -2.89617,37.58878 1.44807,39.03456 1.4481,49.15458 -4.34427,14.45722"
       id="path4177"
       inkscape:connector-curvature="0" />
    <path
       style="fill:none;fill-rule:evenodd;stroke:#000000;stroke-width:1.01283395px;stroke-linecap:butt;stroke-linejoin:miter;stroke-opacity:1"
       d="m 303.99311,764.91605 -8.19162,19.42334 -2.04791,21.46789 1.02396,36.80211 7.16766,31.6907 13.31139,20.44561 18.43118,16.3565 23.55093,6.13368 13.31139,2.04456 18.43116,-5.1114 15.35931,-28.62387 4.09581,-29.64615 -3.07187,-39.86894 -9.21558,-36.8021 -18.43116,-22.49016 -21.50302,-12.26739 -21.50302,3.06685 -14.33536,10.22281 z"
       id="C62"
       inkscape:connector-curvature="0"
       inkscape:label="#path4179" />
    <path
       style="fill:none;fill-rule:evenodd;stroke:#000000;stroke-width:1.01283395px;stroke-linecap:butt;stroke-linejoin:miter;stroke-opacity:1"
       d="m 377.56966,282.44853 -9.06748,-39.4068 5.63174,-9.71167 23.03896,-7.6671 26.6228,-14.82305 36.35032,-7.15599 43.00607,-1.53341 42.49405,4.60026 33.2785,12.26737 30.71859,16.86763 29.69466,25.04589 13.82337,27.09042 12.79942,31.17956 2.04791,22.49017 -10.23954,21.46792 -13.3114,16.86761 m -27.53492,19.12665 -33.39032,11.54178 -28.67069,6.64483 -38.39824,-1.53342 -27.13478,-3.57799 -32.25453,-22.49018 -36.35035,-43.95807 -39.07402,-46.08489"
       id="path4185"
       inkscape:connector-curvature="0"
       sodipodi:nodetypes="cccccccccccccccccccccccc" />
    <path
       style="fill:none;fill-rule:evenodd;stroke:#000000;stroke-width:1.01283395px;stroke-linecap:butt;stroke-linejoin:miter;stroke-opacity:1"
       d="m 498.0323,415.29605 -11.2635,13.28963 -3.58384,14.31194 1.02395,19.42334 4.09583,24.0236 19.45511,20.95675 18.43115,9.71168 24.06292,9.20051 28.6707,-3.06685 17.4072,-13.28964 15.87127,-17.88991 10.75151,-15.84535 9.21559,-18.40106 0,-23.51245 -6.42219,-9.17578 -11.58471,-12.65008 -11.58471,-3.61432 -8.32651,-2.16858 -13.39482,5.7829 -22.08337,4.6986 -19.91121,-0.72287 -20.9973,0 z"
       id="C61"
       inkscape:connector-curvature="0"
       inkscape:label="#path4187" />
    <path
       style="fill:none;fill-rule:evenodd;stroke:#000000;stroke-width:1.01283395px;stroke-linecap:butt;stroke-linejoin:miter;stroke-opacity:1"
       d="m 547.69404,478.67744 22.52697,-9.20052 24.57488,-23.51245 18.43117,-18.40106 13.31139,-8.17825 6.14373,-2.04456"
       id="path4189"
       inkscape:connector-curvature="0" />
    <path
       style="fill:none;fill-rule:evenodd;stroke:#000000;stroke-width:1.01283395px;stroke-linecap:butt;stroke-linejoin:miter;stroke-opacity:1"
       d="m 545.64612,488.90025 22.52697,-5.1114 18.43118,-15.3342 15.87128,-18.9122 13.82336,-14.82308 15.87128,-10.22281 8.19163,-3.57797"
       id="path4191"
       inkscape:connector-curvature="0" />
    <path
       style="fill:none;fill-rule:evenodd;stroke:#000000;stroke-width:1.01283395px;stroke-linecap:butt;stroke-linejoin:miter;stroke-opacity:1"
       d="m 956.25145,265.02076 -5.11976,57.24774 -11.26348,87.91613 -37.88627,89.96072 -38.91024,71.55965 -26.62281,35.77983 -38.91021,28.62384 -25.59884,15.33422 -20.47908,7.15596 -22.52697,-4.08912 -15.3593,-19.42333 -9.21558,-34.75754 2.04791,-40.89124 12.28744,-29.64615 29.69465,-16.35649 13.31139,-12.26736 0,-13.28965 -1.02395,-12.26736 19.45511,-5.11142 23.55093,-30.66841 14.33536,-31.69071 10.23952,-28.62385 0,-24.53474 -1.02394,-7.15597 7.16767,-26.57929 11.26348,-23.51247 2.04792,-32.71299 -18.43117,-19.42332"
       id="path4195"
       inkscape:connector-curvature="0" />
    <path
       style="fill:none;fill-rule:evenodd;stroke:#000000;stroke-width:1.01283395px;stroke-linecap:butt;stroke-linejoin:miter;stroke-opacity:1"
       d="m 675.68821,643.26464 12.28745,-10.2228 13.3114,-3.06685 8.19163,3.06685 6.1437,5.11139"
       id="path4197"
       inkscape:connector-curvature="0" />
    <path
       style="fill:none;fill-rule:evenodd;stroke:#000000;stroke-width:1.16130495px;stroke-linecap:butt;stroke-linejoin:miter;stroke-opacity:1"
       d="m 196.94882,441.56793 -21.93287,34.07776 -31.90235,77.64549 -5.98169,24.58774 -4.78536,21.13683 -2.39267,131.13462 -2.39268,31.48956 -0.39878,36.23457 3.19024,23.29364 20.73653,30.62684 12.76094,6.0391 3.98779,-3.01955 -3.58902,-7.76455 7.37743,4.31363 1.99389,2.15683 3.9878,0.21568 7.77619,2.58818 10.96644,0.64704 5.9817,1.72546 7.97558,1.07841 5.58291,0 6.57986,-2.15681 8.17498,-5.17638 6.38047,-12.72522 0,4.96068 5.18413,4.745 5.7823,-6.90182 4.98475,-22.43092 0.79755,-28.90138 -2.99084,-18.33297 -9.00898,-22.68349 -3.94772,-43.46541 0.84594,-41.17774 0.84594,-15.0985 5.6396,-46.82063 11.60692,-17.96616 15.55239,-6.47045 z"
       id="C60"
       inkscape:connector-curvature="0"
       inkscape:label="#path6714" />
    <path
       id="C63"
       style="fill:none;fill-rule:evenodd;stroke:#000000;stroke-width:1.16130495px;stroke-linecap:butt;stroke-linejoin:miter;stroke-opacity:1"
       d="m 632.68218,414.27376 4.0958,-10.73395 6.3997,-8.17825 3.83984,-10.2228 7.93564,-11.2451 6.39971,-8.17825 9.47157,-10.98951 6.65569,-6.38926 1.27995,-9.96722 3.58382,-5.62256 5.88775,-3.83353 5.63174,-1.02229 4.0958,-0.51113 1.53594,1.78898 0,2.81127 0,7.15597 -0.25599,6.38926 -1.53593,5.36698 -2.04791,1.27784 2.30389,1.78898 1.53594,2.04456 0.25599,3.06686 0.25599,5.11139 -0.51198,7.6671 -3.83983,4.60027 -2.0479,0.25558 -2.04791,2.55569 0,3.06684 -1.02395,5.36698 -3.32785,4.60026 -2.81588,0.25558 -6.14371,1.53341 -2.28331,3.57798 -1.81252,5.62254 -3.32783,1.78899 -2.04792,3.06685 -4.3518,4.3447 -1.7919,4.85583 -3.58387,0.76671 -4.09579,0 -1.27996,2.30012 -1.27994,2.04457 -5.37574,0 -6.6557,-0.51112 -5.63175,-2.8113 z m -250.0607,123.38543 -18.72709,-93.22817 -4.60779,-35.26867 -6.65571,-52.13632 5.63175,-23.51246 15.87128,-25.557 15.35931,-14.82307 28.15872,-13.28966 33.27849,-8.17825 38.91022,0 61.94918,7.15597 40.95814,13.28966 24.57489,15.84535 9.21558,14.82306 3.07185,12.77853 -1.53593,14.3119 -6.65569,10.73397 -3.07186,10.73394 0,13.28965 0.51198,18.91219 4.0958,5.62254 9.21559,-10.73394 10.75151,-15.33421 -1.02394,-25.55703 0.51196,-23.51246 -5.63174,-22.5107 -12.7994,-13.26911 -24.57491,-13.28965 -25.59882,-10.73394 -41.98208,-9.71167 -35.83838,-4.60027 -48.12582,0.51115 -35.32639,5.1114 -28.15873,13.28964 -22.52696,17.88991 -15.87129,20.44562 -7.16767,23.51245 1.02396,43.44693 5.11976,31.69071 23.90606,116.67849 m 1.17045,26.63 10.24988,28.43467 16.89524,43.95808 2.55988,7.6671 0,10.22282 2.04792,93.53867 8.20208,11.35892 6.51641,19.87871 0.72405,38.6731 2.89618,27.10729 -3.98225,42.28741 -0.72405,5.06003 -9.77459,23.13158 -3.62022,6.86717 2.17212,6.14433 1.68607,-2.63168 13.82337,-13.28965 8.7036,-19.9345 3.07187,-29.13497 1.02395,-51.11405 -3.07187,-47.02491 -8.19161,-17.37878 -4.09582,-51.11405 -1.02396,-53.15857 -4.09581,-13.8008 -18.43116,-50.6029 m -87.50664,190.51673 -9.4126,-7.22861 2.17214,-7.22862 9.41259,-18.07154 23.89345,-17.34868 26.78966,-2.89143 19.54919,10.12005 13.0328,10.12006 18.10112,21.68585 6.5164,19.51727 0.72402,33.25163 2.8962,33.97449 -2.17214,29.63733 -2.17213,17.34869 -8.68853,20.96298 -4.34426,7.22861 1.44808,8.67435 -7.96448,4.33718 -5.79237,-0.72287 -7.96447,-4.33718 0,-7.95148 7.38616,-2.70873 14.84733,-26.06816 4.60777,-31.69072 -3.07185,-39.35781 -8.7036,-36.8021 -20.47908,-24.02359 -19.4551,-10.22282 -23.03896,2.55571 -15.3593,11.75623 z"
       inkscape:label="#path6716"
       inkscape:connector-curvature="0"
       sodipodi:nodetypes="ccccccccccccccccccccccccccccccccccccccccccccccccccccccccccccccccccccccccccccccccccccccccccccccccccccccccccccccccccccccccccccccccccccccccccccccc" />
    <path
       style="fill:none;fill-rule:evenodd;stroke:#000000;stroke-width:1.01283395px;stroke-linecap:butt;stroke-linejoin:miter;stroke-opacity:1"
       d="m 259.0195,513.94444 25.34155,-4.33718 30.40988,3.61432 38.37435,17.34868 44.89075,15.90295 50.68313,14.45723 42.71861,-3.6143 13.03279,-5.78289 13.75684,-14.45725 11.58474,-27.46874 0.72402,-46.986 -1.44808,-81.68337 -18.10112,-4.33715 L 492.1618,369.3721 461.75194,339.73477 429.89399,307.206 413.24096,283.35158 m -4.42064,-15.96986 5.14469,-15.1132 31.85796,-20.24013 36.92626,-5.78289 29.68582,5.06003 58.64759,10.84294 23.16943,14.45723 23.89347,23.85443 10.13661,20.96298 m 0.72406,40.48025 -15.20494,7.95147 -36.92626,19.51727 -27.51369,5.06005 -7.24044,0.72285 5.79235,46.26315 -1.44809,42.64883 -2.17214,33.25164 1.4481,26.74587 -10.86066,18.79442 -6.51641,15.1801 -10.86066,11.56577 -5.79236,1.44572"
       id="path4167"
       inkscape:connector-curvature="0"
       sodipodi:nodetypes="ccccccccccccccccccccccccccccccccccccccc" />
  </g>
</svg>
