<?xml version="1.0" encoding="UTF-8" standalone="no"?>
<!-- Creator: CorelDRAW -->

<svg
   xml:space="preserve"
   width="700"
   height="750"
   style="fill-rule:evenodd;image-rendering:optimizeQuality;shape-rendering:geometricPrecision;text-rendering:geometricPrecision"
   viewBox="0 0 700 750"
   id="svg3931"
   version="1.1"
   inkscape:version="1.3 (0e150ed, 2023-07-21)"
   sodipodi:docname="level3_C16_neu.svg"
   xmlns:inkscape="http://www.inkscape.org/namespaces/inkscape"
   xmlns:sodipodi="http://sodipodi.sourceforge.net/DTD/sodipodi-0.dtd"
   xmlns="http://www.w3.org/2000/svg"
   xmlns:svg="http://www.w3.org/2000/svg"
   xmlns:rdf="http://www.w3.org/1999/02/22-rdf-syntax-ns#"
   xmlns:cc="http://creativecommons.org/ns#"
   xmlns:dc="http://purl.org/dc/elements/1.1/"><metadata
     id="metadata3998"><rdf:RDF><cc:Work
         rdf:about=""><dc:format>image/svg+xml</dc:format><dc:type
           rdf:resource="http://purl.org/dc/dcmitype/StillImage" /></cc:Work></rdf:RDF></metadata><sodipodi:namedview
     pagecolor="#ffffff"
     bordercolor="#666666"
     borderopacity="1"
     objecttolerance="10"
     gridtolerance="10"
     guidetolerance="10"
     inkscape:pageopacity="0"
     inkscape:pageshadow="2"
     inkscape:window-width="1344"
     inkscape:window-height="759"
     id="namedview3996"
     showgrid="false"
     inkscape:zoom="0.7005161"
     inkscape:cx="343.3183"
     inkscape:cy="378.29252"
     inkscape:window-x="0"
     inkscape:window-y="25"
     inkscape:window-maximized="0"
     inkscape:current-layer="svg3931"
     inkscape:showpageshadow="2"
     inkscape:pagecheckerboard="0"
     inkscape:deskcolor="#d1d1d1" /><defs
     id="defs3933"><style
       type="text/css"
       id="style3935"><![CDATA[
    .str0 {stroke:#000000;stroke-width:3}
    .str1 {stroke:#000000;stroke-width:3;stroke-dasharray:7 10}
    .fil1 {fill:none}
    .fil2 {fill:#000000}
    .fil0 {fill:#FFF5F5}
    .fnt1 {font-weight:normal;font-size:31;font-family:Arial}
    .fnt0 {font-weight:normal;font-size:40;font-family:Arial}
    .fnt2 {font-weight:normal;font-size:41;font-family:Arial}
   ]]></style></defs><path
     style="fill:none;stroke:#000000;stroke-width:0.7;stroke-dasharray:none;stroke-opacity:1"
     inkscape:connector-curvature="0"
     id="C16.2"
     d="m 58.754356,529.17092 c 23.510537,8.41939 34.830427,9.26132 47.021044,-5.89356 -2.61228,12.62906 1.74152,21.04845 14.80295,25.25813 5.22457,2.52582 9.57839,15.15489 21.76907,16.83877 -0.87077,82.50992 117.55299,136.39396 167.18647,78.30023 36.57204,2.52582 77.49791,-6.7355 119.29453,-24.41619 55.26413,-21.92986 105.51823,-66.94252 133.1135,-123.29141 46.68113,-95.32178 52.21322,-218.23185 -5.43449,-291.58109 -27.91479,-35.51795 -82.98593,-48.64107 -124.37214,-36.78416 -16.90919,4.84439 -32.64751,12.57948 -43.71825,22.40002 -13.90138,12.33153 -21.84159,28.53289 -23.16702,33.05773 -4.96224,16.94035 -6.46603,21.5097 -5.82862,39.19659 -6.09399,4.33329 -14.02665,0.33269 -24.89382,-9.22923 -12.19068,-10.10325 -22.36426,-22.36286 -31.07188,-36.67581 -10.44916,13.47101 -20.8983,26.10009 -31.34746,39.57109 7.10223,15.6071 14.12199,31.39723 18.26887,47.30321 13.3562,51.22968 11.44258,110.66291 -8.39433,164.28084 -11.65983,31.51579 -30.92703,62.72963 -52.11442,85.5426 -12.19068,9.26131 -19.60143,5.59008 -24.82601,-9.56481 -6.57405,-15.40212 -12.42623,-27.15333 -22.375,-36.87158 -24.313,-23.74965 -57.45535,-30.61806 -71.66739,-14.48664 8.70763,-10.9452 -9.57835,-17.6807 -38.313434,-23.57426 -4.353803,20.20651 -8.707607,40.41302 -13.93217,60.61953 z"
     class="fil0 str0"
     inkscape:label="C16.2 Korpus"
     sodipodi:nodetypes="ccccccsssssccccssccsccc" /><path
     style="fill:none;fill-rule:evenodd;stroke:#000000;stroke-width:1;stroke-dasharray:none;image-rendering:optimizeQuality;shape-rendering:geometricPrecision;text-rendering:geometricPrecision;stroke-opacity:1"
     inkscape:connector-curvature="0"
     id="C16.6"
     d="m 309.53389,643.67449 c 36.57203,2.52582 78.7985,-7.24745 120.59511,-24.92814 149.38312,-59.77761 192.57751,-245.60872 156.73386,-356.74453 -4.28187,30.19767 -2.46423,39.54934 -3.42988,75.9171 -0.96565,36.36776 -13.80884,110.32077 -45.40745,153.19607 -54.33245,73.72222 -221.30987,145.9069 -228.49164,152.5595 z"
     class="fil0 str0"
     sodipodi:nodetypes="ccczac"
     inkscape:label="C16.6 große Kurvatur" /><path
     style="fill:none;fill-rule:evenodd;stroke:#000000;stroke-width:1;stroke-dasharray:none;image-rendering:optimizeQuality;shape-rendering:geometricPrecision;text-rendering:geometricPrecision;stroke-opacity:1"
     inkscape:connector-curvature="0"
     id="C16.0"
     d="m 359.65903,262.5571 c -6.79402,3.48292 -15.27747,0.10043 -28.33892,-12.52862 -12.19068,-10.10327 -19.15678,-19.3646 -27.86441,-33.67754 -10.44925,13.47102 -20.89831,26.10008 -31.34746,39.57109 18.54341,38.01282 21.79479,65.40232 24.10787,77.22018 60.58124,-42.52219 53.19248,-25.34507 63.44292,-70.58511 z"
     class="fil0 str0"
     sodipodi:nodetypes="cccccc"
     inkscape:label="C16.0 Kardia" /><path
     style="fill:none;fill-rule:evenodd;stroke:#000000;stroke-width:1;stroke-dasharray:none;image-rendering:optimizeQuality;shape-rendering:geometricPrecision;text-rendering:geometricPrecision;stroke-opacity:1"
     inkscape:connector-curvature="0"
     id="C16.5"
     d="m 312.59172,334.15905 c -7.30926,-19.64594 -26.39258,-85.3474 -36.61589,-70.02057 9.59977,22.7023 16.83389,45.83218 20.24028,69.00373 11.81815,80.39166 -12.33554,159.50296 -66.34775,219.90647 123.79377,-146.68763 87.34967,-198.02038 82.72336,-218.88963 z"
     class="fil0 str0"
     sodipodi:nodetypes="ccscc"
     inkscape:label="C16.5 Kleine Kurvatur" /><path
     style="fill:none;fill-rule:evenodd;stroke:#000000;stroke-width:1;stroke-dasharray:none;stroke-opacity:1;image-rendering:optimizeQuality;shape-rendering:geometricPrecision;text-rendering:geometricPrecision"
     inkscape:connector-curvature="0"
     id="C16.1"
     d="m 586.86286,262.00182 c -8.412,-25.42945 -17.62541,-41.87558 -30.35543,-57.61602 -57.22489,-70.75752 -202.3127,-48.20217 -197.08603,57.87018 79.57005,0.46199 123.09152,0.26804 227.44146,-0.25416 z"
     class="fil0 str0"
     sodipodi:nodetypes="cscc"
     inkscape:label="C16.1 Fundus" /><path
     style="fill:none;fill-rule:evenodd;stroke:#000000;stroke-width:1;stroke-dasharray:none;stroke-opacity:1;image-rendering:optimizeQuality;shape-rendering:geometricPrecision;text-rendering:geometricPrecision"
     inkscape:connector-curvature="0"
     id="C16.4"
     d="m 58.754356,529.17092 c 23.510541,8.41938 34.830437,9.26133 47.021044,-5.89356 -2.61227,12.62907 1.74152,21.04844 14.80295,25.25813 5.22458,2.52582 9.57838,15.15489 21.76907,16.83877 -0.87077,82.50993 117.55297,136.39395 167.18647,78.30023 -55.17781,-42.22671 -48.5631,-45.06753 -79.66553,-90.62581 -12.40522,9.39936 -19.47711,5.73406 -24.82601,-9.56481 -5.64038,-16.13256 -14.02394,-28.99087 -24.2692,-38.67157 -9.80585,-9.2655 -21.36388,-15.62655 -31.8112,-18.87994 -15.47212,-4.81817 -29.41854,-3.18234 -37.962,6.1933 3.09778,-4.77799 3.11454,-7.50777 -1.06482,-11.01527 -6.38374,-5.35751 -20.977541,-9.77845 -37.248604,-12.559 -4.353803,20.20651 -8.707602,40.41302 -13.93217,60.61953 z"
     class="fil0 str0"
     sodipodi:nodetypes="ccccccssscscc"
     inkscape:label="C16.4 Pylorus" /><path
     style="fill:none;fill-rule:evenodd;stroke:#000000;stroke-width:1;stroke-dasharray:none;stroke-opacity:1;image-rendering:optimizeQuality;shape-rendering:geometricPrecision;text-rendering:geometricPrecision"
     inkscape:connector-curvature="0"
     id="C16.3"
     d="m 142.34742,565.37426 c -0.87077,82.50993 117.55297,136.39397 167.18647,78.30023 -55.17781,-42.2267 -48.5631,-45.06755 -79.66553,-90.62581 -6.21111,4.71861 -12.11191,6.8482 -16.81449,3.52835 -4.52727,-3.19609 -7.22719,-11.64661 -7.22719,-11.64661 0,0 -45.66679,14.94948 -63.47926,20.44384 z"
     class="fil0 str0"
     sodipodi:nodetypes="cccscc"
     inkscape:label="C16.3 Antrum pyloricum" /><path
     id="C16.9"
     style="font-size:33.2768px;font-family:'.Arial Hebrew Desk Interface';-inkscape-font-specification:'.Arial Hebrew Desk Interface, Normal';display:inline;fill:none;stroke:#000000;stroke-width:1;stroke-dasharray:none"
     d="m 618.93383,143.71544 q -2.7719,3.62043 -7.41057,3.62043 -4.18613,0 -6.84489,-2.65875 -2.60219,-2.71532 -2.60219,-6.78832 0,-4.35583 2.99817,-7.354 3.05474,-2.99817 7.24087,-2.99817 5.31751,0 8.42882,3.95985 3.16787,3.95985 3.16787,10.63501 0,7.24086 -3.28101,11.70984 -3.22446,4.46898 -8.99452,4.46898 -3.05473,0 -5.54378,-1.69709 -2.43247,-1.75366 -2.99817,-4.01642 l 4.80839,-0.7354 q 1.13138,2.14964 4.12955,2.14964 3.22446,0 5.03468,-2.7719 1.86678,-2.82846 1.86678,-7.5237 z m -0.90511,-5.93977 q 0,-2.88504 -1.47081,-4.52555 -1.41423,-1.64049 -3.95985,-1.64049 -2.20619,0 -3.79014,1.75363 -1.58393,1.69709 -1.58393,4.41241 0,2.37592 1.4708,3.95985 1.47081,1.52736 3.8467,1.52736 2.26278,0 3.84672,-1.52736 1.64051,-1.58393 1.64051,-3.95985 z m 15.97264,4.47502 A 21.750674,21.750674 0 0 1 612.25068,164.00135 21.750674,21.750674 0 0 1 590.5,142.25069 21.750674,21.750674 0 0 1 612.25068,120.5 a 21.750674,21.750674 0 0 1 21.75068,21.75069 z"
     inkscape:label="C16.9" /><path
     id="C16.8"
     style="font-size:33.2768px;font-family:'.Arial Hebrew Desk Interface';-inkscape-font-specification:'.Arial Hebrew Desk Interface, Normal';display:inline;fill:none;stroke:#000000;stroke-width:1;stroke-dasharray:none"
     d="m 606.21,80.95843 q -3.28102,-2.26276 -3.28102,-6.10946 0,-3.84672 2.77191,-5.88321 2.82845,-2.03649 6.50545,-2.03649 3.62044,0 6.44891,2.03649 2.82846,2.03649 2.82846,5.88321 0,3.8467 -3.28102,6.10946 v 0.0567 q 2.2062,1.01825 3.5073,3.05474 1.35765,1.97992 1.35765,4.35583 0,3.84672 -2.99816,6.61861 -2.99817,2.7719 -7.86314,2.7719 -5.03466,0 -7.97626,-2.7719 -2.88504,-2.82846 -2.88504,-6.61861 0,-2.37591 1.30111,-4.35583 1.35766,-2.03649 3.56385,-3.05474 z m 5.99634,-1.58393 q 1.69709,0 3.05474,-1.01824 1.41423,-1.01825 1.41423,-2.94161 0,-2.09306 -1.35766,-3.1113 -1.30108,-1.07483 -3.11131,-1.07483 -1.97992,0 -3.22444,1.13139 -1.24453,1.13138 -1.24453,3.05474 0,1.86678 1.35767,2.94161 1.41423,1.01824 3.1113,1.01824 z m 0,14.14232 q 2.14963,0 3.79014,-1.24453 1.64051,-1.24452 1.64051,-3.84671 0,-2.09306 -1.58393,-3.5073 -1.58394,-1.41423 -3.84672,-1.41423 -2.20619,0 -3.8467,1.41423 -1.58394,1.41424 -1.58394,3.5073 0,2.60219 1.64051,3.84671 1.64051,1.24453 3.79013,1.24453 z M 634.00133,82.25068 A 21.750674,21.750674 0 0 1 612.25068,104.00136 21.750674,21.750674 0 0 1 590.5,82.25068 21.750674,21.750674 0 0 1 612.25068,60.5 21.750674,21.750674 0 0 1 634.00133,82.25068 Z"
     inkscape:label="C16.8" /></svg>
