<?xml version="1.0" encoding="UTF-8" standalone="no"?>
<!-- Created with Inkscape (http://www.inkscape.org/) -->

<svg
   width="700"
   height="750"
   viewBox="0 0 700 750"
   id="svg2"
   version="1.1"
   inkscape:version="1.4.3 (0d15f75, 2025-12-25)"
   sodipodi:docname="level2_C51-C58.svg"
   xmlns:inkscape="http://www.inkscape.org/namespaces/inkscape"
   xmlns:sodipodi="http://sodipodi.sourceforge.net/DTD/sodipodi-0.dtd"
   xmlns="http://www.w3.org/2000/svg"
   xmlns:svg="http://www.w3.org/2000/svg"
   xmlns:rdf="http://www.w3.org/1999/02/22-rdf-syntax-ns#"
   xmlns:cc="http://creativecommons.org/ns#"
   xmlns:dc="http://purl.org/dc/elements/1.1/">
  <defs
     id="defs4" />
  <sodipodi:namedview
     id="base"
     pagecolor="#ffffff"
     bordercolor="#666666"
     borderopacity="1.0"
     inkscape:pageopacity="0.0"
     inkscape:pageshadow="2"
     inkscape:zoom="0.6426322"
     inkscape:cx="199.95886"
     inkscape:cy="217.85401"
     inkscape:document-units="px"
     inkscape:current-layer="layer1"
     showgrid="false"
     inkscape:window-width="1512"
     inkscape:window-height="949"
     inkscape:window-x="0"
     inkscape:window-y="33"
     inkscape:window-maximized="0"
     inkscape:showpageshadow="2"
     inkscape:pagecheckerboard="0"
     inkscape:deskcolor="#d1d1d1" />
  <metadata
     id="metadata7">
    <rdf:RDF>
      <cc:Work
         rdf:about="">
        <dc:format>image/svg+xml</dc:format>
        <dc:type
           rdf:resource="http://purl.org/dc/dcmitype/StillImage" />
      </cc:Work>
    </rdf:RDF>
  </metadata>
  <g
     inkscape:label="Laag 1"
     inkscape:groupmode="layer"
     id="layer1"
     transform="translate(0,10.629921)">
    <path
       style="fill:none;fill-rule:evenodd;stroke:#000000;stroke-width:1;stroke-linecap:butt;stroke-linejoin:miter;stroke-miterlimit:4;stroke-dasharray:none;stroke-opacity:1"
       d="m 301.66258,530.09989 c 0,0 6.60758,-5.95553 10.26682,-8.46061 3.09097,-2.11605 6.37906,-3.97361 9.80013,-5.49941 3.60126,-1.60616 7.36364,-2.89634 11.20017,-3.80728 3.97318,-0.94338 8.0522,-1.83023 12.13351,-1.69213 4.12969,0.13974 8.17497,1.35337 12.13351,2.53819 3.68419,1.10271 7.31679,2.46525 10.73348,4.23031 4.12592,2.13145 8.03667,4.71832 11.66683,7.61456 2.53719,2.02424 7.0001,6.7685 7.0001,6.7685 0,0 -7.27379,5.91594 -11.20016,8.46061 -4.17212,2.70394 -8.36697,5.57011 -13.06685,7.19153 -5.81047,2.00456 -12.05437,2.87282 -18.20026,2.96122 -5.3352,0.0767 -10.75612,-0.5821 -15.86689,-2.11516 -4.96494,-1.48931 -9.70273,-3.87016 -14.00021,-6.76849 -4.69987,-3.16971 -12.60018,-11.42184 -12.60018,-11.42184 z"
       id="C51"
       inkscape:connector-curvature="0"
       inkscape:label="#path4147"
       sodipodi:nodetypes="cssssssscsssssc" />
    <path
       style="fill:none;fill-rule:evenodd;stroke:#000000;stroke-width:1;stroke-linecap:butt;stroke-linejoin:miter;stroke-miterlimit:4;stroke-dasharray:none;stroke-opacity:1"
       d="m 386.59713,531.79202 c 0,0 6.87304,-7.87207 10.26683,-11.84487 4.5496,-5.32581 8.72366,-10.98321 13.53353,-16.07519 3.52593,-3.73274 7.03769,-7.56918 11.20015,-10.57576 12.09431,-8.73583 38.29089,-17.18238 40.13392,-17.76731"
       id="path4149"
       inkscape:connector-curvature="0"
       sodipodi:nodetypes="csssc" />
    <path
       style="fill:none;fill-rule:evenodd;stroke:#000000;stroke-width:1;stroke-linecap:butt;stroke-linejoin:miter;stroke-miterlimit:4;stroke-dasharray:none;stroke-opacity:1"
       d="m 227.4615,473.83677 c 0,0 8.4362,2.4244 12.60019,3.80727 5.49621,1.82531 11.23444,3.17672 16.33357,5.92244 4.78136,2.57461 8.99835,6.13287 13.06685,9.72972 4.38479,3.87648 8.30596,8.26336 12.13351,12.69093 4.05044,4.6854 7.43676,9.91467 11.43208,14.64717 2.75504,3.26337 8.63488,9.46559 8.63488,9.46559"
       id="path4151"
       inkscape:connector-curvature="0"
       sodipodi:nodetypes="csssssc" />
    <path
       style="fill:none;fill-rule:evenodd;stroke:#000000;stroke-width:1;stroke-linecap:butt;stroke-linejoin:miter;stroke-miterlimit:4;stroke-dasharray:none;stroke-opacity:1"
       d="m 315.51627,519.468 c -2.23807,1.31287 -2.58324,-5.11995 -2.05599,-7.61653 1.0396,-4.92259 5.26448,-8.82683 6.01584,-13.71199 0.74867,-4.86763 0.7644,-10.00991 -0.29543,-14.8002 -2.43206,-10.99251 -7.21884,-21.57264 -8.27548,-32.76108 -1.08995,-11.54114 1.12279,-23.26729 -0.14966,-34.77654 -0.94777,-8.57252 -2.02272,-17.11628 -3.81897,-25.557 -1.38243,-6.49613 -3.95816,-12.91054 -7.4453,-18.53185 -1.9587,-3.15744 -6.24888,-4.26506 -8.06413,-7.49229 -1.15462,-2.05273 0.76469,-4.5124 3.26666,-5.68874 1.74183,-0.81895 4.92719,-1.96717 6.08527,-0.54977 2.35105,2.87751 3.72972,7.65636 7.20572,8.66352 3.55425,1.02984 6.64913,1.99604 10.16106,2.77234 3.1909,0.70534 7.25497,1.30631 10.21768,-0.37656 2.94756,-1.67427 5.06628,-4.63291 7.99438,-6.09159 2.63218,-1.31126 5.57667,-0.67739 8.45387,-0.0587 4.39611,0.9453 8.23657,3.10717 12.01149,5.60817 4.26129,2.82323 9.98725,2.09474 14.92807,1.0115 3.46569,-0.75983 7.05854,-1.82978 10.02858,-3.69803 2.4569,-1.54547 4.07883,-4.32861 6.38362,-5.86607 2.18959,-1.46061 4.50109,-0.66137 6.50711,1.1185 1.85899,1.64942 1.2478,4.38255 -0.42798,6.00524 -3.24029,3.13764 -6.10169,6.68289 -8.23495,10.7878 -2.94296,5.66298 -5.01407,11.67183 -6.19396,17.858 -1.98637,10.41455 -2.99944,21.00355 -3.18404,31.62614 -0.1164,6.69806 -1.09487,13.40866 -0.87275,20.08767 0.52755,3.82609 1.03839,7.6173 -0.0562,11.42246 -1.31747,4.57997 -1.94118,9.30099 -3.09658,13.95159 -1.8674,7.51646 -6.03179,15.14601 -4.78871,22.78928 0.88146,5.4198 5.09476,9.81021 5.74292,15.38753 0.33721,2.90165 0.44557,6.04061 -0.62423,8.7863 -4.03021,-1.7434 -8.599,-4.06382 -13.27353,-5.80746 -3.15101,-1.17536 -6.3563,-1.93592 -9.45344,-2.65954 -1.76325,-0.41197 -3.46511,-0.44958 -5.144,-0.65964 -4.63577,-0.58002 -7.35857,0.58252 -11.9339,1.61669 -6.11867,1.38296 -12.19533,3.37151 -17.37963,7.07393 z"
       id="C52"
       inkscape:connector-curvature="0"
       inkscape:label="#path4157"
       sodipodi:nodetypes="sssssssssssssssssssssssssssssscsssscs" />
    <path
       style="fill:none;fill-rule:evenodd;stroke:#000000;stroke-width:1;stroke-linecap:butt;stroke-linejoin:miter;stroke-miterlimit:4;stroke-dasharray:none;stroke-opacity:1"
       d="m 335.64553,272.08907 c 0,0 1.48946,1.52136 2.391,2.0661 1.08102,0.65319 2.29483,1.10656 3.52662,1.38581 1.44492,0.32756 2.99847,0.68609 4.43341,0.31727 1.25639,-0.32293 2.65923,-0.97486 3.72192,-1.71883 0.95823,-0.67084 2.34483,-2.51148 2.34483,-2.51148 0,0 -2.04938,15.19477 -2.33336,22.84368 -0.20935,5.63867 0.34462,11.28 0.46666,16.92124 0.052,2.40546 -0.10919,4.82145 0.11324,7.21717 0.18516,1.99427 0.57049,3.9692 1.01341,5.92245 0.45185,1.99261 1.3918,3.87306 1.67339,5.89677 0.62187,4.46928 0.0607,9.02507 0,13.537 -0.0778,5.78299 -0.54822,11.56132 -0.46667,17.34426 0.0199,1.41211 0.23333,4.23032 0.23333,4.23032 0,0 -4.73162,-2.12147 -7.23343,-2.7497 -1.5974,-0.40113 -3.25594,-0.73158 -4.90007,-0.63455 -1.44122,0.0851 -4.20007,1.05757 -4.20007,1.05757 0,0 -0.84259,-5.91464 -1.16668,-8.88365 -0.58366,-5.34692 -1.30426,-10.69736 -1.40002,-16.07518 -0.054,-3.03523 -0.20102,-6.1338 0.46667,-9.09517 0.53702,-2.38181 1.9656,-4.47391 2.80005,-6.76849 0.70741,-1.94525 1.86669,-5.92244 1.86669,-5.92244 1.75504,-5.56821 1.09862,-11.62317 0.66571,-17.56835 -0.34262,-4.70515 -0.83475,-9.50602 -1.54172,-14.398 -0.69037,-4.77714 -1.0239,-3.86853 -1.49373,-5.81329 -0.23272,-0.96331 -0.50324,-1.92059 -0.6563,-2.89972 -0.19126,-1.22348 -0.32488,-3.70079 -0.32488,-3.70079 z"
       id="C53"
       inkscape:connector-curvature="0"
       inkscape:label="#path4159"
       sodipodi:nodetypes="csssscssssssscsscsssssssssc" />
    <path
       style="fill:none;fill-rule:evenodd;stroke:#000000;stroke-width:0.7;stroke-linecap:butt;stroke-linejoin:miter;stroke-miterlimit:4;stroke-dasharray:none;stroke-opacity:1"
       d="m 272.94783,171.58203 c -1.84181,2.92071 1.42356,7.22901 3.95985,9.57209 2.37787,2.19673 6.29486,1.64664 9.23966,2.99128 3.5073,1.60149 7.00601,3.43443 9.89963,5.98256 3.05597,2.6911 5.29448,6.20865 7.58973,9.5721 2.34127,3.43089 4.74232,6.90604 6.26977,10.76862 0.90295,2.28336 1.13346,4.77859 1.64994,7.17907 0.4706,2.18724 0.51722,4.49248 1.31995,6.58081 1.08189,2.81455 3.17965,5.12816 4.61983,7.77733 2.60408,4.79014 4.70891,9.83858 7.25974,14.65728 2.30337,4.35122 5.28016,8.35475 7.25973,12.86251 1.43307,3.2633 2.50337,6.69639 3.29989,10.17035 0.17995,0.78486 -0.11794,1.72389 0.32998,2.39304 1.27028,1.8977 3.73464,2.78147 5.91762,3.45191 1.49046,0.45775 3.1637,0.73184 4.66674,0.31727 2.32641,-0.64168 4.48747,-2.205 5.95009,-4.12455 1.99263,-2.61513 1.97017,-6.28533 3.2667,-9.30668 2.38948,-5.56828 5.45675,-10.82136 8.28346,-16.18094 2.43287,-4.61284 5.17672,-9.06313 7.46678,-13.74851 1.6216,-3.31775 3.45965,-6.59061 4.43339,-10.15275 0.67428,-2.46668 0.27195,-5.14439 0.93335,-7.61456 1.03009,-3.84711 2.73408,-7.51654 4.66674,-10.9988 1.83935,-3.31413 3.7425,-6.74203 6.53342,-9.30668 3.71195,-3.41103 8.63319,-5.21531 13.06686,-7.61456 2.90732,-1.57328 5.82997,-3.13588 8.86679,-4.44182 1.14006,-0.49027 3.01144,-0.96301 3.97899,-1.74015 2.60384,-2.09138 6.41551,-5.01974 4.88781,-7.98957 -4.66798,-9.07439 -20.36427,-1.50065 -30.56711,-1.69212 -7.93331,-0.14888 -15.86629,0.52367 -23.80035,0.42303 -6.53898,-0.0829 -13.0612,-0.77087 -19.60028,-0.84607 -7.00105,-0.0805 -13.99913,0.35253 -21.00029,0.42304 -6.5331,0.0658 -13.06698,0.0378 -19.6003,0 -9.20219,-0.0533 -15.6666,-2.85898 -24.68469,-2.54801 -1.32812,0.0458 -5.65458,2.05941 -6.36342,3.18348 z"
       id="C55"
       inkscape:connector-curvature="0"
       inkscape:label="C55"
       sodipodi:nodetypes="ssssssssssssssssssssssssssssssssss" />
    <path
       style="fill:none;fill-rule:evenodd;stroke:#000000;stroke-width:1;stroke-linecap:butt;stroke-linejoin:miter;stroke-miterlimit:4;stroke-dasharray:none;stroke-opacity:1"
       d="m 300.02922,357.29173 c -1.17766,-0.90375 -2.74783,-1.17292 -4.20006,-1.48062 -1.75549,-0.37195 -3.57287,-0.3771 -5.36674,-0.42303 -2.56683,-0.0657 -5.14615,-0.0535 -7.70011,0.21152 -0.39312,0.0408 -0.87322,0.47624 -1.16669,0.21151 -3.7804,-3.41018 0.23341,-10.22414 1.16669,-15.22911 0.74232,-3.98087 2.34528,-7.75201 3.50005,-11.63336 1.25745,-4.22647 2.54291,-8.44511 3.73339,-12.69093 1.79271,-6.39366 5.47901,-12.61668 5.1334,-19.24791 -0.20426,-3.91917 -2.15042,-7.65208 -4.20006,-10.99881 -2.18256,-3.56377 -5.63925,-6.16954 -8.40012,-9.30668 -4.41902,-5.02128 -9.56188,-9.53209 -13.06687,-15.22912 -5.52132,-8.97442 -8.53579,-19.28551 -12.1335,-29.18913 -3.02662,-8.33157 -5.91582,-16.75027 -7.93345,-25.38187 -0.45489,-1.94605 -0.89903,-3.92422 -0.93335,-5.92243 -0.0439,-2.55681 0.57869,-5.08209 0.93335,-7.61456 0.0693,-0.4948 0.5103,-1.06478 0.23334,-1.48062 -1.1539,-1.73252 -3.61435,-0.5566 -5.43147,-1.57205 -1.05037,-0.58697 -2.10175,-1.5481 -3.20199,-2.44673 -1.62681,-1.32871 -3.31184,-2.65757 -3.96671,-4.65335 -0.79134,-2.41167 -0.91796,-5.49189 -0.84976,-8.02916 0.0778,-2.89385 1.13269,-6.23889 1.54976,-9.10359 0.24024,-1.6502 0.38807,-2.63276 1.23074,-4.07178 2.57038,-4.38938 7.27748,-7.42 11.13609,-10.73431 4.97865,-4.27636 9.89537,-8.69427 15.40023,-12.2679 7.57135,-4.91514 15.70739,-8.99279 24.03369,-12.47941 7.9962,-3.34839 16.21192,-6.44687 24.73368,-8.03759 10.10771,-1.88676 20.51821,-1.72732 30.80045,-1.69213 6.85756,0.0235 13.75813,0.21113 20.53363,1.2691 10.78132,1.68347 21.43492,4.43148 31.73379,8.03759 6.44777,2.25766 12.87897,4.83155 18.66693,8.46062 6.34653,3.97929 11.64563,9.43186 17.26692,14.38305 5.90116,5.1977 11.87124,10.35448 17.26691,16.07518 1.0046,1.06512 2.21089,2.04387 2.80005,3.38425 0.45821,1.0425 0.96052,3.31595 1.03849,4.45204 0.31897,2.52735 -0.41787,4.08576 -1.53321,6.40959 -1.54016,2.73973 -3.06527,4.95654 -5.02647,7.18957 -1.4802,1.53219 -2.28619,2.34701 -4.27895,3.10035 -1.03703,0.39203 -3.7426,0.20804 -4.20007,1.26909 -0.64131,1.48743 0.69847,3.19335 1.40002,4.65334 0.59346,1.23504 1.92606,2.07596 2.33337,3.38425 0.41916,1.34636 0.11009,2.82451 0,4.23031 -0.078,0.99621 -0.15839,2.01071 -0.46667,2.96122 -0.63463,1.95672 -1.88056,3.65928 -2.80005,5.4994 -2.52716,5.05745 -5.24371,10.03082 -7.46677,15.22912 -2.48118,5.80188 -4.23797,11.88946 -6.53342,17.7673 -2.22045,5.68581 -4.39078,11.40306 -7.0001,16.92124 -2.25586,4.77068 -4.27929,9.75428 -7.46677,13.96003 -2.214,2.92128 -5.37734,4.9874 -7.93346,7.61455 -2.25853,2.32128 -5.28718,4.20218 -6.53342,7.19153 -1.14103,2.73698 -0.38887,5.91937 -0.46668,8.88365 -0.074,2.81924 -0.29919,5.65633 0,8.46062 0.70398,6.5984 2.38232,13.0774 4.20006,19.45943 1.33271,4.67912 3.52695,9.08109 4.90008,13.74851 0.67439,2.29238 1.21516,4.62737 1.63335,6.98001 0.22377,1.25886 0.52751,2.53014 0.46668,3.80728 -0.0515,1.08179 0.12014,2.46545 -0.70002,3.17273 -0.76758,0.66194 -2.02041,0.17625 -3.03337,0.21152 -1.4769,0.0514 -2.95915,-0.1023 -4.4334,0 -2.03692,0.14135 -4.15338,0.13331 -6.06675,0.84606 -1.82345,0.67925 -3.48382,1.83836 -4.90008,3.17274 -0.38219,0.3601 -0.59949,0.86376 -0.93334,1.26909 -1.31497,1.59649 -2.55106,3.31953 -4.20171,4.56583 -1.32688,1.00184 -2.94144,1.55502 -4.45483,2.24346 -2.16267,0.98379 -4.30663,2.07049 -6.59975,2.69216 -2.03767,0.55242 -4.15858,0.88722 -6.26978,0.89739 -1.88646,0.009 -3.77747,-0.29907 -5.60979,-0.74783 -1.42056,-0.34792 -2.88084,-0.72656 -4.12485,-1.49564 -1.35477,-0.83756 -3.2132,-1.71766 -3.46487,-3.29042 -0.89846,-5.61471 0.43211,-12.25755 0.16499,-18.39637 -0.22974,-5.27988 0.74479,-10.6008 0.165,-15.85378 -0.44942,-4.07177 -2.57341,-7.87518 -2.8049,-11.96513 -0.42482,-7.5057 -0.0309,-15.11723 -0.65997,-22.58417 -0.0518,-0.61539 0.22083,-3.11056 0.25177,-3.72495 0.23377,-4.64275 0.99745,-7.31613 1.23316,-11.82972 0.14372,-2.75201 0.25111,-5.53067 0.82498,-8.22601 0.26438,-1.24173 1.14403,-2.22667 1.55167,-3.43183 0.43544,-1.28733 0.70094,-3.36326 1.21766,-4.6171 1.97373,-4.78927 4.30351,-8.71322 6.63533,-13.33873 2.34296,-4.64762 4.74769,-9.26391 7.09474,-13.90947 2.4385,-4.82656 5.73492,-9.31956 7.25973,-14.50771 0.72113,-2.45364 0.19227,-5.14985 0.82497,-7.62777 0.96103,-3.76381 2.57831,-7.36737 4.45484,-10.76861 1.97708,-3.58348 4.06774,-7.26626 7.09473,-10.02079 4.3639,-3.97111 10.11966,-6.08293 15.34445,-8.82427 3.18266,-1.66988 6.23942,-3.12308 9.73465,-4.63649 3.00799,-1.30244 7.04877,-5.13136 5.60978,-8.07646 -4.40087,-9.00699 -20.0059,-1.4636 -30.0289,-1.64521 -5.38984,-0.0977 -10.77868,0.30417 -16.1694,0.29913 -4.89584,-0.005 -9.79028,-0.17213 -14.68447,-0.29913 -6.32578,-0.16415 -12.6464,-0.58882 -18.9743,-0.59824 -6.98758,-0.0104 -13.96735,0.49849 -20.95423,0.59824 -4.65391,0.0664 -9.3758,0.05 -13.99524,-0.18676 -4.31806,-0.2213 -7.60257,-0.52227 -11.59588,-1.27012 -7.42434,-1.44924 -15.71972,-3.60428 -19.28724,1.90559 -1.82671,2.82127 1.51132,6.97052 3.95984,9.27296 2.38174,2.23965 6.26629,1.93111 9.23967,3.29041 3.21937,1.47175 6.5697,2.91058 9.23966,5.23475 3.41062,2.96891 5.69712,7.03617 8.2497,10.76861 2.27217,3.32242 4.805,6.57083 6.26978,10.31992 1.72124,4.4055 1.0567,9.51457 2.80489,13.90945 1.15138,2.89454 3.44154,5.20125 4.94983,7.92689 2.49631,4.51111 4.38034,9.33821 6.76474,13.90946 2.29699,4.40369 5.28813,8.45341 7.25974,13.01207 1.37045,3.16869 2.35156,6.50892 3.13488,9.87123 0.58348,2.5045 0.64463,5.10735 1.15496,7.62777 0.53088,2.62192 1.61397,5.12734 1.97993,7.77732 1.49409,10.81896 2.62639,21.98248 0.82497,32.75454 -0.67568,4.04038 -3.48018,7.50075 -4.28985,11.51643 -0.78898,3.91304 -0.56476,7.97395 -0.49498,11.96512 0.0883,5.04925 0.27742,10.13278 1.15497,15.10597 0.45934,2.60316 0.98451,5.35704 1.48494,7.32864 -3.49796,1.91489 -4.25106,2.67136 -5.33968,3.54999 -2.01403,1.62555 -2.63277,2.38353 -4.60441,2.96169 -2.2171,0.65014 -4.62037,0.45511 -6.90223,0.0927 -2.38319,-0.37851 -3.96446,-0.67379 -6.24082,-1.47445 -1.90809,-0.67114 -4.11081,-0.93095 -5.72855,-1.65797 -2.49332,-1.12048 -3.98486,-3.86073 -5.66806,-6.01455 -0.8308,-1.06308 -1.21716,-2.51785 -2.28752,-3.33925 z"
       id="C54"
       inkscape:connector-curvature="0"
       inkscape:label="C54 "
       sodipodi:nodetypes="ssssssssssssssssssssssssssssssssssssssssssssssssssssssssssssssssssssssssssssssssssssssssssssssssssssssssssssssscsssssss" />
    <path
       id="C56"
       style="fill:none;fill-rule:evenodd;stroke:#000000;stroke-width:1;stroke-linecap:butt;stroke-linejoin:miter;stroke-miterlimit:4;stroke-dasharray:none;stroke-opacity:1"
       d="m 580.03327,234.40121 c -1.52864,0.67483 -3.3844,0.35411 -4.90008,1.05757 -1.78128,0.82673 -3.06696,2.45684 -4.66674,3.59577 -2.198,1.56482 -4.60508,2.8272 -6.76675,4.44183 -2.44875,1.82906 -4.41681,4.28888 -7.00009,5.92243 -1.58786,1.00409 -3.31265,1.86375 -5.13342,2.32667 -1.88947,0.48039 -3.88386,0.41703 -5.83343,0.42303 -3.19593,0.01 -6.37366,-0.76829 -9.5668,-0.63455 -1.41467,0.0592 -2.82694,0.2891 -4.20006,0.63455 -2.64309,0.66495 -5.07252,2.02595 -7.70012,2.7497 -1.75785,0.48419 -3.55204,0.88048 -5.36673,1.05758 -2.16752,0.21153 -4.38741,0.37072 -6.53344,0 -2.27804,-0.39352 -4.40348,-1.42797 -6.53342,-2.32667 -1.916,-0.80843 -3.95601,-1.47624 -5.60007,-2.7497 -1.98302,-1.53601 -3.36593,-3.72645 -4.90007,-5.71092 -1.41761,-1.83373 -2.87068,-3.66865 -3.96673,-5.71092 -0.89685,-1.67109 -2.14587,-3.3919 -2.10004,-5.28789 0.0318,-1.31607 0.88559,-2.5123 1.63336,-3.59576 1.12869,-1.63539 2.67139,-2.96082 4.20007,-4.23031 2.02594,-1.68244 4.1951,-3.23051 6.53342,-4.44183 2.13906,-1.1081 4.4171,-2.00661 6.76676,-2.53818 1.59902,-0.36175 3.40741,0.25498 4.90007,-0.42304 1.57311,-0.71457 2.45855,-2.42953 3.73338,-3.59576 1.82444,-1.66902 3.5642,-3.46152 5.60009,-4.86485 1.59825,-1.10167 3.44661,-1.7891 5.13342,-2.7497 1.42148,-0.8095 2.60887,-2.15874 4.20006,-2.53819 1.82094,-0.43424 3.72939,0.35247 5.60006,0.42302 1.47675,0.0557 3.04127,0.49584 4.4334,0 1.89122,-0.67359 2.96836,-2.73679 4.66674,-3.80728 1.81857,-1.14624 3.72604,-2.32542 5.83343,-2.74969 1.60272,-0.32267 3.28233,-0.0246 4.90007,0.21152 1.42859,0.20847 2.81299,0.65713 4.20006,1.05757 1.96513,0.56733 4.04518,0.91074 5.83341,1.90363 2.39702,1.33091 4.17826,3.55157 6.3001,5.28789 1.92499,1.57523 4.07212,2.89698 5.83341,4.65334 1.40814,1.4042 2.92936,2.83451 3.73339,4.65335 0.60601,1.37091 0.51986,2.95381 0.70001,4.44182 0.22112,1.82639 0.58847,3.66372 0.46668,5.49941 -0.11949,1.80106 -0.17066,3.78255 -1.16669,5.28789 -0.73769,1.1149 -2.04372,1.78677 -3.26671,2.32667 z m -471.10681,-2.11515 c 2.04911,1.99606 5.08166,2.65094 7.46678,4.2303 2.12497,1.4071 4.10983,3.02057 6.06674,4.65334 2.90182,2.42117 5.12612,5.72685 8.40014,7.61456 2.40535,1.38686 5.20907,2.0025 7.93343,2.53819 1.76075,0.34622 3.5723,0.43096 5.36675,0.42303 2.42038,-0.0107 4.81535,-0.52869 7.23344,-0.63455 2.02031,-0.0884 4.06869,-0.31184 6.06675,0 1.37166,0.21408 2.67846,0.75176 3.96673,1.2691 2.0882,0.83858 3.87421,2.45468 6.06675,2.96121 2.72818,0.63028 5.64116,0.47783 8.40013,0 2.68546,-0.4651 5.41948,-1.25745 7.7001,-2.74969 2.75432,-1.80219 4.39907,-4.90502 6.76677,-7.19154 2.30719,-2.22809 5.62277,-3.57179 7.23344,-6.34546 0.9757,-1.68021 1.52107,-3.80056 1.16667,-5.71092 -0.28993,-1.56283 -1.50476,-2.83607 -2.56669,-4.01879 -1.73178,-1.92876 -4.13317,-3.13847 -6.06676,-4.86485 -1.7169,-1.5329 -2.81536,-3.88942 -4.90007,-4.86487 -2.05196,-0.96013 -4.60702,0.0495 -6.76676,-0.63455 -1.62337,-0.51417 -3.08148,-1.50279 -4.4334,-2.53818 -2.44957,-1.87605 -4.11575,-4.64001 -6.53343,-6.55698 -1.57623,-1.24979 -3.41701,-2.12373 -5.13341,-3.17274 -1.6284,-0.99523 -3.09086,-2.35381 -4.90007,-2.96121 -1.92755,-0.64713 -4.03623,-0.52865 -6.06675,-0.63455 -2.01951,-0.10533 -4.12977,0.58103 -6.06675,0 -1.96311,-0.58887 -3.28352,-2.50194 -5.13341,-3.38425 -2.94605,-1.40512 -6.06984,-2.91277 -9.33346,-2.96121 -2.83028,-0.042 -5.66194,1.00838 -8.1668,2.32667 -2.05494,1.0815 -3.59493,2.94079 -5.36674,4.44182 -1.80659,1.53049 -3.72766,2.94467 -5.36674,4.65335 -1.12328,1.17098 -2.13276,2.45751 -3.03338,3.80727 -0.89382,1.33957 -1.97716,2.65982 -2.33336,4.23032 -0.2968,1.30862 0.12431,2.68137 0.23333,4.01879 0.12096,1.48383 0.35603,2.95718 0.46667,4.44182 0.13113,1.75947 -0.27607,3.59868 0.23334,5.28789 0.26133,0.86659 0.75165,1.6951 1.40002,2.32668 z"
       inkscape:label="#path4167"
       inkscape:connector-curvature="0"
       sodipodi:nodetypes="ssssssssssssssssssssssssssssssssssssssssssssssssssssssssssssssssssssssssssss" />
    <path
       style="fill:none;fill-rule:evenodd;stroke:#000000;stroke-width:1;stroke-linecap:butt;stroke-linejoin:miter;stroke-miterlimit:4;stroke-dasharray:none;stroke-opacity:1"
       d="m 187.48095,221.23728 c 0,0 7.93041,1.31465 11.87956,0.89738 4.21861,-0.44574 8.22413,-2.13635 12.20955,-3.58953 3.49818,-1.27552 6.93355,-2.75485 10.22963,-4.48692 4.69526,-2.46733 9.29215,-5.18531 13.52951,-8.37559 3.08372,-2.32172 5.89214,-5.00661 8.57968,-7.77732 2.00691,-2.06902 5.60979,-6.58083 5.60979,-6.58083"
       id="path4170"
       inkscape:connector-curvature="0"
       sodipodi:nodetypes="csssssc" />
    <path
       style="fill:none;fill-rule:evenodd;stroke:#000000;stroke-width:1;stroke-linecap:butt;stroke-linejoin:miter;stroke-miterlimit:4;stroke-dasharray:none;stroke-opacity:1"
       d="m 199.03053,234.09979 c 0,0 5.98078,1.12896 8.90966,0.59826 4.04028,-0.73208 7.55196,-3.23903 11.2196,-5.08518 3.48429,-1.75386 6.89068,-3.66655 10.22962,-5.68343 4.05126,-2.44715 8.07819,-4.95763 11.87957,-7.77734 2.99502,-2.22158 8.57969,-7.17907 8.57969,-7.17907"
       id="path4172"
       inkscape:connector-curvature="0"
       sodipodi:nodetypes="cssssc" />
    <path
       style="fill:none;fill-rule:evenodd;stroke:#000000;stroke-width:1;stroke-linecap:butt;stroke-linejoin:miter;stroke-miterlimit:4;stroke-dasharray:none;stroke-opacity:1"
       d="m 443.06461,198.8666 c 0,0 6.10819,6.59336 9.72663,9.20904 3.23954,2.34178 6.91456,4.04268 10.55962,5.68344 3.95386,1.77977 8.07468,3.18174 12.20955,4.48692 4.44946,1.40449 8.94011,2.74832 13.52951,3.58954 3.80704,0.69781 11.0805,1.08001 11.0805,1.08001"
       id="path4174"
       inkscape:connector-curvature="0"
       sodipodi:nodetypes="cssssc" />
    <path
       style="fill:none;fill-rule:evenodd;stroke:#000000;stroke-width:1;stroke-linecap:butt;stroke-linejoin:miter;stroke-miterlimit:4;stroke-dasharray:none;stroke-opacity:1"
       d="m 440.25171,210.7678 c 0,0 5.78916,4.79621 8.90966,6.87995 4.00546,2.67468 8.3636,4.77923 12.53954,7.17906 3.63328,2.08798 7.11809,4.45523 10.88962,6.28169 4.36854,2.11558 9.08394,3.43576 13.52949,5.38432 1.89964,0.83265 5.2453,2.98476 5.2453,2.98476"
       id="path4176"
       inkscape:connector-curvature="0"
       sodipodi:nodetypes="cssssc" />
    <path
       id="C57"
       style="fill:none;fill-rule:evenodd;stroke:#000000;stroke-width:1;stroke-linecap:butt;stroke-linejoin:miter;stroke-miterlimit:4;stroke-dasharray:none;stroke-opacity:1"
       d="m 238.95906,162.00992 c 0,0 -8.19574,6.10954 -12.20954,9.27297 -5.69109,4.48536 -11.15199,9.25721 -16.82939,13.75989 -3.58794,2.84555 -6.74496,6.42819 -10.8896,8.37559 -2.44989,1.1511 -5.21467,1.6961 -7.91972,1.79476 -1.33404,0.0486 -2.91743,0.23565 -3.95985,-0.59825 -1.42043,-1.1363 -1.50562,-3.32909 -1.97993,-5.08517 -0.73697,-2.72855 -0.0601,-5.8456 -1.31996,-8.37559 -0.98839,-1.98485 -2.61805,-3.8324 -4.61982,-4.78605 -2.09312,-0.99717 -4.70079,0.0399 -6.92976,-0.59825 -1.89922,-0.54372 -3.66688,-1.55147 -5.27979,-2.69216 -2.60084,-1.83937 -4.30955,-4.76913 -6.92975,-6.58082 -3.01481,-2.08453 -6.28641,-4.17048 -9.89964,-4.78606 -2.61906,-0.44621 -5.29532,1.31111 -7.91971,0.89739 -1.9087,-0.3009 -3.74003,-1.22565 -5.27981,-2.39302 -2.17968,-1.65251 -3.29344,-4.40123 -5.27981,-6.28169 -3.49654,-3.31011 -7.14614,-6.72733 -11.54958,-8.67472 -3.8917,-1.72107 -8.30316,-1.99241 -12.53954,-2.39303 -4.16128,-0.39352 -8.360278,-0.0701 -12.539535,0 -5.942293,0.0997 -11.983964,-0.52826 -17.81935,0.59827 -4.020884,0.77624 -8.114006,1.95914 -11.549582,4.18779 -3.720432,2.41343 -7.042264,5.72012 -9.239658,9.5721 -1.640029,2.87493 -2.639902,8.07646 -2.639902,9.5721 0,1.49564 -2.308391,13.33657 -1.979931,20.04158 0.303429,6.19403 1.473697,12.43227 3.629867,18.24682 1.711764,4.61612 4.586508,8.7282 7.259742,12.86251 2.621,4.05352 5.7794,7.73418 8.579679,11.66599 1.686228,2.3676 3.488807,4.66625 4.949816,7.17908 0.890388,1.5314 2.391399,3.01648 2.309919,4.78604 -0.05888,1.2787 -1.200463,2.27504 -1.979927,3.29042 -1.350194,1.75884 -3.166653,3.11128 -4.619829,4.78604 -1.407983,1.62268 -3.124577,3.10583 -3.959858,5.08518 -0.626137,1.48374 -1.386175,3.34864 -0.659968,4.78605 0.564627,1.11759 2.067927,1.57086 3.299869,1.79477 1.420515,0.25818 2.879607,-0.28882 4.289843,-0.59826 1.010137,-0.22165 2.064377,-1.39693 2.96989,-0.89738 2.535807,1.39894 -0.142006,6.83435 2.30992,8.37559 0.473218,0.29746 1.120902,-0.11873 1.64993,-0.29913 0.820732,-0.27988 1.815004,-0.48449 2.30992,-1.19652 0.51601,-0.74238 0.274889,-1.78973 0.32999,-2.69215 0.13369,-2.18953 -0.43717,-4.43121 0,-6.58081 0.280619,-1.37983 0.242925,-3.83407 1.64994,-3.88867 1.908426,-0.074 1.139555,3.90344 2.63991,5.08518 0.979135,0.77121 2.38481,0.83981 3.62986,0.89738 0.666757,0.0308 1.417286,0.0599 1.97994,-0.29913 1.007955,-0.64326 1.557733,-1.87257 1.97992,-2.99128 0.284307,-0.75336 0.260576,-1.5908 0.32998,-2.39302 0.26659,-3.08144 0.274983,-6.18052 0.32999,-9.27298 0.01773,-0.99694 -0.838038,-2.45101 0,-2.99128 2.030045,-1.30873 4.205155,2.67553 6.599765,2.99128 1.21576,0.16031 2.577,0.0304 3.62987,-0.59825 1.08164,-0.64585 1.98572,-1.77393 2.30991,-2.99129 0.41443,-1.55621 -0.0543,-3.29384 -0.65997,-4.78605 -0.41895,-1.03216 -1.29461,-1.81397 -1.97993,-2.69215 -0.63694,-0.81619 -2.08085,-1.36266 -1.97993,-2.39303 0.13838,-1.41282 2.29491,-2.65381 2.29491,-2.65381 0,0 0.17019,-1.81821 -0.0928,-4.93636 -0.18224,-2.16072 -0.95756,-5.46979 -0.55217,-7.0671 0.82207,-3.23913 3.14117,-5.7492 5.32594,-8.27794 1.21255,-1.40345 3.58897,-3.1729 5.36674,-4.65335 1.48436,-1.23611 2.50683,-2.32424 2.50683,-2.32424 0,0 -4.54791,-1.65177 -6.92975,-1.79477 -2.99116,-0.17958 -5.91372,1.13659 -8.90967,1.19651 -3.20324,0.0641 -6.519039,0.0817 -9.569645,-0.89738 -1.697074,-0.54468 -3.318919,-1.47382 -4.61984,-2.69215 -1.57988,-1.47958 -2.571872,-3.49596 -3.62987,-5.3843 -1.553664,-2.77301 -3.75555,-5.5027 -3.95986,-8.67472 -0.167695,-2.60355 1.049155,-5.19412 2.30992,-7.47821 1.142816,-2.0704 2.594207,-4.16385 4.61982,-5.3843 2.704954,-1.62976 6.089757,-1.86823 9.23967,-2.0939 3.742215,-0.26811 7.510665,0.33176 11.219595,0.89738 2.67591,0.40808 5.38686,0.83997 7.91971,1.79478 1.75746,0.66251 3.41822,1.60505 4.94982,2.69215 2.66345,1.89047 4.80713,4.42382 7.25974,6.58081 1.84574,1.62327 3.37809,3.75585 5.60979,4.78605 1.71935,0.79369 4.28985,0.89739 5.60979,0.89739 1.86993,0 3.74035,-0.0423 5.6098,0 2.20161,0.0499 4.49781,-0.3577 6.59976,0.29912 1.61137,0.50352 3.03727,1.56031 4.28985,2.69216 3.188,2.88073 4.96401,7.05172 7.9197,10.17035 2.40549,2.53811 5.30418,4.55888 7.91971,6.87995 2.22087,1.97084 4.06183,4.44136 6.59977,5.98257 2.20603,1.33966 4.6791,2.65188 7.25973,2.69214 3.13242,0.0489 6.22251,-1.3808 8.90967,-2.99127 3.24165,-1.94279 5.08761,-5.70758 8.2497,-7.77734 3.40195,-2.22676 7.51706,-3.10588 11.21959,-4.78605 3.55759,-1.6144 6.90384,-3.70746 10.55961,-5.08517 2.77831,-1.04703 5.64857,-1.91985 8.57968,-2.39303 3.39092,-0.54741 9.52782,-1.00994 9.52782,-1.00994 0,0 -5.80048,-3.69955 -7.1687,-7.10008 -1.25728,-3.12479 -1.08628,-7.19311 -0.54809,-10.7978 0.37508,-2.51222 0.95254,-4.82182 1.24808,-6.33495 0.25835,-1.32272 0.75315,-3.1448 1.23075,-4.07178 z m 230.66157,17.94768 c 3.75592,2.93653 6.99363,6.52495 10.8896,9.27297 3.42437,2.41538 6.9436,4.87124 10.8896,6.28169 2.30946,0.82549 4.82195,1.46532 7.25973,1.19652 1.06086,-0.11698 2.19901,-0.45838 2.96989,-1.19652 1.34469,-1.28758 1.67548,-3.33486 2.30991,-5.08516 0.98692,-2.72275 1.00288,-5.79122 2.30992,-8.3756 0.80208,-1.58594 1.7472,-3.32309 3.29988,-4.18779 1.54742,-0.86177 3.50882,-0.57116 5.27981,-0.59826 1.21391,-0.0186 2.63989,1.49564 3.62986,0.29913 0.98996,-1.19651 5.27155,-4.59617 7.91971,-6.87994 1.9738,-1.7022 3.61533,-3.9061 5.93979,-5.08518 2.72079,-1.38012 5.8921,-1.64481 8.90967,-2.0939 1.52636,-0.22716 3.07672,-0.31268 4.61983,-0.29913 1.21401,0.0107 2.5016,0.74741 3.62986,0.29913 3.3641,-1.33661 4.74026,-5.47725 7.25974,-8.07646 1.90726,-1.96762 3.52921,-4.38025 5.93979,-5.68343 4.27114,-2.30902 9.37436,-2.66683 14.18948,-3.29041 6.65712,-0.86213 13.41779,-0.72779 20.12926,-0.59826 5.84233,0.11276 11.82319,-0.23177 17.48936,1.19651 3.74732,0.94459 7.61841,2.27928 10.55962,4.78606 3.18514,2.71468 5.45209,6.55398 6.92975,10.46948 1.70586,4.52016 1.55597,9.54544 1.97991,14.35814 0.49908,5.66575 1.16688,11.38525 0.66003,17.05031 -0.45496,5.08506 -1.49852,10.17939 -3.29991,14.9564 -1.20536,3.19643 -3.04893,6.13542 -4.94983,8.97385 -2.34737,3.5051 -5.5452,6.38445 -7.91971,9.87122 -1.74575,2.56349 -2.60744,5.7165 -4.61982,8.07646 -0.82491,0.96739 -2.38432,1.26457 -2.96991,2.39303 -0.78239,1.50771 -0.96761,3.51077 -0.32998,5.08517 0.72449,1.78887 3.03911,2.41877 4.28985,3.88867 1.30949,1.53895 2.41112,3.27045 3.29989,5.08517 0.88238,1.80167 1.54684,3.7246 1.97991,5.68344 0.23796,1.07631 0.90629,2.35075 0.32999,3.29041 -0.43186,0.70415 -1.49285,0.77592 -2.3099,0.89738 -1.30933,0.19464 -2.72903,0.18796 -3.95987,-0.29912 -1.18215,-0.46781 -1.73812,-2.70775 -2.96989,-2.39303 -0.83637,0.2137 -0.66426,1.59359 -0.98996,2.39303 -0.44587,1.09442 -0.95838,2.16532 -1.31996,3.29041 -0.2827,0.87964 0.067,2.12187 -0.65998,2.69215 -0.60581,0.47523 -1.6132,0.32781 -2.3099,0 -0.93679,-0.44078 -1.59589,-1.43159 -1.97993,-2.39303 -0.59319,-1.48505 -0.3917,-3.1881 -0.32999,-4.78605 0.0583,-1.51061 0.70376,-2.97582 0.65998,-4.48692 -0.0472,-1.62843 0.63906,-4.80407 -0.98996,-4.78604 -1.82474,0.0202 0.0682,3.89759 -0.98997,5.3843 -0.58648,0.82397 -1.82026,0.90312 -2.63991,1.49564 -0.84222,0.60883 -1.34032,1.71985 -2.3099,2.0939 -0.92362,0.35632 -2.03128,0.31467 -2.9699,0 -0.78422,-0.26291 -1.55044,-0.78877 -1.97993,-1.49564 -1.3654,-2.24723 -1.21469,-5.14993 -1.31996,-7.77734 -0.10018,-2.50042 2.72559,-6.06561 0.65999,-7.4782 -1.11416,-0.76194 -2.30856,1.51899 -3.62987,1.79477 -2.04817,0.42748 -4.33621,0.50028 -6.26978,-0.29912 -1.23479,-0.5105 -2.49016,-1.44509 -2.96988,-2.69217 -0.39576,-1.02881 -0.19858,-2.32309 0.32998,-3.2904 0.53856,-0.98562 1.67123,-1.52541 2.6399,-2.09389 1.12864,-0.66236 3.03264,-0.33123 3.62987,-1.49565 0.65462,-1.27632 -0.78052,-2.76877 -0.98997,-4.1878 -0.30474,-2.06463 0.0273,-4.13139 -0.0124,-6.22369 -0.0321,-1.69158 -0.42407,-3.41 -0.67735,-5.07817 -0.19615,-1.29187 -0.30061,-2.66403 -0.93335,-3.80728 -1.18958,-2.14936 -3.33509,-3.6143 -5.13341,-5.28788 -2.28699,-2.12836 -3.96673,-3.17275 -6.3332,-5.32717 -0.68717,-0.62561 -2.21791,-1.97538 -3.23361,-2.71043 1.48462,-4.17803 8.87056,-0.0158 13.3002,-0.21151 3.89536,-0.17208 7.83272,-0.13682 11.66683,-0.84606 1.91752,-0.35471 4.033,-0.53156 5.60009,-1.69213 2.24915,-1.6657 3.48654,-4.44222 4.66673,-6.98001 1.29976,-2.7949 2.64984,-5.80244 2.56669,-8.88366 -0.0765,-2.83608 -1.16003,-5.72249 -2.80003,-8.03758 -1.43782,-2.02968 -3.55385,-3.65811 -5.83342,-4.65334 -3.46035,-1.51074 -7.42819,-1.52305 -11.20016,-1.69213 -3.50292,-0.15702 -7.05824,-0.035 -10.50015,0.63454 -2.17447,0.42301 -4.25136,1.2726 -6.3001,2.11515 -1.92328,0.79096 -3.9929,1.43001 -5.60007,2.74972 -0.89131,0.73189 -1.42021,1.81806 -2.10003,2.7497 -0.96239,1.31889 -1.57269,2.9421 -2.80004,4.01879 -0.92187,0.80871 -2.21007,1.06975 -3.26672,1.69213 -1.2071,0.71101 -2.20883,1.78316 -3.50005,2.32666 -1.2461,0.52451 -2.61781,0.75505 -3.96673,0.84607 -1.86776,0.12603 -3.72987,-0.50532 -5.60007,-0.42303 -1.73254,0.0762 -3.48636,0.30313 -5.13341,0.84605 -1.90901,0.62927 -3.78276,1.51224 -5.36674,2.74971 -1.77038,1.38309 -2.88949,3.44435 -4.4334,5.07637 -1.94215,2.05299 -4.09859,3.89437 -6.06675,5.92244 -2.40111,2.4742 -4.82488,4.9396 -7.00011,7.61455 -1.09473,1.34623 -1.85308,2.95844 -3.03337,4.23032 -0.89681,0.9664 -1.79417,2.08811 -3.03338,2.53818 -1.24281,0.45137 -2.64448,0 -3.96672,0 -1.8667,0 -3.75454,0.28018 -5.60009,0 -2.81841,-0.42788 -5.57478,-1.35157 -8.16678,-2.53818 -3.99983,-1.83111 -7.53434,-4.54827 -11.20016,-6.98001 -3.5687,-2.36731 -6.77358,-5.29296 -10.50015,-7.40306 -3.03415,-1.71803 -6.28484,-1.89626 -9.60288,-2.96786 -2.26956,-0.73298 -6.40617,-1.21781 -8.76752,-1.55275 -2.79001,-0.58421 -5.96789,-1.90153 -8.93295,-3.98487 1.86963,-0.37816 3.42015,-0.94201 4.02482,-1.50414 2.12376,-1.97437 3.22172,-3.11105 4.45563,-4.8999 0.87324,-1.26597 1.83136,-2.56043 3.5373,-6.09733 0.47794,-0.99091 0.82503,-2.82556 0.69051,-4.5763 -0.13707,-1.78397 -0.70034,-3.49793 -1.03849,-4.45204 4.6188,2.78786 11.17765,7.5528 16.28921,11.54923 z"
       inkscape:label="#path4180"
       inkscape:connector-curvature="0"
       sodipodi:nodetypes="ssssssssssssssssssssssssssssssssssssssssssssssssssssssscsssscssssssssssssssssssssssssssscsssssssssssssssssssssssssssssssssssssssssssssssssssssssssssssssssssscssssssssssssssssssssssssssssssscsssscss" />
    <path
       style="fill:none;fill-rule:evenodd;stroke:#000000;stroke-width:1;stroke-linecap:butt;stroke-linejoin:miter;stroke-miterlimit:4;stroke-dasharray:none;stroke-opacity:1"
       d="m 407.13077,354.54202 c 0,0 1.77621,9.01622 1.40002,13.53699 -0.43669,5.24776 -2.68015,10.18735 -4.20006,15.22913 -2.74094,9.09216 -6.31988,17.92558 -8.8668,27.07398 -2.60032,9.34024 -4.99111,18.77108 -6.53343,28.34307 -1.59954,9.9271 -1.91879,20.01875 -2.80003,30.0352 -0.99203,11.27582 -2.53418,22.52624 -2.80004,33.84249 -0.20547,8.74576 0.89433,26.74131 0.89433,26.74131"
       id="path4183"
       inkscape:connector-curvature="0"
       sodipodi:nodetypes="cssssssc" />
    <path
       style="fill:none;fill-rule:evenodd;stroke:#000000;stroke-width:1;stroke-linecap:butt;stroke-linejoin:miter;stroke-miterlimit:4;stroke-dasharray:none;stroke-opacity:1"
       d="m 281.59562,355.81111 c 0,0 -1.77253,8.88861 -1.40002,13.11396 0.49837,5.65289 2.61762,11.0485 4.20006,16.49822 2.23389,7.69324 5.35674,15.11555 7.46677,22.84368 1.71153,6.26862 2.82852,12.68471 4.20007,19.03639 1.42973,6.62114 3.11481,13.19621 4.20005,19.88245 1.31882,8.12535 1.9004,16.35342 2.80005,24.5358 1.1313,10.28918 2.7215,20.54445 3.26671,30.88127 0.40849,7.7448 0,23.2667 0,23.2667"
       id="path4185"
       inkscape:connector-curvature="0"
       sodipodi:nodetypes="csssssssc" />
    <path
       style="fill:none;fill-rule:evenodd;stroke:#000000;stroke-width:1;stroke-linecap:butt;stroke-linejoin:miter;stroke-miterlimit:4;stroke-dasharray:none;stroke-opacity:1"
       d="m 515.13686,440.23106 c -0.45969,3.09072 -2.92154,5.17604 -4.41628,7.50414 -1.09466,1.70497 -1.55966,4.57151 -3.88487,4.79508 -2.04555,0.19668 -3.612,-0.7079 -4.7055,-2.36077 -0.66435,-1.00418 1.60958,-5.18994 0.01,-2.24488 -1.01177,1.86281 -3.7128,1.15654 -2.3722,-0.94554 1.93606,-3.03579 5.34482,-5.73047 5.09218,-9.64094 -0.25895,-4.00831 -2.09227,-7.72344 -2.5096,-11.81521 -0.48351,-4.74042 -0.39415,-9.49491 0.58051,-14.07576 1.18093,-5.55032 4.27913,-10.49005 7.97576,-14.82599 2.4715,-2.89893 5.53355,-5.4571 7.33298,-8.79047 2.40792,-4.46059 2.95799,-9.68422 4.92148,-14.31098 1.8545,-4.36989 4.44834,-8.32701 7.63895,-11.88973 5.53322,-6.17851 12.77107,-10.57652 20.64766,-13.05945 5.73788,-1.80874 11.7327,-2.94748 17.7503,-2.2455 4.5168,0.5269 9.0165,1.31901 13.3031,2.97036 3.81657,1.47028 7.3251,3.53668 10.432,6.12339 2.45163,2.04116 4.58774,4.30881 6.17093,7.1396 1.90536,3.40682 4.10419,6.80603 5.086,10.57333 0.95533,3.66567 2.03562,7.33597 1.52683,11.20159 -0.54067,4.10778 -0.0437,8.43846 -1.18582,12.40499 -1.49127,5.17903 -3.37401,10.21637 -6.10816,14.9262 -2.6123,4.49991 -5.71356,8.71315 -9.34933,12.39239 -4.56705,4.62163 -9.56003,9.17789 -15.53966,11.83544 -5.77892,2.56835 -12.60911,2.40526 -18.11135,5.67227 -5.36307,3.18437 -10.31576,7.36908 -16.70617,8.44752 -4.94077,0.8338 -9.84972,1.26487 -14.84948,1.47613 -2.06963,0.0874 -2.79704,2.1236 -4.00485,3.63392 -1.00071,1.25135 -1.24596,4.25231 -3.33052,3.55984 -2.0222,-0.67175 0.89072,-4.50382 0.44684,-4.12332 -1.57128,1.34694 -3.47954,3.01167 -5.34096,1.17862 -1.29759,-1.27782 -2.55259,-2.43643 -1.09014,-4.29141 2.20953,-3.56026 4.20674,-6.79331 7.72459,-8.9648"
       id="path4168"
       inkscape:connector-curvature="0"
       sodipodi:nodetypes="csssssssssssssssssssssssssssssssc" />
    <path
       style="fill:none;fill-rule:evenodd;stroke:#000000;stroke-width:1;stroke-linecap:butt;stroke-linejoin:miter;stroke-miterlimit:4;stroke-dasharray:none;stroke-opacity:1"
       d="m 559.86986,353.40824 c 7.01045,-1.15018 13.91021,1.1347 20.70817,2.66258 6.37401,1.43259 10.8637,6.63034 14.20543,11.86102 3.79221,5.93581 4.5762,13.20727 4.76212,20.07825 0.22969,8.4894 -2.67777,16.85329 -7.22379,23.80687 -4.35656,6.66378 -9.91837,12.75307 -16.93839,16.81488 -4.51459,2.61216 -9.36216,4.47508 -14.47506,5.50902 -4.80003,0.97067 -9.74627,1.88831 -13.71101,5.04589 -5.34104,4.25368 -12.34448,6.25691 -19.07389,6.15613 -5.69019,-0.0852 -12.18205,-2.47678 -15.1668,-7.57069 -3.98929,-6.80827 -6.29426,-15.28243 -4.0295,-23.1299 1.54836,-5.36512 3.67757,-10.92565 7.33438,-15.19119 3.91249,-4.56379 8.76644,-8.79671 9.71126,-15.1042 1.19399,-7.97087 5.54451,-15.14986 11.37683,-20.68125 4.22208,-4.00424 9.59635,-6.73971 14.96836,-8.85587 2.39428,-0.94316 5.02585,-0.98711 7.55189,-1.40154 z"
       id="path4170-5"
       inkscape:connector-curvature="0"
       sodipodi:nodetypes="ssssssssssssssss" />
    <path
       style="fill:none;fill-rule:evenodd;stroke:#000000;stroke-width:1;stroke-linecap:butt;stroke-linejoin:miter;stroke-miterlimit:4;stroke-dasharray:none;stroke-opacity:1"
       d="m 557.31753,434.89045 c -1.10371,-2.96132 3.73669,-5.53706 6.94236,-6.72311 2.87991,-1.06553 4.21112,-3.57486 6.85891,-5.29844 2.44162,-1.58938 5.37186,-2.3823 7.6444,-4.20559 2.75578,-2.21101 5.42094,-4.32415 8.09135,-6.60371 2.0775,-1.77343 3.83963,-3.82642 4.8719,-6.37985 0.99178,-2.45326 2.37077,-5.11224 1.97191,-7.76949 -0.67708,-4.51082 -3.69885,-8.50018 -3.98855,-13.04552 -0.26644,-4.18047 1.1059,-8.58315 -0.22996,-12.56149 -1.21591,-3.62113 -3.64424,-6.86236 -4.11754,-10.72583 -0.20078,-1.63896 0.66972,-3.16922 0.66972,-3.16922 0,0 5.20605,4.17116 7.06175,6.88081 2.63178,3.84287 4.73443,8.05386 5.49485,12.7351 0.7167,4.41208 1.19816,8.86385 0.93933,13.29595 -0.20145,3.44955 -0.72097,6.85111 -2.08987,10.04599 -1.52632,3.56228 -2.92465,7.37381 -5.15267,10.54653 -3.10255,4.41807 -6.58482,8.66104 -10.62336,12.23315 -3.11539,2.75558 -6.74928,4.7869 -10.49627,6.64297 -4.36298,2.16121 -9.23166,2.77129 -13.84826,4.10175 z"
       id="C58"
       inkscape:connector-curvature="0"
       inkscape:label="#path4172"
       sodipodi:nodetypes="cssssssssscsssssssc" />
    <path
       style="fill:none;fill-rule:evenodd;stroke:#000000;stroke-width:1;stroke-linecap:butt;stroke-linejoin:miter;stroke-miterlimit:4;stroke-dasharray:none;stroke-opacity:1"
       d="m 578.27351,418.92551 c 0,0 -0.93008,-0.77976 -1.25652,-1.28093 -0.21499,-0.33007 -0.14409,-0.83464 -0.43709,-1.09793 -0.16875,-0.15164 -0.42965,-0.16211 -0.65556,-0.18299 -0.69172,-0.0639 -1.39784,0.33373 -2.07595,0.18299 -0.26711,-0.0594 -0.53137,-0.20459 -0.71017,-0.41173 -0.16087,-0.18636 -0.27047,-0.44003 -0.27314,-0.68621 -0.003,-0.26041 0.13307,-0.51241 0.27314,-0.73196 0.26499,-0.41534 0.82589,-0.60751 1.03798,-1.05219 0.21138,-0.44319 0.20153,-0.97435 0.16387,-1.46392 -0.0267,-0.34659 -0.0857,-0.71366 -0.27314,-1.00644 -0.17926,-0.28007 -0.45775,-0.5129 -0.76483,-0.64046 -0.62478,-0.25953 -1.3457,-0.21771 -2.02135,-0.18299 -0.55589,0.0286 -1.08892,0.23431 -1.63887,0.32023 -1.0326,0.16132 -2.06981,0.32047 -3.11394,0.36598 -0.50963,0.0222 -1.02062,-0.0126 -1.52966,-0.0457 -0.45659,-0.0297 -0.94983,0.0534 -1.36579,-0.13724 -0.34234,-0.15689 -0.7337,-0.41102 -0.81943,-0.77771 -0.0481,-0.20565 0.0805,-0.43486 0.21854,-0.59472 0.27099,-0.31385 0.70341,-0.45159 1.09258,-0.59471 0.34924,-0.12844 0.72106,-0.20899 1.09264,-0.22874 0.9138,-0.0486 1.8304,0.43376 2.73152,0.27448 0.51779,-0.0915 1.00271,-0.36678 1.42039,-0.6862 0.35295,-0.26992 0.66214,-0.6159 0.87404,-1.00645 0.18913,-0.34858 0.35829,-0.74828 0.32781,-1.14368 -0.04,-0.51925 -0.4077,-0.96014 -0.65556,-1.41817 -0.17976,-0.33221 -0.73748,-0.60851 -0.60096,-0.9607 0.10252,-0.26444 0.53851,-0.19026 0.8195,-0.22874 0.52321,-0.0717 1.07208,-0.1286 1.58427,0 0.50095,0.12578 0.89935,0.50999 1.36572,0.73197 0.32087,0.15273 0.64247,0.31141 0.98338,0.41172 0.58553,0.17228 1.19919,0.41059 1.80281,0.32023 0.36416,-0.0545 0.70205,-0.26564 0.98337,-0.50322 0.34889,-0.29465 0.65655,-0.6713 0.81943,-1.09793 0.14742,-0.38615 0.20872,-0.83399 0.10928,-1.23518 -0.10486,-0.42307 -0.46385,-0.73838 -0.71023,-1.09794 -0.29811,-0.43505 -0.52864,-0.9373 -0.92871,-1.28093 -0.40405,-0.34705 -1.16539,-0.26433 -1.42039,-0.73196 -0.27138,-0.49767 0.29329,-1.14077 0.16387,-1.69265 -0.0943,-0.40232 -0.35875,-0.76467 -0.65556,-1.05219 -0.39309,-0.38078 -0.90841,-0.6301 -1.42039,-0.82345 -0.3648,-0.13777 -0.75731,-0.22624 -1.14725,-0.22874 -0.33339,-0.002 -0.72575,-0.0287 -0.98331,0.18299 -0.30431,0.25012 -0.41642,0.70456 -0.43708,1.09793 -0.0141,0.26891 0.0724,0.55156 0.21854,0.77771 0.11604,0.17953 0.29077,0.33872 0.49169,0.41173 0.23961,0.0871 0.50989,0 0.76483,0 0.12747,0 0.28824,0.0859 0.38241,0 0.14707,-0.13417 -0.0827,-0.45069 0.0547,-0.59472 0.15231,-0.15963 0.44789,-0.16602 0.65556,-0.0915 0.25338,0.0909 0.44863,0.34389 0.54636,0.59472 0.0886,0.22734 0.0521,0.49361 0,0.73196 -0.0466,0.21312 -0.19943,0.38942 -0.27321,0.59472 -0.096,0.26725 -0.29848,0.55097 -0.21848,0.82345 0.0764,0.26031 0.38936,0.37909 0.6009,0.54897 0.43398,0.34854 0.92987,0.6146 1.36578,0.9607 0.28684,0.22773 0.70076,0.38547 0.81944,0.73195 0.0653,0.19068 0.0377,0.45673 -0.10927,0.59472 -0.18714,0.17577 -0.50869,0.10995 -0.76477,0.0915 -0.52667,-0.038 -1.02734,-0.24897 -1.52967,-0.41172 -0.61169,-0.19818 -1.1782,-0.53354 -1.8028,-0.68622 -0.64111,-0.15672 -1.30678,-0.23824 -1.96669,-0.22873 -0.42321,0.006 -0.85774,0.0411 -1.25651,0.18299 -0.41982,0.14937 -0.79179,0.41749 -1.14725,0.68621 -0.31932,0.24139 -0.76612,0.43799 -0.8741,0.82345 -0.0555,0.19801 0.0631,0.4155 0.16393,0.59472 0.19524,0.34704 0.56634,0.5618 0.81944,0.8692 0.17886,0.21723 0.34854,0.44394 0.49168,0.68621 0.12895,0.21824 0.3525,0.43393 0.32775,0.68621 -0.0149,0.1515 -0.16856,0.25537 -0.27314,0.36598 -0.16318,0.17259 -0.33219,0.35465 -0.54629,0.45748 -0.41859,0.20104 -0.90371,0.22851 -1.36579,0.27448 -0.68858,0.0685 -1.38652,-0.0594 -2.07595,0 -0.49718,0.0429 -0.99711,0.11249 -1.475,0.25619 -0.34261,0.10302 -0.68109,0.23866 -0.98337,0.43002 -0.51007,0.3229 -1.02448,0.69144 -1.36573,1.18943 -0.30251,0.44146 -0.54951,0.97452 -0.54635,1.50967 0.003,0.57006 0.25652,1.1469 0.60095,1.60116 0.32735,0.43173 0.82042,0.731 1.31113,0.96069 0.45882,0.21476 0.97421,0.28989 1.47506,0.36598 0.77547,0.11782 1.56498,0.15725 2.34909,0.13724 1.11714,-0.0285 2.22068,-0.25321 3.33249,-0.36598 0.49126,-0.0498 0.98256,-0.10061 1.47499,-0.13724 0.27282,-0.0203 0.57786,-0.17407 0.81944,-0.0457 0.15684,0.0833 0.22592,0.28626 0.27314,0.45747 0.0324,0.11761 0.0136,0.24476 0,0.36599 -0.0366,0.32636 -0.0696,0.66798 -0.21847,0.96069 -0.23858,0.46903 -0.73626,0.7583 -1.03798,1.18943 -0.25957,0.3709 -0.63684,0.73711 -0.65556,1.18943 -0.0111,0.2671 0.14932,0.53289 0.32775,0.73196 0.14089,0.15718 0.34988,0.24294 0.54629,0.32024 0.52087,0.205 1.08342,0.29711 1.63893,0.36597 0.56043,0.0695 1.1715,-0.16967 1.69354,0.0457 0.18501,0.0763 0.30911,0.25779 0.43701,0.41172 0.15063,0.18127 0.30675,0.37151 0.38242,0.59472 0.14245,0.42023 0.10928,1.32667 0.10928,1.32667"
       id="path4174-2"
       inkscape:connector-curvature="0"
       sodipodi:nodetypes="cssssssssssssssssssssssssssssssssssssssssssssssssssssssssssssssssssssssssssssssssssssssssssssssc" />
    <path
       style="fill:none;fill-rule:evenodd;stroke:#000000;stroke-width:1;stroke-linecap:butt;stroke-linejoin:miter;stroke-miterlimit:4;stroke-dasharray:none;stroke-opacity:1"
       d="m 573.11982,416.03454 c 0,0 1.9204,-0.49177 2.85857,-0.80871 1.14098,-0.38545 2.25103,-0.85839 3.36075,-1.32628 1.43077,-0.60325 2.89016,-1.15771 4.2493,-1.90855 1.05608,-0.58342 2.07389,-1.24823 3.01307,-2.00559 0.79583,-0.64174 1.58984,-1.31611 2.20188,-2.13499 0.29884,-0.39983 0.52115,-0.85849 0.69533,-1.32628 0.19708,-0.52929 0.31506,-1.08948 0.3863,-1.64976 0.0708,-0.55637 0.13787,-1.13012 0.0386,-1.68211 -0.11093,-0.61681 -0.38501,-1.20233 -0.69533,-1.74681 -0.43835,-0.76913 -0.9984,-1.47472 -1.62244,-2.10264 -0.69121,-0.69552 -1.47907,-1.30349 -2.31777,-1.81151 -1.16099,-0.70325 -2.51716,-1.03154 -3.70847,-1.68211 -0.76703,-0.41887 -1.52346,-0.87238 -2.20188,-1.42332 -0.48298,-0.39222 -0.93801,-0.83009 -1.31338,-1.32628 -0.14201,-0.18772 -0.34087,-0.37934 -0.34767,-0.61462 -0.006,-0.20418 0.17288,-0.37043 0.27038,-0.54992 0.17985,-0.33107 0.35239,-0.66982 0.57947,-0.97045 0.80362,-1.06385 1.99204,-1.80948 2.7427,-2.91134 0.25505,-0.37437 0.43331,-0.80047 0.57947,-1.22924 0.13536,-0.39711 0.21232,-0.81373 0.27038,-1.22924 0.0583,-0.41726 0.1535,-0.84723 0.0772,-1.26158 -0.12433,-0.67522 -0.49898,-1.28606 -0.84985,-1.8762 -0.20727,-0.34861 -0.47211,-0.6607 -0.73392,-0.97045 -0.18176,-0.21504 -0.45525,-0.36193 -0.57946,-0.61462 -0.0722,-0.14698 0.006,-0.34435 -0.0772,-0.48522 -0.10793,-0.18199 -0.3043,-0.31341 -0.50224,-0.38818 -0.31384,-0.11855 -0.67201,-0.11041 -1.00436,-0.0647 -0.41912,0.0576 -0.85272,0.17537 -1.19753,0.42053 -0.13478,0.0958 -0.26783,0.228 -0.30902,0.38818 -0.0572,0.22247 0.0796,0.45249 0.11587,0.67932 0.0826,0.51674 0.089,1.04926 0.2318,1.55271 0.16962,0.59807 0.45167,1.1606 0.73398,1.71446 0.15969,0.31329 0.50164,0.5563 0.54082,0.90575 0.0139,0.12397 -0.0797,0.23645 -0.11593,0.35583 -0.0553,0.18221 -0.0488,0.39156 -0.15451,0.54992 -0.15475,0.23181 -0.42242,0.36659 -0.6567,0.51758 -1.49893,0.96602 -3.26697,1.47033 -4.75142,2.45847 -0.18175,0.12098 -0.34873,0.26521 -0.50218,0.42052 -0.18594,0.1882 -0.37823,0.38089 -0.50218,0.61462 -0.12653,0.2386 -0.17034,0.51337 -0.23179,0.77636 -0.0697,0.29825 -0.16837,0.59979 -0.15452,0.90576 0.0136,0.3009 0.13596,0.58784 0.2318,0.8734 0.27059,0.80622 0.96572,2.36142 0.96572,2.36142"
       id="path4176-5"
       inkscape:connector-curvature="0"
       sodipodi:nodetypes="cssssssssssssssssssssssssssssssssssssssssssc" />
    <path
       style="fill:none;fill-rule:evenodd;stroke:#000000;stroke-width:1;stroke-linecap:butt;stroke-linejoin:miter;stroke-miterlimit:4;stroke-dasharray:none;stroke-opacity:1"
       d="m 582.17954,384.08887 c 0,0 0.12967,-1.05193 0.1912,-1.57829 0.0472,-0.40391 0.003,-0.82811 0.13662,-1.21231 0.0735,-0.21197 0.16291,-0.45601 0.35508,-0.57183 0.0938,-0.0565 0.22703,-0.0658 0.32781,-0.0229 0.0914,0.0389 0.13661,0.14568 0.19115,0.22874 0.089,0.13554 0.18111,0.27683 0.21854,0.4346 0.0282,0.1187 -0.0364,0.24955 0,0.36598 0.0859,0.27451 0.32926,0.4717 0.49167,0.70909 0.11946,0.17462 0.27312,0.33104 0.35509,0.52609 0.10555,0.25112 0.10614,0.53439 0.16394,0.80058 0.0432,0.19877 0.0714,0.40203 0.13654,0.59472 0.13401,0.39662 0.38327,0.74765 0.51901,1.14368 0.11438,0.3337 0.1696,0.6849 0.24582,1.02932 0.0689,0.3115 0.21732,0.61985 0.1912,0.93782 -0.0167,0.20337 -0.11527,0.39584 -0.21854,0.57184 -0.10059,0.17142 -0.21543,0.34966 -0.38241,0.45748 -0.11911,0.0769 -0.27194,0.0808 -0.40969,0.11437 -0.10846,0.0265 -0.21993,0.0398 -0.32781,0.0686 -0.16655,0.0444 -0.35886,0.0503 -0.49168,0.16012 -0.17444,0.14425 -0.21307,0.39958 -0.32776,0.59472 -0.19138,0.32565 -0.39359,0.64497 -0.60095,0.96069 -0.2643,0.40243 -0.53132,0.8037 -0.81944,1.18943 -0.38136,0.51057 -0.79513,0.99621 -1.20191,1.48679 -0.42164,0.50851 -1.28378,1.50967 -1.28378,1.50967 v 0"
       id="path4178"
       inkscape:connector-curvature="0"
       sodipodi:nodetypes="cssssssssssssssssssssssssc" />
    <path
       style="fill:none;fill-rule:evenodd;stroke:#000000;stroke-width:1;stroke-linecap:butt;stroke-linejoin:miter;stroke-miterlimit:4;stroke-dasharray:none;stroke-opacity:1"
       d="m 563.15338,396.7873 c 0,0 0.97847,-0.0667 1.4679,-0.097 0.74665,-0.0462 1.49275,-0.10782 2.24051,-0.1294 0.52773,-0.0152 1.05621,-0.0184 1.58383,0 0.61919,0.0216 1.8542,0.1294 1.8542,0.1294"
       id="path4180"
       inkscape:connector-curvature="0"
       sodipodi:nodetypes="csssc" />
    <path
       style="fill:none;fill-rule:evenodd;stroke:#000000;stroke-width:1;stroke-linecap:butt;stroke-linejoin:miter;stroke-miterlimit:4;stroke-dasharray:none;stroke-opacity:1"
       d="m 550.8692,402.15712 c 0,0 0.41643,-0.53728 0.65669,-0.77636 0.2381,-0.23692 0.47944,-0.48293 0.77256,-0.64696 0.35553,-0.19895 0.78015,-0.23817 1.15894,-0.38818 0.672,-0.26612 1.36087,-0.51683 1.97008,-0.90575 0.84109,-0.53695 1.61216,-1.19871 2.27916,-1.94091 0.12216,-0.13593 0.25973,-0.27689 0.30902,-0.45287 0.19802,-0.70704 -0.0275,-1.47078 -0.11587,-2.19968 -0.0331,-0.27245 -0.0894,-0.54209 -0.15451,-0.80871 -0.19216,-0.7871 -0.46864,-1.55122 -0.69533,-2.32908 -0.1976,-0.67803 -0.51536,-1.33461 -0.57947,-2.03794 -0.0492,-0.53936 0.0273,-1.09096 0.15451,-1.61741 0.12264,-0.50765 0.2369,-1.06147 0.57947,-1.45568 0.21397,-0.24622 0.53077,-0.41743 0.84985,-0.48522 0.31646,-0.0672 0.65166,0.0193 0.96571,0.097 0.41809,0.10344 0.86766,0.2083 1.19752,0.48523 0.20456,0.17174 0.32646,0.43104 0.42495,0.67931 0.0486,0.12263 0.15729,0.28334 0.0772,0.38818 -0.094,0.12309 -0.32645,-0.0397 -0.46354,0.0324 -0.1098,0.0577 -0.17006,0.18355 -0.2318,0.29114 -0.21294,0.37108 -0.42284,0.77098 -0.46353,1.19688 -0.0344,0.35997 0.0462,0.73709 0.19315,1.0675 0.18826,0.42333 0.57858,0.72425 0.84985,1.09983 0.47207,0.6536 0.98284,1.28884 1.35203,2.0056 0.35323,0.68577 0.64826,1.41335 0.8112,2.16734 0.12099,0.55987 0.10254,1.14182 0.11593,1.71446 0.0146,0.62536 0.12042,1.27132 -0.039,1.8762 -0.0968,0.36724 -0.30739,0.70322 -0.54082,1.00279 -0.34344,0.44076 -0.82233,0.75675 -1.23617,1.1322 -0.52569,0.47693 -1.01592,0.99753 -1.58383,1.42332 -0.88467,0.66328 -2.81992,1.74681 -2.81992,1.74681"
       id="path4182"
       inkscape:connector-curvature="0"
       sodipodi:nodetypes="csssssssssssssssssssssssssssssc" />
    <path
       style="fill:none;fill-rule:evenodd;stroke:#000000;stroke-width:1;stroke-linecap:butt;stroke-linejoin:miter;stroke-miterlimit:4;stroke-dasharray:none;stroke-opacity:1"
       d="m 556.78505,398.41367 c 0,0 -1.01805,0.14269 -1.51211,0.34688 -0.6164,0.25475 -1.20725,0.56754 -1.81556,0.84105 -0.61501,0.27652 -1.55303,1.412 -1.85427,0.80871 -0.4879,-0.97709 1.96327,-0.97817 2.85147,-1.61366 0.63435,-0.45386 1.26246,-0.94513 1.7482,-1.55541 0.25982,-0.32644 0.44676,-0.71027 0.60096,-1.09794 0.11944,-0.30028 0.27238,-0.61574 0.24581,-0.93781 -0.0165,-0.19982 -0.13451,-0.38221 -0.24581,-0.54898 -0.11052,-0.16561 -0.33627,-0.24955 -0.40975,-0.4346 -0.10693,-0.26928 -0.0224,-0.58033 0,-0.8692 0.0137,-0.17695 0.13231,-0.35592 0.0819,-0.52609 -0.0581,-0.19629 -0.21523,-0.39367 -0.40975,-0.45748 -0.14142,-0.0464 -0.30058,0.032 -0.43702,0.0915 -0.46004,0.20046 -0.93196,1.27352 -1.22919,0.8692 -0.38685,-0.52622 1.31459,-0.58297 1.557,-1.18943 0.086,-0.21507 -0.0219,-0.47171 -0.10927,-0.68621 -0.0952,-0.23356 -0.2888,-0.41358 -0.43708,-0.61759 -0.0895,-0.12313 -0.22974,-0.22007 -0.27315,-0.36598 -0.0828,-0.27825 0.1048,-0.58325 0.0547,-0.8692 -0.0631,-0.36027 -0.188,-0.73862 -0.43709,-1.00645 -0.16797,-0.1806 -0.41605,-0.28421 -0.65556,-0.3431 -0.23872,-0.0587 -0.49196,0.0121 -0.7375,0 -0.31069,-0.0153 -0.62884,-0.009 -0.9287,-0.0915 -0.15523,-0.0428 -0.3002,-0.12095 -0.43702,-0.20586 -0.37527,-0.23289 -0.76958,-0.47274 -1.03804,-0.82345 -0.43392,-0.56687 -0.50546,-1.34013 -0.84677,-1.96714 -0.30833,-0.56642 -0.67405,-1.10372 -1.07719,-1.60708 -0.71511,-0.89288 -1.50059,-1.73744 -2.36449,-2.48731 -0.56565,-0.49099 -1.15847,-0.97231 -1.83014,-1.3038 -0.51245,-0.25291 -1.08665,-0.35618 -1.63887,-0.50322 -0.33379,-0.0889 -0.66688,-0.19564 -1.01071,-0.22874 -0.74352,-0.0716 -1.49654,-0.005 -2.23983,0.0686 -0.86379,0.0859 -1.72329,0.23315 -2.56764,0.4346 -1.00145,0.23893 -1.9944,0.53189 -2.95005,0.91495 -0.65135,0.26108 -1.26335,0.6118 -1.88475,0.93782 -0.4329,0.22712 -0.87513,0.44078 -1.28379,0.70908 -0.49032,0.32191 -0.95059,0.69002 -1.39306,1.07507 -0.56721,0.49359 -1.12761,1.00286 -1.6116,1.57829 -0.35151,0.41791 -0.66228,0.87289 -0.92877,1.34954 -0.36216,0.64776 -0.63045,1.34485 -0.90137,2.03576 -0.25602,0.65291 -0.53765,1.30391 -0.68289,1.99001 -0.17434,0.82361 -0.19224,1.67466 -0.21854,2.51611 -0.0236,0.75468 -0.0739,1.52048 0.0547,2.26449 0.11898,0.6882 0.40622,1.33764 0.65556,1.99002 0.24358,0.63732 0.47803,1.28493 0.81944,1.87564 0.4601,0.79608 1.04601,1.51598 1.63893,2.21875 0.5932,0.7031 1.22763,1.37537 1.91208,1.99001 0.77917,0.6997 1.59755,1.36643 2.48564,1.92139 1.05078,0.65663 2.19787,1.14893 3.33247,1.64691 1.59066,0.69814 3.25707,1.21129 4.86214,1.87564 0.64402,0.26656 1.31048,0.49435 1.91208,0.84633 0.54949,0.32149 1.00426,0.78408 1.5296,1.14368 1.15175,0.78837 2.35015,1.50743 3.55101,2.21875 1.00592,0.59585 2.01394,1.1919 3.05927,1.71553 0.89067,0.44616 1.79615,0.86976 2.73157,1.21231 0.94419,0.34577 1.91938,0.60453 2.89539,0.84632 1.0734,0.26591 2.15398,0.52038 3.25054,0.66334 0.91341,0.11908 1.83774,0.14627 2.75878,0.16012 0.81968,0.0123 1.63918,-0.0377 2.45837,-0.0686 1.28437,-0.0484 3.85149,-0.18299 3.85149,-0.18299"
       id="path4184"
       inkscape:connector-curvature="0"
       sodipodi:nodetypes="csssssssssssssssssssssssssssssssssssssssssssssssssssssssssssc" />
  </g>
</svg>
