<?xml version="1.0" encoding="UTF-8" standalone="no"?>
<!-- Created with Inkscape (http://www.inkscape.org/) -->

<svg
   id="svg4136"
   version="1.1"
   inkscape:version="1.3 (0e150ed, 2023-07-21)"
   width="700"
   height="750"
   viewBox="0 0 700 750"
   sodipodi:docname="level3_C10_20.01.svg"
   xmlns:inkscape="http://www.inkscape.org/namespaces/inkscape"
   xmlns:sodipodi="http://sodipodi.sourceforge.net/DTD/sodipodi-0.dtd"
   xmlns="http://www.w3.org/2000/svg"
   xmlns:svg="http://www.w3.org/2000/svg"
   xmlns:rdf="http://www.w3.org/1999/02/22-rdf-syntax-ns#"
   xmlns:cc="http://creativecommons.org/ns#"
   xmlns:dc="http://purl.org/dc/elements/1.1/">
  <metadata
     id="metadata4142">
    <rdf:RDF>
      <cc:Work
         rdf:about="">
        <dc:format>image/svg+xml</dc:format>
        <dc:type
           rdf:resource="http://purl.org/dc/dcmitype/StillImage" />
      </cc:Work>
    </rdf:RDF>
  </metadata>
  <defs
     id="defs4140" />
  <sodipodi:namedview
     pagecolor="#ffffff"
     bordercolor="#666666"
     borderopacity="1"
     objecttolerance="10"
     gridtolerance="10"
     guidetolerance="10"
     inkscape:pageopacity="0"
     inkscape:pageshadow="2"
     inkscape:window-width="1344"
     inkscape:window-height="765"
     id="namedview4138"
     showgrid="false"
     inkscape:zoom="0.59396546"
     inkscape:cx="207.92455"
     inkscape:cy="321.56752"
     inkscape:window-x="0"
     inkscape:window-y="25"
     inkscape:window-maximized="0"
     inkscape:current-layer="svg4136"
     inkscape:showpageshadow="2"
     inkscape:pagecheckerboard="0"
     inkscape:deskcolor="#d1d1d1" />
  <path
     style="fill:none;fill-rule:evenodd;stroke:#000000;stroke-width:1;stroke-linecap:butt;stroke-linejoin:miter;stroke-miterlimit:4;stroke-dasharray:none;stroke-opacity:1"
     d="m 327.63637,459.06335 c -0.65733,4.62807 -1.92363,9.81832 -4.0293,14.30398 -2.36655,5.0414 -5.07025,10.15453 -9.06588,14.03412 -4.36412,4.23738 -9.92067,7.30296 -15.61349,9.44605 -8.19823,3.08627 -25.87372,4.60165 -25.87372,4.60165 0,0 14.89388,0.7758 22.34809,0.93101 5.66497,0.11795 16.99858,2e-5 16.99858,2e-5 0,0 4.51578,-5.61645 6.67348,-8.50144 2.51354,-3.36078 5.23138,-6.60594 7.30309,-10.2557 1.64908,-2.9052 2.72969,-6.09871 4.02929,-9.17616 0.86868,-2.05703 2.17369,-4.00123 2.51829,-6.2074 0.51516,-3.29812 1.88309,-7.94108 -0.75549,-9.98579 -1.21325,-0.94018 -4.3171,-0.70998 -4.53294,0.80966 z"
     id="C10.1"
     inkscape:connector-curvature="0"
     inkscape:label="#path4146"
     sodipodi:nodetypes="sssscscssssss" />
  <path
     style="fill:none;fill-rule:evenodd;stroke:#000000;stroke-width:1;stroke-linecap:butt;stroke-linejoin:miter;stroke-miterlimit:4;stroke-dasharray:none;stroke-dashoffset:0;stroke-opacity:1"
     d="m 314.39759,453.23769 c 0,0 0.33052,7.35109 0.28236,11.02797 -0.03,2.29294 0.29752,4.67218 -0.35613,6.87018 -1.11146,3.73744 -3.42581,7.08155 -5.87635,10.11447 -1.66389,2.05932 -5.1993,2.78399 -5.87634,5.34347 -0.34226,1.29389 0.2178,2.96058 1.24649,3.8168 0.73647,0.61299 1.89216,0.33347 2.84914,0.38167 0.97867,0.0493 2.00341,0.19837 2.93819,-0.0956 1.89151,-0.59484 3.58882,-1.83724 4.98597,-3.24424 3.99257,-4.02071 6.86978,-9.13482 9.17065,-14.31292 1.96802,-4.42902 3.26792,-9.21259 3.82852,-14.02664 0.007,-0.0574 -0.006,-0.17335 -0.006,-0.17335 z"
     id="C10.0"
     inkscape:connector-curvature="0"
     sodipodi:nodetypes="csssssssssscc"
     inkscape:label="#path4148" />
  <path
     style="fill:none;fill-rule:evenodd;stroke:#000000;stroke-width:1;stroke-linecap:butt;stroke-linejoin:miter;stroke-miterlimit:4;stroke-dasharray:none;stroke-opacity:1"
     d="m 108.54113,146.5588 c 0,0 -6.05445,22.95404 -8.792856,34.5021 -2.043694,8.61842 -6.21835,17.11194 -5.698272,25.95407 0.553435,9.40926 6.690088,17.64895 9.259708,26.71744 1.49228,5.26642 4.12669,10.58595 3.5614,16.03045 -1.00977,9.7255 -7.054699,18.3472 -12.108814,26.71744 -5.997915,9.93329 -13.751716,18.72695 -21.368519,27.48078 -5.59016,6.42465 -13.361941,11.05645 -17.807111,18.32051 -3.085548,5.04224 -6.374729,10.92124 -5.698271,16.79382 0.617249,5.35856 5.116476,9.57819 8.547408,13.74039 3.091683,3.75064 6.288334,7.84962 10.68427,9.92364 3.466349,1.63544 8.468057,-0.94599 11.396544,1.5267 4.886495,4.12595 5.641287,11.92535 5.698272,18.32051 0.03779,4.24061 -1.887192,8.31739 -3.561431,12.21369 -0.930328,2.16506 -3.453716,3.75282 -3.561409,6.10684 -0.230975,5.0488 3.085812,9.93383 6.410545,13.74038 1.856911,2.12601 7.122841,4.58013 7.122841,4.58013 0,0 -5.92666,4.36539 -7.122841,7.63356 -1.6637,4.54551 -1.373237,10.13568 0.712295,14.50376 1.645864,3.44721 5.69827,5.08903 8.547407,7.63355 1.424568,1.27226 3.521442,2.06117 4.273705,3.81677 2.907829,6.78617 -0.250408,14.76884 -0.712295,22.1373 -0.479642,7.65169 -2.454368,15.24052 -2.136842,22.90065 0.224775,5.42257 0.205106,11.29086 2.849137,16.03047 2.791509,5.00398 7.668769,8.9432 12.821119,11.45031 6.50619,3.16588 14.20551,2.7945 21.36849,3.81677 9.4557,1.34947 18.94067,2.92901 28.49137,3.05344 12.6237,0.16447 25.12853,-2.81443 37.75104,-3.05344 5.94009,-0.11248 12.07706,-0.80632 17.80711,0.76336 7.27427,1.9927 14.98175,5.00698 19.94396,10.68698 6.25413,7.15879 7.59519,17.51345 9.97197,26.71743 1.60815,6.22751 0.46702,13.10948 2.84914,19.08388 2.30051,5.76971 7.61219,9.86853 10.68425,15.26708 4.28047,7.5221 7.73813,15.52617 10.68427,23.66403 3.32587,9.18676 8.06138,18.47652 7.83511,28.24416 -0.26775,11.55811 -10.809,32.95633 -10.809,32.95633"
     id="path4150"
     inkscape:connector-curvature="0"
     sodipodi:nodetypes="cssssssssssssssscssssssssssssssssssc" />
  <path
     style="fill:none;fill-rule:evenodd;stroke:#000000;stroke-width:1;stroke-linecap:butt;stroke-linejoin:miter;stroke-miterlimit:4;stroke-dasharray:none;stroke-opacity:1"
     d="m 550.84539,146.89437 c 0,0 7.57748,13.85967 10.46288,21.18949 2.72455,6.92124 5.49432,13.99239 6.41054,21.37394 1.3177,10.61605 -0.38545,21.41399 -1.42456,32.06092 -0.92491,9.47685 -2.1115,18.971 -4.27371,28.24414 -2.66787,11.44175 -6.91863,22.45877 -10.68425,33.58762 -3.3793,9.9871 -6.50405,20.09161 -10.68427,29.77085 -3.7356,8.64974 -8.01385,17.08747 -12.82111,25.19073 -4.71934,7.95506 -10.6145,15.15503 -15.67025,22.90064 -4.91385,7.52822 -11.05054,14.49764 -14.24568,22.90068 -3.48692,9.1704 -4.75815,19.19917 -4.98597,29.00748 -0.26793,11.5355 3.07355,22.87497 4.2737,34.35099 1.46086,13.96892 1.85746,28.04316 3.56141,41.98452 1.09419,8.95241 2.48453,17.87766 4.2737,26.71745 1.97512,9.75852 3.8151,19.6166 7.12284,29.00748 3.35816,9.53403 7.31112,19.00643 12.82112,27.48079 5.51787,8.48646 12.69786,15.83236 19.94395,22.90067 4.85478,4.73567 10.55958,8.5187 15.67025,12.97701 3.40126,2.9671 9.97197,9.16027 9.97197,9.16027"
     id="path4152"
     inkscape:connector-curvature="0"
     sodipodi:nodetypes="csssssssssssssssssc" />
  <path
     style="fill:none;fill-rule:evenodd;stroke:#000000;stroke-width:1;stroke-linecap:butt;stroke-linejoin:miter;stroke-miterlimit:4;stroke-dasharray:none;stroke-opacity:1"
     d="m 63.235836,358.24483 c 0,0 12.869626,-7.78123 15.856213,-13.82594 2.825667,-5.71901 -0.681588,-13.06261 1.424568,-19.08387 2.643808,-7.55835 9.137955,-13.15406 13.533385,-19.84723 5.122375,-7.80013 10.156328,-15.66246 14.957978,-23.66402 6.17613,-10.29201 11.41698,-21.13703 17.8071,-31.29756 5.10756,-8.12121 8.76938,-17.82607 16.38251,-23.664 6.00214,-4.60258 13.91586,-6.34234 21.36852,-7.63355 15.44023,-2.6751 31.34371,-0.31667 47.01076,0 12.59139,0.2545 26.59275,-4.31288 37.75103,1.5267 5.9332,3.10508 8.33769,10.49667 12.10884,16.03046 5.37677,7.88987 9.37941,16.67885 14.95796,24.42736 3.88283,5.39319 7.82077,10.88997 12.82111,15.26712 5.71408,5.00193 12.38597,8.92633 19.23166,12.21367 10.63153,5.10532 22.32241,7.62134 33.47735,11.45031 6.65049,2.2828 14.89657,1.97491 19.94396,6.87022 6.25081,6.06248 8.13504,15.79245 9.25967,24.42735 0.5947,4.56612 -1.055,8.6922 -1.30457,13.06011 -0.17183,3.0073 -0.0606,6.02428 -0.13183,9.03564 -0.12137,5.12917 -0.12736,10.26678 -0.50366,15.38356 -0.37856,5.14751 -1.32224,10.24098 -1.76282,15.38355 -0.63071,7.36187 -2.08598,14.75746 -2.56551,22.13072 -0.29856,4.59064 -1.00732,13.76421 -1.00732,13.76421"
     id="path4154"
     inkscape:connector-curvature="0"
     sodipodi:nodetypes="csssssssssssssssssssssc" />
  <path
     style="fill:none;fill-rule:evenodd;stroke:#000000;stroke-width:1;stroke-linecap:butt;stroke-linejoin:miter;stroke-miterlimit:4;stroke-dasharray:none;stroke-opacity:1"
     d="m 363.0262,458.54048 h 11.12947 v -38.54942 l -10.32811,0.19082 -0.3708,19.07854 z"
     id="C10.3"
     inkscape:connector-curvature="0"
     sodipodi:nodetypes="cccccc"
     inkscape:label="#path4156" />
  <path
     style="fill:none;fill-rule:evenodd;stroke:#000000;stroke-width:1;stroke-linecap:butt;stroke-linejoin:miter;stroke-miterlimit:4;stroke-dasharray:none;stroke-opacity:1"
     d="m 352.07487,420.1819 h 11.75267 l -0.35614,19.56097 -0.53421,18.70222 -26.44356,0.0955 0.089,-38.35859 6.05441,-0.19081 z"
     id="C10.02"
     inkscape:connector-curvature="0"
     sodipodi:nodetypes="cccccccc"
     inkscape:label="#path4158" />
  <path
     style="fill:none;fill-rule:evenodd;stroke:#000000;stroke-width:1;stroke-linecap:butt;stroke-linejoin:miter;stroke-miterlimit:4;stroke-dasharray:none;stroke-opacity:1"
     d="m 362.93719,458.34966 -0.53422,7.82438 0.17797,15.83962 2.13686,26.52658 3.96682,49.03178 15.61349,62.07396 11.58418,32.38642"
     id="path4162"
     inkscape:connector-curvature="0" />
  <path
     style="fill:none;fill-rule:evenodd;stroke:#000000;stroke-width:1;stroke-linecap:butt;stroke-linejoin:miter;stroke-miterlimit:4;stroke-dasharray:none;stroke-opacity:1"
     d="m 81.922291,321.942 c 0,0 8.449901,-1.73811 11.763644,-0.52093 4.436098,1.62943 8.140385,5.52532 10.325045,9.71594 2.14355,4.11176 3.03232,9.24032 2.01463,13.76422 -0.49829,2.21501 -1.96748,4.29703 -3.77746,5.66762 -3.024896,2.29058 -7.696522,1.36699 -10.828708,3.50852 -3.067908,2.09758 -5.638119,5.19909 -7.051251,8.63638 -1.340173,3.25983 -1.360321,4.52456 -1.360321,4.52456"
     id="path4164"
     inkscape:connector-curvature="0"
     sodipodi:nodetypes="cssssssc" />
  <path
     style="fill:none;fill-rule:evenodd;stroke:#000000;stroke-width:1;stroke-linecap:butt;stroke-linejoin:miter;stroke-miterlimit:4;stroke-dasharray:none;stroke-opacity:1"
     d="m 102.24815,350.56885 c 0,0 12.11433,-2.44309 18.25771,-2.96876 9.40969,-0.80516 18.88687,-0.25616 28.33094,-0.2699 13.59912,-0.0198 27.19872,0.0785 40.79651,0.2699 16.70697,0.2352 33.40659,0.89962 50.11424,1.07956 14.94108,0.16091 29.95479,-1.45387 44.82584,0 6.47198,0.63273 13.06178,1.46472 19.1391,3.77839 7.28518,2.77351 14.1546,6.88865 20.14643,11.87504 5.31276,4.42127 9.90096,9.814 13.59883,15.65343 3.5745,5.64461 6.38362,11.88445 8.05857,18.35231 1.35906,5.24806 3.20929,11.0449 1.51098,16.19319 -0.63147,1.91423 -2.31681,3.44935 -4.03405,4.50486 -0.83764,0.51486 -1.86987,0.85116 -2.84916,0.76335 -1.63407,-0.14652 -3.20196,-1.03638 -4.45176,-2.09923 -5.35017,-4.54989 -7.94355,-11.58465 -11.93076,-17.36634 -3.31673,-4.80946 -5.77504,-10.35051 -9.97586,-14.41064 -4.66445,-4.50824 -10.40851,-7.9655 -16.36899,-10.52558 -7.3052,-3.13765 -15.2707,-4.75274 -23.1684,-5.66762 -9.31335,-1.07887 -18.75835,-0.13383 -28.12569,0.26048 -11.89422,0.50068 -23.77699,1.40525 -35.61419,2.67173 -9.17672,0.98183 -18.46505,1.59591 -27.42294,3.81679 -8.33422,2.06626 -16.36356,5.30843 -24.21765,8.77857 -6.74842,2.98162 -13.29131,6.46013 -19.5878,10.30531 -3.5901,2.19243 -6.34535,5.89801 -10.32814,7.25186 -2.78737,0.94749 -5.98397,1.1575 -8.82379,0.38122 -2.70494,-0.73941 -5.54745,-2.22121 -7.05126,-4.58806 -2.28929,-3.60311 -1.58182,-8.41967 -1.7628,-12.6847 -0.13368,-3.15031 0.50365,-9.44602 0.50365,-9.44602 l -5.03661,-1.07956 c 0,0 0.57755,10.79336 0.50367,16.1932 -0.0879,6.42342 2.15448,13.71584 -1.12593,19.23915 -2.75429,4.63747 -13.732059,8.55922 -13.732059,8.55922 0,0 5.594742,-2.05737 8.310409,-1.34945 2.80024,0.72996 5.26724,2.94282 6.79941,5.39774 2.48708,3.98492 2.51534,9.09427 3.02195,13.76422 0.3978,3.66694 0,7.37691 0,11.06537 v 3.23864 l 3.77747,-0.2699 c 0,0 0.33085,-10.77949 2.77014,-15.38355 1.26462,-2.38693 3.2207,-4.84022 5.79211,-5.66762 2.82938,-0.91041 6.43552,-0.43294 8.81404,1.34944 3.01878,2.26216 3.65716,6.65586 4.78478,10.2557 1.77369,5.66238 1.84383,11.7271 3.02199,17.54264 1.46736,7.24307 5.2438,14.20365 5.03658,21.59095 -0.18401,6.55998 -2.52204,13.06476 -5.54026,18.89207 -2.11235,4.07834 -4.36924,8.92101 -8.56224,10.79547 -2.76372,1.23551 -6.47124,1.01986 -9.06589,-0.53977 -4.69674,-2.82319 -6.48646,-8.96253 -8.56224,-14.03411 -2.2395,-5.4716 -4.57413,-11.38576 -4.02927,-17.27277 0.30787,-3.32638 2.93778,-6.01888 4.02927,-9.17614 0.88021,-2.5461 1.6762,-5.15411 2.01466,-7.82672 0.23735,-1.87424 0.11758,-3.78208 0,-5.66762 -0.0995,-1.59617 -0.55419,-4.88626 -0.55419,-4.88626"
     id="path4166"
     inkscape:connector-curvature="0"
     sodipodi:nodetypes="cssssssssssssssssssssssssssccsscssssccssssssssssssssc" />
  <path
     style="fill:none;fill-rule:evenodd;stroke:#000000;stroke-width:1;stroke-linecap:butt;stroke-linejoin:miter;stroke-miterlimit:4;stroke-dasharray:none;stroke-opacity:1"
     d="m 120.36431,431.47523 c 0,0 -0.93385,-3.77207 -0.99168,-6.14774 -0.0795,-3.26476 -1.19396,-7.5602 1.25916,-9.71592 0.81973,-0.72035 2.3868,-0.63569 3.27379,0 1.69877,1.21749 1.28358,3.97954 2.01465,5.9375 0.54383,1.4565 0.83352,3.07178 1.76282,4.31819 0.515,0.69073 1.56757,0.8828 2.01464,1.61932 0.66646,1.09796 0.6886,3.1766 0.6886,3.1766"
     id="path4168"
     inkscape:connector-curvature="0"
     sodipodi:nodetypes="cssssssc" />
  <path
     style="fill:none;fill-rule:evenodd;stroke:#000000;stroke-width:1;stroke-linecap:butt;stroke-linejoin:miter;stroke-miterlimit:4;stroke-dasharray:none;stroke-opacity:1"
     d="m 114.50092,400.06089 c 0,0 -1.93558,2.7309 -2.68321,4.48531 -0.80063,1.87877 -1.19438,3.91996 -1.51099,5.93752 -0.41921,2.67139 -1.47158,5.57169 -0.50364,8.0966 0.50546,1.31851 1.60991,2.97929 3.02195,2.96875 2.14982,-0.016 3.39815,-2.76207 4.53293,-4.58806 1.35651,-2.18278 1.10245,-5.14221 2.51832,-7.28695 0.8116,-1.22941 2.72213,-1.60281 3.2738,-2.96876 0.47269,-1.17041 -0.21793,-2.96535 -0.21793,-2.96535"
     id="path4170"
     inkscape:connector-curvature="0"
     sodipodi:nodetypes="csssssssc" />
  <path
     style="fill:none;fill-rule:evenodd;stroke:#000000;stroke-width:1;stroke-linecap:butt;stroke-linejoin:miter;stroke-miterlimit:4;stroke-dasharray:none;stroke-opacity:1"
     d="m 131.80105,431.82306 c 0,0 2.21252,-1.23313 3.2053,-0.76336 2.94182,1.39203 2.96292,5.79969 4.2737,8.7786 1.43231,3.2551 1.49048,7.32425 3.91754,9.9236 1.61532,1.72998 4.05967,3.32798 6.41057,3.05343 1.81536,-0.21201 3.60641,-1.73357 4.2737,-3.4351 0.89208,-2.27471 0.3748,-5.28026 -1.06843,-7.25186 -1.71595,-2.34417 -5.70863,-1.83746 -7.83511,-3.81678 -3.12093,-2.90495 -4.55239,-7.23119 -6.41057,-11.06866 -1.9679,-4.06406 -5.00248,-8.07995 -4.98597,-12.59537 0.0151,-4.11694 2.01685,-8.26884 4.62984,-11.45031 3.24243,-3.94784 8.22039,-6.17607 12.82111,-8.39691 7.65769,-3.69649 16.00133,-5.82518 24.21765,-8.01523 12.29283,-3.27665 24.76633,-6.09438 37.39491,-7.63355 12.26598,-1.49497 24.69199,-2.02267 37.03878,-1.52671 9.44043,0.37922 19.17076,0.4511 28.1352,3.4351 7.27336,2.42109 14.56868,5.98499 19.94395,11.45032 4.99366,5.07733 8.02434,11.96364 10.32811,18.70222 2.24919,6.57892 2.74837,13.67283 3.20527,20.61057 0.34288,5.20634 -0.35614,15.64879 -0.35614,15.64879 l 3.2053,0.5725 0.17797,5.15266"
     id="path4172"
     inkscape:connector-curvature="0"
     sodipodi:nodetypes="cssssssssssssssssssccc" />
  <path
     style="fill:none;fill-rule:evenodd;stroke:#000000;stroke-width:1;stroke-linecap:butt;stroke-linejoin:miter;stroke-miterlimit:4;stroke-dasharray:none;stroke-opacity:1"
     d="m 265.35431,500.52503 c -2.04397,1.16133 -3.48512,3.21247 -5.52022,4.38929 -3.59196,2.07709 -8.31151,2.01715 -11.57459,4.58012 -1.77746,1.3961 -3.30804,3.35788 -3.91757,5.53433 -0.68788,2.45624 0.0879,5.12216 0.53421,7.63356 0.33603,1.89094 0.25201,4.16891 1.60265,5.53433 1.39512,1.41038 3.75654,2.12411 5.69825,1.71753 2.97644,-0.62325 5.17444,-3.44343 6.94478,-5.91599 1.59354,-2.22562 1.54399,-5.33292 3.02719,-7.63355 1.3893,-2.15499 3.64401,-3.61326 5.34213,-5.53433 1.62547,-1.83889 3.60169,-3.49658 4.62985,-5.72516 0.54217,-1.17519 1.32212,-2.67525 0.71227,-3.81678 -0.76077,-1.42404 -2.83762,-1.87337 -4.45176,-1.90838 -1.07858,-0.0234 -2.08919,0.61208 -3.02719,1.14503 z"
     id="path4174"
     inkscape:connector-curvature="0"
     sodipodi:nodetypes="ssssssssssssss" />
  <path
     style="fill:none;fill-rule:evenodd;stroke:#000000;stroke-width:1;stroke-linecap:butt;stroke-linejoin:miter;stroke-miterlimit:4;stroke-dasharray:none;stroke-opacity:1"
     d="m 144.8075,481.19406 c 0,0 10.36987,1.93227 15.6135,2.42898 10.36879,0.9822 20.83073,0.45099 31.22695,1.07953 10.42876,0.63051 20.89916,1.12013 31.22699,2.69888 8.66749,1.32494 17.44043,2.68766 25.68669,5.66761 4.79722,1.73357 9.90015,3.50447 13.59883,7.01708 0.60412,0.57373 1.25915,2.15909 1.25915,2.15909"
     id="path4176"
     inkscape:connector-curvature="0"
     sodipodi:nodetypes="csssssc" />
  <path
     style="fill:none;fill-rule:evenodd;stroke:#000000;stroke-width:1;stroke-linecap:butt;stroke-linejoin:miter;stroke-miterlimit:4;stroke-dasharray:none;stroke-opacity:1"
     d="m 130.20133,510.61172 c 0,0 8.39456,-0.0413 12.59153,0 9.15116,0.09 18.3146,-0.0129 27.4495,0.53977 8.001,0.48403 15.98215,1.34323 23.9239,2.42899 9.45217,1.29226 18.87623,2.86108 28.205,4.85796 6.01678,1.28793 12.35071,1.88847 17.87996,4.58805 2.38198,1.16297 5.51947,3.99545 5.51947,3.99545"
     id="path4178"
     inkscape:connector-curvature="0"
     sodipodi:nodetypes="csssssc" />
  <path
     style="fill:none;fill-rule:evenodd;stroke:#000000;stroke-width:1;stroke-linecap:butt;stroke-linejoin:miter;stroke-miterlimit:4;stroke-dasharray:none;stroke-opacity:1"
     d="m 312.36503,502.43341 c 0,0 -6.97867,9.09164 -10.32811,13.74041 -6.59694,9.15604 -13.67208,18.04189 -19.23168,27.86246 -2.54683,4.49877 -5.41577,9.04903 -6.41054,14.12207 -0.588,2.99862 -0.34703,6.18653 0.35613,9.16025 1.12499,4.75769 3.98269,8.93049 6.05441,13.35872 1.73606,3.71077 3.82705,7.26231 5.34215,11.06865 2.17247,5.45785 3.23567,11.31013 5.34212,16.7938 1.75309,4.56377 3.56251,9.15258 6.05441,13.35874 3.32509,5.61252 8.08841,10.25157 11.75268,15.64877 2.429,3.57775 4.60944,7.32077 6.7667,11.06864 4.97892,8.65001 14.24568,26.33575 14.24568,26.33575"
     id="path4180"
     inkscape:connector-curvature="0"
     sodipodi:nodetypes="cssssssssssc" />
  <path
     style="fill:none;fill-rule:evenodd;stroke:#000000;stroke-width:1;stroke-linecap:butt;stroke-linejoin:miter;stroke-miterlimit:4;stroke-dasharray:none;stroke-opacity:1"
     d="m 282.98332,543.65458 c 0,0 -0.80168,-6.48567 -2.493,-9.16024 -2.08941,-3.3041 -5.55248,-5.62034 -8.90354,-7.63358 -2.84141,-1.70706 -5.98473,-3.11373 -9.25969,-3.62591 -0.99893,-0.15623 -3.02721,0.19082 -3.02721,0.19082"
     id="path4182"
     inkscape:connector-curvature="0"
     sodipodi:nodetypes="csssc" />
  <path
     style="fill:none;fill-rule:evenodd;stroke:#000000;stroke-width:1;stroke-linecap:butt;stroke-linejoin:miter;stroke-miterlimit:4;stroke-dasharray:none;stroke-opacity:1"
     d="m 251.99899,529.91419 2.49297,12.59535 3.38335,18.32054 1.06843,14.50375 2.31492,8.58774 6.23248,11.83201 8.90356,17.748 4.986,14.88544 5.69827,13.54954 5.34211,11.83201 1.06843,11.06866 -0.17818,13.74039"
     id="path4184"
     inkscape:connector-curvature="0" />
  <path
     style="fill:none;fill-rule:evenodd;stroke:#000000;stroke-width:1;stroke-linecap:butt;stroke-linejoin:miter;stroke-miterlimit:4;stroke-dasharray:none;stroke-opacity:1"
     d="m 370.9512,661.47843 c 0,0 -6.43927,-14.48107 -9.31772,-21.86081 -4.19709,-10.76046 -7.16523,-21.98504 -11.5842,-32.6563 -1.8679,-4.51074 -4.79875,-8.57743 -6.29576,-13.22445 -2.74719,-8.52784 -2.73569,-17.72698 -4.78479,-26.44892 -0.96411,-4.10371 -3.11759,-7.94928 -3.52563,-12.14492 -0.36718,-3.77549 2.10291,-7.70359 1.00734,-11.33524 -0.46579,-1.54402 -1.54,-3.14222 -3.02197,-3.77841 -1.18951,-0.51065 -2.71676,-0.25881 -3.86939,0.33039 -1.5619,0.79841 -2.79936,2.35239 -3.4337,3.98781 -2.08298,5.37021 -0.23149,11.51915 -0.50366,17.27275 -0.24282,5.13309 -1.49897,10.26829 -1.00731,15.38355 0.63187,6.57398 2.96712,12.89031 5.03661,19.16197 2.97534,9.0169 6.7241,17.77056 10.57686,26.44889 2.47915,5.58429 5.33878,10.99198 8.05858,16.4631 2.73643,5.50458 5.84682,10.83111 8.3104,16.4631 0.57724,1.31963 1.51098,4.0483 1.51098,4.0483"
     id="path4188"
     inkscape:connector-curvature="0"
     sodipodi:nodetypes="csssssssssssssssc" />
  <path
     style="fill:none;fill-rule:evenodd;stroke:#000000;stroke-width:1;stroke-linecap:butt;stroke-linejoin:miter;stroke-miterlimit:4;stroke-dasharray:none;stroke-opacity:1"
     d="m 283.56604,575.11467 c 1.36814,3.88007 8.22768,0.40438 12.3397,0.26988 4.12673,-0.13498 8.47018,0.36098 12.33969,-1.07953 4.46391,-1.66179 11.46148,-3.60489 11.58422,-8.36651 0.0222,-0.8613 -1.1599,-1.511 -2.01466,-1.61932 -4.11329,-0.52126 -7.3724,3.89926 -11.33237,5.12787 -3.42058,1.06126 -7.02764,1.4101 -10.57688,1.88921 -2.92387,0.39469 -6.09169,-0.32767 -8.81406,0.80965 -1.41762,0.59224 -4.03654,1.51983 -3.52564,2.96875 z"
     id="path4190"
     inkscape:connector-curvature="0"
     sodipodi:nodetypes="sssssssss" />
  <path
     style="fill:none;fill-rule:evenodd;stroke:#000000;stroke-width:1;stroke-linecap:butt;stroke-linejoin:miter;stroke-miterlimit:4;stroke-dasharray:none;stroke-opacity:1"
     d="m 332.16931,458.25238 c 0,0 2.96337,0.95983 3.77745,2.16038 1.68272,2.48157 1.25455,5.908 1.25917,8.90628 0.008,4.90415 -0.75912,9.83317 -2.01463,14.57389 -1.38906,5.24496 -4.6171,9.87885 -6.04395,15.11366 -1.45992,5.35613 -2.51832,10.91157 -2.51832,16.4631 0,5.55153 0.7501,11.20068 2.51832,16.46308 1.01027,3.00666 4.53295,8.3665 4.53295,8.3665"
     id="path4192"
     inkscape:connector-curvature="0"
     sodipodi:nodetypes="cssssssc" />
  <path
     style="fill:none;fill-rule:evenodd;stroke:#000000;stroke-width:1;stroke-linecap:butt;stroke-linejoin:miter;stroke-miterlimit:4;stroke-dasharray:none;stroke-opacity:1"
     d="m 361.57471,306.73352 c 0,0 8.50511,1.41189 11.13929,4.16198 5.15699,5.3839 6.57515,13.66056 7.55493,21.05116 2.18258,16.46341 -2.77222,33.09935 -4.02931,49.65916 -0.90111,11.87051 -2.90538,23.77437 -2.10902,35.65236 0.11063,1.65006 -0.0295,2.97534 -0.0295,2.97534"
     id="path4194"
     inkscape:connector-curvature="0"
     sodipodi:nodetypes="cssssc" />
  <path
     style="fill:none;fill-rule:evenodd;stroke:#000000;stroke-width:1;stroke-linecap:butt;stroke-linejoin:miter;stroke-miterlimit:4;stroke-dasharray:none;stroke-opacity:1"
     d="m 374.22499,458.25369 v 25.36935 l 2.5183,36.16482 2.51831,36.70462 11.08054,41.56256 10.07321,38.86371 5.54026,14.03411"
     id="path4196"
     inkscape:connector-curvature="0" />
  <path
     style="fill:none;fill-rule:evenodd;stroke:#000000;stroke-width:1;stroke-linecap:butt;stroke-linejoin:miter;stroke-miterlimit:4;stroke-dasharray:none;stroke-opacity:1"
     d="m 147.57764,272.03179 c 0,0 21.1476,-8.91896 32.39589,-10.21739 11.65439,-1.34531 23.36532,2.42037 35.09465,2.66056 10.2602,0.21011 20.8514,-3.70807 30.76851,-1.06858 8.57281,2.2817 22.61954,14.02315 22.61954,14.02315"
     id="path4198"
     inkscape:connector-curvature="0"
     sodipodi:nodetypes="csssc" />
  <path
     style="fill:none;fill-rule:evenodd;stroke:#000000;stroke-width:1;stroke-linecap:butt;stroke-linejoin:miter;stroke-miterlimit:4;stroke-dasharray:none;stroke-opacity:1"
     d="m 154.62889,306.57728 c 0,0 17.79563,3.51568 26.81683,3.67935 12.27421,0.22268 24.3694,-3.85096 36.64443,-3.67933 8.86288,0.12392 17.57445,2.327 26.37358,3.39527 8.99717,1.09231 27.01446,3.08202 27.01446,3.08202"
     id="path4200"
     inkscape:connector-curvature="0"
     sodipodi:nodetypes="csssc" />
  <path
     style="font-size:33.2768px;font-family:'.Arial Hebrew Desk Interface';-inkscape-font-specification:'.Arial Hebrew Desk Interface, Normal';display:inline;fill:none;stroke:#000000;stroke-width:1;stroke-dasharray:none"
     d="m 618.02872,137.77567 q 0,-2.88504 -1.47081,-4.52555 -1.41423,-1.64049 -3.95985,-1.64049 -2.20619,0 -3.79014,1.75363 -1.58393,1.69709 -1.58393,4.41241 0,2.37592 1.4708,3.95985 1.47081,1.52736 3.8467,1.52736 2.26278,0 3.84672,-1.52736 1.64051,-1.58393 1.64051,-3.95985 z"
     id="path1" />
  <path
     id="C10.9"
     style="font-size:33.2768px;font-family:'.Arial Hebrew Desk Interface';-inkscape-font-specification:'.Arial Hebrew Desk Interface, Normal';display:inline;fill:none;stroke:#000000;stroke-width:1;stroke-dasharray:none"
     d="m 618.93383,143.71544 q -2.7719,3.62043 -7.41057,3.62043 -4.18613,0 -6.84489,-2.65875 -2.60219,-2.71532 -2.60219,-6.78832 0,-4.35583 2.99817,-7.354 3.05474,-2.99817 7.24087,-2.99817 5.31751,0 8.42882,3.95985 3.16787,3.95985 3.16787,10.63501 0,7.24086 -3.28101,11.70984 -3.22446,4.46898 -8.99452,4.46898 -3.05473,0 -5.54378,-1.69709 -2.43247,-1.75366 -2.99817,-4.01642 l 4.80839,-0.7354 q 1.13138,2.14964 4.12955,2.14964 3.22446,0 5.03468,-2.7719 1.86678,-2.82846 1.86678,-7.5237 z m 15.06753,-1.46475 A 21.750674,21.750674 0 0 1 612.25068,164.00135 21.750674,21.750674 0 0 1 590.5,142.25069 21.750674,21.750674 0 0 1 612.25068,120.5 a 21.750674,21.750674 0 0 1 21.75068,21.75069 z"
     inkscape:label="C10.9" />
  <path
     id="C10.8"
     style="font-size:33.2768px;font-family:'.Arial Hebrew Desk Interface';-inkscape-font-specification:'.Arial Hebrew Desk Interface, Normal';display:inline;fill:none;stroke:#000000;stroke-width:1;stroke-dasharray:none"
     d="m 606.21,80.95843 q -3.28102,-2.26276 -3.28102,-6.10946 0,-3.84672 2.77191,-5.88321 2.82845,-2.03649 6.50545,-2.03649 3.62044,0 6.44891,2.03649 2.82846,2.03649 2.82846,5.88321 0,3.8467 -3.28102,6.10946 v 0.0567 q 2.2062,1.01825 3.5073,3.05474 1.35765,1.97992 1.35765,4.35583 0,3.84672 -2.99816,6.61861 -2.99817,2.7719 -7.86314,2.7719 -5.03466,0 -7.97626,-2.7719 -2.88504,-2.82846 -2.88504,-6.61861 0,-2.37591 1.30111,-4.35583 1.35766,-2.03649 3.56385,-3.05474 z m 5.99634,-1.58393 q 1.69709,0 3.05474,-1.01824 1.41423,-1.01825 1.41423,-2.94161 0,-2.09306 -1.35766,-3.1113 -1.30108,-1.07483 -3.11131,-1.07483 -1.97992,0 -3.22444,1.13139 -1.24453,1.13138 -1.24453,3.05474 0,1.86678 1.35767,2.94161 1.41423,1.01824 3.1113,1.01824 z m 0,14.14232 q 2.14963,0 3.79014,-1.24453 1.64051,-1.24452 1.64051,-3.84671 0,-2.09306 -1.58393,-3.5073 -1.58394,-1.41423 -3.84672,-1.41423 -2.20619,0 -3.8467,1.41423 -1.58394,1.41424 -1.58394,3.5073 0,2.60219 1.64051,3.84671 1.64051,1.24453 3.79013,1.24453 z M 634.00133,82.25068 A 21.750674,21.750674 0 0 1 612.25068,104.00136 21.750674,21.750674 0 0 1 590.5,82.25068 21.750674,21.750674 0 0 1 612.25068,60.5 21.750674,21.750674 0 0 1 634.00133,82.25068 Z"
     inkscape:label="C10.8" />
  <path
     id="C10.4"
     style="font-size:33.2768px;font-family:'.Arial Hebrew Desk Interface';-inkscape-font-specification:'.Arial Hebrew Desk Interface, Normal';display:inline;fill:none;stroke:#000000;stroke-width:1;stroke-dasharray:none"
     d="M 634.00136,202.25069 A 21.750674,21.750674 0 0 1 612.25068,224.00135 21.750674,21.750674 0 0 1 590.5,202.25069 21.750674,21.750674 0 0 1 612.25068,180.5 a 21.750674,21.750674 0 0 1 21.75068,21.75069 z m -19.5637,13.85254 c 0,0 0.0132,-1.54071 0,-2.3109 -0.0266,-1.58659 0.42054,-3.28098 -0.1601,-4.75776 -0.46131,-1.17336 -1.43744,-2.14773 -2.48139,-2.85465 -0.91242,-0.61783 -2.05011,-0.83103 -3.12177,-1.0875 -1.52441,-0.36483 -3.09311,-0.58364 -4.65985,-0.63098 -1.54534,-0.0467 -4.62538,0.34372 -4.62538,0.34372 v -1.68376 l -2.08115,-1.15547 c 0,0 2.41677,-2.22714 3.12175,-3.67026 0.75148,-1.5383 0.24332,-3.51454 1.04059,-5.02964 0.78958,-1.50052 2.05029,-2.82816 3.52198,-3.67025 2.38043,-1.36205 5.26549,-1.76397 8.00452,-1.90312 1.72036,-0.0873 3.51332,0.066 5.12287,0.67969 1.50693,0.57464 2.93079,1.51331 4.00224,2.71873 1.15343,1.29761 1.96106,2.94245 2.40136,4.62183 0.40242,1.53493 0.51068,3.21015 0.1601,4.75773 -0.38356,1.69324 -1.38497,3.21429 -2.40136,4.62182 -0.85123,1.1788 -2.26462,1.89761 -3.04171,3.12654 -0.4909,0.77634 -0.8463,1.67136 -0.96054,2.58277 -0.12472,0.99477 -0.0248,2.04924 0.32018,2.99059 0.31081,0.84816 1.52087,2.24294 1.52087,2.24294 m -13.36756,0.33981 c 0,0 0.60363,-2.61633 0.16011,-3.80622 -0.32616,-0.87502 -1.04386,-1.71888 -1.92108,-2.03903 -1.11021,-0.4052 -2.40495,0.7938 -3.52198,0.4078 -0.85196,-0.29439 -1.55101,-1.08118 -1.92109,-1.90309 -0.19564,-0.4345 -0.0801,-1.42733 -0.0801,-1.42733 0,0 3.63624,-0.099 5.44307,0.0679 1.32126,0.12194 2.73185,0.0935 3.92221,0.67968 0.78055,0.38442 1.57143,0.97042 1.92108,1.76715 0.49165,1.12029 0,2.44685 0,3.67028 0,0.81562 0,2.44685 0,2.44685"
     inkscape:label="C10.4" />
</svg>
