<?xml version="1.0" encoding="UTF-8" standalone="no"?>
<!-- Created with Inkscape (http://www.inkscape.org/) -->

<svg
   width="700"
   height="750"
   viewBox="0 0 700 750.00001"
   id="svg4153"
   version="1.1"
   inkscape:version="1.3 (0e150ed, 2023-07-21)"
   sodipodi:docname="level3_C52.svg"
   xmlns:inkscape="http://www.inkscape.org/namespaces/inkscape"
   xmlns:sodipodi="http://sodipodi.sourceforge.net/DTD/sodipodi-0.dtd"
   xmlns="http://www.w3.org/2000/svg"
   xmlns:svg="http://www.w3.org/2000/svg"
   xmlns:rdf="http://www.w3.org/1999/02/22-rdf-syntax-ns#"
   xmlns:cc="http://creativecommons.org/ns#"
   xmlns:dc="http://purl.org/dc/elements/1.1/">
  <defs
     id="defs4155" />
  <sodipodi:namedview
     id="base"
     pagecolor="#ffffff"
     bordercolor="#666666"
     borderopacity="1.0"
     inkscape:pageopacity="0.0"
     inkscape:pageshadow="2"
     inkscape:zoom="0.53379669"
     inkscape:cx="120.83252"
     inkscape:cy="400.9017"
     inkscape:document-units="px"
     inkscape:current-layer="layer1"
     showgrid="false"
     inkscape:window-width="1344"
     inkscape:window-height="773"
     inkscape:window-x="0"
     inkscape:window-y="25"
     inkscape:window-maximized="0"
     inkscape:showpageshadow="2"
     inkscape:pagecheckerboard="0"
     inkscape:deskcolor="#d1d1d1" />
  <metadata
     id="metadata4158">
    <rdf:RDF>
      <cc:Work
         rdf:about="">
        <dc:format>image/svg+xml</dc:format>
        <dc:type
           rdf:resource="http://purl.org/dc/dcmitype/StillImage" />
      </cc:Work>
    </rdf:RDF>
  </metadata>
  <g
     inkscape:label="Laag 1"
     inkscape:groupmode="layer"
     id="layer1"
     transform="translate(0,10.629921)">
    <path
       style="fill:none;fill-rule:evenodd;stroke:#000000;stroke-width:1;stroke-linecap:butt;stroke-linejoin:miter;stroke-opacity:1;stroke-dasharray:none"
       d="m 228.31851,629.29018 c 3.44902,9.18667 4.64215,13.00937 14.1021,21.11153 7.89748,6.76395 16.10369,10.04733 28.89549,14.55693 12.35359,4.35511 16.43966,4.35906 32.24821,2.44305 7.76618,-0.72044 15.11435,-3.01316 22.22584,-6.10566"
       id="path4712"
       inkscape:connector-curvature="0"
       sodipodi:nodetypes="csssc" />
    <path
       style="fill:none;fill-rule:evenodd;stroke:#000000;stroke-width:1;stroke-linecap:butt;stroke-linejoin:miter;stroke-opacity:1;stroke-dasharray:none"
       d="m 388.58991,661.29789 c 0,0 3.97892,1.93576 6.34429,2.68354 6.03054,1.90647 12.27644,3.25387 18.56714,3.90887 5.66979,0.59035 11.44081,0.6735 17.10132,0 4.82484,-0.57407 9.57379,-1.8434 14.16966,-3.42028 5.2401,-1.79792 10.38848,-4.00347 15.14688,-6.84052 3.69326,-2.202 6.99657,-5.01883 10.26079,-7.81774 4.63448,-3.97384 9.24429,-8.04746 13.19245,-12.70384 2.04516,-2.41202 5.37469,-7.81774 5.37469,-7.81774"
       id="path4714"
       inkscape:connector-curvature="0"
       sodipodi:nodetypes="csssssssc" />
    <path
       style="fill:none;fill-rule:evenodd;stroke:#000000;stroke-width:1;stroke-linecap:butt;stroke-linejoin:miter;stroke-opacity:1;stroke-dasharray:none"
       d="m 108.1207,157.78246 c 11.80872,1.57416 19.90447,3.3867 31.75957,5.3747 9.36092,1.56975 14.95105,2.6055 23.21173,6.13343 4.56363,1.94901 7.33268,3.99792 13.69588,8.9737"
       id="path4716"
       inkscape:connector-curvature="0"
       sodipodi:nodetypes="cssc" />
    <path
       style="fill:none;fill-rule:evenodd;stroke:#000000;stroke-width:1;stroke-linecap:butt;stroke-linejoin:miter;stroke-opacity:1;stroke-dasharray:none"
       d="m 180.78159,148.07032 c 0,0 -5.86878,0.85021 -9.14173,0.91717 -5.54598,0.11347 -11.09869,-0.37192 -16.61271,-0.97721 -5.08367,-0.55805 -10.20104,-1.14159 -15.14688,-2.44305 -4.53502,-1.19336 -8.77892,-3.30138 -13.19244,-4.88609 -3.73281,-1.34029 -7.27323,-3.80511 -11.23801,-3.90887 -1.95287,-0.0511 -4.20101,0.50261 -5.62846,1.63318 -1.99436,1.57956 -3.58797,3.56228 -4.69325,5.78619 -0.97723,1.96623 -1.28679,4.37597 -1.57225,6.39666 -0.40505,2.86723 0.91291,7.15397 4.49286,7.1997 3.28211,0.0419 5.44668,-1.9792 7.46156,-4.57038 1.55606,-2.00112 3.27244,-4.86479 3.92994,-7.31295 1.24346,-4.26413 -0.80274,-8.06908 -3.73997,-9.1324"
       id="path4718"
       inkscape:connector-curvature="0"
       sodipodi:nodetypes="cssssssassssc" />
    <path
       style="fill:none;fill-rule:evenodd;stroke:#000000;stroke-width:1;stroke-linecap:butt;stroke-linejoin:miter;stroke-opacity:1;stroke-dasharray:none"
       d="m 522.738,146.28686 c 10.88563,3.35205 22.93956,2.87256 33.92579,0.7462 l 15.14688,-2.93165 c 7.06302,-1.36703 16.81819,-8.15125 20.03298,-7.81775 1.94567,0.20184 3.83965,2.91379 5.37468,4.78623 1.20418,1.46886 2.30467,3.23116 3.03153,4.98595 1.36497,3.14389 2.67159,8.28961 -0.58848,10.7494 -2.05865,0.86697 -8.48932,2.21612 -12.70383,3.42027 -8.10502,2.31573 -17.9121,1.53813 -26.87349,2.93165 -6.8718,1.06858 -13.01743,3.14064 -19.05577,6.35191 l -11.27463,5.996"
       id="path4720"
       inkscape:connector-curvature="0"
       sodipodi:nodetypes="csssssssssc" />
    <path
       style="fill:none;fill-rule:evenodd;stroke:#000000;stroke-width:1;stroke-linecap:butt;stroke-linejoin:miter;stroke-opacity:1;stroke-dasharray:none"
       d="m 591.59934,136.31335 c -2.62587,2.72658 -1.8061,6.53633 -0.84345,9.61802 0.74111,2.37247 2.02874,4.29596 3.36035,6.35191 1.10882,1.71197 3.06366,3.82781 5.53183,4.52587"
       id="path4722"
       inkscape:connector-curvature="0"
       sodipodi:nodetypes="cssc" />
    <path
       style="fill:none;fill-rule:evenodd;stroke:#000000;stroke-width:1;stroke-linecap:butt;stroke-linejoin:miter;stroke-opacity:1;stroke-dasharray:none"
       d="m 388.67092,661.29603 c 0.81376,-0.61507 1.10821,-1.71504 1.72309,-2.52894 0.92269,-1.22135 2.18149,-2.19702 2.94383,-3.52438 1.67591,-2.918 2.36911,-6.30106 3.43104,-9.49413 1.44358,-4.34064 2.81837,-8.70834 3.9945,-13.12895 2.12619,-7.99154 4.10222,-16.0392 5.52798,-24.18491 1.96041,-11.20032 3.31049,-22.51903 4.14598,-33.85889 1.67606,-22.74853 0.96475,-45.61132 1.72749,-68.40875 0.37002,-11.05936 0.15095,-22.17102 1.382,-33.16788 0.78155,-6.98153 2.13121,-13.90598 3.80049,-20.72992 0.74441,-3.04313 1.26592,-6.23149 2.76399,-8.98297 1.79802,-3.30239 4.65953,-5.91722 7.25547,-8.63747 2.81331,-2.94803 6.78692,-4.85933 8.98297,-8.29197 2.21786,-3.46674 3.15924,-7.68174 3.80049,-11.74696 0.53833,-3.41279 0.35183,-6.92794 0,-10.36497 -0.34731,-3.39282 -0.75741,-6.87286 -2.073,-10.01946 -0.96104,-2.29861 -2.80189,-4.12121 -4.14598,-6.21897 -1.89677,-2.96035 -4.23094,-5.7151 -5.52798,-8.98298 -1.25819,-3.16999 -1.95622,-6.61091 -2.07299,-10.01946 -0.1751,-5.11121 0.91384,-10.22083 2.07299,-15.20195 1.56833,-6.73949 3.55578,-13.4622 6.56447,-19.69342 2.75004,-5.69555 6.67669,-10.75499 10.36497,-15.89295 5.643,-7.86099 12.653,-14.71518 17.96593,-22.80291 3.59308,-5.46964 6.68088,-11.29018 9.32847,-17.27494 3.65447,-8.26078 5.63855,-17.17581 8.98297,-25.56691 3.55011,-8.90717 7.56621,-17.62875 11.74696,-26.25791 2.49306,-5.14574 4.65431,-10.52694 7.94647,-15.20195 3.51937,-4.99766 8.27464,-8.99903 12.43796,-13.47445 3.44071,-3.69865 7.4777,-6.9108 10.36496,-11.05595 2.35499,-3.38098 4.11417,-7.18581 5.52798,-11.05597 1.17891,-3.22714 2.19513,-6.59098 2.41849,-10.01945 0.21084,-3.23625 0.25355,-6.69848 -1.0365,-9.67397 -1.75403,-4.04566 -5.24423,-7.20346 -8.63747,-10.01947 -6.35373,-5.27289 -14.03274,-8.75177 -21.42092,-12.43795 -10.06749,-5.02297 -20.45119,-9.48253 -31.09488,-13.12896 -11.83951,-4.05611 -24.05314,-6.9918 -36.27738,-9.67396 -11.87292,-2.60508 -23.87989,-4.63705 -35.93187,-6.21898 -10.2036,-1.33932 -20.46626,-2.35874 -30.7494,-2.76399 -10.5877,-0.41725 -21.20552,-0.22844 -31.78588,0.3455 -10.63025,0.57664 -21.24982,1.58439 -31.78589,3.10949 -12.07095,1.74728 -24.0527,4.14483 -35.93187,6.90997 -8.48998,1.97623 -16.92822,4.22515 -25.2214,6.90998 -9.36146,3.03067 -18.56805,6.55402 -27.63991,10.36496 -7.03024,2.95328 -14.08356,5.93604 -20.72992,9.67396 -4.34312,2.44258 -8.81815,4.86768 -12.43796,8.29197 -2.50989,2.37432 -4.73412,5.17233 -6.21898,8.29197 -1.22444,2.57252 -1.83366,5.45298 -2.07299,8.29197 -0.25228,2.99256 -0.16912,6.10561 0.69099,8.98298 1.09246,3.65463 3.51614,6.77874 5.52799,10.01945 2.6623,4.28846 5.49346,8.48904 8.63747,12.43796 4.26556,5.3576 9.3922,9.97759 13.81995,15.20195 1.8025,2.12679 3.65799,4.23033 5.18248,6.56447 3.35256,5.13308 6.08397,10.6646 8.63747,16.23844 4.37362,9.54685 7.87212,19.47728 11.40146,29.3674 1.87279,5.24804 2.97526,10.77655 5.18248,15.89294 1.71481,3.97497 3.85552,7.77447 6.21898,11.40146 6.18735,9.49516 14.31548,17.60564 20.72991,26.9489 3.13012,4.55933 6.15483,9.22364 8.63748,14.16546 3.17772,6.3254 5.7584,12.96134 7.94648,19.69342 1.46777,4.51589 3.2655,9.07531 3.45498,13.81996 0.19568,4.89979 -0.85356,9.86365 -2.41849,14.51094 -1.57825,4.68685 -4.87758,8.62042 -6.90998,13.12895 -1.46797,3.25643 -2.99306,6.53991 -3.80048,10.01947 -0.83668,3.60568 -1.35585,7.36828 -1.03649,11.05596 0.33988,3.9246 1.29617,7.90433 3.10948,11.40146 1.58152,3.0501 4.30885,5.35486 6.56448,7.94647 2.46165,2.82831 5.19292,5.41789 7.60097,8.29197 1.58287,1.88921 3.37429,3.67657 4.4915,5.87349 1.47006,2.89079 2.09037,6.15608 2.76398,9.32846 1.47166,6.93078 2.2129,14.01159 2.76398,21.07542 0.70786,9.07348 0.44948,18.19656 0.691,27.29441 0.44027,16.58449 0.61991,33.179 1.38199,49.75182 0.57782,12.5657 0.86512,25.17667 2.4185,37.65937 1.40307,11.27487 3.61889,22.45304 6.21898,33.51337 1.15121,4.89705 2.3223,9.82262 4.14599,14.51096 1.68042,4.32003 3.36631,8.78433 6.21896,12.43794 1.9603,2.51071 4.62523,4.42227 7.25548,6.21899 1.61665,1.10433 3.38081,1.9978 5.18249,2.76399 4.45751,1.89562 9.06526,3.56647 13.81995,4.49148 6.45951,1.25667 13.1165,1.60243 19.69342,1.382 6.7391,-0.22586 13.47271,-1.23065 20.03894,-2.76399 3.19182,-0.74535 6.71365,-1.13313 9.32846,-3.10949 z"
       id="path4724"
       inkscape:connector-curvature="0"
       sodipodi:nodetypes="ssssssssssssssssssssssssssssssssssssssssssssssssssssssssssssssssssssssssssssssssss" />
    <path
       style="fill:none;fill-rule:evenodd;stroke:#000000;stroke-width:1;stroke-linecap:butt;stroke-linejoin:miter;stroke-opacity:1;stroke-dasharray:none"
       d="m 422.18431,413.22791 c 0.69274,0.10416 1.71763,-0.0196 2.36907,-0.27717 0.77228,-0.3054 1.21229,-0.89086 1.60416,-1.62307 0.27171,-0.50769 0.49657,-1.06529 0.49657,-1.64112 0,-0.80616 -0.11947,-2.05685 -0.32377,-2.33211 -0.68339,-0.92068 -3.90618,-0.81696 -5.87348,-0.69101 -1.89549,0.12135 -3.79564,0.60316 -5.52798,1.38201 -0.54654,0.24572 -1.07203,0.52986 -1.58278,0.84057 -1.74907,1.06402 -3.32524,2.43962 -4.9817,3.6509 -4.83498,3.53556 -9.24634,7.63843 -14.16545,11.05597 -2.88742,2.00603 -5.71081,4.24177 -8.98297,5.52798 -2.73264,1.07414 -5.70841,1.9318 -8.63747,1.72749 -2.43441,-0.16981 -4.8701,-1.07904 -6.90997,-2.41849 -1.70314,-1.11835 -3.07737,-2.7567 -4.14598,-4.49148 -1.03214,-1.67558 -1.81876,-3.57651 -2.073,-5.52798 -0.29905,-2.29542 -0.0373,-4.71271 0.691,-6.90998 0.63381,-1.91229 2.35549,-3.31431 3.10949,-5.18247 0.57507,-1.42484 0.97128,-2.95636 1.03649,-4.49149 0.0691,-1.62723 0.62165,-2.56676 -0.691,-4.83699 -1.31177,-2.26872 -1.1536,-7.04417 -1.20924,-7.77372 -0.20094,-2.63491 1.93993,-5.15939 1.55475,-7.77372 -0.28537,-1.93692 -2.0917,-3.3437 -2.764,-5.18248 -0.56623,-1.54866 -1.14991,-3.19196 -1.03649,-4.83699 0.0927,-1.34479 1.14812,-2.47294 1.382,-3.80048 0.29973,-1.7013 0.26717,-3.47578 0,-5.18249 -0.31366,-2.0037 -1.59843,-3.782 -1.8593,-5.79326 -0.3986,-3.07307 0.0104,-6.2219 0.48861,-9.28358 0.9877,-6.32308 3.19257,-12.3955 4.88609,-18.56712 2.82388,-10.29098 5.34301,-20.68474 8.79497,-30.78239 2.26973,-6.63939 5.06231,-13.09139 7.81775,-19.54435 3.09128,-7.23947 6.20333,-14.48243 9.77217,-21.4988 3.90165,-7.67068 8.34212,-15.05729 12.70384,-22.47602 3.48265,-5.92354 6.46174,-12.22026 10.74939,-17.58992 5.24636,-6.57031 12.04743,-11.7317 18.07855,-17.58993 5.3703,-5.21635 9.90085,-11.47353 16.12409,-15.63548 4.42645,-2.9603 9.59714,-4.69607 14.65827,-6.35192 3.49235,-1.14259 7.12925,-1.81333 10.7494,-2.44305 8.24372,-1.43398 16.63943,-1.70906 24.91906,-3.02932 1.79822,-0.28674 3.71748,-0.61353 5.3747,-1.36815 0.94911,-0.43218 2.07338,-1.0182 2.77814,-1.7869 0.79369,-0.8657 1.54636,-1.927 1.61934,-3.0992 0.0679,-1.09045 -0.69326,-2.1591 -1.46582,-2.93166 -2.06016,-2.06016 -4.98219,-3.23948 -7.81775,-3.90886 -7.4501,-1.75872 -15.31254,-0.20666 -22.96462,0 -12.06555,0.32586 -24.15398,0.68579 -36.15707,1.95443 -9.34652,0.98786 -18.50222,3.42852 -27.85072,4.39748 -12.97633,1.34498 -26.04694,1.6286 -39.08872,1.95444 -11.07168,0.27662 -22.15163,0.17322 -33.22542,0 -7.42683,-0.11618 -14.85259,-0.35195 -22.27231,-0.69697 -9.33613,-0.43413 -18.67875,-0.86834 -27.9854,-1.7275 -3.75517,-0.34667 -7.47761,-0.99363 -11.2287,-1.382 -12.99026,-1.34495 -25.9943,-2.70786 -39.04136,-3.28223 -13.97928,-0.61541 -28.09311,-2.14722 -41.97811,-0.41351 -1.82935,0.22842 -3.87814,0.51962 -5.35523,1.62275 -1.07608,0.80365 -1.99408,2.11425 -2.07298,3.45499 -0.0742,1.26072 0.78098,2.45689 1.55474,3.45499 0.67771,0.87421 1.58648,1.61039 2.59123,2.07299 1.11817,0.51482 2.41032,0.50877 3.62775,0.691 3.66645,0.54881 7.38641,0.68155 11.05596,1.20925 3.24231,0.46626 6.45022,1.14659 9.67396,1.72749 3.80157,0.68502 7.6763,1.05105 11.40146,2.07298 4.14668,1.13756 8.19918,2.66628 12.09246,4.49149 3.2464,1.52195 6.29181,3.44889 9.32847,5.35524 4.49102,2.81936 9.06381,5.57815 13.12895,8.98296 3.46501,2.90216 6.50206,6.29258 9.50122,9.67397 3.1806,3.58595 6.17774,7.34206 8.98297,11.2287 3.77639,5.23217 7.22074,10.7036 10.5377,16.23844 5.88238,9.8156 11.41893,19.84709 16.58394,30.05841 2.97703,5.88564 5.99717,11.78229 8.29197,17.96593 1.60438,4.32323 2.49102,8.88021 3.80049,13.3017 3.84828,12.99387 8.1673,25.84674 11.91972,38.86861 1.04043,3.61058 1.99156,7.24654 2.93672,10.88322 0.35833,1.37872 0.88685,2.72934 1.03651,4.14598 0.17555,1.66166 -0.006,3.34714 -0.17276,5.00973 -0.20941,2.09113 -0.5687,4.17012 -1.03649,6.21898 -0.32044,1.40346 -1.00565,2.72087 -1.20924,4.14598 -0.21987,1.53912 -0.13962,3.11577 0,4.66423 0.0578,0.6412 0.18026,1.27802 0.3455,1.90025 0.26644,1.00332 0.92936,1.90419 1.03648,2.93674 0.0899,0.86674 -0.0666,1.7657 -0.34549,2.59124 -0.44584,1.31947 -1.68026,2.29151 -2.073,3.62774 -0.30894,1.05113 -0.11908,2.18796 -0.17274,3.28224 -0.0621,1.26661 -0.39548,2.55206 -0.17275,3.80048 0.2085,1.16865 1.10253,2.1285 1.382,3.28224 0.17675,0.72969 0.23582,1.49761 0.17275,2.24575 -0.11967,1.41949 -0.72397,2.75616 -1.0365,4.14598 -0.3865,1.71879 -0.94631,3.42309 -1.03651,5.18248 -0.0622,1.21313 0.0106,2.46009 0.34552,3.62774 0.21298,0.74261 0.72634,1.36541 1.03648,2.07298 0.71698,1.63577 1.51108,3.26665 1.90024,5.00974 0.32719,1.46551 0.43201,2.9924 0.34551,4.49149 -0.12165,2.10831 -0.4246,4.25834 -1.20925,6.21898 -0.63504,1.5868 -2.76399,4.31873 -2.76399,4.31873 0,0 -2.30297,2.01826 -3.62774,2.76399 -1.50955,0.84975 -3.12139,1.66036 -4.83699,1.90025 -1.77613,0.24836 -3.62143,-0.0597 -5.35522,-0.51826 -2.31746,-0.61295 -4.48895,-1.73736 -6.56448,-2.93674 -2.46327,-1.42344 -4.62024,-3.32123 -6.90997,-5.00973 -2.78068,-2.05055 -5.53368,-4.1384 -8.29197,-6.21898 -1.67338,-1.26223 -3.34114,-2.53191 -5.00973,-3.80048 -1.21021,-0.92007 -2.2687,-2.08271 -3.62774,-2.764 -1.49904,-0.75147 -3.17635,-1.14941 -4.83699,-1.38199 -1.53972,-0.21564 -3.13848,-0.29887 -4.66423,0 -1.64751,0.32273 -3.21271,1.05673 -4.66423,1.90024 -0.88643,0.51513 -1.82761,0.99248 -2.49745,1.76865 -0.60663,0.70293 -1.29704,1.60358 -1.29376,2.3169 0.003,0.61212 0.71556,1.24094 1.19997,1.61518 0.61136,0.47232 1.34701,0.80757 2.1056,0.95382 1.75891,0.0188 3.1412,-0.0233 4.81379,-0.5774 1.15391,-0.33792 2.59249,-1.14471 3.79107,-1.24014 0.86864,-0.0692 1.77469,0.0412 2.59125,0.34549 2.06531,0.76951 5.52797,3.62774 5.52797,3.62774 0,0 4.32663,3.63286 6.56448,5.35523 2.8752,2.21291 5.67866,4.55948 8.81022,6.39172 2.73536,1.60043 5.60636,3.04802 8.63746,3.97323 2.39939,0.73239 4.91957,1.21399 7.42824,1.20926 2.45185,-0.005 4.9484,-0.37921 7.25547,-1.20926 3.13184,-1.1268 6.14402,-2.80499 8.63746,-5.00972 1.78594,-1.57915 3.40946,-3.49698 4.31874,-5.70073 0.82002,-1.98741 0.66847,-4.25067 0.86374,-6.39173 0.21991,-2.41122 0.23607,-4.83671 0.34551,-7.25547 0.0411,-0.90934 0.24814,-1.82754 0.11697,-2.72831 -0.17999,-1.236 -0.86159,-2.34636 -1.22152,-3.54242 -0.37565,-1.24829 -0.83535,-2.49086 -0.97722,-3.78671 -0.12858,-1.17449 -0.24645,-2.41988 0.12214,-3.54242 0.29243,-0.89061 1.13655,-1.49937 1.58799,-2.32089 0.44802,-0.8153 0.89069,-1.65862 1.09937,-2.5652 0.19202,-0.83422 0.31932,-1.73218 0.12216,-2.5652 -0.17215,-0.72738 -0.66348,-1.34721 -1.09937,-1.95443 -0.31945,-0.44501 -0.88112,-0.71908 -1.09937,-1.22152 -0.37452,-0.86221 -0.27023,-1.86983 -0.24431,-2.80951 0.0238,-0.86342 0.10115,-1.74321 0.36646,-2.5652 0.29649,-0.9186 1.07429,-1.63827 1.34367,-2.56519 0.27366,-0.94165 0.22315,-1.95128 0.24431,-2.93166 0.022,-1.01851 0.0905,-2.05748 -0.12216,-3.0538 -0.13728,-0.64333 -0.41485,-1.25648 -0.7329,-1.83229 -0.26777,-0.48478 -0.77357,-0.82866 -0.97723,-1.34367 -0.24144,-0.61054 -0.309,-1.30109 -0.2443,-1.95444 0.0888,-0.89693 0.42435,-1.77345 0.85507,-2.56519 0.24919,-0.45804 0.75195,-0.75126 0.97721,-1.22153 0.48651,-1.01568 0.56716,-2.18419 0.73292,-3.29811 0.39069,-2.62554 0.62691,-5.2855 0.61076,-7.9399 -0.039,-6.41788 -0.85735,-12.81682 -1.71013,-19.17791 -0.21437,-1.59905 -0.49315,-3.1917 -0.85507,-4.76394 -0.37013,-1.60788 -1.01647,-3.14676 -1.34367,-4.76392 -0.2604,-1.28702 -0.20503,-2.62677 -0.48861,-3.90889 -0.25862,-1.16927 -0.5746,-2.34383 -1.09937,-3.42026 -0.60375,-1.23846 -1.63493,-2.22537 -2.3209,-3.42025 -0.51685,-0.90028 -1.11404,-1.79713 -1.34367,-2.80951 -0.14411,-0.63534 -0.3074,-1.38004 0,-1.95443 0.27709,-0.51775 1.05058,-0.56199 1.46582,-0.97723 0.41524,-0.41524 0.92573,-0.88085 0.97722,-1.46582 0.0623,-0.70836 -0.47828,-1.35137 -0.85507,-1.95444 -0.56632,-0.90641 -1.51026,-1.53663 -2.07658,-2.44304 -0.37679,-0.60307 -0.57401,-1.30124 -0.85506,-1.95444 -0.45433,-1.05591 -1.01916,-2.07321 -1.34369,-3.17595 -0.26836,-0.91189 0.14697,-2.10266 -0.48859,-2.80951 -0.39639,-0.44086 -1.30525,-0.0556 -1.71014,-0.48861 -0.39815,-0.42585 -0.48733,-1.13981 -0.36646,-1.71013 0.11483,-0.54178 0.75142,-0.83798 0.97722,-1.34368 0.23769,-0.53233 0.36866,-1.12715 0.36645,-1.71013 -0.01,-2.62775 -0.51381,-5.35593 -1.71012,-7.69559 -0.22321,-0.43655 -0.54657,-0.86499 -0.97723,-1.09936 -0.4704,-0.256 -1.13392,0.0397 -1.58797,-0.24431 -0.54582,-0.34141 -1.0652,-0.9451 -1.09937,-1.58799 -0.0271,-0.50947 0.73291,-1.34367 0.73291,-1.34367 l 0.61076,-1.09937 c 0,0 -1.17345,-0.96465 -1.58798,-1.58798 -0.53594,-0.8059 -1.04034,-1.7213 -1.09937,-2.68734 -0.0283,-0.46339 0.36646,-1.34369 0.36646,-1.34369 0,0 -0.42813,-0.8574 -0.73292,-1.22151 -1.63009,-1.94733 -5.74116,-5.00825 -5.74116,-5.00825 l 1.71014,-0.97721 c 0,0 1.20749,-0.48577 1.58798,-0.97722 0.33904,-0.43791 0.58979,-1.04349 0.4886,-1.58799 -0.13245,-0.71275 -0.83848,-1.19018 -1.34367,-1.71012 -0.44322,-0.45616 -1.46582,-1.22153 -1.46582,-1.22153 v -2.07659 l -1.8323,-0.97721 -2.68733,-0.73292 -1.34368,0.12215 3.90887,-0.36645 1.22152,-1.34368 c 0,0 -0.0616,-0.81682 -0.12215,-1.22152 -0.0922,-0.616 -0.28302,-1.21504 -0.36645,-1.83228 -0.0765,-0.56635 -0.12216,-1.71013 -0.12216,-1.71013 l -1.09937,-0.85506 h -0.97722 l 1.09938,-1.09938 c 0,0 0.78122,-0.90501 0.85506,-1.46583 0.1212,-0.92056 -0.23639,-1.90276 -0.73291,-2.68735 -0.20074,-0.31721 -0.53003,-0.5451 -0.85507,-0.73291 -0.63557,-0.36725 -2.07659,-0.73291 -2.07659,-0.73291 l 0.60341,-0.47989 v -0.691 l -0.0864,-1.38198 -0.95013,-0.25913 -0.77737,-0.51826 1.29563,-1.29561 c 0,0 0.58614,-0.32021 0.60461,-0.60463 0.0306,-0.47122 -0.51873,-0.80045 -0.86374,-1.12286 -0.37923,-0.35439 -0.81213,-0.67493 -1.29562,-0.86374 -0.51588,-0.20146 -1.09156,-0.32771 -1.64112,-0.25913 -0.65274,0.0815 -1.81386,0.77737 -1.81386,0.77737 l -1.06089,-0.14167 -0.73292,-1.09937 1.09939,-0.73291 h 1.58797 l 1.58797,-0.36647 c 0,0 0.0914,-1.18004 -0.12215,-1.71012 -0.2377,-0.58994 -0.89787,-0.91831 -1.22152,-1.46583 -0.51174,-0.86571 -0.54893,-1.96788 -1.09937,-2.80951 -0.15759,-0.24096 -0.45939,-0.36585 -0.61076,-0.61076 -0.20308,-0.32859 -0.19371,-0.75386 -0.36646,-1.09936 -0.28792,-0.57583 -0.64016,-1.13676 -1.09937,-1.58799 -0.31414,-0.30868 -1.09936,-0.73291 -1.09936,-0.73291 0,0 -1.17322,0.42249 -1.71013,0.73291 -0.70501,0.4076 -1.18188,1.20832 -1.95444,1.46584 -0.38628,0.12876 -0.85074,0.16825 -1.22153,0 -0.39415,-0.17886 -0.65446,-0.59369 -0.85506,-0.97723 -0.15561,-0.29752 -0.3747,-0.66781 -0.2443,-0.97721 0.21969,-0.52126 0.97062,-0.58165 1.46582,-0.85507 0.92471,-0.51057 2.80951,-1.46583 2.80951,-1.46583 l -0.12216,-0.73292 -1.34368,-0.4886 -1.95444,-0.61076 -1.95444,-1.34368 c 0,0 -0.82443,0.0233 -1.22151,0.12215 -0.93918,0.23381 -1.79276,0.73003 -2.68735,1.09938 -0.97853,0.40401 -2.93167,1.22151 -2.93167,1.22151 0,0 -0.60653,-0.31894 -0.7329,-0.61076 -0.27553,-0.6363 -0.15283,-1.44005 0.12216,-2.07658 0.39981,-0.92545 2.07658,-2.19874 2.07658,-2.19874 l 1.46583,-1.58798 c 0,0 -0.0953,-0.67634 -0.2443,-0.97722 -0.23143,-0.46727 -0.58286,-0.88039 -0.97723,-1.22152 -1.0352,-0.89543 -3.54241,-2.07659 -3.54241,-2.07659 l -3.17595,-2.07659 -10.62726,-10.13863 -6.96267,-5.3747 -11.11587,-7.4513 c 0,0 -7.25335,-3.06297 -10.99369,-4.27533 -5.96572,-1.93368 -12.07068,-3.44036 -18.20069,-4.76393 -4.72417,-1.02003 -9.49556,-1.84786 -14.29181,-2.44304 -3.64766,-0.45265 -7.31818,-0.82713 -10.99371,-0.85507 -1.30546,-0.01 -2.61729,0.43442 -3.90887,0.24431 -1.15985,-0.17072 -2.31114,-0.58884 -3.29811,-1.22153 -0.67869,-0.43507 -1.55203,-0.91962 -1.71013,-1.71013 -0.14681,-0.73404 0.32109,-1.55195 0.85506,-2.07659 0.71734,-0.70481 1.82782,-0.88117 2.80951,-1.09936 1.23473,-0.27443 2.52186,-0.2492 3.78671,-0.24431 10.16502,0.0393 20.30256,1.17449 30.41592,2.19874 5.63776,0.57098 11.31052,1.03824 16.85702,2.19874 9.71172,2.032 18.94622,5.9469 28.58362,8.30636 0.80665,0.19749 1.65993,0.76503 2.44305,0.4886 0.59976,-0.21171 1.005,-0.86779 1.22152,-1.46583 0.18019,-0.49771 0,-1.58797 0,-1.58797 0,0 0.67016,0.10847 0.97722,0.2443 0.80555,0.35635 1.49991,0.92961 2.19874,1.46583 1.41915,1.08893 2.51825,2.5878 4.03102,3.54242 0.78674,0.49646 1.66565,0.8622 2.5652,1.09936 0.71306,0.18799 1.51746,0.52651 2.19875,0.24431 0.72262,-0.29932 1.06128,-1.16287 1.46581,-1.83229 0.36778,-0.6086 0.69501,-1.26158 0.85506,-1.95443 0.22015,-0.95297 -0.22073,-2.01567 0.12216,-2.93166 0.0914,-0.24417 0.48861,-0.61076 0.48861,-0.61076 0,0 0.82638,1.07115 0.97722,1.71014 0.16865,0.7144 -0.18748,1.4676 -0.12215,2.19873 0.0782,0.87548 0.182,1.7979 0.61076,2.5652 0.30898,0.55294 0.78047,1.05384 1.34368,1.34368 0.66067,0.33999 1.46034,0.4492 2.19874,0.36646 0.96182,-0.10777 1.81601,-0.67809 2.68735,-1.09938 0.67294,-0.32536 1.95444,-1.09936 1.95444,-1.09936 0,0 1.08965,0.23836 1.46582,0.61075 0.44075,0.43632 0.32934,1.23921 0.73292,1.71013 0.49993,0.58334 1.21595,1.00973 1.95443,1.22153 1.40902,0.40411 2.93708,0.12605 4.39748,0 0.94704,-0.0817 2.8095,-0.48862 2.8095,-0.48862 l -0.12215,-3.2981 0.4886,-1.83229 0.48862,2.32089 0.48861,2.5652 c 0,0 1.21595,1.00973 1.95443,1.22153 0.5871,0.16838 1.22941,-0.0978 1.83229,0 1.14387,0.18562 2.28787,0.53162 3.2981,1.09936 0.60448,0.33971 0.93689,1.10518 1.58798,1.34368 0.49703,0.18207 1.11911,0.24566 1.58798,0 0.57026,-0.29879 1.09937,-1.58798 1.09937,-1.58798 l 0.73292,-2.5652 0.48862,1.46584 0.85505,1.34366 3.90887,0.24431 c 0,0 3.82836,0.19411 5.74116,0.12215 1.26724,-0.0477 3.78673,-0.36646 3.78673,-0.36646 0,0 -0.15321,-0.8164 -0.24431,-1.22152 -0.25782,-1.14654 -0.72864,-2.25191 -0.85507,-3.42026 -0.149,-1.37695 -0.28764,-2.8302 0.12215,-4.15318 0.20051,-0.64733 1.09938,-1.71013 1.09938,-1.71013 0,0 0.77768,0.34197 1.09936,0.61077 0.44407,0.37107 0.90483,0.79864 1.09938,1.34366 0.54755,1.5339 0.14005,3.26343 0,4.88609 -0.0817,0.94704 -0.62664,1.86903 -0.48861,2.80951 0.0529,0.36033 0.48861,0.97722 0.48861,0.97722 h 1.34367 c 0,0 5.9554,0.5086 8.91712,0.2443 0.99425,-0.0887 2.93165,-0.61076 2.93165,-0.61076 l 0.85507,-2.8095 0.61076,2.19874 0.73291,1.83229 c 0,0 1.2285,0.22285 1.83228,0.12215 1.35009,-0.22517 2.47454,-1.19861 3.78673,-1.58799 1.30928,-0.38852 2.75736,-0.24004 4.03103,-0.73291 0.71648,-0.27726 1.95443,-1.22152 1.95443,-1.22152 l -0.2443,-4.27533 0.36645,-2.93165 0.2443,2.5652 0.12216,4.88608 1.22152,1.09938 c 0,0 1.87195,-0.17598 2.8095,-0.2443 1.38312,-0.1008 2.83828,0.19638 4.15318,-0.24431 0.696,-0.23326 1.32205,-0.69381 1.83228,-1.22153 0.69902,-0.72298 1.58798,-2.56519 1.58798,-2.56519 l 1.09937,1.71012 c 0,0 1.46446,0.25284 2.19875,0.36647 0.85358,0.13209 1.73655,0.61022 2.56518,0.36646 0.77537,-0.22809 1.83229,-1.58799 1.83229,-1.58799 l 1.34368,-2.44305 0.24431,-4.39747 0.7329,2.80949 0.48861,2.93166 0.48862,1.58798 2.19873,0.12215 h 1.8323 l 3.17594,-1.71013 4.76395,-3.78671 1.22152,-0.85507 0.73291,1.58798 0.85507,1.58798 c 0,0 1.55084,-0.30959 2.32089,-0.48861 8.83988,-2.05502 17.51627,-4.79115 26.38489,-6.71837 5.82223,-1.26522 11.69717,-2.2959 17.58993,-3.17597 6.16393,-0.92057 12.35527,-1.6946 18.56713,-2.19874 5.52479,-0.44838 11.07345,-0.93522 16.61271,-0.7329 0.69651,0.0254 1.41459,0.0263 2.07659,0.2443 1.40569,0.36232 2.10442,0.74132 2.26723,2.09988 0.2223,1.64524 -0.50569,2.36461 -1.90077,3.03051 -0.99048,0.44651 -2.09975,0.58384 -3.17595,0.73292 -4.15912,0.57616 -8.39814,0.25282 -12.58169,0.61076 -4.65963,0.39867 -9.31683,0.91476 -13.92535,1.71013 -4.6045,0.79468 -9.24895,1.5741 -13.68105,3.05379 -5.34114,1.78318 -10.27541,4.60975 -15.39119,6.96268 -3.14435,1.4462 -6.32655,2.81728 -9.40573,4.39749 -2.74097,1.40664 -5.63317,2.62436 -8.06205,4.51964 -3.92853,3.06548 -6.64789,7.43972 -10.26079,10.87155 -1.822,1.73069 -3.60231,3.56686 -5.74115,4.88608 -0.97837,0.60345 -2.1436,0.83814 -3.17597,1.34368 -1.04779,0.51309 -2.23344,0.88058 -3.0538,1.71013 -0.35874,0.36276 -0.69923,0.8346 -0.73292,1.34367 -0.0374,0.56589 0.25904,1.14309 0.61076,1.58799 0.58134,0.73535 1.66665,0.91667 2.3209,1.58798 0.57543,0.59044 1.34367,2.07659 1.34367,2.07659 l -0.73292,1.09936 c 0,0 -1.67307,-0.27644 -2.44303,-0.61076 -0.75625,-0.32837 -1.26629,-1.1915 -2.07659,-1.34367 -1.38915,-0.26087 -2.81756,0.39259 -4.15318,0.85507 -1.37656,0.47666 -3.90888,1.95444 -3.90888,1.95444 0,0 0.56118,0.83994 0.97723,1.09936 0.64546,0.40247 1.59842,0.14362 2.19873,0.61077 0.51814,0.40321 0.97722,1.71012 0.97722,1.71012 l -0.36645,0.73292 c 0,0 -0.73485,0.17757 -1.09937,0.12215 -0.70302,-0.10688 -1.30379,-0.56816 -1.95444,-0.85507 -0.73386,-0.32361 -2.19874,-0.97721 -2.19874,-0.97721 0,0 -1.01169,0.60491 -1.46582,0.97721 -0.35626,0.29206 -0.70298,0.60709 -0.97723,0.97723 -0.41208,0.55616 -0.71532,1.19153 -0.97721,1.83227 -0.27298,0.66789 -0.37801,1.39366 -0.61077,2.0766 -0.25369,0.74434 -0.71007,1.42584 -0.85507,2.19874 -0.12012,0.64031 0,1.95443 0,1.95443 l 1.8323,1.34367 h 1.22152 c 0,0 -1.5477,-0.0257 -2.3209,0 -0.61178,0.0204 -1.26173,-0.0996 -1.83228,0.12215 -0.48603,0.18888 -0.83297,0.62947 -1.22151,0.97723 -0.47198,0.42244 -1.10129,0.75847 -1.34369,1.34367 -0.14024,0.33856 0,1.09938 0,1.09938 l 1.83228,0.12214 0.36647,0.85506 -1.46584,0.61078 -1.09937,0.4886 c 0,0 0.0177,0.74575 0.12216,1.09937 0.12893,0.4366 0.61075,1.22153 0.61075,1.22153 l -0.97721,0.12214 c 0,0 -0.39325,0.42213 -0.61076,0.61077 -0.4614,0.40017 -1.06439,0.63907 -1.46583,1.09937 -0.27554,0.31594 -0.5056,0.69356 -0.61076,1.09937 -0.16342,0.63065 -0.26505,1.35931 0,1.95444 0.22286,0.50041 1.22152,1.09937 1.22152,1.09937 0,0 1.22153,0.61075 1.71013,0.61075 0.48861,0 2.68735,0.36645 2.68735,0.36645 l -4.39748,-0.12214 c 0,0 -0.93479,0.35441 -1.22152,0.73291 -0.28033,0.37005 -0.34768,0.8798 -0.36646,1.34367 -0.0268,0.66229 0.21417,1.30934 0.36646,1.95444 0.13621,0.577 0.48861,1.71014 0.48861,1.71014 l 1.46583,0.97721 -2.07659,0.97723 c 0,0 -1.24329,1.25905 -1.46583,2.07658 -0.12878,0.47309 0.12214,1.46583 0.12214,1.46583 0,0 -0.87079,0.67857 -1.22151,1.09937 -0.39793,0.47744 -0.80795,0.98996 -0.97722,1.58799 -0.12198,0.43096 -0.1714,0.92987 0,1.34366 0.22036,0.532 0.72717,0.92625 1.22153,1.22153 0.36495,0.21798 0.9164,0.0704 1.22151,0.36645 0.27725,0.26897 0.36647,1.09937 0.36647,1.09937 0,0 -1.39023,1.05111 -2.07659,1.58798 -0.82143,0.64252 -1.74357,1.18092 -2.44305,1.95443 -0.55299,0.61152 -0.98653,1.3335 -1.34368,2.0766 -0.33466,0.69631 -0.66353,1.4293 -0.73291,2.19874 -0.0517,0.5735 0.2443,1.71012 0.2443,1.71012 0,0 -1.22892,0.9977 -1.46582,1.71013 -0.19315,0.58085 -0.0956,1.26024 0.12216,1.8323 0.1652,0.43386 0.85506,1.09937 0.85506,1.09937 0,0 -1.41193,0.29726 -1.95444,0.73292 -0.7573,0.60815 -1.19724,1.55384 -1.58798,2.44303 -0.59198,1.34714 -0.86084,2.82332 -1.09936,4.27533 -0.17869,1.0878 -0.27661,2.1962 -0.24431,3.29811 0.0181,0.6159 -0.0497,1.29077 0.24431,1.83229 0.1791,0.32991 0.76553,0.36835 0.85506,0.73291 0.10459,0.42588 -0.22186,0.87344 -0.48862,1.22152 -0.24768,0.32318 -0.66335,0.47354 -0.97721,0.73293 -0.46658,0.38561 -1.02438,0.70727 -1.34367,1.22151 -0.31272,0.50366 -0.40638,1.123 -0.48861,1.71012 -0.0678,0.48389 0.0696,0.98222 0,1.46585 -0.10284,0.71414 -0.33778,1.4087 -0.61076,2.07658 -0.26189,0.64074 -0.61406,1.243 -0.97722,1.83228 -0.44453,0.7213 -0.89723,1.44844 -1.46583,2.07659 -0.54239,0.59919 -1.49658,0.85278 -1.83229,1.58798 -0.21987,0.4815 -0.25472,1.12397 0,1.58798 0.25547,0.46538 0.91998,0.53518 1.34368,0.85507 0.3913,0.29543 0.89851,0.52994 1.09937,0.97721 0.23352,0.52002 0.0404,1.14153 0,1.71014 -0.0612,0.86157 -0.0205,1.77376 -0.36645,2.56519 -0.33622,0.76913 -1.15194,1.23716 -1.58798,1.95443 -0.53047,0.8726 -0.78945,1.88423 -1.22154,2.80951 -0.38524,0.82495 -0.95767,1.57165 -1.22151,2.44305 -0.19025,0.62838 -0.2035,1.29915 -0.2443,1.95443 -0.0202,0.32511 0.0655,0.65813 0,0.97722 -0.18705,0.91129 -0.7511,1.70257 -1.09937,2.5652 -0.47279,1.17106 -1.06661,2.31029 -1.34368,3.54242 -0.22404,0.99631 -0.16859,2.03543 -0.24431,3.0538 -0.39642,5.33184 -0.73131,10.66808 -1.09937,16.00195 -0.28379,4.11254 -1.34178,8.24388 -0.85507,12.33737 0.0958,0.80562 0.41019,1.57657 0.73293,2.3209 0.29736,0.68578 0.79657,1.27104 1.09936,1.95444 0.31295,0.70634 0.65884,1.42974 0.73291,2.19874 0.0906,0.94008 -0.12352,1.89684 -0.36645,2.80949 -0.19256,0.72339 -0.60589,1.3707 -0.85506,2.07659 -0.38166,1.08123 -1.01445,2.15211 -0.97723,3.29812 0.0268,0.82403 0.62704,1.52859 0.85508,2.32089 0.21867,0.75975 0.3332,1.54573 0.4886,2.32089 0.1711,0.85346 0.34259,1.7071 0.48861,2.5652 0.13814,0.81179 0.38146,1.61973 0.36645,2.44305 -0.0121,0.66272 -0.0959,1.34935 -0.36645,1.95443 -0.27263,0.60963 -0.89298,1.00657 -1.22152,1.58798 -0.49474,0.87553 -1.05567,1.8048 -1.09937,2.8095 -0.0314,0.72083 0.35306,1.40267 0.61076,2.07659 0.33826,0.8846 0.87355,1.68438 1.22152,2.5652 0.34539,0.87428 0.73021,1.75564 0.85506,2.68735 0.1299,0.9694 0.0638,1.97142 -0.12215,2.93164 -0.25467,1.31492 -1.34367,3.78674 -1.34367,3.78674 0,0 -0.48402,3.24927 -0.48861,4.88608 -0.006,2.1676 0.34582,4.32272 0.61077,6.47407 0.23158,1.88036 0.29124,3.81029 0.85506,5.61901 0.52568,1.68637 1.25108,3.35834 2.32089,4.76393 1.67727,2.20369 3.81754,4.13648 6.22977,5.49686 1.8957,1.06908 4.09597,1.52597 6.22976,1.95443 2.16493,0.43472 4.39011,0.70542 6.59623,0.61076 2.06669,-0.0887 4.14779,-0.43742 6.10761,-1.09936 1.77703,-0.6002 3.37733,-1.63881 5.00824,-2.56521 3.13364,-1.77999 6.18889,-3.70348 9.16142,-5.74115 4.65478,-3.19084 8.8685,-7.00039 13.5589,-10.13864 1.8514,-1.23873 3.5969,-2.8167 5.74116,-3.42026 1.752,-0.49316 2.35965,1.13427 3.919,1.36873 z"
       id="path4726"
       inkscape:connector-curvature="0"
       sodipodi:nodetypes="ssssssssssssssssssssssssssssssssssssssssssssssssssssssssssssssssssssssssssssssssssssssssssssssssssssssssssssssscsssssssssssssssssssssssssssssssssssssssssssssssssssssccsscsccssscccccccssccccssscccccccssssccccccsssssscsssssscccccsscssccsscccccssssssssssssssscsssssssscsssssscsssscccccssssscccccscssscssssccsccccsssccccccsssccsscccccccccccccssssssssssssssssssssssccssscssccsscssssscccsssscccccsccsssscsccssscccscssssscsssscsscssssssssssssssssssssssssssssssssssssssssssssssscsssssssssssss" />
    <path
       style="fill:none;fill-rule:evenodd;stroke:#000000;stroke-width:1;stroke-linecap:butt;stroke-linejoin:miter;stroke-opacity:1;stroke-dasharray:none"
       d="m 385.16201,659.82825 c -0.26209,-1.12145 -0.88473,-2.33887 -0.48861,-3.42027 0.33729,-0.92077 1.45794,-1.31194 2.19874,-1.95443 1.04766,-0.90862 2.13943,-1.76607 3.17597,-2.68735 1.2489,-1.11002 3.09513,-1.84938 3.66456,-3.42026 0.44749,-1.2345 -0.60762,-2.60119 -0.4886,-3.90888 0.14707,-1.6159 0.76453,-3.17859 1.46582,-4.64179 0.50762,-1.0591 1.58122,-1.81805 1.95444,-2.93164 0.44069,-1.31491 0.37325,-2.77241 0.24431,-4.15319 -0.0624,-0.66862 -0.22207,-1.33807 -0.48862,-1.95444 -0.53797,-1.244 -1.66078,-2.17624 -2.19874,-3.42025 -0.53309,-1.23273 -0.72519,-2.58968 -0.97721,-3.90888 -0.23124,-1.21044 -0.75681,-2.46178 -0.48861,-3.66457 0.29497,-1.32286 1.4413,-2.29632 2.19874,-3.42026 0.947,-1.40524 2.41902,-2.53803 2.93165,-4.15318 0.34489,-1.08667 0.2431,-2.30639 0,-3.42026 -0.45843,-2.1005 -1.942,-3.8467 -2.68735,-5.86331 -0.41106,-1.11218 -1.02492,-2.23552 -0.97722,-3.42027 0.056,-1.39043 0.82058,-2.67595 1.46583,-3.90886 0.59705,-1.1408 1.64806,-2.01205 2.19874,-3.17595 0.5071,-1.0718 0.81276,-2.24603 0.97722,-3.42028 0.13554,-0.96777 0.26085,-1.98989 0,-2.93165 -0.38025,-1.37284 -1.87145,-2.27816 -2.19874,-3.66458 -0.24394,-1.03337 -0.27741,-2.25118 0.24431,-3.17594 0.34422,-0.61013 1.38957,-0.59864 1.71012,-1.22153 0.78252,-1.5206 0.47356,-3.48714 0,-5.1304 -0.18645,-0.64697 -0.9756,-1.04419 -1.07493,-1.71013 -0.0871,-0.5842 0.29993,-1.14275 0.46417,-1.71012 0.15399,-0.53198 0.36576,-1.04797 0.48862,-1.58799 0.18267,-0.80294 0.47701,-1.62705 0.36645,-2.44305 -0.0538,-0.39739 -0.31746,-0.73671 -0.48861,-1.09937 -0.15543,-0.32935 -0.37042,-0.63274 -0.48861,-0.97721 -0.13476,-0.39276 -0.1847,-0.81058 -0.2443,-1.22152 -0.0645,-0.44508 -0.16724,-0.8962 -0.12216,-1.34368 0.0426,-0.42296 0.14847,-0.85656 0.36646,-1.22152 0.17717,-0.29661 0.45263,-0.53089 0.73291,-0.73291 0.36931,-0.26618 0.94137,-0.25194 1.22153,-0.61076 0.23102,-0.29589 0.33372,-0.73479 0.2443,-1.09938 -0.21203,-0.86454 -1.41461,-1.2068 -1.71971,-2.04304 -0.17763,-0.48686 -0.083,-1.04319 0,-1.55474 0.0292,-0.17974 0.0701,-0.36784 0.17275,-0.51824 0.25354,-0.37147 0.79742,-0.48283 1.03651,-0.86375 0.25244,-0.40218 0.32103,-0.90778 0.34549,-1.38199 0.021,-0.40664 -0.0945,-0.80967 -0.17275,-1.20925 -0.0913,-0.46598 -0.25421,-0.91601 -0.34549,-1.38199 -0.0783,-0.39959 -0.27996,-0.81645 -0.17276,-1.20926 0.0971,-0.3557 0.48374,-0.5588 0.691,-0.86374 0.26096,-0.38396 0.53524,-0.77191 0.691,-1.20925 0.11752,-0.32996 0.24261,-0.69326 0.17275,-1.03649 -0.14974,-0.73571 -0.76227,-1.297 -1.20924,-1.90025 -0.31606,-0.42656 -0.97164,-0.68232 -1.03651,-1.20923 -0.0472,-0.38339 0.33237,-0.69789 0.51825,-1.03651 0.16157,-0.29433 0.33416,-0.58295 0.51826,-0.86374 0.2716,-0.41425 0.77134,-0.7226 0.86374,-1.20925 0.0886,-0.46651 -0.16847,-0.94138 -0.34551,-1.38199 -0.17309,-0.43078 -0.53522,-0.77191 -0.69098,-1.20925 -0.11752,-0.32996 -0.14387,-0.68743 -0.17276,-1.0365 -0.0285,-0.34432 -0.13222,-0.7173 0,-1.0365 0.12466,-0.30094 0.54195,-0.40135 0.691,-0.69099 0.32055,-0.62289 0.42927,-1.37749 0.3455,-2.07299 -0.10489,-0.87079 -0.77635,-1.58088 -1.0365,-2.41849 -0.0871,-0.28041 -0.19642,-0.57109 -0.17275,-0.86375 0.0397,-0.49039 0.45738,-0.89378 0.51826,-1.38199 0.0645,-0.51743 0.0268,-1.073 -0.17275,-1.55475 -0.1411,-0.34065 -0.56895,-0.51582 -0.691,-0.86375 -0.22872,-0.65204 -0.11068,-1.39092 0,-2.07299 0.0583,-0.35949 0.23032,-0.691 0.34549,-1.0365 0.23033,-0.691 0.51845,-1.36535 0.691,-2.07299 0.2624,-1.0761 0.34083,-2.18891 0.51825,-3.28224 0.28053,-1.72871 1.08154,-3.44475 0.86375,-5.18248 -0.19558,-1.56056 -1.27376,-2.87612 -1.90025,-4.31873 -0.69874,-1.60899 -1.96882,-3.08592 -2.07299,-4.83698 -0.0606,-1.01858 0.48122,-1.99079 0.86375,-2.93675 0.51177,-1.26553 1.50128,-2.32224 1.90024,-3.62773 0.45718,-1.49602 0.55109,-3.10027 0.51825,-4.66424 -0.0477,-2.27166 -1.03649,-6.73722 -1.03649,-6.73722 0,0 -1.53906,-3.84769 -1.90025,-5.87349 -0.25289,-1.41836 -0.50414,-2.91663 -0.17275,-4.31872 0.43869,-1.85607 2.4883,-3.12256 2.76398,-5.00974 0.19591,-1.34111 -0.83705,-2.61815 -0.86374,-3.97323 -0.0392,-1.98769 0.39492,-3.99177 1.0365,-5.87348 0.44053,-1.29206 1.51155,-2.31915 1.90024,-3.62774 0.34588,-1.16444 -3.8e-4,-2.4633 0.3455,-3.62774 0.3887,-1.30859 1.04933,-2.5603 1.90025,-3.62774 2.92771,-3.67268 7.19598,-6.03985 10.71045,-9.15571 3.62883,-3.21725 7.69701,-6.04696 10.71047,-9.84672 1.60216,-2.02022 2.8742,-4.33094 3.80049,-6.73722 0.84815,-2.2033 1.77731,-4.55958 1.55475,-6.90998 -0.13614,-1.43775 -0.77731,-2.88567 -1.7275,-3.97323 -0.74784,-0.85595 -2.89925,-2.95258 -2.91634,-1.76699 -0.009,0.63504 0.17912,1.83541 -0.15788,2.89637 -0.0469,0.14751 -0.56691,1.20042 -1.21045,1.7102 -0.53198,0.4214 -1.66677,0.56881 -2.21665,0.64806 -1.60497,0.23129 -3.22928,-1.80231 -4.36428,-1.46885 -2.57473,0.75646 -6.48458,3.88854 -7.44426,4.44839 l -10.88479,8.21651 c 0,0 -7.79081,7.52095 -12.43795,10.19222 -3.14357,1.80698 -6.7105,2.7881 -10.19221,3.80048 -3.73054,1.08473 -7.55004,1.90847 -11.40146,2.41849 -5.25955,0.69649 -10.589,0.99083 -15.89295,0.86375 -4.51375,-0.10815 -9.03619,-0.55291 -13.47446,-1.38199 -5.57513,-1.04145 -11.16106,-2.34605 -16.41119,-4.49149 -3.17373,-1.29693 -6.30772,-3.61909 -9.15566,-5.52796 -5.99111,-4.01562 -11.20808,-8.30236 -16.80401,-12.8609 -1.07816,-0.87828 -2.3242,-1.77901 -3.51766,-2.26229 -1.06343,-0.43063 -1.9148,-0.61873 -3.17225,-0.59699 -1.68224,0.0291 -3.38707,1.41455 -5.148,1.55354 -1.31672,0.10394 -2.79645,0.46821 -4.00776,0.17393 -0.57609,-0.13995 -1.0655,-0.52888 -1.5547,-0.86375 -0.35688,-0.24429 -1.12134,-1.02358 -1.12134,-1.02358 0,0 0.0984,4.48554 0.98158,6.69265 0.73858,1.84579 2.20896,3.30964 3.42026,4.88609 6.54981,8.52425 14.47067,15.96079 20.76589,24.67475 1.45586,2.01523 3.35179,3.92904 3.90886,6.35192 0.36677,1.5952 -0.76566,3.27289 -0.4886,4.88609 0.25899,1.50794 1.24859,2.7957 1.95444,4.15318 0.60577,1.16502 1.50958,2.18482 1.95444,3.42026 0.49837,1.38405 0.83699,2.87913 0.7558,4.34793 -0.10259,1.85595 -0.92177,3.60754 -1.55474,5.35523 -0.68491,1.89108 -2.07243,3.54668 -2.41849,5.52798 -0.29789,1.70551 0.0769,3.47212 0.3455,5.18248 0.36835,2.34547 0.93393,4.67231 1.72749,6.90998 0.31859,0.89835 1.1499,1.63992 1.20924,2.59124 0.11676,1.87201 -1.29012,3.53127 -1.72749,5.35522 -0.33995,1.4177 -0.78216,2.86371 -0.691,4.31875 0.09,1.43676 0.71819,2.79274 1.20925,4.14597 0.34304,0.94533 1.00334,1.77965 1.20924,2.76399 0.22401,1.07091 0.27444,2.22315 0,3.28225 -0.29742,1.1478 -1.23004,2.03317 -1.72749,3.10948 -0.41281,0.8932 -1.02999,1.78003 -1.03649,2.76399 -0.0101,1.52999 1.22367,2.82497 1.55474,4.31874 0.13762,0.62096 0.1228,1.26618 0.17275,1.90024 0.068,0.86299 -0.0122,1.74556 0.17275,2.59124 0.27642,1.26415 0.99988,2.39142 1.382,3.62774 0.43717,1.41444 0.86254,2.84853 1.03649,4.31873 0.15562,1.31524 0.26216,2.67503 0,3.97324 -0.23498,1.16362 -1.22634,2.10538 -1.38199,3.28224 -0.16764,1.26751 0.14091,2.57888 0.51824,3.80048 0.19,0.61513 0.66728,1.11441 0.86375,1.7275 0.33803,1.0548 0.38579,2.18255 0.51825,3.28224 0.0829,0.68842 0.39202,1.41518 0.17275,2.07299 -0.21927,0.65781 -1.04807,0.94705 -1.382,1.55474 -0.40378,0.73479 -0.5747,1.58818 -0.69099,2.4185 -0.0958,0.68432 -0.0594,1.38455 0,2.07299 0.11559,1.33931 0.1578,2.7392 0.69099,3.97323 0.34259,0.7929 1.09214,1.34357 1.55475,2.07299 0.59323,0.93538 1.30845,1.85684 1.55474,2.93675 0.33314,1.46076 0.12564,3.02323 -0.17275,4.49149 -0.35569,1.75022 -1.55247,3.25791 -1.90024,5.00972 -0.38139,1.92118 -0.53831,3.94923 -0.17274,5.87348 0.3274,1.72333 1.10926,3.37127 2.07298,4.83698 0.82798,1.25928 2.35164,1.97956 3.1095,3.28224 0.69616,1.19662 0.90892,2.62181 1.20923,3.97324 0.44164,1.98739 0.979,4.01362 0.86375,6.04622 -0.0775,1.36654 -0.45979,2.73193 -1.03649,3.97324 -0.50486,1.08668 -1.50107,1.88381 -2.07299,2.93674 -0.74005,1.36246 -1.54948,2.77851 -1.72749,4.31873 -0.22066,1.90922 0.23496,3.88457 0.86375,5.70073 0.80149,2.315 2.71767,4.11722 3.62773,6.39173 0.52918,1.32259 1.0026,2.72186 1.03649,4.14599 0.0279,1.17414 -0.44567,2.30643 -0.691,3.45499 -0.27137,1.27047 -0.93724,2.50343 -0.86375,3.80048 0.069,1.21821 0.63812,2.37674 1.20925,3.45499 0.90564,1.70978 2.19164,3.19879 3.45498,4.66423 1.43567,1.66533 3.70538,2.68559 4.66424,4.66424 0.42984,0.887 0.46848,1.95878 0.3455,2.93674 -0.0944,0.75062 -0.81501,2.11821 -0.81501,2.11821 0,0 9.07925,3.61854 13.77121,4.53264 3.11684,0.60723 6.33937,1.04189 9.50536,1.28676 3.51385,0.27178 7.01137,0.39094 10.53357,0.26798 6.73762,-0.2352 13.45771,-1.50759 20.03894,-2.85036 2.28382,-0.46597 6.7622,-1.70657 6.7622,-1.70657 0,0 -0.71344,-1.88996 -0.94265,-2.8707 z"
       id="C52"
       inkscape:connector-curvature="0"
       inkscape:label="C52"
       sodipodi:nodetypes="ssssssssssssssssssssssssssssssssssssssssssssssssssssssssssssssssssssssssssscssssssssssssssssssccssssssssssssscsssssssssssssssssssssssssssssssssssssssssssssssssssssssscsssscs" />
    <path
       style="fill:none;fill-rule:evenodd;stroke:#000000;stroke-width:1;stroke-linecap:butt;stroke-linejoin:miter;stroke-opacity:1;stroke-dasharray:none"
       d="M 399.38139,546.59043 Z"
       id="path4730"
       inkscape:connector-curvature="0" />
  </g>
</svg>
