<?xml version="1.0" encoding="UTF-8" standalone="no"?>
<!-- Created with Inkscape (http://www.inkscape.org/) -->

<svg
   id="svg4136"
   version="1.1"
   inkscape:version="1.3 (0e150ed, 2023-07-21)"
   width="700"
   height="750"
   viewBox="0 0 700 750"
   sodipodi:docname="level3_C00_05.01.svg"
   xmlns:inkscape="http://www.inkscape.org/namespaces/inkscape"
   xmlns:sodipodi="http://sodipodi.sourceforge.net/DTD/sodipodi-0.dtd"
   xmlns="http://www.w3.org/2000/svg"
   xmlns:svg="http://www.w3.org/2000/svg"
   xmlns:rdf="http://www.w3.org/1999/02/22-rdf-syntax-ns#"
   xmlns:cc="http://creativecommons.org/ns#"
   xmlns:dc="http://purl.org/dc/elements/1.1/">
  <metadata
     id="metadata4142">
    <rdf:RDF>
      <cc:Work
         rdf:about="">
        <dc:format>image/svg+xml</dc:format>
        <dc:type
           rdf:resource="http://purl.org/dc/dcmitype/StillImage" />
      </cc:Work>
    </rdf:RDF>
  </metadata>
  <defs
     id="defs4140" />
  <sodipodi:namedview
     pagecolor="#ffffff"
     bordercolor="#666666"
     borderopacity="1"
     objecttolerance="10"
     gridtolerance="10"
     guidetolerance="10"
     inkscape:pageopacity="0"
     inkscape:pageshadow="2"
     inkscape:window-width="1344"
     inkscape:window-height="759"
     id="namedview4138"
     showgrid="false"
     inkscape:zoom="0.85858169"
     inkscape:cx="394.25486"
     inkscape:cy="361.06058"
     inkscape:window-x="0"
     inkscape:window-y="25"
     inkscape:window-maximized="0"
     inkscape:current-layer="svg4136"
     inkscape:showpageshadow="2"
     inkscape:pagecheckerboard="0"
     inkscape:deskcolor="#d1d1d1" />
  <path
     style="display:inline;fill:none;fill-rule:evenodd;stroke:#ffffff;stroke-width:0.5;stroke-linecap:butt;stroke-linejoin:miter;stroke-miterlimit:4;stroke-dasharray:none;stroke-opacity:1"
     d="m 234.37085,430.59283 c 0,0 9.58392,-7.79086 16.87355,-12.59911 8.7217,-7.36591 43.18989,-23.04097 40.46639,-22.03342 6.05383,-2.66615 11.85934,-5.72961 18.72227,-7.10121 4.9141,-1.25289 9.82821,-1.62805 14.74231,0.32221 4.92337,2.02622 9.89266,4.32805 15.08152,7.9472 l 12.72302,6.7344 14.52573,-8.50265 c 5.03161,-2.50432 9.95254,-5.74651 15.33371,-5.92045 5.15729,0.0249 12.74443,3.20557 17.67196,6.241 l 14.2919,8.51621 15.33203,8.75417 15.45596,8.2595 19.78144,10.60004 c -4.67946,2.20633 -9.79664,4.06247 -15.87484,5.14981 -6.76427,-1.00133 -13.52854,-3.82239 -20.29281,-6.07535 l -19.01019,-4.07691 c -6.84014,-0.9872 -13.68028,-1.55268 -20.52042,-0.13187 l -17.76597,7.94743 c -3.46159,1.37343 -7.23812,2.17999 -11.16615,2.71383 -4.33284,0.84142 -8.76041,0.45136 -13.18418,0.11069 -4.1601,-0.36155 -8.7065,-2.17175 -13.22943,-3.89392 -5.08199,-3.05956 -11.75856,-6.3957 -17.92008,-8.35025 -5.7101,-0.91091 -11.42021,0.0227 -17.13031,1.0652 l -20.02928,4.6158 c -6.29277,1.88007 -12.11334,3.86507 -20.29279,5.32588 -8.10994,-1.44686 -16.25651,-3.07689 -24.58534,-5.61823 z"
     id="C00.3"
     inkscape:connector-curvature="0"
     inkscape:label="C00.3"
     sodipodi:nodetypes="ccccccccccccccccccccccccccc" />
  <path
     style="fill:none;fill-rule:evenodd;stroke:#000000;stroke-width:1.2489;stroke-linecap:butt;stroke-linejoin:miter;stroke-miterlimit:4;stroke-dasharray:none;stroke-opacity:1"
     d="m 234.01404,430.62679 c 16.68932,-18.47653 20.09154,-21.14351 28.74088,-27.49597 6.03641,-4.4334 8.3696,-5.74051 25.84054,-14.62782 17.47094,-8.88731 27.88838,-12.88582 34.21281,-12.4026 6.32443,0.48322 14.93969,7.29559 30.43684,15.84334 16.76583,-10.09788 20.59766,-14.86872 27.562,-15.16999 4.79157,-0.20729 11.90107,4.71741 17.48408,8.10992 5.58301,3.39251 13.03299,7.84454 18.19533,10.96468 5.16231,3.12014 11.51466,6.40725 21.22475,13.01395 9.71009,6.60669 19.2612,11.51752 27.82626,22.95844 0,0 -15.95586,-8.79903 -24.18881,-12.81129 -8.23295,-4.01226 -20.24885,-11.14465 -31.15333,-17.63273 -10.90448,-6.48808 -17.76583,-11.16019 -28.18068,-11.89575 -4.92714,0.28069 -10.09657,3.8259 -14.57311,6.0412 -4.47654,2.2153 -14.40713,8.23199 -14.40713,8.23199 0,0 -11.31251,-5.33724 -16.13351,-8.60621 -4.82099,-3.26898 -10.88871,-5.91836 -15.05086,-6.97969 -4.16214,-1.06133 -15.4459,0.73063 -25.87712,5.72418 -6.18516,3.12489 -21.25151,9.99092 -30.10552,15.0994 -8.854,5.10848 -15.81835,8.84638 -31.85342,21.63495 z"
     id="C00.0"
     inkscape:connector-curvature="0"
     inkscape:label="C00.0"
     sodipodi:nodetypes="cszzczzzzczzzzczzzzc" />
  <path
     style="display:inline;fill:none;fill-rule:evenodd;stroke:#000000;stroke-width:1.28193;stroke-linecap:butt;stroke-linejoin:miter;stroke-miterlimit:4;stroke-dasharray:none;stroke-opacity:1"
     d="m 233.63134,430.18251 c 14.03706,12.30281 21.84196,14.75863 33.46941,22.28778 11.62745,7.52915 21.81671,12.97209 34.589,17.51649 12.77229,4.5444 36.54841,11.08087 54.40004,10.69662 17.85163,-0.38425 40.11682,-5.84959 53.27549,-11.31411 13.15867,-5.46452 23.334,-11.67132 33.63968,-16.72574 10.30567,-5.05443 15.32088,-9.78147 23.04372,-21.09681 -9.11492,8.4376 -38.20907,21.85974 -54.4703,24.66204 -16.26122,2.8023 -34.10651,11.7784 -55.87118,11.28696 -21.76468,-0.49144 -43.85663,-4.83913 -62.16381,-13.30698 -9.07277,-4.15338 -20.90844,-6.81264 -27.84151,-9.45621 -11.27057,-3.98748 -23.64192,-5.04843 -32.07054,-14.55004 z"
     id="C00.1"
     inkscape:connector-curvature="0"
     inkscape:label="C00.1"
     sodipodi:nodetypes="czzzzzczzzzc" />
  <path
     style="fill:none;fill-rule:evenodd;stroke:#000000;stroke-width:1.28193;stroke-linecap:butt;stroke-linejoin:miter;stroke-miterlimit:4;stroke-dasharray:none;stroke-opacity:1"
     d="m 235.00613,430.94757 c 3.44024,4.66503 7.1192,6.88549 13.67825,9.14721 6.55905,2.26173 14.11407,2.4188 49.54696,15.72031 20.01659,7.55129 37.62263,11.87074 56.55939,11.86211 18.93676,-0.009 39.6528,-7.46846 59.08902,-12.02841 19.43622,-4.55995 28.02305,-9.29893 34.67864,-12.33775 6.6556,-3.03882 15.65999,-8.78739 16.52769,-11.19882 -3.41303,0.089 -9.23555,4.32189 -15.25604,4.69941 -6.02048,0.37752 -13.29191,-4.18238 -19.85815,-5.77942 -6.56624,-1.59704 -13.80098,-2.93385 -19.35318,-4.00257 -5.5522,-1.06872 -12.93132,-1.59621 -19.71668,-0.42204 -8.13979,1.65881 -18.87798,11.19556 -37.10931,11.27728 -18.23133,0.0817 -26.43614,-10.30558 -37.275,-12.57642 -5.9879,-1.25452 -10.16196,10e-4 -17.04762,1.0006 -6.88566,0.9995 -17.26965,3.98482 -24.02215,5.61633 -6.7525,1.63151 -10.58546,4.0591 -16.50503,4.11735 -5.91957,0.0583 -9.12802,-1.57961 -13.20234,-2.51212 -4.07432,-0.9325 -8.86461,-2.39276 -10.73445,-2.58305 z"
     id="C00.4"
     inkscape:connector-curvature="0"
     inkscape:label="C00.4"
     sodipodi:nodetypes="czzzzzczzzzzzzzzzc" />
  <path
     style="fill:none;fill-rule:evenodd;stroke:#000000;stroke-width:1.28193;stroke-linecap:butt;stroke-linejoin:miter;stroke-miterlimit:4;stroke-dasharray:none;stroke-opacity:1"
     d="m 75.791971,195.13436 c -1.536854,34.56747 1.915609,65.19162 12.717063,111.14584 10.80146,45.95422 15.969776,57.64595 30.521166,100.31597 14.55139,42.67002 31.88294,82.14532 53.17952,112.46147 14.63475,20.83289 52.92672,60.65626 62.03963,70.80462 14.33112,16.7114 34.89662,31.27677 55.75387,39.32033 21.52939,7.76372 43.77852,3.24849 66.16882,3.36778 14.23326,0.20614 35.2235,3.68118 49.01902,1.4202 21.50779,-3.52496 60.47741,-31.87843 73.50899,-44.89918 13.03158,-13.02075 34.57362,-39.20699 53.18923,-67.33458 18.61561,-28.12759 33.15395,-63.4269 45.79734,-94.56532 12.64339,-31.13842 27.25122,-68.26713 37.01531,-108.76972 9.7641,-40.50259 19.07922,-74.05432 21.46524,-120.36818"
     id="path4160"
     inkscape:connector-curvature="0"
     sodipodi:nodetypes="czzzzzzzzzzzc" />
  <path
     style="fill:none;fill-rule:evenodd;stroke:#000000;stroke-width:1.18242;stroke-linecap:butt;stroke-linejoin:miter;stroke-miterlimit:4;stroke-dasharray:none;stroke-opacity:1"
     d="m 294.52992,185.12073 c 0,0 -0.33095,12.63346 -1.45854,20.96 -1.1276,8.32653 -3.88913,19.10417 -5.83405,28.81998 -1.94491,9.7158 -7.98986,21.22964 -8.04093,29.79025 -0.0511,8.56061 0.53825,17.70498 3.76987,23.96813 3.23163,6.26315 13.50977,13.52977 17.24388,15.72967 3.73411,2.19989 12.17318,3.96872 12.17318,3.96872"
     id="path4162"
     inkscape:connector-curvature="0"
     sodipodi:nodetypes="czzzzzc" />
  <path
     style="fill:none;fill-rule:evenodd;stroke:#000000;stroke-width:1.18242;stroke-linecap:butt;stroke-linejoin:miter;stroke-miterlimit:4;stroke-dasharray:none;stroke-opacity:1"
     d="m 297.54472,287.75948 c 0,0 6.10678,-5.22547 10.20959,-4.585 4.10281,0.64047 8.38932,4.02528 12.91179,8.89978 4.52246,4.87451 7.31358,6.12154 13.99163,11.54428 6.67805,5.42274 10.23695,6.34354 15.45556,6.34233 5.21861,-9.2e-4 6.85849,-0.96288 14.19021,-6.66231 7.33173,-5.69942 8.36817,-6.30581 13.50223,-11.51218 5.13407,-5.20637 8.91349,-9.11442 12.96766,-9.19397 2.28843,-0.0449 5.50646,1.05025 8.20576,7.07988"
     id="path4164"
     inkscape:connector-curvature="0"
     sodipodi:nodetypes="czzzzzzzc" />
  <path
     style="fill:none;fill-rule:evenodd;stroke:#000000;stroke-width:1.18242;stroke-linecap:butt;stroke-linejoin:miter;stroke-miterlimit:4;stroke-dasharray:none;stroke-opacity:1"
     d="m 396.33823,184.08672 c 0,0 1.44278,21.70567 3.40319,30.12998 1.9604,8.42432 5.03063,11.68578 7.29259,20.30499 2.26196,8.61921 5.41767,22.1279 5.34788,31.43999 -0.0698,9.31209 -3.34417,22.64659 -6.70194,28.56509 -3.35777,5.91851 -8.91873,9.36237 -12.64043,11.13499 -3.7217,1.77263 -7.77874,1.31 -7.77874,1.31"
     id="path4166"
     inkscape:connector-curvature="0"
     sodipodi:nodetypes="czzzzzc" />
  <path
     style="fill:none;fill-rule:evenodd;stroke:#000000;stroke-width:1.28193;stroke-linecap:butt;stroke-linejoin:miter;stroke-miterlimit:4;stroke-dasharray:none;stroke-opacity:1"
     d="m 328.00443,316.91049 c 3.5574,19.86423 3.46877,26.48208 0,48.28831"
     id="path4168"
     inkscape:connector-curvature="0"
     sodipodi:nodetypes="cc" />
  <path
     style="fill:none;fill-rule:evenodd;stroke:#000000;stroke-width:1.28193;stroke-linecap:butt;stroke-linejoin:miter;stroke-miterlimit:4;stroke-dasharray:none;stroke-opacity:1"
     d="m 371.04804,317.39248 c -2.30797,19.01231 -2.11156,25.44 4.14215,46.55718"
     id="path4170"
     inkscape:connector-curvature="0"
     sodipodi:nodetypes="cc" />
  <path
     style="fill:none;fill-rule:evenodd;stroke:#000000;stroke-width:1.28193;stroke-linecap:butt;stroke-linejoin:miter;stroke-miterlimit:4;stroke-dasharray:none;stroke-opacity:1"
     d="m 317.46272,516.45495 c 33.33162,-5.41685 34.42366,-5.50802 67.46704,0.71008"
     id="path4172"
     inkscape:connector-curvature="0"
     sodipodi:nodetypes="cc" />
  <path
     id="C00.6"
     style="fill:none;fill-rule:evenodd;stroke:#000000;stroke-width:1.28193;stroke-linecap:butt;stroke-linejoin:miter;stroke-miterlimit:4;stroke-dasharray:1.28193, 1.28193;stroke-dashoffset:0;stroke-opacity:1"
     d="m 444.29964,413.33067 c 3.05122,1.57722 6.59615,4.34273 10.3303,7.14923 4.26,3.56348 6.9952,6.27116 10.75819,11.07622 -2.08111,5.01115 -4.98472,7.12671 -8.10348,11.32849 -3.62203,3.58642 -7.73557,6.46142 -12.33257,8.55956 z m -188.32011,-5.17607 -7.45294,6.88491 c 0,0 -4.14514,4.15582 -7.35262,7.7463 -3.20747,3.59048 -4.3115,4.77589 -6.85919,7.90636 l 6.09592,5.35678 c 3.94322,2.36868 6.28834,4.11539 8.61321,5.66614 2.32487,1.55074 7.55428,4.44706 7.55428,4.44706 z"
     inkscape:label="C00.6"
     inkscape:connector-curvature="0"
     sodipodi:nodetypes="cccccccczcczcc" />
  <path
     style="fill:none;fill-rule:evenodd;stroke:#000000;stroke-width:1.28193;stroke-linecap:butt;stroke-linejoin:miter;stroke-miterlimit:4;stroke-dasharray:none;stroke-opacity:1"
     d="m 475.40686,685.37248 c 0,0 11.96259,-4.78257 17.9665,-7.81776 6.00391,-3.03519 12.12964,-7.44517 17.96652,-10.42369 5.83688,-2.97852 12.03179,-5.93024 16.94951,-7.52821 4.91772,-1.59797 7.59252,-2.78862 12.20368,-2.60591 4.61116,0.18271 10.68532,3.06156 14.5766,4.3432 3.89128,1.28164 6.50814,2.70838 8.81377,3.185 2.30563,0.47662 1.86582,0.74152 4.74587,0.28955 2.88005,-0.45197 8.30724,-3.17898 11.86469,-4.63274 3.55745,-1.45376 5.99334,-3.72617 9.49172,-4.05365 3.49838,-0.32748 5.60126,0.83241 10.5087,2.31634 4.90744,1.48393 12.1962,4.49654 18.6445,7.23868 6.4483,2.74214 14.36243,6.43609 20.00045,9.26549 5.63802,2.8294 13.89863,7.52825 13.89863,7.52825 0,0 -3.81418,1.58451 -6.77979,3.18498 -2.96561,1.60047 -7.39844,4.28937 -10.84773,6.65959 -3.44929,2.37022 -4.80235,4.14265 -9.83073,7.52821 -5.02838,3.38556 -13.4665,9.26416 -20.67842,12.16096 -7.21192,2.8968 -15.44717,4.21914 -22.0344,5.21186 -6.58723,0.99272 -11.05855,1.1749 -17.28854,1.15818 -6.22999,-0.0167 -13.46294,-0.22991 -20.00046,-1.44773 -6.53752,-1.21782 -7.9435,-1.33269 -18.98349,-5.79092 -11.03999,-4.45823 -21.22977,-10.19556 -31.52613,-16.21464 -5.30469,-2.9256 -9.61224,-4.47163 -12.88164,-6.08048 -3.2694,-1.60885 -6.77981,-3.47456 -6.77981,-3.47456 z"
     id="C00.2"
     inkscape:connector-curvature="0"
     sodipodi:nodetypes="czzzzzzzzzzzzczzzzzzzzzzc"
     inkscape:label="C00.2" />
  <path
     style="fill:none;fill-rule:evenodd;stroke:#000000;stroke-width:1.28193;stroke-linecap:butt;stroke-linejoin:miter;stroke-miterlimit:4;stroke-dasharray:none;stroke-opacity:1"
     d="m 475.33547,685.33613 c 0,0 19.92405,-3.63064 26.60702,-5.73271 6.68297,-2.10207 8.74863,-3.65237 13.66305,-5.73275 4.91442,-2.08038 11.83175,-5.54805 15.82038,-6.75644 3.98863,-1.20839 4.18075,-1.80414 7.67048,-1.43317 3.48973,0.37097 7.85716,3.73405 12.22483,5.11853 4.36767,1.38448 10.45277,2.85901 13.90275,3.07108 3.44998,0.21207 3.37025,0.27245 6.47198,-0.61421 3.10173,-0.88666 8.10869,-4.06309 11.50572,-5.73273 3.39703,-1.66964 3.85823,-3.99308 8.869,-4.29957 5.01077,-0.30649 12.77975,4.13023 19.17622,6.5517 6.39647,2.42147 12.21641,5.82163 19.17623,7.98489 6.95982,2.16326 22.46182,4.74416 22.46182,4.74416 0,0 -15.76201,3.13734 -21.74271,5.49285 -5.9807,2.35551 -9.26831,5.08473 -14.14248,7.78013 -4.87417,2.6954 -9.41604,5.95318 -15.10126,8.39439 -5.68522,2.44121 -11.62836,4.60071 -18.93652,5.93744 -7.30816,1.33673 -16.72572,1.91132 -24.68937,1.43319 -7.96365,-0.47813 -15.33187,-1.8684 -22.77176,-4.0948 -7.43989,-2.2264 -15.66972,-6.56275 -21.57323,-9.21331 -5.90351,-2.65056 -7.49614,-4.24207 -13.90275,-6.55171 -6.40661,-2.30964 -24.6894,-6.34696 -24.6894,-6.34696 z"
     id="C00.5"
     inkscape:connector-curvature="0"
     sodipodi:nodetypes="czzzzzzzzzzzczzzzzzzzc"
     inkscape:label="C00.5" />
  <path
     style="fill:none;fill-rule:evenodd;stroke:#000000;stroke-width:1.28193;stroke-linecap:butt;stroke-linejoin:miter;stroke-miterlimit:4;stroke-dasharray:none;stroke-opacity:1"
     d="m 475.39656,685.33006 c 0,0 14.98051,0.26997 23.90915,0.33195 8.92864,0.062 22.57053,-0.19909 29.66168,0 7.09115,0.19909 8.79557,0.077 12.88165,0.72389 4.08608,0.64693 7.58234,2.30869 11.52567,3.04024 3.94333,0.73155 7.99419,1.39552 12.07177,1.32052 4.07758,-0.075 8.20519,-0.86603 12.19518,-1.78999 3.98999,-0.92396 6.9079,-2.8181 11.66609,-3.72898 4.75819,-0.91088 9.40535,-0.88453 16.78004,-1.15818 7.37469,-0.27365 19.64449,0.167 27.45824,-0.14465 7.81375,-0.31165 19.40723,-1.44773 19.40723,-1.44773"
     id="path4150"
     inkscape:connector-curvature="0"
     sodipodi:nodetypes="czzzzzzzzzc" />
  <path
     id="C00.9"
     style="font-size:33.2768px;font-family:'.Arial Hebrew Desk Interface';-inkscape-font-specification:'.Arial Hebrew Desk Interface, Normal';display:inline;fill:none;stroke:#000000;stroke-width:1;stroke-dasharray:none"
     d="m 618.93383,143.71544 q -2.7719,3.62043 -7.41057,3.62043 -4.18613,0 -6.84489,-2.65875 -2.60219,-2.71532 -2.60219,-6.78832 0,-4.35583 2.99817,-7.354 3.05474,-2.99817 7.24087,-2.99817 5.31751,0 8.42882,3.95985 3.16787,3.95985 3.16787,10.63501 0,7.24086 -3.28101,11.70984 -3.22446,4.46898 -8.99452,4.46898 -3.05473,0 -5.54378,-1.69709 -2.43247,-1.75366 -2.99817,-4.01642 l 4.80839,-0.7354 q 1.13138,2.14964 4.12955,2.14964 3.22446,0 5.03468,-2.7719 1.86678,-2.82846 1.86678,-7.5237 z m -0.90511,-5.93977 q 0,-2.88504 -1.47081,-4.52555 -1.41423,-1.64049 -3.95985,-1.64049 -2.20619,0 -3.79014,1.75363 -1.58393,1.69709 -1.58393,4.41241 0,2.37592 1.4708,3.95985 1.47081,1.52736 3.8467,1.52736 2.26278,0 3.84672,-1.52736 1.64051,-1.58393 1.64051,-3.95985 z m 15.97264,4.47502 A 21.750674,21.750674 0 0 1 612.25068,164.00135 21.750674,21.750674 0 0 1 590.5,142.25069 21.750674,21.750674 0 0 1 612.25068,120.5 a 21.750674,21.750674 0 0 1 21.75068,21.75069 z"
     inkscape:label="C00.9" />
  <path
     id="C00.8"
     style="font-size:33.2768px;font-family:'.Arial Hebrew Desk Interface';-inkscape-font-specification:'.Arial Hebrew Desk Interface, Normal';display:inline;fill:none;stroke:#000000;stroke-width:1;stroke-dasharray:none"
     d="m 606.21,80.958431 q -3.28102,-2.26276 -3.28102,-6.109462 0,-3.846722 2.77191,-5.883209 2.82845,-2.036487 6.50545,-2.036487 3.62044,0 6.44891,2.036487 2.82846,2.036487 2.82846,5.883209 0,3.846702 -3.28102,6.109462 v 0.05667 q 2.2062,1.018249 3.5073,3.054736 1.35765,1.97992 1.35765,4.355838 0,3.846712 -2.99816,6.618607 -2.99817,2.771895 -7.86314,2.771895 -5.03466,0 -7.97626,-2.771895 -2.88504,-2.828463 -2.88504,-6.618607 0,-2.375918 1.30111,-4.355838 1.35766,-2.036487 3.56385,-3.054736 z m 5.99634,-1.583931 q 1.69709,0 3.05474,-1.018239 1.41423,-1.018249 1.41423,-2.941609 0,-2.093066 -1.35766,-3.111305 -1.30108,-1.074827 -3.11131,-1.074827 -1.97992,0 -3.22444,1.131386 -1.24453,1.131385 -1.24453,3.054746 0,1.866782 1.35767,2.941609 1.41423,1.018239 3.1113,1.018239 z m 0,14.142317 q 2.14963,0 3.79014,-1.244522 1.64051,-1.244521 1.64051,-3.846711 0,-2.093068 -1.58393,-3.507305 -1.58394,-1.414226 -3.84672,-1.414226 -2.20619,0 -3.8467,1.414226 -1.58394,1.414237 -1.58394,3.507305 0,2.60219 1.64051,3.846711 1.64051,1.244522 3.79013,1.244522 z m 21.79499,-11.26614 A 21.750674,21.750674 0 0 1 612.25068,104.00136 21.750674,21.750674 0 0 1 590.5,82.250677 21.750674,21.750674 0 0 1 612.25068,60.5 21.750674,21.750674 0 0 1 634.00133,82.250677 Z"
     inkscape:label="C00.8" />
</svg>
