<?xml version="1.0" encoding="UTF-8" standalone="no"?>
<!--
Diese Daten wurden aus der OSM-Datenbank extrahiert und stehen unter der 
Open Database Licence (http://www.openstreetmap.org/copyright) frei zur Verfügung. 
Quelle der Rohdaten: © OpenStreetMap-Mitwirkende (http://www.openstreetmap.org) 
Generiert von: http://www.suche-postleitzahl.org 
-->

<svg
   width="780"
   height="480"
   version="1.1"
   id="svg1585"
   sodipodi:docname="level4_Augsburg.svg"
   inkscape:version="1.2.2 (732a01da63, 2022-12-09)"
   xmlns:inkscape="http://www.inkscape.org/namespaces/inkscape"
   xmlns:sodipodi="http://sodipodi.sourceforge.net/DTD/sodipodi-0.dtd"
   xmlns="http://www.w3.org/2000/svg"
   xmlns:svg="http://www.w3.org/2000/svg"
   xmlns:rdf="http://www.w3.org/1999/02/22-rdf-syntax-ns#"
   xmlns:cc="http://creativecommons.org/ns#"
   xmlns:dc="http://purl.org/dc/elements/1.1/">
  <defs
     id="defs1589" />
  <sodipodi:namedview
     id="namedview1587"
     pagecolor="#ffffff"
     bordercolor="#000000"
     borderopacity="0.25"
     inkscape:showpageshadow="2"
     inkscape:pageopacity="0.0"
     inkscape:pagecheckerboard="0"
     inkscape:deskcolor="#d1d1d1"
     showgrid="false"
     inkscape:zoom="0.97698587"
     inkscape:cx="398.16338"
     inkscape:cy="324.46733"
     inkscape:window-width="1920"
     inkscape:window-height="1009"
     inkscape:window-x="-8"
     inkscape:window-y="-8"
     inkscape:window-maximized="1"
     inkscape:current-layer="svg1585" />
  <metadata
     id="metadata4">
    <rdf:RDF>
      <cc:Work
         rdf:about="">
        <dc:format>image/svg+xml</dc:format>
        <dc:type
           rdf:resource="http://purl.org/dc/dcmitype/StillImage" />
      </cc:Work>
    </rdf:RDF>
  </metadata>
  <path
     id="86199"
     stroke="#000000"
     stroke-width="0.195624"
     fill="#ececec"
     d="m 195.34019,373.744 0.17084,-0.6245 -0.0118,-0.45025 0.7756,-0.48159 -0.3538,-0.83548 -0.15341,-0.29143 0.49274,-0.20045 0.29468,-0.42945 0.21985,-0.70731 0.0887,-0.79737 -0.33249,-0.12654 0.45525,-0.79434 0.32735,-0.45635 0.0954,-0.30009 0.0309,-0.53518 -0.0688,-2.08577 0.0971,-0.44256 0.1685,-0.4304 0.14657,-1.27506 0.71663,0.0662 0.20459,-0.44819 0.0148,-0.40561 1.10684,0.36374 0.43673,0.0772 1.0082,-0.0601 0.53008,0.10573 0.072,-0.95274 -0.18779,-0.0517 -0.83223,-0.42386 -0.66047,-0.96492 -0.0254,-2.86158 0.57925,-1.03419 0.96044,-1.49925 0.81138,-0.91819 0.27118,-0.78625 -0.14142,-1.7103 -0.0336,-1.48481 0.89929,-1.72837 0.65564,-0.71657 0.95779,-0.96409 0.85775,-0.31443 0.97693,-0.0898 -0.21627,-0.92855 -1.24734,-1.29024 -0.0902,-0.60968 0.95966,-0.15417 1.77042,0.33478 1.41179,0.64103 1.56333,0.9978 0.86459,0.35841 0.51313,0.37409 2.06898,1.27711 0.962,0.71331 0.2007,0.11065 0.99513,0.37057 0.60352,-0.0159 0.43471,-0.0515 0.46194,0.0524 0.23867,-0.12188 0.22513,-0.0409 0.57909,0.15674 0.21549,0.0105 0.15201,0.0976 0.23073,0.0718 0.1811,7.8e-4 0.3328,0.10083 0.13552,-0.19932 0.20195,-0.0103 0.37387,0.23932 0.2102,0.003 0.25812,0.0978 0.11995,-0.46952 0.0593,-0.0809 0.37326,-0.0793 0.25952,-2.3e-4 0.49756,0.12914 1.01349,0.5748 0.46847,0.13802 0.21253,0.11487 0.26745,-2.40215 0.0653,-0.3556 0.14594,-0.51117 0.22,-0.44708 0.23011,-0.18786 1.0527,-0.44614 0.49679,-0.17757 0.62032,-0.36544 0.22483,-0.26389 0.2424,-0.68899 0.17208,-0.39328 0.15745,-0.24495 0.4151,-0.48102 0.30324,-0.46113 0.23463,-0.5664 -0.0901,-0.773 0.58173,-0.75242 0.68443,-0.20565 4.24984,-2.16019 2.61292,-0.91621 0.24069,-0.21618 0.10082,-0.27398 -0.0376,-0.39448 -0.33482,-0.95319 -0.19231,-0.72063 -0.16383,-1.43496 0.0798,-0.41437 0.70636,-1.48506 0.47827,-0.75715 0.14454,-0.13782 0.64833,-0.48387 1.23302,-0.82105 1.53798,-1.1278 1.05736,-0.85195 0.53133,-0.36478 -2.98835,-0.85126 -0.7504,-0.11652 0.3328,-0.47313 0.18718,-0.40293 -0.30371,-0.47501 -0.0386,-0.2829 0.0899,-0.35964 0.18935,-0.34982 0.50161,-0.68116 0.082,-0.33602 -0.11124,-0.39241 -0.34012,-0.3276 -0.34633,-0.25552 -0.96386,-0.16497 0.40842,-0.38212 0.14656,-0.0482 0.20382,-0.16777 0.2438,-0.28268 0.28597,-0.19492 0.36563,-0.64842 0.89726,-1.00598 1.73308,-1.78803 -1.95806,-1.45507 -0.78337,-0.42965 -0.81029,-0.5525 -2.11894,-1.67507 -0.50332,-0.55649 -0.2953,-0.27825 -0.0456,-0.20663 -0.55669,-0.63045 -0.1296,-0.0833 -0.65502,-0.87195 -0.11109,-0.2827 -0.0804,0.0262 -0.29297,-0.0496 -0.36174,-0.34214 -0.096,0.0414 -0.32035,0.025 -0.29297,-0.19354 -0.47874,-0.50244 -0.26605,-0.15586 -0.39488,-0.0129 -0.33078,0.0405 -0.43222,-0.0187 -1.75143,-0.38403 -0.76844,-0.0316 -1.12225,0.14884 -0.28036,0.12028 -0.54782,-0.0119 -0.88093,0.10671 -0.46598,0.15844 -1.26508,0.51719 -0.70542,0.1039 0.0778,-0.62975 0.0294,-0.65363 -0.76642,0.227 -0.92527,0.12942 -0.63713,-0.17482 -0.23929,-0.13573 -0.98439,-0.34191 -0.5192,0.0105 -0.70558,0.19775 -0.66544,-0.0171 -0.50348,0.0389 -0.68987,-0.16405 -1.97906,-0.0887 -0.78742,-0.10929 -0.27477,-0.0817 -0.40265,-0.25533 -0.40126,-0.3948 -0.29873,-0.40861 -0.15309,-0.38919 -0.1503,-0.69437 -0.017,-0.48233 0.4137,-2.81074 0.13599,-0.56965 0.25205,-0.2668 0.39254,-0.50084 0.71181,-0.42174 0.41339,-0.32462 2.65477,0.56872 1.09439,-0.036 0.49648,0.74986 0.23214,0.26072 0.51094,0.32063 0.78323,0.39482 1.39825,0.54951 0.61612,0.20478 2.90355,-0.37562 0.3619,0.0768 0.60834,-0.13972 -0.0493,-0.54226 -0.13567,-0.34497 -0.3521,-0.53033 -0.43284,-0.3651 -0.42692,-0.44538 1.44601,-0.15189 0.42133,-0.24598 0.36719,-0.0592 -0.099,-0.65953 -0.008,-0.68457 -3.34791,0.0943 -1.60441,-0.0159 -0.064,-1.33429 -0.24645,-0.86269 0.79785,-0.69208 1.13578,-0.29842 1.41724,0.26026 0.49071,-0.0498 0.61706,-0.86668 0.8341,-0.28555 0.873,-0.16313 1.93036,-0.94276 0.99621,-0.23312 0.44498,-0.0634 0.4442,0.0976 0.59263,0.0358 0.78727,-0.0648 0.92386,-0.0981 0.97646,-0.30942 0.74542,0.62586 0.88684,1.02936 0.35178,0.77284 0.71399,0.27313 0.68505,0.14956 0.77762,-0.12194 1.66959,-0.59098 0.45136,0.0129 1.02531,-0.0576 1.40837,-0.40327 0.4817,-0.18162 -0.0286,-0.16337 0.0716,-0.39438 0.72332,-2.991 0.45353,-0.29772 0.65658,-0.2584 0.9458,-0.58515 1.02703,-1.09564 -0.21175,-0.83514 -0.14205,-0.11961 -0.0853,-0.26988 -0.42864,-0.79956 -0.26528,-0.25748 -0.27492,-0.39909 -0.14936,-0.52337 0.006,-0.13342 -0.1391,-0.34877 -0.24458,-1.38148 0.0196,-0.96462 0.12681,-1.17436 0.32034,-0.95083 0.1808,-0.38202 0.0238,-0.26263 0.20366,-0.44405 -0.19526,-0.47987 -0.15185,-0.64279 0.54828,-0.31742 0.35272,-0.3963 0.15869,-0.25773 0.50955,-0.54285 0.52448,-0.83054 -0.20288,-0.74533 0.0389,-0.1648 0.83861,-0.47661 0.35333,-0.54473 1.7726,-1.35985 0.21253,-0.24181 0.19122,-0.36613 0.17908,-0.085 0.2021,-0.48879 0.30418,-0.4394 0.24815,-0.16457 0.25875,-0.0997 0.23804,-0.19149 0.25003,-0.41271 -0.0313,-0.3851 0.0747,-0.53632 0.12182,-0.22287 0.25221,-0.30409 0.78291,-0.82803 0.1366,-0.30105 0.0627,-0.39634 -0.001,-0.23926 0.31896,-1.3007 0.29654,-0.6555 0.58096,-1.51493 0.51764,-0.69064 0.23353,-0.38277 0.0353,-0.30552 0.28877,-0.39425 1.00167,-0.10793 1.78939,2.98518 1.38955,1.67528 0.61939,-0.21936 1.58807,-0.39096 1.11928,-0.21468 0.56991,-0.0667 0.10176,0.0262 0.20117,-0.0365 0.68785,0.0459 1.03029,-0.1091 1.05021,0.0461 0.34914,-0.0202 1.06561,0.0546 1.6489,-0.56514 3.32815,-0.0775 2.35464,-0.23106 0.64428,-0.0981 1.98684,-0.4427 0.35707,-0.52137 0.9942,-0.5923 0.51375,-0.19947 1.00571,-0.24769 0.67571,-0.34883 -0.0227,0.11612 -0.19433,0.42679 -0.18172,0.76016 0.0286,0.19361 0.36391,1.22113 0.0566,1.27987 -0.0487,0.47992 -0.17099,0.41624 -0.31911,0.41483 -0.41525,0.37995 -0.55918,0.27695 -0.27648,0.31651 0.065,0.39329 -0.14594,0.33664 0.0341,0.49418 -0.0426,0.27507 -0.33311,0.70253 -0.39612,0.5005 -0.18064,0.36239 -0.0859,0.2973 -0.0106,0.2362 0.0624,0.50214 0.48715,2.01015 0.50472,1.51058 0.34556,1.60349 0.3009,0.84223 0.39316,1.43539 0.0457,0.43562 -0.14921,1.52736 0.72893,0.002 0.43549,0.0772 0.4053,0.11938 0.26651,0.18375 0.49633,0.18094 0.48418,0.13483 0.50752,0.0243 0.78976,-0.0513 0.58967,-0.0906 0.60072,0.3249 0.47641,0.53275 0.37994,-0.32325 0.27741,0.0363 3.52885,0.01 2.23874,-0.98358 0.41604,-0.66642 1.63164,-1.21369 1.11555,-0.48315 0.69951,-0.38646 1.17375,-0.31087 1.99648,0.81203 -0.17503,0.31718 -0.12681,0.42017 0.22856,0.0597 1.17328,-0.30922 0.57349,1.72843 1.85832,-0.19521 0.8702,-0.0253 1.59211,-2.80895 -2.55566,-0.31437 0.18888,-1.37688 0.0381,-1.96774 0.24271,-1.09905 0.98487,-1.30554 0.90208,-1.00473 0.79474,-0.68286 1.91962,-0.22895 0.82741,-0.0637 2.0469,0.13156 1.62463,0.23901 0.76968,0.0501 2.95863,0.38977 2.43088,0.46327 3.32519,0.55621 0.14688,4.24921 0.1545,-10e-4 0.18219,0.0791 3.22686,0.0328 0.7756,-0.0749 2.30485,-0.31672 0.47345,0.0101 1.08879,0.41854 0.72348,-0.33334 0.56883,-0.20787 1.01037,-0.0478 1.26025,0.0728 0.117,-0.0386 0.082,-0.092 0.24971,-0.68143 -0.005,-0.98716 0.4053,-0.24462 0.64615,-0.28817 0.71461,-0.2589 0.76299,-0.39936 0.3034,-0.20343 0.379,-0.86825 0.15653,-0.87575 0.16227,-0.48529 0.0482,-1.42051 -0.0447,-0.93804 0.004,-1.2473 0.0753,-0.3453 -0.11902,-0.0213 -0.38648,-0.17441 -0.58641,0.0166 -0.58516,0.14702 -0.01,0.53423 -0.24552,-0.0388 0.74526,-5.77315 -4.65156,-0.66653 -1.64221,-3.38374 4.22977,-2.55478 1.5666,1.10251 4.29791,2.69921 2.40319,-1.15048 3.01666,3.97324 3.31384,1.49716 2.43321,-4.5695 2.35822,-2.51823 5.06979,-2.33965 2.45188,-2.66561 1.30194,3.77609 0.6656,0.32544 5.06683,-0.82859 0.3272,1.85968 2.93747,-0.63261 0.11902,-0.7073 2.38809,0.16436 0.75724,0.28048 -0.606,1.2191 2.15969,0.97232 2.53559,3.86228 2.99659,-1.77017 0.0713,0.14305 0.71056,3.9e-4 0.0103,-0.18261 1.49176,0.0644 0.007,0.12853 0.57847,0.0578 0.1727,4.4655 2.66877,-0.13344 0.0373,0.96359 3.88016,-0.0679 0.44514,-0.76718 -3.28069,9.19457 -0.65627,3.56376 -2.0777,4.71462 -0.74464,1.83654 -13.84422,33.00807 0.71958,0.42613 1.22836,0.57214 2.88068,0.8457 3.06365,0.51901 5.52191,0.78789 1.98451,0.23026 1.86346,0.30631 2.37767,0.33836 6.08311,0.59646 -3.66904,8.54626 -19.56762,-1.82484 -7.53038,0.56531 -6.55096,15.682 -4.61719,11.4344 6.14193,-1.35166 -1.36869,3.99225 -3.71634,4.22416 -2.14056,0.15836 -1.56224,-0.81427 -14.76001,34.91666 -1.85708,-1.00954 -0.98299,-0.15738 -1.66571,-0.449 -0.31911,-0.15621 -0.23929,0.0168 -0.1016,0.18896 -4.38846,-1.59139 -0.56229,0.51355 -1.60628,-0.73641 0.34338,-0.89475 -0.95965,-0.0772 -3.85792,-0.58862 -0.32564,-2.47567 -0.0924,-1.06339 -4.18154,-0.41512 -0.81247,1.04749 -0.44296,0.48223 -0.63728,0.21001 -0.33373,1.37348 -0.0199,0.38844 -0.21937,0.0905 -4.07372,-0.018 -0.87735,1.53155 -0.7087,0.9539 -1.4331,2.64068 -0.049,0.19713 0.11824,0.50138 0.0846,0.90803 -1.0891,2.42965 -0.58952,0.61946 -0.46085,1.2349 -1.54699,-0.46977 -0.2032,-0.42048 -1.79671,-3.13395 -1.87061,-2.89553 -0.65736,-0.79487 -1.93035,-2.79296 -0.98767,-0.27526 -0.5906,-0.7839 -0.29437,-0.80706 -0.60632,-0.36904 -1.37678,-1.60853 -0.72597,-0.30145 -1.12287,0.0337 -0.30916,0.0585 -1.38969,0.51778 -23.45744,-7.44515 -0.65005,1.46736 -0.58873,1.85254 -0.37917,1.39576 -0.17005,0.36063 -0.5248,0.73412 -1.12022,1.87633 -1.07603,1.93406 -0.60274,1.2266 -0.57101,0.95134 -0.29483,0.40902 -1.54295,1.84699 -0.63884,1.184 -0.22435,0.35358 -0.35458,0.66296 -0.21332,0.31266 -0.29748,0.6632 -0.15947,0.2764 -0.48994,0.57597 -0.25361,0.43027 -0.32082,0.72917 -0.33684,0.57967 -0.18515,0.008 -1.87077,-0.44873 -0.9609,-0.56378 -1.32451,-0.36998 -0.28083,-0.17141 -1.20937,-1.14538 -1.05986,-0.44923 -0.78524,-0.21677 -5.27811,-1.20059 -0.2144,-0.08 0.28519,-1.18517 0.0101,-0.23782 0.94301,-1.52779 -1.2976,-0.17328 0.33778,-0.70392 0.63355,-0.80822 0.17332,-0.27432 0.2074,-0.70159 -0.0983,-0.21258 -1.07775,-0.0295 -1.14122,0.33209 -0.31024,-0.0847 -1.6083,0.28999 -1.00447,0.0774 -1.00991,0.16534 -1.59086,0.05 -4.08399,0.78952 -1.36527,0.19831 -1.19226,0.3115 -0.0549,-0.0222 -0.15263,-0.37394 -0.26527,0.13517 -0.33405,-0.41487 -0.41494,-0.79513 -0.20382,-0.59331 -0.213,-0.39429 -0.25283,-0.37582 -0.48714,-0.53462 -0.45898,-0.89617 -0.24225,-0.28789 -0.26885,-0.14383 -1.03045,-1.71918 -0.4414,-0.66794 -0.15341,-0.3922 0.0739,-0.41653 -0.18141,-0.28814 -0.95265,0.34543 -0.69594,0.17822 -0.47874,-0.0683 -0.58998,0.0695 -0.56696,0.23738 -0.31226,0.20207 -0.39784,-0.14805 -0.61907,0.17167 -0.35428,0.2921 -0.40094,-0.006 -0.5332,-0.098 -0.674,0.23551 -0.46785,0.0344 -2.87476,-0.72407 -1.44245,-0.31362 -0.73078,-0.39081 -1.60457,0.6918 -1.58666,0.17705 -1.27893,-0.11484 -0.94487,-0.29865 -0.89649,0.65952 -0.98844,0.36577 -0.71819,-0.29725 -0.94689,0.087 -0.94908,0.47266 -0.74775,0.22124 -0.64164,0.34215 -0.78399,-0.40459 -1.64144,0.30894 -1.1613,0.33818 -0.95312,0.19925 -0.13801,0.17003 -0.23851,0.1305 -0.17566,0.0327 -0.19495,-0.35782 -0.73577,-1.75146 -0.29545,-0.51265 -0.0282,-0.93691 -0.16678,-0.26849 -0.47843,-0.21072 -0.51701,-1.36585 -0.0213,-1.02884 0.83067,-1.3191 -0.0516,-0.1981 -0.66544,0.15156 -0.89213,-2.35828 -0.30635,-0.99777 -0.29281,-0.55924 z" />
  <path
     id="86179"
     stroke="#000000"
     stroke-width="0.195624"
     fill="#ececec"
     d="m 341.73637,395.12996 -0.44202,0.28507 14.76001,-34.91666 1.56224,0.81427 2.14056,-0.15836 3.71633,-4.22417 1.3687,-3.99224 -6.14193,1.35166 4.61718,-11.4344 6.55096,-15.682 7.53038,-0.56531 19.56763,1.82484 3.66903,-8.54626 1.25963,0.0786 0.48901,-0.0311 0.365,-0.0704 0.24957,-0.0859 0.37947,-0.21107 0.50534,-0.47923 0.25532,-0.39078 1.39919,-2.35009 1.59258,-2.55092 0.55264,-0.24127 0.55358,-0.10998 1.90811,-0.0253 3.25643,0.0283 1.5946,-0.0665 3.78308,0.4596 1.97828,0.0438 -0.76346,0.58245 0.023,1.0507 -0.14921,0.0917 0.3983,1.54468 0.19184,1.06588 0.72426,0.0169 0.28923,4.47146 3.27836,-0.22674 0.37465,-0.0873 0.10456,0.0924 -0.42444,-2.30814 -0.30402,-3.64738 -0.3524,-3.23165 28.72248,-5.49729 17.87905,-3.82399 0.48497,1.27779 1.28296,2.46054 1.12536,1.31122 2.13339,1.83962 2.79262,1.8899 2.84677,2.86896 2.17883,-2.02535 1.75999,1.64275 0.80423,0.70389 0.34991,0.45327 0.26481,0.71161 0.0349,0.45373 -0.0174,0.39944 0.11296,0.29695 0.35287,0.44858 0.0496,0.2429 0.005,0.38329 0.34524,1.31343 0.25485,1.35998 0.1349,1.75238 0.0566,1.82183 -0.0874,1.78415 -0.16026,1.59903 -0.18265,0.95511 -0.21315,0.74522 -0.54487,1.44106 -0.74821,1.0255 -0.62919,0.99766 -0.8075,1.45716 -0.20537,0.44103 -0.22654,0.67569 -0.19821,0.22741 -0.26932,0.1481 -0.14781,0.41599 0.0683,0.37739 -0.15356,0.94872 -0.20693,0.38463 -0.31615,2.61705 -0.17566,0.96296 -0.0711,0.91031 -0.0258,0.96762 0.0532,1.11102 0.138,0.86233 0.24116,0.85367 0.36329,1.05929 0.89727,2.17986 0.29841,0.6452 0.32814,0.56589 0.29157,0.3619 0.58298,0.62928 0.62966,0.45056 1.35189,0.87467 0.60492,0.43675 0.70075,0.55816 0.79941,0.73804 0.58158,0.69079 1.01613,1.70601 0.31289,0.60469 0.36111,0.78761 0.95873,2.48842 0.72612,5.09621 -0.0621,1.22122 -0.26029,1.58164 -0.28069,1.08599 -0.29079,0.9812 -0.37247,0.92131 -0.35816,0.74916 -0.31646,0.62099 -1.025,1.3907 -0.7658,1.14161 -0.87969,1.10768 -0.6018,0.93203 -0.29577,0.36439 -2.37487,2.11801 -0.62748,0.44624 -0.73841,0.46471 -2.7766,1.52697 -0.66918,0.47359 -0.61985,0.56784 -0.76673,0.82135 -0.38601,0.53018 -0.37885,0.58935 -0.68365,1.43219 -0.52697,1.43662 -0.24349,0.93006 -0.24925,1.26892 -0.21954,2.68301 -0.0188,0.56475 0.17596,1.02543 2.02185,6.24031 1.06919,3.19931 0.24645,0.92155 0.26107,1.32413 0.10004,0.75973 0.093,1.18478 0.004,0.87518 -0.0349,0.75381 -0.23323,1.85792 -0.11497,0.65749 -0.21051,0.68226 -0.16819,0.37294 -0.73826,2.00819 -0.73872,1.86578 -0.73328,1.42876 -0.90365,1.49144 -0.70511,1.09158 -1.13018,1.44394 -0.96262,1.13364 -0.56213,0.77244 -0.66637,1.08293 -0.47688,0.9377 -0.81076,1.90745 -0.4596,1.20258 -0.20988,0.63073 -0.21814,1.17824 -0.17301,0.51289 -0.11,0.65155 -0.0392,0.73218 0.11389,2.29584 0.3454,2.49146 0.84468,4.28972 -0.63152,0.33964 0.25983,2.63556 -0.0745,3.47182 0.16695,0.17531 0.0202,0.13815 -0.68443,3.96045 0.0453,0.23232 -1.0471,1.1149 -4.08725,-0.499 -1.49659,-0.32094 -3.32892,-0.25967 -10.11327,-0.0664 -1.02282,0.0516 -4.03483,-0.20498 -1.63739,0.0352 -1.45737,-0.0783 -0.84966,0.11146 0.0408,0.53034 -0.0552,0.36253 -0.17161,0.59415 -0.0934,0.44759 -0.0761,0.6175 -0.10315,0.28749 -0.56073,0.87017 -0.19355,0.59505 -0.10269,0.67361 -0.57007,1.28643 -0.0871,0.53381 0.0697,0.38026 0.009,0.23091 0.12369,0.49759 0.1839,0.32462 0.2463,0.23815 0.13116,0.3139 3.9e-4,0.38448 -0.13536,0.37321 -0.55513,0.69787 -0.22187,0.59857 -0.0856,0.36503 -0.15045,1.07812 -0.18499,0.67682 -0.21954,0.52936 -0.45229,0.67658 -0.20864,0.15353 -0.22933,0.0196 -0.31366,0.0918 -0.50721,0.28956 -0.16353,0.15752 -0.29794,0.44242 -0.0622,0.0456 -3.09477,-0.10493 -0.16227,2.40359 -0.45463,3.11355 -0.005,0.57114 -3.09228,-0.0939 -2.848,-0.13533 -2.68916,0.13486 -0.008,-0.67654 -5.03166,0.21452 0.0183,-1.66766 0.28224,-2.21172 -0.0263,-0.53562 -0.0803,-0.22344 -0.15356,-0.18717 -0.185,-0.12411 -0.2189,-0.0696 -2.91865,0.20635 0.19402,-1.4286 0.0207,-0.93556 -0.0264,-0.81375 -0.0999,-0.96126 -0.15527,-0.7418 0.2214,-0.0428 6.79741,-0.64876 -0.6309,-3.59784 -0.0817,-0.87342 -7.44574,-1.02839 -0.43673,-0.13557 -0.59356,-0.11847 -0.67431,-0.28377 -0.13038,-0.1227 -1.01567,-2.45367 -0.25983,-0.5544 -1.51541,-3.95504 -0.22311,-0.76129 -0.19417,-0.96442 -0.0893,-0.63997 -0.0647,-0.99881 0.016,-2.01047 0.16725,-4.52548 0.192,-0.0106 0.13676,-0.0994 0.006,-0.13021 0.12867,-0.31554 0.14532,-0.25482 0.0741,-0.25736 -0.22654,-0.0659 -0.2592,0.0172 -0.0146,-0.91822 0.1632,-3.51208 0.1237,-4.02582 -0.0325,-0.59708 -0.0819,-0.66414 -0.17363,-0.94541 -0.23338,-0.75139 -0.3552,-0.86756 -0.21922,-0.42571 -0.23914,-0.24081 -0.35831,-0.54752 -0.25034,-0.5155 -0.24023,-0.32756 -0.57287,-0.6249 -0.34586,-0.32943 -0.61333,-0.49911 -0.46489,-0.32662 -0.54082,-0.32708 -0.60492,-0.31632 -0.73919,-0.31191 -0.95032,-0.32168 0.49212,-0.79748 1.49409,-3.56239 0.0465,-0.50549 -0.063,-1.58404 0.14128,-0.59411 0.15356,-0.34954 0.22062,-1.47767 0.41775,-1.32597 0.20102,-1.5745 0.14625,-0.4508 0.20569,-0.38534 0.3037,-0.27684 0.065,-0.23287 0.26434,-0.20975 0.0753,-0.11855 -0.0624,-1.12797 0.40172,-1.49879 0.7518,-3.37138 0.41884,-4.22379 -0.0149,-0.47748 -0.23229,-0.98144 -0.0224,-0.41836 0.38368,-1.60675 0.37045,-0.6197 0.20304,-0.64308 0.0291,-0.32529 -1.34753,-0.10219 -3.57118,-0.18732 -1.21264,-0.1216 -2.47024,-0.10312 -2.83805,-0.0905 -4.71318,-0.0676 -1.43217,-0.054 -1.42346,-0.28015 -1.20533,-0.1609 -1.50265,-0.0804 -3.77826,-0.0367 -0.0394,-0.81756 -4.58078,-0.0804 -3.27276,-0.11225 -0.2438,1.12297 -0.1128,0.0533 -2.21213,0.0435 -1.15647,-0.0262 -1.63335,0.0554 -2.55239,0.22122 -0.37248,-0.039 -0.71304,0.0426 -3.92343,0.63561 -0.38959,0.14101 -0.84576,0.438 -0.29157,0.28436 -7.39269,-0.33861 -0.0613,0.0903 -1.09346,2.6986 -1.63645,-0.26986 -2.77131,-0.72703 -1.09128,-0.1962 -0.56976,-0.15551 -2.45935,-0.81636 -0.9315,-0.25934 z" />
  <path
     id="86169"
     stroke="#000000"
     stroke-width="0.195624"
     fill="#ececec"
     d="m 468.02705,128.27801 -0.0764,0.1943 -24.28687,-5.93662 -4.35735,-1.13232 0.34229,14.15363 0.25641,6.63175 0.48013,4.56992 -0.0328,1.31252 -0.13459,0.84009 -0.37994,1.27126 -0.54346,1.14119 -0.67633,0.97083 -0.35816,0.43139 -8.15102,7.93802 -0.85603,0.95318 -0.99311,1.2498 -1.2923,1.88357 -3.10037,5.22883 -3.55577,6.25335 -0.78229,1.65916 -0.33233,1.31687 -0.34556,2.15132 -0.50394,1.34916 -0.81356,1.16149 -0.59839,0.60394 -0.46971,0.41605 -0.34447,0.41348 0.23151,0.48726 -0.14594,0.13142 1.1851,2.277 -0.4137,0.18694 -0.6754,-0.21856 -2.56376,-1.89118 -1.12613,-1.78882 -2.32913,-4.77089 -2.46651,-5.45402 -0.82336,-1.4261 -3.23013,-5.9248 -4.02922,-8.33313 -3.22826,-8.20061 -1.77057,-5.66299 -3.51158,-7.89901 -1.2044,-4.15406 -0.18515,-3.37446 0.94379,-12.62187 0.11467,-5.43792 -1.13718,-0.0748 -0.0563,-0.29794 0.14687,-1.85724 0.20242,-1.2724 0.0445,-1.13293 0.10875,-1.17115 -0.0209,-0.26279 0.0559,-0.52416 0.0467,-0.14113 0.0736,-1.43537 0.13878,-0.24075 -0.0271,-0.41939 0.0955,-0.97826 -0.01,-1.04321 0.117,-0.625456 0.0443,-4.340333 0.15901,-1.046775 0.11638,-1.361412 0.20055,-0.799691 -0.002,-0.903559 0.27756,-2.083315 0.20786,-1.07872 0.206,-0.696327 -0.0657,-0.7655 0.005,-0.352623 0.19806,-3.236729 0.0381,-1.572088 0.103,-1.374687 0.0633,-2.505565 0.15373,-2.09458 -0.0232,-0.574472 0.10736,-0.613637 0.0183,-0.461457 -0.12836,-1.640212 -0.004,-1.695338 -0.10098,-1.073963 0.0241,-4.891338 -0.26559,-1.373475 -0.2186,-2.024949 -0.20366,-0.866973 -0.1072,-1.502739 -0.65595,-3.16454 -0.41775,-3.049943 -0.15278,-0.648223 -0.12214,-0.888386 -0.0724,-1.002369 -0.3426,-1.747018 -0.18374,-1.546985 -0.3815,-1.969173 -0.10643,-0.869203 -0.28425,-1.436571 -0.60819,-4.157828 -0.6421,-2.835296 -0.30682,-1.577409 -0.19557,-1.491577 -0.071,-1.119578 -0.15294,-1.226784 -0.55544,-3.039337 -0.60975,-4.160945 -0.67726,-3.589396 -0.56696,-2.240585 -0.40981,-2.113472 -0.1198,-1.005961 -0.33701,-1.828953 -0.10372,-1.425925 -0.4638,-2.8652825 1.13811,-0.8105868 4.34086,0.2709781 4.01148,0.00892 0.48481,0.070616 0.85339,-0.049266 1.22306,0.019707 2.39619,0.1051048 -0.0731,0.6092859 0.52869,0.1459314 0.78695,0.3983683 0.89462,-0.041057 0.59466,0.4828269 0.49429,0.9902834 -1.24858,0.474845 0.23992,0.488214 0.26621,0.655954 -0.21658,0.441762 0.64491,0.558588 0.45026,0.814773 0.59652,1.232587 -0.0391,0.830708 0.1601,0.665782 0.5612,0.07155 0.71647,1.573423 0.009,2.321268 6.94802,-1.750743 0.66342,1.325668 0.21035,0.575678 0.11934,0.446652 0.71507,3.327799 0.10783,0.24748 0.4011,1.251241 0.25065,1.122677 0.22855,0.744306 0.19433,1.435577 0.53117,2.085315 0.19993,0.949988 0.37823,0.982117 0.50924,0.821202 0.18468,0.456687 0.17441,1.811027 0.18421,1.229304 0.14252,0.582395 0.1601,0.402492 1.9316,3.477651 -0.6113,0.334227 0.42258,1.217982 -1.44711,0.735991 -0.73686,1.342034 -0.0409,1.062922 0.26434,0.558897 0.57785,0.959011 -0.008,0.989257 0.48481,0.97916 0.0748,0.402218 0.24178,0.809355 0.42537,1.149176 0.0671,0.424018 0.43066,1.377818 0.51686,0.886254 0.39394,0.517581 0.94255,1.126387 0.37107,0.649838 0.30557,1.306709 -0.99513,0.817038 -1.12006,1.867628 0.46971,0.773164 -0.30573,0.672559 0.34572,0.676545 0.58002,-0.09216 1.95074,1.49518 9.70703,-3.57078 1.39344,2.852974 1.21186,3.56038 1.53563,1.856243 1.1599,-0.27928 0.2992,1.375986 0.42755,0.378935 0.4736,0.665473 0.10331,0.434504 0.24769,0.430513 0.0686,0.287712 -0.0115,0.370015 0.22155,0.793489 -0.15169,0.712121 0.50363,0.865933 0.30215,0.79183 0.17613,0.296848 0.53179,0.545156 0.94736,0.758058 0.54876,0.597439 0.69842,1.008699 0.18997,0.326148 -1.20859,2.624864 -0.75817,1.933382 0.71414,0.350753 -0.42382,1.262564 -0.22684,0.957054 -0.0476,0.316985 -0.0605,0.987055 0.0555,2.395151 0.13723,-0.02297 10.70651,-3.69333 1.63942,4.639797 0.54673,1.39425 0.20631,0.219909 0.84001,2.191792 0.10906,0.670027 0.17581,0.731211 0.38446,0.806228 0.88186,2.301897 0.11872,0.481981 1.07027,3.57384 0.23074,0.59472 1.96256,3.75913 2.5524,6.09906 1.03465,1.98912 0.54004,0.91603 1.35158,2.50333 1.46126,2.80094 -1.5e-4,0.27189 -0.0783,0.27939 0.039,0.47486 0.0932,0.29837 0.22249,0.46759 1.3368,2.64193 0.58952,0.29813 0.42646,0.44227 z" />
  <path
     id="86167"
     stroke="#000000"
     stroke-width="0.195624"
     fill="#ececec"
     d="m 475.34272,143.37524 0.0345,0.12866 -3.22499,-0.44807 -3.94209,1.86491 -1.08615,-2.06246 -6.01792,2.80017 1.38005,3.41007 -0.87549,0.35033 0.29515,0.74776 0.90193,-0.29596 0.51359,1.28132 1.61732,-0.63058 0.75942,-1.23986 3.31819,-1.03435 0.83488,1.51028 1.55617,3.26632 -2.32819,0.97784 -1.17561,-1.44649 -3.49696,1.11328 0.7728,2.68112 -0.9441,0.33554 0.28861,0.87307 -1.01691,0.35054 0.3692,1.03239 0.8923,-0.30156 0.45197,1.34707 0.99062,-0.34163 1.68049,4.69203 1.5109,2.15511 -2.38327,2.01051 -1.03279,-2.67124 -2.5499,2.07495 0.22747,1.56556 -2.11754,1.51939 0.40111,0.98097 -2.02978,1.10748 -0.23898,0.41609 -0.48139,-1.02547 -3.65519,1.02079 -1.16565,-0.0539 -1.44633,0.14221 -0.91392,0.54097 -0.40265,0.78532 0.57302,1.03552 -0.37138,0.66466 0.045,0.12721 -0.5892,0.79444 0.12727,0.36055 -0.38679,0.13752 -0.41293,-0.58265 -0.77497,0.29356 -0.18935,-0.41749 -0.78556,0.38726 0.10689,0.34346 -0.55855,0.20944 -0.11109,-0.24482 -0.47936,0.21741 0.47111,0.99286 -1.11042,0.51704 -0.17628,-0.35492 -1.48662,0.7649 -0.0649,0.56132 -4.08865,1.75679 -0.44078,-1.04531 -0.45804,0.19678 0.23742,0.52945 -0.39285,0.17547 0.29375,0.65455 -1.34069,0.60089 -0.2186,-0.52499 -1.6864,0.73349 -0.2855,-0.71593 -0.9371,0.38702 -0.51125,0.10331 -0.052,0.15508 0.76673,1.34796 -0.23992,0.20779 -0.36609,-0.33757 -0.75273,0.28861 -0.12384,-0.29751 -0.15808,1.04316 h -0.0627 l 0.003,0.27573 -0.0551,-0.003 -0.0221,0.38325 0.14889,0.022 0.0341,1.32216 -0.31724,-0.0166 -0.15994,-0.0773 0.0524,-0.10472 -0.51033,-0.2455 -0.75428,1.30786 1.12676,0.49264 -0.70901,1.35281 -0.67851,-0.20966 -0.30137,0.94497 0.15201,0.0429 -0.0748,0.28181 -0.14485,-0.0342 -0.0652,0.32327 0.11778,0.033 -0.69641,2.22394 -0.19028,-0.0525 -0.52261,0.0878 -0.34898,0.16327 -0.0221,0.72592 0.45509,0.1628 -0.0275,0.71421 -0.90458,0.28413 -0.24085,0.86857 0.86055,0.25391 -0.18204,0.58466 -0.57924,-0.16561 -1.2128,2.10016 -2.3243,-1.37519 -3.98582,-2.84133 -2.43679,-2.09016 -1.0166,-0.80253 -3.56153,-3.89256 -1.78846,-2.73637 2.56375,1.89118 0.6754,0.21856 0.41371,-0.18694 -1.18511,-2.277 0.14594,-0.13142 -0.23151,-0.48726 0.34447,-0.41348 0.46971,-0.41605 0.59839,-0.60394 0.81356,-1.16149 0.50394,-1.34916 0.34556,-2.15132 0.33233,-1.31687 0.78229,-1.65916 3.55577,-6.25335 3.10037,-5.22882 1.2923,-1.88358 0.99311,-1.2498 0.85603,-0.95317 8.15102,-7.93803 0.35816,-0.43139 0.67633,-0.97083 0.54346,-1.14119 0.37995,-1.27125 0.13458,-0.84009 0.0328,-1.31253 -0.48014,-4.56992 -0.25641,-6.63175 -0.34229,-14.15363 4.35735,1.13232 24.28687,5.93662 -0.16212,0.4132 0.16866,0.66539 2.53808,4.67001 0.45945,0.78863 1.17467,1.83058 0.60726,1.0607 0.66108,1.0089 0.50644,0.9674 0.78524,2.01823 z" />
  <path
     id="86165"
     stroke="#000000"
     stroke-width="0.195624"
     fill="#ececec"
     d="m 482.19132,223.71308 0.64895,0.46486 -0.15948,0.43325 -1.44633,-1.05408 -0.47734,0.61638 -0.65051,-0.50842 0.41589,-0.62926 -4.477,-3.44286 -0.62048,0.81968 -0.90302,-0.64005 0.62639,-0.87074 -4.68409,-3.62566 -0.46115,-0.22764 -6.66532,7.69805 1.71596,3.74954 -3.26529,1.80951 -1.65871,1.31561 -0.79193,-1.66126 -2.7489,-4.22138 -0.69905,-1.48523 -2.09139,-2.44497 -3.35444,-4.58937 -1.97704,-2.25025 -3.8769,-3.35438 -4.17376,-2.67781 -5.01843,-3.06013 -6.54552,-3.86128 1.21279,-2.10016 0.57925,0.16561 0.18204,-0.58466 -0.86055,-0.25392 0.24085,-0.86856 0.90458,-0.28413 0.0275,-0.71421 -0.45509,-0.1628 0.0221,-0.72592 0.34898,-0.16327 0.52262,-0.0878 0.19028,0.0525 0.69641,-2.22394 -0.11779,-0.033 0.0652,-0.32327 0.14485,0.0342 0.0748,-0.2818 -0.152,-0.0429 0.30137,-0.94497 0.67851,0.20966 0.70901,-1.35282 -1.12676,-0.49264 0.75428,-1.30785 0.51033,0.2455 -0.0524,0.10471 0.15995,0.0773 0.31724,0.0166 -0.0341,-1.32216 -0.1489,-0.022 0.0221,-0.38325 0.0551,0.003 -0.003,-0.27573 h 0.0627 l 0.15807,-1.04316 0.12385,0.29751 0.75273,-0.28861 0.36609,0.33757 0.23992,-0.20779 -0.76673,-1.34796 0.052,-0.15508 0.51126,-0.10332 0.9371,-0.38701 0.2855,0.71592 1.6864,-0.73348 0.2186,0.52499 1.34068,-0.6009 -0.29374,-0.65454 0.39285,-0.17547 -0.23742,-0.52945 0.45804,-0.19679 0.44078,1.04532 4.08865,-1.7568 0.0649,-0.56131 1.48663,-0.76491 0.17628,0.35493 1.11042,-0.51704 -0.47112,-0.99286 0.47936,-0.21741 0.11109,0.24482 0.55856,-0.20945 -0.10689,-0.34345 0.78556,-0.38726 0.18935,0.41749 0.77497,-0.29356 0.41293,0.58265 0.38679,-0.13752 -0.12727,-0.36055 0.5892,-0.79444 -0.045,-0.12722 0.37138,-0.66465 -0.57302,-1.03552 0.40265,-0.78532 0.91392,-0.54097 1.44633,-0.14221 1.16565,0.0539 3.65519,-1.02079 0.48139,1.02547 0.23898,-0.41609 2.02978,-1.10748 -0.40111,-0.98097 2.11754,-1.51939 -0.22747,-1.56556 2.5499,-2.07495 1.03278,2.67124 2.38328,-2.01051 -1.5109,-2.15511 -1.68049,-4.69203 -0.99062,0.34163 -0.45198,-1.34707 -0.89229,0.30156 -0.3692,-1.0324 1.01691,-0.35053 -0.28861,-0.87307 0.94409,-0.33554 -0.77279,-2.68112 3.49696,-1.11329 1.17561,1.4465 2.32819,-0.97784 -1.55617,-3.26632 -0.83488,-1.51028 -3.31819,1.03435 -0.75942,1.23985 -1.61732,0.63059 -0.51359,-1.28132 -0.90193,0.29595 -0.29515,-0.74775 0.87548,-0.35033 -1.38004,-3.41007 6.01792,-2.80017 1.08615,2.06246 3.94209,-1.86491 3.22499,0.44807 0.57334,1.67134 0.4596,1.50188 0.45244,0.99547 0.81403,1.98973 0.67851,1.84934 1.93892,3.77217 0.51297,0.92393 0.13334,0.70811 0.17285,0.33157 1.26461,0.19049 0.21331,1.26718 0.33731,1.11347 0.37372,0.97122 0.71259,1.25098 3.10581,3.99559 -0.19417,0.097 0.0434,0.30506 0.45259,1.65321 -0.17767,0.5452 0.31335,1.28347 0.0408,0.44 -0.0339,0.30388 0.47563,3.54079 0.35629,1.66763 0.21797,0.0972 -0.28581,0.12511 0.27523,0.91088 0.17333,0.44536 0.47422,0.36454 0.36937,0.22116 0.12073,0.3472 -0.24084,0.38069 1.51665,2.26589 1.6419,2.57883 1.39017,0.24247 1.50234,0.1511 -0.0901,0.2331 -0.008,0.19889 0.0664,0.23543 0.11156,0.16516 0.18468,0.1436 0.12167,0.0518 0.24038,0.0309 0.18359,-0.0342 -0.0345,2.28054 -0.14282,0.71729 0.70698,2.15913 0.44809,0.93959 -0.0406,0.59148 0.0968,1.21857 -0.20133,1.59685 -0.0513,1.25485 -0.25967,1.06158 -0.0401,0.1478 -0.10845,0.15296 -0.43875,0.28483 -0.14921,0.16678 -0.0776,0.16233 -0.007,0.18575 0.3731,1.33796 0.51872,1.34005 1.93643,5.68258 -0.004,1.3456 1.0597,3.70013 0.19464,0.89 0.10268,0.16746 -0.0658,0.0293 -0.6894,0.0429 0.43797,3.685 -0.12991,0.74523 -9.54024,2.60264 -0.11918,0.29883 -0.2645,0.4698 -0.53055,-0.003 -0.86413,0.19344 -1.82113,0.29977 -1.92508,0.0923 -2.3369,0.0396 -0.0625,0.84871 -0.036,1.15386 z" />
  <path
     id="86163"
     stroke="#000000"
     stroke-width="0.195624"
     fill="#ececec"
     d="m 483.69412,312.855 -0.0997,0.74557 -2.17883,2.02534 -2.84676,-2.86896 -2.79262,-1.8899 -2.1334,-1.83961 -1.12536,-1.31122 -1.28296,-2.46054 -1.67427,-4.41103 -5.2669,-12.41695 -1.15477,-4.50551 -0.0781,-2.90765 0.73903,-4.37821 1.39032,-4.09817 1.24765,-4.16971 0.50068,-3.07728 0.23244,-3.4002 -0.46567,-4.32226 -0.52759,-3.55565 -2.70316,-2.68009 -0.62825,-1.24348 -0.39862,-1.29056 1.06001,0.0173 2.28401,-2.6397 0.10471,-0.779 -0.30946,-3.08302 -0.75491,-2.16638 -2.03771,-4.88832 -2.66411,-5.63859 1.65871,-1.3156 3.26529,-1.80951 -1.71596,-3.74955 6.66532,-7.69804 0.46115,0.22764 4.68409,3.62566 -0.62639,0.87074 0.90302,0.64005 0.62048,-0.81968 4.477,3.44286 -0.41589,0.62926 0.65051,0.50842 0.47734,-0.61638 1.44633,1.05407 0.15948,-0.43324 1.36667,0.97913 -0.40842,0.77491 0.30386,0.59225 0.57505,0.68404 0.46365,0.6536 0.2981,0.48709 1.51946,2.86607 0.43906,1.06291 0.69143,1.83728 0.22373,0.92379 0.38943,1.87611 0.0545,0.77672 0.0739,2.1217 0.41448,3.96442 -0.0156,1.97175 0.6712,0.0981 0.0736,0.60503 -0.0954,0.87241 -0.12618,0.52401 0.23555,1.19247 -0.30028,0.0576 0.36532,2.44016 0.28815,0.0599 0.0124,0.27768 -0.0573,0.86652 0.11311,1.36239 -0.0954,0.18801 0.059,0.82857 0.60227,3.69281 -0.22031,1.15513 0.81107,7.0605 0.21969,0.92166 2.39665,16.62137 0.2897,1.60664 0.54813,2.26572 1.02609,7.70853 -1.27316,0.67217 -1.40012,0.89919 -1.5946,0.9371 -0.90442,0.23755 -5.83729,1.24837 -0.4414,0.18044 -0.30495,0.34216 -0.24521,0.57877 -0.29514,1.4152 -0.1128,1.18092 1.1949,1.16242 0.56042,0.61011 0.22,0.36134 0.16306,0.37865 -0.53149,0.13551 -0.37807,0.16007 -0.23665,0.19049 -0.15278,0.3721 -0.0977,0.95458 -0.42444,2.73357 z" />
  <path
     id="86161"
     stroke="#000000"
     stroke-width="0.195624"
     fill="#ececec"
     d="m 406.41174,254.4345 0.0937,-0.51953 4.4269,0.54364 0.12306,-4.44639 -2.32555,-1.12128 0.63604,-0.76821 0.016,-0.47577 0.90272,0.0478 0.0509,-0.77641 0.2911,-0.004 -0.0509,-0.88295 -0.59901,-0.0733 0.26138,-1.81791 1.17779,-0.6699 -0.8106,-0.29011 0.49678,-1.81443 0.75273,-0.12504 0.32798,0.0805 1.75906,0.0267 0.85494,0.0501 0.62484,-0.28215 0.5738,-0.3894 1.13936,-1.36325 1.06452,0.35241 0.83332,-1.1071 0.2911,-1.38716 -0.0599,-0.38543 1.13921,0.10116 0.0664,-0.73363 -0.39923,-0.23346 0.028,-0.4496 0.46225,0.009 -0.009,0.57488 0.39908,0.0976 0.3899,1.83395 -0.40655,-0.0845 -0.0985,0.34257 -0.47967,-0.10701 -0.20211,0.37068 -0.016,0.45122 0.57349,0.093 -0.0151,0.1241 2.65586,0.68749 0.1503,-0.78911 0.68505,-0.16274 -0.59077,-0.10256 0.0257,-0.66805 -0.78789,-1.32746 0.0338,-1.14412 1.29137,-0.21356 0.50674,0.0159 5.99272,0.44303 -0.18219,-0.6313 1.34458,0.10912 0.76112,0.88584 1.17033,-0.38403 0.0842,-1.4195 -0.25128,-0.61141 -0.71289,-0.58729 0.25454,-1.00412 4.21577,0.67394 0.10377,-0.66083 0.53958,-0.35828 1.59865,0.16626 0.0453,0.40301 2.67827,0.93925 2.77768,-7.13227 0.59947,2.81671 0.74495,1.10203 4.08803,-0.72805 -0.1895,-5.1932 5.56065,-2.09715 0.69905,1.48522 2.7489,4.22139 3.45604,7.29983 2.03772,4.88832 0.7549,2.16638 0.30946,3.08303 -0.10471,0.779 -2.28401,2.6397 -1.06001,-0.0173 0.39862,1.29057 0.62825,1.24348 2.70316,2.68009 0.52759,3.55565 0.46567,4.32226 -0.23244,3.4002 -0.50068,3.07728 -1.24764,4.16971 -1.39033,4.09817 -0.73903,4.37821 0.0781,2.90764 1.15477,4.50552 5.2669,12.41695 1.18931,3.13323 -17.87905,3.82399 -28.72248,5.49729 0.3524,3.23165 0.30401,3.64738 0.42444,2.30814 -0.10455,-0.0924 -0.37465,0.0873 -3.27836,0.22674 -0.28924,-4.47146 -0.72425,-0.0169 -0.19184,-1.06588 -0.3983,-1.54468 0.14921,-0.0917 -0.0231,-1.0507 0.76346,-0.58245 -0.27134,-7.66245 -0.51514,-10.22782 -1.09953,-2.7311 -0.0531,-1.1733 0.67758,-0.66027 -0.13676,-3.15697 -3.75788,-1.48816 -0.0333,-1.64923 3.14845,-0.11586 -3.07953,-12.82943 -0.3899,-2.34165 -1.41988,0.0948 -0.23011,-1.66608 -4.85507,0.49676 0.2228,-3.85239 1.35562,-0.0833 0.0391,-0.92473 3.61458,-0.12993 -1.15025,-3.43512 -0.74012,-1.75213 -1.10311,-3.54508 z" />
  <path
     id="86159"
     stroke="#000000"
     stroke-width="0.195624"
     fill="#ececec"
     d="m 364.79364,249.75327 0.69252,-0.70873 1.66259,-1.83706 0.94317,-1.26039 1.57997,-2.69175 1.87529,-3.36336 1.06794,-2.20014 2.09855,0.96965 1.73588,-0.53037 1.12069,-0.0513 0.44979,0.13347 2.6638,-0.90432 1.46018,-0.18874 0.34867,-0.839 0.38181,-0.38403 0.25251,0.22152 0.4747,0.13769 3.61287,0.24517 2.12328,-0.0126 0.71975,-0.037 0.73312,0.0944 0.49834,0.12388 0.56945,0.53529 0.25111,0.28848 1.69667,-1.41995 0.74884,0.99261 0.59076,1.01415 1.87964,2.10156 0.28503,-0.24306 0.36034,-1.3677 0.88731,-0.0461 1.51588,-0.46105 0.38725,1.7337 5.52176,1.07102 0.31149,-1.75967 1.69309,0.25078 1.3494,0.004 1.34131,-0.12317 0.26278,-0.001 0.24878,0.0653 0.14688,0.32033 0.51794,1.61473 -0.75272,0.12504 -0.49679,1.81443 0.8106,0.29011 -1.17778,0.6699 -0.26139,1.8179 0.59901,0.0733 0.0509,0.88295 -0.29111,0.004 -0.0509,0.77641 -0.90271,-0.0478 -0.0161,0.47577 -0.63603,0.76821 2.32555,1.12128 -0.12307,4.44638 -4.4269,-0.54364 -0.0937,0.51953 4.56863,0.61622 1.10311,3.54508 0.74013,1.75213 1.15025,3.43513 -3.61458,0.12993 -0.0391,0.92472 -1.35562,0.0833 -0.2228,3.85239 4.85507,-0.49676 0.23011,1.66608 1.41988,-0.0948 0.3899,2.34164 3.07952,12.82943 -3.14845,0.11587 0.0333,1.64922 3.75788,1.48817 0.13676,3.15696 -0.67758,0.66027 0.0531,1.1733 1.09953,2.73111 0.51515,10.22781 0.27134,7.66245 -1.97828,-0.0438 -3.78308,-0.4596 -1.5946,0.0665 -4.87966,-0.0253 -0.50519,0.0496 -0.33326,0.0826 -0.55264,0.24127 -1.59259,2.55092 -1.6545,2.74087 -0.50535,0.47924 -0.31973,0.18883 -0.5528,0.15959 -0.61052,0.0501 -1.50047,-0.0978 -5.84227,-0.57727 -2.37767,-0.33837 -1.86346,-0.3063 -1.9845,-0.23026 -5.52192,-0.78789 -3.06365,-0.51901 -2.88068,-0.8457 -1.22835,-0.57214 -0.71959,-0.42613 13.84423,-33.00807 0.74464,-1.83654 2.0777,-4.71462 0.65626,-3.56377 3.28069,-9.19456 -0.44513,0.76718 -3.88017,0.0679 -0.0373,-0.9636 -2.66878,0.13345 -0.1727,-4.4655 -0.57846,-0.0578 -0.007,-0.12853 -1.49177,-0.0644 -0.0102,0.18262 -0.71056,-3.9e-4 -0.0713,-0.14305 -2.99659,1.77016 -2.53559,-3.86227 -2.1597,-0.97232 0.60601,-1.2191 -0.75724,-0.28048 -2.38809,-0.16436 -0.11903,0.7073 -2.93747,0.63261 -0.3272,-1.85968 -5.06682,0.82859 -0.6656,-0.32544 z" />
  <path
     id="86157"
     stroke="#000000"
     stroke-width="0.195624"
     fill="#ececec"
     d="m 341.7303,216.44369 0.0397,-0.0579 0.61566,-0.15996 11.75626,-2.91445 -0.22436,-0.75017 0.8033,-0.19907 -0.17193,-0.68952 0.68941,-0.13326 0.25609,0.17027 0.20802,0.79256 0.21004,0.20376 0.49539,-0.1349 0.006,-0.14732 -0.18188,-0.7839 2.5611,-0.56656 0.59683,-0.22578 1.20969,0.13702 0.68551,0.50449 -0.12463,-0.9317 -0.006,-0.37005 10.5623,3.48599 0.61005,2.51793 0.22731,2.04573 0.66918,2.86211 0.454,2.40606 0.68582,2.69664 0.1503,0.4672 0.40686,2.25046 -0.0252,1.61417 -0.227,1.38724 -0.31771,1.39729 -1.73541,4.37372 -1.06794,2.20014 -1.87528,3.36336 -1.57998,2.69175 -0.94317,1.26039 -1.66259,1.83706 -0.74651,0.76422 -2.39789,2.61012 -5.06978,2.33965 -2.35822,2.51823 -2.43322,4.5695 -3.31383,-1.49716 -3.01667,-3.97324 -2.40318,1.15047 -4.29792,-2.69921 -1.5666,-1.1025 -4.22977,2.55478 -0.21658,-0.45069 1.63584,-0.8391 0.1114,-0.0253 0.30013,-0.21446 0.0339,-0.20955 0.72378,-0.53311 0.0742,-0.16084 -0.0621,-0.18145 -0.45633,-0.45327 -0.16322,-0.53616 -0.85183,-0.79465 -0.87704,-0.9185 -0.59123,-0.78271 0.099,-2.25919 -0.50504,-1.02577 -0.37994,-1.02812 -0.17052,-0.59707 -0.16041,-0.85698 -0.0692,-0.75348 -0.0123,-0.79049 0.0384,-0.53854 0.89338,-2.08935 1.01598,-2.60149 0.11109,-0.0323 0.25143,-0.17726 0.98315,-1.42698 1.53703,-2.30747 1.88307,-2.98169 2.5625,-5.04913 0.0226,-0.18032 -0.0541,-0.36837 0.0232,-0.19414 0.34121,-1.7941 0.11513,-0.32412 0.38336,-2.77072 0.0132,-3.29118 -0.46987,0.0466 z" />
  <path
     id="86156"
     stroke="#000000"
     stroke-width="0.195624"
     fill="#ececec"
     d="m 355.3942,132.28013 0.16492,1.35276 -0.37574,0.12187 2.44349,14.10764 1.51074,0.39369 0.35816,-0.29316 0.53988,0.20247 -0.31926,0.67722 -0.571,0.65684 -1.11089,0.73604 3.03736,18.52365 0.78618,6.40405 -0.41993,1.65215 -1.81989,-0.20734 -0.32658,0.49082 -0.0794,0.42147 1.73821,0.33267 1.33462,0.57773 0.5223,4.22158 1.69528,5.52016 0.49382,1.40483 1.37943,3.01786 4.77635,8.2113 2.09279,4.08096 -1.02329,2.22206 -0.25003,0.96264 -0.30246,4.69129 0.0476,0.90991 -10.56229,-3.48599 0.006,0.37005 0.12462,0.9317 -0.68551,-0.50449 -1.20968,-0.13702 -0.59683,0.22578 -2.56111,0.56656 0.18188,0.7839 -0.006,0.14732 -0.49539,0.1349 -0.21005,-0.20376 -0.20801,-0.79256 -0.2561,-0.17027 -0.6894,0.13326 0.17192,0.68952 -0.80329,0.19907 0.22435,0.75017 -12.37191,3.07441 -0.0963,-0.59722 -3.6166,0.7902 -0.22467,0.96678 -0.39799,0.13911 -0.1839,-0.0183 -0.0968,-0.10726 -0.62063,0.12225 -0.2491,-1.7099 0.0773,-1.07195 -4.91497,-1.2619 -0.61628,0.007 -1.50592,-0.38129 -3.0109,-0.65227 -0.48092,-0.0103 0.0331,-0.3129 -0.0302,-0.14966 -0.12073,-0.23163 0.0496,-0.1691 0.0938,-0.27895 0.25096,-0.55649 0.74464,-2.14704 0.95732,-2.32181 -0.73826,-0.30894 0.55062,-1.25099 -1.91309,-0.75795 0.61566,-1.433 0.0433,-0.15834 1.34209,0.56824 0.22622,0.026 0.15279,-0.0265 0.21984,-0.17755 0.54004,-1.50234 0.0881,-0.32863 -0.93834,-0.28037 0.38523,-1.10559 0.11358,-0.85636 -0.0221,-1.48718 0.0587,-0.69498 -0.0591,-0.76152 0.36749,0.0126 -0.25547,-0.93064 0.99186,-0.0424 0.0622,-0.25697 0.1366,-0.18482 0.17411,-0.0766 -0.18749,-0.53056 -0.0663,-0.53361 -0.1576,-0.66316 -1.13734,0.17592 -0.96573,0.10869 -2.92673,0.17381 -0.0324,-0.41227 -0.0769,-0.44109 -1.45256,0.11806 -0.87331,0.10541 -0.57364,0.10963 -1.30833,0.31366 -1.24469,0.43383 -0.12976,-1.39144 -1.93642,0.27759 -0.62359,0.21387 -6.08327,0.68704 -3.1388,0.30874 -2.84646,0.22324 -0.31086,-2.50857 -1.52646,-0.0115 -0.4151,-0.8637 -1.82923,-4.26113 -0.11809,-0.32117 -0.35645,-1.27908 -0.34898,-0.56668 -0.0691,-0.5749 -0.0641,-0.15438 -0.0208,-0.1518 0.0226,-0.28698 0.32705,-1.85495 0.0319,-0.35258 0.0263,-1.0219 -0.0286,-1.86671 -0.34307,-2.08321 -0.0577,-1.00414 0.38554,-0.0796 0.67306,0.11503 2.0889,0.2556 8.68717,0.89918 5.77785,0.84036 0.10191,-0.76844 0.45478,0.0424 -0.20568,-0.34276 -0.36781,-0.35985 0.57085,-0.53557 1.53921,1.52752 0.0324,-0.0698 -2.0206,-4.08523 -0.4831,-1.1103 -0.10797,-0.36151 -0.2631,-0.47843 -0.33077,-0.39079 0.0737,-1.04707 0.0686,-2.48895 -0.005,-0.51968 -0.14112,-1.38684 3.66701,0.31866 2.86684,0.30483 0.2368,-2.53847 -0.43922,-0.0611 0.40981,-3.14188 0.4025,-2.23866 0.043,-2.63635 0.0695,-0.74327 3.1e-4,-0.36954 -0.0459,-0.65752 -0.16663,-0.42038 -0.0177,-0.44101 0.18033,-3.45054 0.18437,-2.73544 0.10891,-1.06836 0.0115,-0.49634 -0.0769,-1.57387 -0.0587,-0.4701 -1.09797,-0.008 0.008,-2.14431 2.31014,-0.50761 0.25905,0.20623 0.8716,-0.0644 0.0205,-0.0989 -0.38897,-0.40731 1.73323,-0.31146 2.37892,-0.17951 -2.51459,-3.2393 -0.1282,-0.21046 3.39583,-0.0152 1.43264,-0.11038 -0.28986,-0.64638 -0.71757,-2.21803 -0.2049,-0.49452 -0.48668,-1.02724 -0.35738,-0.64851 -0.69127,-1.0753 -0.15107,-0.17953 6.15577,-0.31946 -0.006,-1.41844 6.21008,0.73407 1.90406,0.18117 1.07635,-0.4282 1.08397,-0.22993 1.72389,-0.25852 6.86292,-1.28721 0.69936,4.04769 0.60756,0.0234 z" />
  <path
     id="86154"
     stroke="#000000"
     stroke-width="0.195624"
     fill="#ececec"
     d="m 389.76805,111.21431 -0.0123,-0.0607 1.13718,0.0748 -0.11467,5.43792 -0.94378,12.62187 0.18515,3.37446 -0.68241,3.36779 -0.22638,3.82398 -0.31754,3.77371 -0.10378,1.82389 -0.26465,6.19793 -0.38959,6.17769 -0.22218,2.56011 -0.227,3.36022 -0.2046,2.31186 -0.25749,7.30176 -0.18204,2.14135 -0.32191,1.90306 -0.24956,1.2091 -2.18007,8.75668 -0.85355,2.29899 -1.10606,2.00169 -1.24718,1.73109 -3.63995,4.68813 -0.98859,0.87253 -1.68049,2.55572 -1.42952,3.36749 -2.0928,-4.08096 -4.77634,-8.2113 -1.37943,-3.01786 -0.49383,-1.40483 -1.69527,-5.52016 -0.5223,-4.22158 -1.33462,-0.57773 -1.73821,-0.33267 0.0793,-0.42147 0.32657,-0.49082 1.81989,0.20734 0.41993,-1.65215 -0.78617,-6.40405 -3.03736,-18.52365 1.11088,-0.73604 0.57101,-0.65684 0.31926,-0.67722 -0.53988,-0.20247 -0.35816,0.29316 -1.51075,-0.39369 -2.44348,-14.10764 0.37574,-0.12187 4.62636,-0.802 -0.15108,-0.86973 1.2016,-0.14461 0.99637,5.29964 0.29764,1.79587 0.24396,-0.10499 0.10844,-0.0947 0.97491,-1.41317 2.0763,-2.58685 0.75023,-1.12448 0.44514,-0.87278 0.22622,-0.55263 0.18903,-0.56975 0.23245,-0.90232 -0.0658,-0.35296 -0.22965,-0.255 -0.19759,-0.3014 -0.12463,-0.32156 3.45931,-0.0645 3.21613,0.3682 1.15943,-0.0731 0.16429,-1.50561 0.47703,-0.19617 1.51463,-0.82056 1.95122,-0.0173 1.72684,-0.85759 1.16986,-0.79853 1.73199,-1.68075 0.11964,-0.13102 0.14221,-2.58974 0.0895,-0.6673 0.11918,-1.93936 0.0934,-2.43444 0.12027,-0.42755 0.81854,-1.74957 0.0596,-0.31926 0.004,-0.36684 -0.12121,-0.38372 0.34696,-0.48124 0.27414,-0.31903 3.40563,0.15659 0.66498,-0.51664 z" />
  <path
     id="86153"
     stroke="#000000"
     stroke-width="0.195624"
     fill="#ececec"
     d="m 373.24509,204.88739 1.42953,-3.36749 1.68049,-2.55572 0.98859,-0.87253 3.63994,-4.68813 1.24718,-1.73109 1.10607,-2.00169 0.85355,-2.29899 2.18007,-8.75668 0.24956,-1.2091 0.32191,-1.90306 0.18203,-2.14135 0.2575,-7.30176 0.2046,-2.31186 0.227,-3.36022 0.22217,-2.56011 0.38959,-6.17769 0.26465,-6.19793 0.10378,-1.82389 0.31755,-3.77371 0.22638,-3.82398 0.6824,-3.36779 1.2044,4.15406 3.51158,7.89901 1.77057,5.66299 3.22826,8.20061 4.02922,8.33313 3.23013,5.9248 0.82336,1.4261 2.46651,5.45402 2.32913,4.77089 1.12613,1.78882 1.78847,2.73637 3.56153,3.89256 1.0166,0.80253 2.43679,2.09016 3.98581,2.84133 4.8711,2.89957 3.99873,2.3369 5.01843,3.06013 4.17376,2.67781 3.8769,3.35438 1.97704,2.25025 3.35444,4.58937 2.09139,2.44497 -5.56065,2.09716 0.1895,5.19319 -4.08803,0.72805 -0.74495,-1.10203 -0.59947,-2.81671 -2.77768,7.13228 -2.67827,-0.93926 -0.0453,-0.403 -1.59864,-0.16627 -0.53958,0.35829 -0.10377,0.66082 -4.21577,-0.67394 -0.25454,1.00412 0.71289,0.58729 0.25128,0.61141 -0.0842,1.41951 -1.17033,0.38403 -0.76112,-0.88584 -1.34458,-0.10913 0.18219,0.63131 -5.99272,-0.44304 -0.50674,-0.0159 -1.29137,0.21356 -0.0338,1.14412 0.78789,1.32745 -0.0257,0.66805 0.59077,0.10256 -0.68505,0.16274 -0.1503,0.78911 -2.65586,-0.68748 0.0151,-0.1241 -0.57349,-0.093 0.016,-0.45123 0.20211,-0.37067 0.47967,0.10701 0.0985,-0.34257 0.40655,0.0845 -0.3899,-1.83395 -0.39908,-0.0976 0.009,-0.57487 -0.46225,-0.009 -0.028,0.44959 0.39923,0.23346 -0.0664,0.73363 -1.13921,-0.10115 0.0599,0.38543 -0.2911,1.38716 -0.83332,1.10709 -1.06452,-0.3524 -0.61192,-2.76917 -0.11187,-0.3379 -0.14314,-0.27608 -0.92371,-0.41634 -0.11062,-0.10163 -0.0966,-0.16953 -0.0263,-0.21122 0.23385,-1.8361 -0.26824,-1.83917 -0.17378,-0.92311 -0.11016,-2.80567 -0.10875,-0.81893 -0.38197,-1.22852 -0.30728,-0.86017 -0.0702,-0.89599 3.79475,-2.02714 3.81746,-2.49252 0.56432,-0.47191 0.85339,-0.19766 0.43377,-0.37237 0.12089,-0.38596 -0.461,-0.4068 -0.24474,-0.30516 -0.18997,-0.16652 -0.20615,-0.89535 -0.25594,-1.68112 -0.0619,-1.29914 -0.0598,-0.35412 -0.31008,-0.83731 -0.42491,-0.85463 -2.00722,-4.71431 -0.66062,-2.08108 -0.25749,-0.47009 -0.17005,-0.41833 0.62561,-0.71627 0.17597,-0.51483 -0.0146,-0.53522 -0.4484,-0.58557 -0.9038,-0.18856 -1.10248,0.93645 -0.72239,0.30029 -0.97179,0.022 -4.21002,-0.0133 -0.29328,-0.31855 -1.04491,-4.17101 -0.19806,-1.01426 -0.70652,-0.12672 0.1881,-1.06041 -0.22964,-0.28063 -2.06868,-0.0553 -0.41682,0.34246 -2.13106,-2.74723 -3.02538,2.93767 -2.63221,1.72519 0.323,0.42373 -0.12665,0.14734 -0.47858,0.25766 -0.21237,0.0335 -0.29655,0.1553 0.10502,0.24127 -1.95712,0.66522 -1.1935,0.30264 -1.14792,0.64976 -0.11031,-0.32746 -0.6183,0.15319 0.0613,0.41928 -0.52339,0.0274 -0.43798,-0.84676 -0.27741,0.0171 -0.30588,0.14546 -0.0661,-0.25953 0.0372,-0.39352 -0.48808,-0.0885 0.64444,-0.73784 0.7367,-0.36682 -1.67208,-1.2944 -0.13427,0.28226 -0.45074,2.10486 -1.98964,8.18719 -3.05136,-1.56577 -0.68862,0.19487 -0.0509,0.37031 -0.4971,-0.004 -0.49305,-0.50966 -0.38803,0.0918 -0.192,0.47781 -0.71149,-0.0166 -0.60181,-0.83828 -0.63137,0.0763 -0.21984,0.0649 -0.41713,0.22041 -0.94379,0.75724 -0.38647,0.35226 -1.41257,1.64117 -0.31304,0.54713 -0.28892,0.894 z" />
  <path
     id="86152"
     stroke="#000000"
     stroke-width="0.195624"
     fill="#ececec"
     d="m 371.66931,212.76338 0.30246,-4.69129 0.25003,-0.96264 1.02329,-2.22206 2.95661,5.14252 0.28892,-0.89401 0.31304,-0.54712 1.41257,-1.64117 0.38648,-0.35227 0.94378,-0.75724 0.41713,-0.2204 0.21985,-0.0649 0.63136,-0.0764 0.60181,0.83828 0.7115,0.0166 0.19199,-0.47782 0.38803,-0.0918 0.49306,0.50967 0.4971,0.004 0.0509,-0.3703 0.68863,-0.19488 3.05136,1.56577 1.98964,-8.18719 0.45073,-2.10486 0.13427,-0.28226 1.67209,1.29441 -0.73671,0.36681 -0.64444,0.73785 0.48808,0.0885 -0.0372,0.39352 0.0661,0.25953 0.30588,-0.14546 0.27741,-0.0171 0.43798,0.84675 0.52339,-0.0274 -0.0613,-0.41927 0.6183,-0.15319 0.11031,0.32746 1.14792,-0.64977 1.1935,-0.30263 1.95712,-0.66523 -0.10502,-0.24127 0.29655,-0.15529 0.21237,-0.0335 0.47859,-0.25767 0.12664,-0.14733 -0.32299,-0.42374 2.6322,-1.72518 3.02538,-2.93767 2.13107,2.74723 0.41681,-0.34247 2.06868,0.0553 0.22964,0.28062 -0.1881,1.06041 0.70652,0.12672 0.19806,1.01426 1.04492,4.17102 0.29328,0.31855 4.21001,0.0133 0.97179,-0.022 0.72239,-0.30028 1.10248,-0.93646 0.90381,0.18856 0.4484,0.58558 0.0146,0.53521 -0.17597,0.51484 -0.62561,0.71626 0.17005,0.41833 0.2575,0.4701 0.66062,2.08107 2.00722,4.71431 0.4249,0.85464 0.31009,0.8373 0.0597,0.35412 0.0619,1.29915 0.25593,1.68111 0.20616,0.89535 0.18997,0.16652 0.24473,0.30516 0.46101,0.4068 -0.12089,0.38596 -0.43378,0.37238 -0.85339,0.19766 -0.56431,0.4719 -3.81747,2.49253 -3.79475,2.02714 0.0702,0.89599 -0.27648,-0.74612 -0.12027,-0.19859 -1.51027,-4.37727 -0.2004,-0.48619 -0.23057,-0.43748 -0.48201,-0.76419 -0.57972,0.43912 -0.5475,-0.68854 0.20631,-0.24006 -0.31523,-0.43982 -0.20972,-0.79137 0.49352,-0.14052 -0.0616,-0.32765 -0.0776,-0.14989 -0.47749,-1.51578 -0.0614,-0.28292 -0.16788,-1.94651 -1.47963,0.0918 -0.087,0.33843 -0.0667,1.23733 -1.46764,0.0529 -0.0285,-0.27238 -0.45135,-0.0778 -1.10497,0.003 -0.47314,-0.37356 -0.84204,0.10726 0.0383,0.40027 -0.98268,0.37169 -1.01162,0.0403 0.0498,0.78366 -0.0419,0.0991 -0.64257,0.1527 -0.6113,0.0468 -0.72363,0.16675 -0.11234,-0.2602 -0.66404,-0.2869 -0.19806,0.23116 -0.0717,0.1712 -0.41106,0.0553 -0.1324,-0.20141 -0.3118,0.21734 -0.30992,0.14942 0.17177,0.31899 -0.71975,0.46021 -0.34322,0.20118 -2.2546,0.99559 -0.66171,-0.4841 -0.30137,0.25692 -0.91469,-0.96069 0.34026,-1.50102 0.86226,-1.11202 -1.11135,1.12092 -1.82456,-1.40501 -0.64926,0.7059 1.6461,1.54787 -0.55809,-0.14005 -0.37403,0.51571 -1.64688,-0.87709 -1.04165,1.22676 0.54269,0.21874 -0.12043,0.29744 -0.41059,0.42554 -0.57676,-0.189 -0.69702,1.37827 0.59231,0.28736 -0.22715,0.56559 -1.68049,-0.40258 -0.28753,0.69649 -2.20341,-0.0541 -1.92709,4.32904 -1.21747,0.49531 -0.71056,0.19882 -2.07225,0.81192 -0.47921,0.47048 -0.11638,0.55549 -1.75221,0.79481 -0.1503,-0.4672 -0.68582,-2.69663 -0.454,-2.40607 -0.66918,-2.8621 -0.22731,-2.04574 -0.61006,-2.51793 z" />
  <path
     id="86150"
     stroke="#000000"
     stroke-width="0.195624"
     fill="#ececec"
     d="m 372.61512,237.69184 1.73541,-4.37372 0.31771,-1.39729 0.227,-1.38724 0.0252,-1.61417 -0.40686,-2.25046 1.75221,-0.79482 0.11638,-0.55548 0.47921,-0.47048 2.07225,-0.81192 0.71056,-0.19883 1.21747,-0.4953 1.92709,-4.32905 2.20341,0.0541 0.28753,-0.6965 1.68048,0.40258 0.22716,-0.56558 -0.59231,-0.28736 0.69702,-1.37827 0.57676,0.189 0.41059,-0.42554 0.12043,-0.29744 -0.54269,-0.21875 1.04165,-1.22676 1.64688,0.8771 0.37403,-0.51572 0.55809,0.14006 -1.6461,-1.54787 0.64926,-0.7059 1.82456,1.40501 1.11135,-1.12092 -0.86226,1.11202 -0.34027,1.50101 0.9147,0.9607 0.30137,-0.25692 0.66171,0.48409 2.2546,-0.99559 0.34322,-0.20118 0.71975,-0.46021 -0.17177,-0.31898 0.30992,-0.14942 0.3118,-0.21735 0.1324,0.20142 0.41106,-0.0553 0.0717,-0.17121 0.19806,-0.23116 0.66404,0.2869 0.11234,0.26021 0.72363,-0.16676 0.6113,-0.0468 0.64257,-0.1527 0.0418,-0.0991 -0.0498,-0.78365 1.01162,-0.0403 0.98268,-0.37169 -0.0383,-0.40026 0.84204,-0.10726 0.47313,0.37356 1.10498,-0.003 0.45135,0.0778 0.0285,0.27239 1.46764,-0.0529 0.0667,-1.23733 0.087,-0.33843 1.47963,-0.0918 0.16788,1.94651 0.0615,0.28292 0.47749,1.51578 0.0776,0.14988 0.0616,0.32765 -0.49352,0.14053 0.20972,0.79136 0.31522,0.43983 -0.2063,0.24006 0.5475,0.68854 0.57972,-0.43912 0.482,0.76419 0.23058,0.43748 0.2004,0.48619 1.51027,4.37727 0.12027,0.19859 0.58376,1.60628 0.38197,1.22852 0.10875,0.81893 0.11016,2.80567 0.17379,0.92311 0.26823,1.83917 -0.23385,1.8361 0.0263,0.21122 0.0966,0.16953 0.11062,0.10163 0.92372,0.41634 0.14313,0.27608 0.11187,0.3379 0.61192,2.76917 -1.13936,1.36325 -0.5738,0.38939 -0.62484,0.28216 -0.85494,-0.0501 -1.75906,-0.0267 -0.32798,-0.0806 -0.51794,-1.61473 -0.14688,-0.32033 -0.24878,-0.0653 -0.26279,10e-4 -1.34131,0.12317 -1.34939,-0.004 -1.6931,-0.25078 -0.31148,1.75967 -5.52176,-1.07102 -0.38725,-1.7337 -1.51588,0.46105 -0.88731,0.0461 -0.36034,1.3677 -0.28503,0.24306 -1.87964,-2.10156 -0.59076,-1.01415 -0.74884,-0.99261 -1.69667,1.41995 -0.25111,-0.28848 -0.56945,-0.5353 -0.49834,-0.12387 -0.73313,-0.0944 -0.71974,0.037 -2.12328,0.0126 -3.61287,-0.24517 -0.4747,-0.13769 -0.25252,-0.22152 -0.38181,0.38403 -0.34867,0.839 -1.46017,0.18874 -2.6638,0.90432 -0.4498,-0.13347 -1.12069,0.0513 -1.73587,0.53037 z" />
</svg>
