<?xml version="1.0" encoding="UTF-8" standalone="no"?>
<!--
Diese Daten wurden aus der OSM-Datenbank extrahiert und stehen unter der 
Open Database Licence (http://www.openstreetmap.org/copyright) frei zur Verfügung. 
Quelle der Rohdaten: © OpenStreetMap-Mitwirkende (http://www.openstreetmap.org) 
Generiert von: http://www.suche-postleitzahl.org 
-->

<svg
   width="780"
   height="480"
   version="1.1"
   id="svg1134"
   sodipodi:docname="level4_Regensburg.svg"
   inkscape:version="1.2.2 (732a01da63, 2022-12-09)"
   xmlns:inkscape="http://www.inkscape.org/namespaces/inkscape"
   xmlns:sodipodi="http://sodipodi.sourceforge.net/DTD/sodipodi-0.dtd"
   xmlns="http://www.w3.org/2000/svg"
   xmlns:svg="http://www.w3.org/2000/svg"
   xmlns:rdf="http://www.w3.org/1999/02/22-rdf-syntax-ns#"
   xmlns:cc="http://creativecommons.org/ns#"
   xmlns:dc="http://purl.org/dc/elements/1.1/">
  <defs
     id="defs1138" />
  <sodipodi:namedview
     id="namedview1136"
     pagecolor="#ffffff"
     bordercolor="#000000"
     borderopacity="0.25"
     inkscape:showpageshadow="2"
     inkscape:pageopacity="0.0"
     inkscape:pagecheckerboard="0"
     inkscape:deskcolor="#d1d1d1"
     showgrid="false"
     inkscape:zoom="0.48849293"
     inkscape:cx="450.36475"
     inkscape:cy="679.64135"
     inkscape:window-width="1920"
     inkscape:window-height="1009"
     inkscape:window-x="-8"
     inkscape:window-y="-8"
     inkscape:window-maximized="1"
     inkscape:current-layer="svg1134" />
  <metadata
     id="metadata4">
    <rdf:RDF>
      <cc:Work
         rdf:about="">
        <dc:format>image/svg+xml</dc:format>
        <dc:type
           rdf:resource="http://purl.org/dc/dcmitype/StillImage" />
      </cc:Work>
    </rdf:RDF>
  </metadata>
  <path
     id="93059"
     stroke="#000000"
     stroke-width="0.196516"
     fill="#ececec"
     d="m 348.06711,151.85309 0.77244,-0.0525 2.54464,4.49283 4.39946,6.63302 2.82948,-0.31879 0.1709,0.50335 1.01441,-0.0624 -0.0322,-0.32652 0.70364,-0.18456 0.71942,3.0424 -0.71181,0.23489 0.48563,1.61324 0.4752,-0.15057 0.35619,1.18864 2.20227,-0.7266 0.0849,0.26629 0.14355,0.24951 0.20136,0.24306 0.30937,0.26758 0.62608,0.36695 2.6566,1.02128 2.05026,-0.77047 1.85285,0.58893 0.0863,0.84705 1.91884,1.29788 6.1522,2.83448 3.74208,1.31722 1.70451,0.64397 0.87792,0.41168 0.74142,0.40093 0.80911,0.56998 1.14245,1.04489 0.0891,0.19487 0.93601,1.10984 2.15856,2.77114 1.28486,1.74689 1.28684,2.04111 0.82744,2.03033 4.1166,-1.25433 0.52286,2.03936 1.11763,0.43101 2.36359,-0.0206 0.12211,3.19857 -0.0525,2.26341 2.68311,0.35314 0.0451,-0.35056 1.2592,0.17205 3.96121,0.0985 2.10074,0.25766 0.33419,-0.84867 0.018,-0.22883 0.71802,-0.38885 6.25908,1.14891 0.18444,0.78285 2.11541,-0.0903 1.02795,-0.34067 0.22759,3.21268 1.78516,-0.0607 -0.0378,-1.98937 h 0.3858 l -0.008,-2.22425 1.79363,-0.6379 0.0147,1.73777 1.44308,-0.0284 0.0107,-2.3434 13.33714,-4.28814 -0.0369,-7.32217 1.50203,-1.25523 4.04101,-1.3701 2.47611,7.65047 1.94282,48.268 -6.17843,0.54876 -10.67941,3.45291 -11.19438,3.42404 -15.34002,4.27245 -16.0476,1.27505 -13.11914,-2.69159 -3.64197,-0.7973 -6.45001,-1.34474 -10.13935,-3.00258 -10.1636,-2.03414 -8.81867,-1.9847 -9.53019,-0.30879 -17.77185,-3.96947 -3.0362,-1.17623 -4.54921,-2.54774 -1.49723,-0.62447 -1.70169,-0.98702 -1.02851,-1.1053 -3.64563,-4.40706 -4.25986,-4.37275 1.9868,-7.33111 -9.4219,-2.58068 -4.91527,-2.07274 -8.72532,-4.16103 -8.15931,-2.79629 -7.34428,-0.77682 -8.57021,0.19442 -11.17209,3.00921 -14.13186,7.36842 -14.60001,9.37544 -6.67985,11.83763 -3.92822,-3.14858 -2.93495,-2.66909 0.32122,-0.16902 0.60465,-0.42234 0.40328,-0.36471 0.36719,-0.4559 0.25466,-0.49503 0.0742,-0.31353 0.0381,-0.65202 -0.17062,-1.13802 -0.0299,-0.68728 0.11421,-0.31655 0.27384,-0.42192 -0.22956,-0.83998 -1.42701,-0.73891 -0.47012,0.27483 -0.47773,-0.002 -0.207,-0.0318 -0.21687,-0.0529 -0.86072,-0.34794 -0.83533,-0.38322 -0.4047,-0.0852 -0.37085,-0.0215 -0.48704,0.0211 -0.53555,0.17805 -0.72084,0.42624 -1.66136,1.13803 -1.93463,-1.87695 -3.07878,-2.87136 -1.5903,-1.43699 -1.23833,-1.19828 -9.41457,-10.2102 -1.25892,-1.41256 -1.07054,-1.38934 -0.3669,-0.56219 -0.55078,-0.89855 -0.65794,-1.25344 -0.17457,-0.40347 -0.41739,-1.05041 -0.3559,-1.04139 -0.2964,-1.15193 -0.75242,-3.62834 -0.4126,-1.48018 -0.39143,-0.97302 -0.39314,-0.78892 -0.76285,-1.30942 0.52793,-0.21207 4.03679,-0.97691 1.67406,2.37968 1.19716,-0.22928 4.07768,-0.67407 1.12637,-0.89474 1.28572,-1.36407 -1.03021,-1.18899 -0.47576,-0.69774 -0.58068,-1.06942 -0.30175,-2.1625 0.43882,-3.07753 0.58913,-2.10405 0.90499,-2.64397 0.2149,1.09355 -0.58462,3.05909 -0.28569,3.17691 0.26595,2.92349 1.10635,1.993 1.06264,0.67923 0.77949,0.13121 -0.54063,-1.84458 -0.35111,-1.85836 0.0505,-2.3591 0.52512,-5.67632 -0.17654,-1.83995 -0.7544,-4.04346 -1.52966,-5.04894 -1.66897,-3.88273 3.03337,-1.22227 5.31094,-2.7939 1.41319,2.69667 3.99251,-1.5144 2.11343,4.79786 1.19688,-1.86157 1.92392,-3.25853 1.62329,-2.96215 1.27754,-1.91843 6.03544,-8.57312 2.06351,-2.79281 1.5934,-2.30664 1.12327,-1.3859 2.10187,-1.94181 -0.23125,-0.68026 -2.97866,-6.08074 -0.40921,-0.75945 0.75214,-0.44105 7.9399,-3.87565 6.20606,-3.07406 0.4078,0.46128 0.64272,0.52626 0.077,0.32144 1.70563,3.85373 0.75158,1.45353 0.42641,0.97331 0.32178,0.91867 0.15173,0.65919 0.48253,7.39131 -0.26369,5.58397 0.19572,0.51416 0.95406,2.97693 0.2651,1.35099 -0.0688,3.71043 0.185,1.84315 0.49861,2.45621 1.54968,3.73483 0.46082,1.36036 0.0144,2.32706 -2.2584,0.75848 -0.0948,0.9882 -0.3057,1.70838 -4.25253,0.28652 0.0113,0.95463 1.66136,0.10067 0.21828,-0.15057 0.96393,0.14498 0.34519,0.0835 0.95576,0.0366 1.51668,0.47366 0.71209,0.25985 3.83712,0.71715 1.66447,4.53775 0.44277,0.74467 1.34606,1.54741 1.59396,2.41207 0.27468,0.5459 1.91208,0.54591 5.69223,2.86415 0.93065,0.18584 0.26905,0.63278 0.14664,0.59881 0.11055,1.32752 0.0601,0.36866 0.14637,0.22025 -0.0891,0.96659 0.28935,1.19286 3.34444,0.36736 1.35227,0.0796 1.00397,1.16102 4.05005,0.25724 1.4098,0.24175 1.74963,0.49426 1.91574,0.40865 5.75963,1.0169 0.9535,0.5734 0.0637,0.18282 0.45349,0.194 1.51499,0.16002 0.31727,0.0757 1.01075,0.0697 1.32491,0.48221 0.58914,0.003 0.23999,0.0697 0.0567,-0.10323 0.51496,0.14496 2.4386,0.9016 4.642,2.15765 3.55172,2.17654 0.46617,0.23056 0.51722,0.14152 0.67627,0.0972 0.63257,0.0404 1.37145,-0.0688 3.69216,-0.48478 1.30771,-0.12775 1.60975,0.001 1.36666,0.12389 1.16839,0.17205 1.56971,0.33896 2.25162,0.77469 1.29925,0.39271 0.51948,0.12733 -0.0643,-7.04756 0.91401,-0.0318 1.62076,-0.12345 1.79306,-0.21809 -0.28371,-1.42985 -1.3173,0.0878 -0.30063,-1.03239 -0.21631,-2.13791 5.52979,-0.31402 0.006,-1.53398 1.308,-0.19272 1.15147,-0.10496 4.67217,0.16003 5.28754,-1.22771 0.577,-0.0486 0.12719,0.1983 0.0973,0.28908 0.4501,-0.20863 1.37511,-0.27101 0.69489,-0.28649 -0.4972,-1.1176 -0.348,-0.94208 -0.63708,-2.30103 -0.54288,-0.9236 -0.58378,-1.09956 -0.6351,-0.97351 -0.18895,-0.41685 0.23549,-0.88619 0.81474,-1.04838 0.38157,-0.3876 2.73444,-1.97416 1.4222,-0.2564 0.56432,-0.22672 1.38612,-0.64745 6.00554,-4.27708 1.73356,-1.69804 -0.5897,-1.34312 1.7471,-0.56101 -0.77019,-1.45456 -0.1145,-0.5838 0.0214,-1.15945 0.23238,-3.3493 z" />
  <path
     id="93057"
     stroke="#000000"
     stroke-width="0.196516"
     fill="#ececec"
     d="m 486.25112,131.28677 1.02541,0.51804 -0.52004,0.17512 -0.87792,4.19937 -21.91835,-1.3622 -15.64234,1.48741 0.12719,7.49972 0.42754,7.95206 1.05305,16.57907 1.58437,19.20347 -2.47611,-7.65047 -4.04102,1.37009 -1.50202,1.25523 0.0369,7.32217 -13.33714,4.28814 -0.0107,2.34341 -1.44308,0.0284 -0.0147,-1.73777 -1.79363,0.6379 0.008,2.22425 h -0.3858 l 0.0378,1.98937 -1.78517,0.0607 -0.22758,-3.21268 -1.02796,0.34066 -2.1154,0.0903 -0.18444,-0.78285 -6.25908,-1.1489 -0.71802,0.38885 -0.018,0.22883 -0.33419,0.84867 -2.10074,-0.25766 -3.96121,-0.0985 -1.2592,-0.17205 -0.0451,0.35056 -2.68311,-0.35315 0.0525,-2.2634 -0.12211,-3.19858 -2.36359,0.0206 -1.11763,-0.43101 -0.52286,-2.03936 -4.1166,1.25433 -0.82744,-2.03033 -1.28684,-2.04111 -1.28487,-1.74689 -2.15855,-2.77114 -0.93602,-1.10984 -0.0891,-0.19487 -1.14245,-1.04489 -0.8091,-0.56999 -0.74142,-0.40092 -0.87792,-0.41168 -1.70451,-0.64398 -3.74208,-1.31721 -6.1522,-2.83449 -1.91884,-1.29788 -0.0863,-0.84704 -1.85285,-0.58893 -2.05026,0.77047 -2.6566,-1.02128 -0.62608,-0.36695 -0.30937,-0.26758 -0.20136,-0.24307 -0.14355,-0.24951 -0.0849,-0.26629 -2.20227,0.7266 -0.35619,-1.18863 -0.4752,0.15057 -0.48563,-1.61325 0.71181,-0.23488 -0.71943,-3.0424 -0.70363,0.18455 0.0322,0.32653 -1.01441,0.0624 -0.17091,-0.50334 -2.82947,0.31878 -4.39946,-6.63302 -2.54464,-4.49282 1.56519,-0.3928 3.73137,-1.75276 0.65371,-1.38148 0.53753,-1.51702 -0.24592,-2.43301 0.0163,-2.5492 -0.1475,-2.91152 -0.11675,-0.65312 -0.12775,-0.25601 -0.33561,-0.34076 -2.15911,-1.02272 -0.48113,-2.50842 -0.0634,-0.46254 -1.20901,-0.52923 -0.97972,-0.55762 -1.37145,-0.65444 -1.00144,-0.72285 -1.45041,-2.12856 -1.35905,-2.17849 -1.29389,-3.0167 -0.36154,-0.35972 -0.63877,-1.4918 -0.49212,-2.1166 -0.0398,-0.51979 0.2166,-2.10587 0.26735,-2.0848 0.26058,-1.28962 1.51556,-5.3793 0.17993,-1.40628 0.0375,-1.39682 -0.10914,-0.97898 -0.76793,-2.59272 -0.26679,-0.85205 -0.35365,-0.92564 -0.34462,-0.709189 -0.3497,-1.195041 -0.0852,-1.089181 0.0767,-1.221731 0.13226,-0.698013 0.22872,-0.642933 0.26058,-0.534487 0.44615,-0.775051 0.92445,-1.251016 0.66669,-1.526452 0.39539,-1.26954 0.0953,-0.599483 0.01,-0.547411 0.0522,-0.533643 0.006,-1.024684 -0.24057,-1.750709 -0.92558,-4.085902 -1.59706,-7.84193 -0.10688,-0.73467 -0.15144,-1.508087 -0.20672,-1.367789 -0.27638,-1.260626 -0.38495,-2.774784 -0.0606,-0.62064 -0.0651,-1.296812 0.0186,-1.621346 0.27525,-2.054353 0.0316,-0.44031 0.088,-0.372739 0.61874,1.520219 0.72394,2.305705 1.06743,0.04821 0.086,0.179478 0.16695,0.07489 0.25974,0.02496 0.35393,0.454938 4.84195,0.08522 -0.005,-0.44246 0.10378,-1.505134 0.23802,-1.512036 0.10407,-0.357671 1.83113,0.09081 4.0774,1.226675 0.47689,-1.091956 -3.60502,-0.910752 1.20703,-1.770305 3.85941,1.076906 0.51975,-0.617649 5.48297,1.259396 1.15571,-2.03458 1.3768,-0.01207 1.25667,-0.122669 1.81732,-0.226831 0.92332,-0.01034 2.67916,-1.194848 0.0846,-0.992122 2.94425,-1.418683 -0.56996,-1.210365 1.94141,-0.958137 0.81531,-0.295277 1.29671,-0.31077 1.4741,-0.431293 1.52374,-0.360705 0.17485,-0.02409 0.37931,0.129992 0.1585,1.0141 0.19769,0.918971 -0.0288,0.765732 3.35403,0.290108 0.0361,-0.658556 -0.0739,-0.514793 0.13706,-1.058002 2.73951,0.246639 0.51722,0.100723 0.73663,0.33186 0.6492,0.234585 1.16163,0.355965 1.34353,0.355536 2.00711,0.419668 1.17799,0.323252 0.58377,0.218656 0.79444,0.358115 0.39483,-0.616801 0.48365,-1.033029 0.24282,0.104162 0.58349,-1.796619 -0.21517,-0.04735 0.15313,-1.439801 -0.66302,-0.24535 -0.78937,-0.225117 -1.23721,-0.271609 0.66979,-2.408309 0.33109,-0.981412 0.2321,-0.490276 0.25241,-0.441638 0.044,-0.770931 0.48535,-1.202673 0.85875,-1.394665 1.01497,0.696471 0.47605,0.245791 0.49381,-0.739089 8.61138,1.884084 1.69831,-2.843993 0.35083,-0.538068 3.43919,2.795359 1.09846,0.817852 1.22592,0.605642 1.25413,0.458425 1.01921,0.464021 0.54345,0.343065 0.41625,0.425276 0.5505,0.819566 1.14386,1.552168 0.46731,0.402889 0.50086,0.232868 0.63199,0.163568 1.30941,0.124826 1.57309,-0.0095 2.45975,-0.250943 2.09905,-0.420539 2.01304,-0.559139 2.18422,-0.807507 1.86215,-0.901348 2.13656,-1.400663 2.31931,-1.719639 2.01416,-1.230657 -0.1427,-0.941833 0.51581,-0.324991 0.3717,-0.382243 0.88328,-0.794623 1.01498,-0.799788 0.69742,-0.409366 0.45574,-0.199735 -3.11995,-12.436769 3.93865,1.910484 2.10384,0.950068 -0.25127,-5.090904 0.0468,-0.974628 0.22561,-0.687495 0.16639,-0.669416 -2.96597,-2.112443 -0.57842,-0.107196 -1.61115,-1.074525 -0.70195,-0.374535 -0.14552,-0.295324 -1.58888,-0.953994 -0.79416,-0.278538 -1.40416,-0.783088 -2.2708,0.164885 0.12945,-1.084878 0.11703,-0.294895 2.74064,-5.7770711 2.78238,1.7440309 1.83226,0.9467033 -0.24928,-4.3249521 -0.72027,-0.5205037 0.47379,-0.6005838 0.37875,-0.2643414 0.10209,0.2652021 0.6884,3.3731434 0.29612,0.893754 0.99129,-0.3349416 -0.80206,-0.4817507 -0.0646,-0.2083736 0.20418,-0.5398684 0.0928,-0.5704422 0.64695,-1.1029963 3.54552,4.7090109 8.5702,11.8504283 1.21127,1.494656 2.80578,4.052566 1.62696,2.443812 1.17431,2.077888 0.69207,1.363293 0.6932,1.810536 0.46194,1.419666 0.3827,1.963751 0.12437,1.172131 0.18557,2.809123 -0.0144,0.632757 -0.46617,2.074748 -0.3951,1.271956 -0.4408,1.196188 -0.8249,2.518909 -0.47012,1.060584 -4.85689,9.933684 -2.14446,4.600612 -1.41318,2.606068 -2.43522,4.32329 2.93241,2.681725 -6.0188,6.865781 0.30599,0.636082 -0.62721,0.90549 -0.60041,1.062141 -0.55755,1.220937 1.48792,0.597341 -2.63742,6.055503 0.42754,0.633472 0.44784,0.746646 0.28314,0.642077 6.08198,1.801838 5.45731,2.0781 2.48316,1.193319 0.38805,0.398491 -0.0911,0.69541 3.49532,1.82503 0.98677,0.69196 -0.69404,1.60814 -0.93038,1.6365 -0.88694,1.12658 -1.74399,2.83448 -0.92361,2.03579 -0.58715,1.98285 -1.58353,3.04781 -0.31135,0.66438 -0.48789,1.39545 1.26598,-0.11618 4.46489,-0.84252 0.50707,-0.11962 1.34437,0.18287 0.61085,0.20268 0.65795,-0.1618 0.24789,-0.50688 2.39432,-3.73457 2.18281,-2.61583 1.59142,1.099 1.96791,0.8718 2.11823,0.80639 -0.83815,2.11148 0.35816,-0.11489 1.38188,-0.64286 0.8892,-0.29045 0.93207,-0.13426 1.02795,0.093 0.0936,0.94881 0.26735,1.6915 -0.13537,2.29088 -0.41964,3.29902 0.18021,1.52104 0.32573,0.62778 0.23266,1.14971 -0.24761,0.99093 -0.51806,1.80542 z" />
  <path
     id="93055"
     stroke="#000000"
     stroke-width="0.196516"
     fill="#ececec"
     d="m 411.25974,438.62822 -0.84943,-2.37941 12.28973,-5.84816 -4.75396,-7.62029 -3.72657,-7.7366 -0.5175,-3.64603 1.90079,-5.31855 1.78545,-1.47996 0.14411,-4.16102 0.83872,-1.32829 -0.81249,-1.49848 -0.94109,-2.86335 -1.3001,-6.0852 -0.65823,-2.43156 0.38242,-4.18888 0.92445,-11.12994 0.9817,-4.61167 0.45518,-0.30086 0.17005,-1.27264 1.89657,-3.51021 1.06066,-2.33816 14.30982,-2.81959 41.536,-9.45147 -12.01223,-10.40446 -18.34858,-32.20005 -8.30483,-13.20247 -5.34703,-4.13872 -5.97481,-2.9448 -2.43635,-0.80189 -3.08977,-0.7447 -2.27278,-0.27259 -10.34832,-0.69956 -11.28011,0.34956 -11.18366,-0.0696 -2.37599,-4.07055 -3.96939,-5.33606 0.4814,-0.66648 0.0956,-0.58608 -0.12381,-0.4158 0.0666,-0.2352 -2.39827,-0.71035 -0.36324,-1.57936 1.60975,-0.40936 0.37255,-1.55401 1.40106,-0.006 -0.0601,-0.30487 0.65541,-1.7114 0.27159,-0.84238 -0.88413,-0.33153 1.66588,-5.44566 -0.73889,-0.25027 0.50566,-1.69342 -1.61962,-0.5844 0.19656,-0.57235 -1.2217,-0.41412 0.96648,-4.94919 0.58292,-2.72127 13.11915,2.6916 16.0476,-1.27506 15.34002,-4.27245 11.19438,-3.42404 10.67941,-3.45291 6.17842,-0.54875 -1.94281,-48.268 -1.58437,-19.20348 -1.05305,-16.57906 -0.42754,-7.95206 -0.12719,-7.49972 15.64234,-1.48741 21.91835,1.3622 0.87792,-4.19937 0.52004,-0.17512 0.27384,-0.80375 0.27186,-0.50514 1.28008,-2.03604 0.24874,-0.62692 0.22279,-0.78612 0.13988,-1.11011 0.0496,-0.67038 0.86691,-0.0719 0.38016,-0.0723 2.54802,0.0232 -0.23407,2.98571 -0.21518,1.12387 -0.29414,1.90697 1.39965,0.82998 0.46673,-3.11903 2.91803,0.3752 -0.42246,3.07988 0.89005,0.11229 2.99276,0.10327 0.62777,-0.0486 0.69743,-0.145 0.56826,-0.31582 0.48422,-0.50212 1.4428,-2.13673 1.6137,-2.27056 0.35478,-0.43846 0.40921,-0.38295 0.0953,-0.0525 0.41005,-0.10671 4.60505,-0.70996 2.83399,-0.55291 2.55366,-0.4574 3.87942,-0.935 1.00906,-0.28829 1.13004,-0.13081 0.9707,-0.0276 1.11905,0.0405 2.39799,0.35455 2.99868,0.57615 1.88162,0.47117 1.09168,0.19448 2.63573,-0.49956 2.19071,-0.45395 1.0773,7.81426 0.41147,0.002 0.77385,2.60311 0.61677,5.11878 0.65287,5.59538 0.24592,3.45826 0.17485,3.32526 -0.0265,3.14753 0.31248,4.54568 -4.00154,0.18069 -0.008,0.90818 -0.98988,-0.003 -0.68191,2.63244 -0.13622,0.33384 -1.53389,5.94449 2.97528,6.33966 -2.69975,0.96102 1.63514,3.55454 -2.99079,2.12159 1.07871,1.19887 0.47041,0.34757 0.13621,0.29811 0.26369,1.08099 0.87369,0.38758 0.55331,0.29079 0.68051,0.4878 0.74029,0.15528 1.48651,0.92915 0.97578,0.45553 0.72563,0.26842 1.06744,0.20346 0.31303,-0.12345 0.35224,0.72868 0.3277,-0.11399 0.35534,0.065 0.59619,0.51446 0.28653,0.39144 1.17488,1.33175 0.1145,0.0697 0.0572,0.63576 0.42161,1.64101 0.91092,1.48872 -0.16385,0.33852 -0.009,0.80307 0.71858,0.0297 -0.40751,2.44618 -0.21659,0.47573 -0.27497,0.45594 -0.50678,0.66842 -0.91487,0.83317 -0.63933,0.51916 -0.7197,0.34754 -0.79642,0.15614 -0.57842,0.17592 0.1162,0.60519 0.0609,0.62153 -1.72369,0.5226 -4.5148,1.22714 -1.22536,0.39012 -1.59453,0.64002 -3.98095,1.82455 0.67853,3.36304 -0.66358,0.1785 0.25804,3.53374 -1.39147,0.26451 -2.35879,0.61074 0.19544,0.85332 0.42359,2.40294 -1.90361,0.55052 -0.0649,4.09829 -0.41625,5.64907 1.64613,-0.0658 -0.0138,1.25882 1.88557,0.0559 -1.00342,9.45487 -0.58998,4.83844 -2.27756,-0.0731 -0.23746,2.13944 0.84717,0.10149 -0.18133,1.29699 -2.18535,0.78394 -0.25466,-0.01 -0.27412,0.0684 -1.05136,0.37928 2.24824,0.72374 0.35196,-0.002 0.41118,0.12084 0.55585,0.28081 0.17006,0.20512 0.20559,0.1002 0.35844,-0.052 1.14386,0.3694 0.53076,0.0714 0.63256,0.19437 0.32601,0.18147 0.33165,-0.055 0.57419,0.17458 0.43515,0.22233 0.66585,0.65106 0.60153,0.39863 1.22762,0.44422 1.81422,0.45281 2.8244,0.9396 2.32861,1.0673 1.06208,0.0198 1.90474,2.09934 2.36132,1.21479 1.13202,0.89356 1.21831,0.63254 0.53612,0.36723 1.67433,0.66909 2.32101,0.74563 5.33462,2.37748 1.821,1.91435 0.59902,0.5461 1.48648,1.02596 1.81844,1.03327 2.71809,2.58982 0.63341,0.4919 1.04602,1.02982 2.00737,1.77668 1.68704,1.75259 1.39963,1.59004 1.42957,1.97786 1.17485,1.49801 1.06406,1.44597 1.86187,2.15367 3.06891,3.17565 3.79342,3.06682 1.99951,1.36593 2.88501,1.82252 2.52971,1.20512 2.35033,0.61008 2.66055,0.37576 2.31028,0.10405 3.59062,-0.4093 2.23159,-0.3964 2.96543,-0.97897 2.04915,-0.8689 1.61143,-0.95447 3.25222,4.75854 -0.0126,0.39296 -2.23867,1.3646 0.15906,2.00002 1.57055,-0.19132 -0.48928,9.56562 -6.95116,-1.17623 -6.05516,0.20292 -0.0377,2.64435 0.18951,0.7764 -0.0629,3.46325 -0.74031,-0.0795 -0.0812,1.84209 1.306,0.21366 -0.0267,12.7738 1.841,0.4419 -0.21829,1.93782 -0.99354,7.59678 -0.23295,2.04303 -0.15427,0.90224 -0.60857,-0.0795 -0.22308,0.46122 0.007,0.3933 0.63172,0.0834 -0.15509,0.91512 0.75269,0.21578 -0.69602,2.47541 0.0267,0.14914 0.13988,0.0739 -2.39828,8.35958 -0.10801,0.16333 1.665,0.60045 -0.62633,1.31134 -3.10558,5.56939 5.21506,2.67547 0.68981,0.43623 8.10093,6.1124 -40.58842,76.1617 -25.42835,-1.35034 -0.85366,-0.11901 -0.73974,-0.16409 -1.1698,-0.41374 -0.40216,1.15826 -2.74318,-1.31335 -1.24707,-0.87175 -0.5584,-0.62209 -0.56713,-0.72007 -0.62693,-0.93703 -0.71463,-1.17375 -0.59844,-0.36347 -0.12437,-0.20796 -0.7699,-0.20968 -0.97324,-0.47215 -0.49438,-0.32311 -0.0832,0.22643 -4.80529,-7.64302 -1.68025,-2.79367 -0.6258,0.26813 -1.7564,-2.92003 -3.89296,-6.06397 -7.15364,3.98566 -4.3659,2.97674 -1.00793,0.82584 -0.43825,-0.72915 -3.44005,-4.45525 -5.88597,5.86112 -0.68924,0.89368 -1.60863,2.83706 -0.20418,0.58562 -0.0482,0.33427 -2.68932,2.16584 -1.55588,0.98132 -2.02291,1.52009 -1.59509,1.70442 -1.27979,1.11405 -0.2603,0.14523 -0.48281,0.40729 -0.91007,0.4266 -0.99693,0.27155 -1.29164,0.0898 -0.70363,-0.0511 -0.60718,-0.13921 0.78824,2.49705 -2.4905,-0.0572 -4.21079,0.3046 -4.81177,-0.0984 -3.65945,-0.29646 -0.32319,4.97165 0.14975,2.32207 -4.54583,1.45041 -3.29226,1.86195 -0.89541,0.93868 -1.29389,1.42973 -0.43938,0.30287 -1.09959,1.98992 -5.20687,-0.90303 -0.32009,1.70552 -1.47946,6.63634 -0.24113,1.3966 -4.0303,0.17784 -2.19099,0.55933 -2.56579,0.4433 -1.85821,0.26077 -2.2017,0.0224 -2.10695,0.14133 0.0288,-0.13402 -0.32065,-0.89438 -0.25748,-1.05852 -0.61564,-1.0005 -0.64188,-1.53318 -0.84943,-1.10449 -0.76624,-2.32624 -0.73071,-1.32401 -0.0809,-0.58943 -0.24789,-0.84545 -0.0525,-1.50704 -0.5113,-2.07886 -0.31473,-0.73206 -0.58434,-0.65043 -0.57559,-0.34626 -0.27046,-0.42707 -0.22166,-0.17698 -0.54909,-1.20205 -0.042,-0.27367 0.10463,-0.9529 -0.32179,-0.92885 -0.11872,-1.10069 -0.49043,-1.16557 -0.16019,-1.30389 -0.14411,-0.43048 -1.03415,0.61863 -3.68625,1.3615 -1.06771,0.55421 -1.13879,0.44594 -1.71043,1.28843 -0.31698,-1.75284 -0.55671,-2.73499 -0.37621,-1.5226 -1.56406,-5.18787 -1.14527,-3.98671 z" />
  <path
     id="93053"
     stroke="#000000"
     stroke-width="0.196516"
     fill="#ececec"
     d="m 270.44847,372.92605 0.18443,-0.78135 7.85558,0.91716 9.78204,-2.18546 1.75753,-0.32363 2.03813,-0.30085 1.74512,-0.18051 1.67434,-0.0559 1.7234,0.0559 1.5996,0.14785 1.81929,0.24454 1.93125,0.35071 2.89547,0.64125 0.32488,0.10529 5.78445,1.38993 3.63491,0.59009 2.16336,0.15773 2.07451,0.0155 2.12387,-0.11605 3.93583,-0.40485 -0.1554,-4.88669 0.80939,-0.15086 -0.15088,-2.04454 -1.08266,0.0761 -2.13317,-4.72739 0.25043,-9.23375 -1.231,-0.59144 -7.35416,-0.48269 -1.58521,-3.65744 1.63738,-4.81764 -2.05703,-2.63884 0.0293,-0.81027 0.17118,-1.0828 2.72767,-4.97046 0.40103,-2.42057 1.03641,-0.0606 0.0657,2.40467 4.31712,-0.68219 -0.80516,-3.90408 -0.64948,0.1324 1.70281,-0.42987 0.76652,-0.0563 -0.0161,0.98784 0.0609,0.45051 0.29076,-0.0391 1.42306,-0.0279 1.93464,-0.26394 -0.02,-0.19688 0.24056,-0.0245 1.37963,-0.2863 -0.11196,-0.65813 1.32801,0.31424 0.83957,0.80944 1.49159,1.85833 3.737,-6.71679 1.8819,-0.50941 0.83026,-3.69229 -0.33363,-0.51157 0.37988,-5.56416 0.69714,-0.36025 -0.0914,-1.07777 -0.76934,0.0929 -0.28851,-1.99262 0.86157,-0.13886 -0.1475,-1.40366 -0.82828,-0.14015 0.007,-1.86755 0.5268,-0.077 -0.16864,-1.0877 -0.60465,0.003 -0.43204,-2.45227 1.49835,-0.53783 2.07959,-0.58298 10.59397,0.0482 0.53216,1.85555 1.97271,0.15649 0.13396,-1.32029 0.63256,0.0701 0.10914,-0.8964 -1.79955,-0.41703 1.43349,-4.20945 -1.19519,-0.4841 -1.64133,4.4098 -2.03758,-0.38951 -7.5273,0.12554 -0.18557,0.41445 -0.86551,-0.007 -0.13622,-0.44283 -1.32886,0.0477 -0.011,0.48968 -1.41995,0.94885 -0.52371,0.1178 -0.33391,-2.61095 0.89117,-0.0641 -0.1145,-1.01635 -0.61225,0.0675 -0.13622,-1.64793 0.3043,-1.51854 -0.74001,-1.76619 -0.0186,-1.98591 0.88694,0.0808 0.2149,-5.7549 -6.65419,-0.48542 -5.83662,-1.09597 0.0324,-4.02016 31.90512,-0.58906 7.28224,-0.005 3.81512,0.31301 1.11256,0.20166 4.4051,0.35902 2.62953,-0.006 1.91348,-0.0662 3.29847,0.0611 0.25071,-0.12899 2.75248,0.18961 1.90982,-0.0146 11.18366,0.0697 11.28011,-0.34957 10.34833,0.69956 2.27277,0.2726 3.08978,0.7447 2.43634,0.80188 5.97481,2.9448 5.34704,4.13873 8.30483,13.20246 18.34858,32.20006 12.01222,10.40445 -41.536,9.45148 -14.30982,2.81958 -1.06066,2.33817 -1.89656,3.51021 -0.17006,1.27263 -0.45517,0.30086 -0.98171,4.61168 -0.92445,11.12993 -0.38241,4.18889 0.65822,2.43155 1.3001,6.08521 0.94109,2.86336 0.81249,1.49847 -0.83872,1.32829 -0.1441,4.16103 -1.78545,1.47996 -1.9008,5.31854 0.5175,3.64604 3.72658,7.73659 4.75395,7.6203 -12.28973,5.84815 -3.65296,0.93837 -3.70993,1.6984 -2.73585,0.83311 -2.30041,0.519 -0.3449,-0.59462 -0.77329,0.51043 -0.64498,0.54093 -0.80657,0.86919 -1.11509,1.06465 -1.72905,1.51407 -1.07194,1.1394 -0.30176,0.55508 0.19656,1.44573 0.20249,0.84164 0.98509,2.34879 0.0863,0.12589 1.00764,2.49398 0.80516,1.88903 0.42274,0.89792 -0.80967,0.36945 -5.23338,0.23673 -5.26046,0.12934 -3.99787,-0.0393 -0.10238,0.0251 -0.17456,0.12157 -0.0987,0.18732 -0.18275,1.33395 -0.37198,4.67326 -0.65822,-0.0106 -0.52343,0.10227 -1.96283,0.8403 -0.6822,0.19074 -0.90725,0.0567 -0.89794,-0.006 0.0361,1.27248 0.20418,2.83533 0.13762,3.2894 1.02062,-0.12931 0.98255,-0.0338 2.82186,-0.0503 1.03613,0.0692 0.0327,0.39736 0.11732,0.40341 0.0288,0.30456 0.0491,0.14734 -0.34519,0.37547 -0.80939,-0.13961 -2.56127,-0.11901 -1.34269,0.27194 -0.91909,0.0949 -3.16818,0.49703 -6.24216,0.67401 -0.75045,-0.30885 -0.0747,-1.57142 0.004,-0.46912 -0.61903,0.11987 -0.19543,2.30341 -0.34576,0.26977 -5.57293,0.90213 -0.13734,-0.95538 -0.0773,-1.14699 -0.66668,-2.608 -0.50171,-2.4667 -0.40187,-1.57964 0.37931,-1.35537 0.44417,-1.92892 0.0333,-0.89226 -0.15201,-0.82399 -0.18979,-0.57312 -0.3686,-0.84459 -2.06182,-2.89774 -0.57588,-1.16982 0.006,-0.54262 -0.1255,-1.25149 -0.21292,-0.71359 -1.80322,-0.45198 -0.82067,-1.18016 -0.5677,-0.92842 0.56121,-0.25649 0.40413,-0.24274 0.3827,-0.33384 3.35741,-0.99673 1.82268,-0.38753 4.80218,-0.88935 2.21073,-0.64013 2.77363,-0.92072 5.04303,-1.81305 0.22335,0.751 1.47834,-0.41932 1.63372,-0.56027 2.5421,-0.92586 -0.45207,-1.591 -2.26544,0.65696 -0.086,-0.56931 0.0694,-0.69472 0.0598,-1.57209 0.39398,-2.87825 -0.0809,-0.44684 0.0499,-1.8252 -4.74578,1.07675 0.13396,0.37853 -0.20446,1.45952 -3.29847,1.21463 -0.60775,-1.19313 -0.099,-1.23184 -6.26754,1.37707 -2.01078,0.51298 -2.29759,0.46531 -6.48187,1.13814 -1.51274,0.47821 -3.05988,0.57917 -0.41739,0.11343 0.12522,1.44317 -0.27582,3.56519 -0.71575,2.77885 -0.11845,0.80686 0.088,2.50086 -1.48482,0.85453 -5.54078,2.99274 -5.69562,1.02035 -3.7731,0.88585 -5.07489,1.28195 -1.52881,-1.87354 -3.61095,-4.60209 -3.2525,-4.08316 -1.60806,0.18087 -3.05452,-0.13662 -0.43177,0.0208 -0.85789,0.54521 -0.36522,0.49236 -0.5457,0.96237 -0.0948,1.72109 -1.35087,-0.15855 -1.4019,-0.0279 -1.74117,0.0722 -0.93997,-0.0197 -0.0877,7.71679 -0.16245,4.04559 -3.45611,0.72518 -0.70335,0.18473 -1.57704,0.11728 -0.83674,-0.0988 -1.1072,0.25649 -0.61254,0.0315 -0.61311,-0.0149 -2.87064,-0.35742 -1.49695,-0.29729 -0.5536,-0.20705 -1.7282,-1.2287 -1.4318,-0.85232 -4.61859,-2.98964 -1.72002,-1.06846 -0.12888,-0.0303 -1.35086,-0.66073 -0.29753,-0.11299 -1.61511,-1.75626 -0.37903,-0.48076 -0.0206,-0.28911 0.0525,-1.1905 0.67882,-1.00533 0.88299,-1.1574 0.76145,-1.68501 0.34349,-2.08759 0.51891,-2.58811 0.30543,-1.07455 4.17074,-0.55936 2.25473,0.055 0.6791,0.1143 1.21323,0.4047 1.07307,0.44126 0.5976,0.39566 0.68474,-0.74066 0.008,-0.61439 -0.55416,-1.74954 -2.40843,-8.58621 -0.79585,-3.71533 -0.30457,-1.55495 -0.20841,-1.68866 -0.30994,-4.33632 -0.53612,-1.65431 -1.39034,-5.41201 -0.1819,-0.81428 -3.56244,-0.60975 -1.01356,-5.07569 -8.66948,0.48814 -1.74004,-0.0799 0.12408,-2.28092 0.0234,-2.66381 -0.38128,-0.0958 0.073,-0.57453 -3.70767,-0.26471 0.68811,-2.80185 -0.5581,-3.58139 -0.018,-2.1199 5.05177,0.40997 0.28455,-0.86378 -5.34958,-0.91664 0.85536,-0.90247 0.38326,-1.15774 0.58067,-1.49166 0.70476,-1.30386 0.42472,-0.66225 0.81841,-1.09029 0.58688,-0.67687 1.62301,-1.72463 -1.28374,-1.02971 0.92614,-0.97471 0.4439,-0.52002 0.51383,-0.67387 0.58011,-0.89736 0.73381,-1.45521 0.31726,-0.81184 0.3435,-1.10968 z" />
  <path
     id="93051"
     stroke="#000000"
     stroke-width="0.196516"
     fill="#ececec"
     d="m 172.18592,312.84198 -0.14806,-0.23602 3.19271,-3.47065 -4.13832,-4.81593 8.81049,-11.78491 6.39135,-6.0937 7.01065,-3.85461 5.69054,-2.08878 1.27556,0.46264 0.55952,-0.13844 1.69943,-1.10589 7.00192,-0.84833 14.90487,0.85693 17.00956,0.65571 -0.22364,3.28064 1.3534,0.49102 0.0271,2.18935 4.45587,1.07275 2.8777,-7.01355 30.25448,1.0818 30.12221,-0.22875 4.75565,-0.42308 9.43403,0.33408 -0.0324,4.02016 5.83662,1.09597 6.65419,0.48542 -0.2149,5.7549 -0.88694,-0.0808 0.0186,1.98591 0.74001,1.76619 -0.30429,1.51854 0.13621,1.64794 0.61226,-0.0675 0.1145,1.01635 -0.89117,0.0641 0.3339,2.61095 0.52371,-0.1178 1.41995,-0.94885 0.011,-0.48968 1.32886,-0.0477 0.13621,0.44283 0.86551,0.007 0.18557,-0.41445 7.52731,-0.12554 2.03757,0.38952 1.64134,-4.40981 1.19519,0.4841 -1.43349,4.20945 1.79955,0.41704 -0.10914,0.89639 -0.63257,-0.0701 -0.13396,1.32029 -1.9727,-0.15649 -0.53217,-1.85555 -10.59396,-0.0482 -2.07959,0.58298 -1.49836,0.53783 0.43205,2.45227 0.60464,-0.003 0.16865,1.08769 -0.52681,0.0769 -0.007,1.86755 0.82829,0.14015 0.14749,1.40366 -0.86156,0.13886 0.2885,1.99262 0.76934,-0.0929 0.0914,1.07777 -0.69715,0.36025 -0.37987,5.56416 0.33362,0.51157 -0.83026,3.69229 -1.88189,0.50941 -3.73701,6.71679 -1.49158,-1.85833 -0.83957,-0.80944 -1.32802,-0.31424 0.11196,0.65813 -1.37962,0.2863 -0.24056,0.0245 0.02,0.19688 -1.93464,0.26394 -1.42305,0.0279 -0.29076,0.0391 -0.0609,-0.4505 0.0161,-0.98785 -0.76652,0.0563 -1.70282,0.42987 0.64948,-0.1324 0.80516,3.90408 -4.31711,0.68219 -0.0657,-2.40467 -1.03641,0.0606 -0.40103,2.42058 -2.72767,4.97045 -0.17118,1.0828 -0.0293,0.81027 2.05703,2.63884 -1.63739,4.81764 1.58522,3.65744 7.35415,0.48269 1.231,0.59144 -0.25043,9.23375 2.13318,4.7274 1.08266,-0.0761 0.15088,2.04454 -0.80939,0.15086 0.15539,4.88669 -3.93583,0.40485 -2.12386,0.11605 -2.07452,-0.0155 -2.16335,-0.15773 -3.63492,-0.59009 -5.78444,-1.38993 -0.32488,-0.10529 -2.89547,-0.64125 -1.93125,-0.35071 -1.81929,-0.24454 -1.5996,-0.14785 -1.72341,-0.0559 -1.67433,0.0559 -1.74512,0.18051 -2.03814,0.30085 -1.75753,0.32363 -9.78203,2.18547 -7.85558,-0.91717 -1.54855,-0.20715 -1.03331,-0.19899 -1.24708,-0.32235 -1.49074,-0.44053 -1.49949,-0.50543 -0.80233,-0.35415 -1.83988,-1.31816 -0.51609,-0.43495 -0.80403,-0.97478 -0.46082,-0.7775 -0.3669,-0.95286 -0.21208,-0.96318 -0.0454,-0.88539 0.0632,-0.90818 0.18867,-1.6165 0.13621,-0.87165 -0.0248,-1.39989 -0.16216,-0.93613 -0.28173,-1.06164 -0.5615,-1.12569 -0.72619,-1.05908 -1.61652,-1.93162 -0.59224,-0.79131 -0.37818,-0.77154 -0.1647,-1.37803 -0.0392,-0.90565 0.12437,-0.88589 0.55727,-2.76385 0.15201,-1.53152 0.0632,-1.63255 -1.92816,-0.75395 -0.32065,0.68733 -0.69066,0.71483 -1.08943,0.65379 -1.35086,0.31894 -1.68223,-0.30476 -1.80801,-1.27319 -2.15432,-1.96054 -5.32505,-5.80949 -1.55052,-1.25047 -0.12945,-0.27125 -0.61057,-0.45179 -1.29897,-0.84425 -0.9456,-0.66028 -1.35396,-1.0953 -1.66757,-0.93669 0.16442,-0.45997 -3.49109,-1.52519 -3.59092,-1.18002 -3.01222,-0.75701 -1.39344,-0.17152 -1.85962,-0.11392 -0.0928,0.77507 -1.10466,-0.0477 -1.72454,0.028 -1.65826,0.11434 -0.70927,0.0791 -1.20731,-0.19 -1.32012,-0.13542 -0.94391,0.0344 -0.77527,0.0907 -1.0852,0.29618 -1.24397,0.40667 -2.42112,1.0648 -0.5598,0.28415 -0.91712,0.56614 -0.65146,0.59194 -0.72252,0.48662 -0.74622,0.43374 -2.22314,0.94055 -5.98299,2.69225 2.00317,2.69566 -0.42444,0.20332 -0.58264,0.14272 -0.0618,-0.0335 -0.92812,-1.24702 -2.78153,-3.45997 -0.33786,-0.49693 -1.52289,-0.89713 -1.91123,-2.17559 -6.6477,-6.78437 -3.5207,-4.06291 z" />
  <path
     id="93049"
     stroke="#000000"
     stroke-width="0.196516"
     fill="#ececec"
     d="m 157.48663,285.85989 0.0158,-1.47003 0.0615,-1.08695 0.12014,-0.57357 0.68304,-2.54971 0.33588,-0.92143 0.32827,-0.72665 0.97888,-1.95854 0.9332,-2.1155 0.90922,-1.26802 3.10895,-3.49795 1.60327,-1.6658 1.83959,-1.7604 0.36324,-0.38915 3.44907,-4.69392 1.48933,-1.79271 0.57616,-0.7379 5.84761,-6.44256 2.3351,-2.96936 4.90823,-5.43008 5.69927,-4.6686 4.27961,-4.18274 2.5562,-2.83068 3.01843,-2.63504 6.67984,-11.83763 14.60002,-9.37543 14.13186,-7.36842 11.17209,-3.00921 8.57021,-0.19442 7.34428,0.77682 8.15931,2.79629 8.72532,4.16102 4.91527,2.07274 9.4219,2.58068 -1.98681,7.33112 4.25987,4.37275 3.64563,4.40706 1.02851,1.1053 1.70169,0.98702 -1.41798,3.68915 1.44167,3.32955 1.93069,2.09051 1.95917,5.63238 2.73161,3.11737 2.73134,3.40244 2.87798,1.07335 1.63626,1.10604 1.58776,5.48536 0.83251,3.23026 0.13452,0.30487 0.85395,-0.35131 2.01332,0.86775 0.34659,2.04339 -1.64669,-0.12126 -0.27948,1.50501 -1.73666,5.55727 -0.28033,1.48733 0.58293,0.11007 -0.45489,2.40061 -0.16413,0.33237 0.67486,0.0946 -0.10801,0.76923 -0.10942,0.30658 -0.14298,1.08268 2.48597,0.32335 0.79445,0.36075 -0.0677,3.63627 -9.43402,-0.33408 -4.75566,0.42308 -30.12221,0.22875 -30.25448,-1.0818 -2.8777,7.01355 -4.45586,-1.07275 -0.0271,-2.18935 -1.3534,-0.49102 0.22363,-3.28064 -17.00956,-0.65571 -14.90487,-0.85693 -7.00191,0.84833 -1.69943,1.10589 -0.55953,0.13844 -1.27556,-0.46264 -5.69053,2.08878 -7.01066,3.85461 -6.39135,6.0937 -8.81048,11.78491 4.13831,4.81593 -3.19271,3.47065 -2.16251,-3.8709 -0.58744,-0.44754 -1.82831,-1.88819 -4.09094,-5.43293 -1.91348,-2.92827 -0.79303,-1.42481 -0.26341,-0.56063 -1.08604,-2.62522 -0.78486,-2.2727 -0.38213,-1.49923 -0.60774,-2.92068 z" />
  <path
     id="93047"
     stroke="#000000"
     stroke-width="0.196516"
     fill="#ececec"
     d="m 303.87761,231.98744 1.41798,-3.68915 1.49723,0.62447 4.54921,2.54774 3.0362,1.17623 17.77185,3.96947 9.53019,0.30878 8.81867,1.98471 10.1636,2.03414 10.13935,3.00258 6.45001,1.34474 3.64196,0.79729 -0.58292,2.72127 -0.96648,4.9492 1.2217,0.41411 -0.19656,0.57236 1.61962,0.5844 -0.50566,1.69341 0.73889,0.25027 -1.66588,5.44566 0.88413,0.33153 -0.27159,0.84238 -0.65541,1.7114 0.0601,0.30487 -1.40106,0.006 -0.37255,1.55401 -1.60975,0.40936 0.36324,1.57937 2.39827,0.71034 -0.0666,0.2352 0.12381,0.4158 -0.0956,0.58608 -0.4814,0.66648 3.96939,5.33607 2.37599,4.07054 -1.90982,0.0146 -2.75248,-0.18961 -0.25071,0.12899 -3.29847,-0.0611 -1.91349,0.0662 -2.62952,0.006 -4.4051,-0.35902 -1.11256,-0.20166 -3.81513,-0.31302 -7.28223,0.005 -31.90513,0.58906 0.0677,-3.63628 -0.79445,-0.36075 -2.48597,-0.32334 0.14298,-1.08268 0.10942,-0.30658 0.10801,-0.76923 -0.67486,-0.0946 0.16413,-0.33237 0.45489,-2.40061 -0.58293,-0.11008 0.28033,-1.48733 1.73666,-5.55726 0.27948,-1.50501 1.64669,0.12126 -0.34659,-2.04339 -2.01332,-0.86776 -0.85395,0.35132 -0.13452,-0.30488 -0.83251,-3.23026 -1.58776,-5.48536 -1.63626,-1.10603 -2.87798,-1.07335 -2.73134,-3.40244 -2.73161,-3.11738 -1.95917,-5.63237 -1.93069,-2.09051 z" />
</svg>
