<?xml version="1.0" encoding="UTF-8" standalone="no"?>
<!--
Diese Daten wurden aus der OSM-Datenbank extrahiert und stehen unter der 
Open Database Licence (http://www.openstreetmap.org/copyright) frei zur Verfügung. 
Quelle der Rohdaten: © OpenStreetMap-Mitwirkende (http://www.openstreetmap.org) 
Generiert von: http://www.suche-postleitzahl.org 
-->

<svg
   width="780"
   height="480"
   version="1.1"
   id="svg1387"
   sodipodi:docname="level4_Erlangen.svg"
   inkscape:version="1.2.2 (732a01da63, 2022-12-09)"
   xmlns:inkscape="http://www.inkscape.org/namespaces/inkscape"
   xmlns:sodipodi="http://sodipodi.sourceforge.net/DTD/sodipodi-0.dtd"
   xmlns="http://www.w3.org/2000/svg"
   xmlns:svg="http://www.w3.org/2000/svg"
   xmlns:rdf="http://www.w3.org/1999/02/22-rdf-syntax-ns#"
   xmlns:cc="http://creativecommons.org/ns#"
   xmlns:dc="http://purl.org/dc/elements/1.1/">
  <defs
     id="defs1391" />
  <sodipodi:namedview
     id="namedview1389"
     pagecolor="#ffffff"
     bordercolor="#000000"
     borderopacity="0.25"
     inkscape:showpageshadow="2"
     inkscape:pageopacity="0.0"
     inkscape:pagecheckerboard="0"
     inkscape:deskcolor="#d1d1d1"
     showgrid="false"
     inkscape:zoom="0.97698587"
     inkscape:cx="277.38375"
     inkscape:cy="292.73709"
     inkscape:window-width="1920"
     inkscape:window-height="1009"
     inkscape:window-x="-8"
     inkscape:window-y="-8"
     inkscape:window-maximized="1"
     inkscape:current-layer="svg1387" />
  <metadata
     id="metadata4">
    <rdf:RDF>
      <cc:Work
         rdf:about="">
        <dc:format>image/svg+xml</dc:format>
        <dc:type
           rdf:resource="http://purl.org/dc/dcmitype/StillImage" />
      </cc:Work>
    </rdf:RDF>
  </metadata>
  <path
     id="91058"
     stroke="#000000"
     stroke-width="0.1942"
     fill="#ececec"
     d="m 373.46375,440.05639 -0.44648,-0.70455 1.48614,-1.30146 2.10501,-3.37064 1.04208,-3.61573 -0.67777,-2.64061 -2.96024,-2.66205 -5.90336,-0.72522 -0.7064,-0.60975 -0.0709,-1.28009 1.80629,-6.2732 0.11403,-2.27605 0.53696,-1.10896 0.94569,-3.39951 0.72407,-1.3681 1.19305,-1.91846 0.77466,-3.65088 0.33513,-3.74296 -0.51314,-3.1283 -1.68851,-4.21963 -0.0905,-2.0721 0.75163,-3.91692 2.53196,-3.52789 1.465,-6.04543 0.69757,-1.37449 3.33928,-3.10802 0.74547,-2.11812 2.67571,-3.75555 3.39977,-1.97127 1.26718,-1.87101 0.50886,-3.06447 -0.0573,-1.80916 0.89298,-0.63139 5.39637,-2.21195 1.63684,-2.24004 -0.40204,-4.48016 -2.90056,-2.64208 -0.65875,-1.29299 -0.33915,-7.08704 1.65853,-2.61912 1.52201,-2.154 0.51689,-2.98652 -0.97649,-3.76209 -1.26343,-4.68135 0.37903,-4.08379 1.57367,-4.76164 0.25858,-1.49339 -0.28721,-8.09873 1.37853,-4.53741 -0.74682,-2.26874 -0.45933,-2.95816 -0.14375,-1.40727 0.072,-16.26043 -1.54879,-5.19033 0.60335,-3.23516 1.6936,0.53218 1.71447,0.48387 12.01791,3.89322 7.84,2.74338 4.67552,4.85954 3.59625,0.59077 9.84544,8.33123 0.70961,-4.08445 4.06442,1.97164 3.34462,0.66175 0.32978,0.12467 -0.22752,0.88591 5.13164,2.48969 2.53651,0.82976 0.41785,-0.10032 0.42855,0.71293 2.59994,1.39075 2.87514,-0.61839 -1.01183,1.94679 4.32272,2.11025 -0.81669,1.70361 0.88655,0.41116 0.78163,-1.64046 1.17617,0.49989 0.93125,-2.00413 1.20107,0.59897 -0.30087,1.84273 6.58593,0.92095 2.41579,-4.644 5.74622,0.93583 0.71497,-5.09818 -4.04969,-4.35936 3.69047,-1.27356 3.24425,-14.93573 0.15499,-4.33668 0.29712,0.0784 0.52947,0.002 0.25295,-0.0999 -0.0514,-0.81582 -0.71577,-0.22543 -0.16596,-4.02054 -0.0495,-3.93224 0.1665,-0.28325 1.06,-0.3877 1.31752,0.36458 -0.0337,5.05486 6.57362,0.0252 -1.19009,9.5132 -2.81731,-0.20974 -0.13893,8.69576 1.32527,0.10486 0.019,-0.42233 1.57099,0.11352 0.51636,-8.8159 11.22879,-5.13515 3.51809,0.25185 3.01538,-0.84059 6.14052,0.46777 0.60227,6.53845 11.58963,0.67872 -0.0811,2.04278 -1.94574,10.39355 -1.49846,8.46109 -0.44327,3.1435 -0.47031,4.17049 -0.16596,2.24269 -0.20022,10.59641 -0.42802,6.25909 -0.008,1.88668 -0.12179,1.12227 -0.095,1.99109 -0.0319,1.61381 0.0216,2.17637 0.16703,1.5234 0.4323,2.86558 5.17796,23.64826 0.5565,2.26105 0.84505,5.01268 0.59692,2.25933 0.2369,1.70386 -1.14164,0.35777 -1.43609,0.26864 -2.10931,0.45928 0.25858,3.05773 0.0827,1.51978 0.2203,2.91406 -0.0613,1.30971 -0.3006,1.89935 -1.04421,5.98017 -0.1681,2.28177 -0.0961,1.88152 0.009,1.85797 1.46767,9.21908 1.83841,-0.40063 1.13869,3.70339 -0.72647,0.53346 -0.82738,0.22404 0.30782,2.15693 0.0878,1.19771 0.01,0.38817 -0.0383,0.37546 1.11167,2.17877 0.84371,0.70013 1.92139,2.14035 0.6237,1.0933 0.01,1.06528 0.61914,2.1003 0.11537,0.34031 0.22833,0.5165 0.53348,0.66304 1.00165,0.97978 0.85362,0.63697 1.16841,0.68028 0.38519,0.25992 0.35307,0.31806 0.37555,0.53382 0.38519,0.71123 0.33566,0.84943 1.01718,1.62499 0.0597,0.21246 0.0605,1.34276 0.049,0.15638 0.0838,0.1291 1.00406,0.9125 0.6973,0.75412 -1.1652,1.44509 -2.53142,0.77594 -2.42329,0.31724 -0.67348,0.35683 -0.98371,1.08495 -0.32764,1.26105 -0.90261,0.74131 -1.96341,0.41209 -0.93045,-0.0491 -0.88091,-0.50986 -0.01,-0.45583 -0.13839,-0.82752 -0.93767,-0.35352 -1.24738,0.0249 -0.48074,0.10149 -0.59345,0.28834 -0.039,0.27681 -0.002,0.37994 0.16383,1.54113 0.002,0.37045 -0.38198,3.45684 -0.0765,1.17441 -0.0163,0.76767 0.87665,2.38547 0.031,0.44262 -0.0252,0.11097 -0.15391,0.30194 -0.11671,0.0792 -1.13843,0.42076 -1.1403,0.2281 -0.61459,-0.26193 -1.33652,-0.44057 -0.81266,-0.5288 -0.65983,-0.49995 -0.26366,-0.58411 -0.13999,-0.88894 -0.0918,-0.1456 -0.15846,-0.0548 -0.21976,0.014 0.005,0.47972 0.212,1.95978 0.61004,3.02855 -2.48967,-1.12981 0.39134,2.01209 0.67,2.49101 0.54098,0.0198 -0.32737,0.75648 2.24072,7.7739 0.69784,1.74142 -0.70319,0.38359 -1.06054,0.65045 -0.84291,0.62735 -2.7801,1.96534 -0.58889,-1.15612 -1.28646,0.32999 -0.6119,0.0805 -0.71256,-0.0148 -2.03676,-0.15465 0.28481,-5.82106 -2.92786,-0.23554 -1.68422,-0.30194 -3.3797,-0.19963 -1.53406,-0.0515 -2.75332,-3.62276 -0.89672,-1.70274 -1.0469,0.0887 -1.77764,0.0577 -3.05741,-0.17656 -0.25001,0.31184 -2.0314,-0.36875 -4.84603,0.12002 -0.31238,3.82038 -0.14482,1.13222 -0.40285,2.16424 -0.26848,1.22419 -0.74281,0.20458 -0.58059,0.0598 -2.04398,0.0392 -0.54018,0.0788 0.31532,-1.35703 -2.14222,-0.66696 -1.58357,-0.7185 0.16971,-0.36463 -2.23431,-1.92293 -1.83574,-1.38262 -0.66838,-0.71687 -0.92376,-0.54861 -1.79397,-0.95819 -1.50408,-0.54656 -1.1138,-0.29654 -2.2517,-0.53502 -1.97012,-0.40134 -1.26102,-0.37045 -1.36703,-0.25739 -0.56587,-0.0742 -0.44782,0.0311 -0.50644,0.0788 -2.56677,1.29318 -1.05732,0.34233 -0.26126,-2.44769 -0.0115,-0.92809 0.0798,-1.65279 -0.038,-0.75365 -0.0677,-0.25203 -0.10332,-0.15055 -0.44167,-0.21078 -0.95293,-0.12335 -1.31617,-0.0136 -4.95684,0.22939 -1.17029,-0.0148 -0.87986,-0.0619 -0.8844,-0.12989 -0.93741,-0.22402 -1.17242,-0.33866 -0.99068,-0.39601 -0.27758,-0.22522 -0.25697,-0.2607 -0.73424,-1.54358 -1.83707,0.16584 -4.60325,0.24008 -9.63798,-1.07167 -5.35169,-0.71241 -3.13021,-0.28585 -1.02226,0.14767 -0.80866,0.17077 -4.89661,0.89142 0.41837,2.28565 0.27223,2.81901 -0.20076,5.88204 -0.3089,0.75317 0.3603,0.1551 1.44358,0.81878 1.96341,1.17677 -0.53616,1.27333 -1.18848,-0.38362 -0.59558,-0.16084 -1.01557,-0.0132 -0.20049,0.0775 -0.66518,0.62572 -0.65447,0.87444 -2.28168,-1.51787 -0.31265,-0.14313 -0.76262,-0.0792 -0.32362,-0.13408 -1.03778,-1.05676 -1.30386,-0.28046 -0.70158,-0.46033 -0.90555,-0.24792 -0.63681,-0.96641 -3.27182,-0.1081 -1.37693,-0.11877 0.34771,-2.32228 -0.79848,-0.11881 -2.07369,-0.64222 -2.22521,-0.79529 -1.17885,-0.53497 -1.24603,-0.64227 -0.83436,-0.47765 -0.48932,-0.43974 -0.29497,-0.50943 -0.21013,-0.26854 -0.65045,-1.31131 -0.12126,-0.19017 -0.21387,-0.21489 -1.01477,-0.7495 -1.1288,-0.35845 -0.68632,-0.0487 -0.75512,-0.56058 -0.70559,-0.0606 -0.65421,0.21408 -0.55596,0.0734 -0.71497,0.0283 -0.23663,0.066 -0.40981,0.29038 -0.31613,0.0899 -0.58836,0.0755 -0.9374,0.0136 -0.22645,-0.0249 -0.14509,-0.0636 -0.18095,-0.15796 -0.22404,-0.14028 -0.18657,0.0731 -0.18095,0.0159 -0.22672,-0.073 -0.22459,-0.17858 -0.24653,-0.45502 -0.35628,-1.03124 -0.12741,-0.19101 -0.27517,-0.31348 -0.20076,-0.17614 -0.27062,-0.13819 z" />
  <path
     id="91056"
     stroke="#000000"
     stroke-width="0.1942"
     fill="#ececec"
     d="m 213.37394,48.195359 -1.52228,-4.971336 1.32393,-0.445556 2.27178,-0.164087 0.0398,-1.404053 0.22485,-1.003139 0.53,-0.630734 0.75216,-0.490618 0.87398,-0.64314 0.34423,0.686951 0.36377,1.315618 0.13063,0.831191 0.0252,0.941547 0.0773,0.293871 0.54445,0.847721 0.80678,0.834072 0.15766,0.218646 0.88146,1.647059 0.37448,0.364128 2.36413,1.425508 2.05361,1.385821 2.20889,0.852234 0.64456,0.344282 0.24974,-1.942538 0.16409,-0.5187 0.0327,-0.34966 0.22565,-0.708414 2.43479,-3.516896 -0.20477,0.08969 -0.50136,0.133912 -0.94839,0.117382 -0.57228,0.02232 -1.38818,-0.128957 -0.15499,-0.03926 -0.19059,-0.162436 -0.068,-0.242618 0.0457,-0.185166 0.54553,-1.249054 0.0642,-0.08267 2.03301,-1.575586 0.13758,-0.04629 0.11083,0.0017 2.07931,0.591883 1.78113,-3.512045 0.56346,-2.985927 0.41918,-2.949184 0.0359,-1.056508 0.4141,-1.564105 1.67245,-3.285736 0.75405,-1.162771 0.11536,-0.130208 0.55891,-0.379466 0.10922,-0.03762 2.82319,-0.618387 -0.25323,-1.798538 -0.0348,-0.828383 -0.10091,-0.577476 -0.16542,-0.484051 -0.0549,-0.645683 -0.016,-0.649816 0.0233,-0.661393 0.89725,-0.404693 0.48315,-0.594842 0.42642,-0.727127 1.16653,-2.434383 0.53937,-1.023534 0.40661,-0.906136 0.11349,-0.355079 0.18041,-0.401811 0.62985,-1.85239 0.5913,-1.3426933 1.01958,0.8383565 1.16333,1.0247962 -0.13491,0.1934656 0.85095,0.710612 2.07904,2.054109 0.24815,0.340215 0.48342,1.194667 0.40821,0.791208 0.72968,1.195898 1.03484,1.461691 0.62905,0.468763 1.43074,1.148342 1.21231,0.864352 0.78911,0.390633 0.80811,0.18891 2.11466,0.149635 3.49291,0.483639 0.73666,0.207095 0.52357,0.216602 0.20129,0.116155 1.99259,2.128814 1.5429,1.380201 0.22779,0.380286 0.24761,0.611768 0.20878,0.961045 0.21815,0.689471 0.11644,-0.01158 1.15611,-0.391029 0.29337,-0.186836 0.30783,-0.334401 0.79152,-0.594818 0.29953,0.232721 1.05786,0.581586 1.47651,-1.402923 -0.17185,-0.242225 -0.60869,-0.711801 2.18237,-1.639795 0.85442,-0.689899 1.66148,2.072586 0.18389,0.417079 0.7744,2.03949 1.16198,1.27891 1.55065,1.622396 0.54553,1.341719 0.19674,1.937333 0.16328,0.645636 0.16543,1.54216 0.55892,2.22332 0.1341,0.774581 -0.053,0.861793 0.099,1.58345 0.32737,2.003789 0.68981,2.18397 0.50725,1.469747 0.64001,1.224643 1.62293,0.962182 1.69948,0.812563 1.71875,0.321553 2.07799,0.343869 2.00142,0.768747 2.23778,0.71419 3.22043,0.734436 1.75623,0.576552 4.34521,-2.48973 1.82476,-0.784867 2.02498,-1.037403 1.45858,-0.651374 0.21922,0.271958 0.79795,1.452778 0.74468,1.590807 -1.15985,0.06531 -0.34155,0.116139 -0.14401,0.131015 -0.0319,0.06076 0.031,0.08514 0.30274,0.496786 0.0712,0.180202 0.13223,0.493065 0.008,0.324026 1.35579,0.816265 0.89698,0.774516 0.9176,1.047292 3.4766,2.629352 1.49363,1.212587 1.05894,-0.962131 4.4413,3.557961 0.9176,0.221516 0.50912,0.196309 0.75886,0.2116 0.87504,0.06117 0.99255,0.182668 -0.10252,1.062537 -0.50083,0.525271 -1.94119,1.25429 -1.72331,0.258294 -1.26879,0.0376 -0.16195,0.645943 -2.067,4.644696 -0.39188,0.390943 -0.35521,0.44095 -0.97487,1.048435 -0.44301,0.669892 -0.51207,0.973628 -0.4323,0.936843 0.49815,0.115713 0.79286,0.0035 0.55864,2.038974 0.4216,1.064522 -0.81508,0.88393 -0.20451,-0.47895 0.0821,-0.173149 -0.17105,-0.684748 -0.0736,-0.15414 -0.46228,0.03305 -0.26393,0.213235 1.08811,2.59393 2.2881,3.491851 2.81196,3.102537 0.30541,0.189671 1.08785,0.844632 0.85095,0.488848 1.80253,0.916942 1.66361,0.966524 1.45911,0.78677 -1.30732,1.721049 -0.36807,0.562799 -0.53053,1.026834 1.44278,0.818572 1.22917,0.869806 2.44175,1.058637 0.89539,0.302878 1.17242,0.524771 1.73054,0.479731 2.90671,0.420641 2.3055,0.226848 1.1213,0.03056 0.64912,0.07851 0.75485,-0.175609 1.55468,0.185109 1.03323,0.20578 3.29403,0.27064 0.57283,-0.0306 0.83864,0.0211 4.52669,0.42684 0.098,2.50894 0.42294,4.67607 0.0554,2.07418 0.099,1.97954 0.18523,1.49198 0.32014,-0.0644 2.14838,-0.27186 0.32897,-0.48465 -0.0452,-0.38549 -0.21629,-0.44707 -0.28534,-1.0412 0.0905,-0.48301 0.31185,-0.16362 0.16382,0.008 0.32362,0.11941 0.37903,0.48135 0.89726,1.37588 0.63547,1.19656 0.30755,0.75363 0.51153,3.0967 0.8373,3.83374 0.43042,2.32814 0.51903,1.06759 0.30248,0.80274 0.27811,1.38406 0.69569,2.03102 0.24333,0.4875 2.63072,1.446 2.27687,1.10803 0.41945,0.14171 0.99844,-0.005 1.11648,1.87398 1.28914,-0.002 2.25839,0.22599 2.96051,0.79858 1.128,0.22971 3.83903,0.60977 5.42983,1.09396 -0.002,0.0314 6.60601,1.4323 0.65286,0.18343 1.16333,-0.0405 -0.12956,-0.47385 0.2915,-0.98118 0.26259,-1.28648 0.45506,-1.11751 0.79901,-0.85973 0.6186,-0.79115 0.7155,-0.99111 0.44542,-0.89197 1.45081,0.37265 0.89378,-2.02562 2.16764,0.18881 1.41923,-1.69761 0.26741,-0.39456 -0.15551,-0.18962 -0.026,-0.21649 0.0297,-0.10618 0.25161,-0.42597 1.85259,-1.48856 3.50631,-1.31383 0.10761,-0.0107 0.59156,0.0946 0.63119,0.18799 0.4754,0.36481 0.36671,0.36812 0.22913,0.41604 0.94812,0.40654 0.2029,0.8796 0.60146,-0.37226 0.87317,-0.23219 1.66897,-0.88165 3.66717,-0.87589 -0.0806,2.04716 2.97229,6.54087 2.44094,4.87493 0.34477,3.11617 -4.13561,12.47828 -6.40418,3.66163 -4.75288,6.71997 5.54253,26.11972 1.69439,4.3796 1.44332,5.75809 1.51479,1.80933 -1.29958,3.70452 0.0575,1.50079 0.89805,2.3544 -2.01453,1.42189 -1.98885,3.16997 0.33032,4.8676 -0.21521,5.62896 -12.10492,0.45217 -15.7164,13.25391 -7.12584,3.23437 1.47891,10.65452 -1.52977,4.7775 3.81145,8.39659 -0.85388,4.5786 1.54878,5.19033 -0.072,16.26044 0.14375,1.40727 0.45933,2.95815 0.74682,2.26874 -1.37854,4.53741 0.28722,8.09873 -0.25858,1.4934 -1.57368,4.76163 -0.37902,4.08379 1.26343,4.68136 0.97649,3.76209 -0.51689,2.98651 -1.52201,2.154 -1.65852,2.61912 0.33914,7.08704 0.65875,1.29299 2.90055,2.64208 0.40206,4.48016 -1.63685,2.24005 -5.39638,2.21195 -0.89297,0.63138 0.0573,1.80917 -0.50885,3.06447 -1.26718,1.871 -3.39977,1.97128 -2.67571,3.75555 -0.74548,2.11811 -3.33927,3.10802 -0.69757,1.37449 -1.46499,6.04543 -2.53197,3.52789 -0.75164,3.91693 0.0905,2.0721 1.6885,4.21969 0.51314,3.12824 -0.33513,3.74297 -0.77465,3.65092 -1.19304,1.91842 -0.72407,1.3681 -0.94571,3.3995 -0.53696,1.10896 -0.11403,2.27607 -1.80628,6.27319 0.0709,1.28008 0.7064,0.60976 5.90336,0.72521 2.96024,2.6621 0.67776,2.64057 -1.04207,3.61573 -2.10501,3.37065 -1.48615,1.30144 -0.1938,-1.03783 -0.36992,-0.2104 -1.19304,1.42068 -0.83061,1.19297 -0.81748,1.29606 -0.56346,1.47592 -0.19219,2.35866 -0.17587,0.60801 -1.4733,3.12999 -0.53695,0.96149 -0.97516,2.0657 -0.18844,0.59728 -0.25965,1.87593 -0.72674,1.92005 -0.14669,1.20773 -1.09373,4.18318 -1.31911,-0.18725 -0.0512,0.21615 -0.89029,2.05319 -1.57743,-0.46522 -2.03113,6.18301 -1.80495,-0.62979 -4.71219,-0.0499 -0.92403,1.67081 -3.86311,-0.10268 -1.35097,0.0124 -0.0712,-0.0634 0.63466,-0.9111 -0.25483,0.0833 -4.83613,-0.085 -9.47845,-0.32994 -0.5209,-0.51638 -0.0482,4.07408 -4.37171,-1.79495 -3.08044,-0.12782 -1.33382,0.39469 -8.74851,-0.54155 -2.09725,-0.41943 -0.32551,1.74667 -0.24599,0.21118 -5.88702,-2.36 -2.57024,-0.97294 -8.42167,-3.34416 -0.93526,-0.4446 -1.80201,-0.93422 -0.44702,0.82985 -1.29235,-0.62609 -3.19794,-1.85562 -4.78768,-3.08234 -6.45477,1.03982 0.0739,0.11054 0.18416,2.03094 -0.11885,0.17529 -8.07155,1.397 -4.5374,0.83606 -2.56862,0.0862 -0.51529,-4.95815 -0.21413,-2.41581 0.0267,-1.94274 0.11002,-1.54968 0.0267,-1.32731 -0.10867,-1.16815 -0.28989,-1.73284 5.88247,0.15633 -1.70751,-8.7308 h 2.55283 l -0.2816,-0.65837 -0.2385,-0.40549 1.87,-0.18395 -0.97301,-2.9779 -0.59852,-2.49942 -2.06888,0.5107 0.24198,-4.01998 1.46714,0.45416 0.0832,-2.13935 -1.34615,-0.54946 0.40125,-2.33534 -0.46415,-0.23349 -1.16815,-0.33415 0.77011,-1.65097 0.74549,-1.06476 0.87824,-3.09403 0.34343,-0.63367 0.64297,-0.76076 1.60043,-2.2855 0.37689,-0.83008 0.79796,-2.3165 0.50965,-0.93899 0.85683,-1.20179 0.48129,-0.49591 0.63413,-0.58419 0.62314,-0.51983 0.42428,-0.49176 0.0686,-0.1766 -0.0666,-0.44763 -0.30917,-0.43816 -0.12714,-0.0933 -0.3951,-0.14522 -0.68632,-0.18652 -0.72835,-0.30198 -0.77706,-0.81233 -2.13607,-2.38139 -0.77145,-0.71295 -0.36003,-0.38122 -0.60575,-1.24268 -2.01668,-2.76517 -0.83783,-6.39192 0.63225,-1.44411 0.36244,-4.81307 2.65803,-6.22066 1.85528,-5.873 2.86361,-4.39258 -0.12447,-2.04881 0.0739,-1.66588 -0.27383,-3.61737 -0.67053,-2.32412 0.0265,-0.77294 -0.034,-0.63468 0.0423,-0.56165 0.49922,-0.40194 0.13838,-0.34004 0.26394,-1.07254 0.41034,-1.08286 9.8e-4,-0.89716 -0.0581,-0.54639 0.0639,-1.18728 -0.82392,-0.39742 -1.2032,-0.64172 0.43524,-1.38415 -0.31157,-0.3611 -1.128,-0.47666 -0.91117,-0.26701 -0.69034,0.12505 -1.24791,0.73293 -0.38252,-0.0408 -0.49681,-0.21171 -0.44166,0.1267 -0.75886,0.73664 -0.81375,0.18324 -0.48663,0.36647 -0.92028,0.16837 -0.17157,0.31612 -0.076,0.36977 -0.47674,0.39287 -0.22271,0.29259 -0.10974,0.70899 -0.35227,0.29713 -0.85737,0.18034 -0.89217,0.0859 -1.63122,0.40154 -0.63653,0.0747 -1.12854,-0.19519 -0.20343,0.11184 -0.34289,0.52369 -0.32255,0.2542 -1.18689,0.36811 -1.13629,0.29383 -0.84773,-0.53854 -0.78645,-1.17036 -0.27302,-0.32437 -0.76047,-0.45147 -0.32014,-0.1172 -0.11778,0.0194 -0.1218,0.26371 -0.19433,0.0797 -0.42079,0.0581 -0.0225,-0.11142 0.2318,-0.62481 0.0935,-0.51379 -0.45023,-0.5274 -0.96525,-0.82991 -0.66223,0.73004 -0.20531,0.64874 -0.0768,0.12174 -0.44729,0.28764 -0.23635,-7.8e-4 -0.45211,-0.20759 -0.10734,-0.14195 -0.14883,-0.43868 -1.11782,0.19685 0.0418,0.2377 -0.0568,0.26742 -0.0784,0.1432 -0.61619,0.42052 -0.48208,0.17126 -0.95561,0.10647 -2.51055,-0.15681 -0.77118,0.17415 -0.16168,0.0829 0.32897,0.41309 0.0635,0.23399 -0.0715,0.38049 -0.0905,0.12751 -0.13143,0.0874 -1.91174,0.61572 -0.63815,-0.12257 -0.11323,-0.0809 -0.20824,-0.2538 -0.34799,0.58147 -0.4596,0.55339 -0.32603,0.24555 -0.82847,0.26535 -0.73477,-9.9e-4 -0.83837,-3.96748 -0.38197,-0.65617 -1.71153,0.49151 -3.15806,-0.0763 -0.53187,0.2245 -0.0728,-0.12999 -0.1507,-0.11473 -2.21611,-0.69785 1.10149,-0.41681 -0.35547,-0.77956 -0.42052,-0.80929 -2.5341,-0.86335 -0.67508,-1.03378 -0.64885,-0.85263 -1.22704,-1.93966 -0.28829,-1.30249 -0.79847,-1.75935 -0.10092,-0.86915 0.24625,-1.64424 0.10949,-1.70161 -0.13117,-0.94923 -0.48449,-1.47671 -0.77519,-1.48868 0.34878,-1.29718 0.16275,-0.11061 0.55462,-0.69544 0.0423,-0.0941 0.0935,-0.57039 0.16997,-0.26868 0.7586,-1.64308 -0.0977,-1.62534 -1.13254,-1.93036 -2.13366,0.50767 -0.71363,-3.34196 0.70212,-1.52881 0.66116,-1.65636 0.50431,-1.52223 0.70372,-1.20979 0.20076,-0.25631 0.3006,-0.17542 0.79072,-0.27408 0.099,0.24559 1.23158,-0.0945 2.02953,-2.00437 1.23239,-0.55516 1.8368,-1.0187 -0.67026,-1.164 0.0244,-1.81494 0.14161,-1.08105 0.0225,-0.0883 1.9843,-3.81736 0.23101,-0.51638 0.29551,-0.7554 0.11858,-1.29119 0.73933,-0.2229 0.85014,0.0231 0.70105,-1.44435 0.62395,-0.84456 2.50627,-1.4423 0.51928,-0.33891 0.40179,-0.33519 0.27356,-0.34592 0.88869,-1.35232 0.37074,-0.71125 0.15525,-0.22622 0.091,-0.21177 0.13732,-0.48256 0.13384,-0.17956 0.0947,-0.0549 3.87516,-1.06297 -0.93766,-4.79768 -0.12394,-4.53977 1.20535,-4.07296 0.61432,-1.36524 0.0605,-0.19114 2.27739,-2.92125 -1.325,-4.73287 -1.30787,-3.85566 0.83676,-2.60102 2.94606,-2.16838 0.15017,-2.55939 -1.16387,-6.11186 -0.4264,-3.12682 -0.3156,-2.94106 -0.36859,-4.22069 -0.17399,-3.50067 -0.11403,-4.81134 0.0932,-5.74386 0.21467,-4.47257 1.15904,-11.42157 0.51689,-4.73846 -0.18095,-4.46187 0.86085,-4.4087 0.4521,-1.57683 0.13438,-1.13451 0.39188,-2.03158 0.60817,-6.26994 0.39133,-3.58876 -0.0208,-2.76854 0.11297,-3.2886 -0.0661,-4.31465 -0.15766,-2.80874 -0.43042,-4.23964 -1.10364,-5.481 -0.59184,-1.77953 -0.28855,-1.08144 -0.63332,-1.825 -0.47192,-1.79113 -0.2096,-0.96126 -0.74842,-2.72103 -0.72728,-2.24726 -0.31532,-1.99486 0.16381,-1.62474 -0.47673,-2.25971 -3.59036,-8.68461 -1.51772,-3.53022 -1.4824,-3.63522 -1.55574,-3.57744 -1.02012,-2.66072 0.27518,-0.87259 1.19865,-1.39359 1.25219,-0.43299 -1.81271,-3.24584 2.59647,-2.81494 1.51078,-1.24902 0.76475,-0.5735 0.58648,-0.48507 1.2514,-2.34315 0.81427,-0.66771 1.53112,-1.00569 1.78593,-0.76399 0.85818,-1.42716 -1.75597,-0.007 -1.5097,0.0826 -2.55818,0.42311 -1.35525,0.15908 -1.42405,0.36857 -2.20031,0.62556 -1.63604,0.50203 -1.61142,0.43508 -1.01075,0.0207 -0.28186,-1.0309 -0.61192,-2.74319 -0.56346,-2.78082 -0.79473,-3.545697 -0.47405,-2.386704 -0.23744,-1.408232 0.49146,-0.144624 0.42481,0.13512 0.68096,-0.614452 0.90234,-0.536768 1.66362,-0.839662 0.49146,-0.162393 1.11488,0.109917 h 0.67373 l 1.22811,-0.386361 0.92348,-0.440496 1.43717,-0.389665 1.80682,-0.249174 1.74793,-0.354959 1.36248,-0.185126 0.16007,0.817356 1.67513,-0.428099 0.0468,0.217357 1.60017,-0.541736 -0.16221,-1.00827 -0.29445,-1.19133 0.66384,-0.428106 1.00513,-0.131818 -0.037,1.485138 0.80599,-0.01076 0.41971,-0.08802 0.2021,-2.338872 1.47409,-0.476046 1.9139,0.09918 1.26263,-0.131824 1.31055,0.103311 1.76641,0.0657 2.8513,-0.451663 1.9088,-0.615306 2.51697,-0.655801 -0.14668,-2.214542 -0.56828,-3.968383 0.0792,-1.065768 -1.88766,-0.351265 -0.0364,3.143578 -2.05149,-0.1248 0.15714,-1.817458 0.22404,-1.945583 -2.544,0.125628 -0.969,0.136371 -3.05553,0.539708 -0.92001,0.01445 -2.11251,-0.16778 -3.49587,0.365728 -4.62626,0.552103 0.0324,0.722768 -0.3951,0.04422 -2.22439,0.06695 -4.41186,-0.317373 -1.35017,-0.0562 -1.99249,-0.174191 -0.51501,-0.402503 -0.50724,-0.555406 -0.98639,-1.391423 -0.70667,-0.837253 -0.77627,-0.450862 -1.40343,-0.573189 -1.84778,-0.907926 -0.28079,-0.337221 -0.26635,-0.596333 -0.2765,-1.235243 -0.19541,-0.712879 -0.29203,-0.71454 -1.75115,-5.968897 -0.31532,-1.355973 -1.06482,-3.804292 -2.52928,-7.866707 z m 21.05149,64.875671 -1.95458,2.02785 1.24363,1.2829 0.47299,-0.37681 0.86807,-0.12478 0.18818,-0.12726 0.0308,-0.0571 -0.0294,-0.61852 0.0619,-0.19667 0.14374,-0.14998 0.24868,-0.12518 0.12099,-0.0252 -1.31349,-1.57709 z" />
  <path
     id="91054"
     stroke="#000000"
     stroke-width="0.1942"
     fill="#ececec"
     d="m 581.89261,207.63869 -0.2005,0.69587 -0.1713,0.35558 -1.7383,2.78222 -0.18925,-0.10986 -0.83221,-0.14164 -1.22623,0.38819 -0.39723,0.49144 -0.90315,1.26204 -0.97729,1.01383 -1.13468,-1.02003 -0.11779,-0.069 -1.35417,-0.33326 -2.89279,-0.17882 -2.67624,-0.37043 -1.68235,-0.30064 -0.45773,0.18914 -0.75538,0.42412 -0.72514,0.67851 -1.38631,2.19863 -0.57121,1.73322 0.0865,0.71111 0.0198,2.18455 -1.69199,0.0351 0.0664,-0.50297 -7.06909,-1.83973 -4.71567,-2.43111 -0.87398,-0.3919 -2.15292,-0.54016 -6.72487,-0.75946 0.1368,-1.83689 -0.79314,-0.0921 -0.20583,1.7927 -3.59893,-0.48441 -0.008,-0.14701 0.12286,-0.67232 -3.93057,-0.92299 -5.47053,-0.13051 -0.15846,0.70991 -1.14379,0.0582 -0.90929,-0.36259 0.0782,-1.38057 -1.88178,-0.57321 -2.81248,-0.53811 -0.20076,2.01325 -1.21766,-0.13751 0.51367,-4.0695 -2.60477,-0.28495 0.17935,-1.47477 -3.33848,-0.39564 0.0688,-0.63435 -2.1374,-0.24284 -0.12259,0.99861 0.35146,0.0438 -0.005,0.0678 -0.67134,-0.0748 -0.48396,3.52109 -4.45521,-0.50301 -0.0739,0.62401 -1.45562,-0.40307 -2.19228,-0.35599 -1.20642,-0.35103 -3.18804,-0.21888 -0.0945,-0.96266 -1.56083,-0.1842 -0.2195,1.44214 -0.7934,-0.0541 -0.44006,0.12142 -1.1403,-0.17924 -0.75003,0.0471 -1.10069,-0.21434 0.0669,-0.86726 -1.14673,-0.0137 -0.15391,0.56827 -0.74361,-0.0541 -0.52304,0.21558 -0.33781,-0.0364 -0.0348,0.0268 -0.0701,-0.46708 -1.19545,-0.21186 -0.34557,0.0351 -0.79099,0.29941 -0.67776,-0.14413 0.0249,0.3242 -1.49364,-0.12142 -0.6882,0.2672 -0.0249,0.31345 -0.59129,0.0219 -0.0581,0.5282 -0.14133,0.69091 -0.53054,1.09935 -0.40821,-0.10572 -0.2029,0.0768 -0.32121,1.41403 -0.94463,-0.0496 -0.0207,-0.8974 -0.14294,0.11192 -0.44595,0.019 -0.2832,-0.0533 -0.14133,3.41073 0.54633,2.78629 -0.1317,0.56865 -1.0948,0.28947 0.0246,0.23705 0.77519,-0.1495 0.3611,1.59155 -1.20562,0.8829 -2.55471,0.35267 -0.42507,0.0285 -0.48584,1.91816 -7.07472,1.33961 -0.33673,1.66171 -0.55972,-0.0975 -0.13196,-0.41873 -0.54312,0.10902 -0.83756,-0.38817 -0.64323,-2.6404 -0.11804,-0.59961 -0.54419,0.0314 -1.31162,0.20153 -0.24465,-1.19468 1.53539,-0.20979 -0.7669,-2.40258 -1.46553,-0.69006 -0.71524,-3.11252 -0.62824,0.0306 -0.33887,-1.41442 0.0353,-0.0458 0.63119,-0.15445 -0.48852,-2.00582 1.39942,-0.37457 -0.27945,-1.19887 0.20183,-0.0528 -0.22003,-0.94078 -2.60665,0.53481 0.67857,2.4535 -0.0591,0.0491 -1.12799,0.27009 0.1946,0.86188 0.0415,-0.004 0.0591,0.26844 0.11056,-0.0244 0.0645,0.29239 0.33647,-0.0714 0.0677,0.28081 0.7372,-0.16189 1.10978,4.71361 -0.52571,0.10613 -0.0568,-0.24365 -0.45184,0.102 0.18309,0.78092 0.62476,2.13581 1.00271,0.39768 0.1665,0.85275 -0.62824,0.17138 -0.0348,0.19408 -3.32267,0.29568 0.0148,0.45755 -2.41927,0.13544 -0.16195,-1.12322 0.0107,-0.13463 0.87423,-0.0586 -0.10011,-1.47508 -0.55891,-0.0364 -0.14079,-1.06667 -0.24653,-1.14225 -0.18255,-0.35267 -2.61896,0.56989 0.005,0.40759 -0.45452,0.102 0.11645,0.51661 0.53321,-0.10696 0.16676,0.59879 -0.005,0.10696 -0.59317,0.0735 0.0902,0.42452 -2.61093,-0.4332 -0.83354,0.007 -1.83948,0.33409 -3.62034,0.83705 -1.31832,-0.86596 -3.27744,1.00142 -2.10233,-0.77801 -4.53901,-10.80446 -0.89805,-2.35441 -0.0575,-1.50078 1.29958,-3.70452 -1.51479,-1.80933 -1.44332,-5.75809 -1.69439,-4.3796 -5.54253,-26.11973 4.75287,-6.71997 6.40419,-3.66162 4.13561,-12.47827 -0.34477,-3.11619 -2.44094,-4.87493 -2.97229,-6.54086 0.0806,-2.04716 -0.24064,-1.66626 0.0589,-1.52331 0.33406,-1.37541 0.56239,-1.39608 0.91866,-1.32089 1.06617,-1.0606 1.07981,0.63752 1.03029,0.42391 2.65455,1.25106 1.25461,-2.36745 1.9444,1.75018 1.23052,0.90897 0.34315,0.1256 -0.34931,1.97615 -0.22646,1.67289 2.93911,0.39125 0.21521,-1.60512 0.48663,-2.68017 0.34263,-1.30602 0.36431,-1.19778 0.61057,-1.66342 0.71121,0.12725 -0.96497,2.6666 -0.083,0.8722 -0.44034,3.20159 0.22325,0.66974 -0.96177,2.85903 -0.22538,0.57386 -1.22597,9.33575 0.13946,0.10783 0.94384,0.39867 -0.28829,1.64054 3.26218,1.59466 -1.51907,3.75237 -0.45318,0.8283 0.93715,1.04393 0.36323,-0.49243 0.24706,-0.44988 0.2254,-0.52548 0.76528,0.26811 -0.40393,0.83697 -0.21146,0.26935 1.04046,0.68907 2.73085,0.78781 2.06325,0.52051 1.48266,0.0612 2.27366,0.24332 0.66544,0.0302 0.81669,-0.42962 0.39777,-0.0396 8.65722,0.7531 4.89957,0.67089 0.43872,0.0194 1.61436,0.29042 0.7487,0.23382 0.55088,0.29537 0.58326,0.3879 1.08891,0.88198 4.0845,1.98659 4.34922,-5.89375 1.84055,-2.886 0.63359,-2.30438 1.23051,-1.30629 0.28909,-0.26192 1.36917,-1.06792 0.46602,-0.41024 0.51663,-0.59449 0.25348,-0.53665 0.14857,-0.50691 0.0753,-0.42345 0.19915,-0.32969 0.35012,-0.9944 0.87155,-1.70914 1.21553,-2.14585 0.91117,-1.18614 0.41544,0.0678 1.77122,-0.31481 0.80143,-0.083 0.25563,0.002 0.29659,-0.0698 1.48721,0.65029 0.94088,0.47345 0.47353,0.29458 1.52576,1.08574 0.94838,0.57549 0.70988,0.36522 0.93473,0.38297 0.1689,0.24046 0.62984,0.37884 1.34508,0.72339 0.7851,0.29539 2.07557,0.38835 3.48248,0.27019 1.69146,0.0979 1.89087,0.32182 0.97863,-0.10328 0.4679,-0.0798 0.68177,-0.17104 2.79643,-1.22907 -0.51796,-1.04358 2.4024,-1.00352 0.8448,-0.32348 1.32553,-0.34497 1.7019,-0.31523 2.20619,-0.20946 4.3412,-0.48462 1.00807,0.0934 0.66786,0.18551 2.42141,0.85892 1.8012,0.70935 0.8389,0.28094 -1.01476,2.81345 -0.47781,0.95309 -0.53402,0.65564 -0.24466,0.18177 -0.20209,0.14914 -0.57872,0.19045 -1.00486,-0.0285 -1.54637,-0.50607 -1.0054,-0.16402 -1.97599,0.11237 -0.44916,2.31227 -0.0512,4.92809 1.40745,0.96503 0.68177,2.10274 1.76292,2.34065 2.02257,2.43274 0.97703,0.56265 0.33432,0.13177 0.91439,0.47382 0.55623,0.18714 0.49387,0.0756 0.62155,-0.14211 1.25835,-0.41969 0.79955,-0.17392 2.1805,-0.26025 4.61636,-0.40029 1.46901,-0.17433 0.78591,-0.0541 0.46334,0.0227 0.35843,0.0524 1.74498,0.54653 0.44649,-0.24372 0.33835,0.16317 -0.0437,1.00382 2.0108,0.84271 2.96559,1.64617 -1.30787,2.12823 -0.47245,1.63375 -0.0252,3.0985 3.03867,0.33418 1.20267,-0.0355 1.32769,-0.30444 1.25754,0.0822 3.14547,0.31682 0.25563,1.52672 -0.67668,4.31242 -0.39161,1.82243 -0.23904,0.95706 -1.55413,1.50559 -1.30975,1.19165 1.48855,1.64601 1.28566,0.99462 0.32068,0.28871 0.34262,0.41388 -0.55891,0.13052 -0.36163,0.12597 -0.53562,0.40355 -1.65853,1.59889 -0.49145,0.36223 -2.74825,3.52939 -0.46576,1.45759 -0.44541,1.93256 0.0557,1.38734 0.70132,0.052 0.74468,0.11192 1.00084,0.21436 1.46929,0.4663 0.18362,0.12762 0.0709,0.0863 0.0916,0.20528 0.22243,1.53642 0.0115,1.23451 0.7685,1.42655 0.8322,1.28446 0.52759,1.22539 -0.86352,0.17594 -1.06482,0.49395 -0.42426,0.60093 -0.492,1.43188 -2.25947,-0.0607 -0.2401,1.85974 -0.0602,0.24201 -0.32255,2.93432 -0.072,0.30024 0.57925,0.39772 2.11492,0.34979 2.79589,0.96226 -0.11939,1.09194 2.19523,-0.002 2.35797,0.18378 0.20396,-0.97134 7.16814,1.38019 z" />
  <path
     id="91052"
     stroke="#000000"
     stroke-width="0.1942"
     fill="#ececec"
     d="m 529.9822,262.47844 -1.19759,8.94048 -11.58963,-0.67873 -0.60227,-6.53844 -6.14052,-0.46777 -3.01538,0.84058 -3.51809,-0.25185 -11.22879,5.13516 -0.51636,8.8159 -1.57099,-0.11353 -0.019,0.42233 -1.32527,-0.10486 0.13893,-8.69575 2.81731,0.20972 1.19009,-9.51319 -6.57362,-0.0252 0.0337,-5.05486 -1.31752,-0.36458 -1.06,0.3877 -0.1665,0.28323 0.0495,3.93226 0.16596,4.02053 0.71577,0.22543 0.0514,0.81582 -0.25295,0.0999 -0.52947,-0.002 -0.29712,-0.0785 -0.15499,4.33668 -3.24425,14.93573 -3.69047,1.27356 4.04969,4.35936 -0.71497,5.09818 -5.74622,-0.93583 -2.41579,4.644 -6.58593,-0.92096 0.30087,-1.84273 -1.20107,-0.59898 -0.93125,2.00415 -1.17617,-0.4999 -0.78163,1.64045 -0.88655,-0.41114 0.81669,-1.70361 -4.32272,-2.11025 1.01183,-1.9468 -2.87514,0.6184 -2.59994,-1.39076 -0.42855,-0.71292 -0.41785,0.10032 -2.53651,-0.82976 -5.13164,-2.4897 0.22752,-0.8859 -0.32978,-0.12467 -3.34462,-0.66176 -4.06442,-1.97164 -0.70961,4.08446 -9.84544,-8.33124 -3.59625,-0.59077 -4.67552,-4.85953 -7.84,-2.74338 -12.01791,-3.89323 -1.71447,-0.48387 -1.6936,-0.53217 0.25055,-1.34345 -3.81146,-8.39659 1.52978,-4.7775 -1.47892,-10.65451 7.12583,-3.23438 15.71641,-13.2539 12.10491,-0.45218 0.21521,-5.62895 -0.33031,-4.86761 1.98884,-3.16998 2.01454,-1.42187 4.539,10.80446 2.10235,0.778 3.27744,-1.00142 1.31831,0.86597 3.62034,-0.83706 1.83948,-0.33408 0.83354,-0.007 2.61092,0.43318 -0.0902,-0.42452 0.59317,-0.0735 0.005,-0.10695 -0.16675,-0.59879 -0.53322,0.10695 -0.11644,-0.51661 0.45451,-0.102 -0.005,-0.40759 2.61895,-0.56989 0.18256,0.35267 0.24653,1.14224 0.1408,1.06667 0.55891,0.0364 0.10011,1.47507 -0.87423,0.0586 -0.0107,0.13463 0.16194,1.12322 2.41928,-0.13545 -0.0148,-0.45754 3.32268,-0.29568 0.0348,-0.19409 0.62823,-0.17137 -0.16649,-0.85275 -1.00272,-0.39767 -0.62476,-2.13583 -0.18309,-0.7809 0.45184,-0.10201 0.0568,0.24365 0.52572,-0.10613 -1.10979,-4.7136 -0.73719,0.16188 -0.0677,-0.28082 -0.33647,0.0714 -0.0645,-0.29239 -0.11055,0.0244 -0.0591,-0.26844 -0.0415,0.004 -0.1946,-0.86188 1.12799,-0.27009 0.0591,-0.0492 -0.67857,-2.45349 2.60665,-0.53481 0.22003,0.94076 -0.20183,0.0528 0.27946,1.19887 -1.39942,0.37457 0.48851,2.00581 -0.63118,0.15446 -0.0353,0.0458 0.33888,1.41443 0.62824,-0.0306 0.71523,3.11253 1.46554,0.69006 0.76689,2.40259 -1.53539,0.20978 0.24465,1.19468 1.31162,-0.20152 0.54419,-0.0314 0.11804,0.59961 0.64323,2.6404 0.83757,0.38817 0.54311,-0.10901 0.13197,0.41872 0.55972,0.0975 0.33673,-1.6617 7.07471,-1.33961 0.48584,-1.91817 0.42507,-0.0285 2.55471,-0.35267 1.20562,-0.8829 -0.36109,-1.59154 -0.7752,0.14949 -0.0246,-0.23704 1.0948,-0.28949 0.1317,-0.56865 -0.54633,-2.78628 0.14134,-3.41074 0.2832,0.0533 0.44595,-0.019 0.14294,-0.11192 0.0207,0.89739 0.94464,0.0496 0.3212,-1.41403 0.20291,-0.0768 0.40821,0.10572 0.53054,-1.09934 0.14132,-0.69092 0.0581,-0.52821 0.5913,-0.0219 0.0249,-0.31345 0.68819,-0.26719 1.49364,0.12141 -0.0249,-0.32419 0.67777,0.14413 0.79098,-0.29942 0.34558,-0.0351 1.19544,0.21185 0.0701,0.4671 0.0348,-0.0269 0.33781,0.0364 0.52304,-0.21558 0.74361,0.0541 0.15391,-0.56827 1.14673,0.0137 -0.0669,0.86727 1.1007,0.21433 0.75003,-0.0471 1.1403,0.17922 0.44006,-0.12141 0.79339,0.0541 0.2195,-1.44214 1.56083,0.18419 0.0944,0.96267 3.18804,0.21888 1.20642,0.35103 2.19228,0.35599 1.45563,0.40307 0.0739,-0.62402 4.45522,0.50302 0.48396,-3.5211 0.67134,0.0748 0.005,-0.0677 -0.35147,-0.0438 0.1226,-0.9986 2.13741,0.24283 -0.0688,0.63435 3.33848,0.39564 -0.17935,1.47477 2.60478,0.28496 -0.51368,4.06949 1.21766,0.13752 0.20076,-2.01326 2.81249,0.5381 1.88177,0.57322 -0.0782,1.38057 0.90931,0.36259 1.14378,-0.0582 0.15847,-0.7099 5.47053,0.1305 3.93056,0.923 -0.12286,0.67231 0.008,0.14702 3.59892,0.48442 0.20585,-1.79272 0.79312,0.0921 -0.13678,1.8369 6.72486,0.75944 2.15293,0.54016 0.87397,0.3919 4.71567,2.43112 7.06909,1.83972 -0.0664,0.50299 -0.34905,0.005 -1.23587,0.19285 -0.007,0.68674 0.13384,0.57318 0.19835,3.24867 -0.15471,1.9082 -0.73799,2.90091 -0.0522,0.33241 -1.3491,0.28409 -1.61436,0.24282 -0.9192,0.21679 -1.47972,0.23537 -1.91337,0.5046 -0.86325,0.29897 0.13946,0.97905 1.06455,0.37659 -0.55891,0.54218 -1.31189,0.98152 -1.53218,1.20657 -2.90564,2.0134 -3.25388,0.67925 -0.0927,-0.26137 -0.25028,-1.8759 -1.21364,0.52523 -1.25675,0.68545 -0.43391,0.41375 -0.54686,0.60162 -0.25536,0.50706 -0.47005,0.52235 -0.57738,0.96043 -0.47941,2.27886 -0.11644,1.34483 -0.41677,-0.0801 -0.0747,0.32372 -1.30599,-0.27211 -0.33246,-0.0417 -0.39936,0.005 0.15069,0.24858 0.10948,0.25806 0.0686,0.3712 -0.0208,0.46039 -0.0709,0.27417 -0.22486,0.42818 -0.32709,0.34518 -0.44006,0.26343 -0.39804,3.19046 -1.06161,6.15987 z" />
</svg>
